#N canvas 738 340 940 565 12;
#X obj 100 141 *~;
#X obj 99 440 *~;
#X obj 238 440 *~;
#X text 52 439 LINKS;
#X text 185 442 RECHTS;
#X floatatom 184 390 5 0 0 0 - - - 0;
#X obj 118 337 expr 1 - $f1;
#X obj 118 311 / 127;
#X obj 121 287 hsl 128 15 0 127 0 0 empty empty empty -2 -8 0 10 #fcfcfc
#000000 #000000 0 1;
#X floatatom 270 243 5 0 0 0 - - - 0;
#X obj 270 216 / 250;
#X obj 118 51 / 250;
#X obj 99 475 outlet~;
#X obj 238 473 outlet~;
#X obj 49 102 inlet~;
#X obj 480 197 vVerb;
#X obj 331 191 cnv 15 15 15 empty empty empty 20 12 0 14 #ff8300 #404040
0;
#X obj 118 108 line~;
#X msg 118 80 \$1 20;
#X floatatom 208 81 5 0 0 0 - - - 0;
#X obj 337 420 line~;
#X msg 337 392 \$1 20;
#X floatatom 394 392 5 0 0 0 - - - 0;
#X obj 118 408 line~;
#X msg 118 380 \$1 20;
#X obj 208 105 s y-verb-value;
#X obj 270 269 s x-dist-value;
#X obj 329 105 s x-verb-value;
#X obj 118 24 netpd_r \$1 verb-y;
#X obj 269 170 netpd_r \$1 dist-x;
#X connect 0 0 2 0;
#X connect 0 0 1 0;
#X connect 1 0 12 0;
#X connect 2 0 13 0;
#X connect 6 0 5 0;
#X connect 6 0 24 0;
#X connect 7 0 6 0;
#X connect 8 0 7 0;
#X connect 8 0 22 0;
#X connect 8 0 21 0;
#X connect 9 0 8 0;
#X connect 9 0 26 0;
#X connect 10 0 9 0;
#X connect 11 0 18 0;
#X connect 11 0 19 0;
#X connect 14 0 0 0;
#X connect 14 0 15 0;
#X connect 14 0 15 1;
#X connect 15 0 1 0;
#X connect 15 1 2 0;
#X connect 17 0 0 1;
#X connect 18 0 17 0;
#X connect 19 0 25 0;
#X connect 19 0 27 0;
#X connect 20 0 2 1;
#X connect 21 0 20 0;
#X connect 23 0 1 1;
#X connect 24 0 23 0;
#X connect 28 0 11 0;
#X connect 29 0 10 0;
