#N canvas 952 71 1123 939 12;
#X obj 125 418 nbx 5 25 0 250 0 0 x-verb empty X: -20 14 1 16 #e8fcd8
#000000 #000000 0 256;
#X obj 246 418 nbx 5 25 0 250 0 0 y-verb empty Y: -20 14 1 16 #e8fcd8
#000000 #000000 0 256;
#X obj 368 430 bng 15 250 50 0 click-count empty empty 17 7 0 10 #fcfcfc
#000000 #000000;
#X floatatom 368 410 5 0 0 0 - - - 0;
#X text 388 429 mouse click;
#X obj 125 148 gcanvas 250 250;
#X text 121 127 click and move your mouse in the box!;
#X text 121 109 VOLUME AND EFFECTS CONTROLLER:;
#N canvas 1043 228 450 300 line 0;
#X text 83 314 active;
#X msg 25 145 reset;
#X msg 24 171 delete 1;
#X msg 24 16 line green 83 0 0 250;
#X msg 24 43 line green 166 0 0 250;
#X msg 24 70 line green 0 83 250 0;
#X msg 24 97 line green 0 166 250 0;
#X obj 25 235 outlet;
#X obj 299 79 loadbang;
#X obj 164 171 loadbang;
#X msg 164 199 \; pd-line vis 0;
#X connect 1 0 7 0;
#X connect 2 0 7 0;
#X connect 3 0 7 0;
#X connect 4 0 7 0;
#X connect 5 0 7 0;
#X connect 6 0 7 0;
#X connect 8 0 3 0;
#X connect 8 0 4 0;
#X connect 8 0 5 0;
#X connect 8 0 6 0;
#X connect 9 0 10 0;
#X coords 0 -1 1 1 5 5 2 5 5;
#X restore 125 143 pd line;
#X obj 514 420 nbx 5 25 0 250 0 0 x-dist empty X: -20 14 1 16 #e8fcd8
#000000 #000000 0 256;
#X obj 635 420 nbx 5 25 0 250 0 0 y-dist empty Y: -20 14 1 16 #e8fcd8
#000000 #000000 0 256;
#X obj 757 432 bng 15 250 50 0 click-count empty empty 17 7 0 10 #fcfcfc
#000000 #000000;
#X floatatom 757 412 5 0 0 0 - - - 0;
#X text 777 431 mouse click;
#X obj 514 150 gcanvas 250 250;
#N canvas 1043 228 450 300 line 0;
#X text 83 314 active;
#X msg 25 145 reset;
#X msg 24 171 delete 1;
#X msg 24 16 line green 83 0 0 250;
#X msg 24 43 line green 166 0 0 250;
#X msg 24 70 line green 0 83 250 0;
#X msg 24 97 line green 0 166 250 0;
#X obj 25 235 outlet;
#X obj 299 79 loadbang;
#X obj 164 171 loadbang;
#X msg 164 199 \; pd-line vis 0;
#X connect 1 0 7 0;
#X connect 2 0 7 0;
#X connect 3 0 7 0;
#X connect 4 0 7 0;
#X connect 5 0 7 0;
#X connect 6 0 7 0;
#X connect 8 0 3 0;
#X connect 8 0 4 0;
#X connect 8 0 5 0;
#X connect 8 0 6 0;
#X connect 9 0 10 0;
#X coords 0 -1 1 1 5 5 2 5 5;
#X restore 514 145 pd line;
#X obj 126 773 nbx 5 25 0 250 0 0 x-grain empty X: -20 14 1 16 #e8fcd8
#000000 #000000 0 256;
#X obj 247 773 nbx 5 25 0 250 0 0 y-grain empty Y: -20 14 1 16 #e8fcd8
#000000 #000000 0 256;
#X obj 369 785 bng 15 250 50 0 click-count empty empty 17 7 0 10 #fcfcfc
#000000 #000000;
#X floatatom 369 765 5 0 0 0 - - - 0;
#X text 389 784 mouse click;
#X obj 126 503 gcanvas 250 250;
#N canvas 1043 228 450 300 line 0;
#X text 83 314 active;
#X msg 25 145 reset;
#X msg 24 171 delete 1;
#X msg 24 16 line green 83 0 0 250;
#X msg 24 43 line green 166 0 0 250;
#X msg 24 70 line green 0 83 250 0;
#X msg 24 97 line green 0 166 250 0;
#X obj 25 235 outlet;
#X obj 299 79 loadbang;
#X obj 164 171 loadbang;
#X msg 164 199 \; pd-line vis 0;
#X connect 1 0 7 0;
#X connect 2 0 7 0;
#X connect 3 0 7 0;
#X connect 4 0 7 0;
#X connect 5 0 7 0;
#X connect 6 0 7 0;
#X connect 8 0 3 0;
#X connect 8 0 4 0;
#X connect 8 0 5 0;
#X connect 8 0 6 0;
#X connect 9 0 10 0;
#X coords 0 -1 1 1 5 5 2 5 5;
#X restore 126 497 pd line;
#X connect 3 0 2 0;
#X connect 5 0 0 0;
#X connect 5 1 1 0;
#X connect 5 2 3 0;
#X connect 8 0 5 0;
#X connect 12 0 11 0;
#X connect 14 0 9 0;
#X connect 14 1 10 0;
#X connect 14 2 12 0;
#X connect 15 0 14 0;
#X connect 19 0 18 0;
#X connect 21 0 16 0;
#X connect 21 1 17 0;
#X connect 21 2 19 0;
#X connect 22 0 21 0;
#X coords 0 -1 1 1 784 711 2 100 100;
