#N canvas 89 120 450 300 12;
#X obj 60 187 pack f f f;
#X msg 60 214 \$1 \, \$2 \$3;
#X obj 60 243 vline~;
#X obj 60 366 outlet~;
#X obj 60 94 t f f;
#X obj 92 145 +;
#X obj 165 148 / 1;
#X obj 145 91 * 44.1;
#X floatatom 145 64 5 0 0 0 - - - 0;
#X floatatom 217 92 5 0 0 0 - - - 0;
#X obj 217 116 t b f;
#X floatatom 60 66 5 0 0 0 - - - 0;
#X obj 60 34 inlet;
#X obj 60 311 *~;
#X obj 195 291 vline~;
#X msg 195 265 1 20 \, 0 20 \$1;
#X obj 195 236 f;
#X obj 215 199 - 20;
#X obj 185 203 bng 15 250 50 0 empty empty empty 17 7 0 10 #fcfcfc
#000000 #000000;
#X obj 217 66 / 100;
#X obj 60 268 tabread4~ chords;
#X obj 145 8 netpd_r \$2 grain-x;
#X obj 213 37 netpd_r \$2 grain-y;
#X connect 0 0 1 0;
#X connect 1 0 2 0;
#X connect 1 0 18 0;
#X connect 2 0 20 0;
#X connect 4 0 0 0;
#X connect 4 1 5 0;
#X connect 5 0 0 1;
#X connect 6 0 0 2;
#X connect 6 0 17 0;
#X connect 7 0 5 1;
#X connect 8 0 7 0;
#X connect 8 0 6 0;
#X connect 9 0 10 0;
#X connect 10 0 6 0;
#X connect 10 1 6 1;
#X connect 11 0 4 0;
#X connect 12 0 11 0;
#X connect 13 0 3 0;
#X connect 14 0 13 1;
#X connect 15 0 14 0;
#X connect 16 0 15 0;
#X connect 17 0 16 1;
#X connect 18 0 16 0;
#X connect 19 0 9 0;
#X connect 20 0 13 0;
#X connect 21 0 8 0;
#X connect 22 0 19 0;
