#N canvas 191 24 1088 755 12;
#X obj 300 381 soundfiler;
#X floatatom 300 281 5 0 0 0 - - - 0;
#X obj 410 373 print;
#X obj 300 256 + 1;
#X obj 79 252 env~;
#X floatatom 79 281 5 0 0 0 - - - 0;
#X obj 300 319 makefilename ./sf/a%d.wav;
#X obj 102 88 random 17;
#X obj 129 233 tabplay~ ambi;
#X msg 300 343 read -resize \$1 ambi;
#X obj 102 19 inlet;
#X obj 129 291 outlet~;
#X obj 129 262 *~ 0.8;
#X obj 217 258 bng 15 250 50 0 empty empty empty 17 7 0 10 #fcfcfc
#000000 #000000;
#X obj 248 306 1;
#X obj 102 63 spigot 1;
#X obj 30 225 0;
#X msg 34 335 \; blue color 1;
#X msg 155 335 \; blue color 18;
#X obj 217 281 t b b;
#X obj 315 187 s button-click;
#X obj 18 432 loadbang;
#X obj 284 492 phasor~;
#X obj 284 519 *~;
#X obj 284 547 snapshot~;
#X floatatom 300 411 10 0 0 0 - - - 0;
#X obj 132 479 metro 100;
#X msg 284 606 next \$1;
#X msg 132 453 1;
#X obj 366 547 random 200;
#X obj 132 502 t b b;
#X msg 433 519 200000;
#X obj 284 575 +;
#X obj 284 679 outlet~;
#X obj 333 465 expr 44100/$f1;
#X floatatom 351 492 5 0 0 0 - - - 0;
#X obj 102 118 netpd_s \$1 ambi;
#X obj 106 152 netpd_r \$1 ambi;
#X obj 106 193 t b b b a b;
#X obj 284 638 clone grain-ambi 16 \$1;
#X connect 0 0 25 0;
#X connect 1 0 6 0;
#X connect 3 0 1 0;
#X connect 4 0 5 0;
#X connect 6 0 9 0;
#X connect 7 0 36 0;
#X connect 8 0 4 0;
#X connect 8 0 12 0;
#X connect 8 1 13 0;
#X connect 9 0 0 0;
#X connect 9 0 2 0;
#X connect 10 0 15 0;
#X connect 12 0 11 0;
#X connect 13 0 19 0;
#X connect 14 0 15 1;
#X connect 15 0 7 0;
#X connect 16 0 15 1;
#X connect 19 0 18 0;
#X connect 19 1 14 0;
#X connect 21 0 18 0;
#X connect 21 0 26 0;
#X connect 22 0 23 0;
#X connect 23 0 24 0;
#X connect 24 0 32 0;
#X connect 25 0 23 1;
#X connect 25 0 34 0;
#X connect 26 0 30 0;
#X connect 27 0 39 0;
#X connect 28 0 26 0;
#X connect 29 0 32 1;
#X connect 30 0 24 0;
#X connect 30 1 29 0;
#X connect 31 0 29 1;
#X connect 32 0 27 0;
#X connect 34 0 22 0;
#X connect 34 0 35 0;
#X connect 37 0 38 0;
#X connect 38 0 16 0;
#X connect 38 1 17 0;
#X connect 38 2 8 0;
#X connect 38 3 3 0;
#X connect 38 4 20 0;
#X connect 39 0 33 0;
