#N canvas 520 112 768 729 12;
#X obj 366 392 soundfiler;
#X floatatom 366 292 5 0 0 0 - - - 0;
#X obj 476 384 print;
#X obj 366 269 + 1;
#X obj 166 265 env~;
#X floatatom 166 294 5 0 0 0 - - - 0;
#X obj 173 24 inlet;
#X obj 215 276 outlet~;
#X obj 366 329 makefilename ./sf/c%d.wav;
#X msg 366 354 read -resize \$1 chords;
#X obj 215 246 tabplay~ chords;
#X obj 173 61 spigot 1;
#X obj 92 211 0;
#X obj 317 272 bng 15 250 50 0 empty empty empty 17 7 0 10 #fcfcfc
#000000 #000000;
#X obj 293 294 t b b;
#X obj 325 321 1;
#X msg 238 352 \; red color 13;
#X msg 85 354 \; red color 1;
#X obj 296 197 s button-click;
#X obj 88 471 loadbang;
#X obj 173 87 random 20;
#X obj 351 674 outlet~;
#X obj 350 502 phasor~;
#X obj 350 529 *~;
#X obj 350 557 snapshot~;
#X floatatom 366 421 10 0 0 0 - - - 0;
#X obj 199 489 metro 100;
#X obj 399 475 expr 44100 / $f1;
#X msg 350 616 next \$1;
#X msg 199 463 1;
#X obj 432 557 random 200;
#X obj 199 512 t b b;
#X msg 499 529 200000;
#X obj 350 585 +;
#X obj 173 187 t b b b a b;
#X obj 173 111 netpd_s \$1 chords;
#X obj 173 135 netpd_r \$1 chords;
#X obj 351 641 clone grain-chords 16 \$1;
#X connect 0 0 25 0;
#X connect 1 0 8 0;
#X connect 3 0 1 0;
#X connect 4 0 5 0;
#X connect 6 0 11 0;
#X connect 8 0 9 0;
#X connect 9 0 0 0;
#X connect 9 0 2 0;
#X connect 10 0 4 0;
#X connect 10 0 7 0;
#X connect 10 1 13 0;
#X connect 11 0 20 0;
#X connect 12 0 11 1;
#X connect 13 0 14 0;
#X connect 14 0 16 0;
#X connect 14 1 15 0;
#X connect 15 0 11 1;
#X connect 19 0 16 0;
#X connect 19 0 26 0;
#X connect 20 0 35 0;
#X connect 22 0 23 0;
#X connect 23 0 24 0;
#X connect 24 0 33 0;
#X connect 25 0 23 1;
#X connect 25 0 27 0;
#X connect 26 0 31 0;
#X connect 27 0 22 0;
#X connect 28 0 37 0;
#X connect 29 0 26 0;
#X connect 30 0 33 1;
#X connect 31 0 24 0;
#X connect 31 1 30 0;
#X connect 32 0 30 1;
#X connect 33 0 28 0;
#X connect 34 0 12 0;
#X connect 34 1 17 0;
#X connect 34 2 10 0;
#X connect 34 3 3 0;
#X connect 34 4 18 0;
#X connect 36 0 34 0;
#X connect 37 0 21 0;
