#N canvas 758 66 648 695 10;
#X obj 284 289 soundfiler;
#X obj 233 488 phasor~;
#X obj 292 461 /;
#X msg 326 401 44100;
#X obj 268 364 t b f f;
#X text 371 401 samplerate;
#X obj 164 379 metro 10;
#X obj 163 342 t b f;
#X obj 110 292 hsl 128 15 250 1 0 1 empty empty grain -2 -8 0 10 #fcfcfc
#000000 #000000 0 1;
#X text 121 420 More ??;
#X msg 284 262 read -resize \$1 mess;
#X floatatom 284 203 5 0 0 0 - - - 0;
#X obj 284 180 + 1;
#X obj 149 7 inlet;
#X obj 284 240 makefilename ./sf/xmess%d.wav;
#X obj 149 161 tabplay~ mess;
#X obj 372 289 print;
#X obj 233 600 tabread4~ mess;
#X obj 106 255 r x-axis;
#X obj 233 624 outlet~;
#X obj 233 573 *~;
#X floatatom 153 514 10 0 0 0 - - - 0;
#X obj 209 324 r y-axis;
#X obj 245 419 random;
#X obj 153 555 line~;
#X msg 153 534 \$1 20;
#X obj 209 349 / 25;
#X floatatom 83 310 5 0 0 0 - - - 0;
#X floatatom 284 320 10 0 0 0 - - - 0;
#X obj 284 158 random 38;
#X obj 153 486 spigot 1;
#X obj 143 442 spigot 1;
#X obj 238 121 s button-click;
#X obj 152 122 t b b b b;
#X obj 100 162 1;
#X msg 379 103 0;
#X msg 421 103 0;
#X obj 384 61 inlet;
#X obj 149 30 netpd_s \$1 mess;
#X obj 149 53 netpd_r \$1 mess;
#X connect 0 0 28 0;
#X connect 1 0 20 0;
#X connect 2 0 1 0;
#X connect 3 0 2 0;
#X connect 4 0 3 0;
#X connect 4 1 23 1;
#X connect 4 2 2 1;
#X connect 6 0 23 0;
#X connect 7 0 6 0;
#X connect 7 1 6 1;
#X connect 8 0 7 0;
#X connect 8 0 27 0;
#X connect 10 0 0 0;
#X connect 10 0 16 0;
#X connect 11 0 14 0;
#X connect 12 0 11 0;
#X connect 13 0 38 0;
#X connect 14 0 10 0;
#X connect 17 0 19 0;
#X connect 18 0 8 0;
#X connect 20 0 17 0;
#X connect 21 0 25 0;
#X connect 22 0 26 0;
#X connect 23 0 30 0;
#X connect 23 0 31 0;
#X connect 24 0 20 1;
#X connect 25 0 24 0;
#X connect 26 0 6 1;
#X connect 28 0 4 0;
#X connect 29 0 12 0;
#X connect 30 0 21 0;
#X connect 31 0 2 0;
#X connect 33 0 34 0;
#X connect 33 1 15 0;
#X connect 33 2 29 0;
#X connect 33 3 32 0;
#X connect 34 0 30 1;
#X connect 35 0 30 1;
#X connect 36 0 1 0;
#X connect 37 0 35 0;
#X connect 37 0 36 0;
#X connect 39 0 33 0;
