#N canvas 507 23 681 755 12;
#X floatatom 80 106 5 0 0 0 - - - 0;
#X obj 18 41 loadbang;
#X msg 18 69 0;
#X obj 80 75 inlet;
#X obj 582 385 env~;
#X floatatom 582 414 5 0 0 0 - - - 0;
#X obj 533 385 env~;
#X floatatom 533 414 5 0 0 0 - - - 0;
#X obj 484 385 env~;
#X floatatom 484 414 5 0 0 0 - - - 0;
#X obj 435 385 env~;
#X floatatom 435 414 5 0 0 0 - - - 0;
#X obj 533 442 - 100;
#X obj 582 442 - 100;
#X obj 435 442 - 100;
#X obj 484 442 - 100;
#X obj 484 471 s svu;
#X obj 533 471 s cvu;
#X obj 582 471 s mvu;
#X obj 435 471 s avu;
#N canvas 142 136 810 413 fill-o-meter 0;
#X obj 195 108 f;
#X obj 230 108 + 1;
#X floatatom 195 136 5 0 0 0 - - - 0;
#X obj 195 87 bng 15 250 50 0 empty empty empty 17 7 0 10 #fcfcfc #000000
#000000;
#X msg 233 75 0;
#X obj 234 48 loadbang;
#X msg 271 75 1;
#X obj 112 166 s counter;
#X obj 142 204 outlet;
#X floatatom 64 362 5 0 0 0 - - - 0;
#X obj 64 335 line;
#X obj 64 262 pipe 5000;
#X msg 64 300 34 \, 0 15000;
#X obj 64 230 t b b;
#X msg 227 253 -1;
#X obj 195 219 t b b;
#X obj 87 48 r button-click;
#X msg 195 323 \; counter color 44 \; yellow color 15;
#X msg 344 323 \; counter color 1 \; yellow color 1;
#X obj 301 211 outlet;
#X obj 195 164 sel 34 1 0;
#X connect 0 0 1 0;
#X connect 0 0 2 0;
#X connect 1 0 0 1;
#X connect 2 0 7 0;
#X connect 2 0 20 0;
#X connect 3 0 0 0;
#X connect 4 0 0 1;
#X connect 5 0 4 0;
#X connect 5 0 6 0;
#X connect 6 0 1 1;
#X connect 10 0 9 0;
#X connect 11 0 12 0;
#X connect 12 0 10 0;
#X connect 13 0 11 0;
#X connect 14 0 1 1;
#X connect 15 0 17 0;
#X connect 15 1 14 0;
#X connect 16 0 3 0;
#X connect 20 0 8 0;
#X connect 20 0 15 0;
#X connect 20 1 6 0;
#X connect 20 2 18 0;
#X connect 20 2 19 0;
#X restore 367 124 pd fill-o-meter;
#X obj 299 176 spigot;
#X obj 339 152 1;
#X obj 80 199 sel 1 2 3;
#X obj 378 153 0;
#X obj 469 173 bng 15 250 50 0 empty empty empty 17 7 0 10 #fcfcfc
#000000 #000000;
#X obj 80 479 tk_output~;
#X obj 237 405 loadbang;
#X msg 237 429 level 92;
#X obj 80 253 player-ambi \$1;
#X obj 201 254 player-stimme \$1;
#X obj 360 253 player-chords \$1;
#X obj 510 252 player-mess \$1;
#X obj 251 569 netpd_f \$1 grain-x 20;
#X obj 252 591 netpd_f \$1 grain-y 20;
#X obj 80 393 fx-pan \$1;
#X obj 251 617 netpd_f \$1 verb-x 40;
#X obj 252 640 netpd_f \$1 verb-y 40;
#X obj 252 669 netpd_f \$1 dist-x 60;
#X obj 253 692 netpd_f \$1 dist-y 60;
#X connect 0 0 21 0;
#X connect 0 0 23 0;
#X connect 1 0 2 0;
#X connect 2 0 0 0;
#X connect 3 0 0 0;
#X connect 4 0 5 0;
#X connect 5 0 13 0;
#X connect 6 0 7 0;
#X connect 7 0 12 0;
#X connect 8 0 9 0;
#X connect 9 0 15 0;
#X connect 10 0 11 0;
#X connect 11 0 14 0;
#X connect 12 0 17 0;
#X connect 13 0 18 0;
#X connect 14 0 19 0;
#X connect 15 0 16 0;
#X connect 20 0 22 0;
#X connect 20 1 24 0;
#X connect 20 1 25 0;
#X connect 21 0 32 0;
#X connect 22 0 21 1;
#X connect 23 0 29 0;
#X connect 23 1 30 0;
#X connect 23 2 31 0;
#X connect 24 0 21 1;
#X connect 25 0 32 1;
#X connect 27 0 28 0;
#X connect 28 0 26 0;
#X connect 29 0 10 0;
#X connect 29 0 35 0;
#X connect 29 1 26 0;
#X connect 29 1 26 1;
#X connect 30 0 8 0;
#X connect 30 0 35 0;
#X connect 30 1 26 0;
#X connect 30 1 26 1;
#X connect 31 0 6 0;
#X connect 31 0 35 0;
#X connect 31 1 26 0;
#X connect 31 1 26 1;
#X connect 32 0 4 0;
#X connect 32 0 35 0;
#X connect 35 0 26 0;
#X connect 35 1 26 1;
