#N canvas 723 159 546 410 10;
#N canvas 194 91 725 687 feedback 0;
#X obj 38 217 * 1000;
#X obj 28 106 random;
#X obj 61 82 * 2;
#X obj 60 62 t f f;
#X obj 27 129 -;
#X obj 37 175 +;
#X obj 60 22 pow 2;
#X obj 60 41 * 10000;
#X obj 26 150 / 10000;
#X obj 77 146 pow 2;
#X obj 37 197 clip 0.01 1;
#X obj 30 -20 delay 5;
#X obj 37 402 vd~ \$0-fb;
#X obj 39 294 vline~;
#X obj 37 266 pack 0 5;
#X obj 111 217 pow 2;
#X obj 110 243 * 500;
#X obj 30 -46 inlet;
#X obj 34 556 outlet~;
#X obj 262 301 - 1;
#X obj 264 322 * -1;
#X obj 266 345 pow 2;
#X obj 269 368 - 1;
#X obj 268 390 * -0.99;
#X obj 102 503 delwrite~ \$0-fb 1000;
#X obj 99 474 *~ 0.5;
#X obj -10 403 inlet~;
#X obj 150 288 osc~ 0.1;
#X obj 387 311 exp;
#X obj 387 263 *;
#X obj 387 286 +;
#X obj 465 243 log;
#X obj 561 240 log;
#X obj 490 279 t b f;
#X obj 490 301 -;
#X obj 465 187 loadbang;
#X msg 563 216 10;
#X obj 377 -19 inlet;
#X obj 377 110 random;
#X obj 410 86 * 2;
#X obj 409 66 t f f;
#X obj 376 133 -;
#X obj 387 214 +;
#X obj 409 26 pow 2;
#X obj 409 45 * 10000;
#X obj 375 154 / 10000;
#X obj 387 236 clip 0 1;
#X msg 466 220 0.1;
#X obj 113 362 *~;
#X obj 152 332 *~ 1;
#X obj 36 380 +~;
#X obj 61 1 r \$2-feedback-rnd-r;
#X obj 76 102 r \$2-feedback-time-r;
#X obj 110 196 r \$2-feedback-return-r;
#X obj 230 246 r \$2-feedback-lfo-depth-r;
#X obj 260 280 r \$2-feedback-r;
#X obj 409 6 r \$2-feedback-lfo-rnd-r;
#X obj 427 143 r \$2-feedback-lfo-r;
#X connect 0 0 14 0;
#X connect 1 0 4 0;
#X connect 2 0 1 1;
#X connect 3 0 2 0;
#X connect 3 1 4 1;
#X connect 4 0 8 0;
#X connect 5 0 10 0;
#X connect 6 0 7 0;
#X connect 7 0 3 0;
#X connect 8 0 5 0;
#X connect 9 0 5 1;
#X connect 10 0 0 0;
#X connect 11 0 1 0;
#X connect 12 0 18 0;
#X connect 12 0 25 0;
#X connect 13 0 48 0;
#X connect 13 0 50 0;
#X connect 14 0 13 0;
#X connect 15 0 16 0;
#X connect 16 0 14 1;
#X connect 17 0 11 0;
#X connect 19 0 20 0;
#X connect 20 0 21 0;
#X connect 21 0 22 0;
#X connect 22 0 23 0;
#X connect 23 0 25 1;
#X connect 25 0 24 0;
#X connect 26 0 25 0;
#X connect 26 0 18 0;
#X connect 27 0 49 0;
#X connect 28 0 27 0;
#X connect 29 0 30 0;
#X connect 30 0 28 0;
#X connect 31 0 30 1;
#X connect 31 0 33 0;
#X connect 32 0 34 0;
#X connect 33 0 34 0;
#X connect 33 1 34 1;
#X connect 34 0 29 1;
#X connect 35 0 47 0;
#X connect 35 0 36 0;
#X connect 36 0 32 0;
#X connect 37 0 38 0;
#X connect 38 0 41 0;
#X connect 39 0 38 1;
#X connect 40 0 39 0;
#X connect 40 1 41 1;
#X connect 41 0 45 0;
#X connect 42 0 46 0;
#X connect 43 0 44 0;
#X connect 44 0 40 0;
#X connect 45 0 42 0;
#X connect 46 0 29 0;
#X connect 47 0 31 0;
#X connect 48 0 50 1;
#X connect 49 0 48 1;
#X connect 50 0 12 0;
#X connect 51 0 6 0;
#X connect 52 0 9 0;
#X connect 53 0 15 0;
#X connect 54 0 49 1;
#X connect 55 0 19 0;
#X connect 56 0 43 0;
#X connect 57 0 42 1;
#X restore 79 171 pd feedback;
#N canvas 173 165 555 613 filter 0;
#X obj 232 517 vcf~ 2;
#X obj 269 46 inlet;
#X obj 279 390 exp;
#X obj 279 342 *;
#X obj 279 365 +;
#X obj 357 322 log;
#X obj 453 319 log;
#X obj 382 358 t b f;
#X obj 382 380 -;
#X obj 357 266 loadbang;
#X msg 358 299 10;
#X msg 455 295 20000;
#X obj 263 472 *~;
#X obj 279 436 vline~;
#X msg 280 414 \$1 5;
#X obj 269 175 random;
#X obj 302 151 * 2;
#X obj 301 131 t f f;
#X obj 268 198 -;
#X obj 279 279 +;
#X obj 301 91 pow 2;
#X obj 301 110 * 10000;
#X obj 267 219 / 10000;
#X obj 279 301 clip 0 1;
#X obj 118 320 inlet~;
#X obj 165 319 inlet~;
#X obj 231 544 outlet~;
#X obj 301 70 r \$2-vcf-rnd-r;
#X obj 317 171 r \$2-vcf-r;
#X connect 0 0 26 0;
#X connect 1 0 15 0;
#X connect 2 0 14 0;
#X connect 3 0 4 0;
#X connect 4 0 2 0;
#X connect 5 0 4 1;
#X connect 5 0 7 0;
#X connect 6 0 8 0;
#X connect 7 0 8 0;
#X connect 7 1 8 1;
#X connect 8 0 3 1;
#X connect 9 0 10 0;
#X connect 9 0 11 0;
#X connect 10 0 5 0;
#X connect 11 0 6 0;
#X connect 12 0 0 1;
#X connect 13 0 12 1;
#X connect 14 0 13 0;
#X connect 15 0 18 0;
#X connect 16 0 15 1;
#X connect 17 0 16 0;
#X connect 17 1 18 1;
#X connect 18 0 22 0;
#X connect 19 0 23 0;
#X connect 20 0 21 0;
#X connect 21 0 17 0;
#X connect 22 0 19 0;
#X connect 23 0 3 0;
#X connect 24 0 0 0;
#X connect 25 0 12 0;
#X connect 27 0 20 0;
#X connect 28 0 19 1;
#X restore 79 140 pd filter;
#N canvas 152 59 974 719 envelope 0;
#X obj 475 344 vline~;
#X obj 476 367 cos~;
#X obj 476 391 *~ 0.5;
#X obj 476 412 +~ 0.5;
#X obj 503 242 delay 10;
#X obj 503 264 f;
#X msg 506 307 1 \, 0.5 \$1;
#X msg 435 287 0.5 \, 1 \$1;
#X obj 440 231 t f f;
#X obj 561 242 abs;
#X obj 562 220 - 100;
#X obj 453 191 t b f f;
#X obj 453 170 *;
#X obj 506 90 * 0.9;
#X obj 506 114 + 0.05;
#X obj 453 121 t f f;
#X obj 436 263 max 5;
#X obj 506 287 max 5;
#X obj 534 367 + 1;
#X obj 532 390 pow 4;
#X obj 474 435 expr~ pow($v1 \, $f2);
#X obj 324 504 vline~;
#X msg 321 479 0 5 \, 1 5 5;
#X obj 236 568 *~;
#X obj 236 592 *~;
#X obj 342 42 inlet;
#X obj 342 67 t b f;
#X obj 371 92 pipe 5;
#X obj 470 588 outlet~;
#X obj 236 410 inlet~;
#X obj 237 622 outlet~;
#X obj 536 344 r \$2-envelope-exp-r;
#X obj 506 67 r \$2-envelope-r;
#X connect 0 0 1 0;
#X connect 1 0 2 0;
#X connect 2 0 3 0;
#X connect 3 0 20 0;
#X connect 4 0 5 0;
#X connect 5 0 17 0;
#X connect 6 0 0 0;
#X connect 7 0 0 0;
#X connect 8 0 16 0;
#X connect 8 1 4 0;
#X connect 9 0 5 1;
#X connect 10 0 9 0;
#X connect 11 1 8 0;
#X connect 11 2 10 0;
#X connect 12 0 11 0;
#X connect 13 0 14 0;
#X connect 14 0 12 1;
#X connect 15 0 12 0;
#X connect 15 1 10 1;
#X connect 16 0 7 0;
#X connect 17 0 6 0;
#X connect 18 0 19 0;
#X connect 19 0 20 1;
#X connect 20 0 24 1;
#X connect 20 0 28 0;
#X connect 21 0 23 1;
#X connect 22 0 21 0;
#X connect 23 0 24 0;
#X connect 24 0 30 0;
#X connect 25 0 26 0;
#X connect 26 0 22 0;
#X connect 26 1 27 0;
#X connect 27 0 15 0;
#X connect 29 0 23 0;
#X connect 31 0 18 0;
#X connect 32 0 13 0;
#X restore 79 109 pd envelope;
#N canvas 361 52 628 669 delayread 0;
#N canvas 0 22 462 312 scalelog 0;
#X obj 20 155 exp;
#X obj 20 107 *;
#X obj 20 130 +;
#X obj 98 87 log;
#X obj 194 84 log;
#X obj 123 123 t b f;
#X obj 123 145 -;
#X obj 20 183 outlet;
#X obj 20 19 inlet;
#X obj 98 31 loadbang;
#X msg 99 59 0.5;
#X msg 193 58 2;
#X connect 0 0 7 0;
#X connect 1 0 2 0;
#X connect 2 0 0 0;
#X connect 3 0 2 1;
#X connect 3 0 5 0;
#X connect 4 0 6 0;
#X connect 5 0 6 0;
#X connect 5 1 6 1;
#X connect 6 0 1 1;
#X connect 8 0 1 0;
#X connect 9 0 10 0;
#X connect 9 0 11 0;
#X connect 10 0 3 0;
#X connect 11 0 4 0;
#X restore 68 284 pd scalelog;
#X obj 60 134 random;
#X obj 93 110 * 2;
#X obj 92 90 t f f;
#X obj 59 157 -;
#X obj 70 238 +;
#X obj 92 50 pow 2;
#X obj 92 69 * 10000;
#X obj 58 178 / 10000;
#X obj 261 205 random;
#X obj 294 181 * 2;
#X obj 293 161 t f f;
#X obj 260 228 -;
#X obj 271 309 +;
#X obj 293 121 pow 2;
#X obj 293 140 * 10000;
#X obj 259 249 / 10;
#X obj 311 225 * 1000;
#X obj 249 391 + 5;
#X obj 416 241 random;
#X obj 449 217 * 2;
#X obj 448 197 t f f;
#X obj 415 264 -;
#X obj 426 345 +;
#X obj 448 157 pow 2;
#X obj 448 176 * 10000;
#X obj 414 285 / 10000;
#X obj 69 260 clip 0 1;
#X obj 426 367 clip 0 1;
#X obj 465 281 pow 2;
#X obj 426 389 * 5000;
#X obj 174 564 +~;
#X obj 155 532 vline~;
#X obj 220 347 - 1;
#X obj 151 288 moses 1;
#X obj 189 316 sel 1;
#X msg 190 347 0;
#X obj 193 452 *;
#X obj 179 484 pack 0 0;
#X obj 249 410 t f f f f f;
#X msg 179 508 \$1 \, 0 \$2;
#X obj 105 347 expr 1 - $f1;
#X obj 102 406 *;
#X obj 208 100 delay 5;
#X obj 82 487 pack 0 0;
#X msg 82 511 0 \, \$1 \$2;
#X obj 272 338 clip 10 990;
#X obj 272 359 t f f b;
#X obj 172 584 vd~ \$3-delayline;
#X obj 242 49 t b b b;
#X obj 424 424 outlet;
#X obj 243 24 inlet;
#X obj 170 611 outlet~;
#X obj 474 422 outlet;
#X obj 93 28 r \$2-pitch-rnd-r;
#X obj 109 131 r \$2-pitch-r;
#X obj 295 100 r \$2-duration-rnd-r;
#X obj 449 136 r \$2-delay-rnd-r;
#X obj 464 237 r \$2-delay-r;
#X obj 311 201 r \$2-duration-r;
#X connect 0 0 34 0;
#X connect 1 0 4 0;
#X connect 2 0 1 1;
#X connect 3 0 2 0;
#X connect 3 1 4 1;
#X connect 4 0 8 0;
#X connect 5 0 27 0;
#X connect 6 0 7 0;
#X connect 7 0 3 0;
#X connect 8 0 5 0;
#X connect 9 0 12 0;
#X connect 10 0 9 1;
#X connect 11 0 10 0;
#X connect 11 1 12 1;
#X connect 12 0 16 0;
#X connect 13 0 46 0;
#X connect 14 0 15 0;
#X connect 15 0 11 0;
#X connect 16 0 13 0;
#X connect 17 0 13 1;
#X connect 18 0 39 0;
#X connect 19 0 22 0;
#X connect 20 0 19 1;
#X connect 21 0 20 0;
#X connect 21 1 22 1;
#X connect 22 0 26 0;
#X connect 23 0 28 0;
#X connect 24 0 25 0;
#X connect 25 0 21 0;
#X connect 26 0 23 0;
#X connect 27 0 0 0;
#X connect 28 0 30 0;
#X connect 29 0 23 1;
#X connect 30 0 31 1;
#X connect 31 0 48 0;
#X connect 32 0 31 0;
#X connect 33 0 37 0;
#X connect 34 0 41 0;
#X connect 34 1 35 0;
#X connect 35 0 36 0;
#X connect 35 1 33 0;
#X connect 36 0 32 0;
#X connect 37 0 38 0;
#X connect 38 0 40 0;
#X connect 39 0 42 1;
#X connect 39 1 44 1;
#X connect 39 3 37 1;
#X connect 39 4 38 1;
#X connect 40 0 32 0;
#X connect 41 0 42 0;
#X connect 42 0 44 0;
#X connect 43 0 1 0;
#X connect 44 0 45 0;
#X connect 45 0 32 0;
#X connect 46 0 47 0;
#X connect 47 0 18 0;
#X connect 47 1 50 0;
#X connect 47 2 53 0;
#X connect 48 0 52 0;
#X connect 49 0 43 0;
#X connect 49 1 9 0;
#X connect 49 2 19 0;
#X connect 51 0 49 0;
#X connect 54 0 6 0;
#X connect 55 0 5 1;
#X connect 56 0 14 0;
#X connect 57 0 24 0;
#X connect 58 0 29 0;
#X connect 59 0 17 0;
#X restore 79 61 pd delayread;
#X obj 169 107 delay 5;
#X obj 80 38 r \$1-go;
#N canvas 216 40 807 704 autopan 0;
#X obj 57 40 inlet~;
#X obj 97 409 *~;
#X obj 157 402 *~;
#X obj 292 284 exp;
#X obj 292 236 *;
#X obj 292 259 +;
#X obj 370 216 log;
#X obj 466 213 log;
#X obj 395 252 t b f;
#X obj 395 274 -;
#X obj 370 160 loadbang;
#X msg 468 189 10;
#X obj 222 259 *~ 0.5;
#X obj 221 282 +~ 0.5;
#X obj 109 353 -~ 1;
#X obj 108 378 *~ -1;
#X obj 98 443 outlet~;
#X obj 221 234 osc~ 0.1;
#X obj 175 439 outlet~;
#X obj 282 -46 inlet;
#X obj 282 83 random;
#X obj 315 59 * 2;
#X obj 314 39 t f f;
#X obj 281 106 -;
#X obj 292 187 +;
#X obj 314 -1 pow 2;
#X obj 314 18 * 10000;
#X obj 280 127 / 10000;
#X obj 292 209 clip 0 1;
#X obj 168 142 random;
#X obj 167 67 * 357.89;
#X obj 168 90 int;
#X obj 165 46 f \$1;
#X obj 164 23 loadbang;
#X obj 169 165 * 341.725;
#X obj 168 116 t b f;
#X msg 371 193 0.1;
#X obj 331 79 r \$2-autopan-r;
#X obj 314 -22 r \$2-autopan-rnd-r;
#X connect 0 0 1 0;
#X connect 0 0 2 0;
#X connect 1 0 16 0;
#X connect 2 0 18 0;
#X connect 3 0 17 0;
#X connect 4 0 5 0;
#X connect 5 0 3 0;
#X connect 6 0 5 1;
#X connect 6 0 8 0;
#X connect 7 0 9 0;
#X connect 8 0 9 0;
#X connect 8 1 9 1;
#X connect 9 0 4 1;
#X connect 10 0 36 0;
#X connect 10 0 11 0;
#X connect 11 0 7 0;
#X connect 12 0 13 0;
#X connect 13 0 14 0;
#X connect 13 0 2 1;
#X connect 14 0 15 0;
#X connect 15 0 1 1;
#X connect 17 0 12 0;
#X connect 19 0 20 0;
#X connect 20 0 23 0;
#X connect 21 0 20 1;
#X connect 22 0 21 0;
#X connect 22 1 23 1;
#X connect 23 0 27 0;
#X connect 24 0 28 0;
#X connect 25 0 26 0;
#X connect 26 0 22 0;
#X connect 27 0 24 0;
#X connect 28 0 4 0;
#X connect 29 0 34 0;
#X connect 30 0 31 0;
#X connect 31 0 35 0;
#X connect 32 0 30 0;
#X connect 33 0 32 0;
#X connect 34 0 17 1;
#X connect 35 0 29 0;
#X connect 35 1 29 1;
#X connect 36 0 6 0;
#X connect 37 0 24 1;
#X connect 38 0 25 0;
#X restore 81 210 pd autopan;
#X obj 171 130 t b b b b;
#X obj 67 294 throw~ \$2-Left;
#X obj 174 288 throw~ \$2-Right;
#N canvas 106 132 450 300 NETPD 0;
#X msg 38 30 version 0 0 2;
#X restore 316 52 pd NETPD 2 0;
#X connect 0 0 6 0;
#X connect 1 0 0 0;
#X connect 2 0 1 0;
#X connect 2 1 1 1;
#X connect 3 0 2 0;
#X connect 3 1 2 1;
#X connect 3 2 4 0;
#X connect 4 0 7 0;
#X connect 5 0 3 0;
#X connect 6 0 8 0;
#X connect 6 1 9 0;
#X connect 7 0 1 2;
#X connect 7 1 0 1;
#X connect 7 2 6 1;
#X connect 7 3 0 2;
