#N canvas 55 30 1227 747 10;
#N canvas 624 75 434 290 NETPD 0;
#N canvas 315 75 473 287 abslist 0;
#X msg 35 21 b-granule;
#X restore 13 52 pd abslist;
#X msg 11 6 version 0 0 6;
#X restore 10 14 pd NETPD 2 0;
#N canvas 637 23 549 163 \$3-\$2 0;
#X obj 31 5 cnv 15 510 150 empty empty value 100 13 0 11 #ffffff #000000 0;
#X obj 73 30 hsl 100 12 0 1 0 0 \$1-\$2/pitch \$1-\$2/pitch pitch -45 7 0 11 #0c4044 #fcfcfc #0400fc 0 1;
#X obj 182 30 hsl 100 12 0 1 0 0 \$1-\$2/pitch-rnd \$1-\$2/pitch-rnd random/jitter -4 -12 0 11 #0e4345 #fcfcfc #000000 0 1;
#X obj 73 45 hsl 100 12 0 1 0 0 \$1-\$2/duration \$1-\$2/duration duration -65 7 0 11 #0c4044 #fcfcfc #0400fc 0 1;
#X obj 182 45 hsl 100 12 0 1 0 0 \$1-\$2/duration-rnd \$1-\$2/duration-rnd empty -2 -6 0 10 #0c4044 #fcfcfc #000000 0 1;
#X obj 73 60 hsl 100 12 0 1 0 0 \$1-\$2/delay \$1-\$2/delay delay -45 7 0 11 #0c4044 #fcfcfc #0400fc 0 1;
#X obj 182 60 hsl 100 12 0 1 0 0 \$1-\$2/delay-rnd \$1-\$2/delay-rnd empty -2 -6 0 10 #0c4044 #fcfcfc #000000 0 1;
#X obj 73 75 hsl 100 12 0 1 0 0 \$1-\$2/metro \$1-\$2/metro metro -45 7 0 11 #0c4044 #fcfcfc #0400fc 0 1;
#X obj 182 75 hsl 100 12 0 1 0 0 \$1-\$2/metro-rnd \$1-\$2/metro-rnd empty -2 -6 0 10 #0c4044 #fcfcfc #000000 0 1;
#X obj 395 30 hsl 100 12 0 1 0 0 \$1-\$2/envelope \$1-\$2/envelope empty -2 -6 0 10 #0c4044 #fcfcfc #000000 0 1;
#X text 424 55 envelope;
#X obj 395 45 hsl 100 12 0 1 0 0 \$1-\$2/envelope-exp \$1-\$2/envelope-exp empty -2 -6 0 10 #0c4044 #fcfcfc #000000 0 1;
#X obj 401 7 cnv 15 140 17 empty empty g..r..a..n..u..l..a..r 0 8 0 10 #ffffff #7c7c7c 0;
#X obj 73 90 hsl 100 12 0 1 0 0 \$1-\$2/vcf \$1-\$2/vcf filter -52 7 0 11 #0c4044 #fcfcfc #0400fc 0 1;
#X obj 73 120 hsl 100 12 0 1 0 0 \$1-\$2/feedback \$1-\$2/feedback feedback -68 7 0 11 #7c7c7c #fcfcfc #0400fc 0 1;
#X obj 291 120 hsl 100 12 0 1 0 0 \$1-\$2/feedback-time \$1-\$2/feedback-time empty -2 -6 0 10 #7c7c7c #fcfcfc #000000 0 1;
#X obj 182 120 hsl 100 12 0 1 0 0 \$1-\$2/feedback-rnd \$1-\$2/feedback-rnd empty -2 -6 0 10 #7c7c7c #fcfcfc #000000 0 1;
#X obj 182 90 hsl 100 12 0 1 0 0 \$1-\$2/vcf-rnd \$1-\$2/vcf-rnd empty -2 -6 0 10 #0c4044 #fcfcfc #000000 0 1;
#X obj 400 120 hsl 100 12 0 1 0 0 \$1-\$2/feedback-return \$1-\$2/feedback-return empty -2 -6 0 10 #7c7c7c #fcfcfc #000000 0 1;
#X obj 73 105 hsl 100 12 0 1 0 0 \$1-\$2/autopan \$1-\$2/autopan autopan -60 7 0 11 #0c4044 #fcfcfc #0400fc 0 1;
#X obj 182 105 hsl 100 12 0 1 0 0 \$1-\$2/autopan-rnd \$1-\$2/autopan-rnd empty -2 -6 0 10 #0c4044 #fcfcfc #000000 0 1;
#X obj 73 135 hsl 100 12 0 1 0 0 \$1-\$2/feedback-lfo \$1-\$2/feedback-lfo fb-lfo -52 7 0 11 #0c4044 #fcfcfc #0400fc 0 1;
#X obj 182 135 hsl 100 12 0 1 0 0 \$1-\$2/feedback-lfo-rnd \$1-\$2/feedback-lfo-rnd empty -2 -6 0 10 #0c4044 #fcfcfc #000000 0 1;
#X obj 291 135 hsl 100 12 0 1 0 0 \$1-\$2/feedback-lfo-depth \$1-\$2/feedback-lfo-depth empty -2 -6 0 10 #0c4044 #fcfcfc #000000 0 1;
#N canvas 152 189 450 300 (subpatch) 0;
#X array \$1-\$2/env 100 float 0;
#X coords 0 1 99 0 100 40 1 0 0;
#X restore 288 30 graph;
#X obj 435 78 hsl 60 10 0 1 0 0 \$1-\$2/mix \$1-\$2/mix mix 5 5 0 10 #101054 #ffffff #ffffff 0 1;
#X text 396 134 <- lfo depth;
#X text 288 104 fb time;
#X text 397 104 fb return;
#X restore 10 42 pd \$3-\$2;
#X text 441 218 hard.off@gmail.com;
#X obj 14 109 inlet~;
#X obj 25 409 outlet~;
#X obj 78 408 outlet~;
#X obj 76 156 delwrite~ \$0-L-delayline 10000;
#X obj 199 113 inlet~;
#X obj 265 155 delwrite~ \$0-R-delayline 10000;
#N canvas 17 102 1263 676 code 0;
#N canvas 0 23 454 304 untils 0;
#X obj 261 160 f;
#X obj 288 162 + 1;
#X obj 261 138 until;
#X msg 299 132 0;
#X obj 261 107 t f b;
#X obj 261 78 inlet;
#X obj 261 190 outlet;
#X connect 0 0 1 0;
#X connect 0 0 6 0;
#X connect 1 0 0 1;
#X connect 2 0 0 0;
#X connect 3 0 0 1;
#X connect 4 0 2 0;
#X connect 4 1 3 0;
#X connect 5 0 4 0;
#X restore 29 137 pd untils;
#X msg 31 112 100;
#X obj 57 195 moses 50;
#X obj 60 222 / 50;
#X obj 29 166 t f f;
#X obj 60 445 pack 0 0;
#X obj 102 217 - 100;
#X obj 103 238 abs;
#X obj 103 259 / 50;
#X obj 139 217 - 100;
#X obj 140 238 abs;
#X obj 63 108 t b f;
#X obj 104 291 expr (0.5 * $f1) + 0.5;
#X obj 103 335 cos;
#X obj 103 316 * 6.28318;
#X obj 103 356 * 0.5;
#X obj 103 376 + 0.5;
#X obj 64 64 * 90;
#X obj 61 86 + 5;
#X msg 387 458 \; \$1-go bang;
#X obj 386 417 f;
#X obj 437 421 + 1;
#X obj 471 426 mod 16;
#X obj 512 324 * 10000;
#X obj 410 207 r \$0-metro;
#X obj 515 261 r \$0-metro-rnd;
#X obj 411 266 * 1000;
#X obj 411 244 clip 0.01 1;
#X obj 514 279 pow 3;
#X obj 410 225 pow 3;
#X obj 377 314 delay;
#X obj 324 261 loadbang;
#X msg 374 291 stop;
#X msg 301 217 bang;
#X msg 337 218 stop;
#X obj 376 363 t b b b;
#X obj 376 343 metro 1000;
#X obj 467 350 random 0;
#X obj 157 371 t b f;
#X obj 102 404 pow 1;
#X obj 183 393 + 1;
#X obj 183 414 pow 4;
#X obj 631 111 r \$0-load;
#N canvas 0 23 454 304 untils 0;
#X obj 261 160 f;
#X obj 288 162 + 1;
#X obj 261 138 until;
#X msg 299 132 0;
#X obj 261 107 t f b;
#X obj 261 78 inlet;
#X obj 261 190 outlet;
#X connect 0 0 1 0;
#X connect 0 0 6 0;
#X connect 1 0 0 1;
#X connect 2 0 0 0;
#X connect 3 0 0 1;
#X connect 4 0 2 0;
#X connect 4 1 3 0;
#X connect 5 0 4 0;
#X restore 631 185 pd untils;
#X obj 631 134 t b f;
#X obj 670 251 tabread \$0-allpreset;
#X obj 631 210 t f f;
#X obj 632 276 pack 0 0;
#X obj 540 571 s \$0-pitch-r;
#X obj 541 593 s \$0-pitch-rnd-r;
#X obj 554 614 s \$0-duration-r;
#X obj 555 635 s \$0-duration-rnd-r;
#X obj 664 569 s \$0-delay-r;
#X obj 664 591 s \$0-delay-rnd-r;
#X obj 678 612 s \$0-metro-r;
#X obj 679 633 s \$0-metro-rnd-r;
#X obj 769 568 s \$0-envelope-r;
#X obj 770 591 s \$0-envelope-exp-r;
#X obj 658 230 +;
#N canvas 0 22 454 304 untils 0;
#X obj 261 160 f;
#X obj 288 162 + 1;
#X obj 261 138 until;
#X msg 299 132 0;
#X obj 261 107 t f b;
#X obj 261 78 inlet;
#X obj 261 190 outlet;
#X connect 0 0 1 0;
#X connect 0 0 6 0;
#X connect 1 0 0 1;
#X connect 2 0 0 0;
#X connect 3 0 0 1;
#X connect 4 0 2 0;
#X connect 4 1 3 0;
#X connect 5 0 4 0;
#X restore 804 156 pd untils;
#X obj 804 181 t f f;
#X obj 803 115 r \$0-store;
#X obj 850 205 tabread \$0-preset;
#X obj 805 229 pack 0 0;
#X obj 804 249 s \$0-storehouse;
#X text 791 9 LOAD/SavE PreseTS;
#X obj 409 391 delay;
#X obj 445 290 t b f;
#X obj 627 45 table \$0-preset 22;
#X obj 777 69 table \$0-storehouse 22;
#X msg 630 163 22;
#X obj 659 164 * 22;
#X msg 803 135 22;
#X obj 632 296 route 0 1 2 3 4 5 6 7 8 9 10 11 12 13 14 15 16 17 18 19 20 21;
#N canvas 472 108 808 670 get-sliders 0;
#X msg 28 140 0 \$1;
#X obj 28 162 s \$0-preset;
#X obj 170 161 s \$0-preset;
#X msg 170 139 1 \$1;
#X obj 29 226 s \$0-preset;
#X obj 189 227 s \$0-preset;
#X obj 29 183 r \$0-duration;
#X obj 184 185 r \$0-duration-rnd;
#X msg 28 203 2 \$1;
#X msg 189 205 3 \$1;
#X obj 28 291 s \$0-preset;
#X obj 170 290 s \$0-preset;
#X obj 29 355 s \$0-preset;
#X obj 189 356 s \$0-preset;
#X obj 28 248 r \$0-delay;
#X obj 164 248 r \$0-delay-rnd;
#X msg 27 269 4 \$1;
#X msg 169 267 5 \$1;
#X obj 29 312 r \$0-metro;
#X obj 184 314 r \$0-metro-rnd;
#X msg 27 331 6 \$1;
#X msg 190 334 7 \$1;
#X obj 27 421 s \$0-preset;
#X obj 187 422 s \$0-preset;
#X obj 27 378 r \$0-envelope;
#X msg 28 399 8 \$1;
#X obj 182 379 r \$0-envelope-exp;
#X msg 188 399 9 \$1;
#X obj 382 128 r \$0-vcf;
#X obj 385 154 r \$0-vcf-rnd;
#X obj 384 181 r \$0-autopan;
#X obj 386 210 r \$0-autopan-rnd;
#X obj 403 240 r \$0-feedback-lfo;
#X obj 412 264 r \$0-feedback-lfo-rnd;
#X obj 423 287 r \$0-feedback-lfo-depth;
#X obj 494 132 r \$0-feedback;
#X obj 502 155 r \$0-feedback-rnd;
#X obj 514 180 r \$0-feedback-time;
#X obj 525 205 r \$0-feedback-return;
#X msg 364 335 10 \$1;
#X msg 408 332 11 \$1;
#X msg 451 333 12 \$1;
#X msg 491 336 13 \$1;
#X msg 536 338 14 \$1;
#X msg 580 340 15 \$1;
#X msg 363 366 16 \$1;
#X msg 407 361 17 \$1;
#X msg 450 367 18 \$1;
#X msg 496 368 19 \$1;
#X msg 542 369 20 \$1;
#X msg 583 369 21 \$1;
#X obj 611 272 r \$0-mix;
#X obj 447 454 s \$0-preset;
#X obj 28 119 r \$0-pitch;
#X obj 165 119 r \$0-pitch-rnd;
#X connect 0 0 1 0;
#X connect 3 0 2 0;
#X connect 6 0 8 0;
#X connect 7 0 9 0;
#X connect 8 0 4 0;
#X connect 9 0 5 0;
#X connect 14 0 16 0;
#X connect 15 0 17 0;
#X connect 16 0 10 0;
#X connect 17 0 11 0;
#X connect 18 0 20 0;
#X connect 19 0 21 0;
#X connect 20 0 12 0;
#X connect 21 0 13 0;
#X connect 24 0 25 0;
#X connect 25 0 22 0;
#X connect 26 0 27 0;
#X connect 27 0 23 0;
#X connect 28 0 39 0;
#X connect 29 0 40 0;
#X connect 30 0 41 0;
#X connect 31 0 42 0;
#X connect 32 0 47 0;
#X connect 33 0 48 0;
#X connect 34 0 49 0;
#X connect 35 0 43 0;
#X connect 36 0 44 0;
#X connect 37 0 45 0;
#X connect 38 0 46 0;
#X connect 39 0 52 0;
#X connect 40 0 52 0;
#X connect 41 0 52 0;
#X connect 42 0 52 0;
#X connect 43 0 52 0;
#X connect 44 0 52 0;
#X connect 45 0 52 0;
#X connect 46 0 52 0;
#X connect 47 0 52 0;
#X connect 48 0 52 0;
#X connect 49 0 52 0;
#X connect 50 0 52 0;
#X connect 51 0 50 0;
#X connect 53 0 0 0;
#X connect 54 0 3 0;
#X restore 1020 329 pd get-sliders;
#X obj 636 454 s \$0-vcf-r;
#X obj 639 479 s \$0-vcf-rnd-r;
#X obj 638 506 s \$0-autopan-r;
#X obj 641 531 s \$0-autopan-rnd-r;
#X obj 748 457 s \$0-feedback-r;
#X obj 756 480 s \$0-feedback-rnd-r;
#X obj 768 505 s \$0-feedback-time-r;
#X obj 779 530 s \$0-feedback-return-r;
#X obj 902 458 s \$0-feedback-lfo-r;
#X obj 911 482 s \$0-feedback-lfo-rnd-r;
#X obj 922 505 s \$0-feedback-lfo-depth-r;
#X obj 1047 559 s \$0-mix-r;
#N canvas 0 22 454 304 untils 0;
#X obj 261 160 f;
#X obj 288 162 + 1;
#X obj 261 138 until;
#X msg 299 132 0;
#X obj 261 107 t f b;
#X obj 261 78 inlet;
#X obj 261 190 outlet;
#X connect 0 0 1 0;
#X connect 0 0 6 0;
#X connect 1 0 0 1;
#X connect 2 0 0 0;
#X connect 3 0 0 1;
#X connect 4 0 2 0;
#X connect 4 1 3 0;
#X connect 5 0 4 0;
#X restore 1064 111 pd untils;
#X obj 1064 136 t f f;
#X obj 1065 202 pack 0 0;
#X obj 1066 169 +;
#X obj 1106 177 tabread \$0-storehouse;
#X obj 1063 224 s \$0-allpreset;
#X obj 1027 9 r \$0-save;
#X obj 1020 304 s \$0-allpreset;
#X msg 1018 276 write grannie.txt;
#X obj 1028 64 t b b b f;
#X obj 1051 250 s \$0-load-r;
#X obj 1028 38 f;
#X obj 1057 37 r \$0-load;
#X msg 1063 90 22;
#X obj 1092 90 * 22;
#X obj 326 566 s \$0-allpreset;
#X msg 324 538 read grannie.txt;
#X obj 303 496 loadbang;
#X obj 301 516 t b b;
#X obj 309 615 s \$0-load-r;
#X obj 624 67 table \$0-allpreset 220;
#X obj 59 468 s \$1-\$2/env;
#X obj 64 42 r \$0-envelope;
#X obj 157 348 r \$0-envelope-exp;
#X floatatom 506 390 5 0 0 0 - - - 0;
#X obj 467 371 / 1;
#X connect 0 0 4 0;
#X connect 1 0 0 0;
#X connect 2 0 3 0;
#X connect 2 1 6 0;
#X connect 3 0 12 0;
#X connect 4 0 5 0;
#X connect 4 1 2 0;
#X connect 5 0 108 0;
#X connect 6 0 7 0;
#X connect 7 0 8 0;
#X connect 8 0 12 0;
#X connect 9 0 10 0;
#X connect 10 0 8 1;
#X connect 11 0 1 0;
#X connect 11 1 9 0;
#X connect 11 1 2 1;
#X connect 11 1 3 1;
#X connect 12 0 14 0;
#X connect 13 0 15 0;
#X connect 14 0 13 0;
#X connect 15 0 16 0;
#X connect 16 0 39 0;
#X connect 17 0 18 0;
#X connect 18 0 11 0;
#X connect 20 0 21 0;
#X connect 20 0 19 0;
#X connect 21 0 22 0;
#X connect 22 0 20 1;
#X connect 23 0 37 1;
#X connect 24 0 29 0;
#X connect 25 0 28 0;
#X connect 26 0 30 0;
#X connect 26 0 36 1;
#X connect 26 0 67 0;
#X connect 27 0 26 0;
#X connect 28 0 23 0;
#X connect 29 0 27 0;
#X connect 30 0 36 0;
#X connect 31 0 36 0;
#X connect 32 0 30 0;
#X connect 33 0 36 0;
#X connect 34 0 36 0;
#X connect 35 0 32 0;
#X connect 35 1 66 0;
#X connect 35 2 37 0;
#X connect 36 0 35 0;
#X connect 37 0 112 0;
#X connect 38 0 1 0;
#X connect 38 1 40 0;
#X connect 39 0 5 1;
#X connect 40 0 41 0;
#X connect 41 0 39 1;
#X connect 42 0 44 0;
#X connect 43 0 46 0;
#X connect 44 0 70 0;
#X connect 44 1 71 0;
#X connect 45 0 47 1;
#X connect 46 0 47 0;
#X connect 46 1 58 0;
#X connect 47 0 73 0;
#X connect 58 0 45 0;
#X connect 59 0 60 0;
#X connect 60 0 63 0;
#X connect 60 1 62 0;
#X connect 61 0 72 0;
#X connect 62 0 63 1;
#X connect 63 0 64 0;
#X connect 66 0 20 0;
#X connect 67 0 23 0;
#X connect 67 1 23 1;
#X connect 70 0 43 0;
#X connect 71 0 58 1;
#X connect 72 0 59 0;
#X connect 73 0 48 0;
#X connect 73 1 49 0;
#X connect 73 2 50 0;
#X connect 73 3 51 0;
#X connect 73 4 52 0;
#X connect 73 5 53 0;
#X connect 73 6 54 0;
#X connect 73 7 55 0;
#X connect 73 8 56 0;
#X connect 73 9 57 0;
#X connect 73 10 75 0;
#X connect 73 11 76 0;
#X connect 73 12 77 0;
#X connect 73 13 78 0;
#X connect 73 14 79 0;
#X connect 73 15 80 0;
#X connect 73 16 81 0;
#X connect 73 17 82 0;
#X connect 73 18 83 0;
#X connect 73 19 84 0;
#X connect 73 20 85 0;
#X connect 73 21 86 0;
#X connect 87 0 88 0;
#X connect 88 0 90 0;
#X connect 88 1 91 0;
#X connect 89 0 92 0;
#X connect 90 0 89 0;
#X connect 91 0 89 1;
#X connect 93 0 98 0;
#X connect 95 0 94 0;
#X connect 96 0 95 0;
#X connect 96 1 97 0;
#X connect 96 2 100 0;
#X connect 96 3 101 0;
#X connect 98 0 96 0;
#X connect 99 0 98 1;
#X connect 100 0 87 0;
#X connect 101 0 90 1;
#X connect 103 0 102 0;
#X connect 104 0 105 0;
#X connect 105 0 106 0;
#X connect 105 1 103 0;
#X connect 109 0 17 0;
#X connect 110 0 38 0;
#X connect 112 0 66 1;
#X connect 112 0 111 0;
#X restore 329 216 pd code;
#X obj 19 274 *~;
#X obj 46 274 *~;
#X obj 132 348 *~;
#X obj 227 346 *~;
#X obj 228 325 catch~ \$0-Right;
#X obj 132 325 catch~ \$0-Left;
#X obj 181 228 line~;
#X msg 179 207 \$1 20;
#X obj 112 231 -~ 1;
#X obj 112 251 *~ -1;
#X obj 112 270 *~ 2;
#X obj 114 291 min~ 1;
#X obj 194 262 *~ 2;
#X obj 193 283 min~ 1;
#X obj 290 254 b-granule 0 \$0 \$0-L;
#X obj 309 274 b-granule 2 \$0 \$0-L;
#X obj 322 295 b-granule 4 \$0 \$0-L;
#X obj 351 316 b-granule 6 \$0 \$0-L;
#X obj 350 337 b-granule 8 \$0 \$0-L;
#X obj 368 357 b-granule 10 \$0 \$0-L;
#X obj 381 377 b-granule 12 \$0 \$0-L;
#X obj 397 398 b-granule 14 \$0 \$0-L;
#X obj 431 252 b-granule 1 \$0 \$0-R;
#X obj 440 275 b-granule 3 \$0 \$0-R;
#X obj 452 297 b-granule 5 \$0 \$0-R;
#X obj 469 316 b-granule 7 \$0 \$0-R;
#X obj 481 337 b-granule 9 \$0 \$0-R;
#X obj 498 357 b-granule 11 \$0 \$0-R;
#X obj 512 380 b-granule 13 \$0 \$0-R;
#X obj 527 399 b-granule 15 \$0 \$0-R;
#X text 432 202 copied from : delay line granulizer;
#X obj 179 185 netpd_f \$1 \$2/mix 0.5;
#X obj 925 12 netpd_f \$1 \$2/pitch-rnd;
#X obj 925 49 netpd_f \$1 \$2/duration-rnd;
#X obj 925 87 netpd_f \$1 \$2/delay-rnd;
#X obj 787 87 netpd_f \$1 \$2/delay;
#X obj 925 166 netpd_f \$1 \$2/vcf-rnd;
#X obj 928 242 netpd_f \$1 \$2/feedback-rnd;
#X obj 801 283 netpd_f \$1 \$2/feedback-time;
#X obj 973 283 netpd_f \$1 \$2/feedback-return;
#X obj 802 324 netpd_f \$1 \$2/feedback-lfo;
#X obj 974 324 netpd_f \$1 \$2/feedback-lfo-rnd;
#X obj 802 364 netpd_f \$1 \$2/feedback-lfo-depth;
#X obj 925 204 netpd_f \$1 \$2/autopan-rnd;
#X obj 789 204 netpd_f \$1 \$2/autopan;
#X obj 787 30 s \$0-pitch;
#X obj 925 31 s \$0-pitch-rnd;
#X obj 925 68 s \$0-duration-rnd;
#X obj 787 49 netpd_f \$1 \$2/duration;
#X obj 787 68 s \$0-duration;
#X obj 787 106 s \$0-delay;
#X obj 925 106 s \$0-delay-rnd;
#X obj 925 223 s \$0-autopan-rnd;
#X obj 789 223 s \$0-autopan;
#X obj 925 185 s \$0-vcf-rnd;
#X obj 788 185 s \$0-vcf;
#X obj 974 345 s \$0-feedback-lfo-rnd;
#X obj 802 385 s \$0-feedback-lfo-depth;
#X obj 802 345 s \$0-feedback-lfo;
#X obj 928 261 s \$0-feedback-rnd;
#X obj 801 304 s \$0-feedback-time;
#X obj 973 304 s \$0-feedback-return;
#X obj 789 242 netpd_f \$1 \$2/feedback;
#X obj 789 263 s \$0-feedback;
#X obj 787 125 netpd_f \$1 \$2/metro;
#X obj 787 146 s \$0-metro;
#X obj 925 125 netpd_f \$1 \$2/metro-rnd;
#X obj 925 146 s \$0-metro-rnd;
#X obj 788 166 netpd_f \$1 \$2/vcf 1;
#X obj 787 11 netpd_f \$1 \$2/pitch 0.5;
#X obj 713 550 s \$0-envelope;
#X obj 713 588 s \$0-envelope-exp;
#X obj 713 531 netpd_f \$1 \$2/envelope 0.5;
#X obj 713 569 netpd_f \$1 \$2/envelope-exp 0.5;
#X text 159 44 <- GUI canvas;
#X text 158 16 <- meta tags here;
#X connect 3 0 6 0;
#X connect 3 0 10 0;
#X connect 7 0 8 0;
#X connect 7 0 11 0;
#X connect 10 0 4 0;
#X connect 11 0 5 0;
#X connect 12 0 4 0;
#X connect 13 0 5 0;
#X connect 14 0 13 0;
#X connect 15 0 12 0;
#X connect 16 0 18 0;
#X connect 16 0 22 0;
#X connect 17 0 16 0;
#X connect 18 0 19 0;
#X connect 19 0 20 0;
#X connect 20 0 21 0;
#X connect 21 0 11 1;
#X connect 21 0 10 1;
#X connect 22 0 23 0;
#X connect 23 0 12 1;
#X connect 23 0 13 1;
#X connect 41 0 17 0;
#X connect 42 0 56 0;
#X connect 43 0 57 0;
#X connect 44 0 61 0;
#X connect 45 0 60 0;
#X connect 46 0 64 0;
#X connect 47 0 69 0;
#X connect 48 0 70 0;
#X connect 49 0 71 0;
#X connect 50 0 68 0;
#X connect 51 0 66 0;
#X connect 52 0 67 0;
#X connect 53 0 62 0;
#X connect 54 0 63 0;
#X connect 58 0 59 0;
#X connect 72 0 73 0;
#X connect 74 0 75 0;
#X connect 76 0 77 0;
#X connect 78 0 65 0;
#X connect 79 0 55 0;
#X connect 82 0 80 0;
#X connect 83 0 81 0;
