#N struct 14325.button float posx float posy float color;
#N struct 14325.cursor float cx float cy float cy2;
#N struct 14256-automation float yshift array variy 14256-automation-element
;
#N struct 14256-automation-element float y;
#N struct 14327.rectangle float id float x float y float w float h
float txtclr float boxclr float bgclr symbol label;
#N canvas 1100 84 1419 774 10;
#N canvas 624 75 434 290 NETPD 0;
#N canvas 315 75 473 287 abslist 0;
#X text 7 13 Put a message box containing the name of the abstraction
(without the .pd suffix) for each dependency.;
#X text 6 55 For instance:;
#X text 23 84 [mysynth-voice(;
#X text 13 130 NOTE: abstractions of instruments also use netpd meta
tags and may also specify their own dependencies. unpatch resolves
dependency trees recursively.;
#X msg 28 104 unstep;
#X restore 12 178 pd abslist;
#X text 111 179 <- add dependencies of your netpd instrument;
#X text 18 32 A 'version' meta tag is mandatory. unpatch uses this
information to make sure that all clients load the same version of
the instrument.;
#X text 19 78 Whenever you make changes to your instrument \, make
sure to bump the version.;
#X text 18 118 There is no predefined meaning of the three version
fields. Use them at your own will.;
#X text 16 211 The [pd abslist] tag container is optional and is used
to specify dependencies (abstractions in netpd/abs) of your instrument.
;
#X text 107 7 <- update the version of this netpd instrument;
#X msg 12 8 version 0 0 2;
#X restore 6 8 pd NETPD 2 0;
#X floatatom 14 173 0 0 0 0 - - - 0;
#X obj 77 443 *~;
#X obj 200 380 line~;
#X floatatom 201 222 0 0 0 0 - - - 0;
#X obj 200 354 pack 0 200;
#X obj 14 228 exp;
#X floatatom 14 254 6 0 0 0 - - - 0;
#X obj 14 344 /;
#X obj 112 284 * 0.001;
#X obj 309 450 line~;
#X obj 309 425 pack 0 200;
#X floatatom 309 378 0 0 0 0 - - - 0;
#X obj 77 469 +~;
#X obj 14 495 cos~;
#X obj 14 522 *~;
#X obj 14 551 +~;
#X obj 101 402 wrap~;
#X obj 246 445 *~;
#X obj 246 478 +~;
#X obj 183 505 cos~;
#X obj 183 532 *~;
#X obj 111 306 t b f;
#X floatatom 14 370 6 0 0 0 - - - 0;
#X obj 101 375 +~ 0.5;
#X obj 14 443 -~ 0.5;
#X obj 14 469 *~ 0.5;
#X obj 183 444 -~ 0.5;
#X obj 183 477 *~ 0.5;
#X obj 14 281 - 1;
#X obj 14 202 * 0.05776;
#X obj 14 307 * -1;
#X text 48 171 <-- transposition;
#X text 91 184 (halftones);
#X text 77 248 speed;
#X text 76 262 change;
#X text 276 196 <--window (msec);
#X text 49 337 tape head;
#X obj 14 401 phasor~;
#X obj 309 401 max 1.5;
#X text 312 307 delay;
#X text 309 325 (msec);
#X obj 201 249 max 1;
#X text 50 350 rotation freq;
#X floatatom 430 253 0 0 0 0 - - - 0;
#X obj 493 524 *~;
#X obj 616 461 line~;
#X floatatom 648 278 0 0 0 0 - - - 0;
#X obj 616 435 pack 0 200;
#X obj 430 309 exp;
#X floatatom 430 335 6 0 0 0 - - - 0;
#X obj 430 425 /;
#X obj 557 355 * 0.001;
#X obj 725 531 line~;
#X obj 725 506 pack 0 200;
#X floatatom 725 455 0 0 0 0 - - - 0;
#X obj 493 550 +~;
#X obj 430 576 cos~;
#X obj 430 603 *~;
#X obj 430 632 +~;
#X obj 517 483 wrap~;
#X obj 662 526 *~;
#X obj 662 559 +~;
#X obj 599 586 cos~;
#X obj 599 613 *~;
#X obj 557 382 t b f;
#X floatatom 430 451 6 0 0 0 - - - 0;
#X obj 517 456 +~ 0.5;
#X obj 430 524 -~ 0.5;
#X obj 430 550 *~ 0.5;
#X obj 599 525 -~ 0.5;
#X obj 599 558 *~ 0.5;
#X obj 430 362 - 1;
#X obj 430 283 * 0.05776;
#X obj 430 388 * -1;
#X text 464 252 <-- transposition;
#X text 507 265 (halftones);
#X text 493 329 speed;
#X text 492 343 change;
#X text 692 277 <--window (msec);
#X text 465 418 tape head;
#X obj 430 482 phasor~;
#X obj 725 482 max 1.5;
#X obj 648 305 max 1;
#X text 466 431 rotation freq;
#X floatatom 868 245 0 0 0 0 - - - 0;
#X obj 931 516 *~;
#X obj 1054 453 line~;
#X floatatom 1086 270 0 0 0 0 - - - 0;
#X obj 1054 427 pack 0 200;
#X obj 868 301 exp;
#X floatatom 868 327 6 0 0 0 - - - 0;
#X obj 868 417 /;
#X obj 995 347 * 0.001;
#X obj 1163 523 line~;
#X obj 1163 498 pack 0 200;
#X floatatom 1163 447 0 0 0 0 - - - 0;
#X obj 931 542 +~;
#X obj 868 568 cos~;
#X obj 868 595 *~;
#X obj 868 624 +~;
#X obj 955 475 wrap~;
#X obj 1100 518 *~;
#X obj 1100 551 +~;
#X obj 1037 578 cos~;
#X obj 1037 605 *~;
#X obj 995 374 t b f;
#X floatatom 868 443 6 0 0 0 - - - 0;
#X obj 955 448 +~ 0.5;
#X obj 868 516 -~ 0.5;
#X obj 868 542 *~ 0.5;
#X obj 1037 517 -~ 0.5;
#X obj 1037 550 *~ 0.5;
#X obj 868 354 - 1;
#X obj 868 275 * 0.05776;
#X obj 868 380 * -1;
#X text 902 244 <-- transposition;
#X text 945 257 (halftones);
#X text 931 321 speed;
#X text 930 335 change;
#X text 1130 269 <--window (msec);
#X text 903 410 tape head;
#X obj 868 474 phasor~;
#X obj 1163 474 max 1.5;
#X obj 1086 297 max 1;
#X text 904 423 rotation freq;
#X obj 6 70 inlet~;
#X obj 68 68 inlet~;
#X obj 468 743 outlet~;
#X obj 576 751 outlet~;
#X obj 11 102 delwrite~ \$0-mus1331 5000;
#X obj 77 495 vd~ \$0-mus1331;
#X obj 246 507 vd~ \$0-mus1331;
#X obj 931 568 vd~ \$0-mus1331;
#X obj 1100 580 vd~ \$0-mus1331;
#X obj 662 588 vd~ \$0-mus1331;
#X obj 493 576 vd~ \$0-mus1331;
#X obj 384 100 netpd_f \$1 \$2/del1 0;
#X obj 383 55 netpd_f \$1 \$2/trans1 0;
#X obj 567 56 netpd_f \$1 \$2/trans2 0;
#X obj 568 101 netpd_f \$1 \$2/del2 0;
#X obj 734 146 netpd_f \$1 \$2/trans3 0;
#X obj 735 191 netpd_f \$1 \$2/del3 0;
#X obj 14 603 r \$0-unstep-gui;
#X msg 14 625 vis 1;
#X obj 14 692 s \$3-b-uneven;
#X obj 166 37 route note;
#X obj 166 58 - 60;
#X obj 190 132 +;
#X obj 166 13 r \$3-b-uneven;
#X obj 279 67 route 1 2 3;
#X obj 280 48 pack f f;
#X obj 418 181 +;
#X obj 682 222 +;
#X obj 281 28 poly 3 1;
#X obj 227 581 *~;
#X obj 254 539 netpd_f \$1 \$2/vol1 0.5;
#X obj 519 661 *~;
#X obj 706 665 *~;
#N canvas 1344 235 385 155 \$3-\$2 1;
#X obj 11 126 hsl 75 15 0 0 0 0 \$0-unstep-gui \$0.bli unstep 3 8 0
10 #fcfcfc #fcfcfc #000000 0 1;
#X obj 8 17 nbx 5 14 -12 12 0 0 \$1-\$2/trans1 \$1-\$2/trans1 trans1
60 8 0 10 #fcfcfc #000000 #000000 0 256;
#X obj 8 35 nbx 5 14 0 127 0 0 \$1-\$2/win1 \$1-\$2/win1 win1 60 8
0 10 #fcfcfc #000000 #000000 0 256;
#X obj 8 53 nbx 5 14 0 1000 0 0 \$1-\$2/del1 \$1-\$2/del1 del1 60 8
0 10 #fcfcfc #000000 #000000 0 256;
#X obj 11 71 hsl 95 15 0 1 0 0 \$1-\$2/vol1 \$1-\$2/vol1 vol1 7 8 0
10 #fcfcfc #000000 #000000 0 1;
#X obj 128 17 nbx 5 14 -12 12 0 0 \$1-\$2/trans2 \$1-\$2/trans2 trans2
60 8 0 10 #fcfcfc #000000 #000000 0 256;
#X obj 128 35 nbx 5 14 0 127 0 0 \$1-\$2/win2 \$1-\$2/win2 win2 60
8 0 10 #fcfcfc #000000 #000000 0 256;
#X obj 128 53 nbx 5 14 0 1000 0 0 \$1-\$2/del2 \$1-\$2/del2 del2 60
8 0 10 #fcfcfc #000000 #000000 0 256;
#X obj 131 71 hsl 95 15 0 1 0 0 \$1-\$2/vol2 \$1-\$2/vol2 vol2 7 8
0 10 #fcfcfc #000000 #000000 0 1;
#X obj 248 17 nbx 5 14 -12 12 0 0 \$1-\$2/trans3 \$1-\$2/trans3 trans3
60 8 0 10 #fcfcfc #000000 #000000 0 256;
#X obj 248 35 nbx 5 14 0 127 0 0 \$1-\$2/win3 \$1-\$2/win3 win3 60
8 0 10 #fcfcfc #000000 #000000 0 256;
#X obj 248 53 nbx 5 14 0 1000 0 0 \$1-\$2/del3 \$1-\$2/del3 del3 60
8 0 10 #fcfcfc #000000 #000000 0 256;
#X obj 251 71 hsl 95 15 0 1 0 0 \$1-\$2/vol3 \$1-\$2/vol3 vol3 7 8
0 10 #fcfcfc #000000 #000000 0 1;
#X obj 11 91 hsl 95 15 0 1 0 0 \$1-\$2/pan1 \$1-\$2/pan1 pan1 7 8 0
10 #fcfcfc #000000 #000000 0 1;
#X obj 131 91 hsl 95 15 0 1 0 0 \$1-\$2/pan2 \$1-\$2/pan2 pan2 7 8
0 10 #fcfcfc #000000 #000000 0 1;
#X obj 251 91 hsl 95 15 0 1 0 0 \$1-\$2/pan3 \$1-\$2/pan3 pan3 7 8
0 10 #fcfcfc #000000 #000000 0 1;
#X restore 6 29 pd \$3-\$2;
#X obj 383 77 netpd_f \$1 \$2/win1 25;
#X obj 567 78 netpd_f \$1 \$2/win2 25;
#X obj 734 168 netpd_f \$1 \$2/win3 25;
#X obj 529 639 netpd_f \$1 \$2/vol2 0;
#X obj 691 626 netpd_f \$1 \$2/vol3 0;
#X obj 14 649 unstep \$1 b-uneven;
#X obj 202 105 t b a;
#X obj 425 157 t b a;
#X obj 682 190 t b a;
#X obj 215 162 print;
#X obj 352 19 loadbang;
#X msg 352 42 127;
#X floatatom 166 81 5 0 0 0 - - - 0;
#N canvas 876 460 450 300 pan_ 0;
#X obj 115 118 cos;
#X obj 215 122 atan;
#X msg 215 101 1;
#X obj 215 144 * 2;
#X obj 115 73 *;
#X obj 142 117 sin;
#X obj 188 11 inlet;
#X obj 215 80 loadbang;
#X obj 115 95 t a a;
#X text 234 11 range: 0-1;
#X obj 14 9 inlet~;
#X obj 14 246 outlet~;
#X obj 76 245 outlet~;
#X obj 85 177 line~;
#X msg 85 156 \$1 50;
#X obj 129 176 line~;
#X msg 129 154 \$1 50;
#X obj 13 212 *~;
#X obj 77 215 *~;
#X connect 0 0 14 0;
#X connect 1 0 3 0;
#X connect 2 0 1 0;
#X connect 3 0 4 1;
#X connect 4 0 8 0;
#X connect 5 0 16 0;
#X connect 6 0 4 0;
#X connect 7 0 2 0;
#X connect 8 0 0 0;
#X connect 8 1 5 0;
#X connect 10 0 17 0;
#X connect 10 0 18 0;
#X connect 13 0 17 1;
#X connect 14 0 13 0;
#X connect 15 0 18 1;
#X connect 16 0 15 0;
#X connect 17 0 11 0;
#X connect 18 0 12 0;
#X restore 239 627 pd pan_;
#X obj 265 597 netpd_f \$1 \$2/pan1 0.5;
#N canvas 876 460 450 300 pan_ 0;
#X obj 115 118 cos;
#X obj 215 122 atan;
#X msg 215 101 1;
#X obj 215 144 * 2;
#X obj 115 73 *;
#X obj 142 117 sin;
#X obj 188 11 inlet;
#X obj 215 80 loadbang;
#X obj 115 95 t a a;
#X text 234 11 range: 0-1;
#X obj 14 9 inlet~;
#X obj 14 246 outlet~;
#X obj 76 245 outlet~;
#X obj 85 177 line~;
#X msg 85 156 \$1 50;
#X obj 129 176 line~;
#X msg 129 154 \$1 50;
#X obj 13 212 *~;
#X obj 77 215 *~;
#X connect 0 0 14 0;
#X connect 1 0 3 0;
#X connect 2 0 1 0;
#X connect 3 0 4 1;
#X connect 4 0 8 0;
#X connect 5 0 16 0;
#X connect 6 0 4 0;
#X connect 7 0 2 0;
#X connect 8 0 0 0;
#X connect 8 1 5 0;
#X connect 10 0 17 0;
#X connect 10 0 18 0;
#X connect 13 0 17 1;
#X connect 14 0 13 0;
#X connect 15 0 18 1;
#X connect 16 0 15 0;
#X connect 17 0 11 0;
#X connect 18 0 12 0;
#X restore 521 684 pd pan_;
#X obj 557 662 netpd_f \$1 \$2/pan2 0.5;
#N canvas 876 460 450 300 pan_ 0;
#X obj 115 118 cos;
#X obj 215 122 atan;
#X msg 215 101 1;
#X obj 215 144 * 2;
#X obj 115 73 *;
#X obj 142 117 sin;
#X obj 188 11 inlet;
#X obj 215 80 loadbang;
#X obj 115 95 t a a;
#X text 234 11 range: 0-1;
#X obj 14 9 inlet~;
#X obj 14 246 outlet~;
#X obj 76 245 outlet~;
#X obj 85 177 line~;
#X msg 85 156 \$1 50;
#X obj 129 176 line~;
#X msg 129 154 \$1 50;
#X obj 13 212 *~;
#X obj 77 215 *~;
#X connect 0 0 14 0;
#X connect 1 0 3 0;
#X connect 2 0 1 0;
#X connect 3 0 4 1;
#X connect 4 0 8 0;
#X connect 5 0 16 0;
#X connect 6 0 4 0;
#X connect 7 0 2 0;
#X connect 8 0 0 0;
#X connect 8 1 5 0;
#X connect 10 0 17 0;
#X connect 10 0 18 0;
#X connect 13 0 17 1;
#X connect 14 0 13 0;
#X connect 15 0 18 1;
#X connect 16 0 15 0;
#X connect 17 0 11 0;
#X connect 18 0 12 0;
#X restore 641 708 pd pan_;
#X obj 699 688 netpd_f \$1 \$2/pan3 0.5;
#X connect 1 0 30 0;
#X connect 2 0 13 0;
#X connect 3 0 2 1;
#X connect 3 0 18 1;
#X connect 4 0 42 0;
#X connect 5 0 3 0;
#X connect 6 0 7 0;
#X connect 7 0 29 0;
#X connect 8 0 23 0;
#X connect 9 0 22 0;
#X connect 10 0 13 1;
#X connect 10 0 19 1;
#X connect 11 0 10 0;
#X connect 12 0 39 0;
#X connect 13 0 131 0;
#X connect 14 0 15 0;
#X connect 15 0 16 0;
#X connect 16 0 155 0;
#X connect 17 0 18 0;
#X connect 17 0 27 0;
#X connect 18 0 19 0;
#X connect 19 0 132 0;
#X connect 20 0 21 0;
#X connect 21 0 16 1;
#X connect 22 0 8 0;
#X connect 22 1 8 1;
#X connect 23 0 38 0;
#X connect 24 0 17 0;
#X connect 25 0 26 0;
#X connect 26 0 14 0;
#X connect 27 0 28 0;
#X connect 28 0 20 0;
#X connect 29 0 31 0;
#X connect 30 0 6 0;
#X connect 31 0 8 0;
#X connect 38 0 2 0;
#X connect 38 0 25 0;
#X connect 38 0 24 0;
#X connect 39 0 11 0;
#X connect 42 0 9 0;
#X connect 42 0 5 0;
#X connect 44 0 73 0;
#X connect 45 0 56 0;
#X connect 46 0 45 1;
#X connect 46 0 61 1;
#X connect 47 0 83 0;
#X connect 48 0 46 0;
#X connect 49 0 50 0;
#X connect 50 0 72 0;
#X connect 51 0 66 0;
#X connect 52 0 65 0;
#X connect 53 0 56 1;
#X connect 53 0 62 1;
#X connect 54 0 53 0;
#X connect 55 0 82 0;
#X connect 56 0 136 0;
#X connect 57 0 58 0;
#X connect 58 0 59 0;
#X connect 59 0 157 0;
#X connect 60 0 61 0;
#X connect 60 0 70 0;
#X connect 61 0 62 0;
#X connect 62 0 135 0;
#X connect 63 0 64 0;
#X connect 64 0 59 1;
#X connect 65 0 51 0;
#X connect 65 1 51 1;
#X connect 66 0 81 0;
#X connect 67 0 60 0;
#X connect 68 0 69 0;
#X connect 69 0 57 0;
#X connect 70 0 71 0;
#X connect 71 0 63 0;
#X connect 72 0 74 0;
#X connect 73 0 49 0;
#X connect 74 0 51 0;
#X connect 81 0 45 0;
#X connect 81 0 68 0;
#X connect 81 0 67 0;
#X connect 82 0 54 0;
#X connect 83 0 52 0;
#X connect 83 0 48 0;
#X connect 85 0 114 0;
#X connect 86 0 97 0;
#X connect 87 0 86 1;
#X connect 87 0 102 1;
#X connect 88 0 124 0;
#X connect 89 0 87 0;
#X connect 90 0 91 0;
#X connect 91 0 113 0;
#X connect 92 0 107 0;
#X connect 93 0 106 0;
#X connect 94 0 97 1;
#X connect 94 0 103 1;
#X connect 95 0 94 0;
#X connect 96 0 123 0;
#X connect 97 0 133 0;
#X connect 98 0 99 0;
#X connect 99 0 100 0;
#X connect 100 0 158 0;
#X connect 101 0 102 0;
#X connect 101 0 111 0;
#X connect 102 0 103 0;
#X connect 103 0 134 0;
#X connect 104 0 105 0;
#X connect 105 0 100 1;
#X connect 106 0 92 0;
#X connect 106 1 92 1;
#X connect 107 0 122 0;
#X connect 108 0 101 0;
#X connect 109 0 110 0;
#X connect 110 0 98 0;
#X connect 111 0 112 0;
#X connect 112 0 104 0;
#X connect 113 0 115 0;
#X connect 114 0 90 0;
#X connect 115 0 92 0;
#X connect 122 0 86 0;
#X connect 122 0 109 0;
#X connect 122 0 108 0;
#X connect 123 0 95 0;
#X connect 124 0 93 0;
#X connect 124 0 89 0;
#X connect 126 0 130 0;
#X connect 127 0 130 0;
#X connect 131 0 15 1;
#X connect 132 0 21 1;
#X connect 133 0 99 1;
#X connect 134 0 105 1;
#X connect 135 0 64 1;
#X connect 136 0 58 1;
#X connect 137 0 12 0;
#X connect 138 0 166 0;
#X connect 139 0 167 0;
#X connect 140 0 55 0;
#X connect 141 0 168 0;
#X connect 142 0 96 0;
#X connect 143 0 144 0;
#X connect 144 0 165 0;
#X connect 146 0 147 0;
#X connect 147 0 154 0;
#X connect 147 0 172 0;
#X connect 148 0 1 0;
#X connect 149 0 146 0;
#X connect 150 0 148 0;
#X connect 150 0 169 0;
#X connect 150 1 152 0;
#X connect 150 2 85 0;
#X connect 150 2 153 0;
#X connect 151 0 150 0;
#X connect 152 0 44 0;
#X connect 153 0 85 0;
#X connect 154 0 151 0;
#X connect 154 1 151 1;
#X connect 155 0 173 0;
#X connect 156 0 155 1;
#X connect 157 0 175 0;
#X connect 158 0 177 0;
#X connect 160 0 4 0;
#X connect 161 0 47 0;
#X connect 162 0 88 0;
#X connect 163 0 157 1;
#X connect 164 0 158 1;
#X connect 165 0 145 0;
#X connect 166 0 148 0;
#X connect 166 1 148 1;
#X connect 167 0 152 0;
#X connect 167 1 152 1;
#X connect 168 0 153 0;
#X connect 168 1 153 1;
#X connect 170 0 171 0;
#X connect 171 0 154 1;
#X connect 173 0 128 0;
#X connect 173 1 129 0;
#X connect 174 0 173 1;
#X connect 175 0 128 0;
#X connect 175 1 129 0;
#X connect 176 0 175 1;
#X connect 177 0 128 0;
#X connect 177 1 129 0;
#X connect 178 0 177 1;
