#N canvas 55 44 589 619 10;
#N canvas 624 75 434 290 NETPD 0;
#N canvas 315 75 473 287 abslist 0;
#X text 7 13 Put a message box containing the name of the abstraction
(without the .pd suffix) for each dependency.;
#X text 6 55 For instance:;
#X text 23 84 [mysynth-voice(;
#X text 13 130 NOTE: abstractions of instruments also use netpd meta
tags and may also specify their own dependencies. unpatch resolves
dependency trees recursively.;
#X restore 12 178 pd abslist;
#X text 111 179 <- add dependencies of your netpd instrument;
#X text 18 32 A 'version' meta tag is mandatory. unpatch uses this
information to make sure that all clients load the same version of
the instrument.;
#X text 19 78 Whenever you make changes to your instrument \, make
sure to bump the version.;
#X text 18 118 There is no predefined meaning of the three version
fields. Use them at your own will.;
#X text 16 211 The [pd abslist] tag container is optional and is used
to specify dependencies (abstractions in netpd/abs) of your instrument.
;
#X text 107 7 <- update the version of this netpd instrument;
#X msg 12 8 version 0 0 1;
#X restore 10 14 pd NETPD 2 0;
#X obj 54 123 inlet~;
#X obj 102 124 inlet~;
#X obj 52 346 outlet~;
#X obj 104 345 outlet~;
#N canvas 642 23 212 176 \$3-\$2 0;
#X text 23 22 mono;
#X restore 10 33 pd \$3-\$2;
#X obj 46 227 *~ 0.5;
#X obj 105 225 *~ 0.5;
#X connect 1 0 6 0;
#X connect 2 0 7 0;
#X connect 6 0 3 0;
#X connect 6 0 4 0;
#X connect 7 0 3 0;
#X connect 7 0 4 0;
