#N canvas 282 170 870 570 10;
#X obj 168 110 t b f;
#X obj 220 117 t b f;
#X obj 292 119 t b f;
#X obj 356 121 t b f;
#X obj 415 121 t b f;
#X obj 568 98 / 2;
#X obj 72 73 mtof;
#X obj 191 408 pow -1;
#X obj 160 477 *~ 0.5;
#X obj 227 194 >= 3;
#X obj 209 218 *~ 0;
#X obj 568 76 f;
#X obj 267 232 *~ 0;
#X obj 288 201 >= 4;
#X obj 332 231 *~ 0;
#X obj 390 229 *~ 0;
#X obj 350 207 >= 5;
#X obj 408 205 >= 6;
#X obj 191 431 + 2;
#X obj 108 110 t b f;
#X obj 166 139 *;
#X obj 228 141 *;
#X obj 289 143 *;
#X obj 353 143 *;
#X obj 412 145 *;
#X obj 129 70 * 1;
#X obj 419 97 + 1;
#X obj 363 93 + 1;
#X obj 291 89 + 1;
#X obj 223 94 + 1;
#X obj 173 87 + 1;
#X obj 123 90 + 1;
#X obj 446 394 vline~;
#X obj 446 330 pack f f f f;
#X msg 446 358 1 \$1 0 \, 1 \$2 \$1 \, 0 \$3 \$4;
#X obj 538 291 +;
#X obj 538 265 t b f;
#X obj 428 268 f;
#X obj 437 291 t f f;
#X obj 80 36 t f b;
#X obj 438 431 *~;
#X obj 608 38 inlet controls;
#X obj 80 14 inlet notes;
#X obj 173 37 / 100;
#X obj 661 118 pow 2;
#X obj 608 60 route stages detune attack hold release;
#X obj 658 143 * 3000;
#X obj 710 119 pow 2;
#X obj 707 144 * 3000;
#X obj 755 118 pow 2;
#X obj 752 143 * 3000;
#X obj 660 365 +;
#X obj 777 457 switch~;
#X obj 346 532 outlet~;
#X obj 767 405 delay;
#X obj 770 383 + 5;
#X msg 764 431 0;
#X msg 615 398 1;
#X obj 701 487 outlet;
#X obj 191 453 / 10;
#X obj 90 143 * 1;
#X obj 168 65 * 1.2412;
#X obj 220 73 * -2.124;
#X obj 293 68 * 3.6341;
#X obj 356 73 * -4.634;
#X obj 415 73 * 5.741;
#X obj 61 188 nblsaw~ 200;
#X obj 120 169 nblsaw~ 200;
#X obj 203 167 nblsaw~ 200;
#X obj 294 171 nblsaw~ 200;
#X obj 383 171 nblsaw~ 200;
#X obj 476 170 nblsaw~ 200;
#X obj 160 350 +~ 0;
#N canvas 793 212 237 119 NETPD 0;
#N canvas 897 259 286 128 abslist 0;
#X msg 13 24 netpd_bandlimited_oscillators;
#X restore -193 32 pd abslist;
#X msg -197 4 version 0 1 7;
#X restore 24 372 pd NETPD 2 0;
#X connect 0 0 20 0;
#X connect 0 1 20 1;
#X connect 1 0 21 0;
#X connect 1 1 21 1;
#X connect 2 0 22 0;
#X connect 2 1 22 1;
#X connect 3 0 23 0;
#X connect 3 1 23 1;
#X connect 4 0 24 0;
#X connect 4 1 24 1;
#X connect 5 0 7 0;
#X connect 5 0 72 1;
#X connect 6 0 20 0;
#X connect 6 0 21 0;
#X connect 6 0 22 0;
#X connect 6 0 23 0;
#X connect 6 0 24 0;
#X connect 6 0 60 0;
#X connect 7 0 18 0;
#X connect 8 0 40 0;
#X connect 9 0 10 1;
#X connect 10 0 72 0;
#X connect 11 0 5 0;
#X connect 11 0 9 0;
#X connect 11 0 13 0;
#X connect 11 0 16 0;
#X connect 11 0 17 0;
#X connect 12 0 72 0;
#X connect 13 0 12 1;
#X connect 14 0 72 0;
#X connect 15 0 72 0;
#X connect 16 0 14 1;
#X connect 17 0 15 1;
#X connect 18 0 59 0;
#X connect 20 0 67 0;
#X connect 21 0 68 0;
#X connect 22 0 69 0;
#X connect 23 0 70 0;
#X connect 24 0 71 0;
#X connect 25 0 31 0;
#X connect 26 0 4 0;
#X connect 27 0 3 0;
#X connect 28 0 2 0;
#X connect 29 0 1 0;
#X connect 30 0 0 0;
#X connect 31 0 19 0;
#X connect 32 0 40 1;
#X connect 33 0 34 0;
#X connect 33 0 57 0;
#X connect 34 0 32 0;
#X connect 35 0 33 3;
#X connect 35 0 51 0;
#X connect 36 0 35 0;
#X connect 36 1 35 1;
#X connect 37 0 38 0;
#X connect 38 0 33 0;
#X connect 38 1 36 0;
#X connect 39 0 6 0;
#X connect 39 1 37 0;
#X connect 40 0 53 0;
#X connect 41 0 45 0;
#X connect 42 0 39 0;
#X connect 43 0 25 0;
#X connect 43 0 61 0;
#X connect 43 0 62 0;
#X connect 43 0 63 0;
#X connect 43 0 64 0;
#X connect 43 0 65 0;
#X connect 44 0 46 0;
#X connect 45 0 11 0;
#X connect 45 1 43 0;
#X connect 45 2 44 0;
#X connect 45 3 47 0;
#X connect 45 4 49 0;
#X connect 46 0 37 1;
#X connect 47 0 48 0;
#X connect 48 0 35 0;
#X connect 48 0 33 1;
#X connect 49 0 50 0;
#X connect 50 0 33 2;
#X connect 50 0 51 1;
#X connect 51 0 55 0;
#X connect 54 0 56 0;
#X connect 55 0 54 0;
#X connect 56 0 52 0;
#X connect 56 0 58 0;
#X connect 57 0 52 0;
#X connect 59 0 8 1;
#X connect 60 0 66 0;
#X connect 61 0 30 0;
#X connect 62 0 29 0;
#X connect 63 0 28 0;
#X connect 64 0 27 0;
#X connect 65 0 26 0;
#X connect 66 0 72 0;
#X connect 67 0 72 0;
#X connect 68 0 10 0;
#X connect 69 0 12 0;
#X connect 70 0 14 0;
#X connect 71 0 15 0;
#X connect 72 0 8 0;
