#N canvas 393 76 1249 837 10;
#X obj 34 13 inlet notes;
#X obj 195 406 *~ -1;
#X obj 383 548 s~ \$0-fb;
#X obj 52 295 r~ \$0-fb;
#X obj 634 88 mtof;
#X obj 627 127 pow -1;
#X obj 492 302 t3_bpe;
#X msg 540 201 0;
#X obj 586 63 t b b f;
#X obj 489 342 t3_line~;
#X obj 591 284 pack 1 5 0 10;
#X obj 751 197 - 1;
#X obj 742 225 * -1;
#X obj 150 777 outlet~;
#N canvas 0 0 450 300 pluckdelay 0;
#X obj 223 113 inlet~;
#X obj 231 263 outlet~;
#N canvas 0 0 450 300 write 0;
#X obj 223 113 inlet~;
#X obj 231 263 outlet~;
#X obj 232 166 delwrite~ \$0-del-l 50;
#X connect 0 0 2 0;
#X restore 147 159 pd write;
#N canvas 0 0 450 300 read 0;
#X obj 223 113 inlet~;
#X obj 231 263 outlet~;
#X obj 370 123 inlet;
#X obj 290 202 delread~ \$0-del-l 1;
#X connect 2 0 3 0;
#X connect 3 0 1 0;
#X restore 178 204 pd read;
#X obj 370 123 inlet;
#X connect 0 0 2 0;
#X connect 2 0 3 0;
#X connect 3 0 1 0;
#X connect 4 0 3 1;
#X restore 71 335 pd pluckdelay;
#N canvas 0 440 450 300 pluckdelay 0;
#X obj 223 113 inlet~;
#X obj 231 263 outlet~;
#N canvas 1230 44 450 300 write 0;
#X obj 223 113 inlet~;
#X obj 231 263 outlet~;
#X obj 232 166 delwrite~ \$0-del-r 50;
#X connect 0 0 2 0;
#X restore 147 159 pd write;
#N canvas 1230 44 450 300 read 0;
#X obj 223 113 inlet~;
#X obj 231 263 outlet~;
#X obj 370 123 inlet;
#X obj 290 202 delread~ \$0-del-r 1;
#X connect 2 0 3 0;
#X connect 3 0 1 0;
#X restore 178 204 pd read;
#X obj 370 123 inlet;
#X connect 0 0 2 0;
#X connect 2 0 3 0;
#X connect 3 0 1 0;
#X connect 4 0 3 1;
#X restore 247 439 pd pluckdelay;
#X obj 770 48 inlet data;
#X obj 782 96 route pluckpos;
#X obj 140 69 unpack f f;
#X obj 349 134 sel 0;
#X obj 119 718 *~;
#X msg 337 174 -0.95;
#X obj 366 488 *~ 0.97;
#X obj 243 573 sel 0;
#X obj 270 630 line~;
#X obj 233 94 spigot;
#X obj 350 236 samplerate~;
#X obj 350 215 loadbang;
#X obj 349 259 pow -1;
#X msg 394 176 -0.99;
#X obj 700 775 outlet onoff;
#X msg 669 625 1;
#X obj 253 287 -;
#X obj 489 368 *~;
#X obj 492 395 *~;
#X obj 663 206 * 5;
#X obj 346 279 * 64000;
#X obj 281 226 * 8;
#X obj 627 107 / 16;
#X obj 324 266 bng 15 250 50 0 empty empty empty 0 -6 0 8 -262144 -1
-1;
#X obj 242 351 max 0;
#X obj 339 341 min 0;
#X obj 332 396 +;
#X obj 244 252 t f f;
#X obj 723 252 * 0.5;
#X obj 664 232 * 0.5;
#X obj 586 29 - 23.5;
#X obj 597 770 switch~;
#X obj 506 598 rvu~ 100 10;
#X msg 506 621 \$1;
#X obj 625 380 * 80;
#X obj 596 432 + 6000;
#X obj 377 524 lp2~ 9000 0.5 0.1;
#X msg 227 607 0 400;
#X obj 258 541 / 350;
#X obj 616 691 change;
#X obj 506 641 > -90;
#X text 763 367 corrected switch~ing part and added version tag. by
roman;
#N canvas 962 334 284 91 NETPD 0;
#X msg -86 3 version 0 0 1;
#X restore 821 249 pd NETPD 2 0;
#X connect 0 0 18 0;
#X connect 1 0 15 0;
#X connect 3 0 14 0;
#X connect 4 0 38 0;
#X connect 4 0 50 0;
#X connect 5 0 37 0;
#X connect 5 0 35 0;
#X connect 6 0 9 0;
#X connect 6 1 9 1;
#X connect 7 0 6 0;
#X connect 8 0 7 0;
#X connect 8 0 31 0;
#X connect 8 1 10 0;
#X connect 8 2 4 0;
#X connect 9 0 33 1;
#X connect 9 0 33 0;
#X connect 10 0 6 0;
#X connect 11 0 12 0;
#X connect 12 0 44 1;
#X connect 14 0 1 0;
#X connect 14 0 20 0;
#X connect 15 0 22 0;
#X connect 15 0 20 0;
#X connect 16 0 17 0;
#X connect 17 0 11 0;
#X connect 17 0 45 1;
#X connect 18 0 25 0;
#X connect 18 1 19 0;
#X connect 18 1 25 1;
#X connect 18 1 54 0;
#X connect 19 0 21 0;
#X connect 19 1 29 0;
#X connect 20 0 13 0;
#X connect 20 0 48 0;
#X connect 21 0 22 1;
#X connect 22 0 52 0;
#X connect 23 0 53 0;
#X connect 23 1 24 0;
#X connect 24 0 20 1;
#X connect 25 0 46 0;
#X connect 26 0 28 0;
#X connect 27 0 26 0;
#X connect 28 0 36 0;
#X connect 29 0 22 1;
#X connect 31 0 55 0;
#X connect 32 0 40 0;
#X connect 32 0 41 0;
#X connect 33 0 34 0;
#X connect 33 0 34 1;
#X connect 34 0 15 0;
#X connect 35 0 44 0;
#X connect 35 0 45 0;
#X connect 36 0 32 1;
#X connect 37 0 43 0;
#X connect 38 0 5 0;
#X connect 39 0 26 0;
#X connect 40 0 14 1;
#X connect 41 0 42 1;
#X connect 42 0 15 1;
#X connect 43 0 42 0;
#X connect 43 1 32 0;
#X connect 44 0 10 3;
#X connect 45 0 10 1;
#X connect 46 0 8 0;
#X connect 48 0 49 0;
#X connect 49 0 56 0;
#X connect 50 0 51 0;
#X connect 51 0 52 1;
#X connect 52 0 2 0;
#X connect 53 0 24 0;
#X connect 54 0 23 0;
#X connect 55 0 47 0;
#X connect 55 0 30 0;
#X connect 56 0 55 0;
