#N struct 1005.rect float x float w float h float clr;
#N canvas 935 98 503 335 10;
#X obj 1 0 cnv 15 500 30 empty empty empty 20 12 0 14 #e0e0e0 #404040
0;
#X text 270 85 No inlets;
#X text 270 99 No outlets;
#X floatatom 92 163 5 0 0 0 - - - 0;
#X floatatom 152 163 5 0 0 0 - - - 0;
#X msg 92 185 width \$1;
#X msg 152 185 height \$1;
#X floatatom 232 161 5 0 0 0 - - - 0;
#X floatatom 296 162 5 0 0 0 - - - 0;
#X text 254 54 arg1: sendname;
#N canvas 1157 189 406 135 NETPD 0;
#X msg 15 16 version 0 1 0;
#X restore 324 271 pd NETPD 2 0;
#X text 8 7 carlito-cursor - a configurable position indicator;
#X text 11 47 [carlito-cursor \$0.seq];
#X obj 16 262 s \$0.cursor;
#X msg 232 187 steps \$1;
#X msg 296 188 color \$1;
#X floatatom 16 160 5 0 0 0 - - - 0;
#X msg 16 182 pos \$1;
#X obj 41 83 carlito-cursor \$0.cursor;
#X obj 359 165 tgl 15 0 empty empty empty 17 7 0 10 #fcfcfc #000000
#000000 0 1;
#X msg 359 189 vis \$1;
#X connect 3 0 5 0;
#X connect 4 0 6 0;
#X connect 5 0 13 0;
#X connect 6 0 13 0;
#X connect 7 0 14 0;
#X connect 8 0 15 0;
#X connect 14 0 13 0;
#X connect 15 0 13 0;
#X connect 16 0 17 0;
#X connect 17 0 13 0;
#X connect 19 0 20 0;
#X connect 20 0 13 0;
