#N canvas 870 270 593 488 10;
#N canvas 247 349 1265 989 \$0.gop 0;
#X coords 0 0 218 30 218 30 2 50 50;
#X restore 50 50 pd \$0.gop;
#N canvas 659 363 670 630 create.items 0;
#X obj 43 576 s pd-\$0.gop;
#X obj 43 154 until;
#X obj 43 177 f;
#X obj 43 222 t a a;
#X obj 89 224 + 1;
#X obj 166 184 s pd-\$0.gop;
#X msg 166 160 clear;
#X obj 43 200 mod, f 14;
#X obj 43 124 t a b a b, f 21;
#X obj 43 47 f;
#X obj 43 18 r \$0.redraw;
#X text 50 488 id;
#X text 100 487 x;
#X text 162 487 y;
#X text 290 485 h;
#X text 393 487 bgclr;
#X text 322 487 boxclr;
#X obj 43 528 list prepend scalar \$0.rectangle;
#X obj 43 551 list trim;
#X obj 362 279 b;
#X obj 233 287 r \$0.width;
#X obj 297 342 r \$0.height;
#X obj 427 12 r \$0.redraw;
#X msg 427 130 coords 0 0 \$2 \$1 \$2 \$1 2 50 50;
#X obj 441 161 s \$0.top;
#X obj 427 191 s pd-\$0.gop;
#X obj 106 402 *;
#X msg 84 153 0;
#X obj 460 74 r \$0.width;
#X obj 507 104 r \$0.height;
#X obj 427 104 list prepend;
#X obj 427 72 f;
#X obj 427 35 b;
#X text 226 483 w;
#X obj 233 370 /;
#X obj 249 340 t b a;
#X obj 43 504 pack f f f f f f f f, f 75;
#X obj 43 247 t a a a a a a a a, f 75;
#X text 459 479 state;
#X obj 490 342 b;
#X msg 490 365 0;
#X obj 393 276 r \$0.box.clr;
#X obj 362 302 f;
#X obj 426 308 b;
#X obj 426 331 f;
#X obj 457 305 r \$0.off.clr;
#X obj 72 49 r \$0.columns;
#X obj 43 87 *;
#X obj 72 89 r \$0.rows;
#X obj 249 317 r \$0.columns;
#X obj 106 302 mod;
#X obj 115 269 r \$0.columns;
#X obj 297 425 /;
#X obj 313 395 t b a;
#X obj 313 372 r \$0.rows;
#X obj 170 334 div;
#X obj 169 425 *;
#X obj 162 300 r \$0.columns;
#X connect 1 0 2 0;
#X connect 2 0 7 0;
#X connect 3 0 37 0;
#X connect 3 1 4 0;
#X connect 4 0 2 1;
#X connect 6 0 5 0;
#X connect 7 0 3 0;
#X connect 8 0 1 0;
#X connect 8 1 27 0;
#X connect 8 2 7 1;
#X connect 8 3 6 0;
#X connect 9 0 47 0;
#X connect 10 0 9 0;
#X connect 17 0 18 0;
#X connect 18 0 0 0;
#X connect 19 0 42 0;
#X connect 20 0 34 0;
#X connect 21 0 52 0;
#X connect 22 0 32 0;
#X connect 23 0 25 0;
#X connect 23 0 24 0;
#X connect 26 0 36 1;
#X connect 27 0 2 1;
#X connect 28 0 31 1;
#X connect 29 0 30 1;
#X connect 30 0 23 0;
#X connect 31 0 30 0;
#X connect 32 0 31 0;
#X connect 34 0 26 1;
#X connect 34 0 36 3;
#X connect 35 0 34 0;
#X connect 35 1 34 1;
#X connect 36 0 17 0;
#X connect 37 0 36 0;
#X connect 37 1 50 0;
#X connect 37 2 55 0;
#X connect 37 5 19 0;
#X connect 37 6 43 0;
#X connect 37 7 39 0;
#X connect 39 0 40 0;
#X connect 40 0 36 7;
#X connect 41 0 42 1;
#X connect 42 0 36 5;
#X connect 43 0 44 0;
#X connect 44 0 36 6;
#X connect 45 0 44 1;
#X connect 46 0 9 1;
#X connect 47 0 8 0;
#X connect 48 0 47 1;
#X connect 49 0 35 0;
#X connect 50 0 26 0;
#X connect 51 0 50 1;
#X connect 52 0 36 4;
#X connect 52 0 56 1;
#X connect 53 0 52 0;
#X connect 53 1 52 1;
#X connect 54 0 53 0;
#X connect 55 0 56 0;
#X connect 56 0 36 2;
#X connect 57 0 55 1;
#X restore 53 262 pd create.items;
#N canvas 306 206 425 157 the.struct 0;
#X obj 11 112 outlet;
#X obj 12 12 filledpolygon -xv bgclr boxclr 1 0 0 w 0 w h 0 h;
#X obj 11 76 struct \$0.rectangle float id float x float y float w
float h float boxclr float bgclr float state;
#X connect 2 0 0 0;
#X restore 53 286 pd the.struct;
#X text 201 205 arg2: width;
#X text 201 191 arg1: sendname;
#X text 201 219 arg3: height;
#X obj 53 190 namecanvas \$0.top;
#N canvas 449 348 469 317 init 0;
#X obj 12 10 loadbang;
#X obj 70 83 pdcontrol;
#X msg 70 60 args 0;
#X obj 142 248 s \$0.height;
#X obj 106 272 s \$0.width;
#X obj 12 33 t b b b, f 20;
#X obj 252 173 s \$0.box.clr;
#X obj 288 151 s \$0.on.clr;
#X obj 325 129 s \$0.off.clr;
#X obj 12 253 s \$0.redraw;
#X obj 70 106 unpack s f f f f f f f, f 43;
#X obj 179 225 s \$0.columns;
#X obj 215 200 s \$0.rows;
#X msg 129 58 list _placeholder 120 40 8 2 444 666 888;
#X connect 0 0 5 0;
#X connect 1 0 10 0;
#X connect 2 0 1 0;
#X connect 5 0 9 0;
#X connect 5 1 2 0;
#X connect 5 2 13 0;
#X connect 10 1 4 0;
#X connect 10 2 3 0;
#X connect 10 3 11 0;
#X connect 10 4 12 0;
#X connect 10 5 6 0;
#X connect 10 6 7 0;
#X connect 10 7 8 0;
#X connect 13 0 10 0;
#X restore 53 214 pd init;
#N canvas 349 359 424 279 methods 0;
#X text 13 13 input;
#X text 166 16 output;
#N canvas 0 106 439 174 width 0;
#X obj 11 7 r \$1;
#X obj 11 99 s \$0.redraw;
#X obj 11 29 route width;
#X obj 11 52 t b a;
#X obj 38 79 s \$0.width;
#X connect 0 0 2 0;
#X connect 2 0 3 0;
#X connect 3 0 1 0;
#X connect 3 1 4 0;
#X restore 15 88 pd width;
#N canvas 0 106 439 174 height 0;
#X obj 11 7 r \$1;
#X obj 11 99 s \$0.redraw;
#X obj 11 52 t b a;
#X obj 11 29 route height;
#X obj 38 79 s \$0.height;
#X connect 0 0 3 0;
#X connect 2 0 1 0;
#X connect 2 1 4 0;
#X connect 3 0 2 0;
#X restore 15 112 pd height;
#N canvas 679 312 360 210 set 0;
#X obj 20 16 r \$1;
#X obj 20 39 route set;
#X obj 20 86 s \$0.set;
#X msg 20 62 \$1 \$2 \$3;
#X connect 0 0 1 0;
#X connect 1 0 3 0;
#X connect 3 0 2 0;
#X restore 15 163 pd set;
#N canvas 0 106 439 271 clrs 0;
#X obj 11 7 r \$1;
#X obj 11 199 s \$0.redraw;
#X obj 11 29 route box_color on_color off_color;
#X obj 38 175 s \$0.box.clr;
#X obj 105 143 s \$0.on.clr;
#X obj 172 95 s \$0.off.clr;
#X obj 11 52 t b a;
#X obj 78 55 t b a;
#X obj 145 55 t b a;
#X connect 0 0 2 0;
#X connect 2 0 6 0;
#X connect 2 1 7 0;
#X connect 2 2 8 0;
#X connect 6 0 1 0;
#X connect 6 1 3 0;
#X connect 7 0 1 0;
#X connect 7 1 4 0;
#X connect 8 0 1 0;
#X connect 8 1 5 0;
#X restore 15 137 pd clrs;
#N canvas 0 106 389 271 columns 0;
#X obj 11 7 r \$1;
#X obj 28 189 s \$0.redraw;
#X obj 11 96 t b b a a;
#X obj 11 53 list;
#X obj 45 164 s \$0.columns;
#X obj 11 29 route columns;
#X connect 0 0 5 0;
#X connect 2 1 1 0;
#X connect 2 2 4 0;
#X connect 3 0 2 0;
#X connect 5 0 3 0;
#X restore 15 44 pd columns;
#N canvas 0 106 389 271 rows 0;
#X obj 11 7 r \$1;
#X obj 28 189 s \$0.redraw;
#X obj 11 96 t b b a a;
#X obj 11 53 list;
#X obj 45 164 s \$0.rows;
#X obj 11 29 route rows;
#X connect 0 0 5 0;
#X connect 2 1 1 0;
#X connect 2 2 4 0;
#X connect 3 0 2 0;
#X connect 5 0 3 0;
#X restore 15 66 pd rows;
#N canvas 0 106 439 129 state 0;
#X obj 30 64 s \$1;
#X obj 30 18 r \$0.state;
#X msg 30 41 state \$1 \$2 \$3;
#X connect 1 0 2 0;
#X connect 2 0 0 0;
#X restore 165 44 pd state;
#X restore 53 238 pd methods;
#X msg 11 377 clear;
#X obj 11 400 s pd-\$0.gop;
#X text 201 233 arg4: columns;
#X text 201 247 arg5: rows;
#X text 201 261 arg6: box color;
#X text 201 275 arg7: on color;
#X text 201 289 arg8: off color;
#N canvas 163 147 933 557 toggle 0;
#X obj 17 237 inlet;
#X obj 17 260 route click;
#X msg 17 283 \$1;
#X msg 259 81 traverse pd-\$1.gop;
#X obj 259 57 f \$0;
#X obj 207 123 pointer \$0.rectangle;
#X obj 207 57 until;
#X msg 207 80 next;
#X obj 207 146 t a a, f 9;
#X obj 207 30 t b b a, f 18;
#X obj 207 4 r \$0.set;
#X msg 687 357 traverse pd-\$1.gop;
#X obj 687 333 f \$0;
#X obj 636 401 pointer \$0.rectangle;
#X obj 636 335 until;
#X msg 636 358 next;
#X obj 636 288 t b b, f 9;
#X msg 636 311 1000;
#X obj 636 424 t a b, f 9;
#X obj 636 215 r \$0.redraw;
#X obj 636 238 b;
#X obj 636 262 del 0;
#X obj 17 314 t a a, f 33;
#X obj 233 411 sel 0 1;
#X obj 164 415 t a a;
#X obj 164 366 == 0;
#X obj 164 524 set \$0.rectangle state bgclr;
#X obj 261 481 r \$0.off.clr;
#X obj 280 452 r \$0.on.clr;
#X obj 233 476 f;
#X obj 252 452 f;
#X obj 17 364 t a a, f 7;
#X obj 56 425 div;
#X obj 71 396 r \$0.columns;
#X obj 17 424 mod;
#X obj 17 484 pack f f f, f 14;
#X obj 17 519 s \$0.state;
#X obj 17 341 get \$0.rectangle id state;
#X obj 207 177 get \$0.rectangle id;
#X obj 164 389 t a;
#X obj 412 48 unpack f f f, f 16;
#X obj 642 67 r \$0.columns;
#X obj 458 159 *;
#X obj 414 183 +;
#X obj 207 200 sel;
#X obj 207 223 t b b;
#X obj 207 258 f, f 28;
#X obj 412 76 moses 0;
#X obj 451 106 moses;
#X msg 412 133 -1;
#X connect 0 0 1 0;
#X connect 1 0 2 0;
#X connect 2 0 22 0;
#X connect 3 0 5 0;
#X connect 4 0 3 0;
#X connect 5 0 8 0;
#X connect 5 2 6 1;
#X connect 6 0 7 0;
#X connect 7 0 5 0;
#X connect 8 0 38 0;
#X connect 8 1 26 2;
#X connect 9 0 6 0;
#X connect 9 1 4 0;
#X connect 9 2 40 0;
#X connect 10 0 9 0;
#X connect 11 0 13 0;
#X connect 12 0 11 0;
#X connect 13 0 18 0;
#X connect 13 2 14 1;
#X connect 14 0 15 0;
#X connect 15 0 13 0;
#X connect 16 0 17 0;
#X connect 16 1 12 0;
#X connect 17 0 14 0;
#X connect 18 1 14 1;
#X connect 19 0 20 0;
#X connect 20 0 21 0;
#X connect 21 0 16 0;
#X connect 22 0 37 0;
#X connect 22 1 26 2;
#X connect 23 0 29 0;
#X connect 23 1 30 0;
#X connect 24 0 26 0;
#X connect 24 1 23 0;
#X connect 25 0 39 0;
#X connect 27 0 29 1;
#X connect 28 0 30 1;
#X connect 29 0 26 1;
#X connect 30 0 26 1;
#X connect 31 0 34 0;
#X connect 31 1 32 0;
#X connect 32 0 35 1;
#X connect 33 0 32 1;
#X connect 33 0 34 1;
#X connect 34 0 35 0;
#X connect 35 0 36 0;
#X connect 37 0 31 0;
#X connect 37 1 25 0;
#X connect 38 0 44 0;
#X connect 39 0 24 0;
#X connect 39 0 35 2;
#X connect 40 0 47 0;
#X connect 40 1 42 0;
#X connect 40 2 46 1;
#X connect 41 0 42 1;
#X connect 41 0 48 1;
#X connect 42 0 43 1;
#X connect 43 0 44 1;
#X connect 44 0 45 0;
#X connect 45 0 46 0;
#X connect 45 1 6 1;
#X connect 46 0 39 0;
#X connect 47 0 49 0;
#X connect 47 1 48 0;
#X connect 48 0 43 0;
#X connect 48 1 49 0;
#X connect 49 0 44 1;
#X restore 53 310 pd toggle;
#X connect 2 0 16 0;
#X connect 9 0 10 0;
#X coords 0 0 218 30 218 30 2 50 50;
