#N struct 1152.rectangle float id float x float y float w float h float
boxclr float bgclr float state;
#N canvas 1057 39 503 500 10;
#X obj 1 0 cnv 15 500 30 empty empty empty 20 12 0 14 #e0e0e0 #404040
0;
#X text 30 443 No inlets;
#X text 30 457 No outlets;
#X text 8 7 netpd-gui-hmenu - a configurable vertical menu;
#X text 10 47 [netpd-gui-hmenu \$0.myvmenu];
#X text 41 305 arg2: width;
#X text 41 291 arg1: sendname;
#X text 41 319 arg3: height;
#X text 41 333 arg4: number;
#X text 41 347 arg5: selected box color;
#X obj 86 246 s \$0.seq;
#X floatatom 27 146 5 0 0 0 - - - 0;
#X msg 27 168 count \$1;
#X floatatom 96 143 5 0 0 0 - - - 0;
#X floatatom 156 143 5 0 0 0 - - - 0;
#X msg 96 165 width \$1;
#X msg 156 165 height \$1;
#X obj 18 91 carlito-sequencer \$0.seq 120 30 12;
#X msg 236 167 box_color \$1;
#X floatatom 236 141 5 0 0 0 - - - 0;
#X floatatom 325 140 5 0 0 0 - - - 0;
#X msg 325 166 on_color \$1;
#X floatatom 329 190 5 0 0 0 - - - 0;
#X msg 329 216 off_color \$1;
#X text 41 361 arg6: box color;
#X text 41 375 arg7: on color;
#X text 41 389 arg8: off color;
#X connect 11 0 12 0;
#X connect 12 0 10 0;
#X connect 13 0 15 0;
#X connect 14 0 16 0;
#X connect 15 0 10 0;
#X connect 16 0 10 0;
#X connect 18 0 10 0;
#X connect 19 0 18 0;
#X connect 20 0 21 0;
#X connect 21 0 10 0;
#X connect 22 0 23 0;
#X connect 23 0 10 0;
