#N canvas 870 270 593 488 10;
#N canvas 247 349 1265 989 \$0.gop 0;
#X coords 0 0 218 41 218 41 2 50 50;
#X restore 50 50 pd \$0.gop;
#N canvas 659 363 670 630 create.items 0;
#X obj 43 526 s pd-\$0.gop;
#X obj 43 154 until;
#X obj 43 177 f;
#X obj 43 222 t a a;
#X obj 89 224 + 1;
#X obj 166 184 s pd-\$0.gop;
#X msg 166 160 clear;
#X obj 84 69 r \$0.length;
#X obj 43 200 mod, f 14;
#X obj 43 124 t a b a b, f 21;
#X obj 43 67 f;
#X obj 43 18 r \$0.redraw;
#X text 50 438 id;
#X text 100 437 x;
#X text 162 437 y;
#X text 290 435 h;
#X text 393 437 bgclr;
#X text 322 437 boxclr;
#X obj 43 478 list prepend scalar \$0.rectangle;
#X obj 43 501 list trim;
#X obj 362 279 b;
#X obj 233 287 r \$0.width;
#X obj 297 406 r \$0.height;
#X msg 170 317 0;
#X obj 427 12 r \$0.redraw;
#X msg 427 130 coords 0 0 \$2 \$1 \$2 \$1 2 50 50;
#X obj 441 161 s \$0.top;
#X obj 427 191 s pd-\$0.gop;
#X obj 106 402 *;
#X msg 84 153 0;
#X obj 460 74 r \$0.width;
#X obj 507 104 r \$0.height;
#X obj 427 104 list prepend;
#X obj 427 72 f;
#X obj 427 35 b;
#X text 226 433 w;
#X obj 249 317 r \$0.length;
#X obj 233 370 /;
#X obj 249 340 t b a;
#X obj 43 454 pack f f f f f f f f, f 75;
#X obj 43 247 t a a a a a a a a, f 75;
#X text 459 429 state;
#X obj 490 342 b;
#X msg 490 365 0;
#X obj 393 276 r \$0.box.clr;
#X obj 362 302 f;
#X obj 426 308 b;
#X obj 426 331 f;
#X obj 457 305 r \$0.off.clr;
#X connect 1 0 2 0;
#X connect 2 0 8 0;
#X connect 3 0 40 0;
#X connect 3 1 4 0;
#X connect 4 0 2 1;
#X connect 6 0 5 0;
#X connect 7 0 10 1;
#X connect 8 0 3 0;
#X connect 9 0 1 0;
#X connect 9 1 29 0;
#X connect 9 2 8 1;
#X connect 9 3 6 0;
#X connect 10 0 9 0;
#X connect 11 0 10 0;
#X connect 18 0 19 0;
#X connect 19 0 0 0;
#X connect 20 0 45 0;
#X connect 21 0 37 0;
#X connect 22 0 39 4;
#X connect 23 0 39 2;
#X connect 24 0 34 0;
#X connect 25 0 27 0;
#X connect 25 0 26 0;
#X connect 28 0 39 1;
#X connect 29 0 2 1;
#X connect 30 0 33 1;
#X connect 31 0 32 1;
#X connect 32 0 25 0;
#X connect 33 0 32 0;
#X connect 34 0 33 0;
#X connect 36 0 38 0;
#X connect 37 0 28 1;
#X connect 37 0 39 3;
#X connect 38 0 37 0;
#X connect 38 1 37 1;
#X connect 39 0 18 0;
#X connect 40 0 39 0;
#X connect 40 1 28 0;
#X connect 40 2 23 0;
#X connect 40 5 20 0;
#X connect 40 6 46 0;
#X connect 40 7 42 0;
#X connect 42 0 43 0;
#X connect 43 0 39 7;
#X connect 44 0 45 1;
#X connect 45 0 39 5;
#X connect 46 0 47 0;
#X connect 47 0 39 6;
#X connect 48 0 47 1;
#X restore 53 262 pd create.items;
#N canvas 306 206 425 157 the.struct 0;
#X obj 11 112 outlet;
#X obj 12 12 filledpolygon -xv bgclr boxclr 1 0 0 w 0 w h 0 h;
#X obj 11 76 struct \$0.rectangle float id float x float y float w
float h float boxclr float bgclr float state;
#X connect 2 0 0 0;
#X restore 53 286 pd the.struct;
#X text 201 205 arg2: width;
#X text 201 191 arg1: sendname;
#X text 201 219 arg3: height;
#X obj 53 190 namecanvas \$0.top;
#N canvas 449 348 469 317 init 0;
#X obj 12 10 loadbang;
#X obj 70 83 pdcontrol;
#X msg 70 60 args 0;
#X obj 155 228 s \$0.height;
#X obj 112 249 s \$0.width;
#X obj 12 33 t b b b, f 20;
#X obj 70 106 unpack s f f f f f f, f 43;
#X obj 240 178 s \$0.box.clr;
#X obj 282 155 s \$0.on.clr;
#X obj 325 129 s \$0.off.clr;
#X obj 12 253 s \$0.redraw;
#X obj 12 151 t b b;
#X obj 39 184 f;
#X obj 39 218 s \$0.length;
#X msg 129 58 list _placeholder 120 20 4 444 666 888;
#X connect 0 0 5 0;
#X connect 1 0 6 0;
#X connect 2 0 1 0;
#X connect 5 0 11 0;
#X connect 5 1 2 0;
#X connect 5 2 14 0;
#X connect 6 1 4 0;
#X connect 6 2 3 0;
#X connect 6 3 12 1;
#X connect 6 4 7 0;
#X connect 6 5 8 0;
#X connect 6 6 9 0;
#X connect 11 0 10 0;
#X connect 11 1 12 0;
#X connect 12 0 13 0;
#X connect 14 0 6 0;
#X restore 53 214 pd init;
#N canvas 349 359 424 279 methods 0;
#X text 13 13 input;
#X text 166 16 output;
#N canvas 0 106 439 129 selected 0;
#X obj 30 18 r \$0.sel.value;
#X msg 30 41 selected \$1;
#X obj 30 64 s \$1;
#X connect 0 0 1 0;
#X connect 1 0 2 0;
#X restore 165 44 pd selected;
#N canvas 0 106 439 174 width 0;
#X obj 11 7 r \$1;
#X obj 11 99 s \$0.redraw;
#X obj 11 29 route width;
#X obj 11 52 t b a;
#X obj 38 79 s \$0.width;
#X connect 0 0 2 0;
#X connect 2 0 3 0;
#X connect 3 0 1 0;
#X connect 3 1 4 0;
#X restore 15 68 pd width;
#N canvas 0 106 439 174 height 0;
#X obj 11 7 r \$1;
#X obj 11 99 s \$0.redraw;
#X obj 11 52 t b a;
#X obj 11 29 route height;
#X obj 38 79 s \$0.height;
#X connect 0 0 3 0;
#X connect 2 0 1 0;
#X connect 2 1 4 0;
#X connect 3 0 2 0;
#X restore 15 92 pd height;
#N canvas 0 106 389 271 count 0;
#X obj 11 7 r \$1;
#X obj 45 164 s \$0.length;
#X obj 28 189 s \$0.redraw;
#X obj 11 96 t b b a a;
#X obj 11 53 list;
#X obj 11 29 route count;
#X connect 0 0 5 0;
#X connect 3 1 2 0;
#X connect 3 2 1 0;
#X connect 4 0 3 0;
#X connect 5 0 4 0;
#X restore 15 44 pd count;
#N canvas 679 312 360 210 set 0;
#X obj 20 16 r \$1;
#X obj 20 39 route set;
#X obj 20 86 s \$0.set;
#X msg 20 62 set \$1 \$2;
#X connect 0 0 1 0;
#X connect 1 0 3 0;
#X connect 3 0 2 0;
#X restore 15 143 pd set;
#N canvas 0 106 439 271 clrs 0;
#X obj 11 7 r \$1;
#X obj 11 199 s \$0.redraw;
#X obj 11 29 route box_color on_color off_color;
#X obj 38 175 s \$0.box.clr;
#X obj 105 143 s \$0.on.clr;
#X obj 172 95 s \$0.off.clr;
#X obj 11 52 t b a;
#X obj 78 55 t b a;
#X obj 145 55 t b a;
#X connect 0 0 2 0;
#X connect 2 0 6 0;
#X connect 2 1 7 0;
#X connect 2 2 8 0;
#X connect 6 0 1 0;
#X connect 6 1 3 0;
#X connect 7 0 1 0;
#X connect 7 1 4 0;
#X connect 8 0 1 0;
#X connect 8 1 5 0;
#X restore 15 117 pd clrs;
#X restore 53 238 pd methods;
#N canvas 163 147 807 470 select 0;
#X obj 28 30 inlet;
#X obj 28 53 route click;
#X msg 28 76 \$1;
#X msg 439 120 traverse pd-\$1.gop;
#X obj 439 96 f \$0;
#X obj 387 162 pointer \$0.rectangle;
#X obj 387 96 until;
#X obj 387 216 get \$0.rectangle label;
#X msg 387 119 next;
#X obj 387 297 pointer;
#X obj 387 185 t a a, f 9;
#X obj 387 69 t b b a, f 18;
#X obj 387 43 r \$0.set;
#X obj 387 269 t b b;
#X obj 387 245 select bla, f 18;
#X msg 621 165 traverse pd-\$1.gop;
#X obj 621 141 f \$0;
#X obj 570 209 pointer \$0.rectangle;
#X obj 570 143 until;
#X msg 570 166 next;
#X obj 570 96 t b b, f 9;
#X msg 570 119 1000;
#X obj 570 232 t a b, f 9;
#X obj 570 23 r \$0.redraw;
#X obj 570 46 b;
#X obj 570 70 del 0;
#X obj 28 134 get \$0.rectangle state;
#X obj 28 107 t a a, f 33;
#X obj 97 193 sel 0 1;
#X obj 28 197 t a a;
#X obj 28 162 == 0;
#X obj 28 306 set \$0.rectangle state bgclr;
#X obj 125 263 r \$0.off.clr;
#X obj 144 234 r \$0.on.clr;
#X obj 97 258 f;
#X obj 116 234 f;
#X connect 0 0 1 0;
#X connect 1 0 2 0;
#X connect 2 0 27 0;
#X connect 3 0 5 0;
#X connect 4 0 3 0;
#X connect 5 0 10 0;
#X connect 5 2 6 1;
#X connect 6 0 8 0;
#X connect 7 0 14 0;
#X connect 8 0 5 0;
#X connect 10 0 7 0;
#X connect 10 1 9 1;
#X connect 11 0 6 0;
#X connect 11 1 4 0;
#X connect 11 2 14 1;
#X connect 12 0 11 0;
#X connect 13 0 9 0;
#X connect 13 1 6 1;
#X connect 14 0 13 0;
#X connect 15 0 17 0;
#X connect 16 0 15 0;
#X connect 17 0 22 0;
#X connect 17 2 18 1;
#X connect 18 0 19 0;
#X connect 19 0 17 0;
#X connect 20 0 21 0;
#X connect 20 1 16 0;
#X connect 21 0 18 0;
#X connect 22 1 18 1;
#X connect 23 0 24 0;
#X connect 24 0 25 0;
#X connect 25 0 20 0;
#X connect 26 0 30 0;
#X connect 27 0 26 0;
#X connect 27 1 31 2;
#X connect 28 0 34 0;
#X connect 28 1 35 0;
#X connect 29 0 31 0;
#X connect 29 1 28 0;
#X connect 30 0 29 0;
#X connect 32 0 34 1;
#X connect 33 0 35 1;
#X connect 34 0 31 1;
#X connect 35 0 31 1;
#X restore 53 310 pd select;
#X msg 11 377 clear;
#X obj 11 400 s pd-\$0.gop;
#X text 201 233 arg4: number;
#X text 201 247 arg5: selected box color;
#X text 201 261 arg6: selected background color;
#X text 201 275 arg7: box color;
#X text 201 289 arg8: background color;
#X connect 2 0 9 0;
#X connect 10 0 11 0;
#X coords 0 0 218 41 218 41 2 50 50;
