#N struct 1990.rect float x float w float h float clr;
#N canvas 713 85 584 495 10;
#N canvas 1633 542 493 228 \$0.gop 0;
#X coords 0 0 10 10 10 10 2 0 0;
#X restore 20 20 pd \$0.gop;
#X obj 350 381 list prepend \$0;
#X obj 350 436 s pd-\$0.gop;
#X obj 156 406 pointer;
#X obj 81 429 set \$0.rect x;
#X obj 156 358 f \$0;
#N canvas 1434 245 422 178 rect-template 0;
#X obj 40 127 outlet;
#X obj 40 104 struct \$0.rect float x float w float h float clr;
#X obj 33 35 filledpolygon -xr clr clr 1 0 0 w 0 w h 0 h 0 0;
#X obj 33 9 inlet;
#X connect 1 0 0 0;
#X connect 3 0 2 0;
#X restore 298 173 pd rect-template;
#X msg 453 381 clear;
#X obj 156 335 t b a b b, f 50;
#X msg 350 405 scalar \$1.rect \$2 \$3 \$4 \$5;
#X obj 129 212 /;
#X obj 138 176 t b a;
#X obj 81 366 *;
#X obj 129 235 t a a;
#X msg 156 382 traverse pd-\$1.gop \, next \, bang;
#X obj 20 20 cnv 10 10 10 empty empty empty 20 12 0 14 #ffffff #ffffff
0;
#X obj 81 78 r \$1;
#X msg 156 311 0 \$1 \$2 \$3;
#X obj 156 259 list append 2;
#X obj 156 282 list append 500, f 19;
#X obj 201 173 t b a;
#X obj 241 176 t b a;
#X obj 81 101 route pos width steps height color vis, f 40;
#N canvas 1335 233 450 300 NETPD 0;
#X msg 23 11 version 0 1 1;
#N canvas 1450 280 379 91 abslist 0;
#X msg 18 22 carlito-cursor-help;
#X restore 21 38 pd abslist;
#X restore 488 15 pd NETPD 2 0;
#X connect 1 0 9 0;
#X connect 3 0 4 1;
#X connect 5 0 14 0;
#X connect 7 0 2 0;
#X connect 8 0 5 0;
#X connect 8 1 1 0;
#X connect 8 3 7 0;
#X connect 9 0 2 0;
#X connect 10 0 13 0;
#X connect 11 0 10 0;
#X connect 11 1 10 1;
#X connect 12 0 4 0;
#X connect 13 0 12 1;
#X connect 13 1 18 0;
#X connect 14 0 3 0;
#X connect 16 0 22 0;
#X connect 17 0 8 0;
#X connect 18 0 19 0;
#X connect 19 0 17 0;
#X connect 20 0 10 0;
#X connect 20 1 18 1;
#X connect 21 0 10 0;
#X connect 21 1 19 1;
#X connect 22 0 12 0;
#X connect 22 1 10 0;
#X connect 22 2 11 0;
#X connect 22 3 20 0;
#X connect 22 4 21 0;
#X connect 22 5 6 0;
#X coords 0 -1 1 1 10 10 2 20 20;
