#N canvas 870 270 593 488 10;
#N canvas 247 349 1265 989 \$0.gop 0;
#X coords 0 0 117 31 117 31 2 50 50;
#X restore 50 50 pd \$0.gop;
#N canvas 659 363 670 630 create.items 0;
#X obj 43 576 s pd-\$0.gop;
#X obj 43 154 until;
#X obj 43 177 f;
#X obj 43 222 t a a;
#X obj 89 224 + 1;
#X obj 166 184 s pd-\$0.gop;
#X msg 166 160 clear;
#X obj 43 200 mod, f 14;
#X obj 43 124 t a b a b, f 21;
#X obj 43 47 f;
#X obj 43 18 r \$0.redraw;
#X text 50 488 id;
#X text 100 487 x;
#X text 162 487 y;
#X text 290 485 h;
#X text 393 487 bgclr;
#X text 322 487 boxclr;
#X obj 43 528 list prepend scalar \$0.rectangle;
#X obj 43 551 list trim;
#X obj 362 279 b;
#X obj 233 287 r \$0.width;
#X obj 297 342 r \$0.height;
#X obj 427 12 r \$0.redraw;
#X msg 427 130 coords 0 0 \$2 \$1 \$2 \$1 2 50 50;
#X obj 441 161 s \$0.top;
#X obj 427 191 s pd-\$0.gop;
#X obj 106 402 *;
#X msg 84 153 0;
#X obj 460 74 r \$0.width;
#X obj 507 104 r \$0.height;
#X obj 427 104 list prepend;
#X obj 427 72 f;
#X obj 427 35 b;
#X text 226 483 w;
#X obj 233 370 /;
#X obj 249 340 t b a;
#X obj 43 504 pack f f f f f f f f, f 75;
#X obj 43 247 t a a a a a a a a, f 75;
#X text 459 479 state;
#X obj 393 276 r \$0.box.clr;
#X obj 362 302 f;
#X obj 426 308 b;
#X obj 426 405 f;
#X obj 441 379 r \$0.off.clr;
#X obj 72 49 r \$0.columns;
#X obj 43 87 *;
#X obj 72 89 r \$0.rows;
#X obj 249 317 r \$0.columns;
#X obj 106 302 mod;
#X obj 115 269 r \$0.columns;
#X obj 297 425 /;
#X obj 313 395 t b a;
#X obj 313 372 r \$0.rows;
#X obj 170 334 div;
#X obj 169 425 *;
#X obj 162 300 r \$0.columns;
#X obj 490 277 tabread \$0.state.cache;
#X obj 469 401 r \$0.on.clr;
#X obj 454 425 f;
#X obj 426 331 f;
#X obj 426 354 sel 0 1, f 10;
#X connect 1 0 2 0;
#X connect 2 0 7 0;
#X connect 3 0 37 0;
#X connect 3 1 4 0;
#X connect 4 0 2 1;
#X connect 6 0 5 0;
#X connect 7 0 3 0;
#X connect 8 0 1 0;
#X connect 8 1 27 0;
#X connect 8 2 7 1;
#X connect 8 3 6 0;
#X connect 9 0 45 0;
#X connect 10 0 9 0;
#X connect 17 0 18 0;
#X connect 18 0 0 0;
#X connect 19 0 40 0;
#X connect 20 0 34 0;
#X connect 21 0 50 0;
#X connect 22 0 32 0;
#X connect 23 0 25 0;
#X connect 23 0 24 0;
#X connect 26 0 36 1;
#X connect 27 0 2 1;
#X connect 28 0 31 1;
#X connect 29 0 30 1;
#X connect 30 0 23 0;
#X connect 31 0 30 0;
#X connect 32 0 31 0;
#X connect 34 0 26 1;
#X connect 34 0 36 3;
#X connect 35 0 34 0;
#X connect 35 1 34 1;
#X connect 36 0 17 0;
#X connect 37 0 36 0;
#X connect 37 1 48 0;
#X connect 37 2 53 0;
#X connect 37 5 19 0;
#X connect 37 6 41 0;
#X connect 37 7 56 0;
#X connect 39 0 40 1;
#X connect 40 0 36 5;
#X connect 41 0 59 0;
#X connect 42 0 36 6;
#X connect 43 0 42 1;
#X connect 44 0 9 1;
#X connect 45 0 8 0;
#X connect 46 0 45 1;
#X connect 47 0 35 0;
#X connect 48 0 26 0;
#X connect 49 0 48 1;
#X connect 50 0 36 4;
#X connect 50 0 54 1;
#X connect 51 0 50 0;
#X connect 51 1 50 1;
#X connect 52 0 51 0;
#X connect 53 0 54 0;
#X connect 54 0 36 2;
#X connect 55 0 53 1;
#X connect 56 0 36 7;
#X connect 56 0 59 1;
#X connect 57 0 58 1;
#X connect 58 0 36 6;
#X connect 59 0 60 0;
#X connect 60 0 42 0;
#X connect 60 1 58 0;
#X restore 53 262 pd create.items;
#N canvas 306 206 425 157 the.struct 0;
#X obj 11 112 outlet;
#X obj 12 12 filledpolygon -xv bgclr boxclr 1 0 0 w 0 w h 0 h;
#X obj 11 76 struct \$0.rectangle float id float x float y float w
float h float boxclr float bgclr float state;
#X connect 2 0 0 0;
#X restore 53 286 pd the.struct;
#X text 201 205 arg2: width;
#X text 201 191 arg1: sendname;
#X text 201 219 arg3: height;
#X obj 53 190 namecanvas \$0.top;
#N canvas 449 348 469 317 init 0;
#X obj 12 10 loadbang;
#X obj 70 83 pdcontrol;
#X msg 70 60 args 0;
#X obj 142 248 s \$0.height;
#X obj 106 272 s \$0.width;
#X obj 12 33 t b b b, f 20;
#X obj 252 173 s \$0.box.clr;
#X obj 288 151 s \$0.on.clr;
#X obj 325 129 s \$0.off.clr;
#X obj 12 253 s \$0.redraw;
#X obj 70 106 unpack s f f f f f f f, f 43;
#X obj 179 225 s \$0.columns;
#X obj 215 200 s \$0.rows;
#X msg 129 58 list _placeholder 120 40 8 2 444 666 888;
#X connect 0 0 5 0;
#X connect 1 0 10 0;
#X connect 2 0 1 0;
#X connect 5 0 9 0;
#X connect 5 1 2 0;
#X connect 5 2 13 0;
#X connect 10 1 4 0;
#X connect 10 2 3 0;
#X connect 10 3 11 0;
#X connect 10 4 12 0;
#X connect 10 5 6 0;
#X connect 10 6 7 0;
#X connect 10 7 8 0;
#X connect 13 0 10 0;
#X restore 53 214 pd init;
#N canvas 349 359 424 278 methods 1;
#X text 13 13 input;
#X text 166 16 output;
#N canvas 0 106 439 174 width 0;
#X obj 11 7 r \$1;
#X obj 11 99 s \$0.redraw;
#X obj 11 29 route width;
#X obj 11 52 t b a;
#X obj 38 79 s \$0.width;
#X connect 0 0 2 0;
#X connect 2 0 3 0;
#X connect 3 0 1 0;
#X connect 3 1 4 0;
#X restore 15 88 pd width;
#N canvas 0 106 439 174 height 0;
#X obj 11 7 r \$1;
#X obj 11 99 s \$0.redraw;
#X obj 11 52 t b a;
#X obj 11 29 route height;
#X obj 38 79 s \$0.height;
#X connect 0 0 3 0;
#X connect 2 0 1 0;
#X connect 2 1 4 0;
#X connect 3 0 2 0;
#X restore 15 112 pd height;
#N canvas 679 312 360 210 set 0;
#X obj 20 16 r \$1;
#X obj 20 39 route set;
#X obj 20 86 s \$0.set;
#X msg 20 62 \$1 \$2 \$3;
#X connect 0 0 1 0;
#X connect 1 0 3 0;
#X connect 3 0 2 0;
#X restore 15 163 pd set;
#N canvas 0 106 439 271 clrs 0;
#X obj 11 7 r \$1;
#X obj 11 199 s \$0.redraw;
#X obj 11 29 route box_color on_color off_color;
#X obj 38 175 s \$0.box.clr;
#X obj 105 143 s \$0.on.clr;
#X obj 172 95 s \$0.off.clr;
#X obj 11 52 t b a;
#X obj 78 55 t b a;
#X obj 145 55 t b a;
#X connect 0 0 2 0;
#X connect 2 0 6 0;
#X connect 2 1 7 0;
#X connect 2 2 8 0;
#X connect 6 0 1 0;
#X connect 6 1 3 0;
#X connect 7 0 1 0;
#X connect 7 1 4 0;
#X connect 8 0 1 0;
#X connect 8 1 5 0;
#X restore 15 137 pd clrs;
#N canvas 0 106 389 271 columns 0;
#X obj 11 7 r \$1;
#X obj 28 195 s \$0.redraw;
#X obj 11 103 t b b a a;
#X obj 45 170 s \$0.columns;
#X obj 11 29 route columns;
#X obj 11 75 clip 0 100;
#X msg 11 52 \$1;
#X connect 0 0 4 0;
#X connect 2 1 1 0;
#X connect 2 2 3 0;
#X connect 4 0 6 0;
#X connect 5 0 2 0;
#X connect 6 0 5 0;
#X restore 15 44 pd columns;
#N canvas 0 106 389 271 rows 0;
#X obj 11 7 r \$1;
#X obj 28 189 s \$0.redraw;
#X obj 11 116 t b b a a;
#X obj 45 164 s \$0.rows;
#X obj 11 29 route rows;
#X obj 11 81 clip 0 100;
#X msg 11 58 \$1;
#X connect 0 0 4 0;
#X connect 2 1 1 0;
#X connect 2 2 3 0;
#X connect 4 0 6 0;
#X connect 5 0 2 0;
#X connect 6 0 5 0;
#X restore 15 66 pd rows;
#N canvas 679 312 588 435 get 0;
#X obj 20 16 r \$1;
#X obj 20 39 route get;
#X obj 173 115 r \$0.columns;
#X obj 124 172 *;
#X obj 59 212 +;
#X obj 20 154 moses 0;
#X obj 59 184 moses;
#X msg 20 62 \$1 \$2;
#X obj 20 107 unpack;
#X obj 231 176 r \$0.rows;
#X obj 231 210 t b a;
#X obj 173 253 *;
#X obj 59 273 moses;
#X obj 59 307 tabread \$0.state.cache;
#X obj 20 85 t a a, f 16;
#X obj 59 330 list prepend;
#X obj 59 353 s \$0.cell;
#X connect 0 0 1 0;
#X connect 1 0 7 0;
#X connect 2 0 3 1;
#X connect 2 0 6 1;
#X connect 2 0 11 0;
#X connect 3 0 4 1;
#X connect 4 0 12 0;
#X connect 5 1 6 0;
#X connect 6 0 4 0;
#X connect 7 0 14 0;
#X connect 8 0 5 0;
#X connect 8 1 3 0;
#X connect 9 0 10 0;
#X connect 10 0 11 0;
#X connect 10 1 11 1;
#X connect 11 0 12 1;
#X connect 12 0 13 0;
#X connect 13 0 15 0;
#X connect 14 0 8 0;
#X connect 14 1 15 1;
#X connect 15 0 16 0;
#X restore 15 188 pd get;
#N canvas 502 206 450 409 dump 0;
#X obj 18 11 r \$1;
#X obj 18 34 route dump;
#X obj 18 57 b;
#X obj 45 80 r \$0.rows;
#X obj 46 103 r \$0.columns;
#X obj 18 80 f;
#X obj 18 103 *;
#X obj 18 185 array get \$0.state.cache;
#X obj 18 126 t b a;
#X msg 18 149 0;
#X obj 97 208 r \$0.rows;
#X obj 100 231 r \$0.columns;
#X obj 18 208 list prepend;
#X obj 18 231 list prepend;
#X obj 18 257 s \$0.fullstate;
#X connect 0 0 1 0;
#X connect 1 0 2 0;
#X connect 2 0 5 0;
#X connect 3 0 5 1;
#X connect 4 0 6 1;
#X connect 5 0 6 0;
#X connect 6 0 8 0;
#X connect 7 0 12 0;
#X connect 8 0 9 0;
#X connect 8 1 7 1;
#X connect 9 0 7 0;
#X connect 10 0 12 1;
#X connect 11 0 13 1;
#X connect 12 0 13 0;
#X connect 13 0 14 0;
#X restore 15 214 pd dump;
#N canvas 0 106 439 129 cell 0;
#X obj 30 64 s \$1;
#X msg 30 41 cell \$1 \$2 \$3;
#X obj 30 18 r \$0.cell;
#X connect 1 0 0 0;
#X connect 2 0 1 0;
#X restore 165 44 pd cell;
#N canvas 0 106 439 129 fullstate 0;
#X obj 30 89 s \$1;
#X obj 30 18 r \$0.fullstate;
#X obj 30 41 list prepend fullstate;
#X obj 30 64 list trim;
#X connect 1 0 2 0;
#X connect 2 0 3 0;
#X connect 3 0 0 0;
#X restore 165 72 pd fullstate;
#N canvas 502 206 434 283 restore 0;
#X obj 18 11 r \$1;
#X obj 18 34 route restore;
#X msg 147 82 \$1;
#X obj 147 105 s \$0.columns;
#X msg 104 103 \$2;
#X obj 104 126 s \$0.rows;
#X obj 61 153 list split 2;
#X obj 95 226 array set \$0.state.cache;
#X obj 18 57 t b a a a, f 22;
#X obj 95 177 t a b;
#X msg 165 200 0;
#X obj 18 226 s \$0.redraw;
#X connect 0 0 1 0;
#X connect 1 0 8 0;
#X connect 2 0 3 0;
#X connect 4 0 5 0;
#X connect 6 1 9 0;
#X connect 8 0 11 0;
#X connect 8 1 6 0;
#X connect 8 2 4 0;
#X connect 8 3 2 0;
#X connect 9 0 7 0;
#X connect 9 1 10 0;
#X connect 10 0 7 1;
#X restore 15 242 pd restore;
#X restore 53 238 pd methods;
#X msg 11 377 clear;
#X obj 11 400 s pd-\$0.gop;
#X text 201 233 arg4: columns;
#X text 201 247 arg5: rows;
#X text 201 261 arg6: box color;
#X text 201 275 arg7: on color;
#X text 201 289 arg8: off color;
#N canvas 163 147 745 631 toggle 0;
#X obj 17 237 inlet;
#X obj 17 260 route click;
#X msg 17 283 \$1;
#X msg 259 81 traverse pd-\$1.gop;
#X obj 259 57 f \$0;
#X obj 207 123 pointer \$0.rectangle;
#X obj 207 57 until;
#X msg 207 80 next;
#X obj 207 146 t a a, f 9;
#X obj 207 30 t b b a, f 18;
#X obj 207 4 r \$0.set;
#X obj 17 314 t a a, f 33;
#X obj 283 416 sel 0 1;
#X obj 214 420 t a a;
#X obj 164 366 == 0;
#X obj 214 529 set \$0.rectangle state bgclr;
#X obj 311 486 r \$0.off.clr;
#X obj 330 457 r \$0.on.clr;
#X obj 283 481 f;
#X obj 302 457 f;
#X obj 57 425 div;
#X obj 72 396 r \$0.columns;
#X obj 17 424 mod;
#X obj 17 484 pack f f f, f 14;
#X obj 17 519 s \$0.state;
#X obj 17 341 get \$0.rectangle id state;
#X obj 207 177 get \$0.rectangle id;
#X obj 164 389 t a;
#X obj 412 48 unpack f f f, f 28;
#X obj 614 109 r \$0.columns;
#X obj 494 79 *;
#X obj 451 134 +;
#X obj 207 200 sel;
#X obj 207 223 t b b;
#X obj 207 258 f, f 28;
#X obj 412 76 moses 0;
#X obj 451 106 moses;
#X msg 412 133 -1;
#X obj 377 171 t a a;
#X obj 448 354 pack f f;
#X obj 207 284 t a a;
#X msg 448 377 \$2 \$1;
#X obj 448 400 s \$0.state.cache;
#X obj 108 557 pack f f;
#X obj 108 580 s \$0.state.cache;
#X obj 17 364 t a a a, f 14;
#X connect 0 0 1 0;
#X connect 1 0 2 0;
#X connect 2 0 11 0;
#X connect 3 0 5 0;
#X connect 4 0 3 0;
#X connect 5 0 8 0;
#X connect 5 2 6 1;
#X connect 6 0 7 0;
#X connect 7 0 5 0;
#X connect 8 0 26 0;
#X connect 8 1 15 2;
#X connect 9 0 6 0;
#X connect 9 1 4 0;
#X connect 9 2 28 0;
#X connect 10 0 9 0;
#X connect 11 0 25 0;
#X connect 11 1 15 2;
#X connect 12 0 18 0;
#X connect 12 1 19 0;
#X connect 13 0 15 0;
#X connect 13 1 12 0;
#X connect 14 0 27 0;
#X connect 16 0 18 1;
#X connect 17 0 19 1;
#X connect 18 0 15 1;
#X connect 19 0 15 1;
#X connect 20 0 23 1;
#X connect 21 0 20 1;
#X connect 21 0 22 1;
#X connect 22 0 23 0;
#X connect 23 0 24 0;
#X connect 25 0 45 0;
#X connect 25 1 14 0;
#X connect 26 0 32 0;
#X connect 27 0 13 0;
#X connect 27 0 23 2;
#X connect 27 0 43 1;
#X connect 28 0 35 0;
#X connect 28 1 30 0;
#X connect 28 2 34 1;
#X connect 29 0 30 1;
#X connect 29 0 36 1;
#X connect 30 0 31 1;
#X connect 31 0 38 0;
#X connect 32 0 33 0;
#X connect 33 0 34 0;
#X connect 33 1 6 1;
#X connect 34 0 40 0;
#X connect 35 0 37 0;
#X connect 35 1 36 0;
#X connect 36 0 31 0;
#X connect 36 1 37 0;
#X connect 37 0 32 1;
#X connect 38 0 32 1;
#X connect 38 1 39 1;
#X connect 39 0 41 0;
#X connect 40 0 27 0;
#X connect 40 1 39 0;
#X connect 41 0 42 0;
#X connect 43 0 44 0;
#X connect 45 0 22 0;
#X connect 45 1 20 0;
#X connect 45 2 43 0;
#X restore 53 310 pd toggle;
#X obj 237 426 table \$0.state.cache 10000;
#X connect 2 0 16 0;
#X connect 9 0 10 0;
#X coords 0 0 117 31 117 31 2 50 50;
