#N canvas 630 103 390 484 10;
#X text 9 12 Set of abstractions dealing with chords;
#X text 11 37 Chords consist either of lists of (pitch function) tuples
or of pitchlists.;
#X obj 13 86 chord-fromsymbol;
#X obj 13 116 chord-pick-fuzzy;
#X obj 13 146 chord-pick;
#X obj 13 176 chord-pitch-range;
#X obj 13 206 chord-progress-by-nearest;
#X obj 13 336 chord-selector;
#X obj 13 236 chord-sort-by-func;
#X obj 13 266 chord-sort-by-pitch;
#X text 11 306 == GRAPHICAL =============;
#X text 165 337 [chord-selector];
#N canvas 916 134 407 123 NETPD 0;
#X msg 9 11 version 0 1 0;
#N canvas 931 287 407 280 abslist 0;
#X msg 15 13 chord-fromsymbol;
#X msg 15 43 chord-pick-fuzzy;
#X msg 15 76 chord-pick;
#X msg 15 106 chord-pitch-range;
#X msg 15 136 chord-progress-by-nearest;
#X msg 15 196 chord-sort-by-func;
#X msg 15 226 chord-sort-by-pitch;
#X msg 235 13 roman_helpers;
#X msg 15 166 chord-selector;
#X restore 8 36 pd abslist;
#X restore 297 449 pd NETPD 2 0;
