#N canvas 779 104 1025 722 10;
#X obj 54 91 list fromsymbol;
#X obj 54 138 list tosymbol;
#X obj 54 114 rh_symbol_serialize;
#X obj 414 285 t a a;
#X obj 407 330 pack s s;
#X msg 407 354 symbol \$2\$1;
#X msg 471 290 symbol;
#X obj 54 319 sel C D E F G A B;
#X obj 173 347 sel ♯ ♭;
#X obj 917 422 sel ˢᵘˢ²;
#X obj 814 409 sel ˢᵘˢ;
#X obj 841 223 symbol;
#X obj 814 188 t a b;
#X obj 868 269 symbol;
#X obj 841 244 t a b;
#X obj 814 341 pack s s s;
#X msg 901 189 symbol;
#X msg 814 364 symbol \$3\$2\$1;
#X obj 895 318 symbol;
#X obj 868 293 t a b;
#X obj 917 375 pack s s s s;
#X obj 814 298 t a a;
#X msg 917 399 symbol \$4\$3\$2\$1;
#X msg 54 380 0;
#X msg 68 359 2;
#X msg 82 381 4;
#X msg 96 360 5;
#X msg 110 382 7;
#X msg 124 361 9;
#X msg 138 383 11;
#X msg 173 414 1;
#X msg 192 394 -1;
#X msg 231 409 3;
#X msg 814 436 5;
#X msg 917 445 2;
#X obj 78 455 +;
#X obj 27 21 inlet;
#X obj 27 44 t a b, f 57;
#X msg 245 433 4;
#X obj 28 483 f;
#X obj 231 476 t a;
#X obj 231 384 sel m, f 12;
#X obj 54 161 t a a a;
#X obj 27 67 t b a;
#X msg 451 447 7;
#X msg 407 445 8;
#X msg 430 471 6;
#X msg 300 460 11;
#X msg 317 438 10;
#X msg 334 464 9;
#X obj 167 561 + 0;
#X obj 28 514 t a a;
#X obj 275 571 + 0;
#X obj 398 581 + 0;
#X msg 95 593 0;
#X obj 166 585 mod 12;
#X obj 275 594 mod 12;
#X obj 398 604 mod 12;
#X obj 28 689 outlet;
#N canvas 304 63 373 80 NETPD 0;
#X msg 19 10 version 0 1 0;
#N canvas 366 89 331 59 abslist 0;
#X msg 21 9 chord-fromsymbol-help;
#X restore 26 37 pd abslist;
#X restore 739 21 pd NETPD 2 0;
#X msg 560 549 8;
#X msg 612 532 6;
#X obj 140 457 t b a;
#X msg 189 437 0;
#X obj 413 499 t a;
#X obj 303 492 t a b;
#X obj 28 570 mod 12;
#X msg 669 540 10;
#X obj 28 666 list split 6, f 98;
#X obj 28 636 pack f f f f f f f f f f, f 73;
#X obj 468 581 + 0;
#X obj 468 604 mod 12;
#X obj 527 506 t a b;
#X obj 407 410 sel ⁺⁵ ⁻⁵ ⁻⁷ ⁻⁹;
#X msg 536 475 13;
#X obj 300 408 sel Δ ⁷ ⁶ ⁹;
#X msg 510 475 14;
#X obj 303 515 t a;
#X msg 317 461;
#X msg 274 492 10;
#X connect 0 0 2 0;
#X connect 1 0 42 0;
#X connect 2 0 1 0;
#X connect 3 0 4 1;
#X connect 3 1 4 0;
#X connect 4 0 5 0;
#X connect 5 0 73 0;
#X connect 6 0 4 1;
#X connect 7 0 23 0;
#X connect 7 1 24 0;
#X connect 7 2 25 0;
#X connect 7 3 26 0;
#X connect 7 4 27 0;
#X connect 7 5 28 0;
#X connect 7 6 29 0;
#X connect 7 7 8 0;
#X connect 8 0 30 0;
#X connect 8 1 31 0;
#X connect 8 2 41 0;
#X connect 9 0 34 0;
#X connect 10 0 33 0;
#X connect 11 0 14 0;
#X connect 12 0 11 1;
#X connect 12 0 21 0;
#X connect 12 1 11 0;
#X connect 13 0 19 0;
#X connect 14 0 13 1;
#X connect 14 0 15 1;
#X connect 14 0 20 1;
#X connect 14 1 13 0;
#X connect 15 0 17 0;
#X connect 16 0 13 1;
#X connect 16 0 11 1;
#X connect 16 0 18 1;
#X connect 17 0 10 0;
#X connect 18 0 20 3;
#X connect 19 0 18 1;
#X connect 19 0 15 2;
#X connect 19 0 20 2;
#X connect 19 1 18 0;
#X connect 20 0 22 0;
#X connect 21 0 15 0;
#X connect 21 1 20 0;
#X connect 22 0 9 0;
#X connect 23 0 35 0;
#X connect 24 0 35 0;
#X connect 25 0 35 0;
#X connect 26 0 35 0;
#X connect 27 0 35 0;
#X connect 28 0 35 0;
#X connect 29 0 35 0;
#X connect 30 0 62 0;
#X connect 31 0 62 0;
#X connect 32 0 40 0;
#X connect 33 0 40 0;
#X connect 34 0 40 0;
#X connect 35 0 39 1;
#X connect 36 0 37 0;
#X connect 37 0 43 0;
#X connect 37 1 6 0;
#X connect 37 1 16 0;
#X connect 37 1 38 0;
#X connect 37 1 44 0;
#X connect 37 1 61 0;
#X connect 37 1 63 0;
#X connect 37 1 79 0;
#X connect 38 0 40 0;
#X connect 39 0 51 0;
#X connect 40 0 50 1;
#X connect 40 0 69 3;
#X connect 41 0 32 0;
#X connect 41 1 75 0;
#X connect 42 0 3 0;
#X connect 42 1 7 0;
#X connect 42 2 12 0;
#X connect 43 0 39 0;
#X connect 43 1 0 0;
#X connect 44 0 64 0;
#X connect 45 0 64 0;
#X connect 46 0 64 0;
#X connect 47 0 65 0;
#X connect 48 0 65 0;
#X connect 48 0 78 0;
#X connect 49 0 65 0;
#X connect 50 0 55 0;
#X connect 51 0 66 0;
#X connect 51 1 50 0;
#X connect 51 1 52 0;
#X connect 51 1 53 0;
#X connect 51 1 54 0;
#X connect 51 1 70 0;
#X connect 52 0 56 0;
#X connect 53 0 57 0;
#X connect 54 0 69 1;
#X connect 55 0 69 2;
#X connect 56 0 69 4;
#X connect 57 0 69 6;
#X connect 60 0 68 1;
#X connect 61 0 68 1;
#X connect 62 0 35 0;
#X connect 62 1 35 1;
#X connect 63 0 62 0;
#X connect 64 0 52 1;
#X connect 64 0 69 5;
#X connect 65 0 77 0;
#X connect 65 1 60 0;
#X connect 66 0 69 0;
#X connect 67 0 68 1;
#X connect 68 0 58 0;
#X connect 69 0 68 0;
#X connect 70 0 71 0;
#X connect 71 0 69 8;
#X connect 72 0 70 1;
#X connect 72 0 69 9;
#X connect 72 1 67 0;
#X connect 73 0 45 0;
#X connect 73 1 46 0;
#X connect 73 2 49 0;
#X connect 73 3 74 0;
#X connect 74 0 72 0;
#X connect 75 0 47 0;
#X connect 75 1 48 0;
#X connect 75 2 49 0;
#X connect 75 3 76 0;
#X connect 76 0 72 0;
#X connect 77 0 69 7;
#X connect 77 0 53 1;
#X connect 79 0 77 0;
