#N canvas 507 29 499 366 10;
#X obj 180 27 r \$0.chord;
#X obj 180 50 route chordsym notes;
#X listbox 238 79 20 0 0 0 - - - 0;
#X obj 180 94 symbol;
#X symbolatom 180 122 18 0 0 0 - - - 0;
#X floatatom 245 173 5 0 0 0 - - - 0;
#X obj 243 211 mtof;
#X obj 243 234 osc~;
#X obj 250 276 *~;
#X obj 300 248 line~;
#X msg 294 218 1 \, 0 200;
#X obj 242 323 dac~;
#X obj 61 106 r bla;
#X obj 36 236 print;
#X obj 36 213 chord-pitch-range 66 90;
#X connect 0 0 1 0;
#X connect 1 0 3 0;
#X connect 1 1 2 0;
#X connect 3 0 4 0;
#X connect 5 0 6 0;
#X connect 5 0 10 0;
#X connect 6 0 7 0;
#X connect 7 0 8 0;
#X connect 8 0 11 0;
#X connect 8 0 11 1;
#X connect 9 0 8 1;
#X connect 10 0 9 0;
#X connect 12 0 14 0;
#X connect 14 0 13 0;
