#N canvas 1037 184 520 535 10;
#X obj 13 17 inlet;
#X obj 42 458 outlet;
#X obj 185 14 inlet;
#X obj 185 86 mod 12;
#X obj 185 59 t a a;
#X obj 231 86 div 12;
#X obj 170 159 <;
#X obj 225 14 loadbang;
#X obj 225 36 f \$1;
#X obj 368 16 inlet;
#X obj 368 88 mod 12;
#X obj 368 61 t a a;
#X obj 414 88 div 12;
#X obj 408 16 loadbang;
#X obj 408 38 f \$2;
#X obj 170 183 +;
#X obj 296 233 +;
#X obj 296 162 >=;
#X obj 296 188 * -1;
#X obj 170 217 pack f f;
#X obj 296 211 + 1;
#X obj 170 265 +;
#X obj 153 118 t a a a a, f 20;
#N canvas 2336 587 220 290 iter.oct 0;
#X obj 17 13 inlet;
#X obj 17 49 t a a;
#X obj 17 133 until;
#X obj 17 156 f;
#X obj 17 179 t a a;
#X obj 60 172 + 1;
#X msg 50 103 \$1;
#X obj 17 81 -;
#X obj 17 104 * -1;
#X obj 17 213 * 12;
#X obj 17 236 outlet;
#X connect 0 0 1 0;
#X connect 1 0 7 0;
#X connect 1 1 6 0;
#X connect 2 0 3 0;
#X connect 3 0 4 0;
#X connect 4 0 9 0;
#X connect 4 1 5 0;
#X connect 5 0 3 1;
#X connect 6 0 3 1;
#X connect 7 0 8 0;
#X connect 8 0 2 0;
#X connect 9 0 10 0;
#X restore 170 241 pd iter.oct;
#X obj 43 92 until;
#X obj 43 168 list store;
#X obj 43 117 f;
#X msg 83 89 0;
#X msg 43 142 get \$1 2;
#X obj 43 67 t b b a, f 14;
#X obj 81 118 + 2;
#X obj 43 194 unpack f f;
#X obj 13 40 t b a, f 17;
#X obj 170 306 pack f f;
#X obj 42 396 list store;
#X msg 170 332 append \$1 \$2;
#X obj 15 327 t b b;
#X obj 42 428 chord-sort-by-note;
#X connect 0 0 32 0;
#X connect 2 0 4 0;
#X connect 3 0 6 1;
#X connect 4 0 3 0;
#X connect 4 1 5 0;
#X connect 5 0 15 1;
#X connect 6 0 15 0;
#X connect 7 0 8 0;
#X connect 8 0 4 0;
#X connect 9 0 11 0;
#X connect 10 0 17 1;
#X connect 11 0 10 0;
#X connect 11 1 12 0;
#X connect 12 0 16 1;
#X connect 13 0 14 0;
#X connect 14 0 11 0;
#X connect 15 0 19 0;
#X connect 16 0 19 1;
#X connect 17 0 18 0;
#X connect 18 0 20 0;
#X connect 19 0 23 0;
#X connect 20 0 16 0;
#X connect 21 0 33 0;
#X connect 22 1 6 0;
#X connect 22 2 17 0;
#X connect 22 3 21 1;
#X connect 23 0 21 0;
#X connect 24 0 26 0;
#X connect 25 0 31 0;
#X connect 25 1 24 1;
#X connect 26 0 28 0;
#X connect 26 0 30 0;
#X connect 27 0 26 1;
#X connect 28 0 25 0;
#X connect 29 0 24 0;
#X connect 29 1 27 0;
#X connect 29 2 25 1;
#X connect 30 0 26 1;
#X connect 31 0 22 0;
#X connect 31 1 33 1;
#X connect 32 0 36 0;
#X connect 32 1 29 0;
#X connect 33 0 35 0;
#X connect 34 0 37 0;
#X connect 35 0 34 0;
#X connect 36 0 34 1;
#X connect 36 1 34 0;
#X connect 37 0 1 0;
