#N canvas 1037 184 636 621 10;
#X obj 13 16 inlet;
#X obj 77 548 outlet;
#X obj 336 135 pdcontrol;
#X obj 336 89 loadbang;
#X msg 336 112 args 0;
#X obj 336 189 rh_list_serialize;
#X obj 91 117 rh_list_serialize 2;
#X obj 13 39 route set;
#X obj 64 89 t b a;
#X obj 91 140 t a a, f 14;
#X msg 91 173 \$2;
#X obj 91 211 moses 2, f 10;
#X obj 148 235 moses 6, f 9;
#X obj 199 261 moses 9, f 9;
#X obj 91 363 spigot;
#X obj 148 363 spigot;
#X obj 199 363 spigot;
#X obj 250 363 spigot;
#X obj 336 161 t a b;
#X msg 363 254 0;
#X msg 124 339 1;
#X msg 181 339 1;
#X msg 232 339 1;
#X msg 283 339 1;
#X obj 91 403 b;
#X obj 91 431 list append, f 14;
#X obj 77 519 list store;
#X obj 64 487 t b b;
#X msg 91 464 append \$1 \$2;
#X obj 274 225 sel 1 3 5 7 9;
#X obj 295 313 moses 13, f 12;
#X obj 250 287 moses 12;
#X obj 364 360 spigot;
#X msg 397 336 1;
#X connect 0 0 7 0;
#X connect 2 0 18 0;
#X connect 3 0 4 0;
#X connect 4 0 2 0;
#X connect 5 0 29 0;
#X connect 6 0 9 0;
#X connect 7 0 18 0;
#X connect 7 1 8 0;
#X connect 8 0 27 0;
#X connect 8 1 6 0;
#X connect 9 0 10 0;
#X connect 9 1 25 1;
#X connect 10 0 11 0;
#X connect 11 0 14 0;
#X connect 11 1 12 0;
#X connect 12 0 15 0;
#X connect 12 1 13 0;
#X connect 13 0 16 0;
#X connect 13 1 31 0;
#X connect 14 0 24 0;
#X connect 15 0 24 0;
#X connect 16 0 24 0;
#X connect 17 0 24 0;
#X connect 18 0 5 0;
#X connect 18 1 19 0;
#X connect 19 0 17 1;
#X connect 19 0 16 1;
#X connect 19 0 15 1;
#X connect 19 0 14 1;
#X connect 19 0 32 1;
#X connect 20 0 14 1;
#X connect 21 0 15 1;
#X connect 22 0 16 1;
#X connect 23 0 17 1;
#X connect 24 0 25 0;
#X connect 25 0 28 0;
#X connect 26 0 1 0;
#X connect 27 0 26 1;
#X connect 27 1 26 0;
#X connect 28 0 26 0;
#X connect 29 0 20 0;
#X connect 29 1 21 0;
#X connect 29 2 22 0;
#X connect 29 3 23 0;
#X connect 29 4 33 0;
#X connect 30 1 32 0;
#X connect 31 0 17 0;
#X connect 31 1 30 0;
#X connect 32 0 24 0;
#X connect 33 0 32 1;
