#N canvas 646 60 863 246 10;
#X obj 20 20 cnv 15 140 130 empty empty empty 20 12 0 14 #e0e0e0 #404040
0;
#X obj 92 22 netpd-gui-vmenu \$0.fifth 20 18 12 0 888 888 555 888 888
;
#X obj 22 22 netpd-gui-vmenu \$0.key 14 18 12 0 888 888 555 888 888
;
#X obj 39 22 netpd-gui-vmenu \$0.shift 14 18 12 0 888 888 555 888 888
;
#X obj 56 22 netpd-gui-vmenu \$0.third 33 18 12 0 888 888 555 888 888
;
#X obj 115 22 netpd-gui-vmenu \$0.seventh 20 18 12 0 888 888 555 888
888;
#N canvas 340 285 955 424 label 0;
#X obj 16 37 r \$0.key;
#X obj 16 60 route selected;
#X obj 16 83 symbol;
#X obj 124 62 route selected;
#X obj 124 85 symbol;
#X obj 124 39 r \$0.shift;
#X obj 239 60 route selected;
#X obj 239 83 symbol;
#X obj 239 37 r \$0.third;
#X obj 565 72 route selected;
#X obj 565 95 symbol;
#X obj 565 49 r \$0.fifth;
#X obj 393 30 route selected;
#X obj 393 7 r \$0.seventh;
#X obj 124 107 sel _;
#X msg 124 130 symbol;
#X obj 124 153 t b a;
#X obj 239 106 sel M m sus2 sus;
#X msg 239 131 symbol;
#X msg 262 157 symbol m;
#X msg 285 131 symbol ˢᵘˢ²;
#X msg 308 182 symbol ˢᵘˢ;
#X obj 239 204 t b a;
#X obj 565 118 sel _ +5 -5;
#X msg 586 168 symbol ⁺⁵;
#X msg 607 144 symbol ⁻⁵;
#X msg 565 144 symbol;
#X obj 565 194 t b a;
#X msg 412 98 symbol Δ;
#X msg 393 119 symbol;
#X msg 441 178 symbol ⁻⁷;
#X msg 429 153 symbol ⁷;
#X msg 459 205 symbol ⁶;
#X obj 393 224 t b a;
#X msg 55 348 label \$1;
#X obj 55 374 s \$0.chord.label;
#X msg 168 350 label empty;
#X obj 397 335 loadbang;
#X msg 397 358 symbol;
#X obj 16 325 t a a;
#X obj 16 398 outlet;
#X obj 675 72 route selected;
#X obj 675 95 symbol;
#X msg 675 156 symbol;
#X obj 675 194 t b a;
#X msg 718 157 symbol ⁻⁹;
#X msg 780 157 symbol ⁹;
#X obj 675 49 r \$0.ninth;
#X obj 675 119 sel _;
#X obj 16 268 pack s s s s s s, f 91;
#X msg 16 302 symbol \$1\$2\$3\$4\$6\$5;
#X obj 641 361 print;
#X obj 393 74 sel _ Δ;
#X obj 438 122 sel 7 -7 6;
#X obj 481 97 float;
#X obj 393 53 symbol;
#X obj 749 122 sel -9 9;
#X obj 749 97 float;
#X connect 0 0 1 0;
#X connect 1 0 2 0;
#X connect 2 0 49 0;
#X connect 3 0 4 0;
#X connect 4 0 14 0;
#X connect 5 0 3 0;
#X connect 6 0 7 0;
#X connect 7 0 17 0;
#X connect 8 0 6 0;
#X connect 9 0 10 0;
#X connect 10 0 23 0;
#X connect 11 0 9 0;
#X connect 12 0 55 0;
#X connect 13 0 12 0;
#X connect 14 0 15 0;
#X connect 14 1 16 0;
#X connect 15 0 16 0;
#X connect 16 0 49 0;
#X connect 16 1 49 1;
#X connect 17 0 18 0;
#X connect 17 1 19 0;
#X connect 17 2 20 0;
#X connect 17 3 21 0;
#X connect 18 0 22 0;
#X connect 19 0 22 0;
#X connect 20 0 22 0;
#X connect 21 0 22 0;
#X connect 22 0 49 0;
#X connect 22 1 49 2;
#X connect 23 0 26 0;
#X connect 23 1 24 0;
#X connect 23 3 25 0;
#X connect 24 0 27 0;
#X connect 25 0 27 0;
#X connect 26 0 27 0;
#X connect 27 0 49 0;
#X connect 27 1 49 4;
#X connect 28 0 33 0;
#X connect 29 0 33 0;
#X connect 30 0 33 0;
#X connect 31 0 33 0;
#X connect 32 0 33 0;
#X connect 33 0 49 0;
#X connect 33 1 49 3;
#X connect 34 0 35 0;
#X connect 36 0 35 0;
#X connect 37 0 38 0;
#X connect 38 0 49 1;
#X connect 38 0 49 2;
#X connect 38 0 49 3;
#X connect 38 0 49 4;
#X connect 38 0 49 5;
#X connect 39 0 40 0;
#X connect 39 1 34 0;
#X connect 41 0 42 0;
#X connect 42 0 48 0;
#X connect 43 0 44 0;
#X connect 44 0 49 0;
#X connect 44 1 49 5;
#X connect 45 0 44 0;
#X connect 46 0 44 0;
#X connect 47 0 41 0;
#X connect 48 0 43 0;
#X connect 48 1 57 0;
#X connect 49 0 50 0;
#X connect 50 0 39 0;
#X connect 52 0 29 0;
#X connect 52 1 28 0;
#X connect 52 2 54 0;
#X connect 53 0 31 0;
#X connect 53 1 30 0;
#X connect 53 2 32 0;
#X connect 54 0 53 0;
#X connect 55 0 52 0;
#X connect 56 0 45 0;
#X connect 56 1 46 0;
#X connect 57 0 56 0;
#X restore 253 19 pd label;
#X obj 172 146 list trim;
#X obj 172 169 s \$1;
#X obj 172 123 list prepend chordsym;
#N canvas 0 0 319 88 NETPD 0;
#X msg 9 10 version 0 1 0;
#N canvas 0 0 351 68 abslist 0;
#X msg 32 14 chord-selector-help;
#X restore 14 42 pd abslist;
#X restore 323 20 pd NETPD 2 0;
#X obj 42 124 hsl 114 24 0 127 0 0 \$0.chord.confirm empty empty -2
-8 0 10 #fcfcfc #000000 #000000 0 1;
#X obj 39 124 cnv 15 119 24 empty \$0.chord.label empty 4 14 2 20 #ffffff
#000000 0;
#X obj 172 50 r \$0.chord.confirm;
#X obj 172 73 sel;
#X obj 201 74 t a;
#X obj 172 97 symbol, f 14;
#X obj 138 22 netpd-gui-vmenu \$0.ninth 20 18 12 0 888 888 555 888
888;
#X obj 460 77 pdcontrol;
#X msg 460 20 browse https://en.wikipedia.org/wiki/Chord_names_and_symbols_(popular_music)#Extended_tertian_chords
;
#N canvas 702 313 450 300 init.menus 0;
#X obj 23 18 loadbang;
#X msg 23 41 items _ +5 -5;
#X obj 23 64 s \$0.fifth;
#X obj 120 18 loadbang;
#X obj 120 64 s \$0.key;
#X msg 120 41 items C D E F G A B;
#X obj 23 102 loadbang;
#X msg 23 125 items _ ♯ ♭;
#X obj 23 148 s \$0.shift;
#X obj 125 100 loadbang;
#X obj 125 146 s \$0.third;
#X msg 125 123 items M m sus2 sus;
#X obj 23 184 loadbang;
#X obj 23 230 s \$0.seventh;
#X msg 23 207 items _ Δ 7 -7 6;
#X obj 149 188 loadbang;
#X obj 149 234 s \$0.ninth;
#X msg 149 211 items _ 9 -9;
#X connect 0 0 1 0;
#X connect 1 0 2 0;
#X connect 3 0 5 0;
#X connect 5 0 4 0;
#X connect 6 0 7 0;
#X connect 7 0 8 0;
#X connect 9 0 11 0;
#X connect 11 0 10 0;
#X connect 12 0 14 0;
#X connect 14 0 13 0;
#X connect 15 0 17 0;
#X connect 17 0 16 0;
#X restore 176 209 pd init.menus;
#X connect 6 0 16 1;
#X connect 7 0 8 0;
#X connect 9 0 7 0;
#X connect 13 0 14 0;
#X connect 14 0 16 0;
#X connect 14 1 15 0;
#X connect 15 0 14 1;
#X connect 16 0 9 0;
#X connect 19 0 18 0;
#X coords 0 -1 1 1 140 130 2 20 20;
