#N canvas 1037 184 451 472 10;
#X obj 13 16 inlet;
#X obj 77 412 outlet;
#X obj 336 135 pdcontrol;
#X obj 336 89 loadbang;
#X msg 336 112 args 0;
#X obj 91 252 rh_list_serialize;
#X obj 91 117 rh_list_serialize 2;
#X obj 13 39 route set;
#X obj 64 89 t b a;
#X obj 91 140 t a a, f 14;
#X msg 91 173 \$2;
#X obj 77 383 list store;
#X obj 64 351 t b b;
#X msg 91 327 append \$1 \$2;
#X obj 336 161 t a;
#X obj 91 199 t b a, f 8;
#X obj 91 225 list append;
#X obj 91 275 sel, f 8;
#X obj 91 300 list append, f 14;
#N canvas 1215 248 342 96 NETPD 0;
#X msg 16 14 version 0 1 0;
#N canvas 1198 442 391 66 abslist 0;
#X msg 16 7 chord-pick-help;
#X restore 17 44 pd abslist;
#X restore 345 425 pd NETPD 2 0;
#X connect 0 0 7 0;
#X connect 2 0 14 0;
#X connect 3 0 4 0;
#X connect 4 0 2 0;
#X connect 5 0 17 0;
#X connect 6 0 9 0;
#X connect 7 0 14 0;
#X connect 7 1 8 0;
#X connect 8 0 12 0;
#X connect 8 1 6 0;
#X connect 9 0 10 0;
#X connect 9 1 18 1;
#X connect 10 0 15 0;
#X connect 11 0 1 0;
#X connect 12 0 11 1;
#X connect 12 1 11 0;
#X connect 13 0 11 0;
#X connect 14 0 16 1;
#X connect 15 0 16 0;
#X connect 15 1 17 1;
#X connect 16 0 5 0;
#X connect 17 0 18 0;
#X connect 18 0 13 0;
