#N canvas 852 510 319 552 10;
#X obj 26 14 inlet;
#X obj 53 441 outlet;
#X obj 102 79 rh_list_unzip 2;
#X obj 102 125 rh_list_sort;
#X obj 102 152 rh_list_serialize 1;
#X obj 102 102 route 1;
#X obj 26 37 t b a a, f 26;
#X obj 102 201 list append, f 14;
#X obj 102 175 t b a, f 6;
#X obj 102 224 rh_list_serialize 2;
#X obj 102 247 t a a, f 11;
#X msg 102 270 \$2;
#X obj 102 293 sel, f 6;
#X obj 102 315 list append;
#X msg 102 338 append \$1 \$2;
#X obj 53 413 list store;
#X obj 26 375 t b b;
#X connect 0 0 6 0;
#X connect 2 0 5 0;
#X connect 3 0 4 0;
#X connect 4 0 8 0;
#X connect 5 0 3 0;
#X connect 6 0 16 0;
#X connect 6 1 2 0;
#X connect 6 2 7 1;
#X connect 7 0 9 0;
#X connect 8 0 7 0;
#X connect 8 1 12 1;
#X connect 9 0 10 0;
#X connect 10 0 11 0;
#X connect 10 1 13 1;
#X connect 11 0 12 0;
#X connect 12 0 13 0;
#X connect 13 0 14 0;
#X connect 14 0 15 0;
#X connect 15 0 1 0;
#X connect 16 0 15 1;
#X connect 16 1 15 0;
