#N canvas 718 128 398 229 10;
#X obj 23 68 metro 30;
#X obj 163 76 r click;
#X obj 163 98 route resize;
#X obj 163 120 + 1;
#X msg 163 142 resize \$1;
#X obj 121 27 table \$1.click;
#X obj 163 164 s \$1.click;
#X obj 23 26 r \$1.click.copy;
#X obj 23 90 t b b;
#X obj 23 161 tabwrite~ \$1.click;
#X obj 214 27 state.save.t \$1.click;
#X obj 50 136 tabplay~ click;
#N canvas 787 337 326 210 NETPD 0;
#X msg 14 12 version 0 0 1;
#N canvas 849 547 313 148 ablist 0;
#X msg 13 36 state.save.t;
#X restore 14 41 pd ablist;
#X restore 270 174 pd NETPD 2 0;
#X connect 0 0 8 0;
#X connect 1 0 2 0;
#X connect 2 0 3 0;
#X connect 3 0 4 0;
#X connect 4 0 6 0;
#X connect 7 0 0 0;
#X connect 8 0 9 0;
#X connect 8 1 11 0;
#X connect 11 0 9 0;
