#N canvas 290 100 502 452 10;
#X obj 30 20 inlet;
#X obj 30 40 s \$0.inlet;
#X obj 31 387 *~;
#X obj 175 323 tabread4~ \$2;
#X obj 33 237 vline~;
#X obj 174 297 *~ 512;
#X msg 33 209 0 \, 1 \$1;
#X obj 32 318 +~ 0;
#X obj 33 164 t a a;
#X msg 298 378 1;
#X obj 271 309 t a b;
#X obj 271 358 del;
#X obj 271 337 + 2;
#X msg 271 378 0;
#X obj 271 399 change;
#X obj 271 419 switch~;
#X obj 33 279 *~ 0;
#X obj 360 380 r \$0.outlet;
#X obj 360 400 outlet;
#X msg 317 336 stop;
#X obj 33 86 r \$0.trigger;
#N canvas 882 153 331 319 message.passing 0;
#X obj 15 32 inlet;
#X obj 87 74 r \$0.inlet;
#X obj 87 94 route trigger;
#X msg 42 98 1;
#X obj 15 59 t a b;
#X obj 15 78 del;
#X msg 15 98 0;
#X obj 87 140 f;
#X obj 106 239 s \$0.outlet;
#X obj 87 159 sel 0 1;
#X obj 87 282 s \$0.trigger;
#X obj 87 114 t b a;
#X obj 106 179 list append;
#X obj 106 199 list prepend trigger;
#X obj 106 219 list trim;
#X obj 87 260 list append;
#X connect 0 0 4 0;
#X connect 1 0 2 0;
#X connect 2 0 11 0;
#X connect 3 0 7 1;
#X connect 4 0 5 0;
#X connect 4 1 3 0;
#X connect 5 0 6 0;
#X connect 6 0 7 1;
#X connect 7 0 9 0;
#X connect 9 0 15 0;
#X connect 9 1 12 0;
#X connect 11 0 7 0;
#X connect 11 1 12 1;
#X connect 11 1 15 1;
#X connect 12 0 13 0;
#X connect 13 0 14 0;
#X connect 14 0 8 0;
#X connect 15 0 10 0;
#X restore 350 250 pd message.passing;
#X obj 31 353 tabread4~ \$1-l;
#X obj 31 417 throw~ \$3-l;
#X obj 124 390 *~;
#X obj 124 356 tabread4~ \$1-r;
#X obj 124 420 throw~ \$3-r;
#X obj 33 106 t a a;
#X msg 33 125 \$3;
#X obj 123 162 unpack f f f;
#X connect 0 0 1 0;
#X connect 2 0 23 0;
#X connect 3 0 2 1;
#X connect 3 0 24 1;
#X connect 4 0 5 0;
#X connect 4 0 16 0;
#X connect 5 0 3 0;
#X connect 6 0 4 0;
#X connect 7 0 22 0;
#X connect 7 0 25 0;
#X connect 8 0 6 0;
#X connect 8 1 10 0;
#X connect 8 1 21 0;
#X connect 9 0 14 0;
#X connect 10 0 12 0;
#X connect 10 1 9 0;
#X connect 10 1 19 0;
#X connect 11 0 13 0;
#X connect 12 0 11 0;
#X connect 13 0 14 0;
#X connect 14 0 15 0;
#X connect 16 0 7 0;
#X connect 17 0 18 0;
#X connect 19 0 11 0;
#X connect 20 0 27 0;
#X connect 22 0 2 0;
#X connect 24 0 26 0;
#X connect 25 0 24 0;
#X connect 27 0 28 0;
#X connect 27 1 29 0;
#X connect 28 0 8 0;
#X connect 29 0 7 1;
#X connect 29 1 16 1;
