#N canvas 768 56 621 413 10;
#X obj 17 28 inlet~;
#X obj 208 22 inlet~;
#X obj 13 280 outlet~;
#X obj 216 323 outlet~;
#N canvas 774 259 225 147 NETPD 0;
#X msg 24 13 version 0 0 1;
#X restore 320 20 pd NETPD 2 0;
#N canvas 759 419 303 52 \$3-dac 1;
#X obj 12 20 hradio 20 1 0 8 \$1-\$2/dac \$1-\$2/dac empty 0 -8 0 10
-228856 -1 -1 0;
#X text 21 5 1|;
#X text 41 5 2|;
#X text 61 5 3|;
#X text 81 5 4|;
#X text 101 5 5|;
#X text 121 5 6|;
#X text 141 5 7|;
#X text 161 5 8|;
#X text 182 24 D A C;
#X restore 245 116 pd \$3-dac;
#N canvas 768 446 364 340 dynamic_dac 0;
#X obj 17 28 inlet~;
#N canvas 0 44 450 300 \$0.dynamic 1;
#X restore 15 101 pd \$0.dynamic;
#X obj 17 50 send~ \$0.dac;
#X connect 0 0 2 0;
#X restore 33 135 pd dynamic_dac;
#X obj 243 143 netpd_f \$1 \$2/dac 0;
#X obj 243 285 s pd-\$0.dynamic;
#X obj 243 220 list prepend \$0;
#X obj 243 195 + 1;
#X obj 243 165 t a b;
#X msg 280 188 clear;
#X msg 243 244 obj 20 20 receive~ \$1.dac \, obj 20 40 dac~ \$2 \,
connect 0 0 1 0;
#X connect 0 0 6 0;
#X connect 7 0 11 0;
#X connect 9 0 13 0;
#X connect 10 0 9 0;
#X connect 11 0 10 0;
#X connect 11 1 12 0;
#X connect 12 0 8 0;
#X connect 13 0 8 0;
