#N canvas 336 118 756 360 10;
#X text 11 10 == KICK ===========================;
#X text 241 10 == SNARE ===========================;
#X text 474 10 == HIHAT ===========================;
#N canvas 584 206 258 125 NETPD 0;
#X msg 15 8 version 0 0 1;
#N canvas 794 260 314 78 abslist 0;
#X msg 14 11 drum-delta-ctl-param;
#X restore 15 37 pd abslist;
#X restore 15 257 pd NETPD 2 0;
#X obj 9 35 drum-delta-ctl-param \$1 \$2 kick afq;
#X obj 9 55 drum-delta-ctl-param \$1 \$2 kick efq;
#X obj 9 75 drum-delta-ctl-param \$1 \$2 kick tim;
#X obj 9 95 drum-delta-ctl-param \$1 \$2 kick att;
#X obj 9 115 drum-delta-ctl-param \$1 \$2 kick dec;
#X obj 9 135 drum-delta-ctl-param \$1 \$2 kick cur;
#X obj 9 155 drum-delta-ctl-param \$1 \$2 kick dis;
#X obj 9 175 drum-delta-ctl-param \$1 \$2 kick lop;
#X obj 9 195 drum-delta-ctl-param \$1 \$2 kick vol;
#X obj 239 35 drum-delta-ctl-param \$1 \$2 snare tun;
#X obj 239 55 drum-delta-ctl-param \$1 \$2 snare nos;
#X obj 239 74 drum-delta-ctl-param \$1 \$2 snare mix;
#X obj 239 95 drum-delta-ctl-param \$1 \$2 snare dec;
#X obj 239 115 drum-delta-ctl-param \$1 \$2 snare pan;
#X obj 239 135 drum-delta-ctl-param \$1 \$2 snare vol;
#X obj 472 35 drum-delta-ctl-param \$1 \$2 hihat vol;
#X obj 472 55 drum-delta-ctl-param \$1 \$2 hihat crh;
#X obj 472 75 drum-delta-ctl-param \$1 \$2 hihat dec;
#X obj 472 95 drum-delta-ctl-param \$1 \$2 hihat pan;
