#N canvas 447 53 503 429 10;
#N canvas 659 72 327 81 NETPD 0;
#X msg 15 16 version 0 1 0;
#X restore 374 372 pd NETPD 2 0;
#X obj 19 38 bng 15 250 50 0 empty empty empty 17 7 0 10 #fcfcfc #000000 #000000;
#X text 334 402 2018 \, Roman Haefeli;
#X obj 49 97 rh_impulse~;
#X obj 49 119 *~ 0.7;
#X obj 48 222 tabwrite~ \$0.graph1;
#X text 285 54 inlet0: signal;
#X obj 70 193 tabwrite~ \$0.graph2;
#X obj 19 170 t b;
#N canvas 0 50 450 250 (subpatch) 0;
#X array \$0.graph1 300 float 0;
#X coords 0 1 300 0 300 50 1 0 0;
#X restore 24 314 graph;
#N canvas 0 50 450 250 (subpatch) 0;
#X array \$0.graph2 300 float 0;
#X coords 0 1 300 0 300 50 1 0 0;
#X restore 24 364 graph;
#X obj 49 70 del 0.5;
#X text 279 114 outlet0: signal envelope;
#X obj 72 145 dynlib_peakenvelope~;
#X text 285 74 inlet1: decay (log) (rt60 samples);
#X text 285 94 inlet1: decay (lin) (samples);
#X floatatom 130 69 7 0 0 0 - - - 0;
#X floatatom 189 112 7 0 0 0 - - - 0;
#X text 236 114 log;
#X text 177 71 lin;
#X text 120 257 NOTE: you can disable either log or linear decay by setting its value to 0;
#X text 16 13 [dynlib_peakenvelope~] - follows peaks and decays slowly;
#X connect 1 0 8 0;
#X connect 1 0 11 0;
#X connect 3 0 4 0;
#X connect 4 0 5 0;
#X connect 4 0 13 0;
#X connect 8 0 7 0;
#X connect 8 0 5 0;
#X connect 11 0 3 0;
#X connect 13 0 7 0;
#X connect 16 0 13 1;
#X connect 17 0 13 2;
