#N canvas 447 53 626 479 10;
#N canvas 659 72 327 81 NETPD 0;
#X msg 15 16 version 0 1 0;
#X restore 533 424 pd NETPD 2 0;
#X text 493 454 2018 \, Roman Haefeli;
#X text 409 30 inlet0: audio-in left;
#X text 409 50 inlet1: audio-in right;
#X text 403 170 outlet0: audio-out left;
#X text 403 190 outlet1: audio-out right;
#X floatatom 196 275 5 -20 20 0 - - -, f 5;
#X obj 29 375 dac~;
#X obj 29 342 *~ 0.2;
#X obj 70 348 *~ 0.2;
#X obj 30 58 osc~ 200;
#X obj 85 58 osc~ 201;
#X obj 94 129 *~;
#X text 403 210 outlet2: reduction (dB);
#X obj 156 47 tgl 15 0 empty empty empty 17 7 0 10 -261234 -1 -1 0
1;
#X msg 156 87 \$1 2;
#X obj 156 108 line~;
#X obj 154 132 loadbang;
#X obj 94 108 osc~ 98;
#X obj 155 341 vsl 15 40 -30 0 0 0 empty empty empty 0 -9 0 10 -262130
-1 -1 3629 1;
#X text 168 333 - 0 dB;
#X text 168 373 - -30 dB;
#X text 179 46 add loud signal;
#X obj 30 79 *~ 0.5;
#X obj 86 81 *~ 0.5;
#X text 39 97 -6dB;
#X text 16 13 [dynlib_compressor~] - stereo dynamic range compressor
;
#X obj 30 299 dynlib_compressor~ . . . . .;
#X text 409 110 inlet4: attack (ms);
#X text 409 130 inlet5: release (ms);
#X text 409 90 inlet3: threshold (dB);
#X text 409 70 inlet2: ratio (1/r);
#X floatatom 85 178 5 1 10 0 - - -, f 5;
#X text 122 178 ratio;
#X floatatom 112 203 5 -30 0 0 - - -, f 5;
#X text 150 203 threshold (dB);
#X floatatom 140 227 5 0 0 0 - - -, f 5;
#X text 176 226 attack (ms);
#X floatatom 167 249 5 0 0 0 - - -, f 5;
#X text 199 249 release (ms);
#X msg 191 170 -6;
#X msg 227 170 20;
#X msg 261 169 160;
#X obj 156 66 * 2;
#X msg 154 153 2;
#X text 231 272 makeup gain (dB);
#X text 240 299 This is a traditional compressor. Signals above the
threshold will be gain reduced depending on the configured ratio setting.
The attack sets the time the compressor needs to adjust to input levels
exceeding the threshold. The release defines the time to restore normal
level when the signal falls below threshold. Signals below threshold
will pass the compressor unaltered.;
#X text 409 150 inlet6: makeup gain (dB);
#X connect 6 0 27 6;
#X connect 8 0 7 0;
#X connect 9 0 7 1;
#X connect 10 0 23 0;
#X connect 11 0 24 0;
#X connect 12 0 27 0;
#X connect 14 0 43 0;
#X connect 15 0 16 0;
#X connect 16 0 12 1;
#X connect 17 0 44 0;
#X connect 17 0 40 0;
#X connect 17 0 41 0;
#X connect 17 0 42 0;
#X connect 18 0 12 0;
#X connect 23 0 27 0;
#X connect 24 0 27 1;
#X connect 27 0 8 0;
#X connect 27 1 9 0;
#X connect 27 2 19 0;
#X connect 32 0 27 2;
#X connect 34 0 27 3;
#X connect 36 0 27 4;
#X connect 38 0 27 5;
#X connect 40 0 34 0;
#X connect 41 0 36 0;
#X connect 42 0 38 0;
#X connect 43 0 15 0;
#X connect 44 0 32 0;
