#N canvas 165 182 518 391 10;
#N canvas 724 648 155 121 NETPD 0;
#N canvas 589 328 236 183 abslist 0;
#X msg 10 11 roman_helpers;
#X msg 10 32 dynlib_attackrelease_fexpr;
#X msg 10 76 dynlib_attackrelease_vcf;
#X msg 10 54 dynlib_attackrelease_rpole;
#X restore 11 34 pd abslist;
#X msg 11 7 version 0 1 1;
#X restore 420 20 pd NETPD 2 0;
#X obj 7 271 *~;
#N canvas 283 384 336 370 amp-factor 0;
#X obj 19 22 inlet~;
#X obj 84 23 inlet;
#X text 120 23 Ratio;
#X obj 168 26 inlet;
#X text 204 26 Threshold;
#X obj 200 54 loadbang;
#X msg 200 78 100;
#X obj 200 145 sig~;
#X obj 155 161 -~;
#X obj 155 184 max~ 0;
#X obj 142 262 -~;
#X obj 142 316 dbtorms~;
#X obj 142 341 outlet~;
#X obj 111 113 - 1;
#X obj 84 156 /;
#X obj 19 68 rmstodb~;
#X text 18 4 Signal;
#X text 189 340 Factor in RMS;
#X obj 19 45 rh_abs~;
#X obj 84 45 t a a;
#X obj 156 212 /~ 0;
#X obj 168 134 + 0;
#X connect 0 0 18 0;
#X connect 1 0 19 0;
#X connect 3 0 21 0;
#X connect 5 0 6 0;
#X connect 6 0 7 0;
#X connect 6 0 21 1;
#X connect 7 0 10 0;
#X connect 8 0 9 0;
#X connect 9 0 20 0;
#X connect 10 0 11 0;
#X connect 11 0 12 0;
#X connect 13 0 14 1;
#X connect 14 0 20 1;
#X connect 15 0 8 0;
#X connect 18 0 15 0;
#X connect 19 0 14 0;
#X connect 19 1 13 0;
#X connect 20 0 10 1;
#X connect 21 0 8 1;
#X restore 143 109 pd amp-factor;
#X obj 7 31 inlet~;
#X obj 7 350 outlet~;
#X obj 180 24 inlet ratio;
#X obj 218 50 inlet threshold;
#X obj 265 132 inlet attack;
#X obj 353 131 inlet release;
#X obj 124 249 inlet gain;
#X obj 124 270 + 100;
#X obj 124 292 dbtorms;
#X obj 64 271 *~;
#X obj 63 34 inlet~;
#X obj 64 350 outlet~;
#X text 151 72 -3dB;
#X obj 327 337 outlet;
#X obj 327 312 env~ 4096;
#X obj 218 82 - 2.5;
#X text 268 70 some correction;
#X text 267 81 why?;
#X text 267 96 this was found by comparing to;
#X text 268 106 C1 from Waves;
#X obj 80 71 *~ 0.707107;
#X obj 144 178 dynlib_attackrelease_rpole;
#X obj 78 230 *~ 1;
#X connect 1 0 4 0;
#X connect 2 0 24 0;
#X connect 3 0 1 0;
#X connect 3 0 23 0;
#X connect 5 0 2 1;
#X connect 6 0 18 0;
#X connect 7 0 24 1;
#X connect 8 0 24 2;
#X connect 9 0 10 0;
#X connect 10 0 11 0;
#X connect 11 0 25 1;
#X connect 12 0 14 0;
#X connect 13 0 12 0;
#X connect 13 0 23 0;
#X connect 17 0 16 0;
#X connect 18 0 2 2;
#X connect 23 0 2 0;
#X connect 24 0 17 0;
#X connect 24 0 25 0;
#X connect 25 0 1 1;
#X connect 25 0 12 1;
