#N canvas 165 182 507 378 10;
#N canvas 724 536 155 121 NETPD 0;
#N canvas 589 272 162 53 abslist 0;
#X msg 10 11 roman_helpers;
#X restore 11 34 pd abslist;
#X msg 11 7 version 0 1 0;
#X restore 420 20 pd NETPD 2 0;
#X obj 7 271 *~;
#N canvas 283 384 336 370 amp-factor 0;
#X obj 19 22 inlet~;
#X obj 84 23 inlet;
#X text 120 23 Ratio;
#X obj 168 26 inlet;
#X text 204 26 Threshold;
#X obj 200 54 loadbang;
#X msg 200 78 100;
#X obj 200 145 sig~;
#X obj 155 161 -~;
#X obj 155 184 max~ 0;
#X obj 142 262 -~;
#X obj 142 316 dbtorms~;
#X obj 142 341 outlet~;
#X obj 111 113 - 1;
#X obj 84 156 /;
#X obj 19 68 rmstodb~;
#X text 18 4 Signal;
#X text 189 340 Factor in RMS;
#X obj 19 45 rh_abs~;
#X obj 84 45 t a a;
#X obj 156 212 /~ 0;
#X obj 168 134 + 0;
#X connect 0 0 18 0;
#X connect 1 0 19 0;
#X connect 3 0 21 0;
#X connect 5 0 6 0;
#X connect 6 0 7 0;
#X connect 6 0 21 1;
#X connect 7 0 10 0;
#X connect 8 0 9 0;
#X connect 9 0 20 0;
#X connect 10 0 11 0;
#X connect 11 0 12 0;
#X connect 13 0 14 1;
#X connect 14 0 20 1;
#X connect 15 0 8 0;
#X connect 18 0 15 0;
#X connect 19 0 14 0;
#X connect 19 1 13 0;
#X connect 20 0 10 1;
#X connect 21 0 8 1;
#X restore 143 109 pd amp-factor;
#X obj 7 31 inlet~;
#X obj 7 350 outlet~;
#X obj 180 24 inlet ratio;
#X obj 218 50 inlet threshold;
#X obj 294 25 inlet attack;
#X obj 333 47 inlet release;
#X obj 120 232 inlet gain;
#X obj 120 253 + 100;
#X obj 120 275 dbtorms;
#X obj 200 212 loadbang;
#X obj 64 271 *~;
#X obj 78 230 *~;
#X obj 63 34 inlet~;
#X obj 64 350 outlet~;
#X text 151 72 -3dB;
#N canvas 596 477 506 356 att-rel-filtering 0;
#X obj 22 26 inlet~;
#X obj 22 275 outlet~;
#X obj 172 26 inlet;
#X obj 324 28 inlet;
#X obj 324 175 /;
#X obj 21 199 fexpr~ if($y1[-1]>$x1 \, $y1[-1]-(($y1[-1]-$x1)*$f2)
\, $y1[-1]+(($x1-$y1[-1])*$f3));
#X obj 324 77 / 1000;
#X obj 324 109 * 44100;
#X obj 403 62 loadbang;
#X obj 403 84 samplerate~;
#X obj 172 172 /;
#X obj 172 74 / 1000;
#X obj 172 106 * 44100;
#X obj 172 128 max 1.8;
#X msg 172 151 1.8 \$1;
#X obj 324 131 max 1.8;
#X msg 324 153 1.8 \$1;
#X connect 0 0 5 0;
#X connect 2 0 11 0;
#X connect 3 0 6 0;
#X connect 4 0 5 2;
#X connect 5 0 1 0;
#X connect 6 0 7 0;
#X connect 7 0 15 0;
#X connect 8 0 9 0;
#X connect 8 0 13 0;
#X connect 8 0 15 0;
#X connect 9 0 7 1;
#X connect 9 0 12 1;
#X connect 10 0 5 1;
#X connect 11 0 12 0;
#X connect 12 0 13 0;
#X connect 13 0 14 0;
#X connect 14 0 10 0;
#X connect 15 0 16 0;
#X connect 16 0 4 0;
#X restore 143 148 pd att-rel-filtering;
#X obj 200 232 0;
#X obj 327 337 outlet;
#X obj 327 312 env~ 4096;
#X obj 218 82 - 2.5;
#X text 261 77 some correction;
#X text 260 88 why?;
#X text 260 103 this was found by comparing to;
#X text 261 113 C1 from Waves;
#X obj 80 71 *~ 0.707107;
#X connect 1 0 4 0;
#X connect 2 0 18 0;
#X connect 3 0 1 0;
#X connect 3 0 27 0;
#X connect 5 0 2 1;
#X connect 6 0 22 0;
#X connect 7 0 18 1;
#X connect 8 0 18 2;
#X connect 9 0 10 0;
#X connect 10 0 11 0;
#X connect 11 0 14 1;
#X connect 12 0 19 0;
#X connect 13 0 16 0;
#X connect 14 0 1 1;
#X connect 14 0 13 1;
#X connect 15 0 13 0;
#X connect 15 0 27 0;
#X connect 18 0 14 0;
#X connect 18 0 21 0;
#X connect 19 0 10 0;
#X connect 21 0 20 0;
#X connect 22 0 2 2;
#X connect 27 0 2 0;
