#N canvas 713 90 426 287 10;
#X obj 27 24 inlet~;
#X obj 118 44 inlet;
#X obj 242 47 inlet;
#X obj 27 265 outlet~;
#X obj 270 228 block~ 1;
#X obj 27 174 max~;
#X obj 48 232 delwrite~ \$0.peak.envelope 2;
#X obj 94 24 delread~ \$0.peak.envelope 0;
#X obj 94 144 -~ 0;
#N canvas 1012 185 255 85 NETPD 0;
#X msg 13 21 version 0 1 0;
#N canvas 981 140 335 85 abslist 0;
#X msg 22 17 dynlib_peakenvelope~-help;
#X restore 16 49 pd abslist;
#X restore 254 207 pd NETPD 2 0;
#N canvas 0 134 284 252 rt60 0;
#X obj 87 21 loadbang;
#X msg 87 42 0.001;
#X obj 87 63 log;
#X obj 18 118 /;
#X obj 18 26 inlet;
#X obj 18 139 exp;
#X obj 18 160 outlet;
#X obj 18 97 list prepend;
#X connect 0 0 1 0;
#X connect 1 0 2 0;
#X connect 2 0 7 1;
#X connect 3 0 5 0;
#X connect 4 0 7 0;
#X connect 5 0 6 0;
#X connect 7 0 3 0;
#X restore 242 72 pd rt60;
#X msg 157 89 1 \$1;
#X obj 157 110 /;
#X obj 242 108 max 0.33;
#X obj 93 172 *~ 0.33;
#X obj 118 65 moses 1;
#X obj 118 86 sel 0;
#X msg 118 109 0;
#X connect 0 0 5 0;
#X connect 1 0 15 0;
#X connect 2 0 10 0;
#X connect 5 0 3 0;
#X connect 5 0 6 0;
#X connect 7 0 8 0;
#X connect 8 0 14 0;
#X connect 10 0 13 0;
#X connect 11 0 12 0;
#X connect 12 0 8 1;
#X connect 13 0 14 1;
#X connect 14 0 5 1;
#X connect 15 0 16 0;
#X connect 15 1 11 0;
#X connect 16 0 17 0;
#X connect 17 0 8 1;
