#N canvas 729 101 717 470 10;
#N canvas 724 729 155 121 NETPD 0;
#N canvas 589 436 226 168 abslist 0;
#X msg 15 11 dynlib_agc~-help;
#X restore 11 34 pd abslist;
#X msg 11 7 version 0 1 0;
#X restore 612 13 pd NETPD 2 0;
#X obj 7 411 *~;
#X obj 7 31 inlet~;
#X obj 7 440 outlet~;
#X obj 278 77 inlet attack;
#X obj 410 127 inlet release;
#X obj 64 411 *~;
#X obj 63 34 inlet~;
#X obj 64 440 outlet~;
#X obj 298 440 outlet;
#X obj 555 263 loadbang;
#X obj 555 298 samplerate~;
#X msg 555 319 \$1 1000;
#X obj 555 340 /;
#X text 625 372 samples;
#X obj 555 369 s \$0.s/ms;
#X obj 97 118 max;
#X obj 97 166 - 100;
#X obj 320 102 inlet hold;
#N canvas 1064 677 273 373 inertia 0;
#X msg 96 111 0;
#X obj 15 140 f;
#X obj 55 141 + 1;
#X obj 69 85 t a b;
#X obj 15 248 f;
#X obj 15 12 inlet;
#X obj 15 313 outlet;
#X obj 15 37 t b a;
#X obj 42 61 moses;
#X obj 15 270 t a a;
#X obj 139 196 t a;
#X obj 15 175 t b a;
#N canvas 590 733 261 233 magic 0;
#X obj 26 17 inlet;
#X obj 26 179 outlet;
#X msg 26 112 1 \$1;
#X obj 26 134 -;
#X obj 26 62 max 0;
#X obj 26 88 * 0.002;
#X obj 26 158 max 0.9999;
#X obj 26 41 - 800;
#X obj 119 17 inlet;
#X obj 180 21 inlet;
#X connect 0 0 7 0;
#X connect 2 0 3 0;
#X connect 3 0 6 0;
#X connect 4 0 5 0;
#X connect 5 0 2 0;
#X connect 6 0 1 0;
#X connect 7 0 4 0;
#X connect 8 0 7 1;
#X connect 9 0 6 1;
#X restore 54 205 pd magic;
#X obj 49 249 * 0.9999;
#X obj 127 22 inlet;
#X obj 202 23 inlet;
#X connect 0 0 1 1;
#X connect 1 0 2 0;
#X connect 1 0 11 0;
#X connect 2 0 1 1;
#X connect 3 0 4 1;
#X connect 3 1 0 0;
#X connect 4 0 9 0;
#X connect 4 0 13 0;
#X connect 5 0 7 0;
#X connect 7 0 1 0;
#X connect 7 1 8 0;
#X connect 8 1 3 0;
#X connect 9 0 6 0;
#X connect 9 1 10 0;
#X connect 10 0 8 1;
#X connect 11 0 4 0;
#X connect 11 1 12 0;
#X connect 12 0 13 1;
#X connect 13 0 4 1;
#X connect 14 0 12 1;
#X connect 15 0 12 2;
#X restore 97 145 pd inertia;
#X obj 335 170 r \$0.s/ms;
#X obj 320 195 *;
#X obj 112 67 env~ 2048 1024;
#X obj 97 91 env~ 2048 1024;
#X obj 320 218 / 1024;
#X obj 229 48 inlet maxgain;
#X obj 194 20 inlet limit;
#N canvas 906 101 339 317 release_factor 1;
#X obj 105 77 /;
#X obj 105 12 loadbang;
#X obj 105 99 * 1024;
#X obj 105 35 samplerate~;
#X msg 105 57 1000 \$1;
#X obj 11 129 /;
#X msg 11 154 0.5 \$1;
#X obj 11 175 /;
#X obj 11 198 - 1;
#X obj 11 219 * -1;
#X obj 11 99 inlet;
#X obj 11 241 outlet;
#X connect 0 0 2 0;
#X connect 1 0 3 0;
#X connect 2 0 5 1;
#X connect 3 0 4 0;
#X connect 4 0 0 0;
#X connect 5 0 6 0;
#X connect 6 0 7 0;
#X connect 7 0 8 0;
#X connect 8 0 9 0;
#X connect 9 0 11 0;
#X connect 10 0 5 0;
#X restore 410 190 pd release_factor;
#X text 481 14 2018 \, Roman Haefeli;
#X text 496 127 6dB/period in ms;
#N canvas 906 128 276 309 attack_factor 0;
#X obj 105 77 /;
#X obj 105 12 loadbang;
#X obj 105 99 * 1024;
#X obj 105 35 samplerate~;
#X msg 105 57 1000 \$1;
#X obj 11 129 /;
#X obj 11 99 inlet;
#X obj 11 195 outlet;
#N canvas 0 215 284 252 rt40 0;
#X obj 87 21 loadbang;
#X obj 87 63 log;
#X obj 18 118 /;
#X obj 18 26 inlet;
#X obj 18 139 exp;
#X obj 18 160 outlet;
#X obj 18 97 list prepend;
#X msg 87 42 0.01;
#X connect 0 0 7 0;
#X connect 1 0 6 1;
#X connect 2 0 4 0;
#X connect 3 0 6 0;
#X connect 4 0 5 0;
#X connect 6 0 2 0;
#X connect 7 0 1 0;
#X restore 11 166 pd rt40;
#X connect 0 0 2 0;
#X connect 1 0 3 0;
#X connect 2 0 5 1;
#X connect 3 0 4 0;
#X connect 4 0 0 0;
#X connect 5 0 8 0;
#X connect 6 0 5 0;
#X connect 8 0 7 0;
#X restore 278 245 pd attack_factor;
#N canvas 279 203 333 219 lp1p 0;
#X obj 20 9 inlet;
#X obj 101 10 inlet;
#X obj 20 97 *;
#X obj 113 129 *;
#X obj 20 123 +;
#X obj 20 144 t a a;
#X obj 101 31 t a a;
#X obj 101 57 - 1;
#X obj 101 78 * -1;
#X obj 20 170 outlet;
#X connect 0 0 2 0;
#X connect 1 0 6 0;
#X connect 2 0 4 0;
#X connect 3 0 4 1;
#X connect 4 0 5 0;
#X connect 5 0 9 0;
#X connect 5 1 3 0;
#X connect 6 0 7 0;
#X connect 6 1 3 1;
#X connect 7 0 8 0;
#X connect 8 0 2 1;
#X restore 97 280 pd lp1p;
#X obj 97 187 * -1;
#X obj 97 212 - 3;
#X obj 97 257 min;
#X text 124 214 dB (headroom);
#X obj 97 323 + 100;
#X obj 97 344 dbtorms;
#X msg 97 367 \$1 40;
#X obj 97 388 line~;
#X obj 97 234 -;
#X text 269 19 target amplitude;
#X text 391 102 ms (time to stay on current amp level);
#X text 361 76 ms (time to react on sudden volume increase);
#X text 319 47 dB (maximum amplification);
#X obj 97 301 t a a;
#X connect 1 0 3 0;
#X connect 2 0 1 0;
#X connect 2 0 23 0;
#X connect 4 0 30 0;
#X connect 5 0 27 0;
#X connect 6 0 8 0;
#X connect 7 0 6 0;
#X connect 7 0 22 0;
#X connect 10 0 11 0;
#X connect 11 0 12 0;
#X connect 12 0 13 0;
#X connect 13 0 15 0;
#X connect 16 0 19 0;
#X connect 17 0 32 0;
#X connect 18 0 21 0;
#X connect 19 0 17 0;
#X connect 20 0 21 1;
#X connect 21 0 24 0;
#X connect 22 0 16 1;
#X connect 23 0 16 0;
#X connect 24 0 19 1;
#X connect 25 0 34 1;
#X connect 26 0 40 1;
#X connect 27 0 19 2;
#X connect 30 0 31 1;
#X connect 31 0 45 0;
#X connect 32 0 33 0;
#X connect 33 0 40 0;
#X connect 34 0 31 0;
#X connect 36 0 37 0;
#X connect 37 0 38 0;
#X connect 38 0 39 0;
#X connect 39 0 6 0;
#X connect 39 0 1 1;
#X connect 40 0 34 0;
#X connect 45 0 36 0;
#X connect 45 1 9 0;
