#N canvas 165 182 584 425 10;
#N canvas 724 729 155 121 NETPD 0;
#N canvas 589 409 226 168 abslist 0;
#X msg 15 11 dynlib_compressor~-help;
#X restore 11 34 pd abslist;
#X msg 11 7 version 0 1 4;
#X restore 475 15 pd NETPD 2 0;
#X obj 7 271 *~;
#N canvas 283 384 336 370 amp-factor 0;
#X obj 19 22 inlet~;
#X obj 84 23 inlet;
#X text 120 23 Ratio;
#X obj 168 26 inlet;
#X text 204 26 Threshold;
#X obj 200 54 loadbang;
#X msg 200 78 100;
#X obj 200 145 sig~;
#X obj 155 161 -~;
#X obj 155 184 max~ 0;
#X obj 142 262 -~;
#X obj 142 316 dbtorms~;
#X obj 142 341 outlet~;
#X obj 111 113 - 1;
#X obj 84 156 /;
#X obj 18 111 rmstodb~;
#X text 18 4 Signal;
#X text 189 340 Factor in RMS;
#X obj 84 45 t a a;
#X obj 156 212 /~ 0;
#X obj 168 134 + 0;
#X connect 0 0 15 0;
#X connect 1 0 18 0;
#X connect 3 0 20 0;
#X connect 5 0 6 0;
#X connect 6 0 7 0;
#X connect 6 0 20 1;
#X connect 7 0 10 0;
#X connect 8 0 9 0;
#X connect 9 0 19 0;
#X connect 10 0 11 0;
#X connect 11 0 12 0;
#X connect 13 0 14 1;
#X connect 14 0 19 1;
#X connect 15 0 8 0;
#X connect 18 0 14 0;
#X connect 18 1 13 0;
#X connect 19 0 10 1;
#X connect 20 0 8 1;
#X restore 143 109 pd amp-factor;
#X obj 7 31 inlet~;
#X obj 7 350 outlet~;
#X obj 124 290 + 100;
#X obj 124 312 dbtorms;
#X obj 64 271 *~;
#X obj 63 34 inlet~;
#X obj 64 350 outlet~;
#X obj 214 355 outlet;
#X obj 214 292 env~ 4096;
#X obj 218 82 - 2.5;
#X text 268 70 some correction;
#X text 267 81 why?;
#X text 267 96 this was found by comparing to;
#X text 268 106 C1 from Waves;
#X obj 78 230 *~ 1;
#X obj 144 198 dynlib_twophaseenvelope~;
#X obj 214 313 - 100;
#X obj 372 295 loadbang;
#X obj 372 316 samplerate~;
#X msg 372 337 \$1 1000;
#X obj 372 358 /;
#X text 442 390 samples;
#X obj 372 387 s \$0.s/ms;
#X obj 214 176 *;
#X obj 328 184 r \$0.s/ms;
#X obj 285 176 *;
#X obj 471 64 inlet;
#X obj 471 85 s \$0.inlet;
#X obj 180 16 r \$0.inlet;
#X obj 180 38 route ratio;
#X obj 255 22 r \$0.inlet;
#X obj 255 44 route threshold;
#X obj 214 130 r \$0.inlet;
#X obj 298 126 r \$0.inlet;
#X obj 214 153 route attack;
#X obj 298 148 route release;
#X obj 124 247 r \$0.inlet;
#X obj 124 268 route gain;
#X obj 19 68 *~;
#X obj 18 90 sqrt~;
#X obj 79 68 *~;
#X obj 78 90 sqrt~;
#X obj 35 125 max~;
#X connect 1 0 4 0;
#X connect 2 0 18 0;
#X connect 3 0 1 0;
#X connect 3 0 41 0;
#X connect 3 0 41 1;
#X connect 5 0 6 0;
#X connect 6 0 17 1;
#X connect 7 0 9 0;
#X connect 8 0 7 0;
#X connect 8 0 43 0;
#X connect 8 0 43 1;
#X connect 11 0 19 0;
#X connect 12 0 2 2;
#X connect 17 0 1 1;
#X connect 17 0 7 1;
#X connect 18 0 11 0;
#X connect 18 0 17 0;
#X connect 19 0 10 0;
#X connect 20 0 21 0;
#X connect 21 0 22 0;
#X connect 22 0 23 0;
#X connect 23 0 25 0;
#X connect 26 0 18 1;
#X connect 27 0 28 1;
#X connect 27 0 26 1;
#X connect 28 0 18 2;
#X connect 29 0 30 0;
#X connect 31 0 32 0;
#X connect 32 0 2 1;
#X connect 33 0 34 0;
#X connect 34 0 12 0;
#X connect 35 0 37 0;
#X connect 36 0 38 0;
#X connect 37 0 26 0;
#X connect 38 0 28 0;
#X connect 39 0 40 0;
#X connect 40 0 5 0;
#X connect 41 0 42 0;
#X connect 42 0 45 0;
#X connect 43 0 44 0;
#X connect 44 0 45 1;
#X connect 45 0 2 0;
