#N canvas 782 241 442 373 10;
#X declare -path iemlib -lib iemlib;
#N canvas 366 362 832 288 frequenzweiche 0;
#X obj 36 69 inlet~;
#X obj 209 72 * 1.25;
#X obj 439 69 * 1.25;
#X obj 635 64 * 1.25;
#X obj 209 46 inlet;
#X obj 439 41 inlet;
#X obj 635 36 inlet;
#X obj 37 229 outlet~;
#X obj 228 231 outlet~;
#X obj 429 226 outlet~;
#X obj 639 223 outlet~;
#X obj 37 131 lp4_butt~ 3000 200;
#X obj 228 135 lp4_butt~ 3000 200;
#X obj 228 173 hp4_butt~ 3000 200;
#X obj 429 137 lp4_butt~ 3000 200;
#X obj 429 170 hp4_butt~ 3000 200;
#X obj 639 137 hp4_butt~ 3000 200;
#X connect 0 0 11 0;
#X connect 0 0 12 0;
#X connect 0 0 14 0;
#X connect 0 0 16 0;
#X connect 1 0 13 1;
#X connect 2 0 15 1;
#X connect 3 0 16 1;
#X connect 4 0 1 0;
#X connect 4 0 11 1;
#X connect 5 0 2 0;
#X connect 5 0 12 1;
#X connect 6 0 3 0;
#X connect 6 0 14 1;
#X connect 11 0 7 0;
#X connect 12 0 13 0;
#X connect 13 0 8 0;
#X connect 14 0 15 0;
#X connect 15 0 9 0;
#X connect 16 0 10 0;
#X restore 24 149 pd frequenzweiche;
#X obj 23 51 inlet~;
#X obj 24 234 outlet~;
#X obj 57 214 outlet~;
#X obj 90 193 outlet~;
#X obj 123 173 outlet~;
#X obj 86 51 inlet;
#X obj 126 51 inlet;
#X obj 166 51 inlet;
#N canvas 690 323 268 91 NETPD 0;
#N canvas 762 180 418 67 abslist 0;
#X msg 12 11 dynlib_4bfs~-help;
#X restore 23 44 pd abslist;
#X msg 22 14 version 0 1 11;
#X restore 278 34 pd NETPD 2 0;
#X text 24 15 4-band frequency separator;
#X obj 23 261 declare -path iemlib -lib iemlib;
#X connect 0 0 2 0;
#X connect 0 1 3 0;
#X connect 0 2 4 0;
#X connect 0 3 5 0;
#X connect 1 0 0 0;
#X connect 6 0 0 1;
#X connect 7 0 0 2;
#X connect 8 0 0 3;
