#N canvas 678 149 450 300 10;
#X obj 294 112 /;
#X obj 294 91 57;
#X obj 294 70 t b f;
#X obj 333 112 /;
#X obj 333 91 57;
#X obj 333 70 t b f;
#N canvas 596 477 506 356 att-rel-filtering 0;
#N canvas 385 537 585 414 a-r-det 0;
#X obj 43 51 inlet~;
#X obj 43 200 outlet~;
#X obj 94 200 outlet~;
#X obj 43 145 max~ 0;
#X obj 94 171 -~;
#X obj 94 121 loadbang;
#X msg 94 146 1;
#X obj 105 50 inlet~;
#X obj 43 97 -~;
#X text 7 33 vgl.: "soll" mit "ist";
#X text 33 218 Attack / Release;
#X obj 43 121 rh_sgn~;
#X connect 0 0 8 1;
#X connect 3 0 4 1;
#X connect 3 0 1 0;
#X connect 4 0 2 0;
#X connect 5 0 6 0;
#X connect 6 0 4 0;
#X connect 7 0 8 0;
#X connect 8 0 11 0;
#X connect 11 0 3 0;
#X restore 50 86 pd a-r-det;
#X text 26 99 att;
#X text 111 101 rel;
#X obj 22 195 vcf~;
#X msg 134 162 0.4;
#X obj 50 126 *~;
#X obj 105 128 *~;
#X obj 75 163 +~;
#X obj 134 138 loadbang;
#X obj 22 26 inlet~;
#X text 67 26 amp-factor;
#X obj 164 84 inlet;
#X text 200 85 attack;
#X text 237 104 release;
#X obj 196 106 inlet;
#X obj 22 272 outlet~;
#X obj 290 47 block~ 2;
#N canvas 0 0 450 300 (subpatch) 0;
#X array \$0-factor 16 float 0;
#X coords 0 100 15 0 20 20 1;
#X restore 287 169 graph;
#X obj 22 239 *~ 0.971042;
#X obj 109 233 tabsend~ \$0-factor;
#X obj 105 62 tabreceive~ \$0-factor;
#X connect 0 0 5 0;
#X connect 0 1 6 0;
#X connect 3 0 18 0;
#X connect 3 0 19 0;
#X connect 4 0 3 2;
#X connect 5 0 7 0;
#X connect 6 0 7 1;
#X connect 7 0 3 1;
#X connect 8 0 4 0;
#X connect 9 0 3 0;
#X connect 9 0 0 0;
#X connect 11 0 5 1;
#X connect 14 0 6 1;
#X connect 18 0 15 0;
#X connect 20 0 0 1;
#X restore 143 148 pd att-rel-filtering;
#X obj 126 42 inlet~;
#X obj 139 194 outlet~;
#X obj 288 20 inlet;
#X obj 340 28 inlet;
#N canvas 779 118 264 116 NETPD 0;
#X msg 17 22 version 0 1 0;
#X restore 316 229 pd NETPD 2 0;
#X connect 0 0 6 1;
#X connect 1 0 0 0;
#X connect 2 0 1 0;
#X connect 2 1 0 1;
#X connect 3 0 6 2;
#X connect 4 0 3 0;
#X connect 5 0 4 0;
#X connect 5 1 3 1;
#X connect 6 0 8 0;
#X connect 7 0 6 0;
#X connect 9 0 2 0;
#X connect 10 0 5 0;
