#N canvas 710 133 442 381 10;
#X obj 32 23 inlet~;
#X obj 84 178 outlet~;
#X obj 32 130 samphold~;
#X obj 31 234 delwrite~ \$0.peakhold 2;
#X obj 82 71 max~;
#X obj 201 20 delread~ \$0.peakhold 0;
#X obj 82 92 *~ -1;
#N canvas 0 53 450 300 phasor2~ 0;
#X obj 56 21 inlet~;
#X obj 147 71 inlet~;
#X obj 62 201 outlet~;
#X obj 58 122 wrap~;
#X obj 134 173 delwrite~ \$0.phasor2 2;
#X obj 107 49 delread~ \$0.phasor2 0;
#X obj 107 100 *~;
#X connect 0 0 3 0;
#X connect 1 0 6 1;
#X connect 3 0 2 0;
#X connect 3 0 4 0;
#X connect 5 0 6 0;
#X connect 6 0 3 0;
#X restore 126 105 pd phasor2~;
#X obj 234 200 block~ 1;
#X obj 126 22 inlet;
#X msg 126 50 1 \$1;
#X obj 126 78 /;
#N canvas 659 72 327 81 NETPD 0;
#N canvas 743 133 323 72 abslist 0;
#X msg 39 31 dynlib_peakhold~-help;
#X restore 29 43 pd abslist;
#X msg 15 16 version 0 1 1;
#X restore 311 251 pd NETPD 2 0;
#X text 18 318 http://dariosanfilippo.tumblr.com/post/162523174771/lookahead-limiting-in-pure-data
;
#X text 17 300 Code from Dario Sanfilippo:;
#N canvas 0 0 450 300 <~ 0;
#X obj 33 22 inlet~;
#X obj 32 104 -~;
#X obj 32 127 tabread~ \$0.lt.lookup;
#X obj 96 24 inlet~;
#X obj 96 47 -~ 1;
#X obj 32 150 outlet~;
#X obj 202 41 loadbang;
#X msg 202 64 0 1 0;
#X obj 202 89 s \$0.lt.lookup;
#X obj 209 163 table \$0.lt.lookup 2;
#X connect 0 0 1 0;
#X connect 1 0 2 0;
#X connect 2 0 5 0;
#X connect 3 0 4 0;
#X connect 4 0 1 1;
#X connect 6 0 7 0;
#X connect 7 0 8 0;
#X restore 190 73 pd <~;
#X connect 0 0 2 0;
#X connect 0 0 4 0;
#X connect 0 0 15 0;
#X connect 2 0 1 0;
#X connect 2 0 3 0;
#X connect 4 0 6 0;
#X connect 5 0 4 1;
#X connect 5 0 15 1;
#X connect 6 0 2 1;
#X connect 7 0 2 1;
#X connect 9 0 10 0;
#X connect 10 0 11 0;
#X connect 11 0 7 0;
#X connect 15 0 7 1;
