#N canvas 447 53 638 434 10;
#N canvas 659 72 327 81 NETPD 0;
#X msg 15 16 version 0 1 0;
#X restore 544 400 pd NETPD 2 0;
#X text 417 401 2018 \, Roman Haefeli;
#X obj 30 406 dac~;
#X text 259 271 This is a traditional compressor. Signals above the threshold will be gain reduced depending on the configured ratio setting. The attack sets the time the compressor needs to adjust to input levels exceeding the threshold. The release defines the time to restore normal level when the signal falls below threshold. Signals below threshold will pass the compressor unaltered.;
#X obj 31 242 dynlib_4bfs~ . . . . . . . . .;
#X text 16 13 [dynlib_4bfs~] - 4-band frequency splitter;
#X obj 31 382 *~ 0.2;
#X obj 30 305 *~ 0;
#X obj 51 281 tgl 15 0 empty empty empty 17 7 0 10 #fce0c4 #000000 #000000 0 1;
#X obj 90 305 *~ 0;
#X obj 111 281 tgl 15 0 empty empty empty 17 7 0 10 #fcfcc4 #000000 #000000 0 1;
#X obj 150 305 *~ 0;
#X obj 171 281 tgl 15 0 empty empty empty 17 7 0 10 #c4fcc4 #000000 #000000 0 1;
#X obj 208 305 *~ 0;
#X obj 229 281 tgl 15 0 empty empty empty 17 7 0 10 #c4fcfc #000000 #000000 0 1;
#X obj 32 68 phasor~ 100;
#X obj 32 89 -~ 0.5;
#X text 403 110 outlet0: low band;
#X text 403 130 outlet1: mid-low band;
#X text 403 150 outlet2: mid-high band;
#X text 403 170 outlet3: high band;
#X text 409 50 inlet1: low split frequency;
#X text 409 70 inlet2: mid split frequency;
#X text 409 90 inlet3: high split frequency;
#X text 409 30 inlet0: signal;
#X floatatom 90 148 5 0 0 0 - - - 0;
#X text 124 147 Hz;
#X floatatom 149 183 5 0 0 0 - - - 0;
#X text 183 182 Hz;
#X floatatom 208 203 5 0 0 0 - - - 0;
#X text 242 202 Hz;
#X obj 162 67 loadbang;
#X msg 90 119 150;
#X msg 149 123 500;
#X msg 208 120 2000;
#X connect 4 0 7 0;
#X connect 4 1 9 0;
#X connect 4 2 11 0;
#X connect 4 3 13 0;
#X connect 6 0 2 0;
#X connect 6 0 2 1;
#X connect 7 0 6 0;
#X connect 8 0 7 1;
#X connect 9 0 6 0;
#X connect 10 0 9 1;
#X connect 11 0 6 0;
#X connect 12 0 11 1;
#X connect 13 0 6 0;
#X connect 14 0 13 1;
#X connect 15 0 16 0;
#X connect 16 0 4 0;
#X connect 25 0 4 1;
#X connect 27 0 4 2;
#X connect 29 0 4 3;
#X connect 31 0 32 0;
#X connect 31 0 33 0;
#X connect 31 0 34 0;
#X connect 32 0 25 0;
#X connect 33 0 27 0;
#X connect 34 0 29 0;
