#N canvas 310 117 516 334 10;
#X obj 22 26 inlet~;
#X obj 22 275 outlet~;
#X obj 172 26 inlet;
#X obj 324 28 inlet;
#X obj 324 175 /;
#X obj 21 199 fexpr~ if($y1[-1]>$x1 \, $y1[-1]-(($y1[-1]-$x1)*$f2)
\, $y1[-1]+(($x1-$y1[-1])*$f3));
#X obj 324 77 / 1000;
#X obj 324 109 * 44100;
#X obj 403 62 loadbang;
#X obj 403 84 samplerate~;
#X obj 172 172 /;
#X obj 172 74 / 1000;
#X obj 172 106 * 44100;
#X obj 172 128 max 1.8;
#X msg 172 151 1.8 \$1;
#X obj 324 131 max 1.8;
#X msg 324 153 1.8 \$1;
#N canvas 779 118 264 116 NETPD 0;
#X msg 17 22 version 0 1 0;
#X restore 338 260 pd NETPD 2 0;
#X connect 0 0 5 0;
#X connect 2 0 11 0;
#X connect 3 0 6 0;
#X connect 4 0 5 2;
#X connect 5 0 1 0;
#X connect 6 0 7 0;
#X connect 7 0 15 0;
#X connect 8 0 9 0;
#X connect 8 0 13 0;
#X connect 8 0 15 0;
#X connect 9 0 7 1;
#X connect 9 0 12 1;
#X connect 10 0 5 1;
#X connect 11 0 12 0;
#X connect 12 0 13 0;
#X connect 13 0 14 0;
#X connect 14 0 10 0;
#X connect 15 0 16 0;
#X connect 16 0 4 0;
