#N canvas 276 155 450 300 10;
#N canvas 596 477 506 356 att-rel-filtering 0;
#N canvas 385 537 376 285 a-r-det 0;
#X obj 43 51 inlet~;
#X obj 43 200 outlet~;
#X obj 94 200 outlet~;
#X obj 43 145 max~ 0;
#X obj 94 171 -~;
#X obj 191 155 loadbang;
#X msg 94 146 1;
#X obj 105 50 inlet~;
#X obj 43 97 -~;
#X text 7 33 vgl.: "soll" mit "ist";
#X text 33 218 Attack / Release;
#X obj 43 121 rh_sgn~;
#X connect 0 0 8 1;
#X connect 3 0 4 1;
#X connect 3 0 1 0;
#X connect 4 0 2 0;
#X connect 5 0 6 0;
#X connect 6 0 4 0;
#X connect 7 0 8 0;
#X connect 8 0 11 0;
#X connect 11 0 3 0;
#X restore 50 86 pd a-r-det;
#X text 26 99 att;
#X text 111 101 rel;
#X obj 50 126 *~;
#X obj 105 128 *~;
#X obj 75 163 +~;
#X obj 22 26 inlet~;
#X text 67 26 amp-factor;
#X obj 353 53 inlet;
#X text 200 85 attack;
#X text 237 104 release;
#X obj 409 54 inlet;
#X obj 22 302 outlet~;
#X obj 286 22 block~ 2;
#X obj 96 317 tabsend~ \$0-factor2;
#X obj 105 62 tabreceive~ \$0-factor2;
#X obj 270 292 table \$0-factor2 10;
#X obj 334 122 /;
#X msg 334 100 0.04 \$1;
#X obj 400 119 /;
#X msg 400 97 0.04 \$1;
#X obj 23 188 *~;
#X obj 22 246 rpole~;
#X obj 78 194 *~ -1;
#X obj 78 216 +~ 1;
#X connect 0 0 3 0;
#X connect 0 1 4 0;
#X connect 3 0 5 0;
#X connect 4 0 5 1;
#X connect 5 0 21 1;
#X connect 5 0 23 0;
#X connect 6 0 0 0;
#X connect 6 0 21 0;
#X connect 8 0 18 0;
#X connect 11 0 20 0;
#X connect 15 0 0 1;
#X connect 17 0 3 1;
#X connect 18 0 17 0;
#X connect 19 0 4 1;
#X connect 20 0 19 0;
#X connect 21 0 22 0;
#X connect 22 0 12 0;
#X connect 22 0 14 0;
#X connect 23 0 24 0;
#X connect 24 0 22 1;
#X restore 125 107 pd att-rel-filtering;
#X obj 126 42 inlet~;
#X obj 126 165 outlet~;
#X obj 288 20 inlet;
#X obj 340 28 inlet;
#N canvas 779 146 264 116 NETPD 0;
#X msg 17 22 version 0 1 1;
#X restore 370 278 pd NETPD 2 0;
#X connect 0 0 2 0;
#X connect 1 0 0 0;
#X connect 3 0 0 1;
#X connect 4 0 0 2;
