#N canvas 165 182 518 391 10;
#N canvas 724 536 155 121 NETPD 0;
#N canvas 589 272 162 53 abslist 0;
#X msg 10 11 roman_helpers;
#X restore 11 34 pd abslist;
#X msg 11 7 version 0 1 0;
#X restore 420 20 pd NETPD 2 0;
#X obj 7 271 *~;
#N canvas 283 384 336 370 amp-factor 0;
#X obj 19 22 inlet~;
#X obj 84 23 inlet;
#X text 120 23 Ratio;
#X obj 168 26 inlet;
#X text 204 26 Threshold;
#X obj 200 54 loadbang;
#X msg 200 78 100;
#X obj 200 145 sig~;
#X obj 155 161 -~;
#X obj 155 184 max~ 0;
#X obj 142 262 -~;
#X obj 142 316 dbtorms~;
#X obj 142 341 outlet~;
#X obj 111 113 - 1;
#X obj 84 156 /;
#X obj 19 68 rmstodb~;
#X text 18 4 Signal;
#X text 189 340 Factor in RMS;
#X obj 19 45 rh_abs~;
#X obj 84 45 t a a;
#X obj 156 212 /~ 0;
#X obj 168 134 + 0;
#X connect 0 0 18 0;
#X connect 1 0 19 0;
#X connect 3 0 21 0;
#X connect 5 0 6 0;
#X connect 6 0 7 0;
#X connect 6 0 21 1;
#X connect 7 0 10 0;
#X connect 8 0 9 0;
#X connect 9 0 20 0;
#X connect 10 0 11 0;
#X connect 11 0 12 0;
#X connect 13 0 14 1;
#X connect 14 0 20 1;
#X connect 15 0 8 0;
#X connect 18 0 15 0;
#X connect 19 0 14 0;
#X connect 19 1 13 0;
#X connect 20 0 10 1;
#X connect 21 0 8 1;
#X restore 143 109 pd amp-factor;
#X obj 7 31 inlet~;
#X obj 7 350 outlet~;
#X obj 180 24 inlet ratio;
#X obj 218 50 inlet threshold;
#X obj 294 25 inlet attack;
#X obj 333 47 inlet release;
#X obj 120 232 inlet gain;
#X obj 120 253 + 100;
#X obj 120 275 dbtorms;
#X obj 200 212 loadbang;
#X obj 64 271 *~;
#X obj 78 230 *~;
#X obj 63 34 inlet~;
#X obj 64 350 outlet~;
#X text 151 72 -3dB;
#X obj 200 232 0;
#X obj 327 337 outlet;
#X obj 327 312 env~ 4096;
#X obj 218 82 - 2.5;
#X text 268 70 some correction;
#X text 267 81 why?;
#X text 267 96 this was found by comparing to;
#X text 268 106 C1 from Waves;
#X obj 80 71 *~ 0.707107;
#X obj 294 191 /;
#X obj 294 170 57;
#X obj 294 149 t b f;
#X obj 333 191 /;
#X obj 333 170 57;
#X obj 333 149 t b f;
#N canvas 596 477 506 356 att-rel-filtering 0;
#N canvas 385 537 585 414 a-r-det 0;
#X obj 43 51 inlet~;
#X obj 43 200 outlet~;
#X obj 94 200 outlet~;
#X obj 43 145 max~ 0;
#X obj 94 171 -~;
#X obj 94 121 loadbang;
#X msg 94 146 1;
#X obj 105 50 inlet~;
#X obj 43 97 -~;
#X text 7 33 vgl.: "soll" mit "ist";
#X text 33 218 Attack / Release;
#X obj 43 121 rh_sgn~;
#X connect 0 0 8 1;
#X connect 3 0 4 1;
#X connect 3 0 1 0;
#X connect 4 0 2 0;
#X connect 5 0 6 0;
#X connect 6 0 4 0;
#X connect 7 0 8 0;
#X connect 8 0 11 0;
#X connect 11 0 3 0;
#X restore 50 86 pd a-r-det;
#X text 26 99 att;
#X text 111 101 rel;
#X obj 22 195 vcf~;
#X msg 134 162 0.4;
#X obj 50 126 *~;
#X obj 105 128 *~;
#X obj 75 163 +~;
#X obj 134 138 loadbang;
#X obj 22 26 inlet~;
#X text 67 26 amp-factor;
#X obj 164 84 inlet;
#X text 200 85 attack;
#X text 237 104 release;
#X obj 196 106 inlet;
#X obj 22 272 outlet~;
#X obj 290 47 block~ 2;
#N canvas 0 0 450 300 (subpatch) 0;
#X array \$0-factor 16 float 0;
#X coords 0 100 15 0 20 20 1;
#X restore 287 169 graph;
#X obj 22 239 *~ 0.971042;
#X obj 109 233 tabsend~ \$0-factor;
#X obj 105 62 tabreceive~ \$0-factor;
#X connect 0 0 5 0;
#X connect 0 1 6 0;
#X connect 3 0 18 0;
#X connect 3 0 19 0;
#X connect 4 0 3 2;
#X connect 5 0 7 0;
#X connect 6 0 7 1;
#X connect 7 0 3 1;
#X connect 8 0 4 0;
#X connect 9 0 3 0;
#X connect 9 0 0 0;
#X connect 11 0 5 1;
#X connect 14 0 6 1;
#X connect 18 0 15 0;
#X connect 20 0 0 1;
#X restore 127 145 pd att-rel-filtering;
#X connect 1 0 4 0;
#X connect 2 0 33 0;
#X connect 3 0 1 0;
#X connect 3 0 26 0;
#X connect 5 0 2 1;
#X connect 6 0 21 0;
#X connect 7 0 29 0;
#X connect 8 0 32 0;
#X connect 9 0 10 0;
#X connect 10 0 11 0;
#X connect 11 0 14 1;
#X connect 12 0 18 0;
#X connect 13 0 16 0;
#X connect 14 0 1 1;
#X connect 14 0 13 1;
#X connect 15 0 13 0;
#X connect 15 0 26 0;
#X connect 18 0 10 0;
#X connect 20 0 19 0;
#X connect 21 0 2 2;
#X connect 26 0 2 0;
#X connect 27 0 33 1;
#X connect 28 0 27 0;
#X connect 29 0 28 0;
#X connect 29 1 27 1;
#X connect 30 0 33 2;
#X connect 31 0 30 0;
#X connect 32 0 31 0;
#X connect 32 1 30 1;
#X connect 33 0 20 0;
#X connect 33 0 14 0;
