#N canvas 47 89 158 123 10;
#X text 14 78 by Enrique Erne;
#N canvas 422 339 158 51 \$2-e-2rect-gui 0;
#X obj 13 13 hsl 128 15 1 0.001 0 0 \$2_2r.ct \$2_2r.ct-r to_rectangle
15 7 1 9 -262144 -1 -1 0 1;
#X restore 15 17 pd \$2-e-2rect-gui;
#N canvas 689 122 322 215 e-2rect 0;
#X obj 20 51 r~ \$2-l;
#X obj 20 162 throw~ \$2-l;
#X obj 154 52 r~ \$2-r;
#X obj 154 163 throw~ \$2-r;
#X obj 20 142 *~;
#X obj 108 82 sgn~;
#X obj 20 122 /~;
#N canvas 476 243 207 169 s2sLeft~ 0;
#X obj 18 126 outlet~;
#X obj 18 86 *~;
#X obj 18 106 +~;
#X obj 85 16 inlet~;
#X obj 137 16 inlet~;
#X obj 18 66 -~ 1;
#X obj 41 16 inlet;
#X obj 137 75 *~ 1;
#X obj 18 46 sig~ 1;
#X connect 1 0 2 0;
#X connect 2 0 0 0;
#X connect 3 0 1 1;
#X connect 4 0 7 0;
#X connect 5 0 1 0;
#X connect 6 0 5 1;
#X connect 6 0 7 1;
#X connect 7 0 2 1;
#X connect 8 0 5 0;
#X restore 36 102 pd s2sLeft~;
#X obj 154 143 *~;
#X obj 249 83 sgn~;
#X obj 154 123 /~;
#N canvas 772 254 202 166 s2sRight~ 0;
#X obj 18 124 outlet~;
#X obj 18 84 *~;
#X obj 18 104 +~;
#X obj 86 16 inlet~;
#X obj 138 16 inlet~;
#X obj 41 16 inlet;
#X obj 18 44 sig~ 1;
#X obj 18 64 -~ 1;
#X obj 138 73 *~ 1;
#X connect 1 0 2 0;
#X connect 2 0 0 0;
#X connect 3 0 1 1;
#X connect 4 0 8 0;
#X connect 5 0 7 1;
#X connect 5 0 8 1;
#X connect 6 0 7 0;
#X connect 7 0 1 0;
#X connect 8 0 2 1;
#X restore 170 103 pd s2sRight~;
#X obj 36 15 netpd-fx \$1 \$2_2r.ct \$2_2r.ct-r 1;
#X connect 0 0 5 0;
#X connect 0 0 7 1;
#X connect 0 0 6 0;
#X connect 2 0 9 0;
#X connect 2 0 11 1;
#X connect 2 0 10 0;
#X connect 4 0 1 0;
#X connect 5 0 4 1;
#X connect 5 0 7 2;
#X connect 6 0 4 0;
#X connect 7 0 6 1;
#X connect 8 0 3 0;
#X connect 9 0 8 1;
#X connect 9 0 11 2;
#X connect 10 0 8 0;
#X connect 11 0 10 1;
#X connect 12 0 7 0;
#X connect 12 0 11 0;
#X restore 15 57 pd e-2rect;
#X msg 15 37 version 0.2.3;
