#N canvas 734 328 423 371 10;
#X text 11 34 by Enrique Erne;
#N canvas 1064 195 231 103 NETPD 0;
#X msg 14 17 version 0 2 6;
#X restore 111 12 pd NETPD 2 0;
#X obj 20 277 *~;
#X obj 20 257 /~;
#N canvas 476 301 207 169 s2sLeft~ 0;
#X obj 18 126 outlet~;
#X obj 18 86 *~;
#X obj 18 106 +~;
#X obj 85 16 inlet~;
#X obj 137 16 inlet~;
#X obj 18 66 -~ 1;
#X obj 41 16 inlet;
#X obj 137 75 *~ 1;
#X obj 18 46 sig~ 1;
#X connect 1 0 2 0;
#X connect 2 0 0 0;
#X connect 3 0 1 1;
#X connect 4 0 7 0;
#X connect 5 0 1 0;
#X connect 6 0 5 1;
#X connect 6 0 7 1;
#X connect 7 0 2 1;
#X connect 8 0 5 0;
#X restore 36 217 pd s2sLeft~;
#X obj 154 278 *~;
#X obj 154 258 /~;
#N canvas 772 254 202 166 s2sRight~ 0;
#X obj 18 124 outlet~;
#X obj 18 84 *~;
#X obj 18 104 +~;
#X obj 86 16 inlet~;
#X obj 138 16 inlet~;
#X obj 41 16 inlet;
#X obj 18 44 sig~ 1;
#X obj 18 64 -~ 1;
#X obj 138 73 *~ 1;
#X connect 1 0 2 0;
#X connect 2 0 0 0;
#X connect 3 0 1 1;
#X connect 4 0 8 0;
#X connect 5 0 7 1;
#X connect 5 0 8 1;
#X connect 6 0 7 0;
#X connect 7 0 1 0;
#X connect 8 0 2 1;
#X restore 169 222 pd s2sRight~;
#X obj 20 136 inlet~;
#X obj 154 137 inlet~;
#X obj 20 297 outlet~;
#X obj 155 299 outlet~;
#X obj 36 100 netpd_f \$1 \$2/amount 1;
#N canvas 422 455 163 50 \$3-\$2 1;
#X obj 13 13 hsl 128 15 1 0.001 0 0 \$1-\$2/amount \$1-\$2/amount to_rectangle
15 7 1 9 #fcfcfc #000000 #000000 0 1;
#X restore 7 12 pd \$3-\$2;
#X obj 238 192 clip~ -1 1;
#X obj 238 169 *~ 3.4e+38;
#X text 237 149 [sgn~] replacment;
#X obj 99 192 clip~ -1 1;
#X obj 99 169 *~ 3.4e+38;
#X connect 2 0 10 0;
#X connect 3 0 2 0;
#X connect 4 0 3 1;
#X connect 5 0 11 0;
#X connect 6 0 5 0;
#X connect 7 0 6 1;
#X connect 8 0 4 1;
#X connect 8 0 3 0;
#X connect 8 0 18 0;
#X connect 9 0 7 1;
#X connect 9 0 6 0;
#X connect 9 0 15 0;
#X connect 12 0 4 0;
#X connect 12 0 7 0;
#X connect 14 0 5 1;
#X connect 14 0 7 2;
#X connect 15 0 14 0;
#X connect 17 0 2 1;
#X connect 17 0 4 2;
#X connect 18 0 17 0;
