#N canvas 734 262 315 292 10;
#X declare -stdpath extra/zexy -stdlib extra/zexy;
#X text 11 34 by Enrique Erne;
#N canvas 422 395 158 51 \$3-e-2rect 0;
#X obj 13 13 hsl 128 15 1 0.001 0 0 \$1-\$2/amount \$1-\$2/amount to_rectangle
15 7 1 9 -262144 -1 -1 0 1;
#X restore 7 12 pd \$3-e-2rect;
#N canvas 1064 72 231 103 NETPD 0;
#X msg 14 17 version 0 2 3;
#X restore 111 12 pd NETPD 2 0;
#X obj 20 227 *~;
#X obj 108 167 sgn~;
#X obj 20 207 /~;
#N canvas 476 271 207 169 s2sLeft~ 0;
#X obj 18 126 outlet~;
#X obj 18 86 *~;
#X obj 18 106 +~;
#X obj 85 16 inlet~;
#X obj 137 16 inlet~;
#X obj 18 66 -~ 1;
#X obj 41 16 inlet;
#X obj 137 75 *~ 1;
#X obj 18 46 sig~ 1;
#X connect 1 0 2 0;
#X connect 2 0 0 0;
#X connect 3 0 1 1;
#X connect 4 0 7 0;
#X connect 5 0 1 0;
#X connect 6 0 5 1;
#X connect 6 0 7 1;
#X connect 7 0 2 1;
#X connect 8 0 5 0;
#X restore 36 187 pd s2sLeft~;
#X obj 154 228 *~;
#X obj 249 168 sgn~;
#X obj 154 208 /~;
#N canvas 772 254 202 166 s2sRight~ 0;
#X obj 18 124 outlet~;
#X obj 18 84 *~;
#X obj 18 104 +~;
#X obj 86 16 inlet~;
#X obj 138 16 inlet~;
#X obj 41 16 inlet;
#X obj 18 44 sig~ 1;
#X obj 18 64 -~ 1;
#X obj 138 73 *~ 1;
#X connect 1 0 2 0;
#X connect 2 0 0 0;
#X connect 3 0 1 1;
#X connect 4 0 8 0;
#X connect 5 0 7 1;
#X connect 5 0 8 1;
#X connect 6 0 7 0;
#X connect 7 0 1 0;
#X connect 8 0 2 1;
#X restore 170 188 pd s2sRight~;
#X obj 6 56 declare -stdpath extra/zexy -stdlib extra/zexy;
#X obj 20 136 inlet~;
#X obj 154 137 inlet~;
#X obj 20 247 outlet~;
#X obj 155 249 outlet~;
#X obj 36 100 netpd_f \$1 \$2/amount 1;
#X connect 3 0 14 0;
#X connect 4 0 3 1;
#X connect 4 0 6 2;
#X connect 5 0 3 0;
#X connect 6 0 5 1;
#X connect 7 0 15 0;
#X connect 8 0 7 1;
#X connect 8 0 10 2;
#X connect 9 0 7 0;
#X connect 10 0 9 1;
#X connect 12 0 4 0;
#X connect 12 0 6 1;
#X connect 12 0 5 0;
#X connect 13 0 8 0;
#X connect 13 0 10 1;
#X connect 13 0 9 0;
#X connect 16 0 6 0;
#X connect 16 0 10 0;
