#N canvas 208 290 822 465 10;
#X obj 57 144 symbol;
#X msg 440 369 \; \$1 vis 1;
#X obj 440 349 symbol;
#X obj 440 239 spigot;
#X obj 507 220 f 1;
#X obj 477 219 f 0;
#X obj 57 164 select \$0-s;
#X obj 101 336 symbol;
#X msg 101 356 \; \$1 loadbang;
#X obj 268 352 symbol;
#X obj 197 372 symbol;
#X msg 197 392 \; \$1 clear;
#X obj 102 259 symbol \$2;
#X obj 129 185 t b b b s s b b;
#X text 11 9 [mx_manager \$0 <name>];
#X msg 332 143 label \$1;
#X obj 166 40 bng 15 250 50 0 empty empty empty 0 -6 0 8 -262144 -1
-1;
#X text 182 38 <-before save;
#X obj 34 370 symbol;
#X obj 477 289 symbol \$2;
#X obj 477 309 pack s s;
#X obj 477 329 makesymbol pd-%s-%s-gui;
#X obj 477 269 t b s;
#X msg 268 392 \; \$1 obj 10 10 \$2 \$3-c \$4;
#X obj 589 287 netpd-ax \$1-b \$2_insert;
#X obj 310 13 netpd-r \$2_insert;
#X obj 440 188 r \$2_insert.vis;
#X obj 332 163 s \$2_insert;
#N canvas 19 23 241 380 check-fx-loaded 0;
#X obj 29 158 spigot;
#X obj 66 78 f 1;
#X obj 32 78 f 0;
#X obj 15 298 spigot;
#X text 73 43 if not in fx;
#X obj 15 38 symbol;
#X obj 15 58 t s b b b s b;
#X msg 49 98 flush;
#X obj 15 18 inlet;
#X obj 15 318 outlet;
#X obj 29 258 f 1;
#X obj 61 258 f 0;
#X obj 29 178 symbol;
#X obj 132 258 f 1;
#X obj 95 298 spigot;
#X obj 95 318 outlet;
#X obj 101 258 f 0;
#N canvas 532 84 478 310 textfile 0;
#X obj 102 168 textfile;
#X obj 30 40 route flush;
#X obj 29 200 t b a;
#X obj 111 118 spigot;
#X obj 148 98 f 1;
#X obj 176 99 f 0;
#X obj 30 60 t b b b;
#X msg 74 98 rewind;
#X msg 43 150 print;
#X obj 30 20 inlet;
#X obj 59 220 outlet;
#X obj 210 21 loadbang;
#X obj 340 61 r set-fxlist;
#X obj 240 101 s get-fxlist;
#X obj 362 121 route all \$2;
#X msg 210 121 rewind \, bang;
#X obj 210 61 t b b;
#X obj 210 41 spigot 1;
#X obj 384 101 f 0;
#X obj 340 81 t b a b;
#X obj 340 152 outlet;
#X obj 240 81 symbol all;
#X connect 0 0 2 0;
#X connect 0 1 5 0;
#X connect 1 0 6 0;
#X connect 1 1 0 0;
#X connect 2 0 3 0;
#X connect 2 1 10 0;
#X connect 3 0 0 0;
#X connect 4 0 3 1;
#X connect 5 0 3 1;
#X connect 6 0 0 0;
#X connect 6 1 4 0;
#X connect 6 2 7 0;
#X connect 7 0 0 0;
#X connect 8 0 0 0;
#X connect 9 0 1 0;
#X connect 11 0 17 0;
#X connect 12 0 19 0;
#X connect 14 0 0 0;
#X connect 14 1 0 0;
#X connect 15 0 0 0;
#X connect 16 0 15 0;
#X connect 16 1 21 0;
#X connect 17 0 16 0;
#X connect 18 0 17 1;
#X connect 19 0 20 0;
#X connect 19 1 14 0;
#X connect 19 2 18 0;
#X connect 21 0 13 0;
#X restore 49 138 pd textfile;
#X obj 29 198 select empty;
#X obj 165 318 outlet;
#X connect 0 0 12 0;
#X connect 1 0 0 1;
#X connect 2 0 0 1;
#X connect 3 0 9 0;
#X connect 5 0 6 0;
#X connect 6 0 3 0;
#X connect 6 0 14 0;
#X connect 6 1 2 0;
#X connect 6 2 7 0;
#X connect 6 3 1 0;
#X connect 6 4 18 1;
#X connect 6 5 11 0;
#X connect 6 5 13 0;
#X connect 7 0 17 0;
#X connect 8 0 5 0;
#X connect 10 0 3 1;
#X connect 11 0 3 1;
#X connect 12 0 18 0;
#X connect 13 0 14 1;
#X connect 14 0 15 0;
#X connect 16 0 14 1;
#X connect 17 0 0 0;
#X connect 17 1 19 0;
#X connect 18 0 10 0;
#X connect 18 0 16 0;
#X restore 310 33 pd check-fx-loaded;
#X msg 34 390 \; \$1 obj 10 10 +~ \; \$1 clear;
#X obj 310 53 t s s b;
#X obj 324 263 symbol;
#X obj 185 93 select empty;
#X obj 185 113 symbol empty;
#X obj 332 123 symbol;
#X obj 184 54 r mx.gui.restore;
#X obj 92 51 loadbang;
#X obj 92 71 t b b;
#X obj 668 187 r mx;
#X obj 668 207 route insert;
#X obj 668 227 route selected;
#X obj 589 107 r \$2_insert.choose;
#X obj 668 247 symbol;
#X obj 102 279 makefilename pd-%s-rebuild;
#X obj 138 298 makefilename pd-%s-container;
#N canvas 844 66 387 275 4_fx.w2-container 0;
#X restore 572 14 pd \$2-container;
#N canvas 0 22 470 320 4_fx.w2-rebuild 0;
#X restore 572 34 pd \$2-rebuild;
#X msg 525 162 set empty;
#X obj 445 57 symbol empty;
#X obj 373 80 symbol empty;
#X obj 373 100 select empty;
#X obj 250 250 s \$2_bypass;
#X obj 250 230 f 1;
#X obj 589 267 symbol empty;
#X obj 280 230 f 0;
#X obj 185 133 t s b b;
#X msg 619 147 \; mx insert getselected;
#X obj 589 127 t b b;
#X obj 484 78 print mx_manager.pd_reloade_fx_;
#X obj 324 283 s fx.aux_name;
#X obj 324 195 r fx.aux_getname;
#X obj 324 219 route \$2;
#X obj 324 242 b;
#X text 250 193 >>>>>>>>>>;
#X msg 14 28 version 0.6.8;
#X obj 320 352 symbol \$1;
#X obj 268 372 pack s s s s;
#X connect 0 0 6 0;
#X connect 2 0 1 0;
#X connect 3 0 2 0;
#X connect 4 0 3 1;
#X connect 5 0 3 1;
#X connect 6 1 13 0;
#X connect 7 0 8 0;
#X connect 9 0 66 0;
#X connect 10 0 11 0;
#X connect 12 0 43 0;
#X connect 12 0 44 0;
#X connect 12 0 66 3;
#X connect 13 0 18 0;
#X connect 13 0 54 0;
#X connect 13 1 7 0;
#X connect 13 2 9 0;
#X connect 13 3 66 1;
#X connect 13 4 6 1;
#X connect 13 4 22 0;
#X connect 13 5 10 0;
#X connect 13 6 4 0;
#X connect 15 0 27 0;
#X connect 16 0 10 0;
#X connect 18 0 29 0;
#X connect 19 0 20 0;
#X connect 20 0 21 0;
#X connect 21 0 2 1;
#X connect 22 0 19 0;
#X connect 22 1 20 1;
#X connect 25 0 28 0;
#X connect 26 0 3 0;
#X connect 28 0 30 0;
#X connect 28 1 49 1;
#X connect 28 2 49 0;
#X connect 30 0 32 0;
#X connect 30 1 31 1;
#X connect 30 1 34 0;
#X connect 30 2 48 0;
#X connect 31 0 59 0;
#X connect 32 0 33 0;
#X connect 32 1 0 0;
#X connect 33 0 55 0;
#X connect 34 0 15 0;
#X connect 35 0 34 0;
#X connect 36 0 37 0;
#X connect 37 0 33 0;
#X connect 37 1 12 0;
#X connect 37 1 47 0;
#X connect 37 1 65 0;
#X connect 38 0 39 0;
#X connect 39 0 40 0;
#X connect 40 0 42 0;
#X connect 41 0 57 0;
#X connect 42 0 53 1;
#X connect 43 0 18 1;
#X connect 44 0 9 1;
#X connect 44 0 10 1;
#X connect 44 0 7 1;
#X connect 47 0 24 0;
#X connect 48 0 49 1;
#X connect 49 0 50 0;
#X connect 50 1 28 0;
#X connect 50 1 58 0;
#X connect 52 0 51 0;
#X connect 53 0 24 0;
#X connect 54 0 51 0;
#X connect 55 0 6 1;
#X connect 55 1 5 0;
#X connect 55 1 52 0;
#X connect 55 2 10 0;
#X connect 57 0 53 0;
#X connect 57 1 56 0;
#X connect 60 0 61 0;
#X connect 61 0 62 0;
#X connect 62 0 31 0;
#X connect 65 0 66 2;
#X connect 66 0 23 0;
