#N canvas 794 395 788 344 10;
#X text 167 19 by Enrique Erne;
#N canvas 1062 308 224 98 NETPD 0;
#N canvas 836 221 286 80 abslist 0;
#X msg 15 12 untik-clock-consumer;
#X restore 15 39 pd abslist;
#X msg 15 13 version 0 2 0;
#X restore 81 17 pd NETPD 2 0;
#X obj 26 249 *~;
#X obj 160 250 *~;
#X obj 42 189 osc~ 0;
#X obj 116 171 t b f;
#X obj 251 188 r \$0-eam;
#X obj 249 265 s \$0-eam-r;
#X msg 249 245 set \$1;
#X obj 42 229 *~ 0.5;
#X obj 42 209 +~ 1;
#X obj 116 191 f 1000;
#X obj 116 211 / 125;
#X obj 55 149 t b f;
#X obj 42 169 * 8;
#X obj 59 79 * 0.25;
#X obj 26 269 outlet~;
#X obj 160 270 outlet~;
#X obj 160 99 inlet~;
#X obj 26 98 inlet~;
#X obj 59 59 netpd_f \$1 \$2/f 0;
#X obj 251 208 s \$1-\$2/f;
#N canvas 509 532 179 103 \$3-\$2 0;
#X obj 10 37 netpd-gui-dropdown \$0.clock.select 135 16 10 0 0 777 0 555 887;
#X obj 13 53 hsl 130 15 0 10 0 0 \$1-\$2/f \$1-\$2/f amplitude-modulation 15 7 1 9 #fcfcfc #000000 #000000 0 0;
#X obj 10 67 hradio 15 1 0 9 \$0-eam \$0-eam-r empty 0 -6 0 8 #fcfcfc #000000 #000000 0;
#X restore 14 17 pd \$3-\$2;
#X obj 462 44 loadbang;
#X obj 462 67 del 0;
#X msg 462 90 get tempo;
#X msg 461 159 \$2 \$1;
#X obj 461 182 route permin;
#X msg 461 205 60000 \$1;
#X obj 461 228 /;
#X obj 461 252 s \$0.tick_ms;
#X obj 462 113 untik-clock-consumer \$1 clock \$0.clock.select;
#X obj 461 136 route tempo, f 23;
#X obj 116 136 r \$0.tick_ms;
#X connect 2 0 16 0;
#X connect 3 0 17 0;
#X connect 4 0 10 0;
#X connect 5 0 11 0;
#X connect 5 1 12 1;
#X connect 6 0 21 0;
#X connect 8 0 7 0;
#X connect 9 0 2 1;
#X connect 9 0 3 1;
#X connect 10 0 9 0;
#X connect 11 0 12 0;
#X connect 12 0 13 0;
#X connect 13 0 14 0;
#X connect 13 1 14 1;
#X connect 14 0 4 0;
#X connect 15 0 14 0;
#X connect 18 0 3 0;
#X connect 19 0 2 0;
#X connect 20 0 8 0;
#X connect 20 0 15 0;
#X connect 23 0 24 0;
#X connect 24 0 25 0;
#X connect 25 0 31 0;
#X connect 26 0 27 0;
#X connect 27 0 28 0;
#X connect 28 0 29 0;
#X connect 29 0 30 0;
#X connect 31 0 32 0;
#X connect 32 0 26 0;
#X connect 33 0 5 0;
