#N canvas 820 409 210 175 10;
#X text 13 78 by Enrique Erne;
#N canvas 851 33 254 140 1f.w1-e-amp-gui 1;
#X obj 13 13 hsl 130 15 0 1 0 0 \$2_eamp \$2_eamp-r decay 15 7 1 9
-262144 -1 -1 12900 0;
#X floatatom 149 13 5 1 64 0 - #2_eamp.mod-r #2_eamp.mod;
#X msg 16 50 \; pd-e-amp.pd vis 1;
#X obj 13 31 hsl 130 15 0 1 0 0 \$2_eamp.attack \$2_eamp.attack-r attack
15 7 1 9 -262144 -1 -1 0 0;
#X restore 14 17 pd \$2-e-amp-gui;
#N canvas 205 417 701 348 e-amp 0;
#X obj 20 51 r~ \$2-l;
#X obj 20 282 throw~ \$2-l;
#X obj 154 52 r~ \$2-r;
#X obj 154 283 throw~ \$2-r;
#X obj 20 262 *~;
#X obj 154 263 *~;
#X obj 169 100 r 16th;
#X obj 248 65 r stepshuffle;
#X obj 260 86 netpd-fx \$1 \$2_eamp.mod \$2_eamp.mod-r 1;
#X obj 53 32 moses 0.5;
#X obj 53 70 * 2;
#X obj 248 105 % 1;
#X obj 36 202 line~;
#X obj 66 143 * 125;
#X obj 89 117 t b f;
#X obj 249 124 sel 0;
#X obj 111 69 - 0.5;
#X obj 299 240 del 0;
#X obj 332 221 * 125;
#X obj 355 195 t b f;
#X obj 110 89 * 12;
#X obj 205 184 s master.refresh;
#X obj 205 164 loadbang;
#X obj 310 155 netpd-fx \$1 \$2_eamp.attack \$2_eamp.attack-r 0;
#X obj 37 164 pack 0 f;
#X obj 285 267 pack 1 f;
#X obj 53 12 netpd-fx \$1 \$2_eamp \$2_eamp-r 1;
#X connect 0 0 4 0;
#X connect 2 0 5 0;
#X connect 4 0 1 0;
#X connect 5 0 3 0;
#X connect 6 0 19 0;
#X connect 6 0 14 0;
#X connect 7 0 11 0;
#X connect 8 0 11 1;
#X connect 9 0 10 0;
#X connect 9 1 16 0;
#X connect 10 0 13 0;
#X connect 11 0 15 0;
#X connect 12 0 4 1;
#X connect 12 0 5 1;
#X connect 13 0 24 1;
#X connect 14 0 13 0;
#X connect 14 1 13 1;
#X connect 15 0 17 0;
#X connect 15 0 25 0;
#X connect 16 0 20 0;
#X connect 17 0 24 0;
#X connect 18 0 17 1;
#X connect 18 0 25 1;
#X connect 19 0 18 0;
#X connect 19 1 18 1;
#X connect 20 0 13 0;
#X connect 22 0 21 0;
#X connect 23 0 18 0;
#X connect 24 0 12 0;
#X connect 25 0 12 0;
#X connect 26 0 9 0;
#X restore 14 57 pd e-amp;
#X msg 14 37 version 0.1.4;
