#N canvas 880 177 585 300 10;
#N canvas 1061 180 231 103 NETPD 0;
#N canvas 0 50 350 106 abslist 0;
#X msg 8 8 roman_helpers;
#X msg 10 32 mx-fx-sc;
#X restore 14 49 pd abslist;
#X msg 14 17 version 0 0 3;
#X restore 144 9 pd NETPD 2 0;
#X obj 10 33 inlet~;
#X obj 11 265 outlet~;
#N canvas 621 144 244 98 \$3-e-am-sc 1;
#X obj 5 14 mx-fx-sc-gui \$1 \$2/sc;
#X text 58 13 side channel;
#X obj 8 50 hsl 45 12 0 1 0 0 \$1-\$2/responsiveness \$1-\$2/responsiveness
empty -2 -8 0 10 -228856 -1 -1 0 1;
#X text 58 49 responsiveness;
#X obj 8 62 hsl 20 12 0 127 0 0 \$0.bli \$0.indicator.l empty -2 -8
0 10 -1 -1 -1 0 1;
#X obj 33 62 hsl 20 12 0 127 0 0 \$0.bli \$0.indicator.r empty -2 -8
0 10 -1 -1 -1 0 1;
#X obj 8 74 hsl 45 12 0 1 0 0 \$0.invert \$0.invert.r normal 0 7 1
10 -228856 -228856 -1 0 1;
#X obj 8 26 hsl 45 12 0 1 0 0 \$1-\$2/threshold \$1-\$2/threshold empty
-2 -8 0 10 -228856 -1 -1 0 1;
#X text 58 25 threshold;
#X obj 8 38 hsl 45 12 0 1 0 0 \$1-\$2/amp \$1-\$2/amp empty -2 -8 0
10 -228856 -1 -1 0 1;
#X text 58 37 amplification;
#X text 58 73 direction;
#X restore 10 9 pd \$3-e-am-sc;
#X obj 142 33 mx-fx-sc \$1 \$2/sc;
#X obj 142 66 rh_abs~;
#X obj 142 136 lop~;
#X obj 242 67 rh_abs~;
#X obj 242 137 lop~;
#X obj 11 237 *~;
#X obj 90 33 inlet~;
#X obj 91 265 outlet~;
#X obj 91 237 *~;
#N canvas 0 50 254 188 invert 0;
#X obj 9 24 inlet~;
#X obj 9 161 outlet~;
#X obj 10 106 *~ -1;
#X obj 10 126 +~ 1;
#X obj 58 87 t a a;
#X obj 58 110 * -2;
#X obj 58 130 + 1;
#X obj 58 65 inlet;
#X connect 0 0 2 0;
#X connect 2 0 3 0;
#X connect 3 0 1 0;
#X connect 4 0 5 0;
#X connect 4 1 3 1;
#X connect 5 0 6 0;
#X connect 6 0 2 1;
#X connect 7 0 4 0;
#X restore 143 184 pd invert;
#N canvas 0 50 254 188 invert 0;
#X obj 9 24 inlet~;
#X obj 9 161 outlet~;
#X obj 10 106 *~ -1;
#X obj 10 126 +~ 1;
#X obj 58 87 t a a;
#X obj 58 110 * -2;
#X obj 58 130 + 1;
#X obj 58 65 inlet;
#X connect 0 0 2 0;
#X connect 2 0 3 0;
#X connect 3 0 1 0;
#X connect 4 0 5 0;
#X connect 4 1 3 1;
#X connect 5 0 6 0;
#X connect 6 0 2 1;
#X connect 7 0 4 0;
#X restore 241 183 pd invert;
#N canvas 0 50 422 260 LED 0;
#X obj 9 18 inlet~;
#X obj 10 183 outlet~;
#X obj 122 122 max 0;
#X obj 200 98 << 8;
#X obj 200 124 * -1;
#X obj 200 145 - 1;
#X obj 122 190 * 255;
#X obj 122 100 - 30;
#X obj 122 144 min 40;
#X obj 122 166 / 40;
#X obj 200 187 s \$0.indicator.l;
#X msg 200 165 color \$1 \$1 -1;
#X obj 122 77 env~ 2048 2048;
#X connect 0 0 1 0;
#X connect 0 0 12 0;
#X connect 2 0 8 0;
#X connect 3 0 4 0;
#X connect 4 0 5 0;
#X connect 5 0 11 0;
#X connect 6 0 3 0;
#X connect 7 0 2 0;
#X connect 8 0 9 0;
#X connect 9 0 6 0;
#X connect 11 0 10 0;
#X connect 12 0 7 0;
#X restore 142 160 pd LED;
#N canvas 0 50 422 260 LED 0;
#X obj 9 18 inlet~;
#X obj 10 183 outlet~;
#X obj 122 122 max 0;
#X obj 200 98 << 8;
#X obj 200 124 * -1;
#X obj 200 145 - 1;
#X obj 122 190 * 255;
#X obj 122 100 - 30;
#X obj 122 144 min 40;
#X obj 122 166 / 40;
#X msg 200 165 color \$1 \$1 -1;
#X obj 122 77 env~ 2048 2048;
#X obj 200 187 s \$0.indicator.r;
#X connect 0 0 1 0;
#X connect 0 0 11 0;
#X connect 2 0 8 0;
#X connect 3 0 4 0;
#X connect 4 0 5 0;
#X connect 5 0 10 0;
#X connect 6 0 3 0;
#X connect 7 0 2 0;
#X connect 8 0 9 0;
#X connect 9 0 6 0;
#X connect 10 0 12 0;
#X connect 11 0 7 0;
#X restore 242 160 pd LED;
#X obj 348 149 netpd_f \$1 \$2/invert 0;
#N canvas 251 306 330 287 gui.stuff 0;
#X obj 17 145 netpd_r \$1 \$2/invert;
#X obj 17 167 select 0 1;
#X msg 17 211 label normal;
#X msg 45 190 label inverted;
#X obj 18 61 tgl 15 0 \$1-\$2/invert \$1-\$2/invert normal 17 7 0 10
-262144 -1 -1 0 1;
#X obj 18 22 r \$0.invert;
#X obj 18 42 sel;
#X obj 48 44 t a;
#X obj 26 246 s \$0.invert.r;
#X connect 0 0 1 0;
#X connect 1 0 2 0;
#X connect 1 1 3 0;
#X connect 2 0 8 0;
#X connect 3 0 8 0;
#X connect 5 0 6 0;
#X connect 6 0 4 0;
#X connect 6 1 7 0;
#X connect 7 0 6 1;
#X restore 434 261 pd gui.stuff;
#N canvas 0 50 280 357 thresh_amp 0;
#X obj 19 296 clip~ 0 1;
#X obj 20 198 +~;
#X obj 20 258 *~;
#X obj 108 101 dbtorms;
#X obj 108 121 * -1;
#X obj 174 189 dbtorms;
#X obj 174 144 * 40;
#X obj 108 81 -;
#X msg 108 61 60 \$1;
#X obj 108 141 t a a;
#X obj 135 161 + 1;
#X obj 108 41 * -38;
#X msg 135 181 1 \$1;
#X obj 135 203 /;
#X obj 174 167 + 100;
#X obj 174 209 t b a;
#X obj 135 232 *;
#X obj 18 327 outlet~;
#X obj 19 152 inlet~;
#X obj 108 13 inlet;
#X text 147 15 threshold;
#X obj 174 108 inlet;
#X text 213 109 amp;
#X connect 0 0 17 0;
#X connect 1 0 2 0;
#X connect 2 0 0 0;
#X connect 3 0 4 0;
#X connect 4 0 9 0;
#X connect 5 0 15 0;
#X connect 6 0 14 0;
#X connect 7 0 3 0;
#X connect 8 0 7 0;
#X connect 9 0 1 1;
#X connect 9 1 10 0;
#X connect 10 0 12 0;
#X connect 11 0 8 0;
#X connect 12 0 13 0;
#X connect 13 0 16 0;
#X connect 14 0 5 0;
#X connect 15 0 16 0;
#X connect 15 1 16 1;
#X connect 16 0 2 1;
#X connect 18 0 1 0;
#X connect 19 0 11 0;
#X connect 21 0 6 0;
#X restore 142 103 pd thresh_amp;
#N canvas 0 50 280 357 thresh_amp 0;
#X obj 19 296 clip~ 0 1;
#X obj 20 198 +~;
#X obj 20 258 *~;
#X obj 108 101 dbtorms;
#X obj 108 121 * -1;
#X obj 174 189 dbtorms;
#X obj 174 144 * 40;
#X obj 108 81 -;
#X msg 108 61 60 \$1;
#X obj 108 141 t a a;
#X obj 135 161 + 1;
#X obj 108 41 * -38;
#X msg 135 181 1 \$1;
#X obj 135 203 /;
#X obj 174 167 + 100;
#X obj 174 209 t b a;
#X obj 135 232 *;
#X obj 18 327 outlet~;
#X obj 19 152 inlet~;
#X obj 108 13 inlet;
#X text 147 15 threshold;
#X obj 174 108 inlet;
#X text 213 109 amp;
#X connect 0 0 17 0;
#X connect 1 0 2 0;
#X connect 2 0 0 0;
#X connect 3 0 4 0;
#X connect 4 0 9 0;
#X connect 5 0 15 0;
#X connect 6 0 14 0;
#X connect 7 0 3 0;
#X connect 8 0 7 0;
#X connect 9 0 1 1;
#X connect 9 1 10 0;
#X connect 10 0 12 0;
#X connect 11 0 8 0;
#X connect 12 0 13 0;
#X connect 13 0 16 0;
#X connect 14 0 5 0;
#X connect 15 0 16 0;
#X connect 15 1 16 1;
#X connect 16 0 2 1;
#X connect 18 0 1 0;
#X connect 19 0 11 0;
#X connect 21 0 6 0;
#X restore 241 103 pd thresh_amp;
#X obj 348 59 netpd_f \$1 \$2/threshold 0;
#X obj 348 89 netpd_f \$1 \$2/amp 0;
#N canvas 846 269 308 131 responsiveness 0;
#X obj 26 72 rh_scalelog 0.1 1000;
#X obj 26 45 netpd_f \$1 \$2/responsiveness 0.5;
#X obj 26 96 outlet;
#X connect 0 0 2 0;
#X connect 1 0 0 0;
#X restore 348 119 pd responsiveness;
#X connect 1 0 9 0;
#X connect 4 0 5 0;
#X connect 4 1 7 0;
#X connect 5 0 19 0;
#X connect 6 0 15 0;
#X connect 7 0 20 0;
#X connect 8 0 16 0;
#X connect 9 0 2 0;
#X connect 10 0 12 0;
#X connect 12 0 11 0;
#X connect 13 0 9 1;
#X connect 14 0 12 1;
#X connect 15 0 13 0;
#X connect 16 0 14 0;
#X connect 17 0 14 1;
#X connect 17 0 13 1;
#X connect 19 0 6 0;
#X connect 20 0 8 0;
#X connect 21 0 19 1;
#X connect 21 0 20 1;
#X connect 22 0 19 2;
#X connect 22 0 20 2;
#X connect 23 0 6 1;
#X connect 23 0 8 1;
