#N canvas 794 362 376 344 10;
#X text 167 19 by Enrique Erne;
#N canvas 1062 219 224 98 NETPD 0;
#X msg 15 13 version 0 1 4;
#X restore 81 17 pd NETPD 2 0;
#N canvas 518 451 190 119 \$3-e-am 0;
#X obj 13 13 hsl 130 15 0 10 0 0 \$1-\$2/f \$1-\$2/f amplitude-modulation
15 7 1 9 -262144 -1 -1 0 0;
#X obj 10 27 hradio 15 1 0 9 \$0-eam \$0-eam-r empty 0 -6 0 8 -262144
-1 -1 0;
#X restore 14 17 pd \$3-e-am;
#X obj 26 249 *~;
#X obj 160 250 *~;
#X obj 42 189 osc~ 0;
#X obj 225 95 loadbang;
#X obj 116 171 t b f;
#X obj 251 188 r \$0-eam;
#X obj 249 265 s \$0-eam-r;
#X msg 249 245 set \$1;
#X obj 42 229 *~ 0.5;
#X obj 42 209 +~ 1;
#X obj 116 191 f 1000;
#X obj 116 211 / 125;
#X obj 55 149 t b f;
#X obj 42 169 * 8;
#X obj 59 79 * 0.25;
#X obj 26 269 outlet~;
#X obj 160 270 outlet~;
#X obj 160 99 inlet~;
#X obj 26 98 inlet~;
#X obj 59 59 netpd_f \$1 \$2/f 0;
#X obj 225 140 s master;
#X msg 225 117 refresh;
#X obj 116 121 r master;
#X obj 116 143 route 16th;
#X obj 251 208 s \$1-\$2/f;
#X connect 3 0 18 0;
#X connect 4 0 19 0;
#X connect 5 0 12 0;
#X connect 6 0 24 0;
#X connect 7 0 13 0;
#X connect 7 1 14 1;
#X connect 8 0 27 0;
#X connect 10 0 9 0;
#X connect 11 0 3 1;
#X connect 11 0 4 1;
#X connect 12 0 11 0;
#X connect 13 0 14 0;
#X connect 14 0 15 0;
#X connect 15 0 16 0;
#X connect 15 1 16 1;
#X connect 16 0 5 0;
#X connect 17 0 16 0;
#X connect 20 0 4 0;
#X connect 21 0 3 0;
#X connect 22 0 10 0;
#X connect 22 0 17 0;
#X connect 24 0 23 0;
#X connect 25 0 26 0;
#X connect 26 0 7 0;
