#N canvas 880 177 582 293 10;
#N canvas 1061 159 231 103 NETPD 0;
#N canvas 0 50 350 106 abslist 0;
#X msg 8 8 roman_helpers;
#X msg 10 32 mx-fx-sc;
#X restore 14 49 pd abslist;
#X msg 14 17 version 0 0 2;
#X restore 144 9 pd NETPD 2 0;
#X obj 10 33 inlet~;
#X obj 11 185 outlet~;
#N canvas 621 144 253 77 \$3-e-am-sc 1;
#X obj 5 32 mx-fx-sc-gui \$1 \$2/sc;
#X text 58 31 side channel;
#X obj 8 51 hsl 45 12 0.1 1000 1 0 \$1-\$2/responsiveness \$1-\$2/responsiveness
empty -2 -8 0 10 -228856 -1 -1 0 1;
#X text 58 50 responsiveness;
#X obj 8 13 hsl 20 12 0 127 0 0 \$0.bli \$0.indicator.l empty -2 -8
0 10 -1 -1 -1 0 1;
#X obj 33 13 hsl 20 12 0 127 0 0 \$0.bli \$0.indicator.r empty -2 -8
0 10 -1 -1 -1 0 1;
#X restore 10 9 pd \$3-e-am-sc;
#X obj 223 34 mx-fx-sc \$1 \$2/sc;
#X obj 223 77 rh_abs~;
#X obj 223 100 lop~;
#X obj 379 120 netpd_f \$1 \$2/responsiveness 10;
#X obj 323 78 rh_abs~;
#X obj 323 101 lop~;
#X obj 11 157 *~;
#X obj 90 33 inlet~;
#X obj 91 185 outlet~;
#X obj 91 157 *~;
#N canvas 0 50 422 260 level 0;
#X obj 9 18 inlet~;
#X obj 10 183 outlet~;
#X obj 122 122 max 0;
#X obj 200 98 << 8;
#X obj 200 124 * -1;
#X obj 200 145 - 1;
#X obj 122 190 * 255;
#X obj 122 100 - 30;
#X obj 122 144 min 40;
#X obj 122 166 / 40;
#X obj 200 187 s \$0.indicator.l;
#X msg 200 165 color \$1 \$1 -1;
#X obj 122 77 env~ 2048 2048;
#X connect 0 0 1 0;
#X connect 0 0 12 0;
#X connect 2 0 8 0;
#X connect 3 0 4 0;
#X connect 4 0 5 0;
#X connect 5 0 11 0;
#X connect 6 0 3 0;
#X connect 7 0 2 0;
#X connect 8 0 9 0;
#X connect 9 0 6 0;
#X connect 11 0 10 0;
#X connect 12 0 7 0;
#X restore 223 55 pd level;
#N canvas 0 50 422 260 level 0;
#X obj 9 18 inlet~;
#X obj 10 183 outlet~;
#X obj 122 122 max 0;
#X obj 200 98 << 8;
#X obj 200 124 * -1;
#X obj 200 145 - 1;
#X obj 122 190 * 255;
#X obj 122 100 - 30;
#X obj 122 144 min 40;
#X obj 122 166 / 40;
#X msg 200 165 color \$1 \$1 -1;
#X obj 122 77 env~ 2048 2048;
#X obj 200 187 s \$0.indicator.r;
#X connect 0 0 1 0;
#X connect 0 0 11 0;
#X connect 2 0 8 0;
#X connect 3 0 4 0;
#X connect 4 0 5 0;
#X connect 5 0 10 0;
#X connect 6 0 3 0;
#X connect 7 0 2 0;
#X connect 8 0 9 0;
#X connect 9 0 6 0;
#X connect 10 0 12 0;
#X connect 11 0 7 0;
#X restore 323 55 pd level;
#X connect 1 0 10 0;
#X connect 4 0 14 0;
#X connect 4 1 15 0;
#X connect 5 0 6 0;
#X connect 6 0 10 1;
#X connect 7 0 6 1;
#X connect 7 0 9 1;
#X connect 8 0 9 0;
#X connect 9 0 13 1;
#X connect 10 0 2 0;
#X connect 11 0 13 0;
#X connect 13 0 12 0;
#X connect 14 0 5 0;
#X connect 15 0 8 0;
