#N canvas 498 228 204 127 10;
#X msg 16 58 version 0.1.7;
#X text 17 83 written by Enrique Erne;
#N canvas 629 339 188 74 \$2-e-bitcrush-gui 0;
#X obj 24 27 hsl 128 15 1 0 0 0 \$2_bit \$2_bit-r bitcrush -2 -6 1
9 -262144 -1 -1 0 0;
#X restore 16 18 pd \$2-e-bitcrush-gui;
#N canvas 531 359 465 240 e-bitcrush-code 0;
#X obj 17 18 r~ \$2-l;
#X obj 124 18 r~ \$2-r;
#X obj 17 179 throw~ \$2-l;
#X obj 124 179 throw~ \$2-r;
#X obj 140 88 wrap~;
#X obj 124 129 -~;
#X obj 140 68 +~ 0.1;
#X obj 140 109 -~ 0.1;
#X obj 33 88 wrap~;
#X obj 17 129 -~;
#X obj 33 68 +~ 0.1;
#X obj 33 109 -~ 0.1;
#X obj 17 48 *~ 127;
#X obj 124 48 *~ 127;
#X obj 124 149 /~ 127;
#X obj 17 149 /~ 127;
#X obj 199 28 netpd-fx \$1 \$2_bit \$2_bit-r 1;
#X obj 199 48 t f f;
#X obj 199 68 *;
#X obj 199 108 + 1;
#X obj 199 88 * 127;
#X connect 0 0 12 0;
#X connect 1 0 13 0;
#X connect 4 0 7 0;
#X connect 5 0 14 0;
#X connect 6 0 4 0;
#X connect 7 0 5 1;
#X connect 8 0 11 0;
#X connect 9 0 15 0;
#X connect 10 0 8 0;
#X connect 11 0 9 1;
#X connect 12 0 10 0;
#X connect 12 0 9 0;
#X connect 13 0 6 0;
#X connect 13 0 5 0;
#X connect 14 0 3 0;
#X connect 15 0 2 0;
#X connect 16 0 17 0;
#X connect 17 0 18 0;
#X connect 17 1 18 1;
#X connect 18 0 20 0;
#X connect 19 0 12 1;
#X connect 19 0 13 1;
#X connect 19 0 14 1;
#X connect 19 0 15 1;
#X connect 20 0 19 0;
#X restore 16 38 pd e-bitcrush-code;
