#N canvas 789 147 523 357 10;
#X obj 34 78 inlet~;
#X obj 197 79 inlet~;
#X obj 33 288 outlet~;
#X obj 197 288 outlet~;
#N canvas 1004 572 225 143 NETPD 0;
#N canvas 0 165 331 82 abslist 0;
#X msg 13 9 roman_helpers;
#X restore 8 39 pd abslist;
#X msg 7 15 version 0 2 1;
#X restore 34 21 pd NETPD 2 0;
#N canvas 704 159 579 590 load.IR 0;
#X obj 39 119 soundfiler;
#X obj 12 33 openpanel;
#X obj 12 7 r \$0.load;
#X obj 12 99 t b a;
#X obj 12 239 netpd_sample \$1 \$2/IR-l;
#X obj 190 239 netpd_sample \$1 \$2/IR-r;
#X obj 12 119 \$0;
#X obj 12 56 list append \$0.left \$0.right;
#X obj 12 189 t a a;
#X msg 12 78 read -resize \$1 \$2 \$3;
#X obj 378 22 table \$0.left 100;
#X obj 378 42 table \$0.right 100;
#X obj 12 169 pack f f;
#X msg 12 218 loadtable \$1.left 0 \$2;
#X msg 190 218 loadtable \$1.right 0 \$2;
#X obj 12 313 +;
#X obj 12 289 route updated;
#X obj 39 139 t a a;
#X obj 12 335 sel 0;
#X obj 174 436 array get \$1-\$2/IR-l-table;
#X obj 343 436 array get \$1-\$2/IR-r-table;
#X obj 174 456 list prepend 0;
#X obj 174 485 s \$0.left;
#X obj 343 456 list prepend 0;
#X obj 343 485 s \$0.right;
#X obj 12 356 t b b b;
#X msg 174 378 0;
#X obj 174 398 t a a;
#X obj 146 301 netpd_a \$1 \$2/IR-length;
#X msg 313 354 resize \$1;
#X obj 146 321 route float;
#X obj 12 259 t a a;
#X obj 57 262 s \$0.wavedisplay;
#X obj 12 525 outlet;
#X connect 0 0 17 0;
#X connect 1 0 7 0;
#X connect 2 0 1 0;
#X connect 3 0 6 0;
#X connect 3 1 0 0;
#X connect 4 0 31 0;
#X connect 6 0 12 0;
#X connect 7 0 9 0;
#X connect 8 0 13 0;
#X connect 8 1 14 0;
#X connect 9 0 3 0;
#X connect 12 0 8 0;
#X connect 13 0 4 0;
#X connect 14 0 5 0;
#X connect 15 0 18 0;
#X connect 16 0 15 0;
#X connect 17 0 12 1;
#X connect 17 1 28 0;
#X connect 18 0 25 0;
#X connect 19 0 21 0;
#X connect 20 0 23 0;
#X connect 21 0 22 0;
#X connect 23 0 24 0;
#X connect 25 0 33 0;
#X connect 25 2 26 0;
#X connect 26 0 27 0;
#X connect 27 0 19 0;
#X connect 27 1 20 0;
#X connect 28 0 30 0;
#X connect 29 0 22 0;
#X connect 29 0 24 0;
#X connect 30 0 18 1;
#X connect 30 0 29 0;
#X connect 30 0 19 1;
#X connect 30 0 20 1;
#X connect 31 0 16 0;
#X connect 31 1 32 0;
#X restore 289 47 pd load.IR;
#X obj 34 236 *~;
#X obj 198 239 *~;
#X obj 68 171 r \$0.level;
#X msg 68 191 \$1 50;
#X obj 272 271 env~ 8192 8192;
#X obj 272 291 s \$0.rms;
#X obj 385 109 netpd_f \$1 \$2/level 50;
#X obj 385 129 dbtorms;
#X obj 385 149 s \$0.level;
#X obj 68 211 line~;
#N canvas 946 174 450 300 wavedisplay 0;
#X obj 27 13 r \$0.wavedisplay;
#X msg 134 231 scale \$1;
#X obj 134 205 r \$0.wave.scale;
#X msg 27 68 range 0 \$1;
#X obj 27 37 route length updated;
#X obj 100 66 unpack;
#X obj 100 88 t a a;
#X obj 127 112 +;
#X obj 100 134 pack;
#X msg 100 159 update \$1 \$2;
#X obj 27 260 rh_wavedisplay \$1-\$2/IR-l-table \$0.IR;
#X connect 0 0 4 0;
#X connect 1 0 10 0;
#X connect 2 0 1 0;
#X connect 3 0 10 0;
#X connect 4 0 3 0;
#X connect 4 1 5 0;
#X connect 5 0 6 0;
#X connect 5 1 7 1;
#X connect 6 0 8 0;
#X connect 6 1 7 0;
#X connect 7 0 8 1;
#X connect 8 0 9 0;
#X connect 9 0 10 0;
#X restore 383 191 pd wavedisplay;
#X obj 34 143 rh_convolve~ \$0.left 128;
#X obj 197 143 rh_convolve~ \$0.right 128;
#X msg 289 90 analyze;
#N canvas 546 402 293 197 \$3-\$2 1;
#X obj 8 11 bng 15 250 50 0 \$0.load \$0.bli load_impulse_response
17 7 0 10 -262144 -1 -1;
#X obj 11 32 hsl 128 15 0 127 0 0 \$1-\$2/level \$1-\$2/level level
2 8 0 10 -262144 -1 -1 0 1;
#X floatatom 8 53 6 0 0 0 - #0.rms -;
#X text 49 52 dB (output);
#N canvas 0 0 450 300 (subpatch) 0;
#X array \$0.IR 500 float 2;
#X coords 0 1 500 -1 250 100 1 0 0;
#X restore 8 84 graph;
#X restore 34 45 pd \$3-\$2;
#X connect 0 0 17 0;
#X connect 1 0 18 0;
#X connect 5 0 19 0;
#X connect 6 0 2 0;
#X connect 6 0 10 0;
#X connect 7 0 3 0;
#X connect 7 0 10 0;
#X connect 8 0 9 0;
#X connect 9 0 15 0;
#X connect 10 0 11 0;
#X connect 12 0 13 0;
#X connect 13 0 14 0;
#X connect 15 0 6 1;
#X connect 15 0 7 1;
#X connect 17 0 6 0;
#X connect 18 0 7 0;
#X connect 19 0 18 1;
#X connect 19 0 17 1;
