#N canvas 664 380 540 352 10;
#N canvas 0 0 450 300 (subpatch) 0;
#X array \$0-hann 8192 float 0;
#X coords 0 1 8191 0 300 100 1 0 0;
#X restore 38 219 graph;
#X obj 451 224 osc~;
#X obj 451 249 *~ -0.5;
#X obj 451 273 +~ 0.5;
#X obj 404 306 tabwrite~ \$0-hann;
#X msg 455 189 0;
#X obj 403 190 t f b;
#X obj 403 142 samplerate~;
#X obj 403 165 /;
#X obj 403 116 t b a;
#X obj 34 88 inlet~;
#X obj 137 89 inlet~;
#X obj 33 153 outlet~;
#X obj 137 153 outlet~;
#X obj 403 65 bng 15 250 50 0 empty empty empty 17 7 0 10 -262144 -1
-1;
#X text 425 63 recalculate;
#N canvas 1019 223 225 110 NETPD 0;
#X msg 7 15 version 0 0 1;
#X restore 34 21 pd NETPD 2 0;
#N canvas 625 297 285 207 \$3-e-convolve 1;
#N canvas 0 22 450 300 (subpatch) 0;
#X array \$1-\$2/IR-l 8192 float 0;
#X coords 0 1 8191 -1 256 60 1 0 0;
#X restore 8 48 graph;
#N canvas 0 22 450 300 (subpatch) 0;
#X array \$1-\$2/IR-r 8192 float 0;
#X coords 0 1 8191 -1 256 60 1 0 0;
#X restore 8 124 graph;
#X obj 8 11 bng 15 250 50 0 \$0.load \$0.bli load_impulse_response
17 7 0 10 -262144 -1 -1;
#X restore 34 45 pd \$3-e-convolve;
#X msg 402 93 8192;
#N canvas 1180 44 500 411 convolution____ 0;
#X obj 53 31 inlet~;
#X obj 53 119 rfft~;
#X obj 52 331 *~;
#X obj 66 309 tabreceive~ \$0-hann;
#X obj 52 242 rifft~;
#X obj 52 358 outlet~;
#X obj 213 30 inlet~;
#X obj 213 118 rfft~;
#X obj 211 329 *~;
#X obj 225 307 tabreceive~ \$0-hann;
#X obj 212 241 rifft~;
#X obj 211 356 outlet~;
#X obj 52 189 rh_cmult;
#X obj 200 187 rh_cmult;
#X obj 53 82 *~;
#X obj 67 60 tabreceive~ \$0-hann;
#X obj 212 80 *~;
#X obj 226 58 tabreceive~ \$0-hann;
#X obj 379 337 block~ 8192 4;
#X obj 51 273 /~ 12288;
#X obj 212 265 /~ 12288;
#X obj 92 145 tabreceive~ \$0.IR-l.real;
#X obj 101 162 tabreceive~ \$0.IR-l.img;
#X obj 263 140 tabreceive~ \$0.IR-r.real;
#X obj 272 157 tabreceive~ \$0.IR-r.img;
#X connect 0 0 14 0;
#X connect 1 0 12 0;
#X connect 1 1 12 1;
#X connect 2 0 5 0;
#X connect 3 0 2 1;
#X connect 4 0 19 0;
#X connect 6 0 16 0;
#X connect 7 0 13 0;
#X connect 7 1 13 1;
#X connect 8 0 11 0;
#X connect 9 0 8 1;
#X connect 10 0 20 0;
#X connect 12 0 4 0;
#X connect 12 1 4 1;
#X connect 13 0 10 0;
#X connect 13 1 10 1;
#X connect 14 0 1 0;
#X connect 15 0 14 1;
#X connect 16 0 7 0;
#X connect 17 0 16 1;
#X connect 19 0 2 0;
#X connect 20 0 8 0;
#X connect 21 0 12 2;
#X connect 22 0 12 3;
#X connect 23 0 13 2;
#X connect 24 0 13 3;
#X restore 33 119 pd convolution____;
#X obj 400 38 loadbang;
#N canvas 927 672 450 300 load.IR 0;
#X obj 53 131 soundfiler;
#X obj 26 45 openpanel;
#X obj 26 68 list append \$1-\$2/IR-l \$1-\$2/IR-r;
#X obj 25 19 r \$0.load;
#X obj 168 138 table \$0.IR-l.real 8192;
#X obj 168 155 table \$0.IR-l.img 8192;
#X obj 168 174 table \$0.IR-r.real 8192;
#X obj 168 191 table \$0.IR-r.img 8192;
#X msg 26 90 read \$1 \$2 \$3;
#X obj 26 110 t b a;
#N canvas 395 509 478 298 gen.ir.fft 0;
#X obj 19 161 switch~ 8192;
#X obj 19 26 inlet;
#X obj 19 46 t b b;
#X obj 84 62 tabreceive~ \$1-\$2/IR-l;
#X obj 254 61 tabreceive~ \$1-\$2/IR-r;
#X obj 85 93 rfft~;
#X obj 255 92 rfft~;
#X obj 84 144 tabsend~ \$0.IR-l.real;
#X obj 111 124 tabsend~ \$0.IR-l.img;
#X obj 281 124 tabsend~ \$0.IR-r.img;
#X obj 254 144 tabsend~ \$0.IR-r.real;
#X connect 1 0 2 0;
#X connect 2 0 0 0;
#X connect 3 0 5 0;
#X connect 4 0 6 0;
#X connect 5 0 7 0;
#X connect 5 1 8 0;
#X connect 6 0 10 0;
#X connect 6 1 9 0;
#X restore 26 202 pd gen.ir.fft;
#X connect 1 0 2 0;
#X connect 2 0 8 0;
#X connect 3 0 1 0;
#X connect 8 0 9 0;
#X connect 9 0 10 0;
#X connect 9 1 0 0;
#X restore 231 94 pd load.IR;
#X connect 1 0 2 0;
#X connect 2 0 3 0;
#X connect 3 0 4 0;
#X connect 5 0 1 1;
#X connect 6 0 1 0;
#X connect 6 1 4 0;
#X connect 6 1 5 0;
#X connect 7 0 8 0;
#X connect 8 0 6 0;
#X connect 9 0 7 0;
#X connect 9 1 8 1;
#X connect 10 0 19 0;
#X connect 11 0 19 1;
#X connect 14 0 18 0;
#X connect 18 0 9 0;
#X connect 19 0 12 0;
#X connect 19 1 13 0;
#X connect 20 0 14 0;
