#N canvas 502 59 523 357 10;
#X obj 34 78 inlet~;
#X obj 167 79 inlet~;
#X obj 33 288 outlet~;
#X obj 167 288 outlet~;
#N canvas 1004 308 225 110 NETPD 0;
#N canvas 0 50 331 82 abslist 0;
#X msg 13 9 roman_helpers;
#X restore 8 39 pd abslist;
#X msg 7 15 version 0 1 0;
#X restore 34 21 pd NETPD 2 0;
#N canvas 546 142 302 93 \$3-e-convolve 1;
#X obj 8 11 bng 15 250 50 0 \$0.load \$0.bli load_impulse_response
17 7 0 10 -262144 -1 -1;
#X obj 11 32 hsl 128 15 0 127 0 0 \$1-\$2/level \$1-\$2/level level
2 8 0 10 -262144 -1 -1 9000 1;
#X floatatom 8 53 6 0 0 0 - #0.rms -, f 6;
#X text 49 52 dB (output);
#X restore 34 45 pd \$3-e-convolve;
#N canvas 704 101 618 591 load.IR 0;
#X obj 39 119 soundfiler;
#X obj 12 33 openpanel;
#X obj 12 7 r \$0.load;
#X obj 12 99 t b a;
#X obj 12 249 netpd_sample \$1 \$2/IR-l;
#X obj 190 249 netpd_sample \$1 \$2/IR-r;
#X obj 12 119 \$0;
#X obj 12 56 list append \$0.left \$0.right;
#X obj 12 189 t a a;
#X msg 12 78 read -resize \$1 \$2 \$3;
#X obj 378 22 table \$0.left 100;
#X obj 378 42 table \$0.right 100;
#X obj 12 169 pack f f;
#X msg 12 228 loadtable \$1.left 0 \$2;
#X msg 190 228 loadtable \$1.right 0 \$2;
#X obj 12 293 +;
#X obj 12 269 route updated;
#X obj 39 139 t a a;
#X obj 12 315 sel 0;
#X obj 174 416 array get \$1-\$2/IR-l-table;
#X obj 343 416 array get \$1-\$2/IR-r-table;
#X obj 174 436 list prepend 0;
#X obj 174 465 s \$0.left;
#X obj 343 436 list prepend 0;
#X obj 343 465 s \$0.right;
#X obj 12 336 t b b b;
#X msg 174 358 0;
#X obj 174 378 t a a;
#X obj 146 281 netpd_a \$1 \$2/IR-length;
#X msg 313 334 resize \$1;
#X msg 12 514 analyze \$1.left;
#X obj 12 490 \$0;
#X obj 12 534 s \$0.conv.l;
#X obj 115 490 \$0;
#X msg 115 514 analyze \$1.right;
#X obj 146 301 route float;
#X obj 115 534 s \$0.conv.r;
#X connect 0 0 17 0;
#X connect 1 0 7 0;
#X connect 2 0 1 0;
#X connect 3 0 6 0;
#X connect 3 1 0 0;
#X connect 4 0 16 0;
#X connect 6 0 12 0;
#X connect 7 0 9 0;
#X connect 8 0 13 0;
#X connect 8 1 14 0;
#X connect 9 0 3 0;
#X connect 12 0 8 0;
#X connect 13 0 4 0;
#X connect 14 0 5 0;
#X connect 15 0 18 0;
#X connect 16 0 15 0;
#X connect 17 0 12 1;
#X connect 17 1 28 0;
#X connect 18 0 25 0;
#X connect 19 0 21 0;
#X connect 20 0 23 0;
#X connect 21 0 22 0;
#X connect 23 0 24 0;
#X connect 25 0 31 0;
#X connect 25 1 33 0;
#X connect 25 2 26 0;
#X connect 26 0 27 0;
#X connect 27 0 19 0;
#X connect 27 1 20 0;
#X connect 28 0 35 0;
#X connect 29 0 22 0;
#X connect 29 0 24 0;
#X connect 30 0 32 0;
#X connect 31 0 30 0;
#X connect 33 0 34 0;
#X connect 34 0 36 0;
#X connect 35 0 18 1;
#X connect 35 0 29 0;
#X connect 35 0 19 1;
#X connect 35 0 20 1;
#X restore 335 66 pd load.IR;
#X obj 34 143 convolve~ 1024;
#X obj 167 143 convolve~ 1024;
#X obj 34 236 *~;
#X obj 168 239 *~;
#X obj 73 111 r \$0.conv.l;
#X obj 199 110 r \$0.conv.r;
#X obj 68 171 r \$0.level;
#X msg 68 191 \$1 50;
#X obj 242 271 env~ 8192 8192;
#X obj 242 291 s \$0.rms;
#X obj 335 109 netpd_f \$1 \$2/level 50;
#X obj 335 129 dbtorms;
#X obj 335 149 s \$0.level;
#X obj 68 211 line~;
#X connect 0 0 7 0;
#X connect 1 0 8 0;
#X connect 7 0 9 0;
#X connect 8 0 10 0;
#X connect 9 0 2 0;
#X connect 9 0 15 0;
#X connect 10 0 3 0;
#X connect 10 0 15 0;
#X connect 11 0 7 0;
#X connect 12 0 8 0;
#X connect 13 0 14 0;
#X connect 14 0 20 0;
#X connect 15 0 16 0;
#X connect 17 0 18 0;
#X connect 18 0 19 0;
#X connect 20 0 9 1;
#X connect 20 0 10 1;
