#N canvas 514 99 410 208 10;
#X obj 34 88 inlet~;
#X obj 137 89 inlet~;
#X obj 33 153 outlet~;
#X obj 137 153 outlet~;
#N canvas 1010 274 225 110 NETPD 0;
#N canvas 0 50 331 82 abslist 0;
#X msg 13 9 roman_helpers;
#X restore 8 39 pd abslist;
#X msg 7 15 version 0 0 2;
#X restore 34 21 pd NETPD 2 0;
#N canvas 573 232 295 204 \$3-e-convolve 1;
#N canvas 0 50 450 300 (subpatch) 0;
#X array \$0.left 8192 float 0;
#X coords 0 1 8191 -1 256 60 1 0 0;
#X restore 8 48 graph;
#N canvas 0 50 450 300 (subpatch) 0;
#X array \$0.right 8192 float 0;
#X coords 0 1 8191 -1 256 60 1 0 0;
#X restore 8 124 graph;
#X obj 8 11 bng 15 250 50 0 \$0.load \$0.bli load_impulse_response
17 7 0 10 -262144 -1 -1;
#X restore 34 45 pd \$3-e-convolve;
#N canvas 878 43 500 411 convolution____ 0;
#X obj 53 31 inlet~;
#X obj 53 119 rfft~;
#X obj 52 242 rifft~;
#X obj 52 358 outlet~;
#X obj 213 30 inlet~;
#X obj 213 118 rfft~;
#X obj 212 241 rifft~;
#X obj 211 356 outlet~;
#X obj 53 82 *~;
#X obj 212 80 *~;
#X obj 92 145 tabreceive~ \$0.IR-l.real;
#X obj 101 162 tabreceive~ \$0.IR-l.img;
#X obj 263 140 tabreceive~ \$0.IR-r.real;
#X obj 272 157 tabreceive~ \$0.IR-r.img;
#X obj 52 189 rh_cmult~;
#X obj 200 187 rh_cmult~;
#X obj 67 60 tabreceive~ \$0.zero.pad;
#X obj 226 58 tabreceive~ \$0.zero.pad;
#X obj 387 358 block~ 16384 2;
#X obj 51 293 *~ 0;
#X msg 133 242 1 \$1;
#X obj 133 262 /;
#X obj 212 296 *~ 0;
#X obj 133 200 loadbang;
#X msg 133 220 32768;
#X connect 0 0 8 0;
#X connect 1 0 14 0;
#X connect 1 1 14 1;
#X connect 2 0 19 0;
#X connect 4 0 9 0;
#X connect 5 0 15 0;
#X connect 5 1 15 1;
#X connect 6 0 22 0;
#X connect 8 0 1 0;
#X connect 9 0 5 0;
#X connect 10 0 14 2;
#X connect 11 0 14 3;
#X connect 12 0 15 2;
#X connect 13 0 15 3;
#X connect 14 0 2 0;
#X connect 14 1 2 1;
#X connect 15 0 6 0;
#X connect 15 1 6 1;
#X connect 16 0 8 1;
#X connect 17 0 9 1;
#X connect 19 0 3 0;
#X connect 20 0 21 0;
#X connect 21 0 19 1;
#X connect 21 0 22 1;
#X connect 22 0 7 0;
#X connect 23 0 24 0;
#X connect 24 0 20 0;
#X restore 33 119 pd convolution____;
#N canvas 725 171 453 346 load.IR 0;
#X obj 39 119 soundfiler;
#X obj 12 33 openpanel;
#X obj 12 7 r \$0.load;
#X msg 12 78 read \$1 \$2 \$3;
#X obj 12 99 t b a;
#N canvas 386 479 478 298 gen.ir.fft 0;
#X obj 19 26 inlet;
#X obj 19 46 t b b;
#X obj 85 93 rfft~;
#X obj 269 94 rfft~;
#X obj 84 144 tabsend~ \$0.IR-l.real;
#X obj 111 124 tabsend~ \$0.IR-l.img;
#X obj 295 126 tabsend~ \$0.IR-r.img;
#X obj 268 146 tabsend~ \$0.IR-r.real;
#X obj 19 161 switch~ 16384;
#X obj 84 62 tabreceive~ \$1-\$2/IR-l-table;
#X obj 268 63 tabreceive~ \$1-\$2/IR-r-table;
#X connect 0 0 1 0;
#X connect 1 0 8 0;
#X connect 2 0 4 0;
#X connect 2 1 5 0;
#X connect 3 0 7 0;
#X connect 3 1 6 0;
#X connect 9 0 2 0;
#X connect 10 0 3 0;
#X restore 12 317 pd gen.ir.fft;
#X obj 268 254 table \$0.IR-l.real 16384;
#X obj 268 271 table \$0.IR-l.img 16384;
#X obj 268 290 table \$0.IR-r.real 16384;
#X obj 268 307 table \$0.IR-r.img 16384;
#X obj 12 179 netpd_sample \$1 \$2/IR-l;
#X obj 98 221 netpd_sample \$1 \$2/IR-r;
#X obj 12 119 \$0;
#X msg 12 158 loadtable \$1.left 0 8192;
#X msg 98 202 loadtable \$1.right 0 8192;
#X obj 12 56 list append \$0.left \$0.right;
#X obj 98 241 route updated;
#X obj 98 261 sel 7168;
#X obj 12 202 route updated;
#X obj 12 222 sel 7168;
#X obj 12 139 t a a;
#X connect 1 0 15 0;
#X connect 2 0 1 0;
#X connect 3 0 4 0;
#X connect 4 0 12 0;
#X connect 4 1 0 0;
#X connect 10 0 18 0;
#X connect 11 0 16 0;
#X connect 12 0 20 0;
#X connect 13 0 10 0;
#X connect 14 0 11 0;
#X connect 15 0 3 0;
#X connect 16 0 17 0;
#X connect 18 0 19 0;
#X connect 19 0 5 0;
#X connect 20 0 13 0;
#X connect 20 1 14 0;
#X restore 231 53 pd load.IR;
#X obj 235 161 table \$0.zero.pad 8192;
#X obj 235 129 s \$0.zero.pad;
#X obj 235 87 loadbang;
#X msg 235 107 const 1 \, resize 16384;
#X connect 0 0 6 0;
#X connect 1 0 6 1;
#X connect 6 0 2 0;
#X connect 6 1 3 0;
#X connect 10 0 11 0;
#X connect 11 0 9 0;
