#N canvas 789 147 523 357 10;
#X obj 34 78 inlet~;
#X obj 167 79 inlet~;
#X obj 33 288 outlet~;
#X obj 167 288 outlet~;
#N canvas 1004 473 225 143 NETPD 0;
#N canvas 0 132 331 82 abslist 0;
#X msg 13 9 roman_helpers;
#X restore 8 39 pd abslist;
#X msg 7 15 version 0 1 1;
#X restore 34 21 pd NETPD 2 0;
#N canvas 546 237 304 199 \$3-e-convolve 1;
#X obj 8 11 bng 15 250 50 0 \$0.load \$0.bli load_impulse_response
17 7 0 10 -262144 -1 -1;
#X obj 11 32 hsl 128 15 0 127 0 0 \$1-\$2/level \$1-\$2/level level
2 8 0 10 -262144 -1 -1 200 1;
#X floatatom 8 53 6 0 0 0 - #0.rms -;
#X text 49 52 dB (output);
#N canvas 0 0 450 300 (subpatch) 0;
#X array \$0.IR 500 float 3;
#A 0 0 0 0 0 0 0 0 0 0 0 0 0 0 0 0 0 0 0 0 0 0 0 0 0 0 0 0 0 0 0 0
0 0 0 0 0 0 0 0 0 0 0 0 0 0 0 0 0 0 0 0 0 0 0 0 0 0 0 0 0 0 0 0 0 0
0 0 0 0 0 0 0 0 0 0 0 0 0 0 0 0 0 0 0 0 0 0 0 0 0 0 0 0 0 0 0 0 0 0
0 0 0 0 0 0 0 0 0 0 0 0 0 0 0 0 0 0 0 0 0 0 0 0 0 0 0 0 0 0 0 0 0 0
0 0 0 0 0 0 0 0 0 0 0 0 0 0 0 0 0 0 0 0 0 0 0 0 0 0 0 0 0 0 0 0 0 0
0 0 0 0 0 0 0 0 0 0 0 0 0 0 0 0 0 0 0 0 0 0 0 0 0 0 0 0 0 0 0 0 0 0
0 0 0 0 0 0 0 0 0 0 0 0 0 0 0 0 0 0 0 0 0 0 0 0 0 0 0 0 0 0 0 0 0 0
0 0 0 0 0 0 0 0 0 0 0 0 0 0 0 0 0 0 0 0 0 0 0 0 0 0 0 0 0 0 0 0 0 0
0 0 0 0 0 0 0 0 0 0 0 0 0 0 0 0 0 0 0 0 0 0 0 0 0 0 0 0 0 0 0 0 0 0
0 0 0 0 0 0 0 0 0 0 0 0 0 0 0 0 0 0 0 0 0 0 0 0 0 0 0 0 0 0 0 0 0 0
0 0 0 0 0 0 0 0 0 0 0 0 0 0 0 0 0 0 0 0 0 0 0 0 0 0 0 0 0 0 0 0 0 0
0 0 0 0 0 0 0 0 0 0 0 0 0 0 0 0 0 0 0 0 0 0 0 0 0 0 0 0 0 0 0 0 0 0
0 0 0 0 0 0 0 0 0 0 0 0 0 0 0 0 0 0 0 0 0 0 0 0 0 0 0 0 0 0 0 0 0 0
0 0 0 0 0 0 0 0 0 0 0 0 0 0 0 0 0 0 0 0 0 0 0 0 0 0 0 0 0 0 0 0 0 0
0 0 0 0 0 0 0 0 0 0 0 0 0 0 0 0 0 0 0 0 0 0 0 0 0 0 0;
#X coords 0 1 500 -1 250 100 1 0 0;
#X restore 8 84 graph;
#X restore 34 45 pd \$3-e-convolve;
#N canvas 704 159 579 590 load.IR 0;
#X obj 39 119 soundfiler;
#X obj 12 33 openpanel;
#X obj 12 7 r \$0.load;
#X obj 12 99 t b a;
#X obj 12 239 netpd_sample \$1 \$2/IR-l;
#X obj 190 239 netpd_sample \$1 \$2/IR-r;
#X obj 12 119 \$0;
#X obj 12 56 list append \$0.left \$0.right;
#X obj 12 189 t a a;
#X msg 12 78 read -resize \$1 \$2 \$3;
#X obj 378 22 table \$0.left 100;
#X obj 378 42 table \$0.right 100;
#X obj 12 169 pack f f;
#X msg 12 218 loadtable \$1.left 0 \$2;
#X msg 190 218 loadtable \$1.right 0 \$2;
#X obj 12 313 +;
#X obj 12 289 route updated;
#X obj 39 139 t a a;
#X obj 12 335 sel 0;
#X obj 174 436 array get \$1-\$2/IR-l-table;
#X obj 343 436 array get \$1-\$2/IR-r-table;
#X obj 174 456 list prepend 0;
#X obj 174 485 s \$0.left;
#X obj 343 456 list prepend 0;
#X obj 343 485 s \$0.right;
#X obj 12 356 t b b b;
#X msg 174 378 0;
#X obj 174 398 t a a;
#X obj 146 301 netpd_a \$1 \$2/IR-length;
#X msg 313 354 resize \$1;
#X msg 12 534 analyze \$1.left;
#X obj 12 510 \$0;
#X obj 12 554 s \$0.conv.l;
#X obj 115 510 \$0;
#X msg 115 534 analyze \$1.right;
#X obj 146 321 route float;
#X obj 115 554 s \$0.conv.r;
#X obj 12 259 t a a;
#X obj 57 262 s \$0.wavedisplay;
#X connect 0 0 17 0;
#X connect 1 0 7 0;
#X connect 2 0 1 0;
#X connect 3 0 6 0;
#X connect 3 1 0 0;
#X connect 4 0 37 0;
#X connect 6 0 12 0;
#X connect 7 0 9 0;
#X connect 8 0 13 0;
#X connect 8 1 14 0;
#X connect 9 0 3 0;
#X connect 12 0 8 0;
#X connect 13 0 4 0;
#X connect 14 0 5 0;
#X connect 15 0 18 0;
#X connect 16 0 15 0;
#X connect 17 0 12 1;
#X connect 17 1 28 0;
#X connect 18 0 25 0;
#X connect 19 0 21 0;
#X connect 20 0 23 0;
#X connect 21 0 22 0;
#X connect 23 0 24 0;
#X connect 25 0 31 0;
#X connect 25 1 33 0;
#X connect 25 2 26 0;
#X connect 26 0 27 0;
#X connect 27 0 19 0;
#X connect 27 1 20 0;
#X connect 28 0 35 0;
#X connect 29 0 22 0;
#X connect 29 0 24 0;
#X connect 30 0 32 0;
#X connect 31 0 30 0;
#X connect 33 0 34 0;
#X connect 34 0 36 0;
#X connect 35 0 18 1;
#X connect 35 0 29 0;
#X connect 35 0 19 1;
#X connect 35 0 20 1;
#X connect 37 0 16 0;
#X connect 37 1 38 0;
#X restore 335 66 pd load.IR;
#X obj 167 143 convolve~ 1024;
#X obj 34 236 *~;
#X obj 168 239 *~;
#X obj 68 171 r \$0.level;
#X msg 68 191 \$1 50;
#X obj 242 271 env~ 8192 8192;
#X obj 242 291 s \$0.rms;
#X obj 335 109 netpd_f \$1 \$2/level 50;
#X obj 335 129 dbtorms;
#X obj 335 149 s \$0.level;
#X obj 68 211 line~;
#N canvas 946 174 450 300 wavedisplay 0;
#X obj 27 13 r \$0.wavedisplay;
#X msg 134 231 scale \$1;
#X obj 134 205 r \$0.wave.scale;
#X msg 27 68 range 0 \$1;
#X obj 27 37 route length updated;
#X obj 100 66 unpack;
#X obj 100 88 t a a;
#X obj 127 112 +;
#X obj 100 134 pack;
#X msg 100 159 update \$1 \$2;
#X obj 27 260 rh_wavedisplay \$1-\$2/IR-l-table \$0.IR;
#X connect 0 0 4 0;
#X connect 1 0 10 0;
#X connect 2 0 1 0;
#X connect 3 0 10 0;
#X connect 4 0 3 0;
#X connect 4 1 5 0;
#X connect 5 0 6 0;
#X connect 5 1 7 1;
#X connect 6 0 8 0;
#X connect 6 1 7 0;
#X connect 7 0 8 1;
#X connect 8 0 9 0;
#X connect 9 0 10 0;
#X restore 333 191 pd wavedisplay;
#N canvas 876 495 388 336 partconv~ 1;
#X obj 15 16 inlet~;
#X obj 14 204 outlet~;
#X obj 15 154 *~;
#N canvas 149 330 450 300 \$0-container 0;
#X obj 161 51 inlet~;
#X obj 161 166 outlet~;
#N canvas 574 52 450 300 \$0-clone 0;
#X obj 300 50 inlet~;
#X obj 100 100 clone pp.fft-partconv-part 2 1495 1024;
#X obj 100 200 outlet~;
#X connect 0 0 1 1;
#X connect 1 0 2 0;
#X restore 161 108 pd \$0-clone;
#X connect 0 0 2 0;
#X connect 2 0 1 0;
#X restore 14 82 pd \$0-container;
#X obj 46 154 /;
#X msg 46 133 1 \$1;
#X obj 46 111 r \$0-nparts;
#N canvas 639 142 671 466 create 0;
#N canvas 135 212 481 458 max-parts 0;
#N canvas 324 52 661 713 samples-onset 0;
#X obj 343 555 * 128;
#X obj 342 289 / 2;
#X obj 342 271 + 0.5;
#X obj 100 573 +;
#X obj 181 362 mod 2;
#X obj 129 546 * 0.5;
#X obj 100 497 list prepend 0;
#X obj 100 518 route 0 1;
#X obj 100 546 * 0;
#X obj 100 350 t f f;
#X obj 224 589 +;
#X obj 342 310 i;
#X obj 359 364 until;
#X obj 359 402 f 1;
#X obj 390 402 + 1;
#X msg 401 368 1;
#X obj 359 423 expr pow(2 \, $f1);
#X obj 359 444 t b f;
#X obj 359 489 f;
#X msg 490 414 0;
#X obj 415 498 +;
#X obj 343 536 f;
#X obj 342 330 t b f b b;
#X obj 472 521 / 2;
#X obj 342 246 f 12;
#X obj 101 167 / 2;
#X obj 101 188 i;
#X obj 101 149 + 0.5;
#X obj 101 220 + 8;
#X obj 101 241 min 20;
#X obj 101 260 expr pow(2 \, $f1);
#X obj 251 87 t float bang float bang;
#X obj 224 610 outlet;
#X obj 233 55 inlet;
#X obj 505 72 inlet;
#X obj 146 192 expr ln($f2)/ln(2);
#X obj 472 500 f 1024;
#X connect 0 0 3 1;
#X connect 1 0 11 0;
#X connect 2 0 1 0;
#X connect 3 0 10 0;
#X connect 4 0 6 1;
#X connect 5 0 3 0;
#X connect 6 0 7 0;
#X connect 7 0 8 0;
#X connect 7 1 5 0;
#X connect 8 0 3 0;
#X connect 9 0 6 0;
#X connect 9 1 10 1;
#X connect 10 0 32 0;
#X connect 11 0 22 0;
#X connect 12 0 13 0;
#X connect 13 0 14 0;
#X connect 13 0 16 0;
#X connect 14 0 13 1;
#X connect 15 0 13 1;
#X connect 16 0 17 0;
#X connect 17 0 18 0;
#X connect 17 1 20 1;
#X connect 18 0 20 0;
#X connect 19 0 18 1;
#X connect 19 0 21 0;
#X connect 20 0 18 1;
#X connect 20 0 21 1;
#X connect 21 0 0 0;
#X connect 22 0 21 0;
#X connect 22 1 12 0;
#X connect 22 2 15 0;
#X connect 22 3 19 0;
#X connect 23 0 0 1;
#X connect 24 0 2 0;
#X connect 24 0 4 0;
#X connect 25 0 26 0;
#X connect 26 0 28 0;
#X connect 27 0 25 0;
#X connect 28 0 29 0;
#X connect 29 0 30 0;
#X connect 30 0 9 0;
#X connect 31 0 27 0;
#X connect 31 1 35 0;
#X connect 31 2 24 0;
#X connect 31 3 36 0;
#X connect 33 0 31 0;
#X connect 34 0 35 1;
#X connect 34 0 36 1;
#X connect 35 0 28 1;
#X connect 36 0 23 0;
#X restore 275 205 pd samples-onset;
#X obj 275 237 <;
#X obj 165 143 f;
#X obj 197 144 + 1;
#X msg 204 118 0;
#X obj 164 81 t b b f;
#X obj 187 292 f;
#X obj 275 258 sel 0 1;
#X obj 175 174 t f f;
#X obj 164 120 until;
#X obj 187 313 outlet;
#X obj 369 71 inlet;
#X obj 164 36 inlet;
#X connect 0 0 1 0;
#X connect 1 0 7 0;
#X connect 2 0 3 0;
#X connect 2 0 8 0;
#X connect 3 0 2 1;
#X connect 4 0 2 1;
#X connect 5 0 9 0;
#X connect 5 1 4 0;
#X connect 5 2 1 1;
#X connect 6 0 10 0;
#X connect 7 0 9 1;
#X connect 7 0 6 0;
#X connect 8 0 0 0;
#X connect 8 1 6 1;
#X connect 9 0 2 0;
#X connect 11 0 0 1;
#X connect 12 0 5 0;
#X restore 103 188 pd max-parts;
#X obj 244 327 s pd-\$0-clone;
#X msg 224 354 connect 0 0 2 0 \, connect 2 0 1 0;
#X obj 224 377 s pd-\$0-container;
#X obj 205 256 t b b a;
#X obj 135 351 s \$0-loadbang;
#X obj 205 235 pack 0 \$0 0;
#X msg 244 279 clear \, obj 300 50 inlet~ \, obj 100 100 clone pp.fft-partconv-part
\$1 \$2 \$3 \, obj 100 200 outlet~ \, connect 0 0 1 1 \, connect 1
0 2 0;
#X obj 69 32 r \$0-ir-length;
#X obj 103 114 f;
#X obj 196 -7 r \$0-window-size;
#X obj 196 14 t b f f;
#X obj 103 166 min 44100;
#X obj 103 209 + 2;
#X obj 103 249 s \$0-nparts;
#X connect 0 0 13 0;
#X connect 2 0 3 0;
#X connect 4 0 5 0;
#X connect 4 1 2 0;
#X connect 4 2 7 0;
#X connect 6 0 4 0;
#X connect 7 0 1 0;
#X connect 8 0 9 0;
#X connect 9 0 12 0;
#X connect 10 0 11 0;
#X connect 11 0 9 0;
#X connect 11 1 0 1;
#X connect 11 2 6 2;
#X connect 12 0 0 0;
#X connect 13 0 6 0;
#X connect 13 0 14 0;
#X restore 155 106 pd create;
#X obj 155 16 inlet;
#N canvas 3 99 692 496 in 1;
#X obj 134 212 s \$0-open;
#X obj 134 189 symbol;
#X obj 134 31 inlet;
#X obj 214 218 clip 0 100;
#X obj 214 239 s \$0-drywetr;
#X obj 227 171 loadbang;
#X msg 227 192 100;
#N canvas 470 178 450 300 set 0;
#X obj 161 48 inlet;
#X obj 161 69 symbol;
#X obj 209 129 array size;
#X obj 209 152 s \$0-ir-length;
#X obj 161 89 t s b s;
#X obj 162 219 s \$0-set-imp;
#X msg 81 159 label \$1;
#X obj 81 181 s \$0-irname;
#X msg 162 197 set \$1;
#X connect 0 0 1 0;
#X connect 1 0 4 0;
#X connect 2 0 3 0;
#X connect 4 0 6 0;
#X connect 4 0 8 0;
#X connect 4 1 2 0;
#X connect 4 2 2 1;
#X connect 6 0 7 0;
#X connect 8 0 5 0;
#X restore 248 131 pd set;
#X obj 319 247 s \$0-window-size;
#N canvas 3 52 617 375 blocksize 0;
#X obj 214 145 i;
#X obj 214 120 t f f;
#X obj 214 166 /;
#X obj 214 99 expr ln($f1)/ln(2);
#X obj 214 186 == 1;
#X obj 184 76 t f f;
#X obj 184 212 spigot;
#X text 249 141 prevent setting blocksizes that are not a power of
2;
#X msg 244 244 blocksize is not a power of 2;
#X obj 184 294 outlet;
#X obj 244 222 sel 0;
#X obj 184 54 inlet;
#X obj 244 265 print pp.fft-partconv~;
#X connect 0 0 2 0;
#X connect 1 0 0 0;
#X connect 1 1 2 1;
#X connect 2 0 4 0;
#X connect 3 0 1 0;
#X connect 4 0 6 1;
#X connect 4 0 10 0;
#X connect 5 0 6 0;
#X connect 5 1 3 0;
#X connect 6 0 9 0;
#X connect 8 0 12 0;
#X connect 10 0 8 0;
#X connect 11 0 5 0;
#X restore 319 187 pd blocksize;
#X obj 359 128 f \$1;
#X obj 359 149 sel 0;
#X msg 359 222 1024;
#X obj 134 51 route loadIR dry/wet set blocksize;
#X obj 359 103 loadbang;
#X connect 1 0 0 0;
#X connect 2 0 13 0;
#X connect 3 0 4 0;
#X connect 5 0 6 0;
#X connect 6 0 4 0;
#X connect 9 0 8 0;
#X connect 10 0 11 0;
#X connect 11 0 12 0;
#X connect 11 1 9 0;
#X connect 12 0 8 0;
#X connect 13 0 1 0;
#X connect 13 1 3 0;
#X connect 13 2 7 0;
#X connect 13 3 9 0;
#X connect 14 0 10 0;
#X restore 155 38 pd in;
#N canvas 372 233 812 470 load-IR 0;
#X obj 257 210 soundfiler;
#X msg 257 189 read -resize \$1 \$2-impulse;
#X obj 257 168 pack s \$0;
#X obj 205 315 s \$0-ir-length;
#N canvas 297 131 797 390 sondfile-info 0;
#N canvas 3 50 476 397 splitfilename 0;
#N canvas 0 50 450 300 listget 0;
#X obj 153 146 list split;
#X obj 210 193 list length;
#X obj 153 170 t l l;
#X obj 153 237 list split;
#X obj 210 216 - 1;
#X obj 151 116 list;
#X obj 319 37 inlet list;
#X obj 181 266 outlet element;
#X obj 143 24 inlet n;
#X obj 152 54 t b f;
#X obj 220 121 max 1;
#X connect 0 0 2 0;
#X connect 1 0 4 0;
#X connect 2 0 3 0;
#X connect 2 1 1 0;
#X connect 3 1 7 0;
#X connect 4 0 3 1;
#X connect 5 0 0 0;
#X connect 6 0 5 1;
#X connect 8 0 9 0;
#X connect 9 0 5 0;
#X connect 9 1 10 0;
#X connect 10 0 0 1;
#X restore 163 237 pd listget;
#X obj 163 51 list fromsymbol;
#X obj 163 73 trigger list list bang;
#X obj 163 95 list length;
#X obj 163 151 until;
#X obj 163 173 f;
#X obj 195 185 - 1;
#X obj 163 259 t f f;
#X obj 163 118 t f f;
#X obj 215 303 t l;
#X obj 246 348 list;
#X obj 319 286 sel;
#X obj 319 309 t b b;
#X obj 246 370 list tosymbol;
#X obj 337 220 loadbang;
#X obj 337 242 symbol /;
#X obj 337 264 list fromsymbol;
#X obj 163 29 inlet symbol path;
#X obj 246 392 outlet symbol filename;
#X obj 163 294 list;
#X obj 70 274 sel 1;
#X obj 70 251 t f f;
#X connect 0 0 7 0;
#X connect 1 0 2 0;
#X connect 2 0 3 0;
#X connect 2 1 0 1;
#X connect 2 2 19 1;
#X connect 3 0 8 0;
#X connect 4 0 5 0;
#X connect 5 0 6 0;
#X connect 5 0 21 0;
#X connect 6 0 5 1;
#X connect 7 0 19 0;
#X connect 7 1 11 0;
#X connect 8 0 4 0;
#X connect 8 1 5 1;
#X connect 9 0 19 1;
#X connect 10 0 13 0;
#X connect 11 0 12 0;
#X connect 12 0 10 0;
#X connect 12 1 4 1;
#X connect 13 0 18 0;
#X connect 14 0 15 0;
#X connect 15 0 16 0;
#X connect 16 0 11 1;
#X connect 17 0 1 0;
#X connect 19 0 9 0;
#X connect 19 0 10 1;
#X connect 20 0 10 0;
#X connect 21 0 20 0;
#X connect 21 1 0 0;
#X restore 341 65 pd splitfilename;
#X obj 341 43 inlet path;
#X obj 53 35 inlet samp.length;
#X obj 52 82 sel 1;
#X msg 158 244 loaded IR: \$1;
#X obj 52 104 del 1;
#X msg 51 126 IR-lenght exceed buffer;
#X msg 479 106 label \$1;
#X msg 460 79 label empty..;
#X obj 460 56 loadbang;
#X obj 479 128 s \$0-irname;
#X obj 52 60 >;
#X obj 158 271 print pp.fft-partconv~;
#X connect 0 0 7 0;
#X connect 0 0 4 0;
#X connect 1 0 0 0;
#X connect 3 0 5 0;
#X connect 4 0 12 0;
#X connect 5 0 6 0;
#X connect 6 0 12 0;
#X connect 7 0 10 0;
#X connect 8 0 10 0;
#X connect 9 0 8 0;
#X connect 11 0 3 0;
#X restore 306 310 pd sondfile-info;
#X obj 368 70 openpanel;
#X obj 217 52 r \$0-open;
#X obj 368 92 s \$0-open;
#X obj 314 254 s \$0-ir-samprate;
#X msg 314 233 \$1;
#X obj 302 120 t a a;
#X obj 562 86 table \$0-impulse;
#X obj 368 48 r \$0-obng;
#X connect 0 0 3 0;
#X connect 0 0 4 0;
#X connect 0 1 9 0;
#X connect 1 0 0 0;
#X connect 2 0 1 0;
#X connect 5 0 7 0;
#X connect 6 0 10 0;
#X connect 9 0 8 0;
#X connect 10 0 2 0;
#X connect 10 1 4 1;
#X connect 12 0 5 0;
#X restore 155 82 pd load-IR;
#X text 5 292 philipp schmalfuß \, 2018;
#X text 6 261 The parted convolution part was originally written and
posted on the pure data mailing list at 2019-01-08 by:;
#X connect 0 0 3 0;
#X connect 2 0 1 0;
#X connect 3 0 2 0;
#X connect 4 0 2 1;
#X connect 5 0 4 0;
#X connect 6 0 5 0;
#X connect 8 0 9 0;
#X restore 34 143 pd partconv~;
#X connect 0 0 19 0;
#X connect 1 0 7 0;
#X connect 7 0 9 0;
#X connect 8 0 2 0;
#X connect 8 0 12 0;
#X connect 9 0 3 0;
#X connect 9 0 12 0;
#X connect 10 0 11 0;
#X connect 11 0 17 0;
#X connect 12 0 13 0;
#X connect 14 0 15 0;
#X connect 15 0 16 0;
#X connect 17 0 8 1;
#X connect 17 0 9 1;
#X connect 19 0 8 0;
