#N canvas 47 89 176 141 10;
#X msg 15 37 version 0.1.0;
#N canvas 13 104 412 365 ecrs4 0;
#X obj 20 21 r~ \$2-l;
#X obj 20 318 throw~ \$2-l;
#X obj 106 21 r~ \$2-r;
#X obj 301 318 throw~ \$2-r;
#X obj 20 181 cos~;
#X obj 20 201 +~ 1;
#X obj 107 121 +~ 0.25;
#X obj 107 180 cos~;
#X obj 107 200 +~ 1;
#X obj 206 141 +~ 0.25;
#X obj 206 179 cos~;
#X obj 206 199 +~ 1;
#X obj 301 159 +~ 0.25;
#X obj 301 179 cos~;
#X obj 301 199 +~ 1;
#X obj 301 256 *~;
#X obj 206 258 *~;
#X obj 107 259 *~;
#X obj 20 260 *~;
#X obj 20 101 phasor~;
#X obj 36 230 netpd-fx \$1 \$2_c4.mod \$2_c4.mod-r 100;
#X obj 20 81 netpd-fx \$1 \$2_c4.freq \$2_c4.freq-r 0.5;
#X obj 20 280 vd~ \$2_c4;
#X obj 107 279 vd~ \$2_c4;
#X obj 206 278 vd~ \$2_c4;
#X obj 301 276 vd~ \$2_c4;
#X obj 20 61 delwrite~ \$2_c4 1000;
#X connect 0 0 26 0;
#X connect 2 0 26 0;
#X connect 4 0 5 0;
#X connect 5 0 18 0;
#X connect 6 0 7 0;
#X connect 6 0 9 0;
#X connect 7 0 8 0;
#X connect 8 0 17 0;
#X connect 9 0 10 0;
#X connect 9 0 12 0;
#X connect 10 0 11 0;
#X connect 11 0 16 0;
#X connect 12 0 13 0;
#X connect 13 0 14 0;
#X connect 14 0 15 0;
#X connect 15 0 25 0;
#X connect 16 0 24 0;
#X connect 17 0 23 0;
#X connect 18 0 22 0;
#X connect 19 0 4 0;
#X connect 19 0 6 0;
#X connect 20 0 15 1;
#X connect 20 0 16 1;
#X connect 20 0 17 1;
#X connect 20 0 18 1;
#X connect 21 0 19 0;
#X connect 22 0 1 0;
#X connect 23 0 3 0;
#X connect 24 0 1 0;
#X connect 25 0 3 0;
#X restore 15 57 pd ecrs4;
#N canvas 626 263 139 73 \$2-e-crs4-gui 0;
#X obj 18 15 hsl 100 15 0 10 0 0 \$2_c4.freq \$2_c4.freq-r >_frequence_>
15 7 1 9 -262144 -1 -1 495 1;
#X obj 18 35 hsl 100 15 0 200 0 0 \$2_c4.mod \$2_c4.mod-r >_modulation_>
15 7 1 9 -262144 -1 -1 4950 1;
#X restore 15 17 pd \$2-e-crs4-gui;
