#N canvas 351 22 271 248 10;
#X text 17 97 by Enrique Erne;
#X obj 17 119 bng 15 250 50 0 empty empty empty 0 -6 0 8 -262144 -1
-1;
#X obj 17 137 symbol \$2;
#X msg 17 157 \; \$1.w1_insert label empty \; \$1.w2_insert label empty
\; \$1.w3_insert label empty \; mx.insert.preview-r label empty;
#N canvas 169 324 325 126 1f.w1-e-d2fx-gui 1;
#X obj 7 8 cnv 15 100 89 empty empty empty 0 0 0 9 -133153 -66577 0
;
#X obj 9 21 cnv 12 96 74 empty empty empty 20 12 0 9 -233017 -66577
0;
#X obj 9 10 cnv 9 96 11 empty empty e-d2fx 1 5 1 9 -262144 -66577 0
;
#X obj 9 35 cnv 9 96 11 empty \$2.w1_insert empty 1 5 1 9 -262144 -66577
0;
#X obj 9 23 bng 10 250 50 0 \$2.w1_insert.choose empty empty 0 -6 0
9 -183104 -99865 -1;
#X obj 18 23 bng 10 250 50 0 \$2.w1_insert.vis empty empty 11 5 1 9
-262144 -99865 -1;
#X obj 27 23 tgl 10 0 \$2.w1.bypass \$2.w1.bypass-r empty 0 6 1 7 -262144
-33289 -53310 0 1;
#X obj 9 59 cnv 9 96 11 empty \$2.w2_insert empty 1 5 1 9 -262144 -66577
0;
#X obj 9 47 bng 10 250 50 0 \$2.w2_insert.choose empty empty 0 -6 0
9 -183104 -99865 -1;
#X obj 18 47 bng 10 250 50 0 \$2.w2_insert.vis empty empty 11 5 1 9
-262144 -99865 -1;
#X obj 27 47 tgl 10 0 \$2.w2.bypass \$2.w2.bypass-r empty 0 6 1 7 -262144
-33289 -53310 0 1;
#X obj 9 83 cnv 9 96 11 empty \$2.w3_insert empty 1 5 1 9 -262144 -66577
0;
#X obj 9 71 bng 10 250 50 0 \$2.w3_insert.choose empty empty 0 -6 0
9 -183104 -99865 -1;
#X obj 18 71 bng 10 250 50 0 \$2.w3_insert.vis empty empty 11 5 1 9
-262144 -99865 -1;
#X obj 27 71 tgl 10 0 \$2.w3.bypass \$2.w3.bypass-r empty 0 6 1 7 -262144
-33289 -53310 0 1;
#X obj 54 9 hsl 50 11 -1 1 0 0 mx.insert.select mx.insert.preview-r
empty -1 6 1 9 -262144 -262144 -66577 0 0;
#X obj 117 18 master-speed \$1 \$2.w1.ms;
#X obj 117 34 master-speed \$1 \$2.w2.ms;
#X obj 117 50 master-speed \$1 \$2.w3.ms;
#X restore 17 18 pd \$2-e-d2fx-gui;
#N canvas 471 246 259 208 e-d2fx-code 0;
#X obj 17 18 r~ \$2-l;
#X obj 117 18 r~ \$2-r;
#X obj 17 148 throw~ \$2-l;
#X obj 117 148 throw~ \$2-r;
#N canvas 494 22 379 390 1-insert____ 0;
#X obj 21 19 inlet~;
#X obj 85 19 inlet~;
#X obj 209 335 outlet~;
#X obj 25 335 outlet~;
#X obj 156 249 line~;
#X msg 156 229 \$1 50;
#X obj 25 305 *~;
#X obj 209 305 *~;
#X obj 41 69 netpd-fx \$1 \$2.w1.bypass \$2.w1.bypass-r 0;
#X obj 25 241 s~ \$2.w1-l;
#X obj 25 275 catch~ \$2.w1-l;
#X obj 209 241 s~ \$2.w1-r;
#X obj 209 275 catch~ \$2.w1-r;
#X obj 41 49 e-3ins-manager \$1 \$2.w1;
#X obj 25 111 netpd-r \$2.w1.ms;
#X obj 25 211 delread~ \$0-del-l;
#X obj 209 211 delread~ \$0-del-r;
#X obj 35 131 r 16th;
#X obj 35 151 t b f;
#X obj 25 171 * 125;
#X obj 156 209 != 1;
#X connect 4 0 6 1;
#X connect 4 0 7 1;
#X connect 5 0 4 0;
#X connect 6 0 3 0;
#X connect 7 0 2 0;
#X connect 8 0 20 0;
#X connect 10 0 6 0;
#X connect 12 0 7 0;
#X connect 14 0 19 0;
#X connect 15 0 9 0;
#X connect 16 0 11 0;
#X connect 17 0 18 0;
#X connect 18 0 19 0;
#X connect 18 1 19 1;
#X connect 19 0 16 0;
#X connect 19 0 15 0;
#X connect 20 0 5 0;
#X restore 17 78 pd 1-insert____;
#N canvas 180 79 441 420 2-insert____ 0;
#X obj 17 8 inlet~;
#X obj 81 8 inlet~;
#X obj 201 354 outlet~;
#X obj 17 354 outlet~;
#X obj 148 228 != 1;
#X obj 148 268 line~;
#X msg 148 248 \$1 50;
#X obj 17 324 *~;
#X obj 201 324 *~;
#X obj 32 58 netpd-fx \$1 \$2.w2.bypass \$2.w2.bypass-r 0;
#X obj 17 264 s~ \$2.w2-l;
#X obj 17 294 catch~ \$2.w2-l;
#X obj 201 264 s~ \$2.w2-r;
#X obj 201 294 catch~ \$2.w2-r;
#X obj 32 38 e-3ins-manager \$1 \$2.w2;
#X obj 17 224 delread~ \$0-del-l;
#X obj 201 224 delread~ \$0-del-r;
#X obj 27 144 r 16th;
#X obj 27 164 t b f;
#X obj 17 184 * 125;
#X obj 17 124 netpd-r \$2.w2.ms;
#X connect 4 0 6 0;
#X connect 5 0 7 1;
#X connect 5 0 8 1;
#X connect 6 0 5 0;
#X connect 7 0 3 0;
#X connect 8 0 2 0;
#X connect 9 0 4 0;
#X connect 11 0 7 0;
#X connect 13 0 8 0;
#X connect 15 0 10 0;
#X connect 16 0 12 0;
#X connect 17 0 18 0;
#X connect 18 0 19 0;
#X connect 18 1 19 1;
#X connect 19 0 16 0;
#X connect 19 0 15 0;
#X connect 20 0 19 0;
#X restore 27 98 pd 2-insert____;
#N canvas 180 79 437 416 3-insert____ 0;
#X obj 17 14 inlet~;
#X obj 81 14 inlet~;
#X obj 209 325 outlet~;
#X obj 25 325 outlet~;
#X obj 156 199 != 1;
#X obj 156 239 line~;
#X msg 156 219 \$1 50;
#X obj 25 295 *~;
#X obj 209 295 *~;
#X obj 32 58 netpd-fx \$1 \$2.w3.bypass \$2.w3.bypass-r 0;
#X obj 25 235 s~ \$2.w3-l;
#X obj 25 265 catch~ \$2.w3-l;
#X obj 209 235 s~ \$2.w3-r;
#X obj 209 265 catch~ \$2.w3-r;
#X obj 32 38 e-3ins-manager \$1 \$2.w3;
#X obj 25 201 delread~ \$0-del-l;
#X obj 209 201 delread~ \$0-del-r;
#X obj 35 121 r 16th;
#X obj 35 141 t b f;
#X obj 25 161 * 125;
#X obj 25 101 netpd-r \$2.w3.ms;
#X connect 4 0 6 0;
#X connect 5 0 7 1;
#X connect 5 0 8 1;
#X connect 6 0 5 0;
#X connect 7 0 3 0;
#X connect 8 0 2 0;
#X connect 9 0 4 0;
#X connect 11 0 7 0;
#X connect 13 0 8 0;
#X connect 15 0 10 0;
#X connect 16 0 12 0;
#X connect 17 0 18 0;
#X connect 18 0 19 0;
#X connect 18 1 19 1;
#X connect 19 0 16 0;
#X connect 19 0 15 0;
#X connect 20 0 19 0;
#X restore 37 118 pd 3-insert____;
#N canvas 742 420 313 163 delwrite____ 0;
#X obj 17 18 inlet~;
#X obj 117 18 inlet~;
#X obj 17 98 outlet~;
#X obj 117 98 outlet~;
#X obj 127 48 delwrite~ \$0-del-r 2000;
#X obj 27 68 delwrite~ \$0-del-l 2000;
#X connect 0 0 2 0;
#X connect 0 0 5 0;
#X connect 1 0 3 0;
#X connect 1 0 4 0;
#X restore 17 48 pd delwrite____;
#X connect 0 0 7 0;
#X connect 1 0 7 1;
#X connect 4 0 2 0;
#X connect 4 1 3 0;
#X connect 5 0 2 0;
#X connect 5 1 3 0;
#X connect 6 0 2 0;
#X connect 6 1 3 0;
#X connect 7 0 4 0;
#X connect 7 0 5 0;
#X connect 7 0 6 0;
#X connect 7 1 4 1;
#X connect 7 1 5 1;
#X connect 7 1 6 1;
#X restore 17 38 pd e-d2fx-code;
#N canvas 125 322 350 229 e-d2fx-x 0;
#X obj 6 17 r \$1.getpreset;
#X obj 36 57 s \$1-b.getpreset;
#X obj 6 77 s \$1-c.getpreset;
#X obj 6 117 r \$1-b.preset;
#X obj 16 137 r \$1-c.preset;
#X obj 196 17 r \$1.dump;
#X obj 6 167 s \$1.preset;
#X obj 226 57 s \$1-b.dump;
#X obj 196 77 s \$1-c.dump;
#X obj 6 37 t b b;
#X obj 196 37 t a a;
#X connect 0 0 9 0;
#X connect 3 0 6 0;
#X connect 4 0 6 0;
#X connect 5 0 10 0;
#X connect 9 0 2 0;
#X connect 9 1 1 0;
#X connect 10 0 8 0;
#X connect 10 1 7 0;
#X restore 17 58 pd e-d2fx-x;
#X msg 17 78 version 0.1.2;
#X connect 1 0 2 0;
#X connect 2 0 3 0;
