#N canvas 590 44 451 568 10;
#N canvas 1237 44 324 263 delay.time 0;
#X obj 207 20 loadbang;
#X obj 26 57 t b f;
#X obj 49 131 t b f;
#X obj 18 173 * 125;
#X obj 18 77 + 0;
#X obj 18 193 s \$0-del.time;
#X obj 18 17 netpd_f \$1 \$2/dp.16 1;
#X obj 26 37 netpd_f \$1 \$2/dp.time 0;
#X obj 207 64 s master;
#X msg 207 42 refresh;
#X obj 50 84 r master;
#X obj 50 106 route 16th;
#X connect 0 0 9 0;
#X connect 1 0 4 0;
#X connect 1 1 4 1;
#X connect 2 0 3 0;
#X connect 2 1 3 1;
#X connect 3 0 5 0;
#X connect 4 0 3 0;
#X connect 6 0 4 0;
#X connect 7 0 1 0;
#X connect 9 0 8 0;
#X connect 10 0 11 0;
#X connect 11 0 2 0;
#X restore 209 125 pd delay.time;
#N canvas 12 199 456 187 repeat-2 0;
#X obj 19 135 outlet~;
#X obj 171 135 outlet~;
#X obj 310 82 > 0;
#X obj 310 103 switch~;
#X obj 19 46 * 0.5;
#X obj 310 60 r \$0-del.rep;
#X obj 19 25 r \$0-del.time;
#X obj 187 73 line~;
#X msg 187 52 \$1 20;
#X obj 187 31 min 1;
#X obj 19 114 *~;
#X obj 171 115 *~;
#X obj 171 94 delread~ \$2_dp.2-r;
#X obj 19 94 delread~ \$2_dp.2-l;
#X connect 2 0 3 0;
#X connect 4 0 12 0;
#X connect 4 0 13 0;
#X connect 5 0 2 0;
#X connect 5 0 9 0;
#X connect 6 0 4 0;
#X connect 7 0 10 1;
#X connect 7 0 11 1;
#X connect 8 0 7 0;
#X connect 9 0 8 0;
#X connect 10 0 0 0;
#X connect 11 0 1 0;
#X connect 12 0 11 0;
#X connect 13 0 10 0;
#X restore 128 172 pd repeat-2;
#N canvas 1353 44 327 220 feedback 0;
#X obj 22 79 inlet;
#X obj 15 59 rmstodb;
#X obj 15 139 - 0;
#X obj 15 159 dbtorms;
#X obj 22 119 t b f;
#X obj 22 99 * 4;
#X obj 15 179 s \$0-feedback;
#X obj 15 39 f;
#X obj 15 19 netpd_f \$1 \$2/dp.feed 0.65;
#X connect 0 0 5 0;
#X connect 1 0 2 0;
#X connect 2 0 3 0;
#X connect 3 0 6 0;
#X connect 4 0 2 0;
#X connect 4 1 2 1;
#X connect 5 0 4 0;
#X connect 7 0 1 0;
#X connect 8 0 7 0;
#X restore 218 85 pd feedback;
#N canvas 312 132 318 231 mix~ 0;
#X obj 12 197 outlet~;
#X obj 71 197 outlet~;
#X obj 13 41 moses 0.5;
#X obj 12 65 t f b;
#X obj 71 65 t f b;
#X obj 12 175 line~;
#X msg 101 85 1 20;
#X msg 41 85 1 20;
#X obj 71 174 line~;
#X msg 12 146 \$1 20;
#X msg 71 146 \$1 20;
#X obj 12 126 * 2;
#X obj 71 126 * -2;
#X obj 71 105 - 1;
#X obj 13 21 netpd_f \$1 \$2/dp.mix 0.5;
#X connect 2 0 3 0;
#X connect 2 1 4 0;
#X connect 3 0 11 0;
#X connect 3 1 7 0;
#X connect 4 0 13 0;
#X connect 4 1 6 0;
#X connect 5 0 0 0;
#X connect 6 0 5 0;
#X connect 7 0 8 0;
#X connect 8 0 1 0;
#X connect 9 0 5 0;
#X connect 10 0 8 0;
#X connect 11 0 9 0;
#X connect 12 0 10 0;
#X connect 13 0 12 0;
#X connect 14 0 2 0;
#X restore 104 466 pd mix~;
#X obj 88 496 *~;
#X obj 249 497 *~;
#X obj 132 496 *~;
#X obj 289 497 *~;
#X obj 88 366 *~ 1;
#X obj 249 366 *~ 1;
#N canvas 12 199 468 199 repeat-3 0;
#X obj 19 156 outlet~;
#X obj 171 156 outlet~;
#X obj 310 123 switch~;
#X obj 19 46 * 0.25;
#X obj 310 102 > 1;
#X obj 310 80 r \$0-del.rep;
#X obj 19 25 r \$0-del.time;
#X obj 187 93 line~;
#X msg 187 72 \$1 20;
#X obj 187 51 min 1;
#X obj 19 135 *~;
#X obj 171 135 *~;
#X obj 187 10 - 1;
#X obj 187 31 max 0;
#X obj 19 114 delread~ \$2_dp.3-l;
#X obj 171 114 delread~ \$2_dp.3-r;
#X connect 3 0 14 0;
#X connect 3 0 15 0;
#X connect 4 0 2 0;
#X connect 5 0 4 0;
#X connect 5 0 12 0;
#X connect 6 0 3 0;
#X connect 7 0 10 1;
#X connect 7 0 11 1;
#X connect 8 0 7 0;
#X connect 9 0 8 0;
#X connect 10 0 0 0;
#X connect 11 0 1 0;
#X connect 12 0 13 0;
#X connect 13 0 9 0;
#X connect 14 0 10 0;
#X connect 15 0 11 0;
#X restore 128 192 pd repeat-3;
#N canvas 12 199 464 195 repeat-4 0;
#X obj 19 156 outlet~;
#X obj 171 156 outlet~;
#X obj 310 103 switch~;
#X obj 19 46 * 0.125;
#X obj 310 82 > 2;
#X obj 310 60 r \$0-del.rep;
#X obj 19 25 r \$0-del.time;
#X obj 187 93 line~;
#X msg 187 72 \$1 20;
#X obj 187 51 min 1;
#X obj 19 135 *~;
#X obj 171 135 *~;
#X obj 187 31 max 0;
#X obj 187 10 - 2;
#X obj 171 115 delread~ \$2_dp.4-r;
#X obj 19 115 delread~ \$2_dp.4-l;
#X connect 3 0 14 0;
#X connect 3 0 15 0;
#X connect 4 0 2 0;
#X connect 5 0 4 0;
#X connect 5 0 13 0;
#X connect 6 0 3 0;
#X connect 7 0 10 1;
#X connect 7 0 11 1;
#X connect 8 0 7 0;
#X connect 9 0 8 0;
#X connect 10 0 0 0;
#X connect 11 0 1 0;
#X connect 12 0 9 0;
#X connect 13 0 12 0;
#X connect 14 0 11 0;
#X connect 15 0 10 0;
#X restore 128 212 pd repeat-4;
#X obj 111 346 r \$0-feedback;
#X obj 272 346 r \$0-feedback;
#X obj 209 105 s \$0-del.rep;
#N canvas 1208 44 427 138 write-2 0;
#X obj 10 18 catch~ \$0-2l;
#X obj 202 18 catch~ \$0-2r;
#X obj 10 48 delwrite~ \$2_dp.2-l 1000;
#X obj 202 48 delwrite~ \$2_dp.2-r 1000;
#X connect 0 0 2 0;
#X connect 1 0 3 0;
#X restore 130 85 pd write-2;
#N canvas 0 22 421 124 write-3 0;
#X obj 8 18 catch~ \$0-3l;
#X obj 200 18 catch~ \$0-3r;
#X obj 200 48 delwrite~ \$2_dp.3-r 1000;
#X obj 8 48 delwrite~ \$2_dp.3-l 1000;
#X connect 0 0 3 0;
#X connect 1 0 2 0;
#X restore 130 105 pd write-3;
#N canvas 1208 44 434 142 write-1 0;
#X obj 12 25 catch~ \$0-1l;
#X obj 204 25 catch~ \$0-1r;
#X obj 204 55 delwrite~ \$2_dp.1-r 1000;
#X obj 12 55 delwrite~ \$2_dp.1-l 1000;
#X connect 0 0 3 0;
#X connect 1 0 2 0;
#X restore 130 65 pd write-1;
#N canvas 0 22 411 111 write-4 0;
#X obj 16 21 catch~ \$0-4l;
#X obj 208 21 catch~ \$0-4r;
#X obj 16 51 delwrite~ \$2_dp.4-l 1000;
#X obj 208 51 delwrite~ \$2_dp.4-r 1000;
#X connect 0 0 2 0;
#X connect 1 0 3 0;
#X restore 130 125 pd write-4;
#N canvas 12 199 330 160 repeat-1 1;
#X obj 19 101 outlet~;
#X obj 171 101 outlet~;
#X obj 19 45 * 1;
#X obj 19 25 r \$0-del.time;
#X obj 171 81 delread~ \$2_dp.1-r;
#X obj 19 81 delread~ \$2_dp.1-l;
#X connect 2 0 4 0;
#X connect 2 0 5 0;
#X connect 3 0 2 0;
#X connect 4 0 1 0;
#X connect 5 0 0 0;
#X restore 128 152 pd repeat-1;
#X obj 132 386 throw~ \$0-1l;
#X obj 289 386 throw~ \$0-1r;
#X obj 132 406 throw~ \$0-2l;
#X obj 289 406 throw~ \$0-2r;
#X obj 132 426 throw~ \$0-3l;
#X obj 289 426 throw~ \$0-3r;
#X obj 132 446 throw~ \$0-4l;
#X obj 289 446 throw~ \$0-4r;
#X obj 7 258 throw~ \$0-2l;
#X obj 277 258 throw~ \$0-2r;
#X obj 7 278 throw~ \$0-3l;
#X obj 277 278 throw~ \$0-3r;
#X obj 7 298 throw~ \$0-4l;
#X obj 277 298 throw~ \$0-4r;
#N canvas 237 393 517 293 netpd-mixed_dp.rep 0;
#X obj 219 29 r \$0_rep-slider;
#X obj 29 29 r \$0_rep-radio;
#X msg 38 223 set \$1;
#X msg 282 192 set \$1;
#X obj 38 202 int;
#X obj 38 244 s \$0_rep-radio-r;
#X obj 282 213 s \$0_rep-slider-r;
#X obj 219 50 t f b;
#X obj 354 82 del 500;
#X obj 410 87 loadbang;
#X obj 288 144 spigot;
#X obj 29 50 t f b;
#X text 31 8 [netpd-mixed];
#X obj 325 115 f 0;
#X obj 355 115 f 1;
#X obj 177 270 outlet;
#X obj 151 240 netpd_a \$1 \$2/dp.rep;
#X obj 288 51 netpd_r \$1 \$2/dp.rep;
#X floatatom 370 151 5 0 0 0 - - -;
#X obj 288 166 route float;
#X connect 0 0 7 0;
#X connect 1 0 11 0;
#X connect 2 0 5 0;
#X connect 3 0 6 0;
#X connect 4 0 2 0;
#X connect 7 0 4 0;
#X connect 7 0 16 0;
#X connect 7 1 8 0;
#X connect 7 1 13 0;
#X connect 8 0 14 0;
#X connect 9 0 14 0;
#X connect 10 0 4 0;
#X connect 10 0 19 0;
#X connect 11 0 3 0;
#X connect 11 0 16 0;
#X connect 11 1 8 0;
#X connect 11 1 13 0;
#X connect 13 0 10 1;
#X connect 14 0 10 1;
#X connect 17 0 10 0;
#X connect 17 0 15 0;
#X connect 19 0 3 0;
#X restore 209 65 pd netpd-mixed_dp.rep;
#X text 16 21 by Enrique Erne;
#N canvas 341 349 288 126 NETPD 0;
#X msg 16 12 version 0 2 1;
#X restore 13 43 pd NETPD 2 0;
#N canvas 1041 27 167 104 \$3-e-del 1;
#X obj 16 58 hsl 130 15 0 0.99 0 0 \$1-\$2/dp.feed \$1-\$2/dp.feed
___feedback 7 7 1 9 -262144 -1 -183085 8470 0;
#X obj 16 26 hsl 130 15 0 1 0 0 \$1-\$2/dp.time \$1-\$2/dp.time _+_16th
7 7 1 9 -262144 -1 -183085 0 0;
#X obj 13 12 hradio 15 1 0 9 \$1-\$2/dp.16 \$1-\$2/dp.16 empty 10 -7
1 9 -262144 -1 -183085 2;
#X obj 88 42 hradio 15 1 0 4 \$0_rep-radio \$0_rep-radio-r empty 0
-6 1 9 -262144 -1 -1 2;
#X obj 16 74 hsl 130 15 0 1 0 0 \$1-\$2/dp.mix \$1-\$2/dp.mix _original_|><|_d-play_
7 7 1 9 -262144 -1 -183085 5900 0;
#X obj 16 42 hsl 70 15 0 3 0 0 \$0_rep-slider \$0_rep-slider-r ___repeat
7 7 1 9 -262144 -1 -183085 6400 0;
#X restore 297 25 pd \$3-e-del;
#X obj 89 530 outlet~;
#X obj 250 532 outlet~;
#X obj 132 367 inlet~;
#X obj 289 366 inlet~;
#X connect 1 0 8 0;
#X connect 1 0 30 0;
#X connect 1 0 32 0;
#X connect 1 1 9 0;
#X connect 1 1 31 0;
#X connect 1 1 33 0;
#X connect 3 0 5 1;
#X connect 3 0 4 1;
#X connect 3 1 6 1;
#X connect 3 1 7 1;
#X connect 4 0 38 0;
#X connect 5 0 39 0;
#X connect 6 0 38 0;
#X connect 7 0 39 0;
#X connect 8 0 4 0;
#X connect 9 0 5 0;
#X connect 10 0 8 0;
#X connect 10 0 32 0;
#X connect 10 1 9 0;
#X connect 10 1 33 0;
#X connect 11 0 8 0;
#X connect 11 1 9 0;
#X connect 12 0 8 1;
#X connect 13 0 9 1;
#X connect 19 0 8 0;
#X connect 19 0 28 0;
#X connect 19 0 30 0;
#X connect 19 0 32 0;
#X connect 19 1 9 0;
#X connect 19 1 29 0;
#X connect 19 1 31 0;
#X connect 19 1 33 0;
#X connect 34 0 2 0;
#X connect 34 0 14 0;
#X connect 40 0 6 0;
#X connect 40 0 20 0;
#X connect 40 0 22 0;
#X connect 40 0 24 0;
#X connect 40 0 26 0;
#X connect 41 0 7 0;
#X connect 41 0 21 0;
#X connect 41 0 23 0;
#X connect 41 0 25 0;
#X connect 41 0 27 0;
