#N canvas 820 409 380 316 10;
#X obj 70 109 inlet~;
#X obj 109 146 inlet~;
#X obj 70 268 outlet~;
#X obj 109 240 outlet~;
#N canvas 1080 513 176 84 NETPD 0;
#X msg 12 15 version 0 0 2;
#X restore 14 38 pd NETPD 2 0;
#X obj 209 67 netpd_f \$1 \$2/factor 0;
#N canvas 891 137 387 206 downsample 0;
#X obj 32 115 outlet~ lin;
#X obj 239 36 inlet;
#X obj 239 80 block~ 64 1 1;
#X obj 32 36 inlet~ lin;
#X obj 124 115 outlet~ lin;
#X obj 124 36 inlet~ lin;
#X obj 239 116 outlet;
#X connect 1 0 2 0;
#X connect 3 0 0 0;
#X connect 5 0 4 0;
#X restore 71 180 pd downsample;
#X obj 209 130 pow;
#X msg 209 108 2 \$1;
#X obj 209 154 t a a;
#X obj 209 200 /;
#X msg 209 176 64 \$1;
#X obj 209 223 pack;
#X msg 209 247 set \$1 1 \$2;
#X msg 249 175 1 \$1;
#X obj 249 197 /;
#N canvas 595 332 230 82 \$3-\$2 0;
#X obj 41 25 hradio 17 1 0 8 \$1-\$2/factor \$1-\$2/factor empty 0
-8 0 10 -262144 -1 -1 0;
#X restore 14 17 pd \$3-\$2;
#X connect 0 0 6 0;
#X connect 1 0 6 1;
#X connect 5 0 8 0;
#X connect 6 0 2 0;
#X connect 6 1 3 0;
#X connect 7 0 9 0;
#X connect 8 0 7 0;
#X connect 9 0 11 0;
#X connect 9 1 14 0;
#X connect 10 0 12 0;
#X connect 11 0 10 0;
#X connect 12 0 13 0;
#X connect 13 0 6 2;
#X connect 14 0 15 0;
#X connect 15 0 12 1;
