#N canvas 568 203 887 685 10;
#X obj 36 582 *~;
#X obj 197 583 *~;
#X text 16 61 by Enrique Erne;
#X obj 146 27 loadbang;
#X obj 94 542 line~;
#X obj 153 541 line~;
#X msg 94 513 \$1 20;
#X msg 153 513 \$1 20;
#X obj 514 87 * 125;
#X obj 543 427 t b f;
#X obj 470 539 sel 0;
#X obj 440 569 sel 0;
#X obj 440 499 t f f;
#X obj 553 387 t b f;
#X obj 516 347 t b f;
#X obj 506 457 + 4;
#X obj 514 67 * 4;
#X obj 524 47 t b f;
#X obj 514 107 * 44.1;
#X msg 514 127 resize \$1;
#X obj 100 173 phasor~;
#X obj 147 424 del 500;
#X obj 100 153 t f b;
#X obj 144 153 f 0;
#X obj 285 74 t b f;
#X obj 285 94 f 1000;
#X obj 285 114 / 500;
#X obj 100 133 f 2;
#X obj 147 444 f 0;
#X obj 285 154 t b f;
#X obj 279 174 * 2;
#X obj 100 213 *~ 22050;
#X obj 101 458 f 1;
#X obj 109 401 t b;
#X obj 184 109 t b;
#X obj 135 486 f 0;
#X obj 165 487 f 1;
#X obj 237 583 *~;
#X obj 80 582 *~;
#X obj 181 466 dbtorms;
#X obj 201 384 t b f;
#X obj 191 404 * 1;
#X obj 532 568 t b f;
#X obj 506 367 * 16;
#X obj 543 407 * 16;
#X obj 522 588 * 16;
#N canvas 86 378 247 172 \$3-e-loop 0;
#X obj 17 56 hsl 187 18 -2 2 0 0 \$1-\$2/speed \$1-\$2/speed speed_(-2_-_+2)
-2 -8 0 10 -262144 -1 -1 9300 1;
#X obj 14 4 nbx 2 16 1 20 0 0 \$1-\$2/unit \$1-\$2/unit time-unit_(16th)
32 9 0 10 -262144 -1 -1 1 256;
#X obj 14 22 nbx 2 16 0 20 0 0 \$1-\$2/length \$1-\$2/length loop-length_(unit)
32 9 0 10 -262144 -1 -1 1 256;
#X obj 14 76 nbx 2 16 0 100 0 0 \$1-\$2/roffset \$1-\$2/roffset rec-offset_(unit)
32 9 0 10 -262144 -1 -1 1 256;
#X obj 14 112 nbx 2 16 1 100 0 0 \$1-\$2/loop \$1-\$2/loop play-loop_(>=1)
32 9 0 10 -262144 -1 -1 1 256;
#X obj 14 130 nbx 2 16 0 100 0 0 \$1-\$2/original \$1-\$2/original
mix_original_(db) 32 9 0 10 -262144 -1 -1 1 256;
#X obj 14 94 nbx 2 16 0 100 0 0 \$1-\$2/offset \$1-\$2/offset play-offset_(unit)
32 9 0 10 -262144 -1 -1 0 256;
#X restore 17 21 pd \$3-e-loop;
#N canvas 286 348 197 85 NETPD 0;
#X msg 13 11 version 0 1 5;
#X restore 18 42 pd NETPD 2 0;
#X msg 146 49 refresh;
#X obj 146 71 s master;
#X obj 514 27 netpd_f \$1 \$2/length 1;
#X obj 548 272 netpd_f \$2 \$2/unit 16;
#X obj 506 297 netpd_f \$1 \$2/offset 7;
#X obj 543 367 netpd_f \$1 \$2/loop 1;
#X obj 181 446 netpd_f \$1 \$2/original 0;
#X obj 522 548 netpd_f \$1 \$2/roffset 0;
#X obj 80 312 inlet~;
#X obj 237 312 inlet~;
#X obj 36 602 outlet~;
#X obj 197 603 outlet~;
#X obj 54 254 tabread4~ \$0_el.del-l;
#X obj 237 261 tabread4~ \$0_el.del-r;
#X obj 256 337 tabwrite~ \$0_el.del-r;
#X obj 256 357 table \$0_el.del-r;
#X obj 97 337 tabwrite~ \$0_el.del-l;
#X obj 97 357 table \$0_el.del-l;
#X obj 524 147 s \$0_el.del-r;
#X obj 514 167 s \$0_el.del-l;
#X obj 578 53 r master;
#X obj 578 75 route 16th;
#X obj 440 479 mod 4;
#X obj 426 421 r master;
#X obj 426 443 route step;
#X obj 254 134 netpd_f \$1 \$2/speed -1;
#X connect 0 0 58 0;
#X connect 1 0 59 0;
#X connect 3 0 48 0;
#X connect 4 0 0 1;
#X connect 4 0 1 1;
#X connect 5 0 37 1;
#X connect 5 0 38 1;
#X connect 6 0 4 0;
#X connect 7 0 5 0;
#X connect 8 0 18 0;
#X connect 8 0 24 0;
#X connect 8 0 41 0;
#X connect 9 0 15 0;
#X connect 9 1 15 1;
#X connect 10 0 62 0;
#X connect 10 0 64 0;
#X connect 11 0 34 0;
#X connect 12 0 11 0;
#X connect 12 1 10 0;
#X connect 13 0 44 0;
#X connect 13 1 44 1;
#X connect 14 0 43 0;
#X connect 14 1 43 1;
#X connect 15 0 70 1;
#X connect 16 0 8 0;
#X connect 17 0 16 0;
#X connect 17 1 16 1;
#X connect 18 0 19 0;
#X connect 18 0 31 1;
#X connect 19 0 66 0;
#X connect 19 0 67 0;
#X connect 20 0 31 0;
#X connect 21 0 28 0;
#X connect 21 0 36 0;
#X connect 22 0 20 0;
#X connect 22 1 23 0;
#X connect 23 0 20 1;
#X connect 24 0 25 0;
#X connect 24 1 26 1;
#X connect 25 0 26 0;
#X connect 26 0 29 0;
#X connect 27 0 22 0;
#X connect 28 0 6 0;
#X connect 29 0 30 0;
#X connect 29 1 30 1;
#X connect 30 0 27 1;
#X connect 31 0 60 0;
#X connect 31 0 61 0;
#X connect 32 0 6 0;
#X connect 33 0 21 0;
#X connect 33 0 32 0;
#X connect 33 0 35 0;
#X connect 34 0 27 0;
#X connect 34 0 33 0;
#X connect 35 0 7 0;
#X connect 36 0 7 0;
#X connect 37 0 59 0;
#X connect 38 0 58 0;
#X connect 39 0 35 1;
#X connect 40 0 41 0;
#X connect 40 1 41 1;
#X connect 41 0 21 1;
#X connect 42 0 45 0;
#X connect 42 1 45 1;
#X connect 43 0 15 0;
#X connect 43 0 11 1;
#X connect 44 0 9 0;
#X connect 45 0 10 1;
#X connect 48 0 49 0;
#X connect 50 0 16 0;
#X connect 51 0 14 0;
#X connect 51 0 13 0;
#X connect 51 0 17 0;
#X connect 51 0 42 0;
#X connect 52 0 43 0;
#X connect 53 0 40 0;
#X connect 53 0 44 0;
#X connect 54 0 39 0;
#X connect 55 0 45 0;
#X connect 56 0 38 0;
#X connect 56 0 64 0;
#X connect 57 0 37 0;
#X connect 57 0 62 0;
#X connect 60 0 0 0;
#X connect 61 0 1 0;
#X connect 68 0 69 0;
#X connect 69 0 8 1;
#X connect 70 0 12 0;
#X connect 71 0 72 0;
#X connect 72 0 70 0;
#X connect 73 0 30 0;
