#N canvas 877 200 337 291 10;
#N canvas 1058 230 231 103 NETPD 0;
#X msg 16 18 version 0 0 2;
#X restore 144 9 pd NETPD 2 0;
#X obj 10 33 inlet~;
#X obj 11 265 outlet~;
#X obj 142 33 mx-fx-sc \$1 \$2/sc;
#X obj 11 147 *~;
#X obj 90 33 inlet~;
#X obj 91 265 outlet~;
#X obj 91 147 *~;
#X obj 141 147 *~;
#X obj 241 147 *~;
#N canvas 0 43 507 244 direct 0;
#X obj 22 15 netpd_f \$1 \$2/direct 0.787402;
#X msg 22 155 \$1 50;
#X obj 22 175 line~;
#X obj 22 93 *;
#X obj 22 130 *;
#X obj 22 68 t a a a;
#X obj 61 92 max 1;
#X obj 61 114 t a a;
#X obj 61 136 *;
#X obj 22 38 * 1.27;
#X obj 22 198 outlet~;
#X obj 210 16 mx-doubleclick-reset \$1-\$2/direct 0.787402;
#X connect 0 0 9 0;
#X connect 1 0 2 0;
#X connect 2 0 10 0;
#X connect 3 0 4 0;
#X connect 4 0 1 0;
#X connect 5 0 3 0;
#X connect 5 1 3 1;
#X connect 5 2 6 0;
#X connect 6 0 7 0;
#X connect 7 0 8 0;
#X connect 7 1 8 1;
#X connect 8 0 4 1;
#X connect 9 0 5 0;
#X restore 35 108 pd direct;
#N canvas 0 43 461 240 amp 0;
#X msg 22 155 \$1 50;
#X obj 22 175 line~;
#X obj 22 93 *;
#X obj 22 130 *;
#X obj 22 68 t a a a;
#X obj 61 92 max 1;
#X obj 61 114 t a a;
#X obj 61 136 *;
#X obj 22 38 * 1.27;
#X obj 22 198 outlet~;
#X obj 22 15 netpd_f \$1 \$2/amp 0.787402;
#X obj 196 14 mx-doubleclick-reset \$1-\$2/amp 0.787402;
#X connect 0 0 1 0;
#X connect 1 0 9 0;
#X connect 2 0 3 0;
#X connect 3 0 0 0;
#X connect 4 0 2 0;
#X connect 4 1 2 1;
#X connect 4 2 5 0;
#X connect 5 0 6 0;
#X connect 6 0 7 0;
#X connect 6 1 7 1;
#X connect 7 0 3 1;
#X connect 8 0 4 0;
#X connect 10 0 8 0;
#X restore 183 112 pd amp;
#X obj 11 199 +~;
#X obj 91 199 +~;
#N canvas 0 50 422 260 LED 0;
#X obj 9 18 inlet~;
#X obj 10 183 outlet~;
#X obj 122 122 max 0;
#X obj 200 98 << 8;
#X obj 200 124 * -1;
#X obj 200 145 - 1;
#X obj 122 190 * 255;
#X obj 122 100 - 30;
#X obj 122 144 min 40;
#X obj 122 166 / 40;
#X obj 200 187 s \$0.indicator.l;
#X msg 200 165 color \$1 \$1 -1;
#X obj 122 77 env~ 2048 2048;
#X connect 0 0 1 0;
#X connect 0 0 12 0;
#X connect 2 0 8 0;
#X connect 3 0 4 0;
#X connect 4 0 5 0;
#X connect 5 0 11 0;
#X connect 6 0 3 0;
#X connect 7 0 2 0;
#X connect 8 0 9 0;
#X connect 9 0 6 0;
#X connect 11 0 10 0;
#X connect 12 0 7 0;
#X restore 141 83 pd LED;
#N canvas 0 50 422 260 LED 0;
#X obj 9 18 inlet~;
#X obj 10 183 outlet~;
#X obj 122 122 max 0;
#X obj 200 98 << 8;
#X obj 200 124 * -1;
#X obj 200 145 - 1;
#X obj 122 190 * 255;
#X obj 122 100 - 30;
#X obj 122 144 min 40;
#X obj 122 166 / 40;
#X msg 200 165 color \$1 \$1 -1;
#X obj 122 77 env~ 2048 2048;
#X obj 200 187 s \$0.indicator.r;
#X connect 0 0 1 0;
#X connect 0 0 11 0;
#X connect 2 0 8 0;
#X connect 3 0 4 0;
#X connect 4 0 5 0;
#X connect 5 0 10 0;
#X connect 6 0 3 0;
#X connect 7 0 2 0;
#X connect 8 0 9 0;
#X connect 9 0 6 0;
#X connect 10 0 12 0;
#X connect 11 0 7 0;
#X restore 241 83 pd LED;
#N canvas 589 302 204 76 \$3-\$2 0;
#X obj 5 14 mx-fx-sc-gui \$1 \$2/sc;
#X text 58 13 side channel;
#X obj 8 26 hsl 20 12 0 127 0 0 \$0.bli \$0.indicator.l empty -2 -8 0 10 #000000 #000000 #000000 0 1;
#X obj 33 26 hsl 20 12 0 127 0 0 \$0.bli \$0.indicator.r empty -2 -8 0 10 #000000 #000000 #000000 0 1;
#X obj 8 50 hsl 45 12 0 1 0 0 \$1-\$2/direct \$1-\$2/direct empty -2 -8 0 10 #dcdcdc #000000 #000000 0 1;
#X obj 8 38 hsl 45 12 0 1 0 0 \$1-\$2/amp \$1-\$2/amp empty -2 -8 0 10 #dcdcdc #000000 #000000 0 1;
#X text 58 37 level side channel;
#X text 58 49 level direct;
#X restore 10 9 pd \$3-\$2;
#X connect 1 0 4 0;
#X connect 3 0 14 0;
#X connect 3 1 15 0;
#X connect 4 0 12 0;
#X connect 5 0 7 0;
#X connect 7 0 13 0;
#X connect 8 0 12 1;
#X connect 9 0 13 1;
#X connect 10 0 4 1;
#X connect 10 0 7 1;
#X connect 11 0 8 1;
#X connect 11 0 9 1;
#X connect 12 0 2 0;
#X connect 13 0 6 0;
#X connect 14 0 8 0;
#X connect 15 0 9 0;
