#N canvas 734 262 393 544 10;
#N canvas 1064 189 231 103 NETPD 0;
#X msg 14 17 version 0 0 3;
#X restore 111 12 pd NETPD 2 0;
#X obj 19 345 inlet~;
#X obj 19 501 outlet~;
#X obj 109 375 inlet~;
#X obj 109 501 outlet~;
#X obj 152 149 osc~;
#X obj 152 171 rh_symm2norm~;
#X obj 151 203 *~ 0;
#X obj 151 225 +~ 0;
#X obj 152 286 min~ 1;
#X obj 152 314 rh_scalelog~ 100 10000;
#X obj 19 401 vcf~;
#X obj 109 401 vcf~;
#X obj 225 389 * 0.4;
#X obj 19 433 *~;
#X obj 109 433 *~;
#X obj 225 367 rh_scalelog 1 30;
#X obj 152 73 pow 2;
#X obj 152 95 * 15;
#X obj 152 52 netpd_f \$1 \$2/lfo/freq 0;
#X obj 187 204 netpd_f \$1 \$2/lfo/strength 0;
#X obj 187 224 netpd_f \$1 \$2/freq 1;
#X obj 225 344 netpd_f \$1 \$2/q 0;
#N canvas 1062 275 295 60 \$3-\$2 0;
#X obj 14 13 hsl 128 15 0 1 0 0 \$1-\$2/lfo/freq \$1-\$2/lfo/freq lfo_freq
3 8 0 10 -262144 -1 -1 0 1;
#X obj 14 28 hsl 128 15 0 1 0 0 \$1-\$2/lfo/strength \$1-\$2/lfo/strength
lfo_strength 3 8 0 10 -262144 -1 -1 0 1;
#X obj 144 13 hsl 128 15 0 1 0 0 \$1-\$2/freq \$1-\$2/freq freq 3 8
0 10 -262144 -1 -1 0 1;
#X obj 144 28 hsl 128 15 0 1 0 0 \$1-\$2/q \$1-\$2/q q 3 8 0 10 -262144
-1 -1 0 1;
#X restore 7 12 pd \$3-\$2;
#X connect 1 0 11 0;
#X connect 3 0 12 0;
#X connect 5 0 6 0;
#X connect 6 0 7 0;
#X connect 7 0 8 0;
#X connect 8 0 9 0;
#X connect 9 0 10 0;
#X connect 10 0 11 1;
#X connect 10 0 12 1;
#X connect 11 0 14 0;
#X connect 12 0 15 0;
#X connect 13 0 15 1;
#X connect 13 0 14 1;
#X connect 14 0 2 0;
#X connect 15 0 4 0;
#X connect 16 0 13 0;
#X connect 16 0 12 2;
#X connect 16 0 11 2;
#X connect 17 0 18 0;
#X connect 18 0 5 0;
#X connect 19 0 17 0;
#X connect 20 0 7 1;
#X connect 21 0 8 1;
#X connect 22 0 16 0;
