#N canvas 554 261 170 135 10;
#X text 13 78 by Enrique Erne;
#N canvas 689 122 296 209 priv-gate 0;
#X obj 20 51 r~ \$2-l;
#X obj 20 162 throw~ \$2-l;
#X obj 154 52 r~ \$2-r;
#X obj 154 163 throw~ \$2-r;
#X obj 20 142 *~;
#X obj 154 143 *~;
#X obj 46 92 abs~;
#X obj 174 92 abs~;
#X obj 46 112 >~ 0;
#X obj 174 112 >~ 0;
#X obj 51 17 netpd-fx \$1 \$2_pg \$2_pg-r 0;
#X connect 0 0 6 0;
#X connect 0 0 4 0;
#X connect 2 0 7 0;
#X connect 2 0 5 0;
#X connect 4 0 1 0;
#X connect 5 0 3 0;
#X connect 6 0 8 0;
#X connect 7 0 9 0;
#X connect 8 0 4 1;
#X connect 9 0 5 1;
#X connect 10 0 8 1;
#X connect 10 0 9 1;
#X restore 14 57 pd priv-gate;
#N canvas 375 201 170 63 \$2-e-pgate-gui 0;
#X obj 13 13 hsl 128 15 0 1 0 0 \$2_pg \$2_pg-r priv-gate 15 7 1 9
-262144 -1 -1 0 0;
#X restore 14 17 pd \$2-e-pgate-gui;
#X msg 14 37 version 0.1.2;
