#N canvas 423 197 705 603 10;
#X obj 155 317 inlet~;
#X obj 202 317 inlet~;
#X obj 253 549 outlet~;
#X obj 387 553 outlet~;
#N canvas 1064 322 231 103 NETPD 0;
#N canvas 798 188 338 100 abslist 0;
#X msg 11 11 roman_helpers;
#X msg 14 72 qseq3-instr-list;
#X msg 11 42 e-pong-gui-instance;
#X restore 18 44 pd abslist;
#X msg 14 17 version 0 0 3;
#X restore 111 12 pd NETPD 2 0;
#N canvas 1074 43 303 200 \$3-e-pong 1;
#X obj 7 76 e-pong-gui-instance \$1 \$2 1;
#X obj 28 61 cnv 14 41 14 empty empty start 2 8 0 10 -159808 -262130
0;
#X obj 69 61 cnv 14 41 14 empty empty length 2 8 0 10 -159808 -262130
0;
#X obj 153 61 cnv 14 45 14 empty empty level 2 8 0 10 -159808 -262130
0;
#X obj 243 61 cnv 14 45 14 empty empty f/b 2 8 0 10 -159808 -262130
0;
#X obj 199 61 cnv 14 45 14 empty empty pan 2 8 0 10 -159808 -262130
0;
#X obj 7 61 cnv 14 20 14 empty empty empty 2 8 0 10 -159808 -262130
0;
#X obj 280 22 vsl 8 35 1 100 1 0 \$0.wave.scale \$0.bli empty 0 -9
0 10 -262130 -1 -1 1300 1;
#X obj 7 20 cnv 15 272 40 empty empty empty 20 12 0 14 -262130 -66577
0;
#N canvas 0 50 450 300 (subpatch) 0;
#X array \$0.sample 546 float 2;
#X coords 0 1 546 -1 273 40 1 0 0;
#X restore 7 20 graph;
#X obj 7 90 e-pong-gui-instance \$1 \$2 2;
#X obj 7 104 e-pong-gui-instance \$1 \$2 3;
#X obj 7 118 e-pong-gui-instance \$1 \$2 4;
#X obj 7 132 e-pong-gui-instance \$1 \$2 5;
#X obj 7 146 e-pong-gui-instance \$1 \$2 6;
#X obj 7 160 e-pong-gui-instance \$1 \$2 7;
#X obj 7 174 e-pong-gui-instance \$1 \$2 8;
#X obj 111 61 cnv 14 41 14 empty empty pitch 2 8 0 10 -159808 -262130
0;
#X obj 7 5 cnv 12 281 14 empty empty e-pong 3 6 0 12 -159808 -262130
0;
#X restore 7 12 pd \$3-e-pong;
#X obj 254 381 vline~;
#X obj 253 427 tabread4~ \$0.buffer.l;
#X obj 387 427 tabread4~ \$0.buffer.r;
#X obj 254 500 expr~ tanh($v1);
#X obj 387 505 expr~ tanh($v1);
#X obj 387 479 hip~ 20;
#X obj 253 478 hip~ 20;
#X obj 293 144 master-param 16th;
#X obj 278 168 *;
#N canvas 980 472 285 156 ms2samp 0;
#X obj 5 9 inlet;
#X obj 5 92 *;
#X obj 5 114 outlet;
#X obj 43 9 loadbang;
#X obj 43 31 samplerate~;
#X obj 43 53 / 1000;
#X connect 0 0 1 0;
#X connect 1 0 2 0;
#X connect 3 0 4 0;
#X connect 4 0 5 0;
#X connect 5 0 1 1;
#X restore 276 244 pd ms2samp;
#N canvas 625 191 299 195 pitch2relative 0;
#X obj 9 86 mtof;
#X obj 9 65 + 69;
#X obj 9 108 / 440;
#X obj 9 43 * -1;
#X obj 9 13 inlet;
#X obj 9 140 outlet;
#X connect 0 0 2 0;
#X connect 1 0 0 0;
#X connect 2 0 5 0;
#X connect 3 0 1 0;
#X connect 4 0 3 0;
#X restore 255 201 pd pitch2relative;
#X obj 255 222 *;
#X obj 255 269 pack;
#X msg 280 335 \$2 \, 0 \$1;
#X obj 255 291 list prepend;
#X obj 255 313 route 0 1;
#X msg 255 357 0 \, \$2 \$1;
#X obj 8 521 rh_vtabwrite~ \$0.buffer.l;
#X obj 54 489 rh_vtabwrite~ \$0.buffer.r;
#X obj 255 15 qseq3-instr-list \$1 \$2 pongrec pong1 pong2 pong3 pong4
pong5 pong6 pong7 pong8;
#X obj 8 48 r qseq3;
#X obj 8 114 b;
#X obj 8 92 route pongrec;
#X obj 255 99 r \$1-\$2;
#X text 307 100 pitch steps dir level feedback;
#X obj 253 452 *~;
#X obj 387 452 *~;
#X obj 368 330 vline~;
#X obj 511 335 vline~;
#X obj 175 544 *~;
#X obj 217 546 *~;
#X obj 8 70 route \$1-\$2;
#X obj 255 121 unpack f f f f f f;
#N canvas 698 398 450 300 pan 0;
#X obj 115 118 cos;
#X obj 215 122 atan;
#X msg 215 101 1;
#X obj 215 144 * 2;
#X obj 115 73 *;
#X obj 142 117 sin;
#X obj 14 9 inlet;
#X obj 188 11 inlet;
#X obj 14 246 outlet;
#X obj 73 245 outlet;
#X obj 215 80 loadbang;
#X obj 115 95 t a a;
#X obj 14 201 *;
#X obj 27 171 t b a;
#X obj 73 204 *;
#X obj 86 174 t b a;
#X text 234 11 range: 0-1;
#X text 237 27 default: 0.5;
#X obj 14 116 t a a;
#X connect 0 0 13 0;
#X connect 1 0 3 0;
#X connect 2 0 1 0;
#X connect 3 0 4 1;
#X connect 4 0 11 0;
#X connect 5 0 15 0;
#X connect 6 0 18 0;
#X connect 7 0 4 0;
#X connect 10 0 2 0;
#X connect 11 0 0 0;
#X connect 11 1 5 0;
#X connect 12 0 8 0;
#X connect 13 0 12 0;
#X connect 13 1 12 1;
#X connect 14 0 9 0;
#X connect 15 0 14 0;
#X connect 15 1 14 1;
#X connect 18 0 12 0;
#X connect 18 1 14 0;
#X restore 368 295 pd pan;
#X obj 418 329 vline~;
#N canvas 365 371 392 407 wavedisplay 0;
#X obj 28 327 rh_wavedisplay \$0.buffer.l \$0.sample;
#X obj 28 16 inlet;
#X obj 28 38 t b b b b b b;
#X msg 98 115 range 0 441000;
#X obj 80 72 del 10000;
#X msg 80 94 stop;
#X obj 45 175 f;
#X obj 88 178 + 1;
#X obj 45 228 t a a;
#X obj 45 272 pack f f;
#X obj 199 270 r \$0.wave.scale;
#X msg 199 292 scale \$1;
#X msg 159 144 -1;
#X obj 45 143 metro 92.8798;
#X obj 45 206 * 4096;
#X obj 77 251 + 4096;
#X msg 44 298 update \$1 \$2;
#X connect 1 0 2 0;
#X connect 2 0 0 0;
#X connect 2 1 13 0;
#X connect 2 3 4 0;
#X connect 2 4 3 0;
#X connect 2 5 12 0;
#X connect 3 0 0 0;
#X connect 4 0 5 0;
#X connect 5 0 13 0;
#X connect 6 0 7 0;
#X connect 6 0 14 0;
#X connect 7 0 6 1;
#X connect 8 0 9 0;
#X connect 8 1 15 0;
#X connect 9 0 16 0;
#X connect 10 0 11 0;
#X connect 11 0 0 0;
#X connect 12 0 6 1;
#X connect 13 0 6 0;
#X connect 14 0 8 0;
#X connect 15 0 9 1;
#X connect 16 0 0 0;
#X restore 41 178 pd wavedisplay;
#X obj 254 55 table \$0.buffer.l 441000;
#X obj 254 76 table \$0.buffer.r 441000;
#X connect 0 0 23 1;
#X connect 1 0 24 1;
#X connect 6 0 8 0;
#X connect 6 0 7 0;
#X connect 7 0 31 0;
#X connect 8 0 32 0;
#X connect 9 0 2 0;
#X connect 9 0 35 0;
#X connect 10 0 3 0;
#X connect 10 0 36 0;
#X connect 11 0 10 0;
#X connect 12 0 9 0;
#X connect 13 0 14 1;
#X connect 14 0 17 1;
#X connect 14 0 15 0;
#X connect 15 0 18 1;
#X connect 16 0 17 0;
#X connect 17 0 18 0;
#X connect 18 0 20 0;
#X connect 19 0 6 0;
#X connect 20 0 21 0;
#X connect 21 0 22 0;
#X connect 21 1 19 0;
#X connect 22 0 6 0;
#X connect 26 0 37 0;
#X connect 27 0 23 0;
#X connect 27 0 24 0;
#X connect 27 0 41 0;
#X connect 28 0 27 0;
#X connect 29 0 38 0;
#X connect 31 0 12 0;
#X connect 32 0 11 0;
#X connect 33 0 31 1;
#X connect 34 0 35 1;
#X connect 34 0 36 1;
#X connect 35 0 24 1;
#X connect 36 0 23 1;
#X connect 37 0 28 0;
#X connect 38 0 16 0;
#X connect 38 1 14 0;
#X connect 38 2 39 0;
#X connect 38 3 39 1;
#X connect 38 4 34 0;
#X connect 38 5 20 1;
#X connect 39 0 33 0;
#X connect 39 1 40 0;
#X connect 40 0 32 1;
