#N canvas 494 321 579 333 10;
#N canvas 0 43 369 108 NETPD 0;
#X msg 9 6 version 0 1 2;
#X restore 347 9 pd NETPD 2 0;
#X obj 224 200 netpd_f \$1 \$2/\$3/fb 0;
#X obj 139 87 netpd_f \$1 \$2/\$3/pitch 0;
#X obj 40 20 nbx 4 14 0 200 0 0 \$1-\$2/\$3/steps \$1-\$2/\$3/steps
empty 0 8 0 10 -262130 -159808 -159808 4 256;
#X obj 159 110 netpd_f \$1 \$2/\$3/steps 4;
#X obj 198 154 netpd_f \$1 \$2/\$3/level 1;
#X obj 33 98 r qseq3;
#X obj 33 142 route pong\$3;
#X obj 33 194 b;
#X obj 33 277 s \$1-\$2;
#X obj 33 120 route \$1-\$2;
#X obj 33 222 f;
#X obj 213 176 netpd_f \$1 \$2/\$3/pan 0.5;
#X obj 33 250 pack f f f f f f;
#X obj 82 20 nbx 4 14 -200 200 0 0 \$1-\$2/\$3/length \$1-\$2/\$3/length
empty 0 8 0 10 -262130 -159808 -159808 33 256;
#X obj 124 20 nbx 4 14 -99 99 0 0 \$1-\$2/\$3/pitch \$1-\$2/\$3/pitch
empty 0 8 0 10 -262130 -159808 -1 -12 256;
#X obj 169 20 hsl 40 14 0 1 0 0 \$1-\$2/\$3/level \$1-\$2/\$3/level
empty -2 7 0 10 -262130 -159808 -1 3900 1;
#X obj 259 20 hsl 40 14 0 1 0 0 \$1-\$2/\$3/fb \$1-\$2/\$3/fb empty
-2 7 0 10 -262130 -159808 -1 0 1;
#X obj 214 20 hsl 40 14 0 1 0 0 \$1-\$2/\$3/pan \$1-\$2/\$3/pan empty
-2 7 0 10 -262130 -159808 -1 1950 1;
#X obj 179 131 netpd_f \$1 \$2/\$3/length 8;
#X obj 23 20 hsl 14 14 0 1 0 0 empty empty empty -2 7 0 10 -262130
-159808 -1 1100 1;
#X obj 20 20 cnv 14 20 14 empty empty \$3 10 8 0 10 -159808 -262130
0;
#X obj 20 68 sel;
#X obj 56 69 t a;
#X connect 1 0 13 5;
#X connect 2 0 11 1;
#X connect 4 0 13 1;
#X connect 5 0 13 3;
#X connect 6 0 10 0;
#X connect 7 0 8 0;
#X connect 8 0 11 0;
#X connect 10 0 7 0;
#X connect 11 0 13 0;
#X connect 12 0 13 4;
#X connect 13 0 9 0;
#X connect 19 0 13 2;
#X connect 20 0 22 0;
#X connect 22 0 8 0;
#X connect 22 1 23 0;
#X connect 23 0 22 1;
#X coords 0 -1 1 1 281 14 2 20 20;
