#N canvas 488 505 705 603 10;
#X obj 155 317 inlet~;
#X obj 202 317 inlet~;
#X obj 253 549 outlet~;
#X obj 387 553 outlet~;
#N canvas 1064 240 231 103 NETPD 0;
#X msg 14 17 version 0 0 2;
#N canvas 798 188 338 100 ablist 0;
#X msg 11 11 roman_helpers;
#X msg 11 42 e-pong-gui-instance;
#X msg 14 72 qse3-instr-list;
#X restore 18 44 pd ablist;
#X restore 111 12 pd NETPD 2 0;
#N canvas 1376 367 343 213 \$3-e-pong 1;
#X obj 15 23 e-pong-gui-instance \$1 \$2 1;
#X obj 36 8 cnv 14 41 14 empty empty steps 2 8 0 10 -159808 -262130
0;
#X obj 77 8 cnv 14 41 14 empty empty pitch 2 8 0 10 -159808 -262130
0;
#X obj 118 8 cnv 14 25 14 empty empty empty 2 8 0 10 -159808 -262130
0;
#X obj 144 8 cnv 14 45 14 empty empty level 2 8 0 10 -159808 -262130
0;
#X obj 189 8 cnv 14 45 14 empty empty f/b 2 8 0 10 -159808 -262130
0;
#X obj 15 37 e-pong-gui-instance \$1 \$2 2;
#X obj 15 51 e-pong-gui-instance \$1 \$2 3;
#X obj 15 65 e-pong-gui-instance \$1 \$2 4;
#X obj 15 79 e-pong-gui-instance \$1 \$2 5;
#X obj 15 93 e-pong-gui-instance \$1 \$2 6;
#X obj 15 107 e-pong-gui-instance \$1 \$2 7;
#X obj 15 121 e-pong-gui-instance \$1 \$2 8;
#X restore 7 12 pd \$3-e-pong;
#X obj 257 44 table \$0.buffer.l 882000;
#X obj 257 65 table \$0.buffer.r 882000;
#X obj 254 381 vline~;
#X obj 253 427 tabread4~ \$0.buffer.l;
#X obj 387 427 tabread4~ \$0.buffer.r;
#X obj 254 500 expr~ tanh($v1);
#X obj 387 505 expr~ tanh($v1);
#X obj 387 479 hip~ 20;
#X obj 253 478 hip~ 20;
#X obj 293 144 master-param 16th;
#X obj 278 168 *;
#N canvas 980 472 285 156 ms2samp 0;
#X obj 5 9 inlet;
#X obj 5 92 *;
#X obj 5 114 outlet;
#X obj 43 9 loadbang;
#X obj 43 31 samplerate~;
#X obj 43 53 / 1000;
#X connect 0 0 1 0;
#X connect 1 0 2 0;
#X connect 3 0 4 0;
#X connect 4 0 5 0;
#X connect 5 0 1 1;
#X restore 276 244 pd ms2samp;
#N canvas 625 191 299 195 pitch2relative 0;
#X obj 9 86 mtof;
#X obj 9 65 + 69;
#X obj 9 108 / 440;
#X obj 9 43 * -1;
#X obj 9 13 inlet;
#X obj 9 140 outlet;
#X connect 0 0 2 0;
#X connect 1 0 0 0;
#X connect 2 0 5 0;
#X connect 3 0 1 0;
#X connect 4 0 3 0;
#X restore 255 201 pd pitch2relative;
#X obj 255 222 *;
#X obj 255 269 pack;
#X msg 280 335 \$2 \, 0 \$1;
#X obj 255 291 list prepend;
#X obj 255 313 route 0 1;
#X msg 255 357 0 \, \$2 \$1;
#X obj 8 515 rh_vtabwrite~ \$0.buffer.l;
#X obj 54 489 rh_vtabwrite~ \$0.buffer.r;
#X obj 257 10 qseq3-instr-list \$1 \$2 pongrec pong1 pong2 pong3 pong4
pong5 pong6 pong7 pong8;
#X obj 8 48 r qseq3;
#X obj 8 114 b;
#X obj 8 92 route pongrec;
#X obj 255 99 r \$1-\$2;
#X obj 255 121 unpack f f f f f;
#X text 307 100 pitch steps dir level feedback;
#X obj 253 452 *~;
#X obj 387 452 *~;
#X obj 364 339 vline~;
#X obj 419 340 vline~;
#X obj 175 544 *~;
#X obj 217 546 *~;
#X obj 8 70 route \$1-\$2;
#X connect 0 0 25 1;
#X connect 1 0 26 1;
#X connect 8 0 10 0;
#X connect 8 0 9 0;
#X connect 9 0 34 0;
#X connect 10 0 35 0;
#X connect 11 0 2 0;
#X connect 11 0 38 0;
#X connect 12 0 3 0;
#X connect 12 0 39 0;
#X connect 13 0 12 0;
#X connect 14 0 11 0;
#X connect 15 0 16 1;
#X connect 16 0 19 1;
#X connect 16 0 17 0;
#X connect 17 0 20 1;
#X connect 18 0 19 0;
#X connect 19 0 20 0;
#X connect 20 0 22 0;
#X connect 21 0 8 0;
#X connect 22 0 23 0;
#X connect 23 0 24 0;
#X connect 23 1 21 0;
#X connect 24 0 8 0;
#X connect 28 0 40 0;
#X connect 29 0 25 0;
#X connect 29 0 26 0;
#X connect 30 0 29 0;
#X connect 31 0 32 0;
#X connect 32 0 18 0;
#X connect 32 1 16 0;
#X connect 32 2 36 0;
#X connect 32 3 37 0;
#X connect 32 4 22 1;
#X connect 34 0 14 0;
#X connect 35 0 13 0;
#X connect 36 0 34 1;
#X connect 36 0 35 1;
#X connect 37 0 38 1;
#X connect 37 0 39 1;
#X connect 38 0 26 1;
#X connect 39 0 25 1;
#X connect 40 0 30 0;
