#N canvas 631 76 553 569 10;
#X obj 4 42 inlet~;
#X obj 51 39 inlet~;
#X obj 107 511 outlet~;
#X obj 276 506 outlet~;
#N canvas 1064 212 231 103 NETPD 0;
#X msg 14 17 version 0 0 1;
#N canvas 798 188 338 100 ablist 0;
#X msg 11 11 roman_helpers;
#X msg 11 42 e-pong-gui-instance;
#X restore 18 44 pd ablist;
#X restore 111 12 pd NETPD 2 0;
#N canvas 1062 359 164 56 \$3-e-pong 1;
#X obj 13 13 hsl 128 15 1 1000 1 0 \$1-\$2/amount \$1-\$2/amount something
15 7 1 9 -262144 -1 -1 0 1;
#X restore 7 12 pd \$3-e-pong;
#X obj 326 13 table \$0.buffer.l 882000;
#X obj 331 34 table \$0.buffer.r 882000;
#X obj 199 90 bng 15 250 50 0 empty empty empty 17 7 0 10 -262144 -1
-1;
#X obj 140 375 vline~;
#X obj 100 420 tabread4~ \$0.buffer.l;
#X obj 203 14 master-param step;
#X obj 262 435 tabread4~ \$0.buffer.r;
#X obj 203 62 sel 0;
#X obj 99 463 expr~ tanh($v1);
#X obj 260 477 expr~ tanh($v1);
#X obj 262 457 hip~ 20;
#X obj 98 441 hip~ 20;
#X msg 252 203 7;
#X obj 322 193 master-param 16th;
#X floatatom 295 174 5 0 0 0 - - -, f 5;
#X obj 302 228 *;
#N canvas 980 472 285 156 ms2samp 0;
#X obj 5 9 inlet;
#X obj 5 92 *;
#X obj 5 114 outlet;
#X obj 43 9 loadbang;
#X obj 43 31 samplerate~;
#X obj 43 53 / 1000;
#X connect 0 0 1 0;
#X connect 1 0 2 0;
#X connect 3 0 4 0;
#X connect 4 0 5 0;
#X connect 5 0 1 1;
#X restore 339 307 pd ms2samp;
#N canvas 625 191 299 195 pitch2relative 0;
#X obj 9 86 mtof;
#X obj 9 65 + 69;
#X obj 9 108 / 440;
#X obj 9 43 * -1;
#X obj 9 13 inlet;
#X obj 9 140 outlet;
#X connect 0 0 2 0;
#X connect 1 0 0 0;
#X connect 2 0 5 0;
#X connect 3 0 1 0;
#X connect 4 0 3 0;
#X restore 241 255 pd pitch2relative;
#X obj 241 276 *;
#X obj 253 316 pack;
#X msg 277 380 \$2 \, 0 \$1;
#X msg 206 199 0;
#X msg 234 163 -2;
#X floatatom 258 136 5 0 0 0 - - -, f 5;
#X obj 203 40 mod 32;
#X obj 253 338 list prepend;
#X obj 414 341 tgl 15 0 empty empty empty 17 7 0 10 -262144 -1 -1 1
1;
#X obj 253 360 route 0 1;
#X msg 251 399 0 \, \$2 \$1;
#X obj 21 164 rh_vtabwrite~ \$0.buffer.l;
#X obj 60 123 rh_vtabwrite~ \$0.buffer.r;
#X msg 307 136 -53;
#X obj 73 216 tabwrite~;
#X connect 0 0 35 1;
#X connect 1 0 36 1;
#X connect 8 0 35 0;
#X connect 8 0 36 0;
#X connect 9 0 12 0;
#X connect 9 0 10 0;
#X connect 10 0 17 0;
#X connect 11 0 30 0;
#X connect 12 0 16 0;
#X connect 14 0 2 0;
#X connect 15 0 3 0;
#X connect 16 0 15 0;
#X connect 17 0 14 0;
#X connect 18 0 23 0;
#X connect 19 0 21 1;
#X connect 20 0 21 0;
#X connect 21 0 24 1;
#X connect 21 0 22 0;
#X connect 22 0 25 1;
#X connect 23 0 24 0;
#X connect 24 0 25 0;
#X connect 25 0 31 0;
#X connect 26 0 9 0;
#X connect 27 0 23 0;
#X connect 28 0 23 0;
#X connect 29 0 23 0;
#X connect 30 0 13 0;
#X connect 31 0 33 0;
#X connect 32 0 31 1;
#X connect 33 0 34 0;
#X connect 33 1 26 0;
#X connect 34 0 9 0;
#X connect 37 0 23 0;
