#N canvas 699 148 381 196 10;
#X obj 21 51 r~ \$2-l;
#X obj 21 131 throw~ \$2-l;
#X obj 155 52 r~ \$2-r;
#X obj 115 131 throw~ \$2-r;
#N canvas 247 22 525 518 rwo-1 0;
#X obj 15 18 inlet~;
#X obj 235 18 inlet~;
#X obj 15 448 outlet~;
#X obj 235 448 outlet~;
#X obj 15 368 phasor~;
#X obj 235 368 phasor~;
#X msg 146 98 bang;
#X obj 105 38 t b b;
#X obj 105 78 del 500;
#X msg 105 98 stop;
#X obj 121 238 t b f;
#X obj 121 258 f 1000;
#X obj 121 278 /;
#X obj 105 298 f 2;
#X obj 127 338 f 0;
#N canvas 237 393 660 329 netpd-mixed_rwo.length 0;
#X msg 29 187 set \$1;
#X msg 249 187 set \$1;
#X obj 29 167 int;
#X obj 219 50 t f b;
#X obj 354 82 del 500;
#X obj 410 87 loadbang;
#X obj 288 144 spigot;
#X obj 29 50 t f b;
#X text 31 8 [netpd-mixed];
#X obj 325 115 f 0;
#X obj 355 115 f 1;
#X obj 177 287 outlet;
#X obj 151 257 netpd-ax \$1 \$2_1-rwo.length;
#X obj 375 227 symbol \$2;
#X msg 375 247 \; netpd-receive \$1_1-rwo.length 500;
#X obj 219 29 r \$2_1-rwo.l-slider;
#X obj 30 29 r \$2_1-rwo.l-number;
#X obj 29 207 s \$2_1-rwo.l-number-r;
#X obj 249 207 s \$2_1-rwo.l-slider-r;
#X connect 0 0 17 0;
#X connect 1 0 18 0;
#X connect 2 0 0 0;
#X connect 3 0 2 0;
#X connect 3 0 12 0;
#X connect 3 1 4 0;
#X connect 3 1 9 0;
#X connect 4 0 10 0;
#X connect 5 0 10 0;
#X connect 5 0 13 0;
#X connect 6 0 1 0;
#X connect 6 0 2 0;
#X connect 7 0 1 0;
#X connect 7 0 12 0;
#X connect 7 1 4 0;
#X connect 7 1 9 0;
#X connect 9 0 6 1;
#X connect 10 0 6 1;
#X connect 12 0 11 0;
#X connect 12 0 6 0;
#X connect 13 0 14 0;
#X connect 15 0 3 0;
#X connect 16 0 7 0;
#X restore 149 58 pd netpd-mixed_rwo.length;
#N canvas 237 393 656 325 netpd-mixed_rwo.speed 0;
#X msg 29 187 set \$1;
#X msg 259 187 set \$1;
#X obj 29 167 int;
#X obj 219 50 t f b;
#X obj 354 82 del 500;
#X obj 410 87 loadbang;
#X obj 288 144 spigot;
#X obj 29 50 t f b;
#X text 31 8 [netpd-mixed];
#X obj 325 115 f 0;
#X obj 355 115 f 1;
#X obj 177 287 outlet;
#X obj 375 227 symbol \$2;
#X obj 151 257 netpd-ax \$1 \$2_1-rwo.speed;
#X msg 375 247 \; netpd-receive \$1_1-rwo.speed 500;
#X obj 259 207 s \$2_1-rwo.s-slider-r;
#X obj 219 29 r \$2_1-rwo.s-slider;
#X obj 30 29 r \$2_1-rwo.s-number;
#X obj 29 207 s \$2_1-rwo.s-number-r;
#X connect 0 0 18 0;
#X connect 1 0 15 0;
#X connect 2 0 0 0;
#X connect 3 0 2 0;
#X connect 3 0 13 0;
#X connect 3 1 4 0;
#X connect 3 1 9 0;
#X connect 4 0 10 0;
#X connect 5 0 10 0;
#X connect 5 0 12 0;
#X connect 6 0 1 0;
#X connect 6 0 2 0;
#X connect 7 0 1 0;
#X connect 7 0 13 0;
#X connect 7 1 4 0;
#X connect 7 1 9 0;
#X connect 9 0 6 1;
#X connect 10 0 6 1;
#X connect 12 0 14 0;
#X connect 13 0 11 0;
#X connect 13 0 6 0;
#X connect 16 0 3 0;
#X connect 17 0 7 0;
#X restore 121 218 pd netpd-mixed_rwo.speed;
#X obj 15 38 *~ 0.63;
#X obj 235 38 *~ 0.63;
#X obj 286 308 * 44.1;
#X obj 15 388 *~ 22050;
#X obj 235 388 *~ 22050;
#X obj 15 168 table \$2_1-rwo-right 44100;
#X obj 15 138 tabwrite~ \$2_1-rwo-right;
#X obj 15 408 tabread~ \$2_1-rwo-right;
#X obj 235 408 tabread~ \$2_1-rwo-left;
#X obj 235 168 table \$2_1-rwo-left 44100;
#X obj 235 138 tabwrite~ \$2_1-rwo-left;
#X obj 105 18 r \$2_1-rec;
#X obj 105 198 r \$2_1-play;
#X obj 15 428 *~;
#X obj 235 428 *~;
#X obj 149 368 del 500;
#X obj 105 318 t f b b;
#X obj 179 388 f 1;
#X obj 149 388 f 0;
#X obj 151 278 abs;
#X connect 0 0 17 0;
#X connect 1 0 18 0;
#X connect 4 0 20 0;
#X connect 5 0 21 0;
#X connect 6 0 23 0;
#X connect 6 0 27 0;
#X connect 7 0 8 0;
#X connect 7 1 6 0;
#X connect 8 0 9 0;
#X connect 9 0 23 0;
#X connect 9 0 27 0;
#X connect 10 0 11 0;
#X connect 10 1 12 1;
#X connect 10 1 36 0;
#X connect 11 0 12 0;
#X connect 12 0 13 1;
#X connect 13 0 33 0;
#X connect 14 0 4 1;
#X connect 14 0 5 1;
#X connect 15 0 8 1;
#X connect 15 0 19 0;
#X connect 16 0 10 0;
#X connect 17 0 23 0;
#X connect 18 0 27 0;
#X connect 19 0 20 1;
#X connect 19 0 21 1;
#X connect 20 0 24 0;
#X connect 21 0 25 0;
#X connect 24 0 30 0;
#X connect 25 0 31 0;
#X connect 28 0 7 0;
#X connect 29 0 13 0;
#X connect 30 0 2 0;
#X connect 31 0 3 0;
#X connect 32 0 35 0;
#X connect 33 0 4 0;
#X connect 33 0 5 0;
#X connect 33 1 14 0;
#X connect 33 2 32 0;
#X connect 33 2 34 0;
#X connect 34 0 30 1;
#X connect 34 0 31 1;
#X connect 35 0 30 1;
#X connect 35 0 31 1;
#X connect 36 0 32 1;
#X restore 21 88 pd rwo-1;
#N canvas 671 81 410 201 qseq.list 0;
#X obj 6 15 loadbang;
#X obj 6 35 s qseq.listbang;
#X obj 6 79 r qseq.getlist;
#X obj 6 139 s qseq.list;
#X obj 6 99 symbol \$2;
#X msg 6 119 \$1_1-rec \, \$1_1-play \, \$1_2-rec \, \$1_2-play;
#X connect 0 0 1 0;
#X connect 2 0 4 0;
#X connect 4 0 5 0;
#X connect 5 0 3 0;
#X restore 157 21 pd qseq.list;
#N canvas 247 22 521 514 rwo-2 0;
#X obj 15 18 inlet~;
#X obj 235 18 inlet~;
#X obj 15 448 outlet~;
#X obj 235 448 outlet~;
#X obj 15 368 phasor~;
#X obj 235 368 phasor~;
#X msg 146 98 bang;
#X obj 105 38 t b b;
#X obj 105 78 del 500;
#X msg 105 98 stop;
#X obj 121 238 t b f;
#X obj 121 258 f 1000;
#X obj 121 278 /;
#X obj 105 298 f 2;
#X obj 127 338 f 0;
#N canvas 237 393 660 329 netpd-mixed_rwo.length 0;
#X msg 29 187 set \$1;
#X msg 249 187 set \$1;
#X obj 29 167 int;
#X obj 219 50 t f b;
#X obj 354 82 del 500;
#X obj 410 87 loadbang;
#X obj 288 144 spigot;
#X obj 29 50 t f b;
#X text 31 8 [netpd-mixed];
#X obj 325 115 f 0;
#X obj 355 115 f 1;
#X obj 177 287 outlet;
#X obj 375 227 symbol \$2;
#X obj 30 29 r \$2_2-rwo.l-number;
#X obj 219 29 r \$2_2-rwo.l-slider;
#X obj 29 207 s \$2_2-rwo.l-number-r;
#X obj 249 207 s \$2_2-rwo.l-slider-r;
#X obj 151 257 netpd-ax \$1 \$2_2-rwo.length;
#X msg 375 247 \; netpd-receive \$1_2-rwo.length 500;
#X connect 0 0 15 0;
#X connect 1 0 16 0;
#X connect 2 0 0 0;
#X connect 3 0 2 0;
#X connect 3 0 17 0;
#X connect 3 1 4 0;
#X connect 3 1 9 0;
#X connect 4 0 10 0;
#X connect 5 0 10 0;
#X connect 5 0 12 0;
#X connect 6 0 1 0;
#X connect 6 0 2 0;
#X connect 7 0 1 0;
#X connect 7 0 17 0;
#X connect 7 1 4 0;
#X connect 7 1 9 0;
#X connect 9 0 6 1;
#X connect 10 0 6 1;
#X connect 12 0 18 0;
#X connect 13 0 7 0;
#X connect 14 0 3 0;
#X connect 17 0 11 0;
#X connect 17 0 6 0;
#X restore 149 58 pd netpd-mixed_rwo.length;
#N canvas 237 393 656 325 netpd-mixed_rwo.speed 0;
#X msg 29 187 set \$1;
#X msg 249 187 set \$1;
#X obj 29 167 int;
#X obj 219 50 t f b;
#X obj 354 82 del 500;
#X obj 410 87 loadbang;
#X obj 288 144 spigot;
#X obj 29 50 t f b;
#X text 31 8 [netpd-mixed];
#X obj 325 115 f 0;
#X obj 355 115 f 1;
#X obj 177 287 outlet;
#X obj 375 227 symbol \$2;
#X obj 29 30 r \$2_2-rwo.s-number;
#X obj 219 30 r \$2_2-rwo.s-slider;
#X obj 249 207 s \$2_2-rwo.s-slider-r;
#X obj 29 207 s \$2_2-rwo.s-number-r;
#X obj 151 257 netpd-ax \$1 \$2_2-rwo.speed;
#X msg 375 247 \; netpd-receive \$1_2-rwo.speed 500;
#X connect 0 0 16 0;
#X connect 1 0 15 0;
#X connect 2 0 0 0;
#X connect 3 0 2 0;
#X connect 3 0 17 0;
#X connect 3 1 4 0;
#X connect 3 1 9 0;
#X connect 4 0 10 0;
#X connect 5 0 10 0;
#X connect 5 0 12 0;
#X connect 6 0 1 0;
#X connect 6 0 2 0;
#X connect 7 0 1 0;
#X connect 7 0 17 0;
#X connect 7 1 4 0;
#X connect 7 1 9 0;
#X connect 9 0 6 1;
#X connect 10 0 6 1;
#X connect 12 0 18 0;
#X connect 13 0 7 0;
#X connect 14 0 3 0;
#X connect 17 0 11 0;
#X connect 17 0 6 0;
#X restore 121 218 pd netpd-mixed_rwo.speed;
#X obj 15 38 *~ 0.63;
#X obj 235 38 *~ 0.63;
#X obj 286 308 * 44.1;
#X obj 15 388 *~ 22050;
#X obj 235 388 *~ 22050;
#X obj 105 18 r \$2_2-rec;
#X obj 15 138 tabwrite~ \$2_2-rwo-right;
#X obj 15 168 table \$2_2-rwo-right 44100;
#X obj 235 138 tabwrite~ \$2_2-rwo-left;
#X obj 235 168 table \$2_2-rwo-left 44100;
#X obj 105 198 r \$2_2-play;
#X obj 15 408 tabread~ \$2_2-rwo-right;
#X obj 235 408 tabread~ \$2_2-rwo-left;
#X obj 15 428 *~;
#X obj 235 428 *~;
#X obj 149 368 del 500;
#X obj 179 388 f 1;
#X obj 149 388 f 0;
#X obj 105 318 t f b b;
#X obj 151 278 abs;
#X connect 0 0 17 0;
#X connect 1 0 18 0;
#X connect 4 0 20 0;
#X connect 5 0 21 0;
#X connect 6 0 23 0;
#X connect 6 0 25 0;
#X connect 7 0 8 0;
#X connect 7 1 6 0;
#X connect 8 0 9 0;
#X connect 9 0 23 0;
#X connect 9 0 25 0;
#X connect 10 0 11 0;
#X connect 10 1 12 1;
#X connect 10 1 36 0;
#X connect 11 0 12 0;
#X connect 12 0 13 1;
#X connect 13 0 35 0;
#X connect 14 0 4 1;
#X connect 14 0 5 1;
#X connect 15 0 8 1;
#X connect 15 0 19 0;
#X connect 16 0 10 0;
#X connect 17 0 23 0;
#X connect 18 0 25 0;
#X connect 19 0 20 1;
#X connect 19 0 21 1;
#X connect 20 0 28 0;
#X connect 21 0 29 0;
#X connect 22 0 7 0;
#X connect 27 0 13 0;
#X connect 28 0 30 0;
#X connect 29 0 31 0;
#X connect 30 0 2 0;
#X connect 31 0 3 0;
#X connect 32 0 34 0;
#X connect 33 0 30 1;
#X connect 33 0 31 1;
#X connect 34 0 30 1;
#X connect 34 0 31 1;
#X connect 35 0 4 0;
#X connect 35 0 5 0;
#X connect 35 1 14 0;
#X connect 35 2 32 0;
#X connect 35 2 33 0;
#X connect 36 0 32 1;
#X restore 111 88 pd rwo-2;
#N canvas 423 262 413 92 \$2-e-rwo-gui 1;
#X obj 19 14 hsl 128 15 0 1000 0 0 \$2_1-rwo.l-slider \$2_1-rwo.l-slider-r
rec-length 7 7 1 9 -262144 -1 -1 4013 0;
#X floatatom 151 14 5 0 0 0 - #2_1-rwo.l-number-r #2_1-rwo.l-number
;
#X obj 199 14 hsl 128 15 -500 1000 0 0 \$2_1-rwo.s-slider \$2_1-rwo.s-slider-r
speed 7 7 1 9 -262144 -1 -1 10964 0;
#X floatatom 331 14 5 0 0 0 - #2_1-rwo.s-number-r #2_1-rwo.s-number
;
#X obj 19 34 hsl 128 15 0 1000 0 0 \$2_2-rwo.l-slider \$2_2-rwo.l-slider-r
rec-length 7 7 1 9 -262144 -1 -1 4102 0;
#X floatatom 151 34 5 0 0 0 - #2_2-rwo.l-number-r #2_2-rwo.l-number
;
#X obj 199 34 hsl 128 15 -500 1000 0 0 \$2_2-rwo.s-slider \$2_2-rwo.s-slider-r
speed 7 7 1 9 -262144 -1 -1 9305 0;
#X floatatom 331 34 5 0 0 0 - #2_2-rwo.s-number-r #2_2-rwo.s-number
;
#X restore 21 21 pd \$2-e-rwo-gui;
#X msg 261 21 version 0.1.1;
#X connect 0 0 4 0;
#X connect 0 0 6 0;
#X connect 2 0 4 1;
#X connect 2 0 6 1;
#X connect 4 0 1 0;
#X connect 4 1 3 0;
#X connect 6 0 1 0;
#X connect 6 1 3 0;
