#N canvas 971 333 532 327 10;
#X text 127 17 from H09.ssb.modulation;
#N canvas 589 230 319 60 \$3-e-ssb 1;
#X obj 26 18 nbx 5 16 -1e+37 1e+37 0 0 \$1-\$2/f/left \$1-\$2/f/left
left 10 -9 0 10 -262144 -1 -1 -1.8 256;
#X obj 86 18 nbx 5 16 -1e+37 1e+37 0 0 \$1-\$2/f/right \$1-\$2/f/right
right 10 -9 0 10 -262144 -1 -1 0.12 256;
#X text 145 17 ssb freq shift;
#X restore 14 17 pd \$3-e-ssb;
#X obj 120 125 cos~;
#X obj 163 103 +~ -0.25;
#X obj 163 126 cos~;
#X obj 239 229 *~;
#X obj 311 229 *~;
#X obj 239 259 -~;
#X obj 120 79 phasor~;
#N canvas 0 50 454 304 hilbert~ 0;
#X obj 113 68 biquad~ 0.83774 -0.06338 0.06338 -0.83774 1;
#X obj 113 42 biquad~ 1.94632 -0.94657 0.94657 -1.94632 1;
#X obj 94 125 biquad~ -0.02569 0.260502 -0.260502 0.02569 1;
#X obj 94 151 biquad~ 1.8685 -0.870686 0.870686 -1.8685 1;
#X obj 94 15 inlet~;
#X obj 113 97 outlet~;
#X obj 94 178 outlet~;
#X connect 0 0 5 0;
#X connect 1 0 0 0;
#X connect 2 0 3 0;
#X connect 3 0 6 0;
#X connect 4 0 1 0;
#X connect 4 0 2 0;
#X restore 239 180 pd hilbert~;
#X obj 24 227 *~;
#X obj 96 227 *~;
#X obj 24 257 -~;
#N canvas 1041 207 454 304 hilbert~ 0;
#X obj 113 68 biquad~ 0.83774 -0.06338 0.06338 -0.83774 1;
#X obj 113 42 biquad~ 1.94632 -0.94657 0.94657 -1.94632 1;
#X obj 94 125 biquad~ -0.02569 0.260502 -0.260502 0.02569 1;
#X obj 94 151 biquad~ 1.8685 -0.870686 0.870686 -1.8685 1;
#X obj 94 15 inlet~;
#X obj 113 97 outlet~;
#X obj 94 178 outlet~;
#X connect 0 0 5 0;
#X connect 1 0 0 0;
#X connect 2 0 3 0;
#X connect 3 0 6 0;
#X connect 4 0 1 0;
#X connect 4 0 2 0;
#X restore 24 178 pd hilbert~;
#X obj 24 158 inlet~;
#X obj 239 160 inlet~;
#X obj 24 277 outlet~;
#X obj 239 279 outlet~;
#N canvas 1077 502 176 84 NETPD 0;
#X msg 13 15 version 0 1 3;
#X restore 14 38 pd NETPD 2 0;
#X obj 121 39 netpd_f \$1 \$2/f/left 0;
#X obj 369 182 cos~;
#X obj 412 160 +~ -0.25;
#X obj 412 183 cos~;
#X obj 369 136 phasor~;
#X obj 370 96 netpd_f \$1 \$2/f/right 0;
#X obj 309 35 netpd_r \$1/f;
#X text 390 38 for backward compat;
#X connect 2 0 10 1;
#X connect 3 0 4 0;
#X connect 4 0 11 1;
#X connect 5 0 7 0;
#X connect 6 0 7 1;
#X connect 7 0 17 0;
#X connect 8 0 3 0;
#X connect 8 0 2 0;
#X connect 9 0 5 0;
#X connect 9 1 6 0;
#X connect 10 0 12 0;
#X connect 11 0 12 1;
#X connect 12 0 16 0;
#X connect 13 0 10 0;
#X connect 13 1 11 0;
#X connect 14 0 13 0;
#X connect 15 0 9 0;
#X connect 19 0 8 0;
#X connect 20 0 5 1;
#X connect 21 0 22 0;
#X connect 22 0 6 1;
#X connect 23 0 21 0;
#X connect 23 0 20 0;
#X connect 24 0 23 0;
#X connect 25 0 8 0;
#X connect 25 0 23 0;
