#N canvas 611 248 188 150 10;
#X text 13 78 by Enrique Erne;
#N canvas 467 95 173 128 \$2-e-vamp-gui 1;
#X obj 13 45 hsl 130 15 0 1 0 0 \$2_evamp.d \$2_evamp.d-r decay 15
7 1 9 -262144 -1 -1 5100 0;
#X floatatom 93 6 5 1 64 0 - #2_evamp.mod-r #2_evamp.mod;
#X obj 13 25 hsl 130 15 0 1 0 0 \$2_evamp.a \$2_evamp.a-r attack 15
7 1 9 -262144 -1 -1 2700 0;
#X obj 13 65 hsl 130 15 0 1 0 0 \$2_evamp.s \$2_evamp.s-r sustain 15
7 1 9 -262144 -1 -1 12900 0;
#X obj 13 85 hsl 130 15 0 1 0 0 \$2_evamp.r \$2_evamp.r-r release 15
7 1 9 -262144 -1 -1 7100 0;
#X obj 27 6 hsl 65 14 -1 1 0 0 \$2_evamp.yo \$2_evamp.yo-r yo 15 7
1 9 -262144 -1 -1 3200 0;
#X restore 14 17 pd \$2-e-vamp-gui;
#N canvas 132 301 582 415 e-vamp 0;
#X obj 20 22 r~ \$2-l;
#X obj 20 322 throw~ \$2-l;
#X obj 154 23 r~ \$2-r;
#X obj 154 323 throw~ \$2-r;
#X obj 20 292 *~;
#X obj 154 293 *~;
#X obj 36 52 r stepshuffle;
#X obj 36 232 sel 0;
#N canvas 359 220 706 596 vadsr 0;
#X obj 167 435 vline~;
#X obj 29 395 vline~;
#X obj 167 455 dbtorms~;
#X obj 29 415 dbtorms~;
#X obj 13 465 -~;
#X obj 13 445 sig~ 1;
#X obj 109 305 rmstodb;
#X obj 106 185 max 0.1;
#X obj 180 205 max 0.1;
#X msg 167 415 0 10 0 \, 100 0 \$1 \, \$3 \$2 \$1 \, 0 \$5 \$4;
#X obj 29 325 pack 3 4 93.9794 12 16;
#X obj 282 254 max 0.1;
#X obj 180 265 + 2;
#X obj 29 305 f 3;
#X msg 29 355 100 \, 60 \$1 0 \, 100 0 \$1;
#X obj 70 515 outlet~;
#X obj 180 165 *;
#X msg 180 145 \$1 \$1;
#X obj 282 214 *;
#X msg 282 194 \$1 \$1;
#X obj 106 125 *;
#X msg 106 105 \$1 \$1;
#X msg 214 365 100;
#X obj 214 335 loadbang;
#X obj 29 155 b;
#X obj 29 135 inlet;
#X obj 477 39 s master.refresh;
#X obj 477 19 loadbang;
#X obj 106 85 * 125;
#X obj 180 125 * 125;
#X obj 282 174 * 125;
#X obj 289 154 t b a;
#X obj 187 105 t b a;
#X obj 113 65 t b a;
#X obj 197 235 t b a;
#X obj 215 15 inlet;
#X obj 180 85 netpd-fx \$1 \$2_evamp.d \$2_evamp.d-r 0.5;
#X obj 109 285 netpd-fx \$1 \$2_evamp.s \$2_evamp.s-r 1;
#X obj 106 45 netpd-fx \$1 \$2_evamp.a \$2_evamp.a-r 0.05;
#X obj 106 145 * 0.01;
#X obj 180 185 * 0.01;
#X obj 282 234 * 0.01;
#X obj 282 134 netpd-fx \$1 \$2_evamp.r \$2_evamp.r-r 0.5;
#X connect 0 0 2 0;
#X connect 1 0 3 0;
#X connect 2 0 15 0;
#X connect 3 0 4 1;
#X connect 4 0 15 0;
#X connect 5 0 4 0;
#X connect 6 0 10 2;
#X connect 7 0 13 1;
#X connect 7 0 34 0;
#X connect 8 0 10 1;
#X connect 8 0 12 0;
#X connect 9 0 0 0;
#X connect 10 0 14 0;
#X connect 10 0 9 0;
#X connect 11 0 10 4;
#X connect 12 0 10 3;
#X connect 13 0 10 0;
#X connect 14 0 1 0;
#X connect 16 0 40 0;
#X connect 17 0 16 0;
#X connect 18 0 41 0;
#X connect 19 0 18 0;
#X connect 20 0 39 0;
#X connect 21 0 20 0;
#X connect 22 0 1 0;
#X connect 23 0 22 0;
#X connect 24 0 13 0;
#X connect 25 0 24 0;
#X connect 27 0 26 0;
#X connect 28 0 21 0;
#X connect 29 0 17 0;
#X connect 30 0 19 0;
#X connect 31 0 30 0;
#X connect 31 1 30 1;
#X connect 32 0 29 0;
#X connect 32 1 29 1;
#X connect 33 0 28 0;
#X connect 33 1 28 1;
#X connect 34 0 12 0;
#X connect 34 1 12 1;
#X connect 35 0 31 0;
#X connect 35 0 32 0;
#X connect 35 0 33 0;
#X connect 36 0 29 0;
#X connect 37 0 6 0;
#X connect 38 0 28 0;
#X connect 39 0 7 0;
#X connect 40 0 8 0;
#X connect 41 0 11 0;
#X connect 42 0 30 0;
#X restore 36 262 pd vadsr;
#X obj 202 83 netpd-fx \$1 \$2_evamp.mod \$2_evamp.mod-r 1;
#X obj 36 202 mod 1;
#X obj 256 113 netpd-fx \$1 \$2_evamp.yo \$2_evamp.yo-r 0;
#X obj 73 142 == 0;
#X obj 256 261 metro;
#X obj 256 281 spigot;
#X obj 263 201 != 0;
#X obj 194 53 r 16th;
#X obj 36 172 spigot;
#X obj 210 171 t b a;
#X obj 202 191 +;
#X obj 194 231 *;
#X obj 202 211 t b a;
#X obj 263 231 t a a;
#X obj 290 165 s \$2_evamp.mod-r;
#X msg 290 145 set \$1;
#X connect 0 0 4 0;
#X connect 2 0 5 0;
#X connect 4 0 1 0;
#X connect 5 0 3 0;
#X connect 6 0 17 0;
#X connect 7 0 8 0;
#X connect 8 0 5 1;
#X connect 8 0 4 1;
#X connect 9 0 19 0;
#X connect 10 0 7 0;
#X connect 11 0 12 0;
#X connect 11 0 15 0;
#X connect 11 0 18 0;
#X connect 12 0 17 1;
#X connect 13 0 14 0;
#X connect 14 0 8 0;
#X connect 15 0 22 0;
#X connect 16 0 20 0;
#X connect 17 0 10 0;
#X connect 18 0 19 0;
#X connect 18 1 19 1;
#X connect 19 0 21 0;
#X connect 20 0 8 1;
#X connect 20 0 13 1;
#X connect 21 0 20 0;
#X connect 21 1 20 1;
#X connect 21 1 24 0;
#X connect 22 0 13 0;
#X connect 22 1 14 1;
#X connect 24 0 23 0;
#X restore 15 57 pd e-vamp;
#X msg 14 37 version 0.1.5;
