#N canvas 908 428 447 236 10;
#N canvas 0 99 450 300 NETPD 0;
#X msg 4 14 version 0 1 0;
#X restore 312 18 pd NETPD 2 0;
#X obj 20 20 nbx 10 20 1 999 0 0 \$1-\$2 \$1-\$2 empty 0 8 0 10 -262144
-1 -1 1 256;
#X obj 20 20 cnv 15 60 20 empty empty \$2: 3 10 0 12 -233017 -1 0;
#X obj 80 20 cnv 15 40 20 empty \$0.label   1 12 10 0 12 -233017 -1
0;
#X obj 28 195 netpd_f \$1 \$2;
#X obj 26 88 loadbang;
#X obj 26 111 \$3;
#X obj 26 158 s \$1-\$2;
#X msg 26 134 set \$1;
#X obj 141 82 r \$1-\$2;
#X obj 141 105 route float set;
#X obj 141 148 makefilename %3d;
#X msg 141 171 label \$1;
#X obj 141 194 s \$0.label;
#X obj 276 122 loadbang;
#X obj 276 145 list append \$4 \$5;
#X msg 276 168 range \$1 \$2;
#X obj 276 191 s \$1-\$2;
#X connect 5 0 6 0;
#X connect 6 0 8 0;
#X connect 8 0 7 0;
#X connect 9 0 10 0;
#X connect 10 0 11 0;
#X connect 10 1 11 0;
#X connect 11 0 12 0;
#X connect 12 0 13 0;
#X connect 14 0 15 0;
#X connect 15 0 16 0;
#X connect 16 0 17 0;
#X coords 0 -1 1 1 100 20 2 20 20;
