#N canvas 0 89 450 300 10;
#X obj 26 239 outlet~;
#X obj 106 240 outlet~;
#N canvas 0 89 386 57 NETPD 0;
#X msg 6 11 version 0 1 0;
#X restore 271 22 pd NETPD 2 0;
#X obj 25 21 inlet;
#X obj 266 77 netpd_r \$1 partial/\$2;
#X obj 25 128 osc~;
#X obj 25 52 * \$2;
#X obj 106 136 osc~;
#X obj 162 14 loadbang;
#X obj 162 39 random 1000;
#X obj 162 64 / 1000;
#X obj 162 93 - 0.5;
#X obj 106 108 +;
#X obj 25 77 t a a;
#X obj 25 178 *~ 0;
#X obj 105 178 *~ 0;
#X obj 25 101 +;
#X obj 84 18 random 1000;
#X obj 84 43 / 1000;
#X obj 84 72 - 0.5;
#X obj 266 100 / 8;
#X obj 266 123 t a a;
#X obj 266 146 *;
#X obj 266 169 t a a;
#X obj 266 192 *;
#X connect 3 0 6 0;
#X connect 4 0 20 0;
#X connect 5 0 14 0;
#X connect 6 0 13 0;
#X connect 7 0 15 0;
#X connect 8 0 9 0;
#X connect 8 0 17 0;
#X connect 9 0 10 0;
#X connect 10 0 11 0;
#X connect 11 0 12 1;
#X connect 12 0 7 0;
#X connect 13 0 16 0;
#X connect 13 1 12 0;
#X connect 14 0 0 0;
#X connect 15 0 1 0;
#X connect 16 0 5 0;
#X connect 17 0 18 0;
#X connect 18 0 19 0;
#X connect 19 0 16 1;
#X connect 20 0 21 0;
#X connect 21 0 22 0;
#X connect 21 1 22 1;
#X connect 22 0 23 0;
#X connect 23 0 24 0;
#X connect 23 1 24 1;
#X connect 24 0 15 1;
#X connect 24 0 14 1;
