#N canvas 328 149 465 272 10;
#N canvas 0 93 729 533 voice 0;
#X obj 41 288 osc~ 440;
#X obj 41 428 expr~ tanh($v1);
#X obj 40 402 *~;
#X obj 288 378 dbtorms~;
#X obj 288 353 vline~;
#X obj 288 135 pack f f;
#X obj 288 201 route 1 0;
#X obj 288 232 t a a;
#X obj 333 255 - 10;
#X obj 288 280 pack f f;
#X msg 288 308 \$1 5 0 \, \$2 30 10;
#X obj 52 311 osc~ 880.5;
#X obj 52 334 *~ 0.5;
#X obj 418 264 - 30;
#X msg 418 317 \$1 10 0 \, 0 2000 50;
#X obj 41 171 mtof;
#X obj 41 214 t a a;
#X obj 68 236 * 2;
#X obj 68 259 + 0.5;
#X obj 389 56 t a a;
#X obj 389 79 *;
#X obj 389 33 / 100;
#X obj 389 102 t a a;
#X obj 389 125 *;
#X obj 389 148 rmstodb;
#X obj 41 31 inlet;
#X obj 41 60 unpack f f;
#X obj 288 55 moses 1;
#X obj 327 81 t b a;
#X msg 327 104 1;
#X msg 288 85 0;
#X obj 41 451 outlet~;
#X obj 151 308 osc~ 440;
#X obj 151 428 expr~ tanh($v1);
#X obj 150 402 *~;
#X obj 162 331 osc~ 880.5;
#X obj 162 354 *~ 0.5;
#X obj 178 236 * 2;
#X obj 151 451 outlet~;
#X obj 220 191 random 100;
#X obj 220 214 / 100;
#X obj 220 237 - 0.5;
#X obj 151 237 +;
#X obj 151 204 t a a b;
#X obj 178 259 +;
#X obj 178 282 - 0.5;
#X obj 560 466 outlet;
#X obj 288 158 t a a;
#X msg 529 180 \$1;
#X obj 529 205 sel 0 1, f 19;
#X msg 584 273 1;
#X obj 529 249 del 2100;
#X msg 548 227 stop;
#X msg 529 272 0;
#X obj 560 315 t a a;
#X obj 587 340 switch~;
#X obj 581 392 inlet;
#X obj 581 417 t b a;
#X obj 560 442 ||;
#X connect 0 0 2 0;
#X connect 1 0 31 0;
#X connect 2 0 1 0;
#X connect 3 0 2 1;
#X connect 3 0 34 1;
#X connect 4 0 3 0;
#X connect 5 0 47 0;
#X connect 6 0 7 0;
#X connect 6 1 13 0;
#X connect 7 0 9 0;
#X connect 7 1 8 0;
#X connect 8 0 9 1;
#X connect 9 0 10 0;
#X connect 10 0 4 0;
#X connect 11 0 12 0;
#X connect 12 0 2 0;
#X connect 13 0 14 0;
#X connect 14 0 4 0;
#X connect 15 0 16 0;
#X connect 15 0 43 0;
#X connect 16 0 0 0;
#X connect 16 1 17 0;
#X connect 17 0 18 0;
#X connect 18 0 11 0;
#X connect 19 0 20 0;
#X connect 19 1 20 1;
#X connect 20 0 22 0;
#X connect 21 0 19 0;
#X connect 22 0 23 0;
#X connect 22 1 23 1;
#X connect 23 0 24 0;
#X connect 24 0 5 1;
#X connect 25 0 26 0;
#X connect 26 0 15 0;
#X connect 26 1 27 0;
#X connect 27 0 30 0;
#X connect 27 1 28 0;
#X connect 28 0 29 0;
#X connect 28 1 21 0;
#X connect 29 0 5 0;
#X connect 30 0 5 0;
#X connect 32 0 34 0;
#X connect 33 0 38 0;
#X connect 34 0 33 0;
#X connect 35 0 36 0;
#X connect 36 0 34 0;
#X connect 37 0 44 0;
#X connect 39 0 40 0;
#X connect 40 0 41 0;
#X connect 41 0 42 1;
#X connect 41 0 44 1;
#X connect 42 0 32 0;
#X connect 43 0 42 0;
#X connect 43 1 37 0;
#X connect 43 2 39 0;
#X connect 44 0 45 0;
#X connect 45 0 35 0;
#X connect 47 0 6 0;
#X connect 47 1 48 0;
#X connect 48 0 49 0;
#X connect 49 0 51 0;
#X connect 49 1 50 0;
#X connect 49 1 52 0;
#X connect 50 0 54 0;
#X connect 51 0 53 0;
#X connect 52 0 51 0;
#X connect 53 0 54 0;
#X connect 54 0 58 0;
#X connect 54 1 55 0;
#X connect 56 0 57 0;
#X connect 57 0 58 0;
#X connect 57 1 58 1;
#X connect 58 0 46 0;
#X restore 27 105 pd voice;
#X f 16;
#N canvas 0 89 422 64 NETPD 0;
#X msg 8 10 version 0 1 1;
#X restore 204 16 pd NETPD 2 0;
#X obj 27 31 r \$1-elorg-voice;
#X obj 27 54 route \$2;
#X obj 28 219 throw~ \$1-sum/left;
#X obj 72 192 throw~ \$1-sum/right;
#X obj 120 70 inlet;
#X obj 120 141 outlet;
#X connect 0 0 4 0;
#X connect 0 1 5 0;
#X connect 0 2 7 0;
#X connect 2 0 3 0;
#X connect 3 0 0 0;
#X connect 6 0 0 1;
