#N canvas 0 106 1920 974 10;
#X msg 770 123 1000 \$1;
#X obj 770 145 /;
#N canvas 475 178 275 139 resonator~ 0;
#X obj 12 79 biquad~;
#X msg 211 65 clear;
#X obj 62 54 pack f f f f f;
#N canvas 469 50 627 618 resonator.coeff 0;
#N canvas 270 46 213 261 hz2rad 0;
#X obj 48 74 samplerate~;
#X obj 48 53 loadbang;
#X obj 48 137 atan;
#X msg 48 116 1;
#X text 62 32 w = 2 * pi * f / SR;
#X obj 48 158 * 8;
#X obj 48 95 t b a;
#X obj 48 179 / 44100;
#X text 103 183 2 * pi / SR;
#X obj 13 32 inlet;
#X obj 13 222 outlet;
#X text 59 224 w(rad);
#X text 9 11 freq(Hz);
#X obj 13 193 *;
#X connect 0 0 6 0;
#X connect 1 0 0 0;
#X connect 2 0 5 0;
#X connect 3 0 2 0;
#X connect 5 0 7 0;
#X connect 6 0 3 0;
#X connect 6 1 7 1;
#X connect 7 0 13 1;
#X connect 9 0 13 0;
#X connect 13 0 10 0;
#X restore 60 231 pd hz2rad;
#X obj 60 252 t f f;
#X obj 160 266 sin;
#X obj 60 387 cos;
#X obj 60 210 clip 20 20000;
#X msg 209 271 1 \$1;
#X obj 209 292 /;
#X obj 194 313 *;
#X obj 194 343 * 0.5;
#X text 291 49 (b0/a0) + (b1/a0)*z^(-1) + (b2/a0)*z^(-2);
#X obj 5 408 f;
#X msg 5 429 1 \$1;
#X obj 5 450 /;
#X obj 145 539 *;
#X obj 285 539 *;
#X obj 5 539 *;
#X obj 75 539 *;
#X text 251 206 w0 = 2*pi*f0*Fs;
#X text 251 226 alpha = sin(w0)/(2*Q);
#X obj 197 108 t b f;
#X obj 36 109 loadbang;
#X text 263 276 a0 = 1 + alpha;
#X text 294 86 1 + (a1/a0)*z^(-1) + (a2/a0)*z^(-2);
#X text 250 25 Audio-Cookbook:;
#X text 250 115 http://musicdsp.org/files/Audio-EQ-Cookbook.txt;
#X text 252 67 H(z) = -----------------------------------------;
#X obj 5 174 t b a b;
#X obj 215 581 outlet b1;
#X obj 285 581 outlet b2;
#X obj 5 581 outlet a1;
#X obj 75 581 outlet a2;
#X text -1 1 Bandpass filter with Q - biquad filter coefficient generator
;
#X text 263 356 b1 = 0;
#X obj 5 471 t f f f f;
#X obj 145 581 outlet b0;
#X text -1 23 constant skirt gain \, peak gain = Q;
#X text 250 153 BPF: H(s) = s / (s^2 + s/Q + 1) (constant skirt gain
\, peak gain = Q) b0 = sin(w0)/2 = Q*alpha b1 = 0 b2 = -sin(w0)/2 =
-Q*alpha a0 = 1 + alpha a1 = -2*cos(w0) a2 = 1 - alpha;
#X text 263 316 a2 = 1 - alpha;
#X text 263 296 a1 = -2*cos(w0);
#X text 263 336 b0 = sin(w0)/2 = Q*alpha;
#X text 263 376 b2 = -sin(w0)/2 = -Q*alpha;
#X text 252 256 BPF: (constant skirt gain);
#X obj 5 153 f;
#X obj 209 249 f;
#X obj 5 560 * -1;
#X obj 75 560 * -1;
#X obj 160 518 * 0.5;
#X obj 20 518 * -2;
#X msg 90 497 1 \$1;
#X obj 90 518 -;
#X obj 160 287 t f f;
#X obj 300 518 * -0.5;
#X obj 20 387 + 1;
#X obj 5 88 inlet;
#X obj 197 88 inlet;
#X connect 0 0 1 0;
#X connect 1 0 3 0;
#X connect 1 1 2 0;
#X connect 2 0 50 0;
#X connect 3 0 47 0;
#X connect 4 0 0 0;
#X connect 5 0 6 0;
#X connect 6 0 7 1;
#X connect 7 0 8 0;
#X connect 8 0 48 0;
#X connect 8 0 52 0;
#X connect 10 0 11 0;
#X connect 11 0 12 0;
#X connect 12 0 33 0;
#X connect 13 0 34 0;
#X connect 14 0 28 0;
#X connect 15 0 44 0;
#X connect 16 0 45 0;
#X connect 19 0 42 0;
#X connect 19 1 43 1;
#X connect 20 0 42 0;
#X connect 26 0 10 0;
#X connect 26 1 4 0;
#X connect 26 2 43 0;
#X connect 33 0 15 0;
#X connect 33 1 16 0;
#X connect 33 2 13 0;
#X connect 33 3 14 0;
#X connect 42 0 26 0;
#X connect 43 0 5 0;
#X connect 44 0 29 0;
#X connect 45 0 30 0;
#X connect 46 0 13 1;
#X connect 47 0 15 1;
#X connect 48 0 49 0;
#X connect 49 0 16 1;
#X connect 50 0 46 0;
#X connect 50 0 51 0;
#X connect 50 1 7 0;
#X connect 51 0 14 1;
#X connect 52 0 10 1;
#X connect 53 0 42 0;
#X connect 54 0 19 0;
#X restore 62 33 pd resonator.coeff;
#X obj 12 100 outlet~;
#X obj 211 44 inlet;
#X obj 62 12 inlet;
#X obj 167 12 inlet;
#X obj 12 59 inlet~;
#X connect 0 0 4 0;
#X connect 1 0 0 0;
#X connect 2 0 0 0;
#X connect 3 0 2 0;
#X connect 3 1 2 1;
#X connect 3 2 2 2;
#X connect 3 3 2 3;
#X connect 3 4 2 4;
#X connect 5 0 1 0;
#X connect 6 0 3 0;
#X connect 7 0 3 1;
#X connect 8 0 0 0;
#X restore 820 415 pd resonator~;
#X obj 760 195 del 2;
#X obj 758 218 t b b;
#X obj 725 239 pack f f;
#X obj 725 281 vline~;
#X obj 793 242 f;
#X obj 1169 46 sel 0;
#X obj 1168 256 / 126;
#X msg 1168 277 1 \$1;
#X obj 1168 298 -;
#X msg 1168 340 2 \$1;
#X obj 1168 361 pow;
#X obj 815 644 *~;
#X obj 794 665 sig~ 2;
#X obj 794 686 pow~;
#X obj 794 728 *~;
#X obj 888 651 sig~ 2;
#X obj 888 672 pow~;
#X obj 873 693 sig~ 1;
#X obj 873 714 /~;
#X obj 794 707 -~ 1;
#X obj 1141 431 t b b;
#X obj 1141 452 del 2;
#X msg 1141 473 1 0;
#X msg 1168 471 0 1;
#X obj 1141 494 line~;
#N canvas 1192 128 369 509 highpass~ 0;
#X obj 62 16 inlet;
#X obj 206 16 inlet;
#X obj 131 75 / 2;
#X obj 62 122 * 6.28319;
#X obj 62 143 /;
#X obj 131 12 loadbang;
#X obj 131 33 samplerate~;
#X obj 131 54 t f f;
#X obj 123 152 max 5.96046e-08;
#X obj 155 178 cos;
#X obj 137 320 pack f f f f f f;
#X obj 226 273 / 2;
#X obj 155 225 * -2;
#X obj 62 232 t f f;
#X msg 89 253 1 \$1;
#X obj 89 274 -;
#X obj 62 274 + 1;
#X obj 188 226 + 1;
#X obj 188 273 * -1;
#X obj 62 51 f;
#X obj 206 37 t b f;
#X obj 62 190 sin;
#X obj 62 211 /;
#X obj 123 197 * 2;
#X obj 62 164 t f f;
#X obj 188 247 t f f;
#X obj 226 294 t f f;
#X obj 155 199 t f f;
#X msg 137 341 \$2 \$3 \$4 \$5 \$6 \$1;
#X obj 137 362 unpack f f f f f f;
#X obj 137 414 /;
#X obj 167 414 /;
#X obj 197 414 /;
#X obj 227 414 /;
#X obj 257 414 /;
#X obj 137 440 pack f f f f f;
#X obj 137 388 * -1;
#X obj 167 388 * -1;
#X text 247 320 a0 a1 a2 b0 b1 b2;
#X obj 12 454 biquad~;
#X obj 289 419 inlet;
#X msg 289 440 clear;
#X obj 12 428 inlet~;
#X obj 12 475 outlet~;
#X obj 62 101 clip 20 22050;
#X connect 0 0 19 0;
#X connect 1 0 20 0;
#X connect 2 0 44 2;
#X connect 3 0 4 0;
#X connect 4 0 24 0;
#X connect 5 0 6 0;
#X connect 6 0 7 0;
#X connect 7 0 2 0;
#X connect 7 1 4 1;
#X connect 8 0 23 0;
#X connect 9 0 27 0;
#X connect 10 0 28 0;
#X connect 11 0 26 0;
#X connect 12 0 10 1;
#X connect 13 0 16 0;
#X connect 13 1 14 0;
#X connect 14 0 15 0;
#X connect 15 0 10 2;
#X connect 16 0 10 0;
#X connect 17 0 25 0;
#X connect 18 0 10 4;
#X connect 19 0 44 0;
#X connect 20 0 19 0;
#X connect 20 1 8 0;
#X connect 21 0 22 0;
#X connect 22 0 13 0;
#X connect 23 0 22 1;
#X connect 24 0 21 0;
#X connect 24 1 9 0;
#X connect 25 0 18 0;
#X connect 25 1 11 0;
#X connect 26 0 10 3;
#X connect 26 1 10 5;
#X connect 27 0 12 0;
#X connect 27 1 17 0;
#X connect 28 0 29 0;
#X connect 29 0 36 0;
#X connect 29 1 37 0;
#X connect 29 2 32 0;
#X connect 29 3 33 0;
#X connect 29 4 34 0;
#X connect 29 5 34 1;
#X connect 29 5 33 1;
#X connect 29 5 32 1;
#X connect 29 5 31 1;
#X connect 29 5 30 1;
#X connect 30 0 35 0;
#X connect 31 0 35 1;
#X connect 32 0 35 2;
#X connect 33 0 35 3;
#X connect 34 0 35 4;
#X connect 35 0 39 0;
#X connect 36 0 30 0;
#X connect 37 0 31 0;
#X connect 39 0 43 0;
#X connect 40 0 41 0;
#X connect 41 0 39 0;
#X connect 42 0 39 0;
#X connect 44 0 3 0;
#X restore 762 856 pd highpass~;
#X obj 808 814 loadbang;
#X msg 808 835 0.404061;
#X obj 725 375 *~;
#X obj 725 344 cos~;
#X obj 725 323 +~ 0.75;
#X obj 725 302 *~ 0.5;
#X obj 820 436 *~ 0.707946;
#N canvas 956 222 369 509 lowpass~ 0;
#X obj 62 16 inlet;
#X obj 206 16 inlet;
#X obj 131 75 / 2;
#X obj 62 122 * 6.28319;
#X obj 62 143 /;
#X obj 131 12 loadbang;
#X obj 131 33 samplerate~;
#X obj 131 54 t f f;
#X obj 123 152 max 5.96046e-08;
#X obj 155 178 cos;
#X obj 137 320 pack f f f f f f;
#X obj 155 225 * -2;
#X obj 62 232 t f f;
#X msg 89 253 1 \$1;
#X obj 89 274 -;
#X obj 62 274 + 1;
#X obj 62 51 f;
#X obj 206 37 t b f;
#X obj 62 190 sin;
#X obj 62 211 /;
#X obj 123 197 * 2;
#X obj 62 164 t f f;
#X obj 155 199 t f f;
#X msg 137 341 \$2 \$3 \$4 \$5 \$6 \$1;
#X obj 137 362 unpack f f f f f f;
#X obj 137 414 /;
#X obj 167 414 /;
#X obj 197 414 /;
#X obj 227 414 /;
#X obj 257 414 /;
#X obj 137 440 pack f f f f f;
#X obj 137 388 * -1;
#X obj 167 388 * -1;
#X text 247 320 a0 a1 a2 b0 b1 b2;
#X obj 12 454 biquad~;
#X obj 289 419 inlet;
#X msg 289 440 clear;
#X obj 12 428 inlet~;
#X obj 12 475 outlet~;
#X msg 211 213 1 \$1;
#X obj 211 234 -;
#X obj 211 255 t f f;
#X obj 238 276 / 2;
#X obj 238 297 t f f;
#X obj 62 101 clip 20 22050;
#X connect 0 0 16 0;
#X connect 1 0 17 0;
#X connect 2 0 44 2;
#X connect 3 0 4 0;
#X connect 4 0 21 0;
#X connect 5 0 6 0;
#X connect 6 0 7 0;
#X connect 7 0 2 0;
#X connect 7 1 4 1;
#X connect 8 0 20 0;
#X connect 9 0 22 0;
#X connect 10 0 23 0;
#X connect 11 0 10 1;
#X connect 12 0 15 0;
#X connect 12 1 13 0;
#X connect 13 0 14 0;
#X connect 14 0 10 2;
#X connect 15 0 10 0;
#X connect 16 0 44 0;
#X connect 17 0 16 0;
#X connect 17 1 8 0;
#X connect 18 0 19 0;
#X connect 19 0 12 0;
#X connect 20 0 19 1;
#X connect 21 0 18 0;
#X connect 21 1 9 0;
#X connect 22 0 11 0;
#X connect 22 1 39 0;
#X connect 23 0 24 0;
#X connect 24 0 31 0;
#X connect 24 1 32 0;
#X connect 24 2 27 0;
#X connect 24 3 28 0;
#X connect 24 4 29 0;
#X connect 24 5 29 1;
#X connect 24 5 28 1;
#X connect 24 5 27 1;
#X connect 24 5 26 1;
#X connect 24 5 25 1;
#X connect 25 0 30 0;
#X connect 26 0 30 1;
#X connect 27 0 30 2;
#X connect 28 0 30 3;
#X connect 29 0 30 4;
#X connect 30 0 34 0;
#X connect 31 0 25 0;
#X connect 32 0 26 0;
#X connect 34 0 38 0;
#X connect 35 0 36 0;
#X connect 36 0 34 0;
#X connect 37 0 34 0;
#X connect 39 0 40 0;
#X connect 40 0 41 0;
#X connect 41 0 10 4;
#X connect 41 1 42 0;
#X connect 42 0 43 0;
#X connect 43 0 10 3;
#X connect 43 1 10 5;
#X connect 44 0 3 0;
#X restore 815 561 pd lowpass~;
#N canvas 4 23 162 227 hv.tanh 0;
#X obj 12 12 inlet~;
#X obj 12 38 clip~ -3 3;
#X obj 27 64 *~;
#X obj 12 192 outlet~;
#X obj 27 140 /~;
#X obj 12 166 *~;
#X obj 67 90 *~ 9;
#X obj 27 90 +~ 27;
#X obj 67 116 +~ 27;
#X connect 0 0 1 0;
#X connect 1 0 2 0;
#X connect 1 0 2 1;
#X connect 1 0 5 0;
#X connect 2 0 7 0;
#X connect 2 0 6 0;
#X connect 4 0 5 1;
#X connect 5 0 3 0;
#X connect 6 0 8 0;
#X connect 7 0 4 0;
#X connect 8 0 4 1;
#X restore 815 623 pd hv.tanh;
#X msg 725 260 1 \, 0 \$2;
#N canvas 475 178 275 139 resonator~ 0;
#X obj 12 79 biquad~;
#X msg 211 65 clear;
#X obj 62 54 pack f f f f f;
#N canvas 469 50 627 618 resonator.coeff 0;
#N canvas 270 46 213 261 hz2rad 0;
#X obj 48 74 samplerate~;
#X obj 48 53 loadbang;
#X obj 48 137 atan;
#X msg 48 116 1;
#X text 62 32 w = 2 * pi * f / SR;
#X obj 48 158 * 8;
#X obj 48 95 t b a;
#X obj 48 179 / 44100;
#X text 103 183 2 * pi / SR;
#X obj 13 32 inlet;
#X obj 13 222 outlet;
#X text 59 224 w(rad);
#X text 9 11 freq(Hz);
#X obj 13 193 *;
#X connect 0 0 6 0;
#X connect 1 0 0 0;
#X connect 2 0 5 0;
#X connect 3 0 2 0;
#X connect 5 0 7 0;
#X connect 6 0 3 0;
#X connect 6 1 7 1;
#X connect 7 0 13 1;
#X connect 9 0 13 0;
#X connect 13 0 10 0;
#X restore 60 231 pd hz2rad;
#X obj 60 252 t f f;
#X obj 160 266 sin;
#X obj 60 387 cos;
#X obj 60 210 clip 20 20000;
#X msg 209 271 1 \$1;
#X obj 209 292 /;
#X obj 194 313 *;
#X obj 194 343 * 0.5;
#X text 291 49 (b0/a0) + (b1/a0)*z^(-1) + (b2/a0)*z^(-2);
#X obj 5 408 f;
#X msg 5 429 1 \$1;
#X obj 5 450 /;
#X obj 145 539 *;
#X obj 285 539 *;
#X obj 5 539 *;
#X obj 75 539 *;
#X text 251 206 w0 = 2*pi*f0*Fs;
#X text 251 226 alpha = sin(w0)/(2*Q);
#X obj 197 108 t b f;
#X obj 36 109 loadbang;
#X text 263 276 a0 = 1 + alpha;
#X text 294 86 1 + (a1/a0)*z^(-1) + (a2/a0)*z^(-2);
#X text 250 25 Audio-Cookbook:;
#X text 250 115 http://musicdsp.org/files/Audio-EQ-Cookbook.txt;
#X text 252 67 H(z) = -----------------------------------------;
#X obj 5 174 t b a b;
#X obj 215 581 outlet b1;
#X obj 285 581 outlet b2;
#X obj 5 581 outlet a1;
#X obj 75 581 outlet a2;
#X text -1 1 Bandpass filter with Q - biquad filter coefficient generator
;
#X text 263 356 b1 = 0;
#X obj 5 471 t f f f f;
#X obj 145 581 outlet b0;
#X text -1 23 constant skirt gain \, peak gain = Q;
#X text 250 153 BPF: H(s) = s / (s^2 + s/Q + 1) (constant skirt gain
\, peak gain = Q) b0 = sin(w0)/2 = Q*alpha b1 = 0 b2 = -sin(w0)/2 =
-Q*alpha a0 = 1 + alpha a1 = -2*cos(w0) a2 = 1 - alpha;
#X text 263 316 a2 = 1 - alpha;
#X text 263 296 a1 = -2*cos(w0);
#X text 263 336 b0 = sin(w0)/2 = Q*alpha;
#X text 263 376 b2 = -sin(w0)/2 = -Q*alpha;
#X text 252 256 BPF: (constant skirt gain);
#X obj 5 153 f;
#X obj 209 249 f;
#X obj 5 560 * -1;
#X obj 75 560 * -1;
#X obj 160 518 * 0.5;
#X obj 20 518 * -2;
#X msg 90 497 1 \$1;
#X obj 90 518 -;
#X obj 160 287 t f f;
#X obj 300 518 * -0.5;
#X obj 20 387 + 1;
#X obj 5 88 inlet;
#X obj 197 88 inlet;
#X connect 0 0 1 0;
#X connect 1 0 3 0;
#X connect 1 1 2 0;
#X connect 2 0 50 0;
#X connect 3 0 47 0;
#X connect 4 0 0 0;
#X connect 5 0 6 0;
#X connect 6 0 7 1;
#X connect 7 0 8 0;
#X connect 8 0 48 0;
#X connect 8 0 52 0;
#X connect 10 0 11 0;
#X connect 11 0 12 0;
#X connect 12 0 33 0;
#X connect 13 0 34 0;
#X connect 14 0 28 0;
#X connect 15 0 44 0;
#X connect 16 0 45 0;
#X connect 19 0 42 0;
#X connect 19 1 43 1;
#X connect 20 0 42 0;
#X connect 26 0 10 0;
#X connect 26 1 4 0;
#X connect 26 2 43 0;
#X connect 33 0 15 0;
#X connect 33 1 16 0;
#X connect 33 2 13 0;
#X connect 33 3 14 0;
#X connect 42 0 26 0;
#X connect 43 0 5 0;
#X connect 44 0 29 0;
#X connect 45 0 30 0;
#X connect 46 0 13 1;
#X connect 47 0 15 1;
#X connect 48 0 49 0;
#X connect 49 0 16 1;
#X connect 50 0 46 0;
#X connect 50 0 51 0;
#X connect 50 1 7 0;
#X connect 51 0 14 1;
#X connect 52 0 10 1;
#X connect 53 0 42 0;
#X connect 54 0 19 0;
#X restore 62 33 pd resonator.coeff;
#X obj 12 100 outlet~;
#X obj 211 44 inlet;
#X obj 62 12 inlet;
#X obj 167 12 inlet;
#X obj 12 59 inlet~;
#X connect 0 0 4 0;
#X connect 1 0 0 0;
#X connect 2 0 0 0;
#X connect 3 0 2 0;
#X connect 3 1 2 1;
#X connect 3 2 2 2;
#X connect 3 3 2 3;
#X connect 3 4 2 4;
#X connect 5 0 1 0;
#X connect 6 0 3 0;
#X connect 7 0 3 1;
#X connect 8 0 0 0;
#X restore 1213 544 pd resonator~;
#N canvas 475 178 275 139 resonator~ 0;
#X obj 12 79 biquad~;
#X msg 211 65 clear;
#X obj 62 54 pack f f f f f;
#N canvas 469 50 627 618 resonator.coeff 0;
#N canvas 270 46 213 261 hz2rad 0;
#X obj 48 74 samplerate~;
#X obj 48 53 loadbang;
#X obj 48 137 atan;
#X msg 48 116 1;
#X text 62 32 w = 2 * pi * f / SR;
#X obj 48 158 * 8;
#X obj 48 95 t b a;
#X obj 48 179 / 44100;
#X text 103 183 2 * pi / SR;
#X obj 13 32 inlet;
#X obj 13 222 outlet;
#X text 59 224 w(rad);
#X text 9 11 freq(Hz);
#X obj 13 193 *;
#X connect 0 0 6 0;
#X connect 1 0 0 0;
#X connect 2 0 5 0;
#X connect 3 0 2 0;
#X connect 5 0 7 0;
#X connect 6 0 3 0;
#X connect 6 1 7 1;
#X connect 7 0 13 1;
#X connect 9 0 13 0;
#X connect 13 0 10 0;
#X restore 60 231 pd hz2rad;
#X obj 60 252 t f f;
#X obj 160 266 sin;
#X obj 60 387 cos;
#X obj 60 210 clip 20 20000;
#X msg 209 271 1 \$1;
#X obj 209 292 /;
#X obj 194 313 *;
#X obj 194 343 * 0.5;
#X text 291 49 (b0/a0) + (b1/a0)*z^(-1) + (b2/a0)*z^(-2);
#X obj 5 408 f;
#X msg 5 429 1 \$1;
#X obj 5 450 /;
#X obj 145 539 *;
#X obj 285 539 *;
#X obj 5 539 *;
#X obj 75 539 *;
#X text 251 206 w0 = 2*pi*f0*Fs;
#X text 251 226 alpha = sin(w0)/(2*Q);
#X obj 197 108 t b f;
#X obj 36 109 loadbang;
#X text 263 276 a0 = 1 + alpha;
#X text 294 86 1 + (a1/a0)*z^(-1) + (a2/a0)*z^(-2);
#X text 250 25 Audio-Cookbook:;
#X text 250 115 http://musicdsp.org/files/Audio-EQ-Cookbook.txt;
#X text 252 67 H(z) = -----------------------------------------;
#X obj 5 174 t b a b;
#X obj 215 581 outlet b1;
#X obj 285 581 outlet b2;
#X obj 5 581 outlet a1;
#X obj 75 581 outlet a2;
#X text -1 1 Bandpass filter with Q - biquad filter coefficient generator
;
#X text 263 356 b1 = 0;
#X obj 5 471 t f f f f;
#X obj 145 581 outlet b0;
#X text -1 23 constant skirt gain \, peak gain = Q;
#X text 250 153 BPF: H(s) = s / (s^2 + s/Q + 1) (constant skirt gain
\, peak gain = Q) b0 = sin(w0)/2 = Q*alpha b1 = 0 b2 = -sin(w0)/2 =
-Q*alpha a0 = 1 + alpha a1 = -2*cos(w0) a2 = 1 - alpha;
#X text 263 316 a2 = 1 - alpha;
#X text 263 296 a1 = -2*cos(w0);
#X text 263 336 b0 = sin(w0)/2 = Q*alpha;
#X text 263 376 b2 = -sin(w0)/2 = -Q*alpha;
#X text 252 256 BPF: (constant skirt gain);
#X obj 5 153 f;
#X obj 209 249 f;
#X obj 5 560 * -1;
#X obj 75 560 * -1;
#X obj 160 518 * 0.5;
#X obj 20 518 * -2;
#X msg 90 497 1 \$1;
#X obj 90 518 -;
#X obj 160 287 t f f;
#X obj 300 518 * -0.5;
#X obj 20 387 + 1;
#X obj 5 88 inlet;
#X obj 197 88 inlet;
#X connect 0 0 1 0;
#X connect 1 0 3 0;
#X connect 1 1 2 0;
#X connect 2 0 50 0;
#X connect 3 0 47 0;
#X connect 4 0 0 0;
#X connect 5 0 6 0;
#X connect 6 0 7 1;
#X connect 7 0 8 0;
#X connect 8 0 48 0;
#X connect 8 0 52 0;
#X connect 10 0 11 0;
#X connect 11 0 12 0;
#X connect 12 0 33 0;
#X connect 13 0 34 0;
#X connect 14 0 28 0;
#X connect 15 0 44 0;
#X connect 16 0 45 0;
#X connect 19 0 42 0;
#X connect 19 1 43 1;
#X connect 20 0 42 0;
#X connect 26 0 10 0;
#X connect 26 1 4 0;
#X connect 26 2 43 0;
#X connect 33 0 15 0;
#X connect 33 1 16 0;
#X connect 33 2 13 0;
#X connect 33 3 14 0;
#X connect 42 0 26 0;
#X connect 43 0 5 0;
#X connect 44 0 29 0;
#X connect 45 0 30 0;
#X connect 46 0 13 1;
#X connect 47 0 15 1;
#X connect 48 0 49 0;
#X connect 49 0 16 1;
#X connect 50 0 46 0;
#X connect 50 0 51 0;
#X connect 50 1 7 0;
#X connect 51 0 14 1;
#X connect 52 0 10 1;
#X connect 53 0 42 0;
#X connect 54 0 19 0;
#X restore 62 33 pd resonator.coeff;
#X obj 12 100 outlet~;
#X obj 211 44 inlet;
#X obj 62 12 inlet;
#X obj 167 12 inlet;
#X obj 12 59 inlet~;
#X connect 0 0 4 0;
#X connect 1 0 0 0;
#X connect 2 0 0 0;
#X connect 3 0 2 0;
#X connect 3 1 2 1;
#X connect 3 2 2 2;
#X connect 3 3 2 3;
#X connect 3 4 2 4;
#X connect 5 0 1 0;
#X connect 6 0 3 0;
#X connect 7 0 3 1;
#X connect 8 0 0 0;
#X restore 1303 544 pd resonator~;
#N canvas 1192 128 369 509 highpass~ 0;
#X obj 62 16 inlet;
#X obj 206 16 inlet;
#X obj 131 75 / 2;
#X obj 62 122 * 6.28319;
#X obj 62 143 /;
#X obj 131 12 loadbang;
#X obj 131 33 samplerate~;
#X obj 131 54 t f f;
#X obj 123 152 max 5.96046e-08;
#X obj 155 178 cos;
#X obj 137 320 pack f f f f f f;
#X obj 226 273 / 2;
#X obj 155 225 * -2;
#X obj 62 232 t f f;
#X msg 89 253 1 \$1;
#X obj 89 274 -;
#X obj 62 274 + 1;
#X obj 188 226 + 1;
#X obj 188 273 * -1;
#X obj 62 51 f;
#X obj 206 37 t b f;
#X obj 62 190 sin;
#X obj 62 211 /;
#X obj 123 197 * 2;
#X obj 62 164 t f f;
#X obj 188 247 t f f;
#X obj 226 294 t f f;
#X obj 155 199 t f f;
#X msg 137 341 \$2 \$3 \$4 \$5 \$6 \$1;
#X obj 137 362 unpack f f f f f f;
#X obj 137 414 /;
#X obj 167 414 /;
#X obj 197 414 /;
#X obj 227 414 /;
#X obj 257 414 /;
#X obj 137 440 pack f f f f f;
#X obj 137 388 * -1;
#X obj 167 388 * -1;
#X text 247 320 a0 a1 a2 b0 b1 b2;
#X obj 12 454 biquad~;
#X obj 289 419 inlet;
#X msg 289 440 clear;
#X obj 12 428 inlet~;
#X obj 12 475 outlet~;
#X obj 62 101 clip 20 22050;
#X connect 0 0 19 0;
#X connect 1 0 20 0;
#X connect 2 0 44 2;
#X connect 3 0 4 0;
#X connect 4 0 24 0;
#X connect 5 0 6 0;
#X connect 6 0 7 0;
#X connect 7 0 2 0;
#X connect 7 1 4 1;
#X connect 8 0 23 0;
#X connect 9 0 27 0;
#X connect 10 0 28 0;
#X connect 11 0 26 0;
#X connect 12 0 10 1;
#X connect 13 0 16 0;
#X connect 13 1 14 0;
#X connect 14 0 15 0;
#X connect 15 0 10 2;
#X connect 16 0 10 0;
#X connect 17 0 25 0;
#X connect 18 0 10 4;
#X connect 19 0 44 0;
#X connect 20 0 19 0;
#X connect 20 1 8 0;
#X connect 21 0 22 0;
#X connect 22 0 13 0;
#X connect 23 0 22 1;
#X connect 24 0 21 0;
#X connect 24 1 9 0;
#X connect 25 0 18 0;
#X connect 25 1 11 0;
#X connect 26 0 10 3;
#X connect 26 1 10 5;
#X connect 27 0 12 0;
#X connect 27 1 17 0;
#X connect 28 0 29 0;
#X connect 29 0 36 0;
#X connect 29 1 37 0;
#X connect 29 2 32 0;
#X connect 29 3 33 0;
#X connect 29 4 34 0;
#X connect 29 5 34 1;
#X connect 29 5 33 1;
#X connect 29 5 32 1;
#X connect 29 5 31 1;
#X connect 29 5 30 1;
#X connect 30 0 35 0;
#X connect 31 0 35 1;
#X connect 32 0 35 2;
#X connect 33 0 35 3;
#X connect 34 0 35 4;
#X connect 35 0 39 0;
#X connect 36 0 30 0;
#X connect 37 0 31 0;
#X connect 39 0 43 0;
#X connect 40 0 41 0;
#X connect 41 0 39 0;
#X connect 42 0 39 0;
#X connect 44 0 3 0;
#X restore 1228 389 pd highpass~;
#X obj 1274 346 loadbang;
#X msg 1274 368 0.404061;
#X obj 835 159 pack f f;
#X obj 835 201 vline~;
#X obj 835 264 cos~;
#X obj 835 243 +~ 0.75;
#X obj 835 222 *~ 0.5;
#X msg 835 180 1 \, 0 \$2;
#X obj 1213 508 *~;
#X obj 857 519 loadbang;
#X msg 857 540 0.404061;
#X obj 1126 914 *~;
#X obj 1141 80 t b f;
#X obj 1168 235 - 1;
#X obj 1066 900 +~;
#X obj 919 401 bang;
#X obj 1213 610 *~;
#X obj 1378 191 del 2;
#X obj 1238 258 * 7;
#X obj 1328 258 * 20;
#X obj 1263 482 f;
#X obj 815 582 *~;
#X obj 1031 450 *~;
#X obj 870 359 f;
#X obj 1251 325 f;
#X obj 694 505 *~;
#X obj 885 338 r \$0-ton-dec;
#X obj 1266 304 r \$0-tin-hip;
#X obj 835 285 *~;
#X obj 851 477 r \$0-pic-lop;
#X obj 762 787 *~;
#X obj 1169 25 t f f;
#X obj 836 498 f;
#X obj 881 271 r \$0-off-lvl;
#X obj 1278 461 r \$0-tin-dec;
#X obj 1168 319 * -5;
#X obj 725 526 *~;
#X obj 740 505 r \$0-pic-atk;
#X obj 1253 237 r \$0-tin-rat-1;
#X obj 1349 237 r \$0-tin-rat-2;
#X obj 1213 574 +~;
#X obj 891 794 *~;
#X obj 891 742 pow~ 4;
#X obj 891 773 *~ -1;
#X obj 941 759 r \$0-buz-pha;
#X obj 1046 588 *~;
#X obj 808 104 clip 20 20000;
#X obj 762 808 +~;
#X obj 815 602 +~;
#X obj 805 540 +~;
#X obj 694 870 +~;
#X obj 1378 375 bang;
#X obj 1263 268 bang;
#X obj 820 399 +~;
#X obj 1169 4 clip 0 127;
#X obj 1016 886 +~;
#X obj 1186 851 env~;
#X obj 1186 872 change;
#X obj 1186 893 sel 0;
#X msg 1186 914 0;
#X msg 1141 872 1;
#X text 1188 819 //Turns DSP on at trigger;
#X text 1188 829 //Turns DSP off at silence;
#X text 1181 431 <-Amplitude Reset;
#X text 885 229 <- Noteoff Impulse;
#X text 881 251 //Note Off Level;
#X text 1278 441 //Tine Decay;
#X text 1349 217 //Tine 2 Ratio;
#X text 1253 217 //Tine 1 Ratio;
#X text 1378 355 //Clear Filters;
#X text 1255 576 //Tine Level;
#X text 1046 547 //Tine Send;
#X text 909 610 //Pickup Symmetry;
#X text 941 719 //Buzz Phase;
#X text 941 739 //Buzz Level;
#X text 915 548 //Pickup Input;
#X text 851 457 //Pickup Lowpass;
#X text 694 459 //Hammer Level;
#X text 755 344 <<Noteon Impulse;
#X text 1046 409 //Tone Bar Level;
#X text 949 401 <<Clear Filters;
#X text 794 753 //Pickup Level;
#X text 1266 284 //Tine Highpass;
#X text 1098 215 //Velocity Amp. Control;
#X text 885 318 //Tone Bar Decay;
#X obj 147 54 inlet;
#X obj 204 210 > 0;
#X obj 204 231 s \$0-gate;
#X obj 133 101 r \$0-gate;
#X obj 64 122 list prepend;
#X obj 64 143 route 1;
#X obj 64 164 s \$0-midi;
#X obj 64 206 r \$0-midi;
#X obj 64 227 mtof;
#X obj 64 248 s \$0-frequency;
#X obj 204 96 t f f;
#X obj 258 138 - 1;
#X obj 258 159 / 126;
#X obj 258 180 s \$0-vel;
#X obj 231 117 sel 0;
#X obj 334 101 r \$0-gate;
#X obj 334 122 sel 0 1;
#X obj 353 206 s \$0-note-on;
#X obj 334 227 s \$0-note-off;
#X obj 258 201 v \$0-vel;
#X obj 64 185 v \$0-midi;
#X obj 64 269 v \$0-frequency;
#X obj 353 143 t b b;
#X obj 353 185 del 2;
#X obj 380 164 s \$0-reset;
#N canvas 0 22 450 278 (subpatch) 0;
#X array \$0-scope 100 float 3;
#A 0 0 0 0 0 0 0 0 0 0 0 0 0 0 0 0 0 0 0 0 0 0 0 0 0 0 0 0 0 0 0 0
0 0 0 0 0 0 0 0 0 0 0 0 0 0 0 0 0 0 0 0 0 0 0 0 0 0 0 0 0 0 0 0 0 0
0 0 0 0 0 0 0 0 0 0 0 0 0 0 0 0 0 0 0 0 0 0 0 0 0 0 0 0 0 0 0 0 0 0
0;
#X coords 0 1 100 -1 200 140 1;
#X restore 384 379 graph;
#X obj 140 464 -~ 0.25;
#X obj 140 485 cos~;
#X obj 64 290 r \$0-frequency;
#X msg 64 311 1000 \$1;
#X obj 64 332 /;
#X text 334 81 // Reset \, Note on and off;
#X obj 64 353 s \$0-period;
#X obj 64 374 v \$0-period;
#X obj 140 329 r \$0-note-on;
#X obj 140 371 v \$0-period;
#X obj 90 925 outlet~;
#X text 147 34 (I1) MIDI/Velocity;
#X obj 147 75 unpack f f;
#X obj 941 780 r \$0-pic-buz;
#X obj 1255 596 r \$0-tin-lvl;
#X obj 694 479 r \$0-ham-lvl;
#X obj 915 568 r \$0-pic-gan;
#X obj 909 630 r \$0-pic-sym;
#X obj 1046 567 r \$0-tin-snd;
#X obj 1046 429 r \$0-ton-lvl;
#X obj 794 773 r \$0-pic-lvl;
#N canvas 0 22 241 243 tone-bar 0;
#X obj 12 165 fi.resonator 1000 1000;
#X obj 55 12 r \$0-note-on;
#X obj 55 33 v \$0-frequency;
#X obj 98 55 r \$0-note-on;
#X obj 98 76 v \$2-decay-time;
#X obj 108 102 r \$0-note-off;
#X obj 108 123 v \$2-release-time;
#X obj 12 207 outlet~;
#X obj 12 144 inlet~;
#X obj 12 186 *~ 0.7;
#X obj 141 144 r \$0-reset;
#X connect 0 0 9 0;
#X connect 1 0 2 0;
#X connect 2 0 0 1;
#X connect 3 0 4 0;
#X connect 4 0 0 2;
#X connect 5 0 6 0;
#X connect 6 0 0 2;
#X connect 8 0 0 0;
#X connect 9 0 7 0;
#X connect 10 0 0 3;
#X restore 182 610 pd tone-bar;
#X obj 140 443 vline~;
#X obj 417 710 ma.tanh~;
#X obj 418 744 sig~ 2;
#X obj 418 765 pow~;
#X obj 418 786 -~ 1;
#X obj 393 913 fi.highpass 1000 0.4;
#X obj 449 821 r \$0-note-on;
#X obj 449 842 v \$0-frequency;
#X obj 527 863 r \$0-note-on;
#X obj 579 628 r \$0-note-on;
#X obj 140 556 *~;
#X obj 239 300 r \$0-note-off;
#X obj 547 75 r \$0-vel;
#X msg 547 96 1 \$1;
#X obj 547 117 -;
#X obj 547 138 * -5;
#X msg 547 159 2 \$1;
#X obj 547 180 pow;
#X obj 547 201 s \$0-amp;
#X obj 547 222 v \$0-amp;
#X obj 191 540 v \$0-amp;
#X obj 191 519 r \$0-note-on;
#X obj 283 452 r \$0-note-off;
#X obj 284 498 v \$0-amp;
#N canvas 0 22 866 463 tine 0;
#X obj 12 238 fi.resonator 1000 1000;
#X obj 55 132 r \$0-note-on;
#X obj 55 153 v \$0-frequency;
#X obj 98 175 r \$0-note-on;
#X obj 60 315 outlet~;
#X obj 12 111 inlet~;
#X obj 222 238 fi.resonator 1000 1000;
#X obj 265 132 r \$0-note-on;
#X obj 265 153 v \$0-frequency;
#X obj 61 278 +~;
#X obj 265 174 * 20;
#X obj 98 196 v \$2-tine-decay;
#X obj 141 217 r \$0-note-on;
#X obj 351 217 r \$0-note-on;
#X obj 55 174 * 7;
#X obj 308 175 r \$0-note-on;
#X obj 308 196 v \$2-tine-decay;
#X obj 432 238 fi.resonator 1000 1000;
#X obj 475 132 r \$0-note-on;
#X obj 475 153 v \$0-frequency;
#X obj 561 217 r \$0-note-on;
#X obj 518 175 r \$0-note-on;
#X obj 632 238 fi.resonator 1000 1000;
#X obj 675 132 r \$0-note-on;
#X obj 675 153 v \$0-frequency;
#X obj 761 217 r \$0-note-on;
#X obj 718 175 r \$0-note-on;
#X obj 475 174 * 40;
#X obj 675 174 * 60;
#X obj 518 196 v \$2-decay-time;
#X obj 718 196 v \$2-decay-time;
#X obj 169 325 +~;
#X obj 169 346 outlet~;
#X obj 718 217 * 1;
#X obj 518 217 * 1;
#X connect 0 0 9 0;
#X connect 0 0 31 0;
#X connect 1 0 2 0;
#X connect 2 0 14 0;
#X connect 3 0 11 0;
#X connect 5 0 0 0;
#X connect 5 0 6 0;
#X connect 5 0 17 0;
#X connect 5 0 22 0;
#X connect 6 0 9 1;
#X connect 6 0 31 1;
#X connect 7 0 8 0;
#X connect 8 0 10 0;
#X connect 9 0 4 0;
#X connect 10 0 6 1;
#X connect 11 0 0 2;
#X connect 12 0 0 3;
#X connect 13 0 6 3;
#X connect 14 0 0 1;
#X connect 15 0 16 0;
#X connect 16 0 6 2;
#X connect 17 0 9 1;
#X connect 18 0 19 0;
#X connect 19 0 27 0;
#X connect 20 0 17 3;
#X connect 21 0 29 0;
#X connect 22 0 9 1;
#X connect 23 0 24 0;
#X connect 24 0 28 0;
#X connect 25 0 22 3;
#X connect 26 0 30 0;
#X connect 27 0 17 1;
#X connect 28 0 22 1;
#X connect 29 0 34 0;
#X connect 30 0 33 0;
#X connect 31 0 32 0;
#X connect 33 0 22 2;
#X connect 34 0 17 2;
#X restore 531 581 pd tine;
#X msg 140 422 0 \, 0.5 \$1;
#X obj 468 749 *~ 20;
#X obj 577 715 loadbang;
#X obj 418 807 *~;
#X obj 581 684 r \$0-note-on;
#X msg 576 778 2 \$1;
#X obj 576 799 pow;
#X msg 576 820 1 \$1;
#X obj 576 841 /;
#X obj 432 836 *~;
#X obj 418 879 /~ 8;
#X obj 54 571 r \$0-note-on;
#X obj 54 613 vline~;
#X obj 60 680 /~ 2;
#X obj 60 701 -~ 0.25;
#X obj 60 722 cos~;
#X obj 60 743 *~;
#X obj 146 722 cos~;
#X obj 54 634 sqrt~;
#X floatatom 285 561 5 0 0 0 - - -;
#X msg 54 592 0 \, 1 20;
#X obj 56 533 r \$0-note-off;
#X obj 60 785 *~;
#X obj 239 321 del 20;
#X obj 146 680 *~ 2;
#X obj 146 700 -~ 0.25;
#X obj 239 342 v \$0-period;
#X obj 60 764 /~ 8;
#X obj 285 519 / 10;
#X obj 206 909 /~ 1;
#X obj 576 756 / 1;
#X obj 530 625 /~ 2;
#X obj 393 955 *~ 2;
#X obj 393 934 hip~ 1000;
#X obj 412 683 *~ 1.5;
#X msg 576 736 10;
#X floatatom 631 761 5 0 0 0 - - -;
#X obj 182 631 +~;
#X obj 478 645 *~ -6;
#X obj 402 620 fi.lowpass 500 0.7;
#X obj 200 696 /~ 4;
#N canvas 0 106 395 83 NETPD 0;
#X msg 14 13 version 0 0 1;
#N canvas 162 247 450 99 abslist 0;
#X msg 9 13 mkmr.lib;
#X restore 14 38 pd abslist;
#X restore 16 15 pd NETPD 2 0;
#X connect 0 0 1 0;
#X connect 1 0 44 1;
#X connect 1 0 5 1;
#X connect 2 0 35 0;
#X connect 3 0 4 0;
#X connect 4 0 5 0;
#X connect 4 1 7 0;
#X connect 4 1 57 0;
#X connect 4 1 65 0;
#X connect 5 0 38 0;
#X connect 6 0 34 0;
#X connect 7 0 2 1;
#X connect 7 0 28 1;
#X connect 7 0 60 0;
#X connect 7 0 61 0;
#X connect 8 1 54 0;
#X connect 9 0 10 0;
#X connect 10 0 11 0;
#X connect 11 0 77 0;
#X connect 12 0 13 0;
#X connect 13 0 31 1;
#X connect 14 0 16 1;
#X connect 15 0 16 0;
#X connect 16 0 22 0;
#X connect 17 0 72 0;
#X connect 17 0 84 0;
#X connect 18 0 19 0;
#X connect 19 0 21 1;
#X connect 20 0 21 0;
#X connect 21 0 17 1;
#X connect 22 0 17 0;
#X connect 23 0 24 0;
#X connect 23 1 26 0;
#X connect 24 0 25 0;
#X connect 25 0 27 0;
#X connect 26 0 27 0;
#X connect 27 0 50 0;
#X connect 27 0 53 1;
#X connect 28 0 92 1;
#X connect 29 0 30 0;
#X connect 30 0 28 2;
#X connect 31 0 78 0;
#X connect 31 0 41 0;
#X connect 31 0 67 1;
#X connect 31 0 95 0;
#X connect 32 0 31 0;
#X connect 33 0 32 0;
#X connect 34 0 33 0;
#X connect 35 0 64 0;
#X connect 35 0 91 1;
#X connect 36 0 63 0;
#X connect 37 0 14 0;
#X connect 38 0 6 0;
#X connect 39 0 82 0;
#X connect 40 0 82 1;
#X connect 41 0 50 1;
#X connect 42 0 43 0;
#X connect 43 0 41 2;
#X connect 44 0 49 0;
#X connect 45 0 48 0;
#X connect 46 0 70 0;
#X connect 47 0 46 0;
#X connect 48 0 47 0;
#X connect 49 0 45 0;
#X connect 50 0 39 0;
#X connect 50 0 40 0;
#X connect 51 0 52 0;
#X connect 52 0 36 2;
#X connect 53 0 98 0;
#X connect 54 0 3 0;
#X connect 54 0 59 0;
#X connect 54 0 23 0;
#X connect 54 0 102 0;
#X connect 54 1 55 0;
#X connect 55 0 9 0;
#X connect 56 0 53 0;
#X connect 57 0 36 3;
#X connect 57 0 28 3;
#X connect 57 0 2 3;
#X connect 57 0 74 0;
#X connect 58 0 56 1;
#X connect 59 0 93 0;
#X connect 59 0 94 0;
#X connect 60 0 39 1;
#X connect 61 0 40 1;
#X connect 62 0 39 2;
#X connect 62 0 40 2;
#X connect 63 0 90 0;
#X connect 64 0 97 1;
#X connect 65 0 2 2;
#X connect 66 0 41 1;
#X connect 67 0 92 0;
#X connect 68 0 65 1;
#X connect 69 0 66 1;
#X connect 70 0 95 1;
#X connect 71 0 74 1;
#X connect 72 0 89 0;
#X connect 73 0 8 0;
#X connect 74 0 36 1;
#X connect 75 0 70 1;
#X connect 76 0 62 1;
#X connect 77 0 12 0;
#X connect 78 0 91 0;
#X connect 79 0 78 1;
#X connect 80 0 60 1;
#X connect 81 0 61 1;
#X connect 82 0 58 0;
#X connect 82 0 87 1;
#X connect 83 0 89 1;
#X connect 84 0 85 0;
#X connect 85 0 83 0;
#X connect 86 0 85 1;
#X connect 87 0 90 1;
#X connect 88 0 0 0;
#X connect 88 0 7 1;
#X connect 89 0 28 0;
#X connect 90 0 37 0;
#X connect 91 0 36 0;
#X connect 92 0 97 0;
#X connect 93 0 40 3;
#X connect 93 0 39 3;
#X connect 93 0 41 3;
#X connect 94 0 66 0;
#X connect 94 0 62 0;
#X connect 95 0 2 0;
#X connect 96 0 73 0;
#X connect 97 0 56 0;
#X connect 98 0 99 0;
#X connect 99 0 100 0;
#X connect 100 0 101 0;
#X connect 127 0 165 0;
#X connect 128 0 129 0;
#X connect 130 0 131 1;
#X connect 131 0 132 0;
#X connect 132 0 133 0;
#X connect 134 0 135 0;
#X connect 135 0 136 0;
#X connect 137 0 128 0;
#X connect 137 1 141 0;
#X connect 138 0 139 0;
#X connect 139 0 140 0;
#X connect 141 1 138 0;
#X connect 142 0 143 0;
#X connect 143 0 145 0;
#X connect 143 1 149 0;
#X connect 149 0 150 0;
#X connect 149 1 151 0;
#X connect 150 0 144 0;
#X connect 153 0 154 0;
#X connect 154 0 185 0;
#X connect 154 0 199 0;
#X connect 155 0 156 0;
#X connect 156 0 157 0;
#X connect 157 0 159 0;
#X connect 161 0 162 0;
#X connect 162 0 200 0;
#X connect 165 0 131 0;
#X connect 165 1 137 0;
#X connect 166 0 83 1;
#X connect 167 0 58 1;
#X connect 168 0 67 0;
#X connect 169 0 63 1;
#X connect 170 0 14 1;
#X connect 170 0 19 1;
#X connect 171 0 87 0;
#X connect 172 0 64 1;
#X connect 173 0 72 1;
#X connect 174 0 237 0;
#X connect 175 0 153 0;
#X connect 176 0 201 0;
#X connect 177 0 178 0;
#X connect 178 0 179 0;
#X connect 179 0 203 0;
#X connect 180 0 233 0;
#X connect 180 0 229 0;
#X connect 181 0 182 0;
#X connect 182 0 180 1;
#X connect 183 0 180 3;
#X connect 184 0 239 3;
#X connect 185 0 174 0;
#X connect 185 0 237 1;
#X connect 186 0 223 0;
#X connect 187 0 188 0;
#X connect 188 0 189 0;
#X connect 189 0 190 0;
#X connect 190 0 191 0;
#X connect 191 0 192 0;
#X connect 192 0 193 0;
#X connect 195 0 185 1;
#X connect 195 0 222 1;
#X connect 196 0 195 0;
#X connect 197 0 198 0;
#X connect 198 0 228 0;
#X connect 199 0 231 0;
#X connect 200 0 175 0;
#X connect 201 0 178 1;
#X connect 202 0 235 0;
#X connect 203 0 209 0;
#X connect 203 0 180 0;
#X connect 204 0 235 0;
#X connect 205 0 206 0;
#X connect 206 0 207 0;
#X connect 207 0 208 0;
#X connect 208 0 203 1;
#X connect 209 0 210 0;
#X connect 210 0 180 0;
#X connect 211 0 220 0;
#X connect 212 0 218 0;
#X connect 212 0 224 0;
#X connect 213 0 214 0;
#X connect 214 0 215 0;
#X connect 215 0 216 0;
#X connect 216 0 227 0;
#X connect 217 0 216 1;
#X connect 218 0 213 0;
#X connect 220 0 212 0;
#X connect 221 0 220 0;
#X connect 223 0 226 0;
#X connect 224 0 225 0;
#X connect 225 0 217 0;
#X connect 227 0 222 0;
#X connect 228 0 185 1;
#X connect 229 0 163 0;
#X connect 230 0 205 0;
#X connect 231 0 209 1;
#X connect 233 0 232 0;
#X connect 235 0 201 1;
#X connect 235 0 230 0;
#X connect 237 0 234 0;
#X connect 237 0 239 0;
#X connect 237 0 240 0;
#X connect 238 0 176 0;
#X connect 239 0 238 0;
#X connect 240 0 229 0;
#X coords 0 974 1 973 566 325 0;
