#N canvas 141 96 357 299 10;
#X obj 46 16 inlet~;
#X obj 61 164 wrap~;
#X obj 45 185 -~;
#X obj 46 137 /~ 256;
#X obj 111 209 *~ 256;
#X obj 95 236 -~;
#X obj 44 260 outlet~;
#X obj 95 260 outlet~;
#X obj 62 92 wrap~;
#X obj 46 115 -~;
#X obj 46 38 *~ 32767.5;
#X obj 46 60 +~ 32767.5;
#N canvas 0 44 339 157 NETPD 0;
#X msg 18 19 version 0 1 0;
#X restore 173 41 pd NETPD 2 0;
#X connect 0 0 10 0;
#X connect 1 0 2 1;
#X connect 2 0 4 0;
#X connect 2 0 6 0;
#X connect 3 0 2 0;
#X connect 3 0 1 0;
#X connect 4 0 5 1;
#X connect 5 0 7 0;
#X connect 8 0 9 1;
#X connect 9 0 3 0;
#X connect 9 0 5 0;
#X connect 10 0 11 0;
#X connect 11 0 9 0;
#X connect 11 0 8 0;
