#N canvas 626 207 450 300 10;
#X msg 21 112 sdfdsaf;
#X msg 95 163 sdfdsf;
#X obj 220 175 f;
#X obj 44 207 list prepend sjfdlkdsafdsa sajflksdaf;
#X obj 263 47 example-abs-2;
#N canvas 1174 44 450 300 NETPD 0;
#X msg 120 69 version 0 0 1;
#N canvas 0 393 450 300 abslist 0;
#X msg 205 53 example-abs-2;
#X restore 119 92 pd abslist;
#X restore 124 18 pd NETPD;
#X connect 0 0 3 0;
#X connect 0 0 1 0;
#X connect 1 0 2 0;
#X connect 1 0 0 0;
#X connect 2 0 3 0;
#X connect 2 0 0 0;
#X connect 3 0 1 0;
#X connect 3 0 2 0;
#X connect 3 0 0 0;
