#N canvas 589 203 672 630 10;
#N canvas 1018 257 234 106 NETPD 0;
#X msg 14 18 version 0 0 2;
#N canvas 502 296 270 59 abslist 0;
#X msg 33 23 fifty-button;
#X restore 13 53 pd abslist;
#X restore 111 12 pd NETPD 2 0;
#X obj 20 136 inlet~;
#X obj 154 137 inlet~;
#X obj 46 568 outlet~;
#X obj 181 570 outlet~;
#N canvas 666 463 159 154 \$3-\$2 0;
#X obj 8 7 cnv 15 124 134 empty empty fifty 28 120 0 20 #ff04ff #ffffff 0;
#X obj 10 9 fifty-button \$1 \$2 hum 1 #cc5533 #ff9977;
#X obj 10 36 fifty-button \$1 \$2 hiss 1 #55bb33 #99ff77;
#X obj 10 90 fifty-button \$1 \$2 tiptouch 0 #5533cc #9977ff;
#X obj 10 63 fifty-button \$1 \$2 modulate 1 #3355cc #7799ff;
#X restore 7 12 pd \$3-\$2;
#X obj 89 316 noise~;
#X obj 180 303 noise~;
#X obj 401 240 phasor~ 50;
#X obj 401 264 hip~ 300;
#X obj 401 288 hip~ 1000;
#X obj 401 312 hip~ 3000;
#X obj 401 335 hip~ 10000;
#X obj 401 384 +~;
#X obj 402 360 *~ 0.5;
#X obj 487 293 *~ 0.015;
#X obj 180 327 hip~ 500;
#X obj 179 359 hip~ 1000;
#X obj 88 372 hip~ 1500;
#X obj 89 340 hip~ 300;
#X obj 178 383 *~ 0.005;
#X obj 88 401 *~ 0.005;
#X obj 487 258 osc~ 50;
#X obj 544 134 osc~ 100;
#X obj 292 437 lrshift~ 2;
#X obj 402 408 lop~ 1000;
#X obj 543 262 *~ 0.8;
#X obj 275 523 *~ 0;
#X obj 237 397 *~ 0;
#X obj 89 432 *~ 0;
#X obj 177 412 *~ 0;
#X obj 362 502 netpd_f \$1 \$2/hum 1;
#X obj 365 466 netpd_f \$1 \$2/hiss 1;
#X obj 429 190 netpd_f \$1 \$2/modulate 1;
#X obj 25 254 *~;
#X obj 161 236 *~;
#X obj 380 185 *~ 0;
#X obj 380 208 +~ 1;
#X obj 384 153 *~ 0.17;
#X obj 346 556 netpd_f \$1 \$2/tiptouch 0;
#X connect 1 0 34 0;
#X connect 2 0 35 0;
#X connect 6 0 19 0;
#X connect 7 0 16 0;
#X connect 8 0 9 0;
#X connect 9 0 10 0;
#X connect 10 0 11 0;
#X connect 11 0 12 0;
#X connect 12 0 14 0;
#X connect 13 0 25 0;
#X connect 14 0 13 0;
#X connect 15 0 13 1;
#X connect 16 0 17 0;
#X connect 17 0 20 0;
#X connect 18 0 21 0;
#X connect 19 0 18 0;
#X connect 20 0 30 0;
#X connect 21 0 29 0;
#X connect 22 0 15 0;
#X connect 22 0 38 0;
#X connect 23 0 26 0;
#X connect 24 0 27 0;
#X connect 25 0 24 0;
#X connect 25 0 28 0;
#X connect 26 0 15 0;
#X connect 27 0 3 0;
#X connect 28 0 4 0;
#X connect 28 0 3 0;
#X connect 29 0 3 0;
#X connect 30 0 4 0;
#X connect 31 0 28 1;
#X connect 32 0 30 1;
#X connect 33 0 36 1;
#X connect 34 0 3 0;
#X connect 35 0 4 0;
#X connect 36 0 37 0;
#X connect 37 0 35 1;
#X connect 37 0 34 1;
#X connect 38 0 36 0;
#X connect 39 0 27 1;
