#N struct 1765.filterplot float y array filterplot-array filterplot-element
;
#N struct filterplot-element float y;
#N canvas 769 415 567 360 10;
#N canvas 1064 238 231 103 NETPD 0;
#X msg 14 17 version 0 0 2;
#X restore 111 12 pd NETPD 2 0;
#X obj 19 232 inlet~;
#X obj 141 234 inlet~;
#X obj 20 317 outlet~;
#X obj 140 320 outlet~;
#N canvas 618 122 455 91 \$3-fl-hishv 1;
#X obj 8 9 cnv 15 440 72 empty empty empty 20 12 0 14 -1 -66577 0;
#X obj 21 11 hsl 180 20 0 1 0 0 \$1-\$2/frequency \$1-\$2/frequency
frequency 0 11 0 12 -65561 -258113 -232576 8950 1;
#X obj 21 35 hsl 180 20 0 1 0 0 \$1-\$2/slope \$1-\$2/slope slope 0
11 0 12 -65561 -258113 -232576 17900 1;
#X obj 203 36 cnv 15 60 18 empty \$0.slope.display 100% 4 10 0 12 -65561
-232576 0;
#X obj 203 10 cnv 18 60 20 empty \$0.frequency.display 489Hz 4 10 0
12 -65561 -232576 0;
#X obj 8 12 cnv 10 10 18 empty empty empty 4 10 0 12 -65561 -1 0;
#X obj 8 36 cnv 10 10 18 empty empty empty 4 10 0 12 -65561 -1 0;
#X obj 21 59 hsl 180 20 0 1 0 0 \$1-\$2/gain \$1-\$2/gain gain 0 11
0 12 -65561 -258113 -232576 8950 1;
#X obj 203 60 cnv 14 60 18 empty \$0.gain.display 0dB 4 10 0 12 -65561
-232576 0;
#X obj 8 60 cnv 10 10 18 empty empty empty 4 10 0 12 -65561 -1 0;
#N canvas 860 465 450 300 \$0.plot.display 0;
#X scalar 1765.filterplot 0 \; 0 \; 0 \; 0 \; 0 \; 0 \; 0 \; 0 \; 0
\; 0 \; 0 \; 0 \; 0 \; 0 \; 0 \; 0 \; 0 \; 0 \; 0 \; 0 \; 0 \; 0 \;
0 \; 0 \; 0 \; 0 \; 0 \; 0 \; 0 \; 0 \; 0 \; 0 \; 0 \; 0 \; 0 \; 0
\; 0 \; 0 \; 0 \; 0 \; 0 \; 0 \; 0 \; 0 \; 0 \; 0 \; 0 \; 0 \; 0 \;
0 \; 0 \; 0 \; 0 \; 0 \; 0 \; 0 \; 0 \; 0 \; 0 \; 0 \; 0 \; 0 \; 0
\; 0 \; 0 \; 0 \; 0 \; 0 \; 0 \; 0 \; 0 \; 0 \; 0 \; 0 \; 0 \; 0 \;
0 \; 0 \; 0 \; 0 \; 0 \; 0 \; 0 \; 0 \; 0 \; 0 \; 0 \; 0 \; 0 \; 0
\; 0 \; 0 \; 0 \; 0 \; 0 \; 0 \; 0 \; 0 \; 0 \; 0 \; 0 \; 0 \; 0 \;
0 \; 0 \; 0 \; 0 \; 0 \; 0 \; 0 \; 0 \; 0 \; 0 \; 0 \; 0 \; 0 \; 0
\; 0 \; 0 \; 0 \; 0 \; 0 \; 0 \; 0 \; 0 \; 0 \; 0 \; 0 \; 0 \; 0 \;
0 \; 0 \; 0 \; 0 \; 0 \; 0 \; 0 \; 0 \; 0 \; 0 \; 0 \; 0 \; 0 \; 0
\; 0 \; 0 \; 0 \; 0 \; 0 \; 0 \; 0 \; 0 \; 0 \; 0 \; 0 \; 0 \; 0 \;
0 \; 0 \; 0 \; 0 \; 0 \; 0 \; 0 \; 0 \; 0 \; 0 \; 0 \; 0 \; 0 \; 0
\; 0 \; 0 \; 0 \; 0 \; 0 \; 0 \; 0 \; 0 \; 0 \; 0 \; 0 \; \;;
#X coords 0 0 180 68 180 68 2 30 30;
#X restore 266 11 pd \$0.plot.display;
#X obj 266 11 cnv 15 180 68 empty empty empty 20 12 0 14 -232576 -66577
0;
#X restore 7 12 pd \$3-fl-hishv;
#X obj 20 273 biquad~;
#X obj 141 277 biquad~;
#X obj 87 149 fl_highshelf_coeff;
#X obj 264 46 netpd_f \$1 \$2/slope 1;
#X msg 217 233 clear;
#X obj 87 172 t a a a, f 12;
#N canvas 392 238 339 191 param 0;
#X obj 17 142 change;
#X obj 17 119 line 500 2;
#X msg 17 97 \$1 50;
#X obj 17 41 rh_scalelog 20 12000;
#X obj 17 11 inlet;
#X obj 17 165 outlet;
#X obj 174 151 s \$0.frequency.display;
#X msg 174 125 label \$1Hz;
#X obj 174 101 int;
#X obj 17 66 t a a;
#X connect 0 0 5 0;
#X connect 1 0 0 0;
#X connect 2 0 1 0;
#X connect 3 0 9 0;
#X connect 4 0 3 0;
#X connect 7 0 6 0;
#X connect 8 0 7 0;
#X connect 9 0 2 0;
#X connect 9 1 8 0;
#X restore 87 76 pd param;
#N canvas 392 304 339 213 param 0;
#X obj 17 162 change;
#X obj 17 139 line 500 2;
#X msg 17 117 \$1 50;
#X obj 17 11 inlet;
#X obj 17 185 outlet;
#X obj 174 101 int;
#X obj 17 65 dbtorms;
#X obj 17 88 t a a;
#X obj 174 76 * 100;
#X msg 174 125 label \$1%;
#X obj 174 151 s \$0.slope.display;
#X obj 17 41 rh_scalelin 88 100;
#X connect 0 0 4 0;
#X connect 1 0 0 0;
#X connect 2 0 1 0;
#X connect 3 0 11 0;
#X connect 5 0 9 0;
#X connect 6 0 7 0;
#X connect 7 0 2 0;
#X connect 7 1 8 0;
#X connect 8 0 5 0;
#X connect 9 0 10 0;
#X connect 11 0 6 0;
#X restore 264 81 pd param;
#N canvas 392 337 528 236 param 0;
#X obj 17 162 change;
#X obj 17 139 line 500 2;
#X msg 17 117 \$1 50;
#X obj 17 11 inlet;
#X obj 17 185 outlet;
#X obj 174 101 int;
#X obj 17 88 t a a;
#X obj 17 41 rh_scalelin -24 24;
#X msg 174 125 label \$1dB;
#X obj 174 151 s \$0.gain.display;
#X obj 302 20 rh_slider_doubleclick \$1-\$2/gain;
#X msg 302 43 0.5;
#X obj 302 66 s \$1-\$2/gain;
#X connect 0 0 4 0;
#X connect 1 0 0 0;
#X connect 2 0 1 0;
#X connect 3 0 7 0;
#X connect 5 0 8 0;
#X connect 6 0 2 0;
#X connect 6 1 5 0;
#X connect 7 0 6 0;
#X connect 8 0 9 0;
#X connect 10 0 11 0;
#X connect 11 0 12 0;
#X restore 425 81 pd param;
#X obj 87 46 netpd_f \$1 \$2/frequency 0.5;
#X obj 425 41 netpd_f \$1 \$2/gain 0.5;
#X obj 254 169 netpd-rate-limit 50;
#X obj 254 195 fl_filterplot pd-\$0.plot.display 304 181 68;
#X connect 1 0 6 0;
#X connect 2 0 7 0;
#X connect 6 0 3 0;
#X connect 7 0 4 0;
#X connect 8 0 11 0;
#X connect 9 0 13 0;
#X connect 10 0 7 0;
#X connect 10 0 6 0;
#X connect 11 0 6 0;
#X connect 11 1 7 0;
#X connect 11 2 17 0;
#X connect 12 0 8 0;
#X connect 13 0 8 1;
#X connect 14 0 8 2;
#X connect 15 0 12 0;
#X connect 16 0 14 0;
#X connect 17 0 18 0;
