#N canvas 734 361 596 321 10;
#N canvas 1064 205 231 103 NETPD 0;
#X msg 14 17 version 0 0 1;
#X restore 111 12 pd NETPD 2 0;
#X obj 19 192 inlet~;
#X obj 141 194 inlet~;
#X obj 20 277 outlet~;
#X obj 140 280 outlet~;
#N canvas 1062 386 161 177 \$3-fl-loshv 1;
#X obj 14 26 hsl 128 15 20 12000 1 0 \$1-\$2/frequency \$1-\$2/frequency
frequency 0 -8 0 12 -262144 -1 -1 6600 1;
#X obj 15 65 hsl 128 15 0 1 0 0 \$1-\$2/slope \$1-\$2/slope slope 0
-8 0 12 -262144 -1 -1 6500 1;
#X obj 15 105 hsl 128 15 -24 24 0 0 \$1-\$2/gain \$1-\$2/gain gain
0 -8 0 12 -262144 -1 -1 6600 1;
#X restore 7 12 pd \$3-fl-loshv;
#X obj 87 164 fl_lowshelf_coeff;
#X obj 20 233 biquad~;
#X obj 141 237 biquad~;
#X obj 87 46 netpd_f \$1 \$2/frequency 500;
#X msg 87 69 \$1 100;
#X msg 264 69 \$1 100;
#X msg 425 67 \$1 100;
#X obj 425 90 line 0 2;
#X obj 425 41 netpd_f \$1 \$2/gain 0;
#X obj 264 43 netpd_f \$1 \$2/slope 1;
#X obj 87 114 change;
#X obj 264 115 change;
#X obj 425 113 change;
#X obj 264 92 line 1 2;
#X obj 87 91 line 500 2;
#X connect 1 0 7 0;
#X connect 2 0 8 0;
#X connect 6 0 7 0;
#X connect 6 0 8 0;
#X connect 7 0 3 0;
#X connect 8 0 4 0;
#X connect 9 0 10 0;
#X connect 10 0 20 0;
#X connect 11 0 19 0;
#X connect 12 0 13 0;
#X connect 13 0 18 0;
#X connect 14 0 12 0;
#X connect 15 0 11 0;
#X connect 16 0 6 0;
#X connect 17 0 6 1;
#X connect 18 0 6 2;
#X connect 19 0 17 0;
#X connect 20 0 16 0;
