#N canvas 534 293 665 386 10;
#N canvas 1064 304 231 103 NETPD 0;
#X msg 15 17 version 0 1 0;
#X restore 111 12 pd NETPD 2 0;
#X obj 19 232 inlet~;
#X obj 141 234 inlet~;
#X obj 20 317 outlet~;
#X obj 140 320 outlet~;
#X obj 20 273 biquad~;
#X obj 141 277 biquad~;
#X obj 87 149 fl_peaking_coeff;
#X msg 217 233 clear;
#X obj 87 172 t a a a, f 12;
#N canvas 382 296 339 191 param 0;
#X obj 17 142 change;
#X obj 17 119 line 500 2;
#X msg 17 97 \$1 50;
#X obj 17 41 rh_scalelog 20 12000;
#X obj 17 11 inlet;
#X obj 17 165 outlet;
#X obj 174 151 s \$0.frequency.display;
#X msg 174 125 label \$1Hz;
#X obj 174 101 int;
#X obj 17 66 t a a;
#X connect 0 0 5 0;
#X connect 1 0 0 0;
#X connect 2 0 1 0;
#X connect 3 0 9 0;
#X connect 4 0 3 0;
#X connect 7 0 6 0;
#X connect 8 0 7 0;
#X connect 9 0 2 0;
#X connect 9 1 8 0;
#X restore 87 76 pd param;
#N canvas 382 494 345 300 param 0;
#X obj 17 232 change;
#X msg 17 187 \$1 50;
#X obj 17 11 inlet;
#X obj 17 255 outlet;
#X obj 17 135 dbtorms;
#X obj 17 158 t a a;
#X obj 174 201 s \$0.bandwidth.display;
#X obj 17 209 line 0 2;
#X obj 17 111 rh_scalelin 80 120;
#X msg 17 34 1 \$1;
#X obj 17 57 -;
#X obj 17 80 t a a;
#X obj 174 121 /;
#X msg 174 98 1 \$1;
#X obj 174 147 makefilename %3.2f;
#X msg 174 175 label \$1;
#X connect 0 0 3 0;
#X connect 1 0 7 0;
#X connect 2 0 9 0;
#X connect 4 0 5 0;
#X connect 5 0 1 0;
#X connect 5 1 13 0;
#X connect 7 0 0 0;
#X connect 8 0 4 0;
#X connect 9 0 10 0;
#X connect 10 0 11 0;
#X connect 11 0 8 0;
#X connect 12 0 14 0;
#X connect 13 0 12 0;
#X connect 14 0 15 0;
#X connect 15 0 6 0;
#X restore 257 80 pd param;
#N canvas 382 329 528 236 param 0;
#X obj 17 162 change;
#X msg 17 117 \$1 50;
#X obj 17 11 inlet;
#X obj 17 185 outlet;
#X obj 174 101 int;
#X obj 17 88 t a a;
#X obj 17 41 rh_scalelin -24 24;
#X msg 174 125 label \$1dB;
#X obj 174 151 s \$0.gain.display;
#X obj 302 20 rh_slider_doubleclick \$1-\$2/gain;
#X msg 302 43 0.5;
#X obj 302 66 s \$1-\$2/gain;
#X obj 17 139 line 0 2;
#X connect 0 0 3 0;
#X connect 1 0 12 0;
#X connect 2 0 6 0;
#X connect 4 0 7 0;
#X connect 5 0 1 0;
#X connect 5 1 4 0;
#X connect 6 0 5 0;
#X connect 7 0 8 0;
#X connect 9 0 10 0;
#X connect 10 0 11 0;
#X connect 12 0 0 0;
#X restore 425 81 pd param;
#X obj 87 46 netpd_f \$1 \$2/frequency 0.5;
#X obj 425 41 netpd_f \$1 \$2/gain 0.5;
#X obj 298 177 netpd-rate-limit 50;
#N canvas 864 454 450 300 gui.stuff 0;
#X obj 10 12 r \$0.mode.switch;
#X obj 10 238 s \$0.mode.switch.r;
#X obj 10 35 sel;
#X obj 36 34 t a;
#X obj 10 58 f;
#X obj 10 81 + 1;
#X obj 10 104 mod 2;
#X obj 10 180 sel 0 1, f 12;
#X msg 10 203 label fr;
#X msg 72 205 label ph;
#X obj 10 127 t a a a, f 19;
#X obj 65 151 s \$0.plot.phase;
#X obj 117 178 loadbang;
#X obj 245 40 sel;
#X obj 271 39 t a;
#X obj 245 63 f;
#X obj 245 86 + 1;
#X obj 245 109 mod 2;
#X obj 245 132 t a a a, f 19;
#X obj 245 17 r \$0.plot.switch;
#X obj 245 157 s \$0.plot.onoff;
#X connect 0 0 2 0;
#X connect 2 0 4 0;
#X connect 2 1 3 0;
#X connect 3 0 2 1;
#X connect 4 0 5 0;
#X connect 5 0 6 0;
#X connect 6 0 10 0;
#X connect 7 0 8 0;
#X connect 7 1 9 0;
#X connect 8 0 1 0;
#X connect 9 0 1 0;
#X connect 10 0 7 0;
#X connect 10 1 11 0;
#X connect 10 2 4 1;
#X connect 12 0 8 0;
#X connect 13 0 15 0;
#X connect 13 1 14 0;
#X connect 14 0 13 1;
#X connect 15 0 16 0;
#X connect 16 0 17 0;
#X connect 17 0 18 0;
#X connect 18 0 20 0;
#X connect 18 2 15 1;
#X connect 19 0 13 0;
#X restore 297 350 pd gui.stuff;
#X obj 553 156 r \$0.plot.phase;
#X msg 553 250 phase \$1;
#X msg 418 273 0 0 0 0 0;
#X obj 553 201 f;
#X obj 553 224 spigot;
#X obj 298 249 spigot;
#X obj 418 120 r \$0.plot.onoff;
#X obj 418 143 t a a;
#X obj 418 167 sel 0 1;
#X obj 437 189 t b b;
#X obj 418 245 t b b;
#X msg 492 261 0;
#X obj 298 200 t b a;
#X obj 298 226 list append;
#X obj 298 319 fl_filterplot pd-\$0.plot.display 4 181 68;
#X obj 257 45 netpd_f \$1 \$2/bandwidth 0.5;
#N canvas 887 227 477 92 \$3-\$2 1;
#X obj 8 9 cnv 15 460 72 empty empty empty 20 12 0 14 -1 -66577 0;
#X obj 21 11 hsl 180 20 0 1 0 0 \$1-\$2/frequency \$1-\$2/frequency
frequency 0 11 0 12 -25 -258113 -203904 0 1;
#X obj 21 35 hsl 180 20 0 1 0 0 \$1-\$2/bandwidth \$1-\$2/bandwidth
bandwidth 0 11 0 12 -25 -258113 -203904 0 1;
#X obj 203 36 cnv 15 60 18 empty \$0.bandwidth.display 0.1 4 10 0 12
-25 -203904 0;
#X obj 203 10 cnv 18 60 20 empty \$0.frequency.display 313Hz 4 10 0
12 -25 -203904 0;
#X obj 8 12 cnv 10 10 18 empty empty empty 4 10 0 12 -25 -1 0;
#X obj 8 36 cnv 10 10 18 empty empty empty 4 10 0 12 -25 -1 0;
#X obj 21 59 hsl 180 20 0 1 0 0 \$1-\$2/gain \$1-\$2/gain gain 0 11
0 12 -25 -258113 -203904 0 1;
#X obj 203 60 cnv 14 60 18 empty \$0.gain.display 13dB 4 10 0 12 -25
-203904 0;
#X obj 8 60 cnv 10 10 18 empty empty empty 4 10 0 12 -25 -1 0;
#N canvas 860 465 450 300 \$0.plot.display 0;
#X coords 0 0 180 68 180 68 2 30 30;
#X restore 287 11 pd \$0.plot.display;
#X obj 265 12 vsl 20 29 0 127 0 0 \$0.mode.switch \$0.mode.switch.r
fr 3 15 0 12 -25 -25 -203904 0 1;
#X obj 265 48 vsl 20 29 0 127 0 0 \$0.plot.switch \$0.plot.switch.r
⊟ 3 15 0 24 -25 -25 -203904 0 1;
#X obj 287 11 cnv 15 180 68 empty empty fl-peak 4 16 0 28 -203904 -158134
0;
#X restore 7 12 pd \$3-\$2;
#X connect 1 0 5 0;
#X connect 2 0 6 0;
#X connect 5 0 3 0;
#X connect 6 0 4 0;
#X connect 7 0 9 0;
#X connect 8 0 6 0;
#X connect 8 0 5 0;
#X connect 9 0 5 0;
#X connect 9 1 6 0;
#X connect 9 2 15 0;
#X connect 10 0 7 0;
#X connect 11 0 7 1;
#X connect 12 0 7 2;
#X connect 13 0 10 0;
#X connect 14 0 12 0;
#X connect 15 0 29 0;
#X connect 17 0 20 0;
#X connect 18 0 31 1;
#X connect 19 0 31 0;
#X connect 20 0 21 0;
#X connect 21 0 18 0;
#X connect 22 0 31 0;
#X connect 23 0 24 0;
#X connect 24 0 25 0;
#X connect 24 1 21 1;
#X connect 24 1 22 1;
#X connect 25 0 27 0;
#X connect 25 1 26 0;
#X connect 26 0 20 0;
#X connect 26 1 30 0;
#X connect 27 0 19 0;
#X connect 27 1 28 0;
#X connect 28 0 18 0;
#X connect 29 0 30 0;
#X connect 29 1 30 1;
#X connect 30 0 22 0;
#X connect 32 0 11 0;
