#N canvas 247 156 491 563 10;
#N canvas 0 106 450 70 NETPD 0;
#X msg 10 22 version 0 1 0;
#X restore 358 23 pd NETPD 2 0;
#X obj 14 34 inlet;
#X obj 98 34 inlet;
#X obj 98 95 t b a;
#X text 12 9 freq;
#X text 261 70 borrowed from mmb. Thanks!;
#X text 164 423 a0 a1 a2 b0 b1 b2;
#X obj 61 423 pack f f f f f f;
#X obj 245 363 expr -2*cos($f1);
#X msg 245 336 \$1;
#X obj 221 218 sin;
#X msg 14 216 \$1 \$2;
#X obj 14 268 t f f;
#X msg 41 292 1 \$1;
#X obj 41 316 -;
#X obj 14 331 + 1;
#X obj 14 353 t f f;
#X obj 14 242 expr $f3*sinh(log(2)/2*$f2*$f1/$f3);
#X obj 14 154 t a a a, f 39;
#X text 71 10 bandwidth;
#X obj 14 129 pack f f, f 19;
#X msg 221 193 \$1;
#X text 253 194 <<< correct ???;
#X obj 61 489 outlet;
#N canvas 0 106 450 300 Hz2rad 0;
#X obj 104 63 rh_const_pi;
#X obj 104 86 * 2;
#X obj 38 201 *;
#X obj 38 224 /;
#X obj 104 16 loadbang;
#X obj 104 39 t b b, f 13;
#X obj 38 37 inlet;
#X obj 38 251 outlet;
#X obj 179 79 samplerate~;
#X obj 179 102 t a a;
#X obj 38 156 clip 0 22050;
#X obj 107 132 * 0.5;
#X connect 0 0 1 0;
#X connect 1 0 2 1;
#X connect 2 0 3 0;
#X connect 3 0 7 0;
#X connect 4 0 5 0;
#X connect 5 0 0 0;
#X connect 5 1 8 0;
#X connect 6 0 10 0;
#X connect 8 0 9 0;
#X connect 9 0 11 0;
#X connect 9 1 3 1;
#X connect 10 0 2 0;
#X connect 11 0 10 2;
#X restore 14 64 pd Hz2rad;
#X obj 98 64 max 5.96046e-08;
#X obj 61 455 fl_normalize_a0;
#X connect 1 0 24 0;
#X connect 2 0 25 0;
#X connect 3 0 20 0;
#X connect 3 1 20 1;
#X connect 7 0 26 0;
#X connect 8 0 7 1;
#X connect 8 0 7 4;
#X connect 9 0 8 0;
#X connect 10 0 17 2;
#X connect 11 0 17 0;
#X connect 12 0 15 0;
#X connect 12 1 13 0;
#X connect 13 0 14 0;
#X connect 14 0 7 3;
#X connect 14 0 7 2;
#X connect 15 0 16 0;
#X connect 16 0 7 0;
#X connect 16 1 7 5;
#X connect 17 0 12 0;
#X connect 18 0 11 0;
#X connect 18 1 21 0;
#X connect 18 2 9 0;
#X connect 20 0 18 0;
#X connect 21 0 10 0;
#X connect 24 0 20 0;
#X connect 25 0 3 0;
#X connect 26 0 23 0;
