#N canvas 0 106 493 491 10;
#N canvas 0 106 450 70 NETPD 0;
#X msg 10 22 version 0 1 0;
#X restore 380 19 pd NETPD 2 0;
#X text 303 52 borrowed from mmb. Thanks!;
#X obj 80 35 inlet;
#X obj 176 36 inlet;
#X obj 176 99 t b a;
#X text 78 10 freq;
#X text 201 390 a0 a1 a2 b0 b1 b2;
#X msg 263 208 \$1;
#X obj 98 390 pack f f f f 0 f;
#X msg 80 186 \$1 \$2;
#X obj 263 256 expr -2*cos($f1);
#X msg 126 319 1 \$1;
#X obj 126 342 -;
#X obj 80 339 + 1;
#X obj 80 264 t f f f, f 16;
#X obj 191 335 * -1;
#X obj 80 214 expr sin($f1)/(2.*$f2);
#X obj 80 159 t a a, f 31;
#X obj 80 130 pack f f, f 21;
#X obj 98 461 outlet;
#X text 177 11 bandwidth;
#N canvas 0 106 450 300 Hz2rad 0;
#X obj 104 63 rh_const_pi;
#X obj 104 86 * 2;
#X obj 38 201 *;
#X obj 38 224 /;
#X obj 104 16 loadbang;
#X obj 104 39 t b b, f 13;
#X obj 38 37 inlet;
#X obj 38 251 outlet;
#X obj 179 79 samplerate~;
#X obj 179 102 t a a;
#X obj 38 156 clip 0 22050;
#X obj 107 132 * 0.5;
#X connect 0 0 1 0;
#X connect 1 0 2 1;
#X connect 2 0 3 0;
#X connect 3 0 7 0;
#X connect 4 0 5 0;
#X connect 5 0 0 0;
#X connect 5 1 8 0;
#X connect 6 0 10 0;
#X connect 8 0 9 0;
#X connect 9 0 11 0;
#X connect 9 1 3 1;
#X connect 10 0 2 0;
#X connect 11 0 10 2;
#X restore 80 65 pd Hz2rad;
#X obj 176 68 max 5.96046e-08;
#X obj 98 419 fl_normalize_a0;
#X connect 2 0 21 0;
#X connect 3 0 22 0;
#X connect 4 0 18 0;
#X connect 4 1 18 1;
#X connect 7 0 10 0;
#X connect 8 0 23 0;
#X connect 9 0 16 0;
#X connect 10 0 8 1;
#X connect 11 0 12 0;
#X connect 12 0 8 2;
#X connect 13 0 8 0;
#X connect 14 0 13 0;
#X connect 14 1 11 0;
#X connect 14 2 15 0;
#X connect 14 2 8 3;
#X connect 15 0 8 5;
#X connect 16 0 14 0;
#X connect 17 0 9 0;
#X connect 17 1 7 0;
#X connect 18 0 17 0;
#X connect 21 0 18 0;
#X connect 22 0 4 0;
#X connect 23 0 19 0;
