#N canvas 166 128 808 621 10;
#X obj 104 35 inlet;
#X text 357 538 a0 a1 a2 b0 b1 b2;
#X obj 254 538 pack f f f f f f;
#X obj 312 381 expr $f3*(($f3+1) - ($f3-1)*$f1 + $f2) \; 2*$f3*(($f3-1)
- ($f3+1)*$f1) \; $f3*(($f3+1) - ($f3-1)*$f1 - $f2);
#X obj 104 322 t f f;
#X obj 90 382 expr ($f3+1) + ($f3-1)*$f1 + $f2 \; -2*(($f3-1) + ($f3+1)*$f1)
\; ($f3+1) + ($f3-1)*$f1 -$f2;
#X obj 407 246 expr pow(10 \, $f1/40);
#X msg 407 224 \$3;
#X obj 104 269 expr cos($f1) \; sin($f1) * sqrt(($f3*$f3 + 1)*(1/$f2
- 1) + 2*$f3) \; $f3;
#X msg 104 243 \$1;
#X msg 255 216 \$2;
#X obj 255 239 clip 0 1;
#X text 523 60 borrowed from mmb. Thanks!;
#N canvas 0 106 450 61 NETPD 0;
#X msg 16 11 version 0 1 0;
#X restore 713 13 pd NETPD 2 0;
#X obj 254 594 outlet;
#X obj 174 36 inlet;
#X obj 272 35 inlet;
#X obj 174 119 t b a;
#X obj 104 179 t a a a, f 51;
#X obj 104 150 pack f f f, f 33;
#X obj 272 114 t b a;
#X text 102 10 freq;
#X text 177 11 slope;
#X text 277 10 gain;
#N canvas 0 106 450 300 Hz2rad 0;
#X obj 104 63 rh_const_pi;
#X obj 104 86 * 2;
#X obj 38 201 *;
#X obj 38 224 /;
#X obj 104 16 loadbang;
#X obj 104 39 t b b, f 13;
#X obj 38 37 inlet;
#X obj 38 251 outlet;
#X obj 179 79 samplerate~;
#X obj 179 102 t a a;
#X obj 38 156 clip 0 22050;
#X obj 107 132 * 0.5;
#X connect 0 0 1 0;
#X connect 1 0 2 1;
#X connect 2 0 3 0;
#X connect 3 0 7 0;
#X connect 4 0 5 0;
#X connect 5 0 0 0;
#X connect 5 1 8 0;
#X connect 6 0 10 0;
#X connect 8 0 9 0;
#X connect 9 0 11 0;
#X connect 9 1 3 1;
#X connect 10 0 2 0;
#X connect 11 0 10 2;
#X restore 104 65 pd Hz2rad;
#X obj 174 66 max 5.96046e-08;
#X obj 254 565 fl_normalize_a0;
#X connect 0 0 24 0;
#X connect 2 0 26 0;
#X connect 3 0 2 3;
#X connect 3 1 2 4;
#X connect 3 2 2 5;
#X connect 4 0 5 0;
#X connect 4 1 3 0;
#X connect 5 0 2 0;
#X connect 5 1 2 1;
#X connect 5 2 2 2;
#X connect 6 0 8 2;
#X connect 7 0 6 0;
#X connect 8 0 4 0;
#X connect 8 1 3 1;
#X connect 8 1 5 1;
#X connect 8 2 3 2;
#X connect 8 2 5 2;
#X connect 9 0 8 0;
#X connect 10 0 11 0;
#X connect 11 0 8 1;
#X connect 15 0 25 0;
#X connect 16 0 20 0;
#X connect 17 0 19 0;
#X connect 17 1 19 1;
#X connect 18 0 9 0;
#X connect 18 1 10 0;
#X connect 18 2 7 0;
#X connect 19 0 18 0;
#X connect 20 0 19 0;
#X connect 20 1 19 2;
#X connect 24 0 19 0;
#X connect 25 0 17 0;
#X connect 26 0 14 0;
