#N canvas 176 160 636 298 10;
#X msg 27 52 \$2 \$3 \$4 \$5 \$6 \$1;
#X obj 27 81 unpack f f f f f f;
#X obj 27 188 /;
#X obj 57 188 /;
#X obj 87 188 /;
#X obj 117 188 /;
#X obj 147 188 /;
#X obj 27 235 pack f f f f f;
#X obj 27 264 outlet;
#X obj 27 134 * -1;
#X obj 57 154 * -1;
#X obj 27 21 inlet;
#N canvas 463 372 446 55 NETPD 0;
#X msg 19 16 version 0 1 0;
#X restore 511 15 pd NETPD 2 0;
#X text 210 66 This converts a0 \, a1 \, a2 \, b0 \, b1 \, b2 parameters
from audio eq cookbook to the 5 parameters Pd's [biquad] expects \,
where a0 is assumed to be always 1;
#X text 209 120 biquad wants: fb1 fb2 ff1 ff2 ff3;
#X text 261 20 borrowed from mmb. Thanks!;
#X connect 0 0 1 0;
#X connect 1 0 9 0;
#X connect 1 1 10 0;
#X connect 1 2 4 0;
#X connect 1 3 5 0;
#X connect 1 4 6 0;
#X connect 1 5 6 1;
#X connect 1 5 5 1;
#X connect 1 5 4 1;
#X connect 1 5 3 1;
#X connect 1 5 2 1;
#X connect 2 0 7 0;
#X connect 3 0 7 1;
#X connect 4 0 7 2;
#X connect 5 0 7 3;
#X connect 6 0 7 4;
#X connect 7 0 8 0;
#X connect 9 0 2 0;
#X connect 10 0 3 0;
#X connect 11 0 0 0;
