#N canvas 164 106 755 609 10;
#N canvas 0 106 450 70 NETPD 0;
#X msg 10 22 version 0 1 0;
#X restore 665 9 pd NETPD 2 0;
#X obj 80 35 inlet;
#X obj 159 36 inlet;
#X obj 266 35 inlet;
#X obj 159 99 t b a;
#X obj 80 130 pack f f f, f 36;
#X obj 266 98 t b a;
#X text 78 10 freq;
#X text 271 10 gain;
#X text 568 50 borrowed from mmb. Thanks!;
#X text 333 498 a0 a1 a2 b0 b1 b2;
#X obj 248 316 expr -2*cos($f1);
#X msg 248 293 \$1;
#X obj 80 300 t f f;
#X obj 80 345 /;
#X obj 155 345 *;
#X msg 188 390 1 \$1;
#X obj 188 413 -;
#X obj 155 414 + 1;
#X obj 230 498 pack f f f f f f;
#X msg 118 390 1 \$1;
#X obj 118 413 -;
#X obj 80 370 t f f;
#X obj 80 414 + 1;
#X obj 80 257 expr sin($f1)/(2*$f2) \; pow(10 \, $f3/40);
#X obj 80 158 t a a, f 25;
#X obj 230 548 outlet;
#X text 153 11 bandwidth;
#N canvas 0 106 450 300 Hz2rad 0;
#X obj 104 63 rh_const_pi;
#X obj 104 86 * 2;
#X obj 38 201 *;
#X obj 38 224 /;
#X obj 104 16 loadbang;
#X obj 104 39 t b b, f 13;
#X obj 38 37 inlet;
#X obj 38 251 outlet;
#X obj 179 79 samplerate~;
#X obj 179 102 t a a;
#X obj 38 156 clip 0 22050;
#X obj 107 132 * 0.5;
#X connect 0 0 1 0;
#X connect 1 0 2 1;
#X connect 2 0 3 0;
#X connect 3 0 7 0;
#X connect 4 0 5 0;
#X connect 5 0 0 0;
#X connect 5 1 8 0;
#X connect 6 0 10 0;
#X connect 8 0 9 0;
#X connect 9 0 11 0;
#X connect 9 1 3 1;
#X connect 10 0 2 0;
#X connect 11 0 10 2;
#X restore 80 65 pd Hz2rad;
#X obj 159 63 max 5.96046e-08;
#X obj 230 522 fl_normalize_a0;
#X connect 1 0 28 0;
#X connect 2 0 29 0;
#X connect 3 0 6 0;
#X connect 4 0 5 0;
#X connect 4 1 5 1;
#X connect 5 0 25 0;
#X connect 6 0 5 0;
#X connect 6 1 5 2;
#X connect 11 0 19 1;
#X connect 11 0 19 4;
#X connect 12 0 11 0;
#X connect 13 0 14 0;
#X connect 13 1 15 0;
#X connect 14 0 22 0;
#X connect 15 0 16 0;
#X connect 15 0 18 0;
#X connect 16 0 17 0;
#X connect 17 0 19 5;
#X connect 18 0 19 3;
#X connect 19 0 30 0;
#X connect 20 0 21 0;
#X connect 21 0 19 2;
#X connect 22 0 23 0;
#X connect 22 1 20 0;
#X connect 23 0 19 0;
#X connect 24 0 13 0;
#X connect 24 1 15 1;
#X connect 24 1 14 1;
#X connect 25 0 24 0;
#X connect 25 1 12 0;
#X connect 28 0 5 0;
#X connect 29 0 4 0;
#X connect 30 0 26 0;
