#N canvas 147 199 592 583 10;
#N canvas 0 106 450 70 NETPD 0;
#X msg 10 22 version 0 1 1;
#X restore 452 11 pd NETPD 2 0;
#X obj 80 35 inlet;
#X obj 212 36 inlet;
#X obj 212 99 t b a;
#X text 78 10 freq;
#X text 381 37 borrowed from mmb. Thanks!;
#X text 215 11 Q;
#X text 331 479 a0 a1 a2 b0 b1 b2;
#X msg 210 196 \$1;
#X obj 228 479 pack f f f f 0 f;
#X obj 321 445 * -1;
#X msg 80 198 \$1 \$2;
#X obj 211 335 expr -2*cos($f1);
#X msg 126 360 1 \$1;
#X obj 126 383 -;
#X obj 80 380 + 1;
#X obj 326 390 * 1;
#X msg 341 366 \$2;
#X obj 80 335 t f f f, f 16;
#X obj 80 286 expr sin($f1)/(2.*$f2);
#X obj 80 131 pack f f, f 27;
#X obj 80 168 t a a a, f 44;
#N canvas 0 106 450 300 Hz2rad 0;
#X obj 104 63 rh_const_pi;
#X obj 104 86 * 2;
#X obj 38 201 *;
#X obj 38 224 /;
#X obj 104 16 loadbang;
#X obj 104 39 t b b, f 13;
#X obj 38 37 inlet;
#X obj 38 251 outlet;
#X obj 179 79 samplerate~;
#X obj 179 102 t a a;
#X obj 38 156 clip 0 22050;
#X obj 107 132 * 0.5;
#X connect 0 0 1 0;
#X connect 1 0 2 1;
#X connect 2 0 3 0;
#X connect 3 0 7 0;
#X connect 4 0 5 0;
#X connect 5 0 0 0;
#X connect 5 1 8 0;
#X connect 6 0 10 0;
#X connect 8 0 9 0;
#X connect 9 0 11 0;
#X connect 9 1 3 1;
#X connect 10 0 2 0;
#X connect 11 0 10 2;
#X restore 80 67 pd Hz2rad;
#X obj 228 510 fl_normalize_a0;
#X obj 228 539 outlet;
#X obj 80 221 unpack f f;
#X obj 137 245 max 5.96046e-08;
#X connect 1 0 22 0;
#X connect 2 0 3 0;
#X connect 3 0 20 0;
#X connect 3 1 20 1;
#X connect 8 0 12 0;
#X connect 9 0 23 0;
#X connect 10 0 9 5;
#X connect 11 0 25 0;
#X connect 12 0 9 1;
#X connect 13 0 14 0;
#X connect 14 0 9 2;
#X connect 15 0 9 0;
#X connect 16 0 10 0;
#X connect 16 0 9 3;
#X connect 17 0 16 1;
#X connect 18 0 15 0;
#X connect 18 1 13 0;
#X connect 18 2 16 0;
#X connect 19 0 18 0;
#X connect 20 0 21 0;
#X connect 21 0 11 0;
#X connect 21 1 8 0;
#X connect 21 2 17 0;
#X connect 22 0 20 0;
#X connect 23 0 24 0;
#X connect 25 0 19 0;
#X connect 25 1 26 0;
#X connect 26 0 19 1;
