#N canvas 718 163 867 371 10;
#N canvas 415 104 462 73 NETPD 0;
#X msg 14 13 version 0 1 3;
#X restore 91 22 pd NETPD 2 0;
#N canvas 35 77 430 261 pink 0;
#X obj 32 26 inlet;
#X obj 44 199 outlet~;
#X obj 44 146 rh_pink~;
#X obj 32 86 switch~;
#X connect 0 0 3 0;
#X connect 2 0 1 0;
#X restore 70 188 pd pink;
#N canvas 35 77 430 261 white 0;
#X obj 32 26 inlet;
#X obj 44 199 outlet~;
#X obj 32 86 switch~;
#X obj 44 146 noise~;
#X connect 0 0 2 0;
#X connect 3 0 1 0;
#X restore 12 190 pd white;
#X obj 12 125 netpd_f \$1 \$2/type;
#X obj 70 158 == 0;
#X obj 20 38 hradio 26 1 0 2 \$1-\$2/type \$1-\$2/type empty 0 -9 0 10 #fcfcfc #000000 #000000 0;
#X obj 23 20 hsl 47 18 0 127 0 0 \$0.blu \$0.bli noise 0 10 0 14 #e3c6ff #e3c6ff #2f004d 0 1;
#X obj 20 38 cnv 15 26 26 empty \$0.pnk.label pnk 1 13 0 14 #000000 #ffcccc 0;
#X obj 46 38 cnv 15 26 26 empty \$0.wht.label wht 1 13 0 14 #000000 #887766 0;
#X obj 224 183 t a a a a;
#X msg 334 315 color -1 -1 \$1;
#X obj 334 293 symbol;
#X msg 224 314 color -1 -1 \$1;
#X obj 224 292 symbol;
#X obj 334 240 sel 1 0;
#X obj 224 240 sel 1 0;
#X obj 224 217 == 0;
#X obj 334 217 == 1;
#X msg 224 266 #ffcccc;
#X msg 277 265 #886666;
#X msg 334 267 #ffddcc;
#X msg 386 268 #887766;
#X obj 224 160 netpd_r \$1 \$2/type;
#X obj 224 339 s \$0.pnk.label;
#X obj 334 340 s \$0.wht.label;
#X obj 23 64 hsl 47 18 0 1 0 0 \$1-\$2/level \$1-\$2/level level 2 9 0 12 #000000 #feffc6 #feffc6 0 1;
#X obj 68 220 netpd_f \$1 \$2/level 0.8;
#X obj 68 243 pow 4;
#X msg 68 266 \$1 50;
#X obj 13 262 *~;
#X obj 68 289 line~;
#X obj 20 83 golana-module-label 52 20;
#X obj 12 335 send~ \$1-sig-\$2;
#X obj 20 83 golana-module-out sig;
#N canvas 35 77 446 394 link.detection 0;
#X obj 31 60 t b a;
#X obj 31 83 f;
#X obj 31 106 +;
#X obj 31 129 t a a;
#X obj 31 153 > 0;
#X obj 31 285 sel 0;
#X msg 31 308 -1;
#X obj 31 255 t a a, f 12;
#X obj 31 228 change 0;
#X obj 31 14 r \$1-sig-\$2-out;
#X obj 31 37 route uplink;
#X obj 100 290 outlet;
#X obj 31 360 s \$1-sig-\$2-out;
#X msg 31 331 downlink \$1;
#X connect 0 0 1 0;
#X connect 0 1 2 1;
#X connect 1 0 2 0;
#X connect 2 0 3 0;
#X connect 3 0 4 0;
#X connect 3 1 1 1;
#X connect 4 0 8 0;
#X connect 5 0 6 0;
#X connect 5 1 13 0;
#X connect 6 0 13 0;
#X connect 7 0 5 0;
#X connect 7 1 11 0;
#X connect 8 0 7 0;
#X connect 9 0 10 0;
#X connect 10 0 0 0;
#X connect 13 0 12 0;
#X restore 222 31 pd link.detection;
#X obj 222 57 switch~;
#X connect 1 0 29 0;
#X connect 2 0 29 0;
#X connect 3 0 2 0;
#X connect 3 0 4 0;
#X connect 4 0 1 0;
#X connect 9 0 16 0;
#X connect 9 1 17 0;
#X connect 10 0 24 0;
#X connect 11 0 10 0;
#X connect 12 0 23 0;
#X connect 13 0 12 0;
#X connect 14 0 20 0;
#X connect 14 1 21 0;
#X connect 15 0 18 0;
#X connect 15 1 19 0;
#X connect 16 0 15 0;
#X connect 17 0 14 0;
#X connect 18 0 13 0;
#X connect 19 0 13 0;
#X connect 20 0 11 0;
#X connect 21 0 11 0;
#X connect 22 0 9 0;
#X connect 26 0 27 0;
#X connect 27 0 28 0;
#X connect 28 0 30 0;
#X connect 29 0 32 0;
#X connect 30 0 29 1;
#X connect 34 0 35 0;
#X coords 0 -1 1 1 52 79 2 20 20;
