#N canvas 588 92 876 427 10;
#X obj 237 15 r \$3.unstep;
#X obj 237 174 / 127;
#N canvas 35 77 398 107 NETPD 0;
#X msg 24 22 version 0 0 6;
#X restore 119 11 pd NETPD 2 0;
#X obj 237 143 t a b;
#X obj 312 171 f;
#X obj 312 194 t a b;
#X obj 339 216 del 100;
#X msg 339 239 0;
#X obj 765 244 r \$0.pitch;
#X msg 765 267 \$1 0 0;
#X obj 765 290 vline~;
#X obj 237 199 s \$0.pitch;
#X obj 48 110 r \$3.unpunch;
#N canvas 681 302 676 389 filter_last_off 0;
#X obj 59 54 inlet;
#X obj 59 305 outlet;
#X msg 230 99 \$2 \$1;
#X obj 230 122 unpack f f;
#X obj 230 162 > 0;
#X obj 230 186 sel 1;
#X obj 230 209 f, f 11;
#X obj 59 134 route 0;
#X obj 230 232 t a a;
#X obj 257 265 pack f f;
#X obj 230 142 t a a;
#X obj 59 157 sel 0;
#X obj 59 219 f;
#X msg 59 242 \$1 0;
#X obj 401 134 netpd_f \$1 \$2/unpunch 1;
#X obj 401 157 sel 0;
#X obj 302 238 / 127;
#X obj 59 77 t a a a, f 58;
#X msg 454 170 \$2;
#X obj 454 193 > 0;
#X obj 401 215 f;
#X obj 401 238 sel 1;
#X connect 0 0 17 0;
#X connect 2 0 3 0;
#X connect 3 0 10 0;
#X connect 3 1 6 1;
#X connect 4 0 5 0;
#X connect 5 0 6 0;
#X connect 6 0 8 0;
#X connect 7 0 11 0;
#X connect 8 0 7 1;
#X connect 8 0 12 1;
#X connect 8 1 9 0;
#X connect 9 0 1 0;
#X connect 10 0 4 0;
#X connect 10 1 16 0;
#X connect 11 0 12 0;
#X connect 12 0 13 0;
#X connect 13 0 1 0;
#X connect 14 0 15 0;
#X connect 15 0 20 0;
#X connect 16 0 9 1;
#X connect 17 0 7 0;
#X connect 17 1 2 0;
#X connect 17 2 18 0;
#X connect 18 0 19 0;
#X connect 19 0 20 1;
#X connect 20 0 21 0;
#X connect 21 0 12 0;
#X restore 48 216 pd filter_last_off;
#X msg 48 193 \$1 \$2;
#X obj 48 239 unpack f f;
#X obj 48 339 / 127;
#X obj 48 364 s \$0.pitch;
#N canvas 681 302 356 437 filter_last_off 0;
#X obj 59 54 inlet;
#X obj 59 348 outlet;
#X obj 59 77 t a a, f 29;
#X msg 230 99 \$2 \$1;
#X obj 230 122 unpack f f;
#X obj 230 162 > 0;
#X obj 230 186 sel 1;
#X obj 230 209 f, f 11;
#X obj 59 134 route 0;
#X obj 230 142 t a a;
#X obj 59 157 sel 0;
#X msg 59 242 0;
#X obj 230 232 t a b;
#X obj 256 258 f;
#X connect 0 0 2 0;
#X connect 2 0 8 0;
#X connect 2 1 3 0;
#X connect 3 0 4 0;
#X connect 4 0 9 0;
#X connect 4 1 7 1;
#X connect 5 0 6 0;
#X connect 6 0 7 0;
#X connect 7 0 12 0;
#X connect 8 0 10 0;
#X connect 9 0 5 0;
#X connect 9 1 13 1;
#X connect 10 0 11 0;
#X connect 11 0 1 0;
#X connect 12 0 8 1;
#X connect 12 1 13 0;
#X connect 13 0 1 0;
#X restore 604 273 pd filter_last_off;
#X obj 105 292 list prepend 2;
#X obj 312 322 list prepend 3;
#X obj 105 316 s \$0.trigger;
#X obj 311 346 s \$0.trigger;
#X obj 604 245 r \$0.trigger;
#X obj 81 30 vsl 18 51 0 1 0 0 \$1-\$2/hold \$1-\$2/hold empty 0 -9 0 10 #000000 #feffc6 #feffc6 0 1;
#X obj 10 66 cnv 10 70 18 empty \$0.value \ \ \ 50.99 0 9 0 12 #000000 #feffc6 0;
#X obj 373 72 netpd_f \$1 \$2/hold 0.1;
#X obj 373 95 pow 2;
#X obj 373 118 * 4999;
#X obj 373 141 + 1;
#X obj 462 105 r \$1-\$2/hold;
#X obj 462 160 pow 2;
#X obj 462 183 * 4999;
#X obj 462 206 + 1;
#X msg 462 254 label \$1;
#X obj 462 277 s \$0.value;
#X obj 462 229 makefilename %8.2f;
#X obj 335 36 netpd_f \$1 \$2/unstep 1;
#X obj 67 140 netpd_f \$1 \$2/unpunch 1;
#X obj 10 28 tgl 18 0 \$1-\$2/unstep \$1-\$2/unstep empty 0 -9 0 10 #000000 #000000 #886666 0 1;
#X obj 28 28 tgl 18 0 \$1-\$2/unstep \$1-\$2/unstep empty 18 -9 0 10 #000000 #000000 #886666 0 1;
#X obj 44 28 tgl 18 0 \$1-\$2/unstep \$1-\$2/unstep empty 0 -9 0 10 #000000 #000000 #886666 0 1;
#X obj 62 28 tgl 18 0 \$1-\$2/unstep \$1-\$2/unstep empty 0 -9 0 10 #000000 #000000 #886666 0 1;
#X obj 13 28 hsl 65 18 0 127 0 0 empty \$0.unstep.label unstep 12 9 0 12 #000000 #000000 #ffcccc 0 1;
#X obj 10 47 tgl 18 0 \$1-\$2/unpunch \$1-\$2/unpunch empty 0 -9 0 10 #fcfcfc #000000 #000000 0 1;
#X obj 28 47 tgl 18 0 \$1-\$2/unpunch \$1-\$2/unpunch empty 0 -9 0 10 #fcfcfc #000000 #000000 0 1;
#X obj 46 47 tgl 18 0 \$1-\$2/unpunch \$1-\$2/unpunch empty 0 -9 0 10 #fcfcfc #000000 #000000 0 1;
#X obj 62 47 tgl 18 0 \$1-\$2/unpunch \$1-\$2/unpunch empty 0 -9 0 10 #fcfcfc #000000 #000000 0 1;
#X obj 13 47 hsl 65 18 0 127 0 0 empty \$0.unpunch.label unpunch 12 9 0 12 #000000 #000000 #ffddcc 0 1;
#X obj 616 11 r \$1-\$2/unstep;
#X obj 616 34 route float set;
#X msg 616 167 color -1 -1 \$1;
#X obj 616 63 sel 0 1;
#X msg 635 91 #ffcccc;
#X msg 616 114 #886666;
#X obj 616 141 symbol;
#X obj 616 191 s \$0.unstep.label;
#X obj 728 31 route float set;
#X msg 728 164 color -1 -1 \$1;
#X obj 728 60 sel 0 1;
#X obj 728 138 symbol;
#X obj 728 8 r \$1-\$2/unpunch;
#X msg 747 88 #ffddcc;
#X msg 728 111 #887766;
#X obj 728 188 s \$0.unpunch.label;
#X obj 237 55 spigot;
#X obj 48 166 spigot;
#X obj 13 10 hsl 84 18 0 127 0 0 \$0.blu \$0.bli seq>CV/trig 0 10 0 12 #e3c6ff #e3c6ff #2f004d 0 1;
#X obj 10 47 cnv 10 12 18 empty \$0.unpunch.indicator ⬤ 2 9 0 14 #000000 #000000 0;
#X obj 10 29 cnv 10 12 18 empty \$0.unstep.indicator ⬤ 2 9 0 14 #000000 #000000 0;
#N canvas 35 77 450 300 unstep.indicator 0;
#X obj 19 199 * -1;
#X obj 19 220 - 1;
#X obj 19 148 +, f 9;
#X obj 19 262 s \$0.unstep.indicator;
#X obj 19 51 * 255;
#X obj 19 75 t a a a, f 18;
#X obj 19 121 << 16;
#X obj 71 124 << 8;
#X obj 19 99 * 1;
#X obj 19 173 +, f 18;
#X obj 124 124 << 0;
#X msg 19 240 color -1 -1 \$1;
#X obj 124 100 * 0.7;
#X obj 71 101 * 0.85;
#X obj 19 26 inlet;
#X connect 0 0 1 0;
#X connect 1 0 11 0;
#X connect 2 0 9 0;
#X connect 4 0 5 0;
#X connect 5 0 8 0;
#X connect 5 1 13 0;
#X connect 5 2 12 0;
#X connect 6 0 2 0;
#X connect 7 0 2 1;
#X connect 8 0 6 0;
#X connect 9 0 0 0;
#X connect 10 0 9 1;
#X connect 11 0 3 0;
#X connect 12 0 10 0;
#X connect 13 0 7 0;
#X connect 14 0 4 0;
#X restore 338 298 pd unstep.indicator;
#N canvas 35 77 257 301 unpunch.indicator 0;
#X obj 23 193 * -1;
#X obj 23 214 - 1;
#X obj 23 142 +, f 9;
#X obj 23 45 * 255;
#X obj 23 69 t a a a, f 18;
#X obj 23 115 << 16;
#X obj 75 118 << 8;
#X obj 23 93 * 1;
#X obj 23 167 +, f 18;
#X obj 128 118 << 0;
#X msg 23 234 color -1 -1 \$1;
#X obj 128 94 * 0.7;
#X obj 75 95 * 0.7;
#X obj 23 256 s \$0.unpunch.indicator;
#X obj 24 15 inlet;
#X connect 0 0 1 0;
#X connect 1 0 10 0;
#X connect 2 0 8 0;
#X connect 3 0 4 0;
#X connect 4 0 7 0;
#X connect 4 1 12 0;
#X connect 4 2 11 0;
#X connect 5 0 2 0;
#X connect 6 0 2 1;
#X connect 7 0 5 0;
#X connect 8 0 0 0;
#X connect 9 0 8 1;
#X connect 10 0 13 0;
#X connect 11 0 9 0;
#X connect 12 0 6 0;
#X connect 14 0 3 0;
#X restore 120 347 pd unpunch.indicator;
#X obj 312 267 t a a;
#X obj 462 128 route float set;
#X obj 10 85 golana-module-label 89 29;
#X obj 10 85 golana-module-out CV;
#X obj 79 85 golana-module-out trg;
#X obj 237 81 route note vel;
#X obj 765 317 s~ \$1-CV-\$2;
#X obj 604 320 s \$1-trg-\$2-out;
#X obj 319 141 + 0.01;
#X obj 319 118 * 0.99;
#X msg 604 296 trg \$1;
#N canvas 35 77 446 394 link.detection 0;
#X obj 31 60 t b a;
#X obj 31 83 f;
#X obj 31 106 +;
#X obj 31 129 t a a;
#X obj 31 153 > 0;
#X obj 31 285 sel 0;
#X msg 31 308 -1;
#X obj 31 255 t a a, f 12;
#X obj 31 228 change 0;
#X obj 31 37 route uplink;
#X obj 100 290 outlet;
#X msg 31 331 downlink \$1;
#X obj 31 14 r \$1-CV-\$2-out;
#X obj 31 360 s \$1-CV-\$2-out;
#X obj 159 114 t b a;
#X obj 153 137 ||, f 6;
#X obj 153 64 netpd_r \$1 \$2/unstep;
#X obj 159 91 netpd_r \$1 \$2/unpunch;
#X obj 31 195 &&;
#X obj 153 160 t b a;
#X obj 321 60 t b a;
#X obj 321 83 f;
#X obj 321 106 +;
#X obj 321 129 t a a;
#X obj 321 153 > 0;
#X obj 321 285 sel 0;
#X msg 321 308 -1;
#X obj 321 255 t a a, f 12;
#X obj 321 228 change 0;
#X obj 321 37 route uplink;
#X msg 321 331 downlink \$1;
#X obj 321 195 &&;
#X obj 321 14 r \$1-trg-\$2-out;
#X obj 321 360 s \$1-trg-\$2-out;
#X connect 0 0 1 0;
#X connect 0 1 2 1;
#X connect 1 0 2 0;
#X connect 2 0 3 0;
#X connect 3 0 4 0;
#X connect 3 1 1 1;
#X connect 4 0 18 0;
#X connect 5 0 6 0;
#X connect 5 1 11 0;
#X connect 6 0 11 0;
#X connect 7 0 5 0;
#X connect 7 1 10 0;
#X connect 8 0 7 0;
#X connect 9 0 0 0;
#X connect 11 0 13 0;
#X connect 12 0 9 0;
#X connect 14 0 15 0;
#X connect 14 1 15 1;
#X connect 15 0 19 0;
#X connect 16 0 15 0;
#X connect 17 0 14 0;
#X connect 18 0 8 0;
#X connect 19 0 18 0;
#X connect 19 0 31 0;
#X connect 19 1 18 1;
#X connect 19 1 31 1;
#X connect 20 0 21 0;
#X connect 20 1 22 1;
#X connect 21 0 22 0;
#X connect 22 0 23 0;
#X connect 23 0 24 0;
#X connect 23 1 21 1;
#X connect 24 0 31 0;
#X connect 25 0 26 0;
#X connect 25 1 30 0;
#X connect 26 0 30 0;
#X connect 27 0 25 0;
#X connect 28 0 27 0;
#X connect 29 0 20 0;
#X connect 30 0 33 0;
#X connect 31 0 28 0;
#X connect 32 0 29 0;
#X restore 484 350 pd link.detection;
#X obj 484 377 switch~;
#X connect 0 0 65 0;
#X connect 1 0 11 0;
#X connect 3 0 1 0;
#X connect 3 1 4 0;
#X connect 4 0 5 0;
#X connect 5 0 72 0;
#X connect 5 1 6 0;
#X connect 6 0 7 0;
#X connect 7 0 72 0;
#X connect 8 0 9 0;
#X connect 9 0 10 0;
#X connect 10 0 78 0;
#X connect 12 0 66 0;
#X connect 13 0 15 0;
#X connect 14 0 13 0;
#X connect 15 0 16 0;
#X connect 15 1 19 0;
#X connect 15 1 71 0;
#X connect 16 0 17 0;
#X connect 18 0 82 0;
#X connect 19 0 21 0;
#X connect 20 0 22 0;
#X connect 23 0 18 0;
#X connect 26 0 27 0;
#X connect 27 0 28 0;
#X connect 28 0 29 0;
#X connect 29 0 6 1;
#X connect 30 0 73 0;
#X connect 31 0 32 0;
#X connect 32 0 33 0;
#X connect 33 0 36 0;
#X connect 34 0 35 0;
#X connect 36 0 34 0;
#X connect 37 0 65 1;
#X connect 38 0 66 1;
#X connect 49 0 50 0;
#X connect 50 0 52 0;
#X connect 50 1 52 0;
#X connect 51 0 56 0;
#X connect 52 0 54 0;
#X connect 52 1 53 0;
#X connect 53 0 55 0;
#X connect 54 0 55 0;
#X connect 55 0 51 0;
#X connect 57 0 59 0;
#X connect 57 1 59 0;
#X connect 58 0 64 0;
#X connect 59 0 63 0;
#X connect 59 1 62 0;
#X connect 60 0 58 0;
#X connect 61 0 57 0;
#X connect 62 0 60 0;
#X connect 63 0 60 0;
#X connect 65 0 77 0;
#X connect 66 0 14 0;
#X connect 72 0 20 0;
#X connect 72 1 70 0;
#X connect 73 0 31 0;
#X connect 73 1 31 0;
#X connect 77 0 3 0;
#X connect 77 1 81 0;
#X connect 80 0 4 1;
#X connect 81 0 80 0;
#X connect 82 0 79 0;
#X connect 83 0 84 0;
#X coords 0 -1 1 1 89 91 2 10 10;
