#N canvas 529 284 524 353 10;
#N canvas 1214 542 513 553 lowpass 0;
#X obj 244 55 loadbang;
#X obj 244 78 samplerate~;
#X obj 233 228 expr~ sin($v1)/(2*$v2);
#X obj 141 333 expr~ (1-cos($v1))/2/$v2 \; (1-cos($v1))/$v2 \; (1-cos($v1))/2/$v2 \; 2*cos($v1)/$v2 \; -(1-$v3)/$v2 \;;
#X obj 35 458 fexpr~ $x1[0]*$x2+$x[-1]*$x3+$x[-2]*$x4+$y1[-1]*$x5+$y1[-2]*$x6, f 65;
#X text 311 166 omega;
#X text 386 66 q;
#X text 377 228 alpha;
#X text 293 281 a0;
#X text 296 334 ff1;
#X text 296 347 ff2;
#X text 296 359 ff3;
#X text 296 373 fb1;
#X text 296 385 fb2;
#X text 121 441 ff1;
#X text 194 441 ff2;
#X text 269 439 ff3;
#X text 344 440 fb1;
#X text 422 439 fb2;
#X obj 362 40 inlet~;
#X obj 362 134 +~ 1e-08;
#X obj 140 55 inlet~;
#X text 149 82 freq;
#X obj 34 40 inlet~;
#X text 42 79 signal;
#X obj 34 501 outlet~;
#X obj 140 167 expr~ 2*3.14159265*$v1/$f2;
#X obj 183 279 +~ 1;
#X connect 0 0 1 0;
#X connect 1 0 26 1;
#X connect 2 0 3 2;
#X connect 2 0 27 0;
#X connect 3 0 4 1;
#X connect 3 1 4 2;
#X connect 3 2 4 3;
#X connect 3 3 4 4;
#X connect 3 4 4 5;
#X connect 4 0 25 0;
#X connect 19 0 20 0;
#X connect 20 0 2 1;
#X connect 21 0 26 0;
#X connect 23 0 4 0;
#X connect 26 0 2 0;
#X connect 26 0 3 0;
#X connect 27 0 3 1;
#X restore 10 233 pd lowpass;
#X f 24;
#X obj 23 37 hsl 75 18 0 127 0 0 \$0.blu \$0.bli VCF 0 10 0 14 #e3c6ff #e3c6ff #2f004d 0 1;
#X obj 23 55 hsl 75 18 0 1 0 0 \$1-\$2/floor \$1-\$2/floor floor 2 9 0 12 #000000 #ffc7c6 #ffc7c6 0 1;
#X obj 23 73 hsl 75 18 0 1 0 0 \$1-\$2/ceiling \$1-\$2/ceiling ceiling 2 9 0 12 #000000 #ffe3c6 #ffe3c6 0 1;
#X obj 266 49 netpd_f \$1 \$2/floor 0;
#X obj 282 79 netpd_f \$1 \$2/ceiling 1;
#X obj 23 91 hsl 75 18 0 1 0 0 \$1-\$2/q \$1-\$2/q Q 2 9 0 12 #000000 #feffc6 #feffc6 0 1;
#X obj 190 241 netpd_f \$1 \$2/q 0.2;
#X obj 123 97 *~ 1;
#X obj 123 119 +~ 0;
#N canvas 35 77 442 244 param 0;
#X obj 17 162 change;
#X msg 17 117 \$1 50;
#X obj 17 90 dbtorms;
#X obj 17 139 line 0 2;
#X obj 17 64 t a a;
#X obj 17 41 rh_scalelin 87 140;
#X obj 17 8 inlet;
#X obj 17 200 outlet;
#X connect 0 0 7 0;
#X connect 1 0 3 0;
#X connect 2 0 1 0;
#X connect 3 0 0 0;
#X connect 4 0 2 0;
#X connect 5 0 4 0;
#X connect 6 0 5 0;
#X restore 190 266 pd param;
#X obj 266 111 t b a;
#X obj 282 142 -, f 7;
#X obj 124 180 *~ 127;
#X obj 124 203 mtof~;
#N canvas 35 77 450 300 NETPD 0;
#X msg 15 15 version 0 0 4;
#X restore 350 13 pd NETPD 2 0;
#X obj 20 20 golana-module-label 80 23;
#X obj 20 110 golana-module-label 80 23;
#X obj 20 110 golana-module-out sig;
#X obj 20 20 golana-module-in sig;
#X obj 80 20 golana-module-in CV;
#X obj 9 148 catch~ \$1-sig-\$2;
#X obj 123 65 catch~ \$1-CV-\$2;
#X obj 11 308 send~ \$1-sig-\$2;
#X obj 124 149 clip~ 0 1;
#N canvas 373 501 649 413 link.detection 0;
#X obj 28 56 t b a;
#X obj 28 79 f;
#X obj 28 102 +;
#X obj 28 125 t a a;
#X obj 28 149 > 0;
#X obj 28 356 s \$1-sig-\$2-out;
#X obj 28 281 sel 0;
#X msg 28 304 -1;
#X obj 28 251 t a a, f 12;
#X obj 28 174 change 0;
#X obj 28 10 r \$1-sig-\$2-in;
#X obj 387 63 t b a;
#X obj 387 86 f;
#X obj 387 109 +;
#X obj 387 132 t a a;
#X obj 387 156 > 0;
#X obj 387 17 r \$1-CV-\$2-in;
#X obj 28 33 route downlink;
#X obj 387 40 route downlink;
#X msg 28 327 downlink \$1;
#X obj 263 63 t b a;
#X obj 263 86 f;
#X obj 263 109 +;
#X obj 263 132 t a a;
#X obj 263 156 > 0;
#X obj 263 288 sel 0;
#X msg 263 311 -1;
#X obj 263 238 t a a, f 12;
#X obj 263 184 change 0;
#X obj 263 17 r \$1-sig-\$2-out;
#X obj 263 40 route uplink;
#X msg 263 334 uplink \$1;
#X obj 263 360 s \$1-CV-\$2-in;
#X obj 179 332 outlet;
#X obj 179 301 &&, f 5;
#X obj 179 271 t b a;
#X obj 387 212 sel 0;
#X msg 387 235 -1;
#X obj 387 181 change 0;
#X msg 387 258 uplink \$1;
#X obj 387 284 s \$1-sig-\$2-in;
#X connect 0 0 1 0;
#X connect 0 1 2 1;
#X connect 1 0 2 0;
#X connect 2 0 3 0;
#X connect 3 0 4 0;
#X connect 3 1 1 1;
#X connect 4 0 9 0;
#X connect 6 0 7 0;
#X connect 6 1 19 0;
#X connect 7 0 19 0;
#X connect 8 0 6 0;
#X connect 8 1 34 0;
#X connect 9 0 8 0;
#X connect 10 0 17 0;
#X connect 11 0 12 0;
#X connect 11 1 13 1;
#X connect 12 0 13 0;
#X connect 13 0 14 0;
#X connect 14 0 15 0;
#X connect 14 1 12 1;
#X connect 15 0 38 0;
#X connect 16 0 18 0;
#X connect 17 0 0 0;
#X connect 18 0 11 0;
#X connect 19 0 5 0;
#X connect 20 0 21 0;
#X connect 20 1 22 1;
#X connect 21 0 22 0;
#X connect 22 0 23 0;
#X connect 23 0 24 0;
#X connect 23 1 21 1;
#X connect 24 0 28 0;
#X connect 25 0 26 0;
#X connect 25 1 31 0;
#X connect 26 0 31 0;
#X connect 27 0 25 0;
#X connect 27 1 35 0;
#X connect 28 0 27 0;
#X connect 29 0 30 0;
#X connect 30 0 20 0;
#X connect 31 0 32 0;
#X connect 34 0 33 0;
#X connect 35 0 34 0;
#X connect 35 1 34 1;
#X connect 36 0 37 0;
#X connect 36 1 39 0;
#X connect 37 0 39 0;
#X connect 38 0 36 0;
#X connect 39 0 40 0;
#X restore 350 209 pd link.detection;
#X obj 350 232 switch~;
#X connect 0 0 23 0;
#X connect 4 0 11 0;
#X connect 4 0 9 1;
#X connect 5 0 12 0;
#X connect 7 0 10 0;
#X connect 8 0 9 0;
#X connect 9 0 24 0;
#X connect 10 0 0 2;
#X connect 11 0 12 0;
#X connect 11 1 12 1;
#X connect 12 0 8 1;
#X connect 13 0 14 0;
#X connect 14 0 0 1;
#X connect 21 0 0 0;
#X connect 22 0 8 0;
#X connect 24 0 13 0;
#X connect 25 0 26 0;
#X coords 0 -1 1 1 80 106 2 20 20;
