#N canvas 1515 469 484 240 10;
#N canvas 1666 742 403 65 NETPD 0;
#X msg 7 14 version 0 0 1;
#X restore 353 15 pd NETPD 2 0;
#X obj 134 96 loadbang;
#X obj 256 133 list append \$2 \$3;
#X msg 256 158 color \$1 \$1 \$2;
#X obj 20 20 cnv 18 80 24 empty \$0.bg empty 2 10 0 14 #bbbbbb #000000 0;
#X obj 134 119 symbol \$4;
#X msg 134 142 color \$1 -1 -1;
#X obj 256 183 s \$0.fg;
#X obj 134 165 s \$0.bg;
#X obj 22 22 cnv 18 78 20 empty \$0.fg \$1 2 10 0 14 #ccffcc #668866 0;
#X connect 1 0 2 0;
#X connect 1 0 5 0;
#X connect 2 0 3 0;
#X connect 3 0 7 0;
#X connect 5 0 6 0;
#X connect 6 0 8 0;
#X coords 0 -1 1 1 80 24 2 20 20;
