#N canvas 718 163 550 278 10;
#N canvas 415 104 462 73 NETPD 0;
#X msg 12 13 version 0 1 0;
#X restore 360 11 pd NETPD 2 0;
#N canvas 35 77 430 261 pink 0;
#X obj 32 26 inlet;
#X obj 44 199 outlet~;
#X obj 44 146 rh_pink~;
#X obj 32 86 switch~;
#X connect 0 0 3 0;
#X connect 2 0 1 0;
#X restore 78 154 pd pink;
#N canvas 35 77 430 261 white 0;
#X obj 32 26 inlet;
#X obj 44 199 outlet~;
#X obj 32 86 switch~;
#X obj 44 146 noise~;
#X connect 0 0 2 0;
#X connect 3 0 1 0;
#X restore 15 150 pd white;
#X obj 15 188 outlet~;
#X obj 15 95 netpd_f \$1 \$2/type;
#X obj 15 124 == 0;
#X obj 20 38 hradio 26 1 0 2 \$1-\$2/type \$1-\$2/type empty 0 -9 0 10 #fcfcfc #000000 #000000 0;
#X obj 23 20 hsl 47 18 0 127 0 0 \$0.blu \$0.bli noise 0 10 0 14 #e3c6ff #e3c6ff #2f004d 0 1;
#X obj 20 38 cnv 15 26 26 empty \$0.pnk.label pnk 1 13 0 14 #000000 #886666 0;
#X obj 46 38 cnv 15 26 26 empty \$0.wht.label wht 1 13 0 14 #000000 #887766 0;
#X obj 278 77 t a a a a;
#X msg 388 209 color -1 -1 \$1;
#X obj 388 187 symbol;
#X msg 278 208 color -1 -1 \$1;
#X obj 278 186 symbol;
#X obj 388 134 sel 1 0;
#X obj 278 134 sel 1 0;
#X obj 278 111 == 0;
#X obj 388 111 == 1;
#X msg 278 160 #ffcccc;
#X msg 331 159 #886666;
#X msg 388 161 #ffddcc;
#X msg 440 162 #887766;
#X obj 278 54 netpd_r \$1 \$2/type;
#X obj 278 233 s \$0.pnk.label;
#X obj 388 234 s \$0.wht.label;
#X connect 1 0 3 0;
#X connect 2 0 3 0;
#X connect 4 0 5 0;
#X connect 4 0 1 0;
#X connect 5 0 2 0;
#X connect 10 0 17 0;
#X connect 10 1 18 0;
#X connect 11 0 25 0;
#X connect 12 0 11 0;
#X connect 13 0 24 0;
#X connect 14 0 13 0;
#X connect 15 0 21 0;
#X connect 15 1 22 0;
#X connect 16 0 19 0;
#X connect 16 1 20 0;
#X connect 17 0 16 0;
#X connect 18 0 15 0;
#X connect 19 0 14 0;
#X connect 20 0 14 0;
#X connect 21 0 12 0;
#X connect 22 0 12 0;
#X connect 23 0 10 0;
#X coords 0 -1 1 1 52 44 2 20 20;
