#N canvas 1323 819 450 349 10;
#N canvas 35 77 504 68 NETPD 0;
#X msg 10 8 version 0 0 4;
#X restore 367 10 pd NETPD 2 0;
#X obj 209 97 netpd_f \$1 \$2/floor 0;
#X obj 277 128 netpd_f \$1 \$2/ceiling 1;
#X obj 209 136 t b a;
#X obj 231 192 -, f 7;
#X obj 23 37 hsl 75 18 0 127 0 0 \$0.blu \$0.bli trig-range 0 10 0 12 #e3c6ff #e3c6ff #2f004d 0 1;
#X obj 23 55 hsl 75 18 0 1 0 0 \$1-\$2/floor \$1-\$2/floor floor 2 9 0 12 #000000 #feffc6 #feffc6 0 1;
#X obj 23 73 hsl 75 18 0 1 0 0 \$1-\$2/ceiling \$1-\$2/ceiling ceiling 2 9 0 12 #000000 #c6ffc7 #c6ffc7 0 1;
#X obj 76 207 * 1;
#X obj 76 231 + 0;
#X obj 27 178 select 0;
#X msg 27 201 0;
#X obj 20 20 golana-module-label 80 30;
#X obj 20 20 golana-module-in trg;
#X obj 20 92 golana-module-label 80 30;
#X obj 20 92 golana-module-out trg;
#X obj 27 132 r \$1-trg-\$2-in;
#X obj 27 282 s \$1-trg-\$2-out;
#X obj 27 156 route trg;
#X msg 27 256 trg \$1;
#N canvas 1181 885 613 362 link.detection 0;
#X obj 8 54 t b a;
#X obj 8 77 f;
#X obj 8 100 +;
#X obj 8 123 t a a;
#X obj 8 147 > 0;
#X obj 8 223 sel 0;
#X msg 8 246 -1;
#X obj 8 197 change 0;
#X obj 8 173 t a a, f 12;
#X obj 8 31 route downlink;
#X msg 8 269 downlink \$1;
#X obj 203 55 t b a;
#X obj 203 78 f;
#X obj 203 101 +;
#X obj 203 124 t a a;
#X obj 203 148 > 0;
#X obj 203 224 sel 0;
#X msg 203 247 -1;
#X obj 203 198 change 0;
#X obj 203 174 t a a, f 12;
#X obj 203 32 route uplink;
#X msg 203 270 uplink \$1;
#X obj 8 8 r \$1-trg-\$2-in;
#X obj 8 298 s \$1-trg-\$2-out;
#X obj 203 299 s \$1-trg-\$2-in;
#X obj 203 9 r \$1-trg-\$2-out;
#X connect 0 0 1 0;
#X connect 0 1 2 1;
#X connect 1 0 2 0;
#X connect 2 0 3 0;
#X connect 3 0 4 0;
#X connect 3 1 1 1;
#X connect 4 0 8 0;
#X connect 5 0 6 0;
#X connect 5 1 10 0;
#X connect 6 0 10 0;
#X connect 7 0 5 0;
#X connect 8 0 7 0;
#X connect 9 0 0 0;
#X connect 10 0 23 0;
#X connect 11 0 12 0;
#X connect 11 1 13 1;
#X connect 12 0 13 0;
#X connect 13 0 14 0;
#X connect 14 0 15 0;
#X connect 14 1 12 1;
#X connect 15 0 19 0;
#X connect 16 0 17 0;
#X connect 16 1 21 0;
#X connect 17 0 21 0;
#X connect 18 0 16 0;
#X connect 19 0 18 0;
#X connect 20 0 11 0;
#X connect 21 0 24 0;
#X connect 22 0 9 0;
#X connect 25 0 20 0;
#X restore 255 253 pd link.detection;
#X connect 1 0 3 0;
#X connect 1 0 9 1;
#X connect 2 0 4 0;
#X connect 3 0 4 0;
#X connect 3 1 4 1;
#X connect 4 0 8 1;
#X connect 8 0 9 0;
#X connect 9 0 19 0;
#X connect 10 0 11 0;
#X connect 10 1 8 0;
#X connect 11 0 19 0;
#X connect 16 0 18 0;
#X connect 18 0 10 0;
#X connect 19 0 17 0;
#X coords 0 -1 1 1 80 88 2 20 20;
