#N canvas 714 131 576 379 10;
#N canvas 1600 1022 468 536 \$1 0;
#X obj 40 281 cnv 18 176 47 empty empty trg 116 24 0 30 #f9fbfc #d7d9da 0;
#X obj 40 40 cnv 18 176 47 empty empty trg 116 24 0 30 #f9fbfc #d7d9da 0;
#X obj 112 281 golana-vlabel tr2 #ccffcc #668866 1;
#X obj 112 40 golana-vlabel tr2 #ccffcc #668866 1;
#X obj 88 281 golana-vlabel tr1 #ffffcc #888866 0;
#X obj 88 40 golana-vlabel tr1 #ffffcc #888866 0;
#X obj 64 281 golana-vlabel seq2 #ffddcc #887766 1;
#X obj 64 40 golana-vlabel seq2 #ffddcc #887766 1;
#X obj 40 281 golana-vlabel seq1 #ffcccc #886666 0;
#X obj 40 40 golana-vlabel seq1 #ffcccc #886666 0;
#X obj 136 88 golana-hlabel tr1 #ffcccc #886666 #f9fbfc;
#X obj 136 112 golana-hlabel tr2 #ffddcc #887766 #f9fbfc;
#X obj 136 136 golana-hlabel eg1 #ffffcc #888866 #f9fbfc;
#X obj 136 160 golana-hlabel eg2 #ccffcc #668866 #f9fbfc;
#X obj 136 184 golana-hlabel eg3 #ccffff #668888 #f9fbfc;
#X obj 136 208 golana-hlabel lfo1 #ccccff #666688 #f9fbfc;
#X obj 136 232 golana-hlabel lfo2 #ffccff #886688 #f9fbfc;
#X obj 136 256 golana-hlabel lfo3 #ffcccc #886666 #f9fbfc;
#X obj 40 88 golana-link-trg 1 trg seq1 tr1 #ffcccc #886666 #bbbbbb;
#X obj 40 112 golana-link-trg 1 trg seq1 tr2 #ffddcc #887766 #bbbbbb;
#X obj 40 136 golana-link-trg 1 trg seq1 eg1 #ffffcc #888866 #bbbbbb;
#X obj 40 160 golana-link-trg 1 trg seq1 eg2 #ccffcc #668866 #bbbbbb;
#X obj 40 184 golana-link-trg 1 trg seq1 eg3 #ccffff #668888 #bbbbbb;
#X obj 40 208 golana-link-trg 1 trg seq1 lfo1 #ccccff #666688 #bbbbbb;
#X obj 40 232 golana-link-trg 1 trg seq1 lfo2 #ffccff #886688 #bbbbbb;
#X obj 40 256 golana-link-trg 1 trg seq1 lfo3 #ffcccc #886666 #bbbbbb;
#X obj 64 88 golana-link-trg 1 trg seq2 tr1 #ffcccc #886666 #bbbbbb;
#X obj 64 112 golana-link-trg 1 trg seq2 tr2 #ffddcc #887766 #bbbbbb;
#X obj 64 136 golana-link-trg 1 trg seq2 eg1 #ffffcc #888866 #bbbbbb;
#X obj 64 160 golana-link-trg 1 trg seq2 eg2 #ccffcc #668866 #bbbbbb;
#X obj 64 184 golana-link-trg 1 trg seq2 eg3 #ccffff #668888 #bbbbbb;
#X obj 64 208 golana-link-trg 1 trg seq2 lfo1 #ccccff #666688 #bbbbbb;
#X obj 64 232 golana-link-trg 1 trg seq2 lfo2 #ffccff #886688 #bbbbbb;
#X obj 64 256 golana-link-trg 1 trg seq2 lfo3 #ffcccc #886666 #bbbbbb;
#X obj 88 88 golana-link-trg 1 trg tr1 tr1 #ffcccc #886666 #bbbbbb;
#X obj 88 112 golana-link-trg 1 trg tr1 tr2 #ffddcc #887766 #bbbbbb;
#X obj 88 136 golana-link-trg 1 trg tr1 eg1 #ffffcc #888866 #bbbbbb;
#X obj 88 160 golana-link-trg 1 trg tr1 eg2 #ccffcc #668866 #bbbbbb;
#X obj 88 184 golana-link-trg 1 trg tr1 eg3 #ccffff #668888 #bbbbbb;
#X obj 88 208 golana-link-trg 1 trg tr1 lfo1 #ccccff #666688 #bbbbbb;
#X obj 88 232 golana-link-trg 1 trg tr1 lfo2 #ffccff #886688 #bbbbbb;
#X obj 88 256 golana-link-trg 1 trg tr1 lfo3 #ffcccc #886666 #bbbbbb;
#X obj 112 88 golana-link-trg 1 trg tr2 tr1 #ffcccc #886666 #bbbbbb;
#X obj 112 112 golana-link-trg 1 trg tr2 tr2 #ffddcc #887766 #bbbbbb;
#X obj 112 136 golana-link-trg 1 trg tr2 eg1 #ffffcc #888866 #bbbbbb;
#X obj 112 160 golana-link-trg 1 trg tr2 eg2 #ccffcc #668866 #bbbbbb;
#X obj 112 184 golana-link-trg 1 trg tr2 eg3 #ccffff #668888 #bbbbbb;
#X obj 112 208 golana-link-trg 1 trg tr2 lfo1 #ccccff #666688 #bbbbbb;
#X obj 112 232 golana-link-trg 1 trg tr2 lfo2 #ffccff #886688 #bbbbbb;
#X obj 112 256 golana-link-trg 1 trg tr2 lfo3 #ffcccc #886666 #bbbbbb;
#X coords 0 -1 1 1 176 288 2 40 40;
#X restore 200 20 pd \$1;
#N canvas 84 126 409 115 NETPD 0;
#X msg 20 26 version 0 0 3;
#X restore 29 23 pd NETPD 2 0;
#N canvas 995 603 472 298 adjust.dimen 0;
#X obj 54 14 r \$1.dimen;
#X obj 54 225 s pd-\$1;
#X obj 261 225 s \$0.main;
#X msg 54 157 goprect 40 40 \$1 \$2;
#X msg 261 159 goprect 200 20 \$1 \$2;
#X msg 261 188 coords 0 0 \$3 \$4 \$3 \$4 2 \$1 \$2;
#X msg 54 187 coords 0 0 \$3 \$4 \$3 \$4 2 \$1 \$2;
#X connect 0 0 3 0;
#X connect 0 0 4 0;
#X connect 3 0 6 0;
#X connect 4 0 5 0;
#X connect 5 0 2 0;
#X connect 6 0 1 0;
#X restore 28 59 pd adjust.dimen;
#X obj 29 94 namecanvas \$0.main;
#X coords 0 -1 1 1 176 288 2 200 20;
