#N canvas 540 170 1102 571 10;
#N canvas 35 77 428 55 NETPD 0;
#N canvas 389 193 433 46 abslist 0;
#X msg 11 10 golana-presets-item;
#X restore 134 10 pd abslist;
#X msg 8 14 version 0 0 6;
#X restore 709 29 pd NETPD 2 0;
#X obj 263 194 text define \$0.preset;
#X msg 262 25 clear;
#X symbolatom 445 60 16 0 0 0 - - - 0;
#N canvas 688 308 391 715 read_preset 0;
#X obj 8 168 until;
#X obj 8 191 f;
#X obj 8 214 t a a;
#X obj 51 200 + 1;
#X obj 8 293 list trim;
#X obj 8 349 t a a;
#X obj 8 470 list fromsymbol;
#X obj 8 443 list split 1, f 27;
#X obj 8 493 route 47;
#X obj 8 516 list tosymbol;
#X obj 8 539 list prepend \$1;
#X obj 8 609 list append, f 14;
#X obj 8 585 t b a, f 11;
#X obj 8 632 list prepend set;
#X obj 8 661 list trim;
#X msg 8 562 symbol \$1-\$2;
#X obj 6 56 text search \$0.preset 0 1;
#X msg 6 29 list __PRESET__ \$1;
#X obj 8 239 text get \$0.preset;
#X obj 113 273 sel 2;
#X obj 8 139 t b a, f 8;
#X obj 53 168 + 1;
#X obj 181 214 b;
#X obj 6 81 select -1;
#X obj 6 105 print preset not found;
#X obj 8 264 route bang;
#X obj 228 246 loadbang;
#X msg 228 269 args 1;
#X obj 228 292 pdcontrol;
#X msg 228 315 \$1;
#X obj 35 419 s;
#X msg 50 349 symbol \$1.NETPD;
#X obj 6 4 inlet;
#X obj 35 375 list prepend send;
#X obj 35 398 list trim;
#X obj 8 685 s, f 11;
#X obj 8 318 route __PRESET__;
#X connect 0 0 1 0;
#X connect 1 0 2 0;
#X connect 2 0 18 0;
#X connect 2 1 3 0;
#X connect 3 0 1 1;
#X connect 4 0 36 0;
#X connect 5 0 7 0;
#X connect 5 1 33 0;
#X connect 6 0 8 0;
#X connect 7 0 6 0;
#X connect 7 1 11 1;
#X connect 8 0 9 0;
#X connect 9 0 10 0;
#X connect 10 0 15 0;
#X connect 11 0 13 0;
#X connect 12 0 11 0;
#X connect 12 1 35 1;
#X connect 13 0 14 0;
#X connect 14 0 35 0;
#X connect 15 0 12 0;
#X connect 16 0 23 0;
#X connect 17 0 16 0;
#X connect 18 0 25 0;
#X connect 18 1 19 0;
#X connect 19 0 22 0;
#X connect 20 0 0 0;
#X connect 20 1 21 0;
#X connect 21 0 1 1;
#X connect 22 0 0 1;
#X connect 23 0 24 0;
#X connect 23 1 20 0;
#X connect 25 0 22 0;
#X connect 25 1 4 0;
#X connect 26 0 27 0;
#X connect 27 0 28 0;
#X connect 28 0 29 0;
#X connect 29 0 31 0;
#X connect 29 0 10 1;
#X connect 31 0 30 1;
#X connect 32 0 17 0;
#X connect 33 0 34 0;
#X connect 34 0 30 0;
#X connect 36 0 22 0;
#X connect 36 1 5 0;
#X restore 445 83 pd read_preset;
#X obj 295 75 loadbang;
#X obj 238 522 s \$0.sb;
#X msg 238 495 set totallength \$1;
#X obj 372 453 r \$0.sb;
#X obj 372 476 route pos;
#X obj 582 126 s \$0.sb;
#X msg 592 71 set frontcolor 227 198 255;
#X obj 10 28 golana-presets-item \$0 0;
#X obj 10 46 golana-presets-item \$0 1;
#X obj 10 64 golana-presets-item \$0 2;
#X obj 10 82 golana-presets-item \$0 3;
#X obj 10 100 golana-presets-item \$0 4;
#X obj 10 118 golana-presets-item \$0 5;
#X obj 372 499 s \$0.pos;
#X obj 238 446 r \$0.items;
#X obj 238 469 list length;
#X msg 582 99 set bgcolor 113 99 128;
#X obj 180 288 s \$0.dirty;
#X obj 180 265 tgl 18 0 empty empty empty 0 -9 0 10 #fcfcfc #000000 #000000 0 1;
#X obj 180 219 r \$0.dirty;
#X msg 180 242 set \$1;
#N canvas 359 100 309 409 get.preset.list 0;
#X obj 86 211 text search \$0.preset 0;
#X msg 86 143 symbol __PRESET__;
#X msg 119 180 range \$1 1e+15;
#X obj 119 260 t a a;
#X obj 146 288 text get \$0.preset;
#X obj 6 154 + 1;
#X obj 86 117 t b a;
#X msg 86 79 0;
#X obj 86 235 sel -1;
#X msg 146 312 append \$2;
#X obj 50 346 list store, f 36;
#X obj 50 44 t b b b, f 36;
#X obj 50 16 inlet;
#X obj 50 369 outlet;
#X connect 0 0 8 0;
#X connect 1 0 0 0;
#X connect 2 0 0 0;
#X connect 3 0 5 0;
#X connect 3 1 4 0;
#X connect 4 0 9 0;
#X connect 5 0 6 0;
#X connect 6 0 1 0;
#X connect 6 1 2 0;
#X connect 7 0 6 0;
#X connect 8 1 3 0;
#X connect 9 0 10 0;
#X connect 10 0 13 0;
#X connect 11 0 10 0;
#X connect 11 1 7 0;
#X connect 11 2 10 1;
#X connect 12 0 11 0;
#X restore 55 300 pd get.preset.list;
#X msg 276 50 write ~/.golana.presets;
#X obj 55 324 s \$0.items;
#X obj 445 30 r \$0.select;
#X obj 582 27 loadbang;
#X obj 21 186 r \$0.add;
#X obj 38 346 s \$0.select;
#N canvas 584 407 417 349 check.in.use 0;
#X obj 11 10 inlet;
#X obj 11 262 outlet;
#X obj 132 67 r \$0.items;
#X obj 11 213 symbol, f 23;
#N canvas 35 77 450 300 iterate 0;
#X obj 14 106 until;
#X obj 14 214 list store, f 17;
#X obj 14 131 f;
#X obj 52 132 + 1;
#X msg 63 106 0;
#X msg 14 188 get \$1 1;
#X obj 14 78 t b b a, f 17;
#X obj 14 46 inlet;
#X obj 14 248 outlet;
#X obj 14 159 t a a;
#X obj 100 255 outlet;
#X connect 0 0 2 0;
#X connect 1 0 8 0;
#X connect 1 1 0 1;
#X connect 2 0 3 0;
#X connect 2 0 9 0;
#X connect 3 0 2 1;
#X connect 4 0 2 1;
#X connect 5 0 1 0;
#X connect 6 0 0 0;
#X connect 6 1 4 0;
#X connect 6 2 1 1;
#X connect 7 0 6 0;
#X connect 9 0 5 0;
#X connect 9 1 10 0;
#X restore 56 82 pd iterate;
#X obj 56 57 list append;
#X obj 11 33 t b b a a, f 23;
#X obj 56 138 select __;
#X obj 101 112 t b a;
#X msg 31 104 0;
#X msg 56 162 1;
#X obj 11 141 f;
#X obj 11 186 sel 0 1;
#X obj 126 291 print golana-presets;
#X msg 126 268 there is already a preset named '\$1';
#X obj 126 240 symbol;
#X connect 0 0 6 0;
#X connect 2 0 5 1;
#X connect 3 0 1 0;
#X connect 4 0 7 0;
#X connect 5 0 4 0;
#X connect 6 0 11 0;
#X connect 6 1 5 0;
#X connect 6 2 8 0;
#X connect 6 3 3 1;
#X connect 6 3 15 1;
#X connect 7 0 10 0;
#X connect 8 0 9 0;
#X connect 8 1 7 1;
#X connect 9 0 11 1;
#X connect 10 0 11 1;
#X connect 11 0 12 0;
#X connect 12 0 3 0;
#X connect 12 1 15 0;
#X connect 14 0 13 0;
#X connect 15 0 14 0;
#X restore 21 212 pd check.in.use;
#X obj 10 137 cnv 10 80 16 empty empty empty 20 12 0 10 #e3c6ff #404040 0;
#X symbolatom 10 136 14 0 0 0 - \$0.norx \$0.add 0;
#X obj 10 417 r \$0.delete;
#X obj 91 28 netpd-gui-scrollbar \$0.sb 10 108 6;
#X obj 91 137 cnv 10 10 16 empty empty empty 20 12 0 10 #000000 #404040 0;
#X obj 13 10 hsl 86 18 0 127 0 0 \$0.blu \$0.bli presets 0 10 0 14 #e3c6ff #e3c6ff #2f004d 0 1;
#X obj 87 232 bng 18 250 50 0 empty empty empty 0 -9 0 10 #fcfcfc #000000 #000000;
#X obj 21 249 t b a b a;
#X obj 21 373 s \$0.save;
#X obj 307 19 r \$0.save;
#N canvas 814 195 439 656 add_preset 0;
#X obj 28 165 s NETPD;
#X msg 28 50 args 1;
#X obj 28 73 pdcontrol;
#X obj 28 186 r NETPD;
#X obj 28 306 route send sendtyped;
#X obj 28 357 routeOSC /dump /insert /mx /unstep /unpunch;
#X obj 28 209 route to receiver;
#X obj 77 232 route p;
#X msg 77 255 1;
#X obj 28 282 spigot;
#X msg 116 256 0;
#X msg 28 96 symbol /\$1/golana;
#X obj 28 119 t a a, f 33;
#X msg 28 142 sender p \, from \$1/dump/request;
#X msg 223 304 set \$1;
#X obj 28 334 routeOSC /jkdf/kjlsdf;
#X obj 31 620 text set \$0.preset;
#X obj 31 575 t a b, f 6;
#X msg 64 598 1e+15;
#X obj 28 5 inlet;
#X obj 28 28 t b a, f 46;
#X obj 31 551 list;
#X obj 31 524 spigot;
#X obj 31 391 t a a, f 6;
#X obj 64 441 routeOSC /*;
#X obj 64 467 routeOSC /*;
#X obj 64 414 routeOSC /routing;
#X obj 64 490 routeOSC /*;
#X msg 163 486 1;
#X msg 301 362 __PRESET__ \$1;
#X obj 301 417 t b a;
#X msg 301 443 /routing/*/*/* 0;
#X obj 301 471 t a;
#X connect 1 0 2 0;
#X connect 2 0 11 0;
#X connect 3 0 6 0;
#X connect 4 0 15 0;
#X connect 4 1 15 0;
#X connect 5 5 23 0;
#X connect 6 0 9 0;
#X connect 6 1 7 0;
#X connect 7 0 8 0;
#X connect 7 1 10 0;
#X connect 8 0 9 1;
#X connect 9 0 4 0;
#X connect 10 0 9 1;
#X connect 11 0 12 0;
#X connect 12 0 13 0;
#X connect 12 1 14 0;
#X connect 13 0 0 0;
#X connect 14 0 15 0;
#X connect 15 0 5 0;
#X connect 17 0 16 0;
#X connect 17 1 18 0;
#X connect 18 0 16 1;
#X connect 19 0 20 0;
#X connect 20 0 1 0;
#X connect 20 1 29 0;
#X connect 21 0 17 0;
#X connect 22 0 21 0;
#X connect 23 0 22 0;
#X connect 23 1 26 0;
#X connect 24 0 25 0;
#X connect 25 0 27 0;
#X connect 26 0 24 0;
#X connect 26 1 28 0;
#X connect 27 0 22 1;
#X connect 28 0 22 1;
#X connect 29 0 30 0;
#X connect 30 0 31 0;
#X connect 30 1 32 0;
#X connect 31 0 32 0;
#X connect 32 0 21 0;
#X restore 73 278 pd add_preset;
#N canvas 7 40 434 501 delete_preset 0;
#X obj 18 13 inlet;
#X msg 18 48 list __PRESET__ \$1;
#X obj 18 73 text search \$0.preset 0 1;
#X obj 18 101 sel -1;
#X symbolatom 80 20 10 0 0 0 - - - 0;
#X obj 78 192 text search \$0.preset 0;
#X msg 78 167 range \$1 1e+15 \, symbol __PRESET__;
#X obj 51 124 t a a;
#X obj 51 279 pack f f;
#X obj 78 146 + 1;
#X obj 51 429 text delete \$0.preset;
#X obj 51 305 t a a, f 16;
#X msg 51 330 \$2 \$1;
#X obj 51 353 -;
#X obj 51 379 until;
#X msg 144 337 \$1;
#X obj 51 402 f, f 16;
#X msg 164 16 symbol fünf;
#X obj 78 215 sel -1;
#X obj 78 241 text size \$0.preset;
#X connect 0 0 1 0;
#X connect 1 0 2 0;
#X connect 2 0 3 0;
#X connect 3 1 7 0;
#X connect 4 0 1 0;
#X connect 5 0 18 0;
#X connect 6 0 5 0;
#X connect 7 0 8 0;
#X connect 7 1 9 0;
#X connect 8 0 11 0;
#X connect 9 0 6 0;
#X connect 11 0 12 0;
#X connect 11 1 15 0;
#X connect 12 0 13 0;
#X connect 13 0 14 0;
#X connect 14 0 16 0;
#X connect 15 0 16 1;
#X connect 16 0 10 0;
#X connect 17 0 1 0;
#X connect 18 0 19 0;
#X connect 18 1 8 1;
#X connect 19 0 8 1;
#X restore 121 465 pd delete_preset;
#N canvas 359 100 309 409 get.preset.list 0;
#X obj 86 211 text search \$0.preset 0;
#X msg 86 143 symbol __PRESET__;
#X msg 119 180 range \$1 1e+15;
#X obj 119 260 t a a;
#X obj 146 288 text get \$0.preset;
#X obj 6 154 + 1;
#X obj 86 117 t b a;
#X msg 86 79 0;
#X obj 86 235 sel -1;
#X msg 146 312 append \$2;
#X obj 50 346 list store, f 36;
#X obj 50 44 t b b b, f 36;
#X obj 50 16 inlet;
#X obj 50 369 outlet;
#X connect 0 0 8 0;
#X connect 1 0 0 0;
#X connect 2 0 0 0;
#X connect 3 0 5 0;
#X connect 3 1 4 0;
#X connect 4 0 9 0;
#X connect 5 0 6 0;
#X connect 6 0 1 0;
#X connect 6 1 2 0;
#X connect 7 0 6 0;
#X connect 8 1 3 0;
#X connect 9 0 10 0;
#X connect 10 0 13 0;
#X connect 11 0 10 0;
#X connect 11 1 7 0;
#X connect 11 2 10 1;
#X connect 12 0 11 0;
#X restore 65 488 pd get.preset.list;
#X obj 65 512 s \$0.items;
#X obj 10 540 s \$0.save;
#X obj 10 440 t b b a, f 19;
#X msg 322 154 read ~/.golana.presets;
#X obj 407 209 file isfile;
#X msg 407 183 symbol ~/.golana.presets;
#X obj 295 98 t b b b, f 12;
#N canvas 1475 169 342 429 read_preset 0;
#X obj 8 198 until;
#X obj 8 221 f;
#X obj 8 244 t a a;
#X obj 51 230 + 1;
#X obj 6 75 text search \$0.preset 0 1;
#X msg 6 29 list __PRESET__ \$1;
#X obj 8 269 text get \$0.preset;
#X obj 113 303 sel 2;
#X obj 8 169 t b a, f 8;
#X obj 53 198 + 1;
#X obj 160 242 b;
#X obj 6 100 select -1;
#X obj 6 147 print preset not found;
#X obj 8 294 route bang;
#X obj 6 4 inlet;
#X obj 100 377 outlet;
#X obj 7 346 route __PRESET__;
#X obj 7 322 list trim;
#X obj 6 52 t a a, f 45;
#X obj 210 172 list trim;
#X obj 210 333 t a;
#X obj 210 148 list append;
#X obj 57 124 t a b;
#X connect 0 0 1 0;
#X connect 1 0 2 0;
#X connect 2 0 6 0;
#X connect 2 1 3 0;
#X connect 3 0 1 1;
#X connect 4 0 11 0;
#X connect 5 0 18 0;
#X connect 6 0 13 0;
#X connect 6 1 7 0;
#X connect 7 0 10 0;
#X connect 8 0 0 0;
#X connect 8 1 9 0;
#X connect 9 0 1 1;
#X connect 10 0 0 1;
#X connect 11 0 12 0;
#X connect 11 1 22 0;
#X connect 13 0 10 0;
#X connect 13 1 17 0;
#X connect 14 0 5 0;
#X connect 16 0 10 0;
#X connect 16 1 15 0;
#X connect 17 0 16 0;
#X connect 18 0 4 0;
#X connect 18 1 21 1;
#X connect 19 0 20 0;
#X connect 20 0 15 0;
#X connect 21 0 19 0;
#X connect 22 0 8 0;
#X connect 22 1 21 0;
#X restore 883 105 pd read_preset;
#X msg 908 54 symbol reset;
#X obj 883 132 t b a, f 12;
#X obj 952 156 list prepend add2;
#X obj 952 179 list trim;
#X msg 883 157 addcomma;
#N canvas 1065 835 440 213 reset 0;
#X obj 10 40 inlet;
#X msg 10 63 __PRESET__ reset \, /routing/*/*/* 0 \, /vca4/ceiling 1 \, /vca4/floor 0 \, /vca3/ceiling 1 \, /vca3/floor 0 \, /eg3/type 0 \, /eg3/release 0.16 \, /eg3/sustain 0.45 \, /eg3/decay 0.1 \, /eg3/attack 0.15 \, /out2/pan 0.5 \, /out2/level 0.8 \, /out1/pan 0.5 \, /out1/level 0.8 \, /noi2/level 0.8 \, /noi2/type 0 \, /noi1/level 0.8 \, /noi1/type 0 \, /cm4/slew 0 \, /cm4/ceiling 1 \, /cm4/floor 0 \, /cm3/slew 0 \, /cm3/ceiling 1 \, /cm3/floor 0 \, /vcf1/q 0.2 \, /vcf1/ceiling 1 \, /vcf1/floor 0 \, /eg2/type 0 \, /eg2/release 0.16 \, /eg2/sustain 0.45 \, /eg2/decay 0.1 \, /eg2/attack 0.15 \, /eg1/type 0 \, /eg1/release 0.16 \, /eg1/sustain 0.45 \, /eg1/decay 0.1 \, /eg1/attack 0.15 \, /tr2/ceiling 1 \, /tr2/floor 0 \, /tr1/ceiling 1 \, /tr1/floor 0 \, /cm2/slew 0 \, /cm2/ceiling 1 \, /cm2/floor 0 \, /cm1/slew 0 \, /cm1/ceiling 1 \, /cm1/floor 0 \, /seq1/unpunch 1 \, /seq1/unstep 1 \, /seq1/hold 0.1 \, /seq1/unpunch 1 \, /seq2/unpunch 1 \, /seq2/unstep 1 \, /seq2/hold 0.1 \, /seq2/unpunch 1 \, /lfo3/trig 0 \, /lfo3/phase 0 \, /lfo3/ceiling 1 \, /lfo3/floor 0 \, /lfo3/rate 0.2 \, /lfo3/waveform 0 \, /lfo2/trig 0 \, /lfo2/phase 0 \, /lfo2/ceiling 1 \, /lfo2/floor 0 \, /lfo2/rate 0.2 \, /lfo2/waveform 0 \, /lfo1/trig 0 \, /lfo1/phase 0 \, /lfo1/ceiling 1 \, /lfo1/floor 0 \, /lfo1/rate 0.2 \, /lfo1/waveform 0 \, /vca2/ceiling 1 \, /vca2/floor 0 \, /vcf2/q 0.2 \, /vcf2/ceiling 1 \, /vcf2/floor 0 \, /vca1/ceiling 1 \, /vca1/floor 0 \, /vco4/pitch 0 \, /vco4/waveform 0 \, /vco3/pitch 0 \, /vco3/waveform 0 \, /vco2/pitch 0 \, /vco2/waveform 0 \, /vco1/pitch 0 \, /vco1/waveform 0 \,;
#X obj 10 86 outlet;
#X connect 0 0 1 0;
#X connect 1 0 2 0;
#X restore 787 280 pd reset;
#X symbolatom 841 58 10 0 0 0 - - - 0;
#X obj 883 203 t a;
#N canvas 1065 835 440 213 stebass 0;
#X obj 10 40 inlet;
#X obj 10 86 outlet;
#X msg 10 63 __PRESET__ stebass \, /routing/*/*/* 0 \, /routing/sig/vca2/out2 1 \, /routing/sig/vca1/out1 1 \, /routing/sig/vco2/vca2 1 \, /routing/sig/vco1/vca1 1 \, /routing/CV/eg2/vca2 1 \, /routing/CV/eg1/vca1 1 \, /routing/CV/seq1/vco2 1 \, /routing/CV/seq1/vco1 1 \, /routing/trg/seq1/eg2 1 \, /routing/trg/seq1/eg1 1 \, /vca4/ceiling 1 \, /vca4/floor 0 \, /vca3/ceiling 1 \, /vca3/floor 0 \, /eg3/type 0 \, /eg3/release 0.16 \, /eg3/sustain 0.45 \, /eg3/decay 0.1 \, /eg3/attack 0.15 \, /out2/pan 1 \, /out2/level 1 \, /out1/pan 0 \, /out1/level 1 \, /noi2/level 0.8 \, /noi2/type 0 \, /noi1/level 0.8 \, /noi1/type 0 \, /cm4/slew 0 \, /cm4/ceiling 1 \, /cm4/floor 0 \, /cm3/slew 0 \, /cm3/ceiling 1 \, /cm3/floor 0 \, /vcf1/q 0.2 \, /vcf1/ceiling 1 \, /vcf1/floor 0 \, /eg2/type 2 \, /eg2/release 0.355932 \, /eg2/sustain 0.152542 \, /eg2/decay 0.305085 \, /eg2/attack 0.135593 \, /eg1/type 2 \, /eg1/release 0.322034 \, /eg1/sustain 0.152542 \, /eg1/decay 0.288136 \, /eg1/attack 0.186441 \, /tr2/ceiling 1 \, /tr2/floor 0 \, /tr1/ceiling 1 \, /tr1/floor 0 \, /cm2/slew 0 \, /cm2/ceiling 1 \, /cm2/floor 0 \, /cm1/slew 0 \, /cm1/ceiling 1 \, /cm1/floor 0 \, /seq1/unpunch 1 \, /seq1/unstep 1 \, /seq1/hold 0.26 \, /seq1/unpunch 1 \, /seq2/unpunch 1 \, /seq2/unstep 1 \, /seq2/hold 0.1 \, /seq2/unpunch 1 \, /lfo3/trig 0 \, /lfo3/phase 0 \, /lfo3/ceiling 1 \, /lfo3/floor 0 \, /lfo3/rate 0.2 \, /lfo3/waveform 0 \, /lfo2/trig 0 \, /lfo2/phase 0 \, /lfo2/ceiling 1 \, /lfo2/floor 0 \, /lfo2/rate 0.2 \, /lfo2/waveform 0 \, /lfo1/trig 0 \, /lfo1/phase 0 \, /lfo1/ceiling 1 \, /lfo1/floor 0 \, /lfo1/rate 0.2 \, /lfo1/waveform 0 \, /vca2/ceiling 1 \, /vca2/floor 0 \, /vcf2/q 0.2 \, /vcf2/ceiling 1 \, /vcf2/floor 0 \, /vca1/ceiling 1 \, /vca1/floor 0 \, /vco4/pitch 0 \, /vco4/waveform 0 \, /vco3/pitch 0 \, /vco3/waveform 0 \, /vco2/pitch 0.02 \, /vco2/waveform 2 \, /vco1/pitch -0.06 \, /vco1/waveform 3 \,;
#X connect 0 0 2 0;
#X connect 2 0 1 0;
#X restore 752 303 pd stebass;
#N canvas 1065 835 440 213 phazzy 0;
#X obj 10 40 inlet;
#X obj 10 86 outlet;
#X msg 10 63 __PRESET__ phazzy \, /routing/*/*/* 0 \, /routing/sig/vca2/out2 1 \, /routing/sig/vca1/out1 1 \, /routing/sig/vco4/vca2 1 \, /routing/sig/vco3/vca1 1 \, /routing/sig/vco2/vca2 1 \, /routing/sig/vco1/vca1 1 \, /routing/CV/eg2/vca2 1 \, /routing/CV/eg1/vca1 1 \, /routing/CV/seq1/vco4 1 \, /routing/CV/seq1/vco3 1 \, /routing/CV/seq1/vco2 1 \, /routing/CV/seq1/vco1 1 \, /routing/trg/seq1/eg2 1 \, /routing/trg/seq1/eg1 1 \, /vca4/ceiling 1 \, /vca4/floor 0 \, /vca3/ceiling 1 \, /vca3/floor 0 \, /eg3/type 0 \, /eg3/release 0.16 \, /eg3/sustain 0.45 \, /eg3/decay 0.1 \, /eg3/attack 0.15 \, /out2/pan 1 \, /out2/level 1 \, /out1/pan 0 \, /out1/level 1 \, /noi2/level 0.8 \, /noi2/type 0 \, /noi1/level 0.8 \, /noi1/type 0 \, /cm4/slew 0 \, /cm4/ceiling 1 \, /cm4/floor 0 \, /cm3/slew 0 \, /cm3/ceiling 1 \, /cm3/floor 0 \, /vcf1/q 0.2 \, /vcf1/ceiling 1 \, /vcf1/floor 0 \, /eg2/type 2 \, /eg2/release 0 \, /eg2/sustain 0.525424 \, /eg2/decay 0 \, /eg2/attack 0 \, /eg1/type 2 \, /eg1/release 0 \, /eg1/sustain 0.355932 \, /eg1/decay 0 \, /eg1/attack 0 \, /tr2/ceiling 1 \, /tr2/floor 0 \, /tr1/ceiling 1 \, /tr1/floor 0 \, /cm2/slew 0 \, /cm2/ceiling 1 \, /cm2/floor 0 \, /cm1/slew 0 \, /cm1/ceiling 1 \, /cm1/floor 0 \, /seq1/unpunch 1 \, /seq1/unstep 1 \, /seq1/hold 0.26 \, /seq1/unpunch 1 \, /seq2/unpunch 1 \, /seq2/unstep 1 \, /seq2/hold 0.1 \, /seq2/unpunch 1 \, /lfo3/trig 0 \, /lfo3/phase 0 \, /lfo3/ceiling 1 \, /lfo3/floor 0 \, /lfo3/rate 0.2 \, /lfo3/waveform 0 \, /lfo2/trig 0 \, /lfo2/phase 0 \, /lfo2/ceiling 1 \, /lfo2/floor 0 \, /lfo2/rate 0.2 \, /lfo2/waveform 0 \, /lfo1/trig 0 \, /lfo1/phase 0 \, /lfo1/ceiling 1 \, /lfo1/floor 0 \, /lfo1/rate 0.2 \, /lfo1/waveform 0 \, /vca2/ceiling 1 \, /vca2/floor 0 \, /vcf2/q 0.2 \, /vcf2/ceiling 1 \, /vcf2/floor 0 \, /vca1/ceiling 1 \, /vca1/floor 0 \, /vco4/pitch -0.01 \, /vco4/waveform 2 \, /vco3/pitch 0.03 \, /vco3/waveform 2 \, /vco2/pitch 0.02 \, /vco2/waveform 2 \, /vco1/pitch -0.06 \, /vco1/waveform 2 \,;
#X connect 0 0 2 0;
#X connect 2 0 1 0;
#X restore 717 325 pd phazzy;
#N canvas 1065 835 440 213 jmjarr 0;
#X obj 10 40 inlet;
#X obj 10 86 outlet;
#X msg 10 63 __PRESET__ jmjarr \, /routing/*/*/* 0 \, /routing/sig/vca1/out1 1 \, /routing/sig/vcf1/vca1 1 \, /routing/sig/vco2/vcf1 1 \, /routing/sig/vco1/vcf1 1 \, /routing/CV/eg2/vcf1 1 \, /routing/CV/eg1/vca1 1 \, /routing/CV/seq1/vco2 1 \, /routing/CV/seq1/vco1 1 \, /routing/trg/seq1/eg2 1 \, /routing/trg/seq1/eg1 1 \, /vca4/ceiling 1 \, /vca4/floor 0 \, /vca3/ceiling 1 \, /vca3/floor 0 \, /eg3/type 0 \, /eg3/release 0.16 \, /eg3/sustain 0.45 \, /eg3/decay 0.1 \, /eg3/attack 0.15 \, /out2/pan 1 \, /out2/level 1 \, /out1/pan 0.527027 \, /out1/level 1 \, /noi2/level 0.8 \, /noi2/type 0 \, /noi1/level 0.8 \, /noi1/type 0 \, /cm4/slew 0 \, /cm4/ceiling 1 \, /cm4/floor 0 \, /cm3/slew 0 \, /cm3/ceiling 1 \, /cm3/floor 0 \, /vcf1/q 0.47027 \, /vcf1/ceiling 0.864865 \, /vcf1/floor 0.310811 \, /eg2/type 0 \, /eg2/release 0.355932 \, /eg2/sustain 0.610169 \, /eg2/decay 0.338983 \, /eg2/attack 0.0508475 \, /eg1/type 2 \, /eg1/release 0.305085 \, /eg1/sustain 0.271186 \, /eg1/decay 0.38983 \, /eg1/attack 0 \, /tr2/ceiling 1 \, /tr2/floor 0 \, /tr1/ceiling 1 \, /tr1/floor 0 \, /cm2/slew 0 \, /cm2/ceiling 1 \, /cm2/floor 0 \, /cm1/slew 0 \, /cm1/ceiling 1 \, /cm1/floor 0 \, /seq1/unpunch 1 \, /seq1/unstep 1 \, /seq1/hold 0.26 \, /seq1/unpunch 1 \, /seq2/unpunch 1 \, /seq2/unstep 1 \, /seq2/hold 0.1 \, /seq2/unpunch 1 \, /lfo3/trig 0 \, /lfo3/phase 0 \, /lfo3/ceiling 1 \, /lfo3/floor 0 \, /lfo3/rate 0.2 \, /lfo3/waveform 0 \, /lfo2/trig 0 \, /lfo2/phase 0 \, /lfo2/ceiling 1 \, /lfo2/floor 0 \, /lfo2/rate 0.2 \, /lfo2/waveform 0 \, /lfo1/trig 0 \, /lfo1/phase 0 \, /lfo1/ceiling 1 \, /lfo1/floor 0 \, /lfo1/rate 0.2 \, /lfo1/waveform 0 \, /vca2/ceiling 1 \, /vca2/floor 0 \, /vcf2/q 0.2 \, /vcf2/ceiling 1 \, /vcf2/floor 0 \, /vca1/ceiling 1 \, /vca1/floor 0 \, /vco4/pitch -0.01 \, /vco4/waveform 2 \, /vco3/pitch 0.03 \, /vco3/waveform 2 \, /vco2/pitch 0.02 \, /vco2/waveform 3 \, /vco1/pitch -0.06 \, /vco1/waveform 3 \,;
#X connect 0 0 2 0;
#X connect 2 0 1 0;
#X restore 682 347 pd jmjarr;
#N canvas 1065 835 440 213 ufohiz 0;
#X obj 10 40 inlet;
#X obj 10 86 outlet;
#X msg 10 63 __PRESET__ ufohiz \, /routing/*/*/* 0 \, /routing/sig/vca1/out2 1 \, /routing/sig/vcf2/vca1 1 \, /routing/sig/vcf1/out1 1 \, /routing/sig/noi1/vcf2 1 \, /routing/sig/vco2/vcf1 1 \, /routing/sig/vco1/vcf1 1 \, /routing/CV/lfo1/vcf1 1 \, /routing/CV/eg2/vcf2 1 \, /routing/CV/eg1/vca1 1 \, /routing/CV/cm1/vco1 1 \, /routing/CV/seq1/vco2 1 \, /routing/CV/seq1/cm1 1 \, /routing/trg/seq1/eg2 1 \, /routing/trg/seq1/eg1 1 \, /vca4/ceiling 1 \, /vca4/floor 0 \, /vca3/ceiling 1 \, /vca3/floor 0 \, /eg3/type 0 \, /eg3/release 0.16 \, /eg3/sustain 0.45 \, /eg3/decay 0.1 \, /eg3/attack 0.15 \, /out2/pan 0.72973 \, /out2/level 0.664865 \, /out1/pan 0.391892 \, /out1/level 0.881081 \, /noi2/level 0.8 \, /noi2/type 0 \, /noi1/level 1 \, /noi1/type 0 \, /cm4/slew 0 \, /cm4/ceiling 1 \, /cm4/floor 0 \, /cm3/slew 0 \, /cm3/ceiling 1 \, /cm3/floor 0 \, /vcf1/q 0.227027 \, /vcf1/ceiling 1 \, /vcf1/floor 0 \, /eg2/type 0 \, /eg2/release 0.651525 \, /eg2/sustain 0.636441 \, /eg2/decay 0.455932 \, /eg2/attack 0 \, /eg1/type 0 \, /eg1/release 0.448136 \, /eg1/sustain 0.45 \, /eg1/decay 0.423729 \, /eg1/attack 0.661017 \, /tr2/ceiling 1 \, /tr2/floor 0 \, /tr1/ceiling 1 \, /tr1/floor 0 \, /cm2/slew 0 \, /cm2/ceiling 1 \, /cm2/floor 0 \, /cm1/slew 0.662162 \, /cm1/ceiling 1 \, /cm1/floor 0 \, /seq1/unpunch 1 \, /seq1/unstep 1 \, /seq1/hold 0.48 \, /seq1/unpunch 1 \, /seq2/unpunch 1 \, /seq2/unstep 1 \, /seq2/hold 0.1 \, /seq2/unpunch 1 \, /lfo3/trig 0 \, /lfo3/phase 0 \, /lfo3/ceiling 1 \, /lfo3/floor 0 \, /lfo3/rate 0.2 \, /lfo3/waveform 0 \, /lfo2/trig 0 \, /lfo2/phase 0 \, /lfo2/ceiling 1 \, /lfo2/floor 0 \, /lfo2/rate 0.2 \, /lfo2/waveform 0 \, /lfo1/trig 1 \, /lfo1/phase 0 \, /lfo1/ceiling 0.814516 \, /lfo1/floor 0.459677 \, /lfo1/rate 0.441935 \, /lfo1/waveform 0 \, /vca2/ceiling 1 \, /vca2/floor 0 \, /vcf2/q 0.375676 \, /vcf2/ceiling 1 \, /vcf2/floor 0.445946 \, /vca1/ceiling 1 \, /vca1/floor 0 \, /vco4/pitch 0 \, /vco4/waveform 0 \, /vco3/pitch 0 \, /vco3/waveform 0 \, /vco2/pitch 0 \, /vco2/waveform 1 \, /vco1/pitch 7 \, /vco1/waveform 1 \,;
#X connect 0 0 2 0;
#X connect 2 0 1 0;
#X restore 648 372 pd ufohiz;
#N canvas 1065 835 440 213 ambulse 0;
#X obj 10 40 inlet;
#X obj 10 86 outlet;
#X msg 10 63 __PRESET__ ambulse \, /routing/*/*/* 0 \, /routing/sig/vca2/out2 1 \, /routing/sig/vca1/out1 1 \, /routing/sig/vco4/vca2 1 \, /routing/sig/vco3/vca1 1 \, /routing/sig/vco2/vca2 1 \, /routing/sig/vco1/vca1 1 \, /routing/CV/lfo2/vca2 1 \, /routing/CV/lfo2/vca1 1 \, /routing/CV/lfo1/vca2 1 \, /routing/CV/lfo1/vca1 1 \, /routing/CV/cm4/vco4 1 \, /routing/CV/cm3/vco3 1 \, /routing/CV/cm2/vco2 1 \, /routing/CV/cm1/vco1 1 \, /routing/CV/seq1/cm4 1 \, /routing/CV/seq1/cm3 1 \, /routing/CV/seq1/cm2 1 \, /routing/CV/seq1/cm1 1 \, /vca4/ceiling 1 \, /vca4/floor 0 \, /vca3/ceiling 1 \, /vca3/floor 0 \, /eg3/type 0 \, /eg3/release 0.16 \, /eg3/sustain 0.45 \, /eg3/decay 0.1 \, /eg3/attack 0.15 \, /out2/pan 0.648649 \, /out2/level 0.8 \, /out1/pan 0.27027 \, /out1/level 0.8 \, /noi2/level 0.8 \, /noi2/type 0 \, /noi1/level 0.8 \, /noi1/type 0 \, /cm4/slew 0.878378 \, /cm4/ceiling 0.0810811 \, /cm4/floor 0.608108 \, /cm3/slew 0.810811 \, /cm3/ceiling 0.351351 \, /cm3/floor 1 \, /vcf1/q 0.2 \, /vcf1/ceiling 1 \, /vcf1/floor 0 \, /eg2/type 0 \, /eg2/release 0.16 \, /eg2/sustain 0.45 \, /eg2/decay 0.1 \, /eg2/attack 0.15 \, /eg1/type 0 \, /eg1/release 0.16 \, /eg1/sustain 0.45 \, /eg1/decay 0.1 \, /eg1/attack 0.15 \, /tr2/ceiling 1 \, /tr2/floor 0 \, /tr1/ceiling 1 \, /tr1/floor 0 \, /cm2/slew 0.918919 \, /cm2/ceiling 0.648649 \, /cm2/floor 0 \, /cm1/slew 0.743243 \, /cm1/ceiling 1 \, /cm1/floor 0.337838 \, /seq1/unpunch 1 \, /seq1/unstep 1 \, /seq1/hold 0.1 \, /seq1/unpunch 1 \, /seq2/unpunch 1 \, /seq2/unstep 1 \, /seq2/hold 0.1 \, /seq2/unpunch 1 \, /lfo3/trig 0 \, /lfo3/phase 0 \, /lfo3/ceiling 1 \, /lfo3/floor 0 \, /lfo3/rate 0.2 \, /lfo3/waveform 0 \, /lfo2/trig 0 \, /lfo2/phase 0 \, /lfo2/ceiling 0.483871 \, /lfo2/floor 0 \, /lfo2/rate 0.224194 \, /lfo2/waveform 0 \, /lfo1/trig 0 \, /lfo1/phase 0.0849057 \, /lfo1/ceiling 0.104839 \, /lfo1/floor 0.016129 \, /lfo1/rate 0.441935 \, /lfo1/waveform 2 \, /vca2/ceiling 1 \, /vca2/floor 0 \, /vcf2/q 0.2 \, /vcf2/ceiling 1 \, /vcf2/floor 0 \, /vca1/ceiling 1 \, /vca1/floor 0 \, /vco4/pitch 0 \, /vco4/waveform 0 \, /vco3/pitch 0 \, /vco3/waveform 0 \, /vco2/pitch 0 \, /vco2/waveform 0 \, /vco1/pitch 0 \, /vco1/waveform 3 \,;
#X connect 0 0 2 0;
#X connect 2 0 1 0;
#X restore 613 393 pd ambulse;
#N canvas 1065 835 440 213 uiuiui 0;
#X obj 10 40 inlet;
#X obj 10 86 outlet;
#X msg 10 63 __PRESET__ uiuiui \, /routing/*/*/* 0 \, /routing/sig/vca1/out1 1 \, /routing/sig/vcf1/vca1 1 \, /routing/sig/vco2/vcf1 1 \, /routing/sig/vco1/vcf1 1 \, /routing/CV/lfo3/vca1 1 \, /routing/CV/lfo2/vcf1 1 \, /routing/CV/lfo1/vcf1 1 \, /routing/CV/cm1/vco2 1 \, /routing/CV/seq1/vco1 1 \, /routing/CV/seq1/cm1 1 \, /vca4/ceiling 1 \, /vca4/floor 0 \, /vca3/ceiling 1 \, /vca3/floor 0 \, /eg3/type 0 \, /eg3/release 0.16 \, /eg3/sustain 0.45 \, /eg3/decay 0.1 \, /eg3/attack 0.15 \, /out2/pan 0.5 \, /out2/level 0.8 \, /out1/pan 0.594595 \, /out1/level 0.635135 \, /noi2/level 0.8 \, /noi2/type 0 \, /noi1/level 0.8 \, /noi1/type 0 \, /cm4/slew 0 \, /cm4/ceiling 1 \, /cm4/floor 0 \, /cm3/slew 0 \, /cm3/ceiling 1 \, /cm3/floor 0 \, /vcf1/q 0.564865 \, /vcf1/ceiling 1 \, /vcf1/floor 0 \, /eg2/type 0 \, /eg2/release 0.16 \, /eg2/sustain 0.45 \, /eg2/decay 0.1 \, /eg2/attack 0.15 \, /eg1/type 0 \, /eg1/release 0.16 \, /eg1/sustain 0.45 \, /eg1/decay 0.1 \, /eg1/attack 0.15 \, /tr2/ceiling 1 \, /tr2/floor 0 \, /tr1/ceiling 1 \, /tr1/floor 0 \, /cm2/slew 0 \, /cm2/ceiling 1 \, /cm2/floor 0 \, /cm1/slew 0.662162 \, /cm1/ceiling 1 \, /cm1/floor 0 \, /seq1/unpunch 0 \, /seq1/unstep 1 \, /seq1/hold 0.1 \, /seq1/unpunch 0 \, /seq2/unpunch 1 \, /seq2/unstep 1 \, /seq2/hold 0.1 \, /seq2/unpunch 1 \, /lfo3/trig 0 \, /lfo3/phase 0 \, /lfo3/ceiling 1 \, /lfo3/floor 0 \, /lfo3/rate 0.2 \, /lfo3/waveform 0 \, /lfo2/trig 0 \, /lfo2/phase 0 \, /lfo2/ceiling 1 \, /lfo2/floor 0 \, /lfo2/rate 0.2 \, /lfo2/waveform 0 \, /lfo1/trig 0 \, /lfo1/phase 0 \, /lfo1/ceiling 0.467742 \, /lfo1/floor 0.0403226 \, /lfo1/rate 0.45 \, /lfo1/waveform 1 \, /vca2/ceiling 1 \, /vca2/floor 0 \, /vcf2/q 0.2 \, /vcf2/ceiling 1 \, /vcf2/floor 0 \, /vca1/ceiling 1 \, /vca1/floor 0 \, /vco4/pitch 0 \, /vco4/waveform 0 \, /vco3/pitch 0 \, /vco3/waveform 0 \, /vco2/pitch -5.21 \, /vco2/waveform 2 \, /vco1/pitch -0.01 \, /vco1/waveform 2 \,;
#X connect 0 0 2 0;
#X connect 2 0 1 0;
#X restore 578 417 pd uiuiui;
#N canvas 1065 835 440 213 fifshh 0;
#X obj 10 40 inlet;
#X obj 10 86 outlet;
#X msg 10 63 __PRESET__ fifshh \, /routing/*/*/* 0 \, /routing/sig/vca1/out2 1 \, /routing/sig/vca1/out1 1 \, /routing/sig/vcf2/out2 1 \, /routing/sig/vcf1/out1 1 \, /routing/sig/noi1/vca1 1 \, /routing/sig/vco4/vcf1 1 \, /routing/sig/vco3/vcf2 1 \, /routing/sig/vco2/vcf1 1 \, /routing/sig/vco1/vcf2 1 \, /routing/CV/lfo1/vcf2 1 \, /routing/CV/lfo1/vcf1 1 \, /routing/CV/lfo1/cm2 1 \, /routing/CV/cm2/vca1 1 \, /routing/CV/cm1/vco4 1 \, /routing/CV/cm1/vco3 1 \, /routing/CV/seq1/vco2 1 \, /routing/CV/seq1/vco1 1 \, /routing/CV/seq1/cm1 1 \, /routing/trg/seq1/lfo1 1 \, /vca4/ceiling 1 \, /vca4/floor 0 \, /vca3/ceiling 1 \, /vca3/floor 0 \, /eg3/type 0 \, /eg3/release 0.16 \, /eg3/sustain 0.45 \, /eg3/decay 0.1 \, /eg3/attack 0.15 \, /out2/pan 0.783784 \, /out2/level 0.637838 \, /out1/pan 0.310811 \, /out1/level 0.718919 \, /noi2/level 0.8 \, /noi2/type 0 \, /noi1/level 0.804348 \, /noi1/type 1 \, /cm4/slew 0 \, /cm4/ceiling 1 \, /cm4/floor 0 \, /cm3/slew 0 \, /cm3/ceiling 1 \, /cm3/floor 0 \, /vcf1/q 0.348649 \, /vcf1/ceiling 1 \, /vcf1/floor 0 \, /eg2/type 0 \, /eg2/release 0.16 \, /eg2/sustain 0.45 \, /eg2/decay 0.1 \, /eg2/attack 0.15 \, /eg1/type 0 \, /eg1/release 0.16 \, /eg1/sustain 0.45 \, /eg1/decay 0.1 \, /eg1/attack 0.15 \, /tr2/ceiling 1 \, /tr2/floor 0 \, /tr1/ceiling 1 \, /tr1/floor 0 \, /cm2/slew 0 \, /cm2/ceiling 0 \, /cm2/floor 0.351351 \, /cm1/slew 0.594595 \, /cm1/ceiling 1 \, /cm1/floor 0 \, /seq1/unpunch 0 \, /seq1/unstep 1 \, /seq1/hold 0.1 \, /seq1/unpunch 0 \, /seq2/unpunch 0 \, /seq2/unstep 0 \, /seq2/hold 0.1 \, /seq2/unpunch 0 \, /lfo3/trig 0 \, /lfo3/phase 0 \, /lfo3/ceiling 1 \, /lfo3/floor 0 \, /lfo3/rate 0.2 \, /lfo3/waveform 0 \, /lfo2/trig 0 \, /lfo2/phase 0 \, /lfo2/ceiling 1 \, /lfo2/floor 0 \, /lfo2/rate 0.2 \, /lfo2/waveform 0 \, /lfo1/trig 1 \, /lfo1/phase 0.330189 \, /lfo1/ceiling 0.798387 \, /lfo1/floor 0.435484 \, /lfo1/rate 0.232258 \, /lfo1/waveform 0 \, /vca2/ceiling 1 \, /vca2/floor 0 \, /vcf2/q 0.416216 \, /vcf2/ceiling 1 \, /vcf2/floor 0 \, /vca1/ceiling 1 \, /vca1/floor 0 \, /vco4/pitch 20.93 \, /vco4/waveform 3 \, /vco3/pitch 13.94 \, /vco3/waveform 3 \, /vco2/pitch 6.97 \, /vco2/waveform 3 \, /vco1/pitch 0 \, /vco1/waveform 3 \,;
#X connect 0 0 2 0;
#X connect 2 0 1 0;
#X restore 544 439 pd fifshh;
#X text 836 19 load a preset into a msg box;
#N canvas 1065 835 440 213 msg 0;
#X obj 10 40 inlet;
#X obj 10 86 outlet;
#X msg 10 63;
#X connect 0 0 2 0;
#X connect 2 0 1 0;
#X restore 926 277 pd msg;
#X obj 544 255 t b b b b b b b b, f 41;
#X obj 469 231 t b b, f 13;
#X obj 469 253 s \$0.save;
#X obj 752 509 text set \$0.preset;
#X obj 752 461 t a b;
#X msg 787 483 1e+15;
#X obj 752 438 list;
#X msg 753 111 symbol jmjarr;
#X connect 2 0 1 0;
#X connect 3 0 4 0;
#X connect 5 0 53 0;
#X connect 7 0 6 0;
#X connect 8 0 9 0;
#X connect 9 0 18 0;
#X connect 11 0 10 0;
#X connect 19 0 20 0;
#X connect 20 0 7 0;
#X connect 21 0 10 0;
#X connect 23 0 22 0;
#X connect 24 0 25 0;
#X connect 25 0 23 0;
#X connect 26 0 28 0;
#X connect 27 0 1 0;
#X connect 29 0 3 0;
#X connect 30 0 21 0;
#X connect 30 0 11 0;
#X connect 31 0 33 0;
#X connect 33 0 41 0;
#X connect 36 0 49 0;
#X connect 40 0 26 0;
#X connect 41 0 42 0;
#X connect 41 1 32 0;
#X connect 41 2 26 0;
#X connect 41 3 44 0;
#X connect 43 0 27 0;
#X connect 46 0 47 0;
#X connect 49 0 48 0;
#X connect 49 1 46 0;
#X connect 49 2 45 0;
#X connect 50 0 1 0;
#X connect 51 1 73 0;
#X connect 52 0 51 0;
#X connect 53 0 26 0;
#X connect 53 1 50 0;
#X connect 53 2 52 0;
#X connect 54 0 56 0;
#X connect 55 0 54 0;
#X connect 56 0 59 0;
#X connect 56 1 57 0;
#X connect 57 0 58 0;
#X connect 58 0 62 0;
#X connect 59 0 62 0;
#X connect 60 0 78 0;
#X connect 61 0 54 0;
#X connect 62 0 71 0;
#X connect 63 0 78 0;
#X connect 64 0 78 0;
#X connect 65 0 78 0;
#X connect 66 0 78 0;
#X connect 67 0 78 0;
#X connect 68 0 78 0;
#X connect 69 0 78 0;
#X connect 72 0 69 0;
#X connect 72 1 68 0;
#X connect 72 2 67 0;
#X connect 72 3 66 0;
#X connect 72 4 65 0;
#X connect 72 5 64 0;
#X connect 72 6 63 0;
#X connect 72 7 60 0;
#X connect 73 0 74 0;
#X connect 73 1 72 0;
#X connect 76 0 75 0;
#X connect 76 1 77 0;
#X connect 77 0 75 1;
#X connect 78 0 76 0;
#X connect 79 0 54 0;
#X coords 0 -1 1 1 91 143 2 10 10;
