#N canvas 1302 225 484 445 10;
#N canvas 1666 742 403 65 NETPD 0;
#X msg 7 14 version 0 0 1;
#X restore 353 15 pd NETPD 2 0;
#X obj 32 63 loadbang;
#X obj 251 125 list append \$2 \$3;
#X msg 251 150 color \$1 \$1 \$2;
#X obj 20 20 cnv 18 80 24 empty \$0.bg empty 2 10 0 14 #bbbbbb #000000 0;
#X obj 141 118 symbol \$4;
#X msg 141 141 color \$1 -1 -1;
#X obj 251 175 s \$0.fg;
#X obj 141 164 s \$0.bg;
#X obj 22 22 cnv 18 78 20 empty \$0.fg \$1 2 10 0 14 #ffddcc #887766 0;
#X obj 32 159 pdcontrol;
#X msg 32 133 args 2;
#X obj 32 207 list append \$1;
#X msg 32 182 list \$1 \$2;
#X obj 32 257 list append colors \$2 \$3;
#X obj 32 280 list trim;
#X obj 32 309 s golana-com;
#X msg 32 233 symbol \$1-\$2-\$3-rx;
#X obj 32 86 t b b b, f 37;
#X obj 231 259 route getcolor;
#X obj 231 282 b;
#X obj 231 199 r golana-com;
#X obj 231 236 route _;
#X connect 1 0 18 0;
#X connect 2 0 3 0;
#X connect 3 0 7 0;
#X connect 5 0 6 0;
#X connect 6 0 8 0;
#X connect 10 0 13 0;
#X connect 11 0 10 0;
#X connect 12 0 17 0;
#X connect 13 0 12 0;
#X connect 14 0 15 0;
#X connect 15 0 16 0;
#X connect 17 0 14 0;
#X connect 17 0 22 1;
#X connect 18 0 11 0;
#X connect 18 1 5 0;
#X connect 18 2 2 0;
#X connect 19 0 20 0;
#X connect 20 0 11 0;
#X connect 21 0 22 0;
#X connect 22 0 19 0;
#X coords 0 -1 1 1 80 24 2 20 20;
