#N canvas 840 230 517 307 10;
#N canvas 35 77 504 68 NETPD 0;
#X msg 10 8 version 0 0 1;
#X restore 367 10 pd NETPD 2 0;
#X obj 229 75 netpd_f \$1 \$2/floor 0;
#X obj 245 105 netpd_f \$1 \$2/ceiling 1;
#X obj 108 159 *~ 1;
#X obj 108 181 +~ 0;
#X obj 229 137 t b a;
#X obj 245 168 -, f 7;
#X obj 23 37 hsl 75 18 0 127 0 0 \$0.blu \$0.bli VCA 0 10 0 14 #e3c6ff #e3c6ff #2f004d 0 1;
#X obj 23 55 hsl 75 18 0 1 0 0 \$1-\$2/floor \$1-\$2/floor floor 2 9 0 12 #000000 #ffc7c6 #ffc7c6 0 1;
#X obj 23 73 hsl 75 18 0 1 0 0 \$1-\$2/ceiling \$1-\$2/ceiling ceiling 2 9 0 12 #000000 #ffe3c6 #ffe3c6 0 1;
#X obj 26 211 *~;
#X obj 20 20 golana-module-label 80 23;
#X obj 20 92 golana-module-label 80 23;
#X obj 20 20 golana-module-in sig;
#X obj 80 20 golana-module-in CV;
#X obj 20 92 golana-module-out sig;
#X obj 26 136 catch~ \$1-sig-\$2;
#X obj 107 96 catch~ \$1-CV-\$2;
#X obj 25 262 send~ \$1-sig-\$2;
#X connect 1 0 5 0;
#X connect 1 0 4 1;
#X connect 2 0 6 0;
#X connect 3 0 4 0;
#X connect 4 0 10 1;
#X connect 5 0 6 0;
#X connect 5 1 6 1;
#X connect 6 0 3 1;
#X connect 10 0 18 0;
#X connect 16 0 10 0;
#X connect 17 0 3 0;
#X coords 0 -1 1 1 80 88 2 20 20;
