#N canvas 357 218 618 398 10;
#N canvas 35 77 504 68 NETPD 0;
#X msg 10 8 version 0 0 4;
#X restore 159 32 pd NETPD 2 0;
#X obj 122 163 netpd_f \$1 \$2/floor 0;
#X obj 190 194 netpd_f \$1 \$2/ceiling 1;
#X obj 122 192 t b a;
#X obj 122 236 -, f 5;
#X obj 23 37 hsl 75 18 0 127 0 0 \$0.blu \$0.bli CVmap 0 10 0 12 #e3c6ff #e3c6ff #2f004d 0 1;
#X obj 23 55 hsl 75 18 0 1 0 0 \$1-\$2/floor \$1-\$2/floor floor 2 9 0 12 #000000 #ffc7c6 #ffc7c6 0 1;
#X obj 23 73 hsl 75 18 0 1 0 0 \$1-\$2/ceiling \$1-\$2/ceiling ceiling 2 9 0 12 #000000 #ffe3c6 #ffe3c6 0 1;
#X obj 27 198 *~ 1;
#X obj 27 220 +~ 0;
#X obj 27 292 slop~ 1e+09, f 33;
#X obj 365 175 pow 4;
#X obj 365 126 * -1;
#X obj 365 149 + 1;
#X obj 365 248 * 0.001;
#X obj 365 202 * 0.999;
#X obj 365 225 + 0.001;
#X obj 23 91 hsl 75 18 0 1 0 0 \$1-\$2/slew \$1-\$2/slew slew 2 9 0 12 #000000 #feffc6 #feffc6 0 1;
#X obj 365 99 netpd_f \$1 \$2/slew 0;
#X obj 20 110 golana-module-label 80 27;
#X obj 20 20 golana-module-label 80 27;
#X obj 20 110 golana-module-out CV;
#X obj 20 20 golana-module-in CV;
#X obj 27 140 catch~ \$1-CV-\$2;
#X obj 26 336 send~ \$1-CV-\$2;
#N canvas 4 40 613 362 link.detection 0;
#X obj 8 54 t b a;
#X obj 8 77 f;
#X obj 8 100 +;
#X obj 8 123 t a a;
#X obj 8 147 > 0;
#X obj 8 8 r \$1-CV-\$2-in;
#X obj 8 223 sel 0;
#X msg 8 246 -1;
#X obj 8 197 change 0;
#X obj 8 173 t a a, f 12;
#X obj 8 298 s \$1-CV-\$2-out;
#X obj 8 31 route downlink;
#X msg 8 269 downlink \$1;
#X obj 203 55 t b a;
#X obj 203 78 f;
#X obj 203 101 +;
#X obj 203 124 t a a;
#X obj 203 148 > 0;
#X obj 203 224 sel 0;
#X msg 203 247 -1;
#X obj 203 198 change 0;
#X obj 203 174 t a a, f 12;
#X obj 203 9 r \$1-CV-\$2-out;
#X obj 203 32 route uplink;
#X msg 203 270 uplink \$1;
#X obj 203 299 s \$1-CV-\$2-in;
#X obj 115 284 outlet;
#X obj 115 250 &&, f 5;
#X obj 115 220 t b a;
#X connect 0 0 1 0;
#X connect 0 1 2 1;
#X connect 1 0 2 0;
#X connect 2 0 3 0;
#X connect 3 0 4 0;
#X connect 3 1 1 1;
#X connect 4 0 9 0;
#X connect 5 0 11 0;
#X connect 6 0 7 0;
#X connect 6 1 12 0;
#X connect 7 0 12 0;
#X connect 8 0 6 0;
#X connect 9 0 8 0;
#X connect 9 1 27 0;
#X connect 11 0 0 0;
#X connect 12 0 10 0;
#X connect 13 0 14 0;
#X connect 13 1 15 1;
#X connect 14 0 15 0;
#X connect 15 0 16 0;
#X connect 16 0 17 0;
#X connect 16 1 14 1;
#X connect 17 0 21 0;
#X connect 18 0 19 0;
#X connect 18 1 24 0;
#X connect 19 0 24 0;
#X connect 20 0 18 0;
#X connect 21 0 20 0;
#X connect 21 1 28 0;
#X connect 22 0 23 0;
#X connect 23 0 13 0;
#X connect 24 0 25 0;
#X connect 27 0 26 0;
#X connect 28 0 27 0;
#X connect 28 1 27 1;
#X restore 398 24 pd link.detection;
#X obj 398 47 switch~;
#X connect 1 0 3 0;
#X connect 1 0 9 1;
#X connect 2 0 4 0;
#X connect 3 0 4 0;
#X connect 3 1 4 1;
#X connect 4 0 8 1;
#X connect 8 0 9 0;
#X connect 9 0 10 0;
#X connect 10 0 24 0;
#X connect 11 0 15 0;
#X connect 12 0 13 0;
#X connect 13 0 11 0;
#X connect 14 0 10 2;
#X connect 14 0 10 4;
#X connect 15 0 16 0;
#X connect 16 0 14 0;
#X connect 18 0 12 0;
#X connect 23 0 8 0;
#X connect 25 0 26 0;
#X coords 0 -1 1 1 80 106 2 20 20;
