#N canvas 203 305 811 416 10;
#X obj 20 20 cnv 14 20 16 empty \$0.label \$1 1 9 0 10 #ffcccc #886666 0;
#N canvas 35 77 436 84 NETPD 0;
#X msg 23 26 version 0 0 2;
#X restore 17 60 pd NETPD 2 0;
#X msg 237 108 args 1;
#X obj 237 131 pdcontrol;
#X msg 237 154 list \$1 \$2;
#X obj 237 177 list append \$1;
#X obj 27 126 r golana-com;
#X obj 27 151 route _;
#X msg 237 200 symbol \$1-\$3-\$2-tx;
#X obj 27 184 route colors;
#X obj 27 271 s \$0.label;
#X msg 27 238 color \$1 \$1 \$2;
#X obj 27 211 list;
#X obj 168 59 loadbang;
#X obj 168 82 t b b;
#X obj 168 259 list prepend;
#X msg 168 235 getcolor;
#X obj 168 282 list trim;
#X obj 168 307 s golana-com;
#X connect 2 0 3 0;
#X connect 3 0 4 0;
#X connect 4 0 5 0;
#X connect 5 0 8 0;
#X connect 6 0 7 0;
#X connect 7 0 9 0;
#X connect 8 0 7 1;
#X connect 8 0 15 1;
#X connect 9 0 12 0;
#X connect 11 0 10 0;
#X connect 12 0 11 0;
#X connect 13 0 14 0;
#X connect 14 0 16 0;
#X connect 14 1 2 0;
#X connect 15 0 17 0;
#X connect 16 0 15 0;
#X connect 17 0 18 0;
#X coords 0 -1 1 1 20 16 2 20 20;
