#N canvas 714 131 576 379 10;
#N canvas 1600 1022 468 536 \$1 0;
#X coords 0 -1 1 1 296 312 2 40 40;
#X restore 200 20 pd \$1;
#N canvas 84 126 409 115 NETPD 0;
#X msg 20 26 version 0 0 1;
#X restore 29 23 pd NETPD 2 0;
#N canvas 995 603 472 238 adjust.dimen 0;
#X obj 54 14 r \$1.dimen;
#X obj 54 188 s pd-\$1;
#X obj 191 186 s \$0.main;
#X msg 54 157 goprect 40 40 \$1 \$2;
#X msg 191 159 goprect 200 20 \$1 \$2;
#X connect 0 0 3 0;
#X connect 0 0 4 0;
#X connect 3 0 1 0;
#X connect 4 0 2 0;
#X restore 28 59 pd adjust.dimen;
#X obj 29 94 namecanvas \$0.main;
#X coords 0 -1 1 1 296 312 2 200 20;
