#N canvas 714 131 561 261 10;
#N canvas 1623 1031 450 300 \$1 1;
#X obj 40 40 golana-link 1 CV seq1 vco1;
#X obj 40 70 golana-link 1 CV seq1 vco2;
#X obj 40 100 golana-link 1 CV seq1 vco3;
#X obj 40 130 golana-link 1 CV seq1 vcf1;
#X obj 40 160 golana-link 1 CV seq1 vca1;
#X obj 70 40 golana-link 1 CV seq2 vco1;
#X obj 70 70 golana-link 1 CV seq2 vco2;
#X obj 70 100 golana-link 1 CV seq2 vco3;
#X obj 70 130 golana-link 1 CV seq2 vcf1;
#X obj 70 160 golana-link 1 CV seq2 vca1;
#X obj 100 40 golana-link 1 CV cvmap1 vco1;
#X obj 100 70 golana-link 1 CV cvmap1 vco2;
#X obj 100 100 golana-link 1 CV cvmap1 vco3;
#X obj 100 130 golana-link 1 CV cvmap1 vcf1;
#X obj 100 160 golana-link 1 CV cvmap1 vca1;
#X obj 130 40 golana-link 1 CV cvmap2 vco1;
#X obj 130 70 golana-link 1 CV cvmap2 vco2;
#X obj 130 100 golana-link 1 CV cvmap2 vco3;
#X obj 130 130 golana-link 1 CV cvmap2 vcf1;
#X obj 130 160 golana-link 1 CV cvmap2 vca1;
#X obj 160 40 golana-link 1 CV eg1 vco1;
#X obj 160 70 golana-link 1 CV eg1 vco2;
#X obj 160 100 golana-link 1 CV eg1 vco3;
#X obj 160 130 golana-link 1 CV eg1 vcf1;
#X obj 160 160 golana-link 1 CV eg1 vca1;
#X obj 190 40 golana-link 1 CV eg2 vco1;
#X obj 190 70 golana-link 1 CV eg2 vco2;
#X obj 190 100 golana-link 1 CV eg2 vco3;
#X obj 190 130 golana-link 1 CV eg2 vcf1;
#X obj 190 160 golana-link 1 CV eg2 vca1;
#X coords 0 -1 1 1 200 200 2 40 40;
#X restore 200 20 pd \$1;
#N canvas 84 126 409 115 NETPD 0;
#X msg 20 26 version 0 0 1;
#X restore 29 23 pd NETPD 2 0;
#N canvas 995 603 472 238 adjust.dimen 0;
#X obj 54 14 r \$1.dimen;
#X obj 54 188 s pd-\$1;
#X obj 191 186 s \$0.main;
#X msg 54 157 goprect 40 40 \$1 \$2;
#X msg 191 159 goprect 200 20 \$1 \$2;
#X connect 0 0 3 0;
#X connect 0 0 4 0;
#X connect 3 0 1 0;
#X connect 4 0 2 0;
#X restore 28 59 pd adjust.dimen;
#X obj 29 94 namecanvas \$0.main;
#X coords 0 -1 1 1 180 150 2 200 20;
