#N canvas 1323 819 450 300 10;
#N canvas 35 77 504 68 NETPD 0;
#X msg 10 8 version 0 0 2;
#X restore 367 10 pd NETPD 2 0;
#X obj 209 97 netpd_f \$1 \$2/floor 0;
#X obj 277 128 netpd_f \$1 \$2/ceiling 1;
#X obj 209 136 t b a;
#X obj 231 192 -, f 7;
#X obj 23 37 hsl 75 18 0 127 0 0 \$0.blu \$0.bli trig-range 0 10 0 12 #e3c6ff #e3c6ff #2f004d 0 1;
#X obj 23 55 hsl 75 18 0 1 0 0 \$1-\$2/floor \$1-\$2/floor floor 2 9 0 12 #000000 #feffc6 #feffc6 0 1;
#X obj 23 73 hsl 75 18 0 1 0 0 \$1-\$2/ceiling \$1-\$2/ceiling ceiling 2 9 0 12 #000000 #c6ffc7 #c6ffc7 0 1;
#X obj 76 192 * 1;
#X obj 76 216 + 0;
#X obj 27 163 select 0;
#X msg 27 186 0;
#X obj 20 20 golana-module-label 80 30;
#X obj 20 20 golana-module-in trg;
#X obj 20 92 golana-module-label 80 30;
#X obj 20 92 golana-module-out trg;
#X obj 27 132 r \$1-trg-\$2-in;
#X obj 27 249 s \$1-trg-\$2-out;
#X connect 1 0 3 0;
#X connect 1 0 9 1;
#X connect 2 0 4 0;
#X connect 3 0 4 0;
#X connect 3 1 4 1;
#X connect 4 0 8 1;
#X connect 8 0 9 0;
#X connect 9 0 17 0;
#X connect 10 0 11 0;
#X connect 10 1 8 0;
#X connect 11 0 17 0;
#X connect 16 0 10 0;
#X coords 0 -1 1 1 80 88 2 20 20;
