#N canvas 1333 423 846 644 10;
#N canvas 1246 268 465 167 NETPD 0;
#X msg 30 22 version 0 0 3;
#X restore 723 22 pd NETPD 2 0;
#X obj 38 111 r~ \$1-\$2-\$3;
#X obj 40 212 throw~ \$1-\$2-\$4;
#X obj 50 50 tgl 24 0 \$1-routing/\$2/\$3/\$4 \$1-routing/\$2/\$3/\$4 empty 0 -9 0 10 #e3c6ff #000000 #000000 0 1;
#X obj 528 191 sel 1 0;
#X msg 528 290 color \$1 \$1 \$1;
#X obj 528 313 s \$0.fg;
#X msg 283 135 color \$1 \$1 \$1;
#X obj 283 158 s \$0.bg;
#X obj 50 50 cnv 18 24 24 empty \$0.bg empty 20 12 0 10 #bbbbbb #bbbbbb 0;
#X obj 52 52 cnv 18 20 20 empty \$0.fg empty 20 12 0 10 #886688 #886688 0;
#X obj 528 21 netpd_r \$1 routing/\$2/\$3/\$4;
#X obj 60 139 netpd_f \$1 routing/\$2/\$3/\$4 0;
#X obj 283 15 loadbang;
#X obj 528 243 symbol;
#X obj 632 181 unpack s s;
#X obj 584 244 symbol;
#X msg 490 136 0;
#X obj 632 158 list append \$5 \$6;
#X obj 283 110 symbol \$7;
#X obj 39 174 *~ 0;
#X obj 134 526 switch~;
#X obj 283 63 t b b b b, f 24;
#X obj 328 212 list append \$3 \$4;
#X obj 328 235 unpack s s;
#X obj 328 313 s \$1-routing/\$2/\$3/\$4;
#X msg 328 286 send empty;
#X obj 328 258 select __, f 10;
#X obj 35 258 r \$1-\$2-\$3-out;
#X obj 35 281 route connect;
#X obj 35 304 t b a;
#X obj 35 327 f;
#X obj 35 350 +;
#X obj 35 373 t a a;
#X obj 35 397 > 0;
#X obj 92 373 netpd_r \$1 routing/\$2/\$3/\$4;
#X obj 92 399 t b a;
#X obj 35 509 sel 0;
#X msg 35 532 -1;
#X msg 35 555 connect \$1;
#X obj 35 466 change 0;
#X obj 35 443 &&, f 6;
#X obj 35 488 t a a, f 17;
#X obj 35 581 s \$1-\$2-\$4-in;
#X connect 1 0 20 0;
#X connect 4 0 14 0;
#X connect 4 1 16 0;
#X connect 5 0 6 0;
#X connect 7 0 8 0;
#X connect 11 0 4 0;
#X connect 12 0 20 1;
#X connect 13 0 22 0;
#X connect 14 0 5 0;
#X connect 15 0 14 1;
#X connect 15 1 16 1;
#X connect 16 0 5 0;
#X connect 17 0 4 0;
#X connect 18 0 15 0;
#X connect 19 0 7 0;
#X connect 20 0 2 0;
#X connect 22 0 19 0;
#X connect 22 1 17 0;
#X connect 22 2 18 0;
#X connect 22 3 23 0;
#X connect 23 0 24 0;
#X connect 24 0 27 0;
#X connect 24 1 27 1;
#X connect 26 0 25 0;
#X connect 27 0 26 0;
#X connect 28 0 29 0;
#X connect 29 0 30 0;
#X connect 30 0 31 0;
#X connect 30 1 32 1;
#X connect 31 0 32 0;
#X connect 32 0 33 0;
#X connect 33 0 34 0;
#X connect 33 1 31 1;
#X connect 34 0 41 0;
#X connect 35 0 36 0;
#X connect 36 0 41 0;
#X connect 36 1 41 1;
#X connect 37 0 38 0;
#X connect 37 1 39 0;
#X connect 38 0 39 0;
#X connect 39 0 43 0;
#X connect 40 0 42 0;
#X connect 41 0 40 0;
#X connect 42 0 37 0;
#X connect 42 1 21 0;
#X coords 0 -1 1 1 24 24 2 50 50;
