#N canvas 1333 423 854 626 10;
#N canvas 1246 268 465 167 NETPD 0;
#X msg 30 22 version 0 0 5;
#X restore 723 22 pd NETPD 2 0;
#X obj 50 50 tgl 24 0 \$1-routing/\$2/\$3/\$4 \$1-routing/\$2/\$3/\$4 empty 0 -9 0 10 #e3c6ff #000000 #000000 0 1;
#X obj 597 386 sel 1 0;
#X msg 597 485 color \$1 \$1 \$1;
#X obj 597 508 s \$0.fg;
#X msg 445 339 color \$1 \$1 \$1;
#X obj 445 362 s \$0.bg;
#X obj 50 50 cnv 18 24 24 empty \$0.bg empty 20 12 0 10 #bbbbbb #bbbbbb 0;
#X obj 52 52 cnv 18 20 20 empty \$0.fg empty 20 12 0 10 #888866 #888866 0;
#X obj 597 216 netpd_r \$1 routing/\$2/\$3/\$4;
#X obj 229 98 netpd_f \$1 routing/\$2/\$3/\$4 0;
#X obj 445 219 loadbang;
#X obj 597 438 symbol;
#X obj 701 376 unpack s s;
#X obj 653 439 symbol;
#X msg 559 331 0;
#X obj 701 353 list append \$5 \$6;
#X obj 445 314 symbol \$7;
#X obj 714 310 bng 18 250 50 0 empty empty empty 0 -9 0 10 #fcfcfc #000000 #000000;
#X obj 184 132 spigot 0;
#X obj 184 42 r \$1-\$2-\$3-out;
#X obj 184 207 s \$1-\$2-\$4-in;
#X obj 397 407 list append \$3 \$4;
#X obj 397 430 unpack s s;
#X obj 397 508 s \$1-routing/\$2/\$3/\$4;
#X msg 397 481 send empty;
#X obj 397 453 select __, f 10;
#X obj 445 267 t b b b b, f 15;
#X obj 184 66 route trg;
#X msg 184 175 trg \$1;
#X obj 47 310 netpd_r \$1 routing/\$2/\$3/\$4;
#X obj 47 547 s golana-com;
#X obj 47 474 list prepend \$1-\$2-\$4-rx;
#X obj 225 476 list prepend \$1-\$2-\$3-tx;
#X msg 47 442 downconnect \$1;
#X msg 225 451 upconnect \$1;
#X obj 47 515 list trim;
#X msg 47 378 -1;
#X obj 47 401 t a;
#X obj 47 355 sel 0;
#X obj 47 333 change 0;
#X obj 483 82 switch~;
#N canvas 35 77 600 403 link.detection 0;
#X obj 25 21 r \$1-\$2-\$3-out;
#X obj 25 67 t b a;
#X obj 25 90 f;
#X obj 25 113 +;
#X obj 25 136 t a a;
#X obj 25 160 > 0;
#X obj 82 118 netpd_r \$1 routing/\$2/\$3/\$4;
#X obj 82 162 t b a;
#X obj 25 272 sel 0;
#X msg 25 295 -1;
#X obj 25 229 change 0;
#X obj 25 206 &&, f 6;
#X obj 25 251 t a a, f 17;
#X obj 25 344 s \$1-\$2-\$4-in;
#X obj 25 44 route downlink;
#X msg 25 318 downlink \$1;
#X obj 275 67 t b a;
#X obj 275 90 f;
#X obj 275 113 +;
#X obj 275 136 t a a;
#X obj 275 160 > 0;
#X obj 291 180 t b a;
#X obj 275 272 sel 0;
#X msg 275 295 -1;
#X obj 275 229 change 0;
#X obj 275 206 &&, f 6;
#X obj 275 251 t a a, f 17;
#X obj 275 44 route uplink;
#X msg 275 318 uplink \$1;
#X obj 275 344 s \$1-\$2-\$3-out;
#X obj 275 21 r \$1-\$2-\$4-in;
#X obj 136 303 t b a;
#X obj 124 331 &&, f 7;
#X obj 124 358 outlet;
#X connect 0 0 14 0;
#X connect 1 0 2 0;
#X connect 1 1 3 1;
#X connect 2 0 3 0;
#X connect 3 0 4 0;
#X connect 4 0 5 0;
#X connect 4 1 2 1;
#X connect 5 0 11 0;
#X connect 6 0 7 0;
#X connect 6 0 21 0;
#X connect 7 0 11 0;
#X connect 7 1 11 1;
#X connect 8 0 9 0;
#X connect 8 1 15 0;
#X connect 9 0 15 0;
#X connect 10 0 12 0;
#X connect 11 0 10 0;
#X connect 12 0 8 0;
#X connect 12 1 32 0;
#X connect 14 0 1 0;
#X connect 15 0 13 0;
#X connect 16 0 17 0;
#X connect 16 1 18 1;
#X connect 17 0 18 0;
#X connect 18 0 19 0;
#X connect 19 0 20 0;
#X connect 19 1 17 1;
#X connect 20 0 25 0;
#X connect 21 0 25 0;
#X connect 21 1 25 1;
#X connect 22 0 23 0;
#X connect 22 1 28 0;
#X connect 23 0 28 0;
#X connect 24 0 26 0;
#X connect 25 0 24 0;
#X connect 26 0 22 0;
#X connect 26 1 31 0;
#X connect 27 0 16 0;
#X connect 28 0 29 0;
#X connect 30 0 27 0;
#X connect 31 0 32 0;
#X connect 31 1 32 1;
#X connect 32 0 33 0;
#X restore 483 54 pd link.detection;
#X connect 2 0 12 0;
#X connect 2 1 14 0;
#X connect 3 0 4 0;
#X connect 5 0 6 0;
#X connect 9 0 2 0;
#X connect 10 0 19 1;
#X connect 11 0 27 0;
#X connect 12 0 3 0;
#X connect 13 0 12 1;
#X connect 13 1 14 1;
#X connect 14 0 3 0;
#X connect 15 0 2 0;
#X connect 16 0 13 0;
#X connect 17 0 5 0;
#X connect 18 0 16 0;
#X connect 19 0 29 0;
#X connect 20 0 28 0;
#X connect 22 0 23 0;
#X connect 23 0 26 0;
#X connect 23 1 26 1;
#X connect 25 0 24 0;
#X connect 26 0 25 0;
#X connect 27 0 17 0;
#X connect 27 1 15 0;
#X connect 27 2 16 0;
#X connect 27 3 22 0;
#X connect 28 0 19 0;
#X connect 29 0 21 0;
#X connect 30 0 40 0;
#X connect 32 0 36 0;
#X connect 33 0 36 0;
#X connect 34 0 32 0;
#X connect 35 0 33 0;
#X connect 36 0 31 0;
#X connect 37 0 38 0;
#X connect 38 0 34 0;
#X connect 38 0 35 0;
#X connect 39 0 37 0;
#X connect 39 1 38 0;
#X connect 40 0 39 0;
#X connect 42 0 41 0;
#X coords 0 -1 1 1 24 24 2 50 50;
