#N canvas 782 299 1095 567 10;
#N canvas 664 876 450 300 sine 0;
#X obj 24 28 inlet~;
#X obj 24 217 outlet~;
#X obj 305 59 inlet;
#X obj 305 132 == 0;
#X obj 305 181 switch~;
#X obj 24 80 phasor~;
#X obj 24 103 cos~;
#X obj 24 126 *~ 0.5;
#X obj 24 149 +~ 0.5;
#X obj 152 37 inlet;
#X connect 0 0 5 0;
#X connect 2 0 3 0;
#X connect 3 0 4 0;
#X connect 5 0 6 0;
#X connect 6 0 7 0;
#X connect 7 0 8 0;
#X connect 8 0 1 0;
#X connect 9 0 5 1;
#X restore 39 225 pd sine;
#N canvas 664 876 450 300 triangle 0;
#X obj 24 28 inlet~;
#X obj 24 217 outlet~;
#X obj 305 59 inlet;
#X obj 305 181 switch~;
#X obj 305 132 == 1;
#X obj 25 60 phasor~;
#X obj 46 83 *~ -1;
#X obj 46 108 +~ 1;
#X obj 25 132 min~;
#X obj 25 156 *~ 2;
#X obj 155 33 inlet;
#X connect 0 0 5 0;
#X connect 2 0 4 0;
#X connect 4 0 3 0;
#X connect 5 0 6 0;
#X connect 5 0 8 0;
#X connect 6 0 7 0;
#X connect 7 0 8 1;
#X connect 8 0 9 0;
#X connect 9 0 1 0;
#X connect 10 0 5 1;
#X restore 99 225 pd triangle;
#N canvas 664 876 551 307 square 0;
#X obj 24 28 inlet~;
#X obj 24 217 outlet~;
#X obj 305 59 inlet;
#X obj 305 181 switch~;
#X obj 305 132 == 2;
#X obj 23 77 phasor~;
#X msg 426 109 0 0 1;
#X obj 426 132 s \$0.ref.square;
#X obj 426 83 loadbang;
#X obj 298 269 table \$0.ref.square 2;
#X obj 24 134 tabread~ \$0.ref.square;
#X obj 24 112 +~ 0.5;
#X obj 151 25 inlet;
#X connect 0 0 5 0;
#X connect 2 0 4 0;
#X connect 4 0 3 0;
#X connect 5 0 11 0;
#X connect 6 0 7 0;
#X connect 8 0 6 0;
#X connect 10 0 1 0;
#X connect 11 0 10 0;
#X connect 12 0 5 1;
#X restore 189 225 pd square;
#N canvas 664 876 450 300 saw 0;
#X obj 24 28 inlet~;
#X obj 24 217 outlet~;
#X obj 305 59 inlet;
#X obj 305 181 switch~;
#X obj 305 132 == 3;
#X obj 24 111 phasor~;
#X obj 174 33 inlet;
#X connect 0 0 5 0;
#X connect 2 0 4 0;
#X connect 4 0 3 0;
#X connect 5 0 1 0;
#X connect 6 0 5 1;
#X restore 268 226 pd saw;
#X obj 300 55 hradio 26 1 0 5 \$1-\$2/waveform \$1-\$2/waveform empty 0 -9 0 10 #fcfcfc #000000 #000000 0;
#X obj 320 191 netpd_f \$1 \$2/waveform 0;
#X obj 303 37 hsl 125 18 0 127 0 0 \$0.blu \$0.bli LFO 0 10 0 14 #e3c6ff #e3c6ff #2f004d 0 1;
#X obj 832 531 s \$0.saw.label;
#X msg 832 506 color -1 -1 \$1;
#X obj 832 484 symbol;
#X msg 832 458 #ccffcc;
#X msg 884 459 #668866;
#X msg 722 505 color -1 -1 \$1;
#X obj 722 483 symbol;
#X obj 722 530 s \$0.sqr.label;
#X msg 722 457 #ffffcc;
#X msg 775 456 #888866;
#X obj 832 408 == 3;
#X obj 832 431 sel 1 0;
#X obj 638 274 netpd_r \$1 \$2/waveform;
#X obj 722 431 sel 1 0;
#X obj 722 408 == 2;
#X msg 612 506 color -1 -1 \$1;
#X obj 612 484 symbol;
#X msg 502 505 color -1 -1 \$1;
#X obj 502 483 symbol;
#X obj 612 431 sel 1 0;
#X obj 502 431 sel 1 0;
#X obj 502 408 == 0;
#X obj 612 408 == 1;
#X obj 502 530 s \$0.sin.label;
#X obj 612 531 s \$0.tri.label;
#X msg 502 457 #ffcccc;
#X msg 555 456 #886666;
#X msg 612 458 #ffddcc;
#X msg 664 459 #887766;
#N canvas 35 77 396 61 NETPD 0;
#X msg 21 12 version 0 1 2;
#X restore 998 24 pd NETPD 2 0;
#X obj 345 253 r \$1-\$2/pitch;
#X obj 346 279 route float set;
#X msg 349 366 label \$1;
#X obj 349 389 s \$0.pitch.label;
#X obj 349 343 makefilename %6.2f;
#X obj 39 104 sig~;
#X obj 300 55 cnv 15 26 26 empty \$0.sin.label sin 1 13 0 14 #000000 #ffcccc 0;
#X obj 326 55 cnv 15 26 26 empty \$0.tri.label tri 1 13 0 14 #000000 #887766 0;
#X obj 352 55 cnv 15 26 26 empty \$0.sqr.label sqr 1 13 0 14 #000000 #888866 0;
#X obj 378 55 cnv 15 26 26 empty \$0.saw.label saw 1 13 0 14 #000000 #668866 0;
#X obj 404 55 cnv 15 26 26 empty \$0.s&h.label s&h 1 13 0 14 #000000 #668888 0;
#X msg 942 506 color -1 -1 \$1;
#X obj 942 484 symbol;
#X obj 942 431 sel 1 0;
#X msg 942 458 #ccffff;
#X msg 994 459 #668888;
#X obj 942 531 s \$0.s&h.label;
#X obj 638 297 t a a a a a;
#X obj 942 408 == 4;
#N canvas 655 543 450 300 s&h 0;
#X obj 24 28 inlet~;
#X obj 28 258 outlet~;
#X obj 305 59 inlet;
#X obj 305 181 switch~;
#X obj 80 99 phasor~;
#X obj 174 33 inlet;
#X obj 305 132 == 4;
#X obj 27 147 samphold~;
#X obj 26 71 noise~;
#X obj 26 94 *~ 0.5;
#X obj 26 117 +~ 0.5;
#X connect 0 0 4 0;
#X connect 2 0 6 0;
#X connect 4 0 7 1;
#X connect 5 0 4 1;
#X connect 6 0 3 0;
#X connect 7 0 1 0;
#X connect 8 0 9 0;
#X connect 9 0 10 0;
#X connect 10 0 7 0;
#X restore 319 226 pd s&h;
#X obj 303 81 hsl 125 18 0 1 0 0 \$1-\$2/rate \$1-\$2/rate rate 2 9 0 12 #000000 #ffc7c6 #ffc7c6 0 1;
#X obj 303 99 hsl 125 8 0 1 0 0 \$0.blu \$0.pos empty -2 -9 0 10 #000000 #ffe3c6 #000000 0 1;
#X obj 12 510 dbtorms;
#X obj 12 533 s \$0.pos;
#X obj 12 487 env~ 1024 1024;
#X obj 39 26 netpd_f \$1 \$2/rate 0.2;
#N canvas 35 77 268 225 scale 0;
#X obj 38 93 pow 4;
#X obj 38 118 * 99.99;
#X obj 38 141 + 0.01;
#X obj 38 48 inlet;
#X obj 38 177 outlet;
#X connect 0 0 1 0;
#X connect 1 0 2 0;
#X connect 2 0 4 0;
#X connect 3 0 0 0;
#X restore 39 63 pd scale;
#X obj 303 107 hsl 125 18 0 1 0 0 \$1-\$2/floor \$1-\$2/floor floor 2 9 0 12 #000000 #feffc6 #feffc6 0 1;
#X obj 303 125 hsl 125 18 0 1 0 0 \$1-\$2/ceiling \$1-\$2/ceiling ceiling 2 9 0 12 #000000 #c6ffc7 #c6ffc7 0 1;
#X obj 112 280 netpd_f \$1 \$2/floor 0;
#X obj 180 311 netpd_f \$1 \$2/ceiling 1;
#X obj 112 319 t b a;
#X obj 134 375 -, f 7;
#X msg 134 400 \$1 50;
#X obj 134 423 line~;
#X obj 39 297 *~;
#X msg 78 386 \$1 50;
#X obj 78 409 line~;
#X obj 38 335 +~;
#X obj 303 144 hsl 107 18 0 1 0 0 \$1-\$2/phase \$1-\$2/phase phase 2 9 0 12 #000000 #c6feff #c6feff 0 1;
#X obj 522 154 netpd_f \$1 \$2/phase;
#X obj 415 144 hsl 13 18 0 1 0 0 \$0.trig.s \$0.trig.r empty 2 9 0 12 #668888 #668888 #668888 0 1;
#X obj 729 87 rh_slider_click \$0.trig.s;
#X obj 729 110 == 0;
#X obj 729 134 t a a;
#X obj 729 159 s \$1-\$2/trig;
#X obj 943 143 r \$1-\$2/trig;
#X obj 943 166 route float set;
#X obj 943 245 symbol;
#X obj 943 192 sel 1 0;
#X msg 943 219 #ccffff;
#X msg 995 220 #668888;
#X obj 943 289 s \$0.trig.r;
#X msg 943 267 color \$1 \$1 \$1;
#X obj 764 113 netpd_r \$1 \$2/trig;
#X obj 507 56 > 0;
#X obj 507 79 sel 1;
#X obj 507 181 f;
#X obj 507 212 s \$0.phase;
#X obj 120 90 r \$0.phase;
#X obj 507 131 spigot, f 8;
#X obj 300 20 golana-module-label 130 47;
#X obj 300 163 golana-module-label 130 47;
#X obj 300 20 golana-module-in trg;
#X obj 300 163 golana-module-out CV;
#X obj 507 12 r \$1-trg-\$2-in;
#X obj 38 457 send~ \$1-CV-\$2;
#X obj 552 93 netpd_f \$1 \$2/trig 0;
#X obj 507 34 route trg;
#X connect 0 0 72 0;
#X connect 1 0 72 0;
#X connect 2 0 72 0;
#X connect 3 0 72 0;
#X connect 5 0 0 2;
#X connect 5 0 1 2;
#X connect 5 0 2 2;
#X connect 5 0 3 2;
#X connect 5 0 56 2;
#X connect 8 0 7 0;
#X connect 9 0 8 0;
#X connect 10 0 9 0;
#X connect 11 0 9 0;
#X connect 12 0 14 0;
#X connect 13 0 12 0;
#X connect 15 0 13 0;
#X connect 16 0 13 0;
#X connect 17 0 18 0;
#X connect 18 0 10 0;
#X connect 18 1 11 0;
#X connect 19 0 54 0;
#X connect 20 0 15 0;
#X connect 20 1 16 0;
#X connect 21 0 20 0;
#X connect 22 0 31 0;
#X connect 23 0 22 0;
#X connect 24 0 30 0;
#X connect 25 0 24 0;
#X connect 26 0 34 0;
#X connect 26 1 35 0;
#X connect 27 0 32 0;
#X connect 27 1 33 0;
#X connect 28 0 27 0;
#X connect 29 0 26 0;
#X connect 32 0 25 0;
#X connect 33 0 25 0;
#X connect 34 0 23 0;
#X connect 35 0 23 0;
#X connect 37 0 38 0;
#X connect 38 0 41 0;
#X connect 38 1 41 0;
#X connect 39 0 40 0;
#X connect 41 0 39 0;
#X connect 42 0 0 0;
#X connect 42 0 1 0;
#X connect 42 0 2 0;
#X connect 42 0 3 0;
#X connect 42 0 56 0;
#X connect 48 0 53 0;
#X connect 49 0 48 0;
#X connect 50 0 51 0;
#X connect 50 1 52 0;
#X connect 51 0 49 0;
#X connect 52 0 49 0;
#X connect 54 0 28 0;
#X connect 54 1 29 0;
#X connect 54 2 21 0;
#X connect 54 3 17 0;
#X connect 54 4 55 0;
#X connect 55 0 50 0;
#X connect 56 0 72 0;
#X connect 59 0 60 0;
#X connect 61 0 59 0;
#X connect 62 0 63 0;
#X connect 63 0 42 0;
#X connect 66 0 68 0;
#X connect 66 0 73 0;
#X connect 67 0 69 0;
#X connect 68 0 69 0;
#X connect 68 1 69 1;
#X connect 69 0 70 0;
#X connect 70 0 71 0;
#X connect 71 0 72 1;
#X connect 72 0 75 0;
#X connect 73 0 74 0;
#X connect 74 0 75 1;
#X connect 75 0 61 0;
#X connect 75 0 103 0;
#X connect 77 0 94 1;
#X connect 79 0 80 0;
#X connect 80 0 81 0;
#X connect 81 0 82 0;
#X connect 81 1 80 1;
#X connect 83 0 84 0;
#X connect 84 0 86 0;
#X connect 84 1 86 0;
#X connect 85 0 90 0;
#X connect 86 0 87 0;
#X connect 86 1 88 0;
#X connect 87 0 85 0;
#X connect 88 0 85 0;
#X connect 90 0 89 0;
#X connect 91 0 80 1;
#X connect 92 0 93 0;
#X connect 93 0 97 0;
#X connect 94 0 95 0;
#X connect 96 0 0 1;
#X connect 96 0 1 1;
#X connect 96 0 2 1;
#X connect 96 0 3 1;
#X connect 96 0 56 1;
#X connect 97 0 94 0;
#X connect 102 0 105 0;
#X connect 104 0 97 1;
#X connect 105 0 92 0;
#X coords 0 -1 1 1 130 159 2 300 20;
