#N canvas 840 230 605 403 10;
#N canvas 35 77 504 68 NETPD 0;
#X msg 10 8 version 0 0 4;
#X restore 145 20 pd NETPD 2 0;
#X obj 229 75 netpd_f \$1 \$2/floor 0;
#X obj 245 105 netpd_f \$1 \$2/ceiling 1;
#X obj 108 159 *~ 1;
#X obj 108 181 +~ 0;
#X obj 229 137 t b a;
#X obj 245 168 -, f 7;
#X obj 23 37 hsl 75 18 0 127 0 0 \$0.blu \$0.bli VCA 0 10 0 14 #e3c6ff #e3c6ff #2f004d 0 1;
#X obj 23 55 hsl 75 18 0 1 0 0 \$1-\$2/floor \$1-\$2/floor floor 2 9 0 12 #000000 #ffc7c6 #ffc7c6 0 1;
#X obj 23 73 hsl 75 18 0 1 0 0 \$1-\$2/ceiling \$1-\$2/ceiling ceiling 2 9 0 12 #000000 #ffe3c6 #ffe3c6 0 1;
#X obj 26 211 *~;
#X obj 20 20 golana-module-label 80 23;
#X obj 20 92 golana-module-label 80 23;
#X obj 20 20 golana-module-in sig;
#X obj 80 20 golana-module-in CV;
#X obj 20 92 golana-module-out sig;
#X obj 26 136 catch~ \$1-sig-\$2;
#X obj 107 96 catch~ \$1-CV-\$2;
#X obj 25 262 send~ \$1-sig-\$2;
#X obj 397 258 switch~;
#N canvas 373 501 649 413 link.detection 0;
#X obj 28 56 t b a;
#X obj 28 79 f;
#X obj 28 102 +;
#X obj 28 125 t a a;
#X obj 28 149 > 0;
#X obj 28 356 s \$1-sig-\$2-out;
#X obj 28 281 sel 0;
#X msg 28 304 -1;
#X obj 28 251 t a a, f 12;
#X obj 28 174 change 0;
#X obj 28 10 r \$1-sig-\$2-in;
#X obj 387 63 t b a;
#X obj 387 86 f;
#X obj 387 109 +;
#X obj 387 132 t a a;
#X obj 387 156 > 0;
#X obj 387 17 r \$1-CV-\$2-in;
#X obj 28 33 route downlink;
#X obj 387 40 route downlink;
#X msg 28 327 downlink \$1;
#X obj 263 63 t b a;
#X obj 263 86 f;
#X obj 263 109 +;
#X obj 263 132 t a a;
#X obj 263 156 > 0;
#X obj 263 288 sel 0;
#X msg 263 311 -1;
#X obj 263 238 t a a, f 12;
#X obj 263 184 change 0;
#X obj 263 17 r \$1-sig-\$2-out;
#X obj 263 40 route uplink;
#X msg 263 334 uplink \$1;
#X obj 263 360 s \$1-CV-\$2-in;
#X obj 179 332 outlet;
#X obj 179 301 &&, f 5;
#X obj 179 271 t b a;
#X obj 387 212 sel 0;
#X msg 387 235 -1;
#X obj 387 181 change 0;
#X msg 387 258 uplink \$1;
#X obj 387 284 s \$1-sig-\$2-in;
#X obj 126 171 s golana-com;
#X obj 126 124 list prepend \$1 \$2;
#X msg 126 148 \$1-\$2-label dsp \$3;
#X connect 0 0 1 0;
#X connect 0 1 2 1;
#X connect 1 0 2 0;
#X connect 2 0 3 0;
#X connect 3 0 4 0;
#X connect 3 1 1 1;
#X connect 4 0 9 0;
#X connect 6 0 7 0;
#X connect 6 1 19 0;
#X connect 7 0 19 0;
#X connect 8 0 6 0;
#X connect 8 1 34 0;
#X connect 9 0 8 0;
#X connect 10 0 17 0;
#X connect 11 0 12 0;
#X connect 11 1 13 1;
#X connect 12 0 13 0;
#X connect 13 0 14 0;
#X connect 14 0 15 0;
#X connect 14 1 12 1;
#X connect 15 0 38 0;
#X connect 16 0 18 0;
#X connect 17 0 0 0;
#X connect 18 0 11 0;
#X connect 19 0 5 0;
#X connect 20 0 21 0;
#X connect 20 1 22 1;
#X connect 21 0 22 0;
#X connect 22 0 23 0;
#X connect 23 0 24 0;
#X connect 23 1 21 1;
#X connect 24 0 28 0;
#X connect 25 0 26 0;
#X connect 25 1 31 0;
#X connect 26 0 31 0;
#X connect 27 0 25 0;
#X connect 27 1 35 0;
#X connect 28 0 27 0;
#X connect 29 0 30 0;
#X connect 30 0 20 0;
#X connect 31 0 32 0;
#X connect 34 0 33 0;
#X connect 34 0 42 0;
#X connect 35 0 34 0;
#X connect 35 1 34 1;
#X connect 36 0 37 0;
#X connect 36 1 39 0;
#X connect 37 0 39 0;
#X connect 38 0 36 0;
#X connect 39 0 40 0;
#X connect 42 0 43 0;
#X connect 43 0 41 0;
#X restore 397 223 pd link.detection;
#X connect 1 0 5 0;
#X connect 1 0 4 1;
#X connect 2 0 6 0;
#X connect 3 0 4 0;
#X connect 4 0 10 1;
#X connect 5 0 6 0;
#X connect 5 1 6 1;
#X connect 6 0 3 1;
#X connect 10 0 18 0;
#X connect 16 0 10 0;
#X connect 17 0 3 0;
#X connect 20 0 19 0;
#X coords 0 -1 1 1 80 88 2 20 20;
