#N canvas 840 230 605 403 10;
#N canvas 35 77 504 68 NETPD 0;
#X msg 10 8 version 0 0 3;
#X restore 145 20 pd NETPD 2 0;
#X obj 229 75 netpd_f \$1 \$2/floor 0;
#X obj 245 105 netpd_f \$1 \$2/ceiling 1;
#X obj 108 159 *~ 1;
#X obj 108 181 +~ 0;
#X obj 229 137 t b a;
#X obj 245 168 -, f 7;
#X obj 23 37 hsl 75 18 0 127 0 0 \$0.blu \$0.bli VCA 0 10 0 14 #e3c6ff #e3c6ff #2f004d 0 1;
#X obj 23 55 hsl 75 18 0 1 0 0 \$1-\$2/floor \$1-\$2/floor floor 2 9 0 12 #000000 #ffc7c6 #ffc7c6 0 1;
#X obj 23 73 hsl 75 18 0 1 0 0 \$1-\$2/ceiling \$1-\$2/ceiling ceiling 2 9 0 12 #000000 #ffe3c6 #ffe3c6 0 1;
#X obj 26 211 *~;
#X obj 20 20 golana-module-label 80 23;
#X obj 20 92 golana-module-label 80 23;
#X obj 20 20 golana-module-in sig;
#X obj 80 20 golana-module-in CV;
#X obj 20 92 golana-module-out sig;
#X obj 26 136 catch~ \$1-sig-\$2;
#X obj 107 96 catch~ \$1-CV-\$2;
#X obj 25 262 send~ \$1-sig-\$2;
#X obj 403 37 route connect;
#X obj 403 60 t b a;
#X obj 403 83 f;
#X obj 403 106 +;
#X obj 403 129 t a a;
#X obj 403 153 > 0;
#X obj 403 360 s \$1-sig-\$2-out;
#X obj 403 285 sel 0;
#X msg 403 308 -1;
#X msg 403 331 connect \$1;
#X obj 403 255 t a a, f 12;
#X obj 472 298 switch~;
#X obj 403 228 change 0;
#X obj 403 14 r \$1-sig-\$2-in;
#X obj 494 37 route connect;
#X obj 494 60 t b a;
#X obj 494 83 f;
#X obj 494 106 +;
#X obj 494 129 t a a;
#X obj 494 153 > 0;
#X obj 494 14 r \$1-CV-\$2-in;
#X obj 403 204 &&;
#X obj 494 176 t b a;
#X connect 1 0 5 0;
#X connect 1 0 4 1;
#X connect 2 0 6 0;
#X connect 3 0 4 0;
#X connect 4 0 10 1;
#X connect 5 0 6 0;
#X connect 5 1 6 1;
#X connect 6 0 3 1;
#X connect 10 0 18 0;
#X connect 16 0 10 0;
#X connect 17 0 3 0;
#X connect 19 0 20 0;
#X connect 20 0 21 0;
#X connect 20 1 22 1;
#X connect 21 0 22 0;
#X connect 22 0 23 0;
#X connect 23 0 24 0;
#X connect 23 1 21 1;
#X connect 24 0 40 0;
#X connect 26 0 27 0;
#X connect 26 1 28 0;
#X connect 27 0 28 0;
#X connect 28 0 25 0;
#X connect 29 0 26 0;
#X connect 29 1 30 0;
#X connect 31 0 29 0;
#X connect 32 0 19 0;
#X connect 33 0 34 0;
#X connect 34 0 35 0;
#X connect 34 1 36 1;
#X connect 35 0 36 0;
#X connect 36 0 37 0;
#X connect 37 0 38 0;
#X connect 37 1 35 1;
#X connect 38 0 41 0;
#X connect 39 0 33 0;
#X connect 40 0 31 0;
#X connect 41 0 40 0;
#X connect 41 1 40 1;
#X coords 0 -1 1 1 80 88 2 20 20;
