#N canvas 840 230 517 471 10;
#N canvas 35 77 504 68 NETPD 0;
#X msg 10 8 version 0 0 2;
#X restore 367 10 pd NETPD 2 0;
#X obj 23 37 hsl 75 18 0 127 0 0 \$0.blu \$0.bli mixer 0 10 0 14 #e3c6ff #e3c6ff #2f004d 0 1;
#X obj 23 55 hsl 75 18 0 1 0 0 \$1-\$2/level \$1-\$2/level level 2 9 0 12 #000000 #ffc7c6 #ffc7c6 0 1;
#X obj 23 73 hsl 75 18 0 1 0 0 \$1-\$2/pan \$1-\$2/pan pan 2 9 0 12 #000000 #ffe3c6 #ffe3c6 0 1;
#X obj 20 20 golana-module-label 80 23;
#X obj 20 20 golana-module-in sig;
#X obj 152 122 netpd_f \$1 \$2/level 0.8;
#X obj 208 199 netpd_f \$1 \$2/pan 0.5;
#N canvas 698 400 450 300 pan____ 0;
#X obj 115 118 cos;
#X obj 215 122 atan;
#X msg 215 101 1;
#X obj 215 144 * 2;
#X obj 115 73 *;
#X obj 142 117 sin;
#X obj 14 9 inlet;
#X obj 188 11 inlet;
#X obj 14 246 outlet;
#X obj 73 245 outlet;
#X obj 190 246 outlet;
#X obj 215 80 loadbang;
#X obj 115 95 t a a;
#X obj 14 201 *;
#X obj 27 171 t b a;
#X obj 73 204 *;
#X obj 86 174 t b a;
#X text 234 11 range: 0-1;
#X text 237 27 default: 0.5;
#X obj 14 116 t a a;
#X connect 0 0 14 0;
#X connect 1 0 3 0;
#X connect 2 0 1 0;
#X connect 3 0 4 1;
#X connect 4 0 12 0;
#X connect 5 0 16 0;
#X connect 6 0 19 0;
#X connect 7 0 4 0;
#X connect 11 0 2 0;
#X connect 12 0 0 0;
#X connect 12 1 5 0;
#X connect 13 0 8 0;
#X connect 14 0 13 0;
#X connect 14 1 13 1;
#X connect 15 0 9 0;
#X connect 16 0 15 0;
#X connect 16 1 15 1;
#X connect 19 0 13 0;
#X connect 19 1 15 0;
#X restore 151 238 pd pan____;
#X obj 24 277 *~ 0;
#X obj 62 276 *~ 0;
#X obj 152 171 pow 4;
#X obj 159 26 rh_slider_doubleclick \$1-\$2/pan;
#X obj 159 76 s \$1-\$2/pan;
#X msg 159 49 0.5;
#X obj 152 146 * 1.05;
#X obj 23 366 throw~ \$1-golana-to-mx-l;
#X obj 61 335 throw~ \$1-golana-to-mx-r;
#X obj 25 121 catch~ \$1-sig-\$2;
#X connect 6 0 15 0;
#X connect 7 0 8 1;
#X connect 8 0 9 1;
#X connect 8 1 10 1;
#X connect 9 0 16 0;
#X connect 10 0 17 0;
#X connect 11 0 8 0;
#X connect 12 0 14 0;
#X connect 14 0 13 0;
#X connect 15 0 11 0;
#X connect 18 0 9 0;
#X connect 18 0 10 0;
#X coords 0 -1 1 1 80 71 2 20 20;
