#N canvas 831 82 950 557 10;
#N canvas 912 398 429 80 NETPD 0;
#X msg 28 13 version 0 0 1;
#X restore 12 16 pd NETPD 2 0;
#N canvas 473 40 591 882 create 0;
#X obj 39 71 pdcontrol;
#X msg 39 44 args 0;
#X obj 39 94 list split 2;
#N canvas 35 77 450 300 iterate 0;
#X obj 14 106 until;
#X obj 14 214 list store, f 17;
#X obj 14 131 f;
#X obj 52 132 + 1;
#X msg 63 106 0;
#X msg 14 188 get \$1 1;
#X obj 14 78 t b b a, f 17;
#X obj 14 46 inlet;
#X obj 14 248 outlet;
#X obj 14 159 t a a;
#X obj 100 255 outlet;
#X connect 0 0 2 0;
#X connect 1 0 8 0;
#X connect 1 1 0 1;
#X connect 2 0 3 0;
#X connect 2 0 9 0;
#X connect 3 0 2 1;
#X connect 4 0 2 1;
#X connect 5 0 1 0;
#X connect 6 0 0 0;
#X connect 6 1 4 0;
#X connect 6 2 1 1;
#X connect 7 0 6 0;
#X connect 9 0 5 0;
#X connect 9 1 10 0;
#X restore 100 145 pd iterate;
#X obj 100 172 sel |;
#X obj 73 121 t a a;
#X obj 100 199 f, f 10;
#X obj 73 229 list split 1;
#X obj 107 252 list split 1;
#X obj 168 306 list length;
#X obj 100 344 list length;
#X obj 100 422 pack f f, f 12;
#N canvas 35 77 450 300 iterate 0;
#X obj 14 106 until;
#X obj 14 214 list store, f 17;
#X obj 14 131 f;
#X obj 52 132 + 1;
#X msg 63 106 0;
#X msg 14 188 get \$1 1;
#X obj 14 78 t b b a, f 17;
#X obj 14 46 inlet;
#X obj 14 248 outlet;
#X obj 14 159 t a a;
#X obj 100 255 outlet;
#X connect 0 0 2 0;
#X connect 1 0 8 0;
#X connect 1 1 0 1;
#X connect 2 0 3 0;
#X connect 2 0 9 0;
#X connect 3 0 2 1;
#X connect 4 0 2 1;
#X connect 5 0 1 0;
#X connect 6 0 0 0;
#X connect 6 1 4 0;
#X connect 6 2 1 1;
#X connect 7 0 6 0;
#X connect 9 0 5 0;
#X connect 9 1 10 0;
#X restore 73 469 pd iterate;
#X obj 73 492 list append;
#X obj 73 520 t a a, f 19;
#X obj 73 546 list split 1;
#N canvas 35 77 450 300 iterate 0;
#X obj 14 106 until;
#X obj 14 214 list store, f 17;
#X obj 14 131 f;
#X obj 52 132 + 1;
#X msg 63 106 0;
#X msg 14 188 get \$1 1;
#X obj 14 78 t b b a, f 17;
#X obj 14 46 inlet;
#X obj 14 248 outlet;
#X obj 14 159 t a a;
#X obj 100 255 outlet;
#X connect 0 0 2 0;
#X connect 1 0 8 0;
#X connect 1 1 0 1;
#X connect 2 0 3 0;
#X connect 2 0 9 0;
#X connect 3 0 2 1;
#X connect 4 0 2 1;
#X connect 5 0 1 0;
#X connect 6 0 0 0;
#X connect 6 1 4 0;
#X connect 6 2 1 1;
#X connect 7 0 6 0;
#X connect 9 0 5 0;
#X connect 9 1 10 0;
#X restore 107 573 pd iterate;
#X obj 107 596 list prepend, f 19;
#X obj 184 544 list split 1;
#X obj 176 641 pack f f;
#X obj 107 750 list prepend;
#X msg 176 694 \$2 \$1;
#N canvas 1648 491 367 217 scale+offset 0;
#X obj 17 10 inlet;
#X obj 17 33 unpack f f;
#X obj 17 137 pack f f, f 10;
#X obj 17 160 outlet;
#X obj 17 86 + 40;
#X obj 74 86 + 40;
#X obj 17 64 * 30;
#X obj 74 63 * 30;
#X obj 137 24 r \$0.size;
#X obj 74 112 +;
#X obj 145 86 * 2;
#X connect 0 0 1 0;
#X connect 1 0 6 0;
#X connect 1 1 7 0;
#X connect 2 0 3 0;
#X connect 4 0 2 0;
#X connect 5 0 9 0;
#X connect 6 0 4 0;
#X connect 7 0 5 0;
#X connect 8 0 7 1;
#X connect 8 0 6 1;
#X connect 8 0 10 0;
#X connect 9 0 2 1;
#X connect 10 0 9 1;
#X restore 176 717 pd scale+offset;
#X msg 248 110 clear;
#X obj 198 23 bng 18 250 50 0 empty empty empty 0 -9 0 10 #fcfcfc #000000 #000000;
#X obj 107 619 list prepend golana-link \$1 \$2;
#X obj 107 773 list prepend obj;
#X obj 107 824 list trim;
#X obj 107 852 s pd-\$0.gop;
#X obj 220 180 s pd-\$0.gop;
#X obj 100 444 s \$0.gop.dimen;
#X obj 168 371 * 30;
#X obj 100 371 * 30;
#N canvas 989 821 300 250 colors 0;
#X obj 35 14 inlet;
#X obj 35 199 outlet;
#X obj 35 59 unpack f f;
#N canvas 35 77 461 330 convert.to.color 0;
#X obj 41 20 inlet;
#X obj 41 243 outlet;
#X obj 41 43 mod 7;
#X obj 41 80 select 0 1 2 3 4 5 6, f 54;
#X msg 41 113 #ffcccc #886666;
#X msg 86 138 #ffddcc #887766;
#X msg 132 163 #ffffcc #888866;
#X msg 178 111 #ccffcc #668866;
#X msg 224 137 #ccffff #668888;
#X msg 270 160 #ccccff #666688;
#X msg 316 111 #ffccff #886688;
#X connect 0 0 2 0;
#X connect 2 0 3 0;
#X connect 3 0 4 0;
#X connect 3 1 5 0;
#X connect 3 2 6 0;
#X connect 3 3 7 0;
#X connect 3 4 8 0;
#X connect 3 5 9 0;
#X connect 3 6 10 0;
#X connect 4 0 1 0;
#X connect 5 0 1 0;
#X connect 6 0 1 0;
#X connect 7 0 1 0;
#X connect 8 0 1 0;
#X connect 9 0 1 0;
#X connect 10 0 1 0;
#X restore 35 106 pd convert.to.color;
#X obj 35 171 list append;
#N canvas 35 77 461 330 convert.to.color 0;
#X obj 41 20 inlet;
#X obj 41 243 outlet;
#X obj 82 63 mod 7;
#X obj 82 100 select 0 1 2 3 4 5 6, f 54;
#X msg 127 158 #ffddcc;
#X msg 173 183 #ffffcc;
#X msg 219 131 #ccffcc;
#X msg 265 157 #ccffff;
#X msg 311 180 #ccccff;
#X msg 357 131 #ffccff;
#X msg 82 133 #ffcc;
#X msg 25 157 #bbbbbb;
#X connect 0 0 11 0;
#X connect 2 0 3 0;
#X connect 3 0 10 0;
#X connect 3 1 4 0;
#X connect 3 2 5 0;
#X connect 3 3 6 0;
#X connect 3 4 7 0;
#X connect 3 5 8 0;
#X connect 3 6 9 0;
#X connect 4 0 1 0;
#X connect 5 0 1 0;
#X connect 6 0 1 0;
#X connect 7 0 1 0;
#X connect 8 0 1 0;
#X connect 9 0 1 0;
#X connect 10 0 1 0;
#X connect 11 0 1 0;
#X restore 92 132 pd convert.to.color;
#X connect 0 0 2 0;
#X connect 2 0 3 0;
#X connect 2 1 5 0;
#X connect 3 0 4 0;
#X connect 4 0 1 0;
#X connect 5 0 4 1;
#X restore 287 716 pd colors;
#X obj 176 664 t a a, f 19;
#X obj 107 799 list append, f 30;
#X obj 228 40 loadbang, f 9;
#X msg 192 108 loadbang;
#X obj 223 78 t b b b, f 16;
#X msg 316 109 24;
#X obj 316 134 s \$0.size;
#X obj 202 337 r \$0.size;
#X obj 141 276 t a a a, f 10;
#X obj 100 396 + 80;
#X obj 254 457 r \$0.size;
#X obj 254 480 * 4;
#X obj 168 398 +;
#N canvas 1395 742 450 491 hlabels 0;
#X obj 149 21 inlet;
#X obj 44 19 r \$0.gop.dimen;
#X obj 44 42 unpack f f;
#X obj 44 76 t b a, f 31;
#X obj 44 99 list append;
#N canvas 35 77 450 300 iterate 0;
#X obj 14 106 until;
#X obj 14 214 list store, f 17;
#X obj 14 131 f;
#X obj 52 132 + 1;
#X msg 63 106 0;
#X msg 14 188 get \$1 1;
#X obj 14 78 t b b a, f 17;
#X obj 14 46 inlet;
#X obj 14 248 outlet;
#X obj 14 159 t a a;
#X obj 100 255 outlet;
#X connect 0 0 2 0;
#X connect 1 0 8 0;
#X connect 1 1 0 1;
#X connect 2 0 3 0;
#X connect 2 0 9 0;
#X connect 3 0 2 1;
#X connect 4 0 2 1;
#X connect 5 0 1 0;
#X connect 6 0 0 0;
#X connect 6 1 4 0;
#X connect 6 2 1 1;
#X connect 7 0 6 0;
#X connect 9 0 5 0;
#X connect 9 1 10 0;
#X restore 44 124 pd iterate;
#X obj 101 168 * 30;
#X obj 140 168 r \$0.size;
#X obj 101 192 + 40;
#X obj 101 255 list prepend;
#X obj 44 304 list prepend;
#N canvas 35 77 461 330 convert.to.color 0;
#X obj 41 20 inlet;
#X obj 41 243 outlet;
#X obj 41 43 mod 7;
#X obj 41 80 select 0 1 2 3 4 5 6, f 54;
#X msg 41 113 #ffcccc #886666;
#X msg 86 138 #ffddcc #887766;
#X msg 132 163 #ffffcc #888866;
#X msg 178 111 #ccffcc #668866;
#X msg 224 137 #ccffff #668888;
#X msg 270 160 #ccccff #666688;
#X msg 316 111 #ffccff #886688;
#X connect 0 0 2 0;
#X connect 2 0 3 0;
#X connect 3 0 4 0;
#X connect 3 1 5 0;
#X connect 3 2 6 0;
#X connect 3 3 7 0;
#X connect 3 4 8 0;
#X connect 3 5 9 0;
#X connect 3 6 10 0;
#X connect 4 0 1 0;
#X connect 5 0 1 0;
#X connect 6 0 1 0;
#X connect 7 0 1 0;
#X connect 8 0 1 0;
#X connect 9 0 1 0;
#X connect 10 0 1 0;
#X restore 230 191 pd convert.to.color;
#X obj 101 146 t a a, f 22;
#X obj 44 279 list prepend golana-hlabel;
#X obj 44 348 list append, f 31;
#X obj 44 371 list append #bbbbbb;
#X obj 43 426 s pd-\$0.gop, f 12;
#X obj 44 394 list trim;
#X obj 44 326 list prepend obj;
#X obj 216 113 + -40;
#X obj 101 224 +;
#X obj 205 221 r \$0.size;
#X obj 205 244 * 2;
#X connect 0 0 4 1;
#X connect 1 0 2 0;
#X connect 2 0 3 0;
#X connect 3 0 4 0;
#X connect 3 1 19 0;
#X connect 4 0 5 0;
#X connect 5 0 13 0;
#X connect 5 1 12 0;
#X connect 6 0 8 0;
#X connect 7 0 6 1;
#X connect 8 0 20 0;
#X connect 9 0 10 1;
#X connect 10 0 18 0;
#X connect 11 0 14 1;
#X connect 12 0 6 0;
#X connect 12 1 11 0;
#X connect 13 0 10 0;
#X connect 14 0 15 0;
#X connect 15 0 17 0;
#X connect 17 0 16 0;
#X connect 18 0 14 0;
#X connect 19 0 9 1;
#X connect 20 0 9 0;
#X connect 21 0 22 0;
#X connect 22 0 20 1;
#X restore 301 358 pd hlabels;
#X obj 73 320 t a a a;
#N canvas 825 134 677 503 vlabels 0;
#X obj 238 28 inlet;
#X obj 67 13 r \$0.gop.dimen;
#N canvas 787 151 437 414 blank.canvasses 0;
#X obj 27 46 unpack f f, f 24;
#X obj 93 74 r \$0.size;
#X obj 93 97 * 2;
#X obj 93 120 - 1;
#X obj 27 105 pack f f;
#X obj 27 365 s pd-\$0.gop;
#X obj 27 200 list append 40 40;
#X obj 27 136 t a a;
#X obj 181 167 list prepend 40;
#X obj 142 202 list append;
#X obj 181 135 - 7;
#X obj 27 17 inlet;
#X obj 27 240 list append \$2;
#X obj 27 280 list append, f 27;
#X text 120 242 label;
#X text 206 281 label pos;
#X obj 27 76 t a a;
#X obj 186 251 - 60;
#X msg 27 320 obj \$3 \$4 cnv 18 \$1 \$2 empty empty \$5 \$6 24 0 30 #f9fbfc #d7d9da 0;
#X connect 0 0 16 0;
#X connect 0 1 10 0;
#X connect 1 0 2 0;
#X connect 2 0 3 0;
#X connect 3 0 4 1;
#X connect 4 0 7 0;
#X connect 6 0 12 0;
#X connect 7 0 6 0;
#X connect 7 1 9 0;
#X connect 8 0 9 1;
#X connect 9 0 12 0;
#X connect 10 0 8 0;
#X connect 11 0 0 0;
#X connect 12 0 13 0;
#X connect 13 0 18 0;
#X connect 16 0 4 0;
#X connect 16 1 17 0;
#X connect 17 0 13 1;
#X connect 18 0 5 0;
#X restore 178 80 pd blank.canvasses;
#X obj 67 36 t a a, f 19;
#X obj 67 59 t b a, f 13;
#X obj 67 107 list append;
#N canvas 35 77 461 330 convert.to.color 0;
#X obj 41 20 inlet;
#X obj 41 243 outlet;
#X obj 41 43 mod 7;
#X obj 41 80 select 0 1 2 3 4 5 6, f 54;
#X msg 41 113 #ffcccc #886666;
#X msg 86 138 #ffddcc #887766;
#X msg 132 163 #ffffcc #888866;
#X msg 178 111 #ccffcc #668866;
#X msg 224 137 #ccffff #668888;
#X msg 270 160 #ccccff #666688;
#X msg 316 111 #ffccff #886688;
#X connect 0 0 2 0;
#X connect 2 0 3 0;
#X connect 3 0 4 0;
#X connect 3 1 5 0;
#X connect 3 2 6 0;
#X connect 3 3 7 0;
#X connect 3 4 8 0;
#X connect 3 5 9 0;
#X connect 3 6 10 0;
#X connect 4 0 1 0;
#X connect 5 0 1 0;
#X connect 6 0 1 0;
#X connect 7 0 1 0;
#X connect 8 0 1 0;
#X connect 9 0 1 0;
#X connect 10 0 1 0;
#X restore 215 184 pd convert.to.color;
#N canvas 35 77 450 300 iterate 0;
#X obj 14 106 until;
#X obj 14 214 list store, f 17;
#X obj 14 131 f;
#X msg 14 188 get \$1 1;
#X obj 14 46 inlet;
#X obj 14 248 outlet;
#X obj 14 159 t a a;
#X obj 100 255 outlet;
#X obj 62 134 - 1;
#X obj 63 104 list length;
#X obj 14 78 t b a a, f 17;
#X connect 0 0 2 0;
#X connect 1 0 5 0;
#X connect 1 1 0 1;
#X connect 2 0 6 0;
#X connect 2 0 8 0;
#X connect 3 0 1 0;
#X connect 4 0 10 0;
#X connect 6 0 3 0;
#X connect 6 1 7 0;
#X connect 8 0 2 1;
#X connect 9 0 8 0;
#X connect 10 0 0 0;
#X connect 10 1 9 0;
#X connect 10 2 1 1;
#X restore 67 131 pd iterate;
#X obj 124 203 *;
#X obj 139 180 r \$0.size;
#X obj 124 227 + 40;
#X obj 124 284 list append 40;
#X obj 67 334 list prepend;
#X obj 67 307 list prepend golana-vlabel;
#X obj 67 357 list append, f 25;
#X obj 67 400 list prepend obj;
#X obj 67 451 s pd-\$0.gop;
#X obj 67 423 list trim;
#X obj 124 154 t a a a, f 31;
#X obj 67 379 list append, f 40;
#X obj 307 218 mod 2;
#X obj 363 345 list prepend;
#X obj 363 318 list prepend golana-vlabel;
#X obj 363 368 list append, f 25;
#X obj 363 411 list prepend obj;
#X obj 363 462 s pd-\$0.gop;
#X obj 363 434 list trim;
#X obj 363 390 list append, f 40;
#X obj 67 261 t a a;
#X obj 469 223 + 40;
#X obj 469 246 -, f 8;
#X obj 514 174 r \$0.size;
#X obj 514 197 * 2;
#X obj 412 200 unpack f f;
#X obj 124 248 t a a;
#X obj 408 285 list append;
#X obj 514 222 - 1;
#X connect 0 0 5 1;
#X connect 1 0 3 0;
#X connect 3 0 4 0;
#X connect 3 1 2 0;
#X connect 4 0 5 0;
#X connect 4 1 33 0;
#X connect 5 0 7 0;
#X connect 6 0 14 1;
#X connect 6 0 23 1;
#X connect 7 0 28 0;
#X connect 7 1 18 0;
#X connect 8 0 10 0;
#X connect 9 0 8 1;
#X connect 10 0 34 0;
#X connect 11 0 12 1;
#X connect 12 0 14 0;
#X connect 13 0 12 0;
#X connect 14 0 19 0;
#X connect 15 0 17 0;
#X connect 17 0 16 0;
#X connect 18 0 8 0;
#X connect 18 1 6 0;
#X connect 18 2 20 0;
#X connect 19 0 15 0;
#X connect 20 0 19 1;
#X connect 20 0 27 1;
#X connect 21 0 23 0;
#X connect 22 0 21 0;
#X connect 23 0 27 0;
#X connect 24 0 26 0;
#X connect 26 0 25 0;
#X connect 27 0 24 0;
#X connect 28 0 13 0;
#X connect 28 1 22 0;
#X connect 29 0 30 0;
#X connect 30 0 35 1;
#X connect 31 0 32 0;
#X connect 32 0 36 0;
#X connect 33 1 29 0;
#X connect 34 0 11 0;
#X connect 34 1 35 0;
#X connect 35 0 21 1;
#X connect 36 0 30 1;
#X restore 266 402 pd vlabels;
#X msg 358 270 goprect 160 20 \$1 \$2;
#X obj 358 293 s \$0.top;
#X obj 358 238 r \$0.gop.dimen;
#X connect 0 0 2 0;
#X connect 1 0 0 0;
#X connect 2 1 5 0;
#X connect 3 0 4 0;
#X connect 3 1 6 1;
#X connect 4 0 6 0;
#X connect 5 0 7 0;
#X connect 5 1 3 0;
#X connect 6 0 7 1;
#X connect 7 0 48 0;
#X connect 7 1 8 0;
#X connect 8 1 42 0;
#X connect 9 0 31 0;
#X connect 10 0 32 0;
#X connect 11 0 30 0;
#X connect 12 0 13 0;
#X connect 12 1 19 1;
#X connect 13 0 14 0;
#X connect 14 0 15 0;
#X connect 14 1 18 0;
#X connect 15 1 16 0;
#X connect 16 0 17 0;
#X connect 16 1 19 0;
#X connect 17 0 25 0;
#X connect 18 0 17 1;
#X connect 19 0 34 0;
#X connect 20 0 26 0;
#X connect 21 0 22 0;
#X connect 22 0 20 1;
#X connect 23 0 29 0;
#X connect 24 0 38 0;
#X connect 25 0 20 0;
#X connect 26 0 35 0;
#X connect 27 0 28 0;
#X connect 31 0 46 0;
#X connect 32 0 43 0;
#X connect 33 0 35 1;
#X connect 34 0 21 0;
#X connect 34 1 33 0;
#X connect 35 0 27 0;
#X connect 36 0 38 0;
#X connect 37 0 29 0;
#X connect 38 0 1 0;
#X connect 38 0 37 0;
#X connect 38 1 23 0;
#X connect 38 2 39 0;
#X connect 39 0 40 0;
#X connect 41 0 31 1;
#X connect 41 0 32 1;
#X connect 42 0 13 1;
#X connect 42 1 9 0;
#X connect 42 2 47 0;
#X connect 43 0 11 0;
#X connect 44 0 45 0;
#X connect 45 0 46 1;
#X connect 46 0 11 1;
#X connect 48 0 12 0;
#X connect 48 1 10 0;
#X connect 48 2 49 0;
#X connect 50 0 51 0;
#X connect 52 0 50 0;
#X restore 12 44 pd create;
#X obj 160 20 golana-router-gop \$0.gop;
#X obj 12 74 namecanvas \$0.top;
#X coords 0 -1 1 1 296 312 2 160 20;
