#N canvas 1264 109 1130 581 10;
#N canvas 912 398 429 80 NETPD 0;
#X msg 28 13 version 0 0 1;
#X restore 19 18 pd NETPD 2 0;
#N canvas 653 474 591 882 create 0;
#X obj 39 71 pdcontrol;
#X msg 39 44 args 0;
#X obj 39 94 list split 2;
#N canvas 35 77 450 300 iterate 0;
#X obj 14 106 until;
#X obj 14 214 list store, f 17;
#X obj 14 131 f;
#X obj 52 132 + 1;
#X msg 63 106 0;
#X msg 14 188 get \$1 1;
#X obj 14 78 t b b a, f 17;
#X obj 14 46 inlet;
#X obj 14 248 outlet;
#X obj 14 159 t a a;
#X obj 100 255 outlet;
#X connect 0 0 2 0;
#X connect 1 0 8 0;
#X connect 1 1 0 1;
#X connect 2 0 3 0;
#X connect 2 0 9 0;
#X connect 3 0 2 1;
#X connect 4 0 2 1;
#X connect 5 0 1 0;
#X connect 6 0 0 0;
#X connect 6 1 4 0;
#X connect 6 2 1 1;
#X connect 7 0 6 0;
#X connect 9 0 5 0;
#X connect 9 1 10 0;
#X restore 100 145 pd iterate;
#X obj 100 172 sel |;
#X obj 73 121 t a a;
#X obj 100 199 f, f 10;
#X obj 73 229 list split 1;
#X obj 107 252 list split 1;
#X obj 168 306 list length;
#X obj 73 320 t a a;
#X obj 100 344 list length;
#X obj 100 422 pack f f, f 12;
#N canvas 35 77 450 300 iterate 0;
#X obj 14 106 until;
#X obj 14 214 list store, f 17;
#X obj 14 131 f;
#X obj 52 132 + 1;
#X msg 63 106 0;
#X msg 14 188 get \$1 1;
#X obj 14 78 t b b a, f 17;
#X obj 14 46 inlet;
#X obj 14 248 outlet;
#X obj 14 159 t a a;
#X obj 100 255 outlet;
#X connect 0 0 2 0;
#X connect 1 0 8 0;
#X connect 1 1 0 1;
#X connect 2 0 3 0;
#X connect 2 0 9 0;
#X connect 3 0 2 1;
#X connect 4 0 2 1;
#X connect 5 0 1 0;
#X connect 6 0 0 0;
#X connect 6 1 4 0;
#X connect 6 2 1 1;
#X connect 7 0 6 0;
#X connect 9 0 5 0;
#X connect 9 1 10 0;
#X restore 73 469 pd iterate;
#X obj 73 492 list append;
#X obj 73 520 t a a, f 19;
#X obj 73 546 list split 1;
#N canvas 35 77 450 300 iterate 0;
#X obj 14 106 until;
#X obj 14 214 list store, f 17;
#X obj 14 131 f;
#X obj 52 132 + 1;
#X msg 63 106 0;
#X msg 14 188 get \$1 1;
#X obj 14 78 t b b a, f 17;
#X obj 14 46 inlet;
#X obj 14 248 outlet;
#X obj 14 159 t a a;
#X obj 100 255 outlet;
#X connect 0 0 2 0;
#X connect 1 0 8 0;
#X connect 1 1 0 1;
#X connect 2 0 3 0;
#X connect 2 0 9 0;
#X connect 3 0 2 1;
#X connect 4 0 2 1;
#X connect 5 0 1 0;
#X connect 6 0 0 0;
#X connect 6 1 4 0;
#X connect 6 2 1 1;
#X connect 7 0 6 0;
#X connect 9 0 5 0;
#X connect 9 1 10 0;
#X restore 107 573 pd iterate;
#X obj 107 596 list prepend, f 19;
#X obj 184 544 list split 1;
#X obj 176 641 pack f f;
#X obj 107 750 list prepend;
#X msg 176 694 \$2 \$1;
#N canvas 1648 491 367 168 scale+offset 0;
#X obj 17 10 inlet;
#X obj 17 33 unpack f f;
#X obj 17 111 pack f f, f 10;
#X obj 17 134 outlet;
#X obj 17 86 + 40;
#X obj 74 86 + 40;
#X obj 17 64 * 30;
#X obj 74 63 * 30;
#X obj 137 24 r \$0.size;
#X connect 0 0 1 0;
#X connect 1 0 6 0;
#X connect 1 1 7 0;
#X connect 2 0 3 0;
#X connect 4 0 2 0;
#X connect 5 0 2 1;
#X connect 6 0 4 0;
#X connect 7 0 5 0;
#X connect 8 0 7 1;
#X connect 8 0 6 1;
#X restore 176 717 pd scale+offset;
#X msg 248 110 clear;
#X obj 198 23 bng 18 250 50 0 empty empty empty 0 -9 0 10 #fcfcfc #000000 #000000;
#X obj 107 619 list prepend golana-link \$1 \$2;
#X obj 107 773 list prepend obj;
#X obj 107 824 list trim;
#X obj 107 852 s pd-\$0.gop;
#X obj 220 180 s pd-\$0.gop;
#X obj 100 444 s \$0.gop.dimen;
#X obj 168 371 * 30;
#X obj 100 371 * 30;
#N canvas 989 821 300 250 colors 0;
#X obj 35 14 inlet;
#X obj 35 199 outlet;
#X obj 35 59 unpack f f;
#N canvas 35 77 461 330 convert.to.color 0;
#X obj 41 20 inlet;
#X obj 41 243 outlet;
#X obj 41 43 mod 7;
#X obj 41 80 select 0 1 2 3 4 5 6, f 54;
#X msg 41 113 #ffcccc #886666;
#X msg 86 138 #ffddcc #887766;
#X msg 132 163 #ffffcc #888866;
#X msg 178 111 #ccffcc #668866;
#X msg 224 137 #ccffff #668888;
#X msg 270 160 #ccccff #666688;
#X msg 316 111 #ffccff #886688;
#X connect 0 0 2 0;
#X connect 2 0 3 0;
#X connect 3 0 4 0;
#X connect 3 1 5 0;
#X connect 3 2 6 0;
#X connect 3 3 7 0;
#X connect 3 4 8 0;
#X connect 3 5 9 0;
#X connect 3 6 10 0;
#X connect 4 0 1 0;
#X connect 5 0 1 0;
#X connect 6 0 1 0;
#X connect 7 0 1 0;
#X connect 8 0 1 0;
#X connect 9 0 1 0;
#X connect 10 0 1 0;
#X restore 35 106 pd convert.to.color;
#X obj 35 171 list append;
#N canvas 35 77 461 330 convert.to.color 0;
#X obj 41 20 inlet;
#X obj 41 243 outlet;
#X obj 82 63 mod 7;
#X obj 82 100 select 0 1 2 3 4 5 6, f 54;
#X msg 127 158 #ffddcc;
#X msg 173 183 #ffffcc;
#X msg 219 131 #ccffcc;
#X msg 265 157 #ccffff;
#X msg 311 180 #ccccff;
#X msg 357 131 #ffccff;
#X msg 82 133 #ffcc;
#X msg 25 157 #bbbbbb;
#X connect 0 0 11 0;
#X connect 2 0 3 0;
#X connect 3 0 10 0;
#X connect 3 1 4 0;
#X connect 3 2 5 0;
#X connect 3 3 6 0;
#X connect 3 4 7 0;
#X connect 3 5 8 0;
#X connect 3 6 9 0;
#X connect 4 0 1 0;
#X connect 5 0 1 0;
#X connect 6 0 1 0;
#X connect 7 0 1 0;
#X connect 8 0 1 0;
#X connect 9 0 1 0;
#X connect 10 0 1 0;
#X connect 11 0 1 0;
#X restore 92 132 pd convert.to.color;
#X connect 0 0 2 0;
#X connect 2 0 3 0;
#X connect 2 1 5 0;
#X connect 3 0 4 0;
#X connect 4 0 1 0;
#X connect 5 0 4 1;
#X restore 287 716 pd colors;
#X obj 176 664 t a a, f 19;
#X obj 107 799 list append, f 30;
#X obj 228 40 loadbang, f 9;
#X msg 192 108 loadbang;
#X obj 223 78 t b b b, f 16;
#X msg 316 109 24;
#X obj 316 134 s \$0.size;
#X obj 202 337 r \$0.size;
#N canvas 1395 742 450 491 vlabels 0;
#X obj 149 21 inlet;
#X obj 44 19 r \$0.gop.dimen;
#X obj 44 42 unpack f f;
#X obj 44 76 t b a, f 31;
#X obj 44 99 list append;
#N canvas 35 77 450 300 iterate 0;
#X obj 14 106 until;
#X obj 14 214 list store, f 17;
#X obj 14 131 f;
#X obj 52 132 + 1;
#X msg 63 106 0;
#X msg 14 188 get \$1 1;
#X obj 14 78 t b b a, f 17;
#X obj 14 46 inlet;
#X obj 14 248 outlet;
#X obj 14 159 t a a;
#X obj 100 255 outlet;
#X connect 0 0 2 0;
#X connect 1 0 8 0;
#X connect 1 1 0 1;
#X connect 2 0 3 0;
#X connect 2 0 9 0;
#X connect 3 0 2 1;
#X connect 4 0 2 1;
#X connect 5 0 1 0;
#X connect 6 0 0 0;
#X connect 6 1 4 0;
#X connect 6 2 1 1;
#X connect 7 0 6 0;
#X connect 9 0 5 0;
#X connect 9 1 10 0;
#X restore 44 124 pd iterate;
#X obj 101 168 * 30;
#X obj 140 168 r \$0.size;
#X obj 101 192 + 40;
#X obj 101 215 list prepend;
#X obj 44 264 list prepend;
#N canvas 35 77 461 330 convert.to.color 0;
#X obj 41 20 inlet;
#X obj 41 243 outlet;
#X obj 41 43 mod 7;
#X obj 41 80 select 0 1 2 3 4 5 6, f 54;
#X msg 41 113 #ffcccc #886666;
#X msg 86 138 #ffddcc #887766;
#X msg 132 163 #ffffcc #888866;
#X msg 178 111 #ccffcc #668866;
#X msg 224 137 #ccffff #668888;
#X msg 270 160 #ccccff #666688;
#X msg 316 111 #ffccff #886688;
#X connect 0 0 2 0;
#X connect 2 0 3 0;
#X connect 3 0 4 0;
#X connect 3 1 5 0;
#X connect 3 2 6 0;
#X connect 3 3 7 0;
#X connect 3 4 8 0;
#X connect 3 5 9 0;
#X connect 3 6 10 0;
#X connect 4 0 1 0;
#X connect 5 0 1 0;
#X connect 6 0 1 0;
#X connect 7 0 1 0;
#X connect 8 0 1 0;
#X connect 9 0 1 0;
#X connect 10 0 1 0;
#X restore 230 191 pd convert.to.color;
#X obj 101 146 t a a, f 22;
#X obj 44 239 list prepend golana-hlabel;
#X obj 44 308 list append, f 31;
#X obj 44 331 list append #bbbbbb;
#X obj 31 410 s pd-\$0.gop, f 12;
#X obj 44 354 list trim;
#X obj 117 397 print;
#X obj 44 286 list prepend obj;
#X obj 216 113 + -40;
#X connect 0 0 4 1;
#X connect 1 0 2 0;
#X connect 2 0 3 0;
#X connect 3 0 4 0;
#X connect 3 1 20 0;
#X connect 4 0 5 0;
#X connect 5 0 13 0;
#X connect 5 1 12 0;
#X connect 6 0 8 0;
#X connect 7 0 6 1;
#X connect 8 0 9 0;
#X connect 9 0 10 1;
#X connect 10 0 19 0;
#X connect 11 0 14 1;
#X connect 12 0 6 0;
#X connect 12 1 11 0;
#X connect 13 0 10 0;
#X connect 14 0 15 0;
#X connect 15 0 17 0;
#X connect 17 0 18 0;
#X connect 17 0 16 0;
#X connect 19 0 14 0;
#X connect 20 0 9 1;
#X restore 278 394 pd vlabels;
#X obj 141 276 t a a a, f 10;
#X obj 100 396 + 80;
#X connect 0 0 2 0;
#X connect 1 0 0 0;
#X connect 2 1 5 0;
#X connect 3 0 4 0;
#X connect 3 1 6 1;
#X connect 4 0 6 0;
#X connect 5 0 7 0;
#X connect 5 1 3 0;
#X connect 6 0 7 1;
#X connect 7 0 10 0;
#X connect 7 1 8 0;
#X connect 8 1 44 0;
#X connect 9 0 32 0;
#X connect 10 0 13 0;
#X connect 10 1 11 0;
#X connect 11 0 33 0;
#X connect 12 0 31 0;
#X connect 13 0 14 0;
#X connect 13 1 20 1;
#X connect 14 0 15 0;
#X connect 15 0 16 0;
#X connect 15 1 19 0;
#X connect 16 1 17 0;
#X connect 17 0 18 0;
#X connect 17 1 20 0;
#X connect 18 0 26 0;
#X connect 19 0 18 1;
#X connect 20 0 35 0;
#X connect 21 0 27 0;
#X connect 22 0 23 0;
#X connect 23 0 21 1;
#X connect 24 0 30 0;
#X connect 25 0 39 0;
#X connect 26 0 21 0;
#X connect 27 0 36 0;
#X connect 28 0 29 0;
#X connect 32 0 12 1;
#X connect 33 0 45 0;
#X connect 34 0 36 1;
#X connect 35 0 22 0;
#X connect 35 1 34 0;
#X connect 36 0 28 0;
#X connect 37 0 39 0;
#X connect 38 0 30 0;
#X connect 39 0 1 0;
#X connect 39 0 38 0;
#X connect 39 1 24 0;
#X connect 39 2 40 0;
#X connect 40 0 41 0;
#X connect 42 0 32 1;
#X connect 42 0 33 1;
#X connect 44 0 14 1;
#X connect 44 1 9 0;
#X connect 44 2 43 0;
#X connect 45 0 12 0;
#X restore 22 51 pd create;
#X obj 313 82 golana-router-gop \$0.gop;
#X obj 107 847 s pd-\$0.gop;
#X obj 387 33 cnv 10 20 48 empty empty CVmap 2 36 0 14 #c6ffc7 #668866 0;
#X obj 363 33 cnv 10 20 48 empty empty LFO3 2 12 0 14 #feffc6 #888866 0;
#X obj 339 33 cnv 10 20 48 empty empty LFO1 2 36 0 14 #ffe3c6 #887766 0;
#X obj 315 33 cnv 10 20 48 empty empty LFO1 2 12 0 14 #ffc7c6 #886666 0;
#X obj 387 420 cnv 10 20 48 empty empty CVmap 2 36 0 14 #c6ffc7 #668866 0;
#X obj 363 420 cnv 10 20 48 empty empty LFO3 2 12 0 14 #feffc6 #888866 0;
#X obj 339 420 cnv 10 20 48 empty empty LFO1 2 36 0 14 #ffe3c6 #887766 0;
#X obj 315 420 cnv 10 20 48 empty empty LFO1 2 12 0 14 #ffc7c6 #886666 0;
