#N canvas 203 305 811 416 10;
#X obj 20 20 cnv 14 20 16 empty \$0.label \$1 1 9 0 10 #ccffff #668888 0;
#N canvas 35 77 436 84 NETPD 0;
#X msg 23 26 version 0 0 3;
#X restore 17 60 pd NETPD 2 0;
#X msg 449 107 args 1;
#X obj 449 130 pdcontrol;
#X msg 449 153 list \$1 \$2;
#X obj 449 176 list append \$1;
#X obj 27 126 r golana-com;
#X obj 27 151 route _;
#X msg 449 199 symbol \$1-\$3-\$2-tx;
#X obj 27 326 s \$0.label;
#X msg 27 293 color \$1 \$1 \$2;
#X obj 380 58 loadbang;
#X obj 380 81 t b b;
#X obj 380 258 list prepend;
#X msg 380 234 getcolor;
#X obj 380 281 list trim;
#X obj 380 306 s golana-com;
#X obj 27 179 route colors upconnect, f 29;
#X obj 149 267 list append;
#X obj 27 266 list append;
#X obj 27 223 t b a;
#X obj 112 230 sel 0 1;
#X msg 149 291 color \$2 \$1 \$1;
#N canvas 35 77 376 224 count.links 0;
#X obj 30 58 t b a;
#X obj 30 81 f;
#X obj 30 104 +;
#X obj 30 127 t a a;
#X obj 30 151 > 0;
#X obj 30 30 inlet;
#X obj 30 179 outlet;
#X connect 0 0 1 0;
#X connect 0 1 2 1;
#X connect 1 0 2 0;
#X connect 2 0 3 0;
#X connect 3 0 4 0;
#X connect 3 1 1 1;
#X connect 4 0 6 0;
#X connect 5 0 0 0;
#X restore 112 204 pd count.links;
#X connect 2 0 3 0;
#X connect 3 0 4 0;
#X connect 4 0 5 0;
#X connect 5 0 8 0;
#X connect 6 0 7 0;
#X connect 7 0 17 0;
#X connect 8 0 7 1;
#X connect 8 0 13 1;
#X connect 10 0 9 0;
#X connect 11 0 12 0;
#X connect 12 0 14 0;
#X connect 12 1 2 0;
#X connect 13 0 15 0;
#X connect 14 0 13 0;
#X connect 15 0 16 0;
#X connect 17 0 18 1;
#X connect 17 0 20 0;
#X connect 17 1 23 0;
#X connect 18 0 22 0;
#X connect 19 0 10 0;
#X connect 20 0 19 0;
#X connect 20 1 19 1;
#X connect 21 0 19 0;
#X connect 21 1 18 0;
#X connect 22 0 9 0;
#X connect 23 0 21 0;
#X coords 0 -1 1 1 20 16 2 20 20;
