#N canvas 707 98 855 387 10;
#X obj 134 30 r \$1-\$2/attack;
#X obj 134 55 route float;
#N canvas 912 398 429 80 NETPD 0;
#X msg 28 13 version 0 0 1;
#N canvas 711 246 418 43 abslist 0;
#X msg 16 8 roman_helpers;
#X msg 113 9 golana-adsr-type-selector;
#X restore 27 55 pd abslist;
#X restore 753 346 pd NETPD 2 0;
#X obj 134 78 pow 2;
#X obj 134 101 * 999;
#X obj 134 124 + 1;
#X msg 131 315 label \$1;
#X obj 131 338 s \$0.value;
#X obj 238 52 route float;
#X obj 238 75 pow 2;
#X obj 238 121 + 1;
#X obj 238 27 r \$1-\$2/decay;
#X obj 238 98 * 29999;
#X obj 342 51 route float;
#X obj 342 120 pow 2;
#X obj 342 26 r \$1-\$2/sustain;
#X obj 448 52 route float;
#X obj 448 75 pow 2;
#X obj 448 121 + 1;
#X obj 448 98 * 59999;
#X obj 448 27 r \$1-\$2/release;
#X obj 33 38 hsl 82 23 0 127 0 0 empty \$0.value -------- 5 12 0 15 #000000 #000000 #ffffcc 0 1;
#X obj 134 151 t a b;
#X obj 238 152 t a b;
#X obj 342 151 t a b;
#X obj 448 149 t a b;
#X msg 341 280 #ffcccc;
#X msg 381 330 #ffffcc;
#X msg 400 353 #ccffcc;
#X obj 265 317 symbol;
#X msg 265 340 color -1 -1 \$1;
#X obj 265 362 s \$0.value;
#X msg 361 306 #ffddcc;
#X msg 160 178 1;
#X msg 261 175 2;
#X msg 369 178 3;
#X msg 475 177 4;
#X obj 341 228 change -1;
#X obj 341 251 select 1 2 3 4;
#X obj 131 291 makefilename %8.2f;
#X obj 131 237 t a b;
#X obj 38 271 del 1000;
#X msg 38 294 label --------;
#X obj 636 28 inlet;
#X obj 636 51 route float;
#X obj 636 178 rh_adsr~, f 26;
#N canvas 296 70 450 300 attack 0;
#X obj 10 38 pow 2;
#X obj 10 61 * 999;
#X obj 10 84 + 1;
#X obj 10 149 outlet;
#X obj 10 10 netpd_f \$1 \$2/attack 0.15;
#X connect 0 0 1 0;
#X connect 1 0 2 0;
#X connect 2 0 3 0;
#X connect 4 0 0 0;
#X restore 674 77 pd attack;
#X obj 635 293 outlet~;
#X obj 789 292 outlet;
#N canvas 296 70 450 300 decay 0;
#X obj 10 149 outlet;
#X obj 10 55 pow 2;
#X obj 10 101 + 1;
#X obj 10 78 * 29999;
#X obj 10 10 netpd_f \$1 \$2/decay 0.1;
#X connect 1 0 3 0;
#X connect 2 0 0 0;
#X connect 3 0 2 0;
#X connect 4 0 1 0;
#X restore 694 100 pd decay;
#N canvas 296 70 450 300 sustain 0;
#X obj 10 38 pow 2;
#X obj 10 149 outlet;
#X obj 10 10 netpd_f \$1 \$2/sustain 0.45;
#X connect 0 0 1 0;
#X connect 2 0 0 0;
#X restore 722 123 pd sustain;
#N canvas 296 70 450 300 release 0;
#X obj 10 149 outlet;
#X obj 10 55 pow 2;
#X obj 10 101 + 1;
#X obj 10 78 * 59999;
#X obj 10 10 netpd_f \$1 \$2/release 0.16;
#X connect 1 0 3 0;
#X connect 2 0 0 0;
#X connect 3 0 2 0;
#X connect 4 0 1 0;
#X restore 762 150 pd release;
#X obj 30 127 golana-adsr-type-selector \$1 \$2/type;
#X obj 550 98 netpd_r \$1 \$2/type;
#X obj 550 121 symbol;
#X msg 550 144 type \$1;
#X obj 33 20 hsl 82 18 0 127 0 0 \$0.blu \$0.bli ADSR 0 10 0 14 #e3c6ff #e3c6ff #2f004d 0 1;
#X obj 30 63 vsl 21 60 0 1 0 0 \$1-\$2/attack \$1-\$2/attack A 4 12 0 20 #000000 #ffc7c6 #ffc7c6 0 1;
#X obj 52 63 vsl 21 60 0 1 0 0 \$1-\$2/decay \$1-\$2/decay D 4 12 0 20 #000000 #ffe3c6 #ffe3c6 0 1;
#X obj 74 63 vsl 21 60 0 1 0 0 \$1-\$2/sustain \$1-\$2/sustain S 4 12 0 20 #000000 #feffc6 #feffc6 0 1;
#X obj 96 63 vsl 21 60 0 1 0 0 \$1-\$2/release \$1-\$2/release R 4 12 0 20 #000000 #c6ffc7 #c6ffc7 0 1;
#X connect 0 0 1 0;
#X connect 1 0 3 0;
#X connect 3 0 4 0;
#X connect 4 0 5 0;
#X connect 5 0 22 0;
#X connect 6 0 7 0;
#X connect 8 0 9 0;
#X connect 9 0 12 0;
#X connect 10 0 23 0;
#X connect 11 0 8 0;
#X connect 12 0 10 0;
#X connect 13 0 14 0;
#X connect 14 0 24 0;
#X connect 15 0 13 0;
#X connect 16 0 17 0;
#X connect 17 0 19 0;
#X connect 18 0 25 0;
#X connect 19 0 18 0;
#X connect 20 0 16 0;
#X connect 22 0 40 0;
#X connect 22 1 33 0;
#X connect 23 0 40 0;
#X connect 23 1 34 0;
#X connect 24 0 40 0;
#X connect 24 1 35 0;
#X connect 25 0 40 0;
#X connect 25 1 36 0;
#X connect 26 0 29 0;
#X connect 27 0 29 0;
#X connect 28 0 29 0;
#X connect 29 0 30 0;
#X connect 30 0 31 0;
#X connect 32 0 29 0;
#X connect 33 0 37 0;
#X connect 34 0 37 0;
#X connect 35 0 37 0;
#X connect 36 0 37 0;
#X connect 37 0 38 0;
#X connect 38 0 26 0;
#X connect 38 1 32 0;
#X connect 38 2 27 0;
#X connect 38 3 28 0;
#X connect 39 0 6 0;
#X connect 40 0 39 0;
#X connect 40 1 41 0;
#X connect 41 0 42 0;
#X connect 42 0 7 0;
#X connect 43 0 44 0;
#X connect 44 0 45 0;
#X connect 45 0 47 0;
#X connect 45 1 48 0;
#X connect 46 0 45 1;
#X connect 49 0 45 2;
#X connect 50 0 45 3;
#X connect 51 0 45 4;
#X connect 53 0 54 0;
#X connect 54 0 55 0;
#X connect 55 0 45 0;
#X coords 0 -1 1 1 87 137 2 30 20;
