#N canvas 1260 387 1106 507 10;
#N canvas 664 876 450 300 sine 0;
#X obj 24 28 inlet~;
#X obj 24 217 outlet~;
#X obj 305 59 inlet;
#X obj 305 132 == 0;
#X obj 305 181 switch~;
#X obj 24 111 osc~;
#X connect 0 0 5 0;
#X connect 2 0 3 0;
#X connect 3 0 4 0;
#X connect 5 0 1 0;
#X restore 39 165 pd sine;
#X obj 39 45 *~ 127;
#X obj 39 104 mtof~;
#N canvas 664 876 450 300 triangle 0;
#X obj 24 28 inlet~;
#X obj 24 217 outlet~;
#X obj 305 59 inlet;
#X obj 305 181 switch~;
#X obj 305 132 == 1;
#X obj 24 111 nbltriangle~ 150;
#X connect 0 0 5 0;
#X connect 2 0 4 0;
#X connect 4 0 3 0;
#X connect 5 0 1 0;
#X restore 99 165 pd triangle;
#N canvas 664 876 450 300 square 0;
#X obj 24 28 inlet~;
#X obj 24 217 outlet~;
#X obj 305 59 inlet;
#X obj 305 181 switch~;
#X obj 305 132 == 2;
#X obj 24 111 nblsquare~ 150;
#X connect 0 0 5 0;
#X connect 2 0 4 0;
#X connect 4 0 3 0;
#X connect 5 0 1 0;
#X restore 189 165 pd square;
#N canvas 664 876 450 300 saw 0;
#X obj 24 28 inlet~;
#X obj 24 217 outlet~;
#X obj 305 59 inlet;
#X obj 305 181 switch~;
#X obj 24 111 nblsaw~ 150;
#X obj 305 132 == 3;
#X connect 0 0 4 0;
#X connect 2 0 5 0;
#X connect 4 0 1 0;
#X connect 5 0 3 0;
#X restore 268 166 pd saw;
#X obj 300 55 hradio 26 1 0 4 \$1-\$2/waveform \$1-\$2/waveform empty 0 -9 0 10 #fcfcfc #000000 #000000 0;
#X obj 247 126 netpd_f \$1 \$2/waveform 0;
#X obj 300 55 cnv 15 26 26 empty \$0.sin.label sin 1 13 0 14 #000000 #886666 0;
#X obj 326 55 cnv 15 26 26 empty \$0.tri.label tri 1 13 0 14 #000000 #887766 0;
#X obj 352 55 cnv 15 26 26 empty \$0.sqr.label sqr 1 13 0 14 #000000 #ffffcc 0;
#X obj 378 55 cnv 15 26 26 empty \$0.saw.label saw 1 13 0 14 #000000 #668866 0;
#X obj 303 37 hsl 99 18 0 127 0 0 \$0.blu \$0.bli VCO 0 10 0 14 #e3c6ff #e3c6ff #2f004d 0 1;
#X obj 39 80 +~ 0;
#X obj 764 349 s \$0.saw.label;
#X msg 764 324 color -1 -1 \$1;
#X obj 764 302 symbol;
#X msg 764 276 #ccffcc;
#X msg 816 277 #668866;
#X msg 654 323 color -1 -1 \$1;
#X obj 654 301 symbol;
#X obj 654 348 s \$0.sqr.label;
#X msg 654 275 #ffffcc;
#X msg 707 274 #888866;
#X obj 764 226 == 3;
#X obj 764 249 sel 1 0;
#X obj 570 92 netpd_r \$1 \$2/waveform;
#X obj 570 115 t a a a a;
#X obj 654 249 sel 1 0;
#X obj 654 226 == 2;
#X msg 544 324 color -1 -1 \$1;
#X obj 544 302 symbol;
#X msg 434 323 color -1 -1 \$1;
#X obj 434 301 symbol;
#X obj 544 249 sel 1 0;
#X obj 434 249 sel 1 0;
#X obj 434 226 == 0;
#X obj 544 226 == 1;
#X obj 434 348 s \$0.sin.label;
#X obj 544 349 s \$0.tri.label;
#X msg 434 275 #ffcccc;
#X msg 487 274 #886666;
#X msg 544 276 #ffddcc;
#X msg 596 277 #887766;
#N canvas 35 77 396 61 NETPD 0;
#X msg 25 14 version 0 1 3;
#X restore 808 15 pd NETPD 2 0;
#X obj 300 81 nbx 5 18 -24 24 0 0 \$1-\$2/pitch \$1-\$2/pitch empty 0 -9 0 10 #fcfcfc #000000 #000000 0 256;
#X obj 97 48 netpd_f \$1 \$2/pitch 0;
#X obj 300 81 cnv 18 104 18 empty \$0.pitch.label \ \ 0.03 2 10 0 14 #000000 #c6feff 0;
#X obj 210 285 r \$1-\$2/pitch;
#X obj 210 308 route float set;
#X msg 213 395 label \$1;
#X obj 213 418 s \$0.pitch.label;
#X obj 213 372 makefilename %6.2f;
#X obj 300 20 golana-module-label 104 40;
#X obj 300 100 golana-module-label 104 40;
#X obj 300 20 golana-module-in CV;
#X obj 300 100 golana-module-out sig;
#X obj 39 19 catch~ \$1-CV-\$2;
#X obj 39 325 send~ \$1-sig-\$2;
#N canvas 35 77 615 406 link.detection 0;
#X obj 28 356 s \$1-sig-\$2-out;
#X obj 28 281 sel 0;
#X msg 28 304 -1;
#X obj 28 221 t a a, f 12;
#X obj 28 194 change 0;
#X obj 28 66 t b a;
#X obj 28 89 f;
#X obj 28 112 +;
#X obj 28 135 t a a;
#X obj 28 159 > 0;
#X obj 28 20 r \$1-CV-\$2-in;
#X obj 28 43 route downlink;
#X msg 28 327 downlink \$1;
#X obj 358 56 t b a;
#X obj 358 79 f;
#X obj 358 102 +;
#X obj 358 125 t a a;
#X obj 358 149 > 0;
#X obj 358 281 sel 0;
#X msg 358 304 -1;
#X obj 358 221 t a a, f 12;
#X obj 358 191 change 0;
#X obj 358 10 r \$1-sig-\$2-out;
#X obj 358 33 route uplink;
#X msg 358 327 uplink \$1;
#X obj 358 355 s \$1-CV-\$2-in;
#X obj 187 343 outlet;
#X obj 187 309 &&, f 5;
#X obj 187 278 t b a;
#X obj 212 225 s golana-com;
#X obj 212 178 list prepend \$1 \$2;
#X msg 212 202 \$1-\$2-label dsp \$3;
#X connect 1 0 2 0;
#X connect 1 1 12 0;
#X connect 2 0 12 0;
#X connect 3 0 1 0;
#X connect 3 1 27 0;
#X connect 4 0 3 0;
#X connect 5 0 6 0;
#X connect 5 1 7 1;
#X connect 6 0 7 0;
#X connect 7 0 8 0;
#X connect 8 0 9 0;
#X connect 8 1 6 1;
#X connect 9 0 4 0;
#X connect 10 0 11 0;
#X connect 11 0 5 0;
#X connect 12 0 0 0;
#X connect 13 0 14 0;
#X connect 13 1 15 1;
#X connect 14 0 15 0;
#X connect 15 0 16 0;
#X connect 16 0 17 0;
#X connect 16 1 14 1;
#X connect 17 0 21 0;
#X connect 18 0 19 0;
#X connect 18 1 24 0;
#X connect 19 0 24 0;
#X connect 20 0 18 0;
#X connect 20 1 28 0;
#X connect 21 0 20 0;
#X connect 22 0 23 0;
#X connect 23 0 13 0;
#X connect 24 0 25 0;
#X connect 27 0 26 0;
#X connect 27 0 30 0;
#X connect 28 0 27 0;
#X connect 28 1 27 1;
#X connect 30 0 31 0;
#X connect 31 0 29 0;
#X restore 776 83 pd link.detection;
#X obj 776 132 switch~;
#X connect 0 0 58 0;
#X connect 1 0 13 0;
#X connect 2 0 0 0;
#X connect 2 0 3 0;
#X connect 2 0 4 0;
#X connect 2 0 5 0;
#X connect 3 0 58 0;
#X connect 4 0 58 0;
#X connect 5 0 58 0;
#X connect 7 0 0 1;
#X connect 7 0 3 1;
#X connect 7 0 4 1;
#X connect 7 0 5 1;
#X connect 13 0 2 0;
#X connect 15 0 14 0;
#X connect 16 0 15 0;
#X connect 17 0 16 0;
#X connect 18 0 16 0;
#X connect 19 0 21 0;
#X connect 20 0 19 0;
#X connect 22 0 20 0;
#X connect 23 0 20 0;
#X connect 24 0 25 0;
#X connect 25 0 17 0;
#X connect 25 1 18 0;
#X connect 26 0 27 0;
#X connect 27 0 36 0;
#X connect 27 1 37 0;
#X connect 27 2 29 0;
#X connect 27 3 24 0;
#X connect 28 0 22 0;
#X connect 28 1 23 0;
#X connect 29 0 28 0;
#X connect 30 0 39 0;
#X connect 31 0 30 0;
#X connect 32 0 38 0;
#X connect 33 0 32 0;
#X connect 34 0 42 0;
#X connect 34 1 43 0;
#X connect 35 0 40 0;
#X connect 35 1 41 0;
#X connect 36 0 35 0;
#X connect 37 0 34 0;
#X connect 40 0 33 0;
#X connect 41 0 33 0;
#X connect 42 0 31 0;
#X connect 43 0 31 0;
#X connect 46 0 13 1;
#X connect 48 0 49 0;
#X connect 49 0 52 0;
#X connect 49 1 52 0;
#X connect 50 0 51 0;
#X connect 52 0 50 0;
#X connect 57 0 1 0;
#X connect 59 0 60 0;
#X coords 0 -1 1 1 104 96 2 300 20;
