#N canvas 493 155 805 581 10;
#N canvas 35 77 428 55 NETPD 0;
#X msg 6 8 version 0 0 1;
#N canvas 389 193 433 46 abslist 0;
#X msg 11 10 golana-presets-item;
#X restore 96 8 pd abslist;
#X restore 709 29 pd NETPD 2 0;
#X obj 262 148 text define \$0.preset;
#X msg 262 25 clear;
#X symbolatom 445 60 16 0 0 0 - - - 0;
#N canvas 35 77 435 740 read_preset 0;
#X obj 8 168 until;
#X obj 8 191 f;
#X obj 8 214 t a a;
#X obj 51 200 + 1;
#X obj 8 362 list trim;
#X obj 8 388 t a a;
#X obj 8 439 route send;
#X obj 8 489 list fromsymbol;
#X obj 8 462 list split 1, f 27;
#X obj 8 512 route 47;
#X obj 8 535 list tosymbol;
#X obj 8 558 list prepend \$1;
#X obj 8 628 list append, f 14;
#X obj 8 604 t b a, f 11;
#X obj 8 651 list prepend set;
#X obj 8 680 list trim;
#X obj 8 704 s, f 11;
#X msg 8 581 symbol \$1-\$2;
#X obj 6 56 text search \$0.preset 0 1;
#X msg 6 29 list __PRESET__ \$1;
#X obj 8 239 text get \$0.preset;
#X obj 113 273 sel 2;
#X obj 8 289 t a a;
#X msg 35 313 symbol \$1;
#X obj 35 336 select __PRESET__;
#X obj 8 139 t b a, f 8;
#X obj 53 168 + 1;
#X obj 181 214 b;
#X obj 6 81 select -1;
#X obj 6 105 print preset not found;
#X obj 8 264 route bang;
#X obj 223 274 loadbang;
#X msg 223 297 args 1;
#X obj 223 320 pdcontrol;
#X msg 223 343 \$1;
#X obj 35 411 s;
#X msg 50 388 symbol \$1.NETPD;
#X obj 6 4 inlet;
#X connect 0 0 1 0;
#X connect 1 0 2 0;
#X connect 2 0 20 0;
#X connect 2 1 3 0;
#X connect 3 0 1 1;
#X connect 4 0 5 0;
#X connect 5 0 6 0;
#X connect 5 1 35 0;
#X connect 6 0 8 0;
#X connect 7 0 9 0;
#X connect 8 0 7 0;
#X connect 8 1 12 1;
#X connect 9 0 10 0;
#X connect 10 0 11 0;
#X connect 11 0 17 0;
#X connect 12 0 14 0;
#X connect 13 0 12 0;
#X connect 13 1 16 1;
#X connect 14 0 15 0;
#X connect 15 0 16 0;
#X connect 17 0 13 0;
#X connect 18 0 28 0;
#X connect 19 0 18 0;
#X connect 20 0 30 0;
#X connect 20 1 21 0;
#X connect 21 0 27 0;
#X connect 22 0 4 0;
#X connect 22 1 23 0;
#X connect 23 0 24 0;
#X connect 24 0 27 0;
#X connect 25 0 0 0;
#X connect 25 1 26 0;
#X connect 26 0 1 1;
#X connect 27 0 0 1;
#X connect 28 0 29 0;
#X connect 28 1 25 0;
#X connect 30 0 27 0;
#X connect 30 1 22 0;
#X connect 31 0 32 0;
#X connect 32 0 33 0;
#X connect 33 0 34 0;
#X connect 34 0 36 0;
#X connect 34 0 11 1;
#X connect 36 0 35 1;
#X connect 37 0 19 0;
#X restore 445 83 pd read_preset;
#X obj 295 75 loadbang;
#X obj 334 378 s \$0.sb;
#X msg 334 351 set totallength \$1;
#X obj 468 309 r \$0.sb;
#X obj 468 332 route pos;
#X obj 582 126 s \$0.sb;
#X msg 592 71 set frontcolor 227 198 255;
#X obj 10 28 golana-presets-item \$0 0;
#X obj 10 46 golana-presets-item \$0 1;
#X obj 10 64 golana-presets-item \$0 2;
#X obj 10 82 golana-presets-item \$0 3;
#X obj 10 100 golana-presets-item \$0 4;
#X obj 10 118 golana-presets-item \$0 5;
#X obj 468 355 s \$0.pos;
#X obj 334 302 r \$0.items;
#X obj 334 325 list length;
#X msg 582 99 set bgcolor 113 99 128;
#X obj 180 288 s \$0.dirty;
#X obj 180 265 tgl 18 0 empty empty empty 0 -9 0 10 #fcfcfc #000000 #000000 0 1;
#X obj 180 219 r \$0.dirty;
#X msg 180 242 set \$1;
#N canvas 359 100 309 409 get.preset.list 0;
#X obj 86 211 text search \$0.preset 0;
#X msg 86 143 symbol __PRESET__;
#X msg 119 180 range \$1 1e+15;
#X obj 119 260 t a a;
#X obj 146 288 text get \$0.preset;
#X obj 6 154 + 1;
#X obj 86 117 t b a;
#X msg 86 79 0;
#X obj 86 235 sel -1;
#X msg 146 312 append \$2;
#X obj 50 346 list store, f 36;
#X obj 50 44 t b b b, f 36;
#X obj 50 16 inlet;
#X obj 50 369 outlet;
#X connect 0 0 8 0;
#X connect 1 0 0 0;
#X connect 2 0 0 0;
#X connect 3 0 5 0;
#X connect 3 1 4 0;
#X connect 4 0 9 0;
#X connect 5 0 6 0;
#X connect 6 0 1 0;
#X connect 6 1 2 0;
#X connect 7 0 6 0;
#X connect 8 1 3 0;
#X connect 9 0 10 0;
#X connect 10 0 13 0;
#X connect 11 0 10 0;
#X connect 11 1 7 0;
#X connect 11 2 10 1;
#X connect 12 0 11 0;
#X restore 55 300 pd get.preset.list;
#X msg 276 50 write ~/.golana.presets;
#X obj 55 324 s \$0.items;
#X obj 445 30 r \$0.select;
#X obj 582 27 loadbang;
#X obj 21 186 r \$0.add;
#X obj 38 346 s \$0.select;
#N canvas 584 407 417 349 check.in.use 0;
#X obj 11 10 inlet;
#X obj 11 262 outlet;
#X obj 132 67 r \$0.items;
#X obj 11 213 symbol, f 23;
#N canvas 35 77 450 300 iterate 0;
#X obj 14 106 until;
#X obj 14 214 list store, f 17;
#X obj 14 131 f;
#X obj 52 132 + 1;
#X msg 63 106 0;
#X msg 14 188 get \$1 1;
#X obj 14 78 t b b a, f 17;
#X obj 14 46 inlet;
#X obj 14 248 outlet;
#X obj 14 159 t a a;
#X obj 100 255 outlet;
#X connect 0 0 2 0;
#X connect 1 0 8 0;
#X connect 1 1 0 1;
#X connect 2 0 3 0;
#X connect 2 0 9 0;
#X connect 3 0 2 1;
#X connect 4 0 2 1;
#X connect 5 0 1 0;
#X connect 6 0 0 0;
#X connect 6 1 4 0;
#X connect 6 2 1 1;
#X connect 7 0 6 0;
#X connect 9 0 5 0;
#X connect 9 1 10 0;
#X restore 56 82 pd iterate;
#X obj 56 57 list append;
#X obj 11 33 t b b a a, f 23;
#X obj 56 138 select __;
#X obj 101 112 t b a;
#X msg 31 104 0;
#X msg 56 162 1;
#X obj 11 141 f;
#X obj 11 186 sel 0 1;
#X obj 126 291 print golana-presets;
#X msg 126 268 there is already a preset named '\$1';
#X obj 126 240 symbol;
#X connect 0 0 6 0;
#X connect 2 0 5 1;
#X connect 3 0 1 0;
#X connect 4 0 7 0;
#X connect 5 0 4 0;
#X connect 6 0 11 0;
#X connect 6 1 5 0;
#X connect 6 2 8 0;
#X connect 6 3 3 1;
#X connect 6 3 15 1;
#X connect 7 0 10 0;
#X connect 8 0 9 0;
#X connect 8 1 7 1;
#X connect 9 0 11 1;
#X connect 10 0 11 1;
#X connect 11 0 12 0;
#X connect 12 0 3 0;
#X connect 12 1 15 0;
#X connect 14 0 13 0;
#X connect 15 0 14 0;
#X restore 21 212 pd check.in.use;
#X obj 10 137 cnv 10 80 16 empty empty empty 20 12 0 10 #e3c6ff #404040 0;
#X symbolatom 10 136 14 0 0 0 - \$0.norx \$0.add 0;
#X obj 295 98 t b b;
#X obj 10 417 r \$0.delete;
#X obj 91 28 netpd-gui-scrollbar \$0.sb 10 108 6;
#X obj 91 137 cnv 10 10 16 empty empty empty 20 12 0 10 #000000 #404040 0;
#X obj 13 10 hsl 86 18 0 127 0 0 \$0.blu \$0.bli presets 0 10 0 14 #e3c6ff #e3c6ff #2f004d 0 1;
#X obj 87 232 bng 18 250 50 0 empty empty empty 0 -9 0 10 #fcfcfc #000000 #000000;
#X obj 21 249 t b a b a;
#X obj 21 373 s \$0.save;
#X obj 307 19 r \$0.save;
#N canvas 1024 675 450 632 add_preset 0;
#X obj 28 165 s NETPD;
#X msg 28 50 args 1;
#X obj 28 73 pdcontrol;
#X obj 28 186 r NETPD;
#X obj 28 306 route send sendtyped;
#X obj 28 352 t a b, f 27;
#X msg 187 375 symbol send;
#X msg 203 353 symbol sendtyped;
#X obj 28 452 list prepend send, f 27;
#X obj 86 330 t a b, f 20;
#X obj 28 398 routeOSC /dump /insert /mx /unstep /unpunch;
#X obj 28 209 route to receiver;
#X obj 77 232 route p;
#X msg 77 255 1;
#X obj 28 282 spigot;
#X msg 116 256 0;
#X msg 28 96 symbol /\$1/golana;
#X obj 28 119 t a a, f 33;
#X msg 28 142 sender p \, from \$1/dump/request;
#X msg 223 259 set \$1;
#X obj 28 375 routeOSC /jkdf/kjlsdf;
#X obj 28 428 t a;
#X obj 28 520 text set \$0.preset;
#X obj 28 475 t a b, f 6;
#X msg 61 498 1e+15;
#X obj 28 5 inlet;
#X obj 28 28 t b a, f 46;
#X msg 301 432 list __PRESET__ \$1;
#X connect 1 0 2 0;
#X connect 2 0 16 0;
#X connect 3 0 11 0;
#X connect 4 0 5 0;
#X connect 4 1 9 0;
#X connect 5 0 20 0;
#X connect 5 1 6 0;
#X connect 6 0 8 1;
#X connect 7 0 8 1;
#X connect 8 0 23 0;
#X connect 9 0 20 0;
#X connect 9 1 7 0;
#X connect 10 5 21 0;
#X connect 11 0 14 0;
#X connect 11 1 12 0;
#X connect 12 0 13 0;
#X connect 12 1 15 0;
#X connect 13 0 14 1;
#X connect 14 0 4 0;
#X connect 15 0 14 1;
#X connect 16 0 17 0;
#X connect 17 0 18 0;
#X connect 17 1 19 0;
#X connect 18 0 0 0;
#X connect 19 0 20 0;
#X connect 20 0 10 0;
#X connect 21 0 8 0;
#X connect 23 0 22 0;
#X connect 23 1 24 0;
#X connect 24 0 22 1;
#X connect 25 0 26 0;
#X connect 26 0 1 0;
#X connect 26 1 27 0;
#X connect 27 0 23 0;
#X restore 73 278 pd add_preset;
#N canvas 7 40 434 501 delete_preset 0;
#X obj 18 13 inlet;
#X msg 18 48 list __PRESET__ \$1;
#X obj 18 73 text search \$0.preset 0 1;
#X obj 18 101 sel -1;
#X symbolatom 80 20 10 0 0 0 - - - 0;
#X obj 78 192 text search \$0.preset 0;
#X msg 78 167 range \$1 1e+15 \, symbol __PRESET__;
#X obj 51 124 t a a;
#X obj 51 279 pack f f;
#X obj 78 146 + 1;
#X obj 51 429 text delete \$0.preset;
#X obj 51 305 t a a, f 16;
#X msg 51 330 \$2 \$1;
#X obj 51 353 -;
#X obj 51 379 until;
#X msg 144 337 \$1;
#X obj 51 402 f, f 16;
#X msg 164 16 symbol fünf;
#X obj 78 215 sel -1;
#X obj 78 241 text size \$0.preset;
#X connect 0 0 1 0;
#X connect 1 0 2 0;
#X connect 2 0 3 0;
#X connect 3 1 7 0;
#X connect 4 0 1 0;
#X connect 5 0 18 0;
#X connect 6 0 5 0;
#X connect 7 0 8 0;
#X connect 7 1 9 0;
#X connect 8 0 11 0;
#X connect 9 0 6 0;
#X connect 11 0 12 0;
#X connect 11 1 15 0;
#X connect 12 0 13 0;
#X connect 13 0 14 0;
#X connect 14 0 16 0;
#X connect 15 0 16 1;
#X connect 16 0 10 0;
#X connect 17 0 1 0;
#X connect 18 0 19 0;
#X connect 18 1 8 1;
#X connect 19 0 8 1;
#X restore 121 465 pd delete_preset;
#N canvas 359 100 309 409 get.preset.list 0;
#X obj 86 211 text search \$0.preset 0;
#X msg 86 143 symbol __PRESET__;
#X msg 119 180 range \$1 1e+15;
#X obj 119 260 t a a;
#X obj 146 288 text get \$0.preset;
#X obj 6 154 + 1;
#X obj 86 117 t b a;
#X msg 86 79 0;
#X obj 86 235 sel -1;
#X msg 146 312 append \$2;
#X obj 50 346 list store, f 36;
#X obj 50 44 t b b b, f 36;
#X obj 50 16 inlet;
#X obj 50 369 outlet;
#X connect 0 0 8 0;
#X connect 1 0 0 0;
#X connect 2 0 0 0;
#X connect 3 0 5 0;
#X connect 3 1 4 0;
#X connect 4 0 9 0;
#X connect 5 0 6 0;
#X connect 6 0 1 0;
#X connect 6 1 2 0;
#X connect 7 0 6 0;
#X connect 8 1 3 0;
#X connect 9 0 10 0;
#X connect 10 0 13 0;
#X connect 11 0 10 0;
#X connect 11 1 7 0;
#X connect 11 2 10 1;
#X connect 12 0 11 0;
#X restore 65 488 pd get.preset.list;
#X obj 65 512 s \$0.items;
#X obj 10 540 s \$0.save;
#X obj 10 440 t b b a, f 19;
#X msg 322 120 read ~/.golana.presets;
#X connect 2 0 1 0;
#X connect 3 0 4 0;
#X connect 5 0 36 0;
#X connect 7 0 6 0;
#X connect 8 0 9 0;
#X connect 9 0 18 0;
#X connect 11 0 10 0;
#X connect 19 0 20 0;
#X connect 20 0 7 0;
#X connect 21 0 10 0;
#X connect 23 0 22 0;
#X connect 24 0 25 0;
#X connect 25 0 23 0;
#X connect 26 0 28 0;
#X connect 27 0 1 0;
#X connect 29 0 3 0;
#X connect 30 0 21 0;
#X connect 30 0 11 0;
#X connect 31 0 33 0;
#X connect 33 0 42 0;
#X connect 36 0 26 0;
#X connect 36 1 51 0;
#X connect 37 0 50 0;
#X connect 41 0 26 0;
#X connect 42 0 43 0;
#X connect 42 1 32 0;
#X connect 42 2 26 0;
#X connect 42 3 45 0;
#X connect 44 0 27 0;
#X connect 47 0 48 0;
#X connect 50 0 49 0;
#X connect 50 1 47 0;
#X connect 50 2 46 0;
#X connect 51 0 1 0;
#X coords 0 -1 1 1 91 143 2 10 10;
