#N canvas 453 145 853 370 10;
#X obj 20 20 cnv 10 60 30 empty empty empty 20 12 0 10 #000000 #404040 0;
#N canvas 0 50 450 250 (subpatch) 0;
#X array \$0.display 120 float 3;
#A 0 0.000570631 0.014719 0.00114094 0.343022 0.343022 0.568133 0.568133 0.716111 0.716111 0.813385 0.813385 0.877327 0.877327 0.91936 0.91936 0.946991 0.946991 0.965154 0.965154 0.977094 0.977094 0.984943 0.984943 0.990102 0.990102 0.993445 0.865282 0.990611 0.776297 0.865282 0.713218 0.776297 0.668503 0.713218 0.636806 0.668503 0.614337 0.636806 0.598409 0.614337 0.587119 0.598409 0.579115 0.587119 0.573442 0.579115 0.56942 0.573442 0.566569 0.56942 0.564548 0.566569 0.563116 0.564548 0.5621 0.563116 0.561381 0.5621 0.560871 0.561381 0.56051 0.560871 0.560254 0.56051 0.560069 0.560254 0.559941 0.560069 0.559853 0.559941 0.559792 0.559853 0.559628 0.559792 0.477741 0.559628 0.407837 0.477741 0.348161 0.407837 0.297217 0.348161 0.253727 0.297217 0.216601 0.253727 0.184907 0.216601 0.157851 0.184907 0.134753 0.157851 0.115036 0.134753 0.0982035 0.115036 0.083834 0.0982035 0.0715671 0.083834 0.0610952 0.0715671 0.0521555 0.0610952 0.0445239 0.0521555 0.0380091 0.0445239 0.0324474 0.0380091 0.0276996 0.0324474 0.0236465 0.0276996 0.0201865 0.0236465 0.0172327 0.0201865 0.0147112 0.0172327;
#A color 668;
#A width 2;
#X coords 0 1 120 0 60 30 1;
#X restore 20 20 graph;
#X obj 84 20 hsl 21 10 0 127 0 0 \$0.lin \$0.lin.r lin -2 5 0 11 #000000 #000000 #886666 0 1;
#X obj 84 40 hsl 21 10 0 127 0 0 \$0.rc \$0.rc.r rc -2 5 0 11 #000000 #000000 #ccccff 0 1;
#X obj 84 30 hsl 21 10 0 127 0 0 \$0.log \$0.log.r log -2 5 0 11 #000000 #000000 #668866 0 1;
#X obj 137 20 rh_slider_click \$0.lin;
#X obj 276 20 rh_slider_click \$0.log;
#X obj 414 20 rh_slider_click \$0.rc;
#X msg 642 70 866;
#X msg 642 108 color \$1;
#X msg 676 70 686;
#X msg 709 71 668;
#X obj 642 136 s \$0.display;
#X obj 554 21 loadbang;
#X obj 554 44 symbol \$1;
#X msg 137 51 symbol lin;
#X msg 276 50 symbol log;
#X msg 414 48 symbol rc;
#X obj 137 103 s \$0.type;
#X obj 554 67 s \$0.type;
#X obj 642 20 r \$0.type;
#X obj 642 43 sel lin log rc;
#N canvas 35 77 1207 471 waveforms 0;
#X msg 386 100 1.00131e-05 0.000203609 1.00262e-05 2.61678e-05 2.61678e-05 6.83858e-05 6.83858e-05 0.000178717 0.000178717 0.000467051 0.000467051 0.00122057 0.00122057 0.0031898 0.0031898 0.00833609 0.00833609 0.0217852 0.0217852 0.0569326 0.0569326 0.148785 0.148785 0.38883 0.38883 0.999986 0.96037 0.999283 0.922924 0.96037 0.886936 0.922924 0.852352 0.886936 0.819117 0.852352 0.787178 0.819117 0.756483 0.787178 0.726987 0.756483 0.69864 0.726987 0.671398 0.69864 0.645219 0.671398 0.62006 0.645219 0.595882 0.62006 0.572647 0.595882 0.559628 0.572647 0.559628 0.559628 0.559628 0.559628 0.559628 0.559628 0.559628 0.559628 0.559628 0.559628 0.559628 0.559628 0.559628 0.559628 0.559628 0.559628 0.559485 0.559628 0.463701 0.559485 0.384316 0.463701 0.318521 0.384316 0.263991 0.318521 0.218795 0.263991 0.181338 0.218795 0.150293 0.181338 0.124563 0.150293 0.103238 0.124563 0.0855635 0.103238 0.0709151 0.0855635 0.0587745 0.0709151 0.0487123 0.0587745 0.0403728 0.0487123 0.033461 0.0403728 0.0277325 0.033461 0.0229847 0.0277325 0.0190497 0.0229847 0.0157884 0.0190497 0.0130855 0.0157884 0.0108452 0.0130855 0.00898853 0.0108452 0.0074497 0.00898853;
#X msg 772 101 0.000570631 0.014719 0.00114094 0.343022 0.343022 0.568133 0.568133 0.716111 0.716111 0.813385 0.813385 0.877327 0.877327 0.91936 0.91936 0.946991 0.946991 0.965154 0.965154 0.977094 0.977094 0.984943 0.984943 0.990102 0.990102 0.993445 0.865282 0.990611 0.776297 0.865282 0.713218 0.776297 0.668503 0.713218 0.636806 0.668503 0.614337 0.636806 0.598409 0.614337 0.587119 0.598409 0.579115 0.587119 0.573442 0.579115 0.56942 0.573442 0.566569 0.56942 0.564548 0.566569 0.563116 0.564548 0.5621 0.563116 0.561381 0.5621 0.560871 0.561381 0.56051 0.560871 0.560254 0.56051 0.560069 0.560254 0.559941 0.560069 0.559853 0.559941 0.559792 0.559853 0.559628 0.559792 0.477741 0.559628 0.407837 0.477741 0.348161 0.407837 0.297217 0.348161 0.253727 0.297217 0.216601 0.253727 0.184907 0.216601 0.157851 0.184907 0.134753 0.157851 0.115036 0.134753 0.0982035 0.115036 0.083834 0.0982035 0.0715671 0.083834 0.0610952 0.0715671 0.0521555 0.0610952 0.0445239 0.0521555 0.0380091 0.0445239 0.0324474 0.0380091 0.0276996 0.0324474 0.0236465 0.0276996 0.0201865 0.0236465 0.0172327 0.0201865 0.0147112 0.0172327;
#X msg 12 100 0.000113523 0.0639388 0.000227047 0.0835534 0.0835534 0.166993 0.166993 0.250433 0.250433 0.333873 0.333873 0.417313 0.417313 0.500753 0.500753 0.584192 0.584192 0.667632 0.667632 0.751072 0.751072 0.834512 0.834512 0.917952 0.917952 0.999988 0.965587 0.999389 0.931739 0.965587 0.897891 0.931739 0.864043 0.897891 0.830195 0.864043 0.796347 0.830195 0.762499 0.796347 0.728651 0.762499 0.694803 0.728651 0.660955 0.694803 0.627106 0.660955 0.593258 0.627106 0.559628 0.593258 0.559628 0.559628 0.559628 0.559628 0.559628 0.559628 0.559628 0.559628 0.559628 0.559628 0.559628 0.559628 0.559628 0.559628 0.559628 0.559628 0.559628 0.559628 0.559628 0.559628 0.559598 0.559628 0.538048 0.559598 0.516498 0.538048 0.494947 0.516498 0.473397 0.494947 0.451846 0.473397 0.430296 0.451846 0.408745 0.430296 0.387195 0.408745 0.365645 0.387195 0.344094 0.365645 0.322544 0.344094 0.300993 0.322544 0.279443 0.300993 0.257893 0.279443 0.236342 0.257893 0.214792 0.236342 0.193241 0.214792 0.171691 0.193241 0.15014 0.171691 0.12859 0.15014 0.10704 0.12859 0.0854892 0.10704 0.0639388 0.0854892;
#X obj 385 434 s \$0.display;
#X obj 385 401 list prepend 0;
#X obj 364 9 r \$0.type;
#X obj 364 32 sel lin log rc;
#X connect 0 0 4 0;
#X connect 1 0 4 0;
#X connect 2 0 4 0;
#X connect 4 0 3 0;
#X connect 5 0 6 0;
#X connect 6 0 2 0;
#X connect 6 1 0 0;
#X connect 6 2 1 0;
#X restore 746 22 pd waveforms;
#N canvas 35 77 440 66 NETPD 0;
#X msg 21 21 version 0 1 0;
#X restore 751 175 pd NETPD 2 0;
#N canvas 687 416 450 300 gui 0;
#X obj 19 8 r \$0.type;
#X obj 19 31 sel lin log rc;
#X obj 65 225 s \$0.lin.r;
#X obj 158 226 s \$0.log.r;
#X obj 257 228 s \$0.rc.r;
#X msg 70 132 color #ffcccc;
#X msg 66 188 color -1 -1 \$1;
#X msg 101 105 color #886666;
#X msg 181 135 color #ccffcc;
#X msg 212 108 color #668866;
#X msg 316 110 color #666688;
#X msg 285 137 color #ccccff;
#X msg 158 196 color -1 -1 \$1;
#X msg 257 198 color -1 -1 \$1;
#X connect 0 0 1 0;
#X connect 1 0 5 0;
#X connect 1 0 9 0;
#X connect 1 0 10 0;
#X connect 1 1 7 0;
#X connect 1 1 8 0;
#X connect 1 1 10 0;
#X connect 1 2 7 0;
#X connect 1 2 9 0;
#X connect 1 2 11 0;
#X connect 5 0 6 0;
#X connect 6 0 2 0;
#X connect 7 0 6 0;
#X connect 8 0 12 0;
#X connect 9 0 12 0;
#X connect 10 0 13 0;
#X connect 11 0 13 0;
#X connect 12 0 3 0;
#X connect 13 0 4 0;
#X restore 57 152 pd gui;
#X obj 63 211 netpd_f \$1 \$2 0;
#X obj 381 103 r \$1-\$2;
#X obj 381 128 route float set;
#X obj 400 216 sel 0 1 2;
#X obj 381 154 t b a b;
#X msg 417 243 log;
#X msg 434 272 rc;
#X msg 400 270 lin;
#X obj 400 297 symbol;
#X obj 400 321 s \$0.type;
#X obj 504 245 s \$1-\$2;
#X obj 504 164 sel lin log rc;
#X msg 504 187 0;
#X msg 531 187 1;
#X msg 558 187 2;
#X msg 381 181 1;
#X msg 420 180 0;
#X obj 504 138 r \$0.type;
#X obj 504 223 spigot 1;
#X connect 5 0 15 0;
#X connect 6 0 16 0;
#X connect 7 0 17 0;
#X connect 8 0 9 0;
#X connect 9 0 12 0;
#X connect 10 0 9 0;
#X connect 11 0 9 0;
#X connect 13 0 14 0;
#X connect 14 0 19 0;
#X connect 15 0 18 0;
#X connect 16 0 18 0;
#X connect 17 0 18 0;
#X connect 20 0 21 0;
#X connect 21 0 8 0;
#X connect 21 1 10 0;
#X connect 21 2 11 0;
#X connect 26 0 27 0;
#X connect 27 0 29 0;
#X connect 27 1 29 0;
#X connect 28 0 32 0;
#X connect 28 1 30 0;
#X connect 28 2 31 0;
#X connect 29 0 40 0;
#X connect 29 1 28 0;
#X connect 29 2 41 0;
#X connect 30 0 33 0;
#X connect 31 0 33 0;
#X connect 32 0 33 0;
#X connect 33 0 34 0;
#X connect 36 0 37 0;
#X connect 36 1 38 0;
#X connect 36 2 39 0;
#X connect 37 0 43 0;
#X connect 38 0 43 0;
#X connect 39 0 43 0;
#X connect 40 0 43 1;
#X connect 41 0 43 1;
#X connect 42 0 36 0;
#X connect 43 0 35 0;
#X coords 0 -1 1 1 87 30 2 20 20;
