#N canvas 603 77 332 436 10;
#N canvas 511 157 422 302 mx.insert___ 0;
#X obj 6 22 inlet~;
#X obj 98 22 inlet~;
#X obj 98 236 outlet~;
#X obj 6 236 outlet~;
#X obj 6 88 mx-insert-container \$1 insert/1;
#X obj 6 131 mx-insert-container \$1 insert/2;
#X obj 6 176 mx-insert-container \$1 insert/3;
#N canvas 617 44 688 540 insert.gui.communication.stuff 0;
#X obj -53 10 r mx;
#X obj -53 32 route \$1;
#X obj -52 54 route insert;
#X obj -52 76 list split 2;
#X msg -52 99 \$2 \$1;
#X obj -52 121 list append;
#X obj -52 143 list trim;
#X obj -52 187 route 1 2 3;
#X obj -52 322 list prepend 1;
#X obj -31 279 list prepend 2;
#X obj -52 344 t a a;
#X obj 138 405 list prepend \$1;
#X obj 138 448 s mx;
#X msg 138 426 \$1 insert \$2 setlabel \$3;
#X obj -52 456 outlet;
#X obj 227 225 r mx;
#X obj 227 247 route \$1;
#X obj 227 269 route refresh;
#X obj 227 294 b;
#X obj 138 327 route 1 2 3;
#X msg 138 379 1 \$1;
#X msg 183 379 2 \$1;
#X msg 227 379 3 \$1;
#X obj 80 153 loadbang;
#X msg 80 175 set empty;
#X obj -10 235 list prepend 3;
#X obj 138 356 symbol;
#X obj 183 356 symbol;
#X obj 227 357 symbol;
#X obj -52 165 route select show;
#X msg 139 287 \$1 show;
#X obj -10 215 mx-early-a \$1 mx/insert/3/load;
#X obj -31 258 mx-early-a \$1 mx/insert/2/load;
#X obj -52 300 mx-early-a \$1 mx/insert/1/load;
#X msg -52 367 \$1 insert \$2;
#X obj 343 296 f;
#X obj 372 295 f;
#X obj 402 295 f;
#X obj 343 387 list prepend \$1;
#X obj 283 336 b;
#X obj 387 165 netpd_f \$1 mx/insert/2/bypass 1;
#X obj 358 142 netpd_f \$1 mx/insert/1/bypass 1;
#X msg 343 409 \; \$1-mx/insert/\$2/bypass set \$3;
#X msg 343 359 1 \$1;
#X msg 372 339 2 \$1;
#X msg 402 316 3 \$1;
#X msg 328 207 1 bypass \$1;
#X msg 366 234 2 bypass \$1;
#X msg 396 260 3 bypass \$1;
#X obj 417 187 netpd_f \$1 mx/insert/3/bypass 1;
#X connect 0 0 1 0;
#X connect 1 0 2 0;
#X connect 2 0 3 0;
#X connect 3 0 4 0;
#X connect 3 1 5 1;
#X connect 4 0 5 0;
#X connect 5 0 6 0;
#X connect 6 0 29 0;
#X connect 7 0 33 0;
#X connect 7 1 32 0;
#X connect 7 2 31 0;
#X connect 8 0 10 0;
#X connect 9 0 10 0;
#X connect 10 0 34 0;
#X connect 10 1 19 0;
#X connect 11 0 13 0;
#X connect 13 0 12 0;
#X connect 15 0 16 0;
#X connect 16 0 17 0;
#X connect 17 0 18 0;
#X connect 18 0 26 0;
#X connect 18 0 27 0;
#X connect 18 0 28 0;
#X connect 18 0 39 0;
#X connect 19 0 26 0;
#X connect 19 1 27 0;
#X connect 19 2 28 0;
#X connect 20 0 11 0;
#X connect 21 0 11 0;
#X connect 22 0 11 0;
#X connect 23 0 24 0;
#X connect 24 0 31 0;
#X connect 24 0 32 0;
#X connect 24 0 33 0;
#X connect 25 0 10 0;
#X connect 26 0 20 0;
#X connect 27 0 21 0;
#X connect 28 0 22 0;
#X connect 29 0 7 0;
#X connect 29 1 30 0;
#X connect 30 0 14 0;
#X connect 31 0 25 0;
#X connect 32 0 9 0;
#X connect 33 0 8 0;
#X connect 34 0 14 0;
#X connect 35 0 43 0;
#X connect 36 0 44 0;
#X connect 37 0 45 0;
#X connect 38 0 42 0;
#X connect 39 0 37 0;
#X connect 39 0 36 0;
#X connect 39 0 35 0;
#X connect 40 0 36 1;
#X connect 40 0 47 0;
#X connect 41 0 35 1;
#X connect 41 0 46 0;
#X connect 43 0 38 0;
#X connect 44 0 38 0;
#X connect 45 0 38 0;
#X connect 49 0 37 1;
#X connect 49 0 48 0;
#X restore 228 28 pd insert.gui.communication.stuff;
#X obj 189 66 mx-insert-control \$1 1;
#X obj 189 110 mx-insert-control \$1 1;
#X obj 189 154 mx-insert-control \$1 1;
#X connect 0 0 4 0;
#X connect 1 0 4 1;
#X connect 4 0 5 0;
#X connect 4 1 5 1;
#X connect 5 0 6 0;
#X connect 5 1 6 1;
#X connect 6 0 3 0;
#X connect 6 1 2 0;
#X connect 8 0 4 2;
#X connect 9 0 5 2;
#X connect 10 0 6 2;
#X restore -25 44 pd mx.insert___;
#N canvas 520 483 531 286 mx.aux.pre__ 0;
#X obj 17 9 inlet~;
#X obj 190 9 inlet~;
#X obj 190 226 outlet~;
#X obj 17 226 outlet~;
#X obj 41 49 mx-aux-send \$1 1 1 \$1;
#X obj 41 72 mx-aux-send \$1 2 1 \$1;
#X obj 41 96 mx-aux-send \$1 3 1 \$1;
#X connect 0 0 3 0;
#X connect 0 0 4 0;
#X connect 0 0 5 0;
#X connect 0 0 6 0;
#X connect 1 0 2 0;
#X connect 1 0 4 1;
#X connect 1 0 5 1;
#X connect 1 0 6 1;
#X restore -25 65 pd mx.aux.pre__;
#N canvas 465 135 317 314 mx.aux.post_ 0;
#X obj 25 24 inlet~;
#X obj 25 260 outlet~;
#X obj 189 23 inlet~;
#X obj 189 260 outlet~;
#X obj 48 77 mx-aux-send \$1 1 0 0;
#X obj 48 100 mx-aux-send \$1 2 0 0;
#X obj 48 124 mx-aux-send \$1 3 0 0;
#X connect 0 0 1 0;
#X connect 0 0 4 0;
#X connect 0 0 5 0;
#X connect 0 0 6 0;
#X connect 2 0 3 0;
#X connect 2 0 4 1;
#X connect 2 0 5 1;
#X connect 2 0 6 1;
#X restore -25 111 pd mx.aux.post_;
#N canvas 603 186 587 471 mx.l.p.s.m__ 0;
#X obj 15 306 inlet~;
#X obj 64 307 inlet~;
#X obj 15 347 outlet~;
#X obj 65 347 outlet~;
#X obj 15 327 *~;
#X obj 65 327 *~;
#X text 10 1 level / panorama / solo / mute;
#X obj 31 281 line~;
#X msg 31 260 \$1 50;
#X obj 80 282 line~;
#X msg 80 260 \$1 50;
#N canvas 698 400 450 300 pan____ 0;
#X obj 115 118 cos;
#X obj 215 122 atan;
#X msg 215 101 1;
#X obj 215 144 * 2;
#X obj 115 73 *;
#X obj 142 117 sin;
#X obj 14 9 inlet;
#X obj 188 11 inlet;
#X obj 14 246 outlet;
#X obj 73 245 outlet;
#X obj 190 246 outlet;
#X obj 215 80 loadbang;
#X obj 115 95 t a a;
#X obj 14 201 *;
#X obj 27 171 t b a;
#X obj 73 204 *;
#X obj 86 174 t b a;
#X text 234 11 range: 0-1;
#X text 237 27 default: 0.5;
#X obj 14 116 t a a;
#X connect 0 0 14 0;
#X connect 1 0 3 0;
#X connect 2 0 1 0;
#X connect 3 0 4 1;
#X connect 4 0 12 0;
#X connect 5 0 16 0;
#X connect 6 0 19 0;
#X connect 7 0 4 0;
#X connect 11 0 2 0;
#X connect 12 0 0 0;
#X connect 12 1 5 0;
#X connect 13 0 8 0;
#X connect 14 0 13 0;
#X connect 14 1 13 1;
#X connect 15 0 9 0;
#X connect 16 0 15 0;
#X connect 16 1 15 1;
#X connect 19 0 13 0;
#X connect 19 1 15 0;
#X restore 31 221 pd pan____;
#N canvas 698 400 307 286 level__ 0;
#X obj 14 9 inlet;
#X obj 156 9 inlet;
#X obj 14 246 outlet;
#X obj 183 243 outlet;
#X obj 14 201 *;
#X obj 27 171 t b a;
#X text 202 9 range: 0-1;
#X text 205 25 comment;
#X obj 156 86 *;
#X obj 156 149 t a a;
#X obj 156 123 *;
#X obj 156 61 t a a a;
#X obj 195 85 max 1;
#X obj 183 191 rmstodb;
#X obj 195 107 t a a;
#X obj 195 129 *;
#X obj 183 213 - 100;
#X connect 0 0 4 0;
#X connect 1 0 11 0;
#X connect 4 0 2 0;
#X connect 5 0 4 0;
#X connect 5 1 4 1;
#X connect 8 0 10 0;
#X connect 9 0 5 0;
#X connect 9 1 13 0;
#X connect 10 0 9 0;
#X connect 11 0 8 0;
#X connect 11 1 8 1;
#X connect 11 2 12 0;
#X connect 12 0 14 0;
#X connect 13 0 16 0;
#X connect 14 0 15 0;
#X connect 14 1 15 1;
#X connect 15 0 10 1;
#X connect 16 0 3 0;
#X restore 31 195 pd level__;
#N canvas 691 469 450 300 mute___ 0;
#X obj 14 9 inlet;
#X obj 188 11 inlet;
#X obj 14 246 outlet;
#X obj 190 246 outlet;
#X obj 27 171 t b a;
#X obj 27 146 ==;
#X obj 14 201 && 1;
#N canvas 827 279 134 200 solo.active 0;
#X obj -4 -301 r mx;
#X obj -4 -279 route sololevel;
#X obj -4 -257 t b a;
#X obj -4 -235 del 0;
#X obj -4 -213 f;
#X obj -4 -191 > 0;
#X obj -4 -169 change;
#X obj -4 -147 outlet;
#X connect 0 0 1 0;
#X connect 1 0 2 0;
#X connect 2 0 3 0;
#X connect 2 1 4 1;
#X connect 3 0 4 0;
#X connect 4 0 5 0;
#X connect 5 0 6 0;
#X connect 6 0 7 0;
#X restore 27 52 pd solo.active;
#X obj 27 118 ||;
#X obj 27 76 t b a;
#X connect 0 0 6 0;
#X connect 1 0 8 0;
#X connect 4 0 6 0;
#X connect 4 1 6 1;
#X connect 5 0 4 0;
#X connect 6 0 2 0;
#X connect 7 0 9 0;
#X connect 8 0 5 0;
#X connect 9 0 8 0;
#X connect 9 1 8 1;
#X restore 31 147 pd mute___;
#N canvas 540 220 270 278 solo___ 0;
#X obj 14 9 inlet;
#X obj 140 14 inlet;
#X obj 14 246 outlet;
#X obj 188 243 outlet;
#N canvas 651 360 346 376 sololevel 0;
#X obj 31 108 r mx;
#X obj 30 8 inlet;
#X obj 30 75 s mx;
#X obj 30 30 t b a;
#X msg 30 53 sololevel 0 \, sololevelrefresh;
#X obj 31 130 route sololevelrefresh sololevel;
#X obj 31 152 b;
#X obj 31 176 f;
#X obj 31 198 +;
#X msg 31 220 sololevel \$1;
#X obj 31 242 s mx;
#X connect 0 0 5 0;
#X connect 1 0 3 0;
#X connect 3 0 4 0;
#X connect 3 1 8 1;
#X connect 4 0 2 0;
#X connect 5 0 6 0;
#X connect 5 1 7 1;
#X connect 6 0 7 0;
#X connect 7 0 8 0;
#X connect 8 0 9 0;
#X connect 9 0 10 0;
#X restore 167 114 pd sololevel;
#X obj 140 65 t a a;
#X obj 140 40 change;
#X obj 14 163 ||;
#X obj 25 140 t b a;
#X obj 14 185 change;
#X obj 14 209 t a a;
#X obj 124 165 list prepend \$1;
#X obj 124 209 s mx;
#X msg 124 187 \$1 switch \$2;
#X connect 0 0 7 0;
#X connect 1 0 6 0;
#X connect 5 0 8 0;
#X connect 5 1 4 0;
#X connect 6 0 5 0;
#X connect 7 0 9 0;
#X connect 8 0 7 0;
#X connect 8 1 7 1;
#X connect 9 0 10 0;
#X connect 10 0 2 0;
#X connect 10 1 11 0;
#X connect 11 0 13 0;
#X connect 13 0 12 0;
#X restore 31 170 pd solo___;
#X msg 31 123 1;
#X obj 31 100 loadbang;
#X obj 165 288 int;
#X obj 165 310 change;
#X msg 165 332 symbol \$1dB;
#X symbolatom 165 354 10 0 0 0 - - -;
#X obj 302 100 netpd_f \$1 mx/mute 0;
#X obj 331 124 netpd_f \$1 mx/solo 0;
#X obj 361 146 netpd_f \$1 mx/level 1;
#X obj 389 166 netpd_f \$1 mx/pan 0.5;
#X obj 287 250 f;
#X obj 316 250 f;
#X obj 346 250 f;
#X obj 374 250 f;
#X msg 346 292 level \$1;
#X msg 374 272 pan \$1;
#X obj 287 362 list prepend \$1;
#X msg 287 384 \; \$1-mx/\$2 set \$3;
#X obj 472 197 r mx;
#X obj 472 219 route \$1;
#X obj 472 241 route refresh;
#X obj 472 263 b;
#X msg 287 334 mute \$1;
#X msg 316 314 solo \$1;
#X connect 0 0 4 0;
#X connect 1 0 5 0;
#X connect 4 0 2 0;
#X connect 5 0 3 0;
#X connect 7 0 4 1;
#X connect 8 0 7 0;
#X connect 9 0 5 1;
#X connect 10 0 9 0;
#X connect 11 0 8 0;
#X connect 11 1 10 0;
#X connect 12 0 11 0;
#X connect 12 1 17 0;
#X connect 13 0 14 0;
#X connect 14 0 12 0;
#X connect 15 0 13 0;
#X connect 16 0 15 0;
#X connect 17 0 18 0;
#X connect 18 0 19 0;
#X connect 19 0 20 0;
#X connect 21 0 13 1;
#X connect 21 0 25 1;
#X connect 22 0 14 1;
#X connect 22 0 26 1;
#X connect 23 0 12 1;
#X connect 23 0 27 1;
#X connect 24 0 11 1;
#X connect 24 0 28 1;
#X connect 25 0 37 0;
#X connect 26 0 38 0;
#X connect 27 0 29 0;
#X connect 28 0 30 0;
#X connect 29 0 31 0;
#X connect 30 0 31 0;
#X connect 31 0 32 0;
#X connect 33 0 34 0;
#X connect 34 0 35 0;
#X connect 35 0 36 0;
#X connect 36 0 28 0;
#X connect 36 0 27 0;
#X connect 36 0 26 0;
#X connect 36 0 25 0;
#X connect 37 0 31 0;
#X connect 38 0 31 0;
#X restore -25 88 pd mx.l.p.s.m__;
#X text -23 -45 [i2mx \$1 instrument];
#X obj -25 -22 inlet~;
#X obj 62 -22 inlet~;
#N canvas 931 137 351 263 NETPD 0;
#N canvas 1004 306 186 126 abslist 0;
#X msg 11 12 mx-aux-send;
#X msg 11 37 mx-insert-container;
#X msg 12 61 mx-early-a;
#X restore 15 50 pd abslist;
#X msg 12 18 version 0 0 1;
#X restore 151 -22 pd NETPD 2 0;
#N canvas 793 310 257 218 INIT 0;
#X obj 14 131 \$1;
#X obj 14 178 s mx;
#X obj 71 89 r mx;
#X msg 14 156 newinstr \$1;
#X obj 71 112 route getallinstr;
#X obj 71 134 b;
#X obj 14 20 netpd-dump \$1 10;
#X obj 14 44 spigot 1;
#X obj 14 66 t b b;
#X msg 83 60 0;
#X connect 0 0 3 0;
#X connect 2 0 4 0;
#X connect 3 0 1 0;
#X connect 4 0 5 0;
#X connect 5 0 0 0;
#X connect 6 0 7 0;
#X connect 7 0 8 0;
#X connect 8 0 0 0;
#X connect 8 1 9 0;
#X connect 9 0 7 1;
#X restore 151 5 pd INIT;
#N canvas 950 100 183 209 label 0;
#X obj 17 18 r mx;
#X obj 17 40 route \$1;
#X obj 17 62 route getinstrname;
#X obj 17 84 b;
#X obj 17 106 list append \$1 \$2;
#X msg 17 128 \$1 instrname \$2;
#X obj 17 150 s mx;
#X connect 0 0 1 0;
#X connect 1 0 2 0;
#X connect 2 0 3 0;
#X connect 3 0 4 0;
#X connect 4 0 5 0;
#X connect 5 0 6 0;
#X restore 151 27 pd label;
#X obj 150 62 catch~ \$1-dummy-l;
#X obj 150 84 catch~ \$1-dummy-r;
#X obj -24 361 dac~ 1 2;
#X obj -25 313 catch~ \$1-dac-l;
#X obj 22 334 catch~ \$1-dac-r;
#X obj 181 222 inlet;
#N canvas 722 345 186 309 switch-dsp 0;
#X obj 11 274 outlet;
#X obj 11 16 inlet;
#X obj 62 14 r mx;
#X obj 62 36 route \$1;
#X obj 62 58 route switch;
#X obj 11 187 t b a;
#X obj 62 80 sel 0 1;
#X msg 62 153 0;
#X msg 81 103 stop;
#X msg 101 155 1;
#X obj 62 175 change;
#X obj 62 133 del 50;
#X obj 11 248 change;
#X obj 11 226 && 1;
#X connect 1 0 5 0;
#X connect 2 0 3 0;
#X connect 3 0 4 0;
#X connect 4 0 6 0;
#X connect 5 0 13 0;
#X connect 5 1 13 1;
#X connect 6 0 11 0;
#X connect 6 1 8 0;
#X connect 6 1 9 0;
#X connect 7 0 10 0;
#X connect 8 0 11 0;
#X connect 9 0 10 0;
#X connect 10 0 13 0;
#X connect 11 0 7 0;
#X connect 12 0 0 0;
#X connect 13 0 12 0;
#X restore 181 258 pd switch-dsp;
#X obj 181 323 outlet;
#X obj 191 285 switch~;
#N canvas 153 260 330 249 mx.main.mix_ 0;
#X obj 125 65 route setmainout;
#X obj -15 189 throw~ \$1-dac-l;
#X obj 71 170 throw~ \$1-dac-r;
#X msg 125 87 symbol \$1-mx-sum;
#X msg -5 145 set \$1-l;
#X msg 80 144 set \$1-r;
#X obj 125 41 r mx;
#X obj -15 -1 inlet~;
#X obj 72 -1 inlet~;
#X connect 0 0 3 0;
#X connect 3 0 4 0;
#X connect 3 0 5 0;
#X connect 4 0 1 0;
#X connect 5 0 2 0;
#X connect 6 0 0 0;
#X connect 7 0 1 0;
#X connect 8 0 2 0;
#X restore -25 186 pd mx.main.mix_;
#X connect 0 0 1 0;
#X connect 0 1 1 1;
#X connect 1 0 3 0;
#X connect 1 1 3 1;
#X connect 2 0 19 0;
#X connect 2 1 19 1;
#X connect 3 0 2 0;
#X connect 3 1 2 1;
#X connect 5 0 0 0;
#X connect 6 0 0 1;
#X connect 13 0 12 0;
#X connect 14 0 12 1;
#X connect 15 0 16 0;
#X connect 16 0 17 0;
#X connect 16 0 18 0;
