#N canvas 603 77 364 377 10;
#N canvas 510 157 372 385 mx.insert___ 0;
#X obj 17 210 inlet~;
#X obj 181 210 inlet~;
#X obj 181 330 outlet~;
#X obj 17 330 outlet~;
#X connect 0 0 3 0;
#X connect 1 0 2 0;
#X restore -25 44 pd mx.insert___;
#N canvas 520 483 531 286 mx.aux.pre__ 0;
#X obj 17 9 inlet~;
#X obj 120 9 inlet~;
#X obj 120 226 outlet~;
#X obj 17 226 outlet~;
#X connect 0 0 3 0;
#X connect 1 0 2 0;
#X restore -25 65 pd mx.aux.pre__;
#N canvas 465 135 550 344 mx.aux.post_ 0;
#X obj 20 22 inlet~;
#X obj 20 258 outlet~;
#X obj 184 21 inlet~;
#X obj 184 258 outlet~;
#X connect 0 0 1 0;
#X connect 2 0 3 0;
#X restore -25 111 pd mx.aux.post_;
#N canvas 603 186 602 423 mx.l.p.s.m__ 0;
#X obj 15 276 inlet~;
#X obj 64 277 inlet~;
#X obj 15 317 outlet~;
#X obj 65 317 outlet~;
#X obj 15 297 *~;
#X obj 65 297 *~;
#X text 10 1 level / panorama / solo / mute;
#X obj 31 251 line~;
#X msg 31 230 \$1 50;
#X obj 80 252 line~;
#X msg 80 230 \$1 50;
#N canvas 698 400 450 300 pan____ 0;
#X obj 115 118 cos;
#X obj 215 122 atan;
#X msg 215 101 1;
#X obj 215 144 * 2;
#X obj 115 73 *;
#X obj 142 117 sin;
#X obj 14 9 inlet;
#X obj 188 11 inlet;
#X obj 14 246 outlet;
#X obj 73 245 outlet;
#X obj 190 246 outlet;
#X obj 215 80 loadbang;
#X obj 115 95 t a a;
#X obj 14 201 *;
#X obj 27 171 t b a;
#X obj 73 204 *;
#X obj 86 174 t b a;
#X text 234 11 range: 0-1;
#X text 237 27 default: 0.5;
#X obj 14 116 t a a;
#X connect 0 0 14 0;
#X connect 1 0 3 0;
#X connect 2 0 1 0;
#X connect 3 0 4 1;
#X connect 4 0 12 0;
#X connect 5 0 16 0;
#X connect 6 0 19 0;
#X connect 7 0 4 0;
#X connect 11 0 2 0;
#X connect 12 0 0 0;
#X connect 12 1 5 0;
#X connect 13 0 8 0;
#X connect 14 0 13 0;
#X connect 14 1 13 1;
#X connect 15 0 9 0;
#X connect 16 0 15 0;
#X connect 16 1 15 1;
#X connect 19 0 13 0;
#X connect 19 1 15 0;
#X restore 31 191 pd pan____;
#N canvas 698 400 307 286 level__ 0;
#X obj 14 9 inlet;
#X obj 156 9 inlet;
#X obj 14 246 outlet;
#X obj 183 243 outlet;
#X obj 14 201 *;
#X obj 27 171 t b a;
#X text 202 9 range: 0-1;
#X text 205 25 comment;
#X obj 156 86 *;
#X obj 156 149 t a a;
#X obj 156 123 *;
#X obj 156 61 t a a a;
#X obj 195 85 max 1;
#X obj 183 191 rmstodb;
#X obj 195 107 t a a;
#X obj 195 129 *;
#X obj 183 213 - 100;
#X connect 0 0 4 0;
#X connect 1 0 11 0;
#X connect 4 0 2 0;
#X connect 5 0 4 0;
#X connect 5 1 4 1;
#X connect 8 0 10 0;
#X connect 9 0 5 0;
#X connect 9 1 13 0;
#X connect 10 0 9 0;
#X connect 11 0 8 0;
#X connect 11 1 8 1;
#X connect 11 2 12 0;
#X connect 12 0 14 0;
#X connect 13 0 16 0;
#X connect 14 0 15 0;
#X connect 14 1 15 1;
#X connect 15 0 10 1;
#X connect 16 0 3 0;
#X restore 31 165 pd level__;
#X obj 349 85 hsl 128 15 0 1 0 0 empty empty empty -2 -8 0 10 -262144
-1 -1 0 1;
#X obj 351 201 vsl 15 128 0 1.3 0 0 empty empty empty 0 -9 0 10 -262144
-1 -1 9769 1;
#X msg 347 174 1;
#N canvas 691 469 450 300 mute___ 0;
#X obj 14 9 inlet;
#X obj 188 11 inlet;
#X obj 14 246 outlet;
#X obj 190 246 outlet;
#X obj 27 171 t b a;
#X obj 27 146 ==;
#X obj 14 201 && 1;
#N canvas 827 279 134 200 solo.active 0;
#X obj -4 -301 r mx;
#X obj -4 -279 route sololevel;
#X obj -4 -257 t b a;
#X obj -4 -235 del 0;
#X obj -4 -213 f;
#X obj -4 -191 > 0;
#X obj -4 -169 change;
#X obj -4 -147 outlet;
#X connect 0 0 1 0;
#X connect 1 0 2 0;
#X connect 2 0 3 0;
#X connect 2 1 4 1;
#X connect 3 0 4 0;
#X connect 4 0 5 0;
#X connect 5 0 6 0;
#X connect 6 0 7 0;
#X restore 27 52 pd solo.active;
#X obj 27 118 ||;
#X obj 27 76 t b a;
#X connect 0 0 6 0;
#X connect 1 0 8 0;
#X connect 4 0 6 0;
#X connect 4 1 6 1;
#X connect 5 0 4 0;
#X connect 6 0 2 0;
#X connect 7 0 9 0;
#X connect 8 0 5 0;
#X connect 9 0 8 0;
#X connect 9 1 8 1;
#X restore 31 117 pd mute___;
#N canvas 698 512 270 278 solo___ 0;
#X obj 14 9 inlet;
#X obj 140 14 inlet;
#X obj 14 246 outlet;
#X obj 188 243 outlet;
#N canvas 651 360 346 376 sololevel 0;
#X obj 31 108 r mx;
#X obj 30 8 inlet;
#X obj 30 75 s mx;
#X obj 30 30 t b a;
#X msg 30 53 sololevel 0 \, sololevelrefresh;
#X obj 31 130 route sololevelrefresh sololevel;
#X obj 31 152 b;
#X obj 31 176 f;
#X obj 31 198 +;
#X msg 31 220 sololevel \$1;
#X obj 31 242 s mx;
#X connect 0 0 5 0;
#X connect 1 0 3 0;
#X connect 3 0 4 0;
#X connect 3 1 8 1;
#X connect 4 0 2 0;
#X connect 5 0 6 0;
#X connect 5 1 7 1;
#X connect 6 0 7 0;
#X connect 7 0 8 0;
#X connect 8 0 9 0;
#X connect 9 0 10 0;
#X restore 167 114 pd sololevel;
#X obj 140 65 t a a;
#X obj 140 40 change;
#X obj 14 163 ||;
#X obj 25 140 t b a;
#X obj 14 185 change;
#X connect 0 0 7 0;
#X connect 1 0 6 0;
#X connect 5 0 8 0;
#X connect 5 1 4 0;
#X connect 6 0 5 0;
#X connect 7 0 9 0;
#X connect 8 0 7 0;
#X connect 8 1 7 1;
#X connect 9 0 2 0;
#X restore 31 140 pd solo___;
#X msg 31 93 1;
#X obj 31 70 loadbang;
#X obj 256 12 tgl 15 0 empty empty empty 17 7 0 10 -262144 -1 -1 0
1;
#X msg 345 55 0.5;
#X obj 256 41 tgl 15 0 empty empty empty 17 7 0 10 -262144 -1 -1 0
1;
#X obj 180 296 int;
#X obj 180 318 change;
#X msg 180 340 symbol \$1dB;
#X symbolatom 180 362 10 0 0 0 - - -;
#X obj 339 137 netpd_f \$1 mx/mute 0;
#X connect 0 0 4 0;
#X connect 1 0 5 0;
#X connect 4 0 2 0;
#X connect 5 0 3 0;
#X connect 7 0 4 1;
#X connect 8 0 7 0;
#X connect 9 0 5 1;
#X connect 10 0 9 0;
#X connect 11 0 8 0;
#X connect 11 1 10 0;
#X connect 12 0 11 0;
#X connect 12 1 23 0;
#X connect 13 0 11 1;
#X connect 14 0 12 1;
#X connect 15 0 14 0;
#X connect 16 0 17 0;
#X connect 17 0 12 0;
#X connect 18 0 16 0;
#X connect 19 0 18 0;
#X connect 20 0 16 1;
#X connect 21 0 13 0;
#X connect 22 0 17 1;
#X connect 23 0 24 0;
#X connect 24 0 25 0;
#X connect 25 0 26 0;
#X restore -25 88 pd mx.l.p.s.m__;
#X text -23 -45 [i2mx \$1 instrument];
#X obj -25 -22 inlet~;
#X obj 62 -22 inlet~;
#X obj -25 234 dac~;
#X connect 0 0 1 0;
#X connect 0 1 1 1;
#X connect 1 0 3 0;
#X connect 1 1 3 1;
#X connect 2 0 7 0;
#X connect 2 1 7 1;
#X connect 3 0 2 0;
#X connect 3 1 2 1;
#X connect 5 0 0 0;
#X connect 6 0 0 1;
