#N canvas 547 341 429 400 10;
#X obj 12 79 f;
#X obj 48 58 r \$3-instance;
#X obj 169 60 b;
#X obj 169 14 r \$4;
#X obj 169 332 s \$2;
#X obj 12 13 r \$2-s;
#X obj 108 313 s \$2-r;
#X obj 106 182 t b b;
#X obj 106 203 del 500;
#X obj 106 225 1;
#X obj 131 225 0;
#X msg 108 287 set \$1;
#X obj 12 101 sel \$6;
#X obj 12 57 t b a;
#N canvas 1093 655 173 229 any 0;
#X obj 23 12 inlet;
#X obj 70 14 inlet;
#X msg 70 80 list 1 \$1;
#X obj 23 99 lister;
#X obj 23 122 route 1;
#X obj 23 145 route float;
#X obj 84 167 symbol;
#X obj 23 192 outlet;
#X obj 37 60 t b a;
#X obj 23 35 route bang;
#X connect 0 0 9 0;
#X connect 1 0 2 0;
#X connect 2 0 3 1;
#X connect 3 0 4 0;
#X connect 4 0 5 0;
#X connect 5 0 7 0;
#X connect 5 1 6 0;
#X connect 6 0 7 0;
#X connect 8 0 3 0;
#X connect 8 1 2 0;
#X connect 9 0 3 0;
#X connect 9 1 8 0;
#X restore 12 126 pd any;
#N canvas 1093 655 177 233 any 0;
#X obj 23 12 inlet;
#X obj 70 14 inlet;
#X msg 70 80 list 1 \$1;
#X obj 23 99 lister;
#X obj 23 122 route 1;
#X obj 23 145 route float;
#X obj 84 167 symbol;
#X obj 23 192 outlet;
#X obj 37 60 t b a;
#X obj 23 35 route bang;
#X connect 0 0 9 0;
#X connect 1 0 2 0;
#X connect 2 0 3 1;
#X connect 3 0 4 0;
#X connect 4 0 5 0;
#X connect 5 0 7 0;
#X connect 5 1 6 0;
#X connect 6 0 7 0;
#X connect 8 0 3 0;
#X connect 8 1 2 0;
#X connect 9 0 3 0;
#X connect 9 1 8 0;
#X restore 169 116 pd any;
#N canvas 1093 655 181 237 any 0;
#X obj 23 12 inlet;
#X obj 70 14 inlet;
#X msg 70 80 list 1 \$1;
#X obj 23 99 lister;
#X obj 23 122 route 1;
#X obj 23 145 route float;
#X obj 84 167 symbol;
#X obj 23 192 outlet;
#X obj 37 60 t b a;
#X obj 23 35 route bang;
#X connect 0 0 9 0;
#X connect 1 0 2 0;
#X connect 2 0 3 1;
#X connect 3 0 4 0;
#X connect 4 0 5 0;
#X connect 5 0 7 0;
#X connect 5 1 6 0;
#X connect 6 0 7 0;
#X connect 8 0 3 0;
#X connect 8 1 2 0;
#X connect 9 0 3 0;
#X connect 9 1 8 0;
#X restore 211 243 pd any;
#X obj 211 213 sel \$6;
#X obj 200 62 route float;
#X obj 235 87 symbol;
#X obj 246 132 t b s;
#X obj 211 133 t b f;
#X obj 211 190 f;
#X obj 108 261 spigot 1;
#X obj 222 7 r netpd-receive;
#X obj 222 29 route \$5 \$5-nogui;
#X obj 287 66 route float;
#X obj 348 88 symbol;
#X obj 12 354 route bang;
#N canvas 826 255 193 110 NETPD 0;
#X msg 21 21 version 0 1 0;
#X restore 298 272 pd NETPD;
#X obj 12 332 netpd_a \$1 \$3/\$8/\$7;
#X msg 69 377 \$1;
#X connect 0 0 12 0;
#X connect 1 0 0 1;
#X connect 1 0 22 0;
#X connect 2 0 15 0;
#X connect 3 0 2 0;
#X connect 5 0 13 0;
#X connect 7 0 8 0;
#X connect 7 1 10 0;
#X connect 8 0 9 0;
#X connect 9 0 23 1;
#X connect 10 0 23 1;
#X connect 11 0 6 0;
#X connect 12 0 14 0;
#X connect 13 0 0 0;
#X connect 13 1 14 1;
#X connect 14 0 7 0;
#X connect 14 0 30 0;
#X connect 15 0 4 0;
#X connect 16 0 23 0;
#X connect 17 0 16 0;
#X connect 18 0 15 1;
#X connect 18 0 21 0;
#X connect 18 1 19 0;
#X connect 19 0 15 1;
#X connect 19 0 20 0;
#X connect 20 0 22 0;
#X connect 20 1 16 1;
#X connect 21 0 22 0;
#X connect 21 1 16 1;
#X connect 22 0 17 0;
#X connect 23 0 11 0;
#X connect 24 0 25 0;
#X connect 26 0 16 1;
#X connect 26 0 15 1;
#X connect 26 1 27 0;
#X connect 27 0 16 1;
#X connect 27 0 15 1;
#X connect 28 1 31 0;
#X connect 30 0 28 0;
#X connect 31 0 18 0;
