#N canvas 681 116 374 579 10;
#X obj 12 125 repeat 0;
#X obj 12 170 f;
#X obj 38 169 + 1;
#X obj 12 100 t b f b;
#X obj 25 148 0;
#X obj 12 4 loadbang;
#X obj 12 79 \$3;
#X obj 12 236 + 10;
#X obj 12 216 * 20;
#X obj 12 193 t f f;
#X obj 12 58 t b b;
#X obj 131 148 t b b b;
#X obj 12 281 \$0;
#X obj 12 259 t b f;
#X obj 192 208 symbol \$4;
#X obj 149 188 symbol \$2;
#X obj 131 170 \$1;
#X obj 149 230 pack s s;
#X obj 149 252 makesymbol %s-%s;
#X obj 149 209 t s s;
#X obj 56 322 makesymbol %s%s;
#X obj 56 299 pack s f;
#X obj 56 274 symbol;
#X obj 56 242 t b f;
#X obj 99 275 + 1;
#X obj 110 396 pack s f;
#X obj 110 418 makesymbol %s-%s;
#X obj 110 352 t b f;
#X obj 110 375 symbol;
#N canvas 858 482 389 303 \$0-instr-param 1;
#X restore 143 4 pd \$0-instr-param;
#X obj 12 446 makesymbol pd-%s-instr-param;
#X obj 121 55 \$0;
#X msg 121 97 \; \$1 loadbang;
#X obj 121 77 makesymbol pd-%s-instr-param;
#X obj 12 29 t b b;
#N canvas 585 44 450 300 NETPD 0;
#X msg 15 -7 version 0 2 0;
#N canvas 1096 235 237 163 abslist 0;
#X msg -29 14 instr-instance;
#X restore 15 18 pd abslist;
#X restore 216 134 pd NETPD;
#X obj 203 359 + 1;
#X obj 12 470 pack s f f s s s s f f s;
#X msg 12 493 \; \$1 obj 10 \$2 instr-instance \$3 \$4 \$5 \$6 \$7
\$8 \$9 \$10;
#X connect 0 0 1 0;
#X connect 1 0 2 0;
#X connect 1 0 9 0;
#X connect 2 0 1 1;
#X connect 3 0 0 0;
#X connect 3 1 0 1;
#X connect 3 2 4 0;
#X connect 4 0 1 1;
#X connect 5 0 34 0;
#X connect 6 0 3 0;
#X connect 7 0 13 0;
#X connect 8 0 7 0;
#X connect 9 0 8 0;
#X connect 9 1 23 0;
#X connect 10 0 6 0;
#X connect 10 1 11 0;
#X connect 11 0 16 0;
#X connect 11 1 15 0;
#X connect 11 2 14 0;
#X connect 12 0 30 0;
#X connect 13 0 12 0;
#X connect 13 1 37 1;
#X connect 14 0 17 1;
#X connect 14 0 37 9;
#X connect 15 0 19 0;
#X connect 16 0 37 2;
#X connect 17 0 18 0;
#X connect 18 0 28 1;
#X connect 18 0 37 3;
#X connect 19 0 17 0;
#X connect 19 1 22 1;
#X connect 19 1 37 4;
#X connect 20 0 37 5;
#X connect 21 0 20 0;
#X connect 22 0 21 0;
#X connect 23 0 22 0;
#X connect 23 1 24 0;
#X connect 23 1 36 0;
#X connect 23 1 37 7;
#X connect 24 0 21 1;
#X connect 24 0 27 0;
#X connect 25 0 26 0;
#X connect 26 0 37 6;
#X connect 27 0 28 0;
#X connect 27 1 25 1;
#X connect 28 0 25 0;
#X connect 30 0 37 0;
#X connect 31 0 33 0;
#X connect 33 0 32 0;
#X connect 34 0 31 0;
#X connect 34 1 10 0;
#X connect 36 0 37 8;
#X connect 37 0 38 0;
