#N canvas 547 341 454 401 10;
#X obj 12 79 f;
#X obj 169 60 b;
#X obj 106 182 t b b;
#X obj 106 203 del 500;
#X obj 106 225 1;
#X obj 131 225 0;
#X msg 108 287 set \$1;
#X obj 12 101 sel \$6;
#X obj 12 57 t b a;
#X obj 211 213 sel \$6;
#X obj 211 190 f;
#X obj 108 261 spigot 1;
#N canvas 826 311 193 110 NETPD 0;
#X msg 21 21 version 0 1 2;
#X restore 298 272 pd NETPD;
#X obj 12 332 netpd_a \$1 \$3/\$8/\$7;
#X obj 12 354 route bang;
#X obj 12 13 r \$1-\$2-s;
#X obj 56 42 r \$1-\$3-instance;
#X obj 169 14 r \$1-\$4;
#X obj 108 313 s \$1-\$2-r;
#X obj 169 332 s \$1-\$2;
#X obj 214 161 t b a;
#X obj 211 243 list append;
#X obj 169 97 list append;
#X obj 12 126 list append;
#X connect 0 0 7 0;
#X connect 1 0 22 0;
#X connect 2 0 3 0;
#X connect 2 1 5 0;
#X connect 3 0 4 0;
#X connect 4 0 11 1;
#X connect 5 0 11 1;
#X connect 6 0 18 0;
#X connect 7 0 23 0;
#X connect 8 0 0 0;
#X connect 8 1 23 1;
#X connect 9 0 21 0;
#X connect 10 0 9 0;
#X connect 11 0 6 0;
#X connect 13 0 14 0;
#X connect 14 1 20 0;
#X connect 14 1 22 1;
#X connect 15 0 8 0;
#X connect 16 0 0 1;
#X connect 16 0 10 0;
#X connect 17 0 1 0;
#X connect 20 0 10 0;
#X connect 20 1 21 1;
#X connect 21 0 11 0;
#X connect 22 0 19 0;
#X connect 23 0 2 0;
#X connect 23 0 13 0;
