#N canvas 520 177 700 703 10;
#X obj 258 240 s \$0.record;
#N canvas 468 66 501 462 access.raw.data 0;
#X obj 19 14 r NETPD;
#X obj 19 66 route to;
#X obj 19 88 routeOSC /b;
#X obj 72 138 list;
#X msg 72 160 symbol \$1;
#X obj 19 110 t a b a;
#X obj 19 212 route _;
#X obj 72 182 spigot 1;
#X msg 38 131 0;
#X msg 137 133 1;
#X text 162 134 <- reset;
#X obj 46 258 list length;
#X obj 114 296 sel 1;
#X msg 141 364 cannot record non-single-float parameters;
#X obj 141 394 netpd-error latch;
#X obj 19 234 t a a;
#X obj 19 317 route 1;
#X obj 19 296 list prepend;
#X obj 19 339 route float;
#X obj 169 217 symbol;
#X obj 169 197 del 0;
#X obj 72 204 t a a;
#X obj 169 176 t b a;
#X obj 19 43 spigot;
#X obj 137 57 r \$0.record;
#X obj 137 79 sel 1;
#X obj 169 241 outlet;
#X obj 19 361 outlet;
#X obj 141 331 t b b;
#X msg 233 314 0;
#X obj 233 335 s \$0.record;
#X connect 0 0 23 0;
#X connect 1 0 2 0;
#X connect 2 0 5 0;
#X connect 3 0 4 0;
#X connect 4 0 7 0;
#X connect 5 0 6 0;
#X connect 5 1 8 0;
#X connect 5 2 3 0;
#X connect 6 0 15 0;
#X connect 7 0 21 0;
#X connect 8 0 7 1;
#X connect 9 0 7 1;
#X connect 11 0 12 0;
#X connect 11 0 17 1;
#X connect 12 1 28 0;
#X connect 13 0 14 0;
#X connect 15 0 17 0;
#X connect 15 1 11 0;
#X connect 16 0 18 0;
#X connect 17 0 16 0;
#X connect 18 0 27 0;
#X connect 18 1 28 0;
#X connect 19 0 26 0;
#X connect 20 0 19 0;
#X connect 21 0 6 1;
#X connect 21 1 22 0;
#X connect 22 0 20 0;
#X connect 22 1 19 1;
#X connect 23 0 1 0;
#X connect 24 0 23 1;
#X connect 24 0 25 0;
#X connect 25 0 9 0;
#X connect 28 0 13 0;
#X connect 28 1 29 0;
#X connect 29 0 30 0;
#X restore 28 66 pd access.raw.data;
#X symbolatom 50 20 30 0 0 0 - #0.param.label -;
#X msg 258 175 set \$1;
#X obj 258 153 r \$0.record;
#X obj 129 180 r \$0.record;
#X obj 156 248 timer;
#X obj 156 226 sel 1 0;
#X obj 133 155 s \$0.param;
#X obj 448 48 table \$1-\$2/values 1024;
#X obj 448 70 table \$1-\$2/timedeltas 1024;
#X obj 133 112 list;
#X obj 279 528 r \$0.param;
#X obj 258 197 s \$0.record.toggle.r;
#X obj 258 218 r \$0.record.toggle;
#N canvas 1089 182 303 147 NETPD 0;
#X msg 9 18 version 0 0 0;
#X restore 448 25 pd NETPD 2 0;
#X obj 20 20 tgl 14 0 \$0.record.toggle \$0.record.toggle.r empty 17
7 0 10 -258113 -1 -1 0 1;
#N canvas 399 71 299 381 data.writer 0;
#X obj 54 151 timer;
#X obj 54 122 t b b;
#X obj 15 49 t a b b;
#X obj 87 248 f;
#X obj 119 248 + 1;
#X msg 102 178 0;
#X obj 15 26 f;
#X obj 102 122 sel 1 0;
#X obj 15 315 tabwrite \$1-\$2/values;
#X obj 34 286 tabwrite \$1-\$2/timedeltas;
#X obj 121 143 t b a;
#X obj 215 328 f;
#X obj 34 174 f;
#X obj 34 196 sel 0;
#X obj 34 221 t a b;
#X obj 15 3 inlet;
#X obj 215 352 outlet;
#X obj 164 43 inlet;
#X connect 0 0 12 1;
#X connect 1 0 0 0;
#X connect 1 1 0 1;
#X connect 2 0 8 0;
#X connect 2 1 12 0;
#X connect 2 2 1 0;
#X connect 3 0 4 0;
#X connect 3 0 8 1;
#X connect 3 0 9 1;
#X connect 3 0 11 1;
#X connect 4 0 3 1;
#X connect 5 0 3 1;
#X connect 5 0 11 0;
#X connect 6 0 2 0;
#X connect 7 0 0 0;
#X connect 7 0 5 0;
#X connect 7 1 10 0;
#X connect 10 0 11 0;
#X connect 10 1 6 0;
#X connect 11 0 16 0;
#X connect 12 0 13 0;
#X connect 13 1 14 0;
#X connect 14 0 9 0;
#X connect 14 1 3 0;
#X connect 15 0 6 0;
#X connect 17 0 7 0;
#X restore 28 228 pd data.writer;
#X obj 28 294 s \$0.count;
#X obj 28 273 route float;
#X obj 232 20 nbx 5 14 100 1e+06 0 0 \$1-\$2/length \$1-\$2/length
empty 0 -8 0 10 -262144 -1 -1 9173.33 256;
#X obj 156 270 max 100;
#X obj 156 314 s \$0.length;
#X obj 133 134 route symbol;
#N canvas 562 77 319 451 data.reader 0;
#X obj 93 409 s NETPD;
#X obj 66 264 del 0;
#X obj 66 132 f;
#X obj 93 311 f;
#X obj 66 213 t a a a;
#X obj 66 287 t b b;
#X obj 19 238 b;
#X msg 66 105 0;
#X text 104 111 <- start replay;
#X obj 191 363 r \$0.param;
#X obj 93 360 list prepend _;
#X msg 130 208 stop;
#X obj 66 36 t a a;
#X obj 93 59 sel 0;
#X msg 93 386 to /l\$1 \$2;
#X obj 139 178 + 1;
#X obj 66 236 tabread \$1-\$2/timedeltas;
#X obj 93 336 tabread \$1-\$2/values;
#X obj 66 189 moses;
#X obj 66 85 metro 100;
#X obj 128 85 r \$0.length;
#X obj 66 12 r \$0.play;
#X obj 93 154 r \$0.count;
#X connect 1 0 5 0;
#X connect 2 0 18 0;
#X connect 3 0 17 0;
#X connect 4 0 16 0;
#X connect 4 1 3 1;
#X connect 4 2 15 0;
#X connect 5 0 6 0;
#X connect 5 1 3 0;
#X connect 6 0 2 0;
#X connect 7 0 2 0;
#X connect 9 0 10 1;
#X connect 10 0 14 0;
#X connect 11 0 1 0;
#X connect 12 0 19 0;
#X connect 12 1 13 0;
#X connect 13 0 11 0;
#X connect 14 0 0 0;
#X connect 15 0 2 1;
#X connect 16 0 1 0;
#X connect 17 0 10 0;
#X connect 18 0 4 0;
#X connect 19 0 7 0;
#X connect 20 0 19 1;
#X connect 21 0 12 0;
#X connect 22 0 18 1;
#X restore 28 343 pd data.reader;
#X obj 35 20 tgl 14 0 \$1-\$2/play \$1-\$2/play empty 17 7 0 10 -4034
-1 -1 0 1;
#X obj 391 424 s \$0.play;
#X msg 377 561 set empty;
#X obj 377 517 r \$0.count;
#X obj 377 539 sel 0;
#X obj 553 319 r \$0.count;
#X obj 553 341 sel 0;
#X msg 553 363 set 0;
#X obj 553 385 s \$1-\$2/length;
#X obj 129 202 t a a;
#X obj 391 402 netpd_f \$1 \$2/play 0;
#X msg 279 556 set \$1;
#X obj 279 587 s \$0.param.label;
#X obj 366 470 s \$0.blocked;
#X obj 366 269 r \$0.count;
#X obj 366 291 > 0;
#X obj 366 313 list prepend;
#X obj 435 290 r \$1.notown;
#X obj 366 335 route 1 0;
#X obj 391 359 sel 1;
#X msg 391 381 1;
#X obj 286 20 tgl 14 0 empty \$0.blocked empty 17 7 0 10 -262144 -1
-1 0 1;
#X obj 133 90 netpd_a \$1 \$2/parameter;
#X obj 28 251 netpd_a \$1 \$2/count;
#X obj 156 293 netpd_f \$1 \$2/length;
#X obj 448 93 netpd_t \$1 \$2/values 1024;
#X obj 448 115 netpd_t \$1 \$2/timedeltas 1024;
#X obj 366 445 == 0;
#X connect 1 0 17 0;
#X connect 1 1 47 0;
#X connect 3 0 13 0;
#X connect 4 0 3 0;
#X connect 5 0 34 0;
#X connect 6 0 21 0;
#X connect 7 0 6 0;
#X connect 7 1 6 1;
#X connect 11 0 23 0;
#X connect 12 0 36 0;
#X connect 14 0 0 0;
#X connect 17 0 48 0;
#X connect 19 0 18 0;
#X connect 21 0 49 0;
#X connect 23 0 8 0;
#X connect 27 0 37 0;
#X connect 28 0 29 0;
#X connect 29 0 27 0;
#X connect 30 0 31 0;
#X connect 31 0 32 0;
#X connect 32 0 33 0;
#X connect 34 0 17 1;
#X connect 34 1 7 0;
#X connect 35 0 26 0;
#X connect 36 0 37 0;
#X connect 39 0 40 0;
#X connect 40 0 41 0;
#X connect 41 0 43 0;
#X connect 42 0 41 1;
#X connect 43 0 52 0;
#X connect 43 1 44 0;
#X connect 44 0 45 0;
#X connect 45 0 35 0;
#X connect 47 0 11 0;
#X connect 48 0 19 0;
#X connect 49 0 22 0;
#X connect 52 0 38 0;
#X coords 0 -1 1 1 280 14 2 20 20;
