#N canvas 412 129 484 494 10;
#N canvas 0 43 378 137 NETPD 0;
#X msg 11 14 version 0 0 1;
#X restore 399 11 pd NETPD 2 0;
#X obj 18 17 master-param step;
#X obj 18 44 mod 16;
#X obj 351 31 table \$0.values 2048;
#X obj 357 50 table \$0.times 2048;
#X obj 63 293 master-param 16th;
#X obj 18 297 timer;
#X obj 18 269 t b a;
#X obj 18 317 pack f f;
#X obj 18 337 /;
#X obj 18 357 +;
#X obj 83 312 t a;
#X obj 320 317 nbx 5 14 -1e+37 1e+37 0 0 \$1-\$2/length \$1-\$2/length
empty 0 -8 0 10 -262144 -1 -1 16 256;
#X obj 333 69 netpd_f \$1 \$2/length 16;
#X obj 64 44 netpd_r \$1 \$2/length;
#X obj 362 286 bng 15 250 50 0 \$0.record empty empty 17 7 0 10 -258113
-1 -1;
#X obj 298 340 r \$0.record.status;
#X obj 298 362 hradio 15 1 0 3 empty empty empty 0 -8 0 10 -262144
-1 -1 0;
#N canvas 0 43 450 300 record.status 0;
#X obj 87 78 r \$0.record;
#X obj 9 60 t a a;
#X obj 36 80 sel 0;
#X obj 87 193 t a a;
#X obj 9 217 list prepend;
#X obj 9 237 route 2;
#X obj 114 228 s \$0.record.status;
#X text 137 178 0 = done;
#X text 137 192 1 = waiting;
#X text 137 205 2 = recording;
#X obj 9 37 spigot;
#X obj 55 37 r \$0.record.status;
#X obj 87 152 mod 3;
#X obj 87 133 + 1;
#X obj 87 171 t a a;
#X obj 87 113 f;
#X obj 9 262 outlet;
#X obj 9 11 inlet;
#X connect 0 0 15 0;
#X connect 1 0 4 0;
#X connect 1 1 2 0;
#X connect 2 0 15 0;
#X connect 3 0 4 1;
#X connect 3 1 6 0;
#X connect 4 0 5 0;
#X connect 5 0 16 0;
#X connect 10 0 1 0;
#X connect 11 0 10 1;
#X connect 12 0 14 0;
#X connect 13 0 12 0;
#X connect 14 0 3 0;
#X connect 14 1 15 1;
#X connect 15 0 13 0;
#X connect 17 0 10 0;
#X restore 18 95 pd record.status;
#X obj 287 204 hsl 128 15 0 127 0 0 empty empty empty -2 -8 0 10 -262144
-1 -1 100 1;
#X text 384 286 record;
#X text 382 317 length;
#X text 395 264 param value;
#X obj 284 263 s \$0.param.value;
#X symbolatom 313 226 10 0 0 0 - - -, f 10;
#X msg 310 244 bla bla blu;
#X obj 72 203 r \$0.param.value;
#X obj 72 226 spigot;
#X obj 121 223 r \$0.record.status;
#X obj 121 243 == 2;
#X obj 72 246 t b a;
#X obj 18 379 list append;
#X obj 18 399 print TO_BE_RECORDED;
#X connect 1 0 2 0;
#X connect 2 0 18 0;
#X connect 5 0 8 1;
#X connect 6 0 8 0;
#X connect 7 0 6 0;
#X connect 7 1 11 0;
#X connect 8 0 9 0;
#X connect 9 0 10 0;
#X connect 10 0 31 0;
#X connect 11 0 10 1;
#X connect 14 0 2 1;
#X connect 16 0 17 0;
#X connect 18 0 7 0;
#X connect 19 0 23 0;
#X connect 24 0 23 0;
#X connect 25 0 23 0;
#X connect 26 0 27 0;
#X connect 27 0 30 0;
#X connect 28 0 29 0;
#X connect 29 0 27 1;
#X connect 30 0 6 1;
#X connect 30 1 31 1;
#X connect 31 0 32 0;
