#N canvas 589 44 399 211 10;
#N canvas 1089 182 303 147 NETPD 0;
#X msg 8 18 version 0 0 1;
#X restore 160 59 pd NETPD 2 0;
#N canvas 541 150 378 467 data.reader 0;
#X obj 93 429 s NETPD;
#X obj 66 284 del 0;
#X obj 66 152 f;
#X obj 93 331 f;
#X obj 66 233 t a a a;
#X obj 66 307 t b b;
#X obj 19 258 b;
#X msg 66 128 0;
#X text 100 130 <- start replay;
#X obj 191 383 r \$0.param;
#X obj 93 380 list prepend _;
#X msg 130 228 stop;
#X obj 66 36 t a a;
#X obj 93 59 sel 0;
#X msg 93 406 to /l\$1 \$2;
#X obj 139 198 + 1;
#X obj 66 256 tabread \$1-\$2/timedeltas;
#X obj 93 356 tabread \$1-\$2/values;
#X obj 66 209 moses;
#X obj 66 85 metro 100;
#X obj 128 85 r \$0.length;
#X obj 66 12 r \$0.play;
#X obj 93 174 r \$0.count;
#X obj 212 182 line 0 50;
#X obj 66 107 t b b;
#X msg 212 160 0 \, 1 \$1;
#X obj 212 138 f;
#X msg 212 203 set \$1;
#X obj 212 225 s \$0.param.display;
#X connect 1 0 5 0;
#X connect 2 0 18 0;
#X connect 3 0 17 0;
#X connect 4 0 16 0;
#X connect 4 1 3 1;
#X connect 4 2 15 0;
#X connect 5 0 6 0;
#X connect 5 1 3 0;
#X connect 6 0 2 0;
#X connect 7 0 2 0;
#X connect 9 0 10 1;
#X connect 10 0 14 0;
#X connect 11 0 1 0;
#X connect 12 0 19 0;
#X connect 12 1 13 0;
#X connect 13 0 11 0;
#X connect 14 0 0 0;
#X connect 15 0 2 1;
#X connect 16 0 1 0;
#X connect 17 0 10 0;
#X connect 18 0 4 0;
#X connect 19 0 24 0;
#X connect 20 0 19 1;
#X connect 20 0 26 1;
#X connect 21 0 12 0;
#X connect 22 0 18 1;
#X connect 23 0 27 0;
#X connect 24 0 7 0;
#X connect 24 1 26 0;
#X connect 25 0 23 0;
#X connect 26 0 25 0;
#X connect 27 0 28 0;
#X restore 22 81 pd data.reader;
#X obj 51 20 hsl 170 14 0 1 0 0 \$0.param.display.NULL \$0.param.display
empty 2 7 0 10 -90133 -90133 -4033 0 1;
#X obj 34 20 tgl 14 0 \$0.play.toggle \$1-\$2/play empty 2 6 0 17 -262144
-1 -1 0 1;
#X obj 20 20 tgl 14 0 \$0.record.toggle \$0.record.toggle.r empty 2
6 0 17 -262144 -1 -1 0 1;
#X obj 21 21 cnv 12 13 12 empty \$0.record.display ● 2 5 0 17 -90133
-143491 0;
#X obj 35 21 cnv 12 13 12 empty \$0.play.display ▶ 2 5 0 17 -90133
-2241 0;
#N canvas 135 355 684 235 gui.stuff 0;
#X msg 53 82 13;
#X msg 26 82 23;
#X obj 26 59 sel 0 1;
#X msg 277 85 -65281;
#X msg 229 85 -35841;
#X obj 229 63 sel 0 1;
#X obj 229 134 s \$0.play.display;
#X obj 26 134 s \$0.record.display;
#X msg 229 110 color 29 \$1;
#X msg 26 110 color 29 \$1;
#X msg 397 86 -65281;
#X obj 349 67 sel 0 1;
#X obj 349 134 s \$0.param.display;
#X msg 349 89 29;
#X msg 349 110 color 29 \$1 -65281;
#X obj 486 180 s \$0.length.display;
#X msg 513 133 label \$1ms;
#X msg 486 157 label empty;
#X obj 513 104 makefilename %5d;
#X obj 229 35 r \$0.play;
#X obj 349 37 r \$0.play;
#X obj 486 39 r \$0.length;
#X obj 486 61 sel 0;
#X obj 513 83 int;
#X obj 130 15 r \$0.count;
#X obj 130 37 == 0;
#X obj 26 21 r \$0.record.led;
#X connect 0 0 9 0;
#X connect 1 0 9 0;
#X connect 2 0 1 0;
#X connect 2 1 0 0;
#X connect 3 0 8 0;
#X connect 4 0 8 0;
#X connect 5 0 4 0;
#X connect 5 1 3 0;
#X connect 8 0 6 0;
#X connect 9 0 7 0;
#X connect 10 0 14 0;
#X connect 11 0 13 0;
#X connect 11 1 10 0;
#X connect 13 0 14 0;
#X connect 14 0 12 0;
#X connect 16 0 15 0;
#X connect 17 0 15 0;
#X connect 18 0 16 0;
#X connect 19 0 5 0;
#X connect 20 0 11 0;
#X connect 21 0 22 0;
#X connect 22 0 17 0;
#X connect 22 1 23 0;
#X connect 23 0 18 0;
#X connect 24 0 25 0;
#X connect 25 0 2 0;
#X connect 26 0 2 0;
#X restore 22 126 pd gui.stuff;
#X obj 223 20 nbx 4 14 100 3.6e+06 0 0 \$1-\$2/length \$1-\$2/length
empty 0 -8 0 10 -262144 -1 -1 102017 256;
#X obj 223 21 cnv 12 45 12 empty \$0.length.display empty 2 6 0 10
-90133 -4033 0;
#N canvas 0 260 315 300 recorder 0;
#N canvas 441 265 501 462 access.raw.data 0;
#X obj 19 14 r NETPD;
#X obj 19 66 route to;
#X obj 19 88 routeOSC /b;
#X obj 72 168 list;
#X msg 72 190 symbol \$1;
#X obj 19 140 t a b a;
#X obj 19 242 route _;
#X obj 72 212 spigot 1;
#X msg 38 161 0;
#X msg 137 163 1;
#X text 162 164 <- reset;
#X obj 46 288 list length;
#X obj 114 326 sel 1;
#X msg 141 394 cannot record non-single-float parameters;
#X obj 141 424 netpd-error latch;
#X obj 19 264 t a a;
#X obj 19 347 route 1;
#X obj 19 326 list prepend;
#X obj 19 369 route float;
#X obj 169 247 symbol;
#X obj 169 227 del 0;
#X obj 72 234 t a a;
#X obj 169 206 t b a;
#X obj 19 43 spigot;
#X obj 137 57 r \$0.record;
#X obj 137 79 sel 1;
#X obj 169 271 outlet;
#X obj 19 391 outlet;
#X obj 141 361 t b b;
#X msg 233 344 0;
#X obj 233 365 s \$0.record;
#X obj 19 115 routeOSC /\$1;
#X text 111 121 <- filter out latch2 messages;
#X msg 241 183 resize 2048;
#X obj 137 101 t b b;
#X obj 254 221 s \$1-\$2/timedeltas;
#X obj 241 247 s \$1-\$2/values;
#X connect 0 0 23 0;
#X connect 1 0 2 0;
#X connect 2 0 31 0;
#X connect 3 0 4 0;
#X connect 4 0 7 0;
#X connect 5 0 6 0;
#X connect 5 1 8 0;
#X connect 5 2 3 0;
#X connect 6 0 15 0;
#X connect 7 0 21 0;
#X connect 8 0 7 1;
#X connect 9 0 7 1;
#X connect 11 0 12 0;
#X connect 11 0 17 1;
#X connect 12 1 28 0;
#X connect 13 0 14 0;
#X connect 15 0 17 0;
#X connect 15 1 11 0;
#X connect 16 0 18 0;
#X connect 17 0 16 0;
#X connect 18 0 27 0;
#X connect 18 1 28 0;
#X connect 19 0 26 0;
#X connect 20 0 19 0;
#X connect 21 0 6 1;
#X connect 21 1 22 0;
#X connect 22 0 20 0;
#X connect 22 1 19 1;
#X connect 23 0 1 0;
#X connect 24 0 23 1;
#X connect 24 0 25 0;
#X connect 25 0 34 0;
#X connect 28 0 13 0;
#X connect 28 1 29 0;
#X connect 29 0 30 0;
#X connect 31 1 5 0;
#X connect 33 0 36 0;
#X connect 33 0 35 0;
#X connect 34 0 9 0;
#X connect 34 1 33 0;
#X restore 14 13 pd access.raw.data;
#X obj 115 127 r \$0.record;
#X obj 142 195 timer;
#X obj 142 173 sel 1 0;
#X obj 119 102 s \$0.param;
#X obj 119 59 list;
#N canvas 399 71 382 499 data.writer 0;
#X obj 54 151 timer;
#X obj 54 122 t b b;
#X obj 15 49 t a b b;
#X obj 87 248 f;
#X obj 119 248 + 1;
#X msg 102 178 0;
#X obj 15 26 f;
#X obj 102 122 sel 1 0;
#X obj 15 315 tabwrite \$1-\$2/values;
#X obj 34 286 tabwrite \$1-\$2/timedeltas;
#X obj 215 332 f;
#X obj 34 174 f;
#X obj 34 196 sel 0;
#X obj 34 221 t a b;
#X obj 15 3 inlet;
#X obj 215 392 outlet;
#X obj 164 43 inlet;
#X obj 121 143 t b b b;
#X obj 218 245 s \$1-\$2/timedeltas;
#X obj 205 271 s \$1-\$2/values;
#X obj 205 181 f;
#X msg 205 207 resize \$1;
#X connect 0 0 11 1;
#X connect 1 0 0 0;
#X connect 1 1 0 1;
#X connect 2 0 8 0;
#X connect 2 1 11 0;
#X connect 2 2 1 0;
#X connect 3 0 4 0;
#X connect 3 0 8 1;
#X connect 3 0 9 1;
#X connect 3 0 10 1;
#X connect 3 0 20 1;
#X connect 4 0 3 1;
#X connect 5 0 3 1;
#X connect 5 0 10 0;
#X connect 6 0 2 0;
#X connect 7 0 0 0;
#X connect 7 0 5 0;
#X connect 7 1 17 0;
#X connect 10 0 15 0;
#X connect 11 0 12 0;
#X connect 12 1 13 0;
#X connect 13 0 9 0;
#X connect 13 1 3 0;
#X connect 14 0 6 0;
#X connect 16 0 7 0;
#X connect 17 0 10 0;
#X connect 17 1 20 0;
#X connect 17 2 6 0;
#X connect 20 0 21 0;
#X connect 21 0 19 0;
#X connect 21 0 18 0;
#X restore 14 175 pd data.writer;
#X obj 14 241 s \$0.count;
#X obj 14 220 route float;
#X obj 142 217 max 100;
#X obj 142 261 s \$0.length;
#X obj 119 81 route symbol;
#X obj 115 149 t a a;
#X obj 119 37 netpd_a \$1 \$2/parameter;
#X obj 14 198 netpd_a \$1 \$2/count;
#X obj 142 240 netpd_f \$1 \$2/length 0 333;
#X connect 0 0 6 0;
#X connect 0 1 13 0;
#X connect 1 0 12 0;
#X connect 2 0 9 0;
#X connect 3 0 2 0;
#X connect 3 1 2 1;
#X connect 5 0 11 0;
#X connect 6 0 14 0;
#X connect 8 0 7 0;
#X connect 9 0 15 0;
#X connect 11 0 4 0;
#X connect 12 0 6 1;
#X connect 12 1 3 0;
#X connect 13 0 5 0;
#X connect 14 0 8 0;
#X connect 15 0 10 0;
#X restore 22 59 pd recorder;
#N canvas 566 281 678 383 control.logic 0;
#X obj 279 335 s \$0.play;
#X obj 258 264 netpd_f \$1 \$2/play 0;
#X obj 197 334 s \$0.blocked;
#X obj 197 23 r \$0.count;
#X obj 197 45 > 0;
#X obj 197 67 list prepend;
#X obj 266 44 r \$1.notown;
#X obj 197 89 route 1 0;
#X obj 197 285 == 0;
#X obj 365 31 r \$0.count;
#X obj 365 53 sel 0;
#X msg 365 95 set 0;
#X obj 365 117 s \$1-\$2/length;
#X obj 511 55 r \$0.param;
#X obj 578 29 r \$0.count;
#X obj 578 59 sel 0;
#X msg 318 304 0;
#X obj 258 116 r \$0.play.toggle;
#X msg 511 83 label \$1;
#X msg 578 81 label empty;
#X obj 511 114 s \$0.param.display;
#X obj 411 83 s \$0.length;
#X msg 411 59 0;
#X obj 258 234 spigot;
#X obj 291 142 r \$0.record;
#X obj 291 165 ||;
#X obj 328 185 t b a;
#X obj 291 187 ==;
#X obj 328 163 r \$0.blocked;
#X obj 291 210 t a a;
#X obj 318 235 sel 0;
#X obj 359 335 s \$1-\$2/play;
#X msg 359 313 set 0;
#N canvas 589 265 472 406 record.button.logic 0;
#X obj 11 360 s \$0.record;
#X obj 11 12 r \$0.record.toggle;
#X obj 11 34 route float;
#X obj 30 55 r \$0.blocked;
#X obj 30 77 ==;
#X obj 11 102 spigot 1;
#X obj 298 14 r \$0.record;
#X msg 298 36 set \$1;
#X obj 298 58 s \$0.record.toggle.r;
#X obj 112 105 route pause record;
#X obj 11 133 list prepend 0;
#X obj 11 155 route 0 1;
#X obj 92 362 s \$0.record.led;
#X obj 11 287 t a a;
#X obj 164 131 b;
#X obj 78 304 ==;
#X obj 111 307 t a;
#X obj 164 154 spigot;
#X msg 77 261 1;
#X msg 220 238 0;
#X obj 164 195 ==;
#X obj 205 197 t a;
#X obj 36 201 t b b b;
#X msg 228 163 1;
#X obj 191 279 sel 1 0;
#X msg 119 258 0;
#X obj 164 235 t a a;
#X msg 277 235 0;
#X obj 112 83 r latch2;
#X obj 77 284 metro 400;
#X obj 36 180 sel 1 0;
#X msg 25 252 0;
#X obj 68 225 t b b;
#X connect 1 0 2 0;
#X connect 2 0 5 0;
#X connect 3 0 4 0;
#X connect 4 0 5 1;
#X connect 5 0 10 0;
#X connect 6 0 7 0;
#X connect 7 0 8 0;
#X connect 9 0 10 1;
#X connect 9 1 14 0;
#X connect 10 0 11 0;
#X connect 11 0 13 0;
#X connect 11 1 30 0;
#X connect 13 0 0 0;
#X connect 13 1 12 0;
#X connect 14 0 17 0;
#X connect 15 0 16 0;
#X connect 15 0 12 0;
#X connect 16 0 15 1;
#X connect 17 0 20 0;
#X connect 18 0 29 0;
#X connect 19 0 20 1;
#X connect 19 0 15 1;
#X connect 20 0 21 0;
#X connect 20 0 26 0;
#X connect 21 0 20 1;
#X connect 22 0 18 0;
#X connect 22 1 19 0;
#X connect 22 2 23 0;
#X connect 23 0 17 1;
#X connect 24 0 25 0;
#X connect 24 1 27 0;
#X connect 25 0 29 0;
#X connect 26 0 13 0;
#X connect 26 1 24 0;
#X connect 27 0 17 1;
#X connect 28 0 9 0;
#X connect 29 0 15 0;
#X connect 30 0 22 0;
#X connect 30 1 32 0;
#X connect 31 0 13 0;
#X connect 32 0 31 0;
#X connect 32 1 25 0;
#X restore 27 25 pd record.button.logic;
#X connect 1 0 0 0;
#X connect 3 0 4 0;
#X connect 4 0 5 0;
#X connect 5 0 7 0;
#X connect 6 0 5 1;
#X connect 7 0 8 0;
#X connect 8 0 2 0;
#X connect 9 0 10 0;
#X connect 10 0 11 0;
#X connect 10 0 22 0;
#X connect 11 0 12 0;
#X connect 13 0 18 0;
#X connect 14 0 15 0;
#X connect 15 0 19 0;
#X connect 16 0 0 0;
#X connect 17 0 23 0;
#X connect 18 0 20 0;
#X connect 19 0 20 0;
#X connect 22 0 21 0;
#X connect 23 0 1 0;
#X connect 24 0 25 0;
#X connect 25 0 27 0;
#X connect 26 0 25 0;
#X connect 26 1 25 1;
#X connect 27 0 29 0;
#X connect 28 0 26 0;
#X connect 29 0 23 1;
#X connect 29 1 30 0;
#X connect 30 0 16 0;
#X connect 30 0 32 0;
#X connect 32 0 31 0;
#X restore 22 104 pd control.logic;
#X obj 160 82 table \$1-\$2/values 3;
#X obj 160 104 table \$1-\$2/timedeltas 3;
#X obj 160 127 netpd_t \$1 \$2/values 3;
#X obj 160 149 netpd_t \$1 \$2/timedeltas 3;
#X coords 0 -1 1 1 249 14 2 20 20;
