#N canvas 589 44 399 211 10;
#X obj 160 82 table \$1-\$2/values 1024;
#X obj 160 104 table \$1-\$2/timedeltas 1024;
#N canvas 1089 182 303 147 NETPD 0;
#X msg 9 18 version 0 0 0;
#X restore 160 59 pd NETPD 2 0;
#N canvas 541 150 319 451 data.reader 0;
#X obj 93 409 s NETPD;
#X obj 66 264 del 0;
#X obj 66 132 f;
#X obj 93 311 f;
#X obj 66 213 t a a a;
#X obj 66 287 t b b;
#X obj 19 238 b;
#X msg 66 105 0;
#X text 104 111 <- start replay;
#X obj 191 363 r \$0.param;
#X obj 93 360 list prepend _;
#X msg 130 208 stop;
#X obj 66 36 t a a;
#X obj 93 59 sel 0;
#X msg 93 386 to /l\$1 \$2;
#X obj 139 178 + 1;
#X obj 66 236 tabread \$1-\$2/timedeltas;
#X obj 93 336 tabread \$1-\$2/values;
#X obj 66 189 moses;
#X obj 66 85 metro 100;
#X obj 128 85 r \$0.length;
#X obj 66 12 r \$0.play;
#X obj 93 154 r \$0.count;
#X connect 1 0 5 0;
#X connect 2 0 18 0;
#X connect 3 0 17 0;
#X connect 4 0 16 0;
#X connect 4 1 3 1;
#X connect 4 2 15 0;
#X connect 5 0 6 0;
#X connect 5 1 3 0;
#X connect 6 0 2 0;
#X connect 7 0 2 0;
#X connect 9 0 10 1;
#X connect 10 0 14 0;
#X connect 11 0 1 0;
#X connect 12 0 19 0;
#X connect 12 1 13 0;
#X connect 13 0 11 0;
#X connect 14 0 0 0;
#X connect 15 0 2 1;
#X connect 16 0 1 0;
#X connect 17 0 10 0;
#X connect 18 0 4 0;
#X connect 19 0 7 0;
#X connect 20 0 19 1;
#X connect 21 0 12 0;
#X connect 22 0 18 1;
#X restore 22 81 pd data.reader;
#X obj 160 127 netpd_t \$1 \$2/values 1024;
#X obj 160 149 netpd_t \$1 \$2/timedeltas 1024;
#X obj 51 20 hsl 170 14 0 1 0 0 \$0.param.display.NULL \$0.param.display
empty 2 7 0 10 -90133 -90133 -4033 0 1;
#X obj 34 20 tgl 14 0 \$0.play.toggle \$1-\$2/play empty 2 6 0 17 -262144
-1 -1 0 1;
#X obj 20 20 tgl 14 0 \$0.record.toggle \$0.record.toggle.r empty 2
6 0 17 -262144 -1 -1 0 1;
#X obj 21 21 cnv 12 13 12 empty \$0.record.display o 2 5 0 17 -90133
-143491 0;
#X obj 35 21 cnv 12 13 12 empty \$0.play.display > 2 5 0 17 -90133
-2241 0;
#N canvas 135 355 579 229 gui.stuff 0;
#X msg 53 82 13;
#X msg 26 82 23;
#X obj 26 59 sel 0 1;
#X msg 197 85 -65281;
#X msg 149 85 -35841;
#X obj 149 63 sel 0 1;
#X obj 149 134 s \$0.play.display;
#X obj 26 134 s \$0.record.display;
#X msg 149 110 color 29 \$1;
#X msg 26 110 color 29 \$1;
#X msg 317 86 -65281;
#X obj 269 67 sel 0 1;
#X obj 269 134 s \$0.param.display;
#X msg 269 89 29;
#X msg 269 110 color 29 \$1 -65281;
#X obj 406 180 s \$0.length.display;
#X msg 433 133 label \$1ms;
#X msg 406 157 label empty;
#X obj 433 104 makefilename %5d;
#X obj 149 35 r \$0.play;
#X obj 26 33 r \$0.record;
#X obj 269 37 r \$0.play;
#X obj 406 39 r \$0.length;
#X obj 406 61 sel 0;
#X obj 433 83 int;
#X connect 0 0 9 0;
#X connect 1 0 9 0;
#X connect 2 0 1 0;
#X connect 2 1 0 0;
#X connect 3 0 8 0;
#X connect 4 0 8 0;
#X connect 5 0 4 0;
#X connect 5 1 3 0;
#X connect 8 0 6 0;
#X connect 9 0 7 0;
#X connect 10 0 14 0;
#X connect 11 0 13 0;
#X connect 11 1 10 0;
#X connect 13 0 14 0;
#X connect 14 0 12 0;
#X connect 16 0 15 0;
#X connect 17 0 15 0;
#X connect 18 0 16 0;
#X connect 19 0 5 0;
#X connect 20 0 2 0;
#X connect 21 0 11 0;
#X connect 22 0 23 0;
#X connect 23 0 17 0;
#X connect 23 1 24 0;
#X connect 24 0 18 0;
#X restore 22 126 pd gui.stuff;
#X obj 223 20 nbx 4 14 100 3.6e+06 0 0 \$1-\$2/length \$1-\$2/length
empty 0 -8 0 10 -262144 -1 -1 100 256;
#X obj 223 21 cnv 12 45 12 empty \$0.length.display empty 2 6 0 10
-90133 -4033 0;
#N canvas 0 260 315 300 recorder 0;
#N canvas 468 66 501 462 access.raw.data 0;
#X obj 19 14 r NETPD;
#X obj 19 66 route to;
#X obj 19 88 routeOSC /b;
#X obj 72 168 list;
#X msg 72 190 symbol \$1;
#X obj 19 140 t a b a;
#X obj 19 242 route _;
#X obj 72 212 spigot 1;
#X msg 38 161 0;
#X msg 137 163 1;
#X text 162 164 <- reset;
#X obj 46 288 list length;
#X obj 114 326 sel 1;
#X msg 141 394 cannot record non-single-float parameters;
#X obj 141 424 netpd-error latch;
#X obj 19 264 t a a;
#X obj 19 347 route 1;
#X obj 19 326 list prepend;
#X obj 19 369 route float;
#X obj 169 247 symbol;
#X obj 169 227 del 0;
#X obj 72 234 t a a;
#X obj 169 206 t b a;
#X obj 19 43 spigot;
#X obj 137 57 r \$0.record;
#X obj 137 79 sel 1;
#X obj 169 271 outlet;
#X obj 19 391 outlet;
#X obj 141 361 t b b;
#X msg 233 344 0;
#X obj 233 365 s \$0.record;
#X obj 19 115 routeOSC /\$1;
#X text 111 121 <- filter out latch2 messages;
#X connect 0 0 23 0;
#X connect 1 0 2 0;
#X connect 2 0 31 0;
#X connect 3 0 4 0;
#X connect 4 0 7 0;
#X connect 5 0 6 0;
#X connect 5 1 8 0;
#X connect 5 2 3 0;
#X connect 6 0 15 0;
#X connect 7 0 21 0;
#X connect 8 0 7 1;
#X connect 9 0 7 1;
#X connect 11 0 12 0;
#X connect 11 0 17 1;
#X connect 12 1 28 0;
#X connect 13 0 14 0;
#X connect 15 0 17 0;
#X connect 15 1 11 0;
#X connect 16 0 18 0;
#X connect 17 0 16 0;
#X connect 18 0 27 0;
#X connect 18 1 28 0;
#X connect 19 0 26 0;
#X connect 20 0 19 0;
#X connect 21 0 6 1;
#X connect 21 1 22 0;
#X connect 22 0 20 0;
#X connect 22 1 19 1;
#X connect 23 0 1 0;
#X connect 24 0 23 1;
#X connect 24 0 25 0;
#X connect 25 0 9 0;
#X connect 28 0 13 0;
#X connect 28 1 29 0;
#X connect 29 0 30 0;
#X connect 31 1 5 0;
#X restore 14 13 pd access.raw.data;
#X obj 115 127 r \$0.record;
#X obj 142 195 timer;
#X obj 142 173 sel 1 0;
#X obj 119 102 s \$0.param;
#X obj 119 59 list;
#N canvas 399 71 299 381 data.writer 0;
#X obj 54 151 timer;
#X obj 54 122 t b b;
#X obj 15 49 t a b b;
#X obj 87 248 f;
#X obj 119 248 + 1;
#X msg 102 178 0;
#X obj 15 26 f;
#X obj 102 122 sel 1 0;
#X obj 15 315 tabwrite \$1-\$2/values;
#X obj 34 286 tabwrite \$1-\$2/timedeltas;
#X obj 121 143 t b a;
#X obj 215 328 f;
#X obj 34 174 f;
#X obj 34 196 sel 0;
#X obj 34 221 t a b;
#X obj 15 3 inlet;
#X obj 215 352 outlet;
#X obj 164 43 inlet;
#X connect 0 0 12 1;
#X connect 1 0 0 0;
#X connect 1 1 0 1;
#X connect 2 0 8 0;
#X connect 2 1 12 0;
#X connect 2 2 1 0;
#X connect 3 0 4 0;
#X connect 3 0 8 1;
#X connect 3 0 9 1;
#X connect 3 0 11 1;
#X connect 4 0 3 1;
#X connect 5 0 3 1;
#X connect 5 0 11 0;
#X connect 6 0 2 0;
#X connect 7 0 0 0;
#X connect 7 0 5 0;
#X connect 7 1 10 0;
#X connect 10 0 11 0;
#X connect 10 1 6 0;
#X connect 11 0 16 0;
#X connect 12 0 13 0;
#X connect 13 1 14 0;
#X connect 14 0 9 0;
#X connect 14 1 3 0;
#X connect 15 0 6 0;
#X connect 17 0 7 0;
#X restore 14 175 pd data.writer;
#X obj 14 241 s \$0.count;
#X obj 14 220 route float;
#X obj 142 217 max 100;
#X obj 142 261 s \$0.length;
#X obj 119 81 route symbol;
#X obj 115 149 t a a;
#X obj 119 37 netpd_a \$1 \$2/parameter;
#X obj 14 198 netpd_a \$1 \$2/count;
#X obj 142 240 netpd_f \$1 \$2/length;
#X connect 0 0 6 0;
#X connect 0 1 13 0;
#X connect 1 0 12 0;
#X connect 2 0 9 0;
#X connect 3 0 2 0;
#X connect 3 1 2 1;
#X connect 5 0 11 0;
#X connect 6 0 14 0;
#X connect 8 0 7 0;
#X connect 9 0 15 0;
#X connect 11 0 4 0;
#X connect 12 0 6 1;
#X connect 12 1 3 0;
#X connect 13 0 5 0;
#X connect 14 0 8 0;
#X connect 15 0 10 0;
#X restore 22 59 pd recorder;
#N canvas 566 281 706 388 control.logic 0;
#X obj 29 225 s \$0.record;
#X msg 29 50 set \$1;
#X obj 29 28 r \$0.record;
#X obj 29 72 s \$0.record.toggle.r;
#X obj 29 93 r \$0.record.toggle;
#X obj 29 202 route float;
#X obj 279 305 s \$0.play;
#X obj 222 214 netpd_f \$1 \$2/play 0;
#X obj 197 304 s \$0.blocked;
#X obj 197 23 r \$0.count;
#X obj 197 45 > 0;
#X obj 197 67 list prepend;
#X obj 266 44 r \$1.notown;
#X obj 197 89 route 1 0;
#X obj 197 255 == 0;
#X obj 365 31 r \$0.count;
#X obj 365 53 sel 0;
#X msg 365 95 set 0;
#X obj 365 117 s \$1-\$2/length;
#X obj 511 55 r \$0.param;
#X obj 578 29 r \$0.count;
#X obj 578 59 sel 0;
#X obj 197 277 t a a;
#X obj 279 260 sel 1;
#X msg 279 282 0;
#X obj 258 116 r \$0.play.toggle;
#X obj 291 140 r \$0.blocked;
#X obj 291 162 ==;
#X obj 258 184 spigot;
#X obj 48 127 r \$0.blocked;
#X obj 48 149 ==;
#X obj 29 174 spigot 1;
#X msg 511 83 label \$1;
#X msg 578 81 label empty;
#X obj 511 114 s \$0.param.display;
#X obj 411 83 s \$0.length;
#X msg 411 59 0;
#X connect 1 0 3 0;
#X connect 2 0 1 0;
#X connect 4 0 31 0;
#X connect 5 0 0 0;
#X connect 7 0 6 0;
#X connect 9 0 10 0;
#X connect 10 0 11 0;
#X connect 11 0 13 0;
#X connect 12 0 11 1;
#X connect 13 0 14 0;
#X connect 14 0 22 0;
#X connect 15 0 16 0;
#X connect 16 0 17 0;
#X connect 16 0 36 0;
#X connect 17 0 18 0;
#X connect 19 0 32 0;
#X connect 20 0 21 0;
#X connect 21 0 33 0;
#X connect 22 0 8 0;
#X connect 23 0 24 0;
#X connect 24 0 6 0;
#X connect 25 0 28 0;
#X connect 25 0 7 0;
#X connect 26 0 27 0;
#X connect 27 0 28 1;
#X connect 29 0 30 0;
#X connect 30 0 31 1;
#X connect 31 0 5 0;
#X connect 32 0 34 0;
#X connect 33 0 34 0;
#X connect 36 0 35 0;
#X restore 22 104 pd control.logic;
#X coords 0 -1 1 1 249 14 2 20 20;
