#N canvas 633 159 489 613 10;
#X obj 15 107 mod;
#X obj 292 136 s \$0.sor;
#X obj 261 156 s \$0.dend;
#X obj 30 81 r \$0.sor;
#X obj 15 129 sel 0;
#X obj 158 349 r \$0.dend;
#X msg 158 152 stop;
#X obj 15 57 t a a;
#X obj 147 218 r \$0.sor;
#X obj 132 284 *;
#X obj 147 261 r \$0.dend;
#X obj 15 388 +;
#X obj 132 240 div;
#X obj 242 13 loadbang;
#X obj 261 114 f \$1;
#X obj 292 115 f \$2;
#X obj 15 413 outlet;
#X obj 60 159 /;
#X obj 75 105 r \$0.dend;
#X obj 60 198 *;
#X obj 91 151 r \$0.sor;
#X obj 75 127 t b a;
#X obj 91 173 t b a;
#X obj 15 13 r master;
#X obj 15 345 f;
#X obj 132 349 + 1;
#X obj 132 373 sel;
#X obj 15 196 t b a;
#X msg 30 299 0;
#X obj 242 70 t b b b;
#X msg 242 178 refresh;
#X obj 242 200 s master;
#X obj 60 220 change -1;
#N canvas 613 381 235 117 NETPD 0;
#N canvas 620 615 181 89 abslist 0;
#X msg 15 12 roman_helpers;
#X restore 16 47 pd abslist;
#X msg 16 19 version 0 0 4;
#X restore 17 466 pd NETPD 2 0;
#X obj 307 16 inlet;
#X obj 307 38 t b a;
#X obj 334 62 unpack;
#X obj 158 174 s \$0.start;
#X obj 132 416 s \$0.start;
#X msg 132 395 stop;
#X obj 24 246 r \$0.start;
#X obj 268 239 r master;
#X obj 268 278 route 1;
#X obj 268 452 /;
#X obj 268 474 *;
#X obj 297 452 r \$0.sor;
#X obj 268 497 t a a;
#X obj 268 530 mod;
#X obj 331 524 wrap;
#X msg 331 550 1 \$1;
#X obj 331 573 s \$0.start;
#X obj 268 553 s \$0.step;
#X obj 158 127 route 0;
#X obj 15 367 t a a;
#X obj 297 474 r \$0.dend;
#X obj 132 316 r \$0.step;
#X obj 15 272 rh_metro;
#X obj 15 35 route step 16th switch;
#X obj 268 258 route switch;
#X obj 268 298 t b b;
#X obj 295 340 s master;
#X obj 295 362 r master;
#X obj 295 384 route pos;
#X obj 268 404 f;
#X msg 295 318 getpos;
#X obj 268 426 t a b;
#X msg 375 476 0;
#X connect 0 0 4 0;
#X connect 3 0 0 1;
#X connect 4 0 27 0;
#X connect 5 0 26 1;
#X connect 6 0 37 0;
#X connect 7 0 0 0;
#X connect 7 1 12 0;
#X connect 8 0 12 1;
#X connect 9 0 11 1;
#X connect 10 0 9 1;
#X connect 11 0 16 0;
#X connect 12 0 9 0;
#X connect 13 0 29 0;
#X connect 14 0 2 0;
#X connect 15 0 1 0;
#X connect 17 0 19 0;
#X connect 18 0 21 0;
#X connect 19 0 32 0;
#X connect 20 0 22 0;
#X connect 21 0 17 0;
#X connect 21 1 17 1;
#X connect 22 0 17 0;
#X connect 22 1 19 1;
#X connect 23 0 57 0;
#X connect 24 0 53 0;
#X connect 25 0 26 0;
#X connect 26 0 39 0;
#X connect 26 1 24 1;
#X connect 27 0 56 0;
#X connect 27 1 28 0;
#X connect 28 0 24 1;
#X connect 29 0 30 0;
#X connect 29 1 14 0;
#X connect 29 2 15 0;
#X connect 30 0 31 0;
#X connect 32 0 56 1;
#X connect 34 0 35 0;
#X connect 35 0 29 0;
#X connect 35 1 36 0;
#X connect 36 0 14 1;
#X connect 36 1 15 1;
#X connect 39 0 38 0;
#X connect 40 0 56 0;
#X connect 41 0 58 0;
#X connect 42 0 59 0;
#X connect 43 0 44 0;
#X connect 44 0 46 0;
#X connect 45 0 43 1;
#X connect 46 0 47 0;
#X connect 46 1 48 0;
#X connect 47 0 51 0;
#X connect 48 0 49 0;
#X connect 49 0 50 0;
#X connect 52 0 6 0;
#X connect 53 0 11 0;
#X connect 53 1 25 0;
#X connect 54 0 44 1;
#X connect 54 0 47 1;
#X connect 55 0 25 0;
#X connect 56 0 24 0;
#X connect 57 0 7 0;
#X connect 57 1 17 0;
#X connect 57 2 52 0;
#X connect 58 0 42 0;
#X connect 59 0 63 0;
#X connect 59 1 64 0;
#X connect 61 0 62 0;
#X connect 62 0 63 1;
#X connect 63 0 65 0;
#X connect 64 0 60 0;
#X connect 65 0 43 0;
#X connect 65 1 66 0;
#X connect 66 0 50 0;
