#N canvas 453 257 339 306 10;
#N canvas 0 44 343 182 NETPD 0;
#X msg 9 9 version 0 0 0;
#X restore -4 3 pd NETPD 2 0;
#X obj 102 14 inlet;
#X obj 121 57 list append \$1;
#X obj 121 79 list prepend get;
#X obj 121 101 list trim;
#X obj 121 123 s master;
#X obj 129 145 r master;
#X obj 187 189 route \$1;
#X obj 187 211 list;
#X obj 128 167 route set update;
#X obj 102 213 list append;
#X obj 102 36 t b b b;
#X obj 102 235 route bang;
#X obj 159 270 outlet;
#X obj 128 189 route \$1;
#X obj 140 13 loadbang;
#X obj 231 274 outlet;
#X connect 1 0 11 0;
#X connect 2 0 3 0;
#X connect 3 0 4 0;
#X connect 4 0 5 0;
#X connect 6 0 9 0;
#X connect 7 0 8 0;
#X connect 8 0 13 0;
#X connect 9 0 14 0;
#X connect 9 1 7 0;
#X connect 10 0 12 0;
#X connect 11 0 10 0;
#X connect 11 1 2 0;
#X connect 11 2 10 1;
#X connect 12 0 16 0;
#X connect 12 1 13 0;
#X connect 14 0 10 1;
#X connect 15 0 11 0;
