#N canvas 598 175 339 299 10;
#X obj 10 10 cnv 1 1 30 empty \$0.meter empty 20 12 0 14 -1 -1 0;
#X obj 87 251 s \$0.meter;
#X obj 87 15 r master;
#X obj 87 37 route step;
#X obj 87 58 mod \$1;
#X msg 87 226 color \$1 -1;
#X msg 150 102 -1;
#X msg 87 171 -65281;
#X obj 87 204 change;
#X msg 108 153 -32769;
#X msg 129 127 -16385;
#X obj 87 80 route 0 1 2;
#N canvas 764 198 312 227 NETPD 0;
#X msg 9 8 version 0 0 1;
#X restore 232 14 pd NETPD 2 0;
#X connect 2 0 3 0;
#X connect 3 0 4 0;
#X connect 4 0 11 0;
#X connect 5 0 1 0;
#X connect 6 0 8 0;
#X connect 7 0 8 0;
#X connect 8 0 5 0;
#X connect 9 0 8 0;
#X connect 10 0 8 0;
#X connect 11 0 7 0;
#X connect 11 1 9 0;
#X connect 11 2 10 0;
#X connect 11 3 6 0;
#X coords 0 -1 1 1 1 30 2 10 10;
