#N canvas 454 375 410 288 10;
#N canvas 0 72 201 116 NETPD 0;
#X msg 9 13 version 0 0 1;
#X restore 12 8 pd NETPD 2 0;
#X obj 241 119 list append;
#X obj 222 61 inlet;
#X obj 222 83 t a b a;
#X obj 168 242 s master;
#X obj 113 120 list append;
#X obj 241 141 list prepend update \$1;
#X obj 113 140 list prepend set \$1;
#X obj 168 221 list trim;
#X obj 113 4 r master;
#X obj 113 26 route get;
#X obj 113 48 route \$1;
#X obj 113 70 b;
#X connect 1 0 6 0;
#X connect 2 0 3 0;
#X connect 3 0 5 1;
#X connect 3 1 1 0;
#X connect 3 2 1 1;
#X connect 5 0 7 0;
#X connect 6 0 8 0;
#X connect 7 0 8 0;
#X connect 8 0 4 0;
#X connect 9 0 10 0;
#X connect 10 0 11 0;
#X connect 11 0 12 0;
#X connect 12 0 5 0;
