#N canvas 633 159 448 518 10;
#X obj 15 13 r master;
#X obj 15 35 route step 16th;
#X obj 15 107 mod;
#X obj 365 35 s \$0.sor;
#X obj 280 32 s \$0.dend;
#X floatatom 365 16 5 0 0 0 - - -;
#X floatatom 280 11 5 0 0 0 - - -;
#X obj 30 81 r \$0.sor;
#X obj 15 129 sel 0;
#X obj 58 57 s \$0.16th;
#X obj 139 17 r \$0.16th;
#X obj 139 93 /;
#X obj 154 39 r \$0.dend;
#X obj 139 132 *;
#X obj 170 85 r \$0.sor;
#X obj 154 61 t b a;
#X obj 170 107 t b a;
#X obj 139 154 s \$0.interval;
#X obj 57 270 r \$0.interval;
#X obj 15 206 f;
#X obj 53 204 + 1;
#X obj 15 247 moses;
#X obj 42 226 r \$0.dend;
#X msg 15 151 0;
#X obj 15 269 t a b;
#X obj 42 316 s \$0.loop;
#X obj 23 181 r \$0.loop;
#X floatatom 19 412 5 0 0 0 - - -;
#X obj 42 293 del;
#X obj 319 211 r master;
#N canvas 1093 83 183 200 noise 0;
#X obj 16 15 inlet;
#X obj 25 95 noise~;
#X obj 25 117 *~;
#X obj 25 139 dac~;
#X obj 93 78 line~;
#X msg 93 56 1 \, 0 10;
#X connect 0 0 5 0;
#X connect 1 0 2 0;
#X connect 2 0 3 0;
#X connect 4 0 2 1;
#X connect 5 0 4 0;
#X restore 83 399 pd noise;
#N canvas 1148 141 148 173 click 0;
#X obj 15 104 *~;
#X obj 15 126 dac~;
#X obj 83 65 line~;
#X obj 15 83 osc~ 1000;
#X msg 83 44 1 \, 0 20;
#X obj 83 19 inlet;
#X connect 0 0 1 1;
#X connect 2 0 0 1;
#X connect 3 0 0 0;
#X connect 4 0 2 0;
#X connect 5 0 4 0;
#X restore 317 255 pd click;
#X obj 319 233 route step;
#X obj 152 242 r master;
#X obj 152 264 route switch;
#X obj 152 286 sel 0;
#X msg 152 308 stop;
#X connect 0 0 1 0;
#X connect 1 0 2 0;
#X connect 1 1 9 0;
#X connect 2 0 8 0;
#X connect 5 0 3 0;
#X connect 6 0 4 0;
#X connect 7 0 2 1;
#X connect 8 0 23 0;
#X connect 10 0 11 0;
#X connect 11 0 13 0;
#X connect 12 0 15 0;
#X connect 13 0 17 0;
#X connect 14 0 16 0;
#X connect 15 0 11 0;
#X connect 15 1 11 1;
#X connect 16 0 11 0;
#X connect 16 1 13 1;
#X connect 18 0 28 1;
#X connect 19 0 20 0;
#X connect 19 0 21 0;
#X connect 20 0 19 1;
#X connect 21 0 24 0;
#X connect 22 0 21 1;
#X connect 23 0 19 0;
#X connect 24 0 27 0;
#X connect 24 0 30 0;
#X connect 24 1 28 0;
#X connect 26 0 19 0;
#X connect 28 0 25 0;
#X connect 29 0 32 0;
#X connect 32 0 31 0;
#X connect 33 0 34 0;
#X connect 34 0 35 0;
#X connect 35 0 36 0;
#X connect 36 0 28 0;
