#N canvas 633 159 448 518 10;
#X obj 15 13 r master;
#X obj 15 35 route step 16th;
#X obj 15 107 mod;
#X obj 383 106 s \$0.sor;
#X obj 321 106 s \$0.dend;
#X floatatom 383 87 5 0 0 0 - - -;
#X floatatom 321 85 5 0 0 0 - - -;
#X obj 30 81 r \$0.sor;
#X obj 15 129 sel 0;
#X obj 58 57 s \$0.16th;
#X obj 317 261 r \$0.16th;
#X obj 317 337 /;
#X obj 332 283 r \$0.dend;
#X obj 317 376 *;
#X obj 348 329 r \$0.sor;
#X obj 332 305 t b a;
#X obj 348 351 t b a;
#X obj 15 199 f;
#X obj 53 197 + 1;
#X obj 15 240 moses;
#X obj 42 219 r \$0.dend;
#X msg 15 153 0;
#X obj 15 262 t a b;
#X obj 42 309 s \$0.loop;
#X obj 23 174 r \$0.loop;
#X obj 42 286 del;
#X obj 321 155 r master;
#N canvas 1148 141 148 173 click 0;
#X obj 15 104 *~;
#X obj 15 126 dac~;
#X obj 83 65 line~;
#X obj 15 83 osc~ 1000;
#X msg 83 44 1 \, 0 20;
#X obj 83 19 inlet;
#X connect 0 0 1 1;
#X connect 2 0 0 1;
#X connect 3 0 0 0;
#X connect 4 0 2 0;
#X connect 5 0 4 0;
#X restore 321 199 pd click;
#X obj 321 177 route step;
#X obj 152 244 r master;
#X obj 152 266 route switch;
#X obj 152 288 sel 0;
#X msg 152 310 stop;
#X obj 15 57 t a a;
#X obj 178 131 r \$0.sor;
#X obj 163 197 *;
#X obj 178 174 r \$0.dend;
#X obj 15 332 +;
#X obj 163 153 div;
#X obj 317 398 s \$0.ms;
#X obj 57 263 r \$0.ms;
#X obj 321 16 loadbang;
#X obj 321 38 t b b;
#X obj 321 60 f \$1;
#X obj 383 60 f \$2;
#X obj 15 383 outlet;
#N canvas 613 241 235 117 NETPD 0;
#X msg 16 19 version 0 0 1;
#X restore 17 466 pd NETPD;
#X connect 0 0 1 0;
#X connect 1 0 33 0;
#X connect 1 1 9 0;
#X connect 2 0 8 0;
#X connect 5 0 3 0;
#X connect 6 0 4 0;
#X connect 7 0 2 1;
#X connect 8 0 21 0;
#X connect 10 0 11 0;
#X connect 11 0 13 0;
#X connect 12 0 15 0;
#X connect 13 0 39 0;
#X connect 14 0 16 0;
#X connect 15 0 11 0;
#X connect 15 1 11 1;
#X connect 16 0 11 0;
#X connect 16 1 13 1;
#X connect 17 0 18 0;
#X connect 17 0 19 0;
#X connect 18 0 17 1;
#X connect 19 0 22 0;
#X connect 20 0 19 1;
#X connect 21 0 17 0;
#X connect 22 0 37 0;
#X connect 22 1 25 0;
#X connect 24 0 17 0;
#X connect 25 0 23 0;
#X connect 26 0 28 0;
#X connect 28 0 27 0;
#X connect 29 0 30 0;
#X connect 30 0 31 0;
#X connect 31 0 32 0;
#X connect 32 0 25 0;
#X connect 33 0 2 0;
#X connect 33 1 38 0;
#X connect 34 0 38 1;
#X connect 35 0 37 1;
#X connect 36 0 35 1;
#X connect 37 0 45 0;
#X connect 38 0 35 0;
#X connect 40 0 25 1;
#X connect 41 0 42 0;
#X connect 42 0 43 0;
#X connect 42 1 44 0;
#X connect 43 0 6 0;
#X connect 44 0 5 0;
