#N canvas 623 151 489 613 10;
#X obj 15 107 mod;
#X obj 307 134 s \$0.sor;
#X obj 276 154 s \$0.dend;
#X obj 30 81 r \$0.sor;
#X obj 15 129 sel 0;
#X obj 158 349 r \$0.dend;
#X msg 267 282 stop;
#X obj 15 57 t a a;
#X obj 147 218 r \$0.sor;
#X obj 132 284 *;
#X obj 147 261 r \$0.dend;
#X obj 15 388 +;
#X obj 132 240 div;
#X obj 242 13 loadbang;
#X obj 276 112 f \$1;
#X obj 307 113 f \$2;
#X obj 15 413 outlet;
#X obj 60 159 /;
#X obj 75 105 r \$0.dend;
#X obj 60 198 *;
#X obj 91 151 r \$0.sor;
#X obj 75 127 t b a;
#X obj 91 173 t b a;
#X obj 15 345 f;
#X obj 132 349 + 1;
#X obj 132 373 sel;
#X msg 30 299 0;
#X obj 60 220 change -1;
#N canvas 603 431 242 115 NETPD 0;
#N canvas 620 643 181 89 abslist 0;
#X msg 15 12 roman_helpers;
#X msg 16 34 master-param;
#X restore 16 47 pd abslist;
#X msg 16 19 version 0 1 3;
#X restore 17 466 pd NETPD 2 0;
#X obj 307 16 inlet;
#X obj 307 38 t b a;
#X obj 334 62 unpack;
#X obj 267 304 s \$0.start;
#X obj 132 416 s \$0.start;
#X msg 132 395 stop;
#X obj 24 246 r \$0.start;
#X obj 242 378 /;
#X obj 242 400 *;
#X obj 271 378 r \$0.sor;
#X obj 242 423 t a a;
#X obj 242 456 mod;
#X obj 305 450 wrap;
#X msg 305 476 1 \$1;
#X obj 305 499 s \$0.start;
#X obj 242 479 s \$0.step;
#X obj 15 367 t a a;
#X obj 271 400 r \$0.dend;
#X obj 132 316 r \$0.step;
#X obj 15 272 rh_metro;
#X obj 242 352 t a b;
#X msg 349 402 0;
#X obj 242 239 master-param switch;
#X obj 242 260 route 1 0;
#X obj 15 8 master-param step;
#X obj 60 34 master-param 16th;
#X obj 242 326 master-param pos;
#X obj 242 70 t b b b b;
#X obj 15 174 t b a b;
#X msg 23 210 stop;
#X connect 0 0 4 0;
#X connect 3 0 0 1;
#X connect 4 0 57 0;
#X connect 5 0 25 1;
#X connect 6 0 32 0;
#X connect 7 0 0 0;
#X connect 7 1 12 0;
#X connect 8 0 12 1;
#X connect 9 0 11 1;
#X connect 10 0 9 1;
#X connect 11 0 16 0;
#X connect 12 0 9 0;
#X connect 13 0 56 0;
#X connect 14 0 2 0;
#X connect 15 0 1 0;
#X connect 17 0 19 0;
#X connect 18 0 21 0;
#X connect 19 0 27 0;
#X connect 20 0 22 0;
#X connect 21 0 17 0;
#X connect 21 1 17 1;
#X connect 22 0 17 0;
#X connect 22 1 19 1;
#X connect 23 0 45 0;
#X connect 24 0 25 0;
#X connect 25 0 34 0;
#X connect 25 1 23 1;
#X connect 26 0 23 1;
#X connect 27 0 48 1;
#X connect 29 0 30 0;
#X connect 30 0 56 0;
#X connect 30 1 31 0;
#X connect 31 0 14 1;
#X connect 31 1 15 1;
#X connect 34 0 33 0;
#X connect 35 0 48 0;
#X connect 36 0 37 0;
#X connect 37 0 39 0;
#X connect 38 0 36 1;
#X connect 39 0 40 0;
#X connect 39 1 41 0;
#X connect 40 0 44 0;
#X connect 41 0 42 0;
#X connect 42 0 43 0;
#X connect 45 0 11 0;
#X connect 45 1 24 0;
#X connect 46 0 37 1;
#X connect 46 0 40 1;
#X connect 47 0 24 0;
#X connect 48 0 23 0;
#X connect 49 0 36 0;
#X connect 49 1 50 0;
#X connect 50 0 43 0;
#X connect 51 0 52 0;
#X connect 52 0 55 0;
#X connect 52 1 6 0;
#X connect 53 0 7 0;
#X connect 54 0 17 0;
#X connect 55 0 49 0;
#X connect 56 0 51 0;
#X connect 56 1 54 0;
#X connect 56 2 14 0;
#X connect 56 3 15 0;
#X connect 57 0 48 0;
#X connect 57 1 26 0;
#X connect 57 2 58 0;
#X connect 58 0 48 0;
