#N canvas 996 359 841 754 10;
#N canvas 1256 286 389 60 NETPD 0;
#N canvas 1378 429 413 42 abslist 0;
#X msg 16 10 untik-clock-consumer;
#X restore 9 9 pd abslist;
#X msg 112 19 version 0 1 0;
#X restore 278 22 pd NETPD 2 0;
#X obj 240 137 untik-clock-consumer \$1 set/\$3/clocksource \$2.\$3.clockname;
#X obj 20 20 bng 16 250 50 0 \$0.click empty empty 0 -9 0 10 #fcfcfc #000000 #000000;
#X obj 20 20 cnv 7 237 19 empty empty empty 2 8 0 12 #ffffff #ffffff 0;
#X obj 20 20 cnv 16 234 16 empty \$0.bg \$3 2 8 0 12 #406080 #b6cee0 0;
#X obj 20 83 r \$0.click;
#X obj 48 352 s \$0.bg;
#X obj 20 105 f \$3;
#X msg 20 128 select \$1;
#X obj 20 151 s \$2.bus;
#X obj 21 210 r \$2.bus;
#X obj 21 233 route select;
#X obj 21 258 sel \$3;
#X msg 21 400 set \$1 \, quantity;
#X obj 21 285 t b b;
#X obj 21 376 f \$3;
#X obj 21 421 s \$2.to.seg;
#X obj 362 22 netpd_f \$1 set/\$3/div 1;
#X obj 508 22 netpd_f \$1 set/\$3/shift 0;
#X obj 666 22 netpd_f \$1 set/\$3/length 0;
#X msg 240 89 clocklist;
#X obj 267 331 s \$2.to.seq;
#X obj 267 354 r \$2.from.seq;
#X obj 240 260 t b a;
#X obj 267 284 list append \$3;
#X obj 240 380 f;
#X msg 267 307 set \$2 \, \$1;
#X obj 240 402 list prepend pos;
#X obj 447 392 t a;
#X obj 240 432 list prepend clock set\$3;
#X obj 240 455 list trim;
#X obj 240 489 s \$2.to.clock.provider;
#N canvas 1165 546 450 439 tempo.div.adjust 0;
#X obj 23 35 inlet;
#X obj 23 407 outlet;
#X obj 23 72 unpack f s;
#X obj 23 312 *;
#X obj 80 149 sel permsec persec permin persamp;
#X obj 80 202 b;
#X obj 275 202 b;
#X obj 152 54 netpd_r \$1 set/\$3/div;
#X obj 80 99 symbol;
#X obj 152 77 t b a;
#X obj 275 259 f;
#X obj 80 225 f, f 6;
#X msg 80 248 1 \$1;
#X obj 80 271 /;
#X obj 80 122 t a a, f 13;
#X obj 23 335 list append, f 22;
#X msg 23 358 tempo \$1 \$2;
#X connect 0 0 2 0;
#X connect 2 0 3 0;
#X connect 2 1 8 0;
#X connect 3 0 15 0;
#X connect 4 0 5 0;
#X connect 4 1 5 0;
#X connect 4 2 5 0;
#X connect 4 3 5 0;
#X connect 4 4 6 0;
#X connect 5 0 11 0;
#X connect 6 0 10 0;
#X connect 7 0 9 0;
#X connect 8 0 14 0;
#X connect 9 0 8 0;
#X connect 9 1 10 1;
#X connect 9 1 11 1;
#X connect 10 0 3 1;
#X connect 11 0 12 0;
#X connect 12 0 13 0;
#X connect 13 0 3 1;
#X connect 14 0 4 0;
#X connect 14 1 15 1;
#X connect 15 0 16 0;
#X connect 16 0 1 0;
#X restore 412 295 pd tempo.div.adjust;
#X obj 412 392 t a;
#N canvas 941 417 833 579 div.shift.length 0;
#X obj 26 29 inlet;
#X obj 26 354 outlet;
#X obj 71 56 netpd_r \$1 set/\$3/div;
#N canvas 1017 554 381 198 div 0;
#X obj 3 12 inlet;
#X obj 3 145 outlet;
#X obj 3 39 t a a, f 10;
#X obj 3 70 mod;
#X obj 60 70 div;
#X obj 3 97 sel 0;
#X obj 3 120 f, f 10;
#X obj 122 29 inlet;
#X connect 0 0 2 0;
#X connect 2 0 3 0;
#X connect 2 1 4 0;
#X connect 3 0 5 0;
#X connect 4 0 6 1;
#X connect 5 0 6 0;
#X connect 6 0 1 0;
#X connect 7 0 3 1;
#X connect 7 0 4 1;
#X restore 26 57 pd div;
#X obj 26 211 moses 0;
#X obj 65 266 moses 0;
#X obj 26 237 spigot 1;
#X obj 151 204 t a a;
#X obj 83 238 == 0;
#X obj 104 292 spigot 1;
#X obj 161 293 == 0;
#X obj 26 107 route 0;
#X msg 65 129 \$2;
#X obj 26 84 list prepend 0;
#X obj 26 184 t a a;
#X obj 65 152 - 0;
#X obj 151 101 netpd_r \$1 set/\$3/length;
#X obj 94 153 netpd_r \$1 set/\$3/shift;
#X obj 260 480 makefilename %5d;
#X msg 260 503 label \$1;
#X obj 223 538 s \$0.cursor.label;
#X msg 285 314 color \$1 0 \$2;
#X msg 285 272 0 11;
#X msg 325 281 5 -1;
#X obj 366 146 == 0;
#X obj 285 188 list prepend 1;
#X obj 285 218 select 0 1;
#X obj 324 254 t b b;
#X obj 556 353 r \$2.from.seg;
#X obj 601 380 r \$2.to.seg;
#X obj 601 403 route set;
#X obj 556 450 spigot 0;
#X obj 601 426 == \$3;
#X obj 556 473 route range_length;
#X obj 472 301 netpd_r \$1 set/\$3/length;
#X obj 260 362 list prepend 0 1;
#X obj 472 324 > 0;
#X obj 260 385 route 1 0;
#X obj 292 423 mod;
#X obj 292 446 spigot;
#X obj 556 496 > 0;
#X obj 497 519 sel 0;
#X msg 497 545 symbol empty;
#X connect 0 0 3 0;
#X connect 2 0 3 1;
#X connect 3 0 13 0;
#X connect 4 0 6 0;
#X connect 4 0 25 0;
#X connect 4 1 5 0;
#X connect 5 0 1 0;
#X connect 5 0 27 0;
#X connect 5 1 9 0;
#X connect 5 1 25 0;
#X connect 6 0 1 0;
#X connect 7 0 8 0;
#X connect 7 1 5 1;
#X connect 7 1 10 0;
#X connect 8 0 6 1;
#X connect 9 0 1 0;
#X connect 10 0 9 1;
#X connect 11 0 14 0;
#X connect 11 1 12 0;
#X connect 12 0 15 0;
#X connect 13 0 11 0;
#X connect 14 0 4 0;
#X connect 14 1 35 0;
#X connect 15 0 14 0;
#X connect 16 0 7 0;
#X connect 16 0 13 1;
#X connect 16 0 24 0;
#X connect 17 0 15 1;
#X connect 18 0 19 0;
#X connect 19 0 20 0;
#X connect 21 0 20 0;
#X connect 22 0 21 0;
#X connect 23 0 21 0;
#X connect 24 0 25 1;
#X connect 25 0 26 0;
#X connect 26 0 22 0;
#X connect 26 1 27 0;
#X connect 27 0 23 0;
#X connect 28 0 31 0;
#X connect 29 0 30 0;
#X connect 30 0 32 0;
#X connect 31 0 33 0;
#X connect 32 0 31 1;
#X connect 33 0 40 0;
#X connect 33 0 38 1;
#X connect 34 0 36 0;
#X connect 35 0 37 0;
#X connect 36 0 35 1;
#X connect 37 0 18 0;
#X connect 37 1 38 0;
#X connect 38 0 39 0;
#X connect 39 0 18 0;
#X connect 40 0 39 1;
#X connect 40 0 41 0;
#X connect 41 0 42 0;
#X connect 42 0 19 0;
#X restore 240 214 pd div.shift.length;
#N canvas 654 573 495 308 escalate.requests 0;
#X obj 26 6 r \$2.from.clock.provider;
#X obj 26 100 route get;
#X obj 26 123 route set\$3;
#X obj 26 146 route timestamp;
#X obj 26 170 list prepend get;
#X obj 26 193 list trim;
#X obj 26 216 outlet;
#N canvas 35 77 399 189 prevent.loop 0;
#X obj 112 22 r \$0.current.clock;
#X obj 112 45 symbol;
#X obj 112 68 select ms:set\$3;
#X msg 112 91 0;
#X msg 199 91 1;
#X obj 26 49 spigot 1;
#X obj 112 115 t a a;
#X obj 26 9 inlet;
#X obj 26 142 outlet;
#X obj 139 142 tgl 18 0 empty empty empty 0 -9 0 10 #fcfcfc #000000 #000000 0 1;
#X connect 0 0 1 0;
#X connect 1 0 2 0;
#X connect 2 0 3 0;
#X connect 2 1 4 0;
#X connect 3 0 6 0;
#X connect 4 0 6 0;
#X connect 5 0 8 0;
#X connect 6 0 5 1;
#X connect 6 1 9 0;
#X connect 7 0 5 0;
#X restore 26 37 pd prevent.loop;
#X connect 0 0 7 0;
#X connect 1 0 2 0;
#X connect 2 0 3 0;
#X connect 3 1 4 0;
#X connect 4 0 5 0;
#X connect 5 0 6 0;
#X connect 7 0 1 0;
#X restore 317 88 pd escalate.requests;
#X obj 240 168 route pos tick beat bar clock tempo;
#X obj 378 216 s \$0.current.clock;
#X obj 217 20 cnv 16 40 16 empty \$0.cursor.label empty 2 10 0 10 #fcfcc8 #000000 0;
#X msg 59 285 symbol #406080;
#X msg 48 310 symbol #80a0c0;
#N canvas 219 523 450 300 \$0.link 0;
#X obj 20 20 cnv 10 10 19 empty empty empty 20 12 0 10 #ffffff #404040 0;
#X obj 26 20 cnv 4 4 19 empty empty empty 20 12 0 10 #b6cee0 #404040 0;
#X obj 20 40 cnv 5 10 19 empty empty empty 20 12 0 10 #ffffff #404040 0;
#X obj 26 40 cnv 4 4 10 empty empty empty 20 12 0 10 #b6cee0 #404040 0;
#X obj 21 46 cnv 4 4 4 empty empty empty 20 12 0 10 #b6cee0 #404040 0;
#X obj 20 60 cnv 5 10 19 empty empty empty 20 12 0 10 #ffffff #404040 0;
#X coords 0 -1 1 1 10 19 2 20 60;
#X restore 257 20 pd \$0.link;
#X msg 628 250 coords 0 -1 1 1 10 19 2 20 \$1;
#X msg 639 207 20;
#X msg 674 208 40;
#X msg 722 212 60;
#X obj 628 276 s pd-\$0.link;
#X obj 639 81 r \$2.bus;
#X obj 639 104 route select;
#X obj 639 131 sel \$3;
#X obj 674 163 moses \$3;
#X msg 19 510 label \$1;
#X obj 19 535 s \$0.cursor.label;
#X msg 19 485 symbol;
#X obj 19 460 loadbang;
#X msg 48 331 color \$1 0 #b6cee0;
#X obj 112 20 netpd-gui-number \$1-set/\$3/div 34 16 12 1 99 234 888;
#X obj 147 20 netpd-gui-number \$1-set/\$3/shift 34 16 12 0 9999 234 888;
#X obj 182 20 netpd-gui-number \$1-set/\$3/length 34 16 12 0 9999 234 888;
#X obj 208 676 s \$1-set/\$3/div;
#X obj 198 699 s \$1-set/\$3/shift;
#X obj 188 724 s \$1-set/\$3/length;
#X msg 170 644 background_color \$1;
#X obj 170 521 r \$2.bus;
#X obj 170 544 route select;
#X obj 170 569 sel \$3;
#X msg 170 594 456;
#X msg 203 594 234;
#X msg 265 587 selected_box_color \$1 \, selected_background_color \$1;
#X obj 170 618 t a a;
#X obj 265 611 s \$2.\$3.clockname;
#X obj 398 514 netpd_r \$1 set/\$3/length;
#X obj 403 675 s \$1-set/\$3/shift;
#X obj 393 700 s \$1-set/\$3/length;
#X msg 393 649 text_color \$1;
#X obj 398 537 > 0;
#X obj 398 560 sel 0 1;
#X msg 424 624 888;
#X msg 398 623 567;
#X connect 1 0 36 0;
#X connect 5 0 7 0;
#X connect 7 0 8 0;
#X connect 8 0 9 0;
#X connect 10 0 11 0;
#X connect 11 0 12 0;
#X connect 12 0 14 0;
#X connect 12 1 39 0;
#X connect 13 0 16 0;
#X connect 14 0 15 0;
#X connect 14 1 40 0;
#X connect 15 0 13 0;
#X connect 20 0 1 0;
#X connect 22 0 25 1;
#X connect 23 0 25 0;
#X connect 23 1 24 0;
#X connect 24 0 26 0;
#X connect 25 0 27 0;
#X connect 26 0 21 0;
#X connect 27 0 29 0;
#X connect 28 0 29 0;
#X connect 29 0 30 0;
#X connect 30 0 31 0;
#X connect 32 0 33 0;
#X connect 33 0 29 0;
#X connect 34 0 23 0;
#X connect 35 0 1 0;
#X connect 36 0 34 0;
#X connect 36 4 37 0;
#X connect 36 5 32 0;
#X connect 36 6 28 0;
#X connect 39 0 55 0;
#X connect 40 0 55 0;
#X connect 42 0 46 0;
#X connect 43 0 42 0;
#X connect 44 0 42 0;
#X connect 45 0 42 0;
#X connect 47 0 48 0;
#X connect 48 0 49 0;
#X connect 49 0 44 0;
#X connect 49 1 50 0;
#X connect 50 0 45 0;
#X connect 50 1 43 0;
#X connect 51 0 52 0;
#X connect 53 0 51 0;
#X connect 54 0 53 0;
#X connect 55 0 6 0;
#X connect 62 0 59 0;
#X connect 62 0 60 0;
#X connect 62 0 61 0;
#X connect 63 0 64 0;
#X connect 64 0 65 0;
#X connect 65 0 66 0;
#X connect 65 1 67 0;
#X connect 66 0 69 0;
#X connect 67 0 69 0;
#X connect 68 0 70 0;
#X connect 69 0 62 0;
#X connect 69 1 68 0;
#X connect 71 0 75 0;
#X connect 74 0 73 0;
#X connect 74 0 72 0;
#X connect 75 0 76 0;
#X connect 76 0 78 0;
#X connect 76 1 77 0;
#X connect 77 0 74 0;
#X connect 78 0 74 0;
#X coords 0 -1 1 1 247 19 2 20 20;
