#N canvas 520 309 316 254 10;
#X obj 223 66 r \$2;
#X obj 223 88 << 8;
#N canvas 842 405 329 72 NETPD 0;
#X msg 14 12 version 0 1 0;
#X restore 221 12 pd NETPD 2 0;
#X obj 62 182 s \$1;
#X obj 16 12 inlet;
#X obj 16 34 route float list;
#X obj 123 15 inlet;
#X obj 62 58 unpack f f;
#X obj 62 87 +;
#X obj 62 136 pack f f;
#X obj 16 98 t b a;
#X connect 0 0 1 0;
#X connect 1 0 8 1;
#X connect 4 0 5 0;
#X connect 5 0 10 0;
#X connect 5 1 7 0;
#X connect 6 0 8 0;
#X connect 7 0 8 0;
#X connect 7 1 9 1;
#X connect 8 0 9 0;
#X connect 9 0 3 0;
#X connect 10 0 9 0;
#X connect 10 1 9 1;
