#N canvas 598 401 430 190 10;
#X obj 32 32 inlet;
#N canvas 842 405 329 72 NETPD 0;
#X msg 14 12 version 0 1 0;
#X restore 329 14 pd NETPD 2 0;
#X obj 32 121 s \$1;
#X obj 101 65 r \$2;
#X obj 32 95 list prepend;
#X connect 0 0 4 0;
#X connect 3 0 4 1;
#X connect 4 0 2 0;
