#N canvas 630 441 473 462 10;
#X obj 24 29 inlet;
#X obj 24 368 outlet;
#X obj 123 27 inlet;
#X obj 123 368 outlet;
#X obj 123 49 s \$0.in.1;
#X obj 123 338 r \$0.out.1;
#N canvas 356 245 313 165 NETPD 0;
#N canvas 194 287 334 87 abslist 0;
#X msg 16 7 metaseq-segmenter;
#X restore 23 51 pd abslist;
#X msg 21 14 version 0 1 0;
#X restore 391 8 pd NETPD 2 0;
#X obj 123 135 r \$0.to;
#X obj 123 219 s \$0.from;
#X text 21 8 This is a netpd-ized wrapper around metaseq-segmenter;
#N canvas 346 128 395 366 reporters 0;
#N canvas 162 211 450 300 filter.modifiers 0;
#X obj 11 15 inlet;
#X obj 346 228 outlet;
#X obj 11 67 route add update_width update_offset update_mute clear remove set_add set_remove set_restore clear_all set range solo;
#X obj 233 145 route bang;
#X msg 233 167 range;
#X obj 301 143 route bang;
#X msg 301 165 solo;
#X connect 0 0 2 0;
#X connect 2 11 3 0;
#X connect 2 12 5 0;
#X connect 2 13 1 0;
#X connect 3 0 4 0;
#X connect 4 0 1 0;
#X connect 5 0 6 0;
#X connect 6 0 1 0;
#X restore 20 67 pd filter.modifiers;
#X obj 20 19 r \$0.in.1;
#X obj 20 41 t a a;
#X obj 62 164 route set;
#X obj 47 193 f;
#X obj 20 129 t a b;
#X msg 47 215 set \$1;
#X obj 20 255 s \$0.to;
#N canvas 768 505 310 203 open.out.gate 0;
#X obj 35 147 outlet;
#X obj 16 13 inlet;
#X obj 16 35 t b a b;
#X msg 55 81 1;
#X msg 16 81 0;
#X obj 16 115 s \$0.gate.0;
#X connect 1 0 2 0;
#X connect 2 0 4 0;
#X connect 2 1 0 0;
#X connect 2 2 3 0;
#X connect 3 0 5 0;
#X connect 4 0 5 0;
#X restore 20 102 pd open.out.gate;
#X text 18 289 any reporting methods don't need to be transmitted over network. Their result should be passed through outlet. Make sure that each command works in the correct 'set' (any incoming-over-network modifiying methods may switch 'set').;
#X connect 0 0 8 0;
#X connect 1 0 2 0;
#X connect 2 0 0 0;
#X connect 2 1 3 0;
#X connect 3 0 4 1;
#X connect 4 0 6 0;
#X connect 5 0 7 0;
#X connect 5 1 4 0;
#X connect 6 0 7 0;
#X connect 8 0 5 0;
#X restore 256 46 pd reporters;
#X obj 123 240 r \$0.from;
#X obj 123 311 s \$0.out.1;
#X obj 123 287 spigot 0;
#N canvas 218 225 287 609 modifiers 0;
#N canvas 162 211 450 300 filter.reporters 0;
#X obj 11 15 inlet;
#X obj 334 220 outlet;
#X obj 233 145 route float;
#X msg 233 167 solo \$1;
#X obj 309 147 route float;
#X msg 309 169 range \$1;
#X obj 11 67 route quantity length get dump set set_count dump_all range_length solo range;
#X connect 0 0 6 0;
#X connect 2 0 3 0;
#X connect 3 0 1 0;
#X connect 4 0 5 0;
#X connect 5 0 1 0;
#X connect 6 8 2 0;
#X connect 6 9 4 0;
#X connect 6 10 1 0;
#X restore 27 53 pd filter.reporters;
#X obj 27 21 r \$0.in.1;
#X obj 27 82 t a a;
#X obj 96 159 r \$0.in.1;
#X obj 96 181 route set;
#N canvas 265 188 450 300 filter.set_managers 0;
#X obj 62 91 route set_add set_remove set_restore clear_all;
#X obj 62 68 inlet;
#X obj 335 116 outlet;
#X connect 0 4 2 0;
#X connect 1 0 0 0;
#X restore 27 136 pd filter.set_managers;
#N canvas 261 216 438 124 filter.set_specific 0;
#X obj 33 16 inlet;
#X obj 354 75 outlet;
#X obj 33 38 route add update_width update_offset update_mute clear remove range solo;
#X connect 0 0 2 0;
#X connect 2 8 1 0;
#X restore 54 104 pd filter.set_specific;
#X obj 27 227 list prepend;
#X msg 96 203 set \$1;
#X obj 175 159 loadbang;
#X msg 175 181 0;
#X obj 27 273 netpd_s \$1 \$2;
#X obj 27 293 netpd_r \$1 \$2;
#X obj 54 386 route set;
#X obj 54 466 list split 1;
#X obj 54 420 t a a;
#X obj 53 492 list trim;
#X msg 81 443 set \$1;
#X obj 175 452 t a;
#X obj 27 249 t a a;
#X obj 53 537 t a a;
#X obj 53 569 s \$0.to;
#X obj 27 334 t a a;
#X obj 27 357 s \$0.report.change;
#N canvas 768 505 310 203 open.out.gate 0;
#X obj 35 147 outlet;
#X obj 16 13 inlet;
#X obj 16 35 t b a b;
#X msg 55 91 1;
#X msg 16 91 0;
#X obj 16 125 s \$0.gate.1;
#X connect 1 0 2 0;
#X connect 2 0 4 0;
#X connect 2 1 0 0;
#X connect 2 2 3 0;
#X connect 3 0 5 0;
#X connect 4 0 5 0;
#X restore 27 313 pd open.out.gate;
#X connect 0 0 2 0;
#X connect 1 0 0 0;
#X connect 2 0 5 0;
#X connect 2 1 6 0;
#X connect 3 0 4 0;
#X connect 4 0 8 0;
#X connect 5 0 7 0;
#X connect 6 0 19 0;
#X connect 7 0 19 0;
#X connect 8 0 7 1;
#X connect 10 0 8 0;
#X connect 12 0 24 0;
#X connect 13 0 15 0;
#X connect 13 1 18 0;
#X connect 14 1 16 0;
#X connect 15 0 14 0;
#X connect 15 1 17 0;
#X connect 16 0 20 0;
#X connect 17 0 20 0;
#X connect 18 0 20 0;
#X connect 19 0 11 0;
#X connect 20 0 21 0;
#X connect 22 0 23 0;
#X connect 22 1 13 0;
#X connect 24 0 22 0;
#X restore 256 81 pd modifiers;
#N canvas 679 347 330 391 dump.state 0;
#X obj 89 331 netpd_s \$1 \$2;
#X msg 96 69 dump_all;
#X obj 96 93 s \$0.to;
#X obj 96 116 r \$0.from;
#N canvas 0 44 443 234 msgbox 0;
#X obj 19 26 inlet;
#X msg 19 48;
#X obj 19 140 outlet;
#X connect 0 0 1 0;
#X connect 1 0 2 0;
#X restore 89 307 pd msgbox;
#X obj 96 207 list trim;
#X obj 96 229 t b a;
#X msg 96 251 addcomma;
#X obj 96 185 list prepend add2;
#X msg 62 275 bang \, set;
#X obj 96 162 spigot;
#X obj 62 45 t b b b b;
#X msg 113 136 1;
#X msg 79 137 0;
#X obj 62 16 r \$1.dump.segmenter;
#X connect 1 0 2 0;
#X connect 3 0 10 0;
#X connect 4 0 0 0;
#X connect 5 0 6 0;
#X connect 6 0 7 0;
#X connect 6 1 4 0;
#X connect 7 0 4 0;
#X connect 8 0 5 0;
#X connect 9 0 4 0;
#X connect 10 0 8 0;
#X connect 11 0 9 0;
#X connect 11 1 13 0;
#X connect 11 2 1 0;
#X connect 11 3 12 0;
#X connect 12 0 10 1;
#X connect 13 0 10 1;
#X connect 14 0 11 0;
#X restore 256 117 pd dump.state;
#X text 136 196 <- check help for more info;
#N canvas 415 104 573 538 report.change 0;
#X obj 173 57 r \$0.in.1;
#X obj 173 79 route set;
#X obj 13 39 t a a;
#X obj 13 16 r \$0.report.change;
#X obj 40 85 list split 1;
#X obj 40 146 list append;
#X obj 40 119 sel -1;
#X obj 40 168 list trim;
#X obj 40 190 route add update_width update_offset update_mute clear;
#X obj 13 292 route set_add set_remove clear_all;
#X obj 13 394 s \$0.to;
#X msg 13 372 set_count;
#X obj 40 63 route set set_restore;
#X obj 13 346 b;
#X obj 361 214 route remove range solo;
#X obj 454 305 s \$0.to;
#X msg 454 283 range;
#X obj 509 305 s \$0.to;
#X msg 509 283 solo;
#N canvas 0 44 379 254 update_length 0;
#X obj 53 34 inlet;
#X obj 72 179 s \$0.to;
#X msg 72 157 length;
#X connect 0 0 2 0;
#X connect 2 0 1 0;
#X restore 103 261 pd update_length;
#N canvas 0 44 379 254 update_row 0;
#X obj 53 34 inlet;
#X obj 53 127 s \$0.to;
#X msg 53 105 get \$1;
#X connect 0 0 2 0;
#X connect 2 0 1 0;
#X restore 18 260 pd update_row;
#N canvas 465 205 351 218 update_quantity 0;
#X obj 53 34 inlet;
#X obj 72 179 s \$0.to;
#X msg 72 157 quantity;
#X connect 0 0 2 0;
#X connect 2 0 1 0;
#X restore 208 259 pd update_quantity;
#N canvas 465 205 351 218 update_range_length 0;
#X obj 53 34 inlet;
#X obj 72 179 s \$0.to;
#X msg 72 158 range_length;
#X connect 0 0 2 0;
#X connect 2 0 1 0;
#X restore 329 259 pd update_range_length;
#X connect 0 0 1 0;
#X connect 1 0 6 1;
#X connect 2 0 9 0;
#X connect 2 1 12 0;
#X connect 3 0 2 0;
#X connect 4 0 6 0;
#X connect 4 1 5 1;
#X connect 5 0 7 0;
#X connect 6 0 5 0;
#X connect 7 0 8 0;
#X connect 8 0 21 0;
#X connect 8 0 19 0;
#X connect 8 1 20 0;
#X connect 8 1 19 0;
#X connect 8 1 22 0;
#X connect 8 2 20 0;
#X connect 8 3 20 0;
#X connect 8 4 21 0;
#X connect 8 4 19 0;
#X connect 8 5 14 0;
#X connect 9 0 13 0;
#X connect 9 1 13 0;
#X connect 9 2 13 0;
#X connect 11 0 10 0;
#X connect 12 0 4 0;
#X connect 12 1 4 0;
#X connect 13 0 11 0;
#X connect 14 0 21 0;
#X connect 14 0 19 0;
#X connect 14 0 22 0;
#X connect 14 1 16 0;
#X connect 14 1 22 0;
#X connect 14 2 18 0;
#X connect 14 3 18 0;
#X connect 14 3 16 0;
#X connect 14 3 21 0;
#X connect 14 3 22 0;
#X connect 16 0 15 0;
#X connect 18 0 17 0;
#X restore 256 158 pd report.change;
#X obj 24 196 metaseq-segmenter;
#N canvas 460 189 331 156 gate.receiver 1;
#X obj 15 120 outlet;
#X obj 15 18 r \$0.gate.0;
#X obj 30 41 r \$0.gate.1;
#X obj 30 65 t b a;
#X obj 15 92 ||;
#X connect 1 0 4 0;
#X connect 2 0 3 0;
#X connect 3 0 4 0;
#X connect 3 1 4 1;
#X connect 4 0 0 0;
#X restore 168 264 pd gate.receiver;
#X obj 320 301 loadbang;
#X obj 320 394 s \$0.to;
#X text 289 259 init for new metaseq;
#X text 292 279 it has 8 sets hard-coded;
#X msg 320 370 set_add 9;
#N canvas 1105 263 565 611 active.sets 0;
#X obj 16 12 r \$0.report.change;
#X obj 16 34 route clear_all set_restore set, f 44;
#X msg 43 393 const 0;
#X obj 24 540 s \$1.clock.list.update;
#X obj 16 367 t b b;
#X obj 16 439 s \$0.upd;
#X obj 24 494 r \$0.upd;
#X obj 24 517 del 0;
#X obj 221 572 s \$0.upd;
#X obj 77 128 list split 1;
#X obj 122 153 list length;
#X obj 122 176 > 2;
#X obj 43 417 s \$1.active.sets;
#X obj 221 403 t a a;
#X obj 248 433 tabread \$1.active.sets;
#X obj 248 456 !=;
#X obj 221 479 spigot, f 7;
#X obj 221 504 pack f f, f 11;
#X obj 248 550 s \$1.active.sets;
#X obj 221 527 t b a;
#X msg 197 73 \$2 \$1;
#X obj 197 97 route add remove, f 45;
#X obj 77 220 pack f f;
#X obj 221 379 unpack f f;
#X msg 197 119 \$1 1;
#X obj 367 222 s \$0.to;
#X obj 367 247 r \$0.from;
#X msg 367 198 set \$1 \, quantity;
#X obj 330 316 > 0;
#X obj 330 121 t b a a, f 16;
#X obj 330 338 list prepend, f 16;
#X obj 474 281 s \$0.gate.0;
#X obj 348 142 t b a b;
#X msg 387 168 0;
#X msg 348 168 1;
#X obj 367 270 route quantity;
#X obj 330 293 f;
#X connect 0 0 1 0;
#X connect 1 0 4 0;
#X connect 1 1 9 0;
#X connect 1 2 20 0;
#X connect 2 0 12 0;
#X connect 4 0 5 0;
#X connect 4 1 2 0;
#X connect 6 0 7 0;
#X connect 7 0 3 0;
#X connect 9 0 22 0;
#X connect 9 1 10 0;
#X connect 10 0 11 0;
#X connect 11 0 22 1;
#X connect 13 0 16 0;
#X connect 13 1 14 0;
#X connect 14 0 15 0;
#X connect 15 0 16 1;
#X connect 16 0 17 0;
#X connect 17 0 19 0;
#X connect 19 0 8 0;
#X connect 19 1 18 0;
#X connect 20 0 21 0;
#X connect 21 0 24 0;
#X connect 21 1 29 0;
#X connect 22 0 23 0;
#X connect 23 0 13 0;
#X connect 23 1 15 1;
#X connect 23 1 17 1;
#X connect 24 0 23 0;
#X connect 26 0 35 0;
#X connect 27 0 25 0;
#X connect 28 0 30 0;
#X connect 29 0 36 0;
#X connect 29 1 32 0;
#X connect 29 2 30 1;
#X connect 30 0 23 0;
#X connect 32 0 34 0;
#X connect 32 1 27 0;
#X connect 32 2 33 0;
#X connect 33 0 31 0;
#X connect 34 0 31 0;
#X connect 35 0 36 1;
#X connect 36 0 28 0;
#X restore 327 196 pd active.sets;
#X connect 0 0 18 0;
#X connect 2 0 4 0;
#X connect 5 0 3 0;
#X connect 7 0 18 1;
#X connect 11 0 13 0;
#X connect 13 0 12 0;
#X connect 18 0 1 0;
#X connect 18 1 8 0;
#X connect 19 0 13 1;
#X connect 20 0 24 0;
#X connect 24 0 21 0;
