#N canvas 746 226 467 412 10;
#X obj 24 29 inlet;
#X obj 24 368 outlet;
#X obj 105 29 inlet;
#X obj 105 368 outlet;
#X obj 105 51 s \$0.in.1;
#X obj 105 338 r \$0.out.1;
#X obj 24 196 metaseq-router;
#X text 23 7 This is a netpd-ized wrapper around metaseq-router;
#N canvas 366 220 313 165 NETPD 0;
#N canvas 194 287 334 87 abslist 0;
#X msg 16 7 metaseq-router;
#X restore 23 51 pd abslist;
#X msg 20 14 version 0 1 0;
#X restore 380 7 pd NETPD 2 0;
#X obj 105 135 r \$0.to;
#X obj 105 219 s \$0.from;
#X obj 105 240 r \$0.from;
#X obj 105 311 s \$0.out.1;
#X obj 105 287 spigot 0;
#X text 121 195 <- check help for more info;
#N canvas 746 226 395 366 reporters 0;
#N canvas 101 179 376 187 filter.modifiers 0;
#X obj 11 15 inlet;
#X obj 194 93 outlet;
#X obj 11 67 route add remove update restore;
#X connect 0 0 2 0;
#X connect 2 4 1 0;
#X restore 20 67 pd filter.modifiers;
#X obj 20 31 r \$0.in.1;
#X obj 20 132 s \$0.to;
#N canvas 768 505 310 203 open.out.gate 0;
#X obj 35 147 outlet;
#X obj 16 13 inlet;
#X obj 16 35 t b a b;
#X msg 55 81 1;
#X msg 16 81 0;
#X obj 16 115 s \$0.gate.0;
#X connect 1 0 2 0;
#X connect 2 0 4 0;
#X connect 2 1 0 0;
#X connect 2 2 3 0;
#X connect 3 0 5 0;
#X connect 4 0 5 0;
#X restore 20 102 pd open.out.gate;
#X text 18 289 any reporting methods don't need to be transmitted over
network. Their result should be passed through outlet.;
#X connect 0 0 3 0;
#X connect 1 0 0 0;
#X connect 3 0 2 0;
#X restore 256 46 pd reporters;
#N canvas 288 247 246 284 modifiers 0;
#N canvas 162 211 402 177 filter.reporters 0;
#X obj 11 15 inlet;
#X obj 128 93 outlet;
#X obj 11 67 route get count dump;
#X connect 0 0 2 0;
#X connect 2 3 1 0;
#X restore 27 53 pd filter.reporters;
#X obj 27 21 r \$0.in.1;
#X obj 27 83 netpd_s \$1 \$2;
#X obj 26 118 netpd_r \$1 \$2;
#X obj 26 159 t a a;
#X obj 26 214 s \$0.report.change;
#N canvas 768 505 310 203 open.out.gate 0;
#X obj 35 147 outlet;
#X obj 16 13 inlet;
#X obj 16 35 t b a b;
#X msg 55 91 1;
#X msg 16 91 0;
#X obj 16 125 s \$0.gate.1;
#X connect 1 0 2 0;
#X connect 2 0 4 0;
#X connect 2 1 0 0;
#X connect 2 2 3 0;
#X connect 3 0 5 0;
#X connect 4 0 5 0;
#X restore 26 138 pd open.out.gate;
#X obj 53 182 s \$0.to;
#X connect 0 0 2 0;
#X connect 1 0 0 0;
#X connect 3 0 6 0;
#X connect 4 0 5 0;
#X connect 4 1 7 0;
#X connect 6 0 4 0;
#X restore 256 81 pd modifiers;
#N canvas 709 328 255 263 dump.state 0;
#X obj 62 200 netpd_s \$1 \$2;
#X obj 62 23 netpd-dump \$1;
#X obj 81 93 s \$0.to;
#X obj 62 153 r \$0.from;
#X msg 81 69 dump;
#X obj 62 45 t b b b;
#X obj 62 175 spigot 0;
#X msg 62 117 0;
#X msg 101 117 1;
#X connect 1 0 5 0;
#X connect 3 0 6 0;
#X connect 4 0 2 0;
#X connect 5 0 7 0;
#X connect 5 1 4 0;
#X connect 5 2 8 0;
#X connect 6 0 0 0;
#X connect 7 0 6 1;
#X connect 8 0 6 1;
#X restore 256 117 pd dump.state;
#N canvas 344 110 323 300 report.change 0;
#X obj 13 16 r \$0.report.change;
#X obj 13 238 s \$0.to;
#X obj 13 38 route add remove restore update;
#X msg 13 139 count;
#X msg 150 130 get \$1;
#X connect 0 0 2 0;
#X connect 2 0 3 0;
#X connect 2 1 3 0;
#X connect 2 2 3 0;
#X connect 2 3 4 0;
#X connect 3 0 1 0;
#X connect 4 0 1 0;
#X restore 256 158 pd report.change;
#N canvas 460 189 331 156 gate.receiver 0;
#X obj 15 120 outlet;
#X obj 15 18 r \$0.gate.0;
#X obj 30 41 r \$0.gate.1;
#X obj 30 65 t b a;
#X obj 15 92 ||;
#X connect 1 0 4 0;
#X connect 2 0 3 0;
#X connect 3 0 4 0;
#X connect 3 1 4 1;
#X connect 4 0 0 0;
#X restore 150 264 pd gate.receiver;
#X connect 0 0 6 0;
#X connect 2 0 4 0;
#X connect 5 0 3 0;
#X connect 6 0 1 0;
#X connect 6 1 10 0;
#X connect 9 0 6 1;
#X connect 11 0 13 0;
#X connect 13 0 12 0;
#X connect 19 0 13 1;
