#N canvas 605 228 410 374 10;
#X obj 167 236 list prepend;
#X obj 285 161 r \$0.address;
#X obj 167 310 s NETPD;
#X msg 167 288 to /b\$1 \$2 \, to /l\$1 \$2;
#X obj 83 21 hsl 220 15 0 127 0 0 \$0.slider empty empty -2 8 0 10
-262144 -1 -1 0 1;
#X obj 80 21 cnv 15 225 15 empty \$0.path <not_set> 5 7 0 10 -262144
-1 0;
#X obj 167 211 change -1;
#X obj 167 59 ctlin \$1 \$2;
#X obj 167 81 / 127;
#N canvas 617 97 457 398 learn 0;
#X obj 19 12 r NETPD;
#X obj 19 109 route to;
#X obj 19 131 routeOSC /b;
#X obj 19 153 list split 1;
#X obj 115 183 route float;
#X obj 19 176 sel bla;
#X obj 58 199 t a a;
#X obj 58 234 list prepend;
#X msg 115 208 0;
#X msg 178 206 1;
#X obj 58 256 route 0 1;
#X obj 58 283 symbol;
#X msg 124 286 error: no support for non-single float parameters;
#X obj 124 308 print -n;
#X obj 58 372 s \$0.address;
#X obj 19 86 spigot 0;
#X obj 64 39 r \$0.address;
#X msg 64 61 0;
#X obj 143 39 r \$0.learn;
#X msg 143 61 1;
#X obj 155 246 s \$0.init;
#X msg 162 109 symbol -bla;
#X connect 0 0 15 0;
#X connect 1 0 2 0;
#X connect 2 0 3 0;
#X connect 3 0 5 0;
#X connect 3 1 4 0;
#X connect 4 0 8 0;
#X connect 4 0 20 0;
#X connect 4 1 9 0;
#X connect 5 1 6 0;
#X connect 6 0 7 0;
#X connect 6 1 5 1;
#X connect 7 0 10 0;
#X connect 8 0 7 1;
#X connect 9 0 7 1;
#X connect 10 0 11 0;
#X connect 10 1 12 0;
#X connect 11 0 14 0;
#X connect 12 0 13 0;
#X connect 15 0 1 0;
#X connect 16 0 17 0;
#X connect 17 0 15 1;
#X connect 18 0 19 0;
#X connect 18 0 21 0;
#X connect 19 0 15 1;
#X connect 21 0 5 1;
#X restore 20 69 pd learn;
#N canvas 865 356 248 267 one.at.a.time 0;
#X obj 27 21 r \$0.slider;
#X obj 27 41 sel 0;
#X obj 66 41 t a;
#X obj 27 131 t b b;
#X obj 94 203 s MIDI2NETPD;
#X obj 27 203 s \$0.learn;
#X obj 27 109 spigot 1;
#X obj 72 64 r MIDI2NETPD;
#X obj 72 86 route learn;
#X obj 94 132 r \$0.address;
#X msg 94 180 learn \$1;
#X msg 94 153 1;
#X msg 54 153 0;
#X connect 0 0 1 0;
#X connect 1 0 6 0;
#X connect 1 1 2 0;
#X connect 2 0 1 1;
#X connect 3 0 5 0;
#X connect 3 1 12 0;
#X connect 6 0 3 0;
#X connect 7 0 8 0;
#X connect 8 0 6 1;
#X connect 9 0 11 0;
#X connect 10 0 4 0;
#X connect 11 0 10 0;
#X connect 12 0 10 0;
#X restore 20 94 pd one.at.a.time;
#N canvas 1027 311 462 318 gui.colors.labels 0;
#X msg 21 110 label \$1;
#X msg 70 224 color \$1 -1;
#X msg 98 171 0;
#X msg 122 172 3;
#X msg 70 171 10;
#X obj 160 14 loadbang;
#X msg 160 37 label <not_set>;
#X obj 122 127 r \$0.learn;
#X msg 134 150 label ...learning...;
#X obj 312 27 r \$0.receiving;
#X obj 312 201 s \$0.indicator;
#X obj 312 49 b;
#X msg 312 71 13;
#X msg 350 97 0;
#X obj 350 75 del 70;
#X obj 70 268 s \$0.path;
#X obj 80 248 s \$0.label;
#X obj 70 196 t a a;
#X obj 312 122 t b a;
#X obj 312 154 pack f f;
#X msg 312 179 color \$1 \$2;
#X obj 21 132 s \$0.path;
#X obj 21 42 route bang;
#X obj 21 70 list;
#X obj 21 20 r \$0.address;
#X connect 0 0 21 0;
#X connect 1 0 15 0;
#X connect 1 0 16 0;
#X connect 2 0 17 0;
#X connect 3 0 17 0;
#X connect 4 0 17 0;
#X connect 5 0 6 0;
#X connect 5 0 2 0;
#X connect 6 0 21 0;
#X connect 7 0 3 0;
#X connect 7 0 8 0;
#X connect 8 0 21 0;
#X connect 9 0 11 0;
#X connect 11 0 12 0;
#X connect 11 0 14 0;
#X connect 12 0 18 0;
#X connect 13 0 18 0;
#X connect 14 0 13 0;
#X connect 17 0 1 0;
#X connect 17 1 19 0;
#X connect 18 0 19 0;
#X connect 18 1 19 1;
#X connect 19 0 20 0;
#X connect 20 0 10 0;
#X connect 22 1 23 0;
#X connect 23 0 0 0;
#X connect 23 0 4 0;
#X connect 24 0 22 0;
#X restore 20 119 pd gui.colors.labels;
#N canvas 1101 280 358 414 get.current 0;
#X obj 21 31 r \$0.init;
#X obj 176 237 r \$0.address;
#X obj 98 47 r NETPD;
#X msg 176 260 set \$1;
#X obj 21 357 outlet;
#X obj 98 282 routeOSC /dummy;
#X msg 184 45 status get socket;
#X obj 184 68 s NETPD;
#X obj 98 91 route from sender status;
#X obj 192 113 route socket;
#X obj 184 22 loadbang;
#X obj 98 207 spigot 1;
#X msg 172 182 1;
#X msg 145 181 0;
#X obj 145 136 route float;
#X obj 145 160 sel 0;
#X connect 0 0 4 0;
#X connect 1 0 3 0;
#X connect 2 0 8 0;
#X connect 3 0 5 0;
#X connect 5 0 4 0;
#X connect 6 0 7 0;
#X connect 8 0 11 0;
#X connect 8 1 14 0;
#X connect 8 2 9 0;
#X connect 9 0 15 1;
#X connect 10 0 6 0;
#X connect 11 0 5 0;
#X connect 12 0 11 1;
#X connect 13 0 11 1;
#X connect 14 0 15 0;
#X connect 15 0 13 0;
#X connect 15 1 12 0;
#X restore 266 130 pd get.current;
#X text 174 263 send to local and broadcast;
#N canvas 1015 358 228 455 soft.take-over 0;
#X obj 17 23 inlet;
#X obj 17 400 outlet;
#X obj 104 21 inlet;
#X obj 77 132 -;
#X obj 77 154 t a b a;
#X obj 78 201 *;
#X obj 78 223 <= 0;
#X obj 17 321 spigot 0;
#X obj 78 245 sel 1;
#X msg 78 267 1;
#X msg 43 163 0;
#X obj 77 179 f -1;
#X obj 17 55 t a b a;
#X obj 104 43 t b a;
#X obj 109 94 t b a;
#N canvas 789 256 226 120 once 0;
#X obj 21 9 inlet;
#X obj 21 31 spigot 1;
#X obj 21 53 t a b;
#X msg 84 51 0;
#X obj 21 75 outlet;
#X connect 0 0 1 0;
#X connect 1 0 2 0;
#X connect 2 0 4 0;
#X connect 2 1 3 0;
#X connect 3 0 1 1;
#X restore 31 111 pd once;
#X connect 0 0 12 0;
#X connect 2 0 13 0;
#X connect 3 0 4 0;
#X connect 4 0 11 1;
#X connect 4 1 11 0;
#X connect 4 2 5 1;
#X connect 5 0 6 0;
#X connect 6 0 8 0;
#X connect 7 0 1 0;
#X connect 8 0 9 0;
#X connect 9 0 7 1;
#X connect 10 0 7 1;
#X connect 11 0 5 0;
#X connect 12 0 7 0;
#X connect 12 1 15 0;
#X connect 12 2 3 0;
#X connect 13 0 10 0;
#X connect 13 1 14 0;
#X connect 14 0 3 0;
#X connect 14 1 3 1;
#X connect 15 0 10 0;
#X restore 167 158 pd soft.take-over;
#X msg 244 197 1;
#X obj 167 180 spigot 0;
#X obj 216 93 s \$0.receiving;
#X obj 167 109 * 1;
#X obj 20 21 cnv 15 50 15 empty \$0.label \$3 5 7 0 10 -262144 -1 0
;
#X obj 71 21 cnv 8 8 15 empty \$0.indicator â— 2 7 0 10 -262144 -262144
0;
#N canvas 454 69 381 120 NETPD 0;
#X msg 17 15 version 0 0 1;
#X restore 22 213 pd NETPD 2 0;
#X obj 285 185 netpd_a \$1 \$3/param;
#X connect 0 0 3 0;
#X connect 1 0 22 0;
#X connect 1 0 15 0;
#X connect 1 0 0 1;
#X connect 3 0 2 0;
#X connect 6 0 0 0;
#X connect 7 0 8 0;
#X connect 7 0 17 0;
#X connect 8 0 18 0;
#X connect 12 0 14 1;
#X connect 14 0 16 0;
#X connect 15 0 16 1;
#X connect 16 0 6 0;
#X connect 18 0 14 0;
#X coords 0 -1 1 1 285 17 2 20 20;
