#N canvas 605 227 482 436 10;
#X obj 167 290 list prepend;
#X obj 285 180 r \$0.address;
#X obj 23 22 hsl 280 15 0 127 0 0 \$0.slider empty empty -2 8 0 10 #fcfcfc #000000 #000000 0 1;
#X obj 80 21 cnv 15 225 15 empty \$0.path <unset> 5 7 0 10 #fcfcfc #000000 0;
#X obj 167 241 change -1;
#X obj 167 131 / 127;
#N canvas 617 97 456 502 learn 0;
#X obj 19 12 r NETPD;
#X obj 19 253 list split 1;
#X obj 115 283 route float;
#X obj 19 276 sel bla;
#X obj 58 299 t a a;
#X obj 58 334 list prepend;
#X msg 115 308 0;
#X msg 178 306 1;
#X obj 58 356 route 0 1;
#X obj 58 383 symbol;
#X msg 124 386 error: no support for non-single float parameters;
#X obj 124 408 print -n;
#X obj 58 472 s \$0.address;
#X obj 19 86 spigot 0;
#X obj 64 39 r \$0.address;
#X msg 64 61 0;
#X obj 143 39 r \$0.learn;
#X msg 143 61 1;
#X obj 155 346 s \$0.init;
#X msg 162 109 symbol -bla;
#N canvas 229 439 349 256 block_master_offset 0;
#X obj 45 64 routeOSC /*;
#X obj 26 42 t a a b;
#X obj 45 108 b;
#X obj 26 156 spigot;
#X msg 86 135 1;
#X msg 45 131 0;
#X obj 26 17 inlet;
#X obj 26 178 outlet;
#X obj 45 86 routeOSC /master/rqpt /untik/ntp/rqpt;
#X obj 179 147 print YOYO;
#X connect 0 0 8 0;
#X connect 1 0 3 0;
#X connect 1 1 0 0;
#X connect 1 2 4 0;
#X connect 2 0 5 0;
#X connect 3 0 7 0;
#X connect 4 0 3 1;
#X connect 5 0 3 1;
#X connect 6 0 1 0;
#X connect 8 0 2 0;
#X connect 8 1 2 0;
#X connect 8 1 9 0;
#X restore 19 226 pd block_master_offset;
#X obj 19 109 route to receiver;
#X obj 94 132 list;
#X obj 94 154 sel b;
#X msg 94 176 1;
#X msg 124 176 0;
#X obj 19 200 spigot;
#X obj 19 131 route send;
#X obj 84 16 r \$0.unset;
#X connect 0 0 13 0;
#X connect 1 0 3 0;
#X connect 1 1 2 0;
#X connect 2 0 6 0;
#X connect 2 0 18 0;
#X connect 2 1 7 0;
#X connect 3 1 4 0;
#X connect 4 0 5 0;
#X connect 4 1 3 1;
#X connect 5 0 8 0;
#X connect 6 0 5 1;
#X connect 7 0 5 1;
#X connect 8 0 9 0;
#X connect 8 1 10 0;
#X connect 9 0 12 0;
#X connect 10 0 11 0;
#X connect 13 0 21 0;
#X connect 14 0 15 0;
#X connect 15 0 13 1;
#X connect 16 0 17 0;
#X connect 16 0 19 0;
#X connect 17 0 13 1;
#X connect 19 0 3 1;
#X connect 20 0 1 0;
#X connect 21 0 27 0;
#X connect 21 1 22 0;
#X connect 22 0 23 0;
#X connect 23 0 24 0;
#X connect 23 1 25 0;
#X connect 24 0 26 1;
#X connect 25 0 26 1;
#X connect 26 0 20 0;
#X connect 27 0 26 0;
#X connect 28 0 15 0;
#X restore 20 69 pd learn;
#N canvas 865 440 546 485 one.at.a.time 0;
#X obj 27 21 r \$0.slider;
#X obj 27 41 sel 0;
#X obj 66 41 t a;
#X obj 46 296 t b b;
#X obj 46 378 s \$0.learn;
#X obj 46 274 spigot 1;
#X obj 91 251 route learn;
#X obj 113 287 r \$0.address;
#X msg 113 355 learn \$1;
#X msg 113 328 1;
#X msg 73 328 0;
#X obj 169 31 r \$0.address;
#X obj 141 7 r \$0.learn;
#X obj 179 56 r \$0.unset;
#X msg 141 58 1;
#X obj 27 100 f;
#X msg 179 76 0;
#X obj 27 227 sel 1 0;
#X obj 123 307 r \$0.unset;
#X obj 27 401 s \$0.unset.send;
#X obj 91 229 r \$1-MIDI2NETPD;
#X obj 113 378 s \$1-MIDI2NETPD;
#X obj 27 125 sel 0 1, f 20;
#X msg 85 177 1;
#N canvas 1289 271 220 254 double-click 0;
#X obj 12 42 t b b, f 12;
#X obj 80 67 del 300;
#X msg 80 90 0;
#X obj 12 123 f;
#X obj 64 134 + 1;
#X obj 12 146 t a a;
#X obj 12 169 sel 1;
#X obj 12 192 t a b, f 14;
#X msg 132 141 stop;
#X obj 12 18 inlet;
#X obj 12 215 outlet;
#X connect 0 0 3 0;
#X connect 0 1 1 0;
#X connect 1 0 2 0;
#X connect 2 0 3 1;
#X connect 3 0 5 0;
#X connect 4 0 3 1;
#X connect 5 0 6 0;
#X connect 5 1 4 0;
#X connect 6 0 7 0;
#X connect 7 0 10 0;
#X connect 7 1 2 0;
#X connect 7 1 8 0;
#X connect 8 0 1 0;
#X connect 9 0 0 0;
#X restore 85 150 pd double-click;
#X msg 27 197 0;
#X connect 0 0 1 0;
#X connect 1 0 15 0;
#X connect 1 1 2 0;
#X connect 2 0 1 1;
#X connect 3 0 4 0;
#X connect 3 1 10 0;
#X connect 5 0 3 0;
#X connect 6 0 5 1;
#X connect 7 0 9 0;
#X connect 8 0 21 0;
#X connect 9 0 8 0;
#X connect 10 0 8 0;
#X connect 11 0 14 0;
#X connect 12 0 14 0;
#X connect 13 0 16 0;
#X connect 14 0 15 1;
#X connect 15 0 22 0;
#X connect 16 0 15 1;
#X connect 17 0 19 0;
#X connect 17 1 5 0;
#X connect 18 0 9 0;
#X connect 20 0 6 0;
#X connect 22 0 25 0;
#X connect 22 1 24 0;
#X connect 23 0 17 0;
#X connect 24 0 23 0;
#X connect 25 0 17 0;
#X restore 20 94 pd one.at.a.time;
#N canvas 1027 310 461 354 gui.colors.labels 0;
#X msg 21 110 label \$1;
#X msg 98 171 0;
#X msg 122 172 3;
#X msg 70 171 10;
#X obj 122 127 r \$0.learn;
#X obj 312 27 r \$0.receiving;
#X obj 312 201 s \$0.indicator;
#X obj 312 49 b;
#X obj 380 111 del 70;
#X obj 70 296 s \$0.path;
#X obj 80 276 s \$0.label;
#X obj 70 196 t a a;
#X obj 312 122 t b a;
#X obj 21 132 s \$0.path;
#X obj 21 42 route bang;
#X obj 21 70 list;
#X obj 21 20 netpd_r \$1 param/\$2;
#X msg 312 179 color \$1 \$1 \$2;
#X msg 186 88 label <unset>;
#X msg 70 252 color \$1 \$1 -1;
#X obj 159 45 r \$0.unset;
#X obj 159 6 loadbang;
#X obj 159 26 s \$0.unset;
#X msg 134 150 label <learning>;
#X msg 380 133 symbol #ffffff;
#X msg 312 71 symbol #ff00ff;
#X obj 312 154 pack f s;
#X obj 159 64 t b b b;
#X connect 0 0 13 0;
#X connect 1 0 11 0;
#X connect 2 0 11 0;
#X connect 3 0 11 0;
#X connect 4 0 2 0;
#X connect 4 0 23 0;
#X connect 5 0 7 0;
#X connect 7 0 25 0;
#X connect 7 0 8 0;
#X connect 8 0 24 0;
#X connect 11 0 19 0;
#X connect 11 1 26 0;
#X connect 12 0 26 0;
#X connect 12 1 26 1;
#X connect 14 1 15 0;
#X connect 15 0 0 0;
#X connect 15 0 3 0;
#X connect 16 0 14 0;
#X connect 17 0 6 0;
#X connect 18 0 13 0;
#X connect 19 0 9 0;
#X connect 19 0 10 0;
#X connect 20 0 27 0;
#X connect 21 0 22 0;
#X connect 23 0 13 0;
#X connect 24 0 12 0;
#X connect 25 0 12 0;
#X connect 26 0 17 0;
#X connect 27 0 1 0;
#X connect 27 1 18 0;
#X connect 27 2 24 0;
#X restore 20 119 pd gui.colors.labels;
#N canvas 1101 280 358 414 get.current 0;
#X obj 21 31 r \$0.init;
#X obj 176 237 r \$0.address;
#X obj 98 47 r NETPD;
#X msg 176 260 set \$1;
#X obj 21 357 outlet;
#X obj 98 282 routeOSC /dummy;
#X msg 184 45 status get socket;
#X obj 184 68 s NETPD;
#X obj 98 91 route from sender status;
#X obj 192 113 route socket;
#X obj 184 22 loadbang;
#X obj 98 207 spigot 1;
#X msg 172 182 1;
#X msg 145 181 0;
#X obj 145 136 route float;
#X obj 145 160 sel 0;
#X connect 0 0 4 0;
#X connect 1 0 3 0;
#X connect 2 0 8 0;
#X connect 3 0 5 0;
#X connect 5 0 4 0;
#X connect 6 0 7 0;
#X connect 8 0 11 0;
#X connect 8 1 14 0;
#X connect 8 2 9 0;
#X connect 9 0 15 1;
#X connect 10 0 6 0;
#X connect 11 0 5 0;
#X connect 12 0 11 1;
#X connect 13 0 11 1;
#X connect 14 0 15 0;
#X connect 15 0 13 0;
#X connect 15 1 12 0;
#X restore 266 160 pd get.current;
#X text 174 313 send to local and broadcast;
#N canvas 1015 358 228 455 soft.take-over 0;
#X obj 17 23 inlet;
#X obj 17 400 outlet;
#X obj 104 21 inlet;
#X obj 77 132 -;
#X obj 77 154 t a b a;
#X obj 78 201 *;
#X obj 78 223 <= 0;
#X obj 17 321 spigot 0;
#X obj 78 245 sel 1;
#X msg 78 267 1;
#X msg 43 163 0;
#X obj 77 179 f -1;
#X obj 17 55 t a b a;
#X obj 104 43 t b a;
#X obj 109 94 t b a;
#N canvas 789 256 226 120 once 0;
#X obj 21 9 inlet;
#X obj 21 31 spigot 1;
#X obj 21 53 t a b;
#X msg 84 51 0;
#X obj 21 75 outlet;
#X connect 0 0 1 0;
#X connect 1 0 2 0;
#X connect 2 0 4 0;
#X connect 2 1 3 0;
#X connect 3 0 1 1;
#X restore 31 111 pd once;
#X connect 0 0 12 0;
#X connect 2 0 13 0;
#X connect 3 0 4 0;
#X connect 4 0 11 1;
#X connect 4 1 11 0;
#X connect 4 2 5 1;
#X connect 5 0 6 0;
#X connect 6 0 8 0;
#X connect 7 0 1 0;
#X connect 8 0 9 0;
#X connect 9 0 7 1;
#X connect 10 0 7 1;
#X connect 11 0 5 0;
#X connect 12 0 7 0;
#X connect 12 1 15 0;
#X connect 12 2 3 0;
#X connect 13 0 10 0;
#X connect 13 1 14 0;
#X connect 14 0 3 0;
#X connect 14 1 3 1;
#X connect 15 0 10 0;
#X restore 167 188 pd soft.take-over;
#X msg 342 278 1;
#X obj 209 132 s \$0.receiving;
#X obj 167 159 * 1;
#X obj 20 21 cnv 15 50 15 empty \$0.label \$2 5 7 0 10 #fcfcfc #000000 0;
#X obj 71 21 cnv 8 8 15 empty \$0.indicator â— 2 7 0 10 #fcfcfc #ffffff 0;
#N canvas 454 68 381 120 NETPD 0;
#X msg 17 15 version 0 0 6;
#X restore 22 213 pd NETPD 2 0;
#X obj 167 54 ctlin \$3 \$4;
#X obj 285 210 netpd_a \$1 param/\$2;
#X obj 342 256 t b a;
#X obj 167 210 spigot 0;
#X obj 285 230 route bang;
#X obj 167 100 spigot;
#X obj 200 77 r \$1.active;
#X obj 167 397 netpd-s;
#X obj 227 397 netpd-s;
#X obj 237 344 loadbang;
#X msg 237 366 b;
#X msg 266 367 l;
#X msg 167 338 \$1 \$2;
#X obj 167 360 t a a;
#X obj 367 181 r \$0.unset.send;
#X obj 285 295 s \$0.unset;
#X connect 0 0 30 0;
#X connect 1 0 19 0;
#X connect 4 0 0 0;
#X connect 5 0 14 0;
#X connect 9 0 11 1;
#X connect 11 0 21 0;
#X connect 12 0 21 1;
#X connect 14 0 11 0;
#X connect 18 0 23 0;
#X connect 19 0 22 0;
#X connect 20 0 12 0;
#X connect 20 1 0 1;
#X connect 21 0 4 0;
#X connect 22 0 33 0;
#X connect 22 1 20 0;
#X connect 23 0 5 0;
#X connect 23 0 13 0;
#X connect 24 0 23 1;
#X connect 27 0 28 0;
#X connect 27 0 29 0;
#X connect 28 0 25 1;
#X connect 29 0 26 1;
#X connect 30 0 31 0;
#X connect 31 0 25 0;
#X connect 31 1 26 0;
#X connect 32 0 19 0;
#X coords 0 -1 1 1 285 17 2 20 20;
