#N canvas 865 137 383 252 10;
#X obj 42 50 notein 1;
#X obj 42 72 pack f f;
#X msg 42 94 \$2 \$1;
#X obj 42 116 route 0;
#N canvas 1003 322 330 432 com 0;
#X obj 0 39 route _manage;
#X obj 0 61 route update;
#X msg 27 142 _manage refresh;
#X obj 27 208 route _manage;
#X obj 27 230 route add;
#X msg 27 275 add2 \$1;
#X obj 27 252 list;
#X obj 0 119 t b b;
#X obj 122 30 loadbang;
#X msg 0 327;
#X msg 0 300 bang \, set;
#X obj 0 376 outlet;
#X obj 0 349 list prepend <none>;
#X obj 0 17 r midi2unstep;
#X obj 27 164 s midi2unstep;
#X obj 27 186 r midi2unstep;
#X connect 0 0 1 0;
#X connect 1 0 7 0;
#X connect 2 0 14 0;
#X connect 3 0 4 0;
#X connect 4 0 6 0;
#X connect 5 0 9 0;
#X connect 6 0 5 0;
#X connect 7 0 10 0;
#X connect 7 1 2 0;
#X connect 8 0 7 0;
#X connect 9 0 12 0;
#X connect 10 0 9 0;
#X connect 12 0 11 0;
#X connect 13 0 0 0;
#X connect 15 0 3 0;
#X restore 315 20 pd com;
#X msg 81 138 note \$2;
#X obj 37 21 nbx 10 14 1 40 0 0 \$0.select.nbx.s \$0.select.nbx.r empty
0 -8 0 10 -262144 -1 -1 1 256;
#N canvas 705 211 442 509 gui 0;
#X obj 136 28 inlet;
#X obj 136 50 t a a;
#X obj 163 75 list length;
#X obj 163 181 s \$0.select.nbx.r;
#X msg 163 158 range 1 \$1;
#X obj 73 211 list append;
#X obj 73 94 r \$0.select.nbx.s;
#X obj 73 188 t b a;
#X obj 73 233 list split;
#X msg 128 298 label \$1;
#X obj 128 319 s \$0.select.label;
#X obj 73 160 int;
#X obj 73 116 - 1;
#X obj 73 136 / 10;
#X obj 163 136 * 10;
#X obj 101 277 t a a;
#X msg 101 421 symbol \$1;
#X obj 101 443 outlet;
#X obj 290 40 r \$0.record.s;
#X obj 290 142 s \$0.record.r;
#X obj 290 62 sel 1;
#X msg 290 84 13;
#X msg 290 119 color \$1 \$1 -1;
#X obj 101 342 netpd_a \$1 keyboard2unstep;
#X msg 101 256 symbol \$1;
#X obj 101 364 list;
#X obj 101 386 route bang;
#X connect 0 0 1 0;
#X connect 1 0 5 1;
#X connect 1 1 2 0;
#X connect 2 0 14 0;
#X connect 4 0 3 0;
#X connect 5 0 8 0;
#X connect 6 0 12 0;
#X connect 7 0 5 0;
#X connect 7 1 8 1;
#X connect 8 1 24 0;
#X connect 9 0 10 0;
#X connect 11 0 7 0;
#X connect 12 0 13 0;
#X connect 13 0 11 0;
#X connect 14 0 4 0;
#X connect 15 0 23 0;
#X connect 15 1 9 0;
#X connect 16 0 17 0;
#X connect 18 0 20 0;
#X connect 20 0 21 0;
#X connect 20 1 22 0;
#X connect 21 0 22 0;
#X connect 22 0 19 0;
#X connect 23 0 25 0;
#X connect 24 0 15 0;
#X connect 25 0 26 0;
#X connect 26 1 16 0;
#X connect 26 1 9 0;
#X restore 315 42 pd gui;
#X obj 37 21 cnv 14 97 14 empty \$0.select.label <none> 4 7 0 12 -233017
-1 0;
#X obj 81 171 list prepend;
#X obj 81 193 list trim;
#X obj 20 20 tgl 16 0 \$0.record.s \$0.record.r r 4 7 0 12 -262144
-262144 -1 0 1;
#X obj 146 116 r \$0.record.s;
#X msg 146 138 record \$1;
#N canvas 668 263 307 51 NETPD 0;
#X msg 16 16 version 0 0 1;
#X restore 282 213 pd NETPD 2 0;
#X obj 81 215 s midi2unstep;
#X connect 0 0 1 0;
#X connect 0 1 1 1;
#X connect 1 0 2 0;
#X connect 2 0 3 0;
#X connect 3 1 5 0;
#X connect 4 0 7 0;
#X connect 5 0 9 0;
#X connect 7 0 9 1;
#X connect 9 0 10 0;
#X connect 10 0 15 0;
#X connect 12 0 13 0;
#X connect 13 0 9 0;
#X coords 0 -1 1 1 115 16 2 20 20;
