#N canvas 0 22 1118 836 10;
#X obj 22 15 inlet;
#X obj 16 89 unpack f f;
#X obj 98 153 sel 0;
#X obj 152 195 - 1;
#X obj 152 216 / 126;
#X obj 125 174 t b f;
#X obj 118 373 s \$0-trigger;
#N canvas 495 93 511 458 en.ad~ 0;
#X obj 37 58 t b b;
#X obj 37 100 del 2;
#X obj 37 182 unpack f f;
#X obj 37 240 lop~;
#X msg 94 203 1000 \$1;
#X obj 94 224 /;
#X obj 62 362 outlet~;
#X obj 41 10 r \$0-freq;
#X msg 176 35 1000 \$1;
#X obj 176 56 /;
#X obj 41 31 t b f;
#X obj 37 121 f;
#X msg 37 161 0 \$1;
#X obj 188 209 r \$0-velocity;
#X msg 188 230 2 \$1;
#X obj 188 251 pow;
#X obj 176 77 * 1024;
#X obj 37 261 pow~ 2;
#X msg 99 118 1 1;
#X obj 176 98 clip 500 4000;
#X connect 0 0 1 0;
#X connect 0 1 18 0;
#X connect 1 0 11 0;
#X connect 2 0 3 0;
#X connect 2 1 4 0;
#X connect 3 0 17 0;
#X connect 4 0 5 0;
#X connect 5 0 3 1;
#X connect 7 0 10 0;
#X connect 8 0 9 0;
#X connect 9 0 16 0;
#X connect 10 0 0 0;
#X connect 10 1 8 0;
#X connect 11 0 12 0;
#X connect 12 0 2 0;
#X connect 13 0 14 0;
#X connect 14 0 15 0;
#X connect 15 0 17 1;
#X connect 16 0 19 0;
#X connect 17 0 6 0;
#X connect 18 0 2 0;
#X connect 19 0 11 1;
#X restore 500 119 pd en.ad~;
#X obj 403 80 r \$0-freq;
#N canvas 0 22 450 300 pow 0;
#X obj 81 69 inlet~;
#X obj 81 90 *~;
#X obj 81 161 outlet~;
#X obj 151 111 *~;
#X obj 151 162 outlet~;
#X obj 241 132 *~;
#X obj 241 153 outlet~;
#X connect 0 0 1 0;
#X connect 0 0 1 1;
#X connect 1 0 2 0;
#X connect 1 0 3 0;
#X connect 1 0 3 1;
#X connect 3 0 4 0;
#X connect 3 0 5 0;
#X connect 3 0 5 1;
#X connect 5 0 6 0;
#X restore 487 245 pd pow;
#X obj 680 299 *~;
#X obj 680 217 *~;
#X obj 245 66 r \$0-freq;
#X obj 245 113 t b f;
#X obj 245 184 random 101;
#X msg 303 159 seed \$1;
#X obj 245 205 / 100;
#X obj 11 148 list prepend;
#X obj 78 106 t f f;
#X obj 78 127 > 0;
#X obj 11 261 s \$0-freq;
#X obj 11 169 route 1;
#X obj 11 211 / 4;
#X obj 11 232 pipe 2;
#X obj 120 271 t b b;
#X obj 152 237 pipe 2;
#X obj 152 258 s \$0-velocity;
#X obj 150 317 s \$0-reset;
#X obj 548 532 r \$0-trigger;
#X msg 401 627 0 1;
#X obj 401 648 line~;
#X obj 249 723 *~;
#X obj 204 773 outlet~;
#X obj 401 606 r \$0-reset;
#X obj 120 292 del 2;
#X obj 534 34 inlet~;
#X obj 403 101 sig~;
#X obj 437 122 *~;
#X obj 374 174 +~;
#X obj 534 55 *~;
#X obj 548 553 v \$0-velocity;
#X msg 548 574 1 \$1;
#X obj 548 595 -;
#X msg 555 678 \$1 0;
#X obj 548 658 dbtorms;
#X obj 245 225 * 8;
#X obj 245 87 + 0;
#X obj 680 196 vline~;
#X obj 437 143 *~ 2;
#X obj 680 259 *~;
#X obj 220 289 -~ 1;
#X obj 692 77 r \$0-velocity;
#X obj 689 123 pow;
#X obj 245 246 + 0.5;
#X obj 673 323 *~ 4;
#X msg 689 102 20 \$1;
#X obj 794 163 r \$0-trigger;
#X obj 794 184 v \$0-velocity;
#X msg 794 205 1 \$1;
#X obj 794 226 -;
#X obj 794 289 dbtorms;
#X obj 794 247 * -15;
#X obj 794 268 + 115;
#X text 499 98 MAIN ENVELOPE;
#X text 231 304 DETUNED OSCILLATOR;
#X text 683 56 CLICK / STRIKE;
#X text 56 2 (I1) Note / Velocity;
#X text 533 10 (I2) Noise Input;
#X msg 678 175 1 \$1 \, 0 50 \$1;
#X obj 689 144 * 0.1;
#X obj 11 190 mtof;
#X obj 548 616 * -18;
#X obj 548 637 + 94;
#X obj 286 781 outlet~;
#X obj 97 23 r \$3.voices;
#X obj 97 46 route velocity;
#X obj 20 61 pack f f;
#X obj 83 565 switch~;
#X obj 46 531 t a a;
#X obj 21 38 t a a;
#X obj 138 92 s \$0.pitch;
#X obj 55 622 pack f f;
#X obj 90 596 r \$0.pitch;
#X obj 431 771 outlet;
#X msg 22 401 1;
#X obj 109 405 env~;
#X obj 109 452 change -1;
#X obj 109 475 sel 0;
#X msg 109 498 0;
#N canvas 0 0 450 300 NETPD 0;
#X msg 19 12 version 0 0 1;
#X restore 784 31 pd NETPD 2 0;
#X obj 210 38 clip 0 1;
#X obj 210 61 * 127;
#X obj 109 429 > 20;
#N canvas 1281 449 450 500 DETUNED 0;
#X obj 20 57 phasor~;
#X obj 22 178 cos~;
#X obj 21 264 *~;
#X obj 20 109 *~ 4;
#X obj 211 153 cos~;
#X obj 211 260 *~;
#X obj 151 153 cos~;
#X obj 151 174 *~ 0.05;
#X obj 151 111 *~ 11;
#X obj 150 259 *~;
#X obj 321 153 cos~;
#X obj 321 263 *~;
#X obj 261 153 cos~;
#X obj 21 132 -~ 0.25;
#X obj 151 132 -~ 0.25;
#X obj 211 132 -~ 0.25;
#X obj 261 132 -~ 0.25;
#X obj 321 132 -~ 0.25;
#X obj 321 174 *~ 0.1;
#X obj 22 201 *~ 0.8;
#X obj 261 111 *~ 22;
#X obj 211 111 *~ 21;
#X obj 211 174 *~ 0.04;
#X obj 261 174 *~ 0.07;
#X obj 321 111 *~ 31;
#X obj 321 284 *~ 0.25;
#X obj 149 304 *~;
#X obj 20 338 +~;
#X obj 80 228 inlet~;
#X obj 21 15 inlet~;
#X obj 168 230 inlet~;
#X obj 235 229 inlet~;
#X obj 337 230 inlet~;
#X obj 20 369 outlet~;
#X obj 79 12 r \$0-trigger;
#X msg 79 33 0;
#X obj 246 309 r \$0-trigger;
#X obj 246 330 v \$0-velocity;
#X msg 246 351 1 \$1;
#X obj 246 372 -;
#X obj 246 414 + 100;
#X obj 246 435 dbtorms;
#X obj 246 393 * -18;
#X connect 0 0 3 0;
#X connect 0 0 8 0;
#X connect 0 0 20 0;
#X connect 0 0 21 0;
#X connect 0 0 24 0;
#X connect 1 0 19 0;
#X connect 2 0 27 0;
#X connect 3 0 13 0;
#X connect 4 0 22 0;
#X connect 5 0 26 0;
#X connect 6 0 7 0;
#X connect 7 0 9 0;
#X connect 8 0 14 0;
#X connect 9 0 26 0;
#X connect 10 0 18 0;
#X connect 11 0 25 0;
#X connect 11 0 26 0;
#X connect 12 0 23 0;
#X connect 13 0 1 0;
#X connect 14 0 6 0;
#X connect 15 0 4 0;
#X connect 16 0 12 0;
#X connect 17 0 10 0;
#X connect 18 0 11 0;
#X connect 19 0 2 0;
#X connect 20 0 16 0;
#X connect 21 0 15 0;
#X connect 22 0 5 0;
#X connect 23 0 5 0;
#X connect 24 0 17 0;
#X connect 25 0 15 0;
#X connect 25 0 16 0;
#X connect 26 0 27 1;
#X connect 27 0 33 0;
#X connect 28 0 2 1;
#X connect 29 0 0 0;
#X connect 30 0 9 1;
#X connect 31 0 5 1;
#X connect 32 0 11 1;
#X connect 34 0 35 0;
#X connect 35 0 0 1;
#X connect 36 0 37 0;
#X connect 37 0 38 0;
#X connect 38 0 39 0;
#X connect 39 0 42 0;
#X connect 40 0 41 0;
#X connect 41 0 26 1;
#X connect 42 0 40 0;
#X restore 245 512 pd DETUNED OSC;
#N canvas 1083 528 604 492 MAIN 0;
#X obj 68 71 phasor~;
#X obj 68 174 cos~;
#X obj 68 265 *~;
#X obj 68 132 *~ 4;
#X obj 118 174 cos~;
#X obj 38 362 +~;
#X obj 258 174 cos~;
#X obj 259 245 *~;
#X obj 356 171 cos~;
#X obj 357 240 *~;
#X obj 118 132 *~ 17;
#X obj 356 129 *~ 56;
#X obj 356 150 -~ 0.25;
#X obj 356 192 *~ 0.1;
#X obj 118 153 -~ 0;
#X obj 118 195 *~ 0.1;
#X obj 258 195 *~ 0.1;
#X obj 68 153 -~ 0.25;
#X obj 258 153 -~ 0.25;
#X obj 258 132 *~ 23;
#X obj 357 261 *~ 0.25;
#X text 75 53 MAIN OSCILLATOR;
#X obj 176 291 *~;
#X obj 276 290 r \$0-trigger;
#X obj 276 311 v \$0-velocity;
#X msg 276 332 1 \$1;
#X obj 276 353 -;
#X obj 276 395 + 100;
#X obj 276 416 dbtorms;
#X obj 106 21 r \$0-trigger;
#X msg 106 42 0;
#X obj 276 374 * -18;
#X obj 39 405 outlet~;
#X obj 32 17 inlet~;
#X obj 160 226 inlet~;
#X obj 417 210 inlet~;
#X connect 0 0 3 0;
#X connect 0 0 10 0;
#X connect 0 0 11 0;
#X connect 0 0 19 0;
#X connect 1 0 2 0;
#X connect 2 0 5 0;
#X connect 3 0 17 0;
#X connect 4 0 15 0;
#X connect 5 0 32 0;
#X connect 6 0 16 0;
#X connect 7 0 22 0;
#X connect 8 0 13 0;
#X connect 9 0 20 0;
#X connect 9 0 22 0;
#X connect 10 0 14 0;
#X connect 11 0 12 0;
#X connect 12 0 8 0;
#X connect 13 0 9 0;
#X connect 14 0 4 0;
#X connect 15 0 2 0;
#X connect 16 0 7 0;
#X connect 17 0 1 0;
#X connect 18 0 6 0;
#X connect 19 0 18 0;
#X connect 20 0 18 0;
#X connect 22 0 5 1;
#X connect 23 0 24 0;
#X connect 24 0 25 0;
#X connect 25 0 26 0;
#X connect 26 0 31 0;
#X connect 27 0 28 0;
#X connect 28 0 22 1;
#X connect 29 0 30 0;
#X connect 30 0 0 1;
#X connect 31 0 27 0;
#X connect 33 0 0 0;
#X connect 34 0 2 1;
#X connect 35 0 7 1;
#X connect 35 0 9 1;
#X restore 550 491 pd MAIN OSC;
#X text 678 496 gamelan model using additive synthesis borrowed from
Mike Moreno.;
#X msg 684 537 browse https://github.com/MikeMorenoDSP/pd-mkmr;
#X obj 684 560 pdcontrol;
#X connect 0 0 79 0;
#X connect 1 0 17 0;
#X connect 1 1 18 0;
#X connect 2 1 5 0;
#X connect 3 0 4 0;
#X connect 4 0 25 0;
#X connect 5 0 24 0;
#X connect 5 0 84 0;
#X connect 5 1 3 0;
#X connect 7 0 9 0;
#X connect 7 0 10 1;
#X connect 7 0 93 1;
#X connect 7 0 94 1;
#X connect 8 0 36 0;
#X connect 9 0 93 2;
#X connect 9 1 93 3;
#X connect 9 2 93 4;
#X connect 9 2 94 2;
#X connect 10 0 54 0;
#X connect 11 0 49 0;
#X connect 11 0 49 1;
#X connect 12 0 46 0;
#X connect 13 0 14 0;
#X connect 13 1 15 0;
#X connect 14 0 16 0;
#X connect 15 0 14 0;
#X connect 16 0 45 0;
#X connect 17 0 21 0;
#X connect 18 0 19 0;
#X connect 18 1 2 0;
#X connect 19 0 17 1;
#X connect 21 0 70 0;
#X connect 22 0 23 0;
#X connect 23 0 20 0;
#X connect 24 0 34 0;
#X connect 24 1 27 0;
#X connect 25 0 26 0;
#X connect 28 0 40 0;
#X connect 29 0 30 0;
#X connect 30 0 31 1;
#X connect 31 0 32 0;
#X connect 31 0 73 0;
#X connect 31 0 85 0;
#X connect 33 0 29 0;
#X connect 34 0 6 0;
#X connect 35 0 39 0;
#X connect 36 0 37 0;
#X connect 36 0 38 0;
#X connect 37 0 48 0;
#X connect 38 0 50 0;
#X connect 38 0 94 0;
#X connect 39 0 37 1;
#X connect 40 0 41 0;
#X connect 41 0 42 0;
#X connect 42 0 71 0;
#X connect 43 0 30 0;
#X connect 44 0 43 0;
#X connect 45 0 53 0;
#X connect 46 0 13 0;
#X connect 47 0 11 0;
#X connect 47 0 11 1;
#X connect 48 0 38 1;
#X connect 49 0 10 0;
#X connect 49 0 39 1;
#X connect 50 0 93 0;
#X connect 51 0 55 0;
#X connect 52 0 69 0;
#X connect 53 0 50 1;
#X connect 54 0 93 4;
#X connect 54 0 93 3;
#X connect 54 0 94 2;
#X connect 55 0 52 0;
#X connect 56 0 57 0;
#X connect 57 0 58 0;
#X connect 58 0 59 0;
#X connect 59 0 61 0;
#X connect 60 0 54 1;
#X connect 61 0 62 0;
#X connect 62 0 60 0;
#X connect 68 0 47 0;
#X connect 69 0 68 0;
#X connect 70 0 22 0;
#X connect 71 0 72 0;
#X connect 72 0 44 0;
#X connect 74 0 75 0;
#X connect 75 0 90 0;
#X connect 76 0 1 0;
#X connect 78 0 81 0;
#X connect 78 1 77 0;
#X connect 79 0 76 0;
#X connect 79 1 80 0;
#X connect 81 0 83 0;
#X connect 82 0 81 1;
#X connect 84 0 78 0;
#X connect 85 0 92 0;
#X connect 86 0 87 0;
#X connect 87 0 88 0;
#X connect 88 0 78 0;
#X connect 90 0 91 0;
#X connect 91 0 76 1;
#X connect 92 0 86 0;
#X connect 93 0 31 0;
#X connect 94 0 31 0;
#X connect 96 0 97 0;
