#N canvas 469 319 257 238 10;
#X obj 23 32 hsl 35 10 0 1 0 0 \$1-mx/aux/\$2/level \$1-mx/aux/\$2/level empty -2 -8 0 10 #606060 #606060 #000000 0 1;
#X obj 23 20 hsl 15 12 0 1 0 0 \$0.pp.s \$0.pp.r pst 0 6 1 10 #606060 #606060 #00fc04 0 1;
#N canvas 831 133 261 231 NETPD 0;
#X msg 18 12 version 0 0 3;
#X restore 90 21 pd NETPD 2 0;
#X obj 40 20 nbx 3 12 0 0 0 0 \$0.ch.ns \$0.ch.nr empty 0 -8 0 4 #fcfcfc #000000 #000000 0 256;
#X obj 43 20 hsl 15 12 1 1 0 0 \$1-mx/aux/\$2/ch \$0.ch.r empty 2 7 1 9 #606060 #606060 #00fc04 0 1;
#N canvas 751 291 349 501 aux.ch 0;
#X obj 10 419 s \$0.ch.r;
#X msg 10 394 label \$1;
#X obj 49 354 makefilename %2d;
#X obj 10 333 route 0;
#X msg 10 373 symbol empty;
#X obj 10 154 t a a;
#X obj 37 176 s \$1-mx/aux/\$2/ch;
#X obj 37 197 r \$1-mx/aux/\$2/ch;
#X obj 37 219 route set;
#X obj 37 241 t a a;
#X obj 64 309 s \$0.ch.nr;
#X obj 10 10 r \$0.ch.ns;
#X msg 64 285 set \$1;
#X obj 10 126 change -1;
#X obj 183 187 r mx;
#X obj 183 209 route auxnum;
#X msg 183 252 range 0 \$1;
#X obj 183 118 loadbang;
#X msg 183 141 getauxnum;
#X obj 183 163 s mx;
#X obj 10 102 >> 3;
#X obj 64 263 << 3;
#X obj 183 231 << 3;
#X obj 87 20 r mx;
#X obj 87 43 route \$1;
#X obj 87 66 route gui_lock;
#X obj 87 89 == 0;
#X obj 10 45 spigot 1;
#X connect 1 0 0 0;
#X connect 2 0 1 0;
#X connect 3 0 4 0;
#X connect 3 1 2 0;
#X connect 4 0 1 0;
#X connect 5 0 3 0;
#X connect 5 1 6 0;
#X connect 7 0 8 0;
#X connect 8 0 9 0;
#X connect 9 0 3 0;
#X connect 9 1 21 0;
#X connect 11 0 27 0;
#X connect 12 0 10 0;
#X connect 13 0 5 0;
#X connect 14 0 15 0;
#X connect 15 0 22 0;
#X connect 16 0 10 0;
#X connect 17 0 18 0;
#X connect 18 0 19 0;
#X connect 20 0 13 0;
#X connect 21 0 12 0;
#X connect 22 0 16 0;
#X connect 23 0 24 0;
#X connect 24 0 25 0;
#X connect 25 0 26 0;
#X connect 26 0 27 1;
#X connect 27 0 20 0;
#X restore 90 45 pd aux.ch;
#N canvas 712 252 490 353 aux.pp 0;
#X msg 26 275 label \$1;
#X obj 26 208 sel 0 1;
#X msg 26 232 pst;
#X msg 53 232 pre;
#X obj 26 254 symbol;
#X obj 26 299 s \$0.pp.r;
#X obj 109 96 r \$1-mx/aux/\$2/pp;
#X obj 26 16 rh_slider_click \$0.pp.s \$0.pp.r;
#X obj 26 89 ==;
#X obj 109 118 route set;
#X obj 109 140 t a a;
#X obj 26 110 t a a;
#X obj 53 174 s \$1-mx/aux/\$2/pp;
#X obj 308 25 r mx;
#X obj 308 48 route \$1;
#X obj 308 71 route gui_lock;
#X obj 308 94 == 0;
#X obj 26 46 spigot 1;
#X connect 0 0 5 0;
#X connect 1 0 2 0;
#X connect 1 1 3 0;
#X connect 2 0 4 0;
#X connect 3 0 4 0;
#X connect 4 0 0 0;
#X connect 6 0 9 0;
#X connect 7 0 17 0;
#X connect 8 0 11 0;
#X connect 9 0 10 0;
#X connect 10 0 1 0;
#X connect 10 1 8 1;
#X connect 11 0 1 0;
#X connect 11 1 12 0;
#X connect 11 1 8 1;
#X connect 13 0 14 0;
#X connect 14 0 15 0;
#X connect 15 0 16 0;
#X connect 16 0 17 1;
#X connect 17 0 8 0;
#X restore 90 67 pd aux.pp;
#X obj 21 33 cnv 1 1 8 empty \$0.level.r empty 20 12 0 14 #00fc04 #000000 0;
#N canvas 693 339 399 250 aux.level 0;
#X obj 20 86 route float set;
#X obj 20 14 r \$1-mx/aux/\$2/level;
#X obj 20 184 s \$0.level.r;
#X msg 20 160 vis_size \$1 8;
#X obj 20 115 * 37;
#X obj 20 137 + 1;
#X obj 210 7 r mx;
#X obj 210 30 route \$1;
#X obj 210 53 route gui_lock;
#X obj 210 76 == 0;
#X obj 20 49 spigot 1;
#X connect 0 0 4 0;
#X connect 0 1 4 0;
#X connect 1 0 10 0;
#X connect 3 0 2 0;
#X connect 4 0 5 0;
#X connect 5 0 3 0;
#X connect 6 0 7 0;
#X connect 7 0 8 0;
#X connect 8 0 9 0;
#X connect 9 0 10 1;
#X connect 10 0 0 0;
#X restore 90 90 pd aux.level;
#X coords 0 -1 1 1 40 22 2 20 20;
