#N canvas 594 276 591 454 10;
#N canvas 831 179 261 231 NETPD 0;
#X msg 17 13 version 0 0 3;
#X restore 312 57 pd NETPD 2 0;
#X obj 21 118 route insert;
#X obj 21 144 route setlabel;
#N canvas 869 146 745 363 buttons 0;
#X msg 294 213 color \$1 \$1 \$2;
#X msg 321 166 2 10;
#X msg 294 189 10 -1;
#X obj 294 235 s \$0.show.r;
#X obj 294 140 del 150;
#X obj 85 100 r \$1-aux/\$2/insert/bypass;
#X obj 12 306 s \$0.bypass.r;
#X msg 12 281 color \$1 \$1 \$2;
#X msg 31 234 2 10;
#X msg 12 254 10 -1;
#X obj 85 146 t a a;
#X obj 12 212 sel 0 1;
#X obj 85 124 route set;
#X obj 12 112 ==;
#X obj 12 134 t a a;
#X obj 39 177 s \$1-aux/\$2/insert/bypass;
#X obj 269 21 rh_slider_click \$0.show.s \$0.show.r;
#X obj 12 21 rh_slider_click \$0.bypass.s \$0.bypass.r;
#X obj 269 262 outlet;
#X obj 269 94 t b b b, f 9;
#X obj 452 54 r mx;
#X obj 452 100 route gui_lock;
#X obj 452 123 == 0;
#X obj 269 56 spigot 1;
#X obj 452 77 route aux;
#X obj 12 66 spigot 1;
#X connect 0 0 3 0;
#X connect 1 0 0 0;
#X connect 2 0 0 0;
#X connect 4 0 2 0;
#X connect 5 0 12 0;
#X connect 7 0 6 0;
#X connect 8 0 7 0;
#X connect 9 0 7 0;
#X connect 10 0 13 1;
#X connect 10 1 11 0;
#X connect 11 0 9 0;
#X connect 11 1 8 0;
#X connect 12 0 10 0;
#X connect 13 0 14 0;
#X connect 14 0 11 0;
#X connect 14 1 13 1;
#X connect 14 1 15 0;
#X connect 16 0 23 0;
#X connect 17 0 25 0;
#X connect 19 0 18 0;
#X connect 19 1 4 0;
#X connect 19 2 1 0;
#X connect 20 0 24 0;
#X connect 21 0 22 0;
#X connect 22 0 23 1;
#X connect 22 0 25 1;
#X connect 23 0 19 0;
#X connect 24 0 21 0;
#X connect 25 0 13 0;
#X restore 312 79 pd buttons;
#X obj 21 74 r \$1-mx;
#X obj 21 96 route aux/\$2;
#X obj 20 10 cnv 10 50 28 empty empty empty 1 12 0 14 #000000 #404040
0;
#X obj 48 12 hsl 20 12 0 1 0 0 \$0.show.s \$0.show.r [][] 5 6 1 5 #e0e0e0
#e0e0e0 #000000 0 1;
#X obj 23 12 hsl 20 12 0 1 0 0 \$0.bypass.s \$0.bypass.r m 6 6 1 8
#e0e0e0 #e0e0e0 #000000 0 1;
#X obj 68 23 cnv 1 1 1 empty 3868.field.3.r empty 1 6 1 9 #000000 #000000
0;
#X obj 68 23 cnv 1 1 1 empty 3868.field.-2.r empty 1 6 1 9 #b4b4b4
#000000 0;
#X obj 68 23 cnv 1 1 1 empty 3868.field.-1.r empty 1 6 1 9 #b4b4b4
#000000 0;
#X obj 68 23 cnv 1 1 1 empty 3868.field.1.r empty 1 6 1 9 #b4b4b4 #000000
0;
#X obj 68 23 cnv 1 1 1 empty 3868.field.2.r empty 1 6 1 9 #b4b4b4 #000000
0;
#X obj 68 23 cnv 1 1 1 empty 3868.field.0.r empty 1 6 1 9 #e0e0e0 #000000
0;
#X obj 68 23 cnv 1 1 1 empty 5321.field.3.r empty 1 6 1 9 #000000 #000000
0;
#X obj 68 23 cnv 1 1 1 empty 5321.field.-2.r empty 1 6 1 9 #b4b4b4
#000000 0;
#X obj 68 23 cnv 1 1 1 empty 5321.field.-1.r empty 1 6 1 9 #b4b4b4
#000000 0;
#X obj 68 23 cnv 1 1 1 empty 5321.field.1.r empty 1 6 1 9 #b4b4b4 #000000
0;
#X obj 68 23 cnv 1 1 1 empty 5321.field.2.r empty 1 6 1 9 #b4b4b4 #000000
0;
#X obj 68 23 cnv 1 1 1 empty 5321.field.0.r empty 1 6 1 9 #e0e0e0 #000000
0;
#X obj 68 23 cnv 1 1 1 empty 5476.field.3.r empty 1 6 1 9 #000000 #000000
0;
#X obj 68 23 cnv 1 1 1 empty 5476.field.-2.r empty 1 6 1 9 #b4b4b4
#000000 0;
#X obj 68 23 cnv 1 1 1 empty 5476.field.-1.r empty 1 6 1 9 #b4b4b4
#000000 0;
#X obj 68 23 cnv 1 1 1 empty 5476.field.1.r empty 1 6 1 9 #b4b4b4 #000000
0;
#X obj 68 23 cnv 1 1 1 empty 5476.field.2.r empty 1 6 1 9 #b4b4b4 #000000
0;
#X obj 68 23 cnv 1 1 1 empty 5476.field.0.r empty 1 6 1 9 #e0e0e0 #000000
0;
#X obj 20 24 mx-dropdown \$0.drop 50 12 8;
#X obj 313 188 \$0;
#X msg 313 218 \; \$1.drop selected_text_color 600 \; \$1.drop selected_box_color
0 \; \$1.drop selected_background_color 777 \; \$1.drop items_text_color
0 \; \$1.drop items_box_color 877 \; \$1.drop items_background_color
877 \;;
#X obj 414 122 r mx-aux-insert-gui;
#X obj 414 145 route \$2;
#X obj 313 165 b;
#X obj 21 355 list trim;
#N canvas 938 241 744 635 two.level.dropdown 0;
#N canvas 546 307 426 268 get.fx.list 0;
#X obj 13 37 inlet;
#X obj 49 205 outlet;
#X obj 13 88 route -1;
#X obj 15 147 list split 1;
#X obj 13 65 text search mx-fxlist 0;
#X obj 15 125 text get mx-fxlist;
#N canvas 0 103 424 413 trim_to_eight 0;
#X obj 70 98 until;
#X obj 70 182 list store;
#X obj 70 65 t b b l;
#X obj 70 123 f;
#X obj 108 124 + 1;
#X msg 132 94 0, f 2;
#X msg 70 154 get \$1 1;
#X obj 9 10 inlet;
#X obj 64 223 list fromsymbol;
#X obj 64 246 list split 8;
#X obj 64 273 list tosymbol;
#X obj 9 348 list store, f 23;
#X msg 44 320 append \$1;
#X obj 9 39 t b a b, f 21;
#X obj 9 371 outlet;
#X connect 0 0 3 0;
#X connect 1 0 8 0;
#X connect 1 1 0 1;
#X connect 2 0 0 0;
#X connect 2 1 5 0;
#X connect 2 2 1 1;
#X connect 3 0 4 0;
#X connect 3 0 6 0;
#X connect 4 0 3 1;
#X connect 5 0 3 1;
#X connect 6 0 1 0;
#X connect 7 0 13 0;
#X connect 8 0 9 0;
#X connect 9 0 10 0;
#X connect 9 2 10 0;
#X connect 10 0 12 0;
#X connect 11 0 14 0;
#X connect 12 0 11 0;
#X connect 13 0 11 0;
#X connect 13 1 2 0;
#X connect 13 2 11 1;
#X restore 61 176 pd trim_to_eight;
#X connect 0 0 4 0;
#X connect 2 1 5 0;
#X connect 3 1 1 0;
#X connect 4 0 2 0;
#X connect 5 0 3 0;
#X restore 22 130 pd get.fx.list;
#X obj 49 176 list prepend ..;
#X obj 49 201 list prepend items;
#X obj 49 224 list trim;
#X obj 49 249 s \$0.drop;
#X obj 22 24 r \$0.drop;
#X obj 22 79 route selected;
#X obj 22 104 symbol;
#X obj 22 295 s \$0.drop.level;
#X obj 88 24 r \$0.drop.level;
#X obj 88 50 == 0;
#X obj 22 47 spigot;
#X obj 22 153 t b a;
#X msg 22 268 1;
#X msg 239 307 symbol;
#X obj 239 283 loadbang;
#X obj 212 331 route sd;
#X obj 212 231 r \$0.drop;
#X obj 212 256 route selected;
#X obj 212 354 t b b;
#X obj 212 420 s \$0.drop.level;
#X msg 212 394 0;
#X obj 221 22 r \$0.drop;
#X obj 221 77 route selected;
#X obj 287 22 r \$0.drop.level;
#X obj 221 45 spigot;
#X obj 287 48 == 1;
#X obj 221 125 symbol;
#X obj 221 100 route ..;
#N canvas 751 475 337 341 get.lib.list 0;
#X obj 172 187 sel 2;
#X obj 67 186 list split 1;
#X obj 67 70 t b b;
#X obj 67 93 until;
#X obj 67 116 f;
#X obj 67 139 t a a;
#X obj 115 124 + 1;
#X msg 116 92 0;
#X obj 9 271 list store, f 20;
#X msg 67 228 append \$1;
#X obj 9 40 t b b b, f 20;
#X obj 9 10 inlet;
#X obj 9 294 outlet;
#X obj 67 162 text get mx-fxlist;
#X connect 0 0 3 1;
#X connect 1 0 9 0;
#X connect 2 0 3 0;
#X connect 2 1 7 0;
#X connect 3 0 4 0;
#X connect 4 0 5 0;
#X connect 5 0 13 0;
#X connect 5 1 6 0;
#X connect 6 0 4 1;
#X connect 7 0 4 1;
#X connect 8 0 12 0;
#X connect 9 0 8 0;
#X connect 10 0 8 0;
#X connect 10 1 2 0;
#X connect 10 2 8 1;
#X connect 11 0 10 0;
#X connect 13 0 1 0;
#X connect 13 1 0 0;
#X restore 392 216 pd get.lib.list;
#X obj 419 270 list prepend;
#X msg 488 245 symbol;
#X obj 419 293 list prepend items;
#X obj 392 79 r \$0.drop;
#X obj 392 104 route selected;
#X obj 392 130 route ..;
#X obj 392 159 b;
#X obj 419 358 s \$0.drop;
#X obj 419 316 list trim;
#X obj 392 182 del 0;
#X obj 392 239 t b a;
#X obj 392 394 s \$0.drop.level;
#X msg 392 368 0;
#X obj 486 155 loadbang;
#X msg 291 332 symbol empty;
#X obj 221 171 outlet;
#X obj 497 111 r mx;
#X obj 497 134 route fxlistupdated;
#X msg 221 148 select \$1;
#X obj 643 20 inlet;
#X obj 643 43 symbol;
#X msg 643 118 setlabel \$1;
#X obj 643 141 s \$0.drop;
#X obj 643 68 sel empty;
#X msg 643 91 symbol;
#X obj 535 369 r \$0.drop;
#X obj 535 392 route active;
#X obj 535 470 list trim;
#X obj 535 492 s mx;
#X obj 535 415 list prepend gui_lock;
#X obj 535 438 list prepend aux;
#X obj 486 183 t b b b;
#X connect 0 0 12 0;
#X connect 1 0 2 0;
#X connect 2 0 3 0;
#X connect 3 0 4 0;
#X connect 5 0 11 0;
#X connect 6 0 7 0;
#X connect 7 0 0 0;
#X connect 9 0 10 0;
#X connect 10 0 11 1;
#X connect 11 0 6 0;
#X connect 12 0 13 0;
#X connect 12 1 1 0;
#X connect 13 0 8 0;
#X connect 14 0 16 1;
#X connect 15 0 14 0;
#X connect 16 0 19 0;
#X connect 17 0 18 0;
#X connect 18 0 16 0;
#X connect 19 0 21 0;
#X connect 19 1 44 0;
#X connect 21 0 20 0;
#X connect 22 0 25 0;
#X connect 23 0 28 0;
#X connect 24 0 26 0;
#X connect 25 0 23 0;
#X connect 26 0 25 1;
#X connect 27 0 48 0;
#X connect 28 1 27 0;
#X connect 29 0 40 0;
#X connect 30 0 32 0;
#X connect 31 0 30 1;
#X connect 32 0 38 0;
#X connect 33 0 34 0;
#X connect 34 0 35 0;
#X connect 35 0 36 0;
#X connect 36 0 39 0;
#X connect 38 0 37 0;
#X connect 39 0 29 0;
#X connect 40 0 42 0;
#X connect 40 1 30 0;
#X connect 42 0 41 0;
#X connect 43 0 61 0;
#X connect 44 0 48 0;
#X connect 46 0 47 0;
#X connect 47 0 61 0;
#X connect 48 0 45 0;
#X connect 49 0 50 0;
#X connect 50 0 53 0;
#X connect 51 0 52 0;
#X connect 53 0 54 0;
#X connect 53 1 51 0;
#X connect 54 0 51 0;
#X connect 55 0 56 0;
#X connect 56 0 59 0;
#X connect 57 0 58 0;
#X connect 59 0 60 0;
#X connect 60 0 57 0;
#X connect 61 0 50 0;
#X connect 61 1 29 0;
#X connect 61 2 31 0;
#X restore 21 179 pd two.level.dropdown;
#X msg 30 311 show \$1;
#X obj 21 209 t a a;
#X obj 63 234 route select;
#X obj 63 257 symbol;
#X obj 30 286 symbol;
#X obj 21 333 list prepend aux/\$2 insert;
#X obj 21 377 s \$1-mx;
#X obj 201 268 r \$0.drop;
#X obj 201 291 route expand;
#X obj 201 386 s \$0.gop;
#X obj 201 314 + 26;
#X obj 201 339 max 28;
#X obj 313 35 namecanvas \$0.gop;
#X obj 414 191 s \$0.gop;
#X msg 414 168 loadbang;
#X obj 313 139 loadbang;
#X msg 201 363 coords 0 -1 1 1 50 \$1 2 20 10;
#X connect 1 0 2 0;
#X connect 2 0 34 0;
#X connect 3 0 39 0;
#X connect 4 0 5 0;
#X connect 5 0 1 0;
#X connect 28 0 29 0;
#X connect 30 0 31 0;
#X connect 31 0 49 0;
#X connect 32 0 28 0;
#X connect 33 0 41 0;
#X connect 34 0 36 0;
#X connect 35 0 40 0;
#X connect 36 0 40 0;
#X connect 36 1 37 0;
#X connect 37 0 38 0;
#X connect 38 0 39 1;
#X connect 39 0 35 0;
#X connect 40 0 33 0;
#X connect 42 0 43 0;
#X connect 43 0 45 0;
#X connect 45 0 46 0;
#X connect 46 0 51 0;
#X connect 49 0 48 0;
#X connect 50 0 32 0;
#X connect 51 0 44 0;
#X coords 0 -1 1 1 50 28 2 20 10;
