#N canvas 647 64 452 395 10;
#X obj 22 261 inlet~;
#X obj 141 262 inlet~;
#N canvas 1215 100 284 215 netpd-stuff 0;
#X obj 9 -13 netpd_f \$4 mx/aux/\$2/pp;
#X obj 57 11 netpd_f \$4 mx/aux/\$2/ch;
#X obj 109 34 netpd_f \$4 mx/aux/\$2/level;
#X obj 9 167 s \$1.aux;
#X obj 9 144 list prepend \$2;
#X msg 9 9 pp \$1;
#X msg 57 33 ch \$1;
#X msg 109 56 level \$1;
#X connect 0 0 5 0;
#X connect 1 0 6 0;
#X connect 2 0 7 0;
#X connect 4 0 3 0;
#X connect 5 0 4 0;
#X connect 6 0 4 0;
#X connect 7 0 4 0;
#X restore 335 42 pd netpd-stuff;
#N canvas 846 72 211 129 NETPD 0;
#X msg 11 20 version 0 0 0;
#X restore 335 16 pd NETPD 2 0;
#X obj 142 315 throw~ \$1-dummy-r;
#X obj 22 334 throw~ \$1-dummy-l;
#X obj 22 286 *~;
#X obj 142 287 *~;
#X obj 85 230 line~;
#X msg 85 206 \$1 50;
#X obj 85 23 r \$1.aux;
#X obj 210 146 sel 0;
#X msg 210 277 set \$1-l;
#X msg 237 256 set \$1-r;
#X msg 237 168 symbol mx-aux-\$1;
#X obj 210 190 f \$1;
#X obj 210 234 t a a;
#X msg 210 211 symbol \$1-dummy;
#X obj 85 45 route \$2;
#X obj 85 92 == \$3;
#X obj 85 178 *;
#X obj 118 148 t b a;
#X obj 85 67 route pp level ch;
#N canvas 1099 72 163 179 switch 0;
#X obj 12 12 inlet;
#X obj 12 143 outlet;
#X obj 54 11 r mx;
#X obj 54 33 route \$1;
#X obj 54 55 route switch;
#X obj 54 77 t b a;
#X obj 12 112 && 1;
#X connect 0 0 6 0;
#X connect 2 0 3 0;
#X connect 3 0 4 0;
#X connect 4 0 5 0;
#X connect 5 0 6 0;
#X connect 5 1 6 1;
#X connect 6 0 1 0;
#X restore 85 116 pd switch;
#X connect 0 0 6 0;
#X connect 1 0 7 0;
#X connect 6 0 5 0;
#X connect 7 0 4 0;
#X connect 8 0 7 1;
#X connect 8 0 6 1;
#X connect 9 0 8 0;
#X connect 10 0 18 0;
#X connect 11 0 15 0;
#X connect 11 1 14 0;
#X connect 12 0 5 0;
#X connect 13 0 4 0;
#X connect 14 0 16 0;
#X connect 15 0 17 0;
#X connect 16 0 12 0;
#X connect 16 1 13 0;
#X connect 17 0 16 0;
#X connect 18 0 22 0;
#X connect 19 0 23 0;
#X connect 20 0 9 0;
#X connect 21 0 20 0;
#X connect 21 1 20 1;
#X connect 22 0 19 0;
#X connect 22 1 21 0;
#X connect 22 2 11 0;
#X connect 23 0 20 0;
