#N canvas 685 106 514 477 10;
#X obj 37 396 outlet;
#X obj 37 55 route insert;
#X obj 37 168 route empty;
#X obj 148 257 symbol;
#X msg 86 290 show;
#X obj 37 86 route select show;
#X obj 209 59 loadbang;
#X msg 209 85 set empty;
#X obj 37 10 r \$1-mx;
#X obj 200 380 s \$1-mx;
#X obj 200 356 list trim;
#N canvas 1189 300 203 135 NETPD 0;
#X msg 16 12 version 0 0 3;
#X restore 298 34 pd NETPD 2 0;
#X msg 37 250 clear;
#X obj 148 194 t a b;
#X obj 37 191 t b b;
#X msg 148 279 insert \$1;
#X msg 249 302 switch \$1;
#X obj 116 382 loadbang;
#X msg 116 404 bypass 0;
#X obj 249 258 &&;
#X obj 249 232 t b a;
#X msg 64 214 0;
#X msg 175 216 1;
#X obj 249 280 change -1;
#X obj 249 193 == 0;
#X obj 249 171 netpd_f \$1 \$2/bypass 0;
#X obj 37 126 netpd_a \$1 \$2/load;
#X obj 199 334 list prepend \$2 insert setlabel;
#X obj 37 32 route \$2;
#X connect 1 0 5 0;
#X connect 2 0 14 0;
#X connect 2 1 13 0;
#X connect 3 0 15 0;
#X connect 4 0 0 0;
#X connect 5 0 26 0;
#X connect 5 1 4 0;
#X connect 6 0 7 0;
#X connect 7 0 26 0;
#X connect 8 0 28 0;
#X connect 10 0 9 0;
#X connect 12 0 0 0;
#X connect 13 0 3 0;
#X connect 13 1 22 0;
#X connect 14 0 12 0;
#X connect 14 1 21 0;
#X connect 15 0 0 0;
#X connect 16 0 0 0;
#X connect 17 0 18 0;
#X connect 18 0 0 0;
#X connect 19 0 23 0;
#X connect 20 0 19 0;
#X connect 20 1 19 1;
#X connect 21 0 19 0;
#X connect 22 0 19 0;
#X connect 23 0 16 0;
#X connect 24 0 20 0;
#X connect 25 0 24 0;
#X connect 26 0 2 0;
#X connect 26 0 27 0;
#X connect 27 0 10 0;
#X connect 28 0 1 0;
