#N canvas 647 64 452 395 10;
#X obj 22 261 inlet~;
#X obj 141 262 inlet~;
#N canvas 1024 111 349 363 netpd-stuff 0;
#X msg 57 79 ch \$1;
#X msg 108 78 level \$1;
#X obj 57 140 outlet;
#X obj 57 11 netpd_f \$1 \$2/ch;
#X obj 108 34 netpd_f \$1 \$2/level;
#X connect 0 0 2 0;
#X connect 1 0 2 0;
#X connect 3 0 0 0;
#X connect 4 0 1 0;
#X restore 85 36 pd netpd-stuff;
#N canvas 846 72 211 129 NETPD 0;
#X msg 11 20 version 0 0 0;
#X restore 335 16 pd NETPD 2 0;
#X obj 142 315 throw~ \$1-dummy-r;
#X obj 22 334 throw~ \$1-dummy-l;
#X obj 22 286 *~;
#X obj 142 287 *~;
#X obj 85 230 line~;
#X msg 85 206 \$1 50;
#X obj 210 146 sel 0;
#X msg 210 277 set \$1-l;
#X msg 237 256 set \$1-r;
#X msg 237 168 symbol mx-aux-\$1;
#X obj 210 190 f \$1;
#X obj 210 234 t a a;
#X msg 210 211 symbol \$1-dummy;
#X obj 85 92 route level ch;
#X obj 85 130 t a a;
#X obj 85 152 *;
#X connect 0 0 6 0;
#X connect 1 0 7 0;
#X connect 2 0 17 0;
#X connect 6 0 5 0;
#X connect 7 0 4 0;
#X connect 8 0 7 1;
#X connect 8 0 6 1;
#X connect 9 0 8 0;
#X connect 10 0 14 0;
#X connect 10 1 13 0;
#X connect 11 0 5 0;
#X connect 12 0 4 0;
#X connect 13 0 15 0;
#X connect 14 0 16 0;
#X connect 15 0 11 0;
#X connect 15 1 12 0;
#X connect 16 0 15 0;
#X connect 17 0 18 0;
#X connect 17 1 10 0;
#X connect 18 0 19 0;
#X connect 18 1 19 1;
#X connect 19 0 9 0;
