#N canvas 590 44 303 322 10;
#X obj 8 56 inlet~;
#X obj 9 289 outlet~;
#X obj 9 265 throw~ \$1-mx-sum-l;
#X obj 95 242 throw~ \$1-mx-sum-r;
#N canvas 511 157 387 305 mx.insert___ 0;
#X obj 6 52 inlet~;
#X obj 98 52 inlet~;
#X obj 98 246 outlet~;
#X obj 6 246 outlet~;
#X obj 6 108 mx-insert-container \$1 insert/1;
#X obj 189 85 mx-insert-control \$1 1;
#X connect 0 0 4 0;
#X connect 1 0 4 1;
#X connect 4 0 3 0;
#X connect 4 1 2 0;
#X connect 5 0 4 2;
#X restore 7 178 pd mx.insert___;
#N canvas 603 242 273 419 mx.l.p______ 0;
#X obj 15 306 inlet~;
#X obj 64 307 inlet~;
#X obj 15 347 outlet~;
#X obj 65 347 outlet~;
#X obj 15 327 *~;
#X obj 65 327 *~;
#X obj 31 281 line~;
#X msg 31 260 \$1 50;
#X obj 80 282 line~;
#X msg 80 260 \$1 50;
#N canvas 698 400 450 300 pan____ 0;
#X obj 115 118 cos;
#X obj 215 122 atan;
#X msg 215 101 1;
#X obj 215 144 * 2;
#X obj 115 73 *;
#X obj 142 117 sin;
#X obj 14 9 inlet;
#X obj 188 11 inlet;
#X obj 14 246 outlet;
#X obj 73 245 outlet;
#X obj 190 246 outlet;
#X obj 215 80 loadbang;
#X obj 115 95 t a a;
#X obj 14 201 *;
#X obj 27 171 t b a;
#X obj 73 204 *;
#X obj 86 174 t b a;
#X text 234 11 range: 0-1;
#X text 237 27 default: 0.5;
#X obj 14 116 t a a;
#X connect 0 0 14 0;
#X connect 1 0 3 0;
#X connect 2 0 1 0;
#X connect 3 0 4 1;
#X connect 4 0 12 0;
#X connect 5 0 16 0;
#X connect 6 0 19 0;
#X connect 7 0 4 0;
#X connect 11 0 2 0;
#X connect 12 0 0 0;
#X connect 12 1 5 0;
#X connect 13 0 8 0;
#X connect 14 0 13 0;
#X connect 14 1 13 1;
#X connect 15 0 9 0;
#X connect 16 0 15 0;
#X connect 16 1 15 1;
#X connect 19 0 13 0;
#X connect 19 1 15 0;
#X restore 31 221 pd pan____;
#N canvas 698 400 307 286 level__ 0;
#X obj 14 9 inlet;
#X obj 156 9 inlet;
#X obj 14 246 outlet;
#X obj 183 243 outlet;
#X obj 14 201 *;
#X obj 27 171 t b a;
#X text 202 9 range: 0-1;
#X text 205 25 comment;
#X obj 156 86 *;
#X obj 156 149 t a a;
#X obj 156 123 *;
#X obj 156 61 t a a a;
#X obj 195 85 max 1;
#X obj 183 191 rmstodb;
#X obj 195 107 t a a;
#X obj 195 129 *;
#X obj 183 213 - 100;
#X connect 0 0 4 0;
#X connect 1 0 11 0;
#X connect 4 0 2 0;
#X connect 5 0 4 0;
#X connect 5 1 4 1;
#X connect 8 0 10 0;
#X connect 9 0 5 0;
#X connect 9 1 13 0;
#X connect 10 0 9 0;
#X connect 11 0 8 0;
#X connect 11 1 8 1;
#X connect 11 2 12 0;
#X connect 12 0 14 0;
#X connect 13 0 16 0;
#X connect 14 0 15 0;
#X connect 14 1 15 1;
#X connect 15 0 10 1;
#X connect 16 0 3 0;
#X restore 31 195 pd level__;
#X msg 31 123 1;
#X obj 31 100 loadbang;
#X obj 136 174 netpd_f \$1 pan 0.5;
#X obj 108 153 netpd_f \$1 level 1;
#X text 10 1 level / panorama;
#X connect 0 0 4 0;
#X connect 1 0 5 0;
#X connect 4 0 2 0;
#X connect 5 0 3 0;
#X connect 6 0 4 1;
#X connect 7 0 6 0;
#X connect 8 0 5 1;
#X connect 9 0 8 0;
#X connect 10 0 7 0;
#X connect 10 1 9 0;
#X connect 11 0 10 0;
#X connect 12 0 11 0;
#X connect 13 0 12 0;
#X connect 14 0 10 1;
#X connect 15 0 11 1;
#X restore 8 207 pd mx.l.p______;
#X obj 8 80 catch~ mx-aux-\$2-l;
#X obj 94 100 catch~ mx-aux-\$2-r;
#N canvas 520 483 531 286 mx.aux.pre__ 0;
#X obj 17 9 inlet~;
#X obj 190 9 inlet~;
#X obj 190 226 outlet~;
#X obj 17 226 outlet~;
#X obj 41 49 mx-aux-send \$1 1 1 \$1;
#X obj 41 72 mx-aux-send \$1 2 1 \$1;
#X obj 41 96 mx-aux-send \$1 3 1 \$1;
#X connect 0 0 3 0;
#X connect 0 0 4 0;
#X connect 0 0 5 0;
#X connect 0 0 6 0;
#X connect 1 0 2 0;
#X connect 1 0 4 1;
#X connect 1 0 5 1;
#X connect 1 0 6 1;
#X restore 8 139 pd mx.aux.pre__;
#X obj 9 19 namecanvas mx-aux-channel-\$1-\$2;
#X obj 131 150 loadbang;
#X obj 131 172 print mx-aux-channel-\$1-\$2;
#X connect 4 0 5 0;
#X connect 4 1 5 1;
#X connect 5 0 2 0;
#X connect 5 1 3 0;
#X connect 6 0 8 0;
#X connect 7 0 8 1;
#X connect 8 0 4 0;
#X connect 8 1 4 1;
#X connect 10 0 11 0;
