#N canvas 590 44 303 322 10;
#X obj 8 56 inlet~;
#X obj 9 289 outlet~;
#X obj 8 265 throw~ \$1-mx-sum-l;
#X obj 95 242 throw~ \$1-mx-sum-r;
#N canvas 931 59 387 305 mx.insert___ 0;
#X obj 6 52 inlet~;
#X obj 111 50 inlet~;
#X obj 113 243 outlet~;
#X obj 6 246 outlet~;
#X obj 6 108 mx-insert-container \$1 aux/\$2/insert;
#X obj 196 61 mx-aux-insert-control \$1 \$2;
#X obj 57 181 outlet;
#X connect 0 0 4 0;
#X connect 1 0 4 1;
#X connect 4 0 3 0;
#X connect 4 1 2 0;
#X connect 4 2 6 0;
#X connect 5 0 4 2;
#X restore 7 135 pd mx.insert___;
#N canvas 603 242 349 410 mx.l.p______ 0;
#X obj 15 306 inlet~;
#X obj 64 307 inlet~;
#X obj 15 347 outlet~;
#X obj 65 347 outlet~;
#X obj 15 327 *~;
#X obj 65 327 *~;
#X obj 31 281 line~;
#X msg 31 260 \$1 50;
#X obj 80 282 line~;
#X msg 80 260 \$1 50;
#N canvas 698 400 450 300 pan____ 0;
#X obj 115 118 cos;
#X obj 215 122 atan;
#X msg 215 101 1;
#X obj 215 144 * 2;
#X obj 115 73 *;
#X obj 142 117 sin;
#X obj 14 9 inlet;
#X obj 188 11 inlet;
#X obj 14 246 outlet;
#X obj 73 245 outlet;
#X obj 190 246 outlet;
#X obj 215 80 loadbang;
#X obj 115 95 t a a;
#X obj 14 201 *;
#X obj 27 171 t b a;
#X obj 73 204 *;
#X obj 86 174 t b a;
#X text 234 11 range: 0-1;
#X text 237 27 default: 0.5;
#X obj 14 116 t a a;
#X connect 0 0 14 0;
#X connect 1 0 3 0;
#X connect 2 0 1 0;
#X connect 3 0 4 1;
#X connect 4 0 12 0;
#X connect 5 0 16 0;
#X connect 6 0 19 0;
#X connect 7 0 4 0;
#X connect 11 0 2 0;
#X connect 12 0 0 0;
#X connect 12 1 5 0;
#X connect 13 0 8 0;
#X connect 14 0 13 0;
#X connect 14 1 13 1;
#X connect 15 0 9 0;
#X connect 16 0 15 0;
#X connect 16 1 15 1;
#X connect 19 0 13 0;
#X connect 19 1 15 0;
#X restore 31 221 pd pan____;
#N canvas 698 400 307 286 level__ 0;
#X obj 14 9 inlet;
#X obj 156 9 inlet;
#X obj 14 246 outlet;
#X obj 183 243 outlet;
#X obj 14 201 *;
#X obj 27 171 t b a;
#X text 202 9 range: 0-1;
#X text 205 25 comment;
#X obj 156 86 *;
#X obj 156 149 t a a;
#X obj 156 123 *;
#X obj 156 61 t a a a;
#X obj 195 85 max 1;
#X obj 183 191 rmstodb;
#X obj 195 107 t a a;
#X obj 195 129 *;
#X obj 183 213 - 100;
#X connect 0 0 4 0;
#X connect 1 0 11 0;
#X connect 4 0 2 0;
#X connect 5 0 4 0;
#X connect 5 1 4 1;
#X connect 8 0 10 0;
#X connect 9 0 5 0;
#X connect 9 1 13 0;
#X connect 10 0 9 0;
#X connect 11 0 8 0;
#X connect 11 1 8 1;
#X connect 11 2 12 0;
#X connect 12 0 14 0;
#X connect 13 0 16 0;
#X connect 14 0 15 0;
#X connect 14 1 15 1;
#X connect 15 0 10 1;
#X connect 16 0 3 0;
#X restore 31 195 pd level__;
#X msg 31 123 1;
#X obj 31 100 loadbang;
#X text 10 1 level / panorama;
#X obj 108 153 netpd_f \$1 aux/\$2/level 1;
#X obj 136 174 netpd_f \$1 aux/\$2/pan 0.5;
#X connect 0 0 4 0;
#X connect 1 0 5 0;
#X connect 4 0 2 0;
#X connect 5 0 3 0;
#X connect 6 0 4 1;
#X connect 7 0 6 0;
#X connect 8 0 5 1;
#X connect 9 0 8 0;
#X connect 10 0 7 0;
#X connect 10 1 9 0;
#X connect 11 0 10 0;
#X connect 12 0 11 0;
#X connect 13 0 12 0;
#X connect 15 0 11 1;
#X connect 16 0 10 1;
#X restore 8 192 pd mx.l.p______;
#X obj 8 81 catch~ mx-aux-\$2-l;
#X obj 94 100 catch~ mx-aux-\$2-r;
#X obj 9 19 namecanvas mx-aux-channel-\$1-\$2;
#N canvas 893 277 143 66 NETPD 0;
#N canvas 914 316 209 227 abslist 0;
#X msg 8 59 mx-insert-container;
#X msg 8 13 mx-aux-insert-control;
#X msg 8 36 mx-aux-send2;
#X restore 12 31 pd abslist;
#X msg 12 7 version 0 0 1;
#X restore 143 146 pd NETPD 2 0;
#X obj 144 173 switch~;
#N canvas 520 483 531 286 mx.aux.pre__ 0;
#X obj 17 9 inlet~;
#X obj 231 9 inlet~;
#X obj 231 224 outlet~;
#X obj 17 226 outlet~;
#X obj 41 49 mx-aux-send2 \$1 aux/\$2/aux/1;
#X obj 41 72 mx-aux-send2 \$1 aux/\$2/aux/2;
#X obj 41 96 mx-aux-send2 \$1 aux/\$2/aux/3;
#X connect 0 0 3 0;
#X connect 0 0 4 0;
#X connect 0 0 5 0;
#X connect 0 0 6 0;
#X connect 1 0 2 0;
#X connect 1 0 4 1;
#X connect 1 0 5 1;
#X connect 1 0 6 1;
#X restore 8 160 pd mx.aux.pre__;
#N canvas 683 417 204 215 aux.com 0;
#X obj 25 10 r mx;
#X obj 25 32 route aux;
#X obj 25 54 route \$2;
#X obj 25 76 route ready?;
#X obj 25 98 b;
#X obj 25 120 f \$2;
#X msg 25 142 aux \$1 ready;
#X obj 25 164 s mx;
#X obj 115 85 loadbang;
#X connect 0 0 1 0;
#X connect 1 0 2 0;
#X connect 2 0 3 0;
#X connect 3 0 4 0;
#X connect 4 0 5 0;
#X connect 5 0 6 0;
#X connect 6 0 7 0;
#X connect 8 0 5 0;
#X restore 144 208 pd aux.com;
#X connect 4 0 11 0;
#X connect 4 1 10 0;
#X connect 4 2 11 1;
#X connect 5 0 2 0;
#X connect 5 1 3 0;
#X connect 6 0 4 0;
#X connect 7 0 4 1;
#X connect 11 0 5 0;
#X connect 11 1 5 1;
