#N canvas 747 600 301 253 10;
#X obj 20 20 cnv 15 254 28 empty empty empty 20 12 0 14 -1 -66577 0
;
#X obj 235 33 hsl 35 13 0 1 0 0 \$1-mx/aux/\$2/pan \$1-mx/aux/\$2/pan
empty -2 -8 0 10 -66577 -258113 -1 1703 1;
#X obj 96 33 hsl 134 13 0 1.3 0 0 \$1-mx/aux/\$2/level \$1-mx/aux/\$2/level
empty -2 -8 0 10 -66577 -66577 -1 6600 1;
#X obj 42 36 vsl 50 7 10 4 0 0 \$0.selector.s \$0.selector.r empty
2 5 1 9 -228856 -228856 -258113 0 1;
#X obj 42 24 vsl 20 7 1 1 0 0 \$1-mx/insert/\$2/bypass \$0.bypass.r
by 5 4 1 8 -233017 -233017 -1 0 1;
#X obj 62 24 vsl 30 7 0 0 0 0 \$0.show.s \$0.show.r empty 5 3 1 5 -233017
-233017 -1 0 1;
#X obj 94 34 cnv 1 68 11 empty \$0.level.top.r empty 20 12 0 14 -258113
-66577 0;
#X obj 23 23 cnv 15 18 22 empty \$0.aux.label  1 1 11 1 14 -262144
-4160 0;
#X obj 93 22 mx-aux-gui2 \$1 \$2/1;
#X obj 153 22 mx-aux-gui2 \$1 \$2/2;
#X obj 213 22 mx-aux-gui2 \$1 \$2/3;
#N canvas 734 525 181 164 label 0;
#X obj 16 24 loadbang;
#X msg 16 90 label \$1;
#X obj 16 112 s \$0.aux.label;
#X obj 16 67 makefilename %2d;
#X obj 16 46 f \$2;
#X connect 0 0 4 0;
#X connect 1 0 2 0;
#X connect 3 0 1 0;
#X connect 4 0 3 0;
#X restore 22 73 pd label;
#N canvas 520 492 261 258 level-slider-stuff 0;
#X obj 20 161 s \$0.level.top.r;
#X obj 20 36 route float set;
#X obj 20 14 r \$1-mx/aux/\$2/level;
#X msg 20 135 vis_size \$1 11;
#X obj 20 110 + 1;
#X obj 20 88 * 105;
#X connect 1 0 5 0;
#X connect 1 1 5 0;
#X connect 2 0 1 0;
#X connect 3 0 0 0;
#X connect 4 0 3 0;
#X connect 5 0 4 0;
#X restore 22 96 pd level-slider-stuff;
#N canvas 590 44 416 323 double-click-reset 1;
#X obj 15 32 route float;
#X obj 15 55 list prepend 0;
#X msg 34 100 1;
#X obj 15 77 t a b b;
#X obj 64 98 del 300;
#X msg 64 119 0;
#X obj 15 140 route 1 0;
#X obj 15 184 ==;
#X obj 15 162 t a b;
#X msg 86 151 stop;
#X obj 15 206 sel 1;
#X msg 15 250 1;
#X obj 15 228 del 1;
#X obj 175 32 route float;
#X obj 175 55 list prepend 0;
#X msg 194 100 1;
#X obj 175 77 t a b b;
#X obj 224 98 del 300;
#X msg 224 119 0;
#X obj 175 140 route 1 0;
#X obj 175 184 ==;
#X obj 175 162 t a b;
#X msg 246 151 stop;
#X obj 175 206 sel 1;
#X obj 175 228 del 1;
#X obj 15 10 r \$1-mx/aux/\$2/level;
#X obj 15 272 s \$1-mx/aux/\$2/level;
#X obj 175 10 r \$1-mx/aux/\$2/pan;
#X obj 175 272 s \$1-mx/aux/\$2/pan;
#X msg 175 250 0.501;
#X connect 0 0 1 0;
#X connect 1 0 3 0;
#X connect 2 0 1 1;
#X connect 3 0 6 0;
#X connect 3 1 2 0;
#X connect 3 2 4 0;
#X connect 4 0 5 0;
#X connect 5 0 1 1;
#X connect 6 0 8 0;
#X connect 6 1 7 1;
#X connect 7 0 10 0;
#X connect 8 0 7 0;
#X connect 8 1 5 0;
#X connect 8 1 9 0;
#X connect 9 0 4 0;
#X connect 10 0 12 0;
#X connect 11 0 26 0;
#X connect 12 0 11 0;
#X connect 13 0 14 0;
#X connect 14 0 16 0;
#X connect 15 0 14 1;
#X connect 16 0 19 0;
#X connect 16 1 15 0;
#X connect 16 2 17 0;
#X connect 17 0 18 0;
#X connect 18 0 14 1;
#X connect 19 0 21 0;
#X connect 19 1 20 1;
#X connect 20 0 23 0;
#X connect 21 0 20 0;
#X connect 21 1 18 0;
#X connect 21 1 22 0;
#X connect 22 0 17 0;
#X connect 23 0 24 0;
#X connect 24 0 29 0;
#X connect 25 0 0 0;
#X connect 27 0 13 0;
#X connect 29 0 28 0;
#X restore 22 117 pd double-click-reset;
#X coords 0 -1 1 1 254 28 2 20 20;
