#N canvas 469 231 253 164 10;
#X obj 23 32 hsl 35 10 0 1 0 0 \$1-mx/aux/\$2/level \$1-mx/aux/\$2/level
empty -2 -8 0 10 -99865 -99865 -1 0 1;
#X obj 23 20 hsl 15 12 0 1 0 0 \$0.pp.s \$0.pp.r pst 0 6 1 10 -99865
-99865 -4034 700 1;
#N canvas 831 67 261 231 NETPD 0;
#X msg 18 12 version 0 0 1;
#X restore 90 21 pd NETPD 2 0;
#X obj 40 20 nbx 3 12 0 0 0 0 \$0.ch.ns \$0.ch.nr empty 0 -8 0 4 -262144
-1 -1 0 256;
#X obj 43 20 hsl 15 12 1 1 0 0 \$1-mx/aux/\$2/ch \$0.ch.r empty 2 7
1 9 -99865 -99865 -4034 0 1;
#N canvas 751 291 349 379 aux.ch 0;
#X obj 10 349 s \$0.ch.r;
#X msg 10 324 label \$1;
#X obj 49 284 makefilename %2d;
#X obj 10 263 route 0;
#X msg 10 303 symbol empty;
#X obj 10 84 t a a;
#X obj 37 106 s \$1-mx/aux/\$2/ch;
#X obj 37 127 r \$1-mx/aux/\$2/ch;
#X obj 37 149 route set;
#X obj 37 171 t a a;
#X obj 64 239 s \$0.ch.nr;
#X obj 10 32 >> 2;
#X obj 64 193 << 2;
#X obj 10 10 r \$0.ch.ns;
#X msg 64 215 set \$1;
#X obj 10 56 change -1;
#X obj 183 117 r mx;
#X obj 183 139 route auxnum;
#X obj 183 161 << 2;
#X msg 183 182 range 0 \$1;
#X obj 183 49 loadbang;
#X msg 183 71 getauxnum;
#X obj 183 93 s mx;
#X connect 1 0 0 0;
#X connect 2 0 1 0;
#X connect 3 0 4 0;
#X connect 3 1 2 0;
#X connect 4 0 1 0;
#X connect 5 0 3 0;
#X connect 5 1 6 0;
#X connect 7 0 8 0;
#X connect 8 0 9 0;
#X connect 9 0 3 0;
#X connect 9 1 12 0;
#X connect 11 0 15 0;
#X connect 12 0 14 0;
#X connect 13 0 11 0;
#X connect 14 0 10 0;
#X connect 15 0 5 0;
#X connect 16 0 17 0;
#X connect 17 0 18 0;
#X connect 18 0 19 0;
#X connect 19 0 10 0;
#X connect 20 0 21 0;
#X connect 21 0 22 0;
#X restore 90 45 pd aux.ch;
#N canvas 712 252 244 286 aux.pp 0;
#X msg 26 225 label \$1;
#X obj 26 158 sel 0 1;
#X msg 26 182 pst;
#X msg 53 182 pre;
#X obj 26 204 symbol;
#X obj 26 249 s \$0.pp.r;
#X obj 109 46 r \$1-mx/aux/\$2/pp;
#X obj 26 16 rh_slider_click \$0.pp.s \$0.pp.r;
#X obj 26 39 ==;
#X obj 109 68 route set;
#X obj 109 90 t a a;
#X obj 26 60 t a a;
#X obj 53 124 s \$1-mx/aux/\$2/pp;
#X connect 0 0 5 0;
#X connect 1 0 2 0;
#X connect 1 1 3 0;
#X connect 2 0 4 0;
#X connect 3 0 4 0;
#X connect 4 0 0 0;
#X connect 6 0 9 0;
#X connect 7 0 8 0;
#X connect 8 0 11 0;
#X connect 9 0 10 0;
#X connect 10 0 1 0;
#X connect 10 1 8 1;
#X connect 11 0 1 0;
#X connect 11 1 12 0;
#X connect 11 1 8 1;
#X restore 90 67 pd aux.pp;
#X obj 21 33 cnv 1 1 8 empty \$0.level.r empty 20 12 0 14 -4034 -1
0;
#N canvas 693 339 179 183 aux.level 0;
#X obj 20 36 route float set;
#X obj 20 14 r \$1-mx/aux/\$2/level;
#X obj 20 134 s \$0.level.r;
#X msg 20 110 vis_size \$1 8;
#X obj 20 65 * 37;
#X obj 20 87 + 1;
#X connect 0 0 4 0;
#X connect 0 1 4 0;
#X connect 1 0 0 0;
#X connect 3 0 2 0;
#X connect 4 0 5 0;
#X connect 5 0 3 0;
#X restore 90 90 pd aux.level;
#X coords 0 -1 1 1 40 22 2 20 20;
