#N canvas 722 424 324 284 10;
#X obj 20 20 cnv 15 254 28 empty empty empty 20 12 0 14 -1 -66577 0
;
#X obj 235 33 hsl 35 13 0 1 0 0 \$1-aux/\$2/pan \$1-aux/\$2/pan empty
-2 -8 0 10 -66577 -258113 -1 1700 1;
#X obj 96 33 hsl 134 13 0 1.3 0 0 \$1-aux/\$2/level \$1-aux/\$2/level
empty -2 -8 0 10 -66577 -66577 -1 0 1;
#X obj 94 34 cnv 1 1 11 empty \$0.level.top.r empty 20 12 0 14 -258113
-66577 0;
#X obj 23 23 cnv 15 18 22 empty \$0.aux.label  1 1 11 1 14 -262144
-4160 0;
#N canvas 734 525 181 164 label 0;
#X obj 16 24 loadbang;
#X msg 16 90 label \$1;
#X obj 16 112 s \$0.aux.label;
#X obj 16 67 makefilename %2d;
#X obj 16 46 f \$2;
#X connect 0 0 4 0;
#X connect 1 0 2 0;
#X connect 3 0 1 0;
#X connect 4 0 3 0;
#X restore 24 84 pd label;
#N canvas 520 520 261 258 level-slider-stuff 0;
#X obj 20 161 s \$0.level.top.r;
#X obj 20 36 route float set;
#X msg 20 135 vis_size \$1 11;
#X obj 20 110 + 1;
#X obj 20 88 * 105;
#X obj 20 14 r \$1-aux/\$2/level;
#X connect 1 0 4 0;
#X connect 1 1 4 0;
#X connect 2 0 0 0;
#X connect 3 0 2 0;
#X connect 4 0 3 0;
#X connect 5 0 1 0;
#X restore 24 107 pd level-slider-stuff;
#X obj 42 22 mx-aux-insert-gui \$1 \$2;
#N canvas 831 207 261 231 NETPD 0;
#X msg 18 12 version 0 0 0;
#N canvas 1046 288 281 230 abslist 0;
#X msg 3 11 mx-aux-gui2;
#X msg 2 33 mx-aux-insert-gui;
#X msg 2 54 mx-doubleclick-reset;
#X restore 18 35 pd abslist;
#X restore 173 66 pd NETPD 2 0;
#X obj 24 176 namecanvas mx-aux-channel-gui-\$1-\$2;
#X obj 23 129 mx-doubleclick-reset \$1-aux/\$2/level 1;
#X obj 24 150 mx-doubleclick-reset \$1-aux/\$2/pan 0.5;
#X obj 93 22 mx-aux-gui2 \$1 aux/\$2/aux/1 \$2;
#X obj 153 22 mx-aux-gui2 \$1 aux/\$2/aux/2 \$2;
#X obj 213 22 mx-aux-gui2 \$1 aux/\$2/aux/3 \$2;
#X coords 0 -1 1 1 254 28 2 20 20;
