#N canvas 685 95 467 438 10;
#X obj -52 395 outlet;
#X obj -53 55 route insert;
#X obj -53 168 route empty;
#X obj 10 214 symbol;
#X msg -53 220 clear;
#X msg -4 290 show;
#X obj 156 235 f;
#X msg 171 211 1;
#X msg 198 211 0;
#X obj -53 191 t b b b;
#X obj 10 191 t a b b;
#X obj 156 162 f;
#X obj 156 263 change;
#X msg 156 285 bypass \$1;
#X obj -53 86 route select show;
#X msg 10 236 insert \$1;
#X obj 156 183 sel 0;
#X obj 119 59 loadbang;
#X msg 119 85 set empty;
#X obj -53 126 mx-early-a \$1 aux/\$2/insert/load;
#X obj 156 136 netpd_f \$1 aux/\$2/insert/bypass 0;
#X obj -53 32 route aux/\$2;
#X obj -53 10 r \$1-mx;
#X obj 110 380 s \$1-mx;
#X obj 110 356 list trim;
#X obj 110 334 list prepend aux/\$2 insert setlabel;
#N canvas 1189 239 203 135 NETPD 0;
#X msg 16 12 version 0 0 0;
#N canvas 1189 390 162 89 abslist 0;
#X msg 11 14 mx-early-a;
#X restore 16 36 pd abslist;
#X restore 208 34 pd NETPD 2 0;
#X connect 1 0 14 0;
#X connect 2 0 9 0;
#X connect 2 1 10 0;
#X connect 3 0 15 0;
#X connect 4 0 0 0;
#X connect 5 0 0 0;
#X connect 6 0 12 0;
#X connect 7 0 6 1;
#X connect 8 0 6 1;
#X connect 9 0 4 0;
#X connect 9 1 11 0;
#X connect 9 2 7 0;
#X connect 10 0 3 0;
#X connect 10 1 11 0;
#X connect 10 2 8 0;
#X connect 11 0 16 0;
#X connect 12 0 13 0;
#X connect 13 0 0 0;
#X connect 14 0 19 0;
#X connect 14 1 5 0;
#X connect 15 0 0 0;
#X connect 16 0 6 0;
#X connect 16 1 12 0;
#X connect 17 0 18 0;
#X connect 18 0 19 0;
#X connect 19 0 2 0;
#X connect 19 0 25 0;
#X connect 20 0 11 0;
#X connect 21 0 1 0;
#X connect 22 0 21 0;
#X connect 24 0 23 0;
#X connect 25 0 24 0;
