#N struct 7819.rectangle float id float x float y float w float h float
txtclr float boxclr float bgclr symbol label;
#N canvas 819 468 591 454 10;
#N canvas 831 179 261 231 NETPD 0;
#X msg 17 13 version 0 0 3;
#X restore 312 57 pd NETPD 2 0;
#X obj 21 118 route insert;
#X obj 21 144 route setlabel;
#N canvas 869 146 692 376 buttons 0;
#X msg 294 213 color \$1 \$1 \$2;
#X msg 321 166 2 10;
#X msg 294 189 10 -1;
#X obj 294 235 s \$0.show.r;
#X obj 294 140 del 150;
#X obj 85 100 r \$1-aux/\$2/insert/bypass;
#X obj 12 306 s \$0.bypass.r;
#X msg 12 281 color \$1 \$1 \$2;
#X msg 31 234 2 10;
#X msg 12 254 10 -1;
#X obj 85 146 t a a;
#X obj 12 212 sel 0 1;
#X obj 85 124 route set;
#X obj 12 112 ==;
#X obj 12 134 t a a;
#X obj 39 177 s \$1-aux/\$2/insert/bypass;
#X obj 269 21 rh_slider_click \$0.show.s \$0.show.r;
#X obj 12 21 rh_slider_click \$0.bypass.s \$0.bypass.r;
#X obj 269 94 t b b b, f 9;
#X obj 452 54 r mx;
#X obj 452 100 route gui_lock;
#X obj 452 123 == 0;
#X obj 269 56 spigot 1;
#X obj 452 77 route aux;
#X obj 12 66 spigot 1;
#X obj 269 311 list trim;
#X obj 269 289 list prepend aux/\$2 insert;
#X obj 269 333 s \$1-mx;
#X msg 269 264 show;
#X connect 0 0 3 0;
#X connect 1 0 0 0;
#X connect 2 0 0 0;
#X connect 4 0 2 0;
#X connect 5 0 12 0;
#X connect 7 0 6 0;
#X connect 8 0 7 0;
#X connect 9 0 7 0;
#X connect 10 0 13 1;
#X connect 10 1 11 0;
#X connect 11 0 9 0;
#X connect 11 1 8 0;
#X connect 12 0 10 0;
#X connect 13 0 14 0;
#X connect 14 0 11 0;
#X connect 14 1 13 1;
#X connect 14 1 15 0;
#X connect 16 0 22 0;
#X connect 17 0 24 0;
#X connect 18 0 28 0;
#X connect 18 1 4 0;
#X connect 18 2 1 0;
#X connect 19 0 23 0;
#X connect 20 0 21 0;
#X connect 21 0 22 1;
#X connect 21 0 24 1;
#X connect 22 0 18 0;
#X connect 23 0 20 0;
#X connect 24 0 13 0;
#X connect 25 0 27 0;
#X connect 26 0 25 0;
#X connect 28 0 26 0;
#X restore 312 79 pd buttons;
#X obj 21 74 r \$1-mx;
#X obj 21 96 route aux/\$2;
#X obj 20 10 cnv 10 50 28 empty empty empty 1 12 0 14 #000000 #404040
0;
#X obj 48 12 hsl 20 12 0 1 0 0 \$0.show.s \$0.show.r [][] 5 6 1 5 #e0e0e0
#e0e0e0 #000000 0 1;
#X obj 23 12 hsl 20 12 0 1 0 0 \$0.bypass.s \$0.bypass.r m 6 6 1 8
#e0e0e0 #e0e0e0 #000000 0 1;
#X obj 68 23 cnv 1 1 1 empty 3868.field.3.r empty 1 6 1 9 #000000 #000000
0;
#X obj 68 23 cnv 1 1 1 empty 3868.field.-2.r empty 1 6 1 9 #b4b4b4
#000000 0;
#X obj 68 23 cnv 1 1 1 empty 3868.field.-1.r empty 1 6 1 9 #b4b4b4
#000000 0;
#X obj 68 23 cnv 1 1 1 empty 3868.field.1.r empty 1 6 1 9 #b4b4b4 #000000
0;
#X obj 68 23 cnv 1 1 1 empty 3868.field.2.r empty 1 6 1 9 #b4b4b4 #000000
0;
#X obj 68 23 cnv 1 1 1 empty 3868.field.0.r empty 1 6 1 9 #e0e0e0 #000000
0;
#X obj 68 23 cnv 1 1 1 empty 5321.field.3.r empty 1 6 1 9 #000000 #000000
0;
#X obj 68 23 cnv 1 1 1 empty 5321.field.-2.r empty 1 6 1 9 #b4b4b4
#000000 0;
#X obj 68 23 cnv 1 1 1 empty 5321.field.-1.r empty 1 6 1 9 #b4b4b4
#000000 0;
#X obj 68 23 cnv 1 1 1 empty 5321.field.1.r empty 1 6 1 9 #b4b4b4 #000000
0;
#X obj 68 23 cnv 1 1 1 empty 5321.field.2.r empty 1 6 1 9 #b4b4b4 #000000
0;
#X obj 68 23 cnv 1 1 1 empty 5321.field.0.r empty 1 6 1 9 #e0e0e0 #000000
0;
#X obj 68 23 cnv 1 1 1 empty 5476.field.3.r empty 1 6 1 9 #000000 #000000
0;
#X obj 68 23 cnv 1 1 1 empty 5476.field.-2.r empty 1 6 1 9 #b4b4b4
#000000 0;
#X obj 68 23 cnv 1 1 1 empty 5476.field.-1.r empty 1 6 1 9 #b4b4b4
#000000 0;
#X obj 68 23 cnv 1 1 1 empty 5476.field.1.r empty 1 6 1 9 #b4b4b4 #000000
0;
#X obj 68 23 cnv 1 1 1 empty 5476.field.2.r empty 1 6 1 9 #b4b4b4 #000000
0;
#X obj 68 23 cnv 1 1 1 empty 5476.field.0.r empty 1 6 1 9 #e0e0e0 #000000
0;
#X obj 20 24 mx-dropdown \$0.drop 50 12 8;
#X obj 313 188 \$0;
#X obj 414 122 r mx-aux-insert-gui;
#X obj 414 145 route \$2;
#X obj 313 165 b;
#X obj 21 231 list trim;
#X obj 21 209 list prepend aux/\$2 insert;
#X obj 21 253 s \$1-mx;
#X obj 201 268 r \$0.drop;
#X obj 201 291 route expand;
#X obj 201 386 s \$0.gop;
#X obj 201 314 + 26;
#X obj 201 339 max 28;
#X obj 313 35 namecanvas \$0.gop;
#X obj 414 191 s \$0.gop;
#X msg 414 168 loadbang;
#X obj 313 139 loadbang;
#X msg 201 363 coords 0 -1 1 1 50 \$1 2 20 10;
#X obj 21 178 mx-fx-2level-selector \$0.drop;
#X msg 313 218 \; \$1.drop selected_text_color 600 \; \$1.drop selected_box_color
0 \; \$1.drop selected_background_color 777 \; \$1.drop items_text_color
0 \; \$1.drop items_box_color 766 \; \$1.drop items_background_color
877 \;;
#X connect 1 0 2 0;
#X connect 2 0 45 0;
#X connect 4 0 5 0;
#X connect 5 0 1 0;
#X connect 28 0 46 0;
#X connect 29 0 30 0;
#X connect 30 0 42 0;
#X connect 31 0 28 0;
#X connect 32 0 34 0;
#X connect 33 0 32 0;
#X connect 35 0 36 0;
#X connect 36 0 38 0;
#X connect 38 0 39 0;
#X connect 39 0 44 0;
#X connect 42 0 41 0;
#X connect 43 0 31 0;
#X connect 44 0 37 0;
#X connect 45 0 33 0;
#X coords 0 -1 1 1 50 28 2 20 10;
