#N canvas 402 344 447 401 10;
#X obj 11 40 inlet;
#X obj 12 233 s \$1.NETPD;
#X obj 12 256 r \$1.receive;
#X obj 12 278 routeOSC /\$2;
#X obj 12 352 t a a;
#X obj 12 378 outlet;
#X obj 12 146 list append;
#X obj 12 168 list prepend /\$2;
#X obj 12 190 list prepend send;
#X obj 12 212 list trim;
#X obj 12 112 t b a;
#X obj 11 62 route set;
#X obj 156 210 t a;
#X obj 12 318 route foo;
#X msg 74 318 symbol;
#X obj 124 318 loadbang;
#X text 18 301 workaround for bug3426523;
#N canvas 972 72 181 117 NETPD 0;
#X msg 16 19 version 0 1 0;
#X restore 111 46 pd NETPD 2 0;
#X obj 117 88 netpd-dump \$1 4;
#X text 9 6 This abs is a copy of [netpd_a] \, but dumps earlier than
the original.;
#X text 213 89 <-- it's all about this;
#X text 108 26 !!!!! UGLY WORKAROUND !!!!!!!!;
#X connect 0 0 11 0;
#X connect 2 0 3 0;
#X connect 3 0 13 0;
#X connect 4 0 5 0;
#X connect 4 1 12 0;
#X connect 6 0 7 0;
#X connect 7 0 8 0;
#X connect 8 0 9 0;
#X connect 9 0 1 0;
#X connect 10 0 6 0;
#X connect 10 1 6 1;
#X connect 11 0 6 1;
#X connect 11 1 10 0;
#X connect 12 0 6 1;
#X connect 13 0 4 0;
#X connect 13 1 4 0;
#X connect 14 0 13 1;
#X connect 15 0 14 0;
#X connect 18 0 6 0;
