#N canvas 402 344 439 471 10;
#X obj 11 40 inlet;
#X obj 12 233 s \$1.NETPD;
#X obj 12 325 routeOSC /\$2;
#X obj 12 352 t a a;
#X obj 12 378 outlet;
#X obj 12 146 list append;
#X obj 12 168 list prepend /\$2;
#X obj 12 190 list prepend send;
#X obj 12 212 list trim;
#X obj 12 112 t b a;
#X obj 11 62 route set;
#X obj 156 210 t a;
#N canvas 972 172 181 117 NETPD 0;
#X msg 16 19 version 0 1 1;
#X restore 111 46 pd NETPD 2 0;
#X obj 117 88 netpd-dump \$1 4;
#X text 9 6 This abs is a copy of [netpd_a] \, but dumps earlier than
the original.;
#X text 213 89 <-- it's all about this;
#X text 108 26 !!!!! UGLY WORKAROUND !!!!!!!!;
#X obj 12 276 r \$1.NETPD;
#X obj 12 299 route receive;
#X connect 0 0 10 0;
#X connect 2 0 3 0;
#X connect 3 0 4 0;
#X connect 3 1 11 0;
#X connect 5 0 6 0;
#X connect 6 0 7 0;
#X connect 7 0 8 0;
#X connect 8 0 1 0;
#X connect 9 0 5 0;
#X connect 9 1 5 1;
#X connect 10 0 5 1;
#X connect 10 1 9 0;
#X connect 11 0 5 1;
#X connect 13 0 5 0;
#X connect 17 0 18 0;
#X connect 18 0 2 0;
