#N canvas 752 125 256 344 10;
#N canvas 455 91 527 335 parse.arg.list 0;
#N canvas 305 260 375 202 \$0.parser 0;
#X restore 11 10 pd \$0.parser;
#X obj 166 250 s pd-\$0.parser;
#X msg 127 228 clear;
#X obj 193 8 r \$0.set;
#X obj 146 274 s \$0.get;
#X obj 166 183 list prepend \$0;
#X obj 127 8 loadbang;
#X obj 127 30 until;
#X obj 127 52 f;
#X obj 127 74 + 1;
#X obj 127 116 t b b a;
#X obj 193 30 route 0;
#X obj 193 100 outlet;
#X obj 193 52 b;
#X msg 166 207 obj 19 5 r \$1.get \, obj 19 27 list append \$2 \, obj
19 49 s \$1.set \, connect 0 0 1 0 \, connect 1 0 2 0;
#X msg 166 160 symbol \$1\$2;
#X msg 166 138 list $ \$1;
#X obj 256 51 list prepend;
#X obj 340 51 t a;
#X obj 193 77 list append;
#X connect 2 0 1 0;
#X connect 3 0 11 0;
#X connect 5 0 14 0;
#X connect 6 0 7 0;
#X connect 7 0 8 0;
#X connect 8 0 9 0;
#X connect 9 0 8 1;
#X connect 9 0 10 0;
#X connect 10 0 2 0;
#X connect 10 1 4 0;
#X connect 10 2 16 0;
#X connect 11 0 13 0;
#X connect 11 1 17 0;
#X connect 13 0 7 1;
#X connect 13 0 19 0;
#X connect 14 0 1 0;
#X connect 15 0 5 0;
#X connect 16 0 15 0;
#X connect 17 0 18 0;
#X connect 17 0 19 1;
#X connect 18 0 17 1;
#X connect 19 0 12 0;
#X restore 11 12 pd parse.arg.list;
#X obj 12 221 b;
#X obj 12 244 list append;
#X obj 11 34 list split 2;
#X obj 12 290 list trim;
#X obj 11 68 b;
#X obj 12 175 r mx;
#N canvas 0 316 273 206 NETPD 0;
#X msg 9 0 version 0 0 1;
#X restore 166 12 pd NETPD 2 0;
#X text 11 148 == fx list ===========;
#X obj 12 268 list prepend addfxlist;
#X obj 12 197 route initfxlist;
#X obj 12 311 s mx;
#X obj 11 112 s mx;
#X msg 11 90 refreshfxlist;
#X connect 0 0 3 0;
#X connect 1 0 2 0;
#X connect 2 0 9 0;
#X connect 3 0 5 0;
#X connect 3 1 2 1;
#X connect 4 0 11 0;
#X connect 5 0 13 0;
#X connect 6 0 10 0;
#X connect 9 0 4 0;
#X connect 10 0 1 0;
#X connect 13 0 12 0;
