#N canvas 140 85 330 240 10;
#N canvas 320 87 277 141 NETPD 0;
#X msg 9 9 version 0 1 1;
#X restore 14 13 pd NETPD 2 0;
#X obj 13 195 outlet~;
#X obj 14 162 receive~ mx-\$1-\$2-l;
#X obj 143 195 outlet~;
#X obj 14 39 r mx-\$1-\$2;
#X obj 14 59 route sc;
#X obj 14 79 list;
#X obj 14 99 t a a;
#X msg 14 131 set \$1-l;
#X msg 144 131 set \$1-r;
#X obj 144 162 receive~ mx-\$1-\$2-r;
#X connect 2 0 1 0;
#X connect 4 0 5 0;
#X connect 5 0 6 0;
#X connect 6 0 7 0;
#X connect 7 0 8 0;
#X connect 7 1 9 0;
#X connect 8 0 2 0;
#X connect 9 0 10 0;
#X connect 10 0 3 0;
