#N canvas 685 95 481 468 10;
#X obj -53 335 outlet;
#X obj -53 10 r mx;
#X obj -53 32 route \$1;
#X obj -53 55 route insert;
#X obj -53 77 route \$2;
#X obj -53 126 mx-early-a \$1 mx/insert/\$2/load;
#X obj -53 148 route empty;
#X obj 10 194 symbol;
#X msg -53 200 clear;
#X msg -4 249 show;
#X obj 79 250 f;
#X msg 94 226 1;
#X msg 121 226 0;
#X obj -53 171 t b b b;
#X obj 10 171 t a b b;
#X obj 79 177 f;
#X obj 79 278 change;
#X msg 79 300 bypass \$1;
#X msg 237 396 \; \$1-mx/insert/\$2/bypass set \$3;
#X obj 54 416 s mx;
#X msg 54 394 \$1 insert \$2 setlabel \$3;
#X obj -53 100 route select show;
#X msg 10 216 insert \$1;
#X obj 79 198 sel 0;
#X obj 237 374 list prepend \$1 \$2;
#X obj 54 372 list prepend \$1 \$2;
#X obj 237 340 f;
#X obj 54 350 list;
#X obj 226 197 r mx;
#X obj 226 219 route \$1;
#X obj 226 241 route refresh;
#X obj 226 263 b;
#X obj 79 151 netpd_f \$1 mx/insert/\$2/bypass 0;
#X obj 119 59 loadbang;
#X msg 119 85 set empty;
#N canvas 1054 332 166 178 NETPD 0;
#X msg 12 16 version 0 0 0;
#N canvas 1129 167 178 309 abslist 0;
#X msg 13 9 mx-early-a;
#X restore 12 39 pd abslist;
#X restore 230 24 pd NETPD 2 0;
#X obj 54 327 t b a;
#X obj 311 94 loadbang;
#X msg 311 116 switch 1;
#X connect 1 0 2 0;
#X connect 2 0 3 0;
#X connect 3 0 4 0;
#X connect 4 0 21 0;
#X connect 5 0 6 0;
#X connect 5 0 36 0;
#X connect 6 0 13 0;
#X connect 6 1 14 0;
#X connect 7 0 22 0;
#X connect 8 0 0 0;
#X connect 9 0 0 0;
#X connect 10 0 16 0;
#X connect 11 0 10 1;
#X connect 12 0 10 1;
#X connect 13 0 8 0;
#X connect 13 1 15 0;
#X connect 13 2 11 0;
#X connect 14 0 7 0;
#X connect 14 1 15 0;
#X connect 14 2 12 0;
#X connect 15 0 23 0;
#X connect 16 0 17 0;
#X connect 17 0 0 0;
#X connect 20 0 19 0;
#X connect 21 0 5 0;
#X connect 21 1 9 0;
#X connect 22 0 0 0;
#X connect 23 0 10 0;
#X connect 23 1 16 0;
#X connect 24 0 18 0;
#X connect 25 0 20 0;
#X connect 26 0 24 0;
#X connect 27 0 25 0;
#X connect 28 0 29 0;
#X connect 29 0 30 0;
#X connect 30 0 31 0;
#X connect 31 0 27 0;
#X connect 31 0 26 0;
#X connect 32 0 15 0;
#X connect 32 0 26 1;
#X connect 33 0 34 0;
#X connect 34 0 5 0;
#X connect 36 0 27 0;
#X connect 36 1 27 1;
#X connect 37 0 38 0;
#X connect 38 0 0 0;
