#N canvas 619 80 392 437 10;
#N canvas 831 179 261 231 NETPD 0;
#X msg 18 12 version 0 0 1;
#X restore 223 32 pd NETPD 2 0;
#X obj 223 10 namecanvas \$0-mx-insert;
#N canvas 978 235 159 111 INIT 0;
#X obj 10 10 loadbang;
#X obj 10 32 \$0;
#X msg 10 54 \; \$1.sens 5 \; mx getfxlist bang;
#X connect 0 0 1 0;
#X connect 1 0 2 0;
#X restore 223 55 pd INIT;
#N canvas 278 280 419 327 slider.wrapper 0;
#X obj 20 255 pack f f f;
#X obj 20 233 - 1;
#X obj 20 167 change;
#X obj 20 208 t a a a;
#X obj 77 231 +;
#X msg 20 277 range \$2 \$1 \, set \$3;
#X obj 20 299 s \$0.selector.r;
#X obj 20 145 div 5;
#X obj 20 187 * 5;
#X obj 92 208 mod 5;
#X obj 48 232 + 5;
#X obj 20 48 max 0;
#X obj 20 74 min 1e+37;
#X obj 139 20 inlet;
#X obj 139 42 route range set;
#X obj 139 67 unpack;
#X obj 203 67 r \$0.sens;
#X obj 139 91 *;
#X obj 172 91 *;
#X obj 172 184 div;
#X obj 172 206 change -1e+37;
#X obj 172 228 outlet;
#X obj 182 121 *;
#X obj 20 120 t a a;
#X obj 20 96 t a a;
#X obj 20 17 r \$0.selector.s;
#X connect 0 0 5 0;
#X connect 1 0 0 0;
#X connect 2 0 8 0;
#X connect 3 0 1 0;
#X connect 3 1 10 0;
#X connect 3 2 4 0;
#X connect 4 0 0 2;
#X connect 5 0 6 0;
#X connect 7 0 2 0;
#X connect 8 0 3 0;
#X connect 9 0 4 1;
#X connect 10 0 0 1;
#X connect 11 0 12 0;
#X connect 12 0 24 0;
#X connect 13 0 14 0;
#X connect 14 0 15 0;
#X connect 14 1 22 0;
#X connect 15 0 17 0;
#X connect 15 1 18 0;
#X connect 16 0 18 1;
#X connect 16 0 17 1;
#X connect 16 0 19 1;
#X connect 16 0 22 1;
#X connect 17 0 11 1;
#X connect 18 0 12 1;
#X connect 19 0 20 0;
#X connect 20 0 21 0;
#X connect 22 0 23 0;
#X connect 23 0 7 0;
#X connect 23 1 9 0;
#X connect 24 0 23 0;
#X connect 24 1 19 0;
#X connect 25 0 11 0;
#X restore 21 183 pd slider.wrapper;
#X obj 20 22 vsl 40 7 10 4 0 0 \$0.selector.s \$0.selector.r empty
2 5 1 9 -228856 -228856 -258113 500 1;
#X msg 21 341 label \$1;
#X obj 21 364 s \$0.selector.r;
#X obj 21 112 t a a;
#X obj 21 138 list length;
#N canvas 683 62 361 403 list.selector.fields 0;
#N canvas 1158 378 142 254 counter 0;
#X obj 10 12 inlet;
#X msg 38 61 -2;
#X obj 10 83 until;
#X obj 10 105 f;
#X obj 37 106 + 1;
#X obj 10 38 t b b a;
#X obj 10 202 list prepend;
#X obj 10 224 outlet;
#X obj 10 126 t a a;
#X obj 10 181 list append;
#X obj 51 156 + 21;
#X obj 51 133 * 11;
#X msg 10 61 6;
#X connect 0 0 5 0;
#X connect 1 0 3 1;
#X connect 2 0 3 0;
#X connect 3 0 4 0;
#X connect 3 0 8 0;
#X connect 4 0 3 1;
#X connect 5 0 12 0;
#X connect 5 1 1 0;
#X connect 5 2 6 1;
#X connect 6 0 7 0;
#X connect 8 0 9 0;
#X connect 8 1 11 0;
#X connect 9 0 6 0;
#X connect 10 0 9 1;
#X connect 11 0 10 0;
#X connect 12 0 2 0;
#X restore 5 140 pd counter;
#X obj 5 164 t a a;
#X obj 5 382 s;
#X obj 5 186 list trim;
#X obj 159 9 inlet;
#X obj 32 50 del 600;
#X obj 252 32 inlet;
#X msg 5 75 1;
#X msg 32 75 0;
#X obj 5 228 route 1 0;
#N canvas 752 253 288 441 update.labels 0;
#N canvas 646 299 158 272 counter 0;
#X obj 10 12 inlet;
#X msg 10 57 5;
#X msg 38 57 -2;
#X obj 10 79 until;
#X obj 10 101 f;
#X obj 37 102 + 1;
#X obj 10 124 outlet;
#X obj 10 34 t b b;
#X connect 0 0 7 0;
#X connect 1 0 3 0;
#X connect 2 0 4 1;
#X connect 3 0 4 0;
#X connect 4 0 5 0;
#X connect 4 0 6 0;
#X connect 5 0 4 1;
#X connect 7 0 1 0;
#X connect 7 1 2 0;
#X restore -47 75 pd counter;
#X obj -47 31 t b a;
#X obj -47 97 list append;
#X obj -47 7 inlet;
#X obj 97 9 inlet;
#X obj -47 119 t a a;
#X msg 16 124 \$1 \$2;
#X obj 16 146 +;
#X obj -47 171 list append;
#X obj -47 193 t a a;
#N canvas 781 423 450 300 get.label.from.id 0;
#X obj 68 94 t b a;
#X obj 68 140 list split;
#X obj 68 118 list append;
#X obj 153 227 list split 1;
#X obj 68 66 - 1;
#X obj 29 42 moses 1;
#X msg 125 168 symbol empty;
#X obj 96 201 route bang;
#X obj 153 250 outlet;
#X obj 29 18 inlet;
#X obj 232 28 inlet;
#X connect 0 0 2 0;
#X connect 0 1 1 1;
#X connect 1 1 7 0;
#X connect 1 2 6 0;
#X connect 2 0 1 0;
#X connect 3 0 8 0;
#X connect 4 0 0 0;
#X connect 5 0 6 0;
#X connect 5 1 4 0;
#X connect 6 0 8 0;
#X connect 7 0 6 0;
#X connect 7 1 3 0;
#X connect 9 0 5 0;
#X connect 10 0 2 1;
#X restore -20 241 pd get.label.from.id;
#X obj -47 266 list append;
#X msg -20 218 \$3;
#X obj -20 310 list prepend \$0;
#X msg -20 332 \; \$1.field.\$2.r label \$5;
#X obj -47 288 t a a;
#X obj -47 365 route 0;
#X msg -47 385 symbol \$3;
#X obj -47 407 outlet;
#X connect 0 0 2 0;
#X connect 1 0 0 0;
#X connect 1 1 2 1;
#X connect 2 0 5 0;
#X connect 3 0 1 0;
#X connect 4 0 10 1;
#X connect 5 0 8 0;
#X connect 5 1 6 0;
#X connect 6 0 7 0;
#X connect 7 0 8 1;
#X connect 8 0 9 0;
#X connect 9 0 11 0;
#X connect 9 1 12 0;
#X connect 10 0 11 1;
#X connect 11 0 15 0;
#X connect 12 0 10 0;
#X connect 13 0 14 0;
#X connect 15 0 16 0;
#X connect 15 1 13 0;
#X connect 16 0 17 0;
#X connect 17 0 18 0;
#X restore 159 55 pd update.labels;
#X obj 32 338 list prepend \$0;
#X msg 32 360 symbol \$1.field.\$3.r;
#X msg 39 253 pos 58 21 \, vis_size 1 1 \, label empty \, size 1;
#X msg 44 298 pos 21 \$2 \, vis_size 38 10;
#X obj 5 273 route 3;
#X msg 5 317 pos 19 -3 \, vis_size 42 58;
#X obj 126 231 outlet;
#X obj 5 28 t b b;
#X obj 5 97 change;
#X obj 5 5 r \$0.selector.s;
#X obj 159 29 f;
#X obj 5 118 t a a;
#X msg 159 99 symbol empty;
#N canvas 756 152 450 300 init.cnvs 0;
#X obj 15 240 s \$0-mx-insert;
#X obj 15 184 list prepend \$0;
#X msg 120 137 -187246;
#X msg 42 138 -233017;
#X obj 15 97 t a a;
#X obj 15 163 list append;
#X msg 15 206 obj 58 21 cnv 1 1 1 empty \$1.field.\$2.r empty 1 6 1
9 \$3 -1 0;
#X obj 42 117 sel 0 3;
#X msg 92 137 -1;
#X msg 15 75 3 \, -2 \, -1 \, 1 \, 2 \, 0;
#X obj 15 28 spigot 1;
#X msg 93 45 0;
#X obj 15 50 t b b;
#X obj 15 6 r \$0.selector.s;
#X connect 1 0 6 0;
#X connect 2 0 5 1;
#X connect 3 0 5 1;
#X connect 4 0 5 0;
#X connect 4 1 7 0;
#X connect 5 0 1 0;
#X connect 6 0 0 0;
#X connect 7 0 3 0;
#X connect 7 1 8 0;
#X connect 7 2 2 0;
#X connect 8 0 5 1;
#X connect 9 0 4 0;
#X connect 10 0 12 0;
#X connect 11 0 10 1;
#X connect 12 0 9 0;
#X connect 12 1 11 0;
#X connect 13 0 10 0;
#X restore 213 9 pd init.cnvs;
#X obj 159 77 select -------;
#X obj 126 122 symbol;
#X obj 107 54 sel 1 0;
#X obj 126 143 t a a;
#X obj 269 177 symbol;
#X msg 269 199 show \$1;
#X msg 126 209 select \$1;
#X obj 242 154 del 0;
#X obj 126 165 sel -------;
#X obj 126 187 t a a;
#X obj 319 74 inlet;
#X obj 319 96 symbol;
#X obj 242 133 t b b;
#X obj 242 111 r \$0.show.s;
#X connect 0 0 1 0;
#X connect 1 0 3 0;
#X connect 1 1 11 0;
#X connect 3 0 9 0;
#X connect 4 0 21 0;
#X connect 5 0 8 0;
#X connect 6 0 10 1;
#X connect 7 0 19 0;
#X connect 8 0 19 0;
#X connect 9 0 15 0;
#X connect 9 1 13 0;
#X connect 10 0 25 0;
#X connect 11 0 12 0;
#X connect 12 0 2 1;
#X connect 13 0 2 0;
#X connect 14 0 2 0;
#X connect 15 0 16 0;
#X connect 15 1 14 0;
#X connect 16 0 2 0;
#X connect 18 0 7 0;
#X connect 18 1 5 0;
#X connect 19 0 22 0;
#X connect 20 0 18 0;
#X connect 21 0 10 0;
#X connect 22 0 27 0;
#X connect 22 1 0 0;
#X connect 23 0 26 1;
#X connect 25 0 23 0;
#X connect 25 1 26 1;
#X connect 26 0 28 0;
#X connect 27 0 21 0;
#X connect 27 1 26 0;
#X connect 28 0 33 0;
#X connect 28 1 29 1;
#X connect 29 0 30 0;
#X connect 30 0 17 0;
#X connect 31 0 17 0;
#X connect 32 0 8 0;
#X connect 33 1 34 0;
#X connect 34 0 31 0;
#X connect 34 1 33 1;
#X connect 35 0 36 0;
#X connect 36 0 33 1;
#X connect 37 0 32 0;
#X connect 37 1 29 0;
#X connect 38 0 37 0;
#X restore 21 210 pd list.selector.fields;
#X msg 21 160 range 1 \$1;
#X msg 111 137 set 1;
#X obj 111 47 loadbang;
#X obj 21 45 r mx;
#X obj 21 67 route fxlist;
#X obj 187 333 list trim;
#X obj 187 355 s mx;
#X obj 187 311 list prepend \$1 insert \$2;
#X obj 21 234 t a a;
#X obj 21 286 route select;
#X obj 186 185 r mx;
#X obj 186 207 route \$1;
#X obj 186 229 route insert;
#X obj 186 251 route \$2;
#X obj 186 273 route setlabel;
#X obj 21 319 list;
#X obj 21 89 list prepend -------;
#N canvas 912 178 519 291 buttons 0;
#X obj 16 225 s \$0.bypass.r;
#X msg 16 200 color \$1 \$1 \$2;
#X msg 35 153 2 10;
#X msg 16 173 10 -1;
#X obj 89 21 r \$1-mx/insert/\$2/bypass;
#X obj 89 65 t a a;
#X obj 16 131 sel 0 1;
#X msg 276 109 color \$1 \$1 \$2;
#X msg 303 62 2 10;
#X msg 276 85 10 -1;
#X obj 276 131 s \$0.show.r;
#X obj 276 14 t b b;
#X obj 276 36 del 150;
#X obj 276 -9 rh_slider_click \$0.show.s \$0.show.r;
#X obj 43 103 s \$1-mx/insert/\$2/bypass;
#X obj 89 43 route set;
#X obj 16 -10 rh_slider_click \$0.bypass.s \$0.bypass.r;
#X obj 16 31 ==;
#X obj 16 53 t a a;
#X connect 1 0 0 0;
#X connect 2 0 1 0;
#X connect 3 0 1 0;
#X connect 4 0 15 0;
#X connect 5 0 17 1;
#X connect 5 1 6 0;
#X connect 6 0 3 0;
#X connect 6 1 2 0;
#X connect 7 0 10 0;
#X connect 8 0 7 0;
#X connect 9 0 7 0;
#X connect 11 0 12 0;
#X connect 11 1 8 0;
#X connect 12 0 9 0;
#X connect 13 0 11 0;
#X connect 15 0 5 0;
#X connect 16 0 17 0;
#X connect 17 0 18 0;
#X connect 18 0 6 0;
#X connect 18 1 17 1;
#X connect 18 1 14 0;
#X restore 223 77 pd buttons;
#X obj 43 10 hsl 15 10 0 1 0 0 \$0.show.s \$0.show.r [][] 3 5 1 5 -233017
-233017 -1 700 1;
#X obj 23 10 hsl 15 10 0 1 0 0 \$0.bypass.s \$0.bypass.r by 3 5 1 8
-233017 -233017 -1 700 1;
#X connect 3 0 9 0;
#X connect 5 0 6 0;
#X connect 7 0 8 0;
#X connect 7 1 9 1;
#X connect 8 0 10 0;
#X connect 9 0 18 0;
#X connect 10 0 3 0;
#X connect 11 0 3 0;
#X connect 12 0 11 0;
#X connect 12 0 26 0;
#X connect 13 0 14 0;
#X connect 14 0 26 0;
#X connect 15 0 16 0;
#X connect 17 0 15 0;
#X connect 18 0 19 0;
#X connect 18 1 17 0;
#X connect 19 0 25 0;
#X connect 20 0 21 0;
#X connect 21 0 22 0;
#X connect 22 0 23 0;
#X connect 23 0 24 0;
#X connect 24 0 25 0;
#X connect 24 0 9 2;
#X connect 25 0 5 0;
#X connect 26 0 7 0;
#X coords 0 -1 1 1 40 22 2 20 10;
