#N canvas 500 224 336 324 10;
#N canvas 722 245 895 369 buttons-stuff 0;
#X obj 689 109 netpd-rgb2iem;
#X obj 18 233 list;
#X obj 58 233 list;
#X obj 655 44 loadbang;
#X obj 18 208 sel 0 1;
#X msg 18 281 color \$1 \$1 \$2;
#X obj 18 310 s \$0.solo.r;
#X obj 655 133 list append;
#X obj 655 88 list split 1;
#X msg 18 256 \$2 \$1;
#X obj 245 243 list;
#X obj 285 243 list;
#X obj 245 218 sel 0 1;
#X msg 245 296 color \$1 \$1 \$2;
#X obj 245 320 s \$0.mute.r;
#X obj 655 155 route 0 1 2;
#X obj 79 208 list append;
#X obj 306 217 list append;
#X msg 245 266 \$2 \$1;
#X msg 285 266 \$1 -1;
#X msg 58 256 \$1 -1;
#X obj 18 116 t a a;
#X msg 655 66 2 64 64 64 \, 0 255 255 0 \, 1 0 0 255;
#X obj 104 71 r \$1-mx/solo;
#X obj 18 10 rh_slider_click \$0.solo.s \$0.solo.r;
#X obj 18 91 ==;
#X obj 104 93 route set;
#X obj 104 115 t a a;
#X obj 45 153 s \$1-mx/solo;
#X obj 245 115 t a a;
#X obj 245 90 ==;
#X obj 331 92 route set;
#X obj 331 114 t a a;
#X obj 272 152 s \$1-mx/mute;
#X obj 331 70 r \$1-mx/mute;
#X obj 245 9 rh_slider_click \$0.mute.s \$0.mute.r;
#X obj 467 232 list;
#X obj 507 232 list;
#X obj 467 207 sel 0 1;
#X msg 467 280 color \$1 \$1 \$2;
#X msg 467 255 \$2 \$1;
#X obj 528 207 list append;
#X msg 507 255 \$1 -1;
#X obj 467 115 t a a;
#X obj 467 90 ==;
#X obj 553 92 route set;
#X obj 553 114 t a a;
#X obj 467 9 rh_slider_click \$0.psolo.s \$0.psolo.r;
#X obj 467 309 s \$0.psolo.r;
#X obj 494 152 s \$1-mx/psolo;
#X obj 553 70 r \$1-mx/psolo;
#X connect 0 0 7 1;
#X connect 1 0 9 0;
#X connect 2 0 20 0;
#X connect 3 0 22 0;
#X connect 4 0 1 0;
#X connect 4 1 2 0;
#X connect 5 0 6 0;
#X connect 7 0 15 0;
#X connect 8 0 7 0;
#X connect 8 1 0 0;
#X connect 9 0 5 0;
#X connect 10 0 18 0;
#X connect 11 0 19 0;
#X connect 12 0 10 0;
#X connect 12 1 11 0;
#X connect 13 0 14 0;
#X connect 15 0 16 0;
#X connect 15 0 41 0;
#X connect 15 1 17 0;
#X connect 15 2 17 1;
#X connect 15 2 16 1;
#X connect 15 2 41 1;
#X connect 16 0 2 1;
#X connect 16 0 1 1;
#X connect 17 0 11 1;
#X connect 17 0 10 1;
#X connect 18 0 13 0;
#X connect 19 0 13 0;
#X connect 20 0 5 0;
#X connect 21 0 4 0;
#X connect 21 1 28 0;
#X connect 21 1 25 1;
#X connect 22 0 8 0;
#X connect 23 0 26 0;
#X connect 24 0 25 0;
#X connect 25 0 21 0;
#X connect 26 0 27 0;
#X connect 27 0 4 0;
#X connect 27 1 25 1;
#X connect 29 0 12 0;
#X connect 29 1 30 1;
#X connect 29 1 33 0;
#X connect 30 0 29 0;
#X connect 31 0 32 0;
#X connect 32 0 12 0;
#X connect 32 1 30 1;
#X connect 34 0 31 0;
#X connect 35 0 30 0;
#X connect 36 0 40 0;
#X connect 37 0 42 0;
#X connect 38 0 36 0;
#X connect 38 1 37 0;
#X connect 39 0 48 0;
#X connect 40 0 39 0;
#X connect 41 0 37 1;
#X connect 41 0 36 1;
#X connect 42 0 39 0;
#X connect 43 0 38 0;
#X connect 43 1 44 1;
#X connect 43 1 49 0;
#X connect 44 0 43 0;
#X connect 45 0 46 0;
#X connect 46 0 38 0;
#X connect 46 1 44 1;
#X connect 47 0 44 0;
#X connect 50 0 45 0;
#X restore 110 98 pd buttons-stuff;
#N canvas 520 44 409 218 NETPD 0;
#N canvas 649 167 233 139 abslist 0;
#X msg 8 13 mx-aux-gui;
#X msg 9 42 mx-insert-gui;
#X restore 24 42 pd abslist;
#X msg 21 15 version 0 0 5;
#X restore 110 75 pd NETPD 2 0;
#N canvas 520 492 261 258 level-slider-stuff 0;
#X obj 20 14 r \$1-mx/level;
#X obj 20 228 s \$0.level.top.r;
#X msg 20 196 pos 21 \$1;
#X msg 87 203 vis_size 18 \$1;
#X obj 87 157 * -1;
#X obj 20 130 t a a;
#X obj 20 110 int;
#X obj 87 179 + 2;
#X obj 20 65 * -77.6923;
#X obj 20 88 - 0.5;
#X obj 20 36 route float set;
#X obj 20 153 + 283;
#X connect 0 0 10 0;
#X connect 2 0 1 0;
#X connect 3 0 1 0;
#X connect 4 0 7 0;
#X connect 5 0 11 0;
#X connect 5 1 4 0;
#X connect 6 0 5 0;
#X connect 7 0 3 0;
#X connect 8 0 9 0;
#X connect 9 0 6 0;
#X connect 10 0 8 0;
#X connect 10 1 8 0;
#X connect 11 0 2 0;
#X restore 110 120 pd level-slider-stuff;
#N canvas 590 44 294 326 double-click-reset 0;
#X obj 15 10 r \$1-mx/level;
#X obj 15 272 s \$1-mx/level;
#X obj 15 32 route float;
#X msg 15 250 1;
#X obj 15 228 del 1;
#X obj 135 32 route float;
#X obj 135 228 del 1;
#X obj 135 10 r \$1-mx/pan;
#X obj 135 272 s \$1-mx/pan;
#X msg 135 250 0.5001;
#X obj 15 60 sel;
#X obj 46 60 t a;
#X obj 15 148 f;
#X obj 54 148 + 1;
#X obj 15 82 t b b;
#X obj 42 103 del 300;
#X obj 15 192 t a b;
#X obj 15 170 sel 1;
#X msg 42 125 0;
#X obj 135 66 sel;
#X obj 166 66 t a;
#X obj 135 154 f;
#X obj 174 154 + 1;
#X obj 135 88 t b b;
#X obj 162 109 del 300;
#X obj 135 198 t a b;
#X obj 135 176 sel 1;
#X msg 162 131 0;
#X connect 0 0 2 0;
#X connect 2 0 10 0;
#X connect 3 0 1 0;
#X connect 4 0 3 0;
#X connect 5 0 19 0;
#X connect 6 0 9 0;
#X connect 7 0 5 0;
#X connect 9 0 8 0;
#X connect 10 0 14 0;
#X connect 10 1 11 0;
#X connect 11 0 10 1;
#X connect 12 0 13 0;
#X connect 12 0 17 0;
#X connect 13 0 12 1;
#X connect 14 0 12 0;
#X connect 14 1 15 0;
#X connect 15 0 18 0;
#X connect 16 0 4 0;
#X connect 16 1 18 0;
#X connect 17 0 16 0;
#X connect 18 0 12 1;
#X connect 19 0 23 0;
#X connect 19 1 20 0;
#X connect 20 0 19 1;
#X connect 21 0 22 0;
#X connect 21 0 26 0;
#X connect 22 0 21 1;
#X connect 23 0 21 0;
#X connect 23 1 24 0;
#X connect 24 0 27 0;
#X connect 25 0 6 0;
#X connect 25 1 27 0;
#X connect 26 0 25 0;
#X connect 27 0 21 1;
#X restore 110 142 pd double-click-reset;
#N canvas 520 128 161 130 INIT 0;
#X obj 12 74 s mx;
#X msg 12 53 \$1 refresh;
#X obj 12 32 \$1;
#X obj 12 10 loadbang;
#X connect 1 0 0 0;
#X connect 2 0 1 0;
#X connect 3 0 2 0;
#X restore 110 33 pd INIT;
#X obj 110 54 namecanvas \$1-i2mx-gui;
#N canvas 950 604 138 261 set-label 0;
#X obj 21 14 loadbang;
#X obj 21 36 \$1;
#X msg 21 58 \$1 getinstrname;
#X obj 21 80 s mx;
#X obj 21 102 r mx;
#X obj 21 124 route \$1;
#X obj 21 146 route instrname;
#X obj 21 168 list prepend \$1;
#X msg 21 190 label \$1-\$2;
#X obj 21 212 s \$0.label.r;
#X connect 0 0 1 0;
#X connect 1 0 2 0;
#X connect 2 0 3 0;
#X connect 4 0 5 0;
#X connect 5 0 6 0;
#X connect 6 0 7 0;
#X connect 7 0 8 0;
#X connect 8 0 9 0;
#X restore 110 163 pd set-label;
#N canvas 428 514 162 170 gui.existence.check 0;
#X obj 22 19 r mx;
#X obj 22 41 route \$1;
#X obj 22 66 route ifguiexists;
#X msg 22 90 guiexists;
#X obj 22 112 s mx;
#X connect 0 0 1 0;
#X connect 1 0 2 0;
#X connect 2 0 3 0;
#X connect 3 0 4 0;
#X restore 110 185 pd gui.existence.check;
#X obj 20 18 cnv 15 42 269 empty empty empty 20 12 0 14 -1 -66577 0
;
#X obj 20 183 vsl 20 100 0 1.3 0 0 \$1-mx/level \$1-mx/level empty
0 -9 0 10 -66577 -66577 -1 7615 1;
#X obj 23 171 hsl 35 10 0 1 0 0 \$1-mx/pan \$1-mx/pan empty -2 -8 0
10 -66577 -258113 -1 1700 1;
#X obj 43 181 hsl 15 12 0 1 0 0 \$0.solo.s \$0.solo.r s 4 6 0 12 -66577
-66577 -262081 0 1;
#X obj 43 193 hsl 15 12 0 1 0 0 \$0.mute.s \$0.mute.r m 4 6 0 12 -66577
-66577 -64 0 1;
#X obj 21 205 cnv 1 18 80 empty \$0.level.top.r empty 20 12 0 14 -258113
-66577 0;
#X obj 20 102 mx-aux-gui \$1 1;
#X obj 20 125 mx-aux-gui \$1 2;
#X obj 20 148 mx-aux-gui \$1 3;
#X obj 20 34 mx-insert-gui \$1 1;
#X obj 20 56 mx-insert-gui \$1 2;
#X obj 20 79 mx-insert-gui \$1 3;
#N canvas 517 613 285 296 hide-gui 0;
#X obj 11 264 s \$0.cover;
#X msg 11 223 vis_size 38 251 \, pos 21 34 \, color 10;
#X msg 30 199 vis_size 1 1 \, pos 41 284 \, color -1;
#X obj 11 167 sel 0 1;
#X obj 105 267 s \$0.label.r;
#X msg 105 245 label empty;
#X obj 11 27 r UNPATCH;
#X obj 11 49 route closing;
#X obj 11 72 route \$1;
#X obj 11 94 b;
#X msg 11 133 0;
#X obj 132 49 r mx;
#X obj 132 71 route \$1;
#X obj 132 93 route instrname;
#X msg 132 120 1;
#X connect 1 0 0 0;
#X connect 2 0 0 0;
#X connect 3 0 1 0;
#X connect 3 0 5 0;
#X connect 3 1 2 0;
#X connect 5 0 4 0;
#X connect 6 0 7 0;
#X connect 7 0 8 0;
#X connect 8 0 9 0;
#X connect 9 0 10 0;
#X connect 10 0 3 0;
#X connect 11 0 12 0;
#X connect 12 0 13 0;
#X connect 13 0 14 0;
#X connect 14 0 3 0;
#X restore 110 207 pd hide-gui;
#X obj 43 205 hsl 15 12 0 1 0 0 \$0.psolo.s \$0.psolo.r ps 1 5 0 10
-66577 -66577 -262081 0 1;
#X obj 21 34 cnv 1 38 251 empty \$0.cover empty 20 12 0 14 -233017
-262144 0;
#X obj 23 20 hsl 35 12 0 127 0 0 \$0.label.click empty empty -2 -8
0 10 -262144 -1 -1 0 1;
#X obj 20 20 cnv 10 40 12 empty \$0.label.r empty 1 7 1 8 -262144 -4160
0;
#N canvas 680 299 335 204 show-instrument 0;
#X obj 21 20 r \$0.label.click;
#X obj 21 47 sel;
#X obj 55 47 t a;
#X obj 54 77 r \$0.label.r;
#X obj 21 121 symbol;
#X msg 90 166 \; \$1 vis 1;
#X msg 54 99 symbol pd-\$1;
#X obj 21 143 sel pd-empty;
#X connect 0 0 1 0;
#X connect 1 0 4 0;
#X connect 1 1 2 0;
#X connect 2 0 1 1;
#X connect 3 0 6 0;
#X connect 4 0 7 0;
#X connect 6 0 4 1;
#X connect 7 1 5 0;
#X restore 110 229 pd show-instrument;
#X coords 0 -1 1 1 40 269 2 20 18;
