#N canvas 626 197 732 375 10;
#X obj 12 4 inlet~;
#X obj 98 3 inlet~;
#X obj 11 277 outlet~;
#X obj 97 277 outlet~;
#X obj 268 342 outlet;
#X obj 213 4 inlet;
#X obj 351 272 s pd-\$0-insert-container;
#X obj 324 72 netpd-dsp-off;
#X obj 351 139 t a b;
#X msg 413 138 clear;
#N canvas 633 44 306 90 insert-container-container 1;
#X obj 17 14 inlet~;
#X obj 16 48 outlet~;
#N canvas 633 44 450 300 \$0-insert-container 0;
#X restore 155 32 pd \$0-insert-container;
#X obj 68 13 inlet~;
#X obj 67 47 outlet~;
#X obj 110 12 inlet;
#X obj 116 46 outlet;
#X connect 0 0 1 0;
#X connect 3 0 4 0;
#X restore 12 126 pd insert-container-container;
#N canvas 801 44 450 300 NETPD 0;
#X msg 12 22 version 0 0 2;
#X restore 575 6 pd NETPD 2 0;
#N canvas 1128 238 178 149 add-creation-arguments 0;
#X obj 13 83 list prepend \$0;
#X obj 13 105 outlet;
#X obj 13 29 inlet;
#X obj 13 59 list append \$1 \$2 \$1-\$2;
#X connect 0 0 1 0;
#X connect 2 0 3 0;
#X connect 3 0 0 0;
#X restore 351 175 pd add-creation-arguments;
#N canvas 520 118 279 317 show.fx.gui 0;
#X obj 23 13 inlet;
#X obj 80 82 outlet;
#X obj 23 35 route show;
#X obj 23 57 b;
#X obj 80 57 t a a;
#X obj 23 158 list append empty;
#X msg 159 135 empty;
#X obj 23 180 list trim;
#X obj 23 202 route empty;
#X obj 24 227 list prepend \$1 \$2;
#X msg 24 251 \; pd-\$1-\$2-\$3 vis 1;
#X obj 107 112 route insert clear;
#X connect 0 0 2 0;
#X connect 2 0 3 0;
#X connect 2 1 4 0;
#X connect 3 0 5 0;
#X connect 4 0 1 0;
#X connect 4 1 11 0;
#X connect 5 0 7 0;
#X connect 6 0 5 1;
#X connect 7 0 8 0;
#X connect 8 1 9 0;
#X connect 9 0 10 0;
#X connect 11 0 5 1;
#X connect 11 1 6 0;
#X restore 324 48 pd show.fx.gui;
#X obj 324 117 t b a;
#X msg 324 294 reinit;
#X obj 324 316 s \$1.NETPD;
#X text 368 295 <- needed to make the abs set itself to init values
;
#X obj 324 95 route insert clear;
#X msg 351 202 obj 23 21 receive~ \$1.in.l \, obj 159 21 receive~ \$1.in.r
\, obj 38 128 \$2 \$3 \$4/\$2 \$5 \, obj 23 235 throw~ \$1.out.l \,
obj 157 235 throw~ \$1.out.r \, connect 0 0 2 0 \, connect 1 0 2 1
\, connect 2 0 3 0 \, connect 2 1 4 0 \, loadbang;
#N canvas 961 321 353 255 in________________________ 0;
#X obj 19 15 inlet~;
#X obj 18 225 outlet~;
#X obj 111 14 inlet~;
#X obj 112 225 outlet~;
#X obj 135 127 send~ \$0.in.l;
#X obj 219 127 send~ \$0.in.r;
#X obj 219 11 inlet;
#X obj 226 225 outlet;
#X connect 0 0 1 0;
#X connect 0 0 4 0;
#X connect 2 0 3 0;
#X connect 2 0 5 0;
#X restore 12 89 pd in________________________;
#N canvas 961 321 347 314 out_______________________ 0;
#X obj 17 8 inlet~;
#X obj 103 171 catch~ \$0.out.l;
#X obj 17 264 outlet~;
#X obj 134 261 outlet~;
#X obj 135 192 catch~ \$0.out.r;
#X obj 49 30 inlet~;
#X obj 254 261 outlet;
#N canvas 935 283 231 235 switched 0;
#X obj 3 8 inlet~;
#X obj 51 9 inlet~;
#X obj 3 194 outlet~;
#X obj 51 194 outlet~;
#X obj 3 97 *~;
#X obj 52 97 *~;
#X obj 127 9 inlet;
#X obj 128 201 outlet;
#X obj 68 72 line~;
#X msg 68 50 \$1 50;
#X obj 127 180 switch~;
#X obj 127 69 sel 0;
#X obj 127 135 del 50;
#X obj 154 90 t b a;
#X msg 154 113 stop;
#X msg 127 156 0;
#X connect 0 0 4 0;
#X connect 1 0 5 0;
#X connect 4 0 2 0;
#X connect 5 0 3 0;
#X connect 6 0 9 0;
#X connect 6 0 11 0;
#X connect 8 0 5 1;
#X connect 8 0 4 1;
#X connect 9 0 8 0;
#X connect 11 0 12 0;
#X connect 11 1 13 0;
#X connect 12 0 15 0;
#X connect 13 0 14 0;
#X connect 13 1 10 0;
#X connect 14 0 12 0;
#X connect 15 0 10 0;
#X restore 17 219 pd switched;
#N canvas 935 339 231 235 switched 0;
#X obj 3 8 inlet~;
#X obj 51 9 inlet~;
#X obj 3 194 outlet~;
#X obj 51 194 outlet~;
#X obj 3 97 *~;
#X obj 52 97 *~;
#X obj 127 9 inlet;
#X obj 131 191 outlet;
#X obj 68 72 line~;
#X msg 68 50 \$1 50;
#X obj 127 165 switch~;
#X obj 127 39 sel 0;
#X obj 127 105 del 50;
#X obj 154 60 t b a;
#X msg 154 83 stop;
#X msg 127 135 0;
#X connect 0 0 4 0;
#X connect 1 0 5 0;
#X connect 4 0 2 0;
#X connect 5 0 3 0;
#X connect 6 0 9 0;
#X connect 6 0 11 0;
#X connect 8 0 5 1;
#X connect 8 0 4 1;
#X connect 9 0 8 0;
#X connect 11 0 12 0;
#X connect 11 1 13 0;
#X connect 12 0 15 0;
#X connect 13 0 14 0;
#X connect 13 1 10 0;
#X connect 14 0 12 0;
#X connect 15 0 10 0;
#X restore 103 219 pd switched;
#X obj 219 11 inlet;
#X obj 219 62 f;
#X obj 219 94 ==;
#X obj 262 12 loadbang;
#X obj 219 33 route bypass switch;
#X obj 219 144 &&;
#X obj 228 123 t b a;
#X obj 80 145 &&;
#X obj 80 118 t b a;
#X connect 0 0 7 0;
#X connect 1 0 8 0;
#X connect 4 0 8 1;
#X connect 5 0 7 1;
#X connect 7 0 2 0;
#X connect 7 1 3 0;
#X connect 8 0 2 0;
#X connect 8 1 3 0;
#X connect 9 0 13 0;
#X connect 10 0 11 0;
#X connect 10 0 16 0;
#X connect 11 0 14 0;
#X connect 12 0 10 0;
#X connect 13 0 10 0;
#X connect 13 1 15 0;
#X connect 13 1 17 0;
#X connect 14 0 8 2;
#X connect 15 0 14 0;
#X connect 15 1 14 1;
#X connect 16 0 7 2;
#X connect 17 0 16 0;
#X connect 17 1 16 1;
#X restore 12 163 pd out_______________________;
#X obj 213 26 route bypass switch;
#X msg 228 137 switch \$1;
#X msg 213 111 bypass \$1;
#N canvas 768 469 125 198 zero_delay 0;
#X obj 14 11 inlet;
#X obj 14 171 outlet;
#X msg 14 74 1;
#X obj 14 35 sel 1 0;
#X msg 49 124 0;
#X msg 60 70 stop;
#X obj 49 102 del 50;
#X obj 14 150 change -1;
#X connect 0 0 3 0;
#X connect 2 0 7 0;
#X connect 3 0 2 0;
#X connect 3 0 5 0;
#X connect 3 1 6 0;
#X connect 4 0 7 0;
#X connect 5 0 6 0;
#X connect 6 0 4 0;
#X connect 7 0 1 0;
#X restore 268 257 pd zero_delay;
#X connect 0 0 20 0;
#X connect 1 0 20 1;
#X connect 5 0 22 0;
#X connect 7 0 18 0;
#X connect 8 0 12 0;
#X connect 8 1 9 0;
#X connect 9 0 6 0;
#X connect 10 0 21 0;
#X connect 10 1 21 1;
#X connect 12 0 19 0;
#X connect 13 0 7 0;
#X connect 14 0 15 0;
#X connect 14 1 8 0;
#X connect 15 0 16 0;
#X connect 18 0 14 0;
#X connect 18 1 9 0;
#X connect 19 0 6 0;
#X connect 20 0 10 0;
#X connect 20 1 10 1;
#X connect 21 0 2 0;
#X connect 21 1 3 0;
#X connect 22 0 24 0;
#X connect 22 1 23 0;
#X connect 22 1 25 0;
#X connect 22 2 13 0;
#X connect 23 0 21 2;
#X connect 24 0 21 2;
#X connect 25 0 4 0;
