#N canvas 619 106 482 461 10;
#N canvas 831 212 261 231 NETPD 0;
#X msg 18 12 version 0 1 0;
#X restore 220 17 pd NETPD 2 0;
#N canvas 978 367 218 177 INIT 0;
#X obj 10 10 loadbang;
#X obj 10 64 \$0;
#X obj 10 34 t b b;
#X obj 37 60 outlet;
#X msg 10 86 mx getfxlist bang;
#X connect 0 0 2 0;
#X connect 1 0 4 0;
#X connect 2 0 1 0;
#X connect 2 1 3 0;
#X restore 221 69 pd INIT;
#X obj 21 355 list trim;
#X obj 21 377 s mx;
#X obj 21 333 list prepend \$1 insert \$2;
#X obj 21 57 r mx;
#X obj 21 79 route \$1;
#X obj 21 101 route insert;
#X obj 21 123 route \$2;
#X obj 21 145 route setlabel;
#N canvas 912 178 637 342 buttons 0;
#X obj 16 310 s \$0.bypass.r;
#X msg 16 285 color \$1 \$1 \$2;
#X msg 35 238 2 10;
#X msg 16 258 10 -1;
#X obj 89 106 r \$1-mx/insert/\$2/bypass;
#X obj 89 150 t a a;
#X obj 16 216 sel 0 1;
#X msg 295 199 color \$1 \$1 \$2;
#X msg 315 148 2 10;
#X msg 295 175 10 -1;
#X obj 295 221 s \$0.show.r;
#X obj 295 126 del 150;
#X obj 276 16 rh_slider_click \$0.show.s \$0.show.r;
#X obj 43 188 s \$1-mx/insert/\$2/bypass;
#X obj 89 128 route set;
#X obj 16 15 rh_slider_click \$0.bypass.s \$0.bypass.r;
#X obj 16 116 ==;
#X obj 16 138 t a a;
#X obj 276 250 outlet;
#X obj 276 99 t b b b;
#X obj 452 54 r mx;
#X obj 452 100 route gui_lock;
#X obj 452 123 == 0;
#X obj 16 56 spigot 1;
#X obj 276 56 spigot 1;
#X obj 452 77 route 0;
#X obj 544 53 pdcontrol;
#X msg 544 76 list \$1;
#X obj 544 7 loadbang;
#X msg 544 30 args 1;
#X connect 1 0 0 0;
#X connect 2 0 1 0;
#X connect 3 0 1 0;
#X connect 4 0 14 0;
#X connect 5 0 16 1;
#X connect 5 1 6 0;
#X connect 6 0 3 0;
#X connect 6 1 2 0;
#X connect 7 0 10 0;
#X connect 8 0 7 0;
#X connect 9 0 7 0;
#X connect 11 0 9 0;
#X connect 12 0 24 0;
#X connect 14 0 5 0;
#X connect 15 0 23 0;
#X connect 16 0 17 0;
#X connect 17 0 6 0;
#X connect 17 1 16 1;
#X connect 17 1 13 0;
#X connect 19 0 18 0;
#X connect 19 1 11 0;
#X connect 19 2 8 0;
#X connect 20 0 25 0;
#X connect 21 0 22 0;
#X connect 22 0 24 1;
#X connect 22 0 23 1;
#X connect 23 0 16 0;
#X connect 24 0 19 0;
#X connect 25 0 21 0;
#X connect 26 0 27 0;
#X connect 27 0 25 1;
#X connect 28 0 29 0;
#X connect 29 0 26 0;
#X restore 221 40 pd buttons;
#X obj 43 10 hsl 15 10 0 1 0 0 \$0.show.s \$0.show.r [][] 3 5 1 5 -233017
-233017 -1 0 1;
#X obj 23 10 hsl 15 10 0 1 0 0 \$0.bypass.s \$0.bypass.r by 3 5 1 8
-233017 -233017 -1 0 1;
#X obj 58 21 cnv 1 1 1 empty 2675.field.3.r empty 1 6 1 9 -1 -1 0;
#X obj 58 21 cnv 1 1 1 empty 2675.field.-2.r empty 1 6 1 9 -187246
-1 0;
#X obj 58 21 cnv 1 1 1 empty 2675.field.-1.r empty 1 6 1 9 -187246
-1 0;
#X obj 58 21 cnv 1 1 1 empty 2675.field.1.r empty 1 6 1 9 -187246 -1
0;
#X obj 58 21 cnv 1 1 1 empty 2675.field.2.r empty 1 6 1 9 -187246 -1
0;
#X obj 58 21 cnv 1 1 1 empty 2675.field.0.r empty 1 6 1 9 -233017 -1
0;
#X obj 58 21 cnv 1 1 1 empty 3060.field.3.r empty 1 6 1 9 -1 -1 0;
#X obj 58 21 cnv 1 1 1 empty 3060.field.-2.r empty 1 6 1 9 -187246
-1 0;
#X obj 58 21 cnv 1 1 1 empty 3060.field.-1.r empty 1 6 1 9 -187246
-1 0;
#X obj 58 21 cnv 1 1 1 empty 3060.field.1.r empty 1 6 1 9 -187246 -1
0;
#X obj 58 21 cnv 1 1 1 empty 3060.field.2.r empty 1 6 1 9 -187246 -1
0;
#X obj 58 21 cnv 1 1 1 empty 3060.field.0.r empty 1 6 1 9 -233017 -1
0;
#X obj 58 21 cnv 1 1 1 empty 1379.field.3.r empty 1 6 1 9 -1 -1 0;
#X obj 58 21 cnv 1 1 1 empty 1379.field.-2.r empty 1 6 1 9 -187246
-1 0;
#X obj 58 21 cnv 1 1 1 empty 1379.field.-1.r empty 1 6 1 9 -187246
-1 0;
#X obj 58 21 cnv 1 1 1 empty 1379.field.1.r empty 1 6 1 9 -187246 -1
0;
#X obj 58 21 cnv 1 1 1 empty 1379.field.2.r empty 1 6 1 9 -187246 -1
0;
#X obj 58 21 cnv 1 1 1 empty 1379.field.0.r empty 1 6 1 9 -233017 -1
0;
#X obj 262 93 bng 15 250 50 0 empty empty empty 17 7 0 10 -262144 -1
-1;
#X obj 221 99 \$0;
#N canvas 938 241 744 635 two.level.dropdown 0;
#N canvas 546 307 426 268 get.fx.list 0;
#X obj 13 37 inlet;
#X obj 49 183 outlet;
#X obj 13 88 route -1;
#X obj 15 147 list split 1;
#X obj 13 65 text search mx-fxlist 0;
#X obj 15 125 text get mx-fxlist;
#X connect 0 0 4 0;
#X connect 2 1 5 0;
#X connect 3 1 1 0;
#X connect 4 0 2 0;
#X connect 5 0 3 0;
#X restore 22 130 pd get.fx.list;
#X obj 49 176 list prepend ..;
#X obj 49 201 list prepend items;
#X obj 49 224 list trim;
#X obj 49 249 s \$0.drop;
#X obj 22 24 r \$0.drop;
#X obj 22 79 route selected;
#X obj 22 104 symbol;
#X obj 22 295 s \$0.drop.level;
#X obj 88 24 r \$0.drop.level;
#X obj 88 50 == 0;
#X obj 22 47 spigot;
#X obj 22 153 t b a;
#X msg 22 268 1;
#X msg 239 307 symbol;
#X obj 239 283 loadbang;
#X obj 212 331 route sd;
#X obj 212 231 r \$0.drop;
#X obj 212 256 route selected;
#X obj 212 354 t b b;
#X obj 212 420 s \$0.drop.level;
#X msg 212 394 0;
#X obj 221 22 r \$0.drop;
#X obj 221 77 route selected;
#X obj 287 22 r \$0.drop.level;
#X obj 221 45 spigot;
#X obj 287 48 == 1;
#X obj 221 125 symbol;
#X obj 221 100 route ..;
#N canvas 750 475 337 341 get.lib.list 0;
#X obj 172 187 sel 2;
#X obj 67 186 list split 1;
#X obj 67 70 t b b;
#X obj 67 93 until;
#X obj 67 116 f;
#X obj 67 139 t a a;
#X obj 115 124 + 1;
#X msg 116 92 0;
#X obj 9 271 list store, f 20;
#X msg 67 228 append \$1;
#X obj 9 40 t b b b, f 20;
#X obj 9 10 inlet;
#X obj 9 294 outlet;
#X obj 67 162 text get mx-fxlist;
#X connect 0 0 3 1;
#X connect 1 0 9 0;
#X connect 2 0 3 0;
#X connect 2 1 7 0;
#X connect 3 0 4 0;
#X connect 4 0 5 0;
#X connect 5 0 13 0;
#X connect 5 1 6 0;
#X connect 6 0 4 1;
#X connect 7 0 4 1;
#X connect 8 0 12 0;
#X connect 9 0 8 0;
#X connect 10 0 8 0;
#X connect 10 1 2 0;
#X connect 10 2 8 1;
#X connect 11 0 10 0;
#X connect 13 0 1 0;
#X connect 13 1 0 0;
#X restore 392 216 pd get.lib.list;
#X obj 419 270 list prepend;
#X msg 488 245 symbol;
#X obj 419 293 list prepend items;
#X obj 392 79 r \$0.drop;
#X obj 392 104 route selected;
#X obj 392 130 route ..;
#X obj 392 159 b;
#X obj 419 358 s \$0.drop;
#X obj 486 183 t b b;
#X obj 419 316 list trim;
#X obj 392 182 del 0;
#X obj 392 239 t b a;
#X obj 392 394 s \$0.drop.level;
#X msg 392 368 0;
#X obj 486 155 loadbang;
#X msg 291 332 symbol empty;
#X obj 221 171 outlet;
#X obj 497 111 r mx;
#X obj 497 134 route fxlistupdated;
#X msg 221 148 select \$1;
#X obj 643 20 inlet;
#X obj 643 43 symbol;
#X msg 643 118 setlabel \$1;
#X obj 643 141 s \$0.drop;
#X obj 643 68 sel empty;
#X msg 643 91 symbol;
#X obj 535 369 r \$0.drop;
#X obj 535 392 route active;
#X obj 535 470 list trim;
#X obj 535 492 s mx;
#X obj 646 487 pdcontrol;
#X obj 535 415 list prepend gui_lock;
#X msg 646 510 list \$1;
#X obj 646 441 loadbang;
#X msg 646 464 args 1;
#X obj 535 438 list prepend 0;
#X connect 0 0 12 0;
#X connect 1 0 2 0;
#X connect 2 0 3 0;
#X connect 3 0 4 0;
#X connect 5 0 11 0;
#X connect 6 0 7 0;
#X connect 7 0 0 0;
#X connect 9 0 10 0;
#X connect 10 0 11 1;
#X connect 11 0 6 0;
#X connect 12 0 13 0;
#X connect 12 1 1 0;
#X connect 13 0 8 0;
#X connect 14 0 16 1;
#X connect 15 0 14 0;
#X connect 16 0 19 0;
#X connect 17 0 18 0;
#X connect 18 0 16 0;
#X connect 19 0 21 0;
#X connect 19 1 45 0;
#X connect 21 0 20 0;
#X connect 22 0 25 0;
#X connect 23 0 28 0;
#X connect 24 0 26 0;
#X connect 25 0 23 0;
#X connect 26 0 25 1;
#X connect 27 0 49 0;
#X connect 28 1 27 0;
#X connect 29 0 41 0;
#X connect 30 0 32 0;
#X connect 31 0 30 1;
#X connect 32 0 39 0;
#X connect 33 0 34 0;
#X connect 34 0 35 0;
#X connect 35 0 36 0;
#X connect 36 0 40 0;
#X connect 38 0 29 0;
#X connect 38 1 31 0;
#X connect 39 0 37 0;
#X connect 40 0 29 0;
#X connect 41 0 43 0;
#X connect 41 1 30 0;
#X connect 43 0 42 0;
#X connect 44 0 38 0;
#X connect 45 0 49 0;
#X connect 47 0 48 0;
#X connect 48 0 38 0;
#X connect 49 0 46 0;
#X connect 50 0 51 0;
#X connect 51 0 54 0;
#X connect 52 0 53 0;
#X connect 54 0 55 0;
#X connect 54 1 52 0;
#X connect 55 0 52 0;
#X connect 56 0 57 0;
#X connect 57 0 61 0;
#X connect 58 0 59 0;
#X connect 60 0 62 0;
#X connect 61 0 65 0;
#X connect 62 0 65 1;
#X connect 63 0 64 0;
#X connect 64 0 60 0;
#X connect 65 0 58 0;
#X restore 21 179 pd two.level.dropdown;
#X obj 20 20 mx-dropdown \$0.drop 40 12 8;
#X obj 205 242 r \$0.drop;
#X obj 205 265 route expand;
#X obj 299 17 namecanvas \$0.gop;
#X obj 205 338 s \$0.gop;
#X obj 205 288 + 22;
#X msg 205 315 coords 0 -1 1 1 40 \$1 2 20 10;
#X msg 293 264 0;
#X msg 221 129 \; \$1.drop selected_text_color 600 \; \$1.drop selected_box_color
0 \; \$1.drop selected_background_color 777 \; \$1.drop items_text_color
0 \; \$1.drop items_box_color 877 \; \$1.drop items_background_color
877 \;;
#X msg 30 311 show \$1;
#X obj 21 209 t a a;
#X obj 63 234 route select;
#X obj 63 257 symbol;
#X obj 30 286 symbol;
#X connect 1 0 32 0;
#X connect 2 0 3 0;
#X connect 4 0 2 0;
#X connect 5 0 6 0;
#X connect 6 0 7 0;
#X connect 7 0 8 0;
#X connect 8 0 9 0;
#X connect 9 0 33 0;
#X connect 10 0 47 0;
#X connect 32 0 42 0;
#X connect 33 0 44 0;
#X connect 35 0 36 0;
#X connect 36 0 39 0;
#X connect 39 0 40 0;
#X connect 40 0 38 0;
#X connect 41 0 39 0;
#X connect 43 0 4 0;
#X connect 44 0 4 0;
#X connect 44 1 45 0;
#X connect 45 0 46 0;
#X connect 46 0 47 1;
#X connect 47 0 43 0;
#X coords 0 -1 1 1 40 22 2 20 10;
