#N canvas 382 490 287 249 10;
#X obj 20 67 vsl 20 100 0 1.3 0 0 \$1-mx/level \$1-mx/level empty 0
-9 0 10 -66577 -66577 -1 0 1;
#X obj 23 55 hsl 35 10 0 1 0 0 \$1-mx/pan \$1-mx/pan empty -2 -8 0
10 -66577 -258113 -1 1700 1;
#X obj 23 43 hsl 15 12 1 1 0 0 \$1-mx/solo \$0.solo.r s 4 6 0 12 -49933
-49933 -262081 0 1;
#X obj 43 43 hsl 15 12 1 1 0 0 \$1-mx/mute \$0.mute.r m 4 6 0 12 -49933
-49933 -64 0 1;
#N canvas 722 245 607 372 buttons-stuff 0;
#X obj 320 82 netpd-rgb2iem;
#X obj 21 228 list;
#X obj 61 228 list;
#X obj 286 17 loadbang;
#X obj 21 203 sel 0 1;
#X msg 21 276 color \$1 \$1 \$2;
#X obj 21 305 s \$0.solo.r;
#X obj 286 106 list append;
#X obj 286 61 list split 1;
#X msg 21 251 \$2 \$1;
#X obj 160 232 list;
#X obj 200 232 list;
#X obj 160 207 sel 0 1;
#X msg 160 285 color \$1 \$1 \$2;
#X obj 160 309 s \$0.mute.r;
#X obj 286 128 route 0 1 2;
#X obj 82 203 list append;
#X obj 221 206 list append;
#X msg 160 255 \$2 \$1;
#X msg 286 39 2 50 50 50 \, 0 255 255 0 \, 1 0 0 255;
#X msg 200 255 \$1 -1;
#X msg 61 251 \$1 -1;
#X obj 21 15 r mx;
#X obj 21 37 route \$1;
#X obj 21 59 route solo mute;
#X obj 21 124 t a a;
#X obj 48 149 == 0;
#X msg 48 173 range \$1 \$1;
#X obj 160 131 t a a;
#X obj 187 158 == 0;
#X msg 187 180 range \$1 \$1;
#X connect 0 0 7 1;
#X connect 1 0 9 0;
#X connect 2 0 21 0;
#X connect 3 0 19 0;
#X connect 4 0 1 0;
#X connect 4 1 2 0;
#X connect 5 0 6 0;
#X connect 7 0 15 0;
#X connect 8 0 7 0;
#X connect 8 1 0 0;
#X connect 9 0 5 0;
#X connect 10 0 18 0;
#X connect 11 0 20 0;
#X connect 12 0 10 0;
#X connect 12 1 11 0;
#X connect 13 0 14 0;
#X connect 15 0 16 0;
#X connect 15 1 17 0;
#X connect 15 2 17 1;
#X connect 15 2 16 1;
#X connect 16 0 2 1;
#X connect 16 0 1 1;
#X connect 17 0 11 1;
#X connect 17 0 10 1;
#X connect 18 0 13 0;
#X connect 19 0 8 0;
#X connect 20 0 13 0;
#X connect 21 0 5 0;
#X connect 22 0 23 0;
#X connect 23 0 24 0;
#X connect 24 0 25 0;
#X connect 24 1 28 0;
#X connect 25 0 4 0;
#X connect 25 1 26 0;
#X connect 26 0 27 0;
#X connect 27 0 6 0;
#X connect 28 0 12 0;
#X connect 28 1 29 0;
#X connect 29 0 30 0;
#X connect 30 0 14 0;
#X restore 110 85 pd buttons-stuff;
#N canvas 520 44 409 218 NETPD 0;
#X msg 21 15 version 0 0 0;
#X restore 110 62 pd NETPD 2 0;
#N canvas 520 156 261 258 level-slider-stuff 0;
#X obj 20 14 r \$1-mx/level;
#X obj 20 228 s \$0.level.top.r;
#X msg 20 196 pos 21 \$1;
#X msg 87 203 vis_size 18 \$1;
#X obj 20 153 + 167;
#X obj 87 157 * -1;
#X obj 20 130 t a a;
#X obj 20 110 int;
#X obj 87 179 + 2;
#X obj 20 65 * -77.6923;
#X obj 20 88 - 0.5;
#X obj 20 36 route float set;
#X connect 0 0 11 0;
#X connect 2 0 1 0;
#X connect 3 0 1 0;
#X connect 4 0 2 0;
#X connect 5 0 8 0;
#X connect 6 0 4 0;
#X connect 6 1 5 0;
#X connect 7 0 6 0;
#X connect 8 0 3 0;
#X connect 9 0 10 0;
#X connect 10 0 7 0;
#X connect 11 0 9 0;
#X connect 11 1 9 0;
#X restore 110 107 pd level-slider-stuff;
#X obj 21 167 cnv 1 18 2 empty \$0.level.top.r empty 20 12 0 14 -258113
-66577 0;
#N canvas 590 44 294 326 double-click-reset 0;
#X obj 15 10 r \$1-mx/level;
#X obj 15 272 s \$1-mx/level;
#X obj 15 32 route float;
#X obj 15 55 list prepend 0;
#X msg 34 100 1;
#X obj 15 77 t a b b;
#X obj 64 98 del 300;
#X msg 64 119 0;
#X obj 15 140 route 1 0;
#X obj 15 184 ==;
#X obj 15 162 t a b;
#X msg 86 151 stop;
#X obj 15 206 sel 1;
#X msg 15 250 1;
#X obj 15 228 del 1;
#X obj 135 32 route float;
#X obj 135 55 list prepend 0;
#X msg 154 100 1;
#X obj 135 77 t a b b;
#X obj 184 98 del 300;
#X msg 184 119 0;
#X obj 135 140 route 1 0;
#X obj 135 184 ==;
#X obj 135 162 t a b;
#X msg 206 151 stop;
#X obj 135 206 sel 1;
#X obj 135 228 del 1;
#X obj 135 10 r \$1-mx/pan;
#X obj 135 272 s \$1-mx/pan;
#X msg 135 250 0.5001;
#X connect 0 0 2 0;
#X connect 2 0 3 0;
#X connect 3 0 5 0;
#X connect 4 0 3 1;
#X connect 5 0 8 0;
#X connect 5 1 4 0;
#X connect 5 2 6 0;
#X connect 6 0 7 0;
#X connect 7 0 3 1;
#X connect 8 0 10 0;
#X connect 8 1 9 1;
#X connect 9 0 12 0;
#X connect 10 0 9 0;
#X connect 10 1 7 0;
#X connect 10 1 11 0;
#X connect 11 0 6 0;
#X connect 12 0 14 0;
#X connect 13 0 1 0;
#X connect 14 0 13 0;
#X connect 15 0 16 0;
#X connect 16 0 18 0;
#X connect 17 0 16 1;
#X connect 18 0 21 0;
#X connect 18 1 17 0;
#X connect 18 2 19 0;
#X connect 19 0 20 0;
#X connect 20 0 16 1;
#X connect 21 0 23 0;
#X connect 21 1 22 1;
#X connect 22 0 25 0;
#X connect 23 0 22 0;
#X connect 23 1 20 0;
#X connect 23 1 24 0;
#X connect 24 0 19 0;
#X connect 25 0 26 0;
#X connect 26 0 29 0;
#X connect 27 0 15 0;
#X connect 29 0 28 0;
#X restore 110 129 pd double-click-reset;
#N canvas 520 72 161 130 INIT 0;
#X obj 12 74 s mx;
#X msg 12 53 \$1 refresh;
#X obj 12 32 \$1;
#X obj 12 10 loadbang;
#X connect 1 0 0 0;
#X connect 2 0 1 0;
#X connect 3 0 2 0;
#X restore 110 20 pd INIT;
#X obj 110 41 namecanvas \$1-i2mx-gui;
#X coords 0 -1 1 1 40 150 2 20 20;
