#N canvas 590 182 673 390 10;
#X obj 12 4 inlet~;
#X obj 103 4 inlet~;
#X obj 11 197 outlet~;
#X obj 108 197 outlet~;
#X obj 275 2 outlet;
#X obj 231 2 inlet;
#X obj 231 336 s pd-\$0-insert-container;
#X obj 231 248 list prepend \$0;
#X obj 231 37 netpd-dsp-off;
#X obj 231 81 t a b;
#X msg 419 246 clear;
#X obj 280 82 t a b;
#X msg 231 271 obj 23 21 catch~ \$1.in.l \, obj 159 21 catch~ \$1.in.r
\, obj 38 128 \$2 \$3 \$4 \, obj 23 235 throw~ \$1.out.l \, obj 157
235 throw~ \$1.out.r \, connect 0 0 2 0 \, connect 1 0 2 1 \, connect
2 0 3 0 \, connect 2 1 4 0;
#X msg 248 192 obj 23 21 catch~ \$1.in.l \, obj 159 21 catch~ \$1.in.r
\, obj 23 235 throw~ \$1.out.l \, obj 159 235 throw~ \$1.out.r \, connect
0 0 2 0 \, connect 1 0 3 0;
#X obj 248 170 list prepend \$0;
#X obj 231 59 route insert bypass clear;
#X msg 329 129 obj 23 21 catch~ \$1.in.l \, obj 159 21 catch~ \$1.in.r
;
#X obj 329 106 list prepend \$0;
#N canvas 961 321 370 172 in 0;
#X obj 19 15 inlet~;
#X obj 18 56 throw~ \$0.in.l;
#X obj 18 114 outlet~;
#X obj 113 15 inlet~;
#X obj 112 56 throw~ \$0.in.r;
#X connect 0 0 1 0;
#X connect 3 0 4 0;
#X restore 13 34 pd in;
#N canvas 961 321 450 300 out 0;
#X obj 11 12 inlet~;
#X obj 11 51 catch~ \$0.out.l;
#X obj 10 96 outlet~;
#X obj 130 96 outlet~;
#X obj 131 51 catch~ \$0.out.r;
#X connect 1 0 2 0;
#X connect 4 0 3 0;
#X restore 11 164 pd out;
#N canvas 633 44 306 90 insert-container-container 0;
#X obj 17 14 inlet~;
#X obj 16 48 outlet~;
#N canvas 633 44 450 300 \$0-insert-container 0;
#X obj 23 21 catch~ \$0.in.l;
#X obj 159 21 catch~ \$0.in.r;
#X restore 93 34 pd \$0-insert-container;
#X restore 12 97 pd insert-container-container;
#N canvas 801 44 450 300 NETPD 0;
#X msg 12 22 version 0 0 1;
#X restore 513 15 pd NETPD 2 0;
#X obj 329 82 t b b;
#X connect 0 0 18 0;
#X connect 1 0 18 1;
#X connect 5 0 8 0;
#X connect 7 0 12 0;
#X connect 8 0 15 0;
#X connect 9 0 7 0;
#X connect 9 1 10 0;
#X connect 10 0 6 0;
#X connect 11 0 14 0;
#X connect 11 1 10 0;
#X connect 12 0 6 0;
#X connect 13 0 6 0;
#X connect 14 0 13 0;
#X connect 15 0 9 0;
#X connect 15 1 11 0;
#X connect 15 2 22 0;
#X connect 16 0 6 0;
#X connect 17 0 16 0;
#X connect 18 0 20 0;
#X connect 19 0 2 0;
#X connect 19 1 3 0;
#X connect 20 0 19 0;
#X connect 22 0 17 0;
#X connect 22 1 10 0;
