#N canvas 685 106 943 601 10;
#X obj 47 435 outlet;
#X obj 47 40 r mx;
#X obj 47 62 route \$1;
#X obj 47 85 route insert;
#X obj 47 107 route \$2;
#X obj 47 248 route empty;
#X obj 110 294 symbol;
#X msg 47 300 clear;
#X msg 96 349 show;
#X obj 179 350 f;
#X msg 194 326 1;
#X msg 221 326 0;
#X obj 47 271 t b b b;
#X obj 110 271 t a b b;
#X obj 179 277 f;
#X obj 179 378 change;
#X msg 179 400 bypass \$1;
#X obj 154 516 s mx;
#X msg 154 494 \$1 insert \$2 setlabel \$3;
#X obj 47 130 route select show;
#X msg 110 316 insert \$1;
#X obj 179 298 sel 0;
#X obj 154 472 list prepend \$1 \$2;
#X obj 337 440 f;
#X obj 154 450 list;
#X obj 326 297 r mx;
#X obj 326 319 route \$1;
#X obj 326 341 route refresh;
#X obj 326 363 b;
#X obj 219 89 loadbang;
#X msg 219 115 set empty;
#N canvas 1054 530 155 169 NETPD 0;
#X msg 12 16 version 0 0 7;
#X restore 330 54 pd NETPD 2 0;
#X obj 154 427 t b a;
#X obj 353 229 loadbang;
#X msg 353 251 switch 1;
#X obj 179 251 netpd_f \$1 \$2/bypass 0;
#X obj 47 156 netpd_a \$1 \$2/load;
#X obj 337 494 s \$1-\$2/bypass;
#X msg 337 468 set \$1;
#X obj 47 212 t a a;
#X obj 101 180 netpd_r \$1 mx/\$2/load;
#X text 235 178 <- for backwards compatibility in loading presets.
;
#X msg 552 178 browse https://github.com/reduzent/netpd-instruments/issues/43
;
#X obj 552 214 pdcontrol;
#X obj 558 245 netpd_r \$1 mx/\$2/bypass 0;
#X connect 1 0 2 0;
#X connect 2 0 3 0;
#X connect 3 0 4 0;
#X connect 4 0 19 0;
#X connect 5 0 12 0;
#X connect 5 1 13 0;
#X connect 6 0 20 0;
#X connect 7 0 0 0;
#X connect 8 0 0 0;
#X connect 9 0 15 0;
#X connect 10 0 9 1;
#X connect 11 0 9 1;
#X connect 12 0 7 0;
#X connect 12 1 14 0;
#X connect 12 2 10 0;
#X connect 13 0 6 0;
#X connect 13 1 14 0;
#X connect 13 2 11 0;
#X connect 14 0 21 0;
#X connect 15 0 16 0;
#X connect 16 0 0 0;
#X connect 18 0 17 0;
#X connect 19 0 36 0;
#X connect 19 1 8 0;
#X connect 20 0 0 0;
#X connect 21 0 9 0;
#X connect 21 1 15 0;
#X connect 22 0 18 0;
#X connect 23 0 38 0;
#X connect 24 0 22 0;
#X connect 25 0 26 0;
#X connect 26 0 27 0;
#X connect 27 0 28 0;
#X connect 28 0 24 0;
#X connect 28 0 23 0;
#X connect 29 0 30 0;
#X connect 30 0 36 0;
#X connect 32 0 24 0;
#X connect 32 1 24 1;
#X connect 33 0 34 0;
#X connect 34 0 0 0;
#X connect 35 0 14 0;
#X connect 35 0 23 1;
#X connect 36 0 39 0;
#X connect 38 0 37 0;
#X connect 39 0 5 0;
#X connect 39 1 32 0;
#X connect 40 0 36 0;
#X connect 42 0 43 0;
#X connect 44 0 37 0;
#X connect 44 0 38 0;
