#N canvas 531 458 284 306 10;
#X obj 20 153 vsl 20 100 0 1.3 0 0 \$1-mx/level \$1-mx/level empty
0 -9 0 10 -66577 -66577 -1 0 1;
#X obj 23 141 hsl 35 10 0 1 0 0 \$1-mx/pan \$1-mx/pan empty -2 -8 0
10 -66577 -258113 -1 1700 1;
#X obj 43 151 hsl 15 12 1 1 0 0 \$1-mx/solo \$0.solo.r s 4 6 0 12 -66577
-66577 -262081 0 1;
#X obj 43 163 hsl 15 12 1 1 0 0 \$1-mx/mute \$0.mute.r m 4 6 0 12 -66577
-66577 -64 0 1;
#N canvas 722 245 607 372 buttons-stuff 0;
#X obj 320 82 netpd-rgb2iem;
#X obj 21 228 list;
#X obj 61 228 list;
#X obj 286 17 loadbang;
#X obj 21 203 sel 0 1;
#X msg 21 276 color \$1 \$1 \$2;
#X obj 21 305 s \$0.solo.r;
#X obj 286 106 list append;
#X obj 286 61 list split 1;
#X msg 21 251 \$2 \$1;
#X obj 160 232 list;
#X obj 200 232 list;
#X obj 160 207 sel 0 1;
#X msg 160 285 color \$1 \$1 \$2;
#X obj 160 309 s \$0.mute.r;
#X obj 286 128 route 0 1 2;
#X obj 82 203 list append;
#X obj 221 206 list append;
#X msg 160 255 \$2 \$1;
#X msg 200 255 \$1 -1;
#X msg 61 251 \$1 -1;
#X obj 21 124 t a a;
#X obj 48 149 == 0;
#X msg 48 173 range \$1 \$1;
#X obj 160 131 t a a;
#X obj 187 158 == 0;
#X msg 187 180 range \$1 \$1;
#X msg 286 39 2 64 64 64 \, 0 255 255 0 \, 1 0 0 255;
#X obj 21 24 r \$1-mx/solo;
#X obj 21 46 route set float;
#X obj 160 48 route set float;
#X obj 160 26 r \$1-mx/mute;
#X connect 0 0 7 1;
#X connect 1 0 9 0;
#X connect 2 0 20 0;
#X connect 3 0 27 0;
#X connect 4 0 1 0;
#X connect 4 1 2 0;
#X connect 5 0 6 0;
#X connect 7 0 15 0;
#X connect 8 0 7 0;
#X connect 8 1 0 0;
#X connect 9 0 5 0;
#X connect 10 0 18 0;
#X connect 11 0 19 0;
#X connect 12 0 10 0;
#X connect 12 1 11 0;
#X connect 13 0 14 0;
#X connect 15 0 16 0;
#X connect 15 1 17 0;
#X connect 15 2 17 1;
#X connect 15 2 16 1;
#X connect 16 0 2 1;
#X connect 16 0 1 1;
#X connect 17 0 11 1;
#X connect 17 0 10 1;
#X connect 18 0 13 0;
#X connect 19 0 13 0;
#X connect 20 0 5 0;
#X connect 21 0 4 0;
#X connect 21 1 22 0;
#X connect 22 0 23 0;
#X connect 23 0 6 0;
#X connect 24 0 12 0;
#X connect 24 1 25 0;
#X connect 25 0 26 0;
#X connect 26 0 14 0;
#X connect 27 0 8 0;
#X connect 28 0 29 0;
#X connect 29 0 21 0;
#X connect 29 1 21 0;
#X connect 30 0 24 0;
#X connect 30 1 24 0;
#X connect 31 0 30 0;
#X restore 106 92 pd buttons-stuff;
#N canvas 520 44 409 218 NETPD 0;
#X msg 21 15 version 0 0 0;
#N canvas 649 167 233 139 abslist 0;
#X msg 8 13 mx-aux-gui;
#X msg 9 42 mx-insert-gui;
#X restore 24 42 pd abslist;
#X restore 106 69 pd NETPD 2 0;
#N canvas 520 352 261 258 level-slider-stuff 0;
#X obj 20 14 r \$1-mx/level;
#X obj 20 228 s \$0.level.top.r;
#X msg 20 196 pos 21 \$1;
#X msg 87 203 vis_size 18 \$1;
#X obj 87 157 * -1;
#X obj 20 130 t a a;
#X obj 20 110 int;
#X obj 87 179 + 2;
#X obj 20 65 * -77.6923;
#X obj 20 88 - 0.5;
#X obj 20 36 route float set;
#X obj 20 153 + 253;
#X connect 0 0 10 0;
#X connect 2 0 1 0;
#X connect 3 0 1 0;
#X connect 4 0 7 0;
#X connect 5 0 11 0;
#X connect 5 1 4 0;
#X connect 6 0 5 0;
#X connect 7 0 3 0;
#X connect 8 0 9 0;
#X connect 9 0 6 0;
#X connect 10 0 8 0;
#X connect 10 1 8 0;
#X connect 11 0 2 0;
#X restore 106 114 pd level-slider-stuff;
#X obj 21 253 cnv 1 18 2 empty \$0.level.top.r empty 20 12 0 14 -258113
-66577 0;
#N canvas 590 44 294 326 double-click-reset 0;
#X obj 15 10 r \$1-mx/level;
#X obj 15 272 s \$1-mx/level;
#X obj 15 32 route float;
#X obj 15 55 list prepend 0;
#X msg 34 100 1;
#X obj 15 77 t a b b;
#X obj 64 98 del 300;
#X msg 64 119 0;
#X obj 15 140 route 1 0;
#X obj 15 184 ==;
#X obj 15 162 t a b;
#X msg 86 151 stop;
#X obj 15 206 sel 1;
#X msg 15 250 1;
#X obj 15 228 del 1;
#X obj 135 32 route float;
#X obj 135 55 list prepend 0;
#X msg 154 100 1;
#X obj 135 77 t a b b;
#X obj 184 98 del 300;
#X msg 184 119 0;
#X obj 135 140 route 1 0;
#X obj 135 184 ==;
#X obj 135 162 t a b;
#X msg 206 151 stop;
#X obj 135 206 sel 1;
#X obj 135 228 del 1;
#X obj 135 10 r \$1-mx/pan;
#X obj 135 272 s \$1-mx/pan;
#X msg 135 250 0.5001;
#X connect 0 0 2 0;
#X connect 2 0 3 0;
#X connect 3 0 5 0;
#X connect 4 0 3 1;
#X connect 5 0 8 0;
#X connect 5 1 4 0;
#X connect 5 2 6 0;
#X connect 6 0 7 0;
#X connect 7 0 3 1;
#X connect 8 0 10 0;
#X connect 8 1 9 1;
#X connect 9 0 12 0;
#X connect 10 0 9 0;
#X connect 10 1 7 0;
#X connect 10 1 11 0;
#X connect 11 0 6 0;
#X connect 12 0 14 0;
#X connect 13 0 1 0;
#X connect 14 0 13 0;
#X connect 15 0 16 0;
#X connect 16 0 18 0;
#X connect 17 0 16 1;
#X connect 18 0 21 0;
#X connect 18 1 17 0;
#X connect 18 2 19 0;
#X connect 19 0 20 0;
#X connect 20 0 16 1;
#X connect 21 0 23 0;
#X connect 21 1 22 1;
#X connect 22 0 25 0;
#X connect 23 0 22 0;
#X connect 23 1 20 0;
#X connect 23 1 24 0;
#X connect 24 0 19 0;
#X connect 25 0 26 0;
#X connect 26 0 29 0;
#X connect 27 0 15 0;
#X connect 29 0 28 0;
#X restore 106 136 pd double-click-reset;
#N canvas 520 128 161 130 INIT 0;
#X obj 12 74 s mx;
#X msg 12 53 \$1 refresh;
#X obj 12 32 \$1;
#X obj 12 10 loadbang;
#X connect 1 0 0 0;
#X connect 2 0 1 0;
#X connect 3 0 2 0;
#X restore 106 27 pd INIT;
#X obj 106 48 namecanvas \$1-i2mx-gui;
#X obj 20 72 mx-aux-gui \$1 1;
#X obj 41 176 cnv 10 18 79 empty empty empty 20 12 0 14 -1 -66577 0
;
#X obj 20 20 cnv 10 40 12 empty \$0.label.r empty 1 7 1 8 -262144 -4160
0;
#N canvas 950 100 138 261 set-label 0;
#X obj 21 14 loadbang;
#X obj 21 36 \$1;
#X msg 21 58 \$1 getinstrname;
#X obj 21 80 s mx;
#X obj 21 102 r mx;
#X obj 21 124 route \$1;
#X obj 21 146 route instrname;
#X obj 21 168 list prepend \$1;
#X msg 21 190 label \$1-\$2;
#X obj 21 212 s \$0.label.r;
#X connect 0 0 1 0;
#X connect 1 0 2 0;
#X connect 2 0 3 0;
#X connect 4 0 5 0;
#X connect 5 0 6 0;
#X connect 6 0 7 0;
#X connect 7 0 8 0;
#X connect 8 0 9 0;
#X restore 106 157 pd set-label;
#X obj 20 95 mx-aux-gui \$1 2;
#X obj 20 118 mx-aux-gui \$1 3;
#X obj 20 33 mx-insert-gui \$1 1;
#X obj 20 46 mx-insert-gui \$1 2;
#X obj 20 59 mx-insert-gui \$1 3;
#N canvas 428 458 162 170 gui.existence.check 0;
#X obj 22 19 r mx;
#X obj 22 41 route \$1;
#X obj 22 66 route ifguiexists;
#X msg 22 90 guiexists;
#X obj 22 112 s mx;
#X connect 0 0 1 0;
#X connect 1 0 2 0;
#X connect 2 0 3 0;
#X connect 3 0 4 0;
#X restore 106 179 pd gui.existence.check;
#X coords 0 -1 1 1 40 236 2 20 20;
