#N struct 8449.rectangle float id float x float y float w float h float
txtclr float boxclr float bgclr symbol label;
#N canvas 619 106 482 461 10;
#X obj 43 10 hsl 15 10 0 1 0 0 \$0.show.s \$0.show.r [][] 3 5 1 5 #e0e0e0
#e0e0e0 #000000 0 1;
#X obj 23 10 hsl 15 10 0 1 0 0 \$0.bypass.s \$0.bypass.r by 3 5 1 8
#e0e0e0 #e0e0e0 #000000 0 1;
#X obj 58 21 cnv 1 1 1 empty 2675.field.3.r empty 1 6 1 9 #000000 #000000
0;
#X obj 58 21 cnv 1 1 1 empty 2675.field.-2.r empty 1 6 1 9 #b4b4b4
#000000 0;
#X obj 58 21 cnv 1 1 1 empty 2675.field.-1.r empty 1 6 1 9 #b4b4b4
#000000 0;
#X obj 58 21 cnv 1 1 1 empty 2675.field.1.r empty 1 6 1 9 #b4b4b4 #000000
0;
#X obj 58 21 cnv 1 1 1 empty 2675.field.2.r empty 1 6 1 9 #b4b4b4 #000000
0;
#X obj 58 21 cnv 1 1 1 empty 2675.field.0.r empty 1 6 1 9 #e0e0e0 #000000
0;
#X obj 58 21 cnv 1 1 1 empty 3060.field.3.r empty 1 6 1 9 #000000 #000000
0;
#X obj 58 21 cnv 1 1 1 empty 3060.field.-2.r empty 1 6 1 9 #b4b4b4
#000000 0;
#X obj 58 21 cnv 1 1 1 empty 3060.field.-1.r empty 1 6 1 9 #b4b4b4
#000000 0;
#X obj 58 21 cnv 1 1 1 empty 3060.field.1.r empty 1 6 1 9 #b4b4b4 #000000
0;
#X obj 58 21 cnv 1 1 1 empty 3060.field.2.r empty 1 6 1 9 #b4b4b4 #000000
0;
#X obj 58 21 cnv 1 1 1 empty 3060.field.0.r empty 1 6 1 9 #e0e0e0 #000000
0;
#X obj 58 21 cnv 1 1 1 empty 1379.field.3.r empty 1 6 1 9 #000000 #000000
0;
#X obj 58 21 cnv 1 1 1 empty 1379.field.-2.r empty 1 6 1 9 #b4b4b4
#000000 0;
#X obj 58 21 cnv 1 1 1 empty 1379.field.-1.r empty 1 6 1 9 #b4b4b4
#000000 0;
#X obj 58 21 cnv 1 1 1 empty 1379.field.1.r empty 1 6 1 9 #b4b4b4 #000000
0;
#X obj 58 21 cnv 1 1 1 empty 1379.field.2.r empty 1 6 1 9 #b4b4b4 #000000
0;
#X obj 58 21 cnv 1 1 1 empty 1379.field.0.r empty 1 6 1 9 #e0e0e0 #000000
0;
#X obj 20 20 mx-dropdown \$0.drop 40 12 8;
#N canvas 831 212 261 231 NETPD 0;
#N canvas 528 332 386 163 abslist 0;
#X msg 13 16 mx-dropdown;
#X msg 12 39 mx-fx-2level-selector;
#X restore 19 40 pd abslist;
#X msg 19 12 version 0 1 2;
#X restore 92 19 pd NETPD 2 0;
#N canvas 978 367 218 177 INIT 0;
#X obj 10 10 loadbang;
#X obj 10 64 \$0;
#X obj 10 34 t b b;
#X obj 37 60 outlet;
#X msg 10 86 mx getfxlist bang;
#X connect 0 0 2 0;
#X connect 1 0 4 0;
#X connect 2 0 1 0;
#X connect 2 1 3 0;
#X restore 20 104 pd INIT;
#N canvas 912 178 897 389 buttons 0;
#X obj 16 310 s \$0.bypass.r;
#X msg 16 285 color \$1 \$1 \$2;
#X msg 35 238 2 10;
#X msg 16 258 10 -1;
#X obj 89 106 r \$1-mx/insert/\$2/bypass;
#X obj 89 150 t a a;
#X obj 16 216 sel 0 1;
#X msg 295 199 color \$1 \$1 \$2;
#X msg 315 148 2 10;
#X msg 295 175 10 -1;
#X obj 295 221 s \$0.show.r;
#X obj 295 126 del 150;
#X obj 276 16 rh_slider_click \$0.show.s \$0.show.r;
#X obj 43 188 s \$1-mx/insert/\$2/bypass;
#X obj 89 128 route set;
#X obj 16 15 rh_slider_click \$0.bypass.s \$0.bypass.r;
#X obj 16 116 ==;
#X obj 16 138 t a a;
#X obj 276 99 t b b b;
#X obj 452 54 r mx;
#X obj 452 100 route gui_lock;
#X obj 452 123 == 0;
#X obj 16 56 spigot 1;
#X obj 276 56 spigot 1;
#X obj 614 53 pdcontrol;
#X msg 614 76 list \$1;
#X obj 614 7 loadbang;
#X msg 614 30 args 1;
#N canvas 790 299 443 379 netpd-route 0;
#X obj 27 25 inlet;
#X obj 27 48 t a a;
#X obj 96 40 list;
#X msg 96 63 \$1;
#X obj 96 90 route float;
#X obj 96 113 b;
#X msg 96 136 0;
#X obj 159 113 b;
#X msg 159 136 1;
#X obj 27 167 list prepend;
#X obj 27 190 route 0 1, f 29;
#X obj 112 285 route _%;
#X obj 253 23 inlet;
#X obj 253 46 list;
#X obj 253 78 route float symbol, f 26;
#X obj 329 171 symbol;
#X obj 27 285 route -67.899;
#X msg 356 137 -67.899;
#X obj 329 107 t a b;
#X obj 253 107 t a b;
#X msg 280 137 symbol _%;
#X obj 27 333 outlet;
#X obj 112 336 outlet;
#X connect 0 0 1 0;
#X connect 1 0 9 0;
#X connect 1 1 2 0;
#X connect 2 0 3 0;
#X connect 3 0 4 0;
#X connect 4 0 5 0;
#X connect 4 1 7 0;
#X connect 5 0 6 0;
#X connect 6 0 9 1;
#X connect 7 0 8 0;
#X connect 8 0 9 1;
#X connect 9 0 10 0;
#X connect 10 0 16 0;
#X connect 10 1 11 0;
#X connect 11 0 21 0;
#X connect 11 1 22 0;
#X connect 12 0 13 0;
#X connect 13 0 14 0;
#X connect 14 0 19 0;
#X connect 14 1 18 0;
#X connect 15 0 11 1;
#X connect 16 0 21 0;
#X connect 16 1 22 0;
#X connect 17 0 16 1;
#X connect 18 0 15 0;
#X connect 18 1 17 0;
#X connect 19 0 16 1;
#X connect 19 1 20 0;
#X connect 20 0 11 1;
#X restore 452 77 pd netpd-route;
#X obj 276 290 list trim;
#X obj 276 312 s mx;
#X obj 276 268 list prepend \$1 insert \$2;
#X msg 276 242 show;
#X connect 1 0 0 0;
#X connect 2 0 1 0;
#X connect 3 0 1 0;
#X connect 4 0 14 0;
#X connect 5 0 16 1;
#X connect 5 1 6 0;
#X connect 6 0 3 0;
#X connect 6 1 2 0;
#X connect 7 0 10 0;
#X connect 8 0 7 0;
#X connect 9 0 7 0;
#X connect 11 0 9 0;
#X connect 12 0 23 0;
#X connect 14 0 5 0;
#X connect 15 0 22 0;
#X connect 16 0 17 0;
#X connect 17 0 6 0;
#X connect 17 1 16 1;
#X connect 17 1 13 0;
#X connect 18 0 32 0;
#X connect 18 1 11 0;
#X connect 18 2 8 0;
#X connect 19 0 28 0;
#X connect 20 0 21 0;
#X connect 21 0 23 1;
#X connect 21 0 22 1;
#X connect 22 0 16 0;
#X connect 23 0 18 0;
#X connect 24 0 25 0;
#X connect 25 0 28 1;
#X connect 26 0 27 0;
#X connect 27 0 24 0;
#X connect 28 0 20 0;
#X connect 29 0 30 0;
#X connect 31 0 29 0;
#X connect 32 0 31 0;
#X restore 20 74 pd buttons;
#X obj 50 135 bng 15 250 50 0 empty empty empty 17 7 0 10 #fcfcfc #000000
#000000;
#X obj 20 134 \$0;
#X obj 20 280 r \$0.drop;
#X obj 20 303 route expand;
#X obj 173 19 namecanvas \$0.gop;
#X obj 20 376 s \$0.gop;
#X msg 108 302 0;
#X msg 20 164 \; \$1.drop selected_text_color 600 \; \$1.drop selected_box_color
0 \; \$1.drop selected_background_color 777 \; \$1.drop items_text_color
0 \; \$1.drop items_box_color 766 \; \$1.drop items_background_color
877 \;;
#X obj 20 44 mx-fx-2level-selector \$1 \$2 \$0.drop;
#X msg 20 353 coords 0 -1 1 1 40 \$1 2 20 10;
#X obj 20 326 + 22;
#X connect 22 0 25 0;
#X connect 24 0 25 0;
#X connect 25 0 31 0;
#X connect 26 0 27 0;
#X connect 27 0 34 0;
#X connect 30 0 34 0;
#X connect 33 0 29 0;
#X connect 34 0 33 0;
#X coords 0 -1 1 1 40 22 2 20 10;
