#N canvas 632 134 566 366 10;
#N canvas 831 151 261 231 NETPD 0;
#X msg 18 12 version 0 0 0;
#X restore 108 42 pd NETPD 2 0;
#N canvas 756 105 361 403 list.selector.fields 0;
#N canvas 1158 378 142 254 counter 0;
#X obj 10 12 inlet;
#X msg 38 61 -2;
#X obj 10 83 until;
#X obj 10 105 f;
#X obj 37 106 + 1;
#X obj 10 38 t b b a;
#X obj 10 202 list prepend;
#X obj 10 224 outlet;
#X obj 10 126 t a a;
#X obj 10 181 list append;
#X obj 51 156 + 21;
#X obj 51 133 * 11;
#X msg 10 61 6;
#X connect 0 0 5 0;
#X connect 1 0 3 1;
#X connect 2 0 3 0;
#X connect 3 0 4 0;
#X connect 3 0 8 0;
#X connect 4 0 3 1;
#X connect 5 0 12 0;
#X connect 5 1 1 0;
#X connect 5 2 6 1;
#X connect 6 0 7 0;
#X connect 8 0 9 0;
#X connect 8 1 11 0;
#X connect 9 0 6 0;
#X connect 10 0 9 1;
#X connect 11 0 10 0;
#X connect 12 0 2 0;
#X restore 5 140 pd counter;
#X obj 5 164 t a a;
#X obj 5 362 s;
#X obj 5 186 list trim;
#X obj 145 28 inlet;
#X obj 32 50 del 600;
#X obj 238 90 inlet;
#X msg 5 75 1;
#X msg 32 75 0;
#X obj 5 208 route 1 0;
#N canvas 752 253 288 441 update.labels 0;
#N canvas 646 299 158 272 counter 0;
#X obj 10 12 inlet;
#X msg 10 57 5;
#X msg 38 57 -2;
#X obj 10 79 until;
#X obj 10 101 f;
#X obj 37 102 + 1;
#X obj 10 124 outlet;
#X obj 10 34 t b b;
#X connect 0 0 7 0;
#X connect 1 0 3 0;
#X connect 2 0 4 1;
#X connect 3 0 4 0;
#X connect 4 0 5 0;
#X connect 4 0 6 0;
#X connect 5 0 4 1;
#X connect 7 0 1 0;
#X connect 7 1 2 0;
#X restore -47 75 pd counter;
#X obj -47 31 t b a;
#X obj -47 97 list append;
#X obj -47 7 inlet;
#X obj 97 9 inlet;
#X obj -47 119 t a a;
#X msg 16 124 \$1 \$2;
#X obj 16 146 +;
#X obj -47 171 list append;
#X obj -47 193 t a a;
#N canvas 781 423 450 300 get.label.from.id 0;
#X obj 68 94 t b a;
#X obj 68 140 list split;
#X obj 68 118 list append;
#X obj 153 227 list split 1;
#X obj 68 66 - 1;
#X obj 29 42 moses 1;
#X msg 125 168 symbol empty;
#X obj 96 201 route bang;
#X obj 153 250 outlet;
#X obj 29 18 inlet;
#X obj 232 28 inlet;
#X connect 0 0 2 0;
#X connect 0 1 1 1;
#X connect 1 1 7 0;
#X connect 1 2 6 0;
#X connect 2 0 1 0;
#X connect 3 0 8 0;
#X connect 4 0 0 0;
#X connect 5 0 6 0;
#X connect 5 1 4 0;
#X connect 6 0 8 0;
#X connect 7 0 6 0;
#X connect 7 1 3 0;
#X connect 9 0 5 0;
#X connect 10 0 2 1;
#X restore -20 241 pd get.label.from.id;
#X obj -47 266 list append;
#X msg -20 218 \$3;
#X obj -20 310 list prepend \$0;
#X msg -20 332 \; \$1.field.\$2.r label \$5;
#X obj -47 288 t a a;
#X obj -47 365 route 0;
#X msg -47 385 symbol \$3;
#X obj -47 407 outlet;
#X connect 0 0 2 0;
#X connect 1 0 0 0;
#X connect 1 1 2 1;
#X connect 2 0 5 0;
#X connect 3 0 1 0;
#X connect 4 0 10 1;
#X connect 5 0 8 0;
#X connect 5 1 6 0;
#X connect 6 0 7 0;
#X connect 7 0 8 1;
#X connect 8 0 9 0;
#X connect 9 0 11 0;
#X connect 9 1 12 0;
#X connect 10 0 11 1;
#X connect 11 0 15 0;
#X connect 12 0 10 0;
#X connect 13 0 14 0;
#X connect 15 0 16 0;
#X connect 15 1 13 0;
#X connect 16 0 17 0;
#X connect 17 0 18 0;
#X restore 145 113 pd update.labels;
#X obj 32 318 list prepend \$0;
#X msg 32 340 symbol \$1.field.\$3.r;
#X msg 39 233 pos 58 21 \, vis_size 1 1 \, label empty \, size 1;
#X msg 44 278 pos 21 \$2 \, vis_size 38 10;
#X obj 5 253 route 3;
#X msg 5 297 pos 19 -3 \, vis_size 42 58;
#X obj 145 190 outlet;
#X obj 5 28 t b b;
#X obj 5 97 change;
#X obj 5 5 r \$0.selector.s;
#X obj 145 77 f;
#X obj 5 118 t a a;
#X obj 112 52 sel 1;
#X obj 145 135 select <empty>;
#X msg 145 157 symbol empty;
#N canvas 756 152 450 300 init.cnvs 0;
#X obj 15 240 s \$0-mx-insert;
#X obj 15 184 list prepend \$0;
#X msg 120 137 -187246;
#X msg 42 138 -233017;
#X obj 15 97 t a a;
#X obj 15 163 list append;
#X msg 15 206 obj 58 21 cnv 1 1 1 empty \$1.field.\$2.r empty 1 6 1
9 \$3 -1 0;
#X obj 42 117 sel 0 3;
#X msg 92 137 -1;
#X msg 15 75 3 \, -2 \, -1 \, 1 \, 2 \, 0;
#X obj 15 6 r \$0.selector.s;
#X obj 15 28 spigot 1;
#X msg 93 45 0;
#X obj 15 50 t b b;
#X connect 1 0 6 0;
#X connect 2 0 5 1;
#X connect 3 0 5 1;
#X connect 4 0 5 0;
#X connect 4 1 7 0;
#X connect 5 0 1 0;
#X connect 6 0 0 0;
#X connect 7 0 3 0;
#X connect 7 1 8 0;
#X connect 7 2 2 0;
#X connect 8 0 5 1;
#X connect 9 0 4 0;
#X connect 10 0 11 0;
#X connect 11 0 13 0;
#X connect 12 0 11 1;
#X connect 13 0 9 0;
#X connect 13 1 12 0;
#X restore 204 26 pd init.cnvs;
#X connect 0 0 1 0;
#X connect 1 0 3 0;
#X connect 1 1 11 0;
#X connect 3 0 9 0;
#X connect 4 0 21 0;
#X connect 5 0 8 0;
#X connect 6 0 10 1;
#X connect 7 0 19 0;
#X connect 8 0 19 0;
#X connect 9 0 15 0;
#X connect 9 1 13 0;
#X connect 10 0 24 0;
#X connect 11 0 12 0;
#X connect 12 0 2 1;
#X connect 13 0 2 0;
#X connect 14 0 2 0;
#X connect 15 0 16 0;
#X connect 15 1 14 0;
#X connect 16 0 2 0;
#X connect 18 0 7 0;
#X connect 18 1 5 0;
#X connect 19 0 22 0;
#X connect 20 0 18 0;
#X connect 21 0 10 0;
#X connect 22 0 23 0;
#X connect 22 1 0 0;
#X connect 23 0 21 0;
#X connect 24 0 25 0;
#X connect 24 1 17 0;
#X connect 25 0 17 0;
#X restore 109 257 pd list.selector.fields;
#X obj 108 20 namecanvas \$0-mx-insert;
#N canvas 978 179 159 111 INIT 0;
#X obj 13 13 loadbang;
#X msg 13 37 5;
#X obj 13 59 s \$0.sens;
#X connect 0 0 1 0;
#X connect 1 0 2 0;
#X restore 108 65 pd INIT;
#N canvas 278 280 419 327 slider.wrapper 0;
#X obj 20 255 pack f f f;
#X obj 20 233 - 1;
#X obj 20 167 change;
#X obj 20 208 t a a a;
#X obj 77 231 +;
#X msg 20 277 range \$2 \$1 \, set \$3;
#X obj 20 299 s \$0.selector.r;
#X obj 20 145 div 5;
#X obj 20 187 * 5;
#X obj 92 208 mod 5;
#X obj 48 232 + 5;
#X obj 20 17 r \$0.selector.s;
#X obj 20 48 max 0;
#X obj 20 74 min 1e+37;
#X obj 139 20 inlet;
#X obj 139 42 route range set;
#X obj 139 67 unpack;
#X obj 203 67 r \$0.sens;
#X obj 139 91 *;
#X obj 172 91 *;
#X obj 172 184 div;
#X obj 172 206 change -1e+37;
#X obj 172 228 outlet;
#X obj 182 121 *;
#X obj 20 120 t a a;
#X obj 20 96 t a a;
#X connect 0 0 5 0;
#X connect 1 0 0 0;
#X connect 2 0 8 0;
#X connect 3 0 1 0;
#X connect 3 1 10 0;
#X connect 3 2 4 0;
#X connect 4 0 0 2;
#X connect 5 0 6 0;
#X connect 7 0 2 0;
#X connect 8 0 3 0;
#X connect 9 0 4 1;
#X connect 10 0 0 1;
#X connect 11 0 12 0;
#X connect 12 0 13 0;
#X connect 13 0 25 0;
#X connect 14 0 15 0;
#X connect 15 0 16 0;
#X connect 15 1 23 0;
#X connect 16 0 18 0;
#X connect 16 1 19 0;
#X connect 17 0 19 1;
#X connect 17 0 18 1;
#X connect 17 0 20 1;
#X connect 17 0 23 1;
#X connect 18 0 12 1;
#X connect 19 0 13 1;
#X connect 20 0 21 0;
#X connect 21 0 22 0;
#X connect 23 0 24 0;
#X connect 24 0 7 0;
#X connect 24 1 9 0;
#X connect 25 0 24 0;
#X connect 25 1 20 0;
#X restore 109 230 pd slider.wrapper;
#X obj 20 22 vsl 40 7 10 4 0 0 \$0.selector.s \$0.selector.r empty
2 5 1 9 -228856 -228856 -1 600 1;
#X msg 109 279 label \$1;
#X obj 109 301 s \$0.selector.r;
#X msg 109 134 <empty> eins zwei drei vier fuenf sechs sieben acht
neun;
#X obj 109 156 t a a;
#X obj 109 182 list length;
#X obj 109 110 loadbang;
#X msg 109 204 range 1 \$1 \, set 1;
#X connect 1 0 6 0;
#X connect 4 0 1 0;
#X connect 6 0 7 0;
#X connect 8 0 9 0;
#X connect 9 0 10 0;
#X connect 9 1 1 1;
#X connect 10 0 12 0;
#X connect 11 0 8 0;
#X connect 12 0 4 0;
#X coords 0 -1 1 1 40 12 2 20 20;
