#N canvas 632 134 450 300 10;
#N canvas 831 95 261 231 NETPD 0;
#X msg 18 12 version 0 0 0;
#X restore 90 21 pd NETPD 2 0;
#X obj 21 20 nbx 8 12 -1e+37 1e+37 0 0 \$0.selector.ns \$0.selector.nr
empty 0 -8 0 4 -228856 -228856 -1 0 256;
#X obj 23 20 hsl 35 12 1 1 0 0 \$0.nirvana \$0.selector.r rodel -1
7 1 9 -228856 -228856 -1 0 1;
#N canvas 790 151 403 364 list.selector.fields 0;
#N canvas 646 299 158 272 counter 0;
#X obj 10 12 inlet;
#X msg 10 81 5;
#X msg 38 81 -2;
#X obj 10 103 until;
#X obj 10 125 f;
#X obj 37 126 + 1;
#X obj 10 58 t b b a;
#X obj 10 222 list prepend;
#X obj 10 244 outlet;
#X obj 10 146 t a a;
#X obj 51 153 * 14;
#X obj 51 175 + 11;
#X obj 10 201 list append;
#X obj 10 34 change;
#X connect 0 0 13 0;
#X connect 1 0 3 0;
#X connect 2 0 4 1;
#X connect 3 0 4 0;
#X connect 4 0 5 0;
#X connect 4 0 9 0;
#X connect 5 0 4 1;
#X connect 6 0 1 0;
#X connect 6 1 2 0;
#X connect 6 2 7 1;
#X connect 7 0 8 0;
#X connect 9 0 12 0;
#X connect 9 1 10 0;
#X connect 10 0 11 0;
#X connect 11 0 12 1;
#X connect 12 0 7 0;
#X connect 13 0 6 0;
#X restore 63 120 pd counter;
#X obj 63 142 list append;
#X obj 63 164 t a a;
#X msg 90 285 symbol \$4.field.\$2.r;
#X obj 63 307 s;
#X obj 63 186 list trim;
#X msg 63 257 pos 11 \$2 \, vis_size 68 13;
#X msg 97 233 pos 78 11 \, vis_size 1 1 \, label empty;
#X obj 63 6 inlet;
#X msg 129 119 \$2;
#X obj 92 51 del 600;
#X obj 274 39 inlet;
#X msg 63 75 1;
#X msg 92 74 0;
#X obj 63 208 route 1 0;
#X obj 63 28 t b b a a;
#N canvas 752 197 451 452 update.labels 0;
#X msg -20 73 \$1 \$2;
#N canvas 646 299 158 272 counter 0;
#X obj 10 12 inlet;
#X msg 10 57 5;
#X msg 38 57 -2;
#X obj 10 79 until;
#X obj 10 101 f;
#X obj 37 102 + 1;
#X obj 10 124 outlet;
#X obj 10 34 t b b;
#X connect 0 0 7 0;
#X connect 1 0 3 0;
#X connect 2 0 4 1;
#X connect 3 0 4 0;
#X connect 4 0 5 0;
#X connect 4 0 6 0;
#X connect 5 0 4 1;
#X connect 7 0 1 0;
#X connect 7 1 2 0;
#X restore -47 95 pd counter;
#X obj -47 51 t b a;
#X obj -47 117 list append;
#X obj -47 27 inlet;
#X obj 172 35 inlet;
#X obj -47 139 t a a;
#X msg 16 144 \$1 \$2;
#X obj 16 166 +;
#X obj -47 191 list append;
#X obj -47 213 t a a;
#N canvas 781 423 450 300 get.label.from.id 0;
#X obj 68 94 t b a;
#X obj 68 140 list split;
#X obj 68 118 list append;
#X obj 153 227 list split 1;
#X obj 68 66 - 1;
#X obj 29 42 moses 1;
#X msg 125 168 symbol empty;
#X obj 96 201 route bang;
#X obj 153 250 outlet;
#X obj 29 18 inlet;
#X obj 232 28 inlet;
#X connect 0 0 2 0;
#X connect 0 1 1 1;
#X connect 1 1 7 0;
#X connect 1 2 6 0;
#X connect 2 0 1 0;
#X connect 3 0 8 0;
#X connect 4 0 0 0;
#X connect 5 0 6 0;
#X connect 5 1 4 0;
#X connect 6 0 8 0;
#X connect 7 0 6 0;
#X connect 7 1 3 0;
#X connect 9 0 5 0;
#X connect 10 0 2 1;
#X restore -20 261 pd get.label.from.id;
#X msg -20 238 \$4;
#X obj -47 286 list append;
#X msg 10 351 \; \$3.field.\$1.r label \$5;
#X connect 0 0 3 1;
#X connect 1 0 3 0;
#X connect 2 0 1 0;
#X connect 2 1 0 0;
#X connect 3 0 6 0;
#X connect 4 0 2 0;
#X connect 5 0 11 1;
#X connect 6 0 9 0;
#X connect 6 1 7 0;
#X connect 7 0 8 0;
#X connect 8 0 9 1;
#X connect 9 0 10 0;
#X connect 10 0 13 0;
#X connect 10 1 12 0;
#X connect 11 0 13 1;
#X connect 12 0 11 0;
#X connect 13 0 14 0;
#X restore 181 62 pd update.labels;
#X obj 63 97 t a a;
#X connect 0 0 1 0;
#X connect 1 0 2 0;
#X connect 2 0 5 0;
#X connect 2 1 3 0;
#X connect 3 0 4 1;
#X connect 5 0 14 0;
#X connect 6 0 4 0;
#X connect 7 0 4 0;
#X connect 8 0 15 0;
#X connect 9 0 1 1;
#X connect 10 0 13 0;
#X connect 11 0 16 1;
#X connect 12 0 17 0;
#X connect 13 0 17 0;
#X connect 14 0 6 0;
#X connect 14 1 7 0;
#X connect 15 0 12 0;
#X connect 15 1 10 0;
#X connect 15 2 9 0;
#X connect 15 3 16 0;
#X connect 17 0 0 0;
#X restore 132 166 pd list.selector.fields;
#X coords 0 -1 1 1 40 12 2 20 20;
