#N canvas 812 534 450 368 10;
#X obj 20 133 vsl 20 150 0 1 0 0 \$1-\$2 \$1-\$2 empty 0 -9 0 10 #404040
#404040 #000000 0 1;
#X obj 21 132 cnv 1 18 153 empty \$0.level.top.r empty 20 12 0 14 #960000
#404040 0;
#N canvas 520 520 456 325 level-slider-stuff 0;
#X obj 20 258 s \$0.level.top.r;
#X msg 20 226 pos 21 \$1;
#X msg 87 233 vis_size 18 \$1;
#X obj 87 187 * -1;
#X obj 20 160 t a a;
#X obj 20 140 int;
#X obj 87 209 + 2;
#X obj 20 118 - 0.5;
#X obj 20 66 route float set;
#X obj 20 183 + 283;
#X obj 169 53 r mx;
#X obj 169 76 route \$1;
#X obj 169 99 route gui_lock;
#X obj 169 122 == 0;
#X obj 20 39 spigot 1;
#X obj 20 12 r \$1-\$2;
#X obj 20 95 * -151;
#X connect 1 0 0 0;
#X connect 2 0 0 0;
#X connect 3 0 6 0;
#X connect 4 0 9 0;
#X connect 4 1 3 0;
#X connect 5 0 4 0;
#X connect 6 0 2 0;
#X connect 7 0 5 0;
#X connect 8 0 16 0;
#X connect 8 1 16 0;
#X connect 9 0 1 0;
#X connect 10 0 11 0;
#X connect 11 0 12 0;
#X connect 12 0 13 0;
#X connect 13 0 14 1;
#X connect 14 0 8 0;
#X connect 15 0 14 0;
#X connect 16 0 7 0;
#X restore 110 120 pd level-slider-stuff;
#N canvas 590 44 294 326 double-click-reset 0;
#X obj 15 32 route float;
#X obj 15 228 del 1;
#X obj 15 60 sel;
#X obj 46 60 t a;
#X obj 15 148 f;
#X obj 54 148 + 1;
#X obj 15 82 t b b;
#X obj 42 103 del 300;
#X obj 15 192 t a b;
#X obj 15 170 sel 1;
#X msg 42 125 0;
#X msg 15 250 0.787402;
#X obj 15 272 s \$1-\$2;
#X obj 15 10 r \$1-\$2;
#X connect 0 0 2 0;
#X connect 1 0 11 0;
#X connect 2 0 6 0;
#X connect 2 1 3 0;
#X connect 3 0 2 1;
#X connect 4 0 5 0;
#X connect 4 0 9 0;
#X connect 5 0 4 1;
#X connect 6 0 4 0;
#X connect 6 1 7 0;
#X connect 7 0 10 0;
#X connect 8 0 1 0;
#X connect 8 1 10 0;
#X connect 9 0 8 0;
#X connect 10 0 4 1;
#X connect 11 0 12 0;
#X connect 13 0 0 0;
#X restore 109 182 pd double-click-reset;
#N canvas 648 252 394 101 NETPD 0;
#X msg 27 32 version 0 1 0;
#X restore 156 55 pd NETPD 2 0;
#X coords 0 -1 1 1 20 155 2 20 131;
