#N canvas 500 476 284 306 10;
#N canvas 520 44 409 218 NETPD 0;
#X msg 21 15 version 0 0 0;
#N canvas 649 167 233 139 abslist 0;
#X msg 8 13 mx-aux-gui;
#X msg 9 42 mx-insert-gui;
#X restore 24 42 pd abslist;
#X restore 106 69 pd NETPD 2 0;
#N canvas 565 462 261 258 level-slider-stuff 0;
#X obj 20 228 s \$0.level.top.r;
#X msg 87 203 vis_size 18 \$1;
#X obj 87 157 * -1;
#X obj 20 130 t a a;
#X obj 20 110 int;
#X obj 87 179 + 2;
#X obj 20 88 - 0.5;
#X obj 20 36 route float set;
#X obj 20 153 + 253;
#X msg 20 196 pos 31 \$1;
#X obj 20 65 * -120.423;
#X obj 20 14 r \$1-level;
#X connect 1 0 0 0;
#X connect 2 0 5 0;
#X connect 3 0 8 0;
#X connect 3 1 2 0;
#X connect 4 0 3 0;
#X connect 5 0 1 0;
#X connect 6 0 4 0;
#X connect 7 0 10 0;
#X connect 7 1 10 0;
#X connect 8 0 9 0;
#X connect 9 0 0 0;
#X connect 10 0 6 0;
#X connect 11 0 7 0;
#X restore 106 114 pd level-slider-stuff;
#N canvas 590 44 294 326 double-click-reset 0;
#X obj 15 32 route float;
#X obj 15 55 list prepend 0;
#X msg 34 100 1;
#X obj 15 77 t a b b;
#X obj 64 98 del 300;
#X msg 64 119 0;
#X obj 15 140 route 1 0;
#X obj 15 184 ==;
#X obj 15 162 t a b;
#X msg 86 151 stop;
#X obj 15 206 sel 1;
#X msg 15 250 1;
#X obj 15 228 del 1;
#X obj 135 32 route float;
#X obj 135 55 list prepend 0;
#X msg 154 100 1;
#X obj 135 77 t a b b;
#X obj 184 98 del 300;
#X msg 184 119 0;
#X obj 135 140 route 1 0;
#X obj 135 184 ==;
#X obj 135 162 t a b;
#X msg 206 151 stop;
#X obj 135 206 sel 1;
#X obj 135 228 del 1;
#X msg 135 250 0.5001;
#X obj 15 10 r \$1-level;
#X obj 135 10 r \$1-pan;
#X obj 15 272 s \$1-level;
#X obj 135 272 s \$1-pan;
#X connect 0 0 1 0;
#X connect 1 0 3 0;
#X connect 2 0 1 1;
#X connect 3 0 6 0;
#X connect 3 1 2 0;
#X connect 3 2 4 0;
#X connect 4 0 5 0;
#X connect 5 0 1 1;
#X connect 6 0 8 0;
#X connect 6 1 7 1;
#X connect 7 0 10 0;
#X connect 8 0 7 0;
#X connect 8 1 5 0;
#X connect 8 1 9 0;
#X connect 9 0 4 0;
#X connect 10 0 12 0;
#X connect 11 0 28 0;
#X connect 12 0 11 0;
#X connect 13 0 14 0;
#X connect 14 0 16 0;
#X connect 15 0 14 1;
#X connect 16 0 19 0;
#X connect 16 1 15 0;
#X connect 16 2 17 0;
#X connect 17 0 18 0;
#X connect 18 0 14 1;
#X connect 19 0 21 0;
#X connect 19 1 20 1;
#X connect 20 0 23 0;
#X connect 21 0 20 0;
#X connect 21 1 18 0;
#X connect 21 1 22 0;
#X connect 22 0 17 0;
#X connect 23 0 24 0;
#X connect 24 0 25 0;
#X connect 25 0 29 0;
#X connect 26 0 0 0;
#X connect 27 0 13 0;
#X restore 106 136 pd double-click-reset;
#N canvas 520 156 161 130 INIT 0;
#X obj 12 74 s mx;
#X msg 12 53 \$1 refresh;
#X obj 12 32 \$1;
#X obj 12 10 loadbang;
#X connect 1 0 0 0;
#X connect 2 0 1 0;
#X connect 3 0 2 0;
#X restore 106 27 pd INIT;
#X obj 18 18 cnv 15 44 239 empty empty empty 20 12 0 14 -1 -66577 0
;
#X obj 30 96 vsl 20 157 0 1.3 0 0 \$1-level \$1-level empty 0 -9 0
10 -66577 -66577 -1 12000 1;
#X obj 31 133 cnv 1 18 122 empty \$0.level.top.r empty 20 12 0 14 -258089
-66577 0;
#X obj 20 20 cnv 10 40 12 empty \$0.label.r main 3 7 1 10 -262144 -4160
0;
#X obj 20 33 mx-insert-gui \$1 1;
#X obj 20 46 mx-insert-gui \$1 2;
#X obj 20 59 mx-insert-gui \$1 3;
#X obj 51 95 vu 8 160 empty empty -1 -8 0 10 -66577 -1 0 0;
#X obj 21 95 vu 8 160 empty empty -1 -8 0 10 -66577 -1 0 0;
#X obj 23 79 hsl 35 15 0 1 0 0 \$1-pan \$1-pan empty -2 -8 0 10 -66577
-258153 -1 1700 1;
#X coords 0 -1 1 1 42 239 2 18 18;
