#N struct 1003.rectangle float id float x float y float w float h float
txtclr float boxclr float bgclr symbol label;
#N canvas 418 352 320 305 10;
#N canvas 500 103 409 218 NETPD 0;
#X msg 25 19 version 0 0 8;
#X restore 128 67 pd NETPD 2 0;
#N canvas 565 546 576 304 level-slider-stuff 0;
#X obj 20 268 s \$0.level.top.r;
#X msg 87 243 vis_size 18 \$1;
#X obj 87 197 * -1;
#X obj 20 170 t a a;
#X obj 20 150 int;
#X obj 87 219 + 2;
#X obj 20 128 - 0.5;
#X obj 20 76 route float set;
#X obj 20 14 r \$1-level;
#X obj 20 193 + 283;
#X msg 20 236 pos 45 \$1;
#X obj 20 105 * -156.55;
#X obj 400 30 r mx;
#X obj 400 53 route \$1;
#X obj 400 76 route gui_lock;
#X obj 400 99 == 0;
#X obj 20 46 spigot 1;
#X connect 1 0 0 0;
#X connect 2 0 5 0;
#X connect 3 0 9 0;
#X connect 3 1 2 0;
#X connect 4 0 3 0;
#X connect 5 0 1 0;
#X connect 6 0 4 0;
#X connect 7 0 11 0;
#X connect 7 1 11 0;
#X connect 8 0 16 0;
#X connect 9 0 10 0;
#X connect 10 0 0 0;
#X connect 11 0 6 0;
#X connect 12 0 13 0;
#X connect 13 0 14 0;
#X connect 14 0 15 0;
#X connect 15 0 16 1;
#X connect 16 0 7 0;
#X restore 128 112 pd level-slider-stuff;
#N canvas 590 44 294 326 double-click-reset 0;
#X obj 15 32 route float;
#X obj 15 55 list prepend 0;
#X msg 34 100 1;
#X obj 15 77 t a b b;
#X obj 64 98 del 300;
#X msg 64 119 0;
#X obj 15 140 route 1 0;
#X obj 15 184 ==;
#X obj 15 162 t a b;
#X msg 86 151 stop;
#X obj 15 206 sel 1;
#X obj 15 228 del 1;
#X obj 135 32 route float;
#X obj 135 55 list prepend 0;
#X msg 154 100 1;
#X obj 135 77 t a b b;
#X obj 184 98 del 300;
#X msg 184 119 0;
#X obj 135 140 route 1 0;
#X obj 135 184 ==;
#X obj 135 162 t a b;
#X msg 206 151 stop;
#X obj 135 206 sel 1;
#X obj 135 228 del 1;
#X msg 135 250 0.5001;
#X obj 15 10 r \$1-level;
#X obj 135 10 r \$1-pan;
#X obj 15 272 s \$1-level;
#X obj 135 272 s \$1-pan;
#X msg 15 250 0.787402;
#X connect 0 0 1 0;
#X connect 1 0 3 0;
#X connect 2 0 1 1;
#X connect 3 0 6 0;
#X connect 3 1 2 0;
#X connect 3 2 4 0;
#X connect 4 0 5 0;
#X connect 5 0 1 1;
#X connect 6 0 8 0;
#X connect 6 1 7 1;
#X connect 7 0 10 0;
#X connect 8 0 7 0;
#X connect 8 1 5 0;
#X connect 8 1 9 0;
#X connect 9 0 4 0;
#X connect 10 0 11 0;
#X connect 11 0 29 0;
#X connect 12 0 13 0;
#X connect 13 0 15 0;
#X connect 14 0 13 1;
#X connect 15 0 18 0;
#X connect 15 1 14 0;
#X connect 15 2 16 0;
#X connect 16 0 17 0;
#X connect 17 0 13 1;
#X connect 18 0 20 0;
#X connect 18 1 19 1;
#X connect 19 0 22 0;
#X connect 20 0 19 0;
#X connect 20 1 17 0;
#X connect 20 1 21 0;
#X connect 21 0 16 0;
#X connect 22 0 23 0;
#X connect 23 0 24 0;
#X connect 24 0 28 0;
#X connect 25 0 0 0;
#X connect 26 0 12 0;
#X connect 29 0 27 0;
#X restore 128 134 pd double-click-reset;
#N canvas 645 241 161 130 INIT 0;
#X obj 12 95 s mx;
#X msg 12 74 \$1 refresh;
#X obj 12 53 \$1;
#X obj 12 10 loadbang;
#X obj 12 32 del 0;
#X connect 1 0 0 0;
#X connect 2 0 1 0;
#X connect 3 0 4 0;
#X connect 4 0 2 0;
#X restore 128 25 pd INIT;
#X obj 18 18 cnv 15 58 269 empty empty empty 20 12 0 14 #000000 #404040
0;
#X obj 35 20 cnv 10 39 12 empty \$0.label.r main 3 7 1 10 #fcfcfc #0400fc
0;
#X obj 34 33 mx-insert-gui \$1/mx/1 1;
#X obj 34 56 mx-insert-gui \$1/mx/1 2;
#X obj 34 79 mx-insert-gui \$1/mx/1 3;
#X obj 128 46 namecanvas \$1-master-gui;
#X obj 20 155 vsl 12 127 0 0 0 0 \$1-show-recorder \$1.NULL empty 0
-9 0 10 #dcdcdc #dcdcdc #000000 0 1;
#X obj 21 201 cnv 10 10 11 empty empty r 2 5 1 14 #dcdcdc #000000 0
;
#X obj 21 213 cnv 10 10 11 empty empty e 1 5 1 14 #dcdcdc #000000 0
;
#X obj 21 225 cnv 10 10 11 empty empty c 1 5 1 14 #dcdcdc #000000 0
;
#X obj 20 22 vsl 12 127 0 0 0 0 \$1-show-aux-channels \$1.NULL empty
0 10 0 10 #dcdcdc #dcdcdc #000000 0 1;
#X obj 21 69 cnv 10 10 11 empty empty a 2 5 1 14 #dcdcdc #000000 0
;
#X obj 21 81 cnv 10 10 11 empty empty u 1 5 1 14 #dcdcdc #000000 0
;
#X obj 21 93 cnv 10 10 11 empty empty x 2 5 1 14 #dcdcdc #000000 0
;
#X obj 44 126 vsl 20 157 0 1 0 0 \$1-level \$1-level empty 0 -9 0 10
#404040 #404040 #000000 0 1;
#X obj 45 160 cnv 1 18 125 empty \$0.level.top.r empty 20 12 0 14 #fc00a0
#404040 0;
#X obj 65 125 vu 8 160 \$1-meter-r empty -1 -8 0 10 #404040 #000000
0 0;
#X obj 35 125 vu 8 160 \$1-meter-l empty -1 -8 0 10 #404040 #000000
0 0;
#X obj 37 109 hsl 35 15 0 1 0 0 \$1-pan \$1-pan empty -2 -8 0 10 #404040
#fc04a0 #000000 0 1;
#X coords 0 -1 1 1 58 269 2 18 18;
