#N canvas 1083 553 417 77 10;
#X obj 23 20 hsl 55 15 0 1 0 0 \$1-\$2 \$1-\$2 empty -2 -8 0 10 #404040 #a60400 #000000 0 1;
#N canvas 648 252 394 101 NETPD 0;
#X msg 27 32 version 0 1 0;
#X restore 239 22 pd NETPD 2 0;
#N canvas 590 44 294 326 double-click-reset 0;
#X obj 15 32 route float;
#X obj 15 228 del 1;
#X obj 15 60 sel;
#X obj 46 60 t a;
#X obj 15 148 f;
#X obj 54 148 + 1;
#X obj 15 82 t b b;
#X obj 42 103 del 300;
#X obj 15 192 t a b;
#X obj 15 170 sel 1;
#X msg 42 125 0;
#X obj 15 272 s \$1-\$2;
#X obj 15 10 r \$1-\$2;
#X msg 15 250 0.5;
#X connect 0 0 2 0;
#X connect 1 0 13 0;
#X connect 2 0 6 0;
#X connect 2 1 3 0;
#X connect 3 0 2 1;
#X connect 4 0 5 0;
#X connect 4 0 9 0;
#X connect 5 0 4 1;
#X connect 6 0 4 0;
#X connect 6 1 7 0;
#X connect 7 0 10 0;
#X connect 8 0 1 0;
#X connect 8 1 10 0;
#X connect 9 0 8 0;
#X connect 10 0 4 1;
#X connect 12 0 0 0;
#X connect 13 0 11 0;
#X restore 101 19 pd double-click-reset;
#X coords 0 -1 1 1 60 15 2 20 20;
