#N canvas 1034 146 550 434 10;
#N canvas 837 301 372 305 bytes.gui 0;
#X obj 35 229 s \$0.16bit.r;
#X msg 35 204 color -1 0 \$1;
#X obj 35 177 v \$0.on;
#X obj 83 177 v \$0.off;
#X obj 35 155 sel 1 0;
#X msg 144 205 color -1 0 \$1;
#X obj 144 178 v \$0.on;
#X obj 192 178 v \$0.off;
#X obj 144 156 sel 1 0;
#X msg 249 206 color -1 0 \$1;
#X obj 249 179 v \$0.on;
#X obj 298 179 v \$0.off;
#X obj 249 157 sel 1 0;
#X obj 144 230 s \$0.24bit.r;
#X obj 249 231 s \$0.32bit.r;
#X obj 35 131 == 0;
#X obj 144 132 == 1;
#X obj 249 134 == 2;
#X obj 18 105 t a a a a;
#X obj 18 254 + 2;
#X obj 18 275 s \$0.bytes;
#X obj 18 13 r \$0.bitrate.s;
#X obj 18 37 int;
#X obj 109 13 r \$0.lb.2;
#X msg 109 34 1;
#X obj 18 77 spigot 1;
#X obj 173 37 r \$0.state;
#X obj 173 59 sel 3;
#X msg 173 81 0;
#X msg 200 91 1;
#X obj 18 57 change -1;
#X connect 1 0 0 0;
#X connect 2 0 1 0;
#X connect 3 0 1 0;
#X connect 4 0 2 0;
#X connect 4 1 3 0;
#X connect 5 0 13 0;
#X connect 6 0 5 0;
#X connect 7 0 5 0;
#X connect 8 0 6 0;
#X connect 8 1 7 0;
#X connect 9 0 14 0;
#X connect 10 0 9 0;
#X connect 11 0 9 0;
#X connect 12 0 10 0;
#X connect 12 1 11 0;
#X connect 15 0 4 0;
#X connect 16 0 8 0;
#X connect 17 0 12 0;
#X connect 18 0 19 0;
#X connect 18 1 15 0;
#X connect 18 2 16 0;
#X connect 18 3 17 0;
#X connect 19 0 20 0;
#X connect 21 0 22 0;
#X connect 22 0 30 0;
#X connect 23 0 24 0;
#X connect 24 0 22 0;
#X connect 25 0 18 0;
#X connect 26 0 27 0;
#X connect 27 0 28 0;
#X connect 27 1 29 0;
#X connect 28 0 25 1;
#X connect 29 0 25 1;
#X connect 30 0 25 0;
#X restore 36 292 pd bytes.gui;
#N canvas 982 264 299 247 autostart.gui 0;
#X obj 14 19 r \$0.autostart.s;
#X obj 65 41 t a;
#X obj 48 77 t a;
#X msg 41 169 color -1 0 \$1;
#X obj 41 142 v \$0.on;
#X obj 89 142 v \$0.off;
#X obj 41 120 sel 1 0;
#X obj 41 194 s \$0.autostart.label;
#X obj 14 217 s \$0.autostart;
#X obj 14 98 t a a;
#X obj 14 76 == 0;
#X obj 14 41 sel 0;
#X connect 0 0 11 0;
#X connect 1 0 11 1;
#X connect 2 0 10 1;
#X connect 3 0 7 0;
#X connect 4 0 3 0;
#X connect 5 0 3 0;
#X connect 6 0 4 0;
#X connect 6 1 5 0;
#X connect 9 0 8 0;
#X connect 9 1 6 0;
#X connect 10 0 2 0;
#X connect 10 0 9 0;
#X connect 11 0 10 0;
#X connect 11 1 1 0;
#X restore 36 251 pd autostart.gui;
#N canvas 1189 169 229 211 signal.led 0;
#X obj 16 11 r \$0.signallevel;
#X obj 16 55 max 0;
#X obj 70 66 << 8;
#X obj 70 92 * -1;
#X obj 70 113 - 1;
#X obj 70 155 s \$0.indicator;
#X obj 16 123 * 255;
#X obj 16 33 - 30;
#X msg 70 133 color -1 0 \$1;
#X obj 16 77 min 40;
#X obj 16 99 / 40;
#X connect 0 0 7 0;
#X connect 1 0 9 0;
#X connect 2 0 3 0;
#X connect 3 0 4 0;
#X connect 4 0 8 0;
#X connect 6 0 2 0;
#X connect 7 0 1 0;
#X connect 8 0 5 0;
#X connect 9 0 10 0;
#X connect 10 0 6 0;
#X restore 36 312 pd signal.led;
#N canvas 900 300 303 337 rec.gui 0;
#X msg 25 269 color -1 0 \$1;
#X obj 25 220 sel 1 0;
#X obj 25 294 s \$0.rec.label;
#X obj 14 19 r \$0.rec.s;
#X obj 25 160 metro 500;
#X obj 25 188 ==;
#X obj 54 189 t a;
#X obj 83 242 v \$0.off;
#X obj 25 243 v \$0.on;
#X obj 14 41 s \$0.rec;
#X obj 118 50 r \$0.state;
#X msg 25 134 1;
#X msg 57 135 0;
#X msg 110 134 1;
#X obj 133 98 t b b;
#X msg 149 136 0 1;
#X obj 118 74 sel 2 3 1 0;
#X connect 0 0 2 0;
#X connect 1 0 8 0;
#X connect 1 1 7 0;
#X connect 3 0 9 0;
#X connect 4 0 5 0;
#X connect 5 0 6 0;
#X connect 5 0 1 0;
#X connect 6 0 5 1;
#X connect 7 0 0 0;
#X connect 8 0 0 0;
#X connect 10 0 16 0;
#X connect 11 0 4 0;
#X connect 12 0 4 0;
#X connect 13 0 1 0;
#X connect 14 0 12 0;
#X connect 14 1 13 0;
#X connect 15 0 5 0;
#X connect 16 0 11 0;
#X connect 16 1 14 0;
#X connect 16 2 15 0;
#X connect 16 2 12 0;
#X connect 16 3 15 0;
#X connect 16 3 12 0;
#X restore 36 231 pd rec.gui;
#N canvas 982 264 548 275 file.gui 0;
#X obj 65 41 t a;
#X msg 250 201 color -1 0 \$1;
#X obj 250 174 v \$0.on;
#X obj 298 174 v \$0.off;
#X obj 250 102 sel 1 0;
#X obj 14 148 t a a;
#X obj 14 19 r \$0.file.s;
#X obj 250 226 s \$0.file.label;
#X obj 41 174 s \$0.file;
#X obj 14 124 savepanel;
#X obj 250 81 r \$0.file.set;
#X obj 376 229 s \$0.file.label;
#X obj 376 107 r \$0.file;
#X msg 376 202 label \$1;
#X msg 382 175 symbol <select_file>;
#X obj 14 221 s \$0.file.set;
#X msg 14 200 1;
#X msg 45 200 0;
#X obj 14 41 sel 0;
#X obj 14 95 spigot 0;
#X obj 151 5 r \$0.state;
#X msg 166 94 1;
#X msg 151 138 0;
#X msg 393 151 symbol <mx_not_loaded>;
#X obj 151 27 sel 0 1 2 3;
#X connect 0 0 18 1;
#X connect 1 0 7 0;
#X connect 2 0 1 0;
#X connect 3 0 1 0;
#X connect 4 0 2 0;
#X connect 4 1 3 0;
#X connect 5 0 16 0;
#X connect 5 1 8 0;
#X connect 6 0 18 0;
#X connect 9 0 5 0;
#X connect 10 0 4 0;
#X connect 12 0 13 0;
#X connect 13 0 11 0;
#X connect 14 0 13 0;
#X connect 16 0 15 0;
#X connect 17 0 15 0;
#X connect 18 0 19 0;
#X connect 18 1 0 0;
#X connect 19 0 9 0;
#X connect 20 0 24 0;
#X connect 21 0 19 1;
#X connect 22 0 19 1;
#X connect 23 0 13 0;
#X connect 24 0 22 0;
#X connect 24 0 17 0;
#X connect 24 0 23 0;
#X connect 24 1 21 0;
#X connect 24 1 17 0;
#X connect 24 1 14 0;
#X connect 24 2 21 0;
#X connect 24 3 22 0;
#X restore 36 271 pd file.gui;
#N canvas 980 375 449 283 clock.gui 0;
#X obj 81 137 timer;
#X obj 108 113 metro 16.6667;
#N canvas 428 131 493 352 clock.format 0;
#X obj 353 189 mod 1000;
#X obj 353 211 makefilename %03d;
#X obj 24 39 t a a;
#X obj 24 67 / 1000;
#X obj 24 89 t a a;
#X obj 243 187 mod 60;
#X obj 243 211 makefilename %02d;
#X obj 24 139 t a a;
#X obj 133 211 makefilename %02d;
#X obj 24 117 / 60;
#X obj 133 187 mod 60;
#X obj 24 211 makefilename %02d;
#X obj 24 161 / 60;
#X obj 24 187 mod 24;
#X obj 24 17 inlet;
#X obj 24 264 pack s s s s;
#X msg 24 286 symbol \$1:\$2:\$3.\$4;
#X obj 24 308 outlet;
#X connect 0 0 1 0;
#X connect 1 0 15 3;
#X connect 2 0 3 0;
#X connect 2 1 0 0;
#X connect 3 0 4 0;
#X connect 4 0 9 0;
#X connect 4 1 5 0;
#X connect 5 0 6 0;
#X connect 6 0 15 2;
#X connect 7 0 12 0;
#X connect 7 1 10 0;
#X connect 8 0 15 1;
#X connect 9 0 7 0;
#X connect 10 0 8 0;
#X connect 11 0 15 0;
#X connect 12 0 13 0;
#X connect 13 0 11 0;
#X connect 14 0 2 0;
#X connect 15 0 16 0;
#X connect 16 0 17 0;
#X restore 36 203 pd clock.format;
#X msg 36 225 label \$1;
#X obj 36 247 s \$0.clock.label;
#X msg 278 206 color -1 0 \$1;
#X obj 278 157 sel 1 0;
#X obj 336 179 v \$0.off;
#X obj 278 180 v \$0.on;
#X obj 278 231 s \$0.clock.label;
#X msg 36 141 0;
#X obj 37 15 r \$0.state;
#X obj 37 37 sel 0 1 2 3;
#X obj 278 32 r \$0.state;
#X obj 278 54 sel 0 1 2 3;
#X msg 309 124 1;
#X msg 278 125 0;
#X obj 84 61 t b b;
#X msg 108 90 1;
#X msg 52 80 0;
#X obj 3 101 r \$0.lb.2;
#X connect 0 0 2 0;
#X connect 1 0 0 1;
#X connect 2 0 3 0;
#X connect 3 0 4 0;
#X connect 5 0 9 0;
#X connect 6 0 8 0;
#X connect 6 1 7 0;
#X connect 7 0 5 0;
#X connect 8 0 5 0;
#X connect 10 0 2 0;
#X connect 11 0 12 0;
#X connect 12 0 19 0;
#X connect 12 1 19 0;
#X connect 12 2 10 0;
#X connect 12 3 17 0;
#X connect 13 0 14 0;
#X connect 14 0 16 0;
#X connect 14 1 16 0;
#X connect 14 2 15 0;
#X connect 14 3 15 0;
#X connect 15 0 6 0;
#X connect 16 0 6 0;
#X connect 17 0 18 0;
#X connect 17 1 0 0;
#X connect 18 0 1 0;
#X connect 19 0 1 0;
#X connect 20 0 10 0;
#X restore 36 211 pd clock.gui;
#N canvas 608 165 313 320 recorder 0;
#X obj 13 258 writesf~ 2;
#X obj 13 281 s~ \$0.dummy.1;
#X obj 98 281 s~ \$0.dummy.2;
#X obj 100 213 s \$0.signallevel;
#X obj 14 156 r~;
#X obj 71 158 r~;
#X msg 14 135 set \$1.1;
#X msg 71 135 set \$1.2;
#X obj 25 235 r \$0.writesf;
#X obj 14 27 sel 0 1;
#X obj 14 49 f \$0;
#X msg 14 71 symbol \$1.dummy;
#X msg 118 71 symbol mx;
#X obj 14 103 t a a;
#X obj 100 191 env~ 2048;
#X obj 14 5 r \$0.set.receive;
#X connect 4 0 0 0;
#X connect 4 0 14 0;
#X connect 5 0 0 1;
#X connect 5 0 14 0;
#X connect 6 0 4 0;
#X connect 7 0 5 0;
#X connect 8 0 0 0;
#X connect 9 0 10 0;
#X connect 9 1 12 0;
#X connect 10 0 11 0;
#X connect 11 0 13 0;
#X connect 12 0 13 0;
#X connect 13 0 6 0;
#X connect 13 1 7 0;
#X connect 14 0 3 0;
#X connect 15 0 9 0;
#X restore 36 140 pd recorder;
#N canvas 1145 198 324 476 mx.talk 0;
#X obj 20 190 s mx;
#X obj 20 212 r mx;
#X msg 20 164 getauxnum;
#X obj 20 234 route auxnum;
#X obj 20 137 t b b;
#X msg 127 232 0;
#X obj 140 453 s \$0.mx.ready;
#X msg 20 254 1;
#X obj 127 23 r UNPATCH;
#X obj 127 45 route closing closed loaded;
#X obj 20 416 s \$0.set.receive;
#X obj 20 288 t a a;
#X obj 140 429 spigot 1;
#X obj 202 129 r \$0.state;
#X obj 202 151 sel 0 1 2 3;
#X msg 249 211 0;
#X obj 34 69 r \$0.recheck.mx;
#X msg 202 215 1;
#X obj 20 15 r \$0.lb.2;
#X obj 140 286 t b a;
#X obj 140 356 f;
#X obj 140 308 del 0;
#X obj 140 330 del 0;
#X obj 34 91 t b b b;
#X obj 140 379 change -1;
#X obj 34 365 f;
#X obj 34 321 del 0;
#X obj 34 343 del 0;
#X connect 1 0 3 0;
#X connect 2 0 0 0;
#X connect 3 0 7 0;
#X connect 4 0 2 0;
#X connect 4 1 5 0;
#X connect 5 0 11 0;
#X connect 7 0 11 0;
#X connect 8 0 9 0;
#X connect 9 0 5 0;
#X connect 9 1 4 0;
#X connect 9 2 4 0;
#X connect 11 0 10 0;
#X connect 11 1 19 0;
#X connect 11 1 25 1;
#X connect 12 0 6 0;
#X connect 13 0 14 0;
#X connect 14 0 17 0;
#X connect 14 1 17 0;
#X connect 14 2 17 0;
#X connect 14 3 15 0;
#X connect 15 0 12 1;
#X connect 16 0 23 0;
#X connect 17 0 12 1;
#X connect 18 0 4 0;
#X connect 19 0 21 0;
#X connect 19 1 20 1;
#X connect 20 0 24 0;
#X connect 21 0 22 0;
#X connect 22 0 20 0;
#X connect 23 0 26 0;
#X connect 23 1 4 0;
#X connect 23 2 17 0;
#X connect 24 0 12 0;
#X connect 25 0 12 0;
#X connect 26 0 27 0;
#X connect 27 0 25 0;
#X restore 36 120 pd mx.talk;
#X obj 367 174 loadbang;
#X obj 367 196 t b b b b;
#X obj 418 217 s \$0.lb.1;
#X obj 401 237 s \$0.lb.2;
#X obj 384 257 s \$0.lb.3;
#X obj 367 278 s \$0.lb.4;
#X text 372 18 states;
#X text 373 29 ======;
#X text 369 56 0) mx not ready;
#X text 369 73 1) no file set;
#X text 369 90 2) ready for recording;
#X text 370 106 3) recording;
#N canvas 392 205 195 262 compose.colors 0;
#X obj 62 84 << 8;
#X obj 62 104 * -1;
#X obj 62 125 - 1;
#X obj 28 62 list split 1;
#X obj 28 149 list append;
#X obj 28 171 list trim;
#X obj 28 193 route on off;
#X obj 28 221 v \$0.on;
#X obj 76 221 v \$0.off;
#X msg 28 40 on 255 \, off 128;
#X obj 28 17 r \$0.lb.1;
#X connect 0 0 1 0;
#X connect 1 0 2 0;
#X connect 2 0 4 1;
#X connect 3 0 4 0;
#X connect 3 1 0 0;
#X connect 4 0 5 0;
#X connect 5 0 6 0;
#X connect 6 0 7 0;
#X connect 6 1 8 0;
#X connect 9 0 3 0;
#X connect 10 0 9 0;
#X restore 39 375 pd compose.colors;
#X text 364 154 ordered loadbangs;
#N canvas 618 390 729 369 logic 0;
#X obj 91 20 r \$0.mx.ready;
#X obj 602 19 r \$0.bytes;
#X obj 512 319 s \$0.writesf;
#X obj 375 196 r \$0.autostart;
#X obj 146 48 r \$0.rec;
#X obj 91 320 s \$0.state;
#X msg 148 263 2;
#X msg 177 263 3;
#X msg 91 263 0;
#X msg 119 263 1;
#X msg 573 282 start;
#X msg 620 283 stop;
#X obj 161 72 r \$0.state;
#X obj 146 97 f;
#X obj 146 120 sel 0 1 2 3;
#X obj 91 51 sel 0 1;
#X obj 161 184 s \$0.file.r;
#X obj 148 217 r \$0.file.set;
#X obj 148 239 sel 1;
#X obj 512 71 r \$0.file;
#X obj 512 148 symbol;
#X obj 512 176 pack s f;
#X msg 512 201 open -bytes \$2 \$1;
#X obj 602 41 t b a;
#X obj 617 61 r \$0.file.set;
#X obj 602 84 f;
#X obj 601 107 sel 1;
#X obj 573 227 r \$0.state;
#X obj 573 249 sel 3 1;
#X obj 330 83 sel 1;
#X obj 345 126 r \$0.state;
#X obj 330 147 f;
#X obj 330 169 sel 2;
#X obj 330 220 spigot 0;
#X obj 193 152 s \$0.recheck.mx;
#X obj 276 7 untik-clock-consumer \$1 \$2/clock \$0.clock.select;
#X obj 276 30 route run;
#X connect 0 0 15 0;
#X connect 1 0 23 0;
#X connect 3 0 33 1;
#X connect 4 0 13 0;
#X connect 6 0 5 0;
#X connect 7 0 5 0;
#X connect 8 0 5 0;
#X connect 9 0 5 0;
#X connect 10 0 2 0;
#X connect 11 0 2 0;
#X connect 12 0 13 1;
#X connect 13 0 14 0;
#X connect 14 1 16 0;
#X connect 14 2 7 0;
#X connect 14 3 34 0;
#X connect 15 0 8 0;
#X connect 15 1 9 0;
#X connect 17 0 18 0;
#X connect 18 0 6 0;
#X connect 19 0 20 0;
#X connect 20 0 21 0;
#X connect 21 0 22 0;
#X connect 22 0 2 0;
#X connect 23 0 25 0;
#X connect 23 1 21 1;
#X connect 24 0 25 1;
#X connect 25 0 26 0;
#X connect 26 0 20 0;
#X connect 27 0 28 0;
#X connect 28 0 10 0;
#X connect 28 1 11 0;
#X connect 29 0 31 0;
#X connect 30 0 31 1;
#X connect 31 0 32 0;
#X connect 32 0 33 0;
#X connect 33 0 7 0;
#X connect 35 0 36 0;
#X connect 36 0 29 0;
#X restore 189 189 pd logic;
#N canvas 830 402 252 91 NETPD 0;
#N canvas 893 253 378 56 ablist 0;
#X msg 25 10 untik-clock-consumer;
#X restore 24 38 pd ablist;
#X msg 19 9 version 0 1 0;
#X restore 184 19 pd NETPD 2 0;
#N canvas 1355 28 393 57 \$1-mx-recorder 0;
#X obj 5 8 cnv 15 381 38 empty empty sdafdsafdsa 20 12 0 14 #00fc04 #404040 0;
#X obj 7 10 cnv 15 377 34 empty empty empty 20 12 0 14 #000000 #404040 0;
#X obj 115 29 hsl 55 12 0 1 0 0 \$0.autostart.s \$0.autostart.r empty -2 -8 0 10 #fcfcfc #000000 #000000 0 1;
#X obj 111 28 cnv 12 62 14 empty empty empty 20 12 0 14 #00fc04 #404040 0;
#X obj 112 29 cnv 12 60 12 empty \$0.autostart.label autostart 3 6 0 10 #000000 #00ff00 0;
#X obj 9 12 bng 30 250 50 0 \$0.rec.s empty empty 17 7 0 10 #fcfcfc #000000 #000000;
#X obj 9 12 cnv 12 30 30 empty empty empty 20 12 0 14 #00fc04 #404040 0;
#X obj 10 13 cnv 15 28 28 empty \$0.rec.label ● 3 11 0 39 #000000 #008000 0;
#X obj 178 29 hsl 104 12 0 2.9999 0 0 \$0.bitrate.s empty empty -2 -8 0 10 #fcfcfc #000000 #000000 0 0;
#X obj 175 28 cnv 12 109 14 empty empty empty 20 12 0 14 #00fc04 #404040 0;
#X obj 176 29 cnv 12 35 12 empty \$0.16bit.r 16bit 3 6 0 10 #000000 #008000 0;
#X obj 212 29 cnv 12 35 12 empty \$0.24bit.r 24bit 3 6 0 10 #000000 #00ff00 0;
#X obj 248 29 cnv 12 35 12 empty \$0.32bit.r 32bit 3 6 0 10 #000000 #008000 0;
#X obj 44 12 hsl 336 14 0 1 0 0 \$0.file.s \$0.file.r empty -2 -8 0 10 #fcfcfc #000000 #000000 0 1;
#X obj 41 12 cnv 12 341 14 empty empty empty 20 12 0 14 #00fc04 #404040 0;
#X obj 42 13 cnv 12 339 12 empty \$0.file.label <select_file> 3 6 0 10 #000000 #008000 0;
#X obj 286 28 cnv 12 80 14 empty empty empty 20 12 0 14 #00fc04 #404040 0;
#X obj 287 29 cnv 12 78 12 empty \$0.clock.label 00:00:00.000 3 6 0 10 #000000 #008000 0;
#X obj 368 28 cnv 12 14 14 empty empty empty 20 12 0 14 #00fc04 #404040 0;
#X obj 369 29 cnv 12 12 12 empty \$0.indicator ● 2 5 0 15 #000000 #000000 0;
#X obj 41 28 netpd-gui-dropdown \$0.clock.select 68 14 10 80 80 0 0 555 887;
#X restore 24 26 pd \$1-mx-recorder;
#X connect 8 0 9 0;
#X connect 9 0 13 0;
#X connect 9 1 12 0;
#X connect 9 2 11 0;
#X connect 9 3 10 0;
