#N canvas 734 295 460 316 10;
#N canvas 1064 139 231 103 NETPD 0;
#X msg 14 17 version 0 0 1;
#X restore 111 12 pd NETPD 2 0;
#X obj 12 64 inlet~;
#X obj 111 67 inlet~;
#X obj 11 240 outlet~;
#X obj 111 240 outlet~;
#N canvas 1062 407 241 104 \$3-mx-slots 0;
#X obj 8 10 mx-insert-gui \$1 \$2/1;
#X obj 8 39 mx-insert-gui \$1 \$2/2;
#X obj 8 68 mx-insert-gui \$1 \$2/3;
#X text 81 16 mx-slots;
#X restore 7 12 pd \$3-mx-slots;
#X obj 12 112 mx-insert-container \$1 \$2/insert/1;
#X obj 12 155 mx-insert-container \$1 \$2/insert/2;
#X obj 12 200 mx-insert-container \$1 \$2/insert/3;
#X obj 213 89 mx-insert-control \$1 \$2/1;
#X obj 213 133 mx-insert-control \$1 \$2/2;
#X obj 213 178 mx-insert-control \$1 \$2/3;
#X connect 1 0 6 0;
#X connect 2 0 6 1;
#X connect 6 0 7 0;
#X connect 6 1 7 1;
#X connect 7 0 8 0;
#X connect 7 1 8 1;
#X connect 8 0 3 0;
#X connect 8 1 4 0;
#X connect 9 0 6 2;
#X connect 10 0 7 2;
#X connect 11 0 8 2;
