#N canvas 734 295 645 316 10;
#N canvas 1064 172 231 103 NETPD 0;
#X msg 14 17 version 0 0 2;
#X restore 111 12 pd NETPD 2 0;
#X obj 12 64 inlet~;
#X obj 136 67 inlet~;
#X obj 11 240 outlet~;
#X obj 136 240 outlet~;
#X obj 212 254 netpd-bus-order \$1 \$0/1 \$0/2;
#X obj 261 89 mx-insert-control \$1/\$0/1 \$2/1;
#X obj 261 133 mx-insert-control \$1/\$0/1 \$2/2;
#X obj 261 178 mx-insert-control \$1/\$0/1 \$2/3;
#X obj 12 112 mx-insert-container \$1/\$0/2 \$2/insert/1 \$3;
#X obj 12 155 mx-insert-container \$1/\$0/2 \$2/insert/2 \$3;
#X obj 12 200 mx-insert-container \$1/\$0/2 \$2/insert/3 \$3;
#N canvas 1062 473 241 104 \$3-\$2 1;
#X obj 8 10 mx-insert-gui \$1/\$0/1 \$2/1;
#X obj 8 39 mx-insert-gui \$1/\$0/1 \$2/2;
#X obj 8 68 mx-insert-gui \$1/\$0/1 \$2/3;
#X text 81 16 mx-slots;
#X restore 7 12 pd \$3-\$2;
#X connect 1 0 9 0;
#X connect 2 0 9 1;
#X connect 6 0 9 2;
#X connect 7 0 10 2;
#X connect 8 0 11 2;
#X connect 9 0 10 0;
#X connect 9 1 10 1;
#X connect 10 0 11 0;
#X connect 10 1 11 1;
#X connect 11 0 3 0;
#X connect 11 1 4 0;
