#N canvas 486 154 295 293 10;
#X obj 17 12 inlet~;
#X obj 93 120 rmstodb;
#N canvas 1064 380 198 399 inertia 0;
#X msg 96 111 0;
#X obj 15 140 f;
#X obj 55 141 + 1;
#X obj 69 85 t a b;
#X obj 15 248 f;
#X obj 49 249 * 0.5;
#X obj 15 12 inlet;
#X obj 15 313 outlet;
#X obj 15 37 t b a;
#X obj 42 61 moses;
#X obj 15 270 t a a;
#X obj 139 196 t a;
#X obj 15 175 t b a;
#N canvas 590 409 162 222 magic 0;
#X obj 26 17 inlet;
#X obj 26 179 outlet;
#X msg 26 112 1 \$1;
#X obj 26 134 -;
#X obj 26 158 max 0.9;
#X obj 26 62 max 0;
#X obj 26 41 - 15;
#X obj 26 88 * 0.002;
#X connect 0 0 6 0;
#X connect 2 0 3 0;
#X connect 3 0 4 0;
#X connect 4 0 1 0;
#X connect 5 0 7 0;
#X connect 6 0 5 0;
#X connect 7 0 2 0;
#X restore 54 205 pd magic;
#X connect 0 0 1 1;
#X connect 1 0 2 0;
#X connect 1 0 12 0;
#X connect 2 0 1 1;
#X connect 3 0 4 1;
#X connect 3 1 0 0;
#X connect 4 0 5 0;
#X connect 4 0 10 0;
#X connect 5 0 4 1;
#X connect 6 0 8 0;
#X connect 8 0 1 0;
#X connect 8 1 9 0;
#X connect 9 1 3 0;
#X connect 10 0 7 0;
#X connect 10 1 11 0;
#X connect 11 0 9 1;
#X connect 12 0 4 0;
#X connect 12 1 13 0;
#X connect 13 0 5 1;
#X restore 93 98 pd inertia;
#N canvas 603 216 325 344 peak_per_block 0;
#X obj 17 32 tabsend~ \$0.peak;
#X obj 17 63 bang~;
#X obj 17 216 outlet;
#X obj 17 10 inlet~;
#X obj 162 32 block~ 2048 1 1;
#X obj 160 12 table \$0.peak 2048;
#X obj 17 125 array max \$0.peak;
#X obj 129 126 array min \$0.peak;
#X obj 129 148 * -1;
#X obj 17 84 t b b;
#X obj 17 183 max;
#X connect 1 0 9 0;
#X connect 3 0 0 0;
#X connect 6 0 10 0;
#X connect 7 0 8 0;
#X connect 8 0 10 1;
#X connect 9 0 6 0;
#X connect 9 1 7 0;
#X connect 10 0 2 0;
#X restore 93 56 pd peak_per_block;
#X obj 16 244 outlet;
#X obj 16 84 - 100;
#X obj 16 62 env~ 4096;
#X obj 16 106 t b a;
#X obj 93 142 - 100;
#X obj 16 181 pack f f;
#X obj 16 152 f;
#X obj 16 128 del 0;
#N canvas 690 227 211 142 NETPD 0;
#X msg 9 15 version 0 1 2;
#X restore 161 16 pd NETPD 2 0;
#N canvas 154 314 158 285 overdrive 0;
#X obj 15 43 > 1;
#X obj 15 65 sel 1;
#X msg 43 109 0;
#X msg 15 100 1;
#X obj 15 132 change;
#X obj 15 154 sel 1 0;
#X msg 75 176 64 64 64;
#X msg 15 228 color \$1 -1;
#X obj 15 202 netpd-rgb2iem;
#X msg 15 176 200 0 0;
#X obj 43 89 del 300;
#X obj 15 16 inlet;
#X obj 15 250 outlet;
#X connect 0 0 1 0;
#X connect 1 0 3 0;
#X connect 1 0 10 0;
#X connect 2 0 4 0;
#X connect 3 0 4 0;
#X connect 4 0 5 0;
#X connect 5 0 9 0;
#X connect 5 1 6 0;
#X connect 6 0 8 0;
#X connect 7 0 12 0;
#X connect 8 0 7 0;
#X connect 9 0 8 0;
#X connect 10 0 2 0;
#X connect 11 0 0 0;
#X restore 171 163 pd overdrive;
#X connect 0 0 3 0;
#X connect 0 0 6 0;
#X connect 1 0 8 0;
#X connect 2 0 1 0;
#X connect 3 0 2 0;
#X connect 3 0 13 0;
#X connect 5 0 7 0;
#X connect 6 0 5 0;
#X connect 7 0 11 0;
#X connect 7 1 10 1;
#X connect 8 0 9 1;
#X connect 9 0 4 0;
#X connect 10 0 9 0;
#X connect 11 0 10 0;
#X connect 13 0 4 0;
