#N canvas 30 385 318 218 10;
#X obj 21 62 inlet~;
#X obj 115 63 inlet;
#X obj 22 115 outlet~;
#X text 19 174 Published under the GNU Public License;
#N canvas 358 209 408 158 communication 0;
#X obj 17 17 loadbang;
#X obj 17 45 \$1;
#X msg 17 70 create_tables \$1;
#X obj 17 92 s NBLSQUARE;
#X obj 149 21 unpatch-singleton nblsquare_tables;
#X connect 0 0 1 0;
#X connect 1 0 2 0;
#X connect 2 0 3 0;
#X restore 24 22 pd communication;
#N canvas 0 0 655 649 oscillator~ 0;
#N canvas 314 100 514 407 number_of_harmonics_allowed 0;
#X obj 135 68 / 2;
#X obj 15 151 /;
#X obj 15 174 int;
#X obj 135 44 samplerate~;
#X obj 15 241 * 0.5;
#X obj 15 261 int;
#X obj 15 282 * 2;
#X obj 15 221 - 1;
#X obj 15 305 + 1;
#X obj 15 328 change;
#X obj 15 199 change;
#X obj 15 98 t b f;
#X text 241 49 sr / 2 = nyquist frequency;
#X obj 15 353 outlet;
#X obj 14 18 inlet~;
#X obj 15 121 f;
#X obj 135 21 loadbang;
#X text 119 216 harmonics never should exceed the nyquist frequency
;
#X obj 15 49 snapshot~;
#X obj 78 21 bang~;
#X obj 15 72 change;
#X connect 0 0 15 1;
#X connect 1 0 2 0;
#X connect 2 0 10 0;
#X connect 3 0 0 0;
#X connect 4 0 5 0;
#X connect 5 0 6 0;
#X connect 6 0 8 0;
#X connect 7 0 4 0;
#X connect 8 0 9 0;
#X connect 9 0 13 0;
#X connect 10 0 7 0;
#X connect 11 0 15 0;
#X connect 11 1 1 1;
#X connect 14 0 18 0;
#X connect 15 0 1 0;
#X connect 16 0 3 0;
#X connect 18 0 20 0;
#X connect 19 0 18 0;
#X connect 20 0 11 0;
#X restore 150 113 pd number_of_harmonics_allowed;
#N canvas 499 174 190 222 raw_square 0;
#X obj 19 13 inlet~;
#X obj 19 180 outlet~;
#X obj 102 18 inlet;
#X obj 102 43 switch~;
#X obj 19 122 -~;
#X obj 19 48 -~ 0.5;
#X obj 18 76 wrap~;
#X obj 18 99 -~ 0.5;
#X obj 19 148 *~ 2;
#X connect 0 0 5 0;
#X connect 2 0 3 0;
#X connect 4 0 8 0;
#X connect 5 0 6 0;
#X connect 5 0 4 1;
#X connect 6 0 7 0;
#X connect 7 0 4 0;
#X connect 8 0 1 0;
#X restore 29 404 pd raw_square;
#N canvas 0 0 448 226 bandlimited_square 0;
#X obj 16 31 inlet~;
#X obj 71 33 inlet;
#X obj 261 34 inlet;
#X obj 17 192 outlet~;
#X msg 71 96 set \$1;
#X obj 261 124 switch~;
#X obj 347 36 inlet;
#X text 69 14 choose table;
#X text 346 17 set phase;
#X text 256 14 switch dsp;
#X obj 17 134 tabosc4~;
#X obj 71 71 makefilename NBLSQUARE%d;
#X connect 0 0 10 0;
#X connect 1 0 11 0;
#X connect 2 0 5 0;
#X connect 4 0 10 0;
#X connect 6 0 10 1;
#X connect 10 0 3 0;
#X connect 11 0 4 0;
#X restore 155 405 pd bandlimited_square;
#X obj 166 192 * 2;
#X obj 297 374 snapshot~;
#X obj 150 143 t f f f;
#X obj 202 273 == 0;
#X obj 202 377 f;
#X obj 202 356 sel 1;
#X obj 249 319 change;
#X obj 297 348 sel 1;
#X obj 548 178 inlet;
#X text 550 151 phase;
#X text 350 346 sync phase \, when switching dsp on;
#X text 188 221 switch to raw square \, when number of allowed harmonics
exceeds num_of_tables*2;
#X msg 397 69 get_num_of_tables;
#X obj 397 132 route num_of_tables;
#X obj 397 11 loadbang;
#X obj 29 272 phasor~;
#X text 185 81 get the number of tables ->;
#X obj 150 223 >;
#X obj 30 7 inlet~;
#X obj 28 456 outlet~;
#X text 33 494 number of harmononics;
#X text 32 512 without exceeding nyquist;
#X text 31 531 at given frequeny:;
#X text 251 520 best method:;
#X text 245 595 raw square;
#X text 246 563 bandlimited square;
#X text 227 496 |;
#X text 227 505 |;
#X text 227 514 |;
#X text 227 523 |;
#X text 227 533 |;
#X text 227 542 |;
#X text 227 551 |;
#X text 227 560 |;
#X text 227 567 |;
#X text 227 576 |;
#X text 227 585 |;
#X text 227 594 |;
#X text 227 604 |;
#X text 25 541 __________________________________________________;
#X text 25 575 __________________________________________________;
#X text 40 596 n > num_of_tables*2;
#X text 32 565 0 < n < num_of_tables*2;
#X obj 397 42 del 0;
#X obj 397 91 s NBLSQUARE;
#X obj 397 111 r NBLSQUARE;
#X connect 0 0 5 0;
#X connect 1 0 22 0;
#X connect 2 0 22 0;
#X connect 3 0 20 1;
#X connect 4 0 2 3;
#X connect 5 0 20 0;
#X connect 5 1 7 1;
#X connect 6 0 8 0;
#X connect 6 0 9 0;
#X connect 7 0 2 1;
#X connect 8 0 7 0;
#X connect 9 0 10 0;
#X connect 9 0 2 2;
#X connect 10 0 4 0;
#X connect 11 0 2 3;
#X connect 11 0 18 1;
#X connect 15 0 47 0;
#X connect 16 0 3 0;
#X connect 17 0 46 0;
#X connect 18 0 1 0;
#X connect 18 0 4 0;
#X connect 20 0 1 1;
#X connect 20 0 6 0;
#X connect 21 0 18 0;
#X connect 21 0 0 0;
#X connect 21 0 2 0;
#X connect 46 0 15 0;
#X connect 48 0 16 0;
#X restore 22 89 pd oscillator~;
#X text 137 151 Author: Roman Haefeli;
#N canvas 442 181 450 300 NETPD 0;
#N canvas 578 323 192 83 abslist 0;
#X msg 17 12 nblsquare_tables;
#X restore 18 24 pd abslist;
#X msg 17 53 version 0 3 0;
#X restore 201 45 pd NETPD;
#X connect 0 0 5 0;
#X connect 1 0 5 1;
#X connect 5 0 2 0;
