#N canvas 151 103 431 236 10;
#N canvas 555 327 585 452 lookup-table-creation 0;
#N canvas 535 94 265 461 bandlimited_square_sinesum 0;
#X obj 43 67 until;
#X obj 21 38 t b f b;
#X obj 84 67 1;
#X obj 43 99 f 1;
#X obj 84 99 + 1;
#X obj 43 125 t f f;
#X obj 43 153 % 2;
#X obj 43 176 sel 0 1;
#X obj 43 203 0;
#X obj 69 203 f;
#X obj 69 227 t b f;
#X obj 69 249 pack 1 f;
#X obj 69 274 /;
#X obj 43 334 list prepend;
#X obj 142 335 list;
#X obj 21 363 list;
#X obj 154 252 b;
#X obj 21 408 list trim;
#X obj 21 16 inlet;
#X obj 21 430 outlet;
#X obj 21 386 list prepend sinesum 512;
#X obj 69 299 * 1.27324;
#X text 145 298 = 4 / pi;
#X connect 0 0 3 0;
#X connect 1 0 15 0;
#X connect 1 1 0 0;
#X connect 1 2 2 0;
#X connect 1 2 16 0;
#X connect 2 0 3 1;
#X connect 3 0 4 0;
#X connect 3 0 5 0;
#X connect 4 0 3 1;
#X connect 5 0 6 0;
#X connect 5 1 9 1;
#X connect 6 0 7 0;
#X connect 7 0 8 0;
#X connect 7 1 9 0;
#X connect 8 0 13 0;
#X connect 9 0 10 0;
#X connect 10 0 11 0;
#X connect 10 1 11 1;
#X connect 11 0 12 0;
#X connect 12 0 21 0;
#X connect 13 0 14 0;
#X connect 13 0 15 1;
#X connect 14 0 13 1;
#X connect 15 0 20 0;
#X connect 16 0 15 1;
#X connect 16 0 13 1;
#X connect 17 0 19 0;
#X connect 18 0 1 0;
#X connect 20 0 17 0;
#X connect 21 0 13 0;
#X restore 19 350 pd bandlimited_square_sinesum;
#X obj 19 88 + 1;
#X obj 19 136 * 2;
#X obj 84 253 pack f s;
#X obj 84 225 * 10;
#X obj 19 190 t b f f;
#X obj 19 315 f;
#X obj 19 382 send;
#X msg 84 282 obj 10 \$1 table \$2 515;
#X text 245 6 for synthesizing a square only odd numbers of harmonics
;
#X text 249 20 occur. ( 1 \, 3 \, 5 \, 7 \, etc.);
#X text 286 282 create the necessary tables;
#X text 242 347 fill each table with the appropriate sinesum \,;
#X text 241 365 respectively the appropriate number of harmonics.;
#X obj 19 6 r \$0-create_tables;
#X obj 135 226 makefilename NBLSQUARE%d;
#X obj 84 304 s pd-lookup-tables-nsquare;
#X obj 19 31 netpd-nb-until;
#X obj 152 118 route get_num_of_tables;
#X msg 152 164 num_of_tables \$1;
#X obj 152 142 f;
#X obj 152 96 r NBLSQUARE;
#X obj 152 186 s NBLSQUARE;
#X obj 19 109 t a a a, f 18;
#X obj 144 15 r \$0.reset;
#X msg 144 38 0;
#X obj 19 65 f 0;
#X obj 19 159 - 1;
#X connect 0 0 7 0;
#X connect 1 0 23 0;
#X connect 2 0 27 0;
#X connect 3 0 8 0;
#X connect 4 0 3 0;
#X connect 5 0 6 0;
#X connect 5 1 4 0;
#X connect 5 2 6 1;
#X connect 5 2 15 0;
#X connect 6 0 0 0;
#X connect 8 0 16 0;
#X connect 14 0 17 0;
#X connect 15 0 3 1;
#X connect 15 0 7 1;
#X connect 17 1 26 0;
#X connect 18 0 20 0;
#X connect 19 0 22 0;
#X connect 20 0 19 0;
#X connect 21 0 18 0;
#X connect 23 0 2 0;
#X connect 23 1 26 1;
#X connect 23 2 20 0;
#X connect 24 0 25 0;
#X connect 25 0 26 1;
#X connect 26 0 1 0;
#X connect 27 0 5 0;
#X restore 20 58 pd lookup-table-creation;
#X text 22 200 published under the GNU Public License.;
#N canvas 406 103 401 288 communication 0;
#X obj 261 45 route areyouthere;
#X msg 261 67 iamthere 1;
#X obj 33 48 route create_tables;
#X obj 261 89 s NBLSQUARE;
#X obj 261 21 r NBLSQUARE;
#X obj 33 18 r NBLSQUARE;
#X obj 74 193 s \$0-create_tables;
#X obj 35 164 moses 0;
#X obj 33 106 t a a;
#X obj 35 135 -;
#X obj 99 90 r \$0.reset;
#X msg 99 113 0;
#X floatatom 7 74 5 0 0 0 - - -;
#X connect 0 0 1 0;
#X connect 1 0 3 0;
#X connect 2 0 8 0;
#X connect 4 0 0 0;
#X connect 5 0 2 0;
#X connect 7 1 6 0;
#X connect 8 0 9 1;
#X connect 8 1 9 0;
#X connect 9 0 7 0;
#X connect 10 0 11 0;
#X connect 11 0 9 1;
#X connect 12 0 8 0;
#X restore 20 19 pd communication;
#N canvas 600 163 291 676 lookup-tables-nsquare 0;
#X restore 20 86 pd lookup-tables-nsquare;
#X text 21 177 Author: Roman Haefeli;
#N canvas 776 309 165 117 NETPD 0;
#X msg -10 22 version 0 3 2;
#X restore 21 123 pd NETPD;
#X obj 209 39 s \$0.reset;
#X obj 209 17 bng 15 250 50 0 empty empty empty 17 7 0 10 -262144 -1
-1;
#X obj 210 128 s pd-lookup-tables-nsquare;
#X obj 210 80 r \$0.reset;
#X msg 210 103 clear;
#X connect 7 0 6 0;
#X connect 9 0 10 0;
#X connect 10 0 8 0;
