#N canvas 356 315 331 236 10;
#N canvas 334 143 590 361 lookup-table-creation 0;
#X obj 12 56 until;
#X obj 47 78 + 1;
#X obj 77 206 pack f s;
#X obj 12 109 t b f f;
#X obj 12 268 f;
#X obj 12 335 send;
#X msg 77 235 obj 10 \$1 table \$2 515;
#X text 195 13 get number of tables to create;
#X text 270 228 create the necessary tables;
#X text 235 300 fill each table with the appropriate sinesum \,;
#X text 234 318 respectively the appropriate number of harmonics.;
#N canvas 535 94 218 342 bandlimited_saw_sinesum 0;
#X obj 43 67 until;
#X obj 21 38 t b f b;
#X obj 84 67 1;
#X obj 43 99 f 1;
#X obj 84 99 + 1;
#X obj 43 194 list prepend;
#X obj 154 195 list;
#X obj 21 233 list;
#X obj 135 129 b;
#X obj 21 278 list trim;
#X obj 21 16 inlet;
#X obj 21 300 outlet;
#X obj 21 256 list prepend sinesum 512;
#X obj 43 143 pow -1;
#X obj 43 167 * 0.63662;
#X text 120 167 = 2 / pi;
#X connect 0 0 3 0;
#X connect 1 0 7 0;
#X connect 1 1 0 0;
#X connect 1 2 2 0;
#X connect 1 2 8 0;
#X connect 2 0 3 1;
#X connect 3 0 4 0;
#X connect 3 0 13 0;
#X connect 4 0 3 1;
#X connect 5 0 6 0;
#X connect 5 0 7 1;
#X connect 6 0 5 1;
#X connect 7 0 12 0;
#X connect 8 0 7 1;
#X connect 8 0 5 1;
#X connect 9 0 11 0;
#X connect 10 0 1 0;
#X connect 12 0 9 0;
#X connect 13 0 14 0;
#X connect 14 0 5 0;
#X restore 12 303 pd bandlimited_saw_sinesum;
#X obj 77 178 * 20;
#X obj 12 78 f 1;
#X obj 12 22 r \$0-create_tables;
#X obj 128 179 makefilename NBLSAW%d;
#X obj 77 257 s pd-lookup-tables-nsaw;
#X connect 0 0 13 0;
#X connect 1 0 13 1;
#X connect 2 0 6 0;
#X connect 3 0 4 0;
#X connect 3 1 12 0;
#X connect 3 2 4 1;
#X connect 3 2 15 0;
#X connect 4 0 11 0;
#X connect 6 0 16 0;
#X connect 11 0 5 0;
#X connect 12 0 2 0;
#X connect 13 0 1 0;
#X connect 13 0 3 0;
#X connect 14 0 0 0;
#X connect 15 0 2 1;
#X connect 15 0 5 1;
#X restore 20 49 pd lookup-table-creation;
#N canvas 406 58 398 466 communication 0;
#X obj 261 45 route areyouthere;
#X msg 261 67 iamthere 1;
#X obj 33 43 route create_tables;
#X obj 100 214 -;
#X obj 144 269 s \$0-create_tables;
#X obj 33 71 t f f;
#X obj 33 131 >;
#X obj 33 154 sel 1;
#X obj 33 105 t f f;
#X obj 33 180 f;
#X obj 100 244 moses 0;
#X obj 37 319 route get_num_of_tables;
#X msg 37 365 num_of_tables \$1;
#X obj 37 343 f;
#X obj 37 297 r NBLSAW;
#X obj 37 387 s NBLSAW;
#X obj 33 18 r NBLSAW;
#X obj 261 21 r NBLSAW;
#X obj 261 89 s NBLSAW;
#X connect 0 0 1 0;
#X connect 1 0 18 0;
#X connect 2 0 5 0;
#X connect 3 0 10 0;
#X connect 5 0 8 0;
#X connect 5 1 3 0;
#X connect 6 0 7 0;
#X connect 7 0 9 0;
#X connect 8 0 6 0;
#X connect 8 1 9 1;
#X connect 9 0 3 1;
#X connect 9 0 6 1;
#X connect 9 0 13 1;
#X connect 10 1 4 0;
#X connect 11 0 13 0;
#X connect 12 0 15 0;
#X connect 13 0 12 0;
#X connect 14 0 11 0;
#X connect 16 0 2 0;
#X connect 17 0 0 0;
#X restore 20 19 pd communication;
#N canvas 446 0 291 900 lookup-tables-nsaw 0;
#X restore 20 77 pd lookup-tables-nsaw;
#X text 22 200 published under the GNU Public License.;
#X text 21 177 Author: Roman Haefeli;
#N canvas 486 142 234 133 NETPD 0;
#X msg 9 16 version 0 3 0;
#X restore 21 112 pd NETPD;
