#N canvas 322 75 315 243 10;
#N canvas 0 0 626 647 oscilllator~ 0;
#N canvas 314 100 514 407 number_of_harmonics_allowed 0;
#X obj 135 68 / 2;
#X obj 15 151 /;
#X obj 15 174 int;
#X obj 135 44 samplerate~;
#X obj 15 241 * 0.5;
#X obj 15 261 int;
#X obj 15 282 * 2;
#X obj 15 221 - 1;
#X obj 15 305 + 1;
#X obj 15 328 change;
#X obj 15 199 change;
#X obj 15 98 t b f;
#X text 241 49 sr / 2 = nyquist frequency;
#X obj 15 353 outlet;
#X obj 14 18 inlet~;
#X obj 15 121 f;
#X obj 135 21 loadbang;
#X text 119 216 harmonics never should exceed the nyquist frequency
;
#X obj 15 49 snapshot~;
#X obj 78 21 bang~;
#X obj 15 72 change;
#X connect 0 0 15 1;
#X connect 1 0 2 0;
#X connect 2 0 10 0;
#X connect 3 0 0 0;
#X connect 4 0 5 0;
#X connect 5 0 6 0;
#X connect 6 0 8 0;
#X connect 7 0 4 0;
#X connect 8 0 9 0;
#X connect 9 0 13 0;
#X connect 10 0 7 0;
#X connect 11 0 15 0;
#X connect 11 1 1 1;
#X connect 14 0 18 0;
#X connect 15 0 1 0;
#X connect 16 0 3 0;
#X connect 18 0 20 0;
#X connect 19 0 18 0;
#X connect 20 0 11 0;
#X restore 161 113 pd number_of_harmonics_allowed;
#X obj 40 33 inlet~;
#X obj 39 463 outlet~;
#X obj 177 192 * 2;
#X obj 322 360 snapshot~;
#X obj 161 143 t f f f;
#X obj 218 273 == 0;
#X obj 218 377 f;
#X obj 218 356 sel 1;
#X obj 270 302 change;
#X obj 322 334 sel 1;
#X text 33 494 number of harmononics;
#X text 32 512 without exceeding nyquist;
#X text 31 531 at given frequeny:;
#X text 251 520 best method:;
#X obj 559 178 inlet;
#X text 565 150 phase;
#X text 375 332 sync phase \, when switching dsp on;
#X text 199 221 switch to raw square \, when number of allowed harmonics
exceeds num_of_tables*2;
#X msg 408 69 get_num_of_tables;
#X obj 408 132 route num_of_tables;
#X obj 408 20 loadbang;
#X obj 40 272 phasor~;
#X text 196 81 get the number of tables ->;
#X text 227 496 |;
#X text 227 505 |;
#X text 227 514 |;
#X text 227 523 |;
#X text 227 533 |;
#X text 227 542 |;
#X text 227 551 |;
#X text 227 560 |;
#X text 227 567 |;
#X text 227 576 |;
#X text 227 585 |;
#X text 227 594 |;
#X text 227 604 |;
#X text 25 541 __________________________________________________;
#X text 25 575 __________________________________________________;
#X obj 161 223 >;
#X text 40 596 n > num_of_tables*2;
#X text 32 565 0 < n < num_of_tables*2;
#N canvas 499 174 200 210 raw_triangle 0;
#X obj 19 13 inlet~;
#X obj 18 159 outlet~;
#X obj 102 18 inlet;
#X obj 102 43 switch~;
#X obj 43 41 *~ -1;
#X obj 43 63 +~ 1;
#X obj 19 86 min~;
#X obj 18 110 *~ 4;
#X obj 18 136 -~ 1;
#X connect 0 0 6 0;
#X connect 0 0 4 0;
#X connect 2 0 3 0;
#X connect 4 0 5 0;
#X connect 5 0 6 1;
#X connect 6 0 7 0;
#X connect 7 0 8 0;
#X connect 8 0 1 0;
#X restore 40 411 pd raw_triangle;
#N canvas 0 0 448 226 bandlimited_triangle 0;
#X obj 16 31 inlet~;
#X obj 71 33 inlet;
#X obj 261 34 inlet;
#X obj 17 192 outlet~;
#X msg 71 96 set \$1;
#X obj 261 124 switch~;
#X obj 347 36 inlet;
#X text 69 14 choose table;
#X text 346 17 set phase;
#X text 256 14 switch dsp;
#X obj 17 134 tabosc4~;
#X obj 71 71 makefilename NBLTRIANGLE%d;
#X connect 0 0 10 0;
#X connect 1 0 11 0;
#X connect 2 0 5 0;
#X connect 4 0 10 0;
#X connect 6 0 10 1;
#X connect 10 0 3 0;
#X connect 11 0 4 0;
#X restore 166 412 pd bandlimited_triangle;
#X text 246 563 bandlimited triangle;
#X text 245 595 raw triangle;
#X obj 84 247 + 0.25;
#X obj 322 385 + 0.75;
#X obj 408 45 del 0;
#X obj 408 91 s NBLTRIANGLE;
#X obj 408 111 r NBLTRIANGLE;
#X connect 0 0 5 0;
#X connect 1 0 43 0;
#X connect 1 0 0 0;
#X connect 1 0 22 0;
#X connect 3 0 39 1;
#X connect 4 0 47 0;
#X connect 5 0 39 0;
#X connect 5 1 7 1;
#X connect 6 0 8 0;
#X connect 6 0 9 0;
#X connect 7 0 43 1;
#X connect 8 0 7 0;
#X connect 9 0 10 0;
#X connect 9 0 43 2;
#X connect 10 0 4 0;
#X connect 15 0 43 3;
#X connect 15 0 46 0;
#X connect 19 0 49 0;
#X connect 20 0 3 0;
#X connect 21 0 48 0;
#X connect 22 0 42 0;
#X connect 22 0 4 0;
#X connect 39 0 42 1;
#X connect 39 0 6 0;
#X connect 42 0 2 0;
#X connect 43 0 2 0;
#X connect 46 0 22 1;
#X connect 47 0 43 3;
#X connect 48 0 19 0;
#X connect 50 0 20 0;
#X restore 18 87 pd oscilllator~;
#X obj 17 56 inlet~;
#X obj 118 59 inlet;
#X obj 17 115 outlet~;
#X text 19 176 Published under the GNU Public License;
#N canvas 683 202 384 131 communication 0;
#X obj 17 17 loadbang;
#X obj 17 40 \$1;
#X msg 17 63 create_tables \$1;
#X obj 17 85 s NBLTRIANGLE;
#X obj 126 21 unpatch-singleton nbltriangle_tables;
#X connect 0 0 1 0;
#X connect 1 0 2 0;
#X connect 2 0 3 0;
#X restore 18 20 pd communication;
#X text 136 151 Author: Roman Haefeli;
#N canvas 657 100 250 103 NETPD 0;
#N canvas 578 379 192 83 abslist 0;
#X msg 17 12 nbltriangle_tables;
#X restore 12 11 pd abslist;
#X msg 12 35 version 0 3 0;
#X restore 206 38 pd NETPD;
#X connect 0 0 3 0;
#X connect 1 0 0 0;
#X connect 2 0 0 1;
