#N canvas 405 125 312 244 10;
#N canvas 555 327 597 387 lookup-table-creation 0;
#X obj 22 67 until;
#X obj 57 89 + 1;
#X obj 22 110 * 2;
#X obj 22 132 - 1;
#X obj 87 217 pack f s;
#X msg 143 142 clear;
#X obj 87 189 * 10;
#X obj 22 154 t b f f;
#X obj 22 279 f;
#X obj 22 346 send;
#X msg 87 246 obj 10 \$1 table \$2 515;
#X text 138 103 occur. ( 1 \, 3 \, 5 \, 7 \, etc.);
#X text 289 246 create the necessary tables;
#X text 245 311 fill each table with the appropriate sinesum \,;
#X text 244 329 respectively the appropriate number of harmonics.;
#N canvas 535 94 364 553 bandlimited_triangle_sinesum 0;
#X obj 43 67 until;
#X obj 21 38 t b f b;
#X obj 84 67 1;
#X obj 43 99 f 1;
#X obj 43 415 list prepend;
#X obj 142 416 list;
#X obj 21 444 list;
#X obj 21 489 list trim;
#X obj 21 16 inlet;
#X obj 21 511 outlet;
#X obj 21 467 list prepend sinesum 512;
#X obj 191 274 b;
#X obj 83 99 + 1;
#X obj 43 175 sel 0 1;
#X obj 43 200 0;
#X obj 70 201 f;
#X obj 43 125 t f f;
#X obj 43 151 mod 2;
#X obj 100 245 mod 4;
#X obj 70 222 t f f;
#X obj 100 267 sel 3;
#X obj 136 290 b;
#X obj 100 290 -1;
#X obj 136 312 1;
#X obj 70 323 pow -2;
#X obj 70 349 *;
#X obj 70 376 * 0.810571;
#X text 163 375 = 8 / (pi^2);
#X connect 0 0 3 0;
#X connect 1 0 6 0;
#X connect 1 1 0 0;
#X connect 1 2 2 0;
#X connect 1 2 11 0;
#X connect 2 0 3 1;
#X connect 3 0 12 0;
#X connect 3 0 16 0;
#X connect 4 0 5 0;
#X connect 4 0 6 1;
#X connect 5 0 4 1;
#X connect 6 0 10 0;
#X connect 7 0 9 0;
#X connect 8 0 1 0;
#X connect 10 0 7 0;
#X connect 11 0 6 1;
#X connect 11 0 4 1;
#X connect 12 0 3 1;
#X connect 13 0 14 0;
#X connect 13 1 15 0;
#X connect 14 0 4 0;
#X connect 15 0 19 0;
#X connect 16 0 17 0;
#X connect 16 1 15 1;
#X connect 17 0 13 0;
#X connect 18 0 20 0;
#X connect 19 0 24 0;
#X connect 19 1 18 0;
#X connect 20 0 22 0;
#X connect 20 1 21 0;
#X connect 21 0 23 0;
#X connect 22 0 25 1;
#X connect 23 0 25 1;
#X connect 24 0 25 0;
#X connect 25 0 26 0;
#X connect 26 0 4 0;
#X restore 22 314 pd bandlimited_triangle_sinesum;
#X text 138 86 for synthesizing a triangle only odd numbered of harmonics
;
#X obj 87 282 s pd-lookup-tables-ntriangle;
#X obj 138 190 makefilename NBLTRIANGLE%d;
#X obj 22 33 r \$0-create_tables;
#X obj 22 89 f 1;
#X connect 0 0 20 0;
#X connect 1 0 20 1;
#X connect 2 0 3 0;
#X connect 3 0 7 0;
#X connect 4 0 10 0;
#X connect 5 0 17 0;
#X connect 6 0 4 0;
#X connect 7 0 8 0;
#X connect 7 1 6 0;
#X connect 7 2 8 1;
#X connect 7 2 18 0;
#X connect 8 0 15 0;
#X connect 10 0 17 0;
#X connect 15 0 9 0;
#X connect 18 0 4 1;
#X connect 18 0 9 1;
#X connect 19 0 0 0;
#X connect 20 0 1 0;
#X connect 20 0 2 0;
#X restore 28 50 pd lookup-table-creation;
#N canvas 406 58 405 489 communication 0;
#X obj 261 45 route areyouthere;
#X msg 261 67 iamthere 1;
#X obj 33 43 route create_tables;
#X obj 100 214 -;
#X obj 144 269 s \$0-create_tables;
#X obj 33 71 t f f;
#X obj 33 131 >;
#X obj 33 154 sel 1;
#X obj 33 105 t f f;
#X obj 33 180 f;
#X obj 100 244 moses 0;
#X obj 37 319 route get_num_of_tables;
#X msg 37 365 num_of_tables \$1;
#X obj 37 343 f;
#X obj 261 22 r NBLTRIANGLE;
#X obj 33 18 r NBLTRIANGLE;
#X obj 37 297 r NBLTRIANGLE;
#X obj 37 387 s NBLTRIANGLE;
#X obj 261 89 s NBLTRIANGLE;
#X connect 0 0 1 0;
#X connect 1 0 18 0;
#X connect 2 0 5 0;
#X connect 3 0 10 0;
#X connect 5 0 8 0;
#X connect 5 1 3 0;
#X connect 6 0 7 0;
#X connect 7 0 9 0;
#X connect 8 0 6 0;
#X connect 8 1 9 1;
#X connect 9 0 3 1;
#X connect 9 0 6 1;
#X connect 9 0 13 1;
#X connect 10 1 4 0;
#X connect 11 0 13 0;
#X connect 12 0 17 0;
#X connect 13 0 12 0;
#X connect 14 0 0 0;
#X connect 15 0 2 0;
#X connect 16 0 11 0;
#X restore 28 20 pd communication;
#N canvas 647 5 291 900 lookup-tables-ntriangle 0;
#X restore 28 77 pd lookup-tables-ntriangle;
#X text 22 200 published under the GNU Public License.;
#X text 21 177 Author: Roman Haefeli;
#N canvas 530 306 276 145 NETPD 0;
#X msg 11 19 version 0 3 0;
#X restore 28 119 pd NETPD;
