#N canvas 664 224 751 462 10;
#X declare -stdlib extra/iemmatrix -stdpath extra/iemmatrix;
#X obj 9 12 inlet;
#X obj 191 12 inlet;
#X obj 191 393 outlet;
#X obj 564 342 spigot;
#X obj 601 322 f 1;
#X obj 565 249 t b b;
#X obj 161 303 spigot;
#X obj 198 283 f 1;
#X obj 226 313 f 0;
#N canvas 25 378 153 200 float-check 0;
#X obj 16 24 inlet;
#X obj 16 144 outlet;
#X obj 16 44 route float;
#X obj 16 64 t b f;
#X obj 16 104 pack s f;
#X obj 16 84 symbol float;
#X obj 16 124 route list;
#X connect 0 0 2 0;
#X connect 2 0 3 0;
#X connect 2 1 1 0;
#X connect 3 0 5 0;
#X connect 3 1 4 1;
#X connect 4 0 6 0;
#X connect 5 0 4 0;
#X connect 6 0 1 0;
#X restore 202 132 pd float-check;
#X obj 9 32 route bang;
#X obj 9 112 t b b;
#X text 347 14 [netpd_mtx \$0 <name> <row> <col>];
#X obj 161 323 t b a;
#X obj 629 352 f 0;
#X obj 42 373 mtx_resize;
#X obj 12 253 t b b a;
#X obj 12 333 spigot;
#X obj 77 343 f 0;
#X obj 12 353 t b a;
#X obj 49 313 f 1;
#X obj 74 112 route resize matrix;
#N canvas 310 303 390 400 broadcast___ 0;
#X obj 55 23 inlet;
#X obj 17 314 outlet;
#X obj 14 225 spigot;
#X obj 109 227 spigot;
#X obj 37 197 f 1;
#X obj 65 197 f 0;
#X obj 132 197 f 1;
#X obj 160 197 f 0;
#X obj 86 156 b;
#X obj 56 97 t a a;
#X obj 55 63 t a b;
#X obj 179 157 print netpd-mtx:NO-SUPPORT;
#N canvas 664 80 676 319 bc-elements 0;
#X obj 14 31 route row col element;
#X obj 14 11 inlet;
#X obj 14 52 length;
#X obj 14 73 select 0 1;
#X obj 17 203 outlet;
#X obj 279 203 outlet;
#X obj 108 52 length;
#X obj 108 73 select 0 1 2;
#X obj 552 203 outlet;
#X obj 312 72 route eye zeros ones diag egg diegg;
#X obj 156 52 route list matrix float;
#X obj 519 116 route resize;
#X connect 0 0 2 0;
#X connect 0 1 2 0;
#X connect 0 2 6 0;
#X connect 0 3 10 0;
#X connect 1 0 0 0;
#X connect 2 0 3 0;
#X connect 3 0 5 0;
#X connect 3 1 5 0;
#X connect 3 2 4 0;
#X connect 6 0 7 0;
#X connect 7 0 5 0;
#X connect 7 1 5 0;
#X connect 7 2 5 0;
#X connect 7 3 4 0;
#X connect 9 0 4 0;
#X connect 9 1 4 0;
#X connect 9 2 4 0;
#X connect 9 3 4 0;
#X connect 9 4 4 0;
#X connect 9 5 4 0;
#X connect 9 6 11 0;
#X connect 10 0 4 0;
#X connect 10 1 4 0;
#X connect 10 2 4 0;
#X connect 10 3 9 0;
#X connect 11 0 4 0;
#X connect 11 1 8 0;
#X restore 86 119 pd bc-elements;
#X text 125 27 broadcast-check;
#X text 125 42 - no read/write support;
#X obj 254 338 outlet;
#X obj 131 157 b;
#X obj 14 250 netpd_s \$1 \$2;
#X obj 17 286 netpd_r \$1 \$2;
#X connect 0 0 10 0;
#X connect 2 0 17 0;
#X connect 3 0 1 0;
#X connect 4 0 2 1;
#X connect 5 0 2 1;
#X connect 6 0 3 1;
#X connect 7 0 3 1;
#X connect 8 0 4 0;
#X connect 8 0 7 0;
#X connect 9 0 2 0;
#X connect 9 0 3 0;
#X connect 9 1 12 0;
#X connect 10 0 9 0;
#X connect 10 1 5 0;
#X connect 10 1 7 0;
#X connect 12 0 8 0;
#X connect 12 1 16 0;
#X connect 12 2 11 0;
#X connect 16 0 6 0;
#X connect 16 0 5 0;
#X connect 16 0 15 0;
#X connect 18 0 1 0;
#X restore 74 52 pd broadcast___;
#X obj 138 152 list prepend matrix;
#X obj 138 172 list trim;
#X obj 357 102 mtx \$3 \$4;
#X obj 564 388 netpd_s \$1 \$2;
#X obj 9 152 s \$1-\$2-mtx.i1;
#X obj 202 202 s \$1-\$2-mtx.i1;
#X obj 160 253 r \$1-\$2-mtx.o;
#X obj 12 273 s \$1-\$2-mtx.i1;
#X obj 12 293 r \$1-\$2-mtx.o;
#X obj 42 393 s \$1-\$2-mtx.i2;
#X obj 357 72 r \$1-\$2-mtx.i1;
#X obj 457 70 r \$1-\$2-mtx.i2;
#X obj 357 132 s \$1-\$2-mtx.o;
#X obj 565 269 s \$1-\$2-mtx.i1;
#X obj 564 302 r \$1-\$2-mtx.o;
#X obj 191 32 s \$1-\$2-mtx.i2;
#X obj 128 436 declare -stdlib extra/iemmatrix -stdpath extra/iemmatrix
;
#X obj 564 362 t a b;
#N canvas 728 70 303 157 NETPD 0;
#X msg 13 14 version 0 5 0;
#X restore 612 38 pd NETPD;
#X obj 565 225 netpd-dump \$1;
#X text 394 248 Author: Enrique Erne;
#X text 316 263 ported to netpd2 by: Roman Haefeli;
#X connect 0 0 10 0;
#X connect 1 0 38 0;
#X connect 3 0 40 0;
#X connect 4 0 3 1;
#X connect 5 0 36 0;
#X connect 5 1 4 0;
#X connect 6 0 13 0;
#X connect 7 0 6 1;
#X connect 8 0 6 1;
#X connect 9 0 28 0;
#X connect 10 0 11 0;
#X connect 10 1 22 0;
#X connect 11 0 27 0;
#X connect 11 1 7 0;
#X connect 13 0 8 0;
#X connect 13 1 2 0;
#X connect 14 0 3 1;
#X connect 15 0 32 0;
#X connect 16 0 30 0;
#X connect 16 1 20 0;
#X connect 16 2 15 1;
#X connect 17 0 19 0;
#X connect 18 0 17 1;
#X connect 19 0 18 0;
#X connect 19 1 15 0;
#X connect 20 0 17 1;
#X connect 21 0 16 0;
#X connect 21 1 23 0;
#X connect 21 2 9 0;
#X connect 22 0 21 0;
#X connect 22 1 7 0;
#X connect 23 0 24 0;
#X connect 24 0 28 0;
#X connect 25 0 35 0;
#X connect 29 0 6 0;
#X connect 31 0 17 0;
#X connect 33 0 25 0;
#X connect 34 0 25 1;
#X connect 37 0 3 0;
#X connect 40 0 26 0;
#X connect 40 1 14 0;
#X connect 42 0 5 0;
