#N canvas 736 44 452 493 10;
#X msg 175 185 clear;
#X obj 154 284 pointer;
#X obj 240 355 drawnumber number;
#X obj 83 248 f;
#X obj 116 249 + 1;
#X obj 98 152 t b b b;
#X msg 98 223 0;
#X obj 13 211 t a b;
#X obj 83 272 * 20;
#X obj 13 328 append \$0.array number x;
#X obj 13 355 struct \$0.array float number float x;
#X obj 13 477 pack f f;
#X obj 13 379 route change;
#X obj 13 401 get \$0.array x number;
#X obj 13 453 / 20;
#X obj 13 90 inlet;
#X obj 13 112 route add reset;
#X obj 13 499 outlet;
#X msg 154 262 traverse \$1 \, bang;
#X obj 154 241 list append \$1;
#X obj 175 206 s \$1;
#X obj 83 294 + 3;
#X obj 13 423 - 3;
#X connect 0 0 20 0;
#X connect 1 0 9 2;
#X connect 3 0 4 0;
#X connect 3 0 8 0;
#X connect 4 0 3 1;
#X connect 5 0 6 0;
#X connect 5 1 19 0;
#X connect 5 2 0 0;
#X connect 6 0 3 1;
#X connect 7 0 9 0;
#X connect 7 1 3 0;
#X connect 8 0 21 0;
#X connect 10 0 12 0;
#X connect 11 0 17 0;
#X connect 12 0 13 0;
#X connect 13 0 22 0;
#X connect 13 1 11 1;
#X connect 14 0 11 0;
#X connect 15 0 16 0;
#X connect 16 0 7 0;
#X connect 16 1 5 0;
#X connect 18 0 1 0;
#X connect 19 0 18 0;
#X connect 21 0 9 1;
#X connect 22 0 14 0;
#X coords 0 493 1 492 400 20 0;
