#N canvas 471 94 428 389 10;
#X obj 11 249 cpole~;
#X obj 12 294 czero~;
#X obj 278 188 *~ 0.01;
#X obj 333 188 *~ 0.01;
#X obj 296 149 cos~;
#X obj 333 150 cos~;
#X obj 332 128 -~ 0.25;
#X obj 312 43 samplerate~;
#X obj 297 67 /~;
#X obj 312 20 loadbang;
#X obj 63 18 inlet~;
#X obj 11 18 inlet~;
#X obj 12 322 outlet~;
#X obj 82 215 *~;
#X obj 110 216 *~;
#X obj 127 17 inlet~;
#X obj 240 301 table \$0-lookup1 44100;
#X obj 126 118 tabread~ \$0-lookup1;
#X text 98 330 taken from 3.audio.examples/H12.peaking.pd;
#X text 98 353 modified by Roman Haefeli;
#X obj 127 96 *~ 401;
#N canvas 503 380 248 391 create.lookuptable 0;
#X obj 8 14 loadbang;
#X obj 8 270 + 0.9999;
#X obj 8 248 * -1;
#X obj 8 206 * -0.1;
#X msg 8 61 44100;
#X obj 8 83 until;
#X obj 8 105 f;
#X obj 43 105 + 1;
#X obj 8 227 exp;
#X obj 8 36 t b b;
#X msg 55 69 0;
#X obj 8 298 tabwrite \$0-lookup1;
#X obj 8 150 / 441.004;
#X obj 8 176 + 0.001;
#X obj 8 128 t a a;
#X connect 0 0 9 0;
#X connect 1 0 11 0;
#X connect 2 0 1 0;
#X connect 3 0 8 0;
#X connect 4 0 5 0;
#X connect 5 0 6 0;
#X connect 6 0 7 0;
#X connect 6 0 14 0;
#X connect 7 0 6 1;
#X connect 8 0 2 0;
#X connect 9 0 4 0;
#X connect 9 1 10 0;
#X connect 10 0 6 1;
#X connect 12 0 13 0;
#X connect 13 0 3 0;
#X connect 14 0 12 0;
#X connect 14 1 11 1;
#X restore 240 279 pd create.lookuptable;
#N canvas 885 218 208 83 NETPD 0;
#X msg 9 -95 version 0 2 1;
#X restore 240 256 pd NETPD 2 0;
#X connect 0 0 1 0;
#X connect 0 1 1 1;
#X connect 1 0 12 0;
#X connect 2 0 1 2;
#X connect 3 0 1 3;
#X connect 4 0 2 0;
#X connect 4 0 13 0;
#X connect 5 0 3 0;
#X connect 5 0 14 0;
#X connect 6 0 5 0;
#X connect 7 0 8 1;
#X connect 8 0 6 0;
#X connect 8 0 4 0;
#X connect 9 0 7 0;
#X connect 10 0 8 0;
#X connect 11 0 0 0;
#X connect 13 0 0 2;
#X connect 14 0 0 3;
#X connect 15 0 20 0;
#X connect 17 0 13 1;
#X connect 17 0 14 1;
#X connect 20 0 17 0;
