#N canvas 787 44 450 300 10;
#N canvas 823 94 172 89 NETPD 0;
#X msg 1 7 version 0 0 1;
#X restore 389 14 pd NETPD;
#X obj 10 10 cnv 15 215 34 empty empty empty 20 12 0 14 -33289 -1 0
;
#X obj 12 14 vsl 30 25 1 1 0 0 \$1.\$2.switch \$1.\$2.switch.r \$2
4 5 1 8 -228856 -228856 -1 0 1;
#X obj 44 14 vsl 30 25 1 1 0 0 \$1.\$2.display \$1.\$2.display.r show
4 5 1 8 -228856 -228856 -1 0 1;
#X obj 76 14 vsl 15 25 0 0 0 0 \$1.\$2.create \$1.\$2.create.r empty
4 5 1 8 -228856 -228856 -1 0 1;
#X obj 91 14 vsl 70 10 -4.5 4.5 0 0 \$1.\$2.instr \$1.\$2.instr.r <empty>
3 6 1 8 -228856 -228856 -1 900 1;
#X obj 91 29 vsl 70 10 -4.5 4.5 0 0 \$1.\$2.subinstr \$1.\$2.subinstr.r
<empty> 3 6 1 8 -228856 -228856 -1 100 1;
#X obj 161 14 vsl 20 10 1 10 0 0 \$1.\$2.length \$1.\$2.length.r 10
4 7 1 9 -228856 -228856 -1 900 1;
#X obj 161 29 vsl 20 10 33 33 0 0 \$1.\$2.color \$1.\$2.color.r 19
4 6 1 9 -228856 -228856 -1 900 1;
#X obj 183 14 vsl 40 10 1 1 0 0 \$1.\$2.poly \$1.\$2.poly.r poly 3
6 1 8 -228856 -228856 -1 0 1;
#X obj 183 29 vsl 20 10 1 10 0 0 \$1.\$2.dend \$1.\$2.dend.r 27 5 6
1 9 -228856 -228856 -1 0 1;
#X obj 203 29 vsl 20 10 1 10 0 0 \$1.\$2.sor \$1.\$2.sor.r 15 5 6 1
9 -228856 -228856 -1 0 1;
#X obj 202 28 cnv 2 2 13 empty 1.3.divid.r / 0 7 1 10 -228856 -1 0
;
#X obj 68 99 r \$1.\$2.instr;
#X floatatom 96 139 5 0 0 0 - - -;
#X obj 183 109 r \$1.\$2.length;
#X floatatom 183 131 5 0 0 0 - - -;
#X msg 183 176 label \$1;
#X obj 183 199 s \$1.\$2.length.r;
#X obj 183 154 makefilename %2d;
#X connect 13 0 14 0;
#X connect 15 0 16 0;
#X connect 16 0 19 0;
#X connect 17 0 18 0;
#X connect 19 0 17 0;
#X coords 0 -1 1 1 215 34 2 10 10;
