#N canvas 1520 403 467 386 10;
#X obj 331 261 route \$2;
#X obj 331 283 route \$3;
#X obj 290 217 route \$2;
#X obj 290 239 route \$3;
#X obj 16 143 spigot 1;
#X obj 16 165 mod \$4;
#X obj 16 262 sel 1;
#X obj 16 328 s qseq3;
#X obj 16 285 list append \$5 \$6;
#X obj 16 307 list trim;
#X obj 249 170 route set seq element;
#X obj 249 192 route \$2;
#X obj 290 261 t b a;
#X obj 249 289 && 1;
#X obj 249 268 1;
#X obj 249 147 r \$1.qseq3;
#N canvas 1026 423 300 215 self.create 0;
#X obj 15 12 r \$1.qseq3;
#X obj 15 34 route seq.self;
#X obj 15 56 route \$2;
#X obj 15 78 route \$3;
#X obj 15 100 b;
#X obj 15 143 list trim;
#X obj 15 165 s \$1.qseq3;
#X obj 15 121 list append seq.self.create \$2 \$4 \$5 \$6 \$7;
#X connect 0 0 1 0;
#X connect 1 0 2 0;
#X connect 2 0 3 0;
#X connect 3 0 4 0;
#X connect 4 0 7 0;
#X connect 5 0 6 0;
#X connect 7 0 5 0;
#X restore 255 6 pd self.create;
#X obj 91 7 table \$1.\$2.\$3.seq.data \$4;
#X obj 16 240 tabread \$1.\$2.\$3.seq.data;
#X obj 331 305 s \$1.\$2.\$3.seq.data;
#N canvas 906 443 167 204 get.seq.length 0;
#X obj 9 32 route get.seq.length;
#X obj 9 98 b;
#X obj 9 120 f \$4;
#X msg 9 142 set.seq.length \$1;
#X obj 9 54 route \$2;
#X obj 9 76 route \$3;
#X obj 9 164 s \$1.qseq3;
#X obj 9 10 r \$1.qseq3;
#X connect 0 0 4 0;
#X connect 1 0 2 0;
#X connect 2 0 3 0;
#X connect 3 0 6 0;
#X connect 4 0 5 0;
#X connect 5 0 1 0;
#X connect 7 0 0 0;
#X restore 255 27 pd get.seq.length;
#N canvas 648 402 172 152 NETPD 0;
#X msg 9 13 version 0 0 7;
#X restore 12 7 pd NETPD 2 0;
#N canvas 993 377 462 421 cursor 0;
#X obj 23 32 list prepend \$1 \$2 \$3;
#N canvas 703 409 269 367 resolve.global.uid 0;
#X obj 88 101 s \$1.seq.block;
#X obj 49 55 t b a b;
#X msg 88 79 0;
#X msg 49 78 1;
#X obj 68 127 list append \$1;
#X obj 68 149 list trim;
#X obj 37 243 r \$1.global.s;
#X obj 22 34 t b a;
#X obj 22 11 inlet;
#X obj 22 320 outlet;
#X obj 22 287 list append;
#X obj 22 265 f;
#X obj 68 171 route element;
#X msg 68 195 \; \$4.\$1.\$2.\$3.r bang;
#X connect 1 0 3 0;
#X connect 1 1 4 0;
#X connect 1 2 2 0;
#X connect 2 0 0 0;
#X connect 3 0 0 0;
#X connect 4 0 5 0;
#X connect 5 0 12 0;
#X connect 6 0 11 1;
#X connect 7 0 11 0;
#X connect 7 1 1 0;
#X connect 8 0 7 0;
#X connect 10 0 9 0;
#X connect 11 0 10 0;
#X connect 12 0 13 0;
#X restore 128 367 pd resolve.global.uid;
#X obj 128 388 s \$1.update.color;
#X msg 128 344 element \$2 \$3 \$4;
#X msg 50 77 \; \$1.\$2.\$3.\$4.r color 12 12 -1;
#X obj 23 273 del 100;
#X obj 22 11 inlet;
#X obj 23 54 t a a;
#X msg 40 146 1;
#X obj 101 301 t b b;
#X msg 135 248 0;
#X obj 74 180 f;
#X obj 74 202 sel 1;
#X obj 74 224 t b b;
#X msg 74 248 stop;
#X obj 191 191 t a;
#X obj 23 123 t b b a b b;
#X obj 308 69 inlet;
#X obj 308 92 route run inrange;
#X obj 308 125 sel 0;
#X obj 357 125 sel 0;
#X obj 308 165 b;
#X obj 128 322 list append \$1 \$2 \$3 0;
#X connect 0 0 7 0;
#X connect 1 0 2 0;
#X connect 3 0 1 0;
#X connect 6 0 0 0;
#X connect 7 0 16 0;
#X connect 7 1 4 0;
#X connect 8 0 11 1;
#X connect 9 0 10 0;
#X connect 9 1 22 0;
#X connect 10 0 11 1;
#X connect 11 0 12 0;
#X connect 12 0 13 0;
#X connect 13 0 14 0;
#X connect 13 1 9 0;
#X connect 14 0 5 0;
#X connect 15 0 22 1;
#X connect 16 0 5 0;
#X connect 16 1 8 0;
#X connect 16 2 15 0;
#X connect 16 3 11 0;
#X connect 17 0 18 0;
#X connect 18 0 19 0;
#X connect 18 1 20 0;
#X connect 19 0 21 0;
#X connect 20 0 21 0;
#X connect 21 0 9 0;
#X connect 22 0 3 0;
#X restore 43 213 pd cursor;
#X obj 16 187 t a a;
#X obj 16 38 r \$1/2.qseq3;
#X obj 16 61 route \$2;
#X obj 16 106 route pos;
#X obj 137 91 route inrange;
#X obj 137 114 print inrange;
#X obj 16 83 t a a, f 13;
#X connect 0 0 1 0;
#X connect 1 0 19 0;
#X connect 2 0 3 0;
#X connect 3 0 12 0;
#X connect 4 0 5 0;
#X connect 5 0 23 0;
#X connect 6 0 8 0;
#X connect 8 0 9 0;
#X connect 9 0 7 0;
#X connect 10 0 11 0;
#X connect 10 1 2 0;
#X connect 10 2 0 0;
#X connect 11 0 14 0;
#X connect 12 0 14 0;
#X connect 12 1 13 1;
#X connect 13 0 4 1;
#X connect 14 0 13 0;
#X connect 15 0 10 0;
#X connect 18 0 6 0;
#X connect 23 0 18 0;
#X connect 23 1 22 0;
#X connect 24 0 25 0;
#X connect 25 0 29 0;
#X connect 26 0 4 0;
#X connect 27 0 28 0;
#X connect 29 0 26 0;
#X connect 29 1 22 1;
