#N canvas 752 69 440 242 10;
#N canvas 0 288 273 206 NETPD 0;
#X msg 9 0 version 0 0 1;
#X restore 363 14 pd NETPD;
#N canvas 455 91 549 280 parse.arg.list 0;
#N canvas 305 260 375 202 \$0.parser 0;
#X restore 11 10 pd \$0.parser;
#X obj 166 230 s pd-\$0.parser;
#X msg 127 208 clear;
#X obj 215 21 r \$0.set;
#X obj 146 254 s \$0.get;
#X obj 166 163 list prepend \$0;
#X obj 127 8 loadbang;
#X obj 127 30 until;
#X obj 127 52 f;
#X obj 127 74 + 1;
#X obj 127 96 t b b a;
#X obj 215 43 route 0;
#X obj 254 73 outlet;
#X obj 215 65 b;
#X msg 166 187 obj 19 5 r \$1.get \, obj 19 27 list append \$2 \, obj
19 49 s \$1.set \, connect 0 0 1 0 \, connect 1 0 2 0;
#X msg 166 140 symbol \$1\$2;
#X msg 166 118 list $ \$1;
#X connect 2 0 1 0;
#X connect 3 0 11 0;
#X connect 5 0 14 0;
#X connect 6 0 7 0;
#X connect 7 0 8 0;
#X connect 8 0 9 0;
#X connect 9 0 8 1;
#X connect 9 0 10 0;
#X connect 10 0 2 0;
#X connect 10 1 4 0;
#X connect 10 2 16 0;
#X connect 11 0 13 0;
#X connect 11 1 12 0;
#X connect 13 0 7 1;
#X connect 14 0 1 0;
#X connect 15 0 5 0;
#X connect 16 0 15 0;
#X restore 13 9 pd parse.arg.list;
#X obj 13 31 print;
#X connect 1 0 2 0;
