#N canvas 666 44 467 401 10;
#X obj 302 294 route \$2;
#X obj 302 316 route \$3;
#X obj 261 250 route \$2;
#X obj 261 272 route \$3;
#X obj 17 199 spigot 1;
#X obj 17 221 mod \$4;
#X obj 17 265 sel 1;
#X obj 17 331 s qseq3;
#X obj 17 288 list append \$5 \$6;
#X obj 17 310 list trim;
#X obj 220 203 route set seq element;
#X obj 220 225 route \$2;
#X obj 261 294 t b a;
#X obj 220 322 && 1;
#X obj 220 301 1;
#X obj 220 180 r \$1.qseq3;
#N canvas 1026 423 300 215 self.create 0;
#X obj 15 12 r \$1.qseq3;
#X obj 15 34 route seq.self;
#X obj 15 56 route \$2;
#X obj 15 78 route \$3;
#X obj 15 100 b;
#X obj 15 143 list trim;
#X obj 15 165 s \$1.qseq3;
#X obj 15 121 list append seq.self.create \$2 \$4 \$5 \$6 \$7;
#X connect 0 0 1 0;
#X connect 1 0 2 0;
#X connect 2 0 3 0;
#X connect 3 0 4 0;
#X connect 4 0 7 0;
#X connect 5 0 6 0;
#X connect 7 0 5 0;
#X restore 255 6 pd self.create;
#X obj 91 7 table \$1.\$2.\$3.seq.data \$4;
#X obj 17 243 tabread \$1.\$2.\$3.seq.data;
#X obj 302 338 s \$1.\$2.\$3.seq.data;
#N canvas 906 415 167 204 get.seq.length 0;
#X obj 9 32 route get.seq.length;
#X obj 9 98 b;
#X obj 9 120 f \$4;
#X msg 9 142 set.seq.length \$1;
#X obj 9 54 route \$2;
#X obj 9 76 route \$3;
#X obj 9 164 s \$1.qseq3;
#X obj 9 10 r \$1.qseq3;
#X connect 0 0 4 0;
#X connect 1 0 2 0;
#X connect 2 0 3 0;
#X connect 3 0 6 0;
#X connect 4 0 5 0;
#X connect 5 0 1 0;
#X connect 7 0 0 0;
#X restore 255 27 pd get.seq.length;
#X obj 17 48 master-param stepshuffle;
#N canvas 658 261 172 152 NETPD 0;
#X msg 10 38 master-param;
#X msg 9 13 version 0 0 3;
#X restore 12 7 pd NETPD 2 0;
#X obj 50 69 == -1;
#X obj 17 92 spigot;
#X obj 176 86 route \$2;
#X obj 176 42 r \$1.qseq3;
#X obj 176 111 route set pos;
#X obj 176 64 route metaseq;
#X connect 0 0 1 0;
#X connect 1 0 19 0;
#X connect 2 0 3 0;
#X connect 3 0 12 0;
#X connect 4 0 5 0;
#X connect 5 0 18 0;
#X connect 6 0 8 0;
#X connect 8 0 9 0;
#X connect 9 0 7 0;
#X connect 10 0 11 0;
#X connect 10 1 2 0;
#X connect 10 2 0 0;
#X connect 11 0 14 0;
#X connect 12 0 14 0;
#X connect 12 1 13 1;
#X connect 13 0 4 1;
#X connect 14 0 13 0;
#X connect 15 0 10 0;
#X connect 18 0 6 0;
#X connect 21 0 24 0;
#X connect 23 0 24 1;
#X connect 24 0 4 0;
#X connect 25 0 27 0;
#X connect 26 0 28 0;
#X connect 27 0 23 0;
#X connect 27 1 4 0;
#X connect 28 0 25 0;
