#N canvas 504 44 397 276 10;
#N canvas 658 121 172 152 NETPD 0;
#X msg 9 13 version 0 0 1;
#N canvas 585 215 264 187 ablist 0;
#X msg 16 10 master-poly;
#X restore 9 37 pd ablist;
#X restore 15 6 pd NETPD;
#X obj 91 7 table \$0.seq.data \$4;
#X obj 151 61 r \$1.temp;
#X obj 214 107 route \$2;
#X obj 214 129 route \$3;
#X obj 214 151 s \$0.seq.data;
#X obj 17 57 master-poly \$7 \$8;
#X obj 151 84 route seq element;
#X obj 151 108 route \$2;
#X obj 151 130 route \$3;
#X obj 17 79 spigot 1;
#X obj 17 101 mod \$4;
#X obj 17 123 tabread \$0.seq.data;
#X obj 17 145 sel 1;
#X obj 17 211 s qseq3;
#X obj 17 168 list append \$5 \$6;
#X obj 17 190 list trim;
#X connect 2 0 7 0;
#X connect 3 0 4 0;
#X connect 4 0 5 0;
#X connect 6 0 10 0;
#X connect 7 0 8 0;
#X connect 7 1 3 0;
#X connect 8 0 9 0;
#X connect 9 0 10 1;
#X connect 10 0 11 0;
#X connect 11 0 12 0;
#X connect 12 0 13 0;
#X connect 13 0 15 0;
#X connect 15 0 16 0;
#X connect 16 0 14 0;
