#N canvas 769 269 625 571 10;
#X obj 112 20 nbx 5 20 1 100 0 0 \$1-\$2/div \$1-\$2/div empty 0 10 0 10 #fcfcfc #000000 #000000 0 256;
#X obj 20 20 cnv 15 308 20 empty empty empty 20 12 0 14 #000000 #404040 0;
#X obj 112 22 cnv 10 58 16 empty \$0.div.label div:\ \ 1 4 8 0 12 #dcdcdc #000000 0;
#N canvas 1202 456 748 286 gui.interfacing 0;
#X obj 17 138 s \$0.div.label;
#X msg 17 114 label \$1;
#X obj 17 90 makefilename div:%3d;
#X obj 17 66 netpd_r \$1 \$2/div;
#X msg 152 113 label \$1;
#X obj 152 89 makefilename shift:%3d;
#X obj 152 65 netpd_r \$1 \$2/shift;
#X obj 152 137 s \$0.shift.label;
#X msg 292 113 label \$1;
#X obj 292 65 netpd_r \$1 \$2/length;
#X obj 292 89 makefilename length:%3d;
#X obj 292 137 s \$0.length.label;
#X obj 493 65 netpd_r \$1 \$2/length;
#X obj 493 88 > 0;
#X obj 503 191 s \$0.shift.label;
#X msg 493 167 color 10 0 \$1;
#X obj 493 117 sel 0 1;
#X msg 493 140 11;
#X msg 523 143 -1;
#X obj 492 216 s \$0.length.label;
#X connect 1 0 0 0;
#X connect 2 0 1 0;
#X connect 3 0 2 0;
#X connect 4 0 7 0;
#X connect 5 0 4 0;
#X connect 6 0 5 0;
#X connect 8 0 11 0;
#X connect 9 0 10 0;
#X connect 10 0 8 0;
#X connect 12 0 13 0;
#X connect 13 0 16 0;
#X connect 15 0 14 0;
#X connect 15 0 19 0;
#X connect 16 0 17 0;
#X connect 16 1 18 0;
#X connect 17 0 15 0;
#X connect 18 0 15 0;
#X restore 364 38 pd gui.interfacing;
#N canvas 356 139 352 73 NETPD 0;
#X msg 19 13 version 0 1 0;
#X restore 486 21 pd NETPD 2 0;
#N canvas 965 168 557 366 netpdization 0;
#X obj 6 97 netpd_f \$1 \$2/length 0;
#X obj 9 40 netpd_f \$1 \$2/div 1;
#X obj 8 68 netpd_f \$1 \$2/shift 0;
#X restore 364 63 pd netpdization;
#X obj 48 480 s \$1.qseq3;
#X obj 48 458 list trim;
#X obj 48 436 list prepend \$2;
#X obj 23 56 untik-clock-consumer \$1 \$2/clocksource \$1.\$2.clocksel;
#X obj 147 156 netpd_r \$1 \$2/length 0;
#X obj 90 208 netpd_r \$1 \$2/shift 0;
#X obj 71 103 netpd_r \$1 \$2/div 1;
#X obj 23 80 route pos, f 52;
#N canvas 1017 554 381 198 div 0;
#X obj 3 12 inlet;
#X obj 3 145 outlet;
#X obj 3 39 t a a, f 10;
#X obj 3 70 mod;
#X obj 60 70 div;
#X obj 3 97 sel 0;
#X obj 3 120 f, f 10;
#X obj 122 29 inlet;
#X connect 0 0 2 0;
#X connect 2 0 3 0;
#X connect 2 1 4 0;
#X connect 3 0 5 0;
#X connect 4 0 6 1;
#X connect 5 0 6 0;
#X connect 6 0 1 0;
#X connect 7 0 3 1;
#X connect 7 0 4 1;
#X restore 22 103 pd div;
#X obj 173 22 nbx 7 16 -999 999 0 0 \$1-\$2/shift \$1-\$2/shift empty 0 10 0 10 #fcfcfc #000000 #000000 0 256;
#X obj 173 22 cnv 10 72 16 empty \$0.shift.label shift:-128 4 8 0 12 #e0e0e0 #7c7c7c 0;
#X obj 253 22 nbx 7 16 0 999 0 0 \$1-\$2/length \$1-\$2/length empty 0 10 0 10 #fcfcfc #000000 #000000 0 256;
#X obj 248 22 cnv 10 78 16 empty \$0.length.label length:\ \ 0 4 8 0 12 #e0e0e0 #7c7c7c 0;
#X obj 61 207 +;
#X obj 22 256 moses 0;
#X obj 61 311 moses 0;
#X msg 22 395 pos \$1;
#X obj 22 282 spigot 1;
#X obj 147 249 t a a;
#X obj 79 283 == 0;
#X obj 100 337 spigot 1;
#X obj 157 338 == 0;
#X obj 22 162 route 0;
#X msg 61 184 \$2;
#X obj 22 139 list prepend 0;
#X obj 332 334 t a;
#X connect 7 0 6 0;
#X connect 8 0 7 0;
#X connect 9 0 13 0;
#X connect 10 0 24 0;
#X connect 10 0 30 1;
#X connect 11 0 19 1;
#X connect 12 0 14 1;
#X connect 13 0 14 0;
#X connect 13 1 31 0;
#X connect 14 0 30 0;
#X connect 19 0 20 0;
#X connect 20 0 23 0;
#X connect 20 1 21 0;
#X connect 21 0 22 0;
#X connect 21 1 26 0;
#X connect 22 0 8 0;
#X connect 23 0 22 0;
#X connect 24 0 25 0;
#X connect 24 1 21 1;
#X connect 24 1 27 0;
#X connect 25 0 23 1;
#X connect 26 0 22 0;
#X connect 27 0 26 1;
#X connect 28 0 20 0;
#X connect 28 1 29 0;
#X connect 29 0 19 0;
#X connect 30 0 28 0;
#X connect 31 0 8 0;
#X coords 0 -1 1 1 308 20 2 20 20;
