#N canvas 752 69 379 312 10;
#N canvas 0 288 273 206 NETPD 0;
#X msg 9 0 version 0 0 1;
#X restore 263 12 pd NETPD;
#N canvas 455 91 527 335 parse.arg.list 0;
#N canvas 305 260 375 202 \$0.parser 0;
#X restore 11 10 pd \$0.parser;
#X obj 166 250 s pd-\$0.parser;
#X msg 127 228 clear;
#X obj 193 8 r \$0.set;
#X obj 146 274 s \$0.get;
#X obj 166 183 list prepend \$0;
#X obj 127 8 loadbang;
#X obj 127 30 until;
#X obj 127 52 f;
#X obj 127 74 + 1;
#X obj 127 116 t b b a;
#X obj 193 30 route 0;
#X obj 193 100 outlet;
#X obj 193 52 b;
#X msg 166 207 obj 19 5 r \$1.get \, obj 19 27 list append \$2 \, obj
19 49 s \$1.set \, connect 0 0 1 0 \, connect 1 0 2 0;
#X msg 166 160 symbol \$1\$2;
#X msg 166 138 list $ \$1;
#X obj 256 51 list prepend;
#X obj 340 51 t a;
#X obj 193 77 list append;
#X connect 2 0 1 0;
#X connect 3 0 11 0;
#X connect 5 0 14 0;
#X connect 6 0 7 0;
#X connect 7 0 8 0;
#X connect 8 0 9 0;
#X connect 9 0 8 1;
#X connect 9 0 10 0;
#X connect 10 0 2 0;
#X connect 10 1 4 0;
#X connect 10 2 16 0;
#X connect 11 0 13 0;
#X connect 11 1 17 0;
#X connect 13 0 7 1;
#X connect 13 0 19 0;
#X connect 14 0 1 0;
#X connect 15 0 5 0;
#X connect 16 0 15 0;
#X connect 17 0 18 0;
#X connect 17 0 19 1;
#X connect 18 0 17 1;
#X connect 19 0 12 0;
#X restore 11 12 pd parse.arg.list;
#X obj 189 124 r qseq3;
#X obj 189 231 s qseq3;
#X obj 189 145 route get.main;
#X obj 189 187 list append set.main \$1-\$2;
#X obj 189 209 list trim;
#X obj 12 124 r qseq3;
#X obj 12 168 route \$1-\$2;
#X obj 12 190 b;
#X obj 189 167 b;
#X obj 12 212 list append;
#X obj 12 146 route get.instr;
#X obj 11 34 list split 2;
#X obj 12 234 list prepend set.instr;
#X obj 12 256 list trim;
#X obj 12 278 s qseq3;
#X text 171 96 = for instr list =;
#X text 10 96 = for subinstr list =;
#X obj 139 15 b;
#X msg 139 37 instr refresh;
#X obj 139 59 s qseq3;
#X connect 1 0 13 0;
#X connect 2 0 4 0;
#X connect 4 0 10 0;
#X connect 5 0 6 0;
#X connect 6 0 3 0;
#X connect 7 0 12 0;
#X connect 8 0 9 0;
#X connect 9 0 11 0;
#X connect 10 0 5 0;
#X connect 11 0 14 0;
#X connect 12 0 8 0;
#X connect 13 0 19 0;
#X connect 13 1 11 1;
#X connect 14 0 15 0;
#X connect 15 0 16 0;
#X connect 19 0 20 0;
#X connect 20 0 21 0;
