#N canvas 497 65 484 433 10;
#N canvas 658 177 172 152 NETPD 0;
#N canvas 585 243 264 187 abslist 0;
#X msg 16 10 master-poly;
#X restore 9 37 pd abslist;
#X msg 9 13 version 0 0 2;
#X restore 15 6 pd NETPD;
#X obj 238 336 route \$2;
#X obj 238 358 route \$3;
#X obj 194 279 route \$2;
#X obj 194 301 route \$3;
#X obj 17 228 spigot 1;
#X obj 17 250 mod \$4;
#X obj 17 294 sel 1;
#X obj 17 360 s qseq3;
#X obj 17 317 list append \$5 \$6;
#X obj 17 339 list trim;
#X obj 150 254 route \$2;
#X obj 194 323 t b a;
#X obj 150 351 && 1;
#X obj 150 330 1;
#X obj 150 206 r \$1.qseq3;
#X obj 17 57 master-poly \$8 \$9;
#N canvas 1026 367 294 202 self.create 0;
#X obj 15 12 r \$1.qseq3;
#X obj 15 34 route seq.self;
#X obj 15 56 route \$2;
#X obj 15 78 route \$3;
#X obj 15 100 b;
#X obj 15 143 list trim;
#X obj 15 165 s \$1.qseq3;
#X obj 15 121 list append seq.self.create \$2 \$4 \$5 \$6 \$7 \$8 \$9
;
#X connect 0 0 1 0;
#X connect 1 0 2 0;
#X connect 2 0 3 0;
#X connect 3 0 4 0;
#X connect 4 0 7 0;
#X connect 5 0 6 0;
#X connect 7 0 5 0;
#X restore 255 8 pd self.create;
#N canvas 906 415 167 204 get.seq.length 0;
#X obj 9 32 route get.seq.length;
#X obj 9 98 b;
#X obj 9 120 f \$4;
#X msg 9 142 set.seq.length \$1;
#X obj 9 54 route \$2;
#X obj 9 76 route \$3;
#X obj 9 164 s \$1.qseq3;
#X obj 9 10 r \$1.qseq3;
#X connect 0 0 4 0;
#X connect 1 0 2 0;
#X connect 2 0 3 0;
#X connect 3 0 6 0;
#X connect 4 0 5 0;
#X connect 5 0 1 0;
#X connect 7 0 0 0;
#X restore 255 28 pd get.seq.length;
#X obj 91 7 table \$1.\$2.\$3.seq.data \$4;
#X obj 238 380 s \$1.\$2.\$3.seq.data;
#X obj 17 272 tabread \$1.\$2.\$3.seq.data;
#X obj 150 231 route set seq element loadbang;
#X obj 255 49 namecanvas \$0.qseq3-seq-poly;
#X obj 282 251 route \$2;
#X obj 282 273 route \$3;
#X obj 282 315 s \$0.qseq3-seq-poly;
#X msg 282 294 loadbang;
#X obj 50 89 == -1;
#X obj 17 112 spigot;
#X obj 147 90 route \$2;
#X obj 147 46 r \$1.qseq3;
#X obj 147 116 route set pos;
#X obj 147 68 route metaseq;
#X connect 1 0 2 0;
#X connect 2 0 20 0;
#X connect 3 0 4 0;
#X connect 4 0 12 0;
#X connect 5 0 6 0;
#X connect 6 0 21 0;
#X connect 7 0 9 0;
#X connect 9 0 10 0;
#X connect 10 0 8 0;
#X connect 11 0 14 0;
#X connect 12 0 14 0;
#X connect 12 1 13 1;
#X connect 13 0 5 1;
#X connect 14 0 13 0;
#X connect 15 0 22 0;
#X connect 16 0 29 0;
#X connect 21 0 7 0;
#X connect 22 0 11 0;
#X connect 22 1 3 0;
#X connect 22 2 1 0;
#X connect 22 3 24 0;
#X connect 24 0 25 0;
#X connect 25 0 27 0;
#X connect 27 0 26 0;
#X connect 28 0 29 1;
#X connect 29 0 5 0;
#X connect 30 0 32 0;
#X connect 31 0 33 0;
#X connect 32 0 28 0;
#X connect 32 1 5 0;
#X connect 33 0 30 0;
