#N canvas 530 100 211 274 10;
#X obj -49 122 tabread \$1.pattern/id;
#X obj -32 101 tabread \$1.seq/id;
#X obj -15 80 tabread \$1.element/id;
#X obj -49 34 t a a a a;
#X obj 2 59 tabread \$1.value/id;
#X obj -49 144 pack f f f f;
#X obj -49 166 outlet;
#X obj -49 12 inlet;
#N canvas 203 439 327 205 NETPD 0;
#X msg 15 11 version 0 0 0;
#X restore -31 224 pd NETPD;
#X connect 0 0 5 0;
#X connect 1 0 5 1;
#X connect 2 0 5 2;
#X connect 3 0 0 0;
#X connect 3 1 1 0;
#X connect 3 2 2 0;
#X connect 3 3 4 0;
#X connect 4 0 5 3;
#X connect 5 0 6 0;
#X connect 7 0 3 0;
