#N canvas 497 65 391 276 10;
#N canvas 658 149 172 152 NETPD 0;
#X msg 9 13 version 0 0 1;
#X restore 15 6 pd NETPD;
#X obj 91 7 table \$0.seq.data \$4;
#X obj 232 194 route \$2;
#X obj 232 216 route \$3;
#X obj 232 238 s \$0.seq.data;
#X obj 191 150 route \$2;
#X obj 191 172 route \$3;
#X obj 17 99 spigot 1;
#X obj 17 121 mod \$4;
#X obj 17 143 tabread \$0.seq.data;
#X obj 17 165 sel 1;
#X obj 17 231 s qseq3;
#X obj 17 188 list append \$5 \$6;
#X obj 17 210 list trim;
#X obj 150 103 route set seq element;
#X obj 150 125 route \$2;
#X obj 191 194 t b a;
#X obj 150 222 && 1;
#X obj 150 201 1;
#X obj 150 80 r \$1.qseq3;
#X obj 17 48 r master;
#X obj 17 70 route stepshuffle;
#N canvas 1026 423 260 201 self.create 0;
#X obj 15 12 r \$1.qseq3;
#X obj 15 34 route seq.self;
#X obj 15 56 route \$2;
#X obj 15 78 route \$3;
#X obj 15 100 b;
#X obj 15 143 list trim;
#X obj 15 165 s \$1.qseq3;
#X obj 15 121 list append seq.self.create \$2 \$4 \$5 \$6 \$7;
#X connect 0 0 1 0;
#X connect 1 0 2 0;
#X connect 2 0 3 0;
#X connect 3 0 4 0;
#X connect 4 0 7 0;
#X connect 5 0 6 0;
#X connect 7 0 5 0;
#X restore 237 8 pd self.create;
#X connect 2 0 3 0;
#X connect 3 0 4 0;
#X connect 5 0 6 0;
#X connect 6 0 16 0;
#X connect 7 0 8 0;
#X connect 8 0 9 0;
#X connect 9 0 10 0;
#X connect 10 0 12 0;
#X connect 12 0 13 0;
#X connect 13 0 11 0;
#X connect 14 0 15 0;
#X connect 14 1 5 0;
#X connect 14 2 2 0;
#X connect 15 0 18 0;
#X connect 16 0 18 0;
#X connect 16 1 17 1;
#X connect 17 0 7 1;
#X connect 18 0 17 0;
#X connect 19 0 14 0;
#X connect 20 0 21 0;
#X connect 21 0 7 0;
