#N canvas 193 172 833 469 10;
#X obj 10 12 inlet~;
#X obj 10 420 outlet~;
#X obj 730 441 outlet~;
#N canvas 724 592 155 121 NETPD 0;
#N canvas 589 328 159 110 abslist 0;
#X msg 10 11 dynlib_comp;
#X msg 10 32 dynlib_4bfs;
#X msg 10 54 r4mbc-sbcg;
#X restore 11 34 pd abslist;
#X msg 11 7 version 0 0 0;
#X restore 401 33 pd NETPD 2 0;
#N canvas 668 173 529 190 \$3-r4mbc 1;
#N canvas 546 121 580 335 frequency.separator 0;
#X obj 13 10 hsl 180 10 1 180 0 0 \$0.slider1 \$0.slider1.r empty -2
-8 0 10 -262144 -1 -1 17400 1;
#X obj 13 10 hsl 331 10 1 331 0 0 \$0.slider2 \$0.slider2.r empty -2
-8 0 10 -262144 -1 -1 33000 1;
#X obj 13 10 hsl 396 10 1 396 0 0 \$0.slider3 \$0.slider3.r empty -2
-8 0 10 -262144 -1 -1 39000 1;
#X obj 10 10 cnv 10 500 10 empty \$0.segment4 empty 20 12 0 14 -228856
-66577 0;
#X obj 10 10 cnv 10 396 10 empty \$0.segment3 empty 20 12 0 14 -191407
-66577 0;
#X obj 10 10 cnv 10 331 10 empty \$0.segment2 empty 20 12 0 14 -162280
-66577 0;
#X obj 10 10 cnv 10 180 10 empty \$0.segment1 empty 20 12 0 14 -128992
-66577 0;
#X coords 0 -1 1 1 500 10 2 10 10;
#X restore -32 -37 pd frequency.separator;
#X obj -32 -23 r4mbc-sbcg \$1 \$2 \$0 1;
#X obj 109 -23 r4mbc-sbcg \$1 \$2 \$0 2;
#X obj 258 -23 r4mbc-sbcg \$1 \$2 \$0 3;
#X obj 394 -23 r4mbc-sbcg \$1 \$2 \$0 4;
#X restore 401 14 pd \$3-r4mbc;
#X obj 10 308 dynlib_comp;
#X obj 9 119 dynlib_4bfs;
#X obj 198 308 dynlib_comp;
#X obj 373 308 dynlib_comp;
#X obj 562 308 dynlib_comp;
#X obj 140 12 inlet~;
#X obj 139 119 dynlib_4bfs;
#N canvas 762 300 506 114 gui.stuff 0;
#N canvas 340 170 953 289 frequency.separator.logic 0;
#X obj 20 41 + 5;
#X msg 39 160 vis_size \$1 10;
#X obj 20 233 s \$0.slider1.r;
#X obj 20 16 r \$0.slider1;
#X obj 20 112 t a a a;
#X obj 59 137 s \$0.seg1;
#X obj 39 182 s \$0.segment1;
#X obj 20 86 min 495;
#X obj 250 41 + 5;
#X msg 269 160 vis_size \$1 10;
#X obj 250 112 t a a a;
#X obj 250 64 max 20;
#X obj 250 86 min 495;
#X obj 250 16 r \$0.slider2;
#X obj 289 137 s \$0.seg2;
#X obj 269 182 s \$0.segment2;
#X obj 250 226 s \$0.slider2.r;
#X obj 332 17 r \$0.seg1;
#X obj 332 39 + 50;
#X obj 103 83 r \$0.seg2;
#X obj 103 105 - 50;
#X obj 480 45 + 5;
#X msg 499 164 vis_size \$1 10;
#X obj 480 116 t a a a;
#X obj 480 68 max 20;
#X obj 562 43 + 50;
#X obj 562 21 r \$0.seg2;
#X obj 480 20 r \$0.slider3;
#X obj 519 141 s \$0.seg3;
#X obj 499 186 s \$0.segment3;
#X obj 480 230 s \$0.slider3.r;
#X obj 327 96 - 50;
#X obj 327 74 r \$0.seg3;
#X msg 20 211 size \$1 10 \, range 1 \$1;
#X msg 250 204 size \$1 10 \, range 1 \$1;
#X msg 480 208 size \$1 10 \, range 1 \$1;
#X obj 719 37 loadbang;
#X obj 600 59 r \$0.margin;
#X obj 378 48 r \$0.margin;
#X obj 148 116 r \$0.margin;
#X obj 480 90 min 470;
#X obj 20 64 max 25;
#X obj 719 59 \$0;
#X obj 796 30 bng 15 250 50 0 empty empty empty 17 7 0 10 -262144 -1
-1;
#X msg 719 81 \; \$1.margin 65 \;;
#X connect 0 0 41 0;
#X connect 1 0 6 0;
#X connect 3 0 0 0;
#X connect 4 0 33 0;
#X connect 4 1 1 0;
#X connect 4 2 5 0;
#X connect 7 0 4 0;
#X connect 8 0 11 0;
#X connect 9 0 15 0;
#X connect 10 0 34 0;
#X connect 10 1 9 0;
#X connect 10 2 14 0;
#X connect 11 0 12 0;
#X connect 12 0 10 0;
#X connect 13 0 8 0;
#X connect 17 0 18 0;
#X connect 18 0 11 1;
#X connect 19 0 20 0;
#X connect 20 0 7 1;
#X connect 21 0 24 0;
#X connect 22 0 29 0;
#X connect 23 0 35 0;
#X connect 23 1 22 0;
#X connect 23 2 28 0;
#X connect 24 0 40 0;
#X connect 25 0 24 1;
#X connect 26 0 25 0;
#X connect 27 0 21 0;
#X connect 31 0 12 1;
#X connect 32 0 31 0;
#X connect 33 0 2 0;
#X connect 34 0 16 0;
#X connect 35 0 30 0;
#X connect 36 0 42 0;
#X connect 37 0 25 1;
#X connect 38 0 18 1;
#X connect 38 0 31 1;
#X connect 39 0 20 1;
#X connect 40 0 23 0;
#X connect 41 0 7 0;
#X connect 42 0 44 0;
#X connect 43 0 42 0;
#X restore 23 15 pd frequency.separator.logic;
#N canvas 451 325 314 327 netpd_freq1 0;
#X obj 23 115 mtof;
#X obj 23 49 r \$0.seg1;
#X obj 23 93 + 25;
#X obj 23 71 * 0.21;
#X obj 156 122 ftom;
#X obj 156 144 - 25;
#X obj 156 166 / 0.21;
#X obj 156 208 t a a;
#X obj 183 230 s \$0.slider1;
#X msg 156 251 set \$1;
#X obj 156 273 s \$0.slider1.r;
#X obj 156 188 - 5;
#X obj 23 138 spigot 1;
#X obj 137 72 t b a b;
#X msg 176 94 0;
#X msg 137 94 1;
#X obj 137 49 route set;
#X obj 137 27 r \$1-\$2/xfreq1;
#X obj 23 159 s \$1-\$2/xfreq1;
#X connect 0 0 12 0;
#X connect 1 0 3 0;
#X connect 2 0 0 0;
#X connect 3 0 2 0;
#X connect 4 0 5 0;
#X connect 5 0 6 0;
#X connect 6 0 11 0;
#X connect 7 0 9 0;
#X connect 7 1 8 0;
#X connect 9 0 10 0;
#X connect 11 0 7 0;
#X connect 12 0 18 0;
#X connect 13 0 15 0;
#X connect 13 1 4 0;
#X connect 13 2 14 0;
#X connect 14 0 12 1;
#X connect 15 0 12 1;
#X connect 16 0 13 0;
#X connect 17 0 16 0;
#X restore 201 15 pd netpd_freq1;
#N canvas 451 325 319 316 netpd_freq2 0;
#X obj 23 115 mtof;
#X obj 23 93 + 25;
#X obj 23 71 * 0.21;
#X obj 156 122 ftom;
#X obj 156 144 - 25;
#X obj 156 166 / 0.21;
#X obj 156 208 t a a;
#X msg 156 251 set \$1;
#X obj 156 188 - 5;
#X obj 23 138 spigot 1;
#X obj 137 72 t b a b;
#X msg 176 94 0;
#X msg 137 94 1;
#X obj 137 49 route set;
#X obj 23 49 r \$0.seg2;
#X obj 183 230 s \$0.slider2;
#X obj 156 273 s \$0.slider2.r;
#X obj 137 27 r \$1-\$2/xfreq2;
#X obj 23 159 s \$1-\$2/xfreq2;
#X connect 0 0 9 0;
#X connect 1 0 0 0;
#X connect 2 0 1 0;
#X connect 3 0 4 0;
#X connect 4 0 5 0;
#X connect 5 0 8 0;
#X connect 6 0 7 0;
#X connect 6 1 15 0;
#X connect 7 0 16 0;
#X connect 8 0 6 0;
#X connect 9 0 18 0;
#X connect 10 0 12 0;
#X connect 10 1 3 0;
#X connect 10 2 11 0;
#X connect 11 0 9 1;
#X connect 12 0 9 1;
#X connect 13 0 10 0;
#X connect 14 0 2 0;
#X connect 17 0 13 0;
#X restore 294 15 pd netpd_freq2;
#N canvas 451 297 293 341 netpd_freq3 0;
#X obj 23 115 mtof;
#X obj 23 93 + 25;
#X obj 23 71 * 0.21;
#X obj 156 122 ftom;
#X obj 156 144 - 25;
#X obj 156 166 / 0.21;
#X obj 156 208 t a a;
#X msg 156 251 set \$1;
#X obj 156 188 - 5;
#X obj 23 138 spigot 1;
#X obj 137 72 t b a b;
#X msg 176 94 0;
#X msg 137 94 1;
#X obj 137 49 route set;
#X obj 23 49 r \$0.seg3;
#X obj 183 230 s \$0.slider3;
#X obj 156 273 s \$0.slider3.r;
#X obj 137 27 r \$1-\$2/xfreq3;
#X obj 23 159 s \$1-\$2/xfreq3;
#X connect 0 0 9 0;
#X connect 1 0 0 0;
#X connect 2 0 1 0;
#X connect 3 0 4 0;
#X connect 4 0 5 0;
#X connect 5 0 8 0;
#X connect 6 0 7 0;
#X connect 6 1 15 0;
#X connect 7 0 16 0;
#X connect 8 0 6 0;
#X connect 9 0 18 0;
#X connect 10 0 12 0;
#X connect 10 1 3 0;
#X connect 10 2 11 0;
#X connect 11 0 9 1;
#X connect 12 0 9 1;
#X connect 13 0 10 0;
#X connect 14 0 2 0;
#X connect 17 0 13 0;
#X restore 386 15 pd netpd_freq3;
#X restore 401 54 pd gui.stuff;
#X obj 30 37 netpd_f \$1 \$2/xfreq1 123;
#X obj 67 58 netpd_f \$1 \$2/xfreq2 763;
#X obj 110 78 netpd_f \$1 \$2/xfreq3 4712;
#X obj 88 216 netpd_f \$1 \$2/threshold1 0;
#X obj 73 330 s \$0.damp1;
#X obj 88 176 netpd_f \$1 \$2/gain1 0;
#N canvas 745 316 380 121 env~_*_4 0;
#X obj 23 60 env~ 4096;
#X obj 23 82 s \$0.env1;
#X obj 23 14 inlet~;
#X obj 111 62 env~ 4096;
#X obj 111 16 inlet~;
#X obj 193 63 env~ 4096;
#X obj 193 17 inlet~;
#X obj 281 65 env~ 4096;
#X obj 281 19 inlet~;
#X obj 111 84 s \$0.env2;
#X obj 193 85 s \$0.env3;
#X obj 281 87 s \$0.env4;
#X connect 0 0 1 0;
#X connect 2 0 0 0;
#X connect 3 0 9 0;
#X connect 4 0 3 0;
#X connect 5 0 10 0;
#X connect 6 0 5 0;
#X connect 7 0 11 0;
#X connect 8 0 7 0;
#X restore 82 150 pd env~_*_4;
#X obj 261 331 s \$0.damp2;
#X obj 436 331 s \$0.damp3;
#X obj 625 332 s \$0.damp4;
#N canvas 523 200 375 215 solo 0;
#X obj 25 25 inlet~;
#X obj 80 26 inlet~;
#X obj 26 124 *~;
#X obj 80 126 *~;
#X obj 26 164 outlet~;
#X obj 79 164 outlet~;
#X obj 165 28 netpd_f \$1 \$2/solo1 0;
#N canvas 651 360 442 347 sololevel 0;
#X obj 30 8 inlet;
#X obj 218 25 t b a;
#X msg 218 48 sololevel 0 \, sololevelrefresh;
#X obj 219 125 route sololevelrefresh sololevel;
#X obj 219 147 b;
#X obj 219 171 f;
#X obj 219 193 +;
#X msg 219 215 sololevel \$1;
#X obj 218 70 s \$0.solo;
#X obj 219 103 r \$0.solo;
#X obj 219 237 s \$0.solo;
#X obj 113 100 route sololevel;
#X obj 113 122 t b a;
#X obj 113 144 del 0;
#X obj 113 166 f;
#X obj 113 78 r \$0.solo;
#X obj 30 52 t a a;
#X obj 30 328 outlet;
#X obj 113 188 > 0;
#X obj 113 232 ==;
#X obj 113 254 t b a;
#X obj 30 283 ||;
#X obj 30 305 change;
#X obj 113 8 loadbang;
#X obj 30 30 change -1;
#X msg 113 30 0;
#X obj 113 210 change -1;
#X connect 0 0 24 0;
#X connect 1 0 2 0;
#X connect 1 1 6 1;
#X connect 2 0 8 0;
#X connect 3 0 4 0;
#X connect 3 1 5 1;
#X connect 4 0 5 0;
#X connect 5 0 6 0;
#X connect 6 0 7 0;
#X connect 7 0 10 0;
#X connect 9 0 3 0;
#X connect 11 0 12 0;
#X connect 12 0 13 0;
#X connect 12 1 14 1;
#X connect 13 0 14 0;
#X connect 14 0 18 0;
#X connect 15 0 11 0;
#X connect 16 0 21 0;
#X connect 16 1 1 0;
#X connect 18 0 26 0;
#X connect 19 0 20 0;
#X connect 20 0 21 0;
#X connect 20 1 21 1;
#X connect 21 0 22 0;
#X connect 22 0 17 0;
#X connect 23 0 25 0;
#X connect 24 0 16 0;
#X connect 25 0 24 0;
#X connect 26 0 19 0;
#X restore 165 52 pd sololevel;
#X msg 165 74 \$1 50;
#X obj 165 96 line~;
#X connect 0 0 2 0;
#X connect 1 0 3 0;
#X connect 2 0 4 0;
#X connect 3 0 5 0;
#X connect 6 0 7 0;
#X connect 7 0 8 0;
#X connect 8 0 9 0;
#X connect 9 0 3 1;
#X connect 9 0 2 1;
#X restore 11 363 pd solo;
#N canvas 523 200 375 215 solo 0;
#X obj 25 25 inlet~;
#X obj 80 26 inlet~;
#X obj 26 124 *~;
#X obj 80 126 *~;
#X obj 26 164 outlet~;
#X obj 79 164 outlet~;
#N canvas 651 360 442 347 sololevel 0;
#X obj 30 8 inlet;
#X obj 218 25 t b a;
#X msg 218 48 sololevel 0 \, sololevelrefresh;
#X obj 219 125 route sololevelrefresh sololevel;
#X obj 219 147 b;
#X obj 219 171 f;
#X obj 219 193 +;
#X msg 219 215 sololevel \$1;
#X obj 218 70 s \$0.solo;
#X obj 219 103 r \$0.solo;
#X obj 219 237 s \$0.solo;
#X obj 113 100 route sololevel;
#X obj 113 122 t b a;
#X obj 113 144 del 0;
#X obj 113 166 f;
#X obj 113 78 r \$0.solo;
#X obj 30 52 t a a;
#X obj 30 328 outlet;
#X obj 113 188 > 0;
#X obj 113 232 ==;
#X obj 113 254 t b a;
#X obj 30 283 ||;
#X obj 30 305 change;
#X obj 113 8 loadbang;
#X obj 30 30 change -1;
#X msg 113 30 0;
#X obj 113 210 change -1;
#X connect 0 0 24 0;
#X connect 1 0 2 0;
#X connect 1 1 6 1;
#X connect 2 0 8 0;
#X connect 3 0 4 0;
#X connect 3 1 5 1;
#X connect 4 0 5 0;
#X connect 5 0 6 0;
#X connect 6 0 7 0;
#X connect 7 0 10 0;
#X connect 9 0 3 0;
#X connect 11 0 12 0;
#X connect 12 0 13 0;
#X connect 12 1 14 1;
#X connect 13 0 14 0;
#X connect 14 0 18 0;
#X connect 15 0 11 0;
#X connect 16 0 21 0;
#X connect 16 1 1 0;
#X connect 18 0 26 0;
#X connect 19 0 20 0;
#X connect 20 0 21 0;
#X connect 20 1 21 1;
#X connect 21 0 22 0;
#X connect 22 0 17 0;
#X connect 23 0 25 0;
#X connect 24 0 16 0;
#X connect 25 0 24 0;
#X connect 26 0 19 0;
#X restore 165 52 pd sololevel;
#X msg 165 74 \$1 50;
#X obj 165 96 line~;
#X obj 165 28 netpd_f \$1 \$2/solo2 0;
#X connect 0 0 2 0;
#X connect 1 0 3 0;
#X connect 2 0 4 0;
#X connect 3 0 5 0;
#X connect 6 0 7 0;
#X connect 7 0 8 0;
#X connect 8 0 3 1;
#X connect 8 0 2 1;
#X connect 9 0 6 0;
#X restore 199 363 pd solo;
#N canvas 523 200 375 215 solo 0;
#X obj 25 25 inlet~;
#X obj 80 26 inlet~;
#X obj 26 124 *~;
#X obj 80 126 *~;
#X obj 26 164 outlet~;
#X obj 79 164 outlet~;
#N canvas 651 360 442 347 sololevel 0;
#X obj 30 8 inlet;
#X obj 218 25 t b a;
#X msg 218 48 sololevel 0 \, sololevelrefresh;
#X obj 219 125 route sololevelrefresh sololevel;
#X obj 219 147 b;
#X obj 219 171 f;
#X obj 219 193 +;
#X msg 219 215 sololevel \$1;
#X obj 218 70 s \$0.solo;
#X obj 219 103 r \$0.solo;
#X obj 219 237 s \$0.solo;
#X obj 113 100 route sololevel;
#X obj 113 122 t b a;
#X obj 113 144 del 0;
#X obj 113 166 f;
#X obj 113 78 r \$0.solo;
#X obj 30 52 t a a;
#X obj 30 328 outlet;
#X obj 113 188 > 0;
#X obj 113 232 ==;
#X obj 113 254 t b a;
#X obj 30 283 ||;
#X obj 30 305 change;
#X obj 113 8 loadbang;
#X obj 30 30 change -1;
#X msg 113 30 0;
#X obj 113 210 change -1;
#X connect 0 0 24 0;
#X connect 1 0 2 0;
#X connect 1 1 6 1;
#X connect 2 0 8 0;
#X connect 3 0 4 0;
#X connect 3 1 5 1;
#X connect 4 0 5 0;
#X connect 5 0 6 0;
#X connect 6 0 7 0;
#X connect 7 0 10 0;
#X connect 9 0 3 0;
#X connect 11 0 12 0;
#X connect 12 0 13 0;
#X connect 12 1 14 1;
#X connect 13 0 14 0;
#X connect 14 0 18 0;
#X connect 15 0 11 0;
#X connect 16 0 21 0;
#X connect 16 1 1 0;
#X connect 18 0 26 0;
#X connect 19 0 20 0;
#X connect 20 0 21 0;
#X connect 20 1 21 1;
#X connect 21 0 22 0;
#X connect 22 0 17 0;
#X connect 23 0 25 0;
#X connect 24 0 16 0;
#X connect 25 0 24 0;
#X connect 26 0 19 0;
#X restore 165 52 pd sololevel;
#X msg 165 74 \$1 50;
#X obj 165 96 line~;
#X obj 165 28 netpd_f \$1 \$2/solo3 0;
#X connect 0 0 2 0;
#X connect 1 0 3 0;
#X connect 2 0 4 0;
#X connect 3 0 5 0;
#X connect 6 0 7 0;
#X connect 7 0 8 0;
#X connect 8 0 3 1;
#X connect 8 0 2 1;
#X connect 9 0 6 0;
#X restore 374 363 pd solo;
#N canvas 523 200 375 215 solo 0;
#X obj 25 25 inlet~;
#X obj 80 26 inlet~;
#X obj 26 124 *~;
#X obj 80 126 *~;
#X obj 26 164 outlet~;
#X obj 79 164 outlet~;
#N canvas 651 360 442 347 sololevel 0;
#X obj 30 8 inlet;
#X obj 218 25 t b a;
#X msg 218 48 sololevel 0 \, sololevelrefresh;
#X obj 219 125 route sololevelrefresh sololevel;
#X obj 219 147 b;
#X obj 219 171 f;
#X obj 219 193 +;
#X msg 219 215 sololevel \$1;
#X obj 218 70 s \$0.solo;
#X obj 219 103 r \$0.solo;
#X obj 219 237 s \$0.solo;
#X obj 113 100 route sololevel;
#X obj 113 122 t b a;
#X obj 113 144 del 0;
#X obj 113 166 f;
#X obj 113 78 r \$0.solo;
#X obj 30 52 t a a;
#X obj 30 328 outlet;
#X obj 113 188 > 0;
#X obj 113 232 ==;
#X obj 113 254 t b a;
#X obj 30 283 ||;
#X obj 30 305 change;
#X obj 113 8 loadbang;
#X obj 30 30 change -1;
#X msg 113 30 0;
#X obj 113 210 change -1;
#X connect 0 0 24 0;
#X connect 1 0 2 0;
#X connect 1 1 6 1;
#X connect 2 0 8 0;
#X connect 3 0 4 0;
#X connect 3 1 5 1;
#X connect 4 0 5 0;
#X connect 5 0 6 0;
#X connect 6 0 7 0;
#X connect 7 0 10 0;
#X connect 9 0 3 0;
#X connect 11 0 12 0;
#X connect 12 0 13 0;
#X connect 12 1 14 1;
#X connect 13 0 14 0;
#X connect 14 0 18 0;
#X connect 15 0 11 0;
#X connect 16 0 21 0;
#X connect 16 1 1 0;
#X connect 18 0 26 0;
#X connect 19 0 20 0;
#X connect 20 0 21 0;
#X connect 20 1 21 1;
#X connect 21 0 22 0;
#X connect 22 0 17 0;
#X connect 23 0 25 0;
#X connect 24 0 16 0;
#X connect 25 0 24 0;
#X connect 26 0 19 0;
#X restore 165 52 pd sololevel;
#X msg 165 74 \$1 50;
#X obj 165 96 line~;
#X obj 165 28 netpd_f \$1 \$2/solo4 0;
#X connect 0 0 2 0;
#X connect 1 0 3 0;
#X connect 2 0 4 0;
#X connect 3 0 5 0;
#X connect 6 0 7 0;
#X connect 7 0 8 0;
#X connect 8 0 3 1;
#X connect 8 0 2 1;
#X connect 9 0 6 0;
#X restore 562 364 pd solo;
#X obj 88 196 netpd_f \$1 \$2/ratio1 1;
#X obj 88 236 netpd_f \$1 \$2/attack1 50;
#X obj 88 256 netpd_f \$1 \$2/release1 200;
#X obj 266 171 netpd_f \$1 \$2/gain2 0;
#X obj 266 191 netpd_f \$1 \$2/ratio2 1;
#X obj 266 211 netpd_f \$1 \$2/threshold2 0;
#X obj 266 251 netpd_f \$1 \$2/release2 200;
#X obj 266 231 netpd_f \$1 \$2/attack2 50;
#X obj 456 171 netpd_f \$1 \$2/gain3 0;
#X obj 456 191 netpd_f \$1 \$2/ratio3 1;
#X obj 456 211 netpd_f \$1 \$2/threshold3 0;
#X obj 456 231 netpd_f \$1 \$2/attack3 50;
#X obj 456 251 netpd_f \$1 \$2/release3 200;
#X obj 636 171 netpd_f \$1 \$2/gain4 0;
#X obj 636 191 netpd_f \$1 \$2/ratio4 1;
#X obj 636 211 netpd_f \$1 \$2/threshold4 0;
#X obj 636 231 netpd_f \$1 \$2/attack4 50;
#X obj 636 251 netpd_f \$1 \$2/release4 200;
#X connect 0 0 6 0;
#X connect 5 0 23 0;
#X connect 5 1 23 1;
#X connect 5 2 17 0;
#X connect 6 0 5 0;
#X connect 6 0 19 0;
#X connect 6 1 7 0;
#X connect 6 1 19 1;
#X connect 6 2 8 0;
#X connect 6 2 19 2;
#X connect 6 3 9 0;
#X connect 6 3 19 3;
#X connect 7 0 24 0;
#X connect 7 1 24 1;
#X connect 7 2 20 0;
#X connect 8 0 25 0;
#X connect 8 1 25 1;
#X connect 8 2 21 0;
#X connect 9 0 26 0;
#X connect 9 1 26 1;
#X connect 9 2 22 0;
#X connect 10 0 11 0;
#X connect 11 0 5 1;
#X connect 11 0 19 0;
#X connect 11 1 7 1;
#X connect 11 1 19 1;
#X connect 11 2 8 1;
#X connect 11 2 19 2;
#X connect 11 3 9 1;
#X connect 11 3 19 3;
#X connect 13 0 6 1;
#X connect 13 0 11 1;
#X connect 14 0 6 2;
#X connect 14 0 11 2;
#X connect 15 0 6 3;
#X connect 15 0 11 3;
#X connect 16 0 5 4;
#X connect 18 0 5 2;
#X connect 23 0 1 0;
#X connect 23 1 2 0;
#X connect 24 0 1 0;
#X connect 24 1 2 0;
#X connect 25 0 1 0;
#X connect 25 1 2 0;
#X connect 26 0 1 0;
#X connect 26 1 2 0;
#X connect 27 0 5 3;
#X connect 28 0 5 5;
#X connect 29 0 5 6;
#X connect 30 0 7 2;
#X connect 31 0 7 3;
#X connect 32 0 7 4;
#X connect 33 0 7 6;
#X connect 34 0 7 5;
#X connect 35 0 8 2;
#X connect 36 0 8 3;
#X connect 37 0 8 4;
#X connect 38 0 8 5;
#X connect 39 0 8 6;
#X connect 40 0 9 2;
#X connect 41 0 9 3;
#X connect 42 0 9 4;
#X connect 43 0 9 5;
#X connect 44 0 9 6;
