#N canvas 692 106 940 477 10;
#X obj 10 12 inlet~;
#X obj 9 135 outlet~;
#X obj 58 135 outlet~;
#N canvas 769 326 155 121 NETPD 0;
#N canvas 589 410 159 110 abslist 0;
#X msg 10 54 r4mbc-sbcg;
#X restore 11 34 pd abslist;
#X msg 11 7 version 0 1 4;
#X restore 837 31 pd NETPD 2 0;
#X obj 55 12 inlet~;
#N canvas 762 300 506 114 gui.stuff 0;
#N canvas 340 170 953 289 frequency.separator.logic 0;
#X obj 20 41 + 5;
#X msg 39 160 vis_size \$1 10;
#X obj 20 233 s \$0.slider1.r;
#X obj 20 16 r \$0.slider1;
#X obj 20 112 t a a a;
#X obj 59 137 s \$0.seg1;
#X obj 39 182 s \$0.segment1;
#X obj 250 41 + 5;
#X msg 269 160 vis_size \$1 10;
#X obj 250 112 t a a a;
#X obj 250 64 max 20;
#X obj 250 16 r \$0.slider2;
#X obj 289 137 s \$0.seg2;
#X obj 269 182 s \$0.segment2;
#X obj 250 226 s \$0.slider2.r;
#X obj 332 17 r \$0.seg1;
#X obj 332 39 + 50;
#X obj 103 83 r \$0.seg2;
#X obj 103 105 - 50;
#X obj 480 45 + 5;
#X msg 499 164 vis_size \$1 10;
#X obj 480 116 t a a a;
#X obj 480 68 max 20;
#X obj 562 43 + 50;
#X obj 562 21 r \$0.seg2;
#X obj 480 20 r \$0.slider3;
#X obj 519 141 s \$0.seg3;
#X obj 499 186 s \$0.segment3;
#X obj 480 230 s \$0.slider3.r;
#X obj 327 96 - 50;
#X obj 327 74 r \$0.seg3;
#X msg 20 211 size \$1 10 \, range 1 \$1;
#X msg 250 204 size \$1 10 \, range 1 \$1;
#X msg 480 208 size \$1 10 \, range 1 \$1;
#X obj 719 37 loadbang;
#X obj 600 59 r \$0.margin;
#X obj 378 48 r \$0.margin;
#X obj 148 116 r \$0.margin;
#X obj 719 59 \$0;
#X obj 796 30 bng 15 250 50 0 empty empty empty 17 7 0 10 -262144 -1
-1;
#X msg 719 81 \; \$1.margin 52 \;;
#X obj 480 90 min 376;
#X obj 20 64 max 20;
#X obj 20 86 min 395;
#X obj 250 86 min 395;
#X connect 0 0 42 0;
#X connect 1 0 6 0;
#X connect 3 0 0 0;
#X connect 4 0 31 0;
#X connect 4 1 1 0;
#X connect 4 2 5 0;
#X connect 7 0 10 0;
#X connect 8 0 13 0;
#X connect 9 0 32 0;
#X connect 9 1 8 0;
#X connect 9 2 12 0;
#X connect 10 0 44 0;
#X connect 11 0 7 0;
#X connect 15 0 16 0;
#X connect 16 0 10 1;
#X connect 17 0 18 0;
#X connect 18 0 43 1;
#X connect 19 0 22 0;
#X connect 20 0 27 0;
#X connect 21 0 33 0;
#X connect 21 1 20 0;
#X connect 21 2 26 0;
#X connect 22 0 41 0;
#X connect 23 0 22 1;
#X connect 24 0 23 0;
#X connect 25 0 19 0;
#X connect 29 0 44 1;
#X connect 30 0 29 0;
#X connect 31 0 2 0;
#X connect 32 0 14 0;
#X connect 33 0 28 0;
#X connect 34 0 38 0;
#X connect 35 0 23 1;
#X connect 36 0 16 1;
#X connect 36 0 29 1;
#X connect 37 0 18 1;
#X connect 38 0 40 0;
#X connect 39 0 38 0;
#X connect 41 0 21 0;
#X connect 42 0 43 0;
#X connect 43 0 4 0;
#X connect 44 0 9 0;
#X restore 23 15 pd frequency.separator.logic;
#N canvas 451 325 314 327 netpd_freq1 0;
#X obj 23 115 mtof;
#X obj 23 49 r \$0.seg1;
#X obj 156 122 ftom;
#X obj 156 144 - 25;
#X obj 156 208 t a a;
#X obj 183 230 s \$0.slider1;
#X msg 156 251 set \$1;
#X obj 156 273 s \$0.slider1.r;
#X obj 156 188 - 5;
#X obj 23 138 spigot 1;
#X obj 137 72 t b a b;
#X msg 176 94 0;
#X msg 137 94 1;
#X obj 137 49 route set;
#X obj 137 27 r \$1-\$2/xfreq1;
#X obj 23 159 s \$1-\$2/xfreq1;
#X obj 23 93 + 25;
#X obj 23 71 * 0.2625;
#X obj 156 166 / 0.2625;
#X connect 0 0 9 0;
#X connect 1 0 17 0;
#X connect 2 0 3 0;
#X connect 3 0 18 0;
#X connect 4 0 6 0;
#X connect 4 1 5 0;
#X connect 6 0 7 0;
#X connect 8 0 4 0;
#X connect 9 0 15 0;
#X connect 10 0 12 0;
#X connect 10 1 2 0;
#X connect 10 2 11 0;
#X connect 11 0 9 1;
#X connect 12 0 9 1;
#X connect 13 0 10 0;
#X connect 14 0 13 0;
#X connect 16 0 0 0;
#X connect 17 0 16 0;
#X connect 18 0 8 0;
#X restore 201 15 pd netpd_freq1;
#N canvas 451 325 319 316 netpd_freq2 0;
#X obj 23 115 mtof;
#X obj 23 93 + 25;
#X obj 156 122 ftom;
#X obj 156 144 - 25;
#X obj 156 208 t a a;
#X msg 156 251 set \$1;
#X obj 156 188 - 5;
#X obj 23 138 spigot 1;
#X obj 137 72 t b a b;
#X msg 176 94 0;
#X msg 137 94 1;
#X obj 137 49 route set;
#X obj 23 49 r \$0.seg2;
#X obj 183 230 s \$0.slider2;
#X obj 156 273 s \$0.slider2.r;
#X obj 137 27 r \$1-\$2/xfreq2;
#X obj 23 159 s \$1-\$2/xfreq2;
#X obj 23 71 * 0.2625;
#X obj 156 166 / 0.2625;
#X connect 0 0 7 0;
#X connect 1 0 0 0;
#X connect 2 0 3 0;
#X connect 3 0 18 0;
#X connect 4 0 5 0;
#X connect 4 1 13 0;
#X connect 5 0 14 0;
#X connect 6 0 4 0;
#X connect 7 0 16 0;
#X connect 8 0 10 0;
#X connect 8 1 2 0;
#X connect 8 2 9 0;
#X connect 9 0 7 1;
#X connect 10 0 7 1;
#X connect 11 0 8 0;
#X connect 12 0 17 0;
#X connect 15 0 11 0;
#X connect 17 0 1 0;
#X connect 18 0 6 0;
#X restore 294 15 pd netpd_freq2;
#N canvas 451 297 293 341 netpd_freq3 0;
#X obj 23 115 mtof;
#X obj 23 93 + 25;
#X obj 156 122 ftom;
#X obj 156 144 - 25;
#X obj 156 208 t a a;
#X msg 156 251 set \$1;
#X obj 156 188 - 5;
#X obj 23 138 spigot 1;
#X obj 137 72 t b a b;
#X msg 176 94 0;
#X msg 137 94 1;
#X obj 137 49 route set;
#X obj 23 49 r \$0.seg3;
#X obj 183 230 s \$0.slider3;
#X obj 156 273 s \$0.slider3.r;
#X obj 137 27 r \$1-\$2/xfreq3;
#X obj 23 159 s \$1-\$2/xfreq3;
#X obj 23 71 * 0.2625;
#X obj 156 166 / 0.2625;
#X connect 0 0 7 0;
#X connect 1 0 0 0;
#X connect 2 0 3 0;
#X connect 3 0 18 0;
#X connect 4 0 5 0;
#X connect 4 1 13 0;
#X connect 5 0 14 0;
#X connect 6 0 4 0;
#X connect 7 0 16 0;
#X connect 8 0 10 0;
#X connect 8 1 2 0;
#X connect 8 2 9 0;
#X connect 9 0 7 1;
#X connect 10 0 7 1;
#X connect 11 0 8 0;
#X connect 12 0 17 0;
#X connect 15 0 11 0;
#X connect 17 0 1 0;
#X connect 18 0 6 0;
#X restore 386 15 pd netpd_freq3;
#N canvas 1026 244 199 182 xfreq1 0;
#X obj 21 20 r \$1-\$2/xfreq1;
#X obj 21 42 route float set;
#X obj 21 67 int;
#X msg 21 112 label \$1;
#X obj 21 134 s \$0.xfreq1.display;
#X obj 21 90 makefilename %6dHz;
#X connect 0 0 1 0;
#X connect 1 0 2 0;
#X connect 1 1 2 0;
#X connect 2 0 5 0;
#X connect 3 0 4 0;
#X connect 5 0 3 0;
#X restore 202 38 pd xfreq1;
#N canvas 1026 272 199 182 xfreq2 0;
#X obj 21 42 route float set;
#X obj 21 67 int;
#X msg 21 112 label \$1;
#X obj 21 20 r \$1-\$2/xfreq2;
#X obj 21 134 s \$0.xfreq2.display;
#X obj 21 90 makefilename %6dHz;
#X connect 0 0 1 0;
#X connect 0 1 1 0;
#X connect 1 0 5 0;
#X connect 2 0 4 0;
#X connect 3 0 0 0;
#X connect 5 0 2 0;
#X restore 294 38 pd xfreq2;
#N canvas 1026 300 199 182 xfreq3 0;
#X obj 21 42 route float set;
#X obj 21 67 int;
#X msg 21 112 label \$1;
#X obj 21 20 r \$1-\$2/xfreq3;
#X obj 21 134 s \$0.xfreq3.display;
#X obj 21 90 makefilename %6dHz;
#X connect 0 0 1 0;
#X connect 0 1 1 0;
#X connect 1 0 5 0;
#X connect 2 0 4 0;
#X connect 3 0 0 0;
#X connect 5 0 2 0;
#X restore 386 38 pd xfreq3;
#X restore 837 52 pd gui.stuff;
#X obj 161 10 netpd_f \$1 \$2/xfreq1 123;
#X obj 198 51 netpd_f \$1 \$2/xfreq2 763;
#X obj 241 91 netpd_f \$1 \$2/xfreq3 4712;
#X obj 19 225 netpd_f \$1 \$2/threshold1 0;
#X obj 606 74 s \$0.damp1;
#X obj 49 345 netpd_f \$1 \$2/gain1 0;
#X obj 654 53 s \$0.damp2;
#X obj 703 73 s \$0.damp3;
#X obj 752 53 s \$0.damp4;
#X obj 29 265 netpd_f \$1 \$2/attack1 30;
#X obj 39 305 netpd_f \$1 \$2/release1 60;
#X obj 9 185 netpd_f \$1 \$2/ratio1 2;
#X obj 10 80 dynlib_4mbc~;
#X obj 59 385 netpd_f \$1 \$2/solo1 0;
#X obj 426 75 s \$0.env1;
#X obj 462 54 s \$0.env2;
#X obj 499 75 s \$0.env3;
#X obj 536 54 s \$0.env4;
#X obj 79 44 r \$0.in;
#X obj 79 104 s \$0.out;
#X obj 426 10 r \$0.out;
#X obj 161 140 s \$0.in;
#X obj 426 31 route rms1 rms2 rms3 rms4;
#X obj 606 10 r \$0.out;
#X obj 606 31 route atten1 atten2 atten3 atten4;
#X msg 161 31 xfreq1 \$1;
#X msg 198 72 xfreq2 \$1;
#X msg 9 206 ratio1 \$1;
#X msg 19 246 threshold1 \$1;
#X msg 29 286 attack1 \$1;
#X msg 39 326 release1 \$1;
#X msg 49 366 gain1 \$1;
#X msg 59 406 solo1 \$1;
#X obj 9 435 s \$0.in;
#X obj 209 435 s \$0.in;
#X obj 409 435 s \$0.in;
#X obj 609 435 s \$0.in;
#X obj 209 185 netpd_f \$1 \$2/ratio2 2;
#X msg 209 206 ratio2 \$1;
#X obj 219 225 netpd_f \$1 \$2/threshold2 0;
#X msg 219 246 threshold2 \$1;
#X obj 229 265 netpd_f \$1 \$2/attack2 15;
#X msg 229 286 attack2 \$1;
#X obj 239 305 netpd_f \$1 \$2/release2 60;
#X msg 239 326 release2 \$1;
#X obj 249 345 netpd_f \$1 \$2/gain2 0;
#X msg 249 366 gain2 \$1;
#X obj 259 385 netpd_f \$1 \$2/solo2 0;
#X msg 259 406 solo2 \$1;
#X msg 241 112 xfreq3 \$1;
#X obj 409 185 netpd_f \$1 \$2/ratio3 2;
#X msg 409 206 ratio3 \$1;
#X obj 419 225 netpd_f \$1 \$2/threshold3 0;
#X msg 419 246 threshold3 \$1;
#X obj 429 265 netpd_f \$1 \$2/attack3 8;
#X msg 429 286 attack3 \$1;
#X obj 439 305 netpd_f \$1 \$2/release3 40;
#X msg 439 326 release3 \$1;
#X obj 449 345 netpd_f \$1 \$2/gain3 0;
#X msg 449 366 gain3 \$1;
#X obj 459 385 netpd_f \$1 \$2/solo3 0;
#X obj 609 185 netpd_f \$1 \$2/ratio4 2;
#X msg 609 206 ratio4 \$1;
#X obj 619 225 netpd_f \$1 \$2/threshold4 0;
#X msg 619 246 threshold4 \$1;
#X obj 629 265 netpd_f \$1 \$2/attack4 4;
#X msg 629 286 attack4 \$1;
#X obj 639 305 netpd_f \$1 \$2/release4 40;
#X msg 639 326 release4 \$1;
#X obj 649 345 netpd_f \$1 \$2/gain4 0;
#X msg 649 366 gain4 \$1;
#X obj 659 385 netpd_f \$1 \$2/solo4 0;
#X msg 659 406 solo4 \$1;
#X msg 459 406 solo3 \$1;
#N canvas 603 457 427 215 \$3-\$2 1;
#X obj 2 2 cnv 15 410 202 empty empty sdfdsaf 20 12 0 14 -33295 -66577
0;
#X obj 5 5 cnv 14 404 14 empty empty empty 20 12 0 14 -1 -66577 0;
#X obj 5 47 r4mbc-sbcg \$1 \$2 \$0 1;
#X obj 90 47 r4mbc-sbcg \$1 \$2 \$0 2;
#X obj 175 47 r4mbc-sbcg \$1 \$2 \$0 3;
#X obj 260 47 r4mbc-sbcg \$1 \$2 \$0 4;
#N canvas 546 121 434 65 frequency.separator 0;
#X obj 13 10 hsl 83 10 1 83.5576 0 0 \$0.slider1 \$0.slider1.r sdfa
-2 5 0 10 -262144 -1 -1 0 1;
#X obj 13 10 hsl 203 10 1 203.924 0 0 \$0.slider2 \$0.slider2.r sdfa
-2 5 0 10 -262144 -1 -1 0 1;
#X obj 14 10 hsl 323 10 1 323.997 0 0 \$0.slider3 \$0.slider3.r sdfa
-2 5 0 10 -262144 -1 -1 0 1;
#X obj 10 10 cnv 10 400 10 empty \$0.segment4 empty 20 12 0 14 -261056
-66577 0;
#X obj 10 10 cnv 10 323 10 empty \$0.segment3 empty 20 12 0 14 -235706
-66577 0;
#X obj 10 10 cnv 10 203 10 empty \$0.segment2 empty 20 12 0 14 -198129
-66577 0;
#X obj 10 10 cnv 10 83 10 empty \$0.segment1 empty 20 0 0 14 -144676
-66577 0;
#X coords 0 -1 1 1 400 10 2 10 10;
#X restore 7 7 pd frequency.separator;
#X obj 335 65 cnv 15 74 16 empty empty --threshold 2 7 0 10 -86853
-257025 0;
#X obj 335 85 cnv 15 74 16 empty empty ------ratio 2 7 0 10 -86853
-257025 0;
#X obj 335 105 cnv 15 74 16 empty empty -----attack 2 7 0 10 -86853
-257025 0;
#X obj 335 125 cnv 15 74 16 empty empty ----release 2 7 0 10 -86853
-257025 0;
#X obj 335 145 cnv 15 74 16 empty empty -------gain 2 7 0 10 -86853
-257025 0;
#X obj 50 24 cnv 15 60 15 empty \$0.xfreq1.display 123Hz 2 7 0 10 -66577
-259712 0;
#X obj 136 24 cnv 15 60 15 empty \$0.xfreq2.display 763Hz 2 7 0 10
-66577 -259712 0;
#X obj 223 24 cnv 15 60 15 empty \$0.xfreq3.display 4712Hz 2 7 0 10
-66577 -259712 0;
#X obj 80 65 cnv 9 9 16 empty empty - 2 7 0 10 -86853 -257025 0;
#X obj 80 85 cnv 9 9 16 empty empty - 2 7 0 10 -86853 -257025 0;
#X obj 80 105 cnv 9 9 16 empty empty - 2 7 0 10 -86853 -257025 0;
#X obj 80 125 cnv 9 9 16 empty empty - 2 7 0 10 -86853 -257025 0;
#X obj 80 145 cnv 9 9 16 empty empty - 2 7 0 10 -86853 -257025 0;
#X obj 165 65 cnv 9 9 16 empty empty - 2 7 0 10 -86853 -257025 0;
#X obj 165 85 cnv 9 9 16 empty empty - 2 7 0 10 -86853 -257025 0;
#X obj 165 105 cnv 9 9 16 empty empty - 2 7 0 10 -86853 -257025 0;
#X obj 165 125 cnv 9 9 16 empty empty - 2 7 0 10 -86853 -257025 0;
#X obj 165 145 cnv 9 9 16 empty empty - 2 7 0 10 -86853 -257025 0;
#X obj 250 65 cnv 9 9 16 empty empty - 2 7 0 10 -86853 -257025 0;
#X obj 250 85 cnv 9 9 16 empty empty - 2 7 0 10 -86853 -257025 0;
#X obj 250 105 cnv 9 9 16 empty empty - 2 7 0 10 -86853 -257025 0;
#X obj 250 125 cnv 9 9 16 empty empty - 2 7 0 10 -86853 -257025 0;
#X obj 250 145 cnv 9 9 16 empty empty - 2 7 0 10 -86853 -257025 0;
#X obj 338 35 cnv 15 15 15 empty empty r4mbc 3 8 0 20 -33295 -165824
0;
#X obj 338 52 cnv 3 3 3 empty empty _____ 3 -10 0 20 -33295 -165824
0;
#X obj 341 27 cnv 3 3 3 empty empty _____ 0 -5 0 20 -33295 -165824
0;
#X restore 837 12 pd \$3-\$2;
#X connect 0 0 18 0;
#X connect 4 0 18 1;
#X connect 6 0 31 0;
#X connect 7 0 32 0;
#X connect 8 0 55 0;
#X connect 9 0 34 0;
#X connect 11 0 37 0;
#X connect 15 0 35 0;
#X connect 16 0 36 0;
#X connect 17 0 33 0;
#X connect 18 0 1 0;
#X connect 18 1 2 0;
#X connect 18 2 25 0;
#X connect 19 0 38 0;
#X connect 24 0 18 2;
#X connect 26 0 28 0;
#X connect 28 0 20 0;
#X connect 28 1 21 0;
#X connect 28 2 22 0;
#X connect 28 3 23 0;
#X connect 29 0 30 0;
#X connect 30 0 10 0;
#X connect 30 1 12 0;
#X connect 30 2 13 0;
#X connect 30 3 14 0;
#X connect 31 0 27 0;
#X connect 32 0 27 0;
#X connect 33 0 39 0;
#X connect 34 0 39 0;
#X connect 35 0 39 0;
#X connect 36 0 39 0;
#X connect 37 0 39 0;
#X connect 38 0 39 0;
#X connect 43 0 44 0;
#X connect 44 0 40 0;
#X connect 45 0 46 0;
#X connect 46 0 40 0;
#X connect 47 0 48 0;
#X connect 48 0 40 0;
#X connect 49 0 50 0;
#X connect 50 0 40 0;
#X connect 51 0 52 0;
#X connect 52 0 40 0;
#X connect 53 0 54 0;
#X connect 54 0 40 0;
#X connect 55 0 27 0;
#X connect 56 0 57 0;
#X connect 57 0 41 0;
#X connect 58 0 59 0;
#X connect 59 0 41 0;
#X connect 60 0 61 0;
#X connect 61 0 41 0;
#X connect 62 0 63 0;
#X connect 63 0 41 0;
#X connect 64 0 65 0;
#X connect 65 0 41 0;
#X connect 66 0 79 0;
#X connect 67 0 68 0;
#X connect 68 0 42 0;
#X connect 69 0 70 0;
#X connect 70 0 42 0;
#X connect 71 0 72 0;
#X connect 72 0 42 0;
#X connect 73 0 74 0;
#X connect 74 0 42 0;
#X connect 75 0 76 0;
#X connect 76 0 42 0;
#X connect 77 0 78 0;
#X connect 78 0 42 0;
#X connect 79 0 41 0;
