#N canvas 134 44 929 557 10;
#X text 5 2 single band compressor gui;
#X text 215 3 args: \$1 \$2 \$0 id;
#X obj 160 148 s \$0.threshold.display;
#X msg 310 142 label 1:\$1;
#X obj 310 164 s \$0.ratio.display;
#X msg 431 123 label \$1ms;
#X obj 431 145 s \$0.attack.display;
#X msg 570 128 label \$1ms;
#X obj 570 150 s \$0.release.display;
#X obj 241 399 s \$0.gain.display;
#X obj 160 53 route float set;
#X msg 160 125 label \$1;
#X obj 160 78 int;
#X obj 310 52 route float set;
#X obj 160 101 makefilename %4ddB;
#X obj 431 53 route float set;
#X obj 431 80 int;
#X obj 431 100 makefilename %4d;
#X obj 570 58 route float set;
#X obj 570 85 int;
#X obj 570 105 makefilename %4d;
#X obj 310 74 * 10;
#X obj 310 96 int;
#X obj 310 118 * 0.1;
#X obj 241 305 route float set;
#X obj 241 330 int;
#X obj 241 352 makefilename %4ddB;
#X msg 241 376 label \$1;
#X obj 160 31 r \$1-\$2/threshold\$4;
#X obj 310 30 r \$1-\$2/ratio\$4;
#X obj 431 31 r \$1-\$2/attack\$4;
#X obj 570 36 r \$1-\$2/release\$4;
#X obj 241 283 r \$1-\$2/gain\$4;
#X msg 396 441 vis_size 3 \$1;
#X obj 396 310 - 80;
#X obj 396 332 * 6;
#X msg 396 354 120 \$1;
#X obj 396 376 -;
#X obj 396 421 + 3;
#X obj 396 400 min 120;
#X obj 652 441 s \$0.threshold.gui;
#X msg 652 417 vis_size 8 \$1;
#X obj 652 393 + 3;
#X obj 652 370 * -2;
#X obj 652 322 route float set;
#X obj 803 340 - 40;
#X obj 803 361 * 2;
#X msg 803 383 120 \$1;
#X obj 803 405 -;
#X obj 803 320 max 40;
#X msg 803 454 vis_size 3 \$1;
#X obj 396 287 r \$3.damp\$4;
#X obj 652 300 r \$1-\$2/threshold\$4;
#X obj 803 298 r \$3.env\$4;
#X obj 396 464 s \$0.damp.gui;
#X obj 803 477 s \$0.level.gui;
#X obj 726 35 r \$3.env\$4;
#X obj 726 57 - 100;
#X obj 726 79 max;
#X obj 726 125 t a a b;
#X obj 726 101 change;
#X obj 726 248 s \$0.level.display;
#X msg 726 226 label \$1;
#X obj 771 200 makefilename %4ddB;
#X msg 789 119 -200;
#X obj 726 147 sel -100;
#X msg 726 170 symbol \ \ -∞dB;
#X obj 789 97 del 500;
#X obj 789 73 loadbang;
#X obj 518 291 r \$3.damp\$4;
#X obj 518 313 - 100;
#X obj 518 385 t a a b;
#X obj 518 361 change;
#X obj 581 357 del 500;
#X obj 581 333 loadbang;
#X obj 518 339 min;
#X msg 581 379 0;
#X msg 518 432 label \$1;
#X obj 518 408 makefilename %4ddB;
#X obj 518 454 s \$0.damp.display;
#X obj 52 147 tgl 20 0 \$1-\$2/solo\$4 \$1-\$2/solo\$4 empty 17 7 0
10 -262144 -1 -1 0 1;
#X obj 72 147 tgl 20 0 \$1-\$2/solo\$4 \$1-\$2/solo\$4 empty 17 7 0
10 -262144 -1 -1 0 1;
#X obj 82 147 tgl 20 0 \$1-\$2/solo\$4 \$1-\$2/solo\$4 empty 17 7 0
10 -262144 -1 -1 0 1;
#X obj 53 47 nbx 5 18 -60 0 0 0 \$1-\$2/threshold\$4 \$1-\$2/threshold\$4
empty 0 -8 0 9 -262144 -1 -1 -18.1513 256;
#X obj 53 67 nbx 5 18 1 10 1 0 \$1-\$2/ratio\$4 \$1-\$2/ratio\$4 empty
0 -8 0 9 -262144 -1 -1 2 200;
#X obj 53 87 nbx 5 18 1 1000 1 0 \$1-\$2/attack\$4 \$1-\$2/attack\$4
empty 0 -8 0 9 -262144 -1 -1 17.4658 256;
#X obj 53 107 nbx 5 18 10 9999 1 0 \$1-\$2/release\$4 \$1-\$2/release\$4
empty 0 -8 0 9 -262144 -1 -1 60 256;
#X obj 53 127 nbx 5 18 -24 24 0 0 \$1-\$2/gain\$4 \$1-\$2/gain\$4 empty
0 -8 0 9 -262144 -1 -1 0 256;
#X obj 31 46 vsl 10 120 -60 0 0 0 \$1-\$2/threshold\$4 \$1-\$2/threshold\$4
empty 0 -9 0 10 -262144 -1 -1 8300 1;
#X obj 30 30 cnv 6 74 154 empty empty empty 20 12 0 14 -1 -66577 0
;
#X obj 42 47 cnv 3 3 120 empty empty empty 20 12 0 14 -261057 -66577
0;
#X obj 42 43 cnv 3 3 123 empty \$0.level.gui empty 20 12 0 14 -66577
-66577 0;
#X obj 47 47 cnv 3 3 120 empty empty empty 20 12 0 14 -66577 -66577
0;
#X obj 47 43 cnv 3 3 3 empty \$0.damp.gui empty 20 12 0 14 -258113
-66577 0;
#X obj 32 169 cnv 5 70 13 empty \$0.level.display -∞dB 0 7 0 10 -66577
-261441 0;
#X obj 32 47 cnv 3 8 120 empty empty empty 20 12 0 14 -4034 -66577
0;
#X obj 32 43 cnv 3 8 39 empty \$0.threshold.gui empty 20 12 0 14 -66577
-66577 0;
#X obj 32 43 cnv 3 18 3 empty empty empty 20 12 0 14 -1 -66577 0;
#X obj 32 32 cnv 5 70 13 empty \$0.damp.display    0dB 0 7 0 10 -66577
-258113 0;
#X obj 52 47 cnv 5 50 18 empty \$0.threshold.display  -18dB 4 9 0 10
-66577 -4034 0;
#X obj 52 67 cnv 5 50 18 empty \$0.ratio.display 1:2 4 9 0 10 -66577
-4034 0;
#X obj 52 87 cnv 5 50 18 empty \$0.attack.display   17ms 4 9 0 10 -66577
-4034 0;
#X obj 52 107 cnv 5 50 18 empty \$0.release.display   60ms 4 9 0 10
-66577 -4034 0;
#X obj 52 127 cnv 5 50 18 empty \$0.gain.display    0dB 4 9 0 10 -66577
-4034 0;
#X obj 52 147 cnv 5 50 20 empty \$0.solo.display S 21 9 0 10 -66577
-249601 0;
#X obj 28 253 route float set;
#X obj 28 231 r \$1-\$2/solo\$4;
#X obj 28 458 s \$0.solo.display;
#X obj 81 325 netpd-rgb2iem;
#X msg 81 303 64 64 64 \, 240 240 0;
#X obj 81 347 list append;
#X obj 161 349 t a;
#X msg 28 426 color \$2 \$1;
#X msg 60 404 color \$1 \$2;
#X obj 28 278 sel 0 1;
#X obj 28 377 list;
#X obj 60 378 list;
#X obj 81 280 loadbang;
#N canvas 366 108 237 90 NETPD 0;
#X msg 13 11 version 0 1 0;
#X restore 167 193 pd NETPD 2 0;
#X obj 803 427 + 3;
#X connect 3 0 4 0;
#X connect 5 0 6 0;
#X connect 7 0 8 0;
#X connect 10 0 12 0;
#X connect 10 1 12 0;
#X connect 11 0 2 0;
#X connect 12 0 14 0;
#X connect 13 0 21 0;
#X connect 13 1 21 0;
#X connect 14 0 11 0;
#X connect 15 0 16 0;
#X connect 15 1 16 0;
#X connect 16 0 17 0;
#X connect 17 0 5 0;
#X connect 18 0 19 0;
#X connect 18 1 19 0;
#X connect 19 0 20 0;
#X connect 20 0 7 0;
#X connect 21 0 22 0;
#X connect 22 0 23 0;
#X connect 23 0 3 0;
#X connect 24 0 25 0;
#X connect 24 1 25 0;
#X connect 25 0 26 0;
#X connect 26 0 27 0;
#X connect 27 0 9 0;
#X connect 28 0 10 0;
#X connect 29 0 13 0;
#X connect 30 0 15 0;
#X connect 31 0 18 0;
#X connect 32 0 24 0;
#X connect 33 0 54 0;
#X connect 34 0 35 0;
#X connect 35 0 36 0;
#X connect 36 0 37 0;
#X connect 37 0 39 0;
#X connect 38 0 33 0;
#X connect 39 0 38 0;
#X connect 41 0 40 0;
#X connect 42 0 41 0;
#X connect 43 0 42 0;
#X connect 44 0 43 0;
#X connect 44 1 43 0;
#X connect 45 0 46 0;
#X connect 46 0 47 0;
#X connect 47 0 48 0;
#X connect 48 0 119 0;
#X connect 49 0 45 0;
#X connect 50 0 55 0;
#X connect 51 0 34 0;
#X connect 52 0 44 0;
#X connect 53 0 49 0;
#X connect 56 0 57 0;
#X connect 57 0 58 0;
#X connect 58 0 60 0;
#X connect 59 0 65 0;
#X connect 59 1 58 1;
#X connect 59 2 67 0;
#X connect 60 0 59 0;
#X connect 62 0 61 0;
#X connect 63 0 62 0;
#X connect 64 0 58 1;
#X connect 65 0 66 0;
#X connect 65 1 63 0;
#X connect 66 0 62 0;
#X connect 67 0 64 0;
#X connect 68 0 67 0;
#X connect 69 0 70 0;
#X connect 70 0 75 0;
#X connect 71 0 78 0;
#X connect 71 1 75 1;
#X connect 71 2 73 0;
#X connect 72 0 71 0;
#X connect 73 0 76 0;
#X connect 74 0 73 0;
#X connect 75 0 72 0;
#X connect 76 0 75 1;
#X connect 77 0 79 0;
#X connect 78 0 77 0;
#X connect 105 0 114 0;
#X connect 105 1 114 0;
#X connect 106 0 105 0;
#X connect 108 0 110 0;
#X connect 109 0 108 0;
#X connect 110 0 111 0;
#X connect 110 0 116 1;
#X connect 110 0 115 1;
#X connect 111 0 110 1;
#X connect 112 0 107 0;
#X connect 113 0 107 0;
#X connect 114 0 115 0;
#X connect 114 1 116 0;
#X connect 115 0 112 0;
#X connect 116 0 113 0;
#X connect 117 0 109 0;
#X connect 119 0 50 0;
#X coords 0 -1 1 1 74 154 2 30 30;
