#N canvas 193 172 833 469 10;
#X obj 10 12 inlet~;
#X obj 10 420 outlet~;
#X obj 730 441 outlet~;
#N canvas 724 704 155 121 NETPD 0;
#N canvas 589 356 159 110 abslist 0;
#X msg 10 11 dynlib_comp;
#X msg 10 32 dynlib_4bfs;
#X msg 10 54 r4mbc-sbcg;
#X restore 11 34 pd abslist;
#X msg 11 7 version 0 1 1;
#X restore 688 38 pd NETPD 2 0;
#N canvas 603 457 431 220 \$3-r4mbc 1;
#X obj 2 2 cnv 15 410 202 empty empty empty 20 12 0 14 -33295 -66577
0;
#X obj 5 5 cnv 14 404 14 empty empty empty 20 12 0 14 -1 -66577 0;
#X obj 5 47 r4mbc-sbcg \$1 \$2 \$0 1;
#X obj 90 47 r4mbc-sbcg \$1 \$2 \$0 2;
#X obj 175 47 r4mbc-sbcg \$1 \$2 \$0 3;
#X obj 260 47 r4mbc-sbcg \$1 \$2 \$0 4;
#N canvas 546 121 471 58 frequency.separator 0;
#X obj 13 10 hsl 83 10 1 83.5576 0 0 \$0.slider1 \$0.slider1.r empty
-2 -8 0 10 -262144 -1 -1 7703 1;
#X obj 13 10 hsl 203 10 1 203.924 0 0 \$0.slider2 \$0.slider2.r empty
-2 -8 0 10 -262144 -1 -1 19702 1;
#X obj 13 10 hsl 323 10 1 323.997 0 0 \$0.slider3 \$0.slider3.r empty
-2 -8 0 10 -262144 -1 -1 31702 1;
#X obj 10 10 cnv 10 400 10 empty \$0.segment4 empty 20 12 0 14 -261056
-66577 0;
#X obj 10 10 cnv 10 323 10 empty \$0.segment3 empty 20 12 0 14 -235706
-66577 0;
#X obj 10 10 cnv 10 203 10 empty \$0.segment2 empty 20 12 0 14 -198129
-66577 0;
#X obj 10 10 cnv 10 83 10 empty \$0.segment1 empty 20 12 0 14 -144676
-66577 0;
#X coords 0 -1 1 1 400 10 2 10 10;
#X restore 7 7 pd frequency.separator;
#X obj 335 65 cnv 15 74 16 empty empty --threshold 2 7 0 10 -86853
-257025 0;
#X obj 335 85 cnv 15 74 16 empty empty ------ratio 2 7 0 10 -86853
-257025 0;
#X obj 335 105 cnv 15 74 16 empty empty -----attack 2 7 0 10 -86853
-257025 0;
#X obj 335 125 cnv 15 74 16 empty empty ----release 2 7 0 10 -86853
-257025 0;
#X obj 335 145 cnv 15 74 16 empty empty -------gain 2 7 0 10 -86853
-257025 0;
#X obj 50 24 cnv 15 60 15 empty \$0.xfreq1.display    123Hz 2 7 0 10
-66577 -259712 0;
#X obj 136 24 cnv 15 60 15 empty \$0.xfreq2.display    763Hz 2 7 0
10 -66577 -259712 0;
#X obj 223 24 cnv 15 60 15 empty \$0.xfreq3.display   4712Hz 2 7 0
10 -66577 -259712 0;
#X obj 80 65 cnv 9 9 16 empty empty - 2 7 0 10 -86853 -257025 0;
#X obj 80 85 cnv 9 9 16 empty empty - 2 7 0 10 -86853 -257025 0;
#X obj 80 105 cnv 9 9 16 empty empty - 2 7 0 10 -86853 -257025 0;
#X obj 80 125 cnv 9 9 16 empty empty - 2 7 0 10 -86853 -257025 0;
#X obj 80 145 cnv 9 9 16 empty empty - 2 7 0 10 -86853 -257025 0;
#X obj 165 65 cnv 9 9 16 empty empty - 2 7 0 10 -86853 -257025 0;
#X obj 165 85 cnv 9 9 16 empty empty - 2 7 0 10 -86853 -257025 0;
#X obj 165 105 cnv 9 9 16 empty empty - 2 7 0 10 -86853 -257025 0;
#X obj 165 125 cnv 9 9 16 empty empty - 2 7 0 10 -86853 -257025 0;
#X obj 165 145 cnv 9 9 16 empty empty - 2 7 0 10 -86853 -257025 0;
#X obj 250 65 cnv 9 9 16 empty empty - 2 7 0 10 -86853 -257025 0;
#X obj 250 85 cnv 9 9 16 empty empty - 2 7 0 10 -86853 -257025 0;
#X obj 250 105 cnv 9 9 16 empty empty - 2 7 0 10 -86853 -257025 0;
#X obj 250 125 cnv 9 9 16 empty empty - 2 7 0 10 -86853 -257025 0;
#X obj 250 145 cnv 9 9 16 empty empty - 2 7 0 10 -86853 -257025 0;
#X obj 338 35 cnv 15 15 15 empty empty r4mbc 3 8 0 20 -33295 -165824
0;
#X obj 338 52 cnv 3 3 3 empty empty _____ 3 -10 0 20 -33295 -165824
0;
#X obj 341 27 cnv 3 3 3 empty empty _____ 0 -5 0 20 -33295 -165824
0;
#X restore 688 19 pd \$3-r4mbc;
#X obj 10 308 dynlib_comp;
#X obj 9 119 dynlib_4bfs;
#X obj 198 308 dynlib_comp;
#X obj 373 308 dynlib_comp;
#X obj 562 308 dynlib_comp;
#X obj 140 12 inlet~;
#X obj 139 119 dynlib_4bfs;
#N canvas 762 300 506 114 gui.stuff 0;
#N canvas 340 170 953 289 frequency.separator.logic 0;
#X obj 20 41 + 5;
#X msg 39 160 vis_size \$1 10;
#X obj 20 233 s \$0.slider1.r;
#X obj 20 16 r \$0.slider1;
#X obj 20 112 t a a a;
#X obj 59 137 s \$0.seg1;
#X obj 39 182 s \$0.segment1;
#X obj 250 41 + 5;
#X msg 269 160 vis_size \$1 10;
#X obj 250 112 t a a a;
#X obj 250 64 max 20;
#X obj 250 16 r \$0.slider2;
#X obj 289 137 s \$0.seg2;
#X obj 269 182 s \$0.segment2;
#X obj 250 226 s \$0.slider2.r;
#X obj 332 17 r \$0.seg1;
#X obj 332 39 + 50;
#X obj 103 83 r \$0.seg2;
#X obj 103 105 - 50;
#X obj 480 45 + 5;
#X msg 499 164 vis_size \$1 10;
#X obj 480 116 t a a a;
#X obj 480 68 max 20;
#X obj 562 43 + 50;
#X obj 562 21 r \$0.seg2;
#X obj 480 20 r \$0.slider3;
#X obj 519 141 s \$0.seg3;
#X obj 499 186 s \$0.segment3;
#X obj 480 230 s \$0.slider3.r;
#X obj 327 96 - 50;
#X obj 327 74 r \$0.seg3;
#X msg 20 211 size \$1 10 \, range 1 \$1;
#X msg 250 204 size \$1 10 \, range 1 \$1;
#X msg 480 208 size \$1 10 \, range 1 \$1;
#X obj 719 37 loadbang;
#X obj 600 59 r \$0.margin;
#X obj 378 48 r \$0.margin;
#X obj 148 116 r \$0.margin;
#X obj 719 59 \$0;
#X obj 796 30 bng 15 250 50 0 empty empty empty 17 7 0 10 -262144 -1
-1;
#X msg 719 81 \; \$1.margin 52 \;;
#X obj 480 90 min 376;
#X obj 20 64 max 20;
#X obj 20 86 min 395;
#X obj 250 86 min 395;
#X connect 0 0 42 0;
#X connect 1 0 6 0;
#X connect 3 0 0 0;
#X connect 4 0 31 0;
#X connect 4 1 1 0;
#X connect 4 2 5 0;
#X connect 7 0 10 0;
#X connect 8 0 13 0;
#X connect 9 0 32 0;
#X connect 9 1 8 0;
#X connect 9 2 12 0;
#X connect 10 0 44 0;
#X connect 11 0 7 0;
#X connect 15 0 16 0;
#X connect 16 0 10 1;
#X connect 17 0 18 0;
#X connect 18 0 43 1;
#X connect 19 0 22 0;
#X connect 20 0 27 0;
#X connect 21 0 33 0;
#X connect 21 1 20 0;
#X connect 21 2 26 0;
#X connect 22 0 41 0;
#X connect 23 0 22 1;
#X connect 24 0 23 0;
#X connect 25 0 19 0;
#X connect 29 0 44 1;
#X connect 30 0 29 0;
#X connect 31 0 2 0;
#X connect 32 0 14 0;
#X connect 33 0 28 0;
#X connect 34 0 38 0;
#X connect 35 0 23 1;
#X connect 36 0 16 1;
#X connect 36 0 29 1;
#X connect 37 0 18 1;
#X connect 38 0 40 0;
#X connect 39 0 38 0;
#X connect 41 0 21 0;
#X connect 42 0 43 0;
#X connect 43 0 4 0;
#X connect 44 0 9 0;
#X restore 23 15 pd frequency.separator.logic;
#N canvas 451 325 314 327 netpd_freq1 0;
#X obj 23 115 mtof;
#X obj 23 49 r \$0.seg1;
#X obj 156 122 ftom;
#X obj 156 144 - 25;
#X obj 156 208 t a a;
#X obj 183 230 s \$0.slider1;
#X msg 156 251 set \$1;
#X obj 156 273 s \$0.slider1.r;
#X obj 156 188 - 5;
#X obj 23 138 spigot 1;
#X obj 137 72 t b a b;
#X msg 176 94 0;
#X msg 137 94 1;
#X obj 137 49 route set;
#X obj 137 27 r \$1-\$2/xfreq1;
#X obj 23 159 s \$1-\$2/xfreq1;
#X obj 23 93 + 25;
#X obj 23 71 * 0.2625;
#X obj 156 166 / 0.2625;
#X connect 0 0 9 0;
#X connect 1 0 17 0;
#X connect 2 0 3 0;
#X connect 3 0 18 0;
#X connect 4 0 6 0;
#X connect 4 1 5 0;
#X connect 6 0 7 0;
#X connect 8 0 4 0;
#X connect 9 0 15 0;
#X connect 10 0 12 0;
#X connect 10 1 2 0;
#X connect 10 2 11 0;
#X connect 11 0 9 1;
#X connect 12 0 9 1;
#X connect 13 0 10 0;
#X connect 14 0 13 0;
#X connect 16 0 0 0;
#X connect 17 0 16 0;
#X connect 18 0 8 0;
#X restore 201 15 pd netpd_freq1;
#N canvas 451 325 319 316 netpd_freq2 0;
#X obj 23 115 mtof;
#X obj 23 93 + 25;
#X obj 156 122 ftom;
#X obj 156 144 - 25;
#X obj 156 208 t a a;
#X msg 156 251 set \$1;
#X obj 156 188 - 5;
#X obj 23 138 spigot 1;
#X obj 137 72 t b a b;
#X msg 176 94 0;
#X msg 137 94 1;
#X obj 137 49 route set;
#X obj 23 49 r \$0.seg2;
#X obj 183 230 s \$0.slider2;
#X obj 156 273 s \$0.slider2.r;
#X obj 137 27 r \$1-\$2/xfreq2;
#X obj 23 159 s \$1-\$2/xfreq2;
#X obj 23 71 * 0.2625;
#X obj 156 166 / 0.2625;
#X connect 0 0 7 0;
#X connect 1 0 0 0;
#X connect 2 0 3 0;
#X connect 3 0 18 0;
#X connect 4 0 5 0;
#X connect 4 1 13 0;
#X connect 5 0 14 0;
#X connect 6 0 4 0;
#X connect 7 0 16 0;
#X connect 8 0 10 0;
#X connect 8 1 2 0;
#X connect 8 2 9 0;
#X connect 9 0 7 1;
#X connect 10 0 7 1;
#X connect 11 0 8 0;
#X connect 12 0 17 0;
#X connect 15 0 11 0;
#X connect 17 0 1 0;
#X connect 18 0 6 0;
#X restore 294 15 pd netpd_freq2;
#N canvas 451 297 293 341 netpd_freq3 0;
#X obj 23 115 mtof;
#X obj 23 93 + 25;
#X obj 156 122 ftom;
#X obj 156 144 - 25;
#X obj 156 208 t a a;
#X msg 156 251 set \$1;
#X obj 156 188 - 5;
#X obj 23 138 spigot 1;
#X obj 137 72 t b a b;
#X msg 176 94 0;
#X msg 137 94 1;
#X obj 137 49 route set;
#X obj 23 49 r \$0.seg3;
#X obj 183 230 s \$0.slider3;
#X obj 156 273 s \$0.slider3.r;
#X obj 137 27 r \$1-\$2/xfreq3;
#X obj 23 159 s \$1-\$2/xfreq3;
#X obj 23 71 * 0.2625;
#X obj 156 166 / 0.2625;
#X connect 0 0 7 0;
#X connect 1 0 0 0;
#X connect 2 0 3 0;
#X connect 3 0 18 0;
#X connect 4 0 5 0;
#X connect 4 1 13 0;
#X connect 5 0 14 0;
#X connect 6 0 4 0;
#X connect 7 0 16 0;
#X connect 8 0 10 0;
#X connect 8 1 2 0;
#X connect 8 2 9 0;
#X connect 9 0 7 1;
#X connect 10 0 7 1;
#X connect 11 0 8 0;
#X connect 12 0 17 0;
#X connect 15 0 11 0;
#X connect 17 0 1 0;
#X connect 18 0 6 0;
#X restore 386 15 pd netpd_freq3;
#N canvas 1026 244 199 182 xfreq1 0;
#X obj 21 20 r \$1-\$2/xfreq1;
#X obj 21 42 route float set;
#X obj 21 67 int;
#X msg 21 112 label \$1;
#X obj 21 134 s \$0.xfreq1.display;
#X obj 21 90 makefilename %6dHz;
#X connect 0 0 1 0;
#X connect 1 0 2 0;
#X connect 1 1 2 0;
#X connect 2 0 5 0;
#X connect 3 0 4 0;
#X connect 5 0 3 0;
#X restore 202 38 pd xfreq1;
#N canvas 1026 272 199 182 xfreq2 0;
#X obj 21 42 route float set;
#X obj 21 67 int;
#X msg 21 112 label \$1;
#X obj 21 20 r \$1-\$2/xfreq2;
#X obj 21 134 s \$0.xfreq2.display;
#X obj 21 90 makefilename %6dHz;
#X connect 0 0 1 0;
#X connect 0 1 1 0;
#X connect 1 0 5 0;
#X connect 2 0 4 0;
#X connect 3 0 0 0;
#X connect 5 0 2 0;
#X restore 294 38 pd xfreq2;
#N canvas 1026 300 199 182 xfreq3 0;
#X obj 21 42 route float set;
#X obj 21 67 int;
#X msg 21 112 label \$1;
#X obj 21 20 r \$1-\$2/xfreq3;
#X obj 21 134 s \$0.xfreq3.display;
#X obj 21 90 makefilename %6dHz;
#X connect 0 0 1 0;
#X connect 0 1 1 0;
#X connect 1 0 5 0;
#X connect 2 0 4 0;
#X connect 3 0 0 0;
#X connect 5 0 2 0;
#X restore 386 38 pd xfreq3;
#X restore 688 59 pd gui.stuff;
#X obj 30 37 netpd_f \$1 \$2/xfreq1 123;
#X obj 67 58 netpd_f \$1 \$2/xfreq2 763;
#X obj 110 78 netpd_f \$1 \$2/xfreq3 4712;
#X obj 88 216 netpd_f \$1 \$2/threshold1 0;
#X obj 73 330 s \$0.damp1;
#X obj 88 176 netpd_f \$1 \$2/gain1 0;
#N canvas 745 316 380 121 env~_*_4 0;
#X obj 23 60 env~ 4096;
#X obj 23 82 s \$0.env1;
#X obj 23 14 inlet~;
#X obj 111 62 env~ 4096;
#X obj 111 16 inlet~;
#X obj 193 63 env~ 4096;
#X obj 193 17 inlet~;
#X obj 281 65 env~ 4096;
#X obj 281 19 inlet~;
#X obj 111 84 s \$0.env2;
#X obj 193 85 s \$0.env3;
#X obj 281 87 s \$0.env4;
#X connect 0 0 1 0;
#X connect 2 0 0 0;
#X connect 3 0 9 0;
#X connect 4 0 3 0;
#X connect 5 0 10 0;
#X connect 6 0 5 0;
#X connect 7 0 11 0;
#X connect 8 0 7 0;
#X restore 82 150 pd env~_*_4;
#X obj 261 331 s \$0.damp2;
#X obj 436 331 s \$0.damp3;
#X obj 625 332 s \$0.damp4;
#N canvas 523 200 375 215 solo 0;
#X obj 25 25 inlet~;
#X obj 80 26 inlet~;
#X obj 26 124 *~;
#X obj 80 126 *~;
#X obj 26 164 outlet~;
#X obj 79 164 outlet~;
#X obj 165 28 netpd_f \$1 \$2/solo1 0;
#N canvas 651 360 442 347 sololevel 0;
#X obj 30 8 inlet;
#X obj 218 25 t b a;
#X msg 218 48 sololevel 0 \, sololevelrefresh;
#X obj 219 125 route sololevelrefresh sololevel;
#X obj 219 147 b;
#X obj 219 171 f;
#X obj 219 193 +;
#X msg 219 215 sololevel \$1;
#X obj 218 70 s \$0.solo;
#X obj 219 103 r \$0.solo;
#X obj 219 237 s \$0.solo;
#X obj 113 100 route sololevel;
#X obj 113 122 t b a;
#X obj 113 144 del 0;
#X obj 113 166 f;
#X obj 113 78 r \$0.solo;
#X obj 30 52 t a a;
#X obj 30 328 outlet;
#X obj 113 188 > 0;
#X obj 113 232 ==;
#X obj 113 254 t b a;
#X obj 30 283 ||;
#X obj 30 305 change;
#X obj 113 8 loadbang;
#X obj 30 30 change -1;
#X msg 113 30 0;
#X obj 113 210 change -1;
#X connect 0 0 24 0;
#X connect 1 0 2 0;
#X connect 1 1 6 1;
#X connect 2 0 8 0;
#X connect 3 0 4 0;
#X connect 3 1 5 1;
#X connect 4 0 5 0;
#X connect 5 0 6 0;
#X connect 6 0 7 0;
#X connect 7 0 10 0;
#X connect 9 0 3 0;
#X connect 11 0 12 0;
#X connect 12 0 13 0;
#X connect 12 1 14 1;
#X connect 13 0 14 0;
#X connect 14 0 18 0;
#X connect 15 0 11 0;
#X connect 16 0 21 0;
#X connect 16 1 1 0;
#X connect 18 0 26 0;
#X connect 19 0 20 0;
#X connect 20 0 21 0;
#X connect 20 1 21 1;
#X connect 21 0 22 0;
#X connect 22 0 17 0;
#X connect 23 0 25 0;
#X connect 24 0 16 0;
#X connect 25 0 24 0;
#X connect 26 0 19 0;
#X restore 165 52 pd sololevel;
#X msg 165 74 \$1 50;
#X obj 165 96 line~;
#X connect 0 0 2 0;
#X connect 1 0 3 0;
#X connect 2 0 4 0;
#X connect 3 0 5 0;
#X connect 6 0 7 0;
#X connect 7 0 8 0;
#X connect 8 0 9 0;
#X connect 9 0 3 1;
#X connect 9 0 2 1;
#X restore 11 363 pd solo;
#N canvas 523 200 375 215 solo 0;
#X obj 25 25 inlet~;
#X obj 80 26 inlet~;
#X obj 26 124 *~;
#X obj 80 126 *~;
#X obj 26 164 outlet~;
#X obj 79 164 outlet~;
#N canvas 651 360 442 347 sololevel 0;
#X obj 30 8 inlet;
#X obj 218 25 t b a;
#X msg 218 48 sololevel 0 \, sololevelrefresh;
#X obj 219 125 route sololevelrefresh sololevel;
#X obj 219 147 b;
#X obj 219 171 f;
#X obj 219 193 +;
#X msg 219 215 sololevel \$1;
#X obj 218 70 s \$0.solo;
#X obj 219 103 r \$0.solo;
#X obj 219 237 s \$0.solo;
#X obj 113 100 route sololevel;
#X obj 113 122 t b a;
#X obj 113 144 del 0;
#X obj 113 166 f;
#X obj 113 78 r \$0.solo;
#X obj 30 52 t a a;
#X obj 30 328 outlet;
#X obj 113 188 > 0;
#X obj 113 232 ==;
#X obj 113 254 t b a;
#X obj 30 283 ||;
#X obj 30 305 change;
#X obj 113 8 loadbang;
#X obj 30 30 change -1;
#X msg 113 30 0;
#X obj 113 210 change -1;
#X connect 0 0 24 0;
#X connect 1 0 2 0;
#X connect 1 1 6 1;
#X connect 2 0 8 0;
#X connect 3 0 4 0;
#X connect 3 1 5 1;
#X connect 4 0 5 0;
#X connect 5 0 6 0;
#X connect 6 0 7 0;
#X connect 7 0 10 0;
#X connect 9 0 3 0;
#X connect 11 0 12 0;
#X connect 12 0 13 0;
#X connect 12 1 14 1;
#X connect 13 0 14 0;
#X connect 14 0 18 0;
#X connect 15 0 11 0;
#X connect 16 0 21 0;
#X connect 16 1 1 0;
#X connect 18 0 26 0;
#X connect 19 0 20 0;
#X connect 20 0 21 0;
#X connect 20 1 21 1;
#X connect 21 0 22 0;
#X connect 22 0 17 0;
#X connect 23 0 25 0;
#X connect 24 0 16 0;
#X connect 25 0 24 0;
#X connect 26 0 19 0;
#X restore 165 52 pd sololevel;
#X msg 165 74 \$1 50;
#X obj 165 96 line~;
#X obj 165 28 netpd_f \$1 \$2/solo2 0;
#X connect 0 0 2 0;
#X connect 1 0 3 0;
#X connect 2 0 4 0;
#X connect 3 0 5 0;
#X connect 6 0 7 0;
#X connect 7 0 8 0;
#X connect 8 0 3 1;
#X connect 8 0 2 1;
#X connect 9 0 6 0;
#X restore 199 363 pd solo;
#N canvas 523 200 375 215 solo 0;
#X obj 25 25 inlet~;
#X obj 80 26 inlet~;
#X obj 26 124 *~;
#X obj 80 126 *~;
#X obj 26 164 outlet~;
#X obj 79 164 outlet~;
#N canvas 651 360 442 347 sololevel 0;
#X obj 30 8 inlet;
#X obj 218 25 t b a;
#X msg 218 48 sololevel 0 \, sololevelrefresh;
#X obj 219 125 route sololevelrefresh sololevel;
#X obj 219 147 b;
#X obj 219 171 f;
#X obj 219 193 +;
#X msg 219 215 sololevel \$1;
#X obj 218 70 s \$0.solo;
#X obj 219 103 r \$0.solo;
#X obj 219 237 s \$0.solo;
#X obj 113 100 route sololevel;
#X obj 113 122 t b a;
#X obj 113 144 del 0;
#X obj 113 166 f;
#X obj 113 78 r \$0.solo;
#X obj 30 52 t a a;
#X obj 30 328 outlet;
#X obj 113 188 > 0;
#X obj 113 232 ==;
#X obj 113 254 t b a;
#X obj 30 283 ||;
#X obj 30 305 change;
#X obj 113 8 loadbang;
#X obj 30 30 change -1;
#X msg 113 30 0;
#X obj 113 210 change -1;
#X connect 0 0 24 0;
#X connect 1 0 2 0;
#X connect 1 1 6 1;
#X connect 2 0 8 0;
#X connect 3 0 4 0;
#X connect 3 1 5 1;
#X connect 4 0 5 0;
#X connect 5 0 6 0;
#X connect 6 0 7 0;
#X connect 7 0 10 0;
#X connect 9 0 3 0;
#X connect 11 0 12 0;
#X connect 12 0 13 0;
#X connect 12 1 14 1;
#X connect 13 0 14 0;
#X connect 14 0 18 0;
#X connect 15 0 11 0;
#X connect 16 0 21 0;
#X connect 16 1 1 0;
#X connect 18 0 26 0;
#X connect 19 0 20 0;
#X connect 20 0 21 0;
#X connect 20 1 21 1;
#X connect 21 0 22 0;
#X connect 22 0 17 0;
#X connect 23 0 25 0;
#X connect 24 0 16 0;
#X connect 25 0 24 0;
#X connect 26 0 19 0;
#X restore 165 52 pd sololevel;
#X msg 165 74 \$1 50;
#X obj 165 96 line~;
#X obj 165 28 netpd_f \$1 \$2/solo3 0;
#X connect 0 0 2 0;
#X connect 1 0 3 0;
#X connect 2 0 4 0;
#X connect 3 0 5 0;
#X connect 6 0 7 0;
#X connect 7 0 8 0;
#X connect 8 0 3 1;
#X connect 8 0 2 1;
#X connect 9 0 6 0;
#X restore 374 363 pd solo;
#N canvas 523 200 375 215 solo 0;
#X obj 25 25 inlet~;
#X obj 80 26 inlet~;
#X obj 26 124 *~;
#X obj 80 126 *~;
#X obj 26 164 outlet~;
#X obj 79 164 outlet~;
#N canvas 651 360 442 347 sololevel 0;
#X obj 30 8 inlet;
#X obj 218 25 t b a;
#X msg 218 48 sololevel 0 \, sololevelrefresh;
#X obj 219 125 route sololevelrefresh sololevel;
#X obj 219 147 b;
#X obj 219 171 f;
#X obj 219 193 +;
#X msg 219 215 sololevel \$1;
#X obj 218 70 s \$0.solo;
#X obj 219 103 r \$0.solo;
#X obj 219 237 s \$0.solo;
#X obj 113 100 route sololevel;
#X obj 113 122 t b a;
#X obj 113 144 del 0;
#X obj 113 166 f;
#X obj 113 78 r \$0.solo;
#X obj 30 52 t a a;
#X obj 30 328 outlet;
#X obj 113 188 > 0;
#X obj 113 232 ==;
#X obj 113 254 t b a;
#X obj 30 283 ||;
#X obj 30 305 change;
#X obj 113 8 loadbang;
#X obj 30 30 change -1;
#X msg 113 30 0;
#X obj 113 210 change -1;
#X connect 0 0 24 0;
#X connect 1 0 2 0;
#X connect 1 1 6 1;
#X connect 2 0 8 0;
#X connect 3 0 4 0;
#X connect 3 1 5 1;
#X connect 4 0 5 0;
#X connect 5 0 6 0;
#X connect 6 0 7 0;
#X connect 7 0 10 0;
#X connect 9 0 3 0;
#X connect 11 0 12 0;
#X connect 12 0 13 0;
#X connect 12 1 14 1;
#X connect 13 0 14 0;
#X connect 14 0 18 0;
#X connect 15 0 11 0;
#X connect 16 0 21 0;
#X connect 16 1 1 0;
#X connect 18 0 26 0;
#X connect 19 0 20 0;
#X connect 20 0 21 0;
#X connect 20 1 21 1;
#X connect 21 0 22 0;
#X connect 22 0 17 0;
#X connect 23 0 25 0;
#X connect 24 0 16 0;
#X connect 25 0 24 0;
#X connect 26 0 19 0;
#X restore 165 52 pd sololevel;
#X msg 165 74 \$1 50;
#X obj 165 96 line~;
#X obj 165 28 netpd_f \$1 \$2/solo4 0;
#X connect 0 0 2 0;
#X connect 1 0 3 0;
#X connect 2 0 4 0;
#X connect 3 0 5 0;
#X connect 6 0 7 0;
#X connect 7 0 8 0;
#X connect 8 0 3 1;
#X connect 8 0 2 1;
#X connect 9 0 6 0;
#X restore 562 364 pd solo;
#X obj 266 171 netpd_f \$1 \$2/gain2 0;
#X obj 266 211 netpd_f \$1 \$2/threshold2 0;
#X obj 456 171 netpd_f \$1 \$2/gain3 0;
#X obj 456 211 netpd_f \$1 \$2/threshold3 0;
#X obj 636 171 netpd_f \$1 \$2/gain4 0;
#X obj 636 211 netpd_f \$1 \$2/threshold4 0;
#X obj 266 231 netpd_f \$1 \$2/attack2 15;
#X obj 88 236 netpd_f \$1 \$2/attack1 30;
#X obj 456 231 netpd_f \$1 \$2/attack3 8;
#X obj 636 231 netpd_f \$1 \$2/attack4 4;
#X obj 636 251 netpd_f \$1 \$2/release4 40;
#X obj 88 256 netpd_f \$1 \$2/release1 60;
#X obj 266 251 netpd_f \$1 \$2/release2 60;
#X obj 456 251 netpd_f \$1 \$2/release3 40;
#X obj 88 196 netpd_f \$1 \$2/ratio1 2;
#X obj 266 191 netpd_f \$1 \$2/ratio2 2;
#X obj 456 191 netpd_f \$1 \$2/ratio3 2;
#X obj 636 191 netpd_f \$1 \$2/ratio4 2;
#X connect 0 0 6 0;
#X connect 5 0 23 0;
#X connect 5 1 23 1;
#X connect 5 2 17 0;
#X connect 6 0 5 0;
#X connect 6 0 19 0;
#X connect 6 1 7 0;
#X connect 6 1 19 1;
#X connect 6 2 8 0;
#X connect 6 2 19 2;
#X connect 6 3 9 0;
#X connect 6 3 19 3;
#X connect 7 0 24 0;
#X connect 7 1 24 1;
#X connect 7 2 20 0;
#X connect 8 0 25 0;
#X connect 8 1 25 1;
#X connect 8 2 21 0;
#X connect 9 0 26 0;
#X connect 9 1 26 1;
#X connect 9 2 22 0;
#X connect 10 0 11 0;
#X connect 11 0 5 1;
#X connect 11 0 19 0;
#X connect 11 1 7 1;
#X connect 11 1 19 1;
#X connect 11 2 8 1;
#X connect 11 2 19 2;
#X connect 11 3 9 1;
#X connect 11 3 19 3;
#X connect 13 0 6 1;
#X connect 13 0 11 1;
#X connect 14 0 6 2;
#X connect 14 0 11 2;
#X connect 15 0 6 3;
#X connect 15 0 11 3;
#X connect 16 0 5 4;
#X connect 18 0 5 2;
#X connect 23 0 1 0;
#X connect 23 1 2 0;
#X connect 24 0 1 0;
#X connect 24 1 2 0;
#X connect 25 0 1 0;
#X connect 25 1 2 0;
#X connect 26 0 1 0;
#X connect 26 1 2 0;
#X connect 27 0 7 2;
#X connect 28 0 7 4;
#X connect 29 0 8 2;
#X connect 30 0 8 4;
#X connect 31 0 9 2;
#X connect 32 0 9 4;
#X connect 33 0 7 5;
#X connect 34 0 5 5;
#X connect 35 0 8 5;
#X connect 36 0 9 5;
#X connect 37 0 9 6;
#X connect 38 0 5 6;
#X connect 39 0 7 6;
#X connect 40 0 8 6;
#X connect 41 0 5 3;
#X connect 42 0 7 3;
#X connect 43 0 8 3;
#X connect 44 0 9 3;
