#N canvas 125 323 487 348 10;
#N canvas 658 647 1104 454 display-stuff 0;
#X obj 225 6 inlet;
#X obj 366 10 inlet;
#X obj 492 12 inlet;
#X msg 225 201 label \$1;
#X obj 225 81 * 10;
#X obj 225 101 int;
#X obj 225 120 * 0.1;
#X msg 519 302 symbol empty;
#X msg 366 248 label \$1;
#X obj 366 88 * 10;
#X obj 366 108 int;
#X obj 366 127 * 0.1;
#X msg 492 209 label \$1;
#X obj 492 109 int;
#X obj 638 10 inlet;
#X msg 638 207 label \$1;
#X obj 638 107 int;
#X obj 768 15 inlet;
#X msg 768 212 label \$1;
#X obj 768 112 int;
#X obj 30 7 inlet;
#X obj 30 27 change;
#X msg 113 392 label \$1;
#X obj 113 414 s \$0-vissw-r;
#X obj 113 122 symbol empty;
#X obj 112 19 r \$0-vissw-s;
#N canvas 894 561 178 279 speedlimit 0;
#X obj 25 110 inlet;
#X obj 11 256 outlet;
#X obj 12 18 r \$0-vissw-s;
#X obj 11 224 f;
#X obj 12 66 t b b;
#X obj 12 43 metro 200;
#X connect 0 0 3 1;
#X connect 2 0 5 0;
#X connect 3 0 1 0;
#X connect 4 0 3 0;
#X connect 5 0 4 0;
#X restore 30 300 pd speedlimit;
#X obj 768 232 s \$1-\$2/release;
#X msg 768 171 symbol release:\$1ms;
#X obj 225 139 makefilename %9d;
#X obj 225 224 s \$1-\$2/target;
#X obj 366 268 s \$1-\$2/maxgain;
#X obj 492 229 s \$1-\$2/attack;
#X obj 638 227 s \$1-\$2/hold;
#X obj 908 15 inlet;
#X msg 908 212 label \$1;
#X obj 908 112 int;
#X obj 908 232 s \$1-\$2/predelay;
#X msg 225 160 symbol target:\$1dB;
#X msg 492 168 symbol attack:\$1ms;
#X msg 638 166 symbol hold:\$1ms;
#X msg 908 171 symbol predelay:\$1ms;
#X msg 366 207 symbol maxgain:\$1dB;
#X obj 363 168 makefilename %8d;
#X obj 492 147 makefilename %9d;
#X obj 638 145 makefilename %11d;
#X obj 768 150 makefilename %8d;
#X obj 908 150 makefilename %7d;
#X obj 30 370 makefilename %3.1fdB;
#X obj 30 114 t a a;
#X obj 62 274 s \$0-amp;
#X msg 62 252 set \$1;
#X obj 31 63 spigot;
#X obj 112 40 t a a;
#X msg 65 92 0;
#X obj 119 67 sel 0 1;
#X msg 146 94 set -1000;
#X connect 0 0 4 0;
#X connect 1 0 9 0;
#X connect 2 0 13 0;
#X connect 3 0 30 0;
#X connect 4 0 5 0;
#X connect 5 0 6 0;
#X connect 6 0 29 0;
#X connect 7 0 3 0;
#X connect 7 0 8 0;
#X connect 7 0 12 0;
#X connect 7 0 15 0;
#X connect 7 0 18 0;
#X connect 7 0 35 0;
#X connect 8 0 31 0;
#X connect 9 0 10 0;
#X connect 10 0 11 0;
#X connect 11 0 43 0;
#X connect 12 0 32 0;
#X connect 13 0 44 0;
#X connect 14 0 16 0;
#X connect 15 0 33 0;
#X connect 16 0 45 0;
#X connect 17 0 19 0;
#X connect 18 0 27 0;
#X connect 19 0 46 0;
#X connect 20 0 21 0;
#X connect 21 0 52 0;
#X connect 22 0 23 0;
#X connect 24 0 22 0;
#X connect 25 0 53 0;
#X connect 26 0 48 0;
#X connect 28 0 18 0;
#X connect 29 0 38 0;
#X connect 34 0 36 0;
#X connect 35 0 37 0;
#X connect 36 0 47 0;
#X connect 38 0 3 0;
#X connect 39 0 12 0;
#X connect 40 0 15 0;
#X connect 41 0 35 0;
#X connect 42 0 8 0;
#X connect 43 0 42 0;
#X connect 44 0 39 0;
#X connect 45 0 40 0;
#X connect 46 0 28 0;
#X connect 47 0 41 0;
#X connect 48 0 22 0;
#X connect 49 0 26 0;
#X connect 49 1 51 0;
#X connect 51 0 50 0;
#X connect 52 0 49 0;
#X connect 53 0 52 1;
#X connect 53 1 55 0;
#X connect 54 0 49 0;
#X connect 55 0 54 0;
#X connect 55 0 24 0;
#X connect 55 1 56 0;
#X connect 56 0 21 0;
#X restore 89 295 pd display-stuff;
#X obj 10 12 inlet~;
#X obj 41 39 inlet~;
#X obj 11 280 outlet~;
#X obj 41 246 outlet~;
#N canvas 724 795 155 121 NETPD 0;
#X msg 11 7 version 0 1 2;
#X restore 396 38 pd NETPD 2 0;
#X obj 10 198 dynlib_agc~;
#X obj 95 31 netpd_f \$1 \$2/target -3;
#X obj 116 74 netpd_f \$1 \$2/maxgain 12;
#X obj 144 115 netpd_f \$1 \$2/attack 1000;
#X obj 163 156 netpd_f \$1 \$2/hold 10000;
#X obj 182 198 netpd_f \$1 \$2/release 40000;
#X obj 202 238 netpd_f \$1 \$2/predelay 0;
#X msg 95 52 target \$1;
#X msg 116 95 maxgain \$1;
#X msg 144 136 attack \$1;
#X msg 163 177 hold \$1;
#X msg 182 219 release \$1;
#X msg 202 259 predelay \$1;
#N canvas 631 642 157 114 \$3-\$2 0;
#X obj 3 3 cnv 15 137 102 empty empty empty 20 30 0 14 -1 -62784 0
;
#X obj 8 61 hsl 128 14 20 120000 1 0 \$1-\$2/release \$1-\$2/release
empty 8 7 0 10 -43691 -1 -262144 0 1;
#X obj 8 5 hsl 128 14 -40 0 0 0 \$1-\$2/target \$1-\$2/target empty
8 7 0 10 -1431 -1 -262144 0 1;
#X obj 8 19 hsl 128 14 0 40 0 0 \$1-\$2/maxgain \$1-\$2/maxgain empty
8 7 0 10 -9948 -1 -262144 0 1;
#X obj 8 33 hsl 128 14 20 30000 1 0 \$1-\$2/attack \$1-\$2/attack empty
8 7 0 10 -22561 -1 -262144 0 1;
#X obj 8 47 hsl 128 14 20 120000 1 0 \$1-\$2/hold \$1-\$2/hold empty
8 7 0 10 -31078 -1 -262144 0 1;
#X obj 8 75 hsl 128 14 20 30000 1 0 \$1-\$2/predelay \$1-\$2/predelay
empty 8 7 0 10 -60205 -1 -262144 0 1;
#X obj 22 89 hsl 115 14 -30 30 0 0 empty \$0-amp empty 8 7 0 10 -1
-105651 -1 0 1;
#X obj 5 89 tgl 14 0 \$0-vissw-s \$0-vissw-r empty 40 8 0 10 -105651
-1 -262144 0 1;
#X restore 396 19 pd \$3-\$2;
#X connect 1 0 6 0;
#X connect 2 0 6 1;
#X connect 6 0 3 0;
#X connect 6 1 4 0;
#X connect 6 2 0 0;
#X connect 7 0 13 0;
#X connect 7 0 0 1;
#X connect 8 0 14 0;
#X connect 8 0 0 2;
#X connect 9 0 15 0;
#X connect 9 0 0 3;
#X connect 10 0 16 0;
#X connect 10 0 0 4;
#X connect 11 0 17 0;
#X connect 11 0 0 5;
#X connect 12 0 18 0;
#X connect 12 0 0 6;
#X connect 13 0 6 2;
#X connect 14 0 6 2;
#X connect 15 0 6 2;
#X connect 16 0 6 2;
#X connect 17 0 6 2;
#X connect 18 0 6 2;
