#N canvas 125 323 487 348 10;
#N canvas 377 323 1104 454 display-stuff 0;
#X obj 225 6 inlet;
#X obj 366 10 inlet;
#X obj 492 12 inlet;
#X msg 225 201 label \$1;
#X obj 225 81 * 10;
#X obj 225 101 int;
#X obj 225 120 * 0.1;
#X msg 519 302 symbol empty;
#X msg 366 248 label \$1;
#X obj 366 88 * 10;
#X obj 366 108 int;
#X obj 366 127 * 0.1;
#X msg 492 209 label \$1;
#X obj 492 109 int;
#X obj 638 10 inlet;
#X msg 638 207 label \$1;
#X obj 638 107 int;
#X obj 768 15 inlet;
#X msg 768 212 label \$1;
#X obj 768 112 int;
#X obj 30 7 inlet;
#X obj 30 129 t b f;
#X obj 30 149 100;
#X obj 30 169 -;
#X obj 52 229 * 4;
#X obj 30 27 change;
#X msg 52 252 vis_size \$1 12;
#X obj 30 328 * -1;
#X msg 113 392 label \$1;
#X obj 113 414 s \$0-vissw-r;
#X obj 30 349 int;
#X obj 30 77 spigot;
#X obj 113 122 symbol empty;
#X obj 30 105 f;
#X obj 112 73 sel 1 0;
#X obj 112 19 r \$0-vissw-s;
#X obj 52 206 min 22;
#X obj 52 178 0;
#X obj 112 41 t b f f;
#X obj 45 58 100;
#N canvas 894 507 178 279 speedlimit 0;
#X obj 117 59 inlet;
#X obj 11 256 outlet;
#X obj 117 106 >;
#X obj 117 126 sel 1;
#X obj 117 146 f;
#X obj 117 86 t f f;
#X obj 117 166 t f f;
#X obj 12 18 r \$0-vissw-s;
#X obj 11 224 f;
#X obj 12 43 metro 333;
#X obj 12 66 t b b;
#X obj 24 177 0;
#X connect 0 0 5 0;
#X connect 2 0 3 0;
#X connect 3 0 4 0;
#X connect 4 0 6 0;
#X connect 5 0 2 0;
#X connect 5 1 4 1;
#X connect 6 0 8 1;
#X connect 6 1 2 1;
#X connect 7 0 9 0;
#X connect 8 0 1 0;
#X connect 9 0 10 0;
#X connect 10 0 11 0;
#X connect 10 1 8 0;
#X connect 11 0 2 1;
#X connect 11 0 8 1;
#X restore 30 300 pd speedlimit;
#X obj 768 232 s \$1-\$2/release;
#X obj 52 274 s \$0-damping;
#X msg 768 171 symbol release:\$1ms;
#X obj 30 370 makefilename %3ddB;
#X obj 225 139 makefilename %9d;
#X obj 30 48 + 100;
#X obj 225 224 s \$1-\$2/target;
#X obj 366 268 s \$1-\$2/maxgain;
#X obj 492 229 s \$1-\$2/attack;
#X obj 638 227 s \$1-\$2/hold;
#X obj 908 15 inlet;
#X msg 908 212 label \$1;
#X obj 908 112 int;
#X obj 908 232 s \$1-\$2/predelay;
#X msg 225 160 symbol target:\$1dB;
#X msg 492 168 symbol attack:\$1ms;
#X msg 638 166 symbol hold:\$1ms;
#X msg 908 171 symbol predelay:\$1ms;
#X msg 366 207 symbol maxgain:\$1dB;
#X obj 363 168 makefilename %8d;
#X obj 492 147 makefilename %9d;
#X obj 638 145 makefilename %11d;
#X obj 768 150 makefilename %8d;
#X obj 908 150 makefilename %7d;
#X connect 0 0 4 0;
#X connect 1 0 9 0;
#X connect 2 0 13 0;
#X connect 3 0 47 0;
#X connect 4 0 5 0;
#X connect 5 0 6 0;
#X connect 6 0 45 0;
#X connect 7 0 3 0;
#X connect 7 0 8 0;
#X connect 7 0 12 0;
#X connect 7 0 15 0;
#X connect 7 0 18 0;
#X connect 7 0 52 0;
#X connect 8 0 48 0;
#X connect 9 0 10 0;
#X connect 10 0 11 0;
#X connect 11 0 60 0;
#X connect 12 0 49 0;
#X connect 13 0 61 0;
#X connect 14 0 16 0;
#X connect 15 0 50 0;
#X connect 16 0 62 0;
#X connect 17 0 19 0;
#X connect 18 0 41 0;
#X connect 19 0 63 0;
#X connect 20 0 25 0;
#X connect 21 0 22 0;
#X connect 21 1 23 1;
#X connect 22 0 23 0;
#X connect 23 0 36 0;
#X connect 23 0 40 0;
#X connect 24 0 26 0;
#X connect 25 0 46 0;
#X connect 26 0 42 0;
#X connect 27 0 30 0;
#X connect 28 0 29 0;
#X connect 30 0 44 0;
#X connect 31 0 33 0;
#X connect 32 0 28 0;
#X connect 33 0 21 0;
#X connect 34 0 33 0;
#X connect 34 1 32 0;
#X connect 34 1 37 0;
#X connect 35 0 38 0;
#X connect 36 0 24 0;
#X connect 37 0 36 0;
#X connect 38 0 39 0;
#X connect 38 1 31 1;
#X connect 38 2 34 0;
#X connect 39 0 31 0;
#X connect 40 0 27 0;
#X connect 43 0 18 0;
#X connect 44 0 28 0;
#X connect 45 0 55 0;
#X connect 46 0 31 0;
#X connect 51 0 53 0;
#X connect 52 0 54 0;
#X connect 53 0 64 0;
#X connect 55 0 3 0;
#X connect 56 0 12 0;
#X connect 57 0 15 0;
#X connect 58 0 52 0;
#X connect 59 0 8 0;
#X connect 60 0 59 0;
#X connect 61 0 56 0;
#X connect 62 0 57 0;
#X connect 63 0 43 0;
#X connect 64 0 58 0;
#X restore 89 295 pd display-stuff;
#X obj 10 12 inlet~;
#X obj 41 39 inlet~;
#X obj 11 280 outlet~;
#X obj 41 246 outlet~;
#N canvas 724 702 155 121 NETPD 0;
#X msg 11 7 version 0 1 0;
#X restore 396 38 pd NETPD 2 0;
#N canvas 620 438 151 122 \$3-ragc 1;
#X obj 3 3 cnv 15 137 102 empty empty empty 20 30 0 14 -1 -62784 0
;
#X obj 48 88 cnv 1 1 12 empty \$0-damping empty 20 12 0 14 -124858
-66577 0;
#X obj 5 89 tgl 14 0 \$0-vissw-s \$0-vissw-r 0dB 40 8 0 10 -145661
-1 -262144 0 1;
#X obj 8 61 hsl 128 14 20 120000 1 0 \$1-\$2/release \$1-\$2/release
empty 8 7 0 10 -83253 -1 -262144 11600 1;
#X obj 8 5 hsl 128 14 -40 0 0 0 \$1-\$2/target \$1-\$2/target empty
8 7 0 10 -41633 -1 -262144 11900 1;
#X obj 8 19 hsl 128 14 0 40 0 0 \$1-\$2/maxgain \$1-\$2/maxgain empty
8 7 0 10 -49958 -1 -262144 9400 1;
#X obj 8 33 hsl 128 14 20 30000 1 0 \$1-\$2/attack \$1-\$2/attack empty
8 7 0 10 -62443 -1 -262144 10300 1;
#X obj 8 47 hsl 128 14 20 120000 1 0 \$1-\$2/hold \$1-\$2/hold empty
8 7 0 10 -70768 -1 -262144 9800 1;
#X obj 8 75 hsl 128 14 20 30000 1 0 \$1-\$2/predelay \$1-\$2/predelay
empty 8 7 0 10 -99959 -1 -262144 0 1;
#X restore 396 19 pd \$3-ragc;
#X obj 10 198 dynlib_agc~;
#X obj 95 31 netpd_f \$1 \$2/target -3;
#X obj 116 74 netpd_f \$1 \$2/maxgain 12;
#X obj 144 115 netpd_f \$1 \$2/attack 1000;
#X obj 163 156 netpd_f \$1 \$2/hold 10000;
#X obj 182 198 netpd_f \$1 \$2/release 40000;
#X obj 202 238 netpd_f \$1 \$2/predelay 0;
#X msg 95 52 target \$1;
#X msg 116 95 maxgain \$1;
#X msg 144 136 attack \$1;
#X msg 163 177 hold \$1;
#X msg 182 219 release \$1;
#X msg 202 259 predelay \$1;
#X connect 1 0 7 0;
#X connect 2 0 7 1;
#X connect 7 0 3 0;
#X connect 7 1 4 0;
#X connect 7 2 0 0;
#X connect 8 0 14 0;
#X connect 8 0 0 1;
#X connect 9 0 15 0;
#X connect 9 0 0 2;
#X connect 10 0 16 0;
#X connect 10 0 0 3;
#X connect 11 0 17 0;
#X connect 11 0 0 4;
#X connect 12 0 18 0;
#X connect 12 0 0 5;
#X connect 13 0 19 0;
#X connect 13 0 0 6;
#X connect 14 0 7 2;
#X connect 15 0 7 2;
#X connect 16 0 7 2;
#X connect 17 0 7 2;
#X connect 18 0 7 2;
#X connect 19 0 7 2;
