#N canvas 906 342 486 326 10;
#X obj 12 123 cos~;
#X obj 13 206 +~;
#X obj 13 184 *~;
#X obj 13 149 +~ 1;
#X obj 11 82 +~;
#X obj 10 11 r~ \$1-lfo;
#X obj 81 144 r~ \$1-depth;
#X obj 82 167 r~ \$1-delay;
#X obj 190 290 throw~ \$1-sum-r;
#X obj 14 295 throw~ \$1-sum-l;
#X obj 189 120 cos~;
#X obj 190 203 +~;
#X obj 190 181 *~;
#X obj 190 146 +~ 1;
#X obj 188 79 +~;
#X obj 13 229 vd~ \$1-rchous-l;
#X obj 190 226 vd~ \$1-rchous-r;
#X obj 244 39 * -1;
#X obj 244 60 + 1;
#X obj 138 27 \$2;
#X obj 138 7 loadbang;
#N canvas 995 231 198 102 NETPD 0;
#X msg -10 13 version 0 2 1;
#X restore 258 151 pd NETPD 2 0;
#X obj 323 36 >= \$3;
#X obj 323 62 switch~;
#X obj 323 14 r \$1-voice-activation;
#X connect 0 0 3 0;
#X connect 1 0 15 0;
#X connect 2 0 1 0;
#X connect 3 0 2 0;
#X connect 4 0 0 0;
#X connect 5 0 4 0;
#X connect 5 0 14 0;
#X connect 6 0 2 1;
#X connect 6 0 12 1;
#X connect 7 0 1 1;
#X connect 7 0 11 1;
#X connect 10 0 13 0;
#X connect 11 0 16 0;
#X connect 12 0 11 0;
#X connect 13 0 12 0;
#X connect 14 0 10 0;
#X connect 15 0 9 0;
#X connect 16 0 8 0;
#X connect 17 0 18 0;
#X connect 18 0 14 1;
#X connect 19 0 4 1;
#X connect 19 0 17 0;
#X connect 20 0 19 0;
#X connect 22 0 23 0;
#X connect 24 0 22 0;
