#N canvas 510 199 504 456 10;
#X obj 20 379 phasor~;
#X obj 13 44 delwrite~ \$0-rchous-l 300;
#X obj 184 43 delwrite~ \$0-rchous-r 300;
#X obj 20 399 s~ \$0-lfo;
#X obj 20 293 pack f 50;
#X obj 20 313 line~;
#X obj 20 334 s~ \$0-depth;
#X obj 20 209 pack f 50;
#X obj 20 229 line~;
#X obj 20 250 s~ \$0-delay;
#X obj 14 72 catch~ \$0-sum-l;
#X obj 183 71 catch~ \$0-sum-r;
#N canvas 800 457 355 280 \$0-voices 0;
#X obj 10 20 rchous-voice 3590 0.360675;
#X obj 10 40 rchous-voice 3590 0.721349;
#X obj 10 60 rchous-voice 3590 0.262024;
#X restore 373 67 pd \$0-voices;
#N canvas 448 127 339 425 voice-creation 0;
#X obj 13 13 inlet;
#X obj 111 99 \$0;
#X obj 30 94 until;
#X obj 71 97 1;
#X obj 30 122 f;
#X obj 30 270 \$0;
#X obj 76 228 \$0;
#X obj 53 249 * 20;
#X obj 30 167 t b f b f;
#X obj 62 122 + 1;
#N canvas 982 422 132 187 compute_lfo_phase 0;
#X obj 17 46 * 0.439847;
#X obj 17 67 t f f;
#X obj 42 91 int;
#X obj 17 112 -;
#X obj 17 23 inlet;
#X obj 17 156 outlet;
#X obj 17 134 * 0.82;
#X connect 0 0 1 0;
#X connect 1 0 3 0;
#X connect 1 1 2 0;
#X connect 2 0 3 1;
#X connect 3 0 6 0;
#X connect 4 0 0 0;
#X connect 6 0 5 0;
#X restore 99 207 pd compute_lfo_phase;
#X obj 13 67 t b f b b;
#X obj 13 354 \$0;
#X obj 30 143 t f f;
#X msg 111 122 \; pd-\$1-voices clear;
#X msg 30 314 \; pd-\$1-voices obj 10 \$2 rchous-voice \$3 \$4;
#X msg 13 376 \; pd-\$1-voices loadbang;
#X obj 30 293 pack f f f f;
#X obj 13 38 netpd-dsp-off;
#X connect 0 0 18 0;
#X connect 1 0 14 0;
#X connect 2 0 4 0;
#X connect 3 0 4 1;
#X connect 4 0 9 0;
#X connect 4 0 13 0;
#X connect 5 0 17 0;
#X connect 6 0 17 2;
#X connect 7 0 17 1;
#X connect 8 0 5 0;
#X connect 8 1 7 0;
#X connect 8 2 6 0;
#X connect 8 3 10 0;
#X connect 9 0 4 1;
#X connect 10 0 17 3;
#X connect 11 0 12 0;
#X connect 11 1 2 0;
#X connect 11 2 3 0;
#X connect 11 3 1 0;
#X connect 12 0 16 0;
#X connect 13 1 8 0;
#X connect 17 0 15 0;
#X connect 18 0 11 0;
#X restore 19 165 pd voice-creation;
#X obj 19 145 + 1;
#N canvas 592 203 713 370 display-stuff 0;
#X obj 13 12 inlet;
#X obj 13 157 int;
#X obj 13 137 * 100;
#X obj 13 176 * 0.01;
#X obj 144 15 inlet;
#X obj 287 16 inlet;
#X obj 431 17 inlet;
#X msg 431 210 list voices: \$1;
#X obj 431 142 + 1;
#X obj 431 168 * 2;
#X obj 144 140 int;
#X obj 287 141 int;
#X msg 13 204 list frequency: \$1Hz;
#X msg 144 204 list depth: \$1ms;
#X msg 287 208 list delay: \$1ms;
#X obj 13 277 s \$1-\$2/freq;
#X obj 144 280 s \$1-\$2/depth;
#X obj 287 281 s \$1-\$2/del;
#X obj 431 283 s \$1-\$2/voc;
#X obj 13 226 list append;
#X obj 144 229 list append;
#X obj 287 230 list append;
#X obj 431 232 list append;
#X msg 13 257 label \$1\$3\$2;
#X msg 144 260 label \$1\$3\$2;
#X msg 287 261 label \$1\$3\$2;
#X msg 431 263 label \$1\$3\$2;
#X msg 514 146 32;
#X obj 514 168 makefilename %c;
#X msg 208 337 label empty;
#X obj 514 119 loadbang;
#X connect 0 0 2 0;
#X connect 1 0 3 0;
#X connect 2 0 1 0;
#X connect 3 0 12 0;
#X connect 4 0 10 0;
#X connect 5 0 11 0;
#X connect 6 0 8 0;
#X connect 7 0 22 0;
#X connect 8 0 9 0;
#X connect 9 0 7 0;
#X connect 10 0 13 0;
#X connect 11 0 14 0;
#X connect 12 0 19 0;
#X connect 13 0 20 0;
#X connect 14 0 21 0;
#X connect 19 0 23 0;
#X connect 20 0 24 0;
#X connect 21 0 25 0;
#X connect 22 0 26 0;
#X connect 23 0 15 0;
#X connect 24 0 16 0;
#X connect 25 0 17 0;
#X connect 26 0 18 0;
#X connect 27 0 28 0;
#X connect 28 0 22 1;
#X connect 28 0 21 1;
#X connect 28 0 20 1;
#X connect 28 0 19 1;
#X connect 29 0 15 0;
#X connect 29 0 16 0;
#X connect 29 0 17 0;
#X connect 29 0 18 0;
#X connect 30 0 27 0;
#X restore 127 417 pd display-stuff;
#X obj 14 19 inlet~;
#X obj 184 19 inlet~;
#X obj 14 93 outlet~;
#X obj 184 93 outlet~;
#N canvas 208 569 138 81 \$3-rchous 1;
#X obj 7 4 cnv 15 109 62 empty empty empty 20 12 0 14 -128992 -66577
0;
#X obj 63 51 cnv 13 51 13 empty empty empty 20 12 0 14 -1 -66577 0
;
#X obj 12 6 hsl 100 13 0.01 5 1 0 \$1-\$2/freq \$1-\$2/freq empty 2
6 1 7 -1 -66577 -195568 4400 1;
#X obj 12 21 hsl 100 13 5 50 0 0 \$1-\$2/del \$1-\$2/del empty 2 6
1 7 -1 -66577 -195568 8400 1;
#X obj 12 36 hsl 100 13 1 100 0 0 \$1-\$2/depth \$1-\$2/depth empty
2 6 1 7 -1 -66577 -195568 0 1;
#X obj 9 51 hradio 13 1 0 4 \$1-\$2/voc \$1-\$2/voc empty 57 6 1 7
-1 -66577 -195568 2;
#X restore 373 19 pd \$3-rchous;
#N canvas 1014 192 341 170 NETPD 0;
#X msg 13 17 version 0 2 0;
#N canvas 1100 245 171 89 abslist 0;
#X msg 5 10 rchous-voice;
#X restore 13 41 pd abslist;
#X restore 373 42 pd NETPD 2 0;
#X obj 19 124 netpd_f \$1 \$2/voc 0;
#X obj 20 188 netpd_f \$1 \$2/del 5;
#X obj 21 273 netpd_f \$1 \$2/depth 40;
#X obj 20 358 netpd_f \$1 \$2/freq 0.07;
#X connect 0 0 3 0;
#X connect 4 0 5 0;
#X connect 5 0 6 0;
#X connect 7 0 8 0;
#X connect 8 0 9 0;
#X connect 10 0 18 0;
#X connect 11 0 19 0;
#X connect 14 0 13 0;
#X connect 16 0 1 0;
#X connect 17 0 2 0;
#X connect 22 0 14 0;
#X connect 22 0 15 3;
#X connect 23 0 7 0;
#X connect 23 0 15 2;
#X connect 24 0 4 0;
#X connect 24 0 15 1;
#X connect 25 0 0 0;
#X connect 25 0 15 0;
