#N canvas 301 301 418 342 10;
#N canvas 224 238 454 419 processing 0;
#X obj 7 271 *~;
#N canvas 283 384 336 370 amp-factor 0;
#X obj 19 22 inlet~;
#X obj 84 23 inlet;
#X text 120 23 Ratio;
#X obj 168 26 inlet;
#X text 204 26 Threshold;
#X obj 200 54 loadbang;
#X msg 200 78 100;
#X obj 200 102 sig~;
#X obj 168 102 sig~;
#X obj 168 134 +~;
#X obj 155 161 -~;
#X obj 155 206 /~;
#X obj 155 184 max~ 0;
#X obj 142 262 -~;
#X obj 142 286 dbtorms~;
#X obj 142 311 outlet~;
#X obj 84 179 sig~;
#X obj 97 129 - 1;
#X obj 84 156 /;
#X obj 19 68 rmstodb~;
#X text 18 4 Signal;
#X text 189 310 Factor in RMS;
#X obj 19 45 rh_abs~;
#X connect 0 0 22 0;
#X connect 1 0 17 0;
#X connect 1 0 18 0;
#X connect 3 0 8 0;
#X connect 5 0 6 0;
#X connect 6 0 7 0;
#X connect 7 0 9 1;
#X connect 7 0 13 0;
#X connect 8 0 9 0;
#X connect 9 0 10 1;
#X connect 10 0 12 0;
#X connect 11 0 13 1;
#X connect 12 0 11 0;
#X connect 13 0 14 0;
#X connect 14 0 15 0;
#X connect 16 0 11 1;
#X connect 17 0 18 1;
#X connect 18 0 16 0;
#X connect 19 0 10 0;
#X connect 22 0 19 0;
#X restore 143 109 pd amp-factor;
#X obj 7 31 inlet~;
#X obj 7 350 outlet~;
#X obj 180 24 inlet ratio;
#X obj 218 50 inlet threshold;
#X obj 294 25 inlet attack;
#X obj 333 47 inlet release;
#X obj 120 232 inlet gain;
#X obj 120 253 + 100;
#X obj 120 275 dbtorms;
#X obj 200 212 loadbang;
#X obj 64 271 *~;
#X obj 78 230 *~;
#X obj 63 34 inlet~;
#X obj 64 350 outlet~;
#X obj 101 73 *~ 0.707946;
#X text 119 55 -3dB;
#N canvas 596 477 506 356 att-rel-filtering 0;
#X obj 22 26 inlet~;
#X obj 22 275 outlet~;
#X obj 172 26 inlet;
#X obj 324 28 inlet;
#X obj 324 175 /;
#X obj 21 199 fexpr~ if($y1[-1]>$x1 \, $y1[-1]-(($y1[-1]-$x1)*$f2)
\, $y1[-1]+(($x1-$y1[-1])*$f3));
#X obj 324 77 / 1000;
#X obj 324 109 * 44100;
#X msg 324 154 2.9 \$1;
#X obj 324 131 max 2.9;
#X obj 403 62 loadbang;
#X obj 403 84 samplerate~;
#X obj 172 172 /;
#X obj 172 74 / 1000;
#X obj 172 106 * 44100;
#X msg 172 151 2.9 \$1;
#X obj 172 128 max 2.9;
#X connect 0 0 5 0;
#X connect 2 0 13 0;
#X connect 3 0 6 0;
#X connect 4 0 5 2;
#X connect 5 0 1 0;
#X connect 6 0 7 0;
#X connect 7 0 9 0;
#X connect 8 0 4 0;
#X connect 9 0 8 0;
#X connect 10 0 11 0;
#X connect 10 0 16 0;
#X connect 10 0 9 0;
#X connect 11 0 7 1;
#X connect 11 0 14 1;
#X connect 12 0 5 1;
#X connect 13 0 14 0;
#X connect 14 0 16 0;
#X connect 15 0 12 0;
#X connect 16 0 15 0;
#X restore 143 148 pd att-rel-filtering;
#X obj 200 232 0;
#X obj 327 337 outlet;
#X obj 327 312 env~ 4096;
#X connect 0 0 3 0;
#X connect 1 0 18 0;
#X connect 2 0 0 0;
#X connect 2 0 16 0;
#X connect 4 0 1 1;
#X connect 5 0 1 2;
#X connect 6 0 18 1;
#X connect 7 0 18 2;
#X connect 8 0 9 0;
#X connect 9 0 10 0;
#X connect 10 0 13 1;
#X connect 11 0 19 0;
#X connect 12 0 15 0;
#X connect 13 0 0 1;
#X connect 13 0 12 1;
#X connect 14 0 12 0;
#X connect 14 0 16 0;
#X connect 16 0 1 0;
#X connect 18 0 13 0;
#X connect 18 0 21 0;
#X connect 19 0 9 0;
#X connect 21 0 20 0;
#X restore 10 198 pd processing;
#N canvas 402 275 927 463 display-stuff 0;
#X obj 225 6 inlet;
#X obj 366 10 inlet;
#X obj 492 12 inlet;
#X msg 225 201 label \$1;
#X obj 225 139 makesymbol %sdB;
#X obj 225 81 * 10;
#X obj 225 101 int;
#X obj 225 120 * 0.1;
#X msg 225 160 list gain: \$1;
#X obj 225 180 list2symbol;
#X msg 520 293 symbol empty;
#X msg 366 208 label \$1;
#X obj 366 88 * 10;
#X obj 366 108 int;
#X obj 366 127 * 0.1;
#X obj 366 187 list2symbol;
#X msg 492 209 label \$1;
#X obj 492 147 makesymbol %sdB;
#X obj 492 89 * 10;
#X obj 492 109 int;
#X obj 492 128 * 0.1;
#X obj 492 188 list2symbol;
#X obj 638 10 inlet;
#X msg 638 207 label \$1;
#X obj 638 107 int;
#X obj 638 186 list2symbol;
#X obj 768 15 inlet;
#X msg 768 212 label \$1;
#X obj 768 92 * 10;
#X obj 768 112 int;
#X obj 768 131 * 0.1;
#X obj 768 191 list2symbol;
#X obj 366 146 makesymbol 1:%s;
#X msg 366 167 list ratio: \$1;
#X msg 492 168 list threshold: \$1;
#X obj 638 145 makesymbol %sms;
#X obj 768 150 makesymbol %sms;
#X msg 638 166 list attack: \$1;
#X obj 638 87 * 1;
#X obj 638 126 * 1;
#X msg 768 171 list release: \$1;
#X obj 30 7 inlet;
#X obj 30 129 t b f;
#X obj 30 149 100;
#X obj 30 169 -;
#X obj 52 229 * 4;
#X obj 30 27 change;
#X msg 52 252 vis_size \$1 12;
#X obj 30 328 * -1;
#X obj 30 370 makesymbol %sdB;
#X msg 113 392 label \$1;
#X obj 113 414 s \$0-vissw-r;
#X obj 30 349 int;
#X obj 30 77 spigot;
#X obj 113 122 symbol empty;
#X obj 30 105 f;
#X obj 112 73 sel 1 0;
#X obj 112 19 r \$0-vissw-s;
#X obj 52 206 min 22;
#X obj 52 178 0;
#X obj 112 41 t b f f;
#X obj 45 58 100;
#N canvas 894 507 178 279 speedlimit 0;
#X obj 117 59 inlet;
#X obj 11 256 outlet;
#X obj 117 106 >;
#X obj 117 126 sel 1;
#X obj 117 146 f;
#X obj 117 86 t f f;
#X obj 117 166 t f f;
#X obj 12 18 r \$0-vissw-s;
#X obj 11 224 f;
#X obj 12 43 metro 333;
#X obj 12 66 t b b;
#X obj 24 177 0;
#X connect 0 0 5 0;
#X connect 2 0 3 0;
#X connect 3 0 4 0;
#X connect 4 0 6 0;
#X connect 5 0 2 0;
#X connect 5 1 4 1;
#X connect 6 0 8 1;
#X connect 6 1 2 1;
#X connect 7 0 9 0;
#X connect 8 0 1 0;
#X connect 9 0 10 0;
#X connect 10 0 11 0;
#X connect 10 1 8 0;
#X connect 11 0 2 1;
#X connect 11 0 8 1;
#X restore 30 300 pd speedlimit;
#X obj 225 224 s \$1-\$2/gain;
#X obj 366 228 s \$1-\$2/ratio;
#X obj 492 229 s \$1-\$2/threshold;
#X obj 638 227 s \$1-\$2/attack;
#X obj 768 232 s \$1-\$2/release;
#X obj 52 274 s \$0-damping;
#X connect 0 0 5 0;
#X connect 1 0 12 0;
#X connect 2 0 18 0;
#X connect 3 0 63 0;
#X connect 4 0 8 0;
#X connect 5 0 6 0;
#X connect 6 0 7 0;
#X connect 7 0 4 0;
#X connect 8 0 9 0;
#X connect 9 0 3 0;
#X connect 10 0 3 0;
#X connect 10 0 11 0;
#X connect 10 0 16 0;
#X connect 10 0 23 0;
#X connect 10 0 27 0;
#X connect 11 0 64 0;
#X connect 12 0 13 0;
#X connect 13 0 14 0;
#X connect 14 0 32 0;
#X connect 15 0 11 0;
#X connect 16 0 65 0;
#X connect 17 0 34 0;
#X connect 18 0 19 0;
#X connect 19 0 20 0;
#X connect 20 0 17 0;
#X connect 21 0 16 0;
#X connect 22 0 38 0;
#X connect 23 0 66 0;
#X connect 24 0 39 0;
#X connect 25 0 23 0;
#X connect 26 0 28 0;
#X connect 27 0 67 0;
#X connect 28 0 29 0;
#X connect 29 0 30 0;
#X connect 30 0 36 0;
#X connect 31 0 27 0;
#X connect 32 0 33 0;
#X connect 33 0 15 0;
#X connect 34 0 21 0;
#X connect 35 0 37 0;
#X connect 36 0 40 0;
#X connect 37 0 25 0;
#X connect 38 0 24 0;
#X connect 39 0 35 0;
#X connect 40 0 31 0;
#X connect 41 0 46 0;
#X connect 42 0 43 0;
#X connect 42 1 44 1;
#X connect 43 0 44 0;
#X connect 44 0 58 0;
#X connect 44 0 62 0;
#X connect 45 0 47 0;
#X connect 46 0 53 0;
#X connect 47 0 68 0;
#X connect 48 0 52 0;
#X connect 49 0 50 0;
#X connect 50 0 51 0;
#X connect 52 0 49 0;
#X connect 53 0 55 0;
#X connect 54 0 50 0;
#X connect 55 0 42 0;
#X connect 56 0 55 0;
#X connect 56 1 54 0;
#X connect 56 1 59 0;
#X connect 57 0 60 0;
#X connect 58 0 45 0;
#X connect 59 0 58 0;
#X connect 60 0 61 0;
#X connect 60 1 53 1;
#X connect 60 2 56 0;
#X connect 61 0 53 0;
#X connect 62 0 48 0;
#X restore 85 250 pd display-stuff;
#X obj 10 12 inlet~;
#X obj 23 33 inlet~;
#X obj 10 310 outlet~;
#X obj 48 282 outlet~;
#N canvas 719 299 156 111 \$3-rcomp 0;
#X obj -37 5 cnv 15 137 88 empty empty empty 20 -3 0 14 -1 -62784 0
;
#X obj -32 63 hsl 128 14 -20 30 0 0 \$1-\$2/gain \$1-\$2/gain empty
8 7 1 8 -83253 -1 -262144 5080 1;
#X obj -32 7 hsl 128 14 1 10 1 0 \$1-\$2/ratio \$1-\$2/ratio empty
8 7 1 8 -41633 -1 -262144 0 1;
#X obj -32 21 hsl 128 14 -60 0 0 0 \$1-\$2/threshold \$1-\$2/threshold
empty 8 7 1 8 -49958 -1 -262144 12700 1;
#X obj -32 35 hsl 128 14 1 300 1 0 \$1-\$2/attack \$1-\$2/attack empty
8 7 1 8 -62443 -1 -262144 5127 1;
#X obj -32 49 hsl 128 14 10 3000 1 0 \$1-\$2/release \$1-\$2/release
empty 8 7 1 8 -70768 -1 -262144 6173 1;
#X obj 8 78 cnv 1 1 12 empty \$0-damping empty 20 12 0 14 -124858 -66577
0;
#X obj -35 77 tgl 14 0 \$0-vissw-s \$0-vissw-r empty 16 7 1 7 -124856
-1 -262144 0 1;
#X restore 320 43 pd \$3-rcomp;
#X obj 103 52 netpd_f \$1 \$2/gain 0;
#X obj 122 74 netpd_f \$1 \$2/ratio 1;
#X obj 140 95 netpd_f \$1 \$2/threshold 0;
#N canvas 724 508 155 121 NETPD 0;
#N canvas 589 244 162 53 abslist 0;
#X msg 10 11 roman_helpers;
#X restore 11 34 pd abslist;
#X msg 11 7 version 0 2 2;
#X restore 320 62 pd NETPD 2 0;
#X obj 159 116 netpd_f \$1 \$2/attack 10;
#X obj 178 138 netpd_f \$1 \$2/release 160;
#X connect 0 0 4 0;
#X connect 0 1 5 0;
#X connect 0 2 1 0;
#X connect 2 0 0 0;
#X connect 3 0 0 1;
#X connect 7 0 0 2;
#X connect 7 0 1 1;
#X connect 8 0 0 3;
#X connect 8 0 1 2;
#X connect 9 0 0 4;
#X connect 9 0 1 3;
#X connect 11 0 0 5;
#X connect 11 0 1 4;
#X connect 12 0 0 6;
#X connect 12 0 1 5;
