#N struct 5187.rectangle float id float x float y float w float h float txtclr float boxclr float bgclr symbol label;
#N struct 5231.rectangle float id float x float y float w float h float txtclr float boxclr float bgclr symbol label;
#N canvas 1178 328 809 500 10;
#X obj 10 158 delread~ \$0-fildell;
#X obj 77 185 delread~ \$0-fildelr;
#X obj 10 134 *;
#X obj 19 101 t b f;
#X obj 77 137 *;
#X obj 77 104 t b f;
#X obj 10 255 *~;
#X obj 77 256 *~;
#X obj 10 354 *~;
#X obj 48 356 *~;
#X obj 77 354 *~;
#X obj 104 354 *~;
#X obj 229 280 * -1;
#X obj 229 301 + 1;
#X obj 173 299 f;
#X obj 181 228 f;
#X obj 199 251 netpd_f \$1 \$2/rt 0;
#X obj 101 273 inlet~;
#X obj 149 273 inlet~;
#X obj 27 215 outlet~;
#X obj 100 215 outlet~;
#N canvas 873 480 217 118 NETPD 0;
#N canvas 640 338 411 84 abslist 0;
#X msg 16 3 untik-clock-consumer;
#X restore 33 31 pd abslist;
#X msg 34 7 version 0 1 0;
#X restore 298 23 pd NETPD 2 0;
#X obj 93 430 delwrite~ \$0-fildelr 20000;
#X obj 42 455 delwrite~ \$0-fildell 20000;
#X obj 72 52 netpd_f \$1 \$2/til 3;
#X obj 82 76 netpd_f \$1 \$2/tir 3;
#X obj 10 48 f;
#X obj 10 70 change;
#X obj 10 25 b;
#N canvas 932 556 90 247 \$3-\$2 1;
#X obj 8 10 cnv 10 62 220 empty empty rdelfx 4 12 0 14 #404040 #feffc6 0;
#X obj 9 36 nbx 2 18 0 99 0 0 \$1-\$2/til \$1-\$2/til empty 0 8 0 10 #6e736c #feffc6 #000000 0 256;
#X obj 39 36 nbx 2 18 0 99 0 0 \$1-\$2/tir \$1-\$2/tir empty 0 8 0 10 #6e736c #feffc6 #000000 0 256;
#X obj 9 54 mx-insert-gui-wide \$1/\$0/1 \$2/insert;
#X obj 12 123 hsl 55 25 0 1 0 0 \$1-\$2/fb \$1-\$2/fb fb 37 17 0 16 #aea9a4 #feffc6 #000000 0 1;
#X obj 12 80 hsl 55 43 0 1 0 0 \$0.rt \$0.rt.label X 6 30 1 60 #bbbbbb #bbbbbb #000000 0 1;
#X obj 9 148 netpd-gui-dropdown \$0.clock.select 60 16 10 0 0 777 0 555 887;
#X restore 298 46 pd \$3-\$2;
#N canvas 0 0 497 155 insert 0;
#X obj 11 37 inlet~;
#X obj 137 35 inlet~;
#X obj 12 114 outlet~;
#X obj 135 111 outlet~;
#X obj 12 72 mx-insert-container \$1/\$0/2 \$2/insert \$3;
#X obj 261 49 mx-insert-control \$1/\$0/1 \$2/insert;
#X connect 0 0 4 0;
#X connect 1 0 4 1;
#X connect 4 0 2 0;
#X connect 4 1 3 0;
#X connect 5 0 4 2;
#X restore 41 397 pd insert;
#X obj 118 398 netpd-bus-order \$1 \$0/1 \$0/2;
#X obj 181 206 netpd_f \$1 \$2/fb 0;
#N canvas 1142 580 380 286 routing 0;
#X obj 16 249 s \$0.rt.label;
#X msg 16 208 label X;
#X msg 83 209 label I I;
#X obj 16 13 r \$0.rt;
#X obj 16 36 sel 0;
#X obj 58 37 t a;
#X obj 16 79 == 0;
#X obj 16 150 t a a;
#X obj 16 179 sel 1 0;
#X obj 62 105 s \$1-\$2/rt;
#X obj 16 102 t a a;
#X obj 62 128 r \$1-\$2/rt;
#X obj 62 151 route set float;
#X connect 1 0 0 0;
#X connect 2 0 0 0;
#X connect 3 0 4 0;
#X connect 4 0 6 0;
#X connect 4 1 5 0;
#X connect 5 0 4 1;
#X connect 6 0 10 0;
#X connect 7 0 8 0;
#X connect 7 1 6 1;
#X connect 8 0 1 0;
#X connect 8 1 2 0;
#X connect 10 0 7 0;
#X connect 10 1 9 0;
#X connect 11 0 12 0;
#X connect 12 0 7 0;
#X connect 12 1 7 0;
#X restore 299 71 pd routing;
#X obj 430 19 loadbang;
#X obj 430 42 del 0;
#X msg 430 65 get tempo;
#X obj 430 111 route pos tempo, f 23;
#X msg 497 133 \$2 \$1;
#X obj 497 156 route permin;
#X msg 497 179 60000 \$1;
#X obj 497 202 /;
#X obj 497 226 s \$0.tick_ms;
#X obj 430 145 s \$0.pos;
#X obj 430 88 untik-clock-consumer \$1 clock \$0.clock.select;
#X obj 39 24 r \$0.tick_ms;
#X obj 10 2 r \$0.pos;
#X connect 0 0 6 0;
#X connect 0 0 19 0;
#X connect 1 0 7 0;
#X connect 1 0 20 0;
#X connect 2 0 0 0;
#X connect 3 0 2 0;
#X connect 3 1 2 1;
#X connect 4 0 1 0;
#X connect 5 0 4 0;
#X connect 5 1 4 1;
#X connect 6 0 8 0;
#X connect 6 0 9 0;
#X connect 7 0 10 0;
#X connect 7 0 11 0;
#X connect 8 0 30 0;
#X connect 9 0 30 1;
#X connect 10 0 30 0;
#X connect 11 0 30 1;
#X connect 12 0 13 0;
#X connect 13 0 8 1;
#X connect 13 0 11 1;
#X connect 14 0 9 1;
#X connect 14 0 10 1;
#X connect 15 0 6 1;
#X connect 15 0 7 1;
#X connect 16 0 14 0;
#X connect 16 0 12 0;
#X connect 17 0 8 0;
#X connect 17 0 9 0;
#X connect 18 0 10 0;
#X connect 18 0 11 0;
#X connect 24 0 3 0;
#X connect 25 0 5 0;
#X connect 26 0 27 0;
#X connect 27 0 2 0;
#X connect 27 0 4 0;
#X connect 28 0 26 0;
#X connect 30 0 23 0;
#X connect 30 1 22 0;
#X connect 32 0 15 0;
#X connect 34 0 35 0;
#X connect 35 0 36 0;
#X connect 36 0 44 0;
#X connect 37 0 43 0;
#X connect 37 1 38 0;
#X connect 38 0 39 0;
#X connect 39 0 40 0;
#X connect 40 0 41 0;
#X connect 41 0 42 0;
#X connect 44 0 37 0;
#X connect 45 0 26 1;
#X connect 46 0 28 0;
