#N canvas 304 44 508 533 10;
#X obj 98 418 r~ dac1;
#X obj 126 438 r~ dac2;
#X obj 156 418 r~ dac3;
#X obj 185 438 r~ dac4;
#X obj 212 418 r~ dac5;
#X obj 241 438 r~ dac6;
#X obj 270 418 r~ dac7;
#X obj 298 438 r~ dac8;
#X obj 98 499 writesf~ 8 0 0 0 0 0 0 0 0 0 0 0 0;
#X msg 91 261 open -bytes 2 \$1;
#X obj 52 218 savepanel;
#X obj 52 84 f;
#X obj 52 115 sel 0 1 2;
#X obj 91 285 s \$0.writesf;
#X obj 52 53 r \$0.button;
#X obj 71 332 s \$0.button.r;
#X obj 52 377 s \$0.state;
#X msg 52 355 1;
#X obj 101 86 r \$0.state;
#X obj 203 233 t b b b;
#X msg 242 258 start;
#X obj 242 280 s \$0.writesf;
#X obj 222 322 s \$0.button.r;
#X msg 71 310 label start;
#X msg 222 300 label stop;
#X obj 203 369 s \$0.state;
#X msg 203 347 2;
#X obj 52 240 t b b a;
#X obj 322 238 t b b b;
#X obj 361 285 s \$0.writesf;
#X obj 341 327 s \$0.button.r;
#X obj 322 374 s \$0.state;
#X msg 361 263 stop;
#X msg 341 305 label select;
#X msg 322 352 0;
#X obj 27 459 r \$0.writesf;
#X obj 35 20 cnv 15 120 15 empty \$0.time empty 80 7 0 10 -233017 -66577
0;
#X obj 20 20 bng 15 250 50 0 \$0.button \$0.button.r select 20 7 0
10 -258113 -1 -1;
#X obj 297 54 metro 1000;
#X obj 297 158 s \$0.time;
#X msg 297 32 1;
#X obj 297 12 t b b;
#X obj 297 80 f;
#X obj 338 82 + 1;
#X msg 325 33 0;
#X msg 464 104 0;
#X obj 297 106 makefilename %4ds;
#X msg 297 129 label \$1;
#X msg 189 110 label empty;
#X obj 189 68 loadbang;
#N canvas 731 450 450 300 NETPD 0;
#X msg 25 10 version 0 0 1;
#X restore 365 453 pd NETPD 2 0;
#X connect 0 0 8 0;
#X connect 1 0 8 1;
#X connect 2 0 8 2;
#X connect 3 0 8 3;
#X connect 4 0 8 4;
#X connect 5 0 8 5;
#X connect 6 0 8 6;
#X connect 7 0 8 7;
#X connect 9 0 13 0;
#X connect 10 0 27 0;
#X connect 11 0 12 0;
#X connect 12 0 10 0;
#X connect 12 1 19 0;
#X connect 12 2 28 0;
#X connect 14 0 11 0;
#X connect 17 0 16 0;
#X connect 18 0 11 1;
#X connect 19 0 26 0;
#X connect 19 1 24 0;
#X connect 19 2 20 0;
#X connect 19 2 41 0;
#X connect 20 0 21 0;
#X connect 23 0 15 0;
#X connect 24 0 22 0;
#X connect 26 0 25 0;
#X connect 27 0 17 0;
#X connect 27 1 23 0;
#X connect 27 1 48 0;
#X connect 27 2 9 0;
#X connect 28 0 34 0;
#X connect 28 1 33 0;
#X connect 28 2 32 0;
#X connect 28 2 45 0;
#X connect 32 0 29 0;
#X connect 33 0 30 0;
#X connect 34 0 31 0;
#X connect 35 0 8 0;
#X connect 38 0 42 0;
#X connect 40 0 38 0;
#X connect 41 0 40 0;
#X connect 41 1 44 0;
#X connect 42 0 43 0;
#X connect 42 0 46 0;
#X connect 43 0 42 1;
#X connect 44 0 42 1;
#X connect 45 0 38 0;
#X connect 46 0 47 0;
#X connect 47 0 39 0;
#X connect 48 0 39 0;
#X connect 49 0 48 0;
#X coords 0 -1 1 1 135 15 2 20 20;
