#N canvas 948 163 393 465 10;
#X obj 14 294 *~;
#X obj 137 294 *~;
#X obj 183 145 * 10;
#X obj 253 285 *;
#X obj 264 254 t b f;
#N canvas 1158 302 321 295 gui-stuff 0;
#X obj 32 28 r \$2-flng.ph.x;
#X obj 154 160 sel 0 1;
#X obj 172 182 symbol +;
#X obj 154 202 symbol -;
#X msg 154 225 label \$1;
#X obj 154 139 t f b;
#X obj 154 251 s \$2-flng.ph.rr;
#X obj 32 49 sel 1;
#X obj 32 92 ==;
#X obj 55 91 f;
#X msg 241 193 set 0;
#X obj 154 51 route set;
#X obj 154 29 r \$1-\$2/ph;
#X obj 32 250 s \$1-\$2/ph;
#X connect 0 0 7 0;
#X connect 1 0 3 0;
#X connect 1 1 2 0;
#X connect 2 0 4 0;
#X connect 3 0 4 0;
#X connect 4 0 6 0;
#X connect 5 0 1 0;
#X connect 5 1 10 0;
#X connect 7 0 8 0;
#X connect 8 0 9 0;
#X connect 8 0 5 0;
#X connect 8 0 13 0;
#X connect 9 0 8 1;
#X connect 10 0 6 0;
#X connect 11 0 5 0;
#X connect 11 0 8 1;
#X connect 12 0 11 0;
#X restore 12 121 pd gui-stuff;
#X obj 264 206 sel 0;
#X obj 264 228 - 1;
#X obj 14 189 phasor~;
#X obj 14 240 cos~;
#X obj 136 245 cos~;
#X obj 14 272 +~ 1;
#X obj 137 269 +~ 1;
#N canvas 518 513 465 205 feedback 0;
#X obj 92 18 inlet~;
#X obj 278 26 inlet~;
#X obj 19 142 outlet~;
#X obj 191 154 outlet~;
#X obj 58 88 *~;
#X obj 232 94 *~;
#X obj 58 112 delwrite~ \$0-flanger-l 1000;
#X obj 233 115 delwrite~ \$0-flanger-r 1000;
#X obj 18 49 vd~ \$0-flanger-l;
#X obj 193 55 vd~ \$0-flanger-r;
#X obj 18 22 inlet~;
#X obj 192 25 inlet~;
#X obj 374 28 inlet;
#X obj 300 147 block~ 4 1 1;
#X connect 0 0 6 0;
#X connect 1 0 7 0;
#X connect 4 0 6 0;
#X connect 5 0 7 0;
#X connect 8 0 4 0;
#X connect 8 0 2 0;
#X connect 9 0 5 0;
#X connect 9 0 3 0;
#X connect 10 0 8 0;
#X connect 11 0 9 0;
#X connect 12 0 5 1;
#X connect 12 0 4 1;
#X restore 15 376 pd feedback;
#X obj 135 222 +~ 0.06;
#X obj 15 318 +~ 0.12;
#X obj 138 317 +~ 0.12;
#N canvas 888 47 417 35 \$3-rflange 1;
#X obj 4 6 cnv 10 395 18 empty empty empty 330 10 1 8 -250685 -250685
0;
#X obj 5 7 cnv 10 393 16 empty empty rflange 345 8 1 8 -257472 -250685
0;
#X obj 11 10 hsl 100 10 0 1 0 0 \$1-\$2/freq \$1-\$2/freq >_schneller_>
15 5 1 7 -250685 -1 -1 3200 1;
#X obj 118 10 hsl 100 10 0 1 0 0 \$1-\$2/width \$1-\$2/width >_staerker_>
15 5 1 7 -250685 -1 -1 9400 1;
#X obj 225 10 hsl 100 10 0 1 0 0 \$1-\$2/fb \$1-\$2/fb >_ziuoung_>
15 5 1 7 -250685 -1 -1 8700 1;
#X obj 329 10 tgl 10 0 \$2-flng.ph.x \$2-flng.ph.rr - 3 5 0 7 -250685
-1 -1 0 1;
#X restore 13 7 pd \$3-rflange;
#N canvas 520 419 329 170 NETPD 0;
#X msg 8 -23 version 0 2 0;
#X restore 209 407 pd NETPD 2 0;
#X obj 29 344 inlet~;
#X obj 71 344 inlet~;
#X obj 16 428 outlet~;
#X obj 64 428 outlet~;
#X obj 12 32 netpd_f \$1 \$2/freq 0.1;
#X obj 12 52 netpd_f \$1 \$2/width 0.3;
#X obj 12 71 netpd_f \$1 \$2/fb 0.2;
#X obj 12 90 netpd_f \$1 \$2/ph 1;
#X obj 205 65 print;
#X obj 14 161 netpd_r \$1 \$2/freq;
#X obj 183 123 netpd_r \$1 \$2/width;
#X obj 253 163 netpd_r \$1 \$2/fb;
#X obj 264 184 netpd_r \$1 \$2/ph;
#X connect 0 0 15 0;
#X connect 1 0 16 0;
#X connect 2 0 1 1;
#X connect 2 0 0 1;
#X connect 3 0 13 4;
#X connect 4 0 3 0;
#X connect 4 1 3 1;
#X connect 6 0 7 0;
#X connect 6 1 4 0;
#X connect 7 0 4 0;
#X connect 8 0 9 0;
#X connect 8 0 14 0;
#X connect 9 0 11 0;
#X connect 10 0 12 0;
#X connect 11 0 0 0;
#X connect 12 0 1 0;
#X connect 13 0 21 0;
#X connect 13 1 22 0;
#X connect 14 0 10 0;
#X connect 15 0 13 0;
#X connect 16 0 13 2;
#X connect 19 0 13 1;
#X connect 20 0 13 3;
#X connect 28 0 8 0;
#X connect 29 0 2 0;
#X connect 30 0 3 0;
#X connect 31 0 6 0;
