#N canvas 536 43 338 277 10;
#X text 7 7 rh_atan2~ - calculate the atan2 for signal inputs;
#N canvas 902 262 336 56 NETPD 0;
#X msg 17 10 version 0 0 1;
#X restore 245 250 pd NETPD 2 0;
#X floatatom 46 91 5 0 0 0 - - -, f 5;
#X obj 46 108 sig~;
#X floatatom 96 91 5 0 0 0 - - -, f 5;
#X obj 96 108 sig~;
#X obj 46 148 rh_atan2~;
#X obj 47 207 snapshot~;
#X floatatom 47 227 5 0 0 0 - - -, f 5;
#X obj 109 164 loadbang;
#X obj 109 184 metro 50;
#X connect 2 0 3 0;
#X connect 3 0 6 0;
#X connect 4 0 5 0;
#X connect 5 0 6 1;
#X connect 6 0 7 0;
#X connect 7 0 8 0;
#X connect 9 0 10 0;
#X connect 10 0 7 0;
