#N canvas 432 282 336 210 10;
#X obj 191 115 table \$0.ref 2;
#X obj 190 84 s \$0.ref;
#X msg 190 53 0 -1 1;
#X obj 55 76 +~ 1;
#X obj 55 101 tabread~ \$0.ref;
#X obj 190 26 loadbang;
#X obj 40 23 inlet~;
#X obj 41 124 *~;
#X obj 41 146 outlet~;
#N canvas 696 356 161 103 NETPD 0;
#X msg 7 12 version 0 0 1;
#X restore 191 149 pd NETPD;
#X connect 2 0 1 0;
#X connect 3 0 4 0;
#X connect 4 0 7 1;
#X connect 5 0 2 0;
#X connect 6 0 3 0;
#X connect 6 0 7 0;
#X connect 7 0 8 0;
