#N canvas 885 97 689 443 10;
#X obj 112 377 slop~ 0 0 1 0 1, f 45;
#X obj 112 346 vline~;
#X obj 379 294 /;
#X msg 16 225 0 0;
#X msg 273 326 \$1 0 0;
#X obj 273 349 vline~;
#X obj 273 299 /;
#X obj 110 13 inlet attack;
#X obj 218 13 inlet decay;
#X obj 318 13 inlet sustain;
#X obj 413 13 inlet release;
#X obj 16 14 inlet trigger;
#X obj 16 108 sel 0, f 16;
#X msg 112 253 0 0 \, \$1 0 0 \, \$3 0 \$2;
#X msg 379 271 800 \$2;
#X msg 273 276 800 \$1;
#X obj 112 400 outlet~;
#X obj 112 142 pack f \$1 \$3;
#X obj 286 252 f \$2;
#X obj 254 252 f \$4;
#X obj 470 398 outlet;
#X obj 334 128 t a a;
#X obj 16 201 t b b;
#X obj 485 223 * 2;
#X obj 470 271 del;
#X obj 334 104 f \$4;
#X obj 321 60 loadbang;
#X msg 470 294 0;
#X obj 112 185 t a b a b, f 67;
#X obj 511 225 t b b;
#X msg 511 247 stop;
#X obj 470 335 change -1;
#X msg 538 294 1;
#N canvas 902 328 336 56 NETPD 0;
#X msg 17 10 version 0 1 0;
#X restore 593 13 pd NETPD 2 0;
#X connect 0 0 16 0;
#X connect 1 0 0 0;
#X connect 2 0 0 5;
#X connect 3 0 1 0;
#X connect 4 0 5 0;
#X connect 5 0 0 3;
#X connect 6 0 4 0;
#X connect 7 0 17 1;
#X connect 8 0 18 1;
#X connect 9 0 17 2;
#X connect 10 0 25 0;
#X connect 11 0 12 0;
#X connect 12 0 22 0;
#X connect 12 1 17 0;
#X connect 13 0 1 0;
#X connect 14 0 2 0;
#X connect 15 0 6 0;
#X connect 17 0 28 0;
#X connect 18 0 15 0;
#X connect 19 0 15 0;
#X connect 21 0 19 1;
#X connect 21 1 23 0;
#X connect 22 0 3 0;
#X connect 22 1 19 0;
#X connect 22 1 24 0;
#X connect 23 0 24 1;
#X connect 24 0 27 0;
#X connect 25 0 21 0;
#X connect 26 0 25 0;
#X connect 27 0 31 0;
#X connect 28 0 13 0;
#X connect 28 1 18 0;
#X connect 28 2 14 0;
#X connect 28 3 29 0;
#X connect 29 0 30 0;
#X connect 29 1 32 0;
#X connect 30 0 24 0;
#X connect 31 0 20 0;
#X connect 32 0 31 0;
