#N canvas 359 209 624 333 12;
#X obj 43 229 vline~;
#X obj 44 264 dbtorms~;
#X obj 45 301 outlet~;
#X obj 113 14 inlet attack;
#X obj 205 14 inlet decay;
#X obj 290 14 inlet sustain;
#X obj 390 14 inlet release;
#X obj 11 14 inlet trigger;
#X obj 43 160 pack f f f f;
#X obj 113 61 f \$1;
#X obj 205 61 f \$2;
#X obj 290 61 f \$3;
#X obj 390 61 f \$4;
#X obj 11 56 sel 0;
#X obj 367 141 f;
#X msg 367 173 0 \$1;
#X obj 508 15 loadbang;
#X obj 43 122 rmstodb;
#X msg 43 187 \$1 \$2 \, \$4 \$3 \$2;
#X obj 43 82 t a a;
#X obj 124 108 *;
#X obj 124 132 rmstodb;
#N canvas 902 328 336 93 NETPD 0;
#X msg 17 10 version 0 0 1;
#N canvas 751 373 387 52 abslist 0;
#X msg 6 9 rh_adsr~-help;
#X restore 15 44 pd abslist;
#X restore 499 289 pd NETPD 2 0;
#X connect 0 0 1 0;
#X connect 1 0 2 0;
#X connect 3 0 9 0;
#X connect 4 0 10 0;
#X connect 5 0 11 0;
#X connect 6 0 12 0;
#X connect 7 0 13 0;
#X connect 8 0 18 0;
#X connect 9 0 8 1;
#X connect 10 0 8 2;
#X connect 11 0 20 1;
#X connect 12 0 14 1;
#X connect 13 0 14 0;
#X connect 13 1 19 0;
#X connect 14 0 15 0;
#X connect 15 0 0 0;
#X connect 16 0 12 0;
#X connect 16 0 11 0;
#X connect 16 0 10 0;
#X connect 16 0 9 0;
#X connect 17 0 8 0;
#X connect 18 0 0 0;
#X connect 19 0 17 0;
#X connect 19 1 20 0;
#X connect 20 0 21 0;
#X connect 21 0 8 3;
