#N canvas 560 194 332 185 10;
#X obj 27 57 atan;
#X msg 27 36 1;
#X obj 27 77 * 4;
#X obj 65 11 loadbang;
#X obj 27 97 \$1 \$2;
#X obj 27 157 outlet;
#X obj 27 11 inlet;
#N canvas 876 348 327 102 NETPD 0;
#N canvas 865 469 354 61 abslist 0;
#X msg 13 12 rh_const_pi-help;
#X restore 16 34 pd abslist;
#X msg 15 10 version 0 0 2;
#X restore 235 15 pd NETPD 2 0;
#X msg 27 122 \$1;
#X connect 0 0 2 0;
#X connect 1 0 0 0;
#X connect 2 0 4 0;
#X connect 3 0 1 0;
#X connect 4 0 8 0;
#X connect 6 0 1 0;
#X connect 8 0 5 0;
