#N canvas 215 356 430 273 10;
#X obj 19 21 inlet~;
#X obj 71 23 inlet~;
#X obj 291 20 inlet~;
#X obj 343 22 inlet~;
#X obj 20 79 *~;
#X obj 71 83 *~;
#X obj 20 132 -~;
#X obj 128 110 *~;
#X obj 171 108 *~;
#X obj 128 141 +~;
#X obj 19 212 outlet~;
#X obj 127 216 outlet~;
#N canvas 514 219 322 63 NETPD 0;
#N canvas 595 229 363 58 abslist 0;
#X msg 14 12 rh_cmult~-help;
#X restore 15 38 pd abslist;
#X msg 15 15 version 0 0 2;
#X restore 343 244 pd NETPD 2 0;
#X text 16 247 https://www2.clarku.edu/~djoyce/complex/mult.html;
#X connect 0 0 4 0;
#X connect 0 0 8 0;
#X connect 1 0 5 0;
#X connect 1 0 7 0;
#X connect 2 0 4 1;
#X connect 2 0 7 1;
#X connect 3 0 5 1;
#X connect 3 0 8 1;
#X connect 4 0 6 0;
#X connect 5 0 6 1;
#X connect 6 0 10 0;
#X connect 7 0 9 0;
#X connect 8 0 9 1;
#X connect 9 0 11 0;
