#N canvas 456 221 356 280 10;
#X obj 34 18 inlet~;
#X obj 149 15 inlet~;
#X obj 34 59 *~;
#X obj 150 48 *~;
#X obj 34 130 sqrt~;
#X obj 34 100 +~;
#X obj 35 211 outlet~;
#X obj 180 209 outlet~;
#X text 90 211 magnitude;
#X obj 180 127 /~;
#X obj 180 154 expr~ atan($v1);
#N canvas 517 230 322 82 NETPD 0;
#X msg 15 15 version 0 0 1;
#N canvas 627 192 323 75 abslist 0;
#X msg 23 15 rh_cart2pol~-help;
#X restore 13 42 pd abslist;
#X restore 247 243 pd NETPD 2 0;
#X text 77 17 x;
#X text 189 16 y;
#X text 232 209 rho;
#X connect 0 0 2 0;
#X connect 0 0 2 1;
#X connect 0 0 9 1;
#X connect 1 0 3 0;
#X connect 1 0 3 1;
#X connect 1 0 9 0;
#X connect 2 0 5 0;
#X connect 3 0 5 1;
#X connect 4 0 6 0;
#X connect 5 0 4 0;
#X connect 9 0 10 0;
#X connect 10 0 7 0;
