#N canvas 521 425 457 322 10;
#X obj 15 16 inlet~;
#X obj 14 204 outlet~;
#X obj 15 154 *~;
#N canvas 151 330 450 300 \$0-container 0;
#X obj 161 51 inlet~;
#X obj 161 166 outlet~;
#N canvas 573 99 450 300 \$0-clone 0;
#X obj 300 50 inlet~;
#X obj 100 100 clone rh_convolve-part~ 2 3830 1024 0;
#X obj 100 200 outlet~;
#X connect 0 0 1 1;
#X connect 1 0 2 0;
#X restore 161 108 pd \$0-clone;
#X connect 0 0 2 0;
#X connect 2 0 1 0;
#X restore 14 82 pd \$0-container;
#X obj 46 154 /;
#X msg 46 133 1 \$1;
#X obj 46 111 r \$0-nparts;
#X obj 139 115 s \$0-ir-length;
#X obj 294 186 s \$0-window-size;
#N canvas 3 99 617 375 blocksize 0;
#X obj 214 145 i;
#X obj 214 120 t f f;
#X obj 214 166 /;
#X obj 214 99 expr ln($f1)/ln(2);
#X obj 214 186 == 1;
#X obj 184 76 t f f;
#X obj 184 212 spigot;
#X text 249 141 prevent setting blocksizes that are not a power of
2;
#X msg 244 244 blocksize is not a power of 2;
#X obj 184 294 outlet;
#X obj 244 222 sel 0;
#X obj 184 54 inlet;
#X obj 244 265 print rh_convolve~;
#X connect 0 0 2 0;
#X connect 1 0 0 0;
#X connect 1 1 2 1;
#X connect 2 0 4 0;
#X connect 3 0 1 0;
#X connect 4 0 6 1;
#X connect 4 0 10 0;
#X connect 5 0 6 0;
#X connect 5 1 3 0;
#X connect 6 0 9 0;
#X connect 8 0 12 0;
#X connect 10 0 8 0;
#X connect 11 0 5 0;
#X restore 294 126 pd blocksize;
#X obj 267 79 sel 0;
#X msg 267 152 1024;
#X obj 267 33 loadbang;
#X obj 267 58 f \$2;
#N canvas 117 163 692 496 create 0;
#N canvas 135 212 481 458 max-parts 0;
#N canvas 324 52 661 713 samples-onset 0;
#X obj 343 555 * 128;
#X obj 342 289 / 2;
#X obj 342 271 + 0.5;
#X obj 100 573 +;
#X obj 181 362 mod 2;
#X obj 129 546 * 0.5;
#X obj 100 497 list prepend 0;
#X obj 100 518 route 0 1;
#X obj 100 546 * 0;
#X obj 100 350 t f f;
#X obj 224 589 +;
#X obj 342 310 i;
#X obj 359 364 until;
#X obj 359 402 f 1;
#X obj 390 402 + 1;
#X msg 401 368 1;
#X obj 359 423 expr pow(2 \, $f1);
#X obj 359 444 t b f;
#X obj 359 489 f;
#X msg 490 414 0;
#X obj 415 498 +;
#X obj 343 536 f;
#X obj 342 330 t b f b b;
#X obj 472 521 / 2;
#X obj 342 246 f 12;
#X obj 101 167 / 2;
#X obj 101 188 i;
#X obj 101 149 + 0.5;
#X obj 101 220 + 8;
#X obj 101 241 min 20;
#X obj 101 260 expr pow(2 \, $f1);
#X obj 251 87 t float bang float bang;
#X obj 224 610 outlet;
#X obj 233 55 inlet;
#X obj 505 72 inlet;
#X obj 146 192 expr ln($f2)/ln(2);
#X obj 472 500 f 1024;
#X connect 0 0 3 1;
#X connect 1 0 11 0;
#X connect 2 0 1 0;
#X connect 3 0 10 0;
#X connect 4 0 6 1;
#X connect 5 0 3 0;
#X connect 6 0 7 0;
#X connect 7 0 8 0;
#X connect 7 1 5 0;
#X connect 8 0 3 0;
#X connect 9 0 6 0;
#X connect 9 1 10 1;
#X connect 10 0 32 0;
#X connect 11 0 22 0;
#X connect 12 0 13 0;
#X connect 13 0 14 0;
#X connect 13 0 16 0;
#X connect 14 0 13 1;
#X connect 15 0 13 1;
#X connect 16 0 17 0;
#X connect 17 0 18 0;
#X connect 17 1 20 1;
#X connect 18 0 20 0;
#X connect 19 0 18 1;
#X connect 19 0 21 0;
#X connect 20 0 18 1;
#X connect 20 0 21 1;
#X connect 21 0 0 0;
#X connect 22 0 21 0;
#X connect 22 1 12 0;
#X connect 22 2 15 0;
#X connect 22 3 19 0;
#X connect 23 0 0 1;
#X connect 24 0 2 0;
#X connect 24 0 4 0;
#X connect 25 0 26 0;
#X connect 26 0 28 0;
#X connect 27 0 25 0;
#X connect 28 0 29 0;
#X connect 29 0 30 0;
#X connect 30 0 9 0;
#X connect 31 0 27 0;
#X connect 31 1 35 0;
#X connect 31 2 24 0;
#X connect 31 3 36 0;
#X connect 33 0 31 0;
#X connect 34 0 35 1;
#X connect 34 0 36 1;
#X connect 35 0 28 1;
#X connect 36 0 23 0;
#X restore 275 205 pd samples-onset;
#X obj 275 237 <;
#X obj 165 143 f;
#X obj 197 144 + 1;
#X msg 204 118 0;
#X obj 164 81 t b b f;
#X obj 187 292 f;
#X obj 275 258 sel 0 1;
#X obj 175 174 t f f;
#X obj 164 120 until;
#X obj 187 313 outlet;
#X obj 369 71 inlet;
#X obj 164 36 inlet;
#X connect 0 0 1 0;
#X connect 1 0 7 0;
#X connect 2 0 3 0;
#X connect 2 0 8 0;
#X connect 3 0 2 1;
#X connect 4 0 2 1;
#X connect 5 0 9 0;
#X connect 5 1 4 0;
#X connect 5 2 1 1;
#X connect 6 0 10 0;
#X connect 7 0 9 1;
#X connect 7 0 6 0;
#X connect 8 0 0 0;
#X connect 8 1 6 1;
#X connect 9 0 2 0;
#X connect 11 0 0 1;
#X connect 12 0 5 0;
#X restore 68 245 pd max-parts;
#X obj 209 384 s pd-\$0-clone;
#X msg 189 411 connect 0 0 2 0 \, connect 2 0 1 0;
#X obj 189 434 s pd-\$0-container;
#X obj 170 313 t b b a;
#X obj 100 408 s \$0-loadbang;
#X obj 34 89 r \$0-ir-length;
#X obj 68 171 f;
#X obj 161 50 r \$0-window-size;
#X obj 161 71 t b f f;
#X obj 68 223 min 44100;
#X obj 68 266 + 2;
#X obj 68 306 s \$0-nparts;
#X msg 209 336 clear \, obj 300 50 inlet~ \, obj 100 100 clone rh_convolve-part~
\$1 \$2 \$3 \$4 \, obj 100 200 outlet~ \, connect 0 0 1 1 \, connect
1 0 2 0;
#X obj 170 258 pack 0 \$0 0;
#X obj 170 281 list append \$1;
#X connect 0 0 11 0;
#X connect 2 0 3 0;
#X connect 4 0 5 0;
#X connect 4 1 2 0;
#X connect 4 2 13 0;
#X connect 6 0 7 0;
#X connect 7 0 10 0;
#X connect 8 0 9 0;
#X connect 9 0 7 0;
#X connect 9 1 0 1;
#X connect 9 2 14 2;
#X connect 10 0 0 0;
#X connect 11 0 12 0;
#X connect 11 0 14 0;
#X connect 13 0 1 0;
#X connect 14 0 15 0;
#X connect 15 0 4 0;
#X restore 137 175 pd create;
#X obj 139 23 inlet;
#X obj 139 46 route analyze;
#X obj 139 69 b;
#X obj 139 92 array size \$1;
#N canvas 516 455 239 79 NETPD 0;
#N canvas 927 585 203 112 abslist 0;
#X msg 13 9 rh_convolve-part~;
#X msg 13 34 rh_convolve~-help;
#X restore 7 43 pd abslist;
#X msg 7 15 version 0 1 1;
#X restore 21 267 pd NETPD 2 0;
#X connect 0 0 3 0;
#X connect 2 0 1 0;
#X connect 3 0 2 0;
#X connect 4 0 2 1;
#X connect 5 0 4 0;
#X connect 6 0 5 0;
#X connect 9 0 8 0;
#X connect 10 0 11 0;
#X connect 10 1 9 0;
#X connect 11 0 8 0;
#X connect 12 0 13 0;
#X connect 13 0 10 0;
#X connect 15 0 16 0;
#X connect 16 0 17 0;
#X connect 17 0 18 0;
#X connect 18 0 7 0;
