#N canvas 354 44 399 288 10;
#N canvas 659 72 327 81 NETPD 0;
#X msg 15 16 version 0 1 0;
#X restore 304 186 pd NETPD 2 0;
#X text 21 13 [rh_isint] - check if a number is an integer;
#X text 255 255 2016 \, Roman Haefeli;
#X text 205 74 inlet0: number to check;
#X text 198 92 outlet0: 0|1;
#X obj 26 158 rh_isint;
#X obj 26 246 tgl 30 0 empty empty empty 17 7 0 10 -262144 -1 -1 0
1;
#X msg 26 73 2;
#X msg 47 100 0;
#X msg 81 93 2.12;
#X msg 89 129 3.14159;
#X connect 5 0 6 0;
#X connect 7 0 5 0;
#X connect 8 0 5 0;
#X connect 9 0 5 0;
#X connect 10 0 5 0;
