#N canvas 679 86 443 369 10;
#X obj 150 84 samplerate~;
#X obj 150 128 /;
#X obj 94 145 f;
#X msg 94 169 1 \, 0 0 \$1, f 13;
#X obj 94 190 vline~;
#X obj 150 60 loadbang;
#X msg 150 105 1000 \$1;
#X obj 94 92 inlet;
#X obj 94 221 outlet~;
#N canvas 659 72 327 81 NETPD 0;
#X msg 15 16 version 0 1 0;
#N canvas 638 117 321 72 abslist 0;
#X msg 21 34 rh_impulse~-help;
#X restore 15 40 pd abslist;
#X restore 295 259 pd NETPD 2 0;
#X connect 0 0 6 0;
#X connect 1 0 2 1;
#X connect 2 0 3 0;
#X connect 3 0 4 0;
#X connect 4 0 8 0;
#X connect 5 0 0 0;
#X connect 6 0 1 0;
#X connect 7 0 2 0;
