#N canvas 542 51 523 530 10;
#X obj 15 10 inlet;
#X obj 318 16 table \$0.cache 10;
#X obj 268 46 loadbang;
#X obj 268 69 f \$1;
#X obj 268 92 sel 0;
#X msg 268 115 2;
#X obj 268 143 t a;
#X obj 34 460 outlet;
#X obj 242 15 inlet;
#N canvas 659 72 327 81 NETPD 0;
#X msg 15 16 version 0 1 0;
#N canvas 0 0 394 133 abslist 0;
#X msg 27 28 rh_list_zip-help;
#X restore 42 43 pd abslist;
#X restore 377 480 pd NETPD 2 0;
#X obj 15 33 route bang;
#X obj 34 434 array get \$0.cache;
#X obj 183 81 list length;
#X obj 183 133 *;
#X obj 183 157 max;
#X obj 183 181 t a a;
#X msg 183 204 resize \$1;
#X obj 183 227 s \$0.cache;
#X msg 54 81 0;
#X obj 72 57 t a a a, f 19;
#X msg 127 94 \$1;
#X obj 183 107 - 1;
#X obj 72 164 list split 1;
#X obj 75 240 until;
#X obj 75 344 list store;
#X obj 75 265 f;
#X obj 113 266 + 1;
#X msg 132 240 0, f 2;
#X msg 75 314 get \$1 1;
#X obj 75 213 t b b a;
#X obj 75 288 t a a;
#X obj 154 318 *;
#X obj 154 341 +;
#X obj 75 370 list prepend;
#X obj 75 396 s \$0.cache;
#X msg 15 115 const 0;
#X obj 15 138 s \$0.cache;
#X obj 15 56 t b b b;
#X connect 0 0 10 0;
#X connect 2 0 3 0;
#X connect 3 0 4 0;
#X connect 4 0 5 0;
#X connect 4 1 6 0;
#X connect 5 0 6 0;
#X connect 6 0 13 1;
#X connect 6 0 31 1;
#X connect 8 0 4 0;
#X connect 10 0 37 0;
#X connect 10 1 19 0;
#X connect 11 0 7 0;
#X connect 12 0 21 0;
#X connect 13 0 14 0;
#X connect 14 0 15 0;
#X connect 15 0 16 0;
#X connect 15 1 14 1;
#X connect 16 0 17 0;
#X connect 18 0 14 1;
#X connect 19 0 22 0;
#X connect 19 1 20 0;
#X connect 19 2 12 0;
#X connect 20 0 32 1;
#X connect 21 0 13 0;
#X connect 22 1 29 0;
#X connect 23 0 25 0;
#X connect 24 0 33 0;
#X connect 24 1 23 1;
#X connect 25 0 26 0;
#X connect 25 0 30 0;
#X connect 26 0 25 1;
#X connect 27 0 25 1;
#X connect 28 0 24 0;
#X connect 29 0 23 0;
#X connect 29 1 27 0;
#X connect 29 2 24 1;
#X connect 30 0 28 0;
#X connect 30 1 31 0;
#X connect 31 0 32 0;
#X connect 32 0 33 1;
#X connect 33 0 34 0;
#X connect 35 0 36 0;
#X connect 37 0 35 0;
#X connect 37 1 11 0;
#X connect 37 2 18 0;
