#N canvas 461 67 419 315 10;
#N canvas 659 72 327 81 NETPD 0;
#X msg 15 16 version 0 1 0;
#X restore 311 224 pd NETPD 2 0;
#X msg 26 92 2 1 4 6 5 3 8 7;
#X text 21 13 [rh_list_serialize] - serialize a list;
#X text 205 74 inlet0: list;
#X text 198 92 outlet0: sequence of atoms;
#X obj 26 158 rh_list_serialize;
#X obj 26 181 print;
#X msg 111 125 2;
#X text 216 112 arg1: tuple size (default: 1);
#X connect 1 0 5 0;
#X connect 5 0 6 0;
#X connect 7 0 5 1;
