#N canvas 627 44 450 351 10;
#X obj 39 126 until, f 17;
#X obj 39 273 list store, f 17;
#X obj 39 174 f;
#X obj 77 175 + 1;
#X msg 67 149 0, f 5;
#X obj 239 36 inlet;
#X obj 289 38 loadbang;
#X obj 289 61 f \$1;
#X obj 239 84 sel 0;
#X msg 239 107 1;
#X obj 239 130 t a;
#X obj 39 219 pack f f, f 24;
#X msg 39 245 get \$1 \$2;
#X obj 39 90 t b b a, f 10;
#X obj 39 33 inlet;
#X obj 39 296 outlet;
#N canvas 177 26 310 105 NETPD 0;
#N canvas 308 44 336 102 abslist 0;
#X msg 16 17 rh_list_serialize-help;
#X restore 23 47 pd abslist;
#X msg 15 16 version 0 1 1;
#X restore 284 261 pd NETPD 2 0;
#X obj 39 197 t a a, f 36;
#X obj 252 294 outlet;
#X connect 0 0 2 0;
#X connect 1 0 15 0;
#X connect 1 1 0 1;
#X connect 2 0 3 0;
#X connect 2 0 17 0;
#X connect 3 0 2 1;
#X connect 4 0 2 1;
#X connect 5 0 8 0;
#X connect 6 0 7 0;
#X connect 7 0 8 0;
#X connect 8 0 9 0;
#X connect 8 1 10 0;
#X connect 9 0 10 0;
#X connect 10 0 3 1;
#X connect 10 0 11 1;
#X connect 11 0 12 0;
#X connect 12 0 1 0;
#X connect 13 0 0 0;
#X connect 13 1 4 0;
#X connect 13 2 1 1;
#X connect 14 0 13 0;
#X connect 17 0 11 0;
#X connect 17 1 18 0;
