#N canvas 694 73 252 490 10;
#X obj 26 14 inlet;
#X obj 53 441 outlet;
#X obj 102 125 rh_list_sort;
#X obj 102 152 rh_list_serialize 1;
#X obj 26 37 t b a a, f 26;
#X obj 102 201 list append, f 14;
#X obj 102 175 t b a, f 6;
#X obj 102 247 t a a, f 11;
#X obj 102 323 sel, f 6;
#X obj 102 345 list append;
#X msg 102 368 append \$1 \$2;
#X obj 53 413 list store;
#X obj 26 375 t b b;
#X obj 102 79 rh_list_unzip \$1;
#X obj 102 102 route \$2;
#X msg 102 300 \$1;
#X obj 102 271 list split \$2;
#X obj 102 224 rh_list_serialize \$1;
#X connect 0 0 4 0;
#X connect 2 0 3 0;
#X connect 3 0 6 0;
#X connect 4 0 12 0;
#X connect 4 1 13 0;
#X connect 4 2 5 1;
#X connect 5 0 17 0;
#X connect 6 0 5 0;
#X connect 6 1 8 1;
#X connect 7 0 16 0;
#X connect 7 1 9 1;
#X connect 8 0 9 0;
#X connect 9 0 10 0;
#X connect 10 0 11 0;
#X connect 11 0 1 0;
#X connect 12 0 11 1;
#X connect 12 1 11 0;
#X connect 13 0 14 0;
#X connect 14 0 2 0;
#X connect 15 0 8 0;
#X connect 16 1 15 0;
#X connect 17 0 7 0;
