#N canvas 694 73 572 589 10;
#X obj 26 14 inlet;
#X obj 176 543 outlet;
#X obj 226 215 rh_list_serialize 1;
#X obj 176 515 list store;
#X obj 149 467 t b b;
#X obj 226 111 rh_list_unzip \$1;
#X obj 226 134 route \$2;
#X obj 405 90 text define \$0.cache;
#X obj 149 69 t b a a b, f 39;
#X msg 405 66 clear;
#X msg 387 201 \$1 1;
#X obj 387 228 text set \$0.cache;
#X msg 420 202 1e+07;
#X obj 226 157 t a a, f 11;
#X obj 387 154 rh_list_serialize 1;
#X obj 387 177 t a b;
#X msg 226 241 \$1 1;
#X obj 226 265 text search \$0.cache 0 1;
#X msg 254 313 0 0;
#X obj 254 338 text set \$0.cache;
#X obj 226 288 t a b a, f 10;
#X obj 226 367 * \$1;
#X obj 226 437 list store;
#X obj 226 391 list append \$1;
#X msg 226 414 get \$1 \$2;
#X obj 226 460 list prepend append;
#X obj 226 483 list trim;
#X obj 226 190 rh_list_sort \$3;
#X obj 26 37 route set, f 21;
#X obj 26 170 unpack f f;
#X obj 60 104 s \$0.dir;
#X obj 26 80 list split 2;
#X obj 328 190 r \$0.dir;
#X obj 83 198 s \$0.pos;
#X obj 26 198 s \$0.len;
#X obj 335 110 r \$0.len;
#X obj 295 368 r \$0.len;
#X obj 282 134 r \$0.pos;
#N canvas 1215 248 342 96 NETPD 0;
#X msg 16 14 version 0 1 0;
#N canvas 1198 442 391 66 abslist 0;
#X msg 16 7 rh_list_tuple_sort-help;
#X restore 17 44 pd abslist;
#X restore 440 532 pd NETPD 2 0;
#X connect 0 0 28 0;
#X connect 2 0 16 0;
#X connect 3 0 1 0;
#X connect 4 0 3 1;
#X connect 4 1 3 0;
#X connect 5 0 6 0;
#X connect 6 0 13 0;
#X connect 8 0 4 0;
#X connect 8 1 5 0;
#X connect 8 2 22 1;
#X connect 8 3 9 0;
#X connect 9 0 7 0;
#X connect 10 0 11 0;
#X connect 12 0 11 1;
#X connect 13 0 27 0;
#X connect 13 1 14 0;
#X connect 14 0 15 0;
#X connect 15 0 10 0;
#X connect 15 1 12 0;
#X connect 16 0 17 0;
#X connect 17 0 20 0;
#X connect 18 0 19 0;
#X connect 20 0 21 0;
#X connect 20 1 18 0;
#X connect 20 2 19 1;
#X connect 21 0 23 0;
#X connect 22 0 25 0;
#X connect 23 0 24 0;
#X connect 24 0 22 0;
#X connect 25 0 26 0;
#X connect 26 0 3 0;
#X connect 27 0 2 0;
#X connect 28 0 31 0;
#X connect 28 1 8 0;
#X connect 29 0 34 0;
#X connect 29 1 33 0;
#X connect 31 0 29 0;
#X connect 31 1 30 0;
#X connect 32 0 27 1;
#X connect 35 0 5 1;
#X connect 36 0 21 1;
#X connect 36 0 23 1;
#X connect 37 0 6 1;
