#N canvas 598 106 380 509 10;
#X obj 47 420 del 1000;
#X obj 20 272 t b b;
#X obj 47 447 s \$0.loop;
#X obj 73 299 timer;
#X obj 20 246 r \$0.loop;
#X obj 100 276 t b a;
#X obj 73 324 pack f f f;
#N canvas 1186 578 151 240 calculate_latency 0;
#X obj 16 15 inlet;
#X obj 58 182 outlet;
#X obj 16 37 t a a;
#X obj 73 65 unpack f f f;
#X obj 73 93 /;
#X msg 73 115 1 \$1;
#X obj 73 137 -;
#X obj 58 159 *;
#X msg 16 65 \$2;
#X obj 16 125 t a a;
#X obj 16 183 outlet;
#X connect 0 0 2 0;
#X connect 2 0 8 0;
#X connect 2 1 3 0;
#X connect 3 0 4 0;
#X connect 3 2 4 1;
#X connect 4 0 5 0;
#X connect 5 0 6 0;
#X connect 6 0 7 1;
#X connect 7 0 1 0;
#X connect 8 0 9 0;
#X connect 9 0 10 0;
#X connect 9 1 7 0;
#X restore 73 346 pd calculate_latency;
#X msg 73 392 stop;
#X obj 73 369 t b a a;
#X obj 190 447 delay;
#X obj 190 473 s \$0.loop;
#X obj 20 474 outlet;
#X obj 20 109 inlet;
#X obj 223 126 loadbang;
#X obj 223 148 \$1;
#X obj 250 148 inlet;
#X obj 190 404 list prepend;
#X obj 190 426 route 1;
#X obj 20 131 route bang stop;
#X obj 121 131 route 1 0;
#X msg 20 175 1;
#X msg 50 175 0;
#X obj 20 197 change -1;
#X obj 20 219 s \$0.startstop;
#X obj 145 369 r \$0.startstop;
#X obj 126 417 sel 0 1;
#X text 15 4 similar to [metro] \, but schedules the new interval during
(not after) the current interval (unlike the original [metro]).;
#X text 15 56 arguments and inlets work exactly the same as in [metro].
;
#N canvas 710 478 139 196 NETPD 0;
#X msg 12 14 version 0 1 0;
#X restore 263 247 pd NETPD;
#X obj 223 184 max 0.5;
#X connect 0 0 2 0;
#X connect 1 0 12 0;
#X connect 1 1 0 0;
#X connect 1 1 3 0;
#X connect 3 0 6 0;
#X connect 4 0 1 0;
#X connect 5 0 3 1;
#X connect 5 1 6 1;
#X connect 6 0 7 0;
#X connect 7 0 9 0;
#X connect 7 1 17 0;
#X connect 8 0 0 0;
#X connect 9 0 8 0;
#X connect 9 1 0 1;
#X connect 9 2 6 2;
#X connect 10 0 11 0;
#X connect 13 0 19 0;
#X connect 14 0 15 0;
#X connect 15 0 30 0;
#X connect 16 0 30 0;
#X connect 17 0 18 0;
#X connect 18 0 10 0;
#X connect 19 0 21 0;
#X connect 19 1 22 0;
#X connect 19 2 20 0;
#X connect 20 0 21 0;
#X connect 20 1 22 0;
#X connect 21 0 23 0;
#X connect 22 0 23 0;
#X connect 23 0 24 0;
#X connect 25 0 26 0;
#X connect 25 0 17 1;
#X connect 26 0 8 0;
#X connect 26 1 11 0;
#X connect 30 0 5 0;
