#N canvas 547 265 434 498 10;
#X obj 34 81 sel 0 1 2 3 4 5 6 7 8 9 10 11;
#X msg 34 356 symbol C;
#X msg 48 335 symbol C♯;
#X msg 76 289 symbol D♯;
#X msg 119 215 symbol F♯;
#X msg 148 169 symbol G♯;
#X msg 176 125 symbol A♯;
#X msg 62 312 symbol D;
#X msg 91 266 symbol E;
#X msg 105 241 symbol F;
#X msg 133 191 symbol G;
#X msg 162 146 symbol A;
#X msg 190 105 symbol B;
#X obj 181 396 t a;
#X obj 34 11 inlet;
#X obj 34 34 t a a, f 49;
#X obj 34 57 mod 12;
#X obj 325 231 div 12;
#X obj 325 254 - 1;
#X msg 181 444 symbol \$1\$2;
#X obj 181 467 outlet;
#X obj 181 421 pack s f;
#N canvas 0 106 382 65 NETPD 0;
#X msg 6 16 version 0 1 0;
#N canvas 2 228 386 64 abslist 0;
#X msg 10 22 rh_midi2notename-help;
#X restore 109 16 pd abslist;
#X restore 300 431 pd NETPD 2 0;
#X connect 0 0 1 0;
#X connect 0 1 2 0;
#X connect 0 2 7 0;
#X connect 0 3 3 0;
#X connect 0 4 8 0;
#X connect 0 5 9 0;
#X connect 0 6 4 0;
#X connect 0 7 10 0;
#X connect 0 8 5 0;
#X connect 0 9 11 0;
#X connect 0 10 6 0;
#X connect 0 11 12 0;
#X connect 1 0 13 0;
#X connect 2 0 13 0;
#X connect 3 0 13 0;
#X connect 4 0 13 0;
#X connect 5 0 13 0;
#X connect 6 0 13 0;
#X connect 7 0 13 0;
#X connect 8 0 13 0;
#X connect 9 0 13 0;
#X connect 10 0 13 0;
#X connect 11 0 13 0;
#X connect 12 0 13 0;
#X connect 13 0 21 0;
#X connect 14 0 15 0;
#X connect 15 0 16 0;
#X connect 15 1 17 0;
#X connect 16 0 0 0;
#X connect 17 0 18 0;
#X connect 18 0 21 1;
#X connect 19 0 20 0;
#X connect 21 0 19 0;
