#N canvas 435 44 503 513 10;
#X obj 20 46 tgl 30 0 empty empty empty 17 7 0 10 -204786 -1 -1 1 1
;
#X floatatom 89 101 5 0 0 0 - - -, f 5;
#X text 228 51 first argument: interval time (ms);
#X text 276 67 inlet0: start/stop;
#X text 276 83 inlet1: interval time (ms);
#X text 271 99 outlet0: bang;
#X text 271 116 outlet1: time until next tick (ms);
#X text 325 131 at interval update;
#X obj 20 169 bng 30 100 50 0 empty empty empty 17 7 0 10 -261234 -1
-1;
#X floatatom 122 193 5 0 0 0 - - -, f 5;
#X obj 20 204 t b b;
#X obj 20 226 timer;
#X floatatom 20 248 8 0 0 0 - - -, f 8;
#X text 352 483 2014 \, Roman Haefeli;
#X obj 20 146 rh_metro 500;
#X text 111 279 [rh_metro]'s inlets are accepting the same input as
[metro]. Unlike [metro] which schedules interval changes for the next
tick \, [rh_metro] applies interval changes immediately.;
#N canvas 614 115 327 82 NETPD 0;
#X msg 15 24 version 0 2 1;
#X restore 385 178 pd NETPD 2 0;
#X obj 64 45 hsl 50 15 0 0.999 0 0 empty empty empty -2 -8 0 10 -262144
-1 -1 3100 1;
#X obj 20 99 pack;
#X floatatom 61 65 5 0 0 0 - - -, f 5;
#X text 99 80 in step fractions 0-1;
#X text 86 11 a [metro] replacement with intra-interval updates;
#X text 11 11 [rh_metro] -;
#X text 99 64 start pos;
#X text 115 332 [rh_metro] takes an optional argument for the '1' message
to set a start pos which is set in step fractions. Non-zero values
cause a start in the middle of an interval.;
#X text 160 194 time to next tick (ms);
#X obj 89 168 unpack;
#X obj 92 222 hsl 50 15 0 0.999 0 0 empty empty empty -2 -8 0 10 -262144
-1 -1 4635 1;
#X floatatom 89 242 5 0 0 0 - - -, f 5;
#X text 155 219 intra-step position (0-1);
#X obj 111 123 bng 15 250 50 0 empty empty empty 17 7 0 10 -262144
-1 -1;
#X text 131 122 update right outlet;
#X text 125 101 interval time (ms);
#X text 113 393 The right inlet also accepts bangs which can be used
to trigger an update on the right outlet giving the current intra-step
position and the time to the next tick in ms.;
#X connect 0 0 18 0;
#X connect 1 0 14 1;
#X connect 8 0 10 0;
#X connect 10 0 11 0;
#X connect 10 1 11 1;
#X connect 11 0 12 0;
#X connect 14 0 8 0;
#X connect 14 1 26 0;
#X connect 17 0 19 0;
#X connect 18 0 14 0;
#X connect 19 0 18 1;
#X connect 26 0 27 0;
#X connect 26 1 9 0;
#X connect 27 0 28 0;
#X connect 30 0 14 1;
