#N canvas 699 94 414 690 10;
#X obj 21 193 f;
#X obj 21 145 t b b;
#X obj 56 210 timer;
#X obj 276 78 s \$0.s2;
#X obj 64 122 r \$0.s2;
#X obj 157 232 r \$0.s1;
#X obj 210 232 r \$0.t1;
#X obj 262 232 r \$0.y1;
#X obj 64 144 t a b a;
#X obj 56 282 pack f f f f f;
#X obj 56 304 t a a a a a a a a a a a a a a a a a;
#X text 152 283 t2 \, s2 \, s1 \, t1 \, y1;
#X obj 185 360 s \$0.s1;
#X obj 237 360 s \$0.t1;
#X obj 147 474 s \$0.y1;
#X msg 224 426 0;
#X obj 224 477 s \$0.t1;
#X obj 236 455 s \$0.y1;
#X obj 56 234 / 1000;
#X obj 124 232 f;
#X msg 81 337 \$1 \$4;
#X obj 81 359 -;
#X obj 81 382 /;
#X msg 120 337 \$3;
#X obj 81 404 +;
#X msg 146 337 \$5;
#X msg 81 459 1 \$1;
#X obj 81 481 -;
#X obj 56 503 *;
#X msg 56 337 \$2;
#X msg 185 332 \$2;
#X msg 237 333 \$1;
#X obj 48 622 s \$0.trigger;
#X obj 224 404 r \$0.trigger;
#X obj 124 210 r \$0.trigger;
#X obj 21 98 r \$0.trigger;
#X obj 21 641 outlet;
#X text 272 647 2014 \, Roman Haefeli;
#X obj 276 -11 inlet;
#X obj 337 -15 loadbang;
#X obj 337 7 \$1;
#X obj 25 -9 inlet;
#X obj 25 35 s \$0.startstop;
#N canvas 20 44 384 328 methods 0;
#X obj 25 38 route bang stop;
#X obj 112 58 route 1 0;
#X msg 25 192 1;
#X obj 25 214 change -1;
#X obj 25 14 inlet;
#X obj 25 236 outlet;
#X text 18 264 trying to support here all methods the original [metro]
supports.;
#X obj 112 80 route bang float;
#X msg 68 192 0;
#X obj 185 174 s \$0.part.step;
#X obj 158 104 t b a;
#X obj 112 102 t b b;
#X msg 139 142 0;
#X obj 25 99 t b b;
#X connect 0 0 13 0;
#X connect 0 1 8 0;
#X connect 0 2 1 0;
#X connect 1 0 7 0;
#X connect 1 1 8 0;
#X connect 2 0 3 0;
#X connect 3 0 5 0;
#X connect 4 0 0 0;
#X connect 7 0 11 0;
#X connect 7 1 10 0;
#X connect 8 0 3 0;
#X connect 10 0 2 0;
#X connect 10 1 9 0;
#X connect 11 0 2 0;
#X connect 11 1 12 0;
#X connect 12 0 9 0;
#X connect 13 0 2 0;
#X connect 13 1 12 0;
#X restore 25 13 pd methods;
#X obj 83 188 spigot 0;
#X obj 128 145 r \$0.startstop;
#X obj 120 504 r \$0.startstop;
#X obj 120 526 sel 0;
#X msg 120 548 stop;
#X obj 133 -9 r \$0.startstop;
#X obj 133 13 sel 1;
#X obj 160 96 s \$0.trigger;
#X obj 56 549 t a a;
#X obj 168 632 outlet;
#X obj 276 37 max 1e-05;
#N canvas 428 239 335 77 NETPD 0;
#N canvas 594 281 330 111 abslist 0;
#X msg 20 17 rh_metro-help;
#X restore 6 40 pd abslist;
#X msg 5 14 version 0 2 3;
#X restore 280 132 pd NETPD 2 0;
#X obj 21 601 t b b;
#X obj 133 75 t b b;
#X obj 133 116 s \$0.outlet;
#X obj 67 642 r \$0.outlet;
#X obj 103 166 / 1000;
#X obj 21 579 delay;
#X obj 56 526 * 1000;
#X obj 121 381 r \$0.part.step;
#X obj 121 403 t b a;
#X obj 56 439 f;
#X obj 159 33 r \$0.part.step;
#X obj 133 33 f;
#X obj 133 54 sel 0;
#N canvas 197 126 477 220 formula 0;
#X text 18 142 dt = s2 * ( 1 - ( ( t2 - t1 ) / s1 + y1 ) );
#X text 26 14 dt: delta t (time to next tick);
#X text 26 44 s2: current interval time;
#X text 26 31 s1: previous interval time;
#X text 26 57 y1: previous step fraction;
#X text 26 71 y2: current step fraction;
#X text 26 85 t1: previous time since last tick;
#X text 25 99 t2: current time since last tick;
#X restore 279 156 pd formula;
#X obj 168 606 list prepend;
#X obj 81 436 t a a a;
#X connect 0 0 61 0;
#X connect 1 0 0 0;
#X connect 1 1 2 0;
#X connect 2 0 18 0;
#X connect 4 0 8 0;
#X connect 5 0 9 2;
#X connect 6 0 9 3;
#X connect 7 0 9 4;
#X connect 8 0 0 1;
#X connect 8 1 44 0;
#X connect 8 2 60 0;
#X connect 9 0 10 0;
#X connect 10 0 29 0;
#X connect 10 2 20 0;
#X connect 10 5 23 0;
#X connect 10 7 25 0;
#X connect 10 10 30 0;
#X connect 10 14 31 0;
#X connect 15 0 16 0;
#X connect 15 0 17 0;
#X connect 18 0 9 0;
#X connect 19 0 9 2;
#X connect 20 0 21 0;
#X connect 21 0 22 0;
#X connect 22 0 24 0;
#X connect 23 0 22 1;
#X connect 24 0 71 0;
#X connect 25 0 24 1;
#X connect 26 0 27 0;
#X connect 27 0 28 1;
#X connect 28 0 62 0;
#X connect 29 0 65 0;
#X connect 30 0 12 0;
#X connect 31 0 13 0;
#X connect 33 0 15 0;
#X connect 34 0 19 0;
#X connect 35 0 1 0;
#X connect 38 0 54 0;
#X connect 39 0 40 0;
#X connect 40 0 54 0;
#X connect 41 0 43 0;
#X connect 43 0 42 0;
#X connect 44 0 2 1;
#X connect 45 0 44 1;
#X connect 46 0 47 0;
#X connect 47 0 48 0;
#X connect 48 0 61 0;
#X connect 49 0 50 0;
#X connect 50 0 67 0;
#X connect 52 0 61 0;
#X connect 52 1 70 0;
#X connect 54 0 3 0;
#X connect 56 0 36 0;
#X connect 56 1 32 0;
#X connect 57 0 58 0;
#X connect 57 1 51 0;
#X connect 59 0 36 0;
#X connect 60 0 9 1;
#X connect 60 0 19 1;
#X connect 60 0 65 1;
#X connect 61 0 56 0;
#X connect 62 0 52 0;
#X connect 63 0 64 0;
#X connect 64 0 65 0;
#X connect 64 1 71 0;
#X connect 65 0 28 0;
#X connect 66 0 67 1;
#X connect 67 0 68 0;
#X connect 68 0 57 0;
#X connect 70 0 53 0;
#X connect 71 0 26 0;
#X connect 71 1 70 1;
#X connect 71 2 14 0;
