#N canvas 576 275 380 147 10;
#X obj 20 18 inlet~;
#X obj 20 116 outlet~;
#X text 102 75 scales from 0 to 1 -> -1 to 1;
#X text 111 98 (normalized to symmetric);
#X obj 20 42 -~ 0.5;
#X obj 20 66 *~ 2;
#X obj 20 90 hip~ 5;
#N canvas 696 356 161 103 NETPD 0;
#X msg 7 12 version 0 0 1;
#X restore 128 34 pd NETPD;
#X connect 0 0 4 0;
#X connect 4 0 5 0;
#X connect 5 0 6 0;
#X connect 6 0 1 0;
