#N canvas 455 43 397 294 10;
#X obj 26 138 sig~;
#X floatatom 26 107 5 0 0 0 - - -, f 5;
#X obj 27 244 snapshot~;
#X obj 66 198 loadbang;
#X obj 66 218 metro 50;
#X floatatom 27 264 10 0 0 0 - - -, f 10;
#N canvas 597 135 308 61 NETPD 0;
#X msg 17 19 version 0 0 1;
#X restore 290 264 pd NETPD 2 0;
#X text 16 7 rh_norm2symm~ - convert from normalized to symmetric range
;
#X obj 26 171 rh_norm2symm~;
#X text 18 46 rh_norm2symm~ converts the range 0 to 1 to the range
-1 to 1;
#X text 19 65 Note: this abstraction suppresses DC with an interl hipass
filter;
#X connect 0 0 8 0;
#X connect 1 0 0 0;
#X connect 2 0 5 0;
#X connect 3 0 4 0;
#X connect 4 0 2 0;
#X connect 8 0 2 0;
