#N canvas 597 151 536 504 10;
#X obj 28 18 inlet;
#N canvas 659 72 327 81 NETPD 0;
#X msg 15 16 version 0 1 0;
#N canvas 628 211 296 65 abslit 0;
#X msg 14 24 rh_pfactorize-help;
#X restore 20 49 pd abslit;
#X restore 450 14 pd NETPD 2 0;
#N canvas 0 72 267 183 do_some_checks 0;
#X obj 28 16 inlet;
#N canvas 404 115 450 300 is_int 0;
#X obj 28 60 rh_isint;
#X obj 28 40 t a a;
#X obj 28 81 list append;
#X obj 28 103 route 1;
#X obj 67 149 print rh_pfactorize;
#X msg 67 125 \$1 is not an integer number;
#X obj 28 16 inlet;
#X obj 28 174 outlet;
#X connect 0 0 2 0;
#X connect 1 0 0 0;
#X connect 1 1 2 1;
#X connect 2 0 3 0;
#X connect 3 0 7 0;
#X connect 3 1 5 0;
#X connect 5 0 4 0;
#X connect 6 0 1 0;
#X restore 28 48 pd is_int;
#X obj 28 111 outlet;
#N canvas 404 115 328 187 is_>1 0;
#X obj 28 128 print rh_pfactorize;
#X obj 28 16 inlet;
#X obj 67 62 outlet;
#X msg 28 104 \$1 is not greater than 1;
#X obj 28 38 moses 1;
#X connect 1 0 4 0;
#X connect 3 0 0 0;
#X connect 4 0 3 0;
#X connect 4 1 2 0;
#X restore 28 80 pd is_>1;
#X connect 0 0 1 0;
#X connect 1 0 3 0;
#X connect 3 0 2 0;
#X restore 28 41 pd do_some_checks;
#X obj 43 301 s \$0.factorand;
#X obj 407 38 table \$0.factors 10;
#N canvas 472 44 418 309 test_factors 0;
#X obj 24 19 inlet;
#X obj 39 40 r \$0.factorand;
#X obj 24 67 f;
#X obj 24 91 t a a b;
#X obj 24 185 list prepend;
#X msg 93 156 0;
#X obj 24 207 route 0;
#N canvas 841 159 438 584 find_factor 0;
#X obj 39 33 pow 0.5;
#X obj 39 55 int;
#X obj 84 144 r \$0.factorand;
#X obj 39 168 pack f f;
#X msg 39 190 \$2 \$1;
#X obj 39 212 /;
#X obj 39 234 t a a;
#X obj 39 256 rh_isint;
#X obj 39 133 t a a;
#X obj 85 385 tabread \$0.factors;
#X obj 58 341 f;
#X obj 58 363 t a a;
#X obj 85 407 + 1;
#X obj 58 431 pack f f;
#X obj 58 453 s \$0.factors;
#X obj 39 308 t b b b;
#X obj 114 337 f;
#X obj 114 358 s \$0.factorand;
#X obj 66 501 s \$0.scan.stop;
#X obj 39 6 inlet;
#X obj 39 476 t b b;
#X obj 39 534 outlet;
#X text 85 534 bang when factor is found;
#N canvas 472 170 226 268 range_counter 0;
#X obj 26 29 inlet;
#X obj 26 51 t a a;
#X msg 26 77 \$2 \$1;
#X obj 26 99 -;
#X obj 26 121 + 1;
#X obj 26 143 until;
#X obj 26 165 f;
#X obj 26 187 t a a;
#X obj 70 181 + 1;
#X msg 95 117 \$1;
#X obj 26 209 outlet;
#X obj 121 44 inlet;
#X obj 121 66 b;
#X connect 0 0 1 0;
#X connect 1 0 2 0;
#X connect 1 1 9 0;
#X connect 2 0 3 0;
#X connect 3 0 4 0;
#X connect 4 0 5 0;
#X connect 5 0 6 0;
#X connect 6 0 7 0;
#X connect 7 0 10 0;
#X connect 7 1 8 0;
#X connect 8 0 6 1;
#X connect 9 0 6 1;
#X connect 11 0 12 0;
#X connect 12 0 5 1;
#X restore 39 106 pd range_counter;
#X obj 149 106 r \$0.scan.stop;
#X obj 39 83 list prepend;
#X obj 108 60 r \$0.range_min;
#X text 92 35 <- only test factors up to square root(factorand);
#X obj 39 279 sel 1 0;
#X obj 137 263 f;
#X obj 137 287 s \$0.range_min;
#X connect 0 0 1 0;
#X connect 1 0 25 0;
#X connect 2 0 3 1;
#X connect 3 0 4 0;
#X connect 4 0 5 0;
#X connect 5 0 6 0;
#X connect 6 0 7 0;
#X connect 6 1 16 1;
#X connect 7 0 28 0;
#X connect 8 0 3 0;
#X connect 8 1 10 1;
#X connect 8 1 29 1;
#X connect 9 0 12 0;
#X connect 10 0 11 0;
#X connect 11 0 13 0;
#X connect 11 1 9 0;
#X connect 12 0 13 1;
#X connect 13 0 14 0;
#X connect 15 0 20 0;
#X connect 15 1 10 0;
#X connect 15 2 16 0;
#X connect 16 0 17 0;
#X connect 19 0 0 0;
#X connect 20 0 21 0;
#X connect 20 1 18 0;
#X connect 23 0 8 0;
#X connect 24 0 23 1;
#X connect 25 0 23 0;
#X connect 26 0 25 1;
#X connect 28 0 15 0;
#X connect 28 1 29 0;
#X connect 29 0 30 0;
#X restore 43 120 pd find_factor;
#X msg 43 155 1;
#X text 141 121 <- bangs if factor is found;
#X text 161 136 and sets new factorand;
#X obj 24 229 outlet;
#X connect 0 0 2 0;
#X connect 1 0 2 1;
#X connect 2 0 3 0;
#X connect 3 0 4 0;
#X connect 3 1 7 0;
#X connect 3 2 5 0;
#X connect 4 0 6 0;
#X connect 5 0 4 1;
#X connect 6 0 11 0;
#X connect 7 0 8 0;
#X connect 8 0 4 1;
#X restore 28 404 pd test_factors;
#X obj 28 372 until;
#X obj 28 64 t b a a b a;
#X msg 75 206 const 0;
#X obj 75 228 s \$0.factors;
#X obj 91 89 pow 0.5;
#X obj 91 111 int;
#X obj 91 133 + 1;
#X msg 91 154 resize \$1;
#X obj 91 176 s \$0.factors;
#X obj 248 412 outlet;
#X obj 28 426 s \$0.remaining;
#X obj 113 326 r \$0.remaining;
#X obj 113 348 b;
#X obj 248 83 r \$0.remaining;
#X obj 365 95 r \$0.factors;
#X obj 365 117 route resize;
#X obj 282 141 f;
#X obj 282 163 until;
#X obj 282 189 f;
#X obj 282 211 t a a;
#X obj 328 209 + 1;
#X msg 330 166 0;
#X obj 282 233 t a a;
#X obj 282 260 tabread \$0.factors;
#X obj 282 282 until;
#X obj 282 304 f;
#N canvas 0 44 355 167 msgbox 0;
#X obj 20 15 inlet;
#X msg 20 37;
#X obj 20 129 outlet;
#X connect 0 0 1 0;
#X connect 1 0 2 0;
#X restore 248 381 pd msgbox;
#X msg 265 334 add2 \$1;
#X obj 248 105 t b a b b;
#X msg 248 357 bang \, set;
#X obj 59 274 s \$0.range_min;
#X msg 59 251 2;
#X connect 0 0 2 0;
#X connect 2 0 7 0;
#X connect 5 0 16 0;
#X connect 6 0 5 0;
#X connect 7 0 6 0;
#X connect 7 1 3 0;
#X connect 7 2 37 0;
#X connect 7 3 8 0;
#X connect 7 4 10 0;
#X connect 8 0 9 0;
#X connect 10 0 11 0;
#X connect 11 0 12 0;
#X connect 12 0 13 0;
#X connect 13 0 14 0;
#X connect 17 0 18 0;
#X connect 18 0 6 1;
#X connect 19 0 34 0;
#X connect 20 0 21 0;
#X connect 21 0 22 1;
#X connect 22 0 23 0;
#X connect 23 0 24 0;
#X connect 24 0 25 0;
#X connect 25 0 28 0;
#X connect 25 1 26 0;
#X connect 26 0 24 1;
#X connect 27 0 24 1;
#X connect 28 0 29 0;
#X connect 28 1 31 1;
#X connect 29 0 30 0;
#X connect 30 0 31 0;
#X connect 31 0 33 0;
#X connect 32 0 15 0;
#X connect 33 0 32 0;
#X connect 34 0 35 0;
#X connect 34 1 33 0;
#X connect 34 2 22 0;
#X connect 34 3 27 0;
#X connect 35 0 32 0;
#X connect 37 0 36 0;
