#N canvas 221 368 450 300 10;
#X obj 34 18 inlet~;
#X obj 149 15 inlet~;
#X text 88 209 cos;
#X obj 35 211 outlet~;
#X obj 180 209 outlet~;
#X text 231 209 sin;
#X text 82 18 magnitude;
#X text 196 15 phase;
#X obj 33 156 *~;
#X obj 181 161 *~;
#X obj 116 91 expr~ cos($v1);
#X obj 233 99 expr~ sin($v1);
#X obj 109 60 +~ 3.14159;
#X obj 330 59 +~ 1.5708;
#X obj 265 53 +~ 1.5708;
#X obj 174 42 +~ 3.14159;
#X connect 0 0 8 0;
#X connect 0 0 9 0;
#X connect 1 0 12 0;
#X connect 1 0 15 0;
#X connect 8 0 3 0;
#X connect 9 0 4 0;
#X connect 10 0 8 1;
#X connect 11 0 9 1;
#X connect 12 0 10 0;
#X connect 15 0 11 0;
