#N canvas 520 44 353 465 10;
#X obj 15 354 vline~;
#X obj 14 391 outlet~;
#X obj 95 393 outlet;
#X text 145 395 bang at wrapping points;
#X obj 92 20 inlet;
#X obj 15 20 loadbang;
#X obj 42 65 \$1;
#X obj 92 93 sel 0;
#X msg 92 115 1e-27;
#X msg 92 179 1000 \$1;
#X obj 92 200 /;
#X obj 15 42 t b b;
#X obj 92 222 t a a;
#X obj 15 277 f;
#X obj 15 299 t a b;
#X text 220 434 2014 \, Roman Haefeli;
#X obj 92 137 t a a;
#X obj 92 159 abs;
#X msg 15 324 0 \, 1 \$1;
#X obj 15 247 rh_metro 10;
#X msg 78 324 1 \$2;
#N canvas 666 72 306 84 NETPD 0;
#X msg 14 11 version 0 1 0;
#N canvas 449 244 312 83 abslist 0;
#X msg 25 14 rh_phasor~-help;
#X restore 16 37 pd abslist;
#X restore 185 21 pd NETPD 2 0;
#X connect 0 0 1 0;
#X connect 4 0 7 0;
#X connect 5 0 11 0;
#X connect 6 0 7 0;
#X connect 7 0 8 0;
#X connect 7 1 16 0;
#X connect 8 0 16 0;
#X connect 9 0 10 0;
#X connect 10 0 12 0;
#X connect 11 0 19 0;
#X connect 11 1 6 0;
#X connect 12 0 19 1;
#X connect 12 1 13 1;
#X connect 13 0 14 0;
#X connect 14 0 18 0;
#X connect 14 1 2 0;
#X connect 16 0 17 0;
#X connect 17 0 9 0;
#X connect 18 0 0 0;
#X connect 19 0 13 0;
#X connect 19 1 20 0;
#X connect 20 0 0 0;
