#N canvas 0 53 359 275 10;
#N canvas 0 53 306 176 delwrite 0;
#X obj 16 21 inlet~;
#X obj 16 92 outlet~;
#X obj 16 52 delwrite~ \$0.sdelay 1000;
#X connect 0 0 2 0;
#X restore 22 122 pd delwrite;
#N canvas 0 53 306 176 delread_ 0;
#X obj 16 21 inlet~;
#X obj 16 112 outlet~;
#X obj 16 72 delread~ \$0.sdelay 0;
#X obj 89 31 inlet;
#X connect 2 0 1 0;
#X connect 3 0 2 0;
#X restore 22 152 pd delread_;
#X obj 22 179 outlet~;
#X obj 22 89 inlet~;
#X obj 112 45 loadbang;
#X obj 163 90 samplerate~;
#X msg 163 111 1000 \$1;
#X obj 163 132 /;
#X obj 112 177 *;
#X obj 112 66 t b b;
#X obj 112 114 f \$1;
#X obj 126 147 inlet;
#N canvas 0 53 360 118 NETPD 0;
#X msg 12 18 version 0 1 0;
#N canvas 0 53 315 65 abslist 0;
#X msg 13 8 rh_sdelay~-help;
#X restore 16 45 pd abslist;
#X restore 193 222 pd NETPD 2 0;
#X connect 0 0 1 0;
#X connect 1 0 2 0;
#X connect 3 0 0 0;
#X connect 4 0 9 0;
#X connect 5 0 6 0;
#X connect 6 0 7 0;
#X connect 7 0 8 1;
#X connect 8 0 1 1;
#X connect 9 0 10 0;
#X connect 9 1 5 0;
#X connect 10 0 8 0;
#X connect 11 0 8 0;
