#N canvas 325 47 449 470 10;
#X obj 23 38 rh_list_serialize;
#X obj 23 67 moses 128;
#X obj 74 96 moses 192, f 20;
#X obj 191 125 moses 224;
#X obj 242 148 moses 240;
#X obj 191 183 t b a;
#X msg 191 209 1;
#X obj 242 181 t b a;
#X msg 242 207 2;
#X obj 293 180 t b a;
#X msg 293 206 3;
#X obj 88 334 list store;
#X msg 125 288 append \$1;
#X obj 74 119 t b a, f 9;
#X obj 74 145 f;
#X obj 191 269 t a;
#X obj 74 168 - 1;
#X obj 74 191 t a a;
#X obj 74 219 sel 0;
#X obj 74 284 t b b;
#X obj 23 386 t a;
#X obj 23 409 outlet;
#X obj 23 8 inlet;
#N canvas 0 0 376 106 NETPD 0;
#X msg 16 21 version 0 1 0;
#N canvas 296 112 378 89 abslist 0;
#X msg 15 14 rh_symbol_serialize-help;
#X restore 18 52 pd abslist;
#X restore 356 15 pd NETPD 2 0;
#X connect 0 0 1 0;
#X connect 1 0 20 0;
#X connect 1 1 2 0;
#X connect 2 0 13 0;
#X connect 2 1 3 0;
#X connect 3 0 5 0;
#X connect 3 1 4 0;
#X connect 4 0 7 0;
#X connect 4 1 9 0;
#X connect 5 0 6 0;
#X connect 5 1 12 0;
#X connect 6 0 15 0;
#X connect 7 0 8 0;
#X connect 7 1 12 0;
#X connect 8 0 15 0;
#X connect 9 0 10 0;
#X connect 9 1 12 0;
#X connect 10 0 15 0;
#X connect 11 0 20 0;
#X connect 12 0 11 0;
#X connect 13 0 14 0;
#X connect 13 1 12 0;
#X connect 14 0 16 0;
#X connect 15 0 14 1;
#X connect 16 0 17 0;
#X connect 17 0 18 0;
#X connect 17 1 14 1;
#X connect 18 0 19 0;
#X connect 19 0 11 1;
#X connect 19 1 11 0;
#X connect 20 0 21 0;
#X connect 22 0 0 0;
