#N canvas 359 43 450 300 10;
#X obj 26 85 hsl 75 40 0 1 0 0 \$0.slider empty empty -2 -8 0 10 #fcfcfc #000000 #000000 0 1;
#X obj 24 142 rh_slider_click \$0.slider;
#X obj 24 183 bng 15 250 50 0 empty empty empty 17 7 0 10 #fcfcfc #000000 #000000;
#X text 111 86 <- named send symbol: \$0.slider;
#X text 14 7 rh_slider_click - detect click on hsl or vsl;
#X text 18 39 When clicking&dragging the slider with the mouse \, the dragging part is suppressed. This can be useful for making bng replacements with non-square shapes.;
#N canvas 697 390 314 48 NETPD 0;
#X msg 16 16 version 0 0 1;
#X restore 313 264 pd NETPD 2 0;
#X connect 1 0 2 0;
