#N canvas 225 193 282 233 10;
#X obj 69 36 t b f;
#X obj 28 106 - \$1;
#X obj 206 18 loadbang;
#X obj 206 41 \$2;
#X obj 69 15 inlet;
#X obj 167 18 inlet;
#X obj 12 14 inlet;
#X obj 12 131 *;
#X obj 12 172 + \$1;
#X obj 12 196 outlet;
#N canvas 696 356 161 103 NETPD 0;
#X msg 7 12 version 0 0 1;
#X restore 191 149 pd NETPD;
#X connect 0 0 1 0;
#X connect 0 1 1 1;
#X connect 0 1 8 1;
#X connect 1 0 7 1;
#X connect 2 0 3 0;
#X connect 3 0 1 0;
#X connect 4 0 0 0;
#X connect 5 0 1 0;
#X connect 6 0 7 0;
#X connect 7 0 8 0;
#X connect 8 0 9 0;
