#N canvas 223 332 373 219 10;
#X obj 98 87 log;
#X obj 194 84 log;
#X obj 123 123 t b f;
#X obj 123 145 -;
#X obj 98 23 inlet;
#X obj 194 24 inlet;
#X obj 256 24 loadbang;
#X obj 117 62 \$1;
#X obj 213 59 \$2;
#X obj 20 107 *~;
#X obj 20 130 +~;
#X obj 20 183 outlet~;
#X obj 20 19 inlet~;
#X obj 20 155 expr~ exp($v1);
#N canvas 696 356 161 103 NETPD 0;
#X msg 7 12 version 0 0 1;
#X restore 191 149 pd NETPD;
#X connect 0 0 2 0;
#X connect 0 0 10 1;
#X connect 1 0 3 0;
#X connect 2 0 3 0;
#X connect 2 1 3 1;
#X connect 3 0 9 1;
#X connect 4 0 0 0;
#X connect 5 0 1 0;
#X connect 6 0 8 0;
#X connect 6 0 7 0;
#X connect 7 0 0 0;
#X connect 8 0 1 0;
#X connect 9 0 10 0;
#X connect 10 0 13 0;
#X connect 12 0 9 0;
#X connect 13 0 11 0;
