#N canvas 263 290 278 188 10;
#X obj 14 49 sel 0 1;
#X obj 14 28 route float;
#X msg 14 91 set 0.5;
#X obj 111 31 t a a;
#X obj 111 74 sel 0;
#X obj 14 6 r \$1;
#X obj 14 154 s \$2;
#X obj 111 96 outlet;
#X obj 24 112 loadbang;
#X msg 24 133 range 0 1 \, set 0.5;
#N canvas 606 178 184 121 NETPD 0;
#X msg 12 18 version 0 0 0;
#X restore 176 16 pd NETPD 2 0;
#X obj 111 53 - 0.5;
#X obj 14 70 del 0;
#X connect 0 0 12 0;
#X connect 0 1 12 0;
#X connect 0 2 3 0;
#X connect 1 0 0 0;
#X connect 2 0 6 0;
#X connect 3 0 11 1;
#X connect 3 1 11 0;
#X connect 4 0 7 0;
#X connect 5 0 1 0;
#X connect 8 0 9 0;
#X connect 9 0 6 0;
#X connect 11 0 4 0;
#X connect 12 0 2 0;
