#N canvas 257 380 278 188 10;
#X obj 14 6 r \$1;
#X obj 14 129 outlet;
#N canvas 603 251 184 121 NETPD 0;
#X msg 12 17 version 0 1 2;
#N canvas 603 390 342 57 abslist 0;
#X msg 18 15 rh_slider_click-help;
#X restore 18 56 pd abslist;
#X restore 176 16 pd NETPD 2 0;
#X obj 14 74 sel 0;
#X obj 67 74 t a;
#X connect 0 0 3 0;
#X connect 3 0 1 0;
#X connect 3 1 4 0;
#X connect 4 0 3 1;
