#N canvas 356 43 437 306 10;
#N canvas 502 267 338 110 NETPD 0;
#X msg 14 13 version 0 0 1;
#X restore 335 272 pd NETPD 2 0;
#X floatatom 75 79 5 0 0 0 - - -, f 5;
#X floatatom 128 81 5 0 0 0 - - -, f 5;
#X obj 42 175 loadbang;
#X obj 42 195 metro 50;
#X obj 22 224 snapshot~;
#X floatatom 22 244 5 0 0 0 - - -, f 5;
#X obj 23 139 rh_scalelog~ 1 100;
#X obj 26 52 hsl 128 15 0 1 0 0 empty empty empty -2 -8 0 10 -262144
-1 -1 0 1;
#X floatatom 23 72 5 0 0 0 - - -, f 5;
#X obj 23 89 sig~;
#X text 4 11 rh_scalelog~ - convert to log scale with given boundaries
;
#X connect 1 0 7 1;
#X connect 2 0 7 2;
#X connect 3 0 4 0;
#X connect 4 0 5 0;
#X connect 5 0 6 0;
#X connect 7 0 5 0;
#X connect 8 0 9 0;
#X connect 9 0 10 0;
#X connect 10 0 7 0;
