#N canvas 359 43 437 306 10;
#N canvas 502 267 338 110 NETPD 0;
#X msg 14 13 version 0 0 1;
#X restore 335 272 pd NETPD 2 0;
#X floatatom 75 79 5 0 0 0 - - -, f 5;
#X floatatom 128 81 5 0 0 0 - - -, f 5;
#X obj 24 50 phasor~ 0.1;
#X obj 23 139 rh_scalelin~ 20 30;
#X obj 42 175 loadbang;
#X obj 42 195 metro 50;
#X obj 22 224 snapshot~;
#X floatatom 22 244 5 0 0 0 - - -, f 5;
#X text 4 11 rh_scalelin~ - scale signal to given range;
#X connect 1 0 4 1;
#X connect 2 0 4 2;
#X connect 3 0 4 0;
#X connect 4 0 7 0;
#X connect 5 0 6 0;
#X connect 6 0 7 0;
#X connect 7 0 8 0;
