#N canvas 328 230 462 439 10;
#X obj 216 143 samplerate~;
#X msg 216 188 1000 \$1;
#X obj 216 210 /;
#X obj 216 14 loadbang;
#X obj 96 304 until;
#X obj 96 236 delay;
#X obj 96 333 f;
#X obj 146 336 + 1;
#X msg 227 263 0;
#X obj 96 362 select;
#X obj 129 406 outlet;
#X obj 96 259 t b b;
#X obj 180 252 t a;
#X obj 96 203 t b b a;
#X msg 16 299 stop;
#X obj 96 175 inlet;
#X obj 216 36 t b b;
#X obj 243 58 f \$2;
#X obj 243 80 sel 0;
#X obj 216 165 /;
#X msg 243 102 2048;
#X obj 243 124 t a a;
#X obj 96 281 f;
#X obj 363 199 inlet;
#X obj 16 271 t b b;
#N canvas 520 198 293 93 NETPD 0;
#X msg 20 17 version 0 0 1;
#N canvas 820 350 331 61 abslist 0;
#X msg 13 14 rh_sruntil-help;
#X restore 20 46 pd abslist;
#X restore 11 10 pd NETPD 2 0;
#X connect 0 0 19 0;
#X connect 1 0 2 0;
#X connect 2 0 5 1;
#X connect 3 0 16 0;
#X connect 4 0 6 0;
#X connect 5 0 11 0;
#X connect 6 0 7 0;
#X connect 6 0 9 0;
#X connect 7 0 6 1;
#X connect 8 0 6 1;
#X connect 9 0 24 0;
#X connect 9 1 10 0;
#X connect 11 0 22 0;
#X connect 11 1 12 0;
#X connect 12 0 5 0;
#X connect 13 0 5 0;
#X connect 13 1 8 0;
#X connect 13 2 9 1;
#X connect 14 0 5 0;
#X connect 15 0 13 0;
#X connect 16 0 0 0;
#X connect 16 1 17 0;
#X connect 17 0 18 0;
#X connect 18 0 20 0;
#X connect 18 1 21 0;
#X connect 19 0 1 0;
#X connect 20 0 21 0;
#X connect 21 0 19 1;
#X connect 21 1 22 1;
#X connect 22 0 4 0;
#X connect 23 0 24 0;
#X connect 24 0 14 0;
#X connect 24 1 4 1;
