#N canvas 263 318 278 188 10;
#X obj 14 6 r \$1;
#X obj 14 154 s \$2;
#X obj 40 103 outlet;
#N canvas 606 206 184 121 NETPD 0;
#X msg 12 18 version 0 1 0;
#X restore 176 16 pd NETPD 2 0;
#X obj 14 28 t a a;
#X obj 15 52 -;
#X obj 15 74 sel 0;
#X connect 0 0 4 0;
#X connect 4 0 5 1;
#X connect 4 1 5 0;
#X connect 5 0 6 0;
#X connect 6 0 2 0;
