#N canvas 0 106 509 335 10;
#N canvas 0 106 415 277 length(ms) 0;
#X obj 19 17 inlet;
#X obj 19 205 outlet;
#X obj 19 173 list append;
#X obj 19 41 t a a;
#X obj 93 78 -;
#X obj 93 102 abs;
#X obj 93 134 rh_samp2ms;
#X connect 0 0 3 0;
#X connect 2 0 1 0;
#X connect 3 0 2 0;
#X connect 3 1 4 0;
#X connect 4 0 5 0;
#X connect 5 0 6 0;
#X connect 6 0 2 1;
#X restore 15 148 pd length(ms);
#N canvas 1210 378 308 296 pitch 0;
#X obj 194 147 pow;
#X obj 194 54 loadbang;
#X msg 221 99 1;
#X obj 221 121 / 12;
#X obj 194 76 t b b;
#X msg 194 99 2;
#X obj 136 119 pow;
#X obj 136 82 f;
#X obj 136 51 t b f;
#X obj 24 243 outlet;
#X obj 24 24 inlet;
#X obj 76 144 t b a;
#X obj 136 22 inlet;
#X obj 24 48 list split 2;
#X obj 24 211 list append;
#X obj 64 172 /;
#X connect 0 0 7 1;
#X connect 1 0 4 0;
#X connect 2 0 3 0;
#X connect 3 0 0 1;
#X connect 4 0 5 0;
#X connect 4 1 2 0;
#X connect 5 0 0 0;
#X connect 6 0 11 0;
#X connect 7 0 6 0;
#X connect 8 0 7 0;
#X connect 8 1 6 1;
#X connect 10 0 13 0;
#X connect 11 0 15 0;
#X connect 11 1 15 1;
#X connect 12 0 8 0;
#X connect 13 0 14 0;
#X connect 13 1 15 0;
#X connect 14 0 9 0;
#X connect 15 0 14 1;
#X restore 15 174 pd pitch;
#X obj 15 197 t a a, f 30;
#X msg 192 221 \$3;
#X obj 192 249 del;
#X obj 192 279 outlet;
#X obj 15 267 outlet;
#X obj 15 10 inlet;
#X msg 225 221 stop;
#X obj 15 55 route oneshot loop stop, f 53;
#X text 73 30 stop;
#X obj 15 81 t a b;
#X obj 120 78 t a b;
#X obj 15 123 list split 2;
#X text 237 275 done;
#X text 72 10 oneshot <start> <end> <relative_pitch>;
#N canvas 0 106 450 52 NETPD 0;
#X msg 6 9 version 0 1 0;
#N canvas 0 106 450 54 abslist 0;
#X msg 2 9 rh_table_segment_player-help;
#X restore 126 20 pd abslist;
#X restore 404 14 pd NETPD 2 0;
#X connect 0 0 1 0;
#X connect 1 0 2 0;
#X connect 2 0 6 0;
#X connect 2 1 3 0;
#X connect 3 0 4 0;
#X connect 4 0 5 0;
#X connect 7 0 9 0;
#X connect 8 0 4 0;
#X connect 9 0 11 0;
#X connect 9 1 12 0;
#X connect 9 2 8 0;
#X connect 11 0 13 0;
#X connect 12 0 13 0;
#X connect 13 0 0 0;
#X connect 13 1 1 1;
