#N canvas 648 321 640 489 10;
#X obj 15 18 inlet;
#X obj 262 24 inlet;
#X obj 15 318 outlet;
#X obj 343 23 r \$0.last;
#X obj 262 51 list prepend 0;
#X obj 262 71 t a a a;
#X msg 281 150 \$3;
#X obj 281 170 del;
#X obj 262 129 t b a a;
#X obj 308 212 f;
#X obj 308 235 s \$0.last;
#X obj 281 190 t b b;
#X msg 323 170 \$2;
#X msg 281 211 0;
#X msg 262 228 1;
#X obj 262 259 s \$0.ramping;
#X obj 59 419 r \$0.ramping;
#X obj 59 444 tgl 15 0 empty empty empty 17 7 0 10 -262144 -1 -1 0
1;
#X obj 501 90 r \$0.ramping;
#X obj 432 114 list prepend;
#X obj 432 134 route 0 1;
#X obj 432 431 s \$0.ramp;
#X obj 522 123 r \$0.ramping;
#X obj 522 143 sel 1;
#X obj 522 163 timer;
#X obj 457 160 t a b;
#X obj 457 190 list append;
#X obj 457 210 t a a a a a;
#X msg 496 236 \$4 \$3;
#X obj 496 256 /;
#X msg 457 237 \$2 \$1;
#X obj 457 257 -;
#X obj 457 277 *;
#X msg 541 237 \$1;
#X obj 457 300 + 1;
#X msg 570 238 \$2 \$3;
#X obj 484 342 list append;
#X obj 484 368 s \$0.ramp;
#X obj 208 407 r \$0.ramp;
#X obj 208 427 print RAMP;
#X obj 15 41 f;
#X obj 41 41 r \$0.ramping;
#X obj 15 157 f;
#X obj 15 77 sel 0 1;
#X obj 30 132 r \$0.last;
#X obj 103 106 r \$0.ramping;
#X obj 103 126 sel 1;
#X obj 103 146 timer;
#X obj 103 175 list prepend;
#X obj 172 149 r \$0.ramp;
#X msg 142 222 \$4 \$3;
#X obj 142 242 /;
#X msg 103 223 \$2 \$1;
#X obj 103 243 -;
#X obj 103 263 *;
#X msg 187 223 \$1;
#X obj 103 196 t a a a;
#X obj 103 286 +;
#X obj 457 320 t a a;
#X obj 457 390 s \$0.last;
#X obj 302 388 r \$0.last;
#X obj 302 408 print LAST;
#X connect 0 0 40 0;
#X connect 1 0 4 0;
#X connect 3 0 4 1;
#X connect 4 0 5 0;
#X connect 5 0 8 0;
#X connect 5 2 19 0;
#X connect 6 0 7 0;
#X connect 7 0 11 0;
#X connect 8 0 14 0;
#X connect 8 1 6 0;
#X connect 8 2 12 0;
#X connect 9 0 10 0;
#X connect 11 0 13 0;
#X connect 11 1 9 0;
#X connect 12 0 9 1;
#X connect 13 0 15 0;
#X connect 14 0 15 0;
#X connect 16 0 17 0;
#X connect 18 0 19 1;
#X connect 19 0 20 0;
#X connect 20 0 21 0;
#X connect 20 1 25 0;
#X connect 22 0 23 0;
#X connect 23 0 24 0;
#X connect 24 0 26 1;
#X connect 25 0 26 0;
#X connect 25 1 24 1;
#X connect 26 0 27 0;
#X connect 27 0 30 0;
#X connect 27 2 28 0;
#X connect 27 3 33 0;
#X connect 27 4 35 0;
#X connect 28 0 29 0;
#X connect 29 0 32 1;
#X connect 30 0 31 0;
#X connect 31 0 32 0;
#X connect 32 0 34 0;
#X connect 33 0 34 1;
#X connect 34 0 58 0;
#X connect 35 0 36 1;
#X connect 36 0 37 0;
#X connect 38 0 39 0;
#X connect 40 0 43 0;
#X connect 41 0 40 1;
#X connect 42 0 2 0;
#X connect 43 0 42 0;
#X connect 43 1 47 1;
#X connect 44 0 42 1;
#X connect 45 0 46 0;
#X connect 46 0 47 0;
#X connect 47 0 48 0;
#X connect 48 0 56 0;
#X connect 49 0 48 1;
#X connect 50 0 51 0;
#X connect 51 0 54 1;
#X connect 52 0 53 0;
#X connect 53 0 54 0;
#X connect 54 0 57 0;
#X connect 55 0 57 1;
#X connect 56 0 52 0;
#X connect 56 1 50 0;
#X connect 56 2 55 0;
#X connect 57 0 2 0;
#X connect 58 0 59 0;
#X connect 58 1 36 0;
#X connect 60 0 61 0;
