#N canvas 51 111 986 493 10;
#X obj 15 18 inlet;
#X obj 359 16 inlet;
#X obj 15 318 outlet;
#X obj 15 41 f;
#X obj 41 41 r \$0.ramping;
#X obj 15 157 f;
#X obj 15 77 sel 0 1;
#X obj 30 132 r \$0.last;
#X obj 103 106 r \$0.ramping;
#X obj 103 126 sel 1;
#X obj 103 146 timer;
#X obj 103 175 list prepend;
#X obj 172 149 r \$0.ramp;
#X msg 142 222 \$4 \$3;
#X obj 142 242 /;
#X msg 103 223 \$2 \$1;
#X obj 103 243 -;
#X obj 103 263 *;
#X msg 187 223 \$1;
#X obj 103 196 t a a a;
#X obj 103 286 +;
#X msg 703 155 \$2;
#X obj 703 175 t a b;
#X msg 730 197 1;
#X obj 703 197 del;
#X msg 703 217 0;
#X obj 703 239 s \$0.ramping;
#X obj 852 114 r \$0.ramping;
#X obj 879 152 f;
#X obj 879 172 sel 1;
#X obj 852 196 sel 1;
#X obj 852 220 timer;
#X obj 922 221 r \$0.ramp;
#X msg 891 291 \$4 \$3;
#X obj 891 311 /;
#X msg 852 292 \$2 \$1;
#X obj 852 312 -;
#X obj 852 332 *;
#X msg 936 292 \$1;
#X obj 852 265 t a a a;
#X obj 852 355 +;
#X obj 852 378 s \$0.last;
#X msg 596 207 \$1;
#X obj 581 228 f;
#X obj 581 156 r \$0.ramping;
#X obj 581 176 sel 0;
#X text 687 23 are we currently ramping?;
#X text 844 54 calc curr value;
#X text 849 73 during ramps;
#X text 560 310 take target as last;
#X text 561 329 when ramp finished;
#X obj 581 270 s \$0.last;
#X obj 475 190 r \$0.last;
#X obj 459 234 list prepend;
#X obj 459 288 s \$0.ramp;
#X obj 459 111 t a a a b;
#X obj 359 36 route stop;
#X text 431 392 current ramp values;
#X obj 374 126 r \$0.ramping;
#X obj 359 107 b;
#X obj 359 147 f;
#X obj 359 180 sel 1;
#X obj 359 212 s \$0.stop;
#X obj 735 102 r \$0.stop;
#X msg 743 174 stop;
#X obj 735 122 t b b b;
#X obj 416 58 list append 0;
#X msg 416 78 \$1 \$2;
#X text 508 69 <- pad second arg with zero;
#N canvas 520 263 308 63 NETPD 0;
#X msg 10 14 version 0 0 1;
#N canvas 630 286 362 40 abslist 0;
#X msg 5 5 rh_trline-help;
#X restore 11 35 pd abslist;
#X restore 13 458 pd NETPD 2 0;
#X obj 852 244 list prepend 0 0 0;
#X obj 479 11 loadbang;
#X msg 479 31 0;
#X connect 0 0 3 0;
#X connect 1 0 56 0;
#X connect 3 0 6 0;
#X connect 4 0 3 1;
#X connect 5 0 2 0;
#X connect 6 0 5 0;
#X connect 6 1 10 1;
#X connect 7 0 5 1;
#X connect 8 0 9 0;
#X connect 9 0 10 0;
#X connect 10 0 11 0;
#X connect 11 0 19 0;
#X connect 12 0 11 1;
#X connect 13 0 14 0;
#X connect 14 0 17 1;
#X connect 15 0 16 0;
#X connect 16 0 17 0;
#X connect 17 0 20 0;
#X connect 18 0 20 1;
#X connect 19 0 15 0;
#X connect 19 1 13 0;
#X connect 19 2 18 0;
#X connect 20 0 2 0;
#X connect 21 0 22 0;
#X connect 22 0 24 0;
#X connect 22 1 23 0;
#X connect 23 0 26 0;
#X connect 24 0 25 0;
#X connect 25 0 26 0;
#X connect 27 0 28 1;
#X connect 27 0 30 0;
#X connect 28 0 29 0;
#X connect 29 0 31 1;
#X connect 30 0 31 0;
#X connect 31 0 70 0;
#X connect 32 0 70 1;
#X connect 33 0 34 0;
#X connect 34 0 37 1;
#X connect 35 0 36 0;
#X connect 36 0 37 0;
#X connect 37 0 40 0;
#X connect 38 0 40 1;
#X connect 39 0 35 0;
#X connect 39 1 33 0;
#X connect 39 2 38 0;
#X connect 40 0 41 0;
#X connect 42 0 43 1;
#X connect 43 0 51 0;
#X connect 44 0 45 0;
#X connect 45 0 43 0;
#X connect 52 0 53 1;
#X connect 53 0 54 0;
#X connect 55 0 53 0;
#X connect 55 1 42 0;
#X connect 55 2 21 0;
#X connect 55 3 28 0;
#X connect 56 0 59 0;
#X connect 56 1 66 0;
#X connect 58 0 60 1;
#X connect 59 0 60 0;
#X connect 60 0 61 0;
#X connect 61 0 62 0;
#X connect 63 0 65 0;
#X connect 64 0 24 0;
#X connect 65 0 31 1;
#X connect 65 1 25 0;
#X connect 65 2 64 0;
#X connect 66 0 67 0;
#X connect 67 0 55 0;
#X connect 70 0 39 0;
#X connect 71 0 72 0;
#X connect 72 0 66 0;
