#N canvas 107 44 460 347 10;
#X obj 76 20 inlet;
#X obj 164 176 inlet~;
#N canvas 0 44 450 300 second 0;
#X obj 47 41 inlet~;
#X obj 63 227 outlet~;
#X obj 49 167 delread~ \$0.compensate;
#X obj 189 44 inlet;
#X connect 2 0 1 0;
#X connect 3 0 2 0;
#X restore 165 246 pd second;
#N canvas 0 44 450 300 first 0;
#X obj 23 11 inlet~;
#X obj 63 227 outlet~;
#X obj 53 123 delwrite~ \$0.compensate 100;
#X connect 0 0 2 0;
#X restore 165 214 pd first;
#X obj 101 134 timer;
#X obj 7 84 bang~;
#X obj 76 43 t b b;
#X obj 101 206 -;
#X obj 101 160 pack f f;
#X msg 101 184 \$2 \$1;
#X obj 146 39 samplerate~;
#X msg 146 61 1000 \$1;
#X obj 146 83 /;
#X obj 146 105 * 64;
#X obj 146 16 loadbang;
#X obj 79 299 tabwrite~ \$1;
#X obj 7 107 t b b;
#X msg 76 65 1;
#X obj 7 154 f;
#X obj 7 176 sel 1;
#X obj 7 198 t b b;
#X msg 65 189 0;
#N canvas 107 118 337 113 NETPD 0;
#X msg 22 18 version 0 1 0;
#N canvas 205 136 340 98 abslist 0;
#X msg 15 14 rh_vtabrwrite~-help;
#X restore 19 50 pd abslist;
#X restore 327 28 pd NETPD 2 0;
#X connect 0 0 6 0;
#X connect 1 0 3 0;
#X connect 2 0 15 0;
#X connect 3 0 2 0;
#X connect 4 0 8 0;
#X connect 5 0 16 0;
#X connect 6 0 17 0;
#X connect 6 1 4 1;
#X connect 7 0 2 1;
#X connect 8 0 9 0;
#X connect 9 0 7 0;
#X connect 10 0 11 0;
#X connect 11 0 12 0;
#X connect 12 0 13 0;
#X connect 13 0 8 1;
#X connect 14 0 10 0;
#X connect 16 0 18 0;
#X connect 16 1 4 0;
#X connect 17 0 18 1;
#X connect 18 0 19 0;
#X connect 19 0 20 0;
#X connect 20 0 15 0;
#X connect 20 1 21 0;
#X connect 21 0 18 1;
