#N canvas 559 292 321 395 10;
#X obj 232 127 atan2;
#X obj 232 147 * 2;
#X msg 232 107 1;
#X obj 135 228 *;
#X obj 103 26 loadbang;
#X obj 135 186 * 2;
#X obj 135 206 + 1;
#X obj 135 248 cos;
#X obj 135 268 + 1;
#X obj 135 288 * 0.5;
#X obj 103 46 t b b;
#X obj 103 85 until;
#X obj 103 105 f;
#X msg 146 81 0;
#X obj 103 125 t a a;
#X obj 144 111 + 1;
#X obj 103 145 t a a;
#X obj 103 322 pack f f;
#X obj 103 65 f \$2;
#X obj 135 166 / \$2;
#X obj 103 347 s \$1;
#X obj 13 24 table \$1 \$2;
#N canvas 810 292 317 104 NETPD 0;
#X msg 9 12 version 0 0 1;
#N canvas 852 315 344 76 abslist 0;
#X msg 8 8 rh_windw_hanning-help;
#X restore 9 37 pd abslist;
#X restore 207 370 pd NETPD 2 0;
#X connect 0 0 1 0;
#X connect 1 0 3 1;
#X connect 2 0 0 0;
#X connect 3 0 7 0;
#X connect 4 0 10 0;
#X connect 5 0 6 0;
#X connect 6 0 3 0;
#X connect 7 0 8 0;
#X connect 8 0 9 0;
#X connect 9 0 17 1;
#X connect 10 0 18 0;
#X connect 10 1 2 0;
#X connect 10 1 13 0;
#X connect 11 0 12 0;
#X connect 12 0 14 0;
#X connect 13 0 12 1;
#X connect 14 0 16 0;
#X connect 14 1 15 0;
#X connect 15 0 12 1;
#X connect 16 0 17 0;
#X connect 16 1 19 0;
#X connect 17 0 20 0;
#X connect 18 0 11 0;
#X connect 19 0 5 0;
