#N canvas 608 44 494 413 10;
#X obj 31 19 inlet;
#X text 334 67 args:;
#N canvas 816 224 324 125 NETPD 0;
#N canvas 880 388 331 91 abslist 0;
#X msg 21 23 rh_wavedisplay-help;
#X restore 13 50 pd abslist;
#X msg 14 20 version 0 0 4;
#X restore 401 12 pd NETPD 2 0;
#X obj 320 366 table \$0.display.cache 10;
#N canvas 231 160 404 228 get.data 0;
#X obj 191 80 array size \$2;
#X obj 191 175 s \$0.display.size;
#X obj 191 102 t a a;
#X msg 218 126 resize \$1;
#X obj 218 148 s \$0.display.cache;
#X obj 21 76 array size \$2;
#X obj 21 171 s \$0.src.size;
#X obj 21 13 r \$0.src.array;
#X obj 21 35 b;
#X obj 191 35 b;
#X obj 191 13 r \$0.display.array;
#X connect 0 0 2 0;
#X connect 2 0 1 0;
#X connect 2 1 3 0;
#X connect 3 0 4 0;
#X connect 5 0 6 0;
#X connect 7 0 8 0;
#X connect 8 0 5 0;
#X connect 9 0 0 0;
#X connect 10 0 9 0;
#X restore 31 149 pd get.data;
#X obj 31 43 s \$0.inlet;
#X text 336 85 1) src array name;
#X text 336 100 2) display array name;
#N canvas 113 164 322 142 source 0;
#X obj 21 17 r \$0.inlet;
#X obj 21 39 route source;
#X obj 21 120 s \$0.src.array;
#X obj 21 88 symbol \$1;
#X obj 38 62 loadbang;
#X connect 0 0 1 0;
#X connect 1 0 3 0;
#X connect 3 0 2 0;
#X connect 4 0 3 0;
#X restore 31 177 pd source;
#N canvas 205 128 335 226 range 0;
#X obj 21 17 r \$0.inlet;
#X obj 21 39 route range;
#X obj 21 61 t a a;
#X msg 21 116 \$2 \$1;
#X obj 21 138 -;
#X obj 21 165 s \$0.src.size;
#X obj 48 90 s \$0.src.range;
#X connect 0 0 1 0;
#X connect 1 0 2 0;
#X connect 2 0 3 0;
#X connect 2 1 6 0;
#X connect 3 0 4 0;
#X connect 4 0 5 0;
#X restore 31 233 pd range;
#N canvas 303 149 336 149 display 0;
#X obj 21 17 r \$0.inlet;
#X obj 21 39 route display;
#X obj 21 120 s \$0.display.array;
#X obj 21 88 symbol \$2;
#X obj 44 62 loadbang;
#X connect 0 0 1 0;
#X connect 1 0 3 0;
#X connect 3 0 2 0;
#X connect 4 0 3 0;
#X restore 31 205 pd display;
#N canvas 295 95 403 627 update 0;
#X obj 29 187 f;
#X obj 72 187 + 1;
#X obj 29 249 div;
#X obj 29 218 t a a;
#X obj 129 392 min;
#X obj 129 414 t a a;
#X obj 185 418 t a a;
#X obj 185 396 max;
#X obj 129 324 t a a;
#X obj 29 303 change;
#X text 133 219 we want to process two frames at once;
#X obj 99 215 * 2;
#X obj 29 271 * 2;
#X obj 48 409 + 1;
#X obj 48 442 pack f f;
#X obj 68 469 pack f f;
#X obj 29 325 t b a a;
#X obj 48 533 s \$0.display.cache;
#X msg 200 372 -1e+10;
#X obj 129 302 tabread;
#X msg 190 268 set \$1;
#X obj 29 60 t a a;
#X msg 29 84 \$2 \$1;
#X obj 29 106 -;
#X obj 29 134 t a b a;
#X msg 69 159 0;
#X obj 129 258 +;
#X msg 144 371 1e+10;
#X obj 48 495 t a a;
#X obj 156 140 r \$0.display.size;
#X obj 99 190 /;
#X obj 190 244 r \$0.src.array;
#X obj 29 11 r \$0.inlet;
#X obj 29 37 route update;
#X msg 69 84 \$1;
#X obj 29 160 until;
#X obj 198 567 r \$0.display.array;
#X obj 170 566 s;
#X obj 170 500 unpack;
#X obj 193 524 *;
#X obj 170 544 pack;
#X obj 224 508 r \$0.inlet;
#X obj 224 531 route scale;
#X connect 0 0 1 0;
#X connect 0 0 3 0;
#X connect 1 0 0 1;
#X connect 2 0 12 0;
#X connect 3 0 2 0;
#X connect 3 1 26 0;
#X connect 4 0 5 0;
#X connect 5 0 14 1;
#X connect 5 1 4 1;
#X connect 6 0 15 1;
#X connect 6 1 7 1;
#X connect 7 0 6 0;
#X connect 8 0 4 0;
#X connect 8 1 7 0;
#X connect 9 0 16 0;
#X connect 11 0 2 1;
#X connect 12 0 9 0;
#X connect 13 0 14 0;
#X connect 14 0 28 0;
#X connect 15 0 28 0;
#X connect 16 0 27 0;
#X connect 16 0 18 0;
#X connect 16 1 13 0;
#X connect 16 2 15 0;
#X connect 18 0 7 1;
#X connect 19 0 8 0;
#X connect 20 0 19 0;
#X connect 21 0 22 0;
#X connect 21 1 34 0;
#X connect 22 0 23 0;
#X connect 23 0 24 0;
#X connect 24 0 35 0;
#X connect 24 1 25 0;
#X connect 24 2 30 0;
#X connect 25 0 0 1;
#X connect 26 0 19 0;
#X connect 27 0 4 1;
#X connect 28 0 17 0;
#X connect 28 1 38 0;
#X connect 29 0 30 1;
#X connect 30 0 11 0;
#X connect 31 0 20 0;
#X connect 32 0 33 0;
#X connect 33 0 21 0;
#X connect 34 0 26 1;
#X connect 35 0 0 0;
#X connect 36 0 37 1;
#X connect 38 0 40 0;
#X connect 38 1 39 0;
#X connect 39 0 40 1;
#X connect 40 0 37 0;
#X connect 41 0 42 0;
#X connect 42 0 39 1;
#X restore 31 260 pd update;
#X text 110 149 set source and display size;
#X text 111 178 set source array;
#X text 111 206 set display array;
#X text 111 234 change range of source array to be displayed;
#X text 112 261 update display (partially or fully);
#N canvas 518 72 344 378 scale 0;
#X obj 39 107 until;
#X obj 39 133 f;
#X obj 77 133 + 1;
#X msg 95 100 0;
#X obj 39 163 tabread \$0.display.cache;
#N canvas 774 571 332 135 long_message_box 0;
#X obj 27 16 inlet;
#X msg 27 44;
#X obj 27 75 outlet;
#X connect 0 0 1 0;
#X connect 1 0 2 0;
#X restore 24 275 pd long_message_box;
#X obj 24 61 t b b b a b;
#X msg 87 186 set 0;
#X msg 39 211 add2 \$1;
#X obj 39 185 *;
#X obj 39 85 f;
#X obj 24 10 r \$0.inlet;
#X obj 24 35 route scale;
#X msg 24 239 bang \, set;
#X obj 116 68 r \$0.display.size;
#X obj 39 298 r \$0.display.array;
#X obj 24 323 s;
#X connect 0 0 1 0;
#X connect 1 0 2 0;
#X connect 1 0 4 0;
#X connect 2 0 1 1;
#X connect 3 0 1 1;
#X connect 4 0 9 0;
#X connect 5 0 16 0;
#X connect 6 0 13 0;
#X connect 6 1 10 0;
#X connect 6 2 3 0;
#X connect 6 3 9 1;
#X connect 6 4 7 0;
#X connect 7 0 5 0;
#X connect 8 0 5 0;
#X connect 9 0 8 0;
#X connect 10 0 0 0;
#X connect 11 0 12 0;
#X connect 12 0 6 0;
#X connect 13 0 5 0;
#X connect 14 0 10 1;
#X connect 15 0 16 1;
#X restore 31 288 pd scale;
#X text 112 290 scale display;
#X connect 0 0 5 0;
