#N canvas 609 44 659 607 10;
#X msg 76 368 scale \$1;
#X floatatom 76 343 5 0 0 0 - - -, f 5;
#N canvas 675 296 333 51 NETPD 0;
#X msg 12 10 version 0 0 2;
#X restore 565 11 pd NETPD 2 0;
#X text 140 369 scale <factor>;
#X obj 208 116 tabwrite~ audio;
#X obj 142 43 bng 15 250 50 0 empty empty empty 17 7 0 10 -204786 -1
-1;
#X obj 26 418 rh_wavedisplay audio display;
#X msg 26 177 source audio;
#X msg 37 205 display display;
#X msg 73 313 update;
#X text 118 177 set source array;
#X text 142 205 set display array;
#X text 123 315 update display completely;
#X obj 22 86 cnv 15 100 70 empty empty empty 20 12 0 14 -204786 -66577
0;
#N canvas 0 0 450 300 (subpatch) 0;
#X array display 200 float 2;
#X coords 0 1 200 -1 100 70 1 0 0;
#X restore 22 86 graph;
#X obj 22 43 cnv 15 105 17 empty empty empty 20 12 0 14 -261682 -66577
0;
#X obj 22 43 table audio 40000;
#X msg 62 262 update 0 1000;
#X text 156 261 tell which part of source array should be updated in
display (only the section inside range is considered). This can be
used to constantly update the display while recording live.;
#X msg 47 232 range 1000 20000;
#N canvas 0 44 391 184 signal.generator 0;
#X obj 38 92 osc~ 203;
#X obj 38 71 vline~;
#X msg 38 42 10 \, 1000 300 \, 200 30 400 \, 0 500 500;
#X obj 38 134 *~;
#X obj 98 95 vline~;
#X obj 38 13 inlet;
#X obj 38 160 outlet~;
#X msg 98 66 1 \, 0 400 \, 0.7 100 400 \, 0.3 500 500;
#X connect 0 0 3 0;
#X connect 1 0 0 0;
#X connect 2 0 1 0;
#X connect 3 0 6 0;
#X connect 4 0 3 1;
#X connect 5 0 2 0;
#X connect 5 0 7 0;
#X connect 7 0 4 0;
#X restore 209 90 pd signal.generator;
#X obj 85 392 r \$0.wavedisplay;
#X text 150 231 set range of source to be displayed: <from> <to>;
#X obj 142 63 t b b b;
#X obj 142 139 s \$0.wavedisplay;
#X msg 142 115 update;
#X obj 142 93 del 1000;
#X text 173 42 record signal to array and update display;
#X text 337 184 use the 'range' method to zoom and scroll.;
#X text 426 164 <- check this to see how to;
#X obj 317 163 cnv 15 100 17 empty empty empty 20 12 0 14 -261682 -66577
0;
#N canvas 849 193 448 387 example.usage 1;
#X obj 166 25 hsl 128 15 40000 200 1 0 empty empty zoom -2 -8 0 10
-204786 -1 -1 7600 1;
#X floatatom 163 48 7 0 0 0 - - -, f 7;
#X obj 31 25 hsl 128 15 0 1 0 0 empty empty position -2 -8 0 10 -204786
-1 -1 0 1;
#X floatatom 28 51 7 0 0 0 - - -, f 7;
#X obj 27 176 -;
#X obj 27 201 *;
#X obj 27 301 pack f f;
#X obj 28 102 pack f f;
#X obj 163 67 t b a;
#X obj 28 129 t a a a;
#X msg 27 154 40000 \$2;
#X msg 55 177 \$1;
#X msg 97 209 \$2;
#X obj 54 251 +;
#X obj 27 223 t a a;
#X obj 54 273 int;
#X obj 27 271 int;
#X msg 27 323 range \$1 \$2 \, update;
#X obj 27 345 s \$0.wavedisplay;
#X connect 0 0 1 0;
#X connect 1 0 8 0;
#X connect 2 0 3 0;
#X connect 3 0 7 0;
#X connect 4 0 5 0;
#X connect 5 0 14 0;
#X connect 6 0 17 0;
#X connect 7 0 9 0;
#X connect 8 0 7 0;
#X connect 8 1 7 1;
#X connect 9 0 10 0;
#X connect 9 1 11 0;
#X connect 9 2 12 0;
#X connect 10 0 4 0;
#X connect 11 0 5 1;
#X connect 12 0 13 1;
#X connect 13 0 15 0;
#X connect 14 0 16 0;
#X connect 14 1 13 0;
#X connect 15 0 6 1;
#X connect 16 0 6 0;
#X connect 17 0 18 0;
#X restore 317 163 pd example.usage;
#X text 19 9 [rh_wavedisplay] - display audio data in a helper array
;
#X text 283 358 Audio tables often hold many times more frames than
pixels that can be displayed. This abstraction finds the minima and
maxima for each section of the source table that covers one pixel of
the display array. The result is a good looking waveform that does
not suffer from aliasing.;
#X text 284 438 Additionally \, the waveform in the display can be
scaled without affecting the original data.;
#X text 28 486 IMPORTANT NOTES:;
#X text 30 506 For an optimal result \, the size of the display should
be pixelwidth * 2 Also \, set 'draw as' to 'Points'. The other display
methods don't work;
#X connect 0 0 6 0;
#X connect 1 0 0 0;
#X connect 5 0 23 0;
#X connect 7 0 6 0;
#X connect 8 0 6 0;
#X connect 9 0 6 0;
#X connect 17 0 6 0;
#X connect 19 0 6 0;
#X connect 20 0 4 0;
#X connect 21 0 6 0;
#X connect 23 0 26 0;
#X connect 23 1 4 0;
#X connect 23 2 20 0;
#X connect 25 0 24 0;
#X connect 26 0 25 0;
