#N canvas 557 57 472 726 10;
#X obj 299 512 atan2;
#X obj 299 532 * 2;
#X msg 299 492 1;
#X obj 198 519 *;
#X obj 198 477 * 2;
#X obj 198 497 + 1;
#X obj 198 539 cos;
#X obj 198 559 + 1;
#X obj 198 579 * 0.5;
#X obj 103 195 t a a;
#X obj 103 612 pack f f;
#X obj 103 116 t a b;
#X obj 103 136 until;
#X obj 103 156 f;
#X obj 103 176 t a a;
#X obj 142 167 + 1;
#X msg 145 138 0;
#X obj 198 457 / 150;
#X obj 286 123 *;
#X obj 286 100 t b a;
#X obj 320 193 t a a;
#X obj 249 255 / 2;
#X obj 249 374 b;
#X obj 249 396 f;
#X obj 300 392 +;
#X obj 315 264 -;
#X obj 288 296 pack f f;
#X obj 330 237 t a a;
#X msg 288 316 \$2 \$1;
#X obj 288 336 -;
#X obj 249 234 t a a;
#X obj 249 276 t a a a;
#X obj 249 354 moses;
#X obj 198 300 moses 128;
#X obj 198 428 t a;
#X obj 103 26 loadbang;
#X obj 103 48 t b b b b b;
#X obj 387 70 f \$2;
#X obj 103 96 f;
#X obj 387 91 t a a a;
#X obj 286 78 f \$3;
#X obj 259 8 inlet;
#X obj 259 28 clip 0 1;
#X obj 259 49 t b a;
#X obj 103 637 s \$1;
#X obj 8 9 table \$1 \$2;
#X obj 130 217 list prepend 0;
#X msg 130 275 1;
#X obj 286 147 sel 0;
#X msg 211 177 0;
#X obj 130 237 route 0 1;
#X obj 312 166 t b a;
#X msg 242 181 1;
#N canvas 810 289 317 104 NETPD 0;
#X msg 9 12 version 0 0 1;
#N canvas 867 270 387 75 abslist 0;
#X msg 11 9 rh_window_tukey-help;
#X restore 10 42 pd abslist;
#X restore 355 687 pd NETPD 2 0;
#X connect 0 0 1 0;
#X connect 1 0 3 1;
#X connect 2 0 0 0;
#X connect 3 0 6 0;
#X connect 4 0 5 0;
#X connect 5 0 3 0;
#X connect 6 0 7 0;
#X connect 7 0 8 0;
#X connect 8 0 10 1;
#X connect 9 0 10 0;
#X connect 9 1 46 0;
#X connect 10 0 44 0;
#X connect 11 0 12 0;
#X connect 11 1 16 0;
#X connect 12 0 13 0;
#X connect 13 0 14 0;
#X connect 14 0 9 0;
#X connect 14 1 15 0;
#X connect 15 0 13 1;
#X connect 16 0 13 1;
#X connect 17 0 4 0;
#X connect 18 0 48 0;
#X connect 19 0 18 0;
#X connect 19 1 18 1;
#X connect 20 0 17 1;
#X connect 20 1 30 0;
#X connect 21 0 31 0;
#X connect 22 0 23 0;
#X connect 23 0 34 0;
#X connect 24 0 34 0;
#X connect 25 0 24 1;
#X connect 26 0 28 0;
#X connect 27 0 25 1;
#X connect 27 1 26 1;
#X connect 28 0 29 0;
#X connect 29 0 32 1;
#X connect 30 0 21 0;
#X connect 30 1 25 0;
#X connect 31 0 33 1;
#X connect 31 1 23 1;
#X connect 31 2 26 0;
#X connect 32 0 22 0;
#X connect 32 1 24 0;
#X connect 33 0 34 0;
#X connect 33 1 32 0;
#X connect 34 0 17 0;
#X connect 35 0 36 0;
#X connect 36 0 38 0;
#X connect 36 2 40 0;
#X connect 36 3 37 0;
#X connect 36 4 2 0;
#X connect 37 0 39 0;
#X connect 38 0 11 0;
#X connect 39 0 38 1;
#X connect 39 1 18 0;
#X connect 39 2 27 0;
#X connect 40 0 19 0;
#X connect 41 0 42 0;
#X connect 42 0 43 0;
#X connect 43 0 38 0;
#X connect 43 1 40 0;
#X connect 46 0 50 0;
#X connect 47 0 10 1;
#X connect 48 0 49 0;
#X connect 48 1 51 0;
#X connect 49 0 46 1;
#X connect 50 0 47 0;
#X connect 50 1 33 0;
#X connect 51 0 52 0;
#X connect 51 1 20 0;
#X connect 52 0 46 1;
