#N canvas 405 109 365 652 10;
#X obj 67 157 until;
#X obj 67 180 f;
#X obj 107 178 + 1;
#X obj 67 326 *;
#X obj 67 351 <= 0;
#X obj 67 373 sel 1;
#X obj 67 208 t a a a;
#X obj 67 395 f;
#X obj 67 300 t a a;
#X obj 157 492 -;
#X msg 129 477 \$2;
#X obj 129 515 /;
#X msg 168 516 \$1;
#X obj 129 541 +;
#X obj 129 562 change;
#X msg 258 296 set -1;
#X obj 67 618 outlet;
#X msg 67 128 \$2;
#X msg 109 148 \$1;
#X obj 16 8 inlet;
#X obj 67 91 t a a b;
#X obj 67 230 + 1;
#X obj 67 415 pack f f f;
#X msg 157 470 \$2 \$3;
#X obj 67 534 sel 1;
#X msg 67 484 \$3;
#X obj 67 509 >= 0;
#X obj 129 445 t a a a;
#X obj 67 437 t a a;
#X obj 67 556 t b b;
#X obj 67 590 f;
#X obj 67 278 tabread \$1;
#X obj 148 278 tabread \$1;
#X obj 16 34 route set;
#X obj 16 213 list;
#X msg 16 235 set \$1;
#N canvas 720 95 344 97 NETPD 0;
#X msg 25 11 version 0 0 1;
#N canvas 735 196 351 56 abslist 0;
#X msg 28 14 rh_zerox-help;
#X restore 26 44 pd abslist;
#X restore 192 18 pd NETPD 2 0;
#X connect 0 0 1 0;
#X connect 1 0 2 0;
#X connect 1 0 6 0;
#X connect 2 0 1 1;
#X connect 3 0 4 0;
#X connect 4 0 5 0;
#X connect 5 0 7 0;
#X connect 6 0 21 0;
#X connect 6 1 7 1;
#X connect 6 2 32 0;
#X connect 7 0 22 0;
#X connect 8 0 3 0;
#X connect 8 1 22 2;
#X connect 9 0 11 1;
#X connect 10 0 11 0;
#X connect 11 0 13 0;
#X connect 12 0 13 1;
#X connect 13 0 14 0;
#X connect 14 0 30 1;
#X connect 15 0 14 0;
#X connect 17 0 0 0;
#X connect 18 0 1 1;
#X connect 19 0 33 0;
#X connect 20 0 17 0;
#X connect 20 1 18 0;
#X connect 20 2 15 0;
#X connect 21 0 31 0;
#X connect 22 0 28 0;
#X connect 23 0 9 0;
#X connect 24 0 29 0;
#X connect 25 0 26 0;
#X connect 26 0 24 0;
#X connect 27 0 10 0;
#X connect 27 1 23 0;
#X connect 27 2 12 0;
#X connect 28 0 25 0;
#X connect 28 1 27 0;
#X connect 29 0 30 0;
#X connect 30 0 16 0;
#X connect 31 0 8 0;
#X connect 32 0 3 1;
#X connect 32 0 22 1;
#X connect 33 0 34 0;
#X connect 33 1 20 0;
#X connect 34 0 35 0;
#X connect 35 0 32 0;
#X connect 35 0 31 0;
