#N canvas 405 109 366 682 10;
#X obj 67 137 until;
#X obj 67 160 f, f 8;
#X obj 157 160 + 1;
#X obj 67 346 *;
#X obj 67 393 sel 1;
#X obj 67 228 t a a a, f 13;
#X obj 67 415 f;
#X obj 67 320 t a a;
#X obj 94 513 -;
#X msg 67 498 \$2;
#X obj 67 536 /;
#X msg 121 534 \$1;
#X obj 67 562 +;
#X obj 67 651 outlet;
#X msg 67 86 \$2;
#X msg 112 96 \$1;
#X obj 16 8 inlet;
#X obj 67 61 t a a b, f 16;
#X obj 67 250 + 1;
#X obj 67 435 pack f f f;
#X msg 94 491 \$2 \$3;
#X obj 67 298 tabread \$1;
#X obj 148 298 tabread \$1;
#X obj 16 34 route set;
#X obj 16 233 list;
#X msg 16 255 set \$1;
#N canvas 720 95 344 97 NETPD 0;
#N canvas 735 196 351 56 abslist 0;
#X msg 28 14 rh_zerox-help;
#X restore 26 44 pd abslist;
#X msg 25 11 version 0 0 2;
#X restore 192 18 pd NETPD 2 0;
#X obj 67 183 t a a;
#X obj 67 466 t a a a a, f 14;
#X msg 160 517 \$3 \$2;
#X obj 160 540 -;
#X obj 67 621 pack f f;
#X obj 67 371 <= 0;
#X msg 289 429 set -1;
#X obj 67 595 change -1;
#X connect 0 0 1 0;
#X connect 1 0 27 0;
#X connect 2 0 1 1;
#X connect 3 0 32 0;
#X connect 4 0 6 0;
#X connect 5 0 18 0;
#X connect 5 1 6 1;
#X connect 5 2 22 0;
#X connect 6 0 19 0;
#X connect 7 0 3 0;
#X connect 7 1 19 2;
#X connect 8 0 10 1;
#X connect 9 0 10 0;
#X connect 10 0 12 0;
#X connect 11 0 12 1;
#X connect 12 0 34 0;
#X connect 14 0 0 0;
#X connect 15 0 1 1;
#X connect 16 0 23 0;
#X connect 17 0 14 0;
#X connect 17 1 15 0;
#X connect 17 2 33 0;
#X connect 18 0 21 0;
#X connect 19 0 28 0;
#X connect 20 0 8 0;
#X connect 21 0 7 0;
#X connect 22 0 3 1;
#X connect 22 0 19 1;
#X connect 23 0 24 0;
#X connect 23 1 17 0;
#X connect 24 0 25 0;
#X connect 25 0 21 0;
#X connect 25 0 22 0;
#X connect 27 0 5 0;
#X connect 27 1 2 0;
#X connect 28 0 9 0;
#X connect 28 1 20 0;
#X connect 28 2 11 0;
#X connect 28 3 29 0;
#X connect 29 0 30 0;
#X connect 30 0 31 1;
#X connect 31 0 13 0;
#X connect 32 0 4 0;
#X connect 33 0 34 0;
#X connect 34 0 31 0;
