#N canvas 432 198 396 426 10;
#X obj 15 48 inlet;
#X obj 15 356 outlet~;
#X obj 77 358 outlet~;
#N canvas 0 106 450 47 NETPD 0;
#X msg 3 13 version 0 1 1;
#X restore 12 10 pd NETPD 2 0;
#N canvas 350 186 421 514 wave.player 0;
#X obj 69 360 vline~;
#X msg 69 334 \$1 \, \$2 \$3;
#X obj 63 18 inlet;
#X msg 63 41 \$2 \$1;
#X obj 63 64 route 0, f 14;
#X obj 63 87 b;
#X msg 144 119 \$2;
#X obj 70 473 outlet~;
#X obj 267 326 outlet;
#X msg 79 419 set \$1;
#X obj 144 142 - 60;
#X obj 69 445 tabread4~;
#X obj 79 396 r \$0.src.table.l;
#X msg 207 412 set \$1;
#X obj 207 439 tabread4~;
#X obj 207 389 r \$0.src.table.r;
#X obj 208 467 outlet~;
#X text 107 41 <velocity> <note>;
#X obj 63 112 s \$0.noteoff;
#N canvas 119 153 483 254 onset 0;
#X obj 14 113 rh_table_segment_player;
#X obj 81 22 r \$0.cue.0;
#X obj 149 22 r \$0.cue.1;
#X obj 14 46 pack f f f, f 23;
#X msg 14 69 oneshot \$2 \$3 \$1;
#X obj 14 22 inlet;
#X obj 14 136 outlet;
#X obj 149 201 outlet;
#X obj 237 24 r \$0.noteon;
#X msg 237 47 stop;
#X obj 315 27 r \$0.noteoff;
#X obj 149 144 f;
#X obj 186 98 r \$0.noteon;
#X obj 262 99 r \$0.noteoff;
#X msg 186 121 1;
#X msg 262 125 0;
#X obj 149 167 sel 1 0, f 13;
#X text 191 148 skip loop if we already received noteoff;
#X obj 229 202 outlet;
#X connect 0 0 6 0;
#X connect 0 1 11 0;
#X connect 1 0 3 1;
#X connect 2 0 3 2;
#X connect 3 0 4 0;
#X connect 4 0 0 0;
#X connect 5 0 3 0;
#X connect 8 0 9 0;
#X connect 9 0 0 0;
#X connect 11 0 16 0;
#X connect 12 0 14 0;
#X connect 13 0 15 0;
#X connect 14 0 11 1;
#X connect 15 0 11 1;
#X connect 16 0 7 0;
#X connect 16 1 18 0;
#X restore 144 188 pd onset;
#X f 16;
#X obj 189 213 f;
#N canvas 139 169 397 350 loop 0;
#X obj 14 183 rh_table_segment_player;
#X obj 14 46 pack f f f, f 23;
#X msg 14 159 oneshot \$2 \$3 \$1;
#X obj 14 22 inlet;
#X obj 14 206 outlet;
#X obj 149 284 outlet;
#X obj 81 22 r \$0.cue.1;
#X obj 149 22 r \$0.cue.2;
#X obj 149 208 f;
#X obj 149 231 sel 0 1;
#X obj 14 134 list append;
#X obj 14 109 t b a;
#X obj 237 216 t b;
#X obj 231 136 r \$0.noteoff;
#X msg 231 159 0;
#X obj 14 69 t a a;
#X msg 164 97 \$2 \$3;
#X obj 164 120 -;
#X obj 164 143 abs;
#X obj 164 166 >= 64;
#X obj 237 24 r \$0.noteon;
#X msg 237 47 stop;
#X connect 0 0 4 0;
#X connect 0 1 8 0;
#X connect 1 0 15 0;
#X connect 2 0 0 0;
#X connect 3 0 1 0;
#X connect 6 0 1 1;
#X connect 7 0 1 2;
#X connect 8 0 9 0;
#X connect 9 0 5 0;
#X connect 9 1 12 0;
#X connect 10 0 2 0;
#X connect 11 0 10 0;
#X connect 11 1 10 1;
#X connect 12 0 10 0;
#X connect 13 0 14 0;
#X connect 14 0 8 1;
#X connect 15 0 11 0;
#X connect 15 1 16 0;
#X connect 16 0 17 0;
#X connect 17 0 18 0;
#X connect 18 0 19 0;
#X connect 19 0 8 1;
#X connect 20 0 21 0;
#X connect 21 0 0 0;
#X restore 189 239 pd loop;
#X obj 228 264 f;
#N canvas 129 161 397 187 tail 0;
#X obj 14 113 rh_table_segment_player;
#X obj 14 46 pack f f f, f 23;
#X msg 14 69 oneshot \$2 \$3 \$1;
#X obj 14 22 inlet;
#X obj 14 136 outlet;
#X obj 149 136 outlet;
#X obj 81 22 r \$0.cue.2;
#X obj 149 22 r \$0.length;
#X obj 214 45 r \$0.noteon;
#X msg 214 68 stop;
#X connect 0 0 4 0;
#X connect 0 1 5 0;
#X connect 1 0 2 0;
#X connect 2 0 0 0;
#X connect 3 0 1 0;
#X connect 6 0 1 1;
#X connect 7 0 1 2;
#X connect 8 0 9 0;
#X connect 9 0 0 0;
#X restore 228 289 pd tail;
#X obj 144 165 t a a a, f 21;
#X obj 192 120 s \$0.noteon;
#X obj 144 90 t a b;
#X connect 0 0 11 0;
#X connect 0 0 14 0;
#X connect 1 0 0 0;
#X connect 2 0 3 0;
#X connect 3 0 4 0;
#X connect 4 0 5 0;
#X connect 4 1 26 0;
#X connect 5 0 18 0;
#X connect 6 0 10 0;
#X connect 9 0 11 0;
#X connect 10 0 24 0;
#X connect 11 0 7 0;
#X connect 12 0 9 0;
#X connect 13 0 14 0;
#X connect 14 0 16 0;
#X connect 15 0 13 0;
#X connect 19 0 1 0;
#X connect 19 1 20 0;
#X connect 19 2 22 0;
#X connect 20 0 21 0;
#X connect 21 0 1 0;
#X connect 21 1 22 0;
#X connect 22 0 23 0;
#X connect 23 0 1 0;
#X connect 23 1 8 0;
#X connect 24 0 19 0;
#X connect 24 1 20 1;
#X connect 24 2 22 1;
#X connect 26 0 6 0;
#X connect 26 1 25 0;
#X restore 15 159 pd wave.player;
#X obj 163 357 outlet;
#X text 59 46 <note> <velocity> <gid>;
#X obj 15 71 list split 2;
#X obj 49 95 s \$0.instance;
#X obj 150 217 rh_adsr~, f 28;
#N canvas 0 165 949 326 get.instance.params 0;
#X obj 13 18 r \$0.instance;
#X obj 13 70 list append \$2;
#X obj 194 13 r \$0.instance;
#X obj 194 36 - 1;
#N canvas 0 502 333 165 resolve.cues 0;
#X obj 17 7 inlet;
#X obj 17 54 * 3;
#X obj 17 77 +;
#X obj 17 124 outlet;
#X obj 17 101 tabread \$2-cues;
#X obj 17 30 unpack f f;
#X connect 0 0 5 0;
#X connect 1 0 2 0;
#X connect 2 0 4 0;
#X connect 4 0 3 0;
#X connect 5 0 1 0;
#X connect 5 1 2 1;
#X restore 327 122 pd resolve.cues;
#X obj 327 13 r \$0.instance;
#X msg 327 96 \$1 0;
#X obj 327 147 s \$0.cue.0;
#N canvas 0 436 333 165 resolve.cues 0;
#X obj 17 7 inlet;
#X obj 17 54 * 3;
#X obj 17 77 +;
#X obj 17 124 outlet;
#X obj 17 101 tabread \$2-cues;
#X obj 17 30 unpack f f;
#X connect 0 0 5 0;
#X connect 1 0 2 0;
#X connect 2 0 4 0;
#X connect 4 0 3 0;
#X connect 5 0 1 0;
#X connect 5 1 2 1;
#X restore 427 122 pd resolve.cues;
#N canvas 0 436 333 165 resolve.cues 0;
#X obj 17 7 inlet;
#X obj 17 54 * 3;
#X obj 17 77 +;
#X obj 17 124 outlet;
#X obj 17 101 tabread \$2-cues;
#X obj 17 30 unpack f f;
#X connect 0 0 5 0;
#X connect 1 0 2 0;
#X connect 2 0 4 0;
#X connect 4 0 3 0;
#X connect 5 0 1 0;
#X connect 5 1 2 1;
#X restore 528 122 pd resolve.cues;
#X msg 427 96 \$1 1;
#X msg 528 96 \$1 2;
#X obj 427 147 s \$0.cue.1;
#X obj 528 147 s \$0.cue.2;
#X obj 194 82 s \$0.length;
#X obj 194 59 tabread \$2.lengths;
#X obj 13 41 + 1;
#X obj 327 66 + 1;
#X obj 427 66 + 1;
#X obj 528 69 + 1;
#X obj 656 14 r \$0.instance;
#X obj 656 67 t b a;
#X obj 656 140 list append;
#X obj 683 90 s \$2.get.params;
#X obj 687 114 r \$2.set.params;
#X obj 656 286 s \$0.adsr;
#X obj 656 163 unpack f f f f, f 36;
#X obj 656 258 pack f f f f, f 36;
#X obj 656 188 t a a;
#X obj 656 211 *;
#X obj 727 188 t a a;
#X obj 727 211 *;
#X obj 798 188 t a a;
#X obj 798 211 *;
#X obj 869 188 t a a;
#X obj 869 211 *;
#X obj 656 234 * 10000;
#X obj 727 234 * 30000;
#X obj 869 234 * 30000;
#X obj 656 37 + 1;
#X msg 13 167 symbol \$2-\$1/sample/l-table;
#X obj 13 192 s \$0.src.table.l;
#X obj 40 141 s \$0.src.table.r;
#X msg 40 116 symbol \$2-\$1/sample/r-table;
#X obj 13 93 t a a;
#X obj 327 36 t a a a, f 34;
#X connect 0 0 16 0;
#X connect 1 0 44 0;
#X connect 2 0 3 0;
#X connect 3 0 15 0;
#X connect 4 0 7 0;
#X connect 5 0 45 0;
#X connect 6 0 4 0;
#X connect 8 0 12 0;
#X connect 9 0 13 0;
#X connect 10 0 8 0;
#X connect 11 0 9 0;
#X connect 15 0 14 0;
#X connect 16 0 1 0;
#X connect 17 0 6 0;
#X connect 18 0 10 0;
#X connect 19 0 11 0;
#X connect 20 0 39 0;
#X connect 21 0 22 0;
#X connect 21 1 23 0;
#X connect 22 0 26 0;
#X connect 24 0 22 1;
#X connect 26 0 28 0;
#X connect 26 1 30 0;
#X connect 26 2 32 0;
#X connect 26 3 34 0;
#X connect 27 0 25 0;
#X connect 28 0 29 0;
#X connect 28 1 29 1;
#X connect 29 0 36 0;
#X connect 30 0 31 0;
#X connect 30 1 31 1;
#X connect 31 0 37 0;
#X connect 32 0 33 0;
#X connect 32 1 33 1;
#X connect 33 0 27 2;
#X connect 34 0 35 0;
#X connect 34 1 35 1;
#X connect 35 0 38 0;
#X connect 36 0 27 0;
#X connect 37 0 27 1;
#X connect 38 0 27 3;
#X connect 39 0 21 0;
#X connect 40 0 41 0;
#X connect 43 0 42 0;
#X connect 44 0 40 0;
#X connect 44 1 43 0;
#X connect 45 0 17 0;
#X connect 45 1 18 0;
#X connect 45 2 19 0;
#X restore 148 96 pd get.instance.params;
#X obj 234 142 r \$0.adsr;
#X obj 234 165 unpack f f f f;
#X obj 15 118 t a a;
#X obj 150 146 / 127;
#X obj 150 169 t a a;
#X obj 150 192 *;
#X obj 16 268 *~;
#X obj 163 288 &&;
#X obj 170 263 t b a;
#X msg 150 122 \$2;
#X obj 76 268 *~;
#X obj 163 311 t a a, f 10;
#X connect 0 0 7 0;
#X connect 4 0 17 0;
#X connect 4 1 21 0;
#X connect 4 2 18 0;
#X connect 7 0 13 0;
#X connect 7 1 8 0;
#X connect 9 0 21 1;
#X connect 9 0 17 1;
#X connect 9 1 19 0;
#X connect 11 0 12 0;
#X connect 12 0 9 1;
#X connect 12 1 9 2;
#X connect 12 2 9 3;
#X connect 12 3 9 4;
#X connect 13 0 4 0;
#X connect 13 1 20 0;
#X connect 14 0 15 0;
#X connect 15 0 16 0;
#X connect 15 1 16 1;
#X connect 16 0 9 0;
#X connect 17 0 1 0;
#X connect 18 0 22 0;
#X connect 19 0 18 0;
#X connect 19 1 18 1;
#X connect 20 0 14 0;
#X connect 21 0 2 0;
#X connect 22 0 5 0;
