#N canvas 416 367 732 356 10;
#N canvas 0 106 383 58 NETPD 0;
#N canvas 177 253 384 73 abslist 0;
#X msg 14 19 ripple-sampler-param;
#X restore 136 20 pd abslist;
#X msg 10 20 version 0 1 4;
#X restore 11 130 pd NETPD 2 0;
#N canvas 246 346 510 389 gui.stuff 0;
#X obj 39 32 loadbang;
#X obj 39 73 \$2;
#X obj 39 207 s \$0.background;
#X msg 39 181 color \$1 \$1 -1;
#X obj 39 96 + 2;
#X obj 162 195 s \$0.background.hl;
#X msg 162 171 color \$1 \$1 -1;
#X obj 162 117 sel 0 1, f 12;
#X obj 315 35 r \$0.button;
#X obj 315 58 sel;
#X obj 353 62 t a;
#X obj 162 63 r \$1.selected.instance;
#X obj 315 111 s \$1.selected.instance;
#X obj 315 86 f \$2;
#X obj 162 94 == \$2;
#X obj 97 82 bng 15 250 50 0 empty empty empty 17 7 0 10 -262144 -1
-1;
#X msg 196 143 20;
#X msg 162 143 10;
#X connect 0 0 1 0;
#X connect 1 0 4 0;
#X connect 3 0 2 0;
#X connect 4 0 3 0;
#X connect 6 0 5 0;
#X connect 7 0 17 0;
#X connect 7 1 16 0;
#X connect 8 0 9 0;
#X connect 9 0 13 0;
#X connect 9 1 10 0;
#X connect 10 0 9 1;
#X connect 11 0 14 0;
#X connect 13 0 12 0;
#X connect 14 0 7 0;
#X connect 16 0 6 0;
#X connect 17 0 6 0;
#X restore 12 99 pd gui.stuff;
#X obj 170 18 r \$1.sample.control;
#X obj 170 41 route \$2;
#X obj 11 161 table \$1-\$2/overview 1200;
#X obj 245 261 list prepend \$2;
#X obj 245 284 s \$1.sample.info;
#N canvas 0 106 636 388 display.stuff 0;
#X msg 82 235 update \$1 \$2;
#X obj 82 104 unpack f f;
#X obj 82 127 t a a;
#X obj 124 157 +;
#X obj 82 186 pack f f;
#X obj 24 79 route length updated;
#X msg 24 210 range 0 \$1;
#X obj 24 29 r \$1.sample.info;
#X obj 24 52 route \$2;
#X obj 24 269 t a a;
#X obj 197 18 r \$1-\$2/overview;
#X obj 197 128 s \$1.wav.ov;
#X obj 197 105 spigot;
#X text 331 332 cache overview locally;
#X obj 230 42 r \$1.selected.instance;
#X obj 230 73 == \$2;
#X obj 298 131 r \$1.scale.ov;
#X obj 298 179 spigot;
#X obj 298 202 list prepend \$1 \$2;
#X msg 298 225 display \$1.wav.ov \, scale \$3 \, display \$1-\$2/overview
;
#X obj 51 298 rh_wavedisplay \$1-\$2/sample/l-table \$1-\$2/preview
;
#X obj 24 332 rh_wavedisplay \$1-\$2/sample/l-table \$1-\$2/overview
;
#X obj 196 216 inlet;
#X msg 196 239 update;
#X connect 0 0 9 0;
#X connect 1 0 2 0;
#X connect 1 1 3 1;
#X connect 2 0 4 0;
#X connect 2 1 3 0;
#X connect 3 0 4 1;
#X connect 4 0 0 0;
#X connect 5 0 6 0;
#X connect 5 1 1 0;
#X connect 6 0 9 0;
#X connect 7 0 8 0;
#X connect 8 0 5 0;
#X connect 9 0 21 0;
#X connect 9 1 20 0;
#X connect 10 0 12 0;
#X connect 12 0 11 0;
#X connect 14 0 15 0;
#X connect 15 0 12 1;
#X connect 15 0 17 1;
#X connect 16 0 17 0;
#X connect 17 0 18 0;
#X connect 18 0 19 0;
#X connect 19 0 21 0;
#X connect 22 0 23 0;
#X connect 23 0 9 0;
#X restore 11 223 pd display.stuff;
#X obj 170 91 t a a a, f 13;
#X obj 207 147 route length;
#X obj 170 117 route updated;
#X obj 170 176 +;
#X obj 170 200 sel;
#X msg 170 225 done;
#X obj 13 20 hsl 95 60 0 127 0 0 \$0.button empty empty -2 -8 0 10
-262144 -1 -1 0 1;
#X obj 10 21 cnv 15 100 50 empty \$0.background.hl empty 20 12 0 14
-195568 -1 0;
#N canvas 0 50 450 250 (subpatch) 0;
#X array \$1-\$2/preview 200 float 2;
#X coords 0 1 200 -1 100 50 1 0 0;
#X restore 10 20 graph;
#X obj 13 70 hsl 95 10 0 127 0 0 \$0.bla \$0.background empty -2 -8
0 10 -261689 -261689 -1 0 1;
#X obj 170 68 netpd_sample \$1 \$2/sample/l;
#X obj 330 39 r~ \$1.audio.in.l;
#X obj 450 18 r \$1.sample.control;
#X obj 450 121 route \$2;
#X obj 450 218 netpd_sample \$1 \$2/sample/r;
#X obj 610 189 r~ \$1.audio.in.r;
#X obj 11 198 bng 15 250 50 0 empty empty empty 17 7 0 10 -262144 -1
-1;
#X text 31 195 refresh;
#N canvas 0 139 473 441 params 0;
#X obj 8 12 ripple-sampler-param \$1 \$2 adsr/a 0;
#X obj 8 42 ripple-sampler-param \$1 \$2 adsr/d 0;
#X obj 8 102 ripple-sampler-param \$1 \$2 adsr/r 1;
#X obj 8 72 ripple-sampler-param \$1 \$2 adsr/s 1;
#X obj 56 304 netpd_r \$1 \$2/adsr;
#X obj 56 327 route /a /d /s /r, f 22;
#X obj 10 350 f;
#X obj 10 421 s \$1.set.params;
#X obj 10 258 r \$1.get.params;
#X obj 10 281 route \$2;
#X obj 10 313 b;
#X obj 8 132 ripple-sampler-param \$1 \$2 pitchoffset 60;
#X obj 183 290 netpd_r \$1 \$2/pitchoffset;
#X obj 226 313 netpd_r \$1 \$2/pan;
#X obj 8 162 ripple-sampler-param \$1 \$2 pan 0.5;
#X obj 8 192 ripple-sampler-param \$1 \$2 mode 0;
#X obj 269 337 netpd_r \$1 \$2/mode;
#X obj 8 222 ripple-sampler-param \$1 \$2 recmode 1;
#X obj 313 359 netpd_r \$1 \$2/recmode;
#X obj 10 394 pack f f f f f f f f, f 51;
#X connect 4 0 5 0;
#X connect 5 0 6 1;
#X connect 5 1 19 1;
#X connect 5 2 19 2;
#X connect 5 3 19 3;
#X connect 6 0 19 0;
#X connect 8 0 9 0;
#X connect 9 0 10 0;
#X connect 10 0 6 0;
#X connect 12 0 19 4;
#X connect 13 0 19 5;
#X connect 16 0 19 6;
#X connect 18 0 19 7;
#X connect 19 0 7 0;
#X restore 11 253 pd params;
#X obj 495 45 netpd_r \$1 \$2/recmode;
#X obj 450 95 spigot 0;
#X obj 495 68 t a a;
#X obj 522 94 sel 0;
#X obj 574 96 table \$0.silence 10;
#X obj 522 117 \$0;
#X msg 522 140 loadtable \$1.silence 0 10;
#X connect 2 0 3 0;
#X connect 3 0 18 0;
#X connect 5 0 6 0;
#X connect 8 0 10 0;
#X connect 8 1 9 0;
#X connect 8 2 5 0;
#X connect 9 0 12 1;
#X connect 10 0 11 0;
#X connect 11 0 12 0;
#X connect 12 0 13 0;
#X connect 13 0 5 0;
#X connect 18 0 8 0;
#X connect 19 0 18 1;
#X connect 20 0 28 0;
#X connect 21 0 22 0;
#X connect 23 0 22 1;
#X connect 24 0 7 0;
#X connect 27 0 29 0;
#X connect 28 0 21 0;
#X connect 29 0 28 1;
#X connect 29 1 30 0;
#X connect 30 0 32 0;
#X connect 32 0 33 0;
#X connect 33 0 22 0;
#X coords 0 -1 1 1 100 60 2 10 20;
