#N canvas 352 134 414 494 10;
#X obj 15 48 inlet;
#X obj 15 356 outlet~;
#X obj 77 358 outlet~;
#N canvas 0 106 450 47 NETPD 0;
#X msg 3 13 version 0 1 3;
#X restore 12 10 pd NETPD 2 0;
#N canvas 300 146 647 689 wave.player 0;
#X obj 69 510 vline~;
#X msg 69 484 \$1 \, \$2 \$3;
#X obj 63 18 inlet;
#X msg 63 41 \$2 \$1;
#X obj 63 64 route 0, f 14;
#X obj 63 87 b;
#X msg 144 119 \$2;
#X obj 70 623 outlet~;
#X obj 294 486 outlet;
#X msg 79 569 set \$1;
#X obj 144 142 - 60;
#X obj 69 595 tabread4~;
#X obj 79 546 r \$0.src.table.l;
#X msg 207 576 set \$1;
#X obj 207 603 tabread4~;
#X obj 210 552 r \$0.src.table.r;
#X obj 208 631 outlet~;
#X text 107 41 <velocity> <note>;
#X obj 63 112 s \$0.noteoff;
#N canvas 89 129 544 277 onset 0;
#X obj 14 193 rh_table_segment_player;
#X obj 81 22 r \$0.cue.0;
#X obj 149 22 r \$0.cue.1;
#X obj 14 116 pack f f f, f 23;
#X msg 14 139 oneshot \$2 \$3 \$1;
#X obj 14 22 inlet;
#X obj 14 216 outlet;
#X obj 149 223 outlet;
#X obj 206 146 r \$0.noteon;
#X msg 206 169 stop;
#X obj 284 149 r \$0.noteoff;
#X obj 231 24 r \$0.length;
#X obj 317 29 r \$0.mode;
#X obj 149 89 spigot;
#X obj 231 86 spigot;
#X obj 182 68 == 0;
#X obj 264 64 == 1;
#X connect 0 0 6 0;
#X connect 0 1 7 0;
#X connect 1 0 3 1;
#X connect 2 0 13 0;
#X connect 3 0 4 0;
#X connect 4 0 0 0;
#X connect 5 0 3 0;
#X connect 8 0 9 0;
#X connect 9 0 0 0;
#X connect 11 0 14 0;
#X connect 12 0 15 0;
#X connect 12 0 16 0;
#X connect 13 0 3 2;
#X connect 14 0 3 2;
#X connect 15 0 13 1;
#X connect 16 0 14 1;
#X restore 171 246 pd onset;
#X obj 216 373 f;
#N canvas 119 153 397 350 loop 0;
#X obj 14 183 rh_table_segment_player;
#X obj 14 46 pack f f f, f 23;
#X msg 14 159 oneshot \$2 \$3 \$1;
#X obj 14 22 inlet;
#X obj 14 206 outlet;
#X obj 149 284 outlet;
#X obj 81 22 r \$0.cue.1;
#X obj 149 22 r \$0.cue.2;
#X obj 149 208 f;
#X obj 149 231 sel 0 1;
#X obj 14 134 list append;
#X obj 14 109 t b a;
#X obj 237 216 t b;
#X obj 231 91 r \$0.noteoff;
#X msg 231 185 0;
#X obj 14 69 t a a;
#X msg 164 97 \$2 \$3;
#X obj 164 120 -;
#X obj 164 143 abs;
#X obj 164 166 >= 64;
#X obj 237 24 r \$0.noteon;
#X msg 237 47 stop;
#X obj 246 114 r \$0.mode;
#X obj 231 138 f;
#X obj 231 161 sel 0;
#X obj 275 51 r \$0.stop;
#X connect 0 0 4 0;
#X connect 0 1 8 0;
#X connect 1 0 15 0;
#X connect 2 0 0 0;
#X connect 3 0 1 0;
#X connect 6 0 1 1;
#X connect 7 0 1 2;
#X connect 8 0 9 0;
#X connect 9 0 5 0;
#X connect 9 1 12 0;
#X connect 10 0 2 0;
#X connect 11 0 10 0;
#X connect 11 1 10 1;
#X connect 12 0 10 0;
#X connect 13 0 23 0;
#X connect 14 0 8 1;
#X connect 15 0 11 0;
#X connect 15 1 16 0;
#X connect 16 0 17 0;
#X connect 17 0 18 0;
#X connect 18 0 19 0;
#X connect 19 0 8 1;
#X connect 20 0 21 0;
#X connect 21 0 0 0;
#X connect 22 0 23 1;
#X connect 23 0 24 0;
#X connect 24 0 14 0;
#X connect 25 0 21 0;
#X restore 216 399 pd loop;
#X obj 255 424 f;
#N canvas 129 161 397 187 tail 0;
#X obj 14 113 rh_table_segment_player;
#X obj 14 46 pack f f f, f 23;
#X msg 14 69 oneshot \$2 \$3 \$1;
#X obj 14 22 inlet;
#X obj 14 136 outlet;
#X obj 149 136 outlet;
#X obj 81 22 r \$0.cue.2;
#X obj 149 22 r \$0.length;
#X obj 214 45 r \$0.noteon;
#X msg 214 68 stop;
#X connect 0 0 4 0;
#X connect 0 1 5 0;
#X connect 1 0 2 0;
#X connect 2 0 0 0;
#X connect 3 0 1 0;
#X connect 6 0 1 1;
#X connect 7 0 1 2;
#X connect 8 0 9 0;
#X connect 9 0 0 0;
#X restore 255 449 pd tail;
#X obj 144 165 t a a a, f 21;
#X obj 192 120 s \$0.noteon;
#X obj 144 90 t a b;
#X obj 180 143 r \$0.pitchoffset;
#X obj 249 269 r \$0.mode;
#X text 249 11 Modes:;
#X text 251 29 0: NORMAL;
#X text 252 72 1: ONESHOT;
#X text 252 85 2: LOOP;
#X text 268 44 noteon: play from cue0 to cue1 \, then loop cue1-cue2
;
#X text 268 55 noteoff: play tail from cue2 to sample end;
#X text 323 70 play from cue0 to sample-end;
#X text 322 84 loop between cue1-cue2;
#X obj 216 269 f;
#X obj 216 293 sel 0 1, f 35;
#N canvas 0 106 450 300 skip.loop.on.early.noteoff 0;
#X obj 31 82 f;
#X obj 68 36 r \$0.noteon;
#X obj 144 37 r \$0.noteoff;
#X msg 68 59 1;
#X msg 144 63 0;
#X obj 31 105 sel 1 0, f 13;
#X text 73 86 skip loop if we already received noteoff;
#X obj 31 9 inlet;
#X obj 31 144 outlet;
#X obj 126 147 outlet;
#X connect 0 0 5 0;
#X connect 1 0 3 0;
#X connect 2 0 4 0;
#X connect 3 0 0 1;
#X connect 4 0 0 1;
#X connect 5 0 8 0;
#X connect 5 1 9 0;
#X connect 7 0 0 0;
#X restore 216 328 pd skip.loop.on.early.noteoff;
#X text 268 293 SKIP REST FOR MODE ONESHOT;
#X text 292 193 skip onset in loop mode;
#X obj 144 195 list prepend;
#X obj 226 194 r \$0.mode;
#X obj 144 218 route 2 1 0;
#X connect 0 0 11 0;
#X connect 0 0 14 0;
#X connect 1 0 0 0;
#X connect 2 0 3 0;
#X connect 3 0 4 0;
#X connect 4 0 5 0;
#X connect 4 1 26 0;
#X connect 5 0 18 0;
#X connect 6 0 10 0;
#X connect 9 0 11 0;
#X connect 10 0 24 0;
#X connect 11 0 7 0;
#X connect 12 0 9 0;
#X connect 13 0 14 0;
#X connect 14 0 16 0;
#X connect 15 0 13 0;
#X connect 19 0 1 0;
#X connect 19 1 37 0;
#X connect 20 0 21 0;
#X connect 21 0 1 0;
#X connect 21 1 22 0;
#X connect 22 0 23 0;
#X connect 23 0 1 0;
#X connect 23 1 8 0;
#X connect 24 0 42 0;
#X connect 24 1 20 1;
#X connect 24 2 22 1;
#X connect 26 0 6 0;
#X connect 26 1 25 0;
#X connect 27 0 10 1;
#X connect 28 0 37 1;
#X connect 37 0 38 0;
#X connect 38 0 39 0;
#X connect 38 1 8 0;
#X connect 39 0 20 0;
#X connect 39 1 8 0;
#X connect 42 0 44 0;
#X connect 43 0 42 1;
#X connect 44 0 20 0;
#X connect 44 1 19 0;
#X connect 44 2 19 0;
#X restore 15 159 pd wave.player;
#X obj 163 357 outlet;
#X text 59 46 <note> <velocity> <gid>;
#X obj 15 71 list split 2;
#X obj 49 95 s \$0.instance;
#X obj 150 217 rh_adsr~, f 28;
#N canvas 0 141 1165 357 get.instance.params 0;
#X obj 13 18 r \$0.instance;
#X obj 13 110 list append \$2;
#X obj 194 14 r \$0.instance;
#X obj 194 76 - 1;
#N canvas 0 502 333 165 resolve.cues 0;
#X obj 17 7 inlet;
#X obj 17 54 * 3;
#X obj 17 77 +;
#X obj 17 124 outlet;
#X obj 17 101 tabread \$2-cues;
#X obj 17 30 unpack f f;
#X connect 0 0 5 0;
#X connect 1 0 2 0;
#X connect 2 0 4 0;
#X connect 4 0 3 0;
#X connect 5 0 1 0;
#X connect 5 1 2 1;
#X restore 327 162 pd resolve.cues;
#X msg 327 136 \$1 0;
#X obj 327 187 s \$0.cue.0;
#N canvas 0 436 333 165 resolve.cues 0;
#X obj 17 7 inlet;
#X obj 17 54 * 3;
#X obj 17 77 +;
#X obj 17 124 outlet;
#X obj 17 101 tabread \$2-cues;
#X obj 17 30 unpack f f;
#X connect 0 0 5 0;
#X connect 1 0 2 0;
#X connect 2 0 4 0;
#X connect 4 0 3 0;
#X connect 5 0 1 0;
#X connect 5 1 2 1;
#X restore 427 162 pd resolve.cues;
#N canvas 0 436 333 165 resolve.cues 0;
#X obj 17 7 inlet;
#X obj 17 54 * 3;
#X obj 17 77 +;
#X obj 17 124 outlet;
#X obj 17 101 tabread \$2-cues;
#X obj 17 30 unpack f f;
#X connect 0 0 5 0;
#X connect 1 0 2 0;
#X connect 2 0 4 0;
#X connect 4 0 3 0;
#X connect 5 0 1 0;
#X connect 5 1 2 1;
#X restore 528 162 pd resolve.cues;
#X msg 427 136 \$1 1;
#X msg 528 136 \$1 2;
#X obj 427 187 s \$0.cue.1;
#X obj 528 187 s \$0.cue.2;
#X obj 194 122 s \$0.length;
#X obj 194 99 tabread \$2.lengths;
#X obj 13 81 + 1;
#X obj 327 106 + 1;
#X obj 427 106 + 1;
#X obj 528 109 + 1;
#X obj 656 107 t b a;
#X obj 656 180 list append;
#X obj 683 130 s \$2.get.params;
#X obj 687 154 r \$2.set.params;
#X obj 656 326 s \$0.adsr;
#X obj 656 298 pack f f f f, f 36;
#X obj 656 228 t a a;
#X obj 656 251 *;
#X obj 727 228 t a a;
#X obj 727 251 *;
#X obj 798 228 t a a;
#X obj 798 251 *;
#X obj 869 228 t a a;
#X obj 869 251 *;
#X obj 656 274 * 10000;
#X obj 727 274 * 30000;
#X obj 869 274 * 30000;
#X obj 656 77 + 1;
#X msg 13 207 symbol \$2-\$1/sample/l-table;
#X obj 13 232 s \$0.src.table.l;
#X obj 40 181 s \$0.src.table.r;
#X msg 40 156 symbol \$2-\$1/sample/r-table;
#X obj 13 133 t a a;
#X obj 327 76 t a a a, f 34;
#X obj 656 203 unpack f f f f f f f, f 72;
#X obj 942 287 s \$0.pitchoffset;
#X obj 1013 264 s \$0.pan;
#X obj 1085 230 s \$0.mode;
#X obj 194 37 t a a a, f 67;
#X connect 0 0 15 0;
#X connect 1 0 41 0;
#X connect 2 0 47 0;
#X connect 3 0 14 0;
#X connect 4 0 6 0;
#X connect 5 0 4 0;
#X connect 7 0 11 0;
#X connect 8 0 12 0;
#X connect 9 0 7 0;
#X connect 10 0 8 0;
#X connect 14 0 13 0;
#X connect 15 0 1 0;
#X connect 16 0 5 0;
#X connect 17 0 9 0;
#X connect 18 0 10 0;
#X connect 19 0 20 0;
#X connect 19 1 21 0;
#X connect 20 0 43 0;
#X connect 22 0 20 1;
#X connect 24 0 23 0;
#X connect 25 0 26 0;
#X connect 25 1 26 1;
#X connect 26 0 33 0;
#X connect 27 0 28 0;
#X connect 27 1 28 1;
#X connect 28 0 34 0;
#X connect 29 0 30 0;
#X connect 29 1 30 1;
#X connect 30 0 24 2;
#X connect 31 0 32 0;
#X connect 31 1 32 1;
#X connect 32 0 35 0;
#X connect 33 0 24 0;
#X connect 34 0 24 1;
#X connect 35 0 24 3;
#X connect 36 0 19 0;
#X connect 37 0 38 0;
#X connect 40 0 39 0;
#X connect 41 0 37 0;
#X connect 41 1 40 0;
#X connect 42 0 16 0;
#X connect 42 1 17 0;
#X connect 42 2 18 0;
#X connect 43 0 25 0;
#X connect 43 1 27 0;
#X connect 43 2 29 0;
#X connect 43 3 31 0;
#X connect 43 4 44 0;
#X connect 43 5 45 0;
#X connect 43 6 46 0;
#X connect 47 0 3 0;
#X connect 47 1 42 0;
#X connect 47 2 36 0;
#X restore 148 96 pd get.instance.params;
#X obj 234 142 r \$0.adsr;
#X obj 234 165 unpack f f f f;
#X obj 15 118 t a a;
#X obj 150 146 / 127;
#X obj 150 169 t a a;
#X obj 150 192 *;
#X obj 16 268 *~;
#X obj 163 288 &&;
#X obj 170 263 t b a;
#X msg 150 122 \$2;
#X obj 76 268 *~;
#X obj 163 311 t a a, f 10;
#N canvas 0 106 450 300 pan 0;
#X obj 115 118 cos;
#X obj 215 122 atan;
#X msg 215 101 1;
#X obj 215 144 * 2;
#X obj 115 73 *;
#X obj 142 117 sin;
#X obj 215 80 loadbang;
#X obj 115 95 t a a;
#X obj 5 21 inlet~;
#X obj 3 206 outlet~;
#X obj 56 209 outlet~;
#X obj 4 153 *~ 0;
#X obj 56 158 *~ 0;
#X obj 115 42 r \$0.pan;
#X connect 0 0 11 1;
#X connect 1 0 3 0;
#X connect 2 0 1 0;
#X connect 3 0 4 1;
#X connect 4 0 7 0;
#X connect 5 0 12 1;
#X connect 6 0 2 0;
#X connect 7 0 0 0;
#X connect 7 1 5 0;
#X connect 8 0 11 0;
#X connect 8 0 12 0;
#X connect 11 0 9 0;
#X connect 12 0 10 0;
#X connect 13 0 4 0;
#X restore 85 242 pd pan;
#X obj 283 261 sel 0;
#X obj 283 284 s \$0.stop;
#X connect 0 0 7 0;
#X connect 4 0 17 0;
#X connect 4 1 21 0;
#X connect 4 2 18 0;
#X connect 7 0 13 0;
#X connect 7 1 8 0;
#X connect 9 0 23 0;
#X connect 9 1 19 0;
#X connect 9 1 24 0;
#X connect 11 0 12 0;
#X connect 12 0 9 1;
#X connect 12 1 9 2;
#X connect 12 2 9 3;
#X connect 12 3 9 4;
#X connect 13 0 4 0;
#X connect 13 1 20 0;
#X connect 14 0 15 0;
#X connect 15 0 16 0;
#X connect 15 1 16 1;
#X connect 16 0 9 0;
#X connect 17 0 1 0;
#X connect 18 0 22 0;
#X connect 19 0 18 0;
#X connect 19 1 18 1;
#X connect 20 0 14 0;
#X connect 21 0 2 0;
#X connect 22 0 5 0;
#X connect 23 0 17 1;
#X connect 23 1 21 1;
#X connect 24 0 25 0;
