#N canvas 857 312 383 279 10;
#N canvas 881 53 519 467 display-stuff 0;
#X obj 225 6 inlet;
#X obj 366 10 inlet;
#X msg 225 201 label \$1;
#X obj 225 81 * 10;
#X obj 225 101 int;
#X obj 225 120 * 0.1;
#X msg 299 299 symbol empty;
#X msg 366 208 label \$1;
#X obj 366 88 * 10;
#X obj 366 108 int;
#X obj 366 127 * 0.1;
#X obj 30 129 t b f;
#X obj 30 149 100;
#X obj 30 169 -;
#X obj 52 274 s \$0-dumping;
#X obj 52 229 * 4;
#X obj 30 85 change;
#X msg 52 252 vis_size \$1 12;
#X obj 30 332 * -1;
#X msg 113 417 label \$1;
#X obj 113 439 s \$0-vissw-r;
#X obj 30 353 int;
#X obj 113 122 symbol empty;
#X obj 30 105 f;
#X obj 112 73 sel 1 0;
#X obj 112 19 r \$0-vissw-s;
#X obj 52 206 min 22;
#X obj 52 178 0;
#X obj 30 7 inlet;
#X obj 112 41 t b f f;
#X obj 30 65 spigot;
#X obj 43 42 100;
#N canvas 894 507 178 279 speedlimit 0;
#X obj 117 59 inlet;
#X obj 11 256 outlet;
#X obj 117 106 >;
#X obj 117 126 sel 1;
#X obj 117 146 f;
#X obj 117 86 t f f;
#X obj 117 166 t f f;
#X obj 12 18 r \$0-vissw-s;
#X obj 11 224 f;
#X obj 12 43 metro 333;
#X obj 12 66 t b b;
#X obj 24 177 0;
#X connect 0 0 5 0;
#X connect 2 0 3 0;
#X connect 3 0 4 0;
#X connect 4 0 6 0;
#X connect 5 0 2 0;
#X connect 5 1 4 1;
#X connect 6 0 8 1;
#X connect 6 1 2 1;
#X connect 7 0 9 0;
#X connect 8 0 1 0;
#X connect 9 0 10 0;
#X connect 10 0 11 0;
#X connect 10 1 8 0;
#X connect 11 0 2 1;
#X connect 11 0 8 1;
#X restore 30 301 pd speedlimit;
#X obj 225 221 s \$1-\$2/threshold;
#X obj 366 228 s \$1-\$2/level;
#X obj 225 139 makefilename %5d;
#X msg 225 158 symbol threshold:\$1dB;
#X obj 30 374 makefilename %3ddB;
#X msg 366 167 symbol outceiling:\$1dB;
#X obj 366 146 makefilename %4d;
#X obj 30 28 + 100;
#X connect 0 0 3 0;
#X connect 1 0 8 0;
#X connect 2 0 33 0;
#X connect 3 0 4 0;
#X connect 4 0 5 0;
#X connect 5 0 35 0;
#X connect 6 0 2 0;
#X connect 6 0 7 0;
#X connect 7 0 34 0;
#X connect 8 0 9 0;
#X connect 9 0 10 0;
#X connect 10 0 39 0;
#X connect 11 0 12 0;
#X connect 11 1 13 1;
#X connect 12 0 13 0;
#X connect 13 0 26 0;
#X connect 13 0 32 0;
#X connect 15 0 17 0;
#X connect 16 0 23 0;
#X connect 17 0 14 0;
#X connect 18 0 21 0;
#X connect 19 0 20 0;
#X connect 21 0 37 0;
#X connect 22 0 19 0;
#X connect 23 0 11 0;
#X connect 24 0 23 0;
#X connect 24 1 22 0;
#X connect 24 1 27 0;
#X connect 25 0 29 0;
#X connect 26 0 15 0;
#X connect 27 0 26 0;
#X connect 28 0 40 0;
#X connect 29 0 31 0;
#X connect 29 1 30 1;
#X connect 29 2 24 0;
#X connect 30 0 16 0;
#X connect 31 0 30 0;
#X connect 32 0 18 0;
#X connect 35 0 36 0;
#X connect 36 0 2 0;
#X connect 37 0 19 0;
#X connect 38 0 7 0;
#X connect 39 0 38 0;
#X connect 40 0 30 0;
#X restore 108 191 pd display-stuff;
#N canvas 904 329 156 60 \$3-rlimit 1;
#X obj 4 3 cnv 15 137 46 empty empty empty 20 20 0 14 -1 -62784 0;
#X obj 9 19 hsl 128 14 -30 0 0 0 \$1-\$2/level \$1-\$2/level outceiling:   0dB
8 7 0 10 -214293 -1 -262144 12700 1;
#X obj 9 5 hsl 128 14 -30 0 0 0 \$1-\$2/threshold \$1-\$2/threshold
threshold:    0dB 8 7 0 10 -193618 -1 -262144 12700 1;
#X obj 49 34 cnv 1 1 12 empty \$0-dumping empty 20 12 0 14 -235423
-66577 0;
#X obj 6 33 tgl 14 0 \$0-vissw-s \$0-vissw-r empty 40 8 0 10 -227231
-1 -262144 0 1;
#X restore 270 146 pd \$3-rlimit;
#N canvas 464 633 287 152 NETPD 0;
#X msg 97 86 version 0 1 5;
#X restore 270 168 pd NETPD 2 0;
#X obj 21 42 inlet~;
#X obj 63 42 inlet~;
#X obj 21 245 outlet~;
#X obj 63 220 outlet~;
#X obj 164 64 netpd_f \$1 \$2/level 0;
#X obj 126 31 netpd_f \$1 \$2/threshold 0;
#X obj 21 153 dynlib_limiter~;
#X msg 87 86 threshold \$1;
#X msg 145 113 outceiling \$1;
#X connect 3 0 9 0;
#X connect 4 0 9 1;
#X connect 7 0 0 2;
#X connect 7 0 11 0;
#X connect 8 0 0 1;
#X connect 8 0 10 0;
#X connect 9 0 5 0;
#X connect 9 1 6 0;
#X connect 9 2 0 0;
#X connect 10 0 9 2;
#X connect 11 0 9 2;
