#N canvas 524 437 427 385 10;
#N canvas 139 400 538 388 processing 0;
#X obj 7 300 *~;
#N canvas 251 397 368 402 amp-factor 0;
#X obj 19 22 inlet~;
#X obj 186 277 dbtorms~;
#X obj 91 336 outlet~;
#X obj 19 68 rmstodb~;
#X text 18 4 Signal;
#X text 138 335 Factor in RMS;
#X obj 155 59 + 100;
#X obj 201 193 -~;
#X obj 155 102 sig~;
#X obj 202 216 +~ 100;
#X obj 121 177 >~;
#X obj 186 244 *~;
#X obj 155 26 inlet threshold;
#X obj 91 220 *~ -1;
#X obj 90 246 +~ 1;
#X connect 0 0 3 0;
#X connect 1 0 2 0;
#X connect 3 0 7 1;
#X connect 3 0 10 0;
#X connect 6 0 8 0;
#X connect 7 0 9 0;
#X connect 8 0 7 0;
#X connect 8 0 10 1;
#X connect 9 0 11 1;
#X connect 10 0 11 0;
#X connect 10 0 13 0;
#X connect 11 0 1 0;
#X connect 12 0 6 0;
#X connect 13 0 14 0;
#X connect 14 0 2 0;
#X restore 136 185 pd amp-factor;
#X obj 7 31 inlet~;
#X obj 7 350 outlet~;
#X obj 288 26 inlet threshold;
#X obj 64 300 *~;
#X obj 66 36 inlet~;
#X obj 64 350 outlet~;
#N canvas 320 492 534 384 att-rel-filtering 0;
#X obj 22 26 inlet~;
#X text 67 26 amp-factor;
#X obj 21 235 outlet~;
#X obj 22 195 lop~ 1000;
#X connect 0 0 3 0;
#X connect 3 0 2 0;
#X restore 137 217 pd att-rel-filtering;
#N canvas 643 313 304 204 takemax~ 0;
#X obj 148 53 <~;
#X obj 12 79 *~;
#X obj 135 75 *~;
#X obj 25 56 >~;
#X obj 12 14 inlet~;
#X obj 67 15 inlet~;
#X obj 29 113 outlet~;
#X obj 73 53 ==~;
#X obj 60 74 *~;
#X connect 0 0 2 1;
#X connect 1 0 6 0;
#X connect 2 0 6 0;
#X connect 3 0 1 1;
#X connect 4 0 1 0;
#X connect 4 0 0 0;
#X connect 4 0 3 0;
#X connect 4 0 7 0;
#X connect 4 0 8 0;
#X connect 5 0 2 0;
#X connect 5 0 0 1;
#X connect 5 0 3 1;
#X connect 5 0 7 1;
#X connect 7 0 8 1;
#X connect 8 0 6 0;
#X restore 137 131 pd takemax~;
#X obj 136 109 abs~;
#X obj 198 110 abs~;
#X text 16 178 delay 1ms;
#X obj 428 30 inlet level;
#X obj 138 270 *~;
#X obj 288 144 - 100;
#X obj 288 167 * -1;
#X obj 288 205 +;
#X obj 328 169 t b f;
#X obj 288 226 dbtorms;
#N canvas 635 269 362 593 maxhold~ 0;
#X obj 148 154 - 1;
#X obj 32 193 f;
#X obj 57 175 t b f;
#X obj 57 256 f;
#X obj 32 79 t b f f;
#X obj 32 134 f 1;
#X obj 48 224 t b f;
#X obj 32 154 sel 1;
#X obj 230 163 moses 0;
#X obj 33 278 f;
#X obj 32 56 drip;
#X obj 32 35 pack~;
#X obj 32 15 inlet~;
#X obj 31 544 outlet~;
#X obj 31 500 repack;
#X obj 31 522 unpack~;
#X text 91 101 must be at least the same as the delay;
#X obj 147 176 400;
#X obj 34 342 >;
#X obj 34 363 sel 0 1;
#X obj 34 320 t f f;
#X obj 34 413 f;
#X obj 79 386 f;
#X obj 61 445 f;
#X obj 61 466 t f f;
#X obj 61 412 * 0.999;
#X connect 0 0 5 1;
#X connect 1 0 6 0;
#X connect 1 0 9 0;
#X connect 2 0 3 0;
#X connect 2 1 0 0;
#X connect 3 0 9 0;
#X connect 4 0 5 0;
#X connect 4 1 8 0;
#X connect 4 2 1 1;
#X connect 5 0 7 0;
#X connect 6 0 17 0;
#X connect 6 1 3 1;
#X connect 6 1 8 1;
#X connect 7 0 1 0;
#X connect 7 1 2 0;
#X connect 8 1 6 0;
#X connect 9 0 20 0;
#X connect 10 0 4 0;
#X connect 11 0 10 0;
#X connect 12 0 11 0;
#X connect 14 0 15 0;
#X connect 15 0 13 0;
#X connect 17 0 5 1;
#X connect 18 0 19 0;
#X connect 19 0 21 0;
#X connect 19 1 22 0;
#X connect 20 0 18 0;
#X connect 20 1 22 1;
#X connect 21 0 25 0;
#X connect 22 0 21 1;
#X connect 22 0 23 0;
#X connect 23 0 24 0;
#X connect 24 0 14 0;
#X connect 24 1 18 1;
#X connect 25 0 21 1;
#X connect 25 0 23 0;
#X restore 137 154 pd maxhold~ 100;
#X obj 8 198 z~ 80;
#X obj 65 199 z~ 80;
#X obj 198 276 env~ 6000;
#X obj 198 346 outlet;
#X connect 0 0 3 0;
#X connect 1 0 8 0;
#X connect 2 0 10 0;
#X connect 2 0 21 0;
#X connect 4 0 1 1;
#X connect 4 0 15 0;
#X connect 5 0 7 0;
#X connect 6 0 11 0;
#X connect 6 0 22 0;
#X connect 8 0 14 0;
#X connect 8 0 23 0;
#X connect 9 0 20 0;
#X connect 10 0 9 0;
#X connect 11 0 9 1;
#X connect 13 0 18 0;
#X connect 14 0 5 1;
#X connect 14 0 0 1;
#X connect 15 0 16 0;
#X connect 16 0 17 0;
#X connect 17 0 19 0;
#X connect 18 0 17 0;
#X connect 18 1 17 1;
#X connect 19 0 14 1;
#X connect 20 0 1 0;
#X connect 21 0 0 0;
#X connect 22 0 5 0;
#X connect 23 0 24 0;
#X restore 21 223 pd processing;
#X obj 21 15 r~ \$2-l;
#X obj 45 36 r~ \$2-r;
#X obj 21 335 throw~ \$2-l;
#X obj 56 307 throw~ \$2-r;
#N canvas 380 496 519 467 display-stuff 0;
#X obj 225 6 inlet;
#X obj 366 10 inlet;
#X msg 225 201 label \$1;
#X obj 225 139 makesymbol %sdB;
#X obj 225 81 * 10;
#X obj 225 101 int;
#X obj 225 120 * 0.1;
#X obj 225 180 list2symbol;
#X msg 299 299 symbol empty;
#X msg 366 208 label \$1;
#X obj 366 88 * 10;
#X obj 366 108 int;
#X obj 366 127 * 0.1;
#X obj 366 187 list2symbol;
#X obj 30 129 t b f;
#X obj 30 149 100;
#X obj 30 169 -;
#X obj 52 274 s \$0-dumping;
#X obj 52 229 * 4;
#X obj 30 85 change;
#X msg 52 252 vis_size \$1 12;
#X obj 30 332 * -1;
#X obj 30 374 makesymbol %sdB;
#X msg 113 417 label \$1;
#X obj 113 439 s \$0-vissw-r;
#X obj 30 353 int;
#X obj 113 122 symbol empty;
#X obj 30 105 f;
#X obj 112 73 sel 1 0;
#X obj 112 19 r \$0-vissw-s;
#X obj 52 206 min 22;
#X obj 52 178 0;
#X obj 238 50 r \$2-rlthr-s;
#X obj 225 221 s \$2-rlthr-r;
#X obj 377 57 r \$2-rllvl-s;
#X obj 366 228 s \$2-rllvl-r;
#X msg 225 158 list threshold: \$1;
#X obj 366 146 makesymbol %sdB;
#X msg 366 167 list out ceiling: \$1;
#X obj 30 7 inlet;
#X obj 112 41 t b f f;
#X obj 30 65 spigot;
#X obj 43 42 100;
#N canvas 894 507 178 279 speedlimit 0;
#X obj 117 59 inlet;
#X obj 11 256 outlet;
#X obj 117 106 >;
#X obj 117 126 sel 1;
#X obj 117 146 f;
#X obj 117 86 t f f;
#X obj 117 166 t f f;
#X obj 12 18 r \$0-vissw-s;
#X obj 11 224 f;
#X obj 12 43 metro 333;
#X obj 12 66 t b b;
#X obj 24 177 0;
#X connect 0 0 5 0;
#X connect 2 0 3 0;
#X connect 3 0 4 0;
#X connect 4 0 6 0;
#X connect 5 0 2 0;
#X connect 5 1 4 1;
#X connect 6 0 8 1;
#X connect 6 1 2 1;
#X connect 7 0 9 0;
#X connect 8 0 1 0;
#X connect 9 0 10 0;
#X connect 10 0 11 0;
#X connect 10 1 8 0;
#X connect 11 0 2 1;
#X connect 11 0 8 1;
#X restore 30 301 pd speedlimit;
#X connect 0 0 4 0;
#X connect 1 0 10 0;
#X connect 2 0 33 0;
#X connect 3 0 36 0;
#X connect 4 0 5 0;
#X connect 5 0 6 0;
#X connect 6 0 3 0;
#X connect 7 0 2 0;
#X connect 8 0 2 0;
#X connect 8 0 9 0;
#X connect 9 0 35 0;
#X connect 10 0 11 0;
#X connect 11 0 12 0;
#X connect 12 0 37 0;
#X connect 13 0 9 0;
#X connect 14 0 15 0;
#X connect 14 1 16 1;
#X connect 15 0 16 0;
#X connect 16 0 30 0;
#X connect 16 0 43 0;
#X connect 18 0 20 0;
#X connect 19 0 27 0;
#X connect 20 0 17 0;
#X connect 21 0 25 0;
#X connect 22 0 23 0;
#X connect 23 0 24 0;
#X connect 25 0 22 0;
#X connect 26 0 23 0;
#X connect 27 0 14 0;
#X connect 28 0 27 0;
#X connect 28 1 26 0;
#X connect 28 1 31 0;
#X connect 29 0 40 0;
#X connect 30 0 18 0;
#X connect 31 0 30 0;
#X connect 32 0 4 0;
#X connect 34 0 10 0;
#X connect 36 0 7 0;
#X connect 37 0 38 0;
#X connect 38 0 13 0;
#X connect 39 0 41 0;
#X connect 40 0 42 0;
#X connect 40 1 41 1;
#X connect 40 2 28 0;
#X connect 41 0 19 0;
#X connect 42 0 41 0;
#X connect 43 0 21 0;
#X restore 136 283 pd display-stuff;
#X msg 276 217 version 0.1.0;
#X obj 132 77 netpd-fx \$1 \$2-rlthr-s \$2-rlthr-r 0;
#X obj 174 102 netpd-fx \$1 \$2-rllvl-s \$2-rllvl-r 0;
#N canvas 1036 136 144 56 mx.amp-rlimit-gui 1;
#X obj -26 3 cnv 15 137 46 empty empty empty 20 -3 0 14 -1 -62784 0
;
#X obj -21 19 hsl 128 14 -30 0 0 0 \$2-rllvl-s \$2-rllvl-r empty 8
7 1 7 -214293 -1 -262144 12700 1;
#X obj -21 5 hsl 128 14 -30 0 0 0 \$2-rlthr-s \$2-rlthr-r empty 8 7
1 7 -193618 -1 -262144 0 1;
#X obj 19 34 cnv 1 1 12 empty \$0-dumping empty 20 12 0 14 -235423
-66577 0;
#X obj -24 33 tgl 14 0 \$0-vissw-s \$0-vissw-r 0dB 16 7 1 7 -227231
-1 -262144 1 1;
#X restore 257 41 pd \$2-rlimit-gui;
#X connect 0 0 3 0;
#X connect 0 1 4 0;
#X connect 0 2 5 0;
#X connect 1 0 0 0;
#X connect 2 0 0 1;
#X connect 7 0 5 1;
#X connect 7 0 0 2;
#X connect 8 0 5 2;
#X connect 8 0 0 3;
