#N canvas 490 236 587 541 10;
#X obj 77 500 delwrite~ \$0-fildelr 5000;
#X obj 10 519 delwrite~ \$0-fildell 5000;
#X obj 10 158 delread~ \$0-fildell;
#X obj 77 185 delread~ \$0-fildelr;
#X obj 224 97 loadbang;
#X obj 10 134 *;
#X obj 19 101 t b f;
#X obj 77 137 *;
#X obj 77 104 t b f;
#X obj 88 51 + 1;
#X obj 154 71 + 1;
#X obj 10 255 *~;
#X obj 77 256 *~;
#X obj 10 354 *~;
#X obj 48 355 *~;
#X obj 77 354 *~;
#X obj 104 354 *~;
#X obj 229 280 * -1;
#X obj 229 301 + 1;
#X obj 10 462 *~;
#X obj 77 462 *~;
#X obj 10 431 bp~;
#X obj 77 435 bp~;
#X obj 144 396 mtof;
#X obj 144 355 * 80;
#X obj 144 375 + 47;
#X obj 218 398 + 1;
#X obj 218 377 * 4;
#X obj 218 442 +;
#X obj 218 420 * 0.4;
#X obj 88 74 s \$0-timel;
#X obj 154 94 s \$0-timer;
#X obj 199 299 f;
#X obj 181 228 f;
#N canvas 182 380 849 334 display-stuff 0;
#X obj 192 4 inlet;
#X obj 333 8 inlet;
#X obj 459 10 inlet;
#X msg 354 285 symbol empty;
#X obj 459 107 int;
#X obj 605 8 inlet;
#X obj 735 13 inlet;
#X msg 735 210 label \$1;
#X obj 735 158 * 0.1;
#X obj 30 7 inlet;
#X obj 30 70 + 1;
#X obj 192 79 + 1;
#X obj 459 87 * 100;
#X obj 605 141 mtof;
#X obj 605 100 * 80;
#X obj 605 120 + 47;
#X obj 605 80 * 1;
#X obj 605 161 int;
#X obj 735 67 * 4;
#X obj 735 87 + 1;
#X obj 735 112 * 10;
#X obj 735 134 int;
#X msg 30 190 label \$1/16;
#X obj 30 227 s \$1-\$2/til;
#X msg 192 194 label \$1/16;
#X msg 459 207 label \$1%;
#X obj 192 230 s \$1-\$2/tir;
#X obj 459 227 s \$1-\$2/fb;
#X msg 605 208 label \$1Hz;
#X obj 605 228 s \$1-\$2/fr;
#X obj 735 185 makefilename %s;
#X obj 735 230 s \$1-\$2/q;
#X obj 333 94 sel 0;
#X obj 358 116 b;
#X msg 358 139 symbol cross;
#X msg 333 160 symbol straight;
#X msg 333 182 label \$1;
#X obj 333 203 s \$0-routetype;
#X connect 0 0 11 0;
#X connect 1 0 32 0;
#X connect 2 0 12 0;
#X connect 3 0 24 0;
#X connect 3 0 25 0;
#X connect 3 0 28 0;
#X connect 3 0 7 0;
#X connect 3 0 22 0;
#X connect 4 0 25 0;
#X connect 5 0 16 0;
#X connect 6 0 18 0;
#X connect 7 0 31 0;
#X connect 8 0 30 0;
#X connect 9 0 10 0;
#X connect 10 0 22 0;
#X connect 11 0 24 0;
#X connect 12 0 4 0;
#X connect 13 0 17 0;
#X connect 14 0 15 0;
#X connect 15 0 13 0;
#X connect 16 0 14 0;
#X connect 17 0 28 0;
#X connect 18 0 19 0;
#X connect 19 0 20 0;
#X connect 20 0 21 0;
#X connect 21 0 8 0;
#X connect 22 0 23 0;
#X connect 24 0 26 0;
#X connect 25 0 27 0;
#X connect 28 0 29 0;
#X connect 30 0 7 0;
#X connect 32 0 35 0;
#X connect 32 1 33 0;
#X connect 33 0 34 0;
#X connect 34 0 36 0;
#X connect 35 0 36 0;
#X connect 36 0 37 0;
#X restore 350 192 pd display-stuff;
#X obj 368 40 netpd_f \$1 \$2/tir 2;
#X obj 387 61 netpd_f \$1 \$2/rt 0;
#X obj 350 18 netpd_f \$1 \$2/til 2;
#X obj 405 81 netpd_f \$1 \$2/fb 0;
#X obj 424 100 netpd_f \$1 \$2/fr 1;
#X obj 443 120 netpd_f \$1 \$2/q 0;
#X obj 88 27 netpd_r \$1 \$2/til;
#X obj 154 50 netpd_r \$1 \$2/tir;
#X obj 199 254 netpd_r \$1 \$2/rt;
#X obj 181 208 netpd_r \$1 \$2/fb;
#X obj 144 335 netpd_r \$1 \$2/fr;
#X obj 218 357 netpd_r \$1 \$2/q;
#X obj 101 273 inlet~;
#X obj 149 273 inlet~;
#X obj 27 215 outlet~;
#X obj 100 215 outlet~;
#X msg 224 119 refresh;
#X obj 224 148 s master;
#X obj 10 45 route 16th;
#X obj 10 20 r master;
#N canvas 768 354 257 121 \$3-rodel 0;
#X obj 8 0 cnv 15 45 106 empty empty empty 20 12 1 7 -162560 -66577
0;
#X obj 194 0 cnv 15 45 106 empty empty empty 20 12 0 14 -162560 -66577
0;
#X obj 55 0 cnv 10 137 106 empty empty empty 20 12 0 14 -355 -66577
0;
#X obj 56 6 hradio 15 1 0 9 \$1-\$2/til \$1-\$2/til empty/16 142 7
1 7 -162560 -1 -1 6;
#X obj 56 25 hradio 15 1 0 9 \$1-\$2/tir \$1-\$2/tir empty/16 142 7
1 7 -162560 -1 -1 4;
#X obj 56 44 tgl 14 0 \$1-\$2/rt \$1-\$2/rt routing -37 7 1 7 -162560
-1 -1 1 1;
#X obj 59 62 hsl 130 10 0 1 0 0 \$1-\$2/fb \$1-\$2/fb empty% 140 5
1 7 -162560 -1 -1 8400 1;
#X obj 59 76 hsl 130 10 0 1 0 0 \$1-\$2/fr \$1-\$2/fr emptyHz 140 5
1 7 -162560 -1 -1 6300 1;
#X obj 59 90 hsl 130 10 0 1 0 0 \$1-\$2/q \$1-\$2/q empty 140 5 1 7
-162560 -1 -1 5100 1;
#X obj 73 45 cnv 10 50 12 empty \$0-routetype cross 7 6 1 7 -162560
-66577 0;
#X obj 37 10 cnv 10 10 10 empty empty left 0 5 1 7 -162560 -66577 0
;
#X obj 29 29 cnv 10 10 10 empty empty right 0 4 1 7 -162560 -66577
0;
#X obj 12 63 cnv 10 10 10 empty empty feedback 0 4 1 7 -162560 -66577
0;
#X obj 32 77 cnv 10 10 10 empty empty freq 0 4 1 7 -162560 -66577 0
;
#X obj 43 90 cnv 10 10 10 empty empty q 0 4 1 7 -162560 -66577 0;
#X restore 350 292 pd \$3-rodel;
#N canvas 873 274 217 118 NETPD 0;
#X msg -132 7 version 0 2 0;
#X restore 350 269 pd NETPD 2 0;
#X connect 2 0 11 0;
#X connect 2 0 49 0;
#X connect 3 0 12 0;
#X connect 3 0 50 0;
#X connect 4 0 51 0;
#X connect 5 0 2 0;
#X connect 6 0 5 0;
#X connect 6 1 5 1;
#X connect 7 0 3 0;
#X connect 8 0 7 0;
#X connect 8 1 7 1;
#X connect 9 0 6 0;
#X connect 9 0 30 0;
#X connect 10 0 8 0;
#X connect 10 0 31 0;
#X connect 11 0 13 0;
#X connect 11 0 14 0;
#X connect 12 0 15 0;
#X connect 12 0 16 0;
#X connect 13 0 21 0;
#X connect 14 0 22 0;
#X connect 15 0 21 0;
#X connect 16 0 22 0;
#X connect 17 0 18 0;
#X connect 18 0 13 1;
#X connect 18 0 16 1;
#X connect 19 0 1 0;
#X connect 20 0 0 0;
#X connect 21 0 19 0;
#X connect 22 0 20 0;
#X connect 23 0 21 1;
#X connect 23 0 22 1;
#X connect 24 0 25 0;
#X connect 25 0 23 0;
#X connect 26 0 22 2;
#X connect 26 0 21 2;
#X connect 26 0 29 0;
#X connect 27 0 26 0;
#X connect 28 0 19 1;
#X connect 28 0 20 1;
#X connect 29 0 28 0;
#X connect 32 0 14 1;
#X connect 32 0 15 1;
#X connect 33 0 11 1;
#X connect 33 0 12 1;
#X connect 35 0 34 1;
#X connect 36 0 34 2;
#X connect 37 0 34 0;
#X connect 38 0 34 3;
#X connect 39 0 34 4;
#X connect 40 0 34 5;
#X connect 41 0 9 0;
#X connect 42 0 10 0;
#X connect 43 0 17 0;
#X connect 43 0 32 0;
#X connect 44 0 33 0;
#X connect 45 0 24 0;
#X connect 46 0 27 0;
#X connect 47 0 13 0;
#X connect 47 0 14 0;
#X connect 48 0 15 0;
#X connect 48 0 16 0;
#X connect 51 0 52 0;
#X connect 53 0 5 0;
#X connect 53 0 7 0;
#X connect 54 0 53 0;
