#N struct 2092.rectangle float id float x float y float w float h float txtclr float boxclr float bgclr symbol label;
#N canvas 747 225 596 593 10;
#X obj 10 158 delread~ \$0-fildell;
#X obj 77 185 delread~ \$0-fildelr;
#X obj 10 134 *;
#X obj 19 101 t b f;
#X obj 77 137 *;
#X obj 77 104 t b f;
#X obj 10 255 *~;
#X obj 77 256 *~;
#X obj 10 354 *~;
#X obj 48 355 *~;
#X obj 77 354 *~;
#X obj 104 354 *~;
#X obj 229 280 * -1;
#X obj 229 301 + 1;
#X obj 308 294 mtof;
#X obj 308 253 * 80;
#X obj 308 273 + 47;
#X obj 430 403 + 1;
#X obj 430 382 * 4;
#X obj 199 299 f;
#X obj 181 228 f;
#N canvas 182 380 849 334 display-stuff 0;
#X obj 192 4 inlet;
#X obj 333 8 inlet;
#X obj 459 10 inlet;
#X obj 459 107 int;
#X obj 605 8 inlet;
#X obj 735 13 inlet;
#X msg 735 210 label \$1;
#X obj 735 158 * 0.1;
#X obj 30 7 inlet;
#X obj 459 87 * 100;
#X obj 605 141 mtof;
#X obj 605 100 * 80;
#X obj 605 120 + 47;
#X obj 605 80 * 1;
#X obj 605 161 int;
#X obj 735 67 * 4;
#X obj 735 87 + 1;
#X obj 735 112 * 10;
#X obj 735 134 int;
#X msg 30 190 label \$1/16;
#X obj 30 227 s \$1-\$2/til;
#X msg 192 194 label \$1/16;
#X msg 459 207 label \$1%;
#X obj 192 230 s \$1-\$2/tir;
#X obj 459 227 s \$1-\$2/fb;
#X msg 605 208 label \$1Hz;
#X obj 605 228 s \$1-\$2/fr;
#X obj 735 185 makefilename %s;
#X obj 735 230 s \$1-\$2/q;
#X obj 333 94 sel 0;
#X obj 358 116 b;
#X msg 358 139 symbol cross;
#X msg 333 160 symbol straight;
#X msg 333 182 label \$1;
#X obj 333 203 s \$0-routetype;
#X msg 354 285 label empty;
#X connect 0 0 21 0;
#X connect 1 0 29 0;
#X connect 2 0 9 0;
#X connect 3 0 22 0;
#X connect 4 0 13 0;
#X connect 5 0 15 0;
#X connect 6 0 28 0;
#X connect 7 0 27 0;
#X connect 8 0 19 0;
#X connect 9 0 3 0;
#X connect 10 0 14 0;
#X connect 11 0 12 0;
#X connect 12 0 10 0;
#X connect 13 0 11 0;
#X connect 14 0 25 0;
#X connect 15 0 16 0;
#X connect 16 0 17 0;
#X connect 17 0 18 0;
#X connect 18 0 7 0;
#X connect 19 0 20 0;
#X connect 21 0 23 0;
#X connect 22 0 24 0;
#X connect 25 0 26 0;
#X connect 27 0 6 0;
#X connect 29 0 32 0;
#X connect 29 1 30 0;
#X connect 30 0 31 0;
#X connect 31 0 33 0;
#X connect 32 0 33 0;
#X connect 33 0 34 0;
#X connect 35 0 20 0;
#X connect 35 0 23 0;
#X connect 35 0 34 0;
#X connect 35 0 24 0;
#X connect 35 0 26 0;
#X connect 35 0 28 0;
#X restore 350 192 pd display-stuff;
#X obj 387 61 netpd_f \$1 \$2/rt 0;
#X obj 405 81 netpd_f \$1 \$2/fb 0;
#X obj 443 120 netpd_f \$1 \$2/q 0;
#X obj 93 44 netpd_r \$1 \$2/til;
#X obj 92 74 netpd_r \$1 \$2/tir;
#X obj 199 254 netpd_r \$1 \$2/rt;
#X obj 181 208 netpd_r \$1 \$2/fb;
#X obj 308 233 netpd_r \$1 \$2/fr;
#X obj 430 362 netpd_r \$1 \$2/q;
#X obj 101 273 inlet~;
#X obj 149 273 inlet~;
#X obj 27 215 outlet~;
#X obj 100 215 outlet~;
#N canvas 873 480 217 118 NETPD 0;
#N canvas 640 338 411 84 abslist 0;
#X msg 16 3 master-param;
#X restore 33 31 pd abslist;
#X msg 34 7 version 0 0 8;
#X restore 411 271 pd NETPD 2 0;
#X msg 308 317 \$1 300;
#X msg 321 375 \$1 300;
#X obj 128 514 delwrite~ \$0-fildelr 20000;
#X obj 10 539 delwrite~ \$0-fildell 20000;
#X obj 350 18 netpd_f \$1 \$2/til 3;
#X obj 368 40 netpd_f \$1 \$2/tir 3;
#X obj 321 397 line 0 10;
#X obj 127 462 *~ 0;
#X obj 10 462 *~ 0;
#X obj 308 339 line~;
#N canvas 441 444 450 300 vcf_lp_bp_hp 0;
#X obj 132 97 vcf~;
#X obj 177 102 *~ 0;
#X obj 162 127 -~;
#X obj 131 23 inlet~;
#X obj 132 176 *~ 0;
#X obj 162 176 *~ 0;
#X obj 218 70 == 2;
#X obj 231 141 == 1;
#X obj 275 141 != 1;
#X obj 132 214 outlet~;
#X obj 277 24 inlet;
#X obj 176 23 inlet~;
#X obj 219 23 inlet, f 17;
#X connect 0 0 4 0;
#X connect 0 1 2 0;
#X connect 1 0 2 1;
#X connect 2 0 5 0;
#X connect 3 0 0 0;
#X connect 3 0 1 0;
#X connect 4 0 9 0;
#X connect 5 0 9 0;
#X connect 6 0 1 1;
#X connect 7 0 4 1;
#X connect 8 0 5 1;
#X connect 10 0 6 0;
#X connect 10 0 7 0;
#X connect 10 0 8 0;
#X connect 11 0 0 1;
#X connect 12 0 0 2;
#X restore 10 432 pd vcf_lp_bp_hp;
#N canvas 441 444 450 300 vcf_lp_bp_hp 0;
#X obj 132 97 vcf~;
#X obj 177 102 *~ 0;
#X obj 162 127 -~;
#X obj 131 23 inlet~;
#X obj 132 176 *~ 0;
#X obj 162 176 *~ 0;
#X obj 218 70 == 2;
#X obj 231 141 == 1;
#X obj 275 141 != 1;
#X obj 132 214 outlet~;
#X obj 277 24 inlet;
#X obj 176 23 inlet~;
#X obj 219 23 inlet, f 17;
#X connect 0 0 4 0;
#X connect 0 1 2 0;
#X connect 1 0 2 1;
#X connect 2 0 5 0;
#X connect 3 0 0 0;
#X connect 3 0 1 0;
#X connect 4 0 9 0;
#X connect 5 0 9 0;
#X connect 6 0 1 1;
#X connect 7 0 4 1;
#X connect 8 0 5 1;
#X connect 10 0 6 0;
#X connect 10 0 7 0;
#X connect 10 0 8 0;
#X connect 11 0 0 1;
#X connect 12 0 0 2;
#X restore 126 432 pd vcf_lp_bp_hp;
#X obj 135 358 netpd_f \$1 \$2/filtertype 0;
#X obj 10 485 expr~ tanh($v1);
#X obj 128 488 expr~ tanh($v1);
#X obj 424 100 netpd_f \$1 \$2/fr 0.7;
#N canvas 1117 556 243 120 \$3-\$2 1;
#X obj 190 4 cnv 15 45 106 empty empty empty 20 12 0 14 #9cacfc #404040 0;
#X obj 51 4 cnv 10 137 106 empty empty empty 20 12 0 14 #001488 #404040 0;
#X obj 68 49 cnv 10 50 12 empty \$0-routetype cross 1 6 0 10 #9cacfc #000000 0;
#X obj 52 10 nbx 5 14 0 99 0 0 \$1-\$2/til \$1-\$2/til 4/16 142 8 0 10 #c4c4fc #000000 #000000 0 256;
#X obj 52 28 nbx 5 14 0 99 0 0 \$1-\$2/tir \$1-\$2/tir 4/16 142 8 0 10 #c4c4fc #000000 #000000 0 256;
#X obj 123 8 hradio 20 1 0 3 \$1-\$2/filtertype \$1-\$2/filtertype empty 0 10 0 10 #c4c4fc #000000 #000000 0;
#X text 125 10 LP;
#X text 145 10 BP;
#X text 165 10 HP;
#X obj 120 48 netpd-gui-dropdown \$0.clock.select 67 14 10 0 0 568 0 555 888;
#X obj 3 5 cnv 15 45 106 empty empty empty 20 12 1 7 #9cacfc #404040 0;
#X obj 22 15 cnv 10 10 10 empty empty left 0 5 0 10 #9cacfc #000000 0;
#X obj 17 34 cnv 10 10 10 empty empty right 0 4 0 10 #9cacfc #000000 0;
#X obj 32 68 cnv 10 10 10 empty empty fb 0 4 0 10 #9cacfc #000000 0;
#X obj 21 82 cnv 10 10 10 empty empty freq 0 4 0 10 #9cacfc #000000 0;
#X obj 37 95 cnv 10 10 10 empty empty q 0 4 0 10 #9cacfc #000000 0;
#X obj 52 48 tgl 14 0 \$1-\$2/rt \$1-\$2/rt routing -47 7 0 10 #9cacfc #000000 #000000 0 1;
#X obj 55 66 hsl 130 10 0 1 0 0 \$1-\$2/fb \$1-\$2/fb 44% 140 5 1 10 #9cacfc #000000 #000000 0 1;
#X obj 55 80 hsl 130 10 0 1 0 0 \$1-\$2/fr \$1-\$2/fr 499Hz 140 5 1 10 #9cacfc #000000 #000000 0 1;
#X obj 55 94 hsl 130 10 0 1 0 0 \$1-\$2/q \$1-\$2/q 2.4 140 5 1 10 #9cacfc #000000 #000000 0 1;
#X restore 411 294 pd \$3-\$2;
#N canvas 1090 432 421 315 select.clock 0;
#X obj 25 26 untik-clock-consumer \$1 \$2/clock \$0.clock.select;
#X obj 68 82 list;
#X msg 68 105 \$2 \$1;
#X obj 68 128 route permin;
#X msg 68 151 60000 \$1;
#X obj 68 174 /;
#X obj 25 263 outlet;
#X obj 25 78 b;
#X obj 25 230 change -1;
#X obj 25 200 f;
#X obj 25 55 route pos tempo;
#X connect 0 0 10 0;
#X connect 1 0 2 0;
#X connect 2 0 3 0;
#X connect 3 0 4 0;
#X connect 4 0 5 0;
#X connect 5 0 9 1;
#X connect 7 0 9 0;
#X connect 8 0 6 0;
#X connect 9 0 8 0;
#X connect 10 0 7 0;
#X connect 10 1 1 0;
#X restore 10 16 pd select.clock;
#X connect 0 0 6 0;
#X connect 0 0 33 0;
#X connect 1 0 7 0;
#X connect 1 0 34 0;
#X connect 2 0 0 0;
#X connect 3 0 2 0;
#X connect 3 1 2 1;
#X connect 4 0 1 0;
#X connect 5 0 4 0;
#X connect 5 1 4 1;
#X connect 6 0 8 0;
#X connect 6 0 9 0;
#X connect 7 0 10 0;
#X connect 7 0 11 0;
#X connect 8 0 46 0;
#X connect 9 0 47 0;
#X connect 10 0 46 0;
#X connect 11 0 47 0;
#X connect 12 0 13 0;
#X connect 13 0 8 1;
#X connect 13 0 11 1;
#X connect 14 0 36 0;
#X connect 15 0 16 0;
#X connect 16 0 14 0;
#X connect 17 0 37 0;
#X connect 18 0 17 0;
#X connect 19 0 9 1;
#X connect 19 0 10 1;
#X connect 20 0 6 1;
#X connect 20 0 7 1;
#X connect 22 0 21 2;
#X connect 23 0 21 3;
#X connect 24 0 21 5;
#X connect 25 0 3 0;
#X connect 26 0 5 0;
#X connect 27 0 12 0;
#X connect 27 0 19 0;
#X connect 28 0 20 0;
#X connect 29 0 15 0;
#X connect 30 0 18 0;
#X connect 31 0 8 0;
#X connect 31 0 9 0;
#X connect 32 0 10 0;
#X connect 32 0 11 0;
#X connect 36 0 45 0;
#X connect 37 0 42 0;
#X connect 40 0 21 0;
#X connect 41 0 21 1;
#X connect 42 0 46 2;
#X connect 42 0 47 2;
#X connect 42 0 43 1;
#X connect 42 0 44 1;
#X connect 43 0 50 0;
#X connect 44 0 49 0;
#X connect 45 0 46 1;
#X connect 45 0 47 1;
#X connect 46 0 44 0;
#X connect 47 0 43 0;
#X connect 48 0 46 3;
#X connect 48 0 47 3;
#X connect 49 0 39 0;
#X connect 50 0 38 0;
#X connect 51 0 21 4;
#X connect 53 0 2 0;
#X connect 53 0 4 0;
