#N canvas 502 106 458 535 10;
#N canvas 870 93 419 52 NETPD 0;
#X msg 13 11 version 0 0 1;
#X restore 333 16 pd NETPD 2 0;
#X obj 8 451 outlet~;
#X obj 63 451 outlet~;
#X obj 11 108 phasor~;
#X obj 81 237 *~;
#X obj 8 379 cos~;
#X obj 25 304 cos~;
#X obj 10 236 *~;
#X obj 9 351 +~;
#X obj 24 328 *~;
#X obj 26 281 +~;
#X obj 11 86 mtof;
#X obj 24 205 samphold~;
#X obj 96 205 samphold~;
#X obj 9 417 *~;
#X obj 160 205 phasor~;
#X obj 63 380 cos~;
#X obj 81 307 cos~;
#X obj 64 352 +~;
#X obj 80 331 *~;
#X obj 82 284 +~;
#X obj 63 418 *~;
#X msg 272 181 \$1 30;
#X obj 272 203 line~;
#X obj 96 261 +~;
#N canvas 887 157 292 286 index 0;
#X obj 11 247 outlet~;
#X obj 11 13 inlet;
#X obj 11 63 f;
#X obj 11 177 pack f f f f f;
#X obj 11 221 vline~;
#X msg 11 199 \$3 \, \$4 \$1 \, \$5 \$2 \$1;
#X obj 26 37 r \$1.i-attack;
#X obj 31 89 r \$1.i-decay;
#X obj 51 112 r \$1.index1;
#X obj 71 134 r \$1.index2;
#X obj 92 154 r \$1.index3;
#X connect 1 0 2 0;
#X connect 2 0 3 0;
#X connect 3 0 5 0;
#X connect 4 0 0 0;
#X connect 5 0 4 0;
#X connect 6 0 2 1;
#X connect 7 0 3 1;
#X connect 8 0 3 2;
#X connect 9 0 3 3;
#X connect 10 0 3 4;
#X restore 198 264 pd index;
#X obj 11 13 inlet;
#X obj 24 178 f;
#X obj 96 181 f;
#X obj 160 180 f;
#X obj 39 157 r \$1.x1;
#X obj 111 158 r \$1.x2;
#X obj 175 157 r \$1.phmod;
#X obj 272 159 r \$1.stereo;
#X obj 245 227 r \$1.amplitude;
#X obj 317 388 t a a;
#X obj 317 505 outlet;
#X obj 344 411 switch~;
#X obj 317 483 ||;
#X obj 344 432 inlet;
#X obj 344 454 t b a;
#X obj 11 37 t a b a, f 37;
#X msg 11 60 \$1;
#X msg 230 62 \$2;
#X obj 230 323 *;
#X obj 230 362 rh_adsr~, f 15;
#X obj 230 90 / 127;
#X obj 251 259 r \$1.attack;
#X obj 273 285 r \$1.decay;
#X obj 295 308 r \$1.sustain;
#X obj 317 331 r \$1.release;
#X connect 3 0 4 0;
#X connect 3 0 7 0;
#X connect 3 0 12 1;
#X connect 3 0 13 1;
#X connect 4 0 10 0;
#X connect 4 0 20 0;
#X connect 5 0 14 0;
#X connect 6 0 9 0;
#X connect 7 0 8 0;
#X connect 7 0 18 0;
#X connect 8 0 5 0;
#X connect 9 0 8 1;
#X connect 10 0 6 0;
#X connect 11 0 3 0;
#X connect 12 0 7 1;
#X connect 13 0 4 1;
#X connect 14 0 1 0;
#X connect 15 0 10 1;
#X connect 15 0 24 0;
#X connect 16 0 21 0;
#X connect 17 0 19 0;
#X connect 18 0 16 0;
#X connect 19 0 18 1;
#X connect 20 0 17 0;
#X connect 21 0 2 0;
#X connect 22 0 23 0;
#X connect 23 0 24 1;
#X connect 24 0 20 1;
#X connect 25 0 19 1;
#X connect 25 0 9 1;
#X connect 26 0 41 0;
#X connect 27 0 12 0;
#X connect 28 0 13 0;
#X connect 29 0 15 0;
#X connect 30 0 27 1;
#X connect 31 0 28 1;
#X connect 32 0 29 1;
#X connect 33 0 22 0;
#X connect 34 0 44 1;
#X connect 35 0 38 0;
#X connect 35 1 37 0;
#X connect 38 0 36 0;
#X connect 39 0 40 0;
#X connect 40 0 38 0;
#X connect 40 1 38 1;
#X connect 41 0 42 0;
#X connect 41 1 25 0;
#X connect 41 1 27 0;
#X connect 41 1 28 0;
#X connect 41 1 29 0;
#X connect 41 2 43 0;
#X connect 42 0 11 0;
#X connect 43 0 46 0;
#X connect 44 0 45 0;
#X connect 45 0 21 1;
#X connect 45 0 14 1;
#X connect 45 1 35 0;
#X connect 46 0 44 0;
#X connect 47 0 45 1;
#X connect 48 0 45 2;
#X connect 49 0 45 3;
#X connect 50 0 45 4;
