#N canvas 740 76 468 380 10;
#X obj 10 10 cnv 15 302 15 empty empty sample\$2 4 8 0 10 -228856 -1
0;
#X obj 27 25 hsl 230 15 0 1 0 0 \$1-\$2/start \$1-\$2/start cue 105
8 0 10 -191407 -1 -1 15900 1;
#X obj 10 25 bng 15 250 50 0 \$0.prelisten \$0.bla prelisten 20 8 0
10 -191407 -1 -1;
#X obj 258 25 nbx 5 15 1 999 0 0 \$1-\$2/length \$1-\$2/length length
-50 8 0 10 -191407 -1 -1 1 256;
#X obj 261 10 hsl 49 15 0 127 0 0 \$0.length.unit \$0.length.unit.r
steps 1 8 0 10 -228856 -228856 -1 2600 1;
#X obj 222 10 nbx 3 15 -96 96 0 0 \$1-\$2/pitch \$1-\$2/pitch empty
39 8 0 10 -228856 -1 -1 0 256;
#X obj 171 10 hsl 49 15 0 1 0 0 \$1-\$2/fadetime \$1-\$2/fadetime fade
1 8 0 10 -228856 -1 -1 4800 1;
#X obj 146 10 hsl 20 15 0 127 0 0 \$0.direction \$0.direction.r >>>
1 8 0 10 -228856 -228856 -1 1500 1;
#N canvas 930 209 212 57 NETPD 0;
#X msg 15 10 version 0 0 0;
#X restore 343 9 pd NETPD 2 0;
#X obj 54 117 r \$1.length(ms);
#X obj 39 82 netpd_f \$1 \$2/start;
#X obj 39 140 *;
#N canvas 136 124 209 177 ms2samples 0;
#X obj 17 36 t a b;
#X obj 44 58 samplerate~;
#X obj 17 79 *;
#X obj 17 101 / 1000;
#X obj 17 9 inlet;
#X obj 17 124 outlet;
#X connect 0 0 2 0;
#X connect 0 1 1 0;
#X connect 1 0 2 1;
#X connect 2 0 3 0;
#X connect 3 0 5 0;
#X connect 4 0 0 0;
#X restore 39 162 pd ms2samples;
#N canvas 766 270 277 151 gui-stuff 1;
#N canvas 810 287 450 300 length.unit 0;
#X obj 74 220 s \$0.length.unit.r;
#X obj 47 11 r \$0.length.unit;
#X obj 88 32 t a;
#X obj 47 32 sel 0;
#X obj 47 136 netpd_a \$1 \$2/lengthunit;
#X obj 47 79 sel steps ms;
#X msg 47 101 ms;
#X msg 81 100 steps;
#X msg 74 198 label \$1;
#X obj 47 156 t a a;
#X obj 144 79 loadbang;
#X msg 144 99 set steps;
#X obj 47 56 list append steps;
#X obj 74 177 symbol;
#X connect 1 0 3 0;
#X connect 2 0 3 1;
#X connect 3 0 12 0;
#X connect 3 1 2 0;
#X connect 4 0 9 0;
#X connect 5 0 6 0;
#X connect 5 1 7 0;
#X connect 6 0 4 0;
#X connect 7 0 4 0;
#X connect 8 0 0 0;
#X connect 9 1 12 1;
#X connect 9 1 13 0;
#X connect 10 0 11 0;
#X connect 11 0 4 0;
#X connect 12 0 5 0;
#X connect 13 0 8 0;
#X restore 29 22 pd length.unit;
#N canvas 810 287 450 300 direction 1;
#X obj 88 32 t a;
#X obj 47 32 sel 0;
#X obj 47 130 t a a;
#X obj 47 11 r \$0.direction;
#X obj 47 110 netpd_f \$1 \$2/reverse 0;
#X obj 47 56 f 0;
#X obj 74 152 select 0 1;
#X msg 74 194 label >>>;
#X msg 102 175 label <<<;
#X obj 74 220 s \$0.direction.r;
#X obj 47 82 == 0;
#X connect 0 0 1 1;
#X connect 1 0 5 0;
#X connect 1 1 0 0;
#X connect 2 1 5 1;
#X connect 2 1 6 0;
#X connect 3 0 1 0;
#X connect 4 0 2 0;
#X connect 5 0 10 0;
#X connect 6 0 7 0;
#X connect 6 1 8 0;
#X connect 7 0 9 0;
#X connect 8 0 9 0;
#X connect 10 0 4 0;
#X restore 28 43 pd direction;
#X restore 340 42 pd gui-stuff;
#X obj 215 299 netpd_r \$1 \$2/lengthunit;
#X obj 215 320 symbol;
#X floatatom 216 275 5 0 0 0 - - -, f 5;
#X obj 216 255 netpd_f \$1 \$2/length 4;
#X obj 212 93 r \$0.prelisten;
#X floatatom 216 231 5 0 0 0 - - -, f 5;
#X floatatom 216 189 5 0 0 0 - - -, f 5;
#X obj 216 211 netpd_f \$1 \$2/pitch 0;
#X obj 216 169 netpd_f \$1 \$2/fadetime 0;
#X symbolatom 215 342 10 0 0 0 - - -, f 10;
#X floatatom 216 144 5 0 0 0 - - -, f 5;
#X obj 216 124 netpd_r \$1 \$2/reverse;
#X connect 9 0 11 1;
#X connect 10 0 11 0;
#X connect 11 0 12 0;
#X connect 14 0 15 0;
#X connect 15 0 23 0;
#X connect 17 0 16 0;
#X connect 21 0 19 0;
#X connect 22 0 20 0;
#X connect 25 0 24 0;
#X coords 0 -1 1 1 302 30 2 10 10;
