#N canvas 312 82 488 401 10;
#N canvas 545 159 338 66 NETPD 0;
#X msg 11 13 version 0 0 1;
#X restore 24 12 pd NETPD 2 0;
#X obj 26 141 pack;
#X msg 26 162 \$1 \$2;
#X obj 26 208 mtof~;
#X obj 27 233 osc~;
#X obj 26 261 *~;
#X obj 219 202 vline~;
#X obj 26 184 vline~;
#X obj 219 224 dbtorms~;
#X msg 219 179 \$4 \$1 \, 0 \$3 \$2;
#X obj 192 116 list append;
#X obj 255 66 r \$1-sine/params;
#X obj 26 43 r \$1-sine/notes;
#X obj 42 289 throw~ \$1-sum/right;
#X obj 26 311 throw~ \$1-sum/left;
#X obj 26 66 route \$2;
#X obj 26 88 t a b;
#X msg 192 180 \$5;
#X obj 192 148 t a a a;
#X msg 360 174 \$1 \$2 \$3;
#X obj 360 196 unpack f f f;
#X obj 360 218 +;
#X obj 360 240 +;
#X obj 360 262 t b a;
#X obj 387 285 + 3;
#X obj 387 307 delay;
#X msg 387 329 0;
#X msg 360 329 1;
#X obj 360 351 switch~;
#X connect 1 0 2 0;
#X connect 2 0 7 0;
#X connect 3 0 4 0;
#X connect 4 0 5 0;
#X connect 5 0 13 0;
#X connect 5 0 14 0;
#X connect 6 0 8 0;
#X connect 7 0 3 0;
#X connect 8 0 5 1;
#X connect 9 0 6 0;
#X connect 10 0 18 0;
#X connect 11 0 10 1;
#X connect 12 0 15 0;
#X connect 15 0 16 0;
#X connect 16 0 1 0;
#X connect 16 1 10 0;
#X connect 17 0 1 1;
#X connect 18 0 17 0;
#X connect 18 1 9 0;
#X connect 18 2 19 0;
#X connect 19 0 20 0;
#X connect 20 0 21 0;
#X connect 20 1 21 1;
#X connect 20 2 22 1;
#X connect 21 0 22 0;
#X connect 22 0 23 0;
#X connect 23 0 27 0;
#X connect 23 1 24 0;
#X connect 24 0 25 0;
#X connect 25 0 26 0;
#X connect 26 0 28 0;
#X connect 27 0 28 0;
