#N canvas 734 415 291 336 10;
#N canvas 1058 169 222 103 NETPD 0;
#X msg 14 17 version 0 0 2;
#N canvas 1086 409 373 191 abslist 0;
#X msg 6 15 roman_helpers;
#X restore 15 48 pd abslist;
#X restore 111 12 pd NETPD 2 0;
#X obj 56 145 inlet~;
#X obj 214 134 inlet~;
#X obj 29 287 outlet~;
#X obj 170 291 outlet~;
#N canvas 1062 461 235 81 \$3-\$2 1;
#X obj 17 14 hsl 200 20 0 1 0 0 \$1-\$2/dust \$1-\$2/dust DUST 10 12
0 18 -185741 -258113 -262144 19100 1;
#X text 186 57 SPICY;
#X obj 17 37 hsl 200 20 0 1 0 0 \$1-\$2/amount \$1-\$2/amount AMOUNT
10 12 0 18 -206546 -258113 -262144 16200 1;
#X restore 7 12 pd \$3-\$2;
#X obj 21 197 *~;
#X obj 20 220 *~;
#X obj 155 195 *~;
#X obj 154 218 *~;
#X obj 56 38 netpd_f \$1 \$2/dust 0.1;
#X obj 56 61 * 10;
#X msg 56 84 \$1 50;
#X obj 56 107 line~;
#X obj 21 169 *~;
#X obj 154 168 *~;
#X obj 19 250 *~;
#X obj 155 254 *~;
#X obj 111 66 netpd_f \$1 \$2/amount 0.3;
#X obj 111 89 rh_scalelog 0.01 1;
#X msg 111 144 \$1 50;
#X obj 111 167 line~;
#X connect 1 0 3 0;
#X connect 1 0 14 0;
#X connect 2 0 4 0;
#X connect 2 0 15 0;
#X connect 6 0 7 0;
#X connect 6 0 7 1;
#X connect 7 0 16 0;
#X connect 8 0 9 0;
#X connect 8 0 9 1;
#X connect 9 0 17 0;
#X connect 10 0 11 0;
#X connect 11 0 12 0;
#X connect 12 0 13 0;
#X connect 13 0 15 1;
#X connect 13 0 14 1;
#X connect 14 0 6 0;
#X connect 14 0 6 1;
#X connect 15 0 8 0;
#X connect 15 0 8 1;
#X connect 16 0 3 0;
#X connect 17 0 4 0;
#X connect 18 0 19 0;
#X connect 19 0 20 0;
#X connect 20 0 21 0;
#X connect 21 0 17 1;
#X connect 21 0 16 1;
