#N canvas 217 44 474 367 10;
#X obj 134 13 r \$1;
#X obj 53 57 f;
#X obj 26 13 r state_dump_req;
#X obj 26 291 s state_dump_send;
#X obj 134 35 route resize;
#X obj 53 109 t a b;
#X obj 53 131 until;
#X obj 53 161 f;
#X obj 98 161 + 1;
#X msg 95 131 0;
#X obj 159 194 list trim;
#X obj 159 149 list append set \$1 0;
#X obj 53 186 tabread \$1;
#X msg 53 208 add2 \$1;
#X msg 26 238;
#X obj 26 35 t b b;
#X obj 173 126 list prepend set \$1 resize;
#X obj 53 79 t a b a;
#N canvas 737 452 176 116 NETPD 0;
#X msg 17 19 version 0 0 1;
#X restore 215 312 pd NETPD 2 0;
#X connect 0 0 4 0;
#X connect 1 0 17 0;
#X connect 2 0 15 0;
#X connect 4 0 1 1;
#X connect 5 0 6 0;
#X connect 5 1 9 0;
#X connect 6 0 7 0;
#X connect 7 0 8 0;
#X connect 7 0 12 0;
#X connect 8 0 7 1;
#X connect 9 0 7 1;
#X connect 10 0 14 0;
#X connect 11 0 10 0;
#X connect 12 0 13 0;
#X connect 13 0 14 0;
#X connect 14 0 3 0;
#X connect 15 0 14 0;
#X connect 15 1 1 0;
#X connect 16 0 10 0;
#X connect 17 0 5 0;
#X connect 17 1 11 0;
#X connect 17 2 16 0;
