#N canvas 122 400 822 565 10;
#X obj 584 56 table \$0.storage 10000;
#N canvas 455 91 527 335 parse.arg.list 0;
#N canvas 305 260 375 202 \$0.parser 0;
#X restore 11 10 pd \$0.parser;
#X obj 166 250 s pd-\$0.parser;
#X msg 127 228 clear;
#X obj 193 8 r \$0.set;
#X obj 146 274 s \$0.get;
#X obj 166 183 list prepend \$0;
#X obj 127 8 loadbang;
#X obj 127 30 until;
#X obj 127 52 f;
#X obj 127 74 + 1;
#X obj 127 116 t b b a;
#X obj 193 30 route 0;
#X obj 193 100 outlet;
#X obj 193 52 b;
#X msg 166 207 obj 19 5 r \$1.get \, obj 19 27 list append \$2 \, obj
19 49 s \$1.set \, connect 0 0 1 0 \, connect 1 0 2 0;
#X msg 166 160 symbol \$1\$2;
#X msg 166 138 list $ \$1;
#X obj 256 51 list prepend;
#X obj 340 51 t a;
#X obj 193 77 list append;
#X connect 2 0 1 0;
#X connect 3 0 11 0;
#X connect 5 0 14 0;
#X connect 6 0 7 0;
#X connect 7 0 8 0;
#X connect 8 0 9 0;
#X connect 9 0 8 1;
#X connect 9 0 10 0;
#X connect 10 0 2 0;
#X connect 10 1 4 0;
#X connect 10 2 16 0;
#X connect 11 0 13 0;
#X connect 11 1 17 0;
#X connect 13 0 7 1;
#X connect 13 0 19 0;
#X connect 14 0 1 0;
#X connect 15 0 5 0;
#X connect 16 0 15 0;
#X connect 17 0 18 0;
#X connect 17 0 19 1;
#X connect 18 0 17 1;
#X connect 19 0 12 0;
#X restore 246 27 pd parse.arg.list;
#X obj 29 16 inlet;
#N canvas 272 218 514 618 new 0;
#X obj 20 17 inlet;
#X msg 224 137 0;
#X obj 298 380 sel 0;
#X msg 298 402 1000;
#X obj 224 204 + 1;
#X obj 298 317 t a a;
#X obj 298 359 +;
#X obj 224 159 tabread \$0.storage;
#X obj 298 295 tabread \$0.storage;
#X obj 325 338 tabread \$0.storage;
#X msg 263 248 0 \$1;
#X obj 263 270 s \$0.storage;
#X obj 20 111 t a b;
#X obj 20 477 pack f f;
#X text 352 424 index of new container;
#N canvas 272 88 370 294 typecheck 0;
#X obj 20 54 route float;
#X msg 83 89 new: format not supported. float expected;
#X obj 83 209 s \$0.error;
#X obj 20 23 inlet;
#X obj 59 246 outlet;
#X obj 20 86 moses 0;
#X msg 20 123 new: length <= 0 expected;
#X connect 0 0 5 0;
#X connect 0 1 1 0;
#X connect 1 0 2 0;
#X connect 3 0 0 0;
#X connect 5 0 6 0;
#X connect 5 1 4 0;
#X connect 6 0 2 0;
#X restore 20 48 pd typecheck;
#X obj 20 279 +;
#X text 48 278 add length of metadata;
#X msg 20 519 \$2 \$1;
#X obj 20 562 s \$0.storage;
#X text 340 404 put first container at 1000;
#X text 291 20 'new' method;
#X text 291 50 arg1: data length;
#X text 291 28 ------------;
#X text 261 206 increase counter;
#X obj 224 181 t a a;
#X obj 243 477 pack f f;
#X text 281 508 write index to indextable;
#X text 62 520 write size at index;
#X msg 243 509 \$1 \$2;
#X obj 224 226 t a a a;
#X obj 153 385 s \$0.counter;
#X obj 35 233 r \$0.metalength;
#X text 49 293 to get full container size;
#X obj 298 424 t a a;
#X obj 153 362 f;
#X text 58 69 update the counter at the very end;
#X obj 20 70 t b a;
#X connect 0 0 15 0;
#X connect 1 0 7 0;
#X connect 2 0 3 0;
#X connect 2 1 34 0;
#X connect 3 0 34 0;
#X connect 4 0 30 0;
#X connect 5 0 6 0;
#X connect 5 1 9 0;
#X connect 6 0 2 0;
#X connect 7 0 25 0;
#X connect 8 0 5 0;
#X connect 9 0 6 1;
#X connect 10 0 11 0;
#X connect 12 0 16 0;
#X connect 12 1 1 0;
#X connect 13 0 18 0;
#X connect 15 0 37 0;
#X connect 16 0 13 0;
#X connect 18 0 19 0;
#X connect 25 0 4 0;
#X connect 25 1 8 0;
#X connect 26 0 29 0;
#X connect 29 0 19 0;
#X connect 30 0 35 1;
#X connect 30 1 26 0;
#X connect 30 2 10 0;
#X connect 32 0 16 1;
#X connect 34 0 13 1;
#X connect 34 1 26 1;
#X connect 35 0 31 0;
#X connect 37 0 35 0;
#X connect 37 1 12 0;
#X restore 96 109 pd new;
#X obj 246 49 s \$0.args;
#X obj 444 161 tabread \$0.storage;
#X floatatom 444 183 5 0 0 0 - - -, f 5;
#X floatatom 444 140 5 0 0 0 - - -, f 5;
#X msg 610 171 const 0;
#X obj 610 193 s \$0.storage;
#N canvas 272 218 464 471 alias 0;
#X obj 20 17 inlet;
#N canvas 272 88 429 299 typecheck 0;
#X obj 98 214 s \$0.error;
#X obj 20 23 inlet;
#X obj 59 246 outlet;
#X obj 98 81 r \$0.counter;
#X obj 20 84 moses 1;
#X obj 59 126 moses 3;
#X obj 98 103 + 1;
#X msg 98 192 alias: container with id \$1 does not exist.;
#X obj 20 46 route float;
#X msg 147 137 alias: format not supported. float expected;
#X connect 1 0 8 0;
#X connect 3 0 6 0;
#X connect 4 0 7 0;
#X connect 4 1 5 0;
#X connect 5 0 2 0;
#X connect 5 1 7 0;
#X connect 6 0 5 1;
#X connect 7 0 0 0;
#X connect 8 0 4 0;
#X connect 8 1 9 0;
#X connect 9 0 0 0;
#X restore 20 73 pd typecheck;
#X obj 156 376 s \$0.storage;
#X obj 303 297 outlet;
#X text 291 20 'alias' method;
#X text 291 28 --------------;
#X text 291 50 arg1: reference;
#X msg 303 274 new \$1;
#X obj 303 172 t b a;
#X obj 330 196 s \$0.id;
#X obj 303 250 f;
#X obj 331 218 r \$0.datalength;
#X obj 35 135 r \$0.counter;
#X obj 20 160 f;
#X obj 156 239 t b a;
#X obj 183 261 s \$0.id;
#X obj 156 305 f;
#X obj 184 283 r \$0.index;
#X obj 20 95 t b a a;
#X obj 156 328 + 1;
#X obj 156 351 pack f f;
#X text 309 142 create new;
#X text 159 209 write ref;
#X text 38 217 pad with -1;
#X obj 20 182 t b a;
#X obj 81 308 r \$0.index;
#X obj 35 235 r \$0.size;
#X obj 66 330 f;
#X obj 66 352 + 2;
#X obj 20 256 f;
#X obj 20 278 - 2;
#X obj 20 302 t a b;
#X obj 20 324 until;
#X obj 20 382 f;
#X obj 52 382 + 1;
#X obj 20 432 s \$0.storage;
#X msg 20 409 \$1 -1;
#X connect 0 0 1 0;
#X connect 1 0 18 0;
#X connect 7 0 3 0;
#X connect 8 0 10 0;
#X connect 8 1 9 0;
#X connect 10 0 7 0;
#X connect 11 0 10 1;
#X connect 12 0 13 1;
#X connect 13 0 24 0;
#X connect 14 0 16 0;
#X connect 14 1 15 0;
#X connect 16 0 19 0;
#X connect 17 0 16 1;
#X connect 18 0 13 0;
#X connect 18 1 20 1;
#X connect 18 2 8 0;
#X connect 19 0 20 0;
#X connect 20 0 2 0;
#X connect 24 0 29 0;
#X connect 24 1 14 0;
#X connect 25 0 27 1;
#X connect 26 0 29 1;
#X connect 27 0 28 0;
#X connect 28 0 33 1;
#X connect 29 0 30 0;
#X connect 30 0 31 0;
#X connect 31 0 32 0;
#X connect 31 1 27 0;
#X connect 32 0 33 0;
#X connect 33 0 34 0;
#X connect 33 0 36 0;
#X connect 34 0 33 1;
#X connect 36 0 35 0;
#X restore 130 83 pd alias;
#X obj 427 55 r \$0.error;
#X obj 246 77 r \$0.args;
#X obj 246 99 list length;
#X obj 246 122 + 2;
#X text 277 122 add size + ref;
#X obj 246 144 s \$0.metalength;
#N canvas 590 282 450 300 set 0;
#X obj 16 15 inlet;
#N canvas 462 254 392 287 typecheck 0;
#X obj 11 10 inlet;
#N canvas 338 376 418 350 validate.container.id 0;
#X obj 26 23 inlet;
#X obj 65 306 outlet;
#X obj 92 250 s \$0.error;
#X obj 92 147 r \$0.counter;
#X obj 26 120 moses 1;
#X obj 92 169 + 1;
#X obj 65 192 moses;
#X obj 26 47 list split 1;
#X obj 26 97 int;
#X obj 65 283 list append;
#X obj 128 116 t a;
#X msg 92 228 set: container with id \$1 does not exist.;
#X obj 26 69 route float;
#X msg 218 136 set: id must be of type float;
#X connect 0 0 7 0;
#X connect 3 0 5 0;
#X connect 4 0 11 0;
#X connect 4 1 6 0;
#X connect 5 0 6 1;
#X connect 6 0 9 0;
#X connect 6 1 11 0;
#X connect 7 0 12 0;
#X connect 7 1 10 0;
#X connect 8 0 4 0;
#X connect 9 0 1 0;
#X connect 10 0 9 1;
#X connect 11 0 2 0;
#X connect 12 0 8 0;
#X connect 12 1 13 0;
#X connect 13 0 2 0;
#X restore 11 54 pd validate.container.id;
#N canvas 338 376 329 330 validate.datatype 0;
#X obj 26 23 inlet;
#X obj 26 246 outlet;
#X obj 26 45 t a a;
#X msg 26 67 list \$2;
#X obj 26 220 list append;
#X obj 26 89 route symbol float;
#N canvas 196 323 388 365 verify.paramname 0;
#X obj 31 22 inlet;
#X obj 200 265 list append;
#X msg 200 287 set: there is no param '\$1';
#X obj 200 309 s \$0.error;
#X obj 64 284 outlet;
#X obj 31 44 t a a;
#X obj 58 123 s \$0.paramname;
#X obj 53 147 r \$0.paramindex;
#X obj 31 98 t b a;
#X obj 31 169 f;
#X obj 31 191 sel -1;
#X obj 64 234 b;
#X connect 0 0 5 0;
#X connect 1 0 2 0;
#X connect 2 0 3 0;
#X connect 5 0 8 0;
#X connect 5 1 1 1;
#X connect 7 0 9 1;
#X connect 8 0 9 0;
#X connect 8 1 6 0;
#X connect 9 0 10 0;
#X connect 10 0 1 0;
#X connect 10 1 11 0;
#X connect 11 0 4 0;
#X restore 26 152 pd verify.paramname;
#N canvas 59 44 399 348 verify.index 0;
#X obj 21 19 inlet;
#X obj 21 260 outlet;
#X obj 21 135 >= 0;
#X obj 52 135 <;
#X obj 21 168 +;
#X obj 21 194 sel 2;
#X obj 94 219 b;
#X obj 94 242 f;
#X obj 21 41 t a a a;
#X obj 94 287 s \$0.error;
#X obj 99 83 r \$0.datalength;
#X msg 94 265 set: index \$1 is out of range;
#X connect 0 0 8 0;
#X connect 2 0 4 0;
#X connect 3 0 4 1;
#X connect 4 0 5 0;
#X connect 5 0 1 0;
#X connect 5 1 6 0;
#X connect 6 0 7 0;
#X connect 7 0 11 0;
#X connect 8 0 2 0;
#X connect 8 1 3 0;
#X connect 8 2 7 1;
#X connect 10 0 3 1;
#X connect 11 0 9 0;
#X restore 78 125 pd verify.index;
#X obj 26 198 b;
#X connect 0 0 2 0;
#X connect 2 0 3 0;
#X connect 2 1 4 1;
#X connect 3 0 5 0;
#X connect 4 0 1 0;
#X connect 5 0 6 0;
#X connect 5 1 7 0;
#X connect 6 0 8 0;
#X connect 7 0 8 0;
#X connect 8 0 4 0;
#X restore 11 142 pd validate.datatype;
#N canvas 338 376 416 383 validate.data 0;
#X obj 26 23 inlet;
#X obj 26 265 outlet;
#X obj 26 45 t a a;
#X msg 26 67 list \$2;
#X obj 26 91 route symbol float;
#N canvas 381 320 405 407 validate.value 0;
#X obj 14 15 inlet;
#X obj 20 337 outlet;
#X obj 14 41 list split 2;
#X obj 48 68 route float;
#X msg 111 89 set: float expected as param value;
#X obj 111 111 s \$0.error;
#X obj 121 159 r \$0.reference;
#X obj 121 181 == 0;
#X obj 121 203 - 1;
#X obj 48 235 moses;
#X obj 75 295 b;
#X msg 118 293 set: param value out of range;
#X obj 118 315 s \$0.error;
#X connect 0 0 2 0;
#X connect 2 1 3 0;
#X connect 3 0 9 0;
#X connect 3 1 4 0;
#X connect 4 0 5 0;
#X connect 6 0 7 0;
#X connect 7 0 8 0;
#X connect 8 0 9 1;
#X connect 9 0 11 0;
#X connect 9 1 10 0;
#X connect 10 0 1 0;
#X connect 11 0 12 0;
#X restore 26 181 pd validate.value;
#N canvas 381 320 400 484 validate.data 0;
#X obj 14 15 inlet;
#X obj 106 439 outlet;
#X obj 14 71 list split 2;
#X msg 118 72 \$2;
#X obj 14 37 t a a;
#X obj 163 71 r \$0.datalength;
#X obj 118 111 pack f f;
#X msg 118 133 \$2 \$1;
#X obj 118 155 -;
#X obj 48 201 list split;
#X obj 48 244 s \$0.error;
#X msg 48 222 set: data does not fit container;
#X text 264 331 bang on error;
#X obj 106 272 t b a b;
#N canvas 319 295 266 225 drip.args 0;
#X obj 48 145 list split 1;
#X obj 48 102 until;
#X obj 48 124 list append;
#X obj 48 30 inlet;
#X obj 48 187 outlet;
#X obj 48 81 t b a;
#X connect 0 0 4 0;
#X connect 0 1 2 1;
#X connect 0 2 1 1;
#X connect 1 0 2 0;
#X connect 2 0 0 0;
#X connect 3 0 5 0;
#X connect 5 0 1 0;
#X connect 5 1 2 1;
#X restore 125 298 pd drip.args;
#X msg 125 353 1;
#X obj 106 390 f;
#X obj 106 412 sel 0;
#X text 151 413 0 means no error with validation;
#X obj 118 177 + 1;
#X msg 157 354 0;
#N canvas 42 89 379 299 validate.range.type 0;
#X obj 77 58 r \$0.reference;
#X obj 77 80 == 0;
#X obj 77 102 - 1;
#X obj 50 138 moses;
#X obj 77 240 s \$0.error;
#X obj 50 12 inlet;
#X obj 22 208 b;
#X obj 22 239 outlet;
#X msg 51 197 set: data value out of range;
#X obj 50 34 route float;
#X msg 113 171 set: data value not of type float;
#X connect 0 0 1 0;
#X connect 1 0 2 0;
#X connect 2 0 3 1;
#X connect 3 0 8 0;
#X connect 3 0 6 0;
#X connect 5 0 9 0;
#X connect 6 0 7 0;
#X connect 8 0 4 0;
#X connect 9 0 3 0;
#X connect 9 1 10 0;
#X connect 10 0 4 0;
#X restore 125 328 pd validate.range.type;
#X connect 0 0 4 0;
#X connect 2 1 9 0;
#X connect 3 0 6 0;
#X connect 4 0 2 0;
#X connect 4 1 3 0;
#X connect 5 0 6 1;
#X connect 6 0 7 0;
#X connect 7 0 8 0;
#X connect 8 0 19 0;
#X connect 9 0 11 0;
#X connect 9 2 13 0;
#X connect 11 0 10 0;
#X connect 13 0 16 0;
#X connect 13 1 14 0;
#X connect 13 2 20 0;
#X connect 14 0 21 0;
#X connect 15 0 16 1;
#X connect 16 0 17 0;
#X connect 17 0 1 0;
#X connect 19 0 9 1;
#X connect 20 0 16 1;
#X connect 21 0 15 0;
#X restore 135 182 pd validate.data;
#X obj 26 221 b;
#X obj 26 243 list append;
#X obj 26 113 b;
#X obj 135 117 b;
#X obj 26 154 list append;
#X obj 135 156 list append;
#X connect 0 0 2 0;
#X connect 2 0 3 0;
#X connect 2 1 8 1;
#X connect 2 1 11 1;
#X connect 2 1 12 1;
#X connect 3 0 4 0;
#X connect 4 0 9 0;
#X connect 4 1 10 0;
#X connect 5 0 7 0;
#X connect 6 0 7 0;
#X connect 7 0 8 0;
#X connect 8 0 1 0;
#X connect 9 0 11 0;
#X connect 10 0 12 0;
#X connect 11 0 5 0;
#X connect 12 0 6 0;
#X restore 11 166 pd validate.data;
#X obj 11 197 outlet;
#X obj 11 76 t a a;
#X msg 38 97 \$1;
#X obj 38 118 s \$0.id;
#N canvas 1019 204 373 244 validate.arg.count 0;
#X obj 21 12 inlet;
#X obj 21 177 outlet;
#X obj 21 34 list;
#X obj 21 56 t a a;
#X obj 21 78 list length;
#X obj 21 100 >= 3;
#X obj 21 122 sel 1 0;
#X obj 21 153 list append;
#X msg 132 94 set: not enough arguments given;
#X obj 132 116 s \$0.error;
#X connect 0 0 2 0;
#X connect 2 0 3 0;
#X connect 3 0 4 0;
#X connect 3 1 7 1;
#X connect 4 0 5 0;
#X connect 5 0 6 0;
#X connect 6 0 7 0;
#X connect 6 1 8 0;
#X connect 7 0 1 0;
#X connect 8 0 9 0;
#X restore 11 32 pd validate.arg.count;
#X connect 0 0 8 0;
#X connect 1 0 5 0;
#X connect 2 0 3 0;
#X connect 3 0 4 0;
#X connect 5 0 2 0;
#X connect 5 1 6 0;
#X connect 6 0 7 0;
#X connect 8 0 1 0;
#X restore 16 61 pd typecheck;
#X text 136 20 set id paramname|index value|data;
#N canvas 560 559 450 300 set.data 0;
#X obj 13 13 inlet;
#X obj 172 96 list split 2;
#X obj 13 94 f;
#X obj 28 68 r \$0.index;
#X obj 13 35 t b a a;
#X obj 13 134 +;
#X obj 42 102 r \$0.metalength;
#X obj 13 179 +;
#X msg 50 142 \$2;
#X text 75 143 relative index;
#X obj 13 216 list append;
#X obj 13 268 s \$0.storage;
#X connect 0 0 4 0;
#X connect 1 1 10 1;
#X connect 2 0 5 0;
#X connect 3 0 2 1;
#X connect 4 0 2 0;
#X connect 4 1 8 0;
#X connect 4 2 1 0;
#X connect 5 0 7 0;
#X connect 6 0 5 1;
#X connect 7 0 10 0;
#X connect 8 0 7 1;
#X connect 10 0 11 0;
#X restore 104 260 pd set.data;
#N canvas 560 643 291 256 set.param 0;
#X obj 13 13 inlet;
#X obj 13 202 s \$0.storage;
#X obj 73 104 r \$0.paramindex;
#X obj 32 101 f;
#X obj 47 136 r \$0.index;
#X obj 13 134 f;
#X obj 13 156 +;
#X obj 13 178 pack f f;
#X obj 13 35 t b b a;
#X msg 52 58 \$3;
#X connect 0 0 8 0;
#X connect 2 0 3 1;
#X connect 3 0 6 1;
#X connect 4 0 5 1;
#X connect 5 0 6 0;
#X connect 6 0 7 0;
#X connect 7 0 1 0;
#X connect 8 0 5 0;
#X connect 8 1 3 0;
#X connect 8 2 9 0;
#X connect 9 0 7 1;
#X restore 16 260 pd set.param;
#X obj 16 111 t a a;
#X msg 16 133 list \$2;
#X obj 16 177 b;
#X obj 16 199 list append;
#X obj 16 155 route symbol float;
#X obj 104 177 b;
#X obj 104 199 list append;
#X connect 0 0 1 0;
#X connect 1 0 5 0;
#X connect 5 0 6 0;
#X connect 5 1 8 1;
#X connect 5 1 11 1;
#X connect 6 0 9 0;
#X connect 7 0 8 0;
#X connect 8 0 4 0;
#X connect 9 0 7 0;
#X connect 9 1 10 0;
#X connect 10 0 11 0;
#X connect 11 0 3 0;
#X restore 62 135 pd set;
#X obj 246 209 r \$0.id;
#X obj 246 230 tabread \$0.storage;
#X obj 285 273 s \$0.index;
#X obj 246 361 tabread \$0.storage;
#X obj 273 404 s \$0.size;
#X obj 246 383 t a a;
#X obj 246 452 -;
#X obj 261 431 r \$0.metalength;
#X obj 246 475 s \$0.datalength;
#X obj 427 77 print struct_container;
#X obj 246 252 t a a a;
#X obj 265 294 + 1;
#X obj 265 315 tabread \$0.storage;
#X obj 265 337 s \$0.reference;
#N canvas 319 323 266 225 drip.args 0;
#X obj 111 37 r \$0.args;
#X obj 48 145 list split 1;
#X obj 48 102 until;
#X obj 48 124 list append;
#X obj 48 59 list append;
#X obj 48 30 inlet;
#X obj 48 187 outlet;
#X obj 48 81 t b a;
#X connect 0 0 4 1;
#X connect 1 0 6 0;
#X connect 1 1 3 1;
#X connect 1 2 2 1;
#X connect 2 0 3 0;
#X connect 3 0 1 0;
#X connect 4 0 7 0;
#X connect 5 0 4 0;
#X connect 7 0 2 0;
#X connect 7 1 3 1;
#X restore 533 332 pd drip.args;
#X obj 533 354 t a b;
#X obj 560 376 f;
#X obj 599 378 + 1;
#X obj 533 407 sel ______;
#X obj 533 429 f;
#X msg 605 426 -1;
#X obj 518 275 r \$0.paramname;
#X msg 575 352 2;
#X text 601 355 first param has index 2;
#X text 634 419 non-existant param returns;
#X text 635 437 negative index;
#X obj 518 309 t b b a b b;
#X obj 518 455 f;
#X obj 518 485 s \$0.paramindex;
#X obj 29 38 route get set new alias;
#X text 512 252 resolve paramname to paramindex;
#X text 244 189 get info about ct;
#N canvas 81 167 432 360 get 0;
#X obj 26 23 inlet;
#N canvas 462 254 402 212 typecheck 0;
#X obj 11 10 inlet;
#N canvas 338 376 418 350 validate.container.id 0;
#X obj 26 23 inlet;
#X obj 65 306 outlet;
#X obj 92 250 s \$0.error;
#X obj 92 147 r \$0.counter;
#X obj 26 120 moses 1;
#X obj 92 169 + 1;
#X obj 65 192 moses;
#X obj 26 47 list split 1;
#X obj 26 97 int;
#X obj 65 283 list append;
#X obj 128 116 t a;
#X obj 26 69 route float;
#X msg 218 136 get: id must be of type float;
#X msg 92 228 get: container with id \$1 does not exist.;
#X connect 0 0 7 0;
#X connect 3 0 5 0;
#X connect 4 0 13 0;
#X connect 4 1 6 0;
#X connect 5 0 6 1;
#X connect 6 0 9 0;
#X connect 6 1 13 0;
#X connect 7 0 11 0;
#X connect 7 1 10 0;
#X connect 8 0 4 0;
#X connect 9 0 1 0;
#X connect 10 0 9 1;
#X connect 11 0 8 0;
#X connect 11 1 12 0;
#X connect 12 0 2 0;
#X connect 13 0 2 0;
#X restore 11 57 pd validate.container.id;
#N canvas 338 376 329 330 validate.datatype 0;
#X obj 26 23 inlet;
#X obj 26 246 outlet;
#X obj 26 45 t a a;
#X msg 26 67 list \$2;
#X obj 26 220 list append;
#X obj 26 89 route symbol float;
#N canvas 196 323 388 365 verify.paramname 0;
#X obj 31 22 inlet;
#X obj 200 265 list append;
#X obj 200 309 s \$0.error;
#X obj 64 284 outlet;
#X obj 31 44 t a a;
#X obj 121 126 s \$0.paramname;
#X obj 116 150 r \$0.paramindex;
#X obj 94 101 t b a;
#X obj 94 172 f;
#X obj 94 194 sel -1;
#X obj 64 234 b;
#X obj 31 73 select data;
#X msg 200 287 get: there is no param '\$1';
#X connect 0 0 4 0;
#X connect 1 0 12 0;
#X connect 4 0 11 0;
#X connect 4 1 1 1;
#X connect 6 0 8 1;
#X connect 7 0 8 0;
#X connect 7 1 5 0;
#X connect 8 0 9 0;
#X connect 9 0 1 0;
#X connect 9 1 10 0;
#X connect 10 0 3 0;
#X connect 11 0 10 0;
#X connect 11 1 7 0;
#X connect 12 0 2 0;
#X restore 26 152 pd verify.paramname;
#N canvas 59 44 399 348 verify.index 0;
#X obj 21 19 inlet;
#X obj 21 260 outlet;
#X obj 21 135 >= 0;
#X obj 52 135 <;
#X obj 21 168 +;
#X obj 21 194 sel 2;
#X obj 94 219 b;
#X obj 94 242 f;
#X obj 21 41 t a a a;
#X obj 94 287 s \$0.error;
#X obj 99 83 r \$0.datalength;
#X msg 94 265 get: index \$1 is out of range;
#X connect 0 0 8 0;
#X connect 2 0 4 0;
#X connect 3 0 4 1;
#X connect 4 0 5 0;
#X connect 5 0 1 0;
#X connect 5 1 6 0;
#X connect 6 0 7 0;
#X connect 7 0 11 0;
#X connect 8 0 2 0;
#X connect 8 1 3 0;
#X connect 8 2 7 1;
#X connect 10 0 3 1;
#X connect 11 0 9 0;
#X restore 78 125 pd verify.index;
#X obj 26 198 b;
#X connect 0 0 2 0;
#X connect 2 0 3 0;
#X connect 2 1 4 1;
#X connect 3 0 5 0;
#X connect 4 0 1 0;
#X connect 5 0 6 0;
#X connect 5 1 7 0;
#X connect 6 0 8 0;
#X connect 7 0 8 0;
#X connect 8 0 4 0;
#X restore 11 145 pd validate.datatype;
#X obj 11 177 outlet;
#X obj 11 79 t a a;
#X msg 38 100 \$1;
#X obj 38 121 s \$0.id;
#N canvas 1019 204 373 244 validate.arg.count 0;
#X obj 21 12 inlet;
#X obj 21 177 outlet;
#X obj 21 34 list;
#X obj 21 56 t a a;
#X obj 21 78 list length;
#X obj 21 122 sel 1 0;
#X obj 21 153 list append;
#X obj 132 116 s \$0.error;
#X obj 21 100 >= 2;
#X msg 132 94 get: not enough arguments given;
#X connect 0 0 2 0;
#X connect 2 0 3 0;
#X connect 3 0 4 0;
#X connect 3 1 6 1;
#X connect 4 0 8 0;
#X connect 5 0 6 0;
#X connect 5 1 9 0;
#X connect 6 0 1 0;
#X connect 8 0 5 0;
#X connect 9 0 7 0;
#X restore 11 32 pd validate.arg.count;
#X connect 0 0 7 0;
#X connect 1 0 4 0;
#X connect 2 0 3 0;
#X connect 4 0 2 0;
#X connect 4 1 5 0;
#X connect 5 0 6 0;
#X connect 7 0 1 0;
#X restore 26 63 pd typecheck;
#X obj 26 99 t a a;
#X msg 26 121 list \$2;
#X obj 109 187 b;
#X obj 109 209 list append;
#X obj 109 165 route symbol float;
#X obj 197 187 b;
#X obj 197 209 list append;
#X obj 26 143 select data;
#N canvas 271 145 322 568 get.data 0;
#X obj 25 21 inlet;
#X obj 42 476 outlet;
#X obj 57 198 r \$0.index;
#X obj 57 241 r \$0.metalength;
#X obj 42 263 +;
#X obj 57 69 r \$0.datalength;
#X obj 42 93 f;
#X obj 42 115 until;
#X obj 42 142 f;
#X msg 42 371 add2 \$1;
#X msg 42 451;
#X msg 25 405 bang \, set;
#X obj 70 142 + 1;
#X obj 42 300 tabread \$0.storage;
#N canvas 623 252 450 300 resolve.reference 0;
#X obj 149 41 r \$0.reference;
#X obj 18 11 inlet;
#X obj 51 246 outlet;
#X obj 18 41 sel -1;
#X obj 134 131 f;
#X obj 134 153 t b a;
#X obj 161 206 s \$0.id;
#X obj 134 230 outlet;
#X obj 93 13 inlet;
#X msg 93 37 \$1;
#X obj 78 124 f;
#X obj 51 93 t a b;
#X connect 0 0 4 1;
#X connect 1 0 3 0;
#X connect 3 0 4 0;
#X connect 3 1 11 0;
#X connect 4 0 5 0;
#X connect 5 0 7 0;
#X connect 5 1 6 0;
#X connect 8 0 9 0;
#X connect 9 0 10 1;
#X connect 10 0 6 0;
#X connect 11 0 2 0;
#X connect 11 1 10 0;
#X restore 42 330 pd resolve.reference;
#X obj 25 43 t b b b a;
#X msg 83 114 0;
#X obj 42 177 f;
#X obj 202 249 b;
#X obj 42 221 +;
#X connect 0 0 15 0;
#X connect 2 0 19 1;
#X connect 3 0 4 1;
#X connect 4 0 13 0;
#X connect 5 0 6 1;
#X connect 6 0 7 0;
#X connect 7 0 8 0;
#X connect 8 0 12 0;
#X connect 8 0 17 0;
#X connect 9 0 10 0;
#X connect 10 0 1 0;
#X connect 11 0 10 0;
#X connect 12 0 8 1;
#X connect 13 0 14 0;
#X connect 14 0 9 0;
#X connect 14 1 18 0;
#X connect 15 0 11 0;
#X connect 15 1 6 0;
#X connect 15 2 16 0;
#X connect 15 3 14 1;
#X connect 16 0 8 1;
#X connect 17 0 19 0;
#X connect 18 0 17 0;
#X connect 19 0 4 0;
#X restore 26 260 pd get.data;
#N canvas 271 145 308 402 get.param 0;
#X obj 22 -15 inlet;
#X obj 22 295 outlet;
#X obj 22 67 unpack f s;
#X obj 37 146 r \$0.index;
#X obj 79 91 s \$0.paramname;
#X obj 79 117 r \$0.paramindex;
#X obj 22 89 b;
#X obj 22 171 f;
#X obj 22 193 +;
#X obj 22 215 tabread \$0.storage;
#N canvas 623 252 450 300 resolve.reference 0;
#X obj 149 41 r \$0.reference;
#X obj 18 11 inlet;
#X obj 51 246 outlet;
#X obj 18 41 sel -1;
#X obj 134 111 f;
#X obj 134 133 t b a;
#X obj 161 156 s \$0.id;
#X obj 134 184 outlet;
#X connect 0 0 4 1;
#X connect 1 0 3 0;
#X connect 3 0 4 0;
#X connect 3 1 2 0;
#X connect 4 0 5 0;
#X connect 5 0 7 0;
#X connect 5 1 6 0;
#X restore 22 246 pd resolve.reference;
#X obj 22 34 list append;
#X obj 22 9 t b a;
#X obj 181 -7 b;
#X connect 0 0 12 0;
#X connect 2 0 6 0;
#X connect 2 1 4 0;
#X connect 3 0 7 1;
#X connect 5 0 8 1;
#X connect 6 0 7 0;
#X connect 7 0 8 0;
#X connect 8 0 9 0;
#X connect 9 0 10 0;
#X connect 10 0 1 0;
#X connect 10 1 13 0;
#X connect 11 0 2 0;
#X connect 12 0 11 0;
#X connect 12 1 11 1;
#X connect 13 0 11 0;
#X restore 109 260 pd get.param;
#N canvas 271 369 229 351 get.value 0;
#X obj 36 318 outlet;
#X obj 36 21 inlet;
#X obj 36 113 t b a;
#X obj 36 165 f;
#X obj 51 142 r \$0.index;
#X obj 51 185 r \$0.metalength;
#X obj 36 207 +;
#X obj 36 229 +;
#X msg 129 140 \$2;
#X obj 36 256 tabread \$0.storage;
#N canvas 623 252 450 300 resolve.reference 0;
#X obj 149 41 r \$0.reference;
#X obj 18 11 inlet;
#X obj 51 246 outlet;
#X obj 18 41 sel -1;
#X obj 134 111 f;
#X obj 134 133 t b a;
#X obj 161 156 s \$0.id;
#X obj 134 184 outlet;
#X connect 0 0 4 1;
#X connect 1 0 3 0;
#X connect 3 0 4 0;
#X connect 3 1 2 0;
#X connect 4 0 5 0;
#X connect 5 0 7 0;
#X connect 5 1 6 0;
#X restore 36 286 pd resolve.reference;
#X obj 36 74 list append;
#X obj 36 49 t b a;
#X obj 195 33 b;
#X connect 1 0 12 0;
#X connect 2 0 3 0;
#X connect 2 1 8 0;
#X connect 3 0 6 0;
#X connect 4 0 3 1;
#X connect 5 0 6 1;
#X connect 6 0 7 0;
#X connect 7 0 9 0;
#X connect 8 0 7 1;
#X connect 9 0 10 0;
#X connect 10 0 0 0;
#X connect 10 1 13 0;
#X connect 11 0 2 0;
#X connect 12 0 11 0;
#X connect 12 1 11 1;
#X connect 13 0 11 0;
#X restore 197 260 pd get.value;
#X obj 26 306 outlet;
#X obj 26 208 list append;
#X connect 0 0 1 0;
#X connect 1 0 2 0;
#X connect 2 0 3 0;
#X connect 2 1 5 1;
#X connect 2 1 8 1;
#X connect 2 1 14 1;
#X connect 3 0 9 0;
#X connect 4 0 5 0;
#X connect 5 0 11 0;
#X connect 6 0 4 0;
#X connect 6 1 7 0;
#X connect 7 0 8 0;
#X connect 8 0 12 0;
#X connect 9 0 14 0;
#X connect 9 1 6 0;
#X connect 10 0 13 0;
#X connect 11 0 13 0;
#X connect 12 0 13 0;
#X connect 14 0 10 0;
#X restore 29 163 pd get;
#X obj 29 411 outlet;
#X text 23 531 2014 \, Roman Haefeli;
#X obj 50 351 r \$0.counter;
#X msg 50 373 count \$1;
#X connect 1 0 4 0;
#X connect 2 0 47 0;
#X connect 5 0 6 0;
#X connect 7 0 5 0;
#X connect 8 0 9 0;
#X connect 10 0 47 0;
#X connect 11 0 27 0;
#X connect 12 0 13 0;
#X connect 13 0 14 0;
#X connect 14 0 16 0;
#X connect 18 0 19 0;
#X connect 19 0 28 0;
#X connect 21 0 23 0;
#X connect 23 0 24 0;
#X connect 23 1 22 0;
#X connect 24 0 26 0;
#X connect 25 0 24 1;
#X connect 28 0 21 0;
#X connect 28 1 29 0;
#X connect 28 2 20 0;
#X connect 29 0 30 0;
#X connect 30 0 31 0;
#X connect 32 0 33 0;
#X connect 33 0 36 0;
#X connect 33 1 34 0;
#X connect 34 0 35 0;
#X connect 34 0 37 1;
#X connect 35 0 34 1;
#X connect 36 0 37 0;
#X connect 37 0 45 1;
#X connect 38 0 45 1;
#X connect 39 0 44 0;
#X connect 40 0 34 1;
#X connect 44 0 45 0;
#X connect 44 1 32 0;
#X connect 44 2 36 1;
#X connect 44 3 40 0;
#X connect 44 4 38 0;
#X connect 45 0 46 0;
#X connect 47 0 50 0;
#X connect 47 1 17 0;
#X connect 47 2 3 0;
#X connect 47 3 10 0;
#X connect 50 0 51 0;
#X connect 53 0 54 0;
#X connect 54 0 51 0;
