#N canvas 736 44 449 568 10;
#X msg 232 133 clear;
#X obj 82 153 f;
#X obj 115 154 + 1;
#X obj 97 97 t b b b;
#X msg 97 128 0;
#X obj 13 15 inlet;
#X obj 13 526 outlet;
#X obj 232 154 s \$1;
#N canvas 185 91 456 230 prevent.scalar.movement 0;
#X obj 48 71 route change click;
#X obj 100 92 get \$0.button posx;
#X obj 48 141 set \$0.button posx;
#X obj 48 119 f;
#X obj 48 95 t b p;
#X obj 21 47 t a a;
#X obj 21 17 inlet;
#X obj 21 163 outlet;
#X connect 0 0 4 0;
#X connect 0 1 1 0;
#X connect 1 0 3 1;
#X connect 3 0 2 0;
#X connect 4 0 3 0;
#X connect 4 1 2 1;
#X connect 5 0 7 0;
#X connect 5 1 0 0;
#X connect 6 0 5 0;
#X restore 13 452 pd prevent.scalar.movement;
#N canvas 185 91 536 752 impose.range.constraint 0;
#X obj 109 11 inlet;
#X obj 462 8 inlet;
#X obj 109 150 t a a;
#X obj 110 182 -;
#X obj 110 370 +;
#X obj 110 448 t a a a;
#X obj 110 422 clip 0 100;
#X obj 109 37 route change click;
#X obj 109 79 t p p;
#X obj 110 217 clip -1000 1000;
#X msg 198 194 0;
#X msg 173 174 -1000;
#X obj 110 239 t a a;
#X obj 137 265 list prepend;
#X obj 137 308 sel 0;
#X obj 137 287 route 666;
#X msg 136 332 -1;
#X obj 198 333 f;
#X obj 161 126 get \$0.button value;
#X obj 164 365 set \$0.button fgclr;
#X obj 149 525 set \$0.button value;
#X obj 150 395 unpack f f;
#X obj 173 154 sel 888 666;
#X msg 164 331 888;
#X obj 109 123 t a a;
#X obj 149 471 sel -1;
#X obj 293 444 r \$0.override;
#X obj 149 498 f;
#X obj 161 60 t p p b;
#X msg 346 356 -1;
#X msg 254 405 666;
#X obj 109 101 get \$0.button value fgclr posx;
#X obj 110 647 pack f f;
#X msg 110 669 \$2 \$1;
#X obj 110 624 change -1000;
#X obj 326 534 change -1000;
#X obj 326 556 t b a;
#X msg 131 599 set -1000;
#X obj 326 510 / 28;
#X obj 110 693 outlet;
#X connect 0 0 7 0;
#X connect 1 0 21 0;
#X connect 2 0 3 1;
#X connect 2 1 3 0;
#X connect 3 0 9 0;
#X connect 4 0 6 0;
#X connect 5 0 34 0;
#X connect 5 1 4 1;
#X connect 5 2 25 0;
#X connect 6 0 5 0;
#X connect 7 0 8 0;
#X connect 7 1 28 0;
#X connect 8 0 31 0;
#X connect 8 1 20 1;
#X connect 9 0 12 0;
#X connect 10 0 9 1;
#X connect 11 0 9 1;
#X connect 12 0 4 0;
#X connect 12 1 13 0;
#X connect 13 0 15 0;
#X connect 14 1 23 0;
#X connect 14 1 16 0;
#X connect 14 1 17 0;
#X connect 15 0 14 0;
#X connect 16 0 4 1;
#X connect 17 0 3 1;
#X connect 18 0 3 1;
#X connect 18 0 4 1;
#X connect 18 0 17 1;
#X connect 21 0 6 1;
#X connect 21 1 6 2;
#X connect 22 0 11 0;
#X connect 22 1 10 0;
#X connect 23 0 19 0;
#X connect 24 0 2 0;
#X connect 25 0 27 0;
#X connect 25 0 30 0;
#X connect 25 1 20 0;
#X connect 26 0 27 1;
#X connect 27 0 20 0;
#X connect 28 0 18 0;
#X connect 28 1 19 1;
#X connect 28 2 29 0;
#X connect 29 0 27 1;
#X connect 30 0 19 0;
#X connect 31 0 24 0;
#X connect 31 1 13 1;
#X connect 31 1 22 0;
#X connect 31 2 38 0;
#X connect 32 0 33 0;
#X connect 33 0 39 0;
#X connect 34 0 32 0;
#X connect 35 0 36 0;
#X connect 36 0 37 0;
#X connect 36 1 32 1;
#X connect 37 0 34 0;
#X connect 38 0 35 0;
#X restore 13 477 pd impose.range.constraint;
#X obj 13 412 struct \$0.button float posx float value float fgclr
float bgclr;
#X obj 13 273 list prepend \$0;
#X msg 13 295 scalar \$1.button \$2 \$3 \$4 \$5;
#X obj 13 203 list prepend;
#X obj 13 317 s \$1;
#N canvas 209 154 450 300 white.background 0;
#X obj 55 173 struct \$0.bg;
#X obj 92 28 inlet;
#X obj 92 50 \$0;
#X msg 92 71 scalar \$1.bg;
#X obj 92 93 s \$1;
#X obj 55 138 filledpolygon 999 999 1 0 0 0 16 671 16 671 0;
#X connect 1 0 2 0;
#X connect 2 0 3 0;
#X connect 3 0 4 0;
#X restore 175 191 pd white.background;
#X obj 248 50 loadbang;
#X obj 82 177 * 28;
#X obj 13 377 filledpolygon bgclr 999 1 posx 0 posx 16 posx(0:1000)(27:1027)
16 posx(0:1000)(27:1027) 0;
#X obj 12 351 drawnumber value posx(0:1000)(3:1003) 1 fgclr;
#X obj 13 248 list append 245;
#X text 114 249 <- background color;
#X text 91 229 <- set foreground color based on aliasness;
#X obj 13 226 list append;
#X obj 13 84 t a a b;
#X obj 13 123 int;
#X obj 39 123 wrap;
#X obj 21 149 sel 0 0.5;
#X msg 21 170 888;
#X msg 46 170 666;
#X obj 13 37 route add reset range set;
#N canvas 316 167 450 300 set 0;
#X obj 16 18 inlet;
#X obj 225 104 symbol \$1;
#X obj 163 176 pointer;
#X obj 16 41 t a a b;
#X msg 163 96 \$1;
#X obj 163 121 until;
#X msg 163 143 next;
#X msg 16 77 \$2;
#X msg 225 126 traverse \$1 \, next \, next;
#X obj 16 213 set \$0.button value fgclr;
#X obj 16 99 t a a;
#X obj 16 132 int;
#X obj 68 120 wrap;
#X obj 68 142 sel 0 0.5;
#X msg 68 165 888;
#X msg 93 165 666;
#X obj 36 252 s \$0.override;
#X obj 16 154 t a a;
#X connect 0 0 3 0;
#X connect 1 0 8 0;
#X connect 2 0 9 2;
#X connect 3 0 7 0;
#X connect 3 1 4 0;
#X connect 3 2 1 0;
#X connect 4 0 5 0;
#X connect 5 0 6 0;
#X connect 6 0 2 0;
#X connect 7 0 10 0;
#X connect 8 0 2 0;
#X connect 10 0 11 0;
#X connect 10 1 12 0;
#X connect 11 0 17 0;
#X connect 12 0 13 0;
#X connect 13 0 14 0;
#X connect 13 1 15 0;
#X connect 14 0 9 1;
#X connect 15 0 9 1;
#X connect 17 0 9 0;
#X connect 17 1 16 0;
#X restore 123 65 pd set;
#X connect 0 0 7 0;
#X connect 1 0 2 0;
#X connect 1 0 17 0;
#X connect 2 0 1 1;
#X connect 3 0 4 0;
#X connect 3 1 15 0;
#X connect 3 2 0 0;
#X connect 4 0 1 1;
#X connect 5 0 30 0;
#X connect 8 0 9 0;
#X connect 9 0 6 0;
#X connect 10 0 8 0;
#X connect 11 0 12 0;
#X connect 12 0 14 0;
#X connect 13 0 23 0;
#X connect 16 0 3 0;
#X connect 17 0 13 1;
#X connect 20 0 11 0;
#X connect 23 0 20 0;
#X connect 24 0 25 0;
#X connect 24 1 26 0;
#X connect 24 2 1 0;
#X connect 25 0 13 0;
#X connect 26 0 27 0;
#X connect 27 0 28 0;
#X connect 27 1 29 0;
#X connect 28 0 23 1;
#X connect 29 0 23 1;
#X connect 30 0 24 0;
#X connect 30 1 3 0;
#X connect 30 2 9 1;
#X connect 30 3 31 0;
#X coords 0 568 1 567 400 20 0;
