#N canvas 173 242 400 586 10;
#X msg 232 133 clear;
#X obj 82 153 f;
#X obj 115 154 + 1;
#X obj 97 97 t b b b;
#X msg 97 128 0;
#X obj 13 35 inlet;
#X obj 13 526 outlet;
#X obj 232 154 s \$1;
#X obj 13 253 list prepend \$0;
#X obj 13 123 t a b;
#X obj 13 203 list prepend;
#X obj 13 297 s \$1;
#N canvas 209 154 450 300 white.background 0;
#X obj 55 173 struct \$0.bg;
#X obj 92 28 inlet;
#X obj 92 50 \$0;
#X msg 92 71 scalar \$1.bg;
#X obj 92 93 s \$1;
#X obj 55 138 filledpolygon 999 999 1 0 0 0 14 623 14 623 0;
#X connect 1 0 2 0;
#X connect 2 0 3 0;
#X connect 3 0 4 0;
#X restore 175 191 pd white.background;
#X msg 13 275 scalar \$1.button \$2 \$3 \$4 \$5 length=;
#X obj 12 351 drawsymbol param posx(0:1000)(2:1002) 0 fgclr;
#X obj 13 412 struct \$0.button float posx symbol param float fgclr
float bgclr symbol bla;
#X obj 13 57 route add reset;
#X obj 137 64 loadbang;
#X obj 13 229 list append 999 245;
#X obj 82 177 * 78;
#X obj 13 377 filledpolygon bgclr 999 1 posx 0 posx 14 posx(0:1000)(77:1077)
14 posx(0:1000)(77:1077) 0;
#X connect 0 0 7 0;
#X connect 1 0 2 0;
#X connect 1 0 19 0;
#X connect 2 0 1 1;
#X connect 3 0 4 0;
#X connect 3 1 12 0;
#X connect 3 2 0 0;
#X connect 4 0 1 1;
#X connect 5 0 16 0;
#X connect 8 0 13 0;
#X connect 9 0 10 0;
#X connect 9 1 1 0;
#X connect 10 0 18 0;
#X connect 13 0 11 0;
#X connect 16 0 9 0;
#X connect 16 1 3 0;
#X connect 17 0 3 0;
#X connect 18 0 8 0;
#X connect 19 0 10 1;
