#N canvas 84 389 828 433 10;
#X obj 584 56 table \$0.storage 10000;
#N canvas 455 91 527 335 parse.arg.list 0;
#N canvas 305 260 375 202 \$0.parser 0;
#X restore 11 10 pd \$0.parser;
#X obj 166 250 s pd-\$0.parser;
#X msg 127 228 clear;
#X obj 193 8 r \$0.set;
#X obj 146 274 s \$0.get;
#X obj 166 183 list prepend \$0;
#X obj 127 8 loadbang;
#X obj 127 30 until;
#X obj 127 52 f;
#X obj 127 74 + 1;
#X obj 127 116 t b b a;
#X obj 193 30 route 0;
#X obj 193 100 outlet;
#X obj 193 52 b;
#X msg 166 207 obj 19 5 r \$1.get \, obj 19 27 list append \$2 \, obj
19 49 s \$1.set \, connect 0 0 1 0 \, connect 1 0 2 0;
#X msg 166 160 symbol \$1\$2;
#X msg 166 138 list $ \$1;
#X obj 256 51 list prepend;
#X obj 340 51 t a;
#X obj 193 77 list append;
#X connect 2 0 1 0;
#X connect 3 0 11 0;
#X connect 5 0 14 0;
#X connect 6 0 7 0;
#X connect 7 0 8 0;
#X connect 8 0 9 0;
#X connect 9 0 8 1;
#X connect 9 0 10 0;
#X connect 10 0 2 0;
#X connect 10 1 4 0;
#X connect 10 2 16 0;
#X connect 11 0 13 0;
#X connect 11 1 17 0;
#X connect 13 0 7 1;
#X connect 13 0 19 0;
#X connect 14 0 1 0;
#X connect 15 0 5 0;
#X connect 16 0 15 0;
#X connect 17 0 18 0;
#X connect 17 0 19 1;
#X connect 18 0 17 1;
#X connect 19 0 12 0;
#X restore 246 27 pd parse.arg.list;
#X obj 29 16 inlet;
#X obj 29 38 t a a a a a a a a;
#N canvas 272 218 514 618 new 0;
#X obj 20 17 inlet;
#X obj 20 42 route new;
#X msg 224 137 0;
#X obj 298 380 sel 0;
#X msg 298 402 1000;
#X obj 224 204 + 1;
#X obj 298 317 t a a;
#X obj 298 359 +;
#X obj 224 159 tabread \$0.storage;
#X obj 298 295 tabread \$0.storage;
#X obj 325 338 tabread \$0.storage;
#X msg 263 248 0 \$1;
#X obj 263 270 s \$0.storage;
#X obj 20 111 t a b;
#X obj 20 477 pack f f;
#X text 352 424 index of new container;
#N canvas 272 88 370 294 typecheck 0;
#X obj 20 54 route float;
#X msg 83 89 new: format not supported. float expected;
#X obj 83 209 s \$0.error;
#X obj 20 23 inlet;
#X obj 59 246 outlet;
#X obj 20 86 moses 0;
#X msg 20 123 new: number <= 0 expected;
#X connect 0 0 5 0;
#X connect 0 1 1 0;
#X connect 1 0 2 0;
#X connect 3 0 0 0;
#X connect 5 0 6 0;
#X connect 5 1 4 0;
#X connect 6 0 2 0;
#X restore 20 73 pd typecheck;
#X obj 20 279 +;
#X text 48 278 add length of metadata;
#X msg 20 519 \$2 \$1;
#X obj 20 562 s \$0.storage;
#X text 340 404 put first container at 1000;
#X text 291 20 'new' method;
#X text 291 50 arg1: data length;
#X text 291 28 ------------;
#X text 261 206 increase counter;
#X obj 224 181 t a a;
#X obj 243 477 pack f f;
#X text 281 508 write index to indextable;
#X text 62 520 write size at index;
#X msg 243 509 \$1 \$2;
#X obj 224 226 t a a a;
#X obj 155 389 s \$0.counter;
#X obj 298 424 t a a a;
#X obj 337 454 s \$0.index;
#X obj 35 233 r \$0.metalength;
#X text 49 293 to get full container size;
#X connect 0 0 1 0;
#X connect 1 0 16 0;
#X connect 2 0 8 0;
#X connect 3 0 4 0;
#X connect 3 1 33 0;
#X connect 4 0 33 0;
#X connect 5 0 31 0;
#X connect 6 0 7 0;
#X connect 6 1 10 0;
#X connect 7 0 3 0;
#X connect 8 0 26 0;
#X connect 9 0 6 0;
#X connect 10 0 7 1;
#X connect 11 0 12 0;
#X connect 13 0 17 0;
#X connect 13 1 2 0;
#X connect 14 0 19 0;
#X connect 16 0 13 0;
#X connect 17 0 14 0;
#X connect 19 0 20 0;
#X connect 26 0 5 0;
#X connect 26 1 9 0;
#X connect 27 0 30 0;
#X connect 30 0 20 0;
#X connect 31 0 32 0;
#X connect 31 1 27 0;
#X connect 31 2 11 0;
#X connect 33 0 14 1;
#X connect 33 1 27 1;
#X connect 33 2 34 0;
#X connect 35 0 17 1;
#X restore 113 107 pd new;
#X obj 246 49 s \$0.args;
#X obj 444 161 tabread \$0.storage;
#X floatatom 444 183 5 0 0 0 - - -, f 5;
#X floatatom 444 140 5 0 0 0 - - -, f 5;
#X msg 610 171 const 0;
#X obj 610 193 s \$0.storage;
#N canvas 272 218 461 427 alias 0;
#X obj 20 17 inlet;
#N canvas 272 88 394 282 typecheck 0;
#X obj 98 184 s \$0.error;
#X obj 20 23 inlet;
#X obj 59 246 outlet;
#X obj 98 51 r \$0.counter;
#X obj 20 54 moses 1;
#X obj 59 96 moses 3;
#X obj 98 73 + 1;
#X msg 98 162 alias: container with id \$1 does not exist.;
#X connect 1 0 4 0;
#X connect 3 0 6 0;
#X connect 4 0 7 0;
#X connect 4 1 5 0;
#X connect 5 0 2 0;
#X connect 5 1 7 0;
#X connect 6 0 5 1;
#X connect 7 0 0 0;
#X restore 20 73 pd typecheck;
#X obj 20 366 s \$0.storage;
#X obj 20 42 route alias;
#X obj 157 301 outlet;
#X text 291 20 'alias' method;
#X text 291 28 --------------;
#X text 291 50 arg1: reference;
#X obj 157 154 tabread \$0.storage;
#X obj 157 176 tabread \$0.storage;
#X msg 157 278 new \$1;
#X obj 20 95 t a a;
#X obj 20 261 list append;
#X obj 60 189 r \$0.index;
#X obj 60 211 + 1;
#X msg 20 332 \$2 \$1;
#X text 63 330 write reference at index+1;
#X obj 157 249 -;
#X obj 172 221 r \$0.metalength;
#X text 165 130 get size of reference container;
#X text 189 244 remove metalength from full size;
#X text 188 258 to get data length;
#X connect 0 0 3 0;
#X connect 1 0 11 0;
#X connect 3 0 1 0;
#X connect 8 0 9 0;
#X connect 9 0 17 0;
#X connect 10 0 4 0;
#X connect 11 0 12 0;
#X connect 11 1 8 0;
#X connect 12 0 15 0;
#X connect 13 0 14 0;
#X connect 14 0 12 1;
#X connect 15 0 2 0;
#X connect 17 0 10 0;
#X connect 18 0 17 1;
#X restore 128 82 pd alias;
#X obj 459 65 r \$0.error;
#X obj 459 87 print structuralist;
#X obj 246 77 r \$0.args;
#X obj 246 99 list length;
#X obj 246 122 + 2;
#X text 277 122 add size + ref;
#X obj 246 144 s \$0.metalength;
#X connect 1 0 5 0;
#X connect 2 0 3 0;
#X connect 3 6 4 0;
#X connect 3 7 11 0;
#X connect 6 0 7 0;
#X connect 8 0 6 0;
#X connect 9 0 10 0;
#X connect 11 0 4 0;
#X connect 12 0 13 0;
#X connect 14 0 15 0;
#X connect 15 0 16 0;
#X connect 16 0 18 0;
