#N canvas 615 61 612 583 10;
#N canvas 915 182 272 97 NETPD 0;
#X msg 11 11 version 0 0 0;
#X restore 12 6 pd NETPD 2 0;
#X obj 26 371 rh_metro 1000;
#N canvas 742 129 436 334 delay_time_critical_messages 0;
#N canvas 590 44 449 360 get_roundtrip_avg 0;
#N canvas 1064 324 219 241 measure_roundtrip 0;
#X obj 45 75 t a a;
#X obj 18 32 t b b;
#X obj 45 147 sel 0;
#X obj 60 31 netpd-status-get socket;
#X obj 45 103 netpd_s \$1 ping;
#X obj 45 125 netpd_r \$1 ping;
#X obj 18 7 inlet;
#X obj 18 196 outlet;
#X obj 45 54 f;
#X obj 18 174 realtime;
#X connect 0 0 4 0;
#X connect 0 1 2 1;
#X connect 1 0 9 0;
#X connect 1 1 8 0;
#X connect 2 0 9 1;
#X connect 3 0 8 1;
#X connect 5 0 2 0;
#X connect 6 0 1 0;
#X connect 8 0 0 0;
#X connect 9 0 7 0;
#X restore 11 67 pd measure_roundtrip;
#X obj 66 125 b;
#X obj 11 126 t b a;
#X obj 50 269 f;
#X obj 50 238 t b a;
#X obj 11 217 moses 3;
#X obj 50 294 / 0;
#N canvas 1220 72 256 280 deviation 0;
#X obj 18 24 inlet;
#X obj 45 246 outlet;
#X obj 163 23 inlet;
#X obj 90 247 outlet;
#X obj 18 161 moses;
#X obj 45 183 moses;
#X obj 45 139 /;
#X obj 72 161 *;
#X msg 93 45 1.2;
#X obj 93 22 loadbang;
#X obj 45 81 spigot 1;
#X obj 45 103 t a b;
#X msg 116 95 0;
#X obj 18 46 t a a;
#X msg 163 52 1;
#X obj 90 223 b;
#X msg 153 125 -1e+37;
#X msg 176 151 1e+37;
#X connect 0 0 13 0;
#X connect 2 0 14 0;
#X connect 2 0 16 0;
#X connect 2 0 17 0;
#X connect 4 0 15 0;
#X connect 4 1 5 0;
#X connect 5 0 1 0;
#X connect 5 1 15 0;
#X connect 6 0 4 1;
#X connect 7 0 5 1;
#X connect 8 0 6 1;
#X connect 8 0 7 1;
#X connect 9 0 8 0;
#X connect 10 0 11 0;
#X connect 11 0 6 0;
#X connect 11 0 7 0;
#X connect 11 1 12 0;
#X connect 12 0 10 1;
#X connect 13 0 4 0;
#X connect 13 1 10 0;
#X connect 14 0 10 1;
#X connect 15 0 3 0;
#X connect 16 0 4 1;
#X connect 17 0 5 1;
#X restore 11 94 pd deviation;
#X obj 11 34 t b b;
#N canvas 1080 72 163 157 accum 0;
#X obj 8 94 +;
#X obj 8 69 f;
#X obj 8 43 t b a;
#X obj 8 16 inlet;
#X obj 8 116 outlet;
#X obj 57 15 inlet;
#X msg 57 37 0;
#X connect 0 0 1 1;
#X connect 0 0 4 0;
#X connect 1 0 0 0;
#X connect 2 0 1 0;
#X connect 2 1 0 1;
#X connect 3 0 2 0;
#X connect 5 0 6 0;
#X connect 6 0 1 1;
#X restore 65 190 pd accum;
#N canvas 1060 95 166 135 count 0;
#X obj 15 20 inlet;
#X obj 15 42 f;
#X obj 15 64 + 1;
#X obj 15 86 outlet;
#X obj 57 19 inlet;
#X msg 57 41 0;
#X connect 0 0 1 0;
#X connect 1 0 2 0;
#X connect 2 0 1 1;
#X connect 2 0 3 0;
#X connect 4 0 5 0;
#X connect 5 0 1 1;
#X restore 11 164 pd count;
#X text 145 68 <- measure round trip time (rtt);
#X text 72 215 <- collect three valid samples;
#X text 94 94 <- restart taking samples if max deviation is exceeded
;
#X text 132 189 <- sum up all samples;
#X text 84 294 <- calculate average;
#X obj 11 9 inlet;
#X obj 50 320 outlet;
#X connect 0 0 7 0;
#X connect 1 0 0 0;
#X connect 2 0 10 0;
#X connect 2 1 9 0;
#X connect 3 0 6 0;
#X connect 4 0 3 0;
#X connect 4 1 6 1;
#X connect 5 0 1 0;
#X connect 5 1 4 0;
#X connect 6 0 17 0;
#X connect 7 0 2 0;
#X connect 7 1 8 0;
#X connect 8 0 0 0;
#X connect 8 1 7 1;
#X connect 8 1 10 1;
#X connect 8 1 9 1;
#X connect 9 0 3 1;
#X connect 10 0 5 0;
#X connect 16 0 8 0;
#X restore 211 50 pd get_roundtrip_avg;
#X obj 211 77 / 2;
#X text 237 78 <- one-way travel time;
#X msg 211 100 50 \$1;
#X obj 211 121 -;
#X obj 211 142 max 0;
#X obj 154 164 pipe 0 0 0;
#X obj 154 192 pack f f;
#X obj 211 26 loadbang;
#X msg 22 68 1 \$1;
#X msg 77 68 2 \$1;
#X msg 34 286 startstop \$1;
#X obj 22 41 route startstop bpm;
#X msg 59 261 bpm \$1;
#X obj 34 231 route 1 2;
#X obj 22 12 inlet;
#X obj 34 308 outlet;
#X obj 288 25 inlet;
#X msg 263 275 latency \$1;
#X connect 0 0 1 0;
#X connect 1 0 3 0;
#X connect 1 0 18 0;
#X connect 3 0 4 0;
#X connect 4 0 5 0;
#X connect 5 0 6 2;
#X connect 6 0 7 0;
#X connect 6 1 7 1;
#X connect 7 0 14 0;
#X connect 8 0 0 0;
#X connect 9 0 6 0;
#X connect 10 0 6 0;
#X connect 11 0 16 0;
#X connect 12 0 9 0;
#X connect 12 1 10 0;
#X connect 13 0 16 0;
#X connect 14 0 11 0;
#X connect 14 1 13 0;
#X connect 15 0 12 0;
#X connect 17 0 0 0;
#X connect 18 0 16 0;
#X restore 26 213 pd delay_time_critical_messages;
#X obj 26 72 netpd_s \$1 startstop;
#X obj 26 94 netpd_r \$1 startstop;
#X msg 26 116 startstop \$1;
#X obj 26 54 tgl 15 0 empty empty empty 17 7 0 10 -262144 -1 -1 0 1
;
#X floatatom 166 41 5 0 0 0 - - -;
#X obj 166 76 netpd_s \$1 bpm;
#X obj 166 96 netpd_r \$1 bpm;
#X msg 166 118 bpm \$1;
#X obj 26 292 route startstop bpm;
#X obj 101 342 /;
#X msg 101 320 15000 \$1;
#X obj 26 481 f;
#X obj 41 459 + 1;
#X obj 26 237 s \$0.SYN;
#X obj 26 266 r \$0.SYN;
#X msg 26 502 step \$1;
#X obj 26 524 s \$0.SYN;
#X obj 41 416 r \$0.SYN;
#X obj 41 438 route step;
#X floatatom 123 543 5 0 0 0 - - -;
#N canvas 950 184 217 422 update_state 0;
#X msg 123 162 step \$1;
#X obj 109 210 s \$0.SYN;
#N canvas 500 195 353 335 request_current_state 0;
#N canvas 112 182 359 374 get_state_at_right_time 0;
#X obj 177 62 pack f f f f;
#X obj 173 -121 t a a;
#X obj 177 -23 f;
#X obj 158 -99 f;
#X obj 158 -75 sel 1 0;
#X obj 113 -6 spigot 0;
#X obj 113 18 t a b;
#X obj 113 -186 r \$0.SYN;
#X obj 113 -163 route step startstop bpm latency;
#X msg 190 7 0;
#X msg 158 -43 1;
#X obj 32 -187 inlet;
#X obj 32 -165 b;
#X obj 177 124 outlet;
#X connect 0 0 13 0;
#X connect 1 0 3 1;
#X connect 1 1 0 1;
#X connect 2 0 0 0;
#X connect 3 0 4 0;
#X connect 4 0 10 0;
#X connect 4 1 2 0;
#X connect 5 0 6 0;
#X connect 6 0 0 0;
#X connect 6 1 9 0;
#X connect 7 0 8 0;
#X connect 8 0 2 1;
#X connect 8 0 5 0;
#X connect 8 1 1 0;
#X connect 8 2 0 2;
#X connect 8 3 0 3;
#X connect 9 0 5 1;
#X connect 10 0 5 1;
#X connect 11 0 12 0;
#X connect 12 0 3 0;
#X restore 12 151 pd get_state_at_right_time;
#X obj 12 67 netpd_s \$1 state;
#X obj 12 87 netpd_r \$1 state;
#X obj 12 129 route get;
#X msg 12 45 get;
#X obj 12 173 list prepend set;
#X obj 12 195 list trim;
#X obj 12 217 netpd_s \$1 state;
#X obj 12 237 netpd_r \$1 state;
#X obj 12 262 route set;
#X obj 59 108 r \$1.notown;
#X obj 12 108 spigot;
#X obj 12 20 inlet;
#X text 144 111 <- ignore own requests;
#X obj 12 284 outlet;
#X connect 0 0 5 0;
#X connect 2 0 11 0;
#X connect 3 0 0 0;
#X connect 4 0 1 0;
#X connect 5 0 6 0;
#X connect 6 0 7 0;
#X connect 8 0 9 0;
#X connect 9 0 14 0;
#X connect 10 0 11 1;
#X connect 11 0 3 0;
#X connect 12 0 4 0;
#X restore 12 114 pd request_current_state;
#X obj 12 136 t a a a a a a a a a;
#X msg 109 185 bpm \$3;
#X obj 12 23 r \$0.SYN;
#X obj 12 45 route latency;
#X obj 12 312 -;
#X obj 12 286 -;
#X msg 67 244 \$4;
#X msg 12 159 \$2;
#X obj 12 181 sel 1;
#X obj 12 252 /;
#X msg 12 230 15000 \$1;
#X obj 12 207 f;
#X msg 53 184 \$3;
#X obj 12 338 delay;
#X msg 12 360 startstop 1;
#X obj 12 382 s \$0.SYN;
#X obj 12 69 t b a;
#X obj 12 91 del 0;
#X connect 0 0 1 0;
#X connect 2 0 3 0;
#X connect 3 0 10 0;
#X connect 3 3 15 0;
#X connect 3 4 9 0;
#X connect 3 7 4 0;
#X connect 3 8 0 0;
#X connect 4 0 1 0;
#X connect 5 0 6 0;
#X connect 6 0 19 0;
#X connect 7 0 16 0;
#X connect 8 0 7 0;
#X connect 9 0 8 1;
#X connect 10 0 11 0;
#X connect 11 0 14 0;
#X connect 12 0 8 0;
#X connect 13 0 12 0;
#X connect 14 0 13 0;
#X connect 15 0 14 1;
#X connect 16 0 17 0;
#X connect 17 0 18 0;
#X connect 19 0 20 0;
#X connect 19 1 7 1;
#X connect 20 0 2 0;
#X restore 376 80 pd update_state;
#X msg 57 54 set 1;
#X msg 356 454 1e+07;
#X obj 356 476 until;
#X msg 356 498 20;
#X obj 359 520 hsl 128 15 0 127 0 0 empty empty empty -2 -8 0 10 -262144
-1 -1 2000 1;
#X floatatom 383 225 10 0 0 0 - - -;
#N canvas 232 344 262 339 measure_deviation 0;
#X obj 19 37 metro 50;
#X obj 19 140 realtime;
#X obj 19 59 t b b;
#X obj 19 162 - 50;
#X obj 19 184 t b a;
#X obj 19 206 f;
#X obj 19 228 +;
#X obj 19 10 loadbang;
#X msg 174 122 0;
#X obj 64 117 spigot 0;
#X msg 109 91 1;
#X obj 19 275 +;
#X obj 19 251 * 0.2;
#X obj 61 273 * 0.8;
#X obj 174 83 inlet;
#X obj 19 297 outlet;
#X connect 0 0 2 0;
#X connect 1 0 3 0;
#X connect 2 0 1 0;
#X connect 2 0 10 0;
#X connect 2 1 9 0;
#X connect 3 0 4 0;
#X connect 4 0 5 0;
#X connect 4 1 6 1;
#X connect 5 0 6 0;
#X connect 6 0 5 1;
#X connect 6 0 12 0;
#X connect 7 0 0 0;
#X connect 8 0 5 1;
#X connect 9 0 1 1;
#X connect 10 0 9 1;
#X connect 11 0 13 0;
#X connect 11 0 15 0;
#X connect 12 0 11 0;
#X connect 13 0 11 1;
#X connect 14 0 8 0;
#X restore 383 195 pd measure_deviation;
#X obj 383 167 bng 15 250 50 0 empty empty empty 17 7 0 10 -262144
-1 -1;
#X obj 253 164 r \$1.NETPD;
#N canvas 805 96 176 114 once 0;
#X obj 13 12 inlet;
#X obj 13 34 spigot 1;
#X obj 13 56 t a b;
#X msg 88 49 0;
#X obj 13 78 outlet;
#X connect 0 0 1 0;
#X connect 1 0 2 0;
#X connect 2 0 4 0;
#X connect 2 1 3 0;
#X connect 3 0 1 1;
#X restore 253 230 pd once;
#X obj 253 208 route;
#X obj 253 186 route init;
#X obj 253 251 del 1000;
#X connect 1 0 14 0;
#X connect 2 0 16 0;
#X connect 4 0 5 0;
#X connect 5 0 2 0;
#X connect 6 0 3 0;
#X connect 7 0 8 0;
#X connect 9 0 10 0;
#X connect 10 0 2 0;
#X connect 11 0 1 0;
#X connect 11 1 13 0;
#X connect 12 0 1 1;
#X connect 13 0 12 0;
#X connect 14 0 18 0;
#X connect 14 0 22 0;
#X connect 15 0 14 1;
#X connect 17 0 11 0;
#X connect 18 0 19 0;
#X connect 20 0 21 0;
#X connect 21 0 15 0;
#X connect 24 0 6 0;
#X connect 25 0 26 0;
#X connect 26 0 27 0;
#X connect 27 0 28 0;
#X connect 30 0 29 0;
#X connect 31 0 30 0;
#X connect 32 0 35 0;
#X connect 33 0 36 0;
#X connect 34 0 33 0;
#X connect 35 0 34 0;
#X connect 36 0 2 1;
