#N canvas 713 44 530 686 10;
#N canvas 915 378 272 97 NETPD 0;
#N canvas 1148 210 182 90 abslist 0;
#X msg 12 18 roman_helpers;
#X restore 12 36 pd abslist;
#X msg 11 11 version 0 0 7;
#X restore 368 15 pd NETPD 2 0;
#X obj 26 460 rh_metro 1000;
#N canvas 742 129 437 374 delay_time_critical_messages 0;
#N canvas 590 44 449 360 get_roundtrip_avg 0;
#N canvas 1064 436 300 246 measure_roundtrip 0;
#X obj 18 32 t b b;
#X obj 45 150 sel 0;
#X obj 18 7 inlet;
#X obj 18 199 outlet;
#X obj 45 54 f;
#X obj 18 177 realtime;
#X obj 135 50 netpd-status-get socket 1;
#X obj 45 79 t a a;
#X obj 45 128 netpd_r \$1 ping;
#X obj 45 102 netpd-s /\$1/\$2/ping 4;
#X obj 135 22 loadbang;
#X connect 0 0 5 0;
#X connect 0 1 4 0;
#X connect 1 0 5 1;
#X connect 2 0 0 0;
#X connect 4 0 7 0;
#X connect 5 0 3 0;
#X connect 6 0 4 1;
#X connect 6 0 9 1;
#X connect 7 0 9 0;
#X connect 7 1 1 1;
#X connect 8 0 1 0;
#X connect 10 0 6 0;
#X restore 11 67 pd measure_roundtrip;
#X obj 66 134 b;
#X obj 11 135 t b a;
#X obj 50 269 f;
#X obj 50 238 t b a;
#X obj 11 217 moses 3;
#X obj 50 294 / 0;
#N canvas 1220 128 256 280 deviation 0;
#X obj 18 24 inlet;
#X obj 45 246 outlet;
#X obj 163 23 inlet;
#X obj 90 247 outlet;
#X obj 18 161 moses;
#X obj 45 183 moses;
#X obj 45 139 /;
#X obj 72 161 *;
#X obj 93 22 loadbang;
#X obj 45 81 spigot 1;
#X obj 45 103 t a b;
#X msg 116 95 0;
#X obj 18 46 t a a;
#X msg 163 52 1;
#X obj 90 223 b;
#X msg 153 125 -1e+37;
#X msg 176 151 1e+37;
#X msg 93 45 2;
#X connect 0 0 12 0;
#X connect 2 0 13 0;
#X connect 2 0 15 0;
#X connect 2 0 16 0;
#X connect 4 0 14 0;
#X connect 4 1 5 0;
#X connect 5 0 1 0;
#X connect 5 1 14 0;
#X connect 6 0 4 1;
#X connect 7 0 5 1;
#X connect 8 0 17 0;
#X connect 9 0 10 0;
#X connect 10 0 6 0;
#X connect 10 0 7 0;
#X connect 10 1 11 0;
#X connect 11 0 9 1;
#X connect 12 0 4 0;
#X connect 12 1 9 0;
#X connect 13 0 9 1;
#X connect 14 0 3 0;
#X connect 15 0 4 1;
#X connect 16 0 5 1;
#X connect 17 0 6 1;
#X connect 17 0 7 1;
#X restore 11 94 pd deviation;
#X obj 11 34 t b b;
#N canvas 1080 100 163 157 accum 0;
#X obj 8 94 +;
#X obj 8 69 f;
#X obj 8 43 t b a;
#X obj 8 16 inlet;
#X obj 8 116 outlet;
#X obj 57 15 inlet;
#X msg 57 37 0;
#X connect 0 0 1 1;
#X connect 0 0 4 0;
#X connect 1 0 0 0;
#X connect 2 0 1 0;
#X connect 2 1 0 1;
#X connect 3 0 2 0;
#X connect 5 0 6 0;
#X connect 6 0 1 1;
#X restore 65 190 pd accum;
#N canvas 1060 123 166 135 count 0;
#X obj 15 20 inlet;
#X obj 15 42 f;
#X obj 15 64 + 1;
#X obj 15 86 outlet;
#X obj 57 19 inlet;
#X msg 57 41 0;
#X connect 0 0 1 0;
#X connect 1 0 2 0;
#X connect 2 0 1 1;
#X connect 2 0 3 0;
#X connect 4 0 5 0;
#X connect 5 0 1 1;
#X restore 11 164 pd count;
#X text 145 68 <- measure round trip time (rtt);
#X text 72 215 <- collect three valid samples;
#X text 94 94 <- restart taking samples if max deviation is exceeded
;
#X text 132 189 <- sum up all samples;
#X text 84 294 <- calculate average;
#X obj 11 9 inlet;
#X obj 50 320 outlet;
#X obj 106 38 delay 500;
#X connect 0 0 7 0;
#X connect 1 0 0 0;
#X connect 2 0 10 0;
#X connect 2 1 9 0;
#X connect 3 0 6 0;
#X connect 4 0 3 0;
#X connect 4 1 6 1;
#X connect 5 0 1 0;
#X connect 5 1 4 0;
#X connect 6 0 17 0;
#X connect 7 0 2 0;
#X connect 7 1 18 0;
#X connect 8 0 0 0;
#X connect 8 1 7 1;
#X connect 8 1 10 1;
#X connect 8 1 9 1;
#X connect 9 0 3 1;
#X connect 10 0 5 0;
#X connect 16 0 8 0;
#X connect 18 0 8 0;
#X restore 261 50 pd get_roundtrip_avg;
#X obj 261 77 / 2;
#X text 287 78 <- one-way travel time;
#X msg 261 100 50 \$1;
#X obj 261 121 -;
#X obj 261 142 max 0;
#X obj 204 164 pipe 0 0 0;
#X obj 204 192 pack f f;
#X obj 261 26 loadbang;
#X msg 22 68 1 \$1;
#X msg 75 69 2 \$1;
#X msg 35 308 startstop \$1;
#X obj 22 12 inlet;
#X obj 34 330 outlet;
#X obj 338 25 inlet;
#X msg 313 275 latency \$1;
#X msg 53 287 interval \$1;
#X msg 128 69 3 \$1;
#X msg 72 266 step \$1;
#X obj 22 41 route startstop interval step notown;
#X msg 181 66 4 \$1;
#X obj 35 221 route 1 2 3 4;
#X msg 91 245 notown \$1;
#X connect 0 0 1 0;
#X connect 1 0 3 0;
#X connect 1 0 15 0;
#X connect 3 0 4 0;
#X connect 4 0 5 0;
#X connect 5 0 6 2;
#X connect 6 0 7 0;
#X connect 6 1 7 1;
#X connect 7 0 21 0;
#X connect 8 0 0 0;
#X connect 9 0 6 0;
#X connect 10 0 6 0;
#X connect 11 0 13 0;
#X connect 12 0 19 0;
#X connect 14 0 0 0;
#X connect 15 0 13 0;
#X connect 16 0 13 0;
#X connect 17 0 6 0;
#X connect 18 0 13 0;
#X connect 19 0 9 0;
#X connect 19 1 10 0;
#X connect 19 2 17 0;
#X connect 19 3 20 0;
#X connect 20 0 6 0;
#X connect 21 0 11 0;
#X connect 21 1 16 0;
#X connect 21 2 18 0;
#X connect 21 3 22 0;
#X connect 22 0 13 0;
#X restore 26 333 pd delay_time_critical_messages;
#X msg 26 284 startstop \$1;
#X obj 26 547 f;
#X obj 41 525 + 1;
#X obj 26 357 s \$0.SYN;
#X obj 26 414 r \$0.SYN;
#X msg 26 594 step \$1;
#X obj 26 660 s \$0.SYN;
#X obj 41 481 r \$0.SYN;
#X obj 41 503 route step;
#N canvas 950 324 250 422 update_state 0;
#X msg 123 162 step \$1;
#X obj 109 210 s \$0.SYN;
#N canvas 500 195 353 335 request_current_state 0;
#N canvas 112 182 359 374 get_state_at_right_time 0;
#X obj 177 62 pack f f f f;
#X obj 173 -121 t a a;
#X obj 177 -23 f;
#X obj 158 -99 f;
#X obj 158 -75 sel 1 0;
#X obj 113 -6 spigot 0;
#X obj 113 18 t a b;
#X obj 113 -186 r \$0.SYN;
#X msg 190 7 0;
#X msg 158 -43 1;
#X obj 32 -187 inlet;
#X obj 32 -165 b;
#X obj 177 124 outlet;
#X obj 113 -163 route step startstop interval latency;
#X connect 0 0 12 0;
#X connect 1 0 3 1;
#X connect 1 1 0 1;
#X connect 2 0 0 0;
#X connect 3 0 4 0;
#X connect 4 0 9 0;
#X connect 4 1 2 0;
#X connect 5 0 6 0;
#X connect 6 0 0 0;
#X connect 6 1 8 0;
#X connect 7 0 13 0;
#X connect 8 0 5 1;
#X connect 9 0 5 1;
#X connect 10 0 11 0;
#X connect 11 0 3 0;
#X connect 13 0 2 1;
#X connect 13 0 5 0;
#X connect 13 1 1 0;
#X connect 13 2 0 2;
#X connect 13 3 0 3;
#X restore 12 151 pd get_state_at_right_time;
#X obj 12 129 route get;
#X msg 12 45 get;
#X obj 12 173 list prepend set;
#X obj 12 195 list trim;
#X obj 12 262 route set;
#X obj 59 108 r \$1.notown;
#X obj 12 108 spigot;
#X obj 12 20 inlet;
#X text 144 111 <- ignore own requests;
#X obj 12 284 outlet;
#X obj 12 67 netpd_s \$1 \$2/state;
#X obj 12 87 netpd_r \$1 \$2/state;
#X obj 12 217 netpd_s \$1 \$2/state;
#X obj 12 237 netpd_r \$1 \$2/state;
#X connect 0 0 3 0;
#X connect 1 0 0 0;
#X connect 2 0 11 0;
#X connect 3 0 4 0;
#X connect 4 0 13 0;
#X connect 5 0 10 0;
#X connect 6 0 7 1;
#X connect 7 0 1 0;
#X connect 8 0 2 0;
#X connect 12 0 7 0;
#X connect 14 0 5 0;
#X restore 12 114 pd request_current_state;
#X obj 12 136 t a a a a a a a a a;
#X obj 12 23 r \$0.SYN;
#X obj 12 45 route latency;
#X obj 12 312 -;
#X obj 12 286 -;
#X msg 67 244 \$4;
#X msg 12 159 \$2;
#X obj 12 181 sel 1;
#X obj 12 207 f;
#X msg 53 184 \$3;
#X obj 12 338 delay;
#X msg 12 360 startstop 1;
#X obj 12 382 s \$0.SYN;
#X obj 12 69 t b a;
#X obj 12 91 del 0;
#X msg 109 185 notown 1 \, interval \$3;
#X connect 0 0 1 0;
#X connect 2 0 3 0;
#X connect 3 0 9 0;
#X connect 3 3 12 0;
#X connect 3 4 8 0;
#X connect 3 7 18 0;
#X connect 3 8 0 0;
#X connect 4 0 5 0;
#X connect 5 0 16 0;
#X connect 6 0 13 0;
#X connect 7 0 6 0;
#X connect 8 0 7 1;
#X connect 9 0 10 0;
#X connect 10 0 11 0;
#X connect 11 0 7 0;
#X connect 12 0 11 1;
#X connect 13 0 14 0;
#X connect 14 0 15 0;
#X connect 16 0 17 0;
#X connect 16 1 6 1;
#X connect 17 0 2 0;
#X connect 18 0 1 0;
#X restore 345 431 pd update_state;
#X floatatom 383 325 10 0 0 0 - - -;
#N canvas 232 428 262 339 measure_deviation 0;
#X obj 19 37 metro 50;
#X obj 19 140 realtime;
#X obj 19 59 t b b;
#X obj 19 162 - 50;
#X obj 19 184 t b a;
#X obj 19 206 f;
#X obj 19 228 +;
#X obj 19 10 loadbang;
#X msg 174 122 0;
#X obj 64 117 spigot 0;
#X msg 109 91 1;
#X obj 19 275 +;
#X obj 19 251 * 0.2;
#X obj 61 273 * 0.8;
#X obj 174 83 inlet;
#X obj 19 297 outlet;
#X connect 0 0 2 0;
#X connect 1 0 3 0;
#X connect 2 0 1 0;
#X connect 2 0 10 0;
#X connect 2 1 9 0;
#X connect 3 0 4 0;
#X connect 4 0 5 0;
#X connect 4 1 6 1;
#X connect 5 0 6 0;
#X connect 6 0 5 1;
#X connect 6 0 12 0;
#X connect 8 0 5 1;
#X connect 9 0 1 1;
#X connect 10 0 9 1;
#X connect 11 0 13 0;
#X connect 11 0 15 0;
#X connect 12 0 11 0;
#X connect 13 0 11 1;
#X connect 14 0 8 0;
#X restore 383 295 pd measure_deviation;
#X obj 383 267 bng 15 250 50 0 empty empty empty 17 7 0 10 -262144
-1 -1;
#X obj 251 301 r \$1.NETPD;
#N canvas 805 96 176 114 once 0;
#X obj 13 12 inlet;
#X obj 13 34 spigot 1;
#X obj 13 56 t a b;
#X msg 88 49 0;
#X obj 13 78 outlet;
#X connect 0 0 1 0;
#X connect 1 0 2 0;
#X connect 2 0 4 0;
#X connect 2 1 3 0;
#X connect 3 0 1 1;
#X restore 251 366 pd once;
#X obj 251 344 route;
#X obj 251 322 route init;
#X obj 251 387 del 1000;
#X obj 26 5 inlet;
#X obj 255 652 outlet;
#X obj 26 174 netpd_s \$1 \$2/startstop;
#X obj 26 196 netpd_r \$1 \$2/startstop;
#X obj 53 240 route 1;
#X msg 53 261 step \$1;
#X obj 26 123 sel 1;
#X obj 186 119 r \$0.SYN;
#X obj 186 141 route step;
#X obj 150 519 r \$0.SYN;
#X obj 26 616 t a a;
#X obj 26 27 route startstop interval mode;
#X obj 181 171 netpd_s \$1 \$2/interval;
#X obj 181 192 netpd_r \$1 \$2/interval;
#X msg 181 280 interval \$1;
#X obj 26 438 route startstop interval;
#X obj 26 148 pack 1 -1;
#X obj 26 568 mod 1.6632e+07;
#X obj 26 49 t a b;
#X obj 67 80 f;
#X obj 67 102 sel 0 1;
#X msg 67 123 -1;
#X obj 105 126 f;
#X obj 140 48 netpd_f \$1 \$2/mode;
#X msg 140 69 mode \$1;
#X obj 140 90 s \$0.SYN;
#X obj 223 214 r \$1.notown;
#X obj 26 218 t a a;
#X obj 181 214 t a b;
#X obj 208 236 f;
#X msg 208 257 notown \$1;
#X obj 150 541 route step latency;
#X obj 280 10 r \$1.NETPD;
#N canvas 805 96 176 114 once 0;
#X obj 13 12 inlet;
#X obj 13 34 spigot 1;
#X obj 13 56 t a b;
#X msg 88 49 0;
#X obj 13 78 outlet;
#X connect 0 0 1 0;
#X connect 1 0 2 0;
#X connect 2 0 4 0;
#X connect 2 1 3 0;
#X connect 3 0 1 1;
#X restore 280 75 pd once;
#X obj 280 32 route init;
#X obj 280 53 route 5;
#X obj 280 117 random 100;
#X obj 280 139 + 100;
#N canvas 1044 339 187 186 random_seeder 0;
#X obj 8 14 inlet;
#X obj 8 39 t b b b;
#X obj 10 76 realtime;
#X obj 10 98 * 1000;
#X msg 10 123 seed \$1 \, bang;
#X obj 71 73 netpd-dsp-off;
#X obj 10 145 outlet;
#X connect 0 0 1 0;
#X connect 1 0 2 1;
#X connect 1 1 5 0;
#X connect 1 2 2 0;
#X connect 2 0 3 0;
#X connect 3 0 4 0;
#X connect 4 0 6 0;
#X restore 280 97 pd random_seeder;
#X connect 1 0 4 0;
#X connect 2 0 6 0;
#X connect 3 0 2 0;
#X connect 4 0 38 0;
#X connect 5 0 4 1;
#X connect 7 0 36 0;
#X connect 8 0 31 0;
#X connect 10 0 11 0;
#X connect 11 0 5 0;
#X connect 14 0 13 0;
#X connect 15 0 14 0;
#X connect 16 0 19 0;
#X connect 17 0 20 0;
#X connect 18 0 17 0;
#X connect 19 0 18 0;
#X connect 20 0 2 1;
#X connect 21 0 32 0;
#X connect 24 0 48 0;
#X connect 25 0 26 0;
#X connect 26 0 2 0;
#X connect 27 0 37 0;
#X connect 27 1 23 0;
#X connect 28 0 29 0;
#X connect 29 0 43 1;
#X connect 30 0 52 0;
#X connect 31 0 9 0;
#X connect 31 1 22 0;
#X connect 32 0 39 0;
#X connect 32 1 33 0;
#X connect 32 2 44 0;
#X connect 34 0 49 0;
#X connect 35 0 2 0;
#X connect 36 0 1 0;
#X connect 36 1 1 1;
#X connect 37 0 23 0;
#X connect 38 0 8 0;
#X connect 39 0 27 0;
#X connect 39 1 40 0;
#X connect 40 0 41 0;
#X connect 41 0 42 0;
#X connect 41 1 43 0;
#X connect 42 0 37 1;
#X connect 43 0 37 1;
#X connect 44 0 40 1;
#X connect 44 0 45 0;
#X connect 45 0 46 0;
#X connect 47 0 50 1;
#X connect 48 0 3 0;
#X connect 48 1 25 0;
#X connect 49 0 35 0;
#X connect 49 1 50 0;
#X connect 50 0 51 0;
#X connect 51 0 2 0;
#X connect 52 2 22 0;
#X connect 53 0 55 0;
#X connect 54 0 59 0;
#X connect 55 0 56 0;
#X connect 56 0 54 0;
#X connect 57 0 58 0;
#X connect 58 0 33 0;
#X connect 59 0 57 0;
