#N canvas 864 333 763 353 10;
#X obj 21 225 outlet~;
#X text 300 123 damian@frey.co.nz;
#X text 300 108 damian stewart 2008;
#X text 303 154 GPL v3;
#X text 301 79 808 cowbell;
#X text 109 228 both under GPL v3 which means this is GPL v3;
#X text 109 213 adapted from d-808cb~ & d-808brain~;
#N canvas 496 105 387 156 defaults 0;
#X obj 21 12 inlet;
#X obj 21 118 outlet;
#X msg 21 78 amp 0.8 \, tune 0.5;
#X connect 0 0 2 0;
#X connect 2 0 1 0;
#X restore 578 40 pd defaults;
#X obj 461 41 inlet control;
#X obj 85 68 r \$0-amp;
#X text 13 8 an 808 cowbell emulation;
#N canvas 172 83 586 377 LICENSE-GPL 0;
#X text 57 88 This program is free software: you can redistribute it
and/or modify it under the terms of the GNU General Public License
as published by the Free Software Foundation \, either version 3 of
the License \, or (at your option) any later version.;
#X text 58 168 This program is distributed in the hope that it will
be useful \, but WITHOUT ANY WARRANTY \; without even the implied warranty
of MERCHANTABILITY or FITNESS FOR A PARTICULAR PURPOSE. See the GNU
General Public License for more details.;
#X text 57 261 You should have received a copy of the GNU General Public
License along with this program. If not \, see <http://www.gnu.org/licenses/>.
;
#X text 60 325 See the file LICENSE.txt for the full license text.
;
#X text 56 54 Copyright (C) 2009 \, 2013 Dan Wilcox <danomatika@gmail.com>
;
#X restore 398 224 pd LICENSE-GPL;
#N canvas 753 68 355 396 guts 0;
#X obj 21 26 inlet;
#X obj 96 167 line~;
#X obj 81 237 *~;
#X text 10 98 attack;
#X obj 96 198 *~;
#X msg 21 80 1 2;
#X obj 96 105 del 2.2;
#X msg 96 132 0.3 70;
#X obj 173 105 del 76;
#X text 167 88 release;
#X text 96 87 decay/sus;
#X msg 173 135 0 400;
#X obj 81 263 bp~ 2691 2.6;
#N canvas 519 337 431 346 2_squares 0;
#X obj 251 219 clip~ -1 1;
#X obj 251 170 +~;
#X obj 251 194 *~ 1000;
#X obj 68 217 clip~ -1 1;
#X obj 68 168 +~;
#X obj 68 192 *~ 1000;
#X obj 159 276 +~;
#X obj 159 303 outlet~;
#X obj 68 244 *~ 0.7;
#X obj 68 20 r \$0-tune;
#X obj 68 72 * 2;
#X obj 68 46 clip 0 1;
#X text 106 73 scale 0 1 to 0 to 2;
#X obj 251 105 * 823;
#X obj 68 103 * 550;
#X obj 68 131 osc~ 550;
#X obj 251 133 osc~ 823;
#X connect 0 0 6 1;
#X connect 1 0 2 0;
#X connect 2 0 0 0;
#X connect 3 0 8 0;
#X connect 4 0 5 0;
#X connect 5 0 3 0;
#X connect 6 0 7 0;
#X connect 8 0 6 0;
#X connect 9 0 11 0;
#X connect 10 0 13 0;
#X connect 10 0 14 0;
#X connect 11 0 10 0;
#X connect 13 0 16 0;
#X connect 14 0 15 0;
#X connect 15 0 4 0;
#X connect 16 0 1 0;
#X restore 81 26 pd 2_squares;
#X obj 21 52 t b b b b;
#X obj 81 347 outlet~;
#X obj 223 202 t b b;
#X obj 223 236 del 500;
#X obj 227 303 outlet;
#X msg 223 259 0;
#X msg 258 258 1;
#X obj 81 315 *~ 0.4;
#X obj 100 290 bp~ 6691 2.6;
#X connect 0 0 14 0;
#X connect 1 0 4 0;
#X connect 1 0 4 1;
#X connect 2 0 12 0;
#X connect 4 0 2 1;
#X connect 5 0 1 0;
#X connect 6 0 7 0;
#X connect 7 0 1 0;
#X connect 8 0 11 0;
#X connect 11 0 1 0;
#X connect 12 0 22 0;
#X connect 13 0 2 0;
#X connect 14 0 5 0;
#X connect 14 1 8 0;
#X connect 14 2 6 0;
#X connect 14 3 16 0;
#X connect 16 0 17 0;
#X connect 16 1 20 0;
#X connect 17 0 19 0;
#X connect 19 0 18 0;
#X connect 20 0 18 0;
#X connect 21 0 15 0;
#X connect 22 0 21 0;
#X restore 21 127 pd guts;
#X obj 21 193 *~ 0.5;
#X obj 461 75 route trigger amp tune reset;
#X obj 21 44 r \$0-trigger;
#X obj 461 138 b;
#X obj 461 161 s \$0-trigger;
#X obj 502 133 s \$0-amp;
#X obj 543 106 s \$0-tune;
#X obj 85 91 t f f;
#X obj 85 114 *;
#X obj 84 273 outlet;
#X obj 83 164 t a a;
#X obj 110 189 switch~;
#N canvas 804 202 450 300 NETPD 0;
#X msg 17 12 version 0 0 1;
#X restore 417 298 pd NETPD 2 0;
#X connect 7 0 14 0;
#X connect 8 0 14 0;
#X connect 9 0 20 0;
#X connect 12 0 13 0;
#X connect 12 1 23 0;
#X connect 13 0 0 0;
#X connect 14 0 16 0;
#X connect 14 1 18 0;
#X connect 14 2 19 0;
#X connect 14 3 7 0;
#X connect 15 0 12 0;
#X connect 16 0 17 0;
#X connect 20 0 21 0;
#X connect 20 1 21 1;
#X connect 21 0 13 1;
#X connect 23 0 22 0;
#X connect 23 1 24 0;
