#N canvas 35 77 445 414 10;
#X obj 32 377 dac~;
#X msg 33 94 trigger;
#X obj 151 102 hsl 153 18 0 1 0 0 empty \$0.snappy empty -2 -9 0 10 #fcfcfc #000000 #000000 0 1;
#X obj 151 156 hsl 153 18 0 1 0 0 empty \$0.tone empty -2 -9 0 10 #fcfcfc #000000 #000000 0 1;
#X obj 151 216 hsl 153 18 0 1 0 0 empty \$0.tune empty -2 -9 0 10 #fcfcfc #000000 #000000 0 1;
#X msg 148 240 tune \$1;
#X obj 33 40 tgl 18 0 empty empty empty 0 -9 0 10 #fcfcfc #000000 #000000 0 1;
#X obj 33 63 metro 500;
#X obj 151 276 hsl 153 18 0 1 0 0 empty \$0.gain empty -2 -9 0 10 #fcfcfc #000000 #000000 0 1;
#X msg 148 302 gain \$1;
#X obj 78 375 tgl 18 0 empty empty empty 0 -9 0 10 #fcfcfc #000000 #000000 0 1;
#X text 102 378 <- for [switch~];
#N canvas 84 126 400 103 send 0;
#X obj 15 9 inlet;
#X obj 15 32 list prepend \$0;
#X msg 15 55 \; \$1.\$2 \$3;
#X connect 0 0 1 0;
#X connect 1 0 2 0;
#X restore 148 56 pd send;
#N canvas 35 77 449 109 NETPD 0;
#X msg 10 9 version 0 0 1;
#X restore 337 377 pd NETPD 2 0;
#X obj 33 339 tr909-sd;
#X msg 148 127 snappy \$1;
#X msg 148 182 tone \$1;
#X obj 148 9 loadbang;
#X msg 148 32 tune 0.5 \, snappy 0.5 \, tone 0.5 \, gain 0.707107;
#X connect 1 0 14 0;
#X connect 2 0 15 0;
#X connect 3 0 16 0;
#X connect 4 0 5 0;
#X connect 5 0 14 0;
#X connect 6 0 7 0;
#X connect 7 0 1 0;
#X connect 8 0 9 0;
#X connect 9 0 14 0;
#X connect 14 0 0 0;
#X connect 14 0 0 1;
#X connect 14 1 10 0;
#X connect 15 0 14 0;
#X connect 16 0 14 0;
#X connect 17 0 18 0;
#X connect 18 0 12 0;
