#N canvas 35 77 445 414 10;
#X obj 33 339 tr909-bd;
#X obj 32 377 dac~;
#X msg 33 94 trigger;
#X msg 148 127 attack \$1;
#X obj 151 102 hsl 153 18 0 1 0 0 empty \$0.attack empty -2 -9 0 10 #fcfcfc #000000 #000000 0 1;
#X obj 151 156 hsl 153 18 0 1 0 0 empty \$0.decay empty -2 -9 0 10 #fcfcfc #000000 #000000 0 1;
#X msg 148 182 decay \$1;
#X obj 151 216 hsl 153 18 0 1 0 0 empty \$0.tune empty -2 -9 0 10 #fcfcfc #000000 #000000 0 1;
#X msg 148 240 tune \$1;
#X obj 33 40 tgl 18 0 empty empty empty 0 -9 0 10 #fcfcfc #000000 #000000 0 1;
#X obj 33 63 metro 500;
#X obj 151 276 hsl 153 18 0 1 0 0 empty \$0.gain empty -2 -9 0 10 #fcfcfc #000000 #000000 0 1;
#X msg 148 302 gain \$1;
#X obj 78 375 tgl 18 0 empty empty empty 0 -9 0 10 #fcfcfc #000000 #000000 0 1;
#X text 102 378 <- for [switch~];
#X obj 148 8 loadbang;
#N canvas 84 126 400 103 send 0;
#X obj 15 9 inlet;
#X obj 15 32 list prepend \$0;
#X msg 15 55 \; \$1.\$2 \$3;
#X connect 0 0 1 0;
#X connect 1 0 2 0;
#X restore 148 56 pd send;
#X msg 148 31 tune 0.5 \, decay 0.5 \, attack 0 \, gain 0.707107;
#N canvas 35 77 449 109 NETPD 0;
#X msg 10 9 version 0 0 1;
#X restore 337 377 pd NETPD 2 0;
#X connect 0 0 1 0;
#X connect 0 0 1 1;
#X connect 0 1 13 0;
#X connect 2 0 0 0;
#X connect 3 0 0 0;
#X connect 4 0 3 0;
#X connect 5 0 6 0;
#X connect 6 0 0 0;
#X connect 7 0 8 0;
#X connect 8 0 0 0;
#X connect 9 0 10 0;
#X connect 10 0 2 0;
#X connect 11 0 12 0;
#X connect 12 0 0 0;
#X connect 15 0 17 0;
#X connect 17 0 16 0;
