#N canvas 302 437 547 420 10;
#N canvas 1048 191 231 103 NETPD 0;
#X msg 14 17 version 0 0 4;
#X restore 111 12 pd NETPD 2 0;
#X obj 86 59 inlet~;
#X obj 218 92 inlet~;
#X obj 26 360 outlet~;
#X obj 170 372 outlet~;
#N canvas 692 534 219 73 \$3-\$2 0;
#X obj 9 5 hsl 200 20 0 1 0 0 \$1-\$2/gain \$1-\$2/gain GAIN 10 11 0 18 #9c00fc #fc0400 #fcfcfc 0 1;
#X text 176 50 TRAMP;
#X obj 9 28 hsl 200 20 0 1 0 0 \$1-\$2/level \$1-\$2/level LEVEL 10 11 0 18 #b014ff #fc0400 #fcfcfc 0 1;
#X restore 7 12 pd \$3-\$2;
#X obj 82 180 bp~ 1000 0.629;
#X obj 82 155 clip~ -0.45 0.45;
#X obj 82 113 *~;
#X obj 82 92 hip~ 50;
#X obj 82 134 *~ 200;
#X obj 213 212 bp~ 1000 0.629;
#X obj 213 187 clip~ -0.45 0.45;
#X obj 213 145 *~;
#X obj 213 124 hip~ 50;
#X obj 213 166 *~ 200;
#X obj 229 341 *~ 0.3;
#X obj 63 325 *~ 0.5;
#X obj 58 280 delwrite~ \$0.left 9.3454;
#X obj 330 85 netpd_f \$1 \$2/gain 0;
#X obj 227 297 delwrite~ \$0.right 12.3454;
#X obj 60 301 delread~ \$0.left 2.3454;
#X obj 229 318 delread~ \$0.right 5.3454;
#X obj 330 114 rh_scalelog 0.003 1;
#X obj 348 220 rh_scalelog 0.01 3;
#X obj 348 191 netpd_f \$1 \$2/level 0.768;
#X msg 347 245 \$1 50;
#X obj 346 268 line~;
#X obj 205 240 *~;
#X obj 68 211 *~;
#X msg 329 139 \$1 50;
#X obj 328 162 line~;
#X connect 1 0 9 0;
#X connect 2 0 14 0;
#X connect 6 0 29 0;
#X connect 7 0 6 0;
#X connect 8 0 10 0;
#X connect 9 0 8 0;
#X connect 10 0 7 0;
#X connect 11 0 28 0;
#X connect 12 0 11 0;
#X connect 13 0 15 0;
#X connect 14 0 13 0;
#X connect 15 0 12 0;
#X connect 16 0 4 0;
#X connect 17 0 3 0;
#X connect 19 0 23 0;
#X connect 21 0 17 0;
#X connect 22 0 16 0;
#X connect 23 0 30 0;
#X connect 24 0 26 0;
#X connect 25 0 24 0;
#X connect 26 0 27 0;
#X connect 27 0 28 1;
#X connect 27 0 29 1;
#X connect 28 0 4 0;
#X connect 28 0 20 0;
#X connect 29 0 3 0;
#X connect 29 0 18 0;
#X connect 30 0 31 0;
#X connect 31 0 13 1;
#X connect 31 0 8 1;
