#N canvas 368 103 405 523 10;
#X obj 44 412 struct \$0.button float posx float posy float color;
#X obj 23 27 inlet;
#N canvas 798 145 569 359 manual.edit 0;
#X obj 24 62 trigger pointer pointer;
#X obj 195 264 set \$0.button color;
#X obj 24 265 pack f f f;
#X obj 24 95 get \$0.button posx posy color;
#X obj 24 323 outlet;
#X obj 24 8 inlet;
#X obj 24 29 route click change;
#X obj 48 121 pack f f;
#X obj 383 211 list append;
#X obj 383 167 trigger bang pointer;
#X obj 383 257 set \$0.button posx posy;
#X obj 383 233 unpack f f;
#X obj 24 183 div 10;
#X obj 109 185 div 10;
#X obj 195 187 moses 700;
#X msg 81 239 0;
#X msg 111 239 1;
#X obj 195 222 + 333;
#X obj 246 225 - 333;
#X msg 24 298 cell \$1 \$2 \$3;
#X text 378 82 don't allow scalar movement;
#X obj 24 153 - \$2;
#X obj 109 161 - \$3;
#X connect 0 0 3 0;
#X connect 0 1 1 1;
#X connect 2 0 19 0;
#X connect 3 0 7 0;
#X connect 3 0 21 0;
#X connect 3 1 7 1;
#X connect 3 1 22 0;
#X connect 3 2 14 0;
#X connect 5 0 6 0;
#X connect 6 0 0 0;
#X connect 6 1 9 0;
#X connect 7 0 8 1;
#X connect 8 0 11 0;
#X connect 9 0 8 0;
#X connect 9 1 10 2;
#X connect 11 0 10 0;
#X connect 11 1 10 1;
#X connect 12 0 2 0;
#X connect 13 0 2 1;
#X connect 14 0 15 0;
#X connect 14 0 17 0;
#X connect 14 1 16 0;
#X connect 14 1 18 0;
#X connect 15 0 2 2;
#X connect 16 0 2 2;
#X connect 17 0 1 0;
#X connect 18 0 1 0;
#X connect 19 0 4 0;
#X connect 21 0 12 0;
#X connect 22 0 13 0;
#X restore 44 438 pd manual.edit;
#X obj 23 480 outlet;
#N canvas 420 267 595 432 create 0;
#X obj 363 186 t b a;
#X obj 363 299 list append;
#N canvas 42 70 324 150 seq 0;
#X obj 16 57 until;
#X obj 16 81 f;
#X obj 16 105 t a a;
#X obj 16 32 t a b;
#X msg 59 58 0;
#X obj 16 9 inlet;
#X obj 16 127 outlet;
#X obj 64 84 + 1;
#X connect 0 0 1 0;
#X connect 1 0 2 0;
#X connect 2 0 6 0;
#X connect 2 1 7 0;
#X connect 3 0 0 0;
#X connect 3 1 4 0;
#X connect 4 0 1 1;
#X connect 5 0 3 0;
#X connect 7 0 1 1;
#X restore 363 234 pd seq;
#X obj 363 211 f;
#N canvas 42 70 324 150 seq 0;
#X obj 16 57 until;
#X obj 16 81 f;
#X obj 16 105 t a a;
#X obj 16 32 t a b;
#X msg 59 58 0;
#X obj 16 9 inlet;
#X obj 16 127 outlet;
#X obj 64 84 + 1;
#X connect 0 0 1 0;
#X connect 1 0 2 0;
#X connect 2 0 6 0;
#X connect 2 1 7 0;
#X connect 3 0 0 0;
#X connect 3 1 4 0;
#X connect 4 0 1 1;
#X connect 5 0 3 0;
#X connect 7 0 1 1;
#X restore 363 162 pd seq;
#X obj 363 140 unpack f f;
#X msg 483 157 clear;
#X msg 363 386 scalar \$1.button \$2 \$3 \$4;
#X msg 363 321 \$2 \$1;
#N canvas 1007 281 344 330 append.color 0;
#X obj 10 4 inlet;
#X obj 10 256 outlet;
#X obj 10 229 list append 777;
#X msg 70 50 \$1;
#X obj 70 92 div 40;
#X obj 70 114 mod 2;
#X obj 70 157 sel 0 1;
#X msg 160 62 \$2;
#X obj 160 85 div 10;
#X obj 10 26 t a a a;
#X obj 163 153 sel 1 3 6 8 10;
#X obj 70 205 +;
#X obj 163 132 mod 12;
#X obj 162 108 + 1;
#X msg 70 182 767;
#X msg 109 181 777;
#X msg 163 191 0;
#X msg 210 187 111;
#X obj 70 72 - \$2;
#X connect 0 0 9 0;
#X connect 2 0 1 0;
#X connect 3 0 18 0;
#X connect 4 0 5 0;
#X connect 5 0 6 0;
#X connect 6 0 14 0;
#X connect 6 1 15 0;
#X connect 7 0 8 0;
#X connect 8 0 13 0;
#X connect 9 0 2 0;
#X connect 9 1 3 0;
#X connect 9 2 7 0;
#X connect 10 0 16 0;
#X connect 10 1 16 0;
#X connect 10 2 16 0;
#X connect 10 3 16 0;
#X connect 10 4 16 0;
#X connect 10 5 17 0;
#X connect 11 0 2 1;
#X connect 12 0 10 0;
#X connect 13 0 12 0;
#X connect 14 0 11 0;
#X connect 15 0 11 0;
#X connect 16 0 11 1;
#X connect 17 0 11 1;
#X connect 18 0 4 0;
#X restore 363 343 pd append.color;
#X obj 363 365 list prepend \$0;
#X obj 23 21 inlet;
#X obj 363 256 * 10;
#X obj 426 256 * 10;
#X text 422 216 cell dimension;
#X obj 344 51 t a a b;
#X obj 344 116 s \$0.xsize;
#X obj 344 74 unpack f f;
#X obj 357 97 s \$0.ysize;
#X obj 23 64 list split 2;
#X msg 344 24 \$1 \$2;
#X text 395 23 size (x \, y);
#X text 346 4 create scalars;
#X text 75 10 set scalars;
#X obj 207 125 list append;
#X obj 207 147 list split 2;
#X obj 207 194 unpack f f;
#X obj 222 215 r \$0.ysize;
#X obj 207 238 *;
#X obj 207 260 +;
#X obj 23 101 unpack f f;
#X obj 23 123 *;
#X obj 23 167 until;
#X obj 23 189 f;
#X obj 66 190 + 1;
#X msg 64 168 0;
#X obj 84 248 pointer;
#X msg 84 224 next;
#X obj 84 291 get \$0.button color;
#X obj 23 315 f;
#X obj 23 361 set \$0.button color;
#X obj 23 338 - 333;
#X obj 23 145 t a b b;
#X obj 23 215 t a b;
#X obj 23 275 t b b;
#X obj 102 145 list append \$1;
#X obj 23 253 sel -1;
#X obj 207 92 t b a;
#X obj 23 43 t a b a;
#X msg 144 64 -1;
#X obj 483 110 f 1;
#X obj 483 132 sel 1;
#X obj 496 24 inlet;
#X msg 102 169 traverse \$1;
#X obj 363 411 s \$1;
#X obj 483 179 s \$1;
#X obj 363 278 + \$3;
#X obj 426 277 + \$2;
#X connect 0 0 3 0;
#X connect 0 1 13 0;
#X connect 1 0 8 0;
#X connect 2 0 12 0;
#X connect 3 0 2 0;
#X connect 4 0 0 0;
#X connect 5 0 4 0;
#X connect 5 1 3 1;
#X connect 6 0 55 0;
#X connect 7 0 54 0;
#X connect 8 0 9 0;
#X connect 9 0 10 0;
#X connect 10 0 7 0;
#X connect 11 0 48 0;
#X connect 12 0 56 0;
#X connect 13 0 57 0;
#X connect 15 0 17 0;
#X connect 15 1 5 0;
#X connect 15 2 50 0;
#X connect 17 0 16 0;
#X connect 17 1 18 0;
#X connect 19 0 30 0;
#X connect 19 1 47 0;
#X connect 20 0 15 0;
#X connect 24 0 25 0;
#X connect 25 0 26 0;
#X connect 25 1 24 1;
#X connect 26 0 28 0;
#X connect 26 1 29 1;
#X connect 27 0 28 1;
#X connect 28 0 29 0;
#X connect 29 0 46 1;
#X connect 30 0 31 0;
#X connect 30 1 31 1;
#X connect 31 0 42 0;
#X connect 32 0 33 0;
#X connect 33 0 34 0;
#X connect 33 0 43 0;
#X connect 34 0 33 1;
#X connect 35 0 33 1;
#X connect 36 0 38 0;
#X connect 36 0 40 1;
#X connect 37 0 36 0;
#X connect 38 0 39 1;
#X connect 39 0 41 0;
#X connect 41 0 40 0;
#X connect 42 0 32 0;
#X connect 42 1 35 0;
#X connect 42 2 45 0;
#X connect 43 0 46 0;
#X connect 43 1 37 0;
#X connect 44 0 39 0;
#X connect 44 1 24 0;
#X connect 45 0 53 0;
#X connect 46 0 44 0;
#X connect 47 0 24 0;
#X connect 47 1 24 1;
#X connect 48 0 19 0;
#X connect 48 1 49 0;
#X connect 48 2 20 0;
#X connect 49 0 46 1;
#X connect 50 0 51 0;
#X connect 51 0 6 0;
#X connect 52 0 50 1;
#X connect 53 0 36 0;
#X connect 56 0 1 0;
#X connect 57 0 1 1;
#X restore 145 92 pd create;
#X msg 226 78 clear;
#N canvas 798 224 433 456 sequencer 0;
#X obj 172 62 b;
#X obj 19 305 moses 700;
#X obj 19 332 b;
#X obj 160 327 div 10;
#X obj 19 354 f;
#X obj 19 418 outlet;
#X obj 19 283 get \$0.button color posy;
#X msg 19 376 hit \$1;
#X obj 19 170 list append \$1;
#X obj 19 258 spigot 1;
#X obj 272 51 t b b b;
#X msg 311 208 0;
#X msg 272 208 1;
#N canvas 773 202 429 436 cursor 0;
#X obj 68 75 inlet;
#X obj 68 388 set \$0.cursor cx;
#X obj 221 285 list append \$1;
#X obj 162 250 t b b;
#X obj 162 272 until;
#X msg 162 294 next;
#X obj 162 339 pointer \$0.cursor;
#X obj 162 361 t p b;
#X obj 68 237 * 10;
#X obj 68 259 + 1;
#X obj 68 97 route next rewind redraw;
#X obj 68 199 f;
#X obj 97 200 + 1;
#X msg 115 172 0;
#X obj 262 211 list prepend \$0;
#X obj 162 140 t b a;
#X obj 262 100 + 1;
#X text 260 46 draw cursor;
#X text 259 62 (after ungrid creation);
#X text 120 229 set pointer to cursor;
#X obj 262 78 * 10;
#X obj 262 252 s \$1;
#X msg 221 307 traverse \$1;
#X obj 16 48 drawpolygon 900 2 cx cy cx cy2;
#X obj 16 26 struct \$0.cursor float cx float cy float cy2;
#X obj 262 122 t b a;
#X obj 262 145 f \$3;
#X obj 307 145 + \$3;
#X obj 262 167 pack f f;
#X obj 68 318 + \$2;
#X obj 262 189 list append \$2;
#X msg 262 231 scalar \$1.cursor \$4 \$2 \$3;
#X connect 0 0 10 0;
#X connect 2 0 22 0;
#X connect 3 0 4 0;
#X connect 3 1 2 0;
#X connect 4 0 5 0;
#X connect 5 0 6 0;
#X connect 6 0 7 0;
#X connect 7 0 1 1;
#X connect 7 1 4 1;
#X connect 8 0 9 0;
#X connect 9 0 29 0;
#X connect 10 0 11 0;
#X connect 10 1 13 0;
#X connect 10 2 15 0;
#X connect 11 0 12 0;
#X connect 11 0 8 0;
#X connect 12 0 11 1;
#X connect 13 0 11 1;
#X connect 14 0 31 0;
#X connect 15 0 3 0;
#X connect 15 0 13 0;
#X connect 15 1 20 0;
#X connect 16 0 25 0;
#X connect 20 0 16 0;
#X connect 22 0 6 0;
#X connect 25 0 26 0;
#X connect 25 1 27 0;
#X connect 26 0 28 0;
#X connect 27 0 28 1;
#X connect 28 0 30 0;
#X connect 29 0 1 0;
#X connect 30 0 14 0;
#X connect 31 0 21 0;
#X restore 314 378 pd cursor;
#X msg 303 316 next;
#X msg 255 317 rewind;
#X obj 19 227 pointer \$0.button;
#X obj 19 15 inlet rewind;
#X obj 172 19 inlet next;
#X obj 272 19 inlet skip;
#N canvas 570 274 295 158 y*next 0;
#X obj 10 77 until;
#X obj 10 55 f;
#X msg 10 98 next;
#X obj 10 13 inlet;
#X obj 10 120 outlet;
#X obj 35 55 r \$0.ysize;
#X obj 10 34 b;
#X connect 0 0 2 0;
#X connect 1 0 0 0;
#X connect 2 0 4 0;
#X connect 3 0 6 0;
#X connect 5 0 1 1;
#X connect 6 0 1 0;
#X restore 172 187 pd y*next;
#N canvas 447 364 313 183 auto.rewind.eou 0;
#X obj 12 10 inlet;
#X obj 45 78 r \$0.xsize;
#X obj 12 53 f;
#X obj 12 77 mod;
#X obj 49 57 + 1;
#X obj 55 123 sel 0;
#X obj 12 146 outlet;
#X obj 55 146 outlet;
#X obj 72 8 inlet;
#X msg 72 30 0;
#X obj 99 146 outlet;
#X obj 12 99 t b a a;
#X msg 99 123 step \$1;
#X connect 0 0 2 0;
#X connect 1 0 3 1;
#X connect 2 0 3 0;
#X connect 3 0 4 0;
#X connect 3 0 11 0;
#X connect 4 0 2 1;
#X connect 5 0 7 0;
#X connect 8 0 9 0;
#X connect 9 0 2 1;
#X connect 11 0 6 0;
#X connect 11 1 5 0;
#X connect 11 2 12 0;
#X connect 12 0 10 0;
#X restore 172 99 pd auto.rewind.eou;
#X obj 19 63 t b b;
#X obj 28 37 r \$0.ysize;
#X text 96 37 reset sequencer on new ungrid creation;
#X obj 19 136 t b b;
#X obj 172 153 t b b;
#X obj 339 286 r \$0.ysize;
#X msg 339 315 redraw \$1;
#X msg 19 194 traverse \$1;
#X obj 160 304 - \$3;
#X connect 0 0 21 0;
#X connect 1 0 2 0;
#X connect 2 0 4 0;
#X connect 3 0 4 1;
#X connect 4 0 7 0;
#X connect 6 0 1 0;
#X connect 6 1 30 0;
#X connect 7 0 5 0;
#X connect 8 0 29 0;
#X connect 9 0 6 0;
#X connect 10 0 12 0;
#X connect 10 1 21 0;
#X connect 10 2 11 0;
#X connect 11 0 9 1;
#X connect 12 0 9 1;
#X connect 14 0 13 0;
#X connect 15 0 13 0;
#X connect 16 0 9 0;
#X connect 17 0 22 0;
#X connect 18 0 0 0;
#X connect 19 0 10 0;
#X connect 20 0 16 0;
#X connect 21 0 26 0;
#X connect 21 1 25 0;
#X connect 21 2 5 0;
#X connect 22 0 25 0;
#X connect 22 1 21 1;
#X connect 23 0 22 0;
#X connect 25 0 8 0;
#X connect 25 1 15 0;
#X connect 26 0 20 0;
#X connect 26 1 14 0;
#X connect 27 0 28 0;
#X connect 28 0 13 0;
#X connect 29 0 16 0;
#X connect 30 0 3 0;
#X restore 23 246 pd sequencer;
#X obj 248 183 t a;
#X obj 23 317 t a;
#N canvas 908 227 422 490 dump 0;
#X obj 91 9 inlet;
#X obj 310 194 r \$0.ysize;
#X obj 129 74 until;
#X obj 129 101 t b b;
#X msg 283 128 0;
#X obj 268 153 f;
#X obj 297 154 + 1;
#X msg 129 123 next;
#X obj 268 195 t a a;
#X obj 268 224 div;
#X obj 295 224 mod;
#X obj 129 220 moses 700;
#X obj 129 244 b;
#X obj 268 246 pack f f;
#X obj 129 284 list append;
#X obj 129 315 list prepend;
#X obj 223 316 t a;
#X obj 91 358 list append;
#X obj 91 34 t bang bang bang bang bang;
#X obj 244 352 b;
#X obj 91 445 outlet;
#X obj 129 175 get \$0.button color;
#X obj 91 425 list trim;
#X obj 91 403 list prepend create;
#X obj 91 380 list prepend;
#X obj 320 375 r \$0.ysize;
#X obj 275 354 r \$0.xsize;
#X obj 275 398 pack f f;
#X obj 205 64 list append \$1;
#X msg 205 88 traverse \$1;
#X obj 129 155 pointer \$0.button;
#X connect 0 0 18 0;
#X connect 1 0 9 1;
#X connect 1 0 10 1;
#X connect 2 0 3 0;
#X connect 3 0 7 0;
#X connect 3 1 5 0;
#X connect 4 0 5 1;
#X connect 5 0 6 0;
#X connect 5 0 8 0;
#X connect 6 0 5 1;
#X connect 7 0 30 0;
#X connect 8 0 9 0;
#X connect 8 1 10 0;
#X connect 9 0 13 0;
#X connect 10 0 13 1;
#X connect 11 0 12 0;
#X connect 12 0 14 0;
#X connect 13 0 14 1;
#X connect 14 0 15 0;
#X connect 15 0 17 1;
#X connect 15 0 16 0;
#X connect 16 0 15 1;
#X connect 17 0 24 0;
#X connect 18 0 17 0;
#X connect 18 1 2 0;
#X connect 18 2 4 0;
#X connect 18 3 28 0;
#X connect 18 4 19 0;
#X connect 19 0 15 1;
#X connect 19 0 17 1;
#X connect 21 0 11 0;
#X connect 22 0 20 0;
#X connect 23 0 22 0;
#X connect 24 0 23 0;
#X connect 25 0 27 1;
#X connect 26 0 27 0;
#X connect 27 0 24 1;
#X connect 28 0 29 0;
#X connect 29 0 30 0;
#X connect 30 0 21 0;
#X connect 30 2 2 1;
#X restore 142 247 pd dump;
#X obj 44 347 filledpolygon color 666 1 posx posy posx posy(0:10000)(10:10010)
posx(0:10000)(10:10010) posy(0:10000)(10:10010) posx(0:10000)(10:10010)
posy;
#X msg 267 96 vis \$1;
#N canvas 843 120 338 523 set.cell 0;
#X msg 60 215 next;
#X obj 60 240 pointer;
#X obj 60 81 t a b;
#X obj 60 166 +;
#X obj 60 104 unpack f f f;
#X obj 60 191 until;
#X obj 23 451 set \$0.button color;
#X obj 23 52 t b a;
#X obj 23 161 f;
#X obj 23 23 inlet;
#X obj 60 137 *;
#X obj 145 104 r \$0.ysize;
#X obj 60 289 get \$0.button color;
#X obj 60 262 trigger pointer pointer;
#X obj 60 311 t a a;
#X obj 23 379 -;
#X obj 23 428 +;
#X obj 60 333 moses 700;
#X msg 111 357 0;
#X msg 60 356 1;
#X obj 23 404 * -333;
#X obj 122 176 list append \$1;
#X msg 122 199 traverse \$1 \, next;
#X connect 0 0 1 0;
#X connect 1 0 13 0;
#X connect 2 0 4 0;
#X connect 2 1 21 0;
#X connect 3 0 5 0;
#X connect 4 0 10 0;
#X connect 4 1 3 1;
#X connect 4 2 8 1;
#X connect 5 0 0 0;
#X connect 7 0 8 0;
#X connect 7 1 2 0;
#X connect 8 0 15 0;
#X connect 9 0 7 0;
#X connect 10 0 3 0;
#X connect 11 0 10 1;
#X connect 12 0 14 0;
#X connect 13 0 12 0;
#X connect 13 1 6 1;
#X connect 14 0 17 0;
#X connect 14 1 16 1;
#X connect 15 0 20 0;
#X connect 16 0 6 0;
#X connect 17 0 19 0;
#X connect 17 1 18 0;
#X connect 18 0 15 1;
#X connect 19 0 15 1;
#X connect 20 0 16 0;
#X connect 21 0 22 0;
#X connect 22 0 1 0;
#X restore 23 121 pd set.cell;
#X obj 23 200 route rewind next skip dump;
#X text 273 496 2013 \, Roman Haefeli;
#N canvas 467 499 302 74 NETPD 0;
#N canvas 710 499 309 45 abslist 0;
#X msg 14 13 ungrid-help;
#X restore 16 41 pd abslist;
#X msg 16 13 version 0 1 5;
#X restore 275 471 pd NETPD 2 0;
#X obj 23 50 route cell row column create autoclear clear vis;
#X obj 226 123 s \$1;
#X connect 0 0 2 0;
#X connect 1 0 16 0;
#X connect 2 0 3 0;
#X connect 5 0 17 0;
#X connect 6 0 8 0;
#X connect 7 0 13 0;
#X connect 8 0 3 0;
#X connect 9 0 8 0;
#X connect 11 0 17 0;
#X connect 13 0 6 0;
#X connect 13 1 6 1;
#X connect 13 2 6 2;
#X connect 13 3 9 0;
#X connect 16 0 12 0;
#X connect 16 3 4 0;
#X connect 16 4 4 1;
#X connect 16 5 5 0;
#X connect 16 6 11 0;
#X connect 16 7 7 0;
