#N canvas 368 103 405 523 10;
#X obj 44 412 struct \$0.button float posx float posy float color;
#X obj 23 27 inlet;
#N canvas 798 145 569 359 manual.edit 0;
#X obj 24 62 trigger pointer pointer;
#X obj 195 264 set \$0.button color;
#X obj 24 265 pack f f f;
#X obj 24 95 get \$0.button posx posy color;
#X obj 24 323 outlet;
#X obj 24 8 inlet;
#X obj 24 29 route click change;
#X obj 48 121 pack f f;
#X obj 383 211 list append;
#X obj 383 167 trigger bang pointer;
#X obj 383 257 set \$0.button posx posy;
#X obj 383 233 unpack f f;
#X obj 24 183 div 10;
#X obj 109 185 div 10;
#X obj 195 187 moses 700;
#X msg 81 239 0;
#X msg 111 239 1;
#X obj 195 222 + 333;
#X obj 246 225 - 333;
#X msg 24 298 cell \$1 \$2 \$3;
#X text 378 82 don't allow scalar movement;
#X connect 0 0 3 0;
#X connect 0 1 1 1;
#X connect 2 0 19 0;
#X connect 3 0 7 0;
#X connect 3 0 12 0;
#X connect 3 1 7 1;
#X connect 3 1 13 0;
#X connect 3 2 14 0;
#X connect 5 0 6 0;
#X connect 6 0 0 0;
#X connect 6 1 9 0;
#X connect 7 0 8 1;
#X connect 8 0 11 0;
#X connect 9 0 8 0;
#X connect 9 1 10 2;
#X connect 11 0 10 0;
#X connect 11 1 10 1;
#X connect 12 0 2 0;
#X connect 13 0 2 1;
#X connect 14 0 15 0;
#X connect 14 0 17 0;
#X connect 14 1 16 0;
#X connect 14 1 18 0;
#X connect 15 0 2 2;
#X connect 16 0 2 2;
#X connect 17 0 1 0;
#X connect 18 0 1 0;
#X connect 19 0 4 0;
#X restore 44 438 pd manual.edit;
#X obj 23 480 outlet;
#N canvas 475 148 595 432 create 0;
#X obj 344 166 t b a;
#X obj 344 269 list append;
#N canvas 42 70 324 150 seq 0;
#X obj 16 57 until;
#X obj 16 81 f;
#X obj 16 105 t a a;
#X obj 16 32 t a b;
#X msg 59 58 0;
#X obj 16 9 inlet;
#X obj 16 127 outlet;
#X obj 64 84 + 1;
#X connect 0 0 1 0;
#X connect 1 0 2 0;
#X connect 2 0 6 0;
#X connect 2 1 7 0;
#X connect 3 0 0 0;
#X connect 3 1 4 0;
#X connect 4 0 1 1;
#X connect 5 0 3 0;
#X connect 7 0 1 1;
#X restore 344 214 pd seq;
#X obj 344 191 f;
#N canvas 42 70 324 150 seq 0;
#X obj 16 57 until;
#X obj 16 81 f;
#X obj 16 105 t a a;
#X obj 16 32 t a b;
#X msg 59 58 0;
#X obj 16 9 inlet;
#X obj 16 127 outlet;
#X obj 64 84 + 1;
#X connect 0 0 1 0;
#X connect 1 0 2 0;
#X connect 2 0 6 0;
#X connect 2 1 7 0;
#X connect 3 0 0 0;
#X connect 3 1 4 0;
#X connect 4 0 1 1;
#X connect 5 0 3 0;
#X connect 7 0 1 1;
#X restore 344 142 pd seq;
#X obj 344 120 unpack f f;
#X msg 430 80 clear;
#X msg 344 356 scalar \$1.button \$2 \$3 \$4;
#X msg 344 291 \$2 \$1;
#N canvas 1007 281 342 249 append.color 0;
#X obj 10 4 inlet;
#X obj 10 223 outlet;
#X obj 10 196 list append 777;
#X msg 70 49 \$1;
#X obj 70 71 div 40;
#X obj 70 93 mod 2;
#X obj 70 116 sel 0 1;
#X msg 160 33 \$2;
#X obj 160 55 div 10;
#X obj 10 26 t a a a;
#X obj 163 123 sel 1 3 6 8 10;
#X obj 69 171 +;
#X obj 163 102 mod 12;
#X obj 162 78 + 1;
#X msg 70 141 767;
#X msg 109 140 777;
#X msg 163 161 0;
#X msg 210 157 111;
#X connect 0 0 9 0;
#X connect 2 0 1 0;
#X connect 3 0 4 0;
#X connect 4 0 5 0;
#X connect 5 0 6 0;
#X connect 6 0 14 0;
#X connect 6 1 15 0;
#X connect 7 0 8 0;
#X connect 8 0 13 0;
#X connect 9 0 2 0;
#X connect 9 1 3 0;
#X connect 9 2 7 0;
#X connect 10 0 16 0;
#X connect 10 1 16 0;
#X connect 10 2 16 0;
#X connect 10 3 16 0;
#X connect 10 4 16 0;
#X connect 10 5 17 0;
#X connect 11 0 2 1;
#X connect 12 0 10 0;
#X connect 13 0 12 0;
#X connect 14 0 11 0;
#X connect 15 0 11 0;
#X connect 16 0 11 1;
#X connect 17 0 11 1;
#X restore 344 313 pd append.color;
#X obj 344 335 list prepend \$0;
#X obj 23 21 inlet;
#X obj 344 236 * 10;
#X obj 407 237 * 10;
#X text 443 236 cell dimension;
#X obj 344 51 t a a b;
#X obj 432 176 s \$0.xsize;
#X obj 432 134 unpack f f;
#X obj 489 155 s \$0.ysize;
#X obj 23 64 list split 2;
#X obj 23 43 t a a;
#X msg 344 24 \$1 \$2;
#X text 395 23 size (x \, y);
#X text 346 4 create scalars;
#X text 75 10 set scalars;
#X obj 207 92 t b a;
#X obj 207 125 list append;
#X obj 207 147 list split 2;
#X obj 207 194 unpack f f;
#X obj 222 215 r \$0.ysize;
#X obj 207 238 *;
#X obj 207 260 +;
#X obj 23 101 unpack f f;
#X obj 23 123 *;
#X obj 23 167 until;
#X obj 23 189 f;
#X obj 66 190 + 1;
#X msg 64 168 0;
#X obj 23 253 sel 0;
#X obj 84 248 pointer;
#X msg 84 224 next;
#X obj 84 291 get \$0.button color;
#X obj 23 315 f;
#X obj 23 361 set \$0.button color;
#X obj 23 338 - 333;
#X obj 23 145 t a b b;
#X obj 23 215 t a b;
#X obj 23 275 t b b;
#X msg 102 169 traverse pd-\$1;
#X obj 102 145 list append \$1;
#X obj 430 102 s pd-\$1;
#X obj 344 381 s pd-\$1;
#X connect 0 0 3 0;
#X connect 0 1 13 0;
#X connect 1 0 8 0;
#X connect 2 0 12 0;
#X connect 3 0 2 0;
#X connect 4 0 0 0;
#X connect 5 0 4 0;
#X connect 5 1 3 1;
#X connect 6 0 50 0;
#X connect 7 0 51 0;
#X connect 8 0 9 0;
#X connect 9 0 10 0;
#X connect 10 0 7 0;
#X connect 11 0 20 0;
#X connect 12 0 1 0;
#X connect 13 0 1 1;
#X connect 15 0 5 0;
#X connect 15 1 17 0;
#X connect 15 2 6 0;
#X connect 17 0 16 0;
#X connect 17 1 18 0;
#X connect 19 0 32 0;
#X connect 19 1 25 0;
#X connect 20 0 19 0;
#X connect 20 1 21 0;
#X connect 21 0 15 0;
#X connect 25 0 26 0;
#X connect 25 1 26 1;
#X connect 26 0 27 0;
#X connect 27 0 28 0;
#X connect 27 1 26 1;
#X connect 28 0 30 0;
#X connect 28 1 31 1;
#X connect 29 0 30 1;
#X connect 30 0 31 0;
#X connect 31 0 38 1;
#X connect 32 0 33 0;
#X connect 32 1 33 1;
#X connect 33 0 45 0;
#X connect 34 0 35 0;
#X connect 35 0 36 0;
#X connect 35 0 46 0;
#X connect 36 0 35 1;
#X connect 37 0 35 1;
#X connect 38 0 47 0;
#X connect 39 0 41 0;
#X connect 39 0 43 1;
#X connect 40 0 39 0;
#X connect 41 0 42 1;
#X connect 42 0 44 0;
#X connect 44 0 43 0;
#X connect 45 0 34 0;
#X connect 45 1 37 0;
#X connect 45 2 49 0;
#X connect 46 0 38 0;
#X connect 46 1 40 0;
#X connect 47 0 42 0;
#X connect 47 1 26 0;
#X connect 48 0 39 0;
#X connect 49 0 48 0;
#X restore 135 163 pd create;
#X msg 173 75 clear;
#N canvas 795 293 309 338 sequencer 0;
#X obj 19 15 inlet;
#X obj 172 19 inlet;
#X obj 19 137 pointer;
#X obj 19 38 b;
#X obj 172 41 b;
#X msg 172 63 40;
#X obj 172 85 until;
#X msg 172 107 next;
#X obj 19 185 moses 700;
#X obj 19 212 b;
#X obj 160 194 div 10;
#X obj 19 234 f;
#X obj 19 278 outlet;
#X obj 19 163 get \$0.button color posy;
#X msg 19 256 hit \$1;
#X obj 19 60 list append \$1;
#X msg 19 84 traverse pd-\$1;
#X connect 0 0 3 0;
#X connect 1 0 4 0;
#X connect 2 0 13 0;
#X connect 2 1 15 0;
#X connect 3 0 15 0;
#X connect 4 0 5 0;
#X connect 5 0 6 0;
#X connect 6 0 7 0;
#X connect 7 0 2 0;
#X connect 8 0 9 0;
#X connect 9 0 11 0;
#X connect 10 0 11 1;
#X connect 11 0 14 0;
#X connect 13 0 8 0;
#X connect 13 1 10 0;
#X connect 14 0 12 0;
#X connect 15 0 16 0;
#X connect 16 0 2 0;
#X restore 23 246 pd sequencer;
#X obj 248 183 t a;
#X obj 23 317 t a;
#N canvas 908 227 422 490 dump 0;
#X obj 91 9 inlet;
#X obj 129 155 pointer;
#X obj 250 194 r \$0.ysize;
#X obj 129 74 until;
#X obj 129 101 t b b;
#X msg 223 128 0;
#X obj 208 153 f;
#X obj 237 154 + 1;
#X msg 129 123 next;
#X obj 208 195 t a a;
#X obj 208 224 div;
#X obj 235 224 mod;
#X obj 129 220 moses 700;
#X obj 129 244 b;
#X obj 208 246 pack f f;
#X obj 129 284 list append;
#X obj 129 315 list prepend;
#X obj 223 316 t a;
#X obj 91 358 list append;
#X obj 91 34 t bang bang bang bang bang;
#X obj 244 352 b;
#X obj 91 445 outlet;
#X obj 129 175 get \$0.button color;
#X obj 91 425 list trim;
#X obj 91 403 list prepend create;
#X obj 91 380 list prepend;
#X obj 320 375 r \$0.ysize;
#X obj 275 354 r \$0.xsize;
#X obj 275 398 pack f f;
#X obj 205 64 list append \$1;
#X msg 205 88 traverse pd-\$1;
#X connect 0 0 19 0;
#X connect 1 0 22 0;
#X connect 1 1 3 1;
#X connect 2 0 10 1;
#X connect 2 0 11 1;
#X connect 3 0 4 0;
#X connect 4 0 8 0;
#X connect 4 1 6 0;
#X connect 5 0 6 1;
#X connect 6 0 7 0;
#X connect 6 0 9 0;
#X connect 7 0 6 1;
#X connect 8 0 1 0;
#X connect 9 0 10 0;
#X connect 9 1 11 0;
#X connect 10 0 14 0;
#X connect 11 0 14 1;
#X connect 12 0 13 0;
#X connect 13 0 15 0;
#X connect 14 0 15 1;
#X connect 15 0 16 0;
#X connect 16 0 18 1;
#X connect 16 0 17 0;
#X connect 17 0 16 1;
#X connect 18 0 25 0;
#X connect 19 0 18 0;
#X connect 19 1 3 0;
#X connect 19 2 5 0;
#X connect 19 3 29 0;
#X connect 19 4 20 0;
#X connect 20 0 16 1;
#X connect 20 0 18 1;
#X connect 22 0 12 0;
#X connect 23 0 21 0;
#X connect 24 0 23 0;
#X connect 25 0 24 0;
#X connect 26 0 28 1;
#X connect 27 0 28 0;
#X connect 28 0 25 1;
#X connect 29 0 30 0;
#X connect 30 0 1 0;
#X restore 109 247 pd dump;
#X obj 44 347 filledpolygon color 666 1 posx posy posx posy(0:1000)(10:1010)
posx(0:1000)(10:1010) posy(0:1000)(10:1010) posx(0:1000)(10:1010) posy
;
#N canvas 0 44 335 417 \$1 0;
#X restore 297 52 pd \$1;
#X obj 173 120 s pd-\$1;
#X msg 210 95 vis \$1;
#X obj 23 50 route cell row column create clear vis;
#N canvas 843 120 338 523 set.cell 0;
#X msg 60 215 next;
#X obj 60 240 pointer;
#X obj 60 81 t a b;
#X obj 60 166 +;
#X obj 60 104 unpack f f f;
#X obj 60 191 until;
#X obj 23 451 set \$0.button color;
#X obj 23 52 t b a;
#X obj 23 161 f;
#X obj 23 23 inlet;
#X obj 60 137 *;
#X obj 145 104 r \$0.ysize;
#X obj 60 289 get \$0.button color;
#X obj 60 262 trigger pointer pointer;
#X obj 60 311 t a a;
#X obj 23 379 -;
#X obj 23 428 +;
#X obj 60 333 moses 700;
#X msg 111 357 0;
#X msg 60 356 1;
#X obj 23 404 * -333;
#X obj 122 176 list append \$1;
#X msg 122 199 traverse pd-\$1 \, next;
#X connect 0 0 1 0;
#X connect 1 0 13 0;
#X connect 2 0 4 0;
#X connect 2 1 21 0;
#X connect 3 0 5 0;
#X connect 4 0 10 0;
#X connect 4 1 3 1;
#X connect 4 2 8 1;
#X connect 5 0 0 0;
#X connect 7 0 8 0;
#X connect 7 1 2 0;
#X connect 8 0 15 0;
#X connect 9 0 7 0;
#X connect 10 0 3 0;
#X connect 11 0 10 1;
#X connect 12 0 14 0;
#X connect 13 0 12 0;
#X connect 13 1 6 1;
#X connect 14 0 17 0;
#X connect 14 1 16 1;
#X connect 15 0 20 0;
#X connect 16 0 6 0;
#X connect 17 0 19 0;
#X connect 17 1 18 0;
#X connect 18 0 15 1;
#X connect 19 0 15 1;
#X connect 20 0 16 0;
#X connect 21 0 22 0;
#X connect 22 0 1 0;
#X restore 23 121 pd set.cell;
#X text 296 31 data container;
#X obj 23 200 route rewind next dump;
#X connect 0 0 2 0;
#X connect 1 0 14 0;
#X connect 2 0 3 0;
#X connect 5 0 12 0;
#X connect 6 0 8 0;
#X connect 7 0 17 0;
#X connect 8 0 3 0;
#X connect 9 0 8 0;
#X connect 13 0 12 0;
#X connect 14 0 15 0;
#X connect 14 3 4 0;
#X connect 14 4 5 0;
#X connect 14 5 13 0;
#X connect 14 6 7 0;
#X connect 17 0 6 0;
#X connect 17 1 6 1;
#X connect 17 2 9 0;
