#N struct 1104.button float posx float posy float color;
#N struct 1104.cursor float cx float cy;
#N canvas 335 44 824 475 10;
#X obj 412 167 tgl 15 0 empty empty empty 17 7 0 10 -204786 -1 -1 0
1;
#X msg 412 187 cell 2 3 \$1;
#X obj 15 45 cnv 15 100 90 empty empty empty 20 12 0 14 -200689 -66577
0;
#X obj 15 76 cnv 15 100 25 empty empty empty 20 12 0 14 -4034 -66577
0;
#X obj 19 80 ungrid \$0.seq;
#X obj 19 47 r \$0.ungrid.in;
#X obj 19 112 s \$0.ungrid.out;
#X obj 412 100 s \$0.ungrid.in;
#X text 407 27 ---- create -------------------;
#X msg 412 78 create \$1 40;
#X obj 412 209 s \$0.ungrid.in;
#X msg 618 57 rewind;
#X obj 618 80 s \$0.ungrid.in;
#X text 407 137 ---- cell ---------------------;
#X text 613 27 ---- rewind -------------------;
#X obj 618 173 s \$0.ungrid.in;
#X text 613 120 ---- next ---------------------;
#X msg 618 150 next;
#X obj 622 422 s \$0.ungrid.in;
#X text 617 348 ---- vis ---------------------;
#X msg 622 399 vis \$1;
#X obj 622 378 tgl 15 0 empty empty empty 17 7 0 10 -204786 -1 -1 0
1;
#X text 502 77 size (x \, y);
#X text 458 56 <- create new ungrid;
#X text 497 185 x \, y \, 0|1;
#X text 440 166 <- change single cell;
#X text 664 151 <- output next column;
#X text 671 57 <- go to start;
#X obj 205 407 r \$0.ungrid.out;
#X obj 205 358 s \$0.ungrid.in;
#N canvas 545 211 343 354 pling.synth 0;
#X obj 10 85 t a b;
#X obj 37 107 f;
#X obj 87 121 + 1;
#X obj 10 153 list prepend;
#X obj 37 129 mod 5;
#X obj 10 175 route 0 1 2 3 4;
#N canvas 794 265 307 212 pling 0;
#X obj 16 18 inlet;
#X obj 16 40 t a b;
#X obj 16 72 mtof;
#X obj 16 94 osc~;
#X obj 16 146 *~;
#X obj 16 168 outlet~;
#X obj 54 97 vline~;
#X obj 54 119 dbtorms~;
#X msg 54 75 80 3 \, 0 600 3;
#X connect 0 0 1 0;
#X connect 1 0 2 0;
#X connect 1 1 8 0;
#X connect 2 0 3 0;
#X connect 3 0 4 0;
#X connect 4 0 5 0;
#X connect 6 0 7 0;
#X connect 7 0 4 1;
#X connect 8 0 6 0;
#X restore 10 282 pd pling;
#N canvas 608 216 280 353 ->fx->out 0;
#X obj 41 -1131 dac~;
#X obj 134 -1358 delwrite~ bla 450;
#X obj 133 -1410 delread~ bla 450;
#X obj 133 -1388 *~ 0.4;
#X obj 133 -1312 *~ 0.4;
#X obj 133 -1334 delread~ bla 300;
#X obj 40 -1438 inlet~;
#X obj 41 -1257 expr~ tanh($v1);
#X obj 99 -1231 expr~ tanh($v1);
#X obj 41 -1405 *~ 1;
#X obj 41 -1165 *~;
#X obj 98 -1166 *~;
#X obj 161 -1195 inlet;
#X obj 161 -1173 dbtorms;
#X msg 161 -1151 \$1 50;
#X obj 161 -1129 line~;
#X connect 2 0 3 0;
#X connect 3 0 1 0;
#X connect 3 0 8 0;
#X connect 4 0 7 0;
#X connect 5 0 4 0;
#X connect 6 0 9 0;
#X connect 7 0 10 0;
#X connect 8 0 11 0;
#X connect 9 0 1 0;
#X connect 9 0 7 0;
#X connect 9 0 8 0;
#X connect 10 0 0 0;
#X connect 11 0 0 1;
#X connect 12 0 13 0;
#X connect 13 0 14 0;
#X connect 14 0 15 0;
#X connect 15 0 10 1;
#X connect 15 0 11 1;
#X restore 79 308 pd ->fx->out;
#X obj 10 36 route hit;
#N canvas 794 265 307 212 pling 0;
#X obj 16 18 inlet;
#X obj 16 40 t a b;
#X obj 16 72 mtof;
#X obj 16 94 osc~;
#X obj 16 146 *~;
#X obj 16 168 outlet~;
#X obj 54 97 vline~;
#X obj 54 119 dbtorms~;
#X msg 54 75 80 3 \, 0 600 3;
#X connect 0 0 1 0;
#X connect 1 0 2 0;
#X connect 1 1 8 0;
#X connect 2 0 3 0;
#X connect 3 0 4 0;
#X connect 4 0 5 0;
#X connect 6 0 7 0;
#X connect 7 0 4 1;
#X connect 8 0 6 0;
#X restore 27 261 pd pling;
#N canvas 794 265 307 212 pling 0;
#X obj 16 18 inlet;
#X obj 16 40 t a b;
#X obj 16 72 mtof;
#X obj 16 94 osc~;
#X obj 16 146 *~;
#X obj 16 168 outlet~;
#X obj 54 97 vline~;
#X obj 54 119 dbtorms~;
#X msg 54 75 80 3 \, 0 600 3;
#X connect 0 0 1 0;
#X connect 1 0 2 0;
#X connect 1 1 8 0;
#X connect 2 0 3 0;
#X connect 3 0 4 0;
#X connect 4 0 5 0;
#X connect 6 0 7 0;
#X connect 7 0 4 1;
#X connect 8 0 6 0;
#X restore 44 240 pd pling;
#N canvas 794 265 307 212 pling 0;
#X obj 16 18 inlet;
#X obj 16 40 t a b;
#X obj 16 72 mtof;
#X obj 16 94 osc~;
#X obj 16 146 *~;
#X obj 16 168 outlet~;
#X obj 54 97 vline~;
#X obj 54 119 dbtorms~;
#X msg 54 75 80 3 \, 0 600 3;
#X connect 0 0 1 0;
#X connect 1 0 2 0;
#X connect 1 1 8 0;
#X connect 2 0 3 0;
#X connect 3 0 4 0;
#X connect 4 0 5 0;
#X connect 6 0 7 0;
#X connect 7 0 4 1;
#X connect 8 0 6 0;
#X restore 62 220 pd pling;
#N canvas 794 265 307 212 pling 0;
#X obj 16 18 inlet;
#X obj 16 40 t a b;
#X obj 16 72 mtof;
#X obj 16 94 osc~;
#X obj 16 146 *~;
#X obj 16 168 outlet~;
#X obj 54 97 vline~;
#X obj 54 119 dbtorms~;
#X msg 54 75 80 3 \, 0 600 3;
#X connect 0 0 1 0;
#X connect 1 0 2 0;
#X connect 1 1 8 0;
#X connect 2 0 3 0;
#X connect 3 0 4 0;
#X connect 4 0 5 0;
#X connect 6 0 7 0;
#X connect 7 0 4 1;
#X connect 8 0 6 0;
#X restore 79 198 pd pling;
#N canvas 879 165 346 154 cell.y->midi.note 0;
#X obj 12 43 * -1;
#X obj 12 66 + 80;
#X obj 12 19 inlet;
#X obj 12 89 outlet;
#X floatatom 66 51 5 0 0 0 - - -, f 5;
#X connect 0 0 1 0;
#X connect 1 0 3 0;
#X connect 2 0 0 0;
#X connect 4 0 1 1;
#X restore 10 61 pd cell.y->midi.note;
#X obj 10 12 inlet;
#X obj 196 46 inlet;
#X connect 0 0 3 0;
#X connect 0 1 1 0;
#X connect 1 0 4 0;
#X connect 2 0 1 1;
#X connect 3 0 5 0;
#X connect 4 0 2 0;
#X connect 4 0 3 1;
#X connect 5 0 6 0;
#X connect 5 1 9 0;
#X connect 5 2 10 0;
#X connect 5 3 11 0;
#X connect 5 4 12 0;
#X connect 6 0 7 0;
#X connect 8 0 13 0;
#X connect 9 0 7 0;
#X connect 10 0 7 0;
#X connect 11 0 7 0;
#X connect 12 0 7 0;
#X connect 13 0 0 0;
#X connect 14 0 8 0;
#X connect 15 0 7 1;
#X coords 0 354 1 353 130 17 0;
#X restore 205 434 pd pling.synth;
#X obj 205 287 tgl 15 0 empty empty empty 17 7 0 10 -204786 -1 -1 0
1;
#X text 225 286 <- play tune;
#N canvas 394 257 449 204 INIT 0;
#X text 99 47 tune data;
#X obj 17 20 loadbang;
#X obj 17 42 t b b;
#X msg 17 119 vis 1;
#X obj 17 145 s \$0.ungrid.in;
#X msg 44 65 create 30 40 0 9 3 11 4 14 4 18 4 19 4 23 4 33 6 6 9 7
11 14 11 18 11 21 11 25 11 35 12 9 15 2 18 8 19 16 19 20 19 23 19 27
19 30 21 1 24 4 25 16 25 20 25 21 25 25 25 32 27 8 32 0;
#X connect 1 0 2 0;
#X connect 2 0 3 0;
#X connect 2 1 5 0;
#X connect 3 0 4 0;
#X connect 5 0 4 0;
#X restore 15 377 pd INIT;
#X obj 205 310 metro 150;
#X msg 205 333 next;
#X obj 307 434 nbx 3 17 0 100 0 0 empty empty empty 0 -8 0 10 -204786
-1 -1 100 256;
#X text 612 7 ==== SEQUENCING ===============;
#X text 407 7 ==== DATA MANAGEMENT ==========;
#X obj 412 55 nbx 3 17 0 100 0 0 empty empty empty 0 -8 0 10 -204786
-1 -1 0 256;
#X obj 412 300 s \$0.ungrid.in;
#X text 407 247 ---- dump ---------------------;
#X msg 412 277 dump;
#X text 450 277 <- dump state to outlet;
#X obj 205 37 r \$0.ungrid.out;
#X obj 205 59 spigot;
#X obj 205 82 print \$0.ungrid;
#X obj 255 61 tgl 15 0 empty empty empty 17 7 0 10 -204786 -1 -1 0
1;
#X text 275 60 <- print;
#X msg 412 402 clear;
#X obj 412 427 s \$0.ungrid.in;
#X text 711 167 (check output);
#X text 411 323 output may be used for later;
#X text 411 338 state restore;
#X text 407 372 ---- clear --------------------;
#X text 13 446 2013 \, Roman Haefeli;
#X obj 618 266 s \$0.ungrid.in;
#X text 613 213 ---- skip ---------------------;
#X text 711 260 (no output);
#X msg 618 243 skip;
#X text 664 244 <- skip next column;
#X text 456 400 <- clear ungrid;
#X text 305 417 vol(dB);
#N canvas 467 499 306 58 NETPD 0;
#X msg 16 13 version 0 1 0;
#X restore 15 421 pd NETPD 2 0;
#X text 200 257 ==== EXAMPLE ==================;
#X text 200 7 ==== PRINT OUTPUT =============;
#X text 14 184 contains ungrid data:;
#X obj 15 201 cnv 15 100 25 empty empty empty 20 12 0 14 -4034 -66577
0;
#N canvas 0 44 344 417 \$0.seq 1;
#X scalar 1104.button 0 0 767 \;;
#X scalar 1104.button 0 10 878 \;;
#X scalar 1104.button 0 20 767 \;;
#X scalar 1104.button 0 30 878 \;;
#X scalar 1104.button 0 40 878 \;;
#X scalar 1104.button 0 50 767 \;;
#X scalar 1104.button 0 60 878 \;;
#X scalar 1104.button 0 70 767 \;;
#X scalar 1104.button 0 80 878 \;;
#X scalar 1104.button 0 90 434 \;;
#X scalar 1104.button 0 100 878 \;;
#X scalar 1104.button 0 110 878 \;;
#X scalar 1104.button 0 120 767 \;;
#X scalar 1104.button 0 130 878 \;;
#X scalar 1104.button 0 140 767 \;;
#X scalar 1104.button 0 150 878 \;;
#X scalar 1104.button 0 160 878 \;;
#X scalar 1104.button 0 170 767 \;;
#X scalar 1104.button 0 180 878 \;;
#X scalar 1104.button 0 190 767 \;;
#X scalar 1104.button 0 200 878 \;;
#X scalar 1104.button 0 210 767 \;;
#X scalar 1104.button 0 220 878 \;;
#X scalar 1104.button 0 230 878 \;;
#X scalar 1104.button 0 240 767 \;;
#X scalar 1104.button 0 250 878 \;;
#X scalar 1104.button 0 260 767 \;;
#X scalar 1104.button 0 270 878 \;;
#X scalar 1104.button 0 280 878 \;;
#X scalar 1104.button 0 290 767 \;;
#X scalar 1104.button 0 300 878 \;;
#X scalar 1104.button 0 310 767 \;;
#X scalar 1104.button 0 320 878 \;;
#X scalar 1104.button 0 330 767 \;;
#X scalar 1104.button 0 340 878 \;;
#X scalar 1104.button 0 350 878 \;;
#X scalar 1104.button 0 360 767 \;;
#X scalar 1104.button 0 370 878 \;;
#X scalar 1104.button 0 380 767 \;;
#X scalar 1104.button 0 390 878 \;;
#X scalar 1104.button 10 0 767 \;;
#X scalar 1104.button 10 10 878 \;;
#X scalar 1104.button 10 20 767 \;;
#X scalar 1104.button 10 30 878 \;;
#X scalar 1104.button 10 40 878 \;;
#X scalar 1104.button 10 50 767 \;;
#X scalar 1104.button 10 60 878 \;;
#X scalar 1104.button 10 70 767 \;;
#X scalar 1104.button 10 80 878 \;;
#X scalar 1104.button 10 90 767 \;;
#X scalar 1104.button 10 100 878 \;;
#X scalar 1104.button 10 110 878 \;;
#X scalar 1104.button 10 120 767 \;;
#X scalar 1104.button 10 130 878 \;;
#X scalar 1104.button 10 140 767 \;;
#X scalar 1104.button 10 150 878 \;;
#X scalar 1104.button 10 160 878 \;;
#X scalar 1104.button 10 170 767 \;;
#X scalar 1104.button 10 180 878 \;;
#X scalar 1104.button 10 190 767 \;;
#X scalar 1104.button 10 200 878 \;;
#X scalar 1104.button 10 210 767 \;;
#X scalar 1104.button 10 220 878 \;;
#X scalar 1104.button 10 230 878 \;;
#X scalar 1104.button 10 240 767 \;;
#X scalar 1104.button 10 250 878 \;;
#X scalar 1104.button 10 260 767 \;;
#X scalar 1104.button 10 270 878 \;;
#X scalar 1104.button 10 280 878 \;;
#X scalar 1104.button 10 290 767 \;;
#X scalar 1104.button 10 300 878 \;;
#X scalar 1104.button 10 310 767 \;;
#X scalar 1104.button 10 320 878 \;;
#X scalar 1104.button 10 330 767 \;;
#X scalar 1104.button 10 340 878 \;;
#X scalar 1104.button 10 350 878 \;;
#X scalar 1104.button 10 360 767 \;;
#X scalar 1104.button 10 370 878 \;;
#X scalar 1104.button 10 380 767 \;;
#X scalar 1104.button 10 390 878 \;;
#X scalar 1104.button 20 0 767 \;;
#X scalar 1104.button 20 10 878 \;;
#X scalar 1104.button 20 20 767 \;;
#X scalar 1104.button 20 30 878 \;;
#X scalar 1104.button 20 40 878 \;;
#X scalar 1104.button 20 50 767 \;;
#X scalar 1104.button 20 60 878 \;;
#X scalar 1104.button 20 70 767 \;;
#X scalar 1104.button 20 80 878 \;;
#X scalar 1104.button 20 90 767 \;;
#X scalar 1104.button 20 100 878 \;;
#X scalar 1104.button 20 110 878 \;;
#X scalar 1104.button 20 120 767 \;;
#X scalar 1104.button 20 130 878 \;;
#X scalar 1104.button 20 140 767 \;;
#X scalar 1104.button 20 150 878 \;;
#X scalar 1104.button 20 160 878 \;;
#X scalar 1104.button 20 170 767 \;;
#X scalar 1104.button 20 180 878 \;;
#X scalar 1104.button 20 190 767 \;;
#X scalar 1104.button 20 200 878 \;;
#X scalar 1104.button 20 210 767 \;;
#X scalar 1104.button 20 220 878 \;;
#X scalar 1104.button 20 230 878 \;;
#X scalar 1104.button 20 240 767 \;;
#X scalar 1104.button 20 250 878 \;;
#X scalar 1104.button 20 260 767 \;;
#X scalar 1104.button 20 270 878 \;;
#X scalar 1104.button 20 280 878 \;;
#X scalar 1104.button 20 290 767 \;;
#X scalar 1104.button 20 300 878 \;;
#X scalar 1104.button 20 310 767 \;;
#X scalar 1104.button 20 320 878 \;;
#X scalar 1104.button 20 330 767 \;;
#X scalar 1104.button 20 340 878 \;;
#X scalar 1104.button 20 350 878 \;;
#X scalar 1104.button 20 360 767 \;;
#X scalar 1104.button 20 370 878 \;;
#X scalar 1104.button 20 380 767 \;;
#X scalar 1104.button 20 390 878 \;;
#X scalar 1104.button 30 0 767 \;;
#X scalar 1104.button 30 10 878 \;;
#X scalar 1104.button 30 20 767 \;;
#X scalar 1104.button 30 30 878 \;;
#X scalar 1104.button 30 40 878 \;;
#X scalar 1104.button 30 50 767 \;;
#X scalar 1104.button 30 60 878 \;;
#X scalar 1104.button 30 70 767 \;;
#X scalar 1104.button 30 80 878 \;;
#X scalar 1104.button 30 90 767 \;;
#X scalar 1104.button 30 100 878 \;;
#X scalar 1104.button 30 110 545 \;;
#X scalar 1104.button 30 120 767 \;;
#X scalar 1104.button 30 130 878 \;;
#X scalar 1104.button 30 140 767 \;;
#X scalar 1104.button 30 150 878 \;;
#X scalar 1104.button 30 160 878 \;;
#X scalar 1104.button 30 170 767 \;;
#X scalar 1104.button 30 180 878 \;;
#X scalar 1104.button 30 190 767 \;;
#X scalar 1104.button 30 200 878 \;;
#X scalar 1104.button 30 210 767 \;;
#X scalar 1104.button 30 220 878 \;;
#X scalar 1104.button 30 230 878 \;;
#X scalar 1104.button 30 240 767 \;;
#X scalar 1104.button 30 250 878 \;;
#X scalar 1104.button 30 260 767 \;;
#X scalar 1104.button 30 270 878 \;;
#X scalar 1104.button 30 280 878 \;;
#X scalar 1104.button 30 290 767 \;;
#X scalar 1104.button 30 300 878 \;;
#X scalar 1104.button 30 310 767 \;;
#X scalar 1104.button 30 320 878 \;;
#X scalar 1104.button 30 330 767 \;;
#X scalar 1104.button 30 340 878 \;;
#X scalar 1104.button 30 350 878 \;;
#X scalar 1104.button 30 360 767 \;;
#X scalar 1104.button 30 370 878 \;;
#X scalar 1104.button 30 380 767 \;;
#X scalar 1104.button 30 390 878 \;;
#X scalar 1104.button 40 0 777 \;;
#X scalar 1104.button 40 10 888 \;;
#X scalar 1104.button 40 20 777 \;;
#X scalar 1104.button 40 30 888 \;;
#X scalar 1104.button 40 40 888 \;;
#X scalar 1104.button 40 50 777 \;;
#X scalar 1104.button 40 60 888 \;;
#X scalar 1104.button 40 70 777 \;;
#X scalar 1104.button 40 80 888 \;;
#X scalar 1104.button 40 90 777 \;;
#X scalar 1104.button 40 100 888 \;;
#X scalar 1104.button 40 110 888 \;;
#X scalar 1104.button 40 120 777 \;;
#X scalar 1104.button 40 130 888 \;;
#X scalar 1104.button 40 140 444 \;;
#X scalar 1104.button 40 150 888 \;;
#X scalar 1104.button 40 160 888 \;;
#X scalar 1104.button 40 170 777 \;;
#X scalar 1104.button 40 180 555 \;;
#X scalar 1104.button 40 190 444 \;;
#X scalar 1104.button 40 200 888 \;;
#X scalar 1104.button 40 210 777 \;;
#X scalar 1104.button 40 220 888 \;;
#X scalar 1104.button 40 230 555 \;;
#X scalar 1104.button 40 240 777 \;;
#X scalar 1104.button 40 250 888 \;;
#X scalar 1104.button 40 260 777 \;;
#X scalar 1104.button 40 270 888 \;;
#X scalar 1104.button 40 280 888 \;;
#X scalar 1104.button 40 290 777 \;;
#X scalar 1104.button 40 300 888 \;;
#X scalar 1104.button 40 310 777 \;;
#X scalar 1104.button 40 320 888 \;;
#X scalar 1104.button 40 330 444 \;;
#X scalar 1104.button 40 340 888 \;;
#X scalar 1104.button 40 350 888 \;;
#X scalar 1104.button 40 360 777 \;;
#X scalar 1104.button 40 370 888 \;;
#X scalar 1104.button 40 380 777 \;;
#X scalar 1104.button 40 390 888 \;;
#X scalar 1104.button 50 0 777 \;;
#X scalar 1104.button 50 10 888 \;;
#X scalar 1104.button 50 20 777 \;;
#X scalar 1104.button 50 30 888 \;;
#X scalar 1104.button 50 40 888 \;;
#X scalar 1104.button 50 50 777 \;;
#X scalar 1104.button 50 60 888 \;;
#X scalar 1104.button 50 70 777 \;;
#X scalar 1104.button 50 80 888 \;;
#X scalar 1104.button 50 90 777 \;;
#X scalar 1104.button 50 100 888 \;;
#X scalar 1104.button 50 110 888 \;;
#X scalar 1104.button 50 120 777 \;;
#X scalar 1104.button 50 130 888 \;;
#X scalar 1104.button 50 140 777 \;;
#X scalar 1104.button 50 150 888 \;;
#X scalar 1104.button 50 160 888 \;;
#X scalar 1104.button 50 170 777 \;;
#X scalar 1104.button 50 180 888 \;;
#X scalar 1104.button 50 190 777 \;;
#X scalar 1104.button 50 200 888 \;;
#X scalar 1104.button 50 210 777 \;;
#X scalar 1104.button 50 220 888 \;;
#X scalar 1104.button 50 230 888 \;;
#X scalar 1104.button 50 240 777 \;;
#X scalar 1104.button 50 250 888 \;;
#X scalar 1104.button 50 260 777 \;;
#X scalar 1104.button 50 270 888 \;;
#X scalar 1104.button 50 280 888 \;;
#X scalar 1104.button 50 290 777 \;;
#X scalar 1104.button 50 300 888 \;;
#X scalar 1104.button 50 310 777 \;;
#X scalar 1104.button 50 320 888 \;;
#X scalar 1104.button 50 330 777 \;;
#X scalar 1104.button 50 340 888 \;;
#X scalar 1104.button 50 350 888 \;;
#X scalar 1104.button 50 360 777 \;;
#X scalar 1104.button 50 370 888 \;;
#X scalar 1104.button 50 380 777 \;;
#X scalar 1104.button 50 390 888 \;;
#X scalar 1104.button 60 0 777 \;;
#X scalar 1104.button 60 10 888 \;;
#X scalar 1104.button 60 20 777 \;;
#X scalar 1104.button 60 30 888 \;;
#X scalar 1104.button 60 40 888 \;;
#X scalar 1104.button 60 50 777 \;;
#X scalar 1104.button 60 60 555 \;;
#X scalar 1104.button 60 70 777 \;;
#X scalar 1104.button 60 80 888 \;;
#X scalar 1104.button 60 90 777 \;;
#X scalar 1104.button 60 100 888 \;;
#X scalar 1104.button 60 110 888 \;;
#X scalar 1104.button 60 120 777 \;;
#X scalar 1104.button 60 130 888 \;;
#X scalar 1104.button 60 140 777 \;;
#X scalar 1104.button 60 150 888 \;;
#X scalar 1104.button 60 160 888 \;;
#X scalar 1104.button 60 170 777 \;;
#X scalar 1104.button 60 180 888 \;;
#X scalar 1104.button 60 190 777 \;;
#X scalar 1104.button 60 200 888 \;;
#X scalar 1104.button 60 210 777 \;;
#X scalar 1104.button 60 220 888 \;;
#X scalar 1104.button 60 230 888 \;;
#X scalar 1104.button 60 240 777 \;;
#X scalar 1104.button 60 250 888 \;;
#X scalar 1104.button 60 260 777 \;;
#X scalar 1104.button 60 270 888 \;;
#X scalar 1104.button 60 280 888 \;;
#X scalar 1104.button 60 290 777 \;;
#X scalar 1104.button 60 300 888 \;;
#X scalar 1104.button 60 310 777 \;;
#X scalar 1104.button 60 320 888 \;;
#X scalar 1104.button 60 330 777 \;;
#X scalar 1104.button 60 340 888 \;;
#X scalar 1104.button 60 350 888 \;;
#X scalar 1104.button 60 360 777 \;;
#X scalar 1104.button 60 370 888 \;;
#X scalar 1104.button 60 380 777 \;;
#X scalar 1104.button 60 390 888 \;;
#X scalar 1104.button 70 0 777 \;;
#X scalar 1104.button 70 10 888 \;;
#X scalar 1104.button 70 20 777 \;;
#X scalar 1104.button 70 30 888 \;;
#X scalar 1104.button 70 40 888 \;;
#X scalar 1104.button 70 50 777 \;;
#X scalar 1104.button 70 60 888 \;;
#X scalar 1104.button 70 70 777 \;;
#X scalar 1104.button 70 80 888 \;;
#X scalar 1104.button 70 90 777 \;;
#X scalar 1104.button 70 100 888 \;;
#X scalar 1104.button 70 110 888 \;;
#X scalar 1104.button 70 120 777 \;;
#X scalar 1104.button 70 130 888 \;;
#X scalar 1104.button 70 140 777 \;;
#X scalar 1104.button 70 150 888 \;;
#X scalar 1104.button 70 160 888 \;;
#X scalar 1104.button 70 170 777 \;;
#X scalar 1104.button 70 180 888 \;;
#X scalar 1104.button 70 190 777 \;;
#X scalar 1104.button 70 200 888 \;;
#X scalar 1104.button 70 210 777 \;;
#X scalar 1104.button 70 220 888 \;;
#X scalar 1104.button 70 230 888 \;;
#X scalar 1104.button 70 240 777 \;;
#X scalar 1104.button 70 250 888 \;;
#X scalar 1104.button 70 260 777 \;;
#X scalar 1104.button 70 270 888 \;;
#X scalar 1104.button 70 280 888 \;;
#X scalar 1104.button 70 290 777 \;;
#X scalar 1104.button 70 300 888 \;;
#X scalar 1104.button 70 310 777 \;;
#X scalar 1104.button 70 320 888 \;;
#X scalar 1104.button 70 330 777 \;;
#X scalar 1104.button 70 340 888 \;;
#X scalar 1104.button 70 350 888 \;;
#X scalar 1104.button 70 360 777 \;;
#X scalar 1104.button 70 370 888 \;;
#X scalar 1104.button 70 380 777 \;;
#X scalar 1104.button 70 390 888 \;;
#X scalar 1104.button 80 0 767 \;;
#X scalar 1104.button 80 10 878 \;;
#X scalar 1104.button 80 20 767 \;;
#X scalar 1104.button 80 30 878 \;;
#X scalar 1104.button 80 40 878 \;;
#X scalar 1104.button 80 50 767 \;;
#X scalar 1104.button 80 60 878 \;;
#X scalar 1104.button 80 70 767 \;;
#X scalar 1104.button 80 80 878 \;;
#X scalar 1104.button 80 90 767 \;;
#X scalar 1104.button 80 100 878 \;;
#X scalar 1104.button 80 110 878 \;;
#X scalar 1104.button 80 120 767 \;;
#X scalar 1104.button 80 130 878 \;;
#X scalar 1104.button 80 140 767 \;;
#X scalar 1104.button 80 150 878 \;;
#X scalar 1104.button 80 160 878 \;;
#X scalar 1104.button 80 170 767 \;;
#X scalar 1104.button 80 180 878 \;;
#X scalar 1104.button 80 190 767 \;;
#X scalar 1104.button 80 200 878 \;;
#X scalar 1104.button 80 210 767 \;;
#X scalar 1104.button 80 220 878 \;;
#X scalar 1104.button 80 230 878 \;;
#X scalar 1104.button 80 240 767 \;;
#X scalar 1104.button 80 250 878 \;;
#X scalar 1104.button 80 260 767 \;;
#X scalar 1104.button 80 270 878 \;;
#X scalar 1104.button 80 280 878 \;;
#X scalar 1104.button 80 290 767 \;;
#X scalar 1104.button 80 300 878 \;;
#X scalar 1104.button 80 310 767 \;;
#X scalar 1104.button 80 320 878 \;;
#X scalar 1104.button 80 330 767 \;;
#X scalar 1104.button 80 340 878 \;;
#X scalar 1104.button 80 350 878 \;;
#X scalar 1104.button 80 360 767 \;;
#X scalar 1104.button 80 370 878 \;;
#X scalar 1104.button 80 380 767 \;;
#X scalar 1104.button 80 390 878 \;;
#X scalar 1104.button 90 0 767 \;;
#X scalar 1104.button 90 10 878 \;;
#X scalar 1104.button 90 20 767 \;;
#X scalar 1104.button 90 30 878 \;;
#X scalar 1104.button 90 40 878 \;;
#X scalar 1104.button 90 50 767 \;;
#X scalar 1104.button 90 60 878 \;;
#X scalar 1104.button 90 70 434 \;;
#X scalar 1104.button 90 80 878 \;;
#X scalar 1104.button 90 90 767 \;;
#X scalar 1104.button 90 100 878 \;;
#X scalar 1104.button 90 110 878 \;;
#X scalar 1104.button 90 120 767 \;;
#X scalar 1104.button 90 130 878 \;;
#X scalar 1104.button 90 140 767 \;;
#X scalar 1104.button 90 150 878 \;;
#X scalar 1104.button 90 160 878 \;;
#X scalar 1104.button 90 170 767 \;;
#X scalar 1104.button 90 180 878 \;;
#X scalar 1104.button 90 190 767 \;;
#X scalar 1104.button 90 200 878 \;;
#X scalar 1104.button 90 210 767 \;;
#X scalar 1104.button 90 220 878 \;;
#X scalar 1104.button 90 230 878 \;;
#X scalar 1104.button 90 240 767 \;;
#X scalar 1104.button 90 250 878 \;;
#X scalar 1104.button 90 260 767 \;;
#X scalar 1104.button 90 270 878 \;;
#X scalar 1104.button 90 280 878 \;;
#X scalar 1104.button 90 290 767 \;;
#X scalar 1104.button 90 300 878 \;;
#X scalar 1104.button 90 310 767 \;;
#X scalar 1104.button 90 320 878 \;;
#X scalar 1104.button 90 330 767 \;;
#X scalar 1104.button 90 340 878 \;;
#X scalar 1104.button 90 350 878 \;;
#X scalar 1104.button 90 360 767 \;;
#X scalar 1104.button 90 370 878 \;;
#X scalar 1104.button 90 380 767 \;;
#X scalar 1104.button 90 390 878 \;;
#X scalar 1104.button 100 0 767 \;;
#X scalar 1104.button 100 10 878 \;;
#X scalar 1104.button 100 20 767 \;;
#X scalar 1104.button 100 30 878 \;;
#X scalar 1104.button 100 40 878 \;;
#X scalar 1104.button 100 50 767 \;;
#X scalar 1104.button 100 60 878 \;;
#X scalar 1104.button 100 70 767 \;;
#X scalar 1104.button 100 80 878 \;;
#X scalar 1104.button 100 90 767 \;;
#X scalar 1104.button 100 100 878 \;;
#X scalar 1104.button 100 110 878 \;;
#X scalar 1104.button 100 120 767 \;;
#X scalar 1104.button 100 130 878 \;;
#X scalar 1104.button 100 140 767 \;;
#X scalar 1104.button 100 150 878 \;;
#X scalar 1104.button 100 160 878 \;;
#X scalar 1104.button 100 170 767 \;;
#X scalar 1104.button 100 180 878 \;;
#X scalar 1104.button 100 190 767 \;;
#X scalar 1104.button 100 200 878 \;;
#X scalar 1104.button 100 210 767 \;;
#X scalar 1104.button 100 220 878 \;;
#X scalar 1104.button 100 230 878 \;;
#X scalar 1104.button 100 240 767 \;;
#X scalar 1104.button 100 250 878 \;;
#X scalar 1104.button 100 260 767 \;;
#X scalar 1104.button 100 270 878 \;;
#X scalar 1104.button 100 280 878 \;;
#X scalar 1104.button 100 290 767 \;;
#X scalar 1104.button 100 300 878 \;;
#X scalar 1104.button 100 310 767 \;;
#X scalar 1104.button 100 320 878 \;;
#X scalar 1104.button 100 330 767 \;;
#X scalar 1104.button 100 340 878 \;;
#X scalar 1104.button 100 350 878 \;;
#X scalar 1104.button 100 360 767 \;;
#X scalar 1104.button 100 370 878 \;;
#X scalar 1104.button 100 380 767 \;;
#X scalar 1104.button 100 390 878 \;;
#X scalar 1104.button 110 0 767 \;;
#X scalar 1104.button 110 10 878 \;;
#X scalar 1104.button 110 20 767 \;;
#X scalar 1104.button 110 30 878 \;;
#X scalar 1104.button 110 40 878 \;;
#X scalar 1104.button 110 50 767 \;;
#X scalar 1104.button 110 60 878 \;;
#X scalar 1104.button 110 70 767 \;;
#X scalar 1104.button 110 80 878 \;;
#X scalar 1104.button 110 90 767 \;;
#X scalar 1104.button 110 100 878 \;;
#X scalar 1104.button 110 110 878 \;;
#X scalar 1104.button 110 120 767 \;;
#X scalar 1104.button 110 130 878 \;;
#X scalar 1104.button 110 140 434 \;;
#X scalar 1104.button 110 150 878 \;;
#X scalar 1104.button 110 160 878 \;;
#X scalar 1104.button 110 170 767 \;;
#X scalar 1104.button 110 180 545 \;;
#X scalar 1104.button 110 190 767 \;;
#X scalar 1104.button 110 200 878 \;;
#X scalar 1104.button 110 210 434 \;;
#X scalar 1104.button 110 220 878 \;;
#X scalar 1104.button 110 230 878 \;;
#X scalar 1104.button 110 240 767 \;;
#X scalar 1104.button 110 250 545 \;;
#X scalar 1104.button 110 260 767 \;;
#X scalar 1104.button 110 270 878 \;;
#X scalar 1104.button 110 280 878 \;;
#X scalar 1104.button 110 290 767 \;;
#X scalar 1104.button 110 300 878 \;;
#X scalar 1104.button 110 310 767 \;;
#X scalar 1104.button 110 320 878 \;;
#X scalar 1104.button 110 330 767 \;;
#X scalar 1104.button 110 340 878 \;;
#X scalar 1104.button 110 350 545 \;;
#X scalar 1104.button 110 360 767 \;;
#X scalar 1104.button 110 370 878 \;;
#X scalar 1104.button 110 380 767 \;;
#X scalar 1104.button 110 390 878 \;;
#X scalar 1104.button 120 0 777 \;;
#X scalar 1104.button 120 10 888 \;;
#X scalar 1104.button 120 20 777 \;;
#X scalar 1104.button 120 30 888 \;;
#X scalar 1104.button 120 40 888 \;;
#X scalar 1104.button 120 50 777 \;;
#X scalar 1104.button 120 60 888 \;;
#X scalar 1104.button 120 70 777 \;;
#X scalar 1104.button 120 80 888 \;;
#X scalar 1104.button 120 90 444 \;;
#X scalar 1104.button 120 100 888 \;;
#X scalar 1104.button 120 110 888 \;;
#X scalar 1104.button 120 120 777 \;;
#X scalar 1104.button 120 130 888 \;;
#X scalar 1104.button 120 140 777 \;;
#X scalar 1104.button 120 150 888 \;;
#X scalar 1104.button 120 160 888 \;;
#X scalar 1104.button 120 170 777 \;;
#X scalar 1104.button 120 180 888 \;;
#X scalar 1104.button 120 190 777 \;;
#X scalar 1104.button 120 200 888 \;;
#X scalar 1104.button 120 210 777 \;;
#X scalar 1104.button 120 220 888 \;;
#X scalar 1104.button 120 230 888 \;;
#X scalar 1104.button 120 240 777 \;;
#X scalar 1104.button 120 250 888 \;;
#X scalar 1104.button 120 260 777 \;;
#X scalar 1104.button 120 270 888 \;;
#X scalar 1104.button 120 280 888 \;;
#X scalar 1104.button 120 290 777 \;;
#X scalar 1104.button 120 300 888 \;;
#X scalar 1104.button 120 310 777 \;;
#X scalar 1104.button 120 320 888 \;;
#X scalar 1104.button 120 330 777 \;;
#X scalar 1104.button 120 340 888 \;;
#X scalar 1104.button 120 350 888 \;;
#X scalar 1104.button 120 360 777 \;;
#X scalar 1104.button 120 370 888 \;;
#X scalar 1104.button 120 380 777 \;;
#X scalar 1104.button 120 390 888 \;;
#X scalar 1104.button 130 0 777 \;;
#X scalar 1104.button 130 10 888 \;;
#X scalar 1104.button 130 20 777 \;;
#X scalar 1104.button 130 30 888 \;;
#X scalar 1104.button 130 40 888 \;;
#X scalar 1104.button 130 50 777 \;;
#X scalar 1104.button 130 60 888 \;;
#X scalar 1104.button 130 70 777 \;;
#X scalar 1104.button 130 80 888 \;;
#X scalar 1104.button 130 90 777 \;;
#X scalar 1104.button 130 100 888 \;;
#X scalar 1104.button 130 110 888 \;;
#X scalar 1104.button 130 120 777 \;;
#X scalar 1104.button 130 130 888 \;;
#X scalar 1104.button 130 140 777 \;;
#X scalar 1104.button 130 150 888 \;;
#X scalar 1104.button 130 160 888 \;;
#X scalar 1104.button 130 170 777 \;;
#X scalar 1104.button 130 180 888 \;;
#X scalar 1104.button 130 190 777 \;;
#X scalar 1104.button 130 200 888 \;;
#X scalar 1104.button 130 210 777 \;;
#X scalar 1104.button 130 220 888 \;;
#X scalar 1104.button 130 230 888 \;;
#X scalar 1104.button 130 240 777 \;;
#X scalar 1104.button 130 250 888 \;;
#X scalar 1104.button 130 260 777 \;;
#X scalar 1104.button 130 270 888 \;;
#X scalar 1104.button 130 280 888 \;;
#X scalar 1104.button 130 290 777 \;;
#X scalar 1104.button 130 300 888 \;;
#X scalar 1104.button 130 310 777 \;;
#X scalar 1104.button 130 320 888 \;;
#X scalar 1104.button 130 330 777 \;;
#X scalar 1104.button 130 340 888 \;;
#X scalar 1104.button 130 350 888 \;;
#X scalar 1104.button 130 360 777 \;;
#X scalar 1104.button 130 370 888 \;;
#X scalar 1104.button 130 380 777 \;;
#X scalar 1104.button 130 390 888 \;;
#X scalar 1104.button 140 0 777 \;;
#X scalar 1104.button 140 10 888 \;;
#X scalar 1104.button 140 20 777 \;;
#X scalar 1104.button 140 30 888 \;;
#X scalar 1104.button 140 40 888 \;;
#X scalar 1104.button 140 50 777 \;;
#X scalar 1104.button 140 60 888 \;;
#X scalar 1104.button 140 70 777 \;;
#X scalar 1104.button 140 80 888 \;;
#X scalar 1104.button 140 90 777 \;;
#X scalar 1104.button 140 100 888 \;;
#X scalar 1104.button 140 110 888 \;;
#X scalar 1104.button 140 120 777 \;;
#X scalar 1104.button 140 130 888 \;;
#X scalar 1104.button 140 140 777 \;;
#X scalar 1104.button 140 150 888 \;;
#X scalar 1104.button 140 160 888 \;;
#X scalar 1104.button 140 170 777 \;;
#X scalar 1104.button 140 180 888 \;;
#X scalar 1104.button 140 190 777 \;;
#X scalar 1104.button 140 200 888 \;;
#X scalar 1104.button 140 210 777 \;;
#X scalar 1104.button 140 220 888 \;;
#X scalar 1104.button 140 230 888 \;;
#X scalar 1104.button 140 240 777 \;;
#X scalar 1104.button 140 250 888 \;;
#X scalar 1104.button 140 260 777 \;;
#X scalar 1104.button 140 270 888 \;;
#X scalar 1104.button 140 280 888 \;;
#X scalar 1104.button 140 290 777 \;;
#X scalar 1104.button 140 300 888 \;;
#X scalar 1104.button 140 310 777 \;;
#X scalar 1104.button 140 320 888 \;;
#X scalar 1104.button 140 330 777 \;;
#X scalar 1104.button 140 340 888 \;;
#X scalar 1104.button 140 350 888 \;;
#X scalar 1104.button 140 360 777 \;;
#X scalar 1104.button 140 370 888 \;;
#X scalar 1104.button 140 380 777 \;;
#X scalar 1104.button 140 390 888 \;;
#X scalar 1104.button 150 0 777 \;;
#X scalar 1104.button 150 10 888 \;;
#X scalar 1104.button 150 20 444 \;;
#X scalar 1104.button 150 30 888 \;;
#X scalar 1104.button 150 40 888 \;;
#X scalar 1104.button 150 50 777 \;;
#X scalar 1104.button 150 60 888 \;;
#X scalar 1104.button 150 70 777 \;;
#X scalar 1104.button 150 80 888 \;;
#X scalar 1104.button 150 90 777 \;;
#X scalar 1104.button 150 100 888 \;;
#X scalar 1104.button 150 110 888 \;;
#X scalar 1104.button 150 120 777 \;;
#X scalar 1104.button 150 130 888 \;;
#X scalar 1104.button 150 140 777 \;;
#X scalar 1104.button 150 150 888 \;;
#X scalar 1104.button 150 160 888 \;;
#X scalar 1104.button 150 170 777 \;;
#X scalar 1104.button 150 180 888 \;;
#X scalar 1104.button 150 190 777 \;;
#X scalar 1104.button 150 200 888 \;;
#X scalar 1104.button 150 210 777 \;;
#X scalar 1104.button 150 220 888 \;;
#X scalar 1104.button 150 230 888 \;;
#X scalar 1104.button 150 240 777 \;;
#X scalar 1104.button 150 250 888 \;;
#X scalar 1104.button 150 260 777 \;;
#X scalar 1104.button 150 270 888 \;;
#X scalar 1104.button 150 280 888 \;;
#X scalar 1104.button 150 290 777 \;;
#X scalar 1104.button 150 300 888 \;;
#X scalar 1104.button 150 310 777 \;;
#X scalar 1104.button 150 320 888 \;;
#X scalar 1104.button 150 330 777 \;;
#X scalar 1104.button 150 340 888 \;;
#X scalar 1104.button 150 350 888 \;;
#X scalar 1104.button 150 360 777 \;;
#X scalar 1104.button 150 370 888 \;;
#X scalar 1104.button 150 380 777 \;;
#X scalar 1104.button 150 390 888 \;;
#X scalar 1104.button 160 0 767 \;;
#X scalar 1104.button 160 10 878 \;;
#X scalar 1104.button 160 20 767 \;;
#X scalar 1104.button 160 30 878 \;;
#X scalar 1104.button 160 40 878 \;;
#X scalar 1104.button 160 50 767 \;;
#X scalar 1104.button 160 60 878 \;;
#X scalar 1104.button 160 70 767 \;;
#X scalar 1104.button 160 80 878 \;;
#X scalar 1104.button 160 90 767 \;;
#X scalar 1104.button 160 100 878 \;;
#X scalar 1104.button 160 110 878 \;;
#X scalar 1104.button 160 120 767 \;;
#X scalar 1104.button 160 130 878 \;;
#X scalar 1104.button 160 140 767 \;;
#X scalar 1104.button 160 150 878 \;;
#X scalar 1104.button 160 160 878 \;;
#X scalar 1104.button 160 170 767 \;;
#X scalar 1104.button 160 180 878 \;;
#X scalar 1104.button 160 190 767 \;;
#X scalar 1104.button 160 200 878 \;;
#X scalar 1104.button 160 210 767 \;;
#X scalar 1104.button 160 220 878 \;;
#X scalar 1104.button 160 230 878 \;;
#X scalar 1104.button 160 240 767 \;;
#X scalar 1104.button 160 250 878 \;;
#X scalar 1104.button 160 260 767 \;;
#X scalar 1104.button 160 270 878 \;;
#X scalar 1104.button 160 280 878 \;;
#X scalar 1104.button 160 290 767 \;;
#X scalar 1104.button 160 300 878 \;;
#X scalar 1104.button 160 310 767 \;;
#X scalar 1104.button 160 320 878 \;;
#X scalar 1104.button 160 330 767 \;;
#X scalar 1104.button 160 340 878 \;;
#X scalar 1104.button 160 350 878 \;;
#X scalar 1104.button 160 360 767 \;;
#X scalar 1104.button 160 370 878 \;;
#X scalar 1104.button 160 380 767 \;;
#X scalar 1104.button 160 390 878 \;;
#X scalar 1104.button 170 0 767 \;;
#X scalar 1104.button 170 10 878 \;;
#X scalar 1104.button 170 20 767 \;;
#X scalar 1104.button 170 30 878 \;;
#X scalar 1104.button 170 40 878 \;;
#X scalar 1104.button 170 50 767 \;;
#X scalar 1104.button 170 60 878 \;;
#X scalar 1104.button 170 70 767 \;;
#X scalar 1104.button 170 80 878 \;;
#X scalar 1104.button 170 90 767 \;;
#X scalar 1104.button 170 100 878 \;;
#X scalar 1104.button 170 110 878 \;;
#X scalar 1104.button 170 120 767 \;;
#X scalar 1104.button 170 130 878 \;;
#X scalar 1104.button 170 140 767 \;;
#X scalar 1104.button 170 150 878 \;;
#X scalar 1104.button 170 160 878 \;;
#X scalar 1104.button 170 170 767 \;;
#X scalar 1104.button 170 180 878 \;;
#X scalar 1104.button 170 190 767 \;;
#X scalar 1104.button 170 200 878 \;;
#X scalar 1104.button 170 210 767 \;;
#X scalar 1104.button 170 220 878 \;;
#X scalar 1104.button 170 230 878 \;;
#X scalar 1104.button 170 240 767 \;;
#X scalar 1104.button 170 250 878 \;;
#X scalar 1104.button 170 260 767 \;;
#X scalar 1104.button 170 270 878 \;;
#X scalar 1104.button 170 280 878 \;;
#X scalar 1104.button 170 290 767 \;;
#X scalar 1104.button 170 300 878 \;;
#X scalar 1104.button 170 310 767 \;;
#X scalar 1104.button 170 320 878 \;;
#X scalar 1104.button 170 330 767 \;;
#X scalar 1104.button 170 340 878 \;;
#X scalar 1104.button 170 350 878 \;;
#X scalar 1104.button 170 360 767 \;;
#X scalar 1104.button 170 370 878 \;;
#X scalar 1104.button 170 380 767 \;;
#X scalar 1104.button 170 390 878 \;;
#X scalar 1104.button 180 0 767 \;;
#X scalar 1104.button 180 10 878 \;;
#X scalar 1104.button 180 20 767 \;;
#X scalar 1104.button 180 30 878 \;;
#X scalar 1104.button 180 40 878 \;;
#X scalar 1104.button 180 50 767 \;;
#X scalar 1104.button 180 60 878 \;;
#X scalar 1104.button 180 70 767 \;;
#X scalar 1104.button 180 80 545 \;;
#X scalar 1104.button 180 90 767 \;;
#X scalar 1104.button 180 100 878 \;;
#X scalar 1104.button 180 110 878 \;;
#X scalar 1104.button 180 120 767 \;;
#X scalar 1104.button 180 130 878 \;;
#X scalar 1104.button 180 140 767 \;;
#X scalar 1104.button 180 150 878 \;;
#X scalar 1104.button 180 160 878 \;;
#X scalar 1104.button 180 170 767 \;;
#X scalar 1104.button 180 180 878 \;;
#X scalar 1104.button 180 190 767 \;;
#X scalar 1104.button 180 200 878 \;;
#X scalar 1104.button 180 210 767 \;;
#X scalar 1104.button 180 220 878 \;;
#X scalar 1104.button 180 230 878 \;;
#X scalar 1104.button 180 240 767 \;;
#X scalar 1104.button 180 250 878 \;;
#X scalar 1104.button 180 260 767 \;;
#X scalar 1104.button 180 270 878 \;;
#X scalar 1104.button 180 280 878 \;;
#X scalar 1104.button 180 290 767 \;;
#X scalar 1104.button 180 300 878 \;;
#X scalar 1104.button 180 310 767 \;;
#X scalar 1104.button 180 320 878 \;;
#X scalar 1104.button 180 330 767 \;;
#X scalar 1104.button 180 340 878 \;;
#X scalar 1104.button 180 350 878 \;;
#X scalar 1104.button 180 360 767 \;;
#X scalar 1104.button 180 370 878 \;;
#X scalar 1104.button 180 380 767 \;;
#X scalar 1104.button 180 390 878 \;;
#X scalar 1104.button 190 0 767 \;;
#X scalar 1104.button 190 10 878 \;;
#X scalar 1104.button 190 20 767 \;;
#X scalar 1104.button 190 30 878 \;;
#X scalar 1104.button 190 40 878 \;;
#X scalar 1104.button 190 50 767 \;;
#X scalar 1104.button 190 60 878 \;;
#X scalar 1104.button 190 70 767 \;;
#X scalar 1104.button 190 80 878 \;;
#X scalar 1104.button 190 90 767 \;;
#X scalar 1104.button 190 100 878 \;;
#X scalar 1104.button 190 110 878 \;;
#X scalar 1104.button 190 120 767 \;;
#X scalar 1104.button 190 130 878 \;;
#X scalar 1104.button 190 140 767 \;;
#X scalar 1104.button 190 150 878 \;;
#X scalar 1104.button 190 160 545 \;;
#X scalar 1104.button 190 170 767 \;;
#X scalar 1104.button 190 180 878 \;;
#X scalar 1104.button 190 190 767 \;;
#X scalar 1104.button 190 200 545 \;;
#X scalar 1104.button 190 210 767 \;;
#X scalar 1104.button 190 220 878 \;;
#X scalar 1104.button 190 230 545 \;;
#X scalar 1104.button 190 240 767 \;;
#X scalar 1104.button 190 250 878 \;;
#X scalar 1104.button 190 260 767 \;;
#X scalar 1104.button 190 270 545 \;;
#X scalar 1104.button 190 280 878 \;;
#X scalar 1104.button 190 290 767 \;;
#X scalar 1104.button 190 300 545 \;;
#X scalar 1104.button 190 310 767 \;;
#X scalar 1104.button 190 320 878 \;;
#X scalar 1104.button 190 330 767 \;;
#X scalar 1104.button 190 340 878 \;;
#X scalar 1104.button 190 350 878 \;;
#X scalar 1104.button 190 360 767 \;;
#X scalar 1104.button 190 370 878 \;;
#X scalar 1104.button 190 380 767 \;;
#X scalar 1104.button 190 390 878 \;;
#X scalar 1104.button 200 0 777 \;;
#X scalar 1104.button 200 10 888 \;;
#X scalar 1104.button 200 20 777 \;;
#X scalar 1104.button 200 30 888 \;;
#X scalar 1104.button 200 40 888 \;;
#X scalar 1104.button 200 50 777 \;;
#X scalar 1104.button 200 60 888 \;;
#X scalar 1104.button 200 70 777 \;;
#X scalar 1104.button 200 80 888 \;;
#X scalar 1104.button 200 90 777 \;;
#X scalar 1104.button 200 100 888 \;;
#X scalar 1104.button 200 110 888 \;;
#X scalar 1104.button 200 120 777 \;;
#X scalar 1104.button 200 130 888 \;;
#X scalar 1104.button 200 140 777 \;;
#X scalar 1104.button 200 150 888 \;;
#X scalar 1104.button 200 160 888 \;;
#X scalar 1104.button 200 170 777 \;;
#X scalar 1104.button 200 180 888 \;;
#X scalar 1104.button 200 190 777 \;;
#X scalar 1104.button 200 200 888 \;;
#X scalar 1104.button 200 210 777 \;;
#X scalar 1104.button 200 220 888 \;;
#X scalar 1104.button 200 230 888 \;;
#X scalar 1104.button 200 240 777 \;;
#X scalar 1104.button 200 250 888 \;;
#X scalar 1104.button 200 260 777 \;;
#X scalar 1104.button 200 270 888 \;;
#X scalar 1104.button 200 280 888 \;;
#X scalar 1104.button 200 290 777 \;;
#X scalar 1104.button 200 300 888 \;;
#X scalar 1104.button 200 310 777 \;;
#X scalar 1104.button 200 320 888 \;;
#X scalar 1104.button 200 330 777 \;;
#X scalar 1104.button 200 340 888 \;;
#X scalar 1104.button 200 350 888 \;;
#X scalar 1104.button 200 360 777 \;;
#X scalar 1104.button 200 370 888 \;;
#X scalar 1104.button 200 380 777 \;;
#X scalar 1104.button 200 390 888 \;;
#X scalar 1104.button 210 0 777 \;;
#X scalar 1104.button 210 10 555 \;;
#X scalar 1104.button 210 20 777 \;;
#X scalar 1104.button 210 30 888 \;;
#X scalar 1104.button 210 40 888 \;;
#X scalar 1104.button 210 50 777 \;;
#X scalar 1104.button 210 60 888 \;;
#X scalar 1104.button 210 70 777 \;;
#X scalar 1104.button 210 80 888 \;;
#X scalar 1104.button 210 90 777 \;;
#X scalar 1104.button 210 100 888 \;;
#X scalar 1104.button 210 110 888 \;;
#X scalar 1104.button 210 120 777 \;;
#X scalar 1104.button 210 130 888 \;;
#X scalar 1104.button 210 140 777 \;;
#X scalar 1104.button 210 150 888 \;;
#X scalar 1104.button 210 160 888 \;;
#X scalar 1104.button 210 170 777 \;;
#X scalar 1104.button 210 180 888 \;;
#X scalar 1104.button 210 190 777 \;;
#X scalar 1104.button 210 200 888 \;;
#X scalar 1104.button 210 210 777 \;;
#X scalar 1104.button 210 220 888 \;;
#X scalar 1104.button 210 230 888 \;;
#X scalar 1104.button 210 240 777 \;;
#X scalar 1104.button 210 250 888 \;;
#X scalar 1104.button 210 260 777 \;;
#X scalar 1104.button 210 270 888 \;;
#X scalar 1104.button 210 280 888 \;;
#X scalar 1104.button 210 290 777 \;;
#X scalar 1104.button 210 300 888 \;;
#X scalar 1104.button 210 310 777 \;;
#X scalar 1104.button 210 320 888 \;;
#X scalar 1104.button 210 330 777 \;;
#X scalar 1104.button 210 340 888 \;;
#X scalar 1104.button 210 350 888 \;;
#X scalar 1104.button 210 360 777 \;;
#X scalar 1104.button 210 370 888 \;;
#X scalar 1104.button 210 380 777 \;;
#X scalar 1104.button 210 390 888 \;;
#X scalar 1104.button 220 0 777 \;;
#X scalar 1104.button 220 10 888 \;;
#X scalar 1104.button 220 20 777 \;;
#X scalar 1104.button 220 30 888 \;;
#X scalar 1104.button 220 40 888 \;;
#X scalar 1104.button 220 50 777 \;;
#X scalar 1104.button 220 60 888 \;;
#X scalar 1104.button 220 70 777 \;;
#X scalar 1104.button 220 80 888 \;;
#X scalar 1104.button 220 90 777 \;;
#X scalar 1104.button 220 100 888 \;;
#X scalar 1104.button 220 110 888 \;;
#X scalar 1104.button 220 120 777 \;;
#X scalar 1104.button 220 130 888 \;;
#X scalar 1104.button 220 140 777 \;;
#X scalar 1104.button 220 150 888 \;;
#X scalar 1104.button 220 160 888 \;;
#X scalar 1104.button 220 170 777 \;;
#X scalar 1104.button 220 180 888 \;;
#X scalar 1104.button 220 190 777 \;;
#X scalar 1104.button 220 200 888 \;;
#X scalar 1104.button 220 210 777 \;;
#X scalar 1104.button 220 220 888 \;;
#X scalar 1104.button 220 230 888 \;;
#X scalar 1104.button 220 240 777 \;;
#X scalar 1104.button 220 250 888 \;;
#X scalar 1104.button 220 260 777 \;;
#X scalar 1104.button 220 270 888 \;;
#X scalar 1104.button 220 280 888 \;;
#X scalar 1104.button 220 290 777 \;;
#X scalar 1104.button 220 300 888 \;;
#X scalar 1104.button 220 310 777 \;;
#X scalar 1104.button 220 320 888 \;;
#X scalar 1104.button 220 330 777 \;;
#X scalar 1104.button 220 340 888 \;;
#X scalar 1104.button 220 350 888 \;;
#X scalar 1104.button 220 360 777 \;;
#X scalar 1104.button 220 370 888 \;;
#X scalar 1104.button 220 380 777 \;;
#X scalar 1104.button 220 390 888 \;;
#X scalar 1104.button 230 0 777 \;;
#X scalar 1104.button 230 10 888 \;;
#X scalar 1104.button 230 20 777 \;;
#X scalar 1104.button 230 30 888 \;;
#X scalar 1104.button 230 40 888 \;;
#X scalar 1104.button 230 50 777 \;;
#X scalar 1104.button 230 60 888 \;;
#X scalar 1104.button 230 70 777 \;;
#X scalar 1104.button 230 80 888 \;;
#X scalar 1104.button 230 90 777 \;;
#X scalar 1104.button 230 100 888 \;;
#X scalar 1104.button 230 110 888 \;;
#X scalar 1104.button 230 120 777 \;;
#X scalar 1104.button 230 130 888 \;;
#X scalar 1104.button 230 140 777 \;;
#X scalar 1104.button 230 150 888 \;;
#X scalar 1104.button 230 160 888 \;;
#X scalar 1104.button 230 170 777 \;;
#X scalar 1104.button 230 180 888 \;;
#X scalar 1104.button 230 190 777 \;;
#X scalar 1104.button 230 200 888 \;;
#X scalar 1104.button 230 210 777 \;;
#X scalar 1104.button 230 220 888 \;;
#X scalar 1104.button 230 230 888 \;;
#X scalar 1104.button 230 240 777 \;;
#X scalar 1104.button 230 250 888 \;;
#X scalar 1104.button 230 260 777 \;;
#X scalar 1104.button 230 270 888 \;;
#X scalar 1104.button 230 280 888 \;;
#X scalar 1104.button 230 290 777 \;;
#X scalar 1104.button 230 300 888 \;;
#X scalar 1104.button 230 310 777 \;;
#X scalar 1104.button 230 320 888 \;;
#X scalar 1104.button 230 330 777 \;;
#X scalar 1104.button 230 340 888 \;;
#X scalar 1104.button 230 350 888 \;;
#X scalar 1104.button 230 360 777 \;;
#X scalar 1104.button 230 370 888 \;;
#X scalar 1104.button 230 380 777 \;;
#X scalar 1104.button 230 390 888 \;;
#X scalar 1104.button 240 0 767 \;;
#X scalar 1104.button 240 10 878 \;;
#X scalar 1104.button 240 20 767 \;;
#X scalar 1104.button 240 30 878 \;;
#X scalar 1104.button 240 40 545 \;;
#X scalar 1104.button 240 50 767 \;;
#X scalar 1104.button 240 60 878 \;;
#X scalar 1104.button 240 70 767 \;;
#X scalar 1104.button 240 80 878 \;;
#X scalar 1104.button 240 90 767 \;;
#X scalar 1104.button 240 100 878 \;;
#X scalar 1104.button 240 110 878 \;;
#X scalar 1104.button 240 120 767 \;;
#X scalar 1104.button 240 130 878 \;;
#X scalar 1104.button 240 140 767 \;;
#X scalar 1104.button 240 150 878 \;;
#X scalar 1104.button 240 160 878 \;;
#X scalar 1104.button 240 170 767 \;;
#X scalar 1104.button 240 180 878 \;;
#X scalar 1104.button 240 190 767 \;;
#X scalar 1104.button 240 200 878 \;;
#X scalar 1104.button 240 210 767 \;;
#X scalar 1104.button 240 220 878 \;;
#X scalar 1104.button 240 230 878 \;;
#X scalar 1104.button 240 240 767 \;;
#X scalar 1104.button 240 250 878 \;;
#X scalar 1104.button 240 260 767 \;;
#X scalar 1104.button 240 270 878 \;;
#X scalar 1104.button 240 280 878 \;;
#X scalar 1104.button 240 290 767 \;;
#X scalar 1104.button 240 300 878 \;;
#X scalar 1104.button 240 310 767 \;;
#X scalar 1104.button 240 320 878 \;;
#X scalar 1104.button 240 330 767 \;;
#X scalar 1104.button 240 340 878 \;;
#X scalar 1104.button 240 350 878 \;;
#X scalar 1104.button 240 360 767 \;;
#X scalar 1104.button 240 370 878 \;;
#X scalar 1104.button 240 380 767 \;;
#X scalar 1104.button 240 390 878 \;;
#X scalar 1104.button 250 0 767 \;;
#X scalar 1104.button 250 10 878 \;;
#X scalar 1104.button 250 20 767 \;;
#X scalar 1104.button 250 30 878 \;;
#X scalar 1104.button 250 40 878 \;;
#X scalar 1104.button 250 50 767 \;;
#X scalar 1104.button 250 60 878 \;;
#X scalar 1104.button 250 70 767 \;;
#X scalar 1104.button 250 80 878 \;;
#X scalar 1104.button 250 90 767 \;;
#X scalar 1104.button 250 100 878 \;;
#X scalar 1104.button 250 110 878 \;;
#X scalar 1104.button 250 120 767 \;;
#X scalar 1104.button 250 130 878 \;;
#X scalar 1104.button 250 140 767 \;;
#X scalar 1104.button 250 150 878 \;;
#X scalar 1104.button 250 160 878 \;;
#X scalar 1104.button 250 170 767 \;;
#X scalar 1104.button 250 180 878 \;;
#X scalar 1104.button 250 190 767 \;;
#X scalar 1104.button 250 200 878 \;;
#X scalar 1104.button 250 210 767 \;;
#X scalar 1104.button 250 220 878 \;;
#X scalar 1104.button 250 230 878 \;;
#X scalar 1104.button 250 240 767 \;;
#X scalar 1104.button 250 250 878 \;;
#X scalar 1104.button 250 260 767 \;;
#X scalar 1104.button 250 270 878 \;;
#X scalar 1104.button 250 280 878 \;;
#X scalar 1104.button 250 290 767 \;;
#X scalar 1104.button 250 300 878 \;;
#X scalar 1104.button 250 310 767 \;;
#X scalar 1104.button 250 320 878 \;;
#X scalar 1104.button 250 330 767 \;;
#X scalar 1104.button 250 340 878 \;;
#X scalar 1104.button 250 350 878 \;;
#X scalar 1104.button 250 360 767 \;;
#X scalar 1104.button 250 370 878 \;;
#X scalar 1104.button 250 380 767 \;;
#X scalar 1104.button 250 390 878 \;;
#X scalar 1104.button 260 0 767 \;;
#X scalar 1104.button 260 10 878 \;;
#X scalar 1104.button 260 20 767 \;;
#X scalar 1104.button 260 30 878 \;;
#X scalar 1104.button 260 40 878 \;;
#X scalar 1104.button 260 50 767 \;;
#X scalar 1104.button 260 60 878 \;;
#X scalar 1104.button 260 70 767 \;;
#X scalar 1104.button 260 80 878 \;;
#X scalar 1104.button 260 90 767 \;;
#X scalar 1104.button 260 100 878 \;;
#X scalar 1104.button 260 110 878 \;;
#X scalar 1104.button 260 120 767 \;;
#X scalar 1104.button 260 130 878 \;;
#X scalar 1104.button 260 140 767 \;;
#X scalar 1104.button 260 150 878 \;;
#X scalar 1104.button 260 160 545 \;;
#X scalar 1104.button 260 170 767 \;;
#X scalar 1104.button 260 180 878 \;;
#X scalar 1104.button 260 190 767 \;;
#X scalar 1104.button 260 200 545 \;;
#X scalar 1104.button 260 210 434 \;;
#X scalar 1104.button 260 220 878 \;;
#X scalar 1104.button 260 230 878 \;;
#X scalar 1104.button 260 240 767 \;;
#X scalar 1104.button 260 250 545 \;;
#X scalar 1104.button 260 260 767 \;;
#X scalar 1104.button 260 270 878 \;;
#X scalar 1104.button 260 280 878 \;;
#X scalar 1104.button 260 290 767 \;;
#X scalar 1104.button 260 300 878 \;;
#X scalar 1104.button 260 310 767 \;;
#X scalar 1104.button 260 320 545 \;;
#X scalar 1104.button 260 330 767 \;;
#X scalar 1104.button 260 340 878 \;;
#X scalar 1104.button 260 350 878 \;;
#X scalar 1104.button 260 360 767 \;;
#X scalar 1104.button 260 370 878 \;;
#X scalar 1104.button 260 380 767 \;;
#X scalar 1104.button 260 390 878 \;;
#X scalar 1104.button 270 0 767 \;;
#X scalar 1104.button 270 10 878 \;;
#X scalar 1104.button 270 20 767 \;;
#X scalar 1104.button 270 30 878 \;;
#X scalar 1104.button 270 40 878 \;;
#X scalar 1104.button 270 50 767 \;;
#X scalar 1104.button 270 60 878 \;;
#X scalar 1104.button 270 70 767 \;;
#X scalar 1104.button 270 80 545 \;;
#X scalar 1104.button 270 90 767 \;;
#X scalar 1104.button 270 100 878 \;;
#X scalar 1104.button 270 110 878 \;;
#X scalar 1104.button 270 120 767 \;;
#X scalar 1104.button 270 130 878 \;;
#X scalar 1104.button 270 140 767 \;;
#X scalar 1104.button 270 150 878 \;;
#X scalar 1104.button 270 160 878 \;;
#X scalar 1104.button 270 170 767 \;;
#X scalar 1104.button 270 180 878 \;;
#X scalar 1104.button 270 190 767 \;;
#X scalar 1104.button 270 200 878 \;;
#X scalar 1104.button 270 210 767 \;;
#X scalar 1104.button 270 220 878 \;;
#X scalar 1104.button 270 230 878 \;;
#X scalar 1104.button 270 240 767 \;;
#X scalar 1104.button 270 250 878 \;;
#X scalar 1104.button 270 260 767 \;;
#X scalar 1104.button 270 270 878 \;;
#X scalar 1104.button 270 280 878 \;;
#X scalar 1104.button 270 290 767 \;;
#X scalar 1104.button 270 300 878 \;;
#X scalar 1104.button 270 310 767 \;;
#X scalar 1104.button 270 320 878 \;;
#X scalar 1104.button 270 330 767 \;;
#X scalar 1104.button 270 340 878 \;;
#X scalar 1104.button 270 350 878 \;;
#X scalar 1104.button 270 360 767 \;;
#X scalar 1104.button 270 370 878 \;;
#X scalar 1104.button 270 380 767 \;;
#X scalar 1104.button 270 390 878 \;;
#X scalar 1104.button 280 0 777 \;;
#X scalar 1104.button 280 10 888 \;;
#X scalar 1104.button 280 20 777 \;;
#X scalar 1104.button 280 30 888 \;;
#X scalar 1104.button 280 40 888 \;;
#X scalar 1104.button 280 50 777 \;;
#X scalar 1104.button 280 60 888 \;;
#X scalar 1104.button 280 70 777 \;;
#X scalar 1104.button 280 80 888 \;;
#X scalar 1104.button 280 90 777 \;;
#X scalar 1104.button 280 100 888 \;;
#X scalar 1104.button 280 110 888 \;;
#X scalar 1104.button 280 120 777 \;;
#X scalar 1104.button 280 130 888 \;;
#X scalar 1104.button 280 140 777 \;;
#X scalar 1104.button 280 150 888 \;;
#X scalar 1104.button 280 160 888 \;;
#X scalar 1104.button 280 170 777 \;;
#X scalar 1104.button 280 180 888 \;;
#X scalar 1104.button 280 190 777 \;;
#X scalar 1104.button 280 200 888 \;;
#X scalar 1104.button 280 210 777 \;;
#X scalar 1104.button 280 220 888 \;;
#X scalar 1104.button 280 230 888 \;;
#X scalar 1104.button 280 240 777 \;;
#X scalar 1104.button 280 250 888 \;;
#X scalar 1104.button 280 260 777 \;;
#X scalar 1104.button 280 270 888 \;;
#X scalar 1104.button 280 280 888 \;;
#X scalar 1104.button 280 290 777 \;;
#X scalar 1104.button 280 300 888 \;;
#X scalar 1104.button 280 310 777 \;;
#X scalar 1104.button 280 320 888 \;;
#X scalar 1104.button 280 330 777 \;;
#X scalar 1104.button 280 340 888 \;;
#X scalar 1104.button 280 350 888 \;;
#X scalar 1104.button 280 360 777 \;;
#X scalar 1104.button 280 370 888 \;;
#X scalar 1104.button 280 380 777 \;;
#X scalar 1104.button 280 390 888 \;;
#X scalar 1104.button 290 0 777 \;;
#X scalar 1104.button 290 10 888 \;;
#X scalar 1104.button 290 20 777 \;;
#X scalar 1104.button 290 30 888 \;;
#X scalar 1104.button 290 40 888 \;;
#X scalar 1104.button 290 50 777 \;;
#X scalar 1104.button 290 60 888 \;;
#X scalar 1104.button 290 70 777 \;;
#X scalar 1104.button 290 80 888 \;;
#X scalar 1104.button 290 90 777 \;;
#X scalar 1104.button 290 100 888 \;;
#X scalar 1104.button 290 110 888 \;;
#X scalar 1104.button 290 120 777 \;;
#X scalar 1104.button 290 130 888 \;;
#X scalar 1104.button 290 140 777 \;;
#X scalar 1104.button 290 150 888 \;;
#X scalar 1104.button 290 160 888 \;;
#X scalar 1104.button 290 170 777 \;;
#X scalar 1104.button 290 180 888 \;;
#X scalar 1104.button 290 190 777 \;;
#X scalar 1104.button 290 200 888 \;;
#X scalar 1104.button 290 210 777 \;;
#X scalar 1104.button 290 220 888 \;;
#X scalar 1104.button 290 230 888 \;;
#X scalar 1104.button 290 240 777 \;;
#X scalar 1104.button 290 250 888 \;;
#X scalar 1104.button 290 260 777 \;;
#X scalar 1104.button 290 270 888 \;;
#X scalar 1104.button 290 280 888 \;;
#X scalar 1104.button 290 290 777 \;;
#X scalar 1104.button 290 300 888 \;;
#X scalar 1104.button 290 310 777 \;;
#X scalar 1104.button 290 320 888 \;;
#X scalar 1104.button 290 330 777 \;;
#X scalar 1104.button 290 340 888 \;;
#X scalar 1104.button 290 350 888 \;;
#X scalar 1104.button 290 360 777 \;;
#X scalar 1104.button 290 370 888 \;;
#X scalar 1104.button 290 380 777 \;;
#X scalar 1104.button 290 390 888 \;;
#X scalar 1104.cursor 31 401 \;;
#X restore 19 205 pd \$0.seq;
#X text 643 375 <- show/hide ungrid data;
#X text 677 388 canvas;
#X text 14 8 [ungrid] - a DS sequencer;
#X text 14 142 arg1: name of data canvas;
#N canvas 567 320 408 213 META 0;
#X text 14 -9 INLET_0 anything;
#X text 14 11 OUTLET_O anything;
#X text 14 51 LICENSE GLP v2;
#X text 14 31 KEYWORDS control sequencer datastructures abstraction
;
#X text 14 71 DESCRIPTION grid sequencer abstraction with data structures
based GUI;
#X text 14 104 AUTHOR Roman Haefeli;
#X restore 97 421 pd META;
#X connect 0 0 1 0;
#X connect 1 0 10 0;
#X connect 4 0 6 0;
#X connect 5 0 4 0;
#X connect 9 0 7 0;
#X connect 11 0 12 0;
#X connect 17 0 15 0;
#X connect 20 0 18 0;
#X connect 21 0 20 0;
#X connect 28 0 30 0;
#X connect 31 0 34 0;
#X connect 34 0 35 0;
#X connect 35 0 29 0;
#X connect 36 0 30 1;
#X connect 39 0 9 0;
#X connect 42 0 40 0;
#X connect 44 0 45 0;
#X connect 45 0 46 0;
#X connect 47 0 45 1;
#X connect 49 0 50 0;
#X connect 59 0 56 0;
