#N canvas 141 212 500 336 12;
#X obj 356 80 loadbang;
#X msg 356 136 get count;
#X obj 356 161 s metaseq;
#X obj 356 186 r metaseq;
#X obj 356 211 route count;
#X obj 20 20 nbx 11 20 -1 2 0 0 \$1-\$2/metaseq-set \$1-\$2/metaseq-set
empty 0 8 0 10 -262144 -1 -1 -1 256;
#X obj 20 20 cnv 15 60 20 empty empty metaseq: 3 10 0 12 -233017 -1
0;
#X obj 80 20 cnv 15 50 20 empty \$0.label master 2 10 0 12 -233017
-1 0;
#N canvas 0 99 450 300 NETPD 0;
#X msg 4 14 version 0 1 0;
#X restore 312 18 pd NETPD 2 0;
#X obj 356 105 t b b, f 14;
#X msg 451 133 -1;
#X msg 356 263 range -1 \$1;
#X obj 17 90 route float set;
#X obj 17 118 sel -1;
#X msg 17 197 symbol master;
#X msg 17 225 label \$1;
#X obj 17 250 s \$0.label;
#X obj 356 236 - 1;
#X obj 56 172 makefilename %5d;
#X obj 56 142 t a b;
#X obj 17 67 r \$1-\$2/metaseq-set;
#X obj 17 283 netpd_f \$1 \$2/metaseq-set -1;
#X obj 356 287 s \$1-\$2/metaseq-set;
#X obj 253 236 print;
#X connect 0 0 9 0;
#X connect 1 0 2 0;
#X connect 3 0 4 0;
#X connect 4 0 17 0;
#X connect 9 0 1 0;
#X connect 9 1 10 0;
#X connect 10 0 11 0;
#X connect 11 0 22 0;
#X connect 12 0 13 0;
#X connect 12 1 13 0;
#X connect 13 0 14 0;
#X connect 13 1 19 0;
#X connect 14 0 15 0;
#X connect 15 0 16 0;
#X connect 17 0 11 0;
#X connect 18 0 15 0;
#X connect 19 0 18 0;
#X connect 19 1 9 0;
#X connect 20 0 12 0;
#X coords 0 -1 1 1 110 20 2 20 20;
