#N canvas 141 212 511 345 12;
#X obj 64 20 nbx 2 20 1 99 0 0 \$1-\$2/poly/dend \$1-\$2/poly/dend empty 0 8 0 10 #fcfcfc #000000 #000000 0 256;
#N canvas 0 99 450 300 NETPD 0;
#X msg 4 14 version 0 1 0;
#X restore 312 18 pd NETPD 2 0;
#X obj 20 122 route float set;
#X msg 20 179 label \$1;
#X obj 20 92 r \$1-\$2/poly/dend;
#X obj 16 308 netpd_f \$1 \$2/poly/sor 4;
#X obj 17 283 netpd_f \$1 \$2/poly/dend 4;
#X obj 20 206 s \$0.dend.label;
#X obj 20 152 makefilename %2d;
#X obj 170 122 route float set;
#X msg 170 179 label \$1;
#X obj 170 152 makefilename %2d;
#X obj 170 92 r \$1-\$2/poly/sor;
#X obj 170 206 s \$0.sor.label;
#X obj 99 20 nbx 2 20 1 99 0 0 \$1-\$2/poly/sor \$1-\$2/poly/sor empty 0 8 0 10 #fcfcfc #000000 #000000 0 256;
#X obj 20 20 cnv 15 46 20 empty \$0.poly.label poly: 3 10 0 12 #e0e0e0 #000000 0;
#X obj 67 20 cnv 10 26 20 empty \$0.dend.label 4 6 10 0 12 #e0e0e0 #000000 0;
#X obj 104 20 cnv 10 26 20 empty \$0.sor.label 4 6 10 0 12 #e0e0e0 #000000 0;
#X obj 94 20 cnv 10 10 20 empty \$0.op.label / 2 10 0 12 #e0e0e0 #000000 0;
#N canvas 517 304 541 388 color 0;
#X msg 22 231 color 10 10 \$1;
#X msg 22 189 -1;
#X msg 55 189 1;
#X obj 22 8 netpd_r \$1 \$2/metaseq-set;
#X obj 79 263 s \$0.sor.label;
#X obj 68 290 s \$0.dend.label;
#X obj 42 313 s \$0.poly.label;
#X obj 22 339 s \$0.op.label;
#X obj 22 33 == -1;
#X obj 230 42 route float set;
#X obj 230 12 r \$1-\$2/poly/dend;
#X obj 380 42 route float set;
#X obj 380 12 r \$1-\$2/poly/sor;
#X obj 255 83 t b a;
#X obj 230 110 !=;
#X obj 22 166 sel 1;
#X obj 22 126 &&;
#X obj 40 91 t b a;
#X connect 0 0 4 0;
#X connect 0 0 5 0;
#X connect 0 0 6 0;
#X connect 0 0 7 0;
#X connect 1 0 0 0;
#X connect 2 0 0 0;
#X connect 3 0 8 0;
#X connect 8 0 16 0;
#X connect 9 0 14 0;
#X connect 9 1 14 0;
#X connect 10 0 9 0;
#X connect 11 0 13 0;
#X connect 11 1 13 0;
#X connect 12 0 11 0;
#X connect 13 0 14 0;
#X connect 13 1 14 1;
#X connect 14 0 17 0;
#X connect 15 0 1 0;
#X connect 15 1 2 0;
#X connect 16 0 15 0;
#X connect 17 0 16 0;
#X connect 17 1 16 1;
#X restore 323 84 pd color;
#X connect 2 0 8 0;
#X connect 2 1 8 0;
#X connect 3 0 7 0;
#X connect 4 0 2 0;
#X connect 8 0 3 0;
#X connect 9 0 11 0;
#X connect 9 1 11 0;
#X connect 10 0 13 0;
#X connect 11 0 10 0;
#X connect 12 0 9 0;
#X coords 0 -1 1 1 110 20 2 20 20;
