#N canvas 141 212 511 345 12;
#X obj 64 20 nbx 2 20 1 99 0 0 \$1-\$2/poly/dend \$1-\$2/poly/dend
empty 0 8 0 10 -262144 -1 -1 4 256;
#N canvas 0 99 450 300 NETPD 0;
#X msg 4 14 version 0 1 0;
#X restore 312 18 pd NETPD 2 0;
#X obj 20 122 route float set;
#X msg 20 179 label \$1;
#X obj 20 92 r \$1-\$2/poly/dend;
#X obj 16 308 netpd_f \$1 \$2/poly/sor 4;
#X obj 17 283 netpd_f \$1 \$2/poly/dend 4;
#X obj 20 206 s \$0.dend.label;
#X obj 20 152 makefilename %2d;
#X obj 170 122 route float set;
#X msg 170 179 label \$1;
#X obj 170 152 makefilename %2d;
#X obj 170 92 r \$1-\$2/poly/sor;
#X obj 170 206 s \$0.sor.label;
#X obj 99 20 nbx 2 20 1 99 0 0 \$1-\$2/poly/sor \$1-\$2/poly/sor empty
0 8 0 10 -262144 -1 -1 4 256;
#X obj 20 20 cnv 15 46 20 empty \$0.poly.label poly: 3 10 0 12 -233017
-1 0;
#X obj 67 20 cnv 10 26 20 empty \$0.dend.label  4 6 10 0 12 -233017
-1 0;
#X obj 104 20 cnv 10 26 20 empty \$0.sor.label  4 6 10 0 12 -233017
-1 0;
#X obj 94 20 cnv 10 10 20 empty \$0.op.label / 2 10 0 12 -233017 -1
0;
#N canvas 252 581 285 261 color 0;
#X msg 22 121 color 10 10 \$1;
#X obj 22 56 sel -1;
#X msg 22 79 -1;
#X msg 55 79 1;
#X obj 22 8 netpd_r \$1 \$2/metaseq-set;
#X obj 79 153 s \$0.sor.label;
#X obj 68 180 s \$0.dend.label;
#X obj 42 203 s \$0.poly.label;
#X obj 22 229 s \$0.op.label;
#X connect 0 0 5 0;
#X connect 0 0 6 0;
#X connect 0 0 7 0;
#X connect 0 0 8 0;
#X connect 1 0 2 0;
#X connect 1 1 3 0;
#X connect 2 0 0 0;
#X connect 3 0 0 0;
#X connect 4 0 1 0;
#X restore 323 84 pd color;
#X connect 2 0 8 0;
#X connect 2 1 8 0;
#X connect 3 0 7 0;
#X connect 4 0 2 0;
#X connect 8 0 3 0;
#X connect 9 0 11 0;
#X connect 9 1 11 0;
#X connect 10 0 13 0;
#X connect 11 0 10 0;
#X connect 12 0 9 0;
#X coords 0 -1 1 1 110 20 2 20 20;
