#N canvas 487 106 450 300 10;
#N canvas 1069 299 412 96 NETPD 0;
#N canvas 309 182 410 81 abslist 0;
#X msg 19 14 unpunch;
#X restore 26 38 pd abslist;
#X msg 25 11 version 0 1 2;
#X restore 339 12 pd NETPD 2 0;
#X obj 27 20 inlet;
#X obj 27 260 outlet;
#X obj 27 148 unpunch \$3 1;
#X obj 96 261 s \$1.NETPD;
#X obj 96 68 routeOSC /\$2;
#X obj 96 218 list prepend send /\$2;
#X obj 96 241 list trim;
#N canvas 0 99 537 416 process.input 0;
#X obj 37 37 inlet;
#X obj 37 252 outlet;
#X obj 106 39 r \$1.notown;
#X obj 37 79 list prepend;
#X obj 37 102 route 1 0;
#X obj 225 42 r \$0.direct.return;
#N canvas 180 511 372 209 only.note.change 0;
#X obj 17 47 route note;
#X obj 17 70 route change;
#X obj 17 120 list prepend note change;
#X obj 17 143 list trim;
#X obj 17 16 inlet;
#X obj 17 166 outlet;
#X obj 17 93 t a a, f 32;
#X obj 206 157 outlet;
#X connect 0 0 1 0;
#X connect 1 0 6 0;
#X connect 2 0 3 0;
#X connect 3 0 5 0;
#X connect 4 0 0 0;
#X connect 6 0 2 0;
#X connect 6 1 7 0;
#X restore 225 67 pd only.note.change;
#N canvas 152 468 372 209 all.but.note.change 0;
#X obj 17 47 route note;
#X obj 17 70 route change;
#X obj 17 16 inlet;
#X obj 17 170 outlet;
#X obj 86 101 list prepend note;
#X obj 86 124 list trim;
#X obj 203 169 outlet;
#X connect 0 0 1 0;
#X connect 0 1 3 0;
#X connect 1 0 6 0;
#X connect 1 1 4 0;
#X connect 2 0 0 0;
#X connect 4 0 5 0;
#X connect 5 0 3 0;
#X restore 62 130 pd all.but.note.change;
#X obj 288 273 table \$0.step 1000;
#X obj 288 293 table \$0.pitch 1000;
#X obj 288 313 table \$0.velocity 1000;
#X obj 288 333 table \$0.duration 1000;
#X obj 288 353 table \$0.gid 1000;
#N canvas 314 255 450 300 last.value.sent 0;
#X obj 20 23 inlet;
#X obj 20 46 route pos velocity duration gid;
#X obj 20 145 t a a;
#X obj 20 246 s \$0.step;
#X obj 47 196 s \$0.pitch;
#X obj 65 130 s \$0.velocity;
#X obj 111 106 s \$0.duration;
#X obj 157 86 s \$0.gid;
#X msg 20 216 \$1 \$2;
#X msg 47 170 \$1 \$3;
#X connect 0 0 1 0;
#X connect 1 0 2 0;
#X connect 1 1 5 0;
#X connect 1 2 6 0;
#X connect 1 3 7 0;
#X connect 2 0 8 0;
#X connect 2 1 9 0;
#X connect 8 0 3 0;
#X connect 9 0 4 0;
#X restore 336 95 pd last.value.sent;
#N canvas 0 99 481 369 pass.last.value 0;
#X obj 29 23 inlet;
#X obj 29 60 route pos velocity duration gid, f 63;
#X obj 29 311 outlet;
#N canvas 0 99 550 585 pos 0;
#X msg 22 67 \$1;
#X obj 22 113 tabread \$0.step;
#X obj 139 113 tabread \$0.pitch;
#X msg 95 68 \$2;
#X msg 168 68 \$3;
#X obj 22 44 t a a a a, f 37;
#X obj 22 90 t a a, f 20;
#X obj 22 146 ==;
#X obj 139 139 ==;
#X obj 22 168 &&;
#X obj 22 190 select 1;
#X obj 22 212 list append;
#X msg 22 234 pos \$1 \$2 \$3;
#X obj 22 18 inlet;
#X obj 22 256 outlet;
#X connect 0 0 6 0;
#X connect 1 0 7 0;
#X connect 2 0 8 0;
#X connect 3 0 7 1;
#X connect 4 0 8 1;
#X connect 5 0 0 0;
#X connect 5 1 3 0;
#X connect 5 2 4 0;
#X connect 5 3 11 1;
#X connect 6 0 1 0;
#X connect 6 1 2 0;
#X connect 7 0 9 0;
#X connect 8 0 9 1;
#X connect 9 0 10 0;
#X connect 10 0 11 0;
#X connect 11 0 12 0;
#X connect 12 0 14 0;
#X connect 13 0 5 0;
#X restore 29 217 pd pos;
#X msg 74 130 \$1;
#X obj 74 152 tabread \$0.velocity;
#X obj 74 108 t a a a, f 10;
#X msg 103 130 \$2;
#X obj 74 174 sel;
#X obj 74 196 list append;
#X msg 74 218 velocity \$1 \$2;
#X msg 204 130 \$1;
#X obj 204 108 t a a a, f 10;
#X msg 233 130 \$2;
#X obj 204 174 sel;
#X obj 204 196 list append;
#X obj 204 152 tabread \$0.duration;
#X msg 204 218 duration \$1 \$2;
#X msg 324 130 \$1;
#X obj 324 108 t a a a, f 10;
#X msg 353 130 \$2;
#X obj 324 174 sel;
#X obj 324 196 list append;
#X obj 324 152 tabread \$0.gid;
#X msg 324 218 gid \$1 \$2;
#X obj 29 261 list prepend note change;
#X obj 29 283 list trim;
#X connect 0 0 1 0;
#X connect 1 0 3 0;
#X connect 1 1 6 0;
#X connect 1 2 12 0;
#X connect 1 3 19 0;
#X connect 3 0 25 0;
#X connect 4 0 5 0;
#X connect 5 0 8 0;
#X connect 6 0 4 0;
#X connect 6 1 7 0;
#X connect 6 2 9 1;
#X connect 7 0 8 1;
#X connect 8 0 9 0;
#X connect 9 0 10 0;
#X connect 10 0 25 0;
#X connect 11 0 16 0;
#X connect 12 0 11 0;
#X connect 12 1 13 0;
#X connect 12 2 15 1;
#X connect 13 0 14 1;
#X connect 14 0 15 0;
#X connect 15 0 17 0;
#X connect 16 0 14 0;
#X connect 17 0 25 0;
#X connect 18 0 23 0;
#X connect 19 0 18 0;
#X connect 19 1 20 0;
#X connect 19 2 22 1;
#X connect 20 0 21 1;
#X connect 21 0 22 0;
#X connect 22 0 24 0;
#X connect 23 0 21 0;
#X connect 24 0 25 0;
#X connect 25 0 26 0;
#X connect 26 0 2 0;
#X restore 191 160 pd pass.last.value;
#X connect 0 0 3 0;
#X connect 2 0 3 1;
#X connect 3 0 4 0;
#X connect 4 0 1 0;
#X connect 4 1 7 0;
#X connect 5 0 6 0;
#X connect 6 0 1 0;
#X connect 6 1 13 0;
#X connect 7 0 1 0;
#X connect 7 1 14 0;
#X connect 14 0 1 0;
#X restore 96 101 pd process.input;
#N canvas 0 99 450 300 process.output 0;
#X obj 32 17 inlet;
#X obj 32 185 outlet;
#X obj 32 40 t a a;
#X obj 59 90 s \$0.direct.return;
#X connect 0 0 2 0;
#X connect 2 0 1 0;
#X connect 2 1 3 0;
#X restore 96 181 pd process.output;
#X obj 230 75 netpd-dump \$1;
#X msg 230 98 dump;
#X obj 236 185 inlet;
#X text 275 186 don't do shit here!;
#X obj 35 77 loadbang;
#X msg 35 100 1;
#X obj 27 124 spigot 0;
#X text 87 125 <- prevent too early updates;
#X obj 96 16 r \$1.NETPD;
#X obj 96 39 route receive;
#X connect 1 0 16 0;
#X connect 3 0 2 0;
#X connect 3 1 9 0;
#X connect 5 0 8 0;
#X connect 6 0 7 0;
#X connect 7 0 4 0;
#X connect 8 0 3 1;
#X connect 9 0 6 0;
#X connect 10 0 11 0;
#X connect 11 0 3 1;
#X connect 12 0 6 0;
#X connect 14 0 15 0;
#X connect 15 0 16 1;
#X connect 16 0 3 0;
#X connect 18 0 19 0;
#X connect 19 0 5 0;
