#N canvas 537 137 450 300 10;
#N canvas 1089 315 412 96 NETPD 0;
#X msg 25 11 version 0 1 0;
#N canvas 309 182 410 81 abslist 0;
#X msg 19 14 unpunch;
#X restore 26 38 pd abslist;
#X restore 339 12 pd NETPD 2 0;
#X obj 27 20 inlet;
#X obj 27 230 outlet;
#X obj 27 98 unpunch \$3 1;
#X obj 96 231 s \$1.NETPD;
#X obj 96 16 r \$1.receive;
#X obj 96 38 routeOSC /\$2;
#X obj 96 188 list prepend send /\$2;
#X obj 96 211 list trim;
#N canvas 0 65 450 300 process.input 0;
#X obj 37 37 inlet;
#X obj 37 60 outlet;
#X connect 0 0 1 0;
#X restore 96 71 pd process.input;
#N canvas 0 65 450 300 process.output 0;
#X obj 32 17 inlet;
#X obj 32 40 outlet;
#X connect 0 0 1 0;
#X restore 96 131 pd process.output;
#X obj 230 45 netpd-dump \$1;
#X msg 230 68 dump;
#X connect 1 0 3 0;
#X connect 3 0 2 0;
#X connect 3 1 10 0;
#X connect 5 0 6 0;
#X connect 6 0 9 0;
#X connect 7 0 8 0;
#X connect 8 0 4 0;
#X connect 9 0 3 1;
#X connect 10 0 7 0;
#X connect 11 0 12 0;
#X connect 12 0 3 1;
