#N canvas 616 79 481 545 10;
#X obj 54 270 until;
#X obj 54 292 f;
#X obj 106 306 + 1;
#X msg 94 269 0;
#X obj 168 372 table \$0.ref;
#X obj 179 323 s \$0.ref;
#N canvas 843 251 263 226 set.pointer 0;
#X msg 40 84 next;
#X obj 40 31 t b b;
#X obj 40 57 until;
#X obj 40 8 inlet;
#X obj 40 138 t p b;
#X obj 40 160 outlet;
#X obj 81 55 list append \$1;
#X msg 81 82 traverse \$1;
#X obj 40 116 pointer \$0-automation;
#X connect 0 0 8 0;
#X connect 1 0 2 0;
#X connect 1 1 6 0;
#X connect 2 0 0 0;
#X connect 3 0 1 0;
#X connect 4 0 5 0;
#X connect 4 1 2 1;
#X connect 6 0 7 0;
#X connect 7 0 8 0;
#X connect 8 0 4 0;
#X restore 162 209 pd set.pointer;
#X obj 35 197 f;
#X obj 35 115 metro 100;
#X obj 145 38 inlet;
#X obj 35 520 outlet;
#X obj 284 234 s \$1;
#X msg 145 186 \$1;
#X msg 179 298 resize \$1 \, const 100;
#X obj 162 231 s \$0.pointer;
#X obj 145 255 t a a a a;
#N canvas 269 94 366 209 set.to.0 0;
#X obj 247 124 r \$0.pointer;
#X obj 22 20 inlet;
#X obj 22 42 t a b;
#X obj 22 64 until;
#X obj 22 86 f;
#X msg 63 62 0;
#X msg 22 146 100;
#X obj 88 87 + 1;
#X obj 22 113 t b a a;
#X obj 181 151 element \$0-automation variy;
#X obj 22 172 set \$0-automation-element y;
#X connect 0 0 9 1;
#X connect 1 0 2 0;
#X connect 2 0 3 0;
#X connect 2 1 5 0;
#X connect 3 0 4 0;
#X connect 4 0 8 0;
#X connect 5 0 4 1;
#X connect 6 0 10 0;
#X connect 7 0 4 1;
#X connect 8 0 6 0;
#X connect 8 1 9 0;
#X connect 8 2 7 0;
#X connect 9 0 10 1;
#X restore 162 346 pd set.to.0;
#X obj 367 276 r \$0.pointer;
#N canvas 366 316 313 418 detect.changes 0;
#X obj 29 -1029 t a a, f 13;
#X obj 56 -814 tabread \$0.ref;
#X obj 29 -790 sel;
#X obj 71 -721 tabwrite \$0.ref;
#X obj 44 -746 t a a;
#X obj 29 -984 t p p;
#X obj 29 -939 t a a;
#X obj 128 -905 moses 0;
#X obj 167 -884 moses 101;
#X msg 218 -862 100;
#X msg 128 -864 0;
#X obj 205 -1006 r \$0.pointer;
#X obj 29 -1053 inlet;
#X obj 44 -700 outlet;
#X obj 29 -896 max 0;
#X obj 29 -874 min 100;
#X obj 29 -1006 element \$0-automation variy;
#X obj 29 -961 get \$0-automation-element y;
#X obj 128 -840 set \$0-automation-element y;
#X connect 0 0 16 0;
#X connect 0 1 1 0;
#X connect 0 1 3 1;
#X connect 1 0 2 1;
#X connect 2 1 4 0;
#X connect 4 0 13 0;
#X connect 4 1 3 0;
#X connect 5 0 17 0;
#X connect 5 1 18 1;
#X connect 6 0 14 0;
#X connect 6 1 7 0;
#X connect 7 0 10 0;
#X connect 7 1 8 0;
#X connect 8 1 9 0;
#X connect 9 0 18 0;
#X connect 10 0 18 0;
#X connect 11 0 16 1;
#X connect 12 0 0 0;
#X connect 14 0 15 0;
#X connect 15 0 2 0;
#X connect 16 0 5 0;
#X connect 17 0 6 0;
#X restore 54 372 pd detect.changes;
#X obj 54 340 t a a;
#X obj 54 437 list prepend;
#X obj 54 314 t a a;
#X obj 54 394 / -100;
#X obj 54 416 + 1;
#N canvas 520 248 442 244 \$0-automation-element 0;
#X obj 14 70 filledpolygon 667 667 0 0 y(0:100)(100:0) 0 0 7 0 7 y(0:100)(100:0)
;
#X obj 19 11 struct \$0-automation-element float y;
#X restore 35 14 pd \$0-automation-element;
#N canvas 623 540 452 244 \$0-automation 0;
#X obj 70 62 route click;
#X obj 70 84 t b b;
#X msg 99 128 1;
#X obj 70 106 del 5000;
#X msg 70 128 0;
#X obj 70 150 outlet;
#X obj 183 103 plot variy 0 0 0 yshift 10;
#X obj 70 27 struct \$0-automation float yshift array variy \$0-automation-element
;
#X obj 15 33 inlet;
#X connect 0 0 1 0;
#X connect 1 0 3 0;
#X connect 1 1 2 0;
#X connect 2 0 5 0;
#X connect 3 0 4 0;
#X connect 4 0 5 0;
#X connect 7 0 0 0;
#X connect 8 0 3 0;
#X restore 35 78 pd \$0-automation;
#X obj 179 156 list append \$0;
#X obj 196 276 setsize \$0-automation variy;
#X msg 179 179 scalar \$3-automation \$2;
#X obj 145 85 t a b a b;
#X obj 284 115 f 1;
#X obj 284 136 sel 1;
#X msg 284 158 clear;
#X obj 35 239 t b a b;
#N canvas 641 254 390 350 compress 0;
#X obj 11 12 inlet;
#X obj 84 19 inlet;
#X obj 11 315 outlet;
#X obj 11 47 t b b;
#X msg 11 71 set;
#X msg 11 233;
#X msg 95 123 -2;
#X obj 159 95 -;
#X obj 159 120 sel 1;
#X obj 186 143 b;
#X obj 186 165 f;
#X obj 159 68 t a a a;
#X obj 84 41 t a a;
#X msg 159 44 \$1;
#X msg 84 69 add2 \$2;
#X msg 186 189 addcomma \, add2 set \$1;
#X connect 0 0 3 0;
#X connect 1 0 12 0;
#X connect 3 0 4 0;
#X connect 3 1 5 0;
#X connect 3 1 6 0;
#X connect 4 0 5 0;
#X connect 5 0 2 0;
#X connect 6 0 7 1;
#X connect 7 0 8 0;
#X connect 8 1 9 0;
#X connect 9 0 10 0;
#X connect 10 0 15 0;
#X connect 11 0 7 1;
#X connect 11 1 7 0;
#X connect 11 2 10 1;
#X connect 12 0 14 0;
#X connect 12 1 13 0;
#X connect 13 0 11 0;
#X connect 14 0 5 0;
#X connect 15 0 5 0;
#X restore 35 466 pd compress;
#X obj 35 488 t a b;
#X obj 82 515 s \$0.changed;
#X obj 35 52 r \$0.changed;
#N canvas 700 307 310 286 set 0;
#X obj 140 123 r \$0.pointer;
#X obj 21 19 inlet;
#X obj 74 199 element \$0-automation variy;
#X obj 23 231 set \$0-automation-element y;
#X msg 89 105 \$1;
#X obj 21 66 list split 1;
#N canvas 469 216 226 213 serial 0;
#X obj 18 157 list split 1;
#X obj 18 64 until;
#X obj 18 132 list append;
#X obj 113 146 bang;
#X obj 18 17 inlet;
#X obj 18 183 outlet;
#X obj 18 86 t b b;
#X obj 18 41 t b a b;
#X obj 169 77 f;
#X obj 198 78 + 1;
#X msg 184 48 0;
#X obj 169 124 outlet;
#X connect 0 0 5 0;
#X connect 0 1 2 1;
#X connect 0 2 3 0;
#X connect 1 0 6 0;
#X connect 2 0 0 0;
#X connect 3 0 1 1;
#X connect 4 0 7 0;
#X connect 6 0 2 0;
#X connect 6 1 8 0;
#X connect 7 0 1 0;
#X connect 7 1 2 1;
#X connect 7 2 10 0;
#X connect 8 0 11 0;
#X connect 8 0 9 0;
#X connect 9 0 8 1;
#X connect 10 0 8 1;
#X restore 23 93 pd serial;
#X obj 23 123 - 1;
#X obj 23 145 * -100;
#X obj 74 131 +;
#X obj 21 42 t a a a;
#X obj 43 174 tabwrite \$0.ref;
#X connect 0 0 2 1;
#X connect 1 0 10 0;
#X connect 2 0 3 1;
#X connect 4 0 9 1;
#X connect 5 1 6 0;
#X connect 6 0 7 0;
#X connect 6 1 9 0;
#X connect 7 0 8 0;
#X connect 8 0 3 0;
#X connect 8 0 11 0;
#X connect 9 0 2 0;
#X connect 9 0 11 1;
#X connect 10 0 5 0;
#X connect 10 1 4 0;
#X restore 236 84 pd set;
#X obj 145 60 route create autoclear set dump;
#N canvas 554 170 163 169 dump 0;
#X obj 18 15 inlet;
#X msg 45 60 const -1;
#X obj 45 82 s \$0.ref;
#X obj 18 38 t b b;
#X obj 18 104 s \$0.dump;
#X connect 0 0 3 0;
#X connect 1 0 2 0;
#X connect 3 0 4 0;
#X connect 3 1 1 0;
#X restore 282 84 pd dump;
#X obj 44 159 r \$0.dump;
#X text 288 511 2013 \, Roman Haefeli;
#N canvas 467 499 306 62 NETPD 0;
#X msg 16 13 version 0 1 0;
#N canvas 594 390 394 61 abslist 0;
#X msg 14 16 unrail-help;
#X restore 17 37 pd abslist;
#X restore 290 486 pd NETPD 2 0;
#X connect 0 0 1 0;
#X connect 1 0 21 0;
#X connect 2 0 1 1;
#X connect 3 0 1 1;
#X connect 6 0 14 0;
#X connect 7 0 33 0;
#X connect 8 0 7 0;
#X connect 9 0 39 0;
#X connect 12 0 15 0;
#X connect 13 0 5 0;
#X connect 15 0 7 1;
#X connect 15 1 16 0;
#X connect 15 2 13 0;
#X connect 15 3 27 0;
#X connect 17 0 27 1;
#X connect 18 0 22 0;
#X connect 19 0 18 0;
#X connect 19 1 20 1;
#X connect 20 0 34 1;
#X connect 21 0 19 0;
#X connect 21 1 2 0;
#X connect 22 0 23 0;
#X connect 23 0 20 0;
#X connect 25 0 8 0;
#X connect 26 0 28 0;
#X connect 28 0 11 0;
#X connect 29 0 12 0;
#X connect 29 1 6 0;
#X connect 29 2 26 0;
#X connect 29 3 30 0;
#X connect 30 0 31 0;
#X connect 31 0 32 0;
#X connect 32 0 11 0;
#X connect 33 0 34 0;
#X connect 33 1 0 0;
#X connect 33 2 3 0;
#X connect 34 0 35 0;
#X connect 35 0 10 0;
#X connect 35 1 36 0;
#X connect 37 0 25 0;
#X connect 39 0 29 0;
#X connect 39 1 30 1;
#X connect 39 2 38 0;
#X connect 39 3 40 0;
#X connect 41 0 7 0;
