#N canvas 616 79 481 545 10;
#X obj 35 248 t a b;
#X obj 35 270 until;
#X obj 35 292 f;
#X obj 87 306 + 1;
#X msg 75 269 0;
#X obj 145 372 table \$0.ref;
#X obj 179 233 s \$0.ref;
#N canvas 843 251 263 226 set.pointer 0;
#X msg 40 84 next;
#X obj 40 31 t b b;
#X obj 40 57 until;
#X obj 40 8 inlet;
#X obj 40 138 t p b;
#X obj 40 160 outlet;
#X obj 81 55 list append \$1;
#X msg 81 82 traverse \$1;
#X obj 40 116 pointer \$0-automation;
#X connect 0 0 8 0;
#X connect 1 0 2 0;
#X connect 1 1 6 0;
#X connect 2 0 0 0;
#X connect 3 0 1 0;
#X connect 4 0 5 0;
#X connect 4 1 2 1;
#X connect 6 0 7 0;
#X connect 7 0 8 0;
#X connect 8 0 4 0;
#X restore 192 121 pd set.pointer;
#X obj 35 197 f;
#X obj 35 168 metro 100;
#X obj 145 38 inlet;
#X obj 35 472 outlet;
#X obj 290 134 s \$1;
#X obj 145 95 t a b a;
#X msg 145 126 \$1;
#X obj 145 60 route create set;
#X msg 179 208 resize \$1 \, const 100;
#X obj 192 143 s \$0.pointer;
#X obj 145 165 t a a a a;
#N canvas 269 94 366 209 set.to.0 0;
#X obj 247 124 r \$0.pointer;
#X obj 22 20 inlet;
#X obj 22 42 t a b;
#X obj 22 64 until;
#X obj 22 86 f;
#X msg 63 62 0;
#X msg 22 146 100;
#X obj 88 87 + 1;
#X obj 22 113 t b a a;
#X obj 181 151 element \$0-automation variy;
#X obj 22 172 set \$0-automation-element y;
#X connect 0 0 9 1;
#X connect 1 0 2 0;
#X connect 2 0 3 0;
#X connect 2 1 5 0;
#X connect 3 0 4 0;
#X connect 4 0 8 0;
#X connect 5 0 4 1;
#X connect 6 0 10 0;
#X connect 7 0 4 1;
#X connect 8 0 6 0;
#X connect 8 1 9 0;
#X connect 8 2 7 0;
#X connect 9 0 10 1;
#X restore 162 256 pd set.to.0;
#X obj 372 186 r \$0.pointer;
#N canvas 366 316 313 418 detect.changes 0;
#X obj 29 -1029 t a a, f 13;
#X obj 56 -814 tabread \$0.ref;
#X obj 29 -790 sel;
#X obj 71 -721 tabwrite \$0.ref;
#X obj 44 -746 t a a;
#X obj 29 -984 t p p;
#X obj 29 -939 t a a;
#X obj 128 -905 moses 0;
#X obj 167 -884 moses 101;
#X msg 218 -862 100;
#X msg 128 -864 0;
#X obj 205 -1006 r \$0.pointer;
#X obj 29 -1053 inlet;
#X obj 44 -700 outlet;
#X obj 29 -896 max 0;
#X obj 29 -874 min 100;
#X obj 29 -1006 element \$0-automation variy;
#X obj 29 -961 get \$0-automation-element y;
#X obj 128 -840 set \$0-automation-element y;
#X connect 0 0 16 0;
#X connect 0 1 1 0;
#X connect 0 1 3 1;
#X connect 1 0 2 1;
#X connect 2 1 4 0;
#X connect 4 0 13 0;
#X connect 4 1 3 0;
#X connect 5 0 17 0;
#X connect 5 1 18 1;
#X connect 6 0 14 0;
#X connect 6 1 7 0;
#X connect 7 0 10 0;
#X connect 7 1 8 0;
#X connect 8 1 9 0;
#X connect 9 0 18 0;
#X connect 10 0 18 0;
#X connect 11 0 16 1;
#X connect 12 0 0 0;
#X connect 14 0 15 0;
#X connect 15 0 2 0;
#X connect 16 0 5 0;
#X connect 17 0 6 0;
#X restore 35 372 pd detect.changes;
#X obj 35 340 t a a;
#X obj 35 448 list prepend;
#X obj 35 314 t a a;
#X obj 35 394 / -100;
#X obj 35 416 + 1;
#N canvas 520 248 442 244 \$0-automation-element 0;
#X obj 14 70 filledpolygon 667 667 0 0 y(0:100)(100:0) 0 0 7 0 7 y(0:100)(100:0)
;
#X obj 19 11 struct \$0-automation-element float y;
#X restore 35 14 pd \$0-automation-element;
#N canvas 623 540 452 244 \$0-automation 0;
#X obj 70 62 route click;
#X obj 70 84 t b b;
#X msg 99 128 1;
#X obj 70 106 del 5000;
#X msg 70 128 0;
#X obj 70 150 outlet;
#X obj 183 103 plot variy 0 0 0 yshift 10;
#X obj 70 27 struct \$0-automation float yshift array variy \$0-automation-element
;
#X connect 0 0 1 0;
#X connect 1 0 3 0;
#X connect 1 1 2 0;
#X connect 2 0 5 0;
#X connect 3 0 4 0;
#X connect 4 0 5 0;
#X connect 7 0 0 0;
#X restore 35 38 pd \$0-automation;
#X obj 290 84 list append \$0;
#X msg 290 110 clear \, scalar \$3-automation \$2;
#X obj 196 186 setsize \$0-automation variy;
#X connect 0 0 1 0;
#X connect 0 1 4 0;
#X connect 1 0 2 0;
#X connect 2 0 24 0;
#X connect 3 0 2 1;
#X connect 4 0 2 1;
#X connect 7 0 17 0;
#X connect 8 0 0 0;
#X connect 9 0 8 0;
#X connect 10 0 15 0;
#X connect 13 0 14 0;
#X connect 13 1 7 0;
#X connect 13 2 29 0;
#X connect 14 0 18 0;
#X connect 15 0 13 0;
#X connect 16 0 6 0;
#X connect 18 0 8 1;
#X connect 18 1 19 0;
#X connect 18 2 16 0;
#X connect 18 3 31 0;
#X connect 20 0 31 1;
#X connect 21 0 25 0;
#X connect 22 0 21 0;
#X connect 22 1 23 1;
#X connect 23 0 11 0;
#X connect 24 0 22 0;
#X connect 24 1 3 0;
#X connect 25 0 26 0;
#X connect 26 0 23 0;
#X connect 28 0 9 0;
#X connect 29 0 30 0;
#X connect 30 0 12 0;
