#N canvas 366 44 440 704 10;
#X obj 48 466 struct \$0.button float posx float posy float color;
#N canvas 798 145 569 359 manual.edit 0;
#X obj 24 62 trigger pointer pointer;
#X obj 195 254 set \$0.button color;
#X obj 24 95 get \$0.button posx posy color;
#X obj 24 323 outlet;
#X obj 24 8 inlet;
#X obj 24 29 route click change;
#X obj 48 121 pack f f;
#X obj 383 211 list append;
#X obj 383 167 trigger bang pointer;
#X obj 383 257 set \$0.button posx posy;
#X obj 383 233 unpack f f;
#X obj 24 183 div 10;
#X obj 109 185 div 10;
#X text 369 125 don't allow scalar movement;
#X obj 24 265 pack f f;
#X msg 24 298 \$1 \$2;
#X obj 263 144 t p b;
#X obj 266 19 inlet;
#X obj 266 51 t b p;
#X obj 339 60 list append pd-\$0.data;
#X msg 339 82 traverse \$1 \, next;
#X obj 339 16 r \$0.init.pointer;
#X obj 339 38 b;
#X obj 339 103 pointer;
#X obj 229 194 f \$2;
#X obj 195 194 f \$3;
#X obj 195 170 b;
#X connect 0 0 2 0;
#X connect 0 1 16 0;
#X connect 2 0 6 0;
#X connect 2 0 11 0;
#X connect 2 1 6 1;
#X connect 2 1 12 0;
#X connect 2 2 26 0;
#X connect 4 0 5 0;
#X connect 5 0 0 0;
#X connect 5 1 8 0;
#X connect 6 0 7 1;
#X connect 7 0 10 0;
#X connect 8 0 7 0;
#X connect 8 1 9 2;
#X connect 10 0 9 0;
#X connect 10 1 9 1;
#X connect 11 0 14 0;
#X connect 12 0 14 1;
#X connect 14 0 15 0;
#X connect 15 0 3 0;
#X connect 16 0 1 1;
#X connect 16 1 24 0;
#X connect 17 0 18 0;
#X connect 18 0 25 0;
#X connect 18 1 16 0;
#X connect 19 0 20 0;
#X connect 20 0 23 0;
#X connect 21 0 22 0;
#X connect 22 0 19 0;
#X connect 23 0 1 1;
#X connect 24 0 1 0;
#X connect 25 0 1 0;
#X connect 26 0 25 0;
#X restore 48 500 pd manual.edit;
#N canvas 1042 105 342 391 create 0;
#X obj 48 127 t b a;
#X obj 48 219 list append;
#N canvas 42 70 324 150 seq 0;
#X obj 16 57 until;
#X obj 16 81 f;
#X obj 16 105 t a a;
#X obj 16 32 t a b;
#X msg 59 58 0;
#X obj 16 9 inlet;
#X obj 16 127 outlet;
#X obj 64 84 + 1;
#X connect 0 0 1 0;
#X connect 1 0 2 0;
#X connect 2 0 6 0;
#X connect 2 1 7 0;
#X connect 3 0 0 0;
#X connect 3 1 4 0;
#X connect 4 0 1 1;
#X connect 5 0 3 0;
#X connect 7 0 1 1;
#X restore 48 175 pd seq;
#X obj 48 152 f;
#N canvas 42 70 324 150 seq 0;
#X obj 16 57 until;
#X obj 16 81 f;
#X obj 16 105 t a a;
#X obj 16 32 t a b;
#X msg 59 58 0;
#X obj 16 9 inlet;
#X obj 16 127 outlet;
#X obj 64 84 + 1;
#X connect 0 0 1 0;
#X connect 1 0 2 0;
#X connect 2 0 6 0;
#X connect 2 1 7 0;
#X connect 3 0 0 0;
#X connect 3 1 4 0;
#X connect 4 0 1 1;
#X connect 5 0 3 0;
#X connect 7 0 1 1;
#X restore 48 103 pd seq;
#X obj 48 81 unpack f f;
#X msg 48 241 \$2 \$1;
#X obj 48 263 list prepend \$0;
#X text 107 175 cell dimension;
#X obj 48 339 s pd-\$0.data;
#X msg 48 59 10 10;
#X msg 252 168 clear;
#X obj 29 7 loadbang;
#X obj 112 14 bng 15 250 50 0 empty empty empty 17 7 0 10 -262144 -1
-1;
#X obj 48 197 * 10;
#X obj 111 196 * 10;
#X obj 29 29 t b b b;
#X obj 29 359 s \$0.init.pointer;
#X obj 48 285 list append \$2;
#X msg 48 314 scalar \$1.button \$2 \$3 \$4;
#X connect 0 0 3 0;
#X connect 0 1 15 0;
#X connect 1 0 6 0;
#X connect 2 0 14 0;
#X connect 3 0 2 0;
#X connect 4 0 0 0;
#X connect 5 0 4 0;
#X connect 5 1 3 1;
#X connect 6 0 7 0;
#X connect 7 0 18 0;
#X connect 10 0 5 0;
#X connect 11 0 9 0;
#X connect 12 0 16 0;
#X connect 13 0 16 0;
#X connect 14 0 1 0;
#X connect 15 0 1 1;
#X connect 16 0 17 0;
#X connect 16 1 10 0;
#X connect 16 2 11 0;
#X connect 18 0 19 0;
#X connect 19 0 9 0;
#X restore 314 -59 pd create;
#N canvas 797 283 199 180 \$0.data 0;
#X scalar 1539.button 0 0 0 \;;
#X scalar 1539.button 0 10 0 \;;
#X scalar 1539.button 0 20 0 \;;
#X scalar 1539.button 0 30 0 \;;
#X scalar 1539.button 0 40 0 \;;
#X scalar 1539.button 0 50 0 \;;
#X scalar 1539.button 0 60 0 \;;
#X scalar 1539.button 0 70 0 \;;
#X scalar 1539.button 0 80 0 \;;
#X scalar 1539.button 0 90 0 \;;
#X scalar 1539.button 10 0 0 \;;
#X scalar 1539.button 10 10 0 \;;
#X scalar 1539.button 10 20 0 \;;
#X scalar 1539.button 10 30 0 \;;
#X scalar 1539.button 10 40 0 \;;
#X scalar 1539.button 10 50 0 \;;
#X scalar 1539.button 10 60 0 \;;
#X scalar 1539.button 10 70 0 \;;
#X scalar 1539.button 10 80 0 \;;
#X scalar 1539.button 10 90 0 \;;
#X scalar 1539.button 20 0 0 \;;
#X scalar 1539.button 20 10 0 \;;
#X scalar 1539.button 20 20 0 \;;
#X scalar 1539.button 20 30 0 \;;
#X scalar 1539.button 20 40 0 \;;
#X scalar 1539.button 20 50 0 \;;
#X scalar 1539.button 20 60 0 \;;
#X scalar 1539.button 20 70 0 \;;
#X scalar 1539.button 20 80 990 \;;
#X scalar 1539.button 20 90 0 \;;
#X scalar 1539.button 30 0 0 \;;
#X scalar 1539.button 30 10 0 \;;
#X scalar 1539.button 30 20 0 \;;
#X scalar 1539.button 30 30 0 \;;
#X scalar 1539.button 30 40 0 \;;
#X scalar 1539.button 30 50 0 \;;
#X scalar 1539.button 30 60 0 \;;
#X scalar 1539.button 30 70 0 \;;
#X scalar 1539.button 30 80 0 \;;
#X scalar 1539.button 30 90 0 \;;
#X scalar 1539.button 40 0 0 \;;
#X scalar 1539.button 40 10 0 \;;
#X scalar 1539.button 40 20 0 \;;
#X scalar 1539.button 40 30 0 \;;
#X scalar 1539.button 40 40 0 \;;
#X scalar 1539.button 40 50 0 \;;
#X scalar 1539.button 40 60 0 \;;
#X scalar 1539.button 40 70 0 \;;
#X scalar 1539.button 40 80 0 \;;
#X scalar 1539.button 40 90 0 \;;
#X scalar 1539.button 50 0 0 \;;
#X scalar 1539.button 50 10 0 \;;
#X scalar 1539.button 50 20 0 \;;
#X scalar 1539.button 50 30 0 \;;
#X scalar 1539.button 50 40 0 \;;
#X scalar 1539.button 50 50 0 \;;
#X scalar 1539.button 50 60 0 \;;
#X scalar 1539.button 50 70 0 \;;
#X scalar 1539.button 50 80 0 \;;
#X scalar 1539.button 50 90 0 \;;
#X scalar 1539.button 60 0 0 \;;
#X scalar 1539.button 60 10 0 \;;
#X scalar 1539.button 60 20 0 \;;
#X scalar 1539.button 60 30 0 \;;
#X scalar 1539.button 60 40 0 \;;
#X scalar 1539.button 60 50 0 \;;
#X scalar 1539.button 60 60 0 \;;
#X scalar 1539.button 60 70 0 \;;
#X scalar 1539.button 60 80 0 \;;
#X scalar 1539.button 60 90 0 \;;
#X scalar 1539.button 70 0 0 \;;
#X scalar 1539.button 70 10 0 \;;
#X scalar 1539.button 70 20 0 \;;
#X scalar 1539.button 70 30 0 \;;
#X scalar 1539.button 70 40 0 \;;
#X scalar 1539.button 70 50 0 \;;
#X scalar 1539.button 70 60 0 \;;
#X scalar 1539.button 70 70 0 \;;
#X scalar 1539.button 70 80 0 \;;
#X scalar 1539.button 70 90 0 \;;
#X scalar 1539.button 80 0 0 \;;
#X scalar 1539.button 80 10 0 \;;
#X scalar 1539.button 80 20 0 \;;
#X scalar 1539.button 80 30 0 \;;
#X scalar 1539.button 80 40 0 \;;
#X scalar 1539.button 80 50 0 \;;
#X scalar 1539.button 80 60 0 \;;
#X scalar 1539.button 80 70 0 \;;
#X scalar 1539.button 80 80 0 \;;
#X scalar 1539.button 80 90 0 \;;
#X scalar 1539.button 90 0 0 \;;
#X scalar 1539.button 90 10 0 \;;
#X scalar 1539.button 90 20 0 \;;
#X scalar 1539.button 90 30 0 \;;
#X scalar 1539.button 90 40 0 \;;
#X scalar 1539.button 90 50 0 \;;
#X scalar 1539.button 90 60 0 \;;
#X scalar 1539.button 90 70 0 \;;
#X scalar 1539.button 90 80 0 \;;
#X scalar 1539.button 90 90 0 \;;
#X coords 0 0 99 99 100 100 2 0 0;
#X restore 20 20 pd \$0.data;
#X obj 188 235 pointer;
#X msg 188 202 next;
#X obj 237 177 list append pd-\$0.data;
#X obj 188 282 get \$0.button posx posy;
#X obj 188 178 until;
#X obj 188 144 t b b a;
#X obj 311 223 unpack;
#X obj 323 325 == 0;
#X obj 188 329 == 0;
#X obj 188 363 &&;
#X obj 188 385 sel 1;
#X obj 188 407 t b b;
#X obj 188 257 t p p;
#X obj 188 304 div 10;
#X obj 323 303 div 10;
#X obj 188 430 pointer;
#X msg 237 202 traverse \$1 \, next;
#X obj 188 50 unpack;
#X obj 221 72 * -1;
#X obj 188 118 pack f f;
#X obj 221 94 + 9;
#X obj 48 523 unpack;
#X obj 81 545 * -1;
#X obj 48 591 pack f f;
#X obj 81 567 + 9;
#X obj 188 25 route set;
#X obj 188 -1 r \$1;
#X obj 48 615 s \$1;
#X obj 13 -60 filledpolygon color \$3 2 posx posy posx posy(0:1000)(10:1010)
posx(0:1000)(10:1010) posy(0:1000)(10:1010) posx(0:1000)(10:1010) posy
;
#N canvas 624 75 316 64 NETPD 0;
#X msg 12 8 version 0 0 1;
#X restore 318 -31 pd NETPD 2 0;
#X connect 0 0 1 0;
#X connect 1 0 25 0;
#X connect 4 0 16 0;
#X connect 4 1 8 1;
#X connect 5 0 4 0;
#X connect 6 0 20 0;
#X connect 7 0 17 0;
#X connect 7 1 18 0;
#X connect 8 0 5 0;
#X connect 9 0 8 0;
#X connect 9 1 6 0;
#X connect 9 2 10 0;
#X connect 10 0 12 1;
#X connect 10 1 11 1;
#X connect 11 0 13 1;
#X connect 12 0 13 0;
#X connect 13 0 14 0;
#X connect 14 0 15 0;
#X connect 15 0 19 0;
#X connect 15 1 8 1;
#X connect 16 0 7 0;
#X connect 16 1 19 1;
#X connect 17 0 12 0;
#X connect 18 0 11 0;
#X connect 19 0 1 1;
#X connect 20 0 4 0;
#X connect 21 0 23 0;
#X connect 21 1 22 0;
#X connect 22 0 24 0;
#X connect 23 0 9 0;
#X connect 24 0 23 1;
#X connect 25 0 27 0;
#X connect 25 1 26 0;
#X connect 26 0 28 0;
#X connect 27 0 31 0;
#X connect 28 0 27 1;
#X connect 29 0 21 0;
#X connect 30 0 29 0;
#X coords 0 -1 1 1 100 100 2 20 20;
