#N canvas 418 382 441 307 10;
#X obj 56 196 inlet;
#N canvas 383 211 301 108 NETPD 0;
#N canvas 862 172 302 59 abslist 0;
#X msg 7 10 master-param;
#X restore 20 34 pd abslist;
#X msg 19 10 version 0 0 1;
#X restore 354 11 pd NETPD 2 0;
#X obj 233 146 netpd_r \$1 unstep/\$2/repeat;
#N canvas 308 149 301 278 note->row 0;
#X obj 58 65 netpd_r \$1 unstep/\$2/octave;
#X obj 46 42 netpd_r \$1 unstep/\$2/semitone;
#X obj 31 70 -;
#X obj 58 86 * 12;
#X obj 31 109 -;
#X obj 31 131 - 84;
#X obj 31 153 * -1;
#X obj 31 18 inlet;
#X obj 70 231 outlet;
#X obj 96 149 netpd_r \$1 unstep/\$2/create;
#X obj 31 176 moses 0;
#X obj 70 204 moses 40;
#X msg 96 171 \$2;
#X connect 0 0 3 0;
#X connect 1 0 2 1;
#X connect 2 0 4 0;
#X connect 3 0 4 1;
#X connect 4 0 5 0;
#X connect 5 0 6 0;
#X connect 6 0 10 0;
#X connect 7 0 2 0;
#X connect 9 0 12 0;
#X connect 10 1 11 0;
#X connect 11 0 8 0;
#X connect 12 0 11 1;
#X restore 11 101 pd note->row;
#X obj 11 264 netpd_s \$1 unstep/\$2/cell;
#X obj 59 174 master-param switch;
#X obj 11 174 spigot;
#X obj 11 220 pack f f;
#X msg 11 242 \$2 \$1 1;
#X obj 11 15 r midi-to-unpatch;
#N canvas 556 223 391 181 com 0;
#X obj 34 97 list append _manage add \$1-\$2;
#X obj 34 5 r midi-to-unpatch;
#X obj 34 27 route _manage;
#X obj 34 49 route refresh;
#X obj 34 71 b;
#X obj 34 119 list trim;
#X obj 34 141 s midi-to-unpatch;
#X obj 243 11 loadbang;
#X msg 243 33 _manage update;
#X obj 243 55 s midi-to-unpatch;
#X connect 0 0 5 0;
#X connect 1 0 2 0;
#X connect 2 0 3 0;
#X connect 3 0 4 0;
#X connect 4 0 0 0;
#X connect 5 0 6 0;
#X connect 7 0 8 0;
#X connect 8 0 9 0;
#X restore 390 34 pd com;
#X obj 11 37 route \$1-\$2;
#X obj 11 81 t a a;
#X obj 11 123 t a a;
#X obj 107 108 pack f f;
#X msg 107 130 note \$2;
#X obj 107 152 outlet;
#X obj 11 59 route note record;
#X obj 11 145 spigot 0;
#X connect 0 0 7 1;
#X connect 3 0 13 0;
#X connect 5 0 6 1;
#X connect 6 0 7 0;
#X connect 7 0 8 0;
#X connect 8 0 4 0;
#X connect 9 0 11 0;
#X connect 11 0 17 0;
#X connect 12 0 3 0;
#X connect 12 1 14 1;
#X connect 13 0 18 0;
#X connect 13 1 14 0;
#X connect 14 0 15 0;
#X connect 15 0 16 0;
#X connect 17 0 12 0;
#X connect 17 1 18 1;
#X connect 18 0 6 0;
