#N canvas 779 76 547 447 10;
#X msg 92 192 create \$1 \$2;
#X floatatom 95 84 5 0 0 0 - - -, f 5;
#X floatatom 60 84 5 0 0 0 - - -, f 5;
#X obj 401 80 metro 200;
#X msg 401 102 next;
#X obj 391 45 tgl 15 0 empty empty empty 17 7 0 10 -262144 -1 -1 0
1;
#X floatatom 437 32 5 0 0 0 - - -, f 5;
#X obj 402 205 ungrid pd-\$1-\$2-unstep;
#N canvas 554 275 217 539 \$1-\$2-unstep 1;
#X restore 38 7 pd \$1-\$2-unstep;
#X obj 402 227 s \$0.ungrid;
#X obj 75 263 table \$0.automation.data;
#X obj 41 106 f;
#X obj 92 214 s \$0.ungrid.r;
#X obj 402 183 r \$0.ungrid.r;
#X obj 41 84 bng 15 250 50 0 empty empty empty 17 7 0 10 -262144 -1
-1;
#X obj 435 407 s pd-\$1-\$2-unstep;
#X msg 435 375 clear;
#N canvas 476 135 582 400 automation.label 0;
#X obj 21 6 inlet;
#X msg 21 29 \$2;
#X obj 21 51 * 10;
#X obj 21 73 + 115;
#X obj 242 6 drawsymbol lbl 0 0 color;
#X obj 259 160 set autolabel color;
#X obj 242 70 route click;
#N canvas 469 244 244 232 serial 0;
#X obj 18 157 list split 1;
#X obj 18 64 until;
#X obj 18 132 list append;
#X obj 113 146 bang;
#X obj 18 17 inlet;
#X obj 18 183 outlet;
#X obj 18 86 t b b;
#X obj 18 41 t b a b;
#X obj 169 77 f;
#X obj 198 78 + 1;
#X msg 184 48 0;
#X obj 169 124 outlet;
#X connect 0 0 5 0;
#X connect 0 1 2 1;
#X connect 0 2 3 0;
#X connect 1 0 6 0;
#X connect 2 0 0 0;
#X connect 3 0 1 1;
#X connect 4 0 7 0;
#X connect 6 0 2 0;
#X connect 6 1 8 0;
#X connect 7 0 1 0;
#X connect 7 1 2 1;
#X connect 7 2 10 0;
#X connect 8 0 11 0;
#X connect 8 0 9 0;
#X connect 9 0 8 1;
#X connect 10 0 8 1;
#X restore 21 174 pd serial;
#X obj 72 277 + 2;
#X obj 72 255 * 50;
#X msg 293 124 858;
#X msg 259 125 525;
#X msg 412 290 resize \$1 \, const 0;
#X obj 412 315 s \$0.automation.data;
#X obj 412 265 *;
#X obj 242 33 struct autolabel float x float y symbol lbl float color
float track;
#X obj 114 167 list length;
#X obj 114 190 s \$0.auto.tracks;
#X obj 427 240 r \$0.auto.tracks;
#X obj 242 187 get autolabel track;
#X obj 242 97 t p b p b;
#X obj 242 276 s \$0.auto.selector;
#X obj 72 234 t a a a;
#X obj 104 255 sel 0;
#X msg 104 277 525;
#X msg 131 277 858;
#X obj 72 306 pack f f f;
#X text 144 309 x \, color \, track;
#X obj 21 208 list prepend;
#X obj 21 328 list append;
#X text 95 327 y \, lbl \, x \, color \, track;
#X obj 21 136 t a a;
#X obj 385 187 r \$0.length;
#X obj 385 209 t b a;
#X msg 385 234 0;
#X msg 21 349 scalar autolabel \$3 \$1 \$2 \$4 \$5;
#X obj 21 372 s pd-\$1-\$2-unstep;
#N canvas 1074 683 272 321 set.pointer.to.active.label 0;
#X obj 28 79 until;
#X obj 86 79 list append pd-\$1-\$2-unstep;
#X msg 86 101 traverse \$1;
#X obj 28 15 r \$0.length;
#X obj 28 37 t b b;
#X msg 28 101 next;
#X obj 28 140 pointer autolabel;
#X obj 28 185 get autolabel track;
#X obj 28 162 t p p;
#X obj 28 207 sel 0;
#X obj 28 257 pointer;
#X obj 28 279 outlet;
#X obj 28 229 t b b;
#X connect 0 0 5 0;
#X connect 1 0 2 0;
#X connect 2 0 6 0;
#X connect 3 0 4 0;
#X connect 4 0 0 0;
#X connect 4 1 1 0;
#X connect 5 0 6 0;
#X connect 6 0 8 0;
#X connect 6 2 0 1;
#X connect 7 0 9 0;
#X connect 8 0 7 0;
#X connect 8 1 10 1;
#X connect 9 0 12 0;
#X connect 10 0 11 0;
#X connect 12 0 10 0;
#X connect 12 1 0 1;
#X restore 370 118 pd set.pointer.to.active.label;
#X obj 21 94 t b a;
#X obj 95 64 r \$0.args;
#X obj 95 86 list split 2;
#X obj 21 116 list append;
#X connect 0 0 1 0;
#X connect 1 0 2 0;
#X connect 2 0 3 0;
#X connect 3 0 38 0;
#X connect 6 0 20 0;
#X connect 7 0 28 0;
#X connect 7 1 22 0;
#X connect 8 0 26 0;
#X connect 9 0 8 0;
#X connect 10 0 5 0;
#X connect 11 0 5 0;
#X connect 12 0 13 0;
#X connect 14 0 12 0;
#X connect 15 0 6 0;
#X connect 16 0 17 0;
#X connect 18 0 14 1;
#X connect 19 0 21 0;
#X connect 20 0 19 0;
#X connect 20 1 11 0;
#X connect 20 2 5 1;
#X connect 20 3 10 0;
#X connect 22 0 9 0;
#X connect 22 1 23 0;
#X connect 22 2 26 2;
#X connect 23 0 24 0;
#X connect 23 1 25 0;
#X connect 24 0 26 1;
#X connect 25 0 26 1;
#X connect 26 0 29 1;
#X connect 28 0 29 0;
#X connect 29 0 35 0;
#X connect 31 0 7 0;
#X connect 31 1 16 0;
#X connect 32 0 33 0;
#X connect 33 0 34 0;
#X connect 33 1 14 0;
#X connect 34 0 21 0;
#X connect 35 0 36 0;
#X connect 37 0 5 1;
#X connect 38 0 41 0;
#X connect 38 1 28 1;
#X connect 39 0 40 0;
#X connect 40 1 41 1;
#X connect 41 0 31 0;
#X restore 58 288 pd automation.label;
#X obj 401 124 s \$0.ungrid.r;
#X obj 41 149 t a a a a;
#X msg 41 312 \$1;
#X obj 41 334 s \$0.length;
#N canvas 305 104 566 539 automation.gui 0;
#X obj 21 83 unpack;
#X obj 55 108 * 10;
#X obj 21 152 pack f f;
#X msg 21 176 create \$1 \$2;
#X obj 55 130 + 10;
#X obj 21 321 route set;
#X obj 43 211 loadbang;
#X msg 43 233 autoclear 0;
#X obj 21 300 unrail pd-\$1-\$2-unstep;
#X obj 21 15 inlet;
#X obj 21 467 s \$0.automation.data;
#X obj 21 343 list split 1;
#X obj 21 437 list append;
#X obj 149 407 r \$0.length;
#X obj 21 391 +;
#X obj 117 407 *;
#X obj 117 385 r \$0.auto.selector;
#X obj 184 105 r \$0.auto.selector;
#X obj 263 146 r \$0.length;
#X obj 248 173 *;
#X obj 203 173 f;
#X obj 203 195 until;
#X obj 203 224 f;
#X obj 256 238 + 1;
#X obj 203 270 tabread \$0.automation.data;
#X msg 203 292 add2 \$1;
#X obj 184 146 t b b a;
#N canvas 293 171 466 266 messagebox 0;
#X obj 41 36 inlet;
#X msg 41 58 set 0 0 0 0 0 0 0 0 0 0 0 0 0 0 0 0 0;
#X obj 41 230 outlet;
#X connect 0 0 1 0;
#X connect 1 0 2 0;
#X restore 184 315 pd messagebox;
#X text 173 73 update gui to selected track;
#X msg 248 207 set set 0;
#X obj 203 246 t a a;
#X connect 0 0 2 0;
#X connect 0 1 1 0;
#X connect 1 0 4 0;
#X connect 2 0 3 0;
#X connect 3 0 8 0;
#X connect 4 0 2 1;
#X connect 5 0 11 0;
#X connect 6 0 7 0;
#X connect 7 0 8 0;
#X connect 8 0 5 0;
#X connect 9 0 0 0;
#X connect 11 0 14 0;
#X connect 11 1 12 1;
#X connect 12 0 10 0;
#X connect 13 0 15 1;
#X connect 14 0 12 0;
#X connect 15 0 14 1;
#X connect 16 0 15 0;
#X connect 17 0 26 0;
#X connect 18 0 19 1;
#X connect 18 0 20 1;
#X connect 19 0 22 1;
#X connect 19 0 29 0;
#X connect 20 0 21 0;
#X connect 21 0 22 0;
#X connect 22 0 30 0;
#X connect 23 0 22 1;
#X connect 24 0 25 0;
#X connect 25 0 27 0;
#X connect 26 0 27 0;
#X connect 26 1 20 0;
#X connect 26 2 19 0;
#X connect 27 0 8 0;
#X connect 29 0 27 0;
#X connect 30 0 24 0;
#X connect 30 1 23 0;
#X restore 75 240 pd automation.gui;
#X obj 41 127 pack f f;
#X msg 447 102 rewind;
#N canvas 455 91 527 335 parse.arg.list 0;
#N canvas 305 260 375 202 \$0.parser 0;
#X restore 11 10 pd \$0.parser;
#X obj 166 250 s pd-\$0.parser;
#X msg 127 228 clear;
#X obj 193 8 r \$0.set;
#X obj 146 274 s \$0.get;
#X obj 166 183 list prepend \$0;
#X obj 127 8 loadbang;
#X obj 127 30 until;
#X obj 127 52 f;
#X obj 127 74 + 1;
#X obj 127 116 t b b a;
#X obj 193 30 route 0;
#X obj 193 100 outlet;
#X obj 193 52 b;
#X msg 166 207 obj 19 5 r \$1.get \, obj 19 27 list append \$2 \, obj
19 49 s \$1.set \, connect 0 0 1 0 \, connect 1 0 2 0;
#X msg 166 160 symbol \$1\$2;
#X msg 166 138 list $ \$1;
#X obj 256 51 list prepend;
#X obj 340 51 t a;
#X obj 193 77 list append;
#X connect 2 0 1 0;
#X connect 3 0 11 0;
#X connect 5 0 14 0;
#X connect 6 0 7 0;
#X connect 7 0 8 0;
#X connect 8 0 9 0;
#X connect 9 0 8 1;
#X connect 9 0 10 0;
#X connect 10 0 2 0;
#X connect 10 1 4 0;
#X connect 10 2 16 0;
#X connect 11 0 13 0;
#X connect 11 1 17 0;
#X connect 13 0 7 1;
#X connect 13 0 19 0;
#X connect 14 0 1 0;
#X connect 15 0 5 0;
#X connect 16 0 15 0;
#X connect 17 0 18 0;
#X connect 17 0 19 1;
#X connect 18 0 17 1;
#X connect 19 0 12 0;
#X restore 215 19 pd parse.arg.list;
#X obj 215 41 s \$0.args;
#N canvas 779 312 311 68 NETPD 0;
#X msg 17 9 version 0 1 0;
#N canvas 872 293 304 66 abslist 0;
#X msg 14 8 ungrid;
#X msg 14 30 unrail;
#X restore 17 32 pd abslist;
#X restore 415 8 pd NETPD 2 0;
#N canvas 837 479 450 372 automation.output 0;
#X obj 39 35 r \$0.ungrid;
#X obj 39 57 route step;
#X obj 153 11 r \$0.args;
#X obj 153 33 list split 2;
#X obj 187 56 t a a;
#X obj 187 80 list length;
#X obj 39 202 list append;
#X obj 39 104 f;
#X obj 39 80 t b b a;
#X obj 39 124 until;
#X obj 39 152 f;
#X obj 67 152 + 1;
#X msg 77 124 0;
#X obj 39 174 t b a a;
#X obj 39 228 list split;
#X obj 67 279 list append;
#X obj 155 203 *;
#X obj 170 180 r \$0.length;
#X obj 155 225 +;
#X obj 67 301 list trim;
#X text 181 202 add offset;
#X obj 155 246 tabread \$0.automation.data;
#X msg 67 250 \$1;
#X obj 67 323 s \$0.outlet;
#X connect 0 0 1 0;
#X connect 1 0 8 0;
#X connect 2 0 3 0;
#X connect 3 1 4 0;
#X connect 4 0 5 0;
#X connect 4 1 6 1;
#X connect 5 0 7 1;
#X connect 6 0 14 0;
#X connect 7 0 9 0;
#X connect 8 0 7 0;
#X connect 8 1 12 0;
#X connect 8 2 18 1;
#X connect 9 0 10 0;
#X connect 10 0 11 0;
#X connect 10 0 13 0;
#X connect 11 0 10 1;
#X connect 12 0 10 1;
#X connect 13 0 6 0;
#X connect 13 1 14 1;
#X connect 13 2 16 0;
#X connect 14 1 22 0;
#X connect 15 0 19 0;
#X connect 16 0 18 0;
#X connect 17 0 16 1;
#X connect 18 0 21 0;
#X connect 19 0 23 0;
#X connect 21 0 15 1;
#X connect 22 0 15 0;
#X restore 209 339 pd automation.output;
#N canvas 1048 293 184 226 note.output 0;
#X obj 13 13 r \$0.ungrid;
#X obj 13 35 route hit;
#X obj 13 57 * -1;
#X obj 13 80 + 87;
#X msg 13 103 note \$1;
#X obj 13 127 s \$0.outlet;
#X connect 0 0 1 0;
#X connect 1 0 2 0;
#X connect 2 0 3 0;
#X connect 3 0 4 0;
#X connect 4 0 5 0;
#X restore 209 317 pd note.output;
#X connect 0 0 12 0;
#X connect 1 0 23 1;
#X connect 2 0 11 1;
#X connect 3 0 4 0;
#X connect 4 0 18 0;
#X connect 5 0 3 0;
#X connect 6 0 3 1;
#X connect 7 0 9 0;
#X connect 11 0 23 0;
#X connect 13 0 7 0;
#X connect 14 0 11 0;
#X connect 16 0 15 0;
#X connect 19 0 20 0;
#X connect 19 1 17 0;
#X connect 19 2 22 0;
#X connect 19 3 0 0;
#X connect 20 0 21 0;
#X connect 23 0 19 0;
#X connect 24 0 18 0;
#X connect 25 0 26 0;
