#N struct 1757.button float x float y float color;
#N struct 1757.cursor float cx float cy float cy2 float show;
#N struct 1722-automation float yshift array variy 1722-automation-element 1;
#N struct 1722-automation-element float y;
#N struct 1721.autolabel float x float y symbol lbl float color float track;
#N struct 2131.rectangle float id float x float y float w float h float txtclr float boxclr float bgclr symbol label;
#N struct 2133.rectangle float id float x float y float w float h float txtclr float boxclr float bgclr symbol label;
#N canvas 872 185 560 470 10;
#X obj 368 137 s \$0.ungrid;
#X obj 94 182 s \$0.ungrid.r;
#X obj 368 93 r \$0.ungrid.r;
#X obj 428 432 s pd-\$1-\$2-unstep;
#X msg 428 401 clear;
#N canvas 476 135 633 438 automation.label 0;
#X obj 21 6 inlet;
#X msg 21 29 \$2;
#X obj 21 51 * 10;
#X obj 242 6 drawsymbol lbl 0 0 color;
#X obj 242 70 route click;
#N canvas 469 300 244 232 serial 0;
#X obj 18 157 list split 1;
#X obj 18 64 until;
#X obj 18 132 list append;
#X obj 113 146 bang;
#X obj 18 17 inlet;
#X obj 18 183 outlet;
#X obj 18 86 t b b;
#X obj 18 41 t b a b;
#X obj 169 77 f;
#X obj 198 78 + 1;
#X msg 184 48 0;
#X obj 169 124 outlet;
#X connect 0 0 5 0;
#X connect 0 1 2 1;
#X connect 0 2 3 0;
#X connect 1 0 6 0;
#X connect 2 0 0 0;
#X connect 3 0 1 1;
#X connect 4 0 7 0;
#X connect 6 0 2 0;
#X connect 6 1 8 0;
#X connect 7 0 1 0;
#X connect 7 1 2 1;
#X connect 7 2 10 0;
#X connect 8 0 11 0;
#X connect 8 0 9 0;
#X connect 9 0 8 1;
#X connect 10 0 8 1;
#X restore 21 174 pd serial;
#X obj 72 255 * 50;
#X msg 293 124 858;
#X msg 259 125 525;
#X msg 412 290 resize \$1 \, const 0;
#X obj 412 265 *;
#X obj 114 167 list length;
#X obj 114 190 s \$0.auto.tracks;
#X obj 427 240 r \$0.auto.tracks;
#X obj 242 97 t p b p b;
#X obj 242 276 s \$0.auto.selector;
#X obj 72 234 t a a a;
#X obj 104 255 sel 0;
#X msg 104 277 525;
#X msg 131 277 858;
#X obj 72 306 pack f f f;
#X text 144 309 x \, color \, track;
#X obj 21 208 list prepend;
#X obj 21 328 list append;
#X text 95 327 y \, lbl \, x \, color \, track;
#X obj 21 136 t a a;
#X obj 385 187 r \$0.length;
#X obj 385 209 t b a;
#X msg 385 234 0;
#X obj 21 402 s pd-\$1-\$2-unstep;
#N canvas 1074 739 272 321 set.pointer.to.active.label 0;
#X obj 28 79 until;
#X obj 86 79 list append pd-\$1-\$2-unstep;
#X msg 86 101 traverse \$1;
#X obj 28 15 r \$0.length;
#X obj 28 37 t b b;
#X msg 28 101 next;
#X obj 28 162 t p p;
#X obj 28 207 sel 0;
#X obj 28 257 pointer;
#X obj 28 279 outlet;
#X obj 28 229 t b b;
#X obj 28 140 pointer \$0.autolabel;
#X obj 28 185 get \$0.autolabel track;
#X connect 0 0 5 0;
#X connect 1 0 2 0;
#X connect 2 0 11 0;
#X connect 3 0 4 0;
#X connect 4 0 0 0;
#X connect 4 1 1 0;
#X connect 5 0 11 0;
#X connect 6 0 12 0;
#X connect 6 1 8 1;
#X connect 7 0 10 0;
#X connect 8 0 9 0;
#X connect 10 0 8 0;
#X connect 10 1 0 1;
#X connect 11 0 6 0;
#X connect 11 2 0 1;
#X connect 12 0 7 0;
#X restore 370 118 pd set.pointer.to.active.label;
#X obj 21 94 t b a;
#X obj 95 64 r \$0.args;
#X obj 95 86 list split 2;
#X obj 21 116 list append;
#X obj 412 315 s \$1-unstep/\$2/automation;
#X obj 242 33 struct \$0.autolabel float x float y symbol lbl float color float track;
#X obj 259 160 set \$0.autolabel color;
#X obj 242 187 get \$0.autolabel track;
#X obj 21 351 list append \$0;
#X msg 21 376 scalar \$6.autolabel \$3 \$1 \$2 \$4 \$5;
#X obj 72 277 + 79;
#X obj 21 73 + 110;
#X connect 0 0 1 0;
#X connect 1 0 2 0;
#X connect 2 0 42 0;
#X connect 4 0 14 0;
#X connect 5 0 22 0;
#X connect 5 1 16 0;
#X connect 6 0 41 0;
#X connect 7 0 37 0;
#X connect 8 0 37 0;
#X connect 9 0 35 0;
#X connect 10 0 9 0;
#X connect 11 0 12 0;
#X connect 13 0 10 1;
#X connect 14 0 38 0;
#X connect 14 1 8 0;
#X connect 14 2 37 1;
#X connect 14 3 7 0;
#X connect 16 0 6 0;
#X connect 16 1 17 0;
#X connect 16 2 20 2;
#X connect 17 0 18 0;
#X connect 17 1 19 0;
#X connect 18 0 20 1;
#X connect 19 0 20 1;
#X connect 20 0 23 1;
#X connect 22 0 23 0;
#X connect 23 0 39 0;
#X connect 25 0 5 0;
#X connect 25 1 11 0;
#X connect 26 0 27 0;
#X connect 27 0 28 0;
#X connect 27 1 10 0;
#X connect 28 0 15 0;
#X connect 30 0 37 1;
#X connect 31 0 34 0;
#X connect 31 1 22 1;
#X connect 32 0 33 0;
#X connect 33 1 34 1;
#X connect 34 0 25 0;
#X connect 36 0 4 0;
#X connect 38 0 15 0;
#X connect 39 0 40 0;
#X connect 40 0 29 0;
#X connect 41 0 20 0;
#X connect 42 0 31 0;
#X restore 64 258 pd automation.label;
#X msg 30 302 \$1;
#X obj 30 324 s \$0.length;
#N canvas 706 198 727 500 automation.gui 0;
#X obj 21 83 unpack;
#X obj 55 108 * 10;
#X obj 21 152 pack f f;
#X msg 21 176 create \$1 \$2;
#X obj 21 321 route set;
#X obj 43 211 loadbang;
#X msg 43 233 autoclear 0;
#X obj 21 300 unrail pd-\$1-\$2-unstep;
#X obj 21 15 inlet;
#X obj 21 343 list split 1;
#X obj 21 437 list append;
#X obj 149 407 r \$0.length;
#X obj 21 391 +;
#X obj 117 407 *;
#X obj 117 385 r \$0.auto.selector;
#X obj 184 105 r \$0.auto.selector;
#X obj 263 146 r \$0.length;
#X obj 248 173 *;
#X obj 203 173 f;
#X obj 203 195 until;
#X obj 203 224 f;
#X obj 256 238 + 1;
#X msg 203 292 add2 \$1;
#X obj 184 146 t b b a;
#N canvas 293 171 466 266 messagebox 0;
#X obj 41 36 inlet;
#X msg 41 58 set 0 0 0 0 0 0 0 0 0 0 0 0 0 0 0 0 0 0 0 0 0 0 0 0 0 0 0 0 0 0 0 0 0;
#X obj 41 230 outlet;
#X connect 0 0 1 0;
#X connect 1 0 2 0;
#X restore 184 315 pd messagebox;
#X msg 248 207 set set 0;
#X obj 203 246 t a a;
#X obj 203 270 tabread \$1-unstep/\$2/automation;
#X obj 21 459 netpd_s \$1 unstep/\$2/automation;
#X obj 413 47 r \$1-unstep/\$2/automation;
#X obj 413 69 route list;
#X obj 413 141 spigot;
#X obj 596 139 r \$0.auto.selector;
#X obj 413 200 list prepend set;
#X obj 413 223 list trim;
#X text 173 73 update gui to track selection;
#X text 380 22 reflect changes of currently selected track;
#N canvas 296 200 365 413 peel.out.matching.track.data 0;
#X obj 244 117 r \$0.length;
#X obj 179 148 *;
#X obj 209 179 +;
#X obj 97 188 pack;
#X obj 143 190 pack;
#X msg 97 210 \$2 \$1;
#X obj 97 232 -;
#X msg 143 211 \$2 \$1;
#X obj 143 233 -;
#X obj 40 80 t a a;
#X obj 40 256 list split;
#X obj 68 281 list split;
#X msg 97 127 \$1;
#X obj 143 255 min;
#X obj 40 102 list split 1;
#X obj 97 161 t a a a;
#X obj 194 235 max;
#X obj 194 261 min;
#X obj 125 335 list prepend;
#X obj 68 308 route bang;
#X obj 40 20 inlet;
#X obj 179 16 inlet;
#X obj 125 377 outlet;
#X obj 194 288 mod;
#X connect 0 0 1 1;
#X connect 0 0 2 1;
#X connect 0 0 13 1;
#X connect 0 0 23 1;
#X connect 1 0 3 1;
#X connect 1 0 2 0;
#X connect 1 0 16 1;
#X connect 2 0 4 1;
#X connect 2 0 17 1;
#X connect 3 0 5 0;
#X connect 4 0 7 0;
#X connect 5 0 6 0;
#X connect 6 0 10 1;
#X connect 7 0 8 0;
#X connect 8 0 13 0;
#X connect 9 0 14 0;
#X connect 9 1 12 0;
#X connect 10 1 11 0;
#X connect 11 0 19 0;
#X connect 11 2 19 0;
#X connect 12 0 15 0;
#X connect 13 0 11 1;
#X connect 14 1 10 0;
#X connect 15 0 3 0;
#X connect 15 1 4 0;
#X connect 15 2 16 0;
#X connect 16 0 17 0;
#X connect 17 0 23 0;
#X connect 18 0 22 0;
#X connect 19 1 18 0;
#X connect 20 0 9 0;
#X connect 21 0 1 0;
#X connect 23 0 18 1;
#X restore 413 163 pd peel.out.matching.track.data;
#X obj 56 130 + 6;
#X obj 446 91 r \$1.NETPD;
#X obj 446 114 route remote_origin;
#X connect 0 0 2 0;
#X connect 0 1 1 0;
#X connect 1 0 38 0;
#X connect 2 0 3 0;
#X connect 3 0 7 0;
#X connect 4 0 9 0;
#X connect 5 0 6 0;
#X connect 6 0 7 0;
#X connect 7 0 4 0;
#X connect 8 0 0 0;
#X connect 9 0 12 0;
#X connect 9 1 10 1;
#X connect 10 0 28 0;
#X connect 11 0 13 1;
#X connect 12 0 10 0;
#X connect 13 0 12 1;
#X connect 14 0 13 0;
#X connect 15 0 23 0;
#X connect 16 0 17 1;
#X connect 16 0 18 1;
#X connect 17 0 20 1;
#X connect 17 0 25 0;
#X connect 18 0 19 0;
#X connect 19 0 20 0;
#X connect 20 0 26 0;
#X connect 21 0 20 1;
#X connect 22 0 24 0;
#X connect 23 0 24 0;
#X connect 23 1 18 0;
#X connect 23 2 17 0;
#X connect 24 0 7 0;
#X connect 25 0 24 0;
#X connect 26 0 27 0;
#X connect 26 1 21 0;
#X connect 27 0 22 0;
#X connect 29 0 30 0;
#X connect 30 0 31 0;
#X connect 31 0 37 0;
#X connect 32 0 37 1;
#X connect 33 0 34 0;
#X connect 34 0 7 0;
#X connect 37 0 33 0;
#X connect 38 0 2 1;
#X connect 39 0 40 0;
#X connect 40 0 31 1;
#X restore 81 210 pd automation.gui;
#N canvas 455 91 527 335 parse.arg.list 0;
#N canvas 305 260 375 202 \$0.parser 0;
#X restore 11 10 pd \$0.parser;
#X obj 166 250 s pd-\$0.parser;
#X msg 127 228 clear;
#X obj 193 8 r \$0.set;
#X obj 146 274 s \$0.get;
#X obj 166 183 list prepend \$0;
#X obj 127 8 loadbang;
#X obj 127 30 until;
#X obj 127 52 f;
#X obj 127 74 + 1;
#X obj 127 116 t b b a;
#X obj 193 30 route 0;
#X obj 193 100 outlet;
#X obj 193 52 b;
#X msg 166 207 obj 19 5 r \$1.get \, obj 19 27 list append \$2 \, obj 19 49 s \$1.set \, connect 0 0 1 0 \, connect 1 0 2 0;
#X msg 166 160 symbol \$1\$2;
#X msg 166 138 list $ \$1;
#X obj 256 51 list prepend;
#X obj 340 51 t a;
#X obj 193 77 list append;
#X obj 317 119 bng 15 250 50 0 empty empty empty 17 7 0 10 #fcfcfc #000000 #000000;
#X msg 325 167 0;
#X connect 2 0 1 0;
#X connect 3 0 11 0;
#X connect 5 0 14 0;
#X connect 6 0 7 0;
#X connect 7 0 8 0;
#X connect 8 0 9 0;
#X connect 9 0 8 1;
#X connect 9 0 10 0;
#X connect 10 0 2 0;
#X connect 10 1 4 0;
#X connect 10 2 16 0;
#X connect 11 0 13 0;
#X connect 11 1 17 0;
#X connect 13 0 7 1;
#X connect 13 0 19 0;
#X connect 14 0 1 0;
#X connect 15 0 5 0;
#X connect 16 0 15 0;
#X connect 17 0 18 0;
#X connect 17 0 19 1;
#X connect 18 0 17 1;
#X connect 19 0 12 0;
#X connect 20 0 7 0;
#X connect 21 0 8 1;
#X restore 227 101 pd parse.arg.list;
#X obj 254 145 s \$0.args;
#N canvas 769 369 311 68 NETPD 0;
#N canvas 872 321 283 130 abslist 0;
#X msg 14 8 ungrid;
#X msg 14 30 unrail;
#X msg 14 51 unstep-gui;
#X msg 111 8 unstep-settings-gui;
#X msg 111 29 unstep-midi-control;
#X msg 111 52 untik-clock-consumer;
#X restore 17 32 pd abslist;
#X msg 17 9 version 0 2 2;
#X restore 456 10 pd NETPD 2 0;
#N canvas 837 479 450 372 automation.output 0;
#X obj 39 35 r \$0.ungrid;
#X obj 39 57 route step;
#X obj 153 11 r \$0.args;
#X obj 153 33 list split 2;
#X obj 187 56 t a a;
#X obj 187 80 list length;
#X obj 39 202 list append;
#X obj 39 104 f;
#X obj 39 80 t b b a;
#X obj 39 124 until;
#X obj 39 152 f;
#X obj 67 152 + 1;
#X msg 77 124 0;
#X obj 39 174 t b a a;
#X obj 39 228 list split;
#X obj 67 279 list append;
#X obj 155 203 *;
#X obj 170 180 r \$0.length;
#X obj 155 225 +;
#X obj 67 301 list trim;
#X text 181 202 add offset;
#X msg 67 250 \$1;
#X obj 67 323 s \$0.outlet;
#X obj 155 246 tabread \$1-unstep/\$2/automation;
#X connect 0 0 1 0;
#X connect 1 0 8 0;
#X connect 2 0 3 0;
#X connect 3 1 4 0;
#X connect 4 0 5 0;
#X connect 4 1 6 1;
#X connect 5 0 7 1;
#X connect 6 0 14 0;
#X connect 7 0 9 0;
#X connect 8 0 7 0;
#X connect 8 1 12 0;
#X connect 8 2 18 1;
#X connect 9 0 10 0;
#X connect 10 0 11 0;
#X connect 10 0 13 0;
#X connect 11 0 10 1;
#X connect 12 0 10 1;
#X connect 13 0 6 0;
#X connect 13 1 14 1;
#X connect 13 2 16 0;
#X connect 14 1 21 0;
#X connect 15 0 19 0;
#X connect 16 0 18 0;
#X connect 17 0 16 1;
#X connect 18 0 23 0;
#X connect 19 0 22 0;
#X connect 21 0 15 0;
#X connect 23 0 15 1;
#X restore 227 61 pd automation.output;
#N canvas 1048 349 390 298 note.output 0;
#X obj 13 13 r \$0.ungrid;
#X obj 13 35 route hit;
#X obj 13 57 * -1;
#X msg 13 183 note \$1;
#X obj 13 207 s \$0.outlet;
#X obj 168 82 netpd_r \$1 unstep/\$2/semitone;
#X obj 124 26 netpd_r \$1 unstep/\$2/octave;
#X obj 13 155 +;
#X obj 13 122 +;
#X obj 56 96 * 12;
#X obj 153 208 s \$1-unstep/\$2/semitone;
#X msg 153 185 set \$1;
#X obj 153 164 f;
#X msg 93 217 set \$1;
#X obj 93 196 f;
#X obj 93 121 r \$0.length;
#X obj 93 143 t b b;
#X obj 93 240 s \$1-unstep/\$2/octave;
#X obj 13 80 + 87;
#X connect 0 0 1 0;
#X connect 1 0 2 0;
#X connect 2 0 18 0;
#X connect 3 0 4 0;
#X connect 5 0 7 1;
#X connect 5 0 12 1;
#X connect 6 0 9 0;
#X connect 6 0 14 1;
#X connect 7 0 3 0;
#X connect 8 0 7 0;
#X connect 9 0 8 1;
#X connect 11 0 10 0;
#X connect 12 0 11 0;
#X connect 13 0 17 0;
#X connect 14 0 13 0;
#X connect 15 0 16 0;
#X connect 16 0 14 0;
#X connect 16 1 12 0;
#X connect 18 0 8 0;
#X restore 227 39 pd note.output;
#X obj 17 410 r \$0.outlet;
#X obj 17 432 outlet;
#X text 374 165 init size;
#X obj 227 124 t b a;
#X obj 81 233 table \$1-unstep/\$2/automation;
#N canvas 632 106 635 569 netpdization 0;
#X obj 53 106 s \$0.ungrid.r;
#X msg 53 84 dump;
#X obj 26 150 r \$0.ungrid;
#X obj 26 290 s \$0.ungrid.r;
#X text 26 1 -- ungrid --;
#X obj 75 338 s \$0.reinit;
#X text 340 2 -- automation --;
#X obj 351 85 r \$1-unstep/\$2/automation;
#X obj 351 107 route resize;
#X obj 336 133 f;
#N canvas 585 192 253 256 dump.array 0;
#X obj 39 71 until;
#X obj 39 100 f;
#X obj 92 114 + 1;
#X msg 39 168 add2 \$1;
#N canvas 293 171 466 266 messagebox 0;
#X obj 41 36 inlet;
#X msg 41 58 0 0 0 0 0 0 0 0 0 0 0 0 0 0 0 0 0 0 0 0 0 0 0 0 0 0 0 0 0 0 0 0 0 0 0 0 0 0 0 0 0 0 0 0 0 0 0 0 0 0 0 0 0 0 0 0 0 0 0 0 0 0 0 0 0 0 0 0 0 0 0 0 0 0 0 0 0 0 0 0 0 0 0 0 0 0 0 0 0 0 0 0 0 0 0 0 0 0 0 0 0 0 0 0 0 0 0 0 0 0 0 0 0 0 0 0 0 0 0 0 0 0 0 0 0 0 0 0 0;
#X obj 41 230 outlet;
#X connect 0 0 1 0;
#X connect 1 0 2 0;
#X restore 20 197 pd messagebox;
#X obj 39 122 t a a;
#X obj 39 146 tabread \$1-unstep/\$2/automation;
#X obj 20 48 t b a b;
#X msg 78 72 0;
#X msg 95 169 set 0;
#X obj 20 23 inlet;
#X obj 20 220 outlet;
#X connect 0 0 1 0;
#X connect 1 0 5 0;
#X connect 2 0 1 1;
#X connect 3 0 4 0;
#X connect 4 0 11 0;
#X connect 5 0 6 0;
#X connect 5 1 2 0;
#X connect 6 0 3 0;
#X connect 7 0 4 0;
#X connect 7 1 0 0;
#X connect 7 2 8 0;
#X connect 7 2 9 0;
#X connect 8 0 1 1;
#X connect 9 0 4 0;
#X connect 10 0 7 0;
#X restore 336 157 pd dump.array;
#X obj 336 181 netpd_s \$1 unstep/\$2/automation;
#X obj 336 210 netpd_r \$1 unstep/\$2/automation;
#X obj 336 233 s \$1-unstep/\$2/automation;
#X obj 26 214 netpd_s \$1 unstep/\$2/cell;
#X obj 26 172 route cell create;
#X obj 26 246 netpd_r \$1 unstep/\$2/cell;
#X msg 26 268 cell \$1 \$2 \$3;
#X obj 75 314 netpd_r \$1 unstep/\$2/create;
#X obj 26 373 r \$0.reinit;
#X obj 26 394 t a a;
#X obj 53 438 s \$0.ysize.r;
#X obj 26 482 s \$0.xsize.r;
#X obj 156 373 r \$0.doit;
#X obj 182 416 r \$0.ysize;
#X obj 171 394 r \$0.xsize;
#X obj 156 416 f;
#X msg 156 460 create \$1 \$2;
#X obj 156 482 s \$0.ungrid;
#X msg 53 416 \$2;
#X msg 26 460 \$1;
#X obj 156 438 pack;
#X text 336 286 -- settings ---;
#X obj 338 313 netpd_f \$1 unstep/\$2/octave 0;
#X obj 338 333 netpd_f \$1 unstep/\$2/semitone 0;
#X obj 338 396 netpd_f \$1 unstep/\$2/repeat 32;
#X obj 338 376 netpd_f \$1 unstep/\$2/offset 0;
#X obj 338 416 netpd_f \$1 unstep/\$2/shift 0;
#X obj 53 438 s \$0.ysize.r;
#X obj 26 482 s \$0.xsize.r;
#X obj 182 416 r \$0.ysize;
#X obj 171 394 r \$0.xsize;
#X obj 336 63 b;
#X obj 75 194 netpd_s \$1 unstep/\$2/create;
#X obj 188 33 t b b;
#X obj 245 524 untik-clock-consumer \$1 unstep/\$2/clocksource \$0.clockname;
#X obj 245 547 s \$0.clock;
#X obj 338 354 netpd_f \$1 unstep/\$2/divide 1;
#X obj 188 10 netpd-dump \$1;
#X obj 313 546 s \$1-\$2-clock;
#X connect 1 0 0 0;
#X connect 2 0 15 0;
#X connect 7 0 8 0;
#X connect 8 0 9 1;
#X connect 9 0 10 0;
#X connect 10 0 11 0;
#X connect 12 0 13 0;
#X connect 15 0 14 0;
#X connect 15 1 43 0;
#X connect 16 0 17 0;
#X connect 17 0 3 0;
#X connect 18 0 5 0;
#X connect 19 0 20 0;
#X connect 20 0 30 0;
#X connect 20 1 29 0;
#X connect 23 0 26 0;
#X connect 24 0 31 1;
#X connect 25 0 26 1;
#X connect 26 0 31 0;
#X connect 27 0 28 0;
#X connect 29 0 21 0;
#X connect 30 0 22 0;
#X connect 31 0 27 0;
#X connect 42 0 9 0;
#X connect 44 0 42 0;
#X connect 44 1 1 0;
#X connect 45 0 46 0;
#X connect 45 0 49 0;
#X connect 48 0 44 0;
#X restore 440 33 pd netpdization;
#X obj 11 59 r \$0.reinit;
#X msg 30 116 \$1 \$2;
#X obj 94 138 list prepend create;
#X obj 94 160 list trim;
#X obj 227 257 inlet;
#X obj 227 279 route vis;
#X obj 227 367 s pd-\$1-\$2-unstep;
#X obj 254 345 s pd-\$1-\$2-unstep-settings;
#X msg 227 301 vis 0 \, vis \$1;
#X obj 227 323 t a a;
#X obj 30 139 t a a a a;
#N canvas 0 44 380 278 create.settings.gui 0;
#X obj 65 139 s pd-\$1-\$2-unstep;
#X obj 38 21 inlet;
#X obj 65 85 list append \$1 \$2 \$0;
#X msg 65 116 obj 5 5 unstep-settings-gui \$1 \$2 \$3;
#X obj 38 195 s \$0-unstep-settings-gui;
#X msg 38 167 loadbang;
#X obj 38 47 t b b;
#X connect 1 0 6 0;
#X connect 2 0 3 0;
#X connect 3 0 0 0;
#X connect 5 0 4 0;
#X connect 6 0 5 0;
#X connect 6 1 2 0;
#X restore 47 280 pd create.settings.gui;
#N canvas 622 178 370 308 settings.gui 0;
#N canvas 762 478 575 352 redim 0;
#X obj 14 102 s \$0.xsize.label;
#X msg 14 80 label \$1;
#X msg 176 79 label \$1;
#X obj 176 101 s \$0.ysize.label;
#X obj 176 9 r \$0.ysize;
#X obj 30 29 r \$0.xsize;
#X obj 191 30 r \$0.ysize.r;
#X obj 14 7 r \$0.xsize.r;
#X obj 16 131 r \$0.length;
#X obj 16 307 s \$0.doit.label;
#X obj 16 153 b;
#X obj 16 177 del 200;
#X obj 14 57 makefilename cols:%5d;
#X obj 176 56 makefilename rows:%5d;
#X msg 16 282 color \$2 \$1 \$1;
#X obj 35 206 list append #800080 #b0b0b0;
#X obj 16 240 list append #800080 #ffe0ff;
#X connect 1 0 0 0;
#X connect 2 0 3 0;
#X connect 4 0 13 0;
#X connect 5 0 12 0;
#X connect 6 0 13 0;
#X connect 7 0 12 0;
#X connect 8 0 10 0;
#X connect 10 0 11 0;
#X connect 10 0 15 0;
#X connect 11 0 16 0;
#X connect 12 0 1 0;
#X connect 13 0 2 0;
#X connect 14 0 9 0;
#X connect 15 0 14 0;
#X connect 16 0 14 0;
#X restore 15 13 pd redim;
#N canvas 62 95 480 452 loop 0;
#X obj 19 19 r \$1-unstep/\$2/repeat;
#X msg 19 92 label \$1;
#X obj 19 114 s \$0.repeat.label;
#X obj 19 69 makefilename repeat:%3d;
#X msg 176 95 label \$1;
#X obj 176 19 r \$1-unstep/\$2/shift;
#X obj 176 117 s \$0.shift.label;
#X msg 326 95 label \$1;
#X obj 326 19 r \$1-unstep/\$2/offset;
#X obj 326 72 makefilename offset:%3d;
#X obj 326 117 s \$0.offset.label;
#X obj 19 41 route set float;
#X obj 176 44 route set float;
#X obj 326 44 route set float;
#X obj 176 72 makefilename shift:%4d;
#X obj 13 399 s \$0.repeat.label;
#X obj 25 377 s \$0.shift.label;
#X obj 31 354 s \$0.offset.label;
#X obj 13 215 sel 0 1;
#X msg 13 326 color \$1 \$2;
#X obj 13 167 r \$0.meta.set;
#X obj 13 190 == -1;
#X obj 33 242 list append #ffe0ff #800080;
#X obj 13 276 list append #ffe0ff #b0b0b0;
#X msg 296 295 label \$1;
#X obj 296 244 route set float;
#X obj 296 219 r \$1-unstep/\$2/divide;
#X obj 296 317 s \$0.divide.label;
#X obj 296 272 makefilename div:%6d;
#X connect 0 0 11 0;
#X connect 1 0 2 0;
#X connect 3 0 1 0;
#X connect 4 0 6 0;
#X connect 5 0 12 0;
#X connect 7 0 10 0;
#X connect 8 0 13 0;
#X connect 9 0 7 0;
#X connect 11 0 3 0;
#X connect 11 1 3 0;
#X connect 12 0 14 0;
#X connect 12 1 14 0;
#X connect 13 0 9 0;
#X connect 13 1 9 0;
#X connect 14 0 4 0;
#X connect 18 0 23 0;
#X connect 18 1 22 0;
#X connect 19 0 15 0;
#X connect 19 0 16 0;
#X connect 19 0 17 0;
#X connect 20 0 21 0;
#X connect 21 0 18 0;
#X connect 22 0 19 0;
#X connect 23 0 19 0;
#X connect 24 0 27 0;
#X connect 25 0 28 0;
#X connect 25 1 28 0;
#X connect 26 0 25 0;
#X connect 28 0 24 0;
#X restore 15 38 pd loop;
#N canvas 308 89 403 235 pitch 0;
#X msg 13 90 label \$1;
#X obj 13 14 r \$1-unstep/\$2/octave;
#X obj 13 112 s \$0.oct.label;
#X msg 182 94 label \$1;
#X obj 182 18 r \$1-unstep/\$2/semitone;
#X obj 182 116 s \$0.semi.label;
#X obj 13 39 route set float;
#X obj 182 43 route set float;
#X obj 13 67 makefilename oct:%6d;
#X obj 182 71 makefilename semi:%5d;
#X connect 0 0 2 0;
#X connect 1 0 6 0;
#X connect 3 0 5 0;
#X connect 4 0 7 0;
#X connect 6 0 8 0;
#X connect 6 1 8 0;
#X connect 7 0 9 0;
#X connect 7 1 9 0;
#X connect 8 0 0 0;
#X connect 9 0 3 0;
#X restore 15 64 pd pitch;
#X obj 222 178 s \$0.oct.label;
#X obj 229 157 s \$0.semi.label;
#X obj 239 93 s \$0.repeat.label;
#X obj 233 135 s \$0.shift.label;
#X obj 236 114 s \$0.offset.label;
#X obj 207 222 s \$0.xsize.label;
#X obj 215 200 s \$0.ysize.label;
#X msg 191 18 label empty;
#X obj 243 72 s \$0.dividend.label;
#X obj 246 51 s \$0.divisor.label;
#X obj 199 242 s \$0.meta.set.label;
#X obj 191 264 s \$0.meta.divisor.label;
#N canvas 513 103 769 522 source 0;
#X obj 94 149 s unstep;
#X msg 94 125 get_sources;
#X obj 94 172 r unstep;
#X obj 94 195 route source;
#X obj 94 218 list;
#X msg 94 241 append \$1;
#X obj 94 297 list store;
#X obj 94 372 s \$0.source.selector;
#X obj 94 347 list trim;
#X obj 94 324 list prepend items <none>;
#X obj 269 20 r \$0.source.selector;
#X obj 269 43 route selected;
#X obj 269 66 symbol;
#X obj 269 207 select <none>;
#X obj 342 416 s \$0.source.selector;
#X obj 280 232 loadbang;
#X msg 280 255 symbol;
#X obj 269 286 symbol;
#X msg 342 389 setlabel \$1;
#X obj 49 3 r \$0.source.selector;
#X obj 49 26 route active;
#X msg 490 92 items <none>;
#X obj 490 113 s \$0.source.selector;
#X obj 49 264 t b b b;
#X msg 49 302 drop 1;
#X obj 49 72 spigot 1;
#X obj 49 100 t b b b, f 15;
#X msg 165 69 0;
#X obj 49 49 sel 1 0;
#X msg 109 52 1;
#X obj 470 272 s \$0.source.selector;
#X msg 521 212 selected_text_color 405;
#X msg 535 237 items_background_color 888;
#X msg 470 169 selected_background_color 878;
#X msg 501 191 selected_box_color 878;
#X obj 451 67 t b b b;
#X obj 269 149 netpd_a \$1 unstep/\$2/source;
#X obj 280 97 loadbang;
#X msg 280 120 set <none>;
#X obj 269 172 symbol;
#X obj 344 270 t a;
#X obj 451 38 r \$0.post.reinit;
#X obj 269 338 symbol;
#X obj 240 380 r unstep;
#X obj 240 403 route note;
#X obj 315 362 t a a;
#X obj 240 427 route _, f 13;
#X msg 240 449 note \$1;
#X obj 240 473 s \$0.outlet;
#X connect 1 0 0 0;
#X connect 2 0 3 0;
#X connect 3 0 4 0;
#X connect 4 0 5 0;
#X connect 5 0 6 0;
#X connect 6 0 9 0;
#X connect 8 0 7 0;
#X connect 9 0 8 0;
#X connect 10 0 11 0;
#X connect 11 0 12 0;
#X connect 12 0 36 0;
#X connect 13 0 17 0;
#X connect 13 1 40 0;
#X connect 15 0 16 0;
#X connect 16 0 17 1;
#X connect 17 0 42 0;
#X connect 18 0 14 0;
#X connect 19 0 20 0;
#X connect 20 0 28 0;
#X connect 21 0 22 0;
#X connect 23 0 24 0;
#X connect 23 1 6 1;
#X connect 23 2 6 0;
#X connect 24 0 7 0;
#X connect 25 0 26 0;
#X connect 26 0 23 0;
#X connect 26 1 1 0;
#X connect 26 2 27 0;
#X connect 27 0 25 1;
#X connect 28 0 25 0;
#X connect 28 1 29 0;
#X connect 29 0 25 1;
#X connect 31 0 30 0;
#X connect 32 0 30 0;
#X connect 33 0 30 0;
#X connect 34 0 30 0;
#X connect 35 0 42 0;
#X connect 35 1 33 0;
#X connect 35 1 34 0;
#X connect 35 1 32 0;
#X connect 35 1 31 0;
#X connect 35 2 21 0;
#X connect 36 0 39 0;
#X connect 37 0 38 0;
#X connect 38 0 36 0;
#X connect 39 0 13 0;
#X connect 40 0 42 0;
#X connect 41 0 35 0;
#X connect 42 0 45 0;
#X connect 43 0 44 0;
#X connect 44 0 46 0;
#X connect 45 0 46 1;
#X connect 45 1 18 0;
#X connect 46 0 47 0;
#X connect 47 0 48 0;
#X restore 14 162 pd source;
#X connect 10 0 8 0;
#X connect 10 0 5 0;
#X connect 10 0 6 0;
#X connect 10 0 9 0;
#X connect 10 0 3 0;
#X connect 10 0 7 0;
#X connect 10 0 4 0;
#X connect 10 0 11 0;
#X connect 10 0 12 0;
#X connect 10 0 13 0;
#X connect 10 0 14 0;
#X restore 440 54 pd settings.gui;
#X obj 227 191 s \$0.ungrid.r;
#X obj 368 115 ungrid pd-\$1-\$2-unstep 77 5;
#X obj 11 84 t b a a;
#X obj 11 389 s \$0.post.reinit;
#N canvas 677 315 676 546 clock->ungrid 0;
#X obj 20 490 s \$0.ungrid.r;
#N canvas 745 312 311 155 limit.to.available.cols 0;
#X obj 15 95 moses 32;
#X obj 60 67 r \$0.length;
#X obj 15 39 moses 0;
#X obj 15 12 inlet;
#X obj 15 127 outlet;
#X connect 0 0 4 0;
#X connect 1 0 0 1;
#X connect 2 1 0 0;
#X connect 3 0 2 0;
#X restore 20 381 pd limit.to.available.cols;
#X obj 511 82 s \$1-unstep/\$2/repeat;
#X msg 511 56 set \$1;
#X obj 484 12 r \$0.length;
#X msg 484 153 set 0;
#X obj 493 179 s \$1-unstep/\$2/offset;
#X obj 484 203 s \$1-unstep/\$2/shift;
#X obj 484 34 t b a;
#X obj 136 214 netpd_r \$1 unstep/\$2/offset;
#X obj 107 71 netpd_r \$1 unstep/\$2/repeat;
#X obj 105 309 netpd_r \$1 unstep/\$2/shift;
#X msg 535 152 range 0 \$1;
#X obj 220 113 r \$0.length;
#X msg 220 144 0;
#X obj 535 107 r \$1-unstep/\$2/repeat;
#X obj 535 129 route set;
#N canvas 561 92 404 382 stepnumber->commands 0;
#X msg 258 273 next;
#X msg 191 247 rewind;
#X msg 285 294 skip;
#X obj 285 223 - 1;
#X obj 285 245 until;
#X obj 83 225 sel 1;
#X obj 258 202 t b a;
#X obj 98 130 - -1;
#X msg 83 253 next;
#X obj 164 218 f;
#X obj 164 196 t b b;
#X msg 223 129 -1;
#X obj 83 152 f;
#X obj 83 69 t b f f;
#X obj 137 328 t a a;
#X obj 83 14 inlet;
#X obj 137 350 outlet;
#X obj 164 155 moses 1;
#X obj 30 137 t a;
#X obj 261 74 r \$0.length;
#X obj 261 96 t b b;
#X text 259 53 reinit after recreate;
#X obj 337 143 bng 15 250 50 0 empty empty empty 17 7 0 10 #fcfcfc #000000 #000000;
#X connect 0 0 14 0;
#X connect 1 0 14 0;
#X connect 2 0 14 0;
#X connect 3 0 4 0;
#X connect 4 0 2 0;
#X connect 5 0 8 0;
#X connect 5 1 17 0;
#X connect 6 0 0 0;
#X connect 6 1 3 0;
#X connect 7 0 12 1;
#X connect 8 0 14 0;
#X connect 9 0 18 0;
#X connect 10 0 9 0;
#X connect 10 1 11 0;
#X connect 10 1 1 0;
#X connect 11 0 7 1;
#X connect 12 0 5 0;
#X connect 13 0 12 0;
#X connect 13 1 7 1;
#X connect 13 2 9 1;
#X connect 13 2 7 0;
#X connect 14 0 16 0;
#X connect 15 0 13 0;
#X connect 17 0 10 0;
#X connect 17 1 6 0;
#X connect 18 0 13 0;
#X connect 19 0 20 0;
#X connect 20 0 11 0;
#X connect 20 1 1 0;
#X connect 22 0 20 0;
#X restore 20 459 pd stepnumber->commands;
#X obj 40 413 unstep-midi-control \$1 \$2;
#X obj 40 435 s \$0.outlet;
#X obj 20 40 route pos;
#X obj 20 12 r \$0.clock;
#X obj 59 211 + 0;
#X obj 20 295 + 0;
#X obj 20 120 route 0;
#X obj 59 263 mod 64, f 10;
#X msg 59 144 \$2 \$1;
#X obj 59 168 unpack f f;
#X obj 20 97 list prepend 32;
#N canvas 1017 554 381 198 div 0;
#X obj 3 12 inlet;
#X obj 3 145 outlet;
#X obj 122 29 netpd_r \$1 unstep/\$2/divide;
#X obj 3 39 t a a, f 10;
#X obj 3 70 mod;
#X obj 60 70 div;
#X obj 3 97 sel 0;
#X obj 3 120 f, f 10;
#X connect 0 0 3 0;
#X connect 2 0 4 1;
#X connect 2 0 5 1;
#X connect 3 0 4 0;
#X connect 3 1 5 0;
#X connect 4 0 6 0;
#X connect 5 0 7 1;
#X connect 6 0 7 0;
#X connect 7 0 1 0;
#X restore 20 67 pd div;
#X obj 20 323 t a a;
#X obj 47 349 s \$0.pos;
#N canvas 1017 351 521 351 cursor 0;
#X obj 175 305 s \$0.ungrid.r;
#X msg 175 277 cursor \$1;
#X obj 219 141 r \$0.clock;
#X obj 219 169 route run;
#X obj 73 85 >= 0;
#X obj 329 207 s \$0.cursor.label;
#X msg 369 76 5 -1;
#X msg 329 102 color \$1 -1 \$2;
#X msg 329 77 0 11;
#X obj 329 51 sel 0 1, f 14;
#X obj 345 156 makefilename %5d;
#X msg 345 179 label \$1;
#X obj 145 35 r \$0.length;
#X obj 130 84 <;
#X obj 73 33 r \$0.pos;
#X obj 73 56 t a a, f 10;
#X obj 73 109 &&, f 10;
#X obj 345 132 r \$0.pos;
#X obj 73 132 t a a;
#X obj 175 248 change -1;
#X msg 219 192 0;
#X connect 1 0 0 0;
#X connect 2 0 3 0;
#X connect 3 0 20 0;
#X connect 4 0 16 0;
#X connect 6 0 7 0;
#X connect 7 0 5 0;
#X connect 8 0 7 0;
#X connect 9 0 8 0;
#X connect 9 1 6 0;
#X connect 10 0 11 0;
#X connect 11 0 5 0;
#X connect 12 0 13 1;
#X connect 13 0 16 1;
#X connect 14 0 15 0;
#X connect 15 0 4 0;
#X connect 15 1 13 0;
#X connect 16 0 18 0;
#X connect 17 0 10 0;
#X connect 18 0 19 0;
#X connect 18 1 9 0;
#X connect 19 0 1 0;
#X connect 20 0 19 0;
#X restore 396 314 pd cursor;
#X connect 1 0 17 0;
#X connect 1 0 18 0;
#X connect 3 0 2 0;
#X connect 4 0 8 0;
#X connect 5 0 7 0;
#X connect 5 0 6 0;
#X connect 8 0 5 0;
#X connect 8 1 3 0;
#X connect 9 0 22 1;
#X connect 10 0 28 1;
#X connect 11 0 23 1;
#X connect 12 0 6 0;
#X connect 13 0 14 0;
#X connect 13 0 28 1;
#X connect 14 0 22 1;
#X connect 14 0 23 1;
#X connect 15 0 16 0;
#X connect 16 0 12 0;
#X connect 16 1 12 0;
#X connect 17 0 0 0;
#X connect 18 0 19 0;
#X connect 20 0 29 0;
#X connect 21 0 20 0;
#X connect 22 0 25 0;
#X connect 23 0 30 0;
#X connect 24 0 23 0;
#X connect 24 1 26 0;
#X connect 25 0 23 0;
#X connect 26 0 27 0;
#X connect 27 0 22 0;
#X connect 27 1 25 1;
#X connect 28 0 24 0;
#X connect 29 0 28 0;
#X connect 30 0 1 0;
#X connect 30 1 31 0;
#X restore 227 17 pd clock->ungrid;
#X obj 21 22 unstep-gui \$1 \$2;
#X msg 227 166 create 32 40;
#X obj 11 354 t b b;
#X msg 48 355 cursor 1;
#X obj 106 355 s \$0.ungrid.r;
#X connect 2 0 34 0;
#X connect 4 0 3 0;
#X connect 6 0 7 0;
#X connect 9 0 17 0;
#X connect 14 0 15 0;
#X connect 17 0 39 0;
#X connect 17 1 10 0;
#X connect 20 0 35 0;
#X connect 21 0 30 0;
#X connect 22 0 23 0;
#X connect 23 0 1 0;
#X connect 24 0 25 0;
#X connect 25 0 28 0;
#X connect 28 0 29 0;
#X connect 29 0 26 0;
#X connect 29 1 27 0;
#X connect 30 0 6 0;
#X connect 30 1 31 0;
#X connect 30 2 5 0;
#X connect 30 3 8 0;
#X connect 34 0 0 0;
#X connect 35 0 40 0;
#X connect 35 1 21 0;
#X connect 35 2 22 0;
#X connect 39 0 33 0;
#X connect 40 0 36 0;
#X connect 40 1 41 0;
#X connect 41 0 42 0;
