#N struct 1963.button float posx float posy float color;
#N struct 1963.cursor float cx float cy;
#N struct 1964-automation float yshift array variy 1964-automation-element
;
#N struct 1964-automation-element float y;
#N struct autolabel float x float y symbol lbl float color float track
;
#N canvas 782 88 549 463 10;
#X obj 400 110 ungrid pd-\$1-\$2-unstep;
#X obj 400 132 s \$0.ungrid;
#X obj 85 182 s \$0.ungrid.r;
#X obj 400 88 r \$0.ungrid.r;
#X obj 435 407 s pd-\$1-\$2-unstep;
#X msg 435 375 clear;
#N canvas 476 135 623 405 automation.label 0;
#X obj 21 6 inlet;
#X msg 21 29 \$2;
#X obj 21 51 * 10;
#X obj 21 73 + 115;
#X obj 242 6 drawsymbol lbl 0 0 color;
#X obj 259 160 set autolabel color;
#X obj 242 70 route click;
#N canvas 469 244 244 232 serial 0;
#X obj 18 157 list split 1;
#X obj 18 64 until;
#X obj 18 132 list append;
#X obj 113 146 bang;
#X obj 18 17 inlet;
#X obj 18 183 outlet;
#X obj 18 86 t b b;
#X obj 18 41 t b a b;
#X obj 169 77 f;
#X obj 198 78 + 1;
#X msg 184 48 0;
#X obj 169 124 outlet;
#X connect 0 0 5 0;
#X connect 0 1 2 1;
#X connect 0 2 3 0;
#X connect 1 0 6 0;
#X connect 2 0 0 0;
#X connect 3 0 1 1;
#X connect 4 0 7 0;
#X connect 6 0 2 0;
#X connect 6 1 8 0;
#X connect 7 0 1 0;
#X connect 7 1 2 1;
#X connect 7 2 10 0;
#X connect 8 0 11 0;
#X connect 8 0 9 0;
#X connect 9 0 8 1;
#X connect 10 0 8 1;
#X restore 21 174 pd serial;
#X obj 72 277 + 2;
#X obj 72 255 * 50;
#X msg 293 124 858;
#X msg 259 125 525;
#X msg 412 290 resize \$1 \, const 0;
#X obj 412 265 *;
#X obj 242 33 struct autolabel float x float y symbol lbl float color
float track;
#X obj 114 167 list length;
#X obj 114 190 s \$0.auto.tracks;
#X obj 427 240 r \$0.auto.tracks;
#X obj 242 187 get autolabel track;
#X obj 242 97 t p b p b;
#X obj 242 276 s \$0.auto.selector;
#X obj 72 234 t a a a;
#X obj 104 255 sel 0;
#X msg 104 277 525;
#X msg 131 277 858;
#X obj 72 306 pack f f f;
#X text 144 309 x \, color \, track;
#X obj 21 208 list prepend;
#X obj 21 328 list append;
#X text 95 327 y \, lbl \, x \, color \, track;
#X obj 21 136 t a a;
#X obj 385 187 r \$0.length;
#X obj 385 209 t b a;
#X msg 385 234 0;
#X msg 21 349 scalar autolabel \$3 \$1 \$2 \$4 \$5;
#X obj 21 372 s pd-\$1-\$2-unstep;
#N canvas 1074 711 272 321 set.pointer.to.active.label 0;
#X obj 28 79 until;
#X obj 86 79 list append pd-\$1-\$2-unstep;
#X msg 86 101 traverse \$1;
#X obj 28 15 r \$0.length;
#X obj 28 37 t b b;
#X msg 28 101 next;
#X obj 28 140 pointer autolabel;
#X obj 28 185 get autolabel track;
#X obj 28 162 t p p;
#X obj 28 207 sel 0;
#X obj 28 257 pointer;
#X obj 28 279 outlet;
#X obj 28 229 t b b;
#X connect 0 0 5 0;
#X connect 1 0 2 0;
#X connect 2 0 6 0;
#X connect 3 0 4 0;
#X connect 4 0 0 0;
#X connect 4 1 1 0;
#X connect 5 0 6 0;
#X connect 6 0 8 0;
#X connect 6 2 0 1;
#X connect 7 0 9 0;
#X connect 8 0 7 0;
#X connect 8 1 10 1;
#X connect 9 0 12 0;
#X connect 10 0 11 0;
#X connect 12 0 10 0;
#X connect 12 1 0 1;
#X restore 370 118 pd set.pointer.to.active.label;
#X obj 21 94 t b a;
#X obj 95 64 r \$0.args;
#X obj 95 86 list split 2;
#X obj 21 116 list append;
#X obj 412 315 s \$1-unstep/\$2/automation;
#X connect 0 0 1 0;
#X connect 1 0 2 0;
#X connect 2 0 3 0;
#X connect 3 0 37 0;
#X connect 6 0 19 0;
#X connect 7 0 27 0;
#X connect 7 1 21 0;
#X connect 8 0 25 0;
#X connect 9 0 8 0;
#X connect 10 0 5 0;
#X connect 11 0 5 0;
#X connect 12 0 41 0;
#X connect 13 0 12 0;
#X connect 14 0 6 0;
#X connect 15 0 16 0;
#X connect 17 0 13 1;
#X connect 18 0 20 0;
#X connect 19 0 18 0;
#X connect 19 1 11 0;
#X connect 19 2 5 1;
#X connect 19 3 10 0;
#X connect 21 0 9 0;
#X connect 21 1 22 0;
#X connect 21 2 25 2;
#X connect 22 0 23 0;
#X connect 22 1 24 0;
#X connect 23 0 25 1;
#X connect 24 0 25 1;
#X connect 25 0 28 1;
#X connect 27 0 28 0;
#X connect 28 0 34 0;
#X connect 30 0 7 0;
#X connect 30 1 15 0;
#X connect 31 0 32 0;
#X connect 32 0 33 0;
#X connect 32 1 13 0;
#X connect 33 0 20 0;
#X connect 34 0 35 0;
#X connect 36 0 5 1;
#X connect 37 0 40 0;
#X connect 37 1 27 1;
#X connect 38 0 39 0;
#X connect 39 1 40 1;
#X connect 40 0 30 0;
#X restore 40 258 pd automation.label;
#X msg 21 282 \$1;
#X obj 21 304 s \$0.length;
#N canvas 706 198 670 500 automation.gui 0;
#X obj 21 83 unpack;
#X obj 55 108 * 10;
#X obj 21 152 pack f f;
#X msg 21 176 create \$1 \$2;
#X obj 55 130 + 10;
#X obj 21 321 route set;
#X obj 43 211 loadbang;
#X msg 43 233 autoclear 0;
#X obj 21 300 unrail pd-\$1-\$2-unstep;
#X obj 21 15 inlet;
#X obj 21 343 list split 1;
#X obj 21 437 list append;
#X obj 149 407 r \$0.length;
#X obj 21 391 +;
#X obj 117 407 *;
#X obj 117 385 r \$0.auto.selector;
#X obj 184 105 r \$0.auto.selector;
#X obj 263 146 r \$0.length;
#X obj 248 173 *;
#X obj 203 173 f;
#X obj 203 195 until;
#X obj 203 224 f;
#X obj 256 238 + 1;
#X msg 203 292 add2 \$1;
#X obj 184 146 t b b a;
#N canvas 293 171 466 266 messagebox 0;
#X obj 41 36 inlet;
#X msg 41 58 set 0 0 0 0 0 0 0 0 0 0 0 0 0 0 0 0 0 0 0 0 0 0 0 0 0
0 0 0 0 0 0 0 0;
#X obj 41 230 outlet;
#X connect 0 0 1 0;
#X connect 1 0 2 0;
#X restore 184 315 pd messagebox;
#X msg 248 207 set set 0;
#X obj 203 246 t a a;
#X obj 203 270 tabread \$1-unstep/\$2/automation;
#X obj 21 459 netpd_s \$1 unstep/\$2/automation;
#X obj 413 47 r \$1-unstep/\$2/automation;
#X obj 413 69 route list;
#X obj 446 95 r \$1.notown;
#X obj 413 121 spigot;
#X obj 537 117 r \$0.auto.selector;
#X obj 413 200 list prepend set;
#X obj 413 223 list trim;
#X text 173 73 update gui to track selection;
#X text 380 22 reflect changes of currently selected track;
#N canvas 296 167 365 413 peel.out.matching.track.data 0;
#X obj 244 117 r \$0.length;
#X obj 179 148 *;
#X obj 209 179 +;
#X obj 97 188 pack;
#X obj 143 190 pack;
#X msg 97 210 \$2 \$1;
#X obj 97 232 -;
#X msg 143 211 \$2 \$1;
#X obj 143 233 -;
#X obj 40 80 t a a;
#X obj 40 256 list split;
#X obj 68 281 list split;
#X msg 97 127 \$1;
#X obj 143 255 min;
#X obj 40 102 list split 1;
#X obj 97 161 t a a a;
#X obj 194 235 max;
#X obj 194 261 min;
#X obj 125 335 list prepend;
#X obj 68 308 route bang;
#X obj 40 20 inlet;
#X obj 179 16 inlet;
#X obj 125 377 outlet;
#X obj 194 288 mod;
#X connect 0 0 1 1;
#X connect 0 0 2 1;
#X connect 0 0 13 1;
#X connect 0 0 23 1;
#X connect 1 0 3 1;
#X connect 1 0 2 0;
#X connect 1 0 16 1;
#X connect 2 0 4 1;
#X connect 2 0 17 1;
#X connect 3 0 5 0;
#X connect 4 0 7 0;
#X connect 5 0 6 0;
#X connect 6 0 10 1;
#X connect 7 0 8 0;
#X connect 8 0 13 0;
#X connect 9 0 14 0;
#X connect 9 1 12 0;
#X connect 10 1 11 0;
#X connect 11 0 19 0;
#X connect 11 2 19 0;
#X connect 12 0 15 0;
#X connect 13 0 11 1;
#X connect 14 1 10 0;
#X connect 15 0 3 0;
#X connect 15 1 4 0;
#X connect 15 2 16 0;
#X connect 16 0 17 0;
#X connect 17 0 23 0;
#X connect 18 0 22 0;
#X connect 19 1 18 0;
#X connect 20 0 9 0;
#X connect 21 0 1 0;
#X connect 23 0 18 1;
#X restore 413 163 pd peel.out.matching.track.data;
#X connect 0 0 2 0;
#X connect 0 1 1 0;
#X connect 1 0 4 0;
#X connect 2 0 3 0;
#X connect 3 0 8 0;
#X connect 4 0 2 1;
#X connect 5 0 10 0;
#X connect 6 0 7 0;
#X connect 7 0 8 0;
#X connect 8 0 5 0;
#X connect 9 0 0 0;
#X connect 10 0 13 0;
#X connect 10 1 11 1;
#X connect 11 0 29 0;
#X connect 12 0 14 1;
#X connect 13 0 11 0;
#X connect 14 0 13 1;
#X connect 15 0 14 0;
#X connect 16 0 24 0;
#X connect 17 0 18 1;
#X connect 17 0 19 1;
#X connect 18 0 21 1;
#X connect 18 0 26 0;
#X connect 19 0 20 0;
#X connect 20 0 21 0;
#X connect 21 0 27 0;
#X connect 22 0 21 1;
#X connect 23 0 25 0;
#X connect 24 0 25 0;
#X connect 24 1 19 0;
#X connect 24 2 18 0;
#X connect 25 0 8 0;
#X connect 26 0 25 0;
#X connect 27 0 28 0;
#X connect 27 1 22 0;
#X connect 28 0 23 0;
#X connect 30 0 31 0;
#X connect 31 0 33 0;
#X connect 32 0 33 1;
#X connect 33 0 39 0;
#X connect 34 0 39 1;
#X connect 35 0 36 0;
#X connect 36 0 8 0;
#X connect 39 0 35 0;
#X restore 60 210 pd automation.gui;
#N canvas 455 91 527 335 parse.arg.list 0;
#N canvas 305 260 375 202 \$0.parser 0;
#X restore 11 10 pd \$0.parser;
#X obj 166 250 s pd-\$0.parser;
#X msg 127 228 clear;
#X obj 193 8 r \$0.set;
#X obj 146 274 s \$0.get;
#X obj 166 183 list prepend \$0;
#X obj 127 8 loadbang;
#X obj 127 30 until;
#X obj 127 52 f;
#X obj 127 74 + 1;
#X obj 127 116 t b b a;
#X obj 193 30 route 0;
#X obj 193 100 outlet;
#X obj 193 52 b;
#X msg 166 207 obj 19 5 r \$1.get \, obj 19 27 list append \$2 \, obj
19 49 s \$1.set \, connect 0 0 1 0 \, connect 1 0 2 0;
#X msg 166 160 symbol \$1\$2;
#X msg 166 138 list $ \$1;
#X obj 256 51 list prepend;
#X obj 340 51 t a;
#X obj 193 77 list append;
#X connect 2 0 1 0;
#X connect 3 0 11 0;
#X connect 5 0 14 0;
#X connect 6 0 7 0;
#X connect 7 0 8 0;
#X connect 8 0 9 0;
#X connect 9 0 8 1;
#X connect 9 0 10 0;
#X connect 10 0 2 0;
#X connect 10 1 4 0;
#X connect 10 2 16 0;
#X connect 11 0 13 0;
#X connect 11 1 17 0;
#X connect 13 0 7 1;
#X connect 13 0 19 0;
#X connect 14 0 1 0;
#X connect 15 0 5 0;
#X connect 16 0 15 0;
#X connect 17 0 18 0;
#X connect 17 0 19 1;
#X connect 18 0 17 1;
#X connect 19 0 12 0;
#X restore 227 101 pd parse.arg.list;
#X obj 254 145 s \$0.args;
#N canvas 779 312 311 68 NETPD 0;
#X msg 17 9 version 0 1 0;
#N canvas 872 293 303 100 abslist 0;
#X msg 14 8 ungrid;
#X msg 14 30 unrail;
#X msg 14 51 unstep-gui;
#X restore 17 32 pd abslist;
#X restore 456 10 pd NETPD 2 0;
#N canvas 837 479 450 372 automation.output 0;
#X obj 39 35 r \$0.ungrid;
#X obj 39 57 route step;
#X obj 153 11 r \$0.args;
#X obj 153 33 list split 2;
#X obj 187 56 t a a;
#X obj 187 80 list length;
#X obj 39 202 list append;
#X obj 39 104 f;
#X obj 39 80 t b b a;
#X obj 39 124 until;
#X obj 39 152 f;
#X obj 67 152 + 1;
#X msg 77 124 0;
#X obj 39 174 t b a a;
#X obj 39 228 list split;
#X obj 67 279 list append;
#X obj 155 203 *;
#X obj 170 180 r \$0.length;
#X obj 155 225 +;
#X obj 67 301 list trim;
#X text 181 202 add offset;
#X msg 67 250 \$1;
#X obj 67 323 s \$0.outlet;
#X obj 155 246 tabread \$1-unstep/\$2/automation;
#X connect 0 0 1 0;
#X connect 1 0 8 0;
#X connect 2 0 3 0;
#X connect 3 1 4 0;
#X connect 4 0 5 0;
#X connect 4 1 6 1;
#X connect 5 0 7 1;
#X connect 6 0 14 0;
#X connect 7 0 9 0;
#X connect 8 0 7 0;
#X connect 8 1 12 0;
#X connect 8 2 18 1;
#X connect 9 0 10 0;
#X connect 10 0 11 0;
#X connect 10 0 13 0;
#X connect 11 0 10 1;
#X connect 12 0 10 1;
#X connect 13 0 6 0;
#X connect 13 1 14 1;
#X connect 13 2 16 0;
#X connect 14 1 21 0;
#X connect 15 0 19 0;
#X connect 16 0 18 0;
#X connect 17 0 16 1;
#X connect 18 0 23 0;
#X connect 19 0 22 0;
#X connect 21 0 15 0;
#X connect 23 0 15 1;
#X restore 227 61 pd automation.output;
#N canvas 1048 293 184 226 note.output 0;
#X obj 13 13 r \$0.ungrid;
#X obj 13 35 route hit;
#X obj 13 57 * -1;
#X obj 13 80 + 87;
#X msg 13 103 note \$1;
#X obj 13 127 s \$0.outlet;
#X connect 0 0 1 0;
#X connect 1 0 2 0;
#X connect 2 0 3 0;
#X connect 3 0 4 0;
#X connect 4 0 5 0;
#X restore 227 39 pd note.output;
#X obj 21 396 r \$0.outlet;
#X obj 21 418 outlet;
#N canvas 782 88 447 393 master->ungrid 0;
#X obj 19 357 s \$0.ungrid.r;
#X obj 19 14 r master;
#X obj 19 36 route step;
#N canvas 561 92 351 333 stepnumber->commands 0;
#X msg 258 223 next;
#X msg 191 197 rewind;
#X msg 285 244 skip;
#X obj 285 173 - 1;
#X obj 285 195 until;
#X obj 83 175 sel 1;
#X obj 258 152 t b a;
#X obj 98 80 - -1;
#X obj 164 123 moses 0;
#X msg 83 203 next;
#X obj 164 168 f;
#X obj 164 146 t b b;
#X msg 229 97 -1;
#X obj 83 102 f;
#X obj 30 87 t a;
#X obj 83 39 t b f f;
#X obj 137 278 t a a;
#X obj 83 13 inlet;
#X obj 137 300 outlet;
#X connect 0 0 16 0;
#X connect 1 0 16 0;
#X connect 2 0 16 0;
#X connect 3 0 4 0;
#X connect 4 0 2 0;
#X connect 5 0 9 0;
#X connect 5 1 8 0;
#X connect 6 0 0 0;
#X connect 6 1 3 0;
#X connect 7 0 13 1;
#X connect 8 0 11 0;
#X connect 8 1 6 0;
#X connect 9 0 16 0;
#X connect 10 0 14 0;
#X connect 11 0 10 0;
#X connect 11 1 12 0;
#X connect 11 1 1 0;
#X connect 12 0 7 1;
#X connect 13 0 5 0;
#X connect 14 0 15 0;
#X connect 15 0 13 0;
#X connect 15 1 7 1;
#X connect 15 2 10 1;
#X connect 15 2 7 0;
#X connect 16 0 18 0;
#X connect 17 0 15 0;
#X restore 19 214 pd stepnumber->commands;
#X obj 52 64 r \$0.length;
#X obj 19 87 mod 32;
#X connect 1 0 2 0;
#X connect 2 0 5 0;
#X connect 3 0 0 0;
#X connect 4 0 5 1;
#X connect 5 0 3 0;
#X restore 227 17 pd master->ungrid;
#X msg 227 166 16 40;
#X text 270 167 init size;
#X obj 227 124 t b a;
#X obj 60 233 table \$1-unstep/\$2/automation;
#N canvas 642 116 610 503 netpdization 0;
#X obj 26 22 netpd-dump \$1 4;
#X obj 26 66 s \$0.ungrid.r;
#X msg 26 44 dump;
#X obj 26 110 r \$0.ungrid;
#X obj 26 250 s \$0.ungrid.r;
#X text 26 1 -- ungrid --;
#X obj 75 298 s \$0.reinit;
#X obj 336 21 netpd-dump \$1 5;
#X text 340 2 -- automation --;
#X obj 351 45 r \$1-unstep/\$2/automation;
#X obj 351 67 route resize;
#X obj 336 93 f;
#N canvas 585 192 253 256 dump.array 0;
#X obj 39 71 until;
#X obj 39 100 f;
#X obj 92 114 + 1;
#X msg 39 168 add2 \$1;
#N canvas 293 171 466 266 messagebox 0;
#X obj 41 36 inlet;
#X msg 41 58 0 0 0 0 0 0 0 0 0 0 0 0 0 0 0 0 0 0 0 0 0 0 0 0 0 0 0
0 0 0 0 0 0 0 0 0 0 0 0 0 0 0 0 0 0 0 0 0 0 0 0 0 0 0 0 0 0 0 0 0 0
0 0 0 0;
#X obj 41 230 outlet;
#X connect 0 0 1 0;
#X connect 1 0 2 0;
#X restore 20 197 pd messagebox;
#X obj 39 122 t a a;
#X obj 39 146 tabread \$1-unstep/\$2/automation;
#X obj 20 48 t b a b;
#X msg 78 72 0;
#X msg 95 169 set 0;
#X obj 20 23 inlet;
#X obj 20 220 outlet;
#X connect 0 0 1 0;
#X connect 1 0 5 0;
#X connect 2 0 1 1;
#X connect 3 0 4 0;
#X connect 4 0 11 0;
#X connect 5 0 6 0;
#X connect 5 1 2 0;
#X connect 6 0 3 0;
#X connect 7 0 4 0;
#X connect 7 1 0 0;
#X connect 7 2 8 0;
#X connect 7 2 9 0;
#X connect 8 0 1 1;
#X connect 9 0 4 0;
#X connect 10 0 7 0;
#X restore 336 117 pd dump.array;
#X obj 336 141 netpd_s \$1 unstep/\$2/automation;
#X obj 336 170 netpd_r \$1 unstep/\$2/automation;
#X obj 336 193 s \$1-unstep/\$2/automation;
#X obj 26 174 netpd_s \$1 unstep/\$2/cell;
#X obj 26 132 route cell create;
#X obj 75 154 netpd_s \$1 unstep/\$2/create;
#X obj 26 206 netpd_r \$1 unstep/\$2/cell;
#X msg 26 228 cell \$1 \$2 \$3;
#X obj 75 274 netpd_r \$1 unstep/\$2/create;
#X obj 26 323 r \$0.reinit;
#X obj 26 344 t a a;
#X msg 26 412 set \$1;
#X msg 53 366 set \$2;
#X obj 53 388 s \$0.ysize.r;
#X obj 26 434 s \$0.xsize.r;
#X obj 147 330 r \$0.doit;
#X obj 173 373 r \$0.ysize;
#X obj 162 351 r \$0.xsize;
#X obj 147 373 f;
#X obj 147 395 pack;
#X msg 147 417 create \$1 \$2;
#X obj 147 439 s \$0.ungrid;
#X connect 0 0 2 0;
#X connect 2 0 1 0;
#X connect 3 0 17 0;
#X connect 7 0 11 0;
#X connect 9 0 10 0;
#X connect 10 0 11 1;
#X connect 11 0 12 0;
#X connect 12 0 13 0;
#X connect 14 0 15 0;
#X connect 17 0 16 0;
#X connect 17 1 18 0;
#X connect 19 0 20 0;
#X connect 20 0 4 0;
#X connect 21 0 6 0;
#X connect 22 0 23 0;
#X connect 23 0 24 0;
#X connect 23 1 25 0;
#X connect 24 0 27 0;
#X connect 25 0 26 0;
#X connect 28 0 31 0;
#X connect 29 0 32 1;
#X connect 30 0 31 1;
#X connect 31 0 32 0;
#X connect 32 0 33 0;
#X connect 33 0 34 0;
#X restore 440 33 pd netpdization;
#X obj 21 139 t a a a;
#X obj 21 84 t a a;
#X obj 21 55 r \$0.reinit;
#X msg 21 116 \$1 \$2;
#X obj 85 138 list prepend create;
#X obj 85 160 list trim;
#X obj 227 191 s \$0.reinit;
#X obj 21 9 unstep-gui \$1 \$2;
#X obj 227 257 inlet;
#X obj 227 279 route vis;
#N canvas 429 295 345 68 \$1-\$2-unstep-settings 1;
#X obj 11 25 nbx 3 14 1 999 0 0 \$0.xsize \$0.xsize.r x 40 10 0 10
-262144 -1 -1 32 256;
#X obj 11 39 nbx 3 14 1 999 0 0 \$0.ysize \$0.ysize.r y 40 10 0 10
-262144 -1 -1 40 256;
#X obj 11 11 bng 14 250 50 0 \$0.doit \$0.doit.r reset 16 7 0 10 -262144
-1 -1;
#X restore 227 432 pd \$1-\$2-unstep-settings;
#X obj 227 323 t a a;
#X obj 227 371 s pd-\$1-\$2-unstep;
#X msg 227 301 vis \$1;
#X obj 254 349 s pd-\$1-\$2-unstep-settings;
#X connect 0 0 1 0;
#X connect 3 0 0 0;
#X connect 5 0 4 0;
#X connect 7 0 8 0;
#X connect 10 0 20 0;
#X connect 15 0 16 0;
#X connect 18 0 29 0;
#X connect 20 0 18 0;
#X connect 20 1 11 0;
#X connect 23 0 7 0;
#X connect 23 1 6 0;
#X connect 23 2 9 0;
#X connect 24 0 26 0;
#X connect 24 1 27 0;
#X connect 25 0 24 0;
#X connect 26 0 23 0;
#X connect 27 0 28 0;
#X connect 28 0 2 0;
#X connect 31 0 32 0;
#X connect 32 0 36 0;
#X connect 34 0 35 0;
#X connect 34 1 37 0;
#X connect 36 0 34 0;
