#N canvas 610 175 677 498 10;
#N canvas 0 0 359 312 clock 0;
#X obj 21 79 metro;
#X obj 21 102 f;
#X obj 21 148 t a a;
#X obj 21 125 mod 1000;
#X obj 99 123 + 1;
#X floatatom 76 195 5 0 0 0 - - - 0;
#X msg 178 195 tempo \$1 permin;
#X obj 178 37 loadbang;
#X msg 178 60 120;
#X obj 21 49 t a a, f 18;
#X msg 21 197 pos \$1;
#X msg 126 196 run \$1;
#X obj 21 229 t a;
#X obj 21 252 outlet;
#X obj 21 21 inlet;
#X obj 178 88 outlet;
#X obj 178 144 inlet;
#X obj 88 22 inlet;
#X msg 88 77 0;
#X connect 0 0 1 0;
#X connect 1 0 3 0;
#X connect 2 0 10 0;
#X connect 2 1 4 0;
#X connect 2 1 5 0;
#X connect 3 0 2 0;
#X connect 4 0 1 1;
#X connect 6 0 0 0;
#X connect 6 0 12 0;
#X connect 7 0 8 0;
#X connect 8 0 15 0;
#X connect 9 0 0 0;
#X connect 9 1 11 0;
#X connect 10 0 12 0;
#X connect 11 0 12 0;
#X connect 12 0 13 0;
#X connect 14 0 9 0;
#X connect 16 0 6 0;
#X connect 17 0 18 0;
#X connect 18 0 1 1;
#X restore 435 148 pd clock;
#X floatatom 518 151 5 0 0 0 - - - 0;
#X obj 435 110 tgl 18 0 empty empty empty 0 -9 0 10 #fcfcfc #000000 #000000 0 1;
#X obj 504 111 bng 18 250 50 0 empty empty empty 0 -9 0 10 #fcfcfc #000000 #000000;
#X text 522 114 reset;
#X text 456 110 run;
#X text 552 151 tempo (bpm);
#X obj 435 171 t a a;
#X obj 462 193 list;
#X listbox 462 216 20 0 0 0 - - - 0;
#X obj 17 397 untik-event-scheduler;
#X obj 17 455 print SCHEDULED_MESSAGE;
#X obj 140 429 print MISSED;
#X text 16 3 untik-event-scheduler - schedule messages to given timestamp;
#X text 18 37 untik-event-scheduler accepts messages whose first element are timestamps specifying when the message should be output;
#X msg 17 186 81.1111 foo bar \, 28.838 one two three \, 43.09 0 0 1 1 \, 78 bli bla \, 50 yello \, 81 green blue;
#X text 28 239 Scheduled messages do not to be in order and can be set at any time.;
#X obj 435 268 t a;
#X text 26 275 Messages whose timestamp already has passed are output to the right outlet.;
#X msg 57 336 11.234 correct horse battery staple;
#X msg 74 363 this message has no timestamp;
#X text 21 77 It expects clock information on its right inlet. It requires the following clock parameters:;
#X text 30 108 - run 0|1;
#X text 30 122 - tempo <float> <type>;
#X text 30 136 - pos <float>;
#X msg 42 311 66.6666 two thirds in percent;
#N canvas 791 534 387 60 NETPD 0;
#X msg 12 12 version 0 1 0;
#X restore 560 465 pd NETPD 2 0;
#X connect 0 0 7 0;
#X connect 0 1 1 0;
#X connect 1 0 0 2;
#X connect 2 0 0 0;
#X connect 3 0 0 1;
#X connect 7 0 17 0;
#X connect 7 1 8 0;
#X connect 8 0 9 0;
#X connect 10 0 11 0;
#X connect 10 1 12 0;
#X connect 15 0 10 0;
#X connect 17 0 10 1;
#X connect 19 0 10 0;
#X connect 20 0 10 0;
#X connect 25 0 10 0;
