#N canvas 928 309 534 528 10;
#X obj 23 20 hsl 70 24 0 127 0 0 \$0.click empty empty -2 -10 0 12 #fcfcfc #000000 #000000 0 1;
#X obj 20 20 cnv 20 75 24 empty \$0.label pattern0 4 12 0 14 #8080a0 #bcbcdc 0;
#X obj 31 68 r \$0.click;
#X obj 31 91 sel 0;
#X obj 71 92 t a;
#X obj 31 117 f \$2;
#X obj 334 19 loadbang;
#X obj 334 42 \$2;
#X msg 334 65 label pattern\$1;
#X obj 334 89 s \$0.label;
#X obj 31 164 s \$1.patsel;
#X msg 31 141 select \$1;
#X obj 188 55 route \$2;
#X obj 188 78 route setlabel;
#X msg 188 123 label \$1;
#X obj 188 146 s \$0.label;
#X obj 188 100 symbol;
#X msg 67 323 #606080;
#X msg 125 330 #8080a0;
#X msg 179 331 #bcbcdc;
#X obj 113 470 s \$0.label;
#X msg 113 445 color \$1 0 \$2;
#X msg 299 328 #606080;
#X msg 242 324 #8080a0;
#X obj 304 398 symbol;
#X obj 130 192 route select;
#X obj 130 234 sel \$2;
#N canvas 1344 307 406 49 NETPD 0;
#X msg 23 21 version 0 0 0;
#X restore 424 18 pd NETPD 2 0;
#X msg 355 328 #bcbcdc;
#X msg 411 327 #ccffcc;
#X msg 409 356 #00ff00;
#X obj 130 169 r \$1.patsel;
#X obj 188 32 r \$1.patsel;
#X obj 376 168 r \$1.pat.en;
#X obj 376 191 route enable;
#X obj 130 213 t a a;
#X obj 319 185 == \$2;
#X obj 319 234 spigot 0;
#X obj 343 282 sel 0 1;
#X obj 208 357 t b a;
#X obj 165 262 b;
#X obj 113 422 list append #bcbcdc;
#X obj 114 386 symbol #606080;
#X connect 2 0 3 0;
#X connect 3 0 5 0;
#X connect 3 1 4 0;
#X connect 4 0 3 1;
#X connect 5 0 11 0;
#X connect 6 0 7 0;
#X connect 7 0 8 0;
#X connect 8 0 9 0;
#X connect 11 0 10 0;
#X connect 12 0 13 0;
#X connect 13 0 16 0;
#X connect 14 0 15 0;
#X connect 16 0 14 0;
#X connect 17 0 42 0;
#X connect 18 0 42 0;
#X connect 19 0 42 0;
#X connect 21 0 20 0;
#X connect 22 0 24 0;
#X connect 23 0 24 0;
#X connect 24 0 39 0;
#X connect 25 0 35 0;
#X connect 26 0 17 0;
#X connect 26 1 40 0;
#X connect 28 0 24 0;
#X connect 29 0 24 0;
#X connect 30 0 24 0;
#X connect 31 0 25 0;
#X connect 32 0 12 0;
#X connect 33 0 34 0;
#X connect 34 0 37 0;
#X connect 35 0 26 0;
#X connect 35 1 36 0;
#X connect 36 0 37 1;
#X connect 37 0 38 0;
#X connect 38 0 28 0;
#X connect 38 1 29 0;
#X connect 39 0 42 0;
#X connect 39 1 41 1;
#X connect 40 0 18 0;
#X connect 41 0 21 0;
#X connect 42 0 41 0;
#X coords 0 -1 1 1 75 24 2 20 20;
