#N canvas 750 679 679 340 10;
#N canvas 972 22 450 300 template 0;
#X obj 44 70 print patted-template;
#X obj 60 98 plot \$0.marks.arr 0 20 20 20 30;
#X obj 43 42 struct \$0.patted float x float y array \$0.marks.arr \$0.mark;
#X connect 2 0 0 0;
#X restore 82 68 pd template;
#N canvas 2061 452 450 300 data 0;
#X scalar 1360.patted 20 20 \; 0 \; 20 \; 40 \; 60 \; 80 \; \;;
#X restore 81 107 pd data;
#X obj 267 118 s pd-data;
#X obj 244 194 pointer;
#X msg 223 158 traverse pd-data \, next;
#X floatatom 275 259 5 0 0 0 - - - 0;
#X obj 46 164 element;
#X floatatom 42 306 5 0 0 0 - - - 0;
#X obj 32 219 hradio 20 1 0 8 empty empty empty 0 -10 0 12 #fcfcfc #000000 #000000 0;
#X obj 428 44 array set gaggi;
#X obj 425 268 instruments/abs/rh_list_sort;
#X msg 365 208 0;
#X obj 471 297 print;
#N canvas 1430 28 450 300 element-template 0;
#X obj 47 119 drawpolygon 866 1 0 10 0 0;
#X obj 50 85 drawpolygon 755 1 0 -10 0 0;
#X obj 22 56 struct \$0.mark float x;
#X obj 25 160 print mark-template;
#X connect 2 0 3 0;
#X restore 88 27 pd element-template;
#X msg 426 121 0 20 40 60 80;
#X obj 42 254 element \$0.patted \$0.marks.arr;
#X msg 264 86 scalar \$1.patted 20 20;
#X obj 263 62 f \$0;
#X obj 262 32 bng 18 250 50 0 empty empty empty 0 -9 0 10 #fcfcfc #000000 #000000;
#X obj 261 301 setsize \$0.patted \$0.marks.arr;
#X obj 403 175 array set -s \$0.patted \$0.marks.arr -f \$0.mark x;
#X obj 365 239 array get -s \$0.patted \$0.marks.arr -f \$0.mark x;
#X obj 42 281 get \$0.mark x;
#N canvas 792 338 450 300 NETPD 0;
#X msg 19 13 version 0 0 0;
#X restore 565 23 pd NETPD 2 0;
#X connect 3 0 15 1;
#X connect 3 0 19 1;
#X connect 3 0 20 2;
#X connect 3 0 21 2;
#X connect 4 0 3 0;
#X connect 5 0 19 0;
#X connect 8 0 15 0;
#X connect 10 0 12 0;
#X connect 11 0 21 0;
#X connect 14 0 20 0;
#X connect 15 0 22 0;
#X connect 16 0 2 0;
#X connect 17 0 16 0;
#X connect 18 0 17 0;
#X connect 21 0 10 0;
#X connect 22 0 7 0;
