#N canvas 507 229 881 534 10;
#N canvas 792 338 450 300 NETPD 0;
#X msg 19 13 version 0 0 0;
#N canvas 1247 187 450 300 abslist 0;
#X msg 25 19 untik-pattern-editor-display;
#X restore 18 43 pd abslist;
#X restore 635 19 pd NETPD 2 0;
#X msg 25 130 600 \$1;
#X obj 25 153 /;
#X obj 245 207 f \$0;
#X msg 245 230 traverse pd-\$1.display \, next;
#X obj 245 256 pointer;
#X msg 505 255 clear;
#X obj 466 393 s pd-\$0.display;
#X obj 466 301 list prepend \$0;
#X obj 466 232 t a b, f 7;
#X obj 505 281 s pd-\$0.display;
#X obj 25 176 t a b a, f 74;
#X obj 25 101 t a a, f 11;
#X obj 25 198 list append;
#X obj 56 272 until;
#X obj 56 295 f;
#X obj 56 318 t a a;
#X obj 98 299 +;
#X msg 127 247 0;
#X obj 56 249 swap, f 10;
#X obj 25 401 list store;
#X msg 56 341 append \$1;
#X obj 25 359 t b b;
#X obj 25 220 t b a b a, f 26;
#X msg 178 295 \$2;
#X obj 466 208 * 0.5;
#X text 634 324 x y size clr editable;
#X obj 25 76 inlet;
#X obj 20 20 untik-pattern-editor-display \$0.display;
#X obj 20 20 cnv 18 600 40 empty empty empty 20 12 0 10 #ece3ff #404040 0;
#N canvas 1375 19 450 300 mutable-line-tepmlate 0;
#X obj 25 160 print mark-template;
#X obj 22 56 struct \$0.mark float x float size;
#X obj 45 117 drawpolygon 804 1 0 -20 0 0;
#X obj 51 85 drawpolygon 408 1 0 20 0 0;
#X connect 1 0 0 0;
#X restore 634 58 pd mutable-line-tepmlate;
#N canvas 1375 19 450 300 immutable-line-tepmlate 0;
#X obj 25 160 print mark-template;
#X obj 49 83 drawpolygon -x 666 1 0 20 0 0;
#X obj 45 117 drawpolygon -x 666 1 0 -20 0 0;
#X obj 22 56 struct \$0.rule float x float size;
#X connect 3 0 0 0;
#X restore 634 79 pd immutable-line-tepmlate;
#X msg 466 369 scalar \$1.mutgrid \$2 20 20;
#X obj 178 392 setsize \$0.mutgrid \$0.marks.arr;
#X obj 25 475 array set -s \$0.mutgrid \$0.marks.arr -f \$0.mark x;
#N canvas 967 19 450 300 mutgrid-template 0;
#X obj 44 77 print patted-template;
#X obj 45 102 plot \$0.marks.arr 666 0 0 0 0;
#X obj 43 41 struct \$0.mutgrid array \$0.marks.arr \$0.mark float x float y float size;
#X connect 2 0 0 0;
#X restore 634 123 pd mutgrid-template;
#N canvas 967 19 450 300 immutgrid-template 1;
#X obj 43 41 struct \$0.immutgrid array \$0.rules.arr \$0.rule float x float y float size;
#X obj 42 79 plot \$0.rules.arr 666 0 0 0 0;
#X restore 634 101 pd immutgrid-template;
#X obj 466 324 t a a;
#X msg 493 347 scalar \$1.immutgrid \$2 20 20;
#X obj 205 363 setsize \$0.immutgrid \$0.rules.arr;
#X obj 52 447 array set -s \$0.immutgrid \$0.rules.arr -f \$0.rule x;
#X obj 25 424 t a a;
#X obj 178 332 t a a;
#X connect 1 0 2 0;
#X connect 2 0 11 0;
#X connect 3 0 4 0;
#X connect 4 0 5 0;
#X connect 5 0 34 2;
#X connect 5 0 33 1;
#X connect 6 0 10 0;
#X connect 8 0 37 0;
#X connect 9 0 8 0;
#X connect 9 1 6 0;
#X connect 11 0 13 0;
#X connect 11 1 3 0;
#X connect 11 2 25 0;
#X connect 12 0 1 0;
#X connect 12 1 13 1;
#X connect 13 0 23 0;
#X connect 14 0 15 0;
#X connect 15 0 16 0;
#X connect 16 0 21 0;
#X connect 16 1 17 0;
#X connect 17 0 15 1;
#X connect 18 0 15 1;
#X connect 19 0 14 0;
#X connect 19 1 17 1;
#X connect 20 0 41 0;
#X connect 21 0 20 0;
#X connect 22 0 20 1;
#X connect 22 1 20 0;
#X connect 23 0 22 0;
#X connect 23 1 19 0;
#X connect 23 2 18 0;
#X connect 23 3 24 0;
#X connect 24 0 42 0;
#X connect 25 0 9 0;
#X connect 27 0 12 0;
#X connect 32 0 7 0;
#X connect 37 0 32 0;
#X connect 37 1 38 0;
#X connect 41 0 34 0;
#X connect 42 0 33 0;
#X coords 0 -1 1 1 600 40 2 20 20;
