#N canvas 863 277 446 442 10;
#N canvas 1473 663 341 97 NETPD 0;
#N canvas 1010 495 404 138 abslist 0;
#X msg 12 14 untik-clock-consumer-help;
#X restore 12 47 pd abslist;
#X msg 6 12 version 0 0 1;
#X restore 8 5 pd NETPD 2 0;
#X obj 234 8 text define \$0.shortcuts;
#X obj 13 401 outlet;
#X obj 10 38 inlet;
#X obj 10 61 s \$0.inlet;
#N canvas 1407 718 329 284 get.available.clocks 0;
#N canvas 1109 466 550 541 get.clocklist 0;
#X obj 15 18 r untik;
#X obj 15 41 route update_available_clocklist;
#X obj 15 64 b;
#X msg 15 92 refresh_clocklist;
#X obj 77 147 s untik;
#X obj 78 253 spigot;
#X obj 78 171 r untik;
#X obj 78 194 route update_clocklist;
#X obj 15 115 t b b a b, f 16;
#X msg 108 224 1;
#X msg 46 181 0;
#X obj 78 277 list split 2;
#X obj 112 302 list prepend append;
#X obj 112 325 list trim;
#X obj 42 413 list store;
#X obj 15 358 t b b;
#X obj 57 494 outlet;
#X obj 144 142 text delete \$0.shortcuts;
#X msg 144 120 -1;
#X msg 105 365 1e+15;
#X obj 78 387 text set \$0.shortcuts;
#X obj 78 341 t a b;
#X text 301 175 initialize untik main;
#X obj 269 15 loadbang;
#X obj 269 36 del 0;
#X obj 269 59 t b b;
#X msg 296 381 list u:main;
#X obj 311 448 s \$3;
#X msg 311 418 setlabel \$1;
#X obj 42 436 route bang;
#X obj 139 16 inlet, f 6;
#X connect 0 0 1 0;
#X connect 1 0 2 0;
#X connect 2 0 3 0;
#X connect 3 0 8 0;
#X connect 5 0 11 0;
#X connect 6 0 7 0;
#X connect 7 0 5 0;
#X connect 8 0 15 0;
#X connect 8 1 10 0;
#X connect 8 2 4 0;
#X connect 8 3 9 0;
#X connect 8 3 18 0;
#X connect 9 0 5 1;
#X connect 10 0 5 1;
#X connect 11 0 21 0;
#X connect 11 1 12 0;
#X connect 12 0 13 0;
#X connect 13 0 14 0;
#X connect 14 0 29 0;
#X connect 15 0 14 1;
#X connect 15 1 14 0;
#X connect 18 0 17 0;
#X connect 19 0 20 1;
#X connect 21 0 20 0;
#X connect 21 1 19 0;
#X connect 23 0 24 0;
#X connect 24 0 25 0;
#X connect 25 0 3 0;
#X connect 25 1 26 0;
#X connect 26 0 16 0;
#X connect 26 0 28 0;
#X connect 28 0 27 0;
#X connect 29 1 16 0;
#X connect 30 0 3 0;
#X restore 107 83 pd get.clocklist;
#X obj 107 171 s \$3;
#X obj 107 123 list prepend items;
#X obj 107 146 list trim;
#X obj 14 8 r \$0.inlet;
#X obj 14 31 route clocklist;
#X obj 14 54 t b b, f 16;
#X obj 14 111 list append;
#X obj 14 202 list prepend clocklist;
#X obj 14 225 list trim;
#X obj 14 248 s \$0.outlet;
#X connect 0 0 2 0;
#X connect 0 0 7 1;
#X connect 2 0 3 0;
#X connect 3 0 1 0;
#X connect 4 0 5 0;
#X connect 5 0 6 0;
#X connect 6 0 7 0;
#X connect 6 1 0 0;
#X connect 7 0 8 0;
#X connect 8 0 9 0;
#X connect 9 0 10 0;
#X restore 12 104 pd get.available.clocks;
#X obj 13 377 r \$0.outlet;
#N canvas 1368 729 494 483 select.clock 0;
#X obj 53 177 s \$3;
#X obj 12 17 r \$3;
#X obj 12 40 route selected;
#X obj 12 106 netpd_a \$1 \$2;
#X obj 12 81 symbol;
#X obj 12 129 list;
#X obj 12 152 t a a;
#X msg 53 153 setlabel \$1;
#X obj 241 9 loadbang;
#X msg 241 53 symbol u:main;
#X msg 241 76 set \$1;
#X obj 331 51 text set \$0.shortcuts;
#X msg 331 29 list untik u;
#X obj 241 32 t b b;
#X obj 115 15 r \$0.inlet;
#X obj 115 38 route select;
#X obj 12 257 text search \$0.shortcuts 1;
#X obj 11 281 route -1;
#X obj 56 331 text get \$0.shortcuts 1;
#X msg 56 307 \$1 0 1;
#X obj 12 232 unpack s s;
#X msg 11 358 symbol ____;
#X obj 12 209 netpd-symbol2list :;
#X obj 11 386 pack s s;
#X obj 38 430 s \$0.clock.def;
#X obj 11 408 t a a;
#X obj 11 451 s \$0.clock.def.post;
#X connect 1 0 2 0;
#X connect 2 0 4 0;
#X connect 3 0 5 0;
#X connect 4 0 3 0;
#X connect 5 0 6 0;
#X connect 6 0 22 0;
#X connect 6 1 7 0;
#X connect 7 0 0 0;
#X connect 8 0 13 0;
#X connect 9 0 10 0;
#X connect 10 0 3 0;
#X connect 12 0 11 0;
#X connect 13 0 9 0;
#X connect 13 1 12 0;
#X connect 14 0 15 0;
#X connect 15 0 4 0;
#X connect 16 0 17 0;
#X connect 17 0 21 0;
#X connect 17 1 19 0;
#X connect 18 0 23 0;
#X connect 19 0 18 0;
#X connect 20 0 16 0;
#X connect 20 1 23 1;
#X connect 21 0 23 0;
#X connect 22 0 20 0;
#X connect 23 0 25 0;
#X connect 25 0 26 0;
#X connect 25 1 24 0;
#X restore 13 170 pd select.clock;
#X text 115 170 select;
#N canvas 1533 659 436 259 get 0;
#X obj 150 110 r \$0.clock.def;
#X obj 18 108 list prepend _ _;
#X obj 18 10 r \$0.inlet;
#X obj 18 33 route get;
#X obj 18 136 list prepend request;
#X obj 18 81 list prepend \$1-\$2;
#X obj 18 57 list prepend get;
#X obj 18 159 list trim;
#X obj 18 188 s untik;
#X connect 0 0 1 1;
#X connect 1 0 4 0;
#X connect 2 0 3 0;
#X connect 3 0 6 0;
#X connect 4 0 7 0;
#X connect 5 0 1 0;
#X connect 6 0 5 0;
#X connect 7 0 8 0;
#X restore 13 237 pd get;
#N canvas 881 97 421 196 receive.clock.data 0;
#X obj 15 12 r untik;
#X obj 15 35 route clock;
#X obj 15 58 route untik;
#X obj 15 81 route main, f 18;
#X obj 102 48 unpack s s;
#X obj 102 23 r \$0.clock.def;
#X obj 15 106 s \$0.outlet;
#X connect 0 0 1 0;
#X connect 1 0 2 0;
#X connect 2 0 3 0;
#X connect 3 0 6 0;
#X connect 4 0 2 1;
#X connect 4 1 3 1;
#X connect 5 0 4 0;
#X restore 13 202 pd receive.clock.data;
#N canvas 1511 776 232 266 response 0;
#X obj 8 10 r untik;
#X obj 8 39 route response;
#X obj 8 140 route untik;
#X obj 8 163 route main, f 18;
#X obj 71 112 unpack s s;
#X obj 71 87 r \$0.clock.def;
#X obj 8 188 route \$1-\$2;
#X obj 8 219 s \$0.outlet;
#X connect 0 0 1 0;
#X connect 1 0 2 0;
#X connect 2 0 3 0;
#X connect 3 0 6 0;
#X connect 4 0 2 1;
#X connect 4 1 3 1;
#X connect 5 0 4 0;
#X connect 6 0 7 0;
#X restore 14 305 pd response;
#N canvas 1533 659 339 366 schedule 0;
#X obj 126 180 r \$0.clock.def;
#X obj 18 179 list prepend _ _;
#X obj 18 10 r \$0.inlet;
#X obj 18 207 list prepend request;
#X obj 18 230 list trim;
#X obj 18 33 route schedule;
#X obj 18 253 s untik;
#X obj 18 56 list split 1;
#X obj 18 131 list append;
#X obj 160 105 r \$0.clock.def;
#X obj 52 104 list prepend _ _;
#X obj 17 155 list prepend \$1-\$2 schedule;
#X obj 52 80 list prepend \$1-\$2;
#X connect 0 0 1 1;
#X connect 1 0 3 0;
#X connect 2 0 5 0;
#X connect 3 0 4 0;
#X connect 4 0 6 0;
#X connect 5 0 7 0;
#X connect 7 0 8 0;
#X connect 7 1 12 0;
#X connect 8 0 11 0;
#X connect 9 0 10 1;
#X connect 10 0 8 1;
#X connect 11 0 1 0;
#X connect 12 0 10 0;
#X restore 13 271 pd schedule;
#X obj 233 202 r \$0.clock.def.post;
#X obj 233 225 b;
#X msg 233 248 get tempo \, get run;
#X obj 233 273 s \$0.inlet;
#X text 231 177 refresh on change;
#X connect 3 0 4 0;
#X connect 6 0 2 0;
#X connect 13 0 14 0;
#X connect 14 0 15 0;
#X connect 15 0 16 0;
