#N canvas 1044 414 638 462 10;
#N canvas 1285 179 464 235 NETPD 0;
#X msg 13 8 version 0 0 1;
#N canvas 1496 140 460 69 abs 0;
#X msg 11 10 untik-pattern-player;
#X restore 13 36 pd abs;
#X restore 12 10 pd NETPD 2 0;
#X obj 11 208 untik-pattern-player;
#X obj 11 49 r \$1.untik;
#X obj 190 15 r \$1.pats.o.2;
#X obj 190 38 route set;
#X obj 190 61 route \$2;
#X obj 190 93 list split 2;
#X obj 224 117 route bang;
#X msg 190 175 symbol \$2;
#X obj 281 142 t a b;
#X msg 308 166 1;
#X msg 224 140 0;
#X obj 11 311 spigot 0;
#X obj 11 336 list prepend _;
#X obj 11 399 list trim;
#X obj 11 376 list prepend clock;
#X obj 11 421 s \$1.untik;
#X obj 374 154 r \$1.pats.o.2;
#X obj 374 177 route fromlist;
#X obj 374 200 b;
#X obj 374 223 del 0;
#X obj 374 246 f \$2;
#X text 372 126 load correctly after dump;
#X obj 375 271 text get __bla__;
#X obj 493 222 pdcontrol;
#X msg 493 195 args 1;
#X msg 493 246 symbol \$1-patterns;
#X obj 493 172 loadbang;
#X obj 375 294 list prepend -1;
#X obj 11 72 t a a;
#X obj 23 104 route run;
#X msg 23 163 run \$1;
#X obj 189 206 s \$0.clockname;
#X obj 92 287 r \$0.clockname;
#X obj 23 139 f;
#N canvas 1240 682 658 377 tempo&request 0;
#X obj 18 9 inlet;
#X obj 18 236 outlet;
#X obj 18 32 route tempo;
#X msg 18 55 \$1;
#X obj 190 15 r \$1.pats.o.2;
#X obj 190 38 route set;
#X obj 190 61 route \$2;
#X obj 190 85 list split 2;
#X obj 224 108 list split 1;
#X obj 258 131 list length;
#X obj 224 239 pack f f;
#X obj 18 112 f;
#X obj 61 85 t b a;
#X msg 18 211 tempo \$1 permin;
#X obj 88 131 /;
#X obj 18 158 *;
#X obj 224 155 change -1;
#X obj 285 208 change -1;
#X obj 411 28 r \$1.untik;
#X obj 479 74 r \$0.clockname;
#X obj 411 74 route ____;
#X obj 18 186 f;
#X obj 411 142 b;
#X obj 411 244 outlet;
#X obj 411 220 b;
#X obj 263 185 t b a;
#X obj 411 51 route get;
#X obj 411 107 route tempo run pos;
#X obj 482 201 b;
#X obj 482 224 outlet;
#X obj 123 219 r \$1.untik;
#X obj 123 242 route resync;
#X msg 88 108 \$2 \$1;
#X obj 123 265 *;
#X msg 123 289 resync \$1;
#X connect 0 0 2 0;
#X connect 2 0 3 0;
#X connect 3 0 11 0;
#X connect 4 0 5 0;
#X connect 5 0 6 0;
#X connect 6 0 7 0;
#X connect 7 1 8 0;
#X connect 8 0 16 0;
#X connect 8 1 9 0;
#X connect 9 0 25 0;
#X connect 10 0 12 0;
#X connect 11 0 15 0;
#X connect 12 0 11 0;
#X connect 12 1 32 0;
#X connect 13 0 1 0;
#X connect 14 0 15 1;
#X connect 14 0 33 1;
#X connect 15 0 21 0;
#X connect 16 0 10 0;
#X connect 17 0 10 1;
#X connect 18 0 26 0;
#X connect 19 0 20 1;
#X connect 20 0 27 0;
#X connect 21 0 13 0;
#X connect 22 0 21 0;
#X connect 24 0 23 0;
#X connect 25 0 10 0;
#X connect 25 1 17 0;
#X connect 26 0 20 0;
#X connect 27 0 22 0;
#X connect 27 1 24 0;
#X connect 27 2 28 0;
#X connect 28 0 29 0;
#X connect 30 0 31 0;
#X connect 31 0 33 0;
#X connect 32 0 14 0;
#X connect 33 0 34 0;
#X connect 34 0 1 0;
#X restore 86 102 pd tempo&request;
#X obj 11 231 t a a;
#X obj 56 241 route pos;
#X obj 43 262 f;
#X msg 43 285 pos \$1;
#X connect 1 0 36 0;
#X connect 2 0 29 0;
#X connect 3 0 4 0;
#X connect 4 0 5 0;
#X connect 5 0 6 0;
#X connect 6 0 8 0;
#X connect 6 1 7 0;
#X connect 7 0 11 0;
#X connect 7 1 9 0;
#X connect 8 0 32 0;
#X connect 9 0 1 1;
#X connect 9 1 10 0;
#X connect 10 0 12 1;
#X connect 11 0 12 1;
#X connect 12 0 13 0;
#X connect 13 0 15 0;
#X connect 14 0 16 0;
#X connect 15 0 14 0;
#X connect 17 0 18 0;
#X connect 18 0 19 0;
#X connect 19 0 20 0;
#X connect 20 0 21 0;
#X connect 21 0 23 0;
#X connect 23 0 28 0;
#X connect 24 0 26 0;
#X connect 25 0 24 0;
#X connect 26 0 23 3;
#X connect 27 0 25 0;
#X connect 28 0 6 0;
#X connect 29 0 1 0;
#X connect 29 1 30 0;
#X connect 29 1 35 0;
#X connect 30 0 34 0;
#X connect 31 0 12 0;
#X connect 33 0 13 1;
#X connect 34 0 31 0;
#X connect 35 0 12 0;
#X connect 35 1 34 0;
#X connect 35 2 38 0;
#X connect 36 0 12 0;
#X connect 36 1 37 0;
#X connect 37 0 38 1;
#X connect 38 0 39 0;
#X connect 39 0 13 0;
