#N canvas 1096 257 482 623 10;
#X obj 75 103 mod;
#X obj 124 78 list split 1;
#X obj 75 284 list store, f 16;
#X msg 75 258 get \$1;
#X obj 158 132 list length;
#X obj 158 103 t a a;
#X obj 75 159 f;
#X obj 75 128 t b b a, f 11;
#X msg 106 158 0;
#X obj 75 186 until;
#X obj 75 209 f;
#X obj 75 232 t a a;
#X obj 133 224 + 1;
#X obj 75 337 moses;
#X obj 102 367 moses;
#X obj 137 312 t a;
#X obj 129 341 + 1;
#X obj 245 250 t b;
#X obj 245 343 b;
#X obj 102 412 list append;
#X obj 102 435 -;
#X obj 102 517 delay 1 120 permin;
#X obj 294 416 list prepend tempo;
#X obj 294 439 list trim;
#X obj 102 390 t a b;
#X obj 102 540 t b b;
#X obj 12 327 b;
#X obj 356 446 sel 0;
#X msg 356 469 stop;
#X obj 101 486 -;
#X obj 102 461 t a a;
#X msg 145 445 0;
#X obj 294 393 route tempo run;
#X obj 75 10 inlet;
#X obj 75 33 route step, f 37;
#X obj 124 54 inlet;
#X obj 129 571 outlet;
#N canvas 0 0 401 71 NETPD 0;
#X msg 11 9 version 0 0 1;
#X restore 398 12 pd NETPD 2 0;
#X connect 0 0 7 0;
#X connect 1 0 0 1;
#X connect 1 1 5 0;
#X connect 2 0 13 0;
#X connect 3 0 2 0;
#X connect 4 0 6 1;
#X connect 5 0 4 0;
#X connect 5 1 2 1;
#X connect 6 0 9 0;
#X connect 7 0 6 0;
#X connect 7 1 8 0;
#X connect 7 2 15 0;
#X connect 7 2 19 1;
#X connect 7 2 31 0;
#X connect 8 0 10 1;
#X connect 9 0 10 0;
#X connect 10 0 11 0;
#X connect 11 0 3 0;
#X connect 11 1 12 0;
#X connect 12 0 10 1;
#X connect 13 1 14 0;
#X connect 14 0 24 0;
#X connect 14 1 18 0;
#X connect 15 0 13 1;
#X connect 15 0 16 0;
#X connect 16 0 14 1;
#X connect 17 0 9 1;
#X connect 18 0 17 0;
#X connect 19 0 20 0;
#X connect 20 0 30 0;
#X connect 21 0 25 0;
#X connect 22 0 23 0;
#X connect 23 0 21 0;
#X connect 24 0 19 0;
#X connect 24 1 18 0;
#X connect 25 0 26 0;
#X connect 25 1 36 0;
#X connect 26 0 10 0;
#X connect 27 0 28 0;
#X connect 28 0 21 0;
#X connect 29 0 21 0;
#X connect 30 0 29 1;
#X connect 30 1 29 0;
#X connect 31 0 29 1;
#X connect 32 0 22 0;
#X connect 32 1 27 0;
#X connect 33 0 34 0;
#X connect 34 0 0 0;
#X connect 34 1 32 0;
#X connect 35 0 1 0;
