#N canvas 1096 257 583 782 10;
#X obj 75 142 mod;
#X obj 124 108 list split 1;
#X obj 75 384 list store, f 16;
#X msg 75 358 get \$1;
#X obj 158 162 list length;
#X obj 158 133 t a a;
#X obj 75 259 f;
#X msg 106 258 0;
#X obj 75 286 until;
#X obj 75 309 f;
#X obj 121 311 + 1;
#X obj 75 437 moses;
#X obj 102 467 moses;
#X obj 179 341 t a;
#X obj 129 441 + 1;
#X obj 245 340 t b;
#X obj 245 433 b;
#X obj 102 512 list append;
#X obj 102 535 -;
#X obj 102 617 delay 1 120 permin;
#X obj 294 446 list prepend tempo;
#X obj 294 469 list trim;
#X obj 102 490 t a b;
#X obj 102 640 t b b;
#X obj 12 357 b;
#X obj 356 476 sel 0;
#X msg 356 499 stop;
#X obj 101 586 -;
#X obj 102 561 t a a;
#X msg 145 545 0;
#X obj 294 423 route tempo run;
#X obj 75 10 inlet;
#X obj 75 33 route step, f 37;
#X obj 124 84 inlet;
#X obj 129 725 outlet;
#N canvas 0 0 401 71 NETPD 0;
#X msg 11 9 version 0 0 1;
#X restore 398 12 pd NETPD 2 0;
#X obj 75 56 t a a, f 65;
#X obj 462 264 *;
#X obj 462 181 div;
#X obj 75 228 t b b a a, f 22;
#X obj 75 333 t a a a, f 9;
#X obj 129 670 f;
#X obj 129 693 +;
#X obj 462 566 t a;
#X connect 0 0 39 0;
#X connect 1 0 0 1;
#X connect 1 0 38 1;
#X connect 1 1 5 0;
#X connect 2 0 11 0;
#X connect 3 0 2 0;
#X connect 4 0 6 1;
#X connect 4 0 37 1;
#X connect 5 0 4 0;
#X connect 5 1 2 1;
#X connect 6 0 8 0;
#X connect 7 0 9 1;
#X connect 8 0 9 0;
#X connect 9 0 40 0;
#X connect 10 0 9 1;
#X connect 11 1 12 0;
#X connect 12 0 22 0;
#X connect 12 1 16 0;
#X connect 13 0 11 1;
#X connect 13 0 14 0;
#X connect 14 0 12 1;
#X connect 15 0 8 1;
#X connect 16 0 15 0;
#X connect 17 0 18 0;
#X connect 18 0 28 0;
#X connect 19 0 23 0;
#X connect 20 0 21 0;
#X connect 21 0 19 0;
#X connect 22 0 17 0;
#X connect 22 1 16 0;
#X connect 23 0 24 0;
#X connect 23 1 41 0;
#X connect 24 0 9 0;
#X connect 25 0 26 0;
#X connect 26 0 19 0;
#X connect 27 0 19 0;
#X connect 28 0 27 1;
#X connect 28 1 27 0;
#X connect 29 0 27 1;
#X connect 30 0 20 0;
#X connect 30 1 25 0;
#X connect 31 0 32 0;
#X connect 32 0 36 0;
#X connect 32 1 30 0;
#X connect 33 0 1 0;
#X connect 36 0 0 0;
#X connect 36 1 38 0;
#X connect 37 0 43 0;
#X connect 38 0 37 0;
#X connect 39 0 6 0;
#X connect 39 1 7 0;
#X connect 39 2 13 0;
#X connect 39 2 17 1;
#X connect 39 2 29 0;
#X connect 40 0 3 0;
#X connect 40 1 10 0;
#X connect 40 2 41 1;
#X connect 41 0 42 0;
#X connect 42 0 34 0;
#X connect 43 0 42 1;
