#N canvas 507 229 1367 643 10;
#N canvas 972 22 450 300 template 0;
#X obj 44 70 print patted-template;
#X obj 43 42 struct \$0.patted float x float y array \$0.marks.arr \$0.mark;
#X obj 61 99 plot \$0.marks.arr 888 0 0 20 200;
#X connect 1 0 0 0;
#X restore 82 148 pd template;
#X obj 244 274 pointer;
#X floatatom 275 339 5 0 0 0 - - - 0;
#X obj 46 244 element;
#X floatatom 42 386 5 0 0 0 - - - 0;
#X obj 425 348 instruments/abs/rh_list_sort;
#X msg 365 288 0;
#X obj 471 377 print;
#N canvas 1430 28 450 300 element-template 0;
#X obj 22 56 struct \$0.mark float x;
#X obj 25 160 print mark-template;
#X obj 47 119 drawpolygon 0 1 0 20 0 0;
#X obj 50 85 drawpolygon 0 1 0 -20 0 0;
#X connect 0 0 1 0;
#X restore 88 107 pd element-template;
#X msg 483 190 0 20 40 60 80;
#X obj 42 334 element \$0.patted \$0.marks.arr;
#X obj 261 381 setsize \$0.patted \$0.marks.arr;
#X obj 460 244 array set -s \$0.patted \$0.marks.arr -f \$0.mark x;
#X obj 365 319 array get -s \$0.patted \$0.marks.arr -f \$0.mark x;
#X obj 42 361 get \$0.mark x;
#N canvas 792 338 450 300 NETPD 0;
#X msg 19 13 version 0 0 0;
#N canvas 1247 187 450 300 abslist 0;
#X msg 25 19 untik-pattern-editor-display;
#X restore 18 43 pd abslist;
#X restore 565 103 pd NETPD 2 0;
#X msg 326 126 clear;
#X obj 182 217 f \$0;
#X obj 182 195 bng 18 250 50 0 empty empty empty 0 -9 0 10 #fcfcfc #000000 #000000;
#X obj 20 20 untik-pattern-editor-display \$0.display;
#X msg 182 240 traverse pd-\$1.display \, next;
#X obj 267 198 s pd-\$0.display;
#X msg 314 344 5;
#X obj 263 142 list prepend \$0;
#X msg 265 166 scalar \$1.patted \$2 0;
#X floatatom 253 79 5 0 0 0 - - - 0;
#X obj 264 117 t a b;
#X msg 845 110 600 \$1;
#X floatatom 845 53 5 0 0 0 - - - 0;
#X obj 845 133 /;
#X obj 1023 185 f \$0;
#X msg 1023 208 traverse pd-\$1.display \, next;
#X obj 1023 267 pointer;
#X obj 845 407 array set -s \$0.patted \$0.marks.arr -f \$0.mark x;
#X msg 1241 230 clear;
#X obj 1202 329 s pd-\$0.display;
#X obj 1202 276 list prepend \$0;
#X msg 1202 300 scalar \$1.patted \$2 0;
#X obj 1202 207 t a b, f 7;
#X obj 1241 253 s pd-\$0.display;
#X obj 845 156 t a b a, f 60;
#X obj 845 81 t a a, f 11;
#X obj 845 178 list append;
#X obj 876 252 until;
#X obj 876 275 f;
#X obj 876 298 t a a;
#X obj 918 279 +;
#X msg 947 227 0;
#X obj 876 229 swap, f 10;
#X obj 845 381 list store;
#X msg 876 321 append \$1;
#X obj 845 339 t b b;
#X obj 998 349 setsize \$0.patted \$0.marks.arr;
#X obj 845 200 t b a b a, f 26;
#X msg 998 315 \$2;
#X msg 953 494 0 \$1;
#X floatatom 994 432 5 0 0 0 - - - 0;
#X obj 1202 183 * 0.5;
#X connect 1 0 10 1;
#X connect 1 0 11 1;
#X connect 1 0 12 2;
#X connect 1 0 13 2;
#X connect 2 0 11 0;
#X connect 5 0 7 0;
#X connect 6 0 13 0;
#X connect 9 0 12 0;
#X connect 10 0 14 0;
#X connect 13 0 5 0;
#X connect 14 0 4 0;
#X connect 16 0 21 0;
#X connect 17 0 20 0;
#X connect 18 0 17 0;
#X connect 20 0 1 0;
#X connect 22 0 11 0;
#X connect 23 0 24 0;
#X connect 24 0 21 0;
#X connect 25 0 26 0;
#X connect 26 0 23 0;
#X connect 26 1 16 0;
#X connect 27 0 29 0;
#X connect 28 0 41 0;
#X connect 29 0 40 0;
#X connect 30 0 31 0;
#X connect 31 0 32 0;
#X connect 32 0 33 2;
#X connect 32 0 52 1;
#X connect 34 0 39 0;
#X connect 36 0 37 0;
#X connect 37 0 35 0;
#X connect 38 0 36 0;
#X connect 38 1 34 0;
#X connect 40 0 42 0;
#X connect 40 1 30 0;
#X connect 40 2 57 0;
#X connect 41 0 27 0;
#X connect 41 1 42 1;
#X connect 42 0 53 0;
#X connect 43 0 44 0;
#X connect 44 0 45 0;
#X connect 45 0 50 0;
#X connect 45 1 46 0;
#X connect 46 0 44 1;
#X connect 47 0 44 1;
#X connect 48 0 43 0;
#X connect 48 1 46 1;
#X connect 49 0 33 0;
#X connect 50 0 49 0;
#X connect 51 0 49 1;
#X connect 51 1 49 0;
#X connect 53 0 51 0;
#X connect 53 1 48 0;
#X connect 53 2 47 0;
#X connect 53 3 54 0;
#X connect 54 0 52 0;
#X connect 55 0 33 0;
#X connect 56 0 55 0;
#X connect 57 0 38 0;
#X coords 0 -1 1 1 600 40 2 20 20;
