#N canvas 1030 182 638 415 10;
#N canvas 1285 179 464 235 NETPD 0;
#X msg 13 8 version 0 0 1;
#N canvas 1496 140 460 69 abs 0;
#X msg 11 10 untik-pattern-player;
#X restore 13 36 pd abs;
#X restore 12 10 pd NETPD 2 0;
#X obj 11 208 untik-pattern-player;
#X obj 11 49 r \$1.untik;
#X obj 190 15 r \$1.pats.o.2;
#X obj 190 38 route set;
#X obj 190 61 route \$2;
#X obj 190 93 list split 2;
#X obj 224 117 route bang;
#X msg 190 175 symbol \$2;
#X obj 281 142 t a b;
#X msg 308 166 1;
#X msg 224 140 0;
#X obj 11 235 spigot 0;
#X obj 11 260 list prepend _;
#X obj 11 323 list trim;
#X obj 11 300 list prepend clock;
#X obj 11 345 s \$1.untik;
#X obj 374 154 r \$1.pats.o.2;
#X obj 374 177 route fromlist;
#X obj 374 200 b;
#X obj 374 223 del 0;
#X obj 374 246 f \$2;
#X text 372 126 load correctly after dump;
#X obj 375 271 text get __bla__;
#X obj 493 222 pdcontrol;
#X msg 493 195 args 1;
#X msg 493 246 symbol \$1-patterns;
#X obj 493 172 loadbang;
#X obj 375 294 list prepend -1;
#X obj 11 72 t a a;
#X obj 41 115 route run;
#X msg 41 138 run \$1;
#X connect 1 0 12 0;
#X connect 2 0 29 0;
#X connect 3 0 4 0;
#X connect 4 0 5 0;
#X connect 5 0 6 0;
#X connect 6 0 8 0;
#X connect 6 1 7 0;
#X connect 7 0 11 0;
#X connect 7 1 9 0;
#X connect 8 0 13 1;
#X connect 9 0 1 1;
#X connect 9 1 10 0;
#X connect 10 0 12 1;
#X connect 11 0 12 1;
#X connect 12 0 13 0;
#X connect 13 0 15 0;
#X connect 14 0 16 0;
#X connect 15 0 14 0;
#X connect 17 0 18 0;
#X connect 18 0 19 0;
#X connect 19 0 20 0;
#X connect 20 0 21 0;
#X connect 21 0 23 0;
#X connect 23 0 28 0;
#X connect 24 0 26 0;
#X connect 25 0 24 0;
#X connect 26 0 23 3;
#X connect 27 0 25 0;
#X connect 28 0 6 0;
#X connect 29 0 1 0;
#X connect 29 1 30 0;
#X connect 30 0 31 0;
#X connect 31 0 12 0;
