#N canvas 1020 388 557 528 10;
#X obj 23 20 hsl 70 24 0 127 0 0 \$0.click empty empty -2 -10 0 12 #fcfcfc #000000 #000000 0 1;
#X obj 20 20 cnv 20 75 24 empty \$0.label 2on3 4 12 0 14 #8080a0 #efefff 0;
#X obj 31 68 r \$0.click;
#X obj 31 91 sel 0;
#X obj 71 92 t a;
#X obj 31 117 f \$2;
#X obj 334 19 loadbang;
#X obj 334 42 \$2;
#X msg 334 65 label pattern\$1;
#X obj 334 89 s \$0.label;
#X obj 31 164 s \$1;
#X msg 31 141 select \$1;
#X obj 188 32 r \$1;
#X obj 188 55 route \$2;
#X obj 188 78 route setlabel;
#X msg 188 123 label \$1;
#X obj 188 146 s \$0.label;
#X obj 188 100 symbol;
#X msg 123 331 #606080;
#X msg 66 327 #8080a0;
#X msg 179 331 #bcbcdc;
#X obj 113 470 s \$0.label;
#X obj 104 384 symbol;
#X obj 113 422 pack s s;
#X msg 113 445 color \$1 0 \$2;
#X msg 299 328 #606080;
#X msg 242 324 #8080a0;
#X msg 355 328 #bcbcdc;
#X obj 280 381 symbol;
#X obj 130 188 r \$1;
#X obj 130 211 route select;
#X obj 130 234 sel \$2;
#X obj 95 271 t b b;
#X obj 189 276 t b b;
#X msg 411 327 #efefff;
#X connect 2 0 3 0;
#X connect 3 0 5 0;
#X connect 3 1 4 0;
#X connect 4 0 3 1;
#X connect 5 0 11 0;
#X connect 6 0 7 0;
#X connect 7 0 8 0;
#X connect 8 0 9 0;
#X connect 11 0 10 0;
#X connect 12 0 13 0;
#X connect 13 0 14 0;
#X connect 14 0 17 0;
#X connect 15 0 16 0;
#X connect 17 0 15 0;
#X connect 18 0 22 0;
#X connect 19 0 22 0;
#X connect 20 0 22 0;
#X connect 22 0 23 0;
#X connect 23 0 24 0;
#X connect 24 0 21 0;
#X connect 25 0 28 0;
#X connect 26 0 28 0;
#X connect 27 0 28 0;
#X connect 28 0 23 1;
#X connect 29 0 30 0;
#X connect 30 0 31 0;
#X connect 31 0 32 0;
#X connect 31 1 33 0;
#X connect 32 0 19 0;
#X connect 32 1 34 0;
#X connect 33 0 19 0;
#X connect 33 1 27 0;
#X connect 34 0 28 0;
#X coords 0 -1 1 1 75 24 2 20 20;
