#N canvas 1200 355 462 460 10;
#N canvas 1473 663 341 97 NETPD 0;
#X msg 6 12 version 0 0 0;
#X restore 8 5 pd NETPD 2 0;
#N canvas 1109 466 550 486 get.clocklist 0;
#X obj 15 18 r untik;
#X obj 15 41 route update_available_clocklist;
#X obj 15 64 b;
#X msg 15 92 refresh_clocklist;
#X obj 77 147 s untik;
#X obj 78 253 spigot;
#X obj 78 171 r untik;
#X obj 78 194 route update_clocklist;
#X obj 15 115 t b b a b, f 16;
#X msg 108 224 1;
#X msg 46 181 0;
#X obj 78 277 list split 2;
#X obj 112 302 list prepend append;
#X obj 112 325 list trim;
#X obj 42 413 list store;
#X obj 15 358 t b b;
#X obj 42 441 outlet;
#X obj 144 142 text delete \$0.shortcuts;
#X msg 144 120 -1;
#X msg 105 365 1e+15;
#X obj 78 387 text set \$0.shortcuts;
#X obj 78 341 t a b;
#X obj 305 197 loadbang;
#X obj 305 220 t b b;
#X msg 332 247 list untik u main;
#X text 301 175 initialize untik main;
#X obj 264 38 spigot 1;
#X obj 264 61 t b b;
#X msg 338 54 0, f 2;
#X obj 264 15 netpd-dump \$1;
#X connect 0 0 1 0;
#X connect 1 0 2 0;
#X connect 2 0 3 0;
#X connect 3 0 8 0;
#X connect 5 0 11 0;
#X connect 6 0 7 0;
#X connect 7 0 5 0;
#X connect 8 0 15 0;
#X connect 8 1 10 0;
#X connect 8 2 4 0;
#X connect 8 3 9 0;
#X connect 8 3 18 0;
#X connect 9 0 5 1;
#X connect 10 0 5 1;
#X connect 11 0 21 0;
#X connect 11 1 12 0;
#X connect 12 0 13 0;
#X connect 13 0 14 0;
#X connect 14 0 16 0;
#X connect 15 0 14 1;
#X connect 15 1 14 0;
#X connect 18 0 17 0;
#X connect 19 0 20 1;
#X connect 21 0 20 0;
#X connect 21 1 19 0;
#X connect 22 0 23 0;
#X connect 23 0 15 0;
#X connect 23 1 24 0;
#X connect 24 0 11 0;
#X connect 26 0 27 0;
#X connect 27 0 3 0;
#X connect 27 1 28 0;
#X connect 28 0 26 1;
#X connect 29 0 26 0;
#X restore 7 36 pd get.clocklist;
#X obj 234 8 text define \$0.shortcuts;
#X obj 7 341 outlet;
#N canvas 1223 521 441 357 receive.clock 0;
#X obj 20 220 r untik;
#X obj 20 243 route clock;
#X obj 65 88 text search \$0.shortcuts 1;
#X obj 64 112 route -1;
#X obj 109 162 text get \$0.shortcuts 1;
#X msg 109 138 \$1 0 1;
#X obj 65 63 unpack s s;
#X msg 64 193 symbol ____;
#X obj 65 40 netpd-symbol2list :;
#X obj 20 266 route ___;
#X obj 20 289 route ______, f 18;
#X obj 65 15 inlet;
#X obj 20 312 outlet;
#X connect 0 0 1 0;
#X connect 1 0 9 0;
#X connect 2 0 3 0;
#X connect 3 0 7 0;
#X connect 3 1 5 0;
#X connect 4 0 9 1;
#X connect 5 0 4 0;
#X connect 6 0 2 0;
#X connect 6 1 10 1;
#X connect 7 0 9 1;
#X connect 8 0 6 0;
#X connect 9 0 10 0;
#X connect 10 0 12 0;
#X connect 11 0 8 0;
#X restore 7 315 pd receive.clock;
#X obj 7 108 s \$3;
#X obj 7 60 list prepend items;
#X obj 7 83 list trim;
#X obj 48 294 s \$3;
#X obj 7 152 r \$3;
#X obj 7 175 route selected;
#X obj 7 223 netpd_a \$1 \$2;
#X obj 7 198 symbol;
#X obj 7 246 list;
#X obj 7 269 t a a;
#X msg 48 270 setlabel \$1;
#X obj 144 134 loadbang;
#X msg 144 160 symbol u:main;
#X msg 144 183 set \$1;
#X connect 1 0 6 0;
#X connect 4 0 3 0;
#X connect 6 0 7 0;
#X connect 7 0 5 0;
#X connect 9 0 10 0;
#X connect 10 0 12 0;
#X connect 11 0 13 0;
#X connect 12 0 11 0;
#X connect 13 0 14 0;
#X connect 14 0 4 0;
#X connect 14 1 15 0;
#X connect 15 0 8 0;
#X connect 16 0 17 0;
#X connect 17 0 18 0;
#X connect 18 0 11 0;
