#N canvas 1200 355 462 460 10;
#N canvas 1473 663 341 97 NETPD 0;
#X msg 6 12 version 0 0 0;
#X restore 8 5 pd NETPD 2 0;
#N canvas 1109 466 550 541 get.clocklist 0;
#X obj 15 18 r untik;
#X obj 15 41 route update_available_clocklist;
#X obj 15 64 b;
#X msg 15 92 refresh_clocklist;
#X obj 77 147 s untik;
#X obj 78 253 spigot;
#X obj 78 171 r untik;
#X obj 78 194 route update_clocklist;
#X obj 15 115 t b b a b, f 16;
#X msg 108 224 1;
#X msg 46 181 0;
#X obj 78 277 list split 2;
#X obj 112 302 list prepend append;
#X obj 112 325 list trim;
#X obj 42 413 list store;
#X obj 15 358 t b b;
#X obj 57 494 outlet;
#X obj 144 142 text delete \$0.shortcuts;
#X msg 144 120 -1;
#X msg 105 365 1e+15;
#X obj 78 387 text set \$0.shortcuts;
#X obj 78 341 t a b;
#X text 301 175 initialize untik main;
#X obj 269 15 loadbang;
#X obj 269 36 del 0;
#X obj 269 59 t b b;
#X msg 296 381 list u:main;
#X obj 311 448 s \$3;
#X msg 311 418 setlabel \$1;
#X obj 42 436 route bang;
#X connect 0 0 1 0;
#X connect 1 0 2 0;
#X connect 2 0 3 0;
#X connect 3 0 8 0;
#X connect 5 0 11 0;
#X connect 6 0 7 0;
#X connect 7 0 5 0;
#X connect 8 0 15 0;
#X connect 8 1 10 0;
#X connect 8 2 4 0;
#X connect 8 3 9 0;
#X connect 8 3 18 0;
#X connect 9 0 5 1;
#X connect 10 0 5 1;
#X connect 11 0 21 0;
#X connect 11 1 12 0;
#X connect 12 0 13 0;
#X connect 13 0 14 0;
#X connect 14 0 29 0;
#X connect 15 0 14 1;
#X connect 15 1 14 0;
#X connect 18 0 17 0;
#X connect 19 0 20 1;
#X connect 21 0 20 0;
#X connect 21 1 19 0;
#X connect 23 0 24 0;
#X connect 24 0 25 0;
#X connect 25 0 3 0;
#X connect 25 1 26 0;
#X connect 26 0 16 0;
#X connect 26 0 28 0;
#X connect 28 0 27 0;
#X connect 29 1 16 0;
#X restore 7 96 pd get.clocklist;
#X obj 234 8 text define \$0.shortcuts;
#X obj 7 401 outlet;
#N canvas 892 105 545 525 receive.clock 0;
#X obj 63 328 r untik;
#X obj 63 351 route clock;
#X obj 216 98 text search \$0.shortcuts 1;
#X obj 215 122 route -1;
#X obj 260 172 text get \$0.shortcuts 1;
#X msg 260 148 \$1 0 1;
#X obj 216 73 unpack s s;
#X msg 215 199 symbol ____;
#X obj 216 50 netpd-symbol2list :;
#X obj 216 25 inlet;
#X obj 63 420 outlet;
#X obj 63 374 route untik;
#X obj 63 397 route main, f 18;
#X obj 215 227 pack s s;
#X obj 215 250 t a a, f 6;
#X obj 150 364 unpack s s;
#X obj 9 149 list prepend request refresh;
#X obj 9 174 list trim;
#X obj 9 197 s untik;
#X obj 9 126 list append _ _;
#X obj 56 87 t b a;
#X obj 9 9 r \$0.inlet;
#X obj 9 32 route refresh;
#X obj 9 55 b;
#X connect 0 0 1 0;
#X connect 1 0 11 0;
#X connect 2 0 3 0;
#X connect 3 0 7 0;
#X connect 3 1 5 0;
#X connect 4 0 13 0;
#X connect 5 0 4 0;
#X connect 6 0 2 0;
#X connect 6 1 13 1;
#X connect 7 0 13 0;
#X connect 8 0 6 0;
#X connect 9 0 8 0;
#X connect 11 0 12 0;
#X connect 12 0 10 0;
#X connect 13 0 14 0;
#X connect 14 0 20 0;
#X connect 14 1 15 0;
#X connect 15 0 11 1;
#X connect 15 1 12 1;
#X connect 16 0 17 0;
#X connect 17 0 18 0;
#X connect 19 0 16 0;
#X connect 20 0 19 0;
#X connect 20 1 19 1;
#X connect 21 0 22 0;
#X connect 22 0 23 0;
#X connect 23 0 19 0;
#X restore 7 375 pd receive.clock;
#X obj 7 168 s \$3;
#X obj 7 120 list prepend items;
#X obj 7 143 list trim;
#X obj 48 354 s \$3;
#X obj 7 212 r \$3;
#X obj 7 235 route selected;
#X obj 7 283 netpd_a \$1 \$2;
#X obj 7 258 symbol;
#X obj 7 306 list;
#X obj 7 329 t a a;
#X msg 48 330 setlabel \$1;
#X obj 144 176 loadbang;
#X msg 144 220 symbol u:main;
#X msg 144 243 set \$1;
#X obj 234 218 text set \$0.shortcuts;
#X msg 234 196 list untik u;
#X obj 144 199 t b b;
#X obj 10 38 inlet;
#X obj 10 61 s \$0.inlet;
#X connect 1 0 6 0;
#X connect 4 0 3 0;
#X connect 6 0 7 0;
#X connect 7 0 5 0;
#X connect 9 0 10 0;
#X connect 10 0 12 0;
#X connect 11 0 13 0;
#X connect 12 0 11 0;
#X connect 13 0 14 0;
#X connect 14 0 4 0;
#X connect 14 1 15 0;
#X connect 15 0 8 0;
#X connect 16 0 21 0;
#X connect 17 0 18 0;
#X connect 18 0 11 0;
#X connect 20 0 19 0;
#X connect 21 0 17 0;
#X connect 21 1 20 0;
#X connect 22 0 23 0;
