#N struct 1004.rectangle float id float x float y float w float h float txtclr float boxclr float bgclr symbol label;
#N canvas 603 95 635 712 10;
#X declare -path ../../includes;
#N canvas 1473 663 341 97 NETPD 0;
#X msg 6 12 version 0 0 1;
#X obj 8 43 declare -path ../../includes;
#X restore 546 677 pd NETPD 2 0;
#X obj 20 222 netpd-gui-dropdown \$0.clock.select 120 20 16 0 555 777 0 555 887;
#X text 11 681 see also:;
#X obj 85 682 untik-clock-provider;
#X obj 274 376 route pos run tempo, f 46;
#X floatatom 274 409 10 0 0 0 - - - 0;
#X obj 365 410 tgl 18 0 empty empty empty 0 -9 0 10 #fcfcfc #000000 #000000 0 1;
#X listbox 456 409 20 0 0 0 - - - 0;
#X text 14 87 args:;
#X text 30 106 1: instrument ID (\$1);
#X text 30 122 2: param name;
#X text 30 138 3: drop-down name;
#X text 17 197 this is named \$0.clock.select:;
#X text 3 3 untik-clock-consumer - get info from clocks;
#X text 6 33 [untik-clock-consumer] provides a unified interface to get clock information from any clock that supports the untik framework.;
#X msg 254 87 select u:main;
#X text 351 86 select a clock;
#X obj 254 341 untik-clock-consumer \$1 myclock \$0.clock.select;
#X msg 282 156 get tempo;
#X msg 275 133 get run;
#X msg 300 185 get timestamp;
#X msg 268 111 get pos;
#X text 325 111 get current position;
#X text 334 132 are we running now?;
#X text 352 156 get current tempo;
#X text 387 185 get current precise timestamp;
#X floatatom 272 509 14 0 0 0 - - - 0;
#X msg 313 253 schedule 89.093 some message with args;
#X text 314 271 schedule <timestamp> <arbitrary message>;
#X obj 272 463 route timestamp event, f 46;
#X listbox 408 508 29 0 0 0 - - - 0;
#X text 309 236 schedule events that are sent at specified timestamp;
#X text 393 305 get available clocks;
#X msg 324 305 clocklist;
#X text 272 430 pos;
#X text 365 427 run;
#X text 456 425 tempo;
#X text 272 528 timestamp;
#X text 407 526 scheduled event messge;
#X obj 270 553 route clocklist, f 46;
#X text 269 624 clocklist;
#X listbox 270 606 37 0 0 0 - - - 0;
#X obj 408 486 list;
#X obj 270 580 list;
#X text 377 209 get current precise timestamp;
#X msg 311 211 get clock;
#X connect 4 0 5 0;
#X connect 4 1 6 0;
#X connect 4 2 7 0;
#X connect 15 0 17 0;
#X connect 17 0 4 0;
#X connect 17 0 29 0;
#X connect 17 0 39 0;
#X connect 18 0 17 0;
#X connect 19 0 17 0;
#X connect 20 0 17 0;
#X connect 21 0 17 0;
#X connect 27 0 17 0;
#X connect 29 0 26 0;
#X connect 29 1 42 0;
#X connect 33 0 17 0;
#X connect 39 0 43 0;
#X connect 42 0 30 0;
#X connect 43 0 41 0;
#X connect 45 0 17 0;
