#N canvas 1030 182 400 415 10;
#N canvas 1285 179 464 235 NETPD 0;
#X msg 13 8 version 0 0 1;
#N canvas 1496 140 460 69 abs 0;
#X msg 11 10 untik-pattern-player;
#X restore 13 36 pd abs;
#X restore 12 10 pd NETPD 2 0;
#X obj 11 225 untik-pattern-player;
#X obj 11 49 r \$1.untik;
#X obj 190 25 r \$1.pats.o.2;
#X obj 190 48 route set;
#X obj 190 71 route \$2;
#X obj 190 93 list split 2;
#X obj 224 117 route bang;
#X msg 190 175 symbol \$2;
#X obj 281 142 t a b;
#X msg 308 166 1;
#X msg 224 140 0;
#X obj 11 252 spigot 0;
#X obj 11 277 list prepend _;
#X obj 11 323 list trim;
#X obj 11 300 list prepend clock;
#X obj 11 345 s \$1.untik;
#X connect 1 0 12 0;
#X connect 2 0 1 0;
#X connect 3 0 4 0;
#X connect 4 0 5 0;
#X connect 5 0 6 0;
#X connect 6 0 8 0;
#X connect 6 1 7 0;
#X connect 7 0 11 0;
#X connect 7 1 9 0;
#X connect 8 0 13 1;
#X connect 9 0 1 1;
#X connect 9 1 10 0;
#X connect 10 0 12 1;
#X connect 11 0 12 1;
#X connect 12 0 13 0;
#X connect 13 0 15 0;
#X connect 14 0 16 0;
#X connect 15 0 14 0;
