#N canvas 480 629 675 346 10;
#N canvas 1048 191 231 103 NETPD 0;
#X msg 14 18 version 0 0 1;
#X restore 111 12 pd NETPD 2 0;
#X obj 20 136 inlet~;
#X obj 154 137 inlet~;
#X obj 20 247 outlet~;
#X obj 155 249 outlet~;
#N canvas 698 340 223 120 \$3-\$2 0;
#X obj 10 20 hsl 200 15 0 1 0 0 \$1-\$2/frequency \$1-\$2/frequency FREQUENCY 10 8 0 14 #dcdcdc #000000 #7c7c7c 0 1;
#X obj 10 35 hsl 200 15 0 1 0 0 \$1-\$2/modfreq \$1-\$2/modfreq MODFREQ 10 8 0 14 #e8e8e8 #000000 #7c7c7c 0 1;
#X obj 10 50 hsl 200 15 0 1 0 0 \$1-\$2/modamp \$1-\$2/modamp MODAMP 10 8 0 14 #f0f0f0 #000000 #7c7c7c 0 1;
#X obj 10 65 hsl 200 15 0 1 0 0 \$1-\$2/modfloor \$1-\$2/modfloor MODFLOOR 10 8 0 14 #fcfcfc #000000 #7c7c7c 0 1;
#X obj 10 95 hsl 200 15 0 60 0 0 empty \$0.index empty 10 8 0 14 #000000 #dcdcdc #000000 0 1;
#X obj 10 5 hsl 200 15 0 60 0 0 empty empty WOBBLE 10 8 0 14 #000000 #000000 #dcdcdc 0 1;
#X obj 10 80 hsl 200 15 0 1 0 0 \$1-\$2/lrphase \$1-\$2/lrphase LRPHASE 10 8 0 14 #fcfcfc #000000 #7c7c7c 0 1;
#X restore 7 12 pd \$3-\$2;
#N canvas 0 103 397 241 left 0;
#X obj 15 53 delwrite~ \$0.left 100;
#X obj 14 24 inlet~;
#X obj 15 141 delread4~ \$0.left 0;
#X obj 15 164 outlet~;
#X obj 182 78 inlet~;
#X connect 1 0 0 0;
#X connect 2 0 3 0;
#X connect 4 0 2 0;
#X restore 21 189 pd left;
#N canvas 0 103 397 241 right 0;
#X obj 14 24 inlet~;
#X obj 15 164 outlet~;
#X obj 182 78 inlet~;
#X obj 15 53 delwrite~ \$0.right 100;
#X obj 15 141 delread4~ \$0.right 0;
#X connect 0 0 3 0;
#X connect 2 0 4 0;
#X connect 4 0 1 0;
#X restore 154 194 pd right;
#X obj 240 127 +~ 1;
#X obj 421 138 +~ 1;
#X obj 421 115 osc~ 0.2;
#X obj 240 150 *~;
#X obj 254 56 phasor~;
#X obj 240 97 cos~;
#X obj 303 125 cos~;
#X obj 303 150 +~ 1;
#X obj 303 173 *~;
#X obj 529 131 * 0.5;
#X obj 254 34 * 20;
#X obj 421 83 * 4;
#X obj 529 107 * 20;
#X obj 492 227 * 10;
#X obj 254 11 netpd_f \$1 \$2/frequency 0.06;
#X obj 421 60 netpd_f \$1 \$2/modfreq 0.02;
#X obj 529 84 netpd_f \$1 \$2/modamp 0.04;
#X obj 492 204 netpd_f \$1 \$2/modfloor 0.1;
#X obj 350 235 metro 50;
#X obj 341 266 snapshot~;
#X obj 350 205 loadbang;
#X obj 341 296 s \$0.index;
#X obj 316 34 netpd_f \$1 \$2/lrphase 0;
#X obj 316 78 line~;
#X obj 302 99 +~;
#X obj 529 176 line~;
#X obj 421 161 *~;
#X obj 420 196 +~;
#X obj 492 277 line~;
#X msg 492 254 \$1 20;
#X msg 529 153 \$1 20;
#X msg 316 55 \$1 20;
#X connect 1 0 6 0;
#X connect 2 0 7 0;
#X connect 6 0 3 0;
#X connect 7 0 4 0;
#X connect 8 0 11 0;
#X connect 9 0 34 0;
#X connect 10 0 9 0;
#X connect 11 0 6 1;
#X connect 12 0 13 0;
#X connect 12 0 32 0;
#X connect 13 0 8 0;
#X connect 14 0 15 0;
#X connect 15 0 16 0;
#X connect 16 0 7 1;
#X connect 16 0 27 0;
#X connect 17 0 38 0;
#X connect 18 0 12 0;
#X connect 19 0 10 0;
#X connect 20 0 17 0;
#X connect 21 0 37 0;
#X connect 22 0 18 0;
#X connect 23 0 19 0;
#X connect 24 0 20 0;
#X connect 25 0 21 0;
#X connect 26 0 27 0;
#X connect 27 0 29 0;
#X connect 28 0 26 0;
#X connect 30 0 39 0;
#X connect 31 0 32 1;
#X connect 32 0 14 0;
#X connect 33 0 34 1;
#X connect 34 0 35 0;
#X connect 35 0 16 1;
#X connect 35 0 11 1;
#X connect 36 0 35 1;
#X connect 37 0 36 0;
#X connect 38 0 33 0;
#X connect 39 0 31 0;
