#N canvas 779 76 547 447 10;
#X msg 92 192 create \$1 \$2;
#X floatatom 95 84 5 0 0 0 - - -, f 5;
#X floatatom 60 84 5 0 0 0 - - -, f 5;
#X obj 401 80 metro 200;
#X msg 401 102 next;
#X obj 391 45 tgl 15 0 empty empty empty 17 7 0 10 -262144 -1 -1 0
1;
#X floatatom 437 32 5 0 0 0 - - -, f 5;
#X obj 402 205 ungrid pd-\$1/xmaj;
#N canvas 125 50 671 545 \$1/xmaj 1;
#X restore 38 7 pd \$1/xmaj;
#X obj 402 227 s \$0.ungrid;
#X obj 41 127 pack f f f;
#X obj 75 263 table \$0.automation.data;
#X obj 41 106 f;
#X floatatom 130 84 5 0 0 0 - - -, f 5;
#X obj 92 214 s \$0.ungrid.r;
#X obj 402 183 r \$0.ungrid.r;
#X obj 41 84 bng 15 250 50 0 empty empty empty 17 7 0 10 -262144 -1
-1;
#X obj 369 382 s pd-\$1/xmaj;
#X msg 369 350 clear;
#N canvas 842 413 614 343 automation.label 0;
#X obj 132 247 pointer autolabel;
#X obj 132 269 t p b;
#X msg 132 212 next;
#X obj 132 191 until;
#X obj 191 167 s pd-\$1/xmaj;
#X obj 173 194 list append pd-\$1/xmaj;
#X msg 173 217 traverse \$1;
#X obj 15 299 set -symbol autolabel lbl;
#X obj 132 27 inlet;
#X obj 15 277 symbol;
#X msg 132 164 10000;
#X msg 132 50 \$2;
#X obj 132 72 * 10;
#X obj 132 94 + 115;
#X msg 191 145 scalar autolabel 2 \$1;
#X obj 132 116 t b b a;
#N canvas 596 198 398 209 pick.label 0;
#X obj 16 24 inlet;
#X obj 44 185 outlet;
#X obj 16 89 list append eins zwei drei vier fünf sechs sieben acht
;
#X obj 16 126 list split;
#X obj 44 156 list split 1;
#X obj 16 50 t b a;
#X connect 0 0 5 0;
#X connect 2 0 3 0;
#X connect 3 1 4 0;
#X connect 4 0 1 0;
#X connect 5 0 2 0;
#X connect 5 1 3 1;
#X restore 15 168 pd pick.label;
#X obj 15 54 r \$0.auto.selector;
#X obj 205 23 struct autolabel float x float y symbol lbl float color
;
#X obj 201 96 drawsymbol lbl 0 0 color;
#X obj 382 173 s pd-\$1/xmaj;
#X msg 382 151 scalar autolabel \$1 515 \$2;
#X msg 373 96 80 zwei;
#X msg 433 102 140 drei;
#X obj 330 292 set autolabel color;
#X floatatom 331 250 5 0 0 0 - - -, f 5;
#X obj 441 231 route click;
#X obj 441 253 t p;
#X connect 0 0 1 0;
#X connect 1 0 7 1;
#X connect 1 1 3 1;
#X connect 2 0 0 0;
#X connect 3 0 2 0;
#X connect 5 0 6 0;
#X connect 6 0 0 0;
#X connect 8 0 11 0;
#X connect 9 0 7 0;
#X connect 10 0 3 0;
#X connect 11 0 12 0;
#X connect 12 0 13 0;
#X connect 13 0 15 0;
#X connect 14 0 4 0;
#X connect 15 0 10 0;
#X connect 15 1 5 0;
#X connect 15 2 14 0;
#X connect 16 0 9 0;
#X connect 17 0 16 0;
#X connect 18 0 26 0;
#X connect 21 0 20 0;
#X connect 22 0 21 0;
#X connect 23 0 21 0;
#X connect 25 0 24 0;
#X connect 26 0 27 0;
#X connect 27 0 24 1;
#X restore 58 288 pd automation.label;
#X obj 401 124 s \$0.ungrid.r;
#X obj 41 149 t a a a a;
#X msg 41 312 \$1;
#X obj 41 334 s \$0.length;
#N canvas 305 104 566 539 automation.gui 0;
#X obj 21 83 unpack;
#X obj 55 108 * 10;
#X obj 21 152 pack f f;
#X msg 21 176 create \$1 \$2;
#X obj 55 130 + 10;
#X obj 21 321 route set;
#X obj 43 211 loadbang;
#X msg 43 233 autoclear 0;
#X obj 21 300 unrail pd-\$1/xmaj;
#X obj 21 15 inlet;
#X obj 21 37 t a a;
#X msg 407 124 resize \$1 \, const 0;
#X obj 407 149 s \$0.automation.data;
#X msg 407 77 \$1 \$3;
#X obj 407 99 *;
#X obj 380 54 t a a;
#X text 378 28 init automation data table;
#X msg 380 167 \$3;
#X obj 380 190 s \$0.auto.tracks;
#X obj 21 467 s \$0.automation.data;
#X obj 21 343 list split 1;
#X obj 21 437 list append;
#X obj 149 407 r \$0.length;
#X obj 21 391 +;
#X obj 117 407 *;
#X obj 117 385 r \$0.auto.selector;
#X obj 184 105 r \$0.auto.selector;
#X obj 263 146 r \$0.length;
#X obj 248 173 *;
#X obj 203 173 f;
#X obj 203 195 until;
#X obj 203 224 f;
#X obj 256 238 + 1;
#X obj 203 270 tabread \$0.automation.data;
#X msg 203 292 add2 \$1;
#X obj 184 146 t b b a;
#N canvas 293 171 466 266 messagebox 0;
#X obj 41 36 inlet;
#X msg 41 58 set 0 0 0 0 0.00999999 0.04 0.07 0.1 0.135 0.17 0.22 0.27
0.32 0.37 0.403333 0.436667 0.47 0.4925 0.515 0.5375 0.56 0.58 0.6
0.62 0.63 0.64 0.65 0.653333 0.656667 0.66 0.43 0.54 0.63 0.44 0.43
0.2 0.2 0.2 0.2 0.215 0.23 0.255 0.28 0.34 0.43 0.08 0.12 0.16 0.195
0.23 0.285 0.34 0.41 0.48 0.545 0.61 0.68 0.75 0.83 0.86 0.58 0.6 0.61
0.62 0.64;
#X obj 41 230 outlet;
#X connect 0 0 1 0;
#X connect 1 0 2 0;
#X restore 184 315 pd messagebox;
#X text 173 73 update gui to selected track;
#X msg 248 207 set set 0;
#X obj 203 246 t a a;
#X connect 0 0 2 0;
#X connect 0 1 1 0;
#X connect 1 0 4 0;
#X connect 2 0 3 0;
#X connect 3 0 8 0;
#X connect 4 0 2 1;
#X connect 5 0 20 0;
#X connect 6 0 7 0;
#X connect 7 0 8 0;
#X connect 8 0 5 0;
#X connect 9 0 10 0;
#X connect 10 0 0 0;
#X connect 10 1 15 0;
#X connect 11 0 12 0;
#X connect 13 0 14 0;
#X connect 14 0 11 0;
#X connect 15 0 17 0;
#X connect 15 1 13 0;
#X connect 17 0 18 0;
#X connect 20 0 23 0;
#X connect 20 1 21 1;
#X connect 21 0 19 0;
#X connect 22 0 24 1;
#X connect 23 0 21 0;
#X connect 24 0 23 1;
#X connect 25 0 24 0;
#X connect 26 0 35 0;
#X connect 27 0 28 1;
#X connect 27 0 29 1;
#X connect 28 0 31 1;
#X connect 28 0 38 0;
#X connect 29 0 30 0;
#X connect 30 0 31 0;
#X connect 31 0 39 0;
#X connect 32 0 31 1;
#X connect 33 0 34 0;
#X connect 34 0 36 0;
#X connect 35 0 36 0;
#X connect 35 1 29 0;
#X connect 35 2 28 0;
#X connect 36 0 8 0;
#X connect 38 0 36 0;
#X connect 39 0 33 0;
#X connect 39 1 32 0;
#X restore 75 240 pd automation.gui;
#X obj 228 148 hradio 15 1 0 3 \$0.auto.selector \$0.auto.selector.r
empty 0 -8 0 10 -262144 -1 -1 0;
#X msg 234 60 number \$1;
#X obj 234 82 s \$0.auto.selector.r;
#X obj 234 38 r \$0.auto.tracks;
#X connect 0 0 14 0;
#X connect 1 0 10 1;
#X connect 2 0 12 1;
#X connect 3 0 4 0;
#X connect 4 0 20 0;
#X connect 5 0 3 0;
#X connect 6 0 3 1;
#X connect 7 0 9 0;
#X connect 10 0 21 0;
#X connect 12 0 10 0;
#X connect 13 0 10 2;
#X connect 15 0 7 0;
#X connect 16 0 12 0;
#X connect 18 0 17 0;
#X connect 21 0 22 0;
#X connect 21 1 19 0;
#X connect 21 2 24 0;
#X connect 21 3 0 0;
#X connect 22 0 23 0;
#X connect 26 0 27 0;
#X connect 28 0 26 0;
