#N canvas 537 131 447 333 10;
#X obj 48 207 *~;
#X obj 57 127 line~;
#X obj 48 184 vcf~;
#X obj 57 70 mtof;
#X obj 48 282 throw~ \$1.sum.l;
#X obj 48 160 r~ \$1.pink.l;
#X obj 84 185 r \$1.q;
#X obj 84 208 r~ \$1.q;
#X obj 158 207 *~;
#X obj 158 184 vcf~;
#X obj 194 185 r \$1.q;
#X obj 194 208 r~ \$1.q;
#X obj 158 160 r~ \$1.pink.r;
#X obj 159 284 throw~ \$1.sum.r;
#X obj 57 13 r \$1.note;
#X obj 57 35 route \$2;
#X obj 194 20 r \$1.voicecount;
#X obj 194 82 switch~;
#X text 309 276 2014 \, Roman Haefeli;
#N canvas 348 65 331 78 NETPD 0;
#X msg 5 10 version 0 0 1;
#X restore 294 90 pd NETPD 2 0;
#X obj 194 57 >= \$2;
#X obj 49 234 expr~ tanh($v1*2);
#X obj 49 256 *~ 0.5;
#X obj 159 233 expr~ tanh($v1*2);
#X obj 159 255 *~ 0.5;
#X obj 57 104 pack f f;
#X obj 102 76 r \$1.glide;
#X connect 0 0 21 0;
#X connect 1 0 2 1;
#X connect 1 0 9 1;
#X connect 2 0 0 0;
#X connect 3 0 25 0;
#X connect 5 0 2 0;
#X connect 6 0 2 2;
#X connect 7 0 0 1;
#X connect 8 0 23 0;
#X connect 9 0 8 0;
#X connect 10 0 9 2;
#X connect 11 0 8 1;
#X connect 12 0 9 0;
#X connect 14 0 15 0;
#X connect 15 0 3 0;
#X connect 16 0 20 0;
#X connect 20 0 17 0;
#X connect 21 0 22 0;
#X connect 22 0 4 0;
#X connect 23 0 24 0;
#X connect 24 0 13 0;
#X connect 25 0 1 0;
#X connect 26 0 25 1;
