#N canvas 520 226 446 383 10;
#X declare -stdlib extra/iemmatrix -stdpath extra/iemmatrix;
#X declare -stdpath extra/iemmatrx -stdlib extra/iemmatrix;
#X declare -stdpath extra/zexy -stdlib extra/zexy;
#X obj 89 114 exp;
#X obj 59 100 + 90;
#X obj 89 89 + 5;
#X obj 89 66 * 3;
#X obj 59 74 * 30;
#N canvas 747 270 184 85 jamx-labels 0;
#X obj 8 3 loadbang;
#X msg 8 26 drive decay attack;
#X obj 8 48 s \$1-bassist_jx.c.label;
#X connect 0 0 1 0;
#X connect 1 0 2 0;
#X restore 172 96 pd jamx-labels;
#X text 123 22 http://www.netpd.org/bassist;
#X text 121 8 bassist;
#N canvas 985 531 92 179 downsamplefactor 0;
#X obj 37 97 pow;
#X obj 37 69 2;
#X obj 14 40 t b b f;
#X obj 14 97 1;
#X obj 14 122 /;
#X obj 14 14 inlet;
#X obj 14 143 outlet;
#X connect 0 0 4 1;
#X connect 1 0 0 0;
#X connect 2 0 3 0;
#X connect 2 1 1 0;
#X connect 2 2 0 1;
#X connect 3 0 4 0;
#X connect 4 0 6 0;
#X connect 5 0 2 0;
#X restore 175 196 pd downsamplefactor;
#N canvas 830 388 454 358 dsp_________________ 0;
#N canvas 413 126 471 584 dsp 0;
#X obj 32 335 osc~;
#X obj 110 204 mtof;
#X obj 32 358 *~;
#X obj 45 232 line~;
#X obj 45 276 lop~ 100;
#N canvas 579 445 519 278 fatter 0;
#X obj 129 127 *~;
#X obj 8 21 inlet~;
#X obj 129 24 inlet~;
#X obj 8 151 outlet~;
#X obj 129 152 outlet~;
#X obj 8 121 *~;
#X obj 169 -9 loadbang;
#X msg 194 22 60;
#N canvas 343 564 366 243 counter 0;
#X obj 25 109 f;
#X obj 25 44 t b b;
#X obj 50 68 0;
#X obj 53 110 + 1;
#X obj 25 14 inlet;
#X obj 25 180 outlet;
#X obj 161 20 inlet;
#X obj 126 63 + 1;
#X obj 161 59 t b f;
#X obj 161 80 1;
#X obj 161 102 /;
#X obj 25 89 repeat 1;
#X obj 25 154 *;
#X obj 85 182 outlet;
#X obj 25 130 t f f;
#X connect 0 0 3 0;
#X connect 0 0 14 0;
#X connect 1 0 11 0;
#X connect 1 1 2 0;
#X connect 2 0 0 1;
#X connect 3 0 0 1;
#X connect 4 0 1 0;
#X connect 6 0 7 0;
#X connect 6 0 8 0;
#X connect 7 0 11 1;
#X connect 8 0 9 0;
#X connect 8 1 10 1;
#X connect 9 0 10 0;
#X connect 10 0 12 1;
#X connect 11 0 0 0;
#X connect 12 0 5 0;
#X connect 14 0 12 0;
#X connect 14 1 13 0;
#X restore 381 88 pd counter;
#X obj 381 45 t b f;
#X obj 237 57 t b f f;
#X obj 274 81 + 1;
#X text 223 30 <-- arraysize;
#N canvas 1066 562 247 300 curve 0;
#N canvas 750 295 229 226 gleichung 0;
#X obj 123 85 + 1;
#X obj 78 85 * -1;
#X obj 123 12 inlet;
#X obj 16 5 inlet;
#X obj 16 68 *;
#X obj 16 47 t f f;
#X obj 16 111 *;
#X obj 16 90 t f f;
#X obj 16 137 *;
#X obj 16 166 +;
#X obj 76 135 *;
#X obj 16 24 t f f;
#X obj 16 191 outlet;
#X connect 0 0 10 1;
#X connect 1 0 8 1;
#X connect 2 0 1 0;
#X connect 2 0 0 0;
#X connect 3 0 11 0;
#X connect 4 0 7 0;
#X connect 5 0 4 0;
#X connect 5 1 4 1;
#X connect 6 0 8 0;
#X connect 7 0 6 0;
#X connect 7 1 6 1;
#X connect 8 0 9 0;
#X connect 9 0 12 0;
#X connect 10 0 9 1;
#X connect 11 0 5 0;
#X connect 11 1 10 0;
#X restore 31 52 pd gleichung;
#X obj 31 17 inlet;
#X obj 31 230 outlet;
#X obj 136 12 inlet;
#X obj 136 36 * 0.35;
#N canvas 750 295 229 226 gleichung 0;
#X obj 123 85 + 1;
#X obj 78 85 * -1;
#X obj 123 12 inlet;
#X obj 16 5 inlet;
#X obj 16 68 *;
#X obj 16 47 t f f;
#X obj 16 111 *;
#X obj 16 90 t f f;
#X obj 16 137 *;
#X obj 16 166 +;
#X obj 76 135 *;
#X obj 16 24 t f f;
#X obj 16 191 outlet;
#X connect 0 0 10 1;
#X connect 1 0 8 1;
#X connect 2 0 1 0;
#X connect 2 0 0 0;
#X connect 3 0 11 0;
#X connect 4 0 7 0;
#X connect 5 0 4 0;
#X connect 5 1 4 1;
#X connect 6 0 8 0;
#X connect 7 0 6 0;
#X connect 7 1 6 1;
#X connect 8 0 9 0;
#X connect 9 0 12 0;
#X connect 10 0 9 1;
#X connect 11 0 5 0;
#X connect 11 1 10 0;
#X restore 31 72 pd gleichung;
#N canvas 750 295 229 226 gleichung 0;
#X obj 123 85 + 1;
#X obj 78 85 * -1;
#X obj 123 12 inlet;
#X obj 16 5 inlet;
#X obj 16 68 *;
#X obj 16 47 t f f;
#X obj 16 111 *;
#X obj 16 90 t f f;
#X obj 16 137 *;
#X obj 16 166 +;
#X obj 76 135 *;
#X obj 16 24 t f f;
#X obj 16 191 outlet;
#X connect 0 0 10 1;
#X connect 1 0 8 1;
#X connect 2 0 1 0;
#X connect 2 0 0 0;
#X connect 3 0 11 0;
#X connect 4 0 7 0;
#X connect 5 0 4 0;
#X connect 5 1 4 1;
#X connect 6 0 8 0;
#X connect 7 0 6 0;
#X connect 7 1 6 1;
#X connect 8 0 9 0;
#X connect 9 0 12 0;
#X connect 10 0 9 1;
#X connect 11 0 5 0;
#X connect 11 1 10 0;
#X restore 31 92 pd gleichung;
#N canvas 750 295 229 226 gleichung 0;
#X obj 123 85 + 1;
#X obj 78 85 * -1;
#X obj 123 12 inlet;
#X obj 16 5 inlet;
#X obj 16 68 *;
#X obj 16 47 t f f;
#X obj 16 111 *;
#X obj 16 90 t f f;
#X obj 16 137 *;
#X obj 16 166 +;
#X obj 76 135 *;
#X obj 16 24 t f f;
#X obj 16 191 outlet;
#X connect 0 0 10 1;
#X connect 1 0 8 1;
#X connect 2 0 1 0;
#X connect 2 0 0 0;
#X connect 3 0 11 0;
#X connect 4 0 7 0;
#X connect 5 0 4 0;
#X connect 5 1 4 1;
#X connect 6 0 8 0;
#X connect 7 0 6 0;
#X connect 7 1 6 1;
#X connect 8 0 9 0;
#X connect 9 0 12 0;
#X connect 10 0 9 1;
#X connect 11 0 5 0;
#X connect 11 1 10 0;
#X restore 31 112 pd gleichung;
#N canvas 750 295 229 226 gleichung 0;
#X obj 123 85 + 1;
#X obj 78 85 * -1;
#X obj 123 12 inlet;
#X obj 16 5 inlet;
#X obj 16 68 *;
#X obj 16 47 t f f;
#X obj 16 111 *;
#X obj 16 90 t f f;
#X obj 16 137 *;
#X obj 16 166 +;
#X obj 76 135 *;
#X obj 16 24 t f f;
#X obj 16 191 outlet;
#X connect 0 0 10 1;
#X connect 1 0 8 1;
#X connect 2 0 1 0;
#X connect 2 0 0 0;
#X connect 3 0 11 0;
#X connect 4 0 7 0;
#X connect 5 0 4 0;
#X connect 5 1 4 1;
#X connect 6 0 8 0;
#X connect 7 0 6 0;
#X connect 7 1 6 1;
#X connect 8 0 9 0;
#X connect 9 0 12 0;
#X connect 10 0 9 1;
#X connect 11 0 5 0;
#X connect 11 1 10 0;
#X restore 31 132 pd gleichung;
#N canvas 750 295 229 226 gleichung 0;
#X obj 123 85 + 1;
#X obj 78 85 * -1;
#X obj 123 12 inlet;
#X obj 16 5 inlet;
#X obj 16 68 *;
#X obj 16 47 t f f;
#X obj 16 111 *;
#X obj 16 90 t f f;
#X obj 16 137 *;
#X obj 16 166 +;
#X obj 76 135 *;
#X obj 16 24 t f f;
#X obj 16 191 outlet;
#X connect 0 0 10 1;
#X connect 1 0 8 1;
#X connect 2 0 1 0;
#X connect 2 0 0 0;
#X connect 3 0 11 0;
#X connect 4 0 7 0;
#X connect 5 0 4 0;
#X connect 5 1 4 1;
#X connect 6 0 8 0;
#X connect 7 0 6 0;
#X connect 7 1 6 1;
#X connect 8 0 9 0;
#X connect 9 0 12 0;
#X connect 10 0 9 1;
#X connect 11 0 5 0;
#X connect 11 1 10 0;
#X restore 31 152 pd gleichung;
#N canvas 750 295 229 226 gleichung 0;
#X obj 123 85 + 1;
#X obj 78 85 * -1;
#X obj 123 12 inlet;
#X obj 16 5 inlet;
#X obj 16 68 *;
#X obj 16 47 t f f;
#X obj 16 111 *;
#X obj 16 90 t f f;
#X obj 16 137 *;
#X obj 16 166 +;
#X obj 76 135 *;
#X obj 16 24 t f f;
#X obj 16 191 outlet;
#X connect 0 0 10 1;
#X connect 1 0 8 1;
#X connect 2 0 1 0;
#X connect 2 0 0 0;
#X connect 3 0 11 0;
#X connect 4 0 7 0;
#X connect 5 0 4 0;
#X connect 5 1 4 1;
#X connect 6 0 8 0;
#X connect 7 0 6 0;
#X connect 7 1 6 1;
#X connect 8 0 9 0;
#X connect 9 0 12 0;
#X connect 10 0 9 1;
#X connect 11 0 5 0;
#X connect 11 1 10 0;
#X restore 31 172 pd gleichung;
#N canvas 750 295 229 226 gleichung 0;
#X obj 123 85 + 1;
#X obj 78 85 * -1;
#X obj 123 12 inlet;
#X obj 16 5 inlet;
#X obj 16 68 *;
#X obj 16 47 t f f;
#X obj 16 111 *;
#X obj 16 90 t f f;
#X obj 16 137 *;
#X obj 16 166 +;
#X obj 76 135 *;
#X obj 16 24 t f f;
#X obj 16 191 outlet;
#X connect 0 0 10 1;
#X connect 1 0 8 1;
#X connect 2 0 1 0;
#X connect 2 0 0 0;
#X connect 3 0 11 0;
#X connect 4 0 7 0;
#X connect 5 0 4 0;
#X connect 5 1 4 1;
#X connect 6 0 8 0;
#X connect 7 0 6 0;
#X connect 7 1 6 1;
#X connect 8 0 9 0;
#X connect 9 0 12 0;
#X connect 10 0 9 1;
#X connect 11 0 5 0;
#X connect 11 1 10 0;
#X restore 31 192 pd gleichung;
#X connect 0 0 5 0;
#X connect 1 0 0 0;
#X connect 3 0 4 0;
#X connect 4 0 0 1;
#X connect 4 0 5 1;
#X connect 4 0 6 1;
#X connect 4 0 7 1;
#X connect 4 0 8 1;
#X connect 4 0 9 1;
#X connect 4 0 10 1;
#X connect 4 0 11 1;
#X connect 5 0 6 0;
#X connect 6 0 7 0;
#X connect 7 0 8 0;
#X connect 8 0 9 0;
#X connect 9 0 10 0;
#X connect 10 0 11 0;
#X connect 11 0 2 0;
#X restore 381 109 pd curve;
#X obj 438 109 + 1;
#X obj 237 78 0;
#X obj 381 22 inlet;
#X obj 274 103 list prepend \$1;
#X obj 8 70 rh_sgn~;
#X obj 68 74 rh_abs~;
#X obj 129 76 rh_sgn~;
#X obj 180 75 rh_abs~;
#X obj 69 95 +~ 1;
#X obj 180 96 +~ 1;
#X text 103 95 *;
#X text 210 98 *;
#X text 54 210 *) [+~ 1] is there because 4-point interpolation table
read starts at index 1;
#X obj 394 141 tabwrite \$1-_;
#X obj 159 120 tabread4~ \$1-_;
#X obj 39 118 tabread4~ \$1-_;
#X msg 274 127 \; \$1-_ resize \$2;
#X obj 381 168 netpd_t \$1 _ 60;
#X obj 38 49 *~ 0;
#X obj 159 55 *~ 0;
#X connect 0 0 4 0;
#X connect 1 0 18 0;
#X connect 1 0 32 0;
#X connect 2 0 20 0;
#X connect 2 0 33 0;
#X connect 5 0 3 0;
#X connect 6 0 7 0;
#X connect 7 0 10 0;
#X connect 7 0 32 1;
#X connect 7 0 33 1;
#X connect 8 0 13 0;
#X connect 8 1 14 0;
#X connect 9 0 8 0;
#X connect 9 1 13 1;
#X connect 10 0 15 0;
#X connect 10 1 8 1;
#X connect 10 2 11 0;
#X connect 11 0 17 0;
#X connect 13 0 27 0;
#X connect 13 0 31 0;
#X connect 14 0 27 1;
#X connect 14 0 31 1;
#X connect 15 0 9 0;
#X connect 16 0 9 0;
#X connect 17 0 30 0;
#X connect 18 0 5 0;
#X connect 19 0 22 0;
#X connect 20 0 0 0;
#X connect 21 0 23 0;
#X connect 22 0 29 0;
#X connect 23 0 28 0;
#X connect 28 0 0 1;
#X connect 29 0 5 1;
#X connect 32 0 19 0;
#X connect 33 0 21 0;
#X restore 32 386 pd fatter;
#X obj 81 331 osc~;
#X obj 81 354 *~;
#X obj 45 253 dbtorms~;
#X obj 45 71 f;
#X obj 119 399 *;
#X obj 119 373 t f f;
#X obj 81 309 +;
#X obj 97 285 * 3;
#X msg 349 172 set 64 1 \$1;
#X obj 77 184 f;
#X obj 77 163 del;
#X obj 45 91 pack;
#X obj 45 113 t l b;
#X msg 77 205 0 \$1;
#X obj 45 38 t b f b;
#X msg 109 92 stop;
#X obj 243 206 del;
#X obj 243 185 t b f b;
#X obj 280 226 1;
#X obj 243 226 0;
#X obj 243 247 f;
#X obj 349 10 inlet downsample;
#X obj 45 6 inlet note;
#X obj 116 7 inlet drive;
#X obj 195 7 inlet decay;
#X obj 270 8 inlet attack;
#X obj 254 109 t b f;
#X obj 254 138 +;
#X obj 241 163 f;
#X obj 312 411 outlet;
#X obj 32 515 outlet~ lin;
#X obj 117 516 outlet~ lin;
#X obj 243 291 block~;
#X obj 112 234 netpd_r \$1 detune;
#X obj 119 303 netpd_r \$1 volume;
#X obj 165 329 netpd_r \$1 boes;
#X msg 119 421 \$1 50;
#X obj 119 443 line~;
#X obj 32 488 *~;
#X obj 82 489 *~;
#X connect 0 0 2 0;
#X connect 1 0 0 0;
#X connect 1 0 12 0;
#X connect 2 0 5 0;
#X connect 3 0 8 0;
#X connect 4 0 2 1;
#X connect 4 0 7 1;
#X connect 5 0 44 0;
#X connect 5 1 45 0;
#X connect 6 0 7 0;
#X connect 7 0 5 1;
#X connect 8 0 4 0;
#X connect 9 0 17 0;
#X connect 10 0 42 0;
#X connect 11 0 10 0;
#X connect 11 1 10 1;
#X connect 12 0 6 0;
#X connect 13 0 12 1;
#X connect 14 0 38 0;
#X connect 15 0 19 0;
#X connect 16 0 15 0;
#X connect 17 0 18 0;
#X connect 18 0 3 0;
#X connect 18 1 16 0;
#X connect 19 0 3 0;
#X connect 20 0 9 0;
#X connect 20 1 1 0;
#X connect 20 2 21 0;
#X connect 20 2 34 0;
#X connect 21 0 16 0;
#X connect 22 0 25 0;
#X connect 23 0 22 0;
#X connect 23 1 22 1;
#X connect 23 2 24 0;
#X connect 24 0 26 0;
#X connect 25 0 26 0;
#X connect 26 0 35 0;
#X connect 27 0 14 0;
#X connect 28 0 20 0;
#X connect 29 0 9 1;
#X connect 30 0 15 1;
#X connect 30 0 33 0;
#X connect 31 0 16 1;
#X connect 31 0 17 1;
#X connect 31 0 32 0;
#X connect 32 0 33 0;
#X connect 32 1 33 1;
#X connect 33 0 34 1;
#X connect 34 0 23 0;
#X connect 39 0 13 0;
#X connect 40 0 11 0;
#X connect 41 0 5 2;
#X connect 42 0 43 0;
#X connect 43 0 44 1;
#X connect 43 0 45 1;
#X connect 44 0 36 0;
#X connect 45 0 37 0;
#X restore 19 110 pd dsp;
#X obj 10 15 inlet note;
#X obj 75 17 inlet drive;
#X obj 152 18 inlet dec;
#X obj 294 20 inlet ds;
#X obj 218 20 inlet att;
#X obj 9 198 outlet~;
#X obj 58 198 outlet~;
#X obj 123 191 outlet;
#X connect 0 0 6 0;
#X connect 0 1 7 0;
#X connect 0 2 8 0;
#X connect 1 0 0 0;
#X connect 2 0 0 1;
#X connect 3 0 0 2;
#X connect 4 0 0 4;
#X connect 5 0 0 3;
#X restore 33 269 pd dsp_________________;
#X obj 33 24 unpack f f f f;
#X obj 119 138 * 200;
#N canvas 590 304 166 122 \$1-bassist 0;
#X obj 3 2 cnv 15 151 99 empty empty empty 20 12 0 14 -174784 -66577
0;
#X obj 5 4 cnv 15 147 95 empty empty empty 15 38 1 12 -74944 -216384
0;
#X obj 10 8 hsl 95 20 0 1 0 0 \$1-volume \$1-volume volume 0 7 1 7
-212223 -1 -1 7520 1;
#X obj 10 52 hsl 95 20 0 1 0 0 \$1-boes \$1-boes boesartigkeit 0 7
1 7 -212224 -1 -1 0 1;
#X obj 109 8 cnv 4 40 42 empty empty empty 20 12 0 14 -220544 -66577
0;
#N canvas 0 0 450 300 (subpatch) 0;
#X array \$1-_ 61 float 0;
#X coords 0 1 60 0 40 42 1;
#X restore 109 8 graph;
#X obj 10 30 hsl 95 20 0 1 0 0 \$1-detune \$1-detune detune 0 7 1 7
-212224 -1 -1 0 1;
#X obj 7 75 hradio 20 1 0 5 \$1-dwnsmpl \$1-dwnsmpl downsampling 2
7 1 7 -212224 -1 -1 0;
#X obj 109 52 tgl 20 0 \$1-open-jam \$0-bli jamx 2 6 1 7 -212223 -1
-1 0 1;
#X restore 172 136 pd \$1-bassist;
#X obj 241 268 jamx \$1 bassist 3;
#X obj 289 66 netpd_head \$1 bassist;
#X obj 175 173 netpd_f \$1 dwnsmpl 0;
#X obj 33 1 r \$1-bassist;
#N canvas 882 44 450 300 NETPD 0;
#N canvas 1104 760 174 201 abslist 0;
#X msg 15 25 jamx;
#X msg 17 58 roman_helpers;
#X msg 17 88 i2mx;
#X restore 10 32 pd abslist;
#X msg 10 11 version 0 4 0;
#X restore 171 62 pd NETPD 2 0;
#N canvas 138 580 291 137 bassist-netpd-fs 0;
#X obj 12 40 netpd_f \$1 detune 0;
#X obj 12 19 netpd_f \$1 volume 0.8;
#X obj 13 61 netpd_f \$1 boes 0;
#X restore 172 117 pd bassist-netpd-fs;
#X obj 32 321 i2mx \$1 bassist;
#X obj 32 346 switch~;
#X connect 0 0 9 2;
#X connect 1 0 9 1;
#X connect 2 0 0 0;
#X connect 3 0 2 0;
#X connect 4 0 1 0;
#X connect 8 0 9 4;
#X connect 9 0 19 0;
#X connect 9 1 19 1;
#X connect 9 2 19 2;
#X connect 10 0 9 0;
#X connect 10 1 4 0;
#X connect 10 2 3 0;
#X connect 10 3 11 0;
#X connect 11 0 9 3;
#X connect 15 0 8 0;
#X connect 16 0 10 0;
#X connect 19 0 20 0;
