#N canvas 627 303 333 221 10;
#X declare -stdlib extra/iemmatrix -stdpath extra/iemmatrix;
#X declare -stdpath extra/iemmatrx -stdlib extra/iemmatrix;
#X declare -stdpath extra/zexy -stdlib extra/zexy;
#X declare -stdpath extra/iemlib -stdlib extra/iemlib;
#N canvas 339 237 671 621 pluckit! 0;
#X obj 37 263 pack f f f;
#N canvas 500 72 755 400 dat 0;
#X obj 30 251 outlet voices;
#X msg 69 197 pluckpos \$1;
#N canvas 383 157 667 494 brown 0;
#X obj 178 39 inlet;
#X obj 263 374 outlet;
#X obj 254 327 - 1;
#X obj 485 223 int;
#X obj 244 70 * 127;
#X obj 252 88 + 128;
#X obj 247 213 * -256;
#X obj 307 226 * -65536;
#X obj 307 260 +;
#X msg 255 347 color \$1 23 23;
#X obj 486 178 * -40;
#X obj 230 192 int;
#X obj 231 147 * -80;
#X obj 289 137 t f f f;
#X obj 232 168 + 255;
#X obj 487 199 + 255;
#X obj 160 263 int;
#X obj 152 244 + 255;
#X obj 158 217 * -120;
#X obj 115 300 * -1;
#X obj 372 71 + 0.3;
#X obj 141 328 +;
#X connect 0 0 20 0;
#X connect 2 0 9 0;
#X connect 3 0 7 0;
#X connect 4 0 5 0;
#X connect 6 0 8 0;
#X connect 7 0 8 1;
#X connect 8 0 21 1;
#X connect 9 0 1 0;
#X connect 10 0 15 0;
#X connect 11 0 6 0;
#X connect 12 0 14 0;
#X connect 13 0 18 0;
#X connect 13 1 12 0;
#X connect 13 2 10 0;
#X connect 14 0 11 0;
#X connect 15 0 3 0;
#X connect 16 0 19 0;
#X connect 17 0 16 0;
#X connect 18 0 17 0;
#X connect 19 0 21 0;
#X connect 20 0 13 0;
#X connect 21 0 2 0;
#X restore 331 134 pd brown;
#X obj 39 99 netpd_r \$1 pluckpos;
#X obj 114 169 s \$1-pluckposr;
#X connect 1 0 0 0;
#X connect 2 0 4 0;
#X connect 3 0 1 0;
#X connect 3 0 2 0;
#X restore 335 194 pd dat;
#X obj 83 306 route 1 2 3 4 5;
#X obj 389 328 t b f;
#X obj 393 373 t b f;
#X obj 402 420 t b f;
#X obj 406 465 t b f;
#X obj 55 202 pack f f;
#X obj 51 528 switch~;
#X obj 76 334 bon-plucker-voice;
#N canvas 383 157 667 494 brown 0;
#X obj 178 39 inlet;
#X obj 263 374 outlet;
#X obj 254 327 - 1;
#X obj 485 223 int;
#X obj 244 70 * 127;
#X obj 252 88 + 128;
#X obj 247 213 * -256;
#X obj 307 226 * -65536;
#X obj 307 260 +;
#X msg 255 347 color \$1 23 23;
#X obj 486 178 * -40;
#X obj 230 192 int;
#X obj 231 147 * -80;
#X obj 289 137 t f f f;
#X obj 232 168 + 255;
#X obj 487 199 + 255;
#X obj 160 263 int;
#X obj 152 244 + 255;
#X obj 158 217 * -120;
#X obj 115 300 * -1;
#X obj 372 71 + 0.3;
#X obj 141 328 +;
#X connect 0 0 20 0;
#X connect 2 0 9 0;
#X connect 3 0 7 0;
#X connect 4 0 5 0;
#X connect 6 0 8 0;
#X connect 7 0 8 1;
#X connect 8 0 21 1;
#X connect 9 0 1 0;
#X connect 10 0 15 0;
#X connect 11 0 6 0;
#X connect 12 0 14 0;
#X connect 13 0 18 0;
#X connect 13 1 12 0;
#X connect 13 2 10 0;
#X connect 14 0 11 0;
#X connect 15 0 3 0;
#X connect 16 0 19 0;
#X connect 17 0 16 0;
#X connect 18 0 17 0;
#X connect 19 0 21 0;
#X connect 20 0 13 0;
#X connect 21 0 2 0;
#X restore 272 126 pd brown;
#X msg 52 82 \$1;
#X obj 45 169 makenote 127 300;
#X obj 198 131 * 1000;
#X obj 409 486 |;
#X obj 407 442 |;
#X obj 398 395 |;
#X obj 394 350 |;
#X obj 88 358 bon-plucker-voice;
#X obj 104 384 bon-plucker-voice;
#X obj 120 405 bon-plucker-voice;
#X obj 134 425 bon-plucker-voice;
#X obj 46 228 poly 5 1;
#X obj 406 508 change;
#X obj 234 97 netpd_r \$1 decay;
#X obj 30 34 r \$1-bon-plucker;
#X obj 274 150 s \$1-decay;
#X obj 51 497 i2mx \$1 bon-plucker;
#X connect 0 0 2 0;
#X connect 1 0 9 1;
#X connect 1 0 18 1;
#X connect 1 0 19 1;
#X connect 1 0 20 1;
#X connect 1 0 21 1;
#X connect 2 0 9 0;
#X connect 2 1 18 0;
#X connect 2 2 19 0;
#X connect 2 3 20 0;
#X connect 2 4 21 0;
#X connect 3 0 17 0;
#X connect 3 1 17 1;
#X connect 4 0 16 0;
#X connect 4 1 16 1;
#X connect 5 0 15 0;
#X connect 5 1 15 1;
#X connect 6 0 14 0;
#X connect 6 1 14 1;
#X connect 7 0 22 0;
#X connect 9 0 27 0;
#X connect 9 0 27 1;
#X connect 9 1 3 0;
#X connect 10 0 26 0;
#X connect 11 0 12 0;
#X connect 12 0 7 0;
#X connect 12 1 7 1;
#X connect 13 0 12 2;
#X connect 14 0 23 0;
#X connect 15 0 6 0;
#X connect 16 0 5 0;
#X connect 17 0 4 0;
#X connect 18 0 27 0;
#X connect 18 0 27 1;
#X connect 18 1 17 0;
#X connect 19 0 27 0;
#X connect 19 0 27 1;
#X connect 19 1 16 0;
#X connect 20 0 27 0;
#X connect 20 0 27 1;
#X connect 20 1 15 0;
#X connect 21 0 27 0;
#X connect 21 0 27 1;
#X connect 21 1 14 0;
#X connect 22 0 0 0;
#X connect 22 1 0 1;
#X connect 22 2 0 2;
#X connect 23 0 27 2;
#X connect 24 0 10 0;
#X connect 24 0 13 0;
#X connect 25 0 11 0;
#X connect 27 0 8 0;
#X restore 19 83 pd pluckit!;
#N canvas 1006 240 107 77 \$1-bon-plucker 0;
#X obj 8 5 cnv 15 80 63 empty empty bon-plucker 4 6 0 8 -211943 -123526
0;
#X obj 11 36 hsl 75 17 0 1 0 0 bon-plucker-pluckpos bon-plucker-pluckposr
pluckpos 4 8 0 8 -249463 -143491 -143491 0 1;
#X obj 11 19 hsl 75 17 0 1 0 0 bon-plucker-decay bon-plucker-decayr
decay 4 8 0 8 -236782 -143491 -143491 0 1;
#X obj 8 53 bng 15 250 50 0 \$1-open-jam \$1-dummy-in jamx 18 8 1 9
-178191 -143491 -143491;
#X restore 19 63 pd \$1-bon-plucker;
#X obj 19 104 netpd_head \$1 bon-plucker;
#X obj 19 147 netpd_f \$1 pluckpos 0.3;
#X obj 19 125 netpd_f \$1 decay 0.5;
#X obj 19 169 jamx \$1 bon-plucker;
#N canvas 847 118 242 115 NETPD 0;
#N canvas 419 231 155 134 abslist 0;
#X msg 14 13 jamx;
#X msg 14 54 bon-plucker-voice;
#X msg 14 34 i2mx;
#X restore 10 38 pd abslist;
#X msg 10 12 version 0 0 1;
#X restore 19 43 pd NETPD 2 0;
#X obj 19 23 declare -stdpath extra/iemlib -stdlib extra/iemlib;
