#N canvas 922 473 166 130 10;
#X declare -stdlib extra/iemmatrix -stdpath extra/iemmatrix;
#X declare -stdpath extra/zexy -stdlib extra/zexy;
#X declare -stdpath extra/iemmatrix -stdlib extra/iemmatrix;
#N canvas 800 82 647 612 dspstuff 0;
#X obj 21 483 peakfilter~;
#X obj 418 540 rh_symm2norm~;
#X obj 271 538 rh_symm2norm~;
#X obj 20 381 *~;
#X obj 19 112 mtof;
#X msg 19 69 \$1;
#X obj 418 517 osc~;
#X obj 271 516 osc~;
#X obj 418 496 / 1.39578;
#X obj 259 84 list split 1;
#X obj 417 566 rh_scalelog~ 250 7000;
#X obj 270 562 rh_scalelog~ 3 30;
#X obj 294 116 list append;
#X obj 294 145 unpack f f f;
#X obj 352 253 del;
#X obj 294 270 pack;
#X msg 294 301 \$2 \$1;
#X obj 294 340 line~;
#X obj 352 281 f;
#X msg 352 307 0 \$1;
#X obj 438 191 rmstodb;
#X obj 294 365 dbtorms~;
#X obj 373 366 del;
#X obj 259 250 b;
#X msg 373 338 stop;
#X obj 259 395 1;
#X obj 259 426 f;
#X obj 373 392 0;
#X obj 21 557 switch~;
#X obj 294 241 * 4000;
#X obj 367 229 * 10000;
#X obj 19 89 - 0.1;
#N canvas 1106 44 448 298 sawl 0;
#X obj 39 282 outlet~;
#X obj 35 5 inlet;
#X obj 21 61 nblsaw~ 400;
#X obj 46 113 nblsaw~ 400;
#X obj 76 171 nblsaw~ 400;
#X obj 95 219 nblsaw~ 400;
#X obj 291 219 nblsaw~ 400;
#X obj 275 171 nblsaw~ 400;
#X obj 257 119 nblsaw~ 400;
#X obj 231 67 nblsaw~ 400;
#X obj 207 35 + 1.00065;
#X obj 46 93 * 1.20089;
#X obj 75 149 * 1.49995;
#X obj 95 196 * 1.80005;
#X obj 291 197 * 1.79992;
#X obj 275 149 * 1.50007;
#X obj 257 99 * 1.19948;
#X connect 1 0 2 0;
#X connect 1 0 10 0;
#X connect 1 0 11 0;
#X connect 1 0 12 0;
#X connect 1 0 13 0;
#X connect 2 0 0 0;
#X connect 3 0 0 0;
#X connect 4 0 0 0;
#X connect 5 0 0 0;
#X connect 6 0 0 0;
#X connect 7 0 0 0;
#X connect 8 0 0 0;
#X connect 9 0 0 0;
#X connect 10 0 9 0;
#X connect 10 0 14 0;
#X connect 10 0 15 0;
#X connect 10 0 16 0;
#X connect 11 0 3 0;
#X connect 12 0 4 0;
#X connect 13 0 5 0;
#X connect 14 0 6 0;
#X connect 15 0 7 0;
#X connect 16 0 8 0;
#X restore 19 176 pd sawl;
#N canvas 1232 44 448 298 saw2 0;
#X obj 257 99 * 1.2;
#X obj 291 197 * 1.8;
#X obj 46 93 * 1.2;
#X obj 95 197 * 1.8;
#X obj 39 282 outlet~;
#X obj 35 5 inlet;
#X obj 252 31 + 1.23;
#X obj 21 61 nblsaw~ 80;
#X obj 46 113 nblsaw~ 80;
#X obj 76 171 nblsaw~ 80;
#X obj 95 219 nblsaw~ 80;
#X obj 232 67 nblsaw~ 80;
#X obj 257 119 nblsaw~ 80;
#X obj 275 171 nblsaw~ 80;
#X obj 291 219 nblsaw~ 80;
#X obj 76 149 * 1.50009;
#X obj 275 149 * 1.49992;
#X connect 0 0 12 0;
#X connect 1 0 14 0;
#X connect 2 0 8 0;
#X connect 3 0 10 0;
#X connect 5 0 2 0;
#X connect 5 0 3 0;
#X connect 5 0 6 0;
#X connect 5 0 7 0;
#X connect 5 0 15 0;
#X connect 6 0 0 0;
#X connect 6 0 1 0;
#X connect 6 0 11 0;
#X connect 6 0 16 0;
#X connect 7 0 4 0;
#X connect 8 0 4 0;
#X connect 9 0 4 0;
#X connect 10 0 4 0;
#X connect 11 0 4 0;
#X connect 12 0 4 0;
#X connect 13 0 4 0;
#X connect 14 0 4 0;
#X connect 15 0 9 0;
#X connect 16 0 13 0;
#X restore 94 194 pd saw2;
#X obj 95 398 *~;
#X obj 94 483 peakfilter~;
#X obj 19 7 jamx \$1 cheapchord 2;
#X obj 187 8 netpd_head \$1 cheapchord;
#X obj 438 168 netpd_f \$1 volume 0.025;
#X obj 352 446 netpd_f \$1 modf 1.23;
#X obj 21 532 i2mx \$1 cheapchord;
#X obj 94 169 * 0.99978;
#X obj 19 29 t a a;
#N canvas 911 307 184 85 jamx-labels 0;
#X obj 8 3 loadbang;
#X msg 8 26 attack decay;
#X obj 8 48 s \$1-cheapchord_jx.c.label;
#X connect 0 0 1 0;
#X connect 1 0 2 0;
#X restore 187 31 pd jamx-labels;
#X obj 380 13 netpd_f \$1 attack 0;
#X obj 449 63 t a a;
#X obj 449 85 *;
#X obj 380 61 t a a;
#X obj 380 83 *;
#X obj 367 166 t a a;
#X obj 367 188 *;
#X obj 294 173 t a a;
#X obj 294 195 *;
#X obj 294 216 +;
#X obj 367 210 +;
#X obj 449 42 netpd_f \$1 decay 0.25;
#X connect 0 0 40 0;
#X connect 1 0 10 0;
#X connect 2 0 11 0;
#X connect 3 0 0 0;
#X connect 4 0 32 0;
#X connect 4 0 41 0;
#X connect 5 0 31 0;
#X connect 6 0 1 0;
#X connect 7 0 2 0;
#X connect 8 0 6 0;
#X connect 9 1 12 0;
#X connect 10 0 0 1;
#X connect 10 0 35 1;
#X connect 11 0 0 2;
#X connect 11 0 35 2;
#X connect 12 0 13 0;
#X connect 13 0 23 0;
#X connect 13 0 51 0;
#X connect 13 1 49 0;
#X connect 13 2 15 1;
#X connect 14 0 18 0;
#X connect 15 0 16 0;
#X connect 16 0 17 0;
#X connect 17 0 21 0;
#X connect 18 0 19 0;
#X connect 18 0 22 0;
#X connect 19 0 17 0;
#X connect 20 0 12 1;
#X connect 21 0 3 1;
#X connect 21 0 34 1;
#X connect 22 0 27 0;
#X connect 23 0 24 0;
#X connect 23 0 25 0;
#X connect 24 0 22 0;
#X connect 25 0 26 0;
#X connect 26 0 40 2;
#X connect 27 0 26 0;
#X connect 29 0 15 0;
#X connect 29 0 14 0;
#X connect 30 0 18 1;
#X connect 31 0 4 0;
#X connect 32 0 3 0;
#X connect 33 0 34 0;
#X connect 34 0 35 0;
#X connect 35 0 40 1;
#X connect 36 0 42 0;
#X connect 38 0 20 0;
#X connect 39 0 7 0;
#X connect 39 0 8 0;
#X connect 40 0 28 0;
#X connect 41 0 33 0;
#X connect 42 0 5 0;
#X connect 42 1 9 0;
#X connect 44 0 47 0;
#X connect 45 0 46 0;
#X connect 45 1 46 1;
#X connect 46 0 54 1;
#X connect 47 0 48 0;
#X connect 47 1 48 1;
#X connect 48 0 53 1;
#X connect 49 0 50 0;
#X connect 49 1 50 1;
#X connect 50 0 54 0;
#X connect 51 0 52 0;
#X connect 51 1 52 1;
#X connect 52 0 53 0;
#X connect 53 0 29 0;
#X connect 54 0 30 0;
#X connect 55 0 45 0;
#X restore 13 32 pd dspstuff;
#N canvas 709 389 179 133 \$1-cheapchord 1;
#X obj 19 18 hsl 128 15 0 0.05 0 0 \$1-volume \$1-volume volume 3 8
0 10 -262144 -1 -1 6350 1;
#X obj 19 37 hsl 128 15 0.01 10 1 0 \$1-modf \$1-modf modulation_frequency
3 8 0 10 -262144 -1 -1 8847 1;
#X obj 16 101 bng 15 250 50 0 \$1-open-jam \$0-bli jamx 17 7 0 10 -262144
-1 -1;
#X obj 19 56 hsl 128 15 0 1 0 0 \$1-attack \$1-attack attack 3 8 0
10 -262144 -1 -1 0 1;
#X obj 19 75 hsl 128 15 0 1 0 0 \$1-decay \$1-decay decay 3 8 0 10
-262144 -1 -1 3200 1;
#X restore 13 55 pd \$1-cheapchord;
#N canvas 998 292 218 116 NETPD 0;
#N canvas 624 180 374 187 abslist 0;
#X msg 27 16 netpd_bandlimited_oscillators;
#X msg 27 37 peakfilter~;
#X msg 27 57 roman_helpers;
#X msg 28 79 jamx;
#X msg 29 102 i2mx;
#X restore 8 10 pd abslist;
#X msg 8 33 version 0 0 4;
#X restore 13 77 pd NETPD 2 0;
