#N canvas 589 383 218 159 10;
#X declare -stdlib extra/iemmatrix -stdpath extra/iemmatrix;
#X declare -stdpath extra/zexy -stdlib extra/zexy;
#X declare -stdpath extra/iemmatrix -stdlib extra/iemmatrix;
#N canvas 330 44 501 427 daisy.code 0;
#X obj 228 60 *~;
#X obj 17 159 int;
#X obj 17 139 * 127;
#X obj 17 179 s \$0-base;
#X obj 228 163 *~ 0.251;
#X obj 279 83 t b f;
#X obj 279 143 -;
#X obj 309 103 * 0.212;
#X obj 402 180 noise~;
#X obj 228 203 lop~ 8000;
#X obj 386 200 *~;
#X obj 228 20 r~ \$0-ds;
#X obj 386 160 r~ \$0-ds;
#X obj 228 183 hip~ 20;
#X obj 244 40 catch~ \$0-l.dco;
#X obj 386 260 *~ 0.63;
#X obj 228 259 *~ 0.63;
#N canvas 418 44 562 526 dcf 0;
#X obj 31 456 outlet~;
#X obj 141 236 osc~;
#X obj 283 126 r \$0-base;
#X obj 141 32 t f f;
#X obj 141 52 *;
#X obj 141 72 t f f;
#X obj 141 92 *;
#X obj 141 297 *~ 12;
#X obj 141 340 mtof~;
#X obj 162 174 r \$0-n.t;
#X obj 171 276 * 24;
#X obj 141 153 * 1000;
#X obj 141 112 t f f;
#X obj 141 132 *;
#X obj 291 228 t b f;
#X obj 291 166 * 48;
#X obj 283 249 + 9;
#X obj 283 269 max 1;
#X obj 283 290 min 127;
#X obj 31 390 vcf~;
#X obj 55 275 t f f;
#X obj 55 295 *;
#X obj 55 355 * 100;
#X obj 55 314 t f f;
#X obj 55 334 *;
#X obj 76 405 * 0.158;
#X obj 31 427 *~ 0.158;
#X obj 31 234 inlet~;
#X obj 291 187 - 24;
#X obj 291 207 int;
#X obj 162 195 f 0.5;
#X text 169 214 range aendern;
#X obj 283 332 line~;
#X obj 283 311 pack \$1 1000;
#X obj 352 290 r \$0-glide;
#X obj 141 319 +~;
#X obj 141 11 netpd_f \$1 fv 0;
#X obj 273 50 netpd_f \$1 fp 0.5;
#X obj 279 81 netpd_f \$1 fs 0;
#X obj 291 146 netpd_f \$1 fb 0.5;
#X obj 55 255 netpd_f \$1 fq 0.5;
#X connect 1 0 7 0;
#X connect 2 0 16 0;
#X connect 3 0 4 0;
#X connect 3 1 4 1;
#X connect 4 0 5 0;
#X connect 5 0 6 0;
#X connect 5 1 6 1;
#X connect 6 0 12 0;
#X connect 7 0 35 0;
#X connect 8 0 19 1;
#X connect 9 0 30 0;
#X connect 10 0 7 1;
#X connect 11 0 1 0;
#X connect 12 0 13 0;
#X connect 12 1 13 1;
#X connect 13 0 11 0;
#X connect 14 0 16 0;
#X connect 14 1 16 1;
#X connect 15 0 28 0;
#X connect 16 0 17 0;
#X connect 17 0 18 0;
#X connect 18 0 33 0;
#X connect 19 0 26 0;
#X connect 20 0 21 0;
#X connect 20 1 21 1;
#X connect 21 0 23 0;
#X connect 22 0 19 2;
#X connect 22 0 25 0;
#X connect 23 0 24 0;
#X connect 23 1 24 1;
#X connect 24 0 22 0;
#X connect 25 0 26 1;
#X connect 26 0 0 0;
#X connect 27 0 19 0;
#X connect 28 0 29 0;
#X connect 29 0 14 0;
#X connect 30 0 1 1;
#X connect 32 0 35 1;
#X connect 33 0 32 0;
#X connect 34 0 33 1;
#X connect 35 0 8 0;
#X connect 36 0 3 0;
#X connect 37 0 30 1;
#X connect 38 0 10 0;
#X connect 39 0 15 0;
#X connect 40 0 20 0;
#X restore 386 220 pd dcf;
#N canvas 656 153 988 358 dco 0;
#X obj 19 226 osc~;
#X obj 177 236 osc~;
#X obj 177 76 + 3;
#X obj 42 186 r \$0-phase;
#X obj 200 196 r \$0-phase;
#X obj 19 16 r \$0-base;
#X obj 177 16 r \$0-base;
#X obj 185 56 t b f;
#X obj 334 216 osc~;
#X obj 357 176 r \$0-phase;
#X obj 334 16 r \$0-base;
#X obj 334 96 + 12;
#X obj 491 135 + 12;
#X obj 185 36 r \$0-dismidi;
#X obj 200 156 r \$0-disfreq;
#X obj 491 295 osc~;
#X obj 491 75 + 3;
#X obj 514 255 r \$0-phase;
#X obj 491 15 r \$0-base;
#X obj 499 55 t b f;
#X obj 499 35 r \$0-dismidi;
#X obj 514 215 r \$0-disfreq;
#X obj 514 275 f 0.25;
#X obj 346 36 r \$0-unf;
#X obj 346 76 t b f;
#X obj 346 56 * 12;
#X obj 540 55 r \$0-unf;
#X obj 540 95 t b f;
#X obj 540 75 * 12;
#X obj 651 256 osc~;
#X obj 674 216 r \$0-phase;
#X obj 651 16 r \$0-base;
#X obj 812 286 osc~;
#X obj 812 76 + 3;
#X obj 835 246 r \$0-phase;
#X obj 812 16 r \$0-base;
#X obj 820 56 t b f;
#X obj 820 36 r \$0-dismidi;
#X obj 835 206 r \$0-disfreq;
#X obj 835 266 f 0.25;
#X obj 663 66 r \$0-unf;
#X obj 663 106 t b f;
#X obj 861 56 r \$0-unf;
#X obj 861 96 t b f;
#X obj 651 136 + 24;
#X obj 663 86 * 24;
#X obj 812 126 + 24;
#X obj 861 76 * 24;
#X obj 200 216 f 0.25;
#X obj 42 206 f 0.25;
#X obj 357 196 f 0.25;
#X obj 674 236 f 0.25;
#X obj 19 246 throw~ \$0-l.dco;
#X obj 177 256 throw~ \$0-l.dco;
#X obj 334 236 throw~ \$0-l.dco;
#X obj 491 315 throw~ \$0-l.dco;
#X obj 651 276 throw~ \$0-l.dco;
#X obj 812 306 throw~ \$0-l.dco;
#X obj 812 226 +~ 0;
#X obj 812 186 mtof~;
#X obj 812 166 line~;
#X obj 812 146 pack \$1 1000;
#X obj 891 126 r \$0-glide;
#X obj 651 196 mtof~;
#X obj 651 176 line~;
#X obj 651 156 pack \$1 1000;
#X obj 730 136 r \$0-glide;
#X obj 334 136 line~;
#X obj 334 116 pack \$1 1000;
#X obj 413 96 r \$0-glide;
#X obj 334 156 mtof~;
#X obj 491 195 mtof~;
#X obj 491 235 +~ 0;
#X obj 491 175 line~;
#X obj 491 155 pack \$1 1000;
#X obj 570 135 r \$0-glide;
#X obj 177 176 +~ 0;
#X obj 177 136 mtof~;
#X obj 177 116 line~;
#X obj 177 96 pack \$1 1000;
#X obj 256 76 r \$0-glide;
#X obj 19 166 mtof~;
#X obj 19 146 line~;
#X obj 19 126 pack \$1 1000;
#X obj 98 106 r \$0-glide;
#X connect 0 0 52 0;
#X connect 1 0 53 0;
#X connect 2 0 79 0;
#X connect 3 0 49 0;
#X connect 4 0 48 0;
#X connect 5 0 83 0;
#X connect 6 0 2 0;
#X connect 7 0 2 0;
#X connect 7 1 2 1;
#X connect 8 0 54 0;
#X connect 9 0 50 0;
#X connect 10 0 11 0;
#X connect 11 0 68 0;
#X connect 12 0 74 0;
#X connect 13 0 7 0;
#X connect 14 0 76 1;
#X connect 15 0 55 0;
#X connect 16 0 12 0;
#X connect 17 0 22 0;
#X connect 18 0 16 0;
#X connect 19 0 16 0;
#X connect 19 1 16 1;
#X connect 20 0 19 0;
#X connect 21 0 72 1;
#X connect 22 0 15 1;
#X connect 23 0 25 0;
#X connect 24 0 11 0;
#X connect 24 1 11 1;
#X connect 25 0 24 0;
#X connect 26 0 28 0;
#X connect 27 0 12 0;
#X connect 27 1 12 1;
#X connect 28 0 27 0;
#X connect 29 0 56 0;
#X connect 30 0 51 0;
#X connect 31 0 44 0;
#X connect 32 0 57 0;
#X connect 33 0 46 0;
#X connect 34 0 39 0;
#X connect 35 0 33 0;
#X connect 36 0 33 0;
#X connect 36 1 33 1;
#X connect 37 0 36 0;
#X connect 38 0 58 1;
#X connect 39 0 32 1;
#X connect 40 0 45 0;
#X connect 41 0 44 0;
#X connect 41 1 44 1;
#X connect 42 0 47 0;
#X connect 43 0 46 0;
#X connect 43 1 46 1;
#X connect 44 0 65 0;
#X connect 45 0 41 0;
#X connect 46 0 61 0;
#X connect 47 0 43 0;
#X connect 48 0 1 1;
#X connect 49 0 0 1;
#X connect 50 0 8 1;
#X connect 51 0 29 1;
#X connect 58 0 32 0;
#X connect 59 0 58 0;
#X connect 60 0 59 0;
#X connect 61 0 60 0;
#X connect 62 0 61 1;
#X connect 63 0 29 0;
#X connect 64 0 63 0;
#X connect 65 0 64 0;
#X connect 66 0 65 1;
#X connect 67 0 70 0;
#X connect 68 0 67 0;
#X connect 69 0 68 1;
#X connect 70 0 8 0;
#X connect 71 0 72 0;
#X connect 72 0 15 0;
#X connect 73 0 71 0;
#X connect 74 0 73 0;
#X connect 75 0 74 1;
#X connect 76 0 1 0;
#X connect 77 0 76 0;
#X connect 78 0 77 0;
#X connect 79 0 78 0;
#X connect 80 0 79 1;
#X connect 81 0 0 0;
#X connect 82 0 81 0;
#X connect 83 0 82 0;
#X connect 84 0 83 1;
#X restore 17 209 pd dco;
#X obj 17 119 f 0.5;
#N canvas 858 72 447 439 audio.envelope-ds 0;
#X obj 200 372 dbtorms~;
#X obj 217 33 moses 0.5;
#X obj 200 272 pack \$1 \$2;
#X obj 200 352 line~;
#X obj 200 212 t b f;
#X obj 217 73 t f f;
#X obj 217 93 *;
#X obj 217 113 * 1000;
#X obj 200 192 f;
#X obj 275 53 t f b;
#X obj 275 153 - 0.4;
#X obj 200 252 f 20;
#X obj 217 172 t f b;
#X obj 275 173 * 166.667;
#X obj 200 292 t b l;
#X obj 217 53 * 2;
#X obj 217 152 + 1.451;
#X obj 200 312 del 1.452;
#X obj 142 232 r \$0-hzms;
#X obj 258 292 r \$0-hzms;
#X obj 261 133 r \$0-hzms;
#X obj 46 252 pack 100 1.452;
#X obj 19 138 t b b;
#X obj 200 392 s~ \$0-ds;
#X obj 65 185 s \$0-n.t;
#X obj 247 192 f 20;
#X obj 305 73 f 1000;
#X obj 69 63 r \$1-daisy;
#X obj 217 13 netpd_f \$1 e 0.2;
#X obj 200 332 list append;
#X obj 19 65 r \$1-t;
#X obj 79 90 r qseq3;
#X obj 79 112 route \$1-daisy;
#X obj 79 134 route daisy;
#X connect 0 0 23 0;
#X connect 1 0 15 0;
#X connect 1 1 9 0;
#X connect 2 0 14 0;
#X connect 3 0 0 0;
#X connect 4 0 11 0;
#X connect 4 1 2 1;
#X connect 5 0 6 0;
#X connect 5 1 6 1;
#X connect 6 0 7 0;
#X connect 7 0 16 0;
#X connect 8 0 4 0;
#X connect 9 0 10 0;
#X connect 9 1 26 0;
#X connect 10 0 13 0;
#X connect 11 0 2 0;
#X connect 12 0 8 1;
#X connect 12 1 25 0;
#X connect 13 0 11 1;
#X connect 14 0 17 0;
#X connect 14 1 29 1;
#X connect 15 0 5 0;
#X connect 16 0 12 0;
#X connect 17 0 29 0;
#X connect 18 0 21 1;
#X connect 19 0 17 1;
#X connect 20 0 16 1;
#X connect 21 0 3 0;
#X connect 22 0 8 0;
#X connect 22 1 21 0;
#X connect 22 1 24 0;
#X connect 25 0 11 1;
#X connect 26 0 8 1;
#X connect 27 0 22 0;
#X connect 28 0 1 0;
#X connect 29 0 3 0;
#X connect 30 0 22 0;
#X connect 31 0 32 0;
#X connect 32 0 33 0;
#X connect 33 0 22 0;
#X restore 17 229 pd audio.envelope-ds;
#N canvas 1394 238 286 301 mix.osc-noise 0;
#X obj 19 247 outlet;
#X obj 201 247 outlet;
#X obj 20 36 select 0.5;
#X obj 84 59 moses 0.5;
#X obj 200 134 + 0.26;
#X obj 201 112 * 0.74;
#X obj 19 134 + 1;
#X msg 20 57 0.5;
#X obj 20 113 * -0.74;
#X obj 83 113 * 1.26;
#X obj 143 112 * -1.26;
#X obj 142 132 + 1.26;
#X obj 20 16 netpd_f \$1 m 0.25;
#X connect 2 0 7 0;
#X connect 2 1 3 0;
#X connect 3 0 8 0;
#X connect 3 0 9 0;
#X connect 3 1 5 0;
#X connect 3 1 10 0;
#X connect 4 0 1 0;
#X connect 5 0 4 0;
#X connect 6 0 0 0;
#X connect 7 0 8 0;
#X connect 7 0 5 0;
#X connect 8 0 6 0;
#X connect 9 0 1 0;
#X connect 10 0 11 0;
#X connect 11 0 0 0;
#X connect 12 0 2 0;
#X restore 272 239 pd mix.osc-noise;
#N canvas 589 100 252 221 additive-2 0;
#X obj 14 39 moses 0.5;
#X obj 72 99 - 0.5;
#X obj 72 159 s \$0-dismidi;
#X obj 14 179 s \$0-disfreq;
#X obj 14 59 t f b;
#X obj 44 79 f 0;
#X obj 72 59 t f b;
#X obj 102 79 f 0;
#X obj 14 139 -;
#X obj 14 99 t b f;
#X obj 14 159 * 40;
#X obj 72 119 * 48;
#X obj 72 139 int;
#X obj 14 119 f 0.5;
#X obj 14 19 netpd_f \$1 a2 0.5;
#X connect 0 0 4 0;
#X connect 0 1 6 0;
#X connect 1 0 11 0;
#X connect 4 0 9 0;
#X connect 4 1 5 0;
#X connect 5 0 2 0;
#X connect 6 0 1 0;
#X connect 6 1 7 0;
#X connect 7 0 3 0;
#X connect 8 0 10 0;
#X connect 9 0 13 0;
#X connect 9 1 8 1;
#X connect 10 0 3 0;
#X connect 11 0 12 0;
#X connect 12 0 2 0;
#X connect 13 0 8 0;
#X connect 14 0 0 0;
#X restore 17 249 pd additive-2;
#N canvas 589 72 277 130 additive-3 0;
#X obj 20 38 * 2;
#X obj 20 80 s \$0-unf;
#X obj 20 59 - 1;
#X obj 20 18 netpd_f \$1 a3 0.5;
#X connect 0 0 2 0;
#X connect 2 0 1 0;
#X connect 3 0 0 0;
#X restore 17 269 pd additive-3;
#N canvas 607 131 110 169 hzms 0;
#X obj 17 14 r \$0-base;
#X obj 17 34 mtof;
#X obj 17 54 t b f;
#X obj 17 94 /;
#X obj 17 114 max 1.452;
#X obj 17 134 s \$0-hzms;
#X obj 17 74 f 1024;
#X connect 0 0 1 0;
#X connect 1 0 2 0;
#X connect 2 0 6 0;
#X connect 2 1 3 1;
#X connect 3 0 4 0;
#X connect 4 0 5 0;
#X connect 6 0 3 0;
#X restore 116 249 pd hzms;
#X obj 25 99 / 127;
#X obj 25 59 unpack f f f;
#N canvas 174 553 134 139 checkmidi 0;
#X obj 16 18 inlet;
#X obj 16 102 outlet;
#X obj 16 38 moses 1.00001;
#X obj 16 58 * 128;
#X connect 0 0 2 0;
#X connect 2 0 3 0;
#X connect 2 1 1 0;
#X connect 3 0 1 0;
#X restore 25 79 pd checkmidi;
#N canvas 705 310 229 151 glide 0;
#X obj 21 105 s \$0-glide;
#X obj 21 42 t f f;
#X obj 21 63 *;
#X obj 21 84 * 1000;
#X obj 21 20 netpd_f \$1 g 0;
#X connect 1 0 2 0;
#X connect 1 1 2 1;
#X connect 2 0 3 0;
#X connect 3 0 0 0;
#X connect 4 0 1 0;
#X restore 17 289 pd glide;
#X obj 279 123 f 0.251;
#X obj 308 318 switch~;
#X obj 164 312 jamx \$1 daisy;
#X obj 308 298 i2mx \$1 daisy;
#X obj 17 19 netpd_f \$1 b 0.5;
#X obj 25 39 r \$1-daisy;
#X obj 17 339 netpd_head \$1 daisy;
#X obj 16 362 qseq3-instr-list \$1 daisy daisy;
#X connect 0 0 4 0;
#X connect 1 0 3 0;
#X connect 2 0 1 0;
#X connect 4 0 13 0;
#X connect 5 0 29 0;
#X connect 5 1 7 0;
#X connect 6 0 4 1;
#X connect 7 0 6 1;
#X connect 8 0 10 1;
#X connect 9 0 16 0;
#X connect 10 0 17 0;
#X connect 11 0 0 0;
#X connect 12 0 10 0;
#X connect 13 0 9 0;
#X connect 14 0 0 1;
#X connect 15 0 32 0;
#X connect 15 0 32 1;
#X connect 16 0 32 0;
#X connect 16 0 32 1;
#X connect 17 0 15 0;
#X connect 19 0 2 0;
#X connect 19 0 5 0;
#X connect 21 0 16 1;
#X connect 21 1 15 1;
#X connect 25 0 19 0;
#X connect 26 0 27 0;
#X connect 27 0 25 0;
#X connect 29 0 6 0;
#X connect 32 0 30 0;
#X connect 33 0 19 0;
#X connect 34 0 26 0;
#X restore 18 38 pd daisy.code;
#X text 18 108 daisy by enrique erne;
#N canvas 808 327 149 100 NETPD 0;
#N canvas 589 240 160 124 abslist 0;
#X msg 13 15 jamx;
#X msg 13 36 i2mx;
#X msg 13 57 qseq3-instr-list;
#X restore 7 10 pd abslist;
#X msg 7 34 version 0 2 6;
#X restore 18 58 pd NETPD 2 0;
#N canvas 957 184 161 343 \$1-daisy 1;
#X obj 6 6 cnv 15 142 94 empty empty daisy 3 6 1 18 -233017 -262144
0;
#X obj 13 43 hsl 129 15 0 1 0 0 \$1-e \$1-e audio.envelope-ds 3 6 1
10 -262144 -1 -87382 3660 1;
#X obj 13 24 hsl 129 15 0 1 0 0 \$1-b \$1-b frequency.base 3 6 1 10
-262144 -1 -87382 6400 1;
#X obj 13 81 hsl 129 15 0 1 0 0 \$1-m \$1-m mix.osc-noise 3 6 1 10
-262144 -1 -87382 3200 1;
#X obj 6 106 cnv 10 142 54 empty empty osc 3 6 1 18 -233017 -262144
0;
#X obj 13 122 hsl 129 15 0 1 0 0 \$1-a2 \$1-a2 additive-2 3 6 1 10
-262144 -1 -87382 4800 1;
#X obj 13 141 hsl 129 15 0 1 0 0 \$1-a3 \$1-a3 additive-3 3 6 1 10
-262144 -1 -87382 8700 1;
#X obj 6 166 cnv 10 142 112 empty empty noise 3 6 1 18 -233017 -262144
0;
#X obj 13 240 hsl 129 15 0 1 0 0 \$1-fp \$1-fp lfo.phase 3 6 1 10 -262144
-1 -87382 6400 1;
#X obj 13 221 hsl 129 15 0 1 0 0 \$1-fv \$1-fv lfo.velocity 3 6 1 10
-262144 -1 -87382 0 1;
#X obj 13 202 hsl 129 15 0 1 0 0 \$1-fs \$1-fs lfo.strength 3 6 1 10
-262144 -1 -87382 0 1;
#X obj 13 259 hsl 129 15 0 1 0 0 \$1-fq \$1-fq filter-q 3 6 1 10 -262144
-1 -87382 6400 1;
#X obj 13 183 hsl 129 15 0 1 0 0 \$1-fb \$1-fb filter.base 3 6 1 10
-262144 -1 -87382 6400 1;
#X obj 13 62 hsl 129 15 0 1 0 0 \$1-g \$1-g glide 3 6 1 10 -262144
-1 -87382 0 1;
#X obj 6 284 cnv 10 142 45 empty empty empty 3 6 1 18 -233017 -262144
0;
#X obj 128 288 bng 16 250 50 0 \$1-t \$0-n01 empty 0 -6 0 8 -3918 -1
-1;
#X obj 10 289 tgl 16 0 \$1-open-jam \$0-bli jamx 19 7 1 10 -262144
-1 -1 1 1;
#X restore 18 18 pd \$1-daisy;
