#N canvas 658 402 457 314 10;
#X obj 278 240 bng 15 250 50 0 empty empty empty 0 -6 0 8 -262144 -1
-1;
#X obj 278 259 s \$0-resetlabels;
#X text 297 238 before saving;
#N canvas 407 94 519 654 kick-dsp 0;
#X obj 104 378 osc~;
#X obj 104 325 line~;
#X obj 79 137 t b b;
#X obj 79 213 f;
#X obj 104 213 f;
#X obj 79 248 pack;
#X obj 104 350 mtof~;
#X obj 79 70 bng 50 250 50 0 empty empty hier_drücken 52 35 0 25 -241291
-260818 -258699;
#X obj 117 191 ftom;
#X obj 19 191 ftom;
#X obj 102 409 *~;
#X obj 219 376 lop~;
#X obj 101 457 min~ 1;
#X obj 101 479 max~ -1;
#X obj 102 433 *~;
#X obj 101 509 lop~;
#X text 135 135 links: steuerung frequenz;
#X text 216 165 renetpd-ts: steuerung amplitude;
#X text 148 434 von [*~] an passiert distortion;
#X text 141 535 daist der ausgang;
#X obj 224 449 f;
#X obj 110 537 *~;
#X obj 302 534 *;
#X obj 302 554 / 16129;
#X obj 302 491 * 127;
#X obj 302 512 t f f;
#X obj 314 362 t b f;
#X obj 314 388 1000;
#X obj 314 411 /;
#X obj 119 36 t b f;
#X obj 110 591 throw~ \$0-suml;
#X obj 115 567 throw~ \$0-sumr;
#X obj 352 433 switch~;
#N canvas 690 540 208 156 kick.switch 0;
#X obj 15 56 del;
#X obj 15 35 t b f b;
#X obj 52 73 1;
#X obj 15 76 0;
#X obj 15 97 f;
#X obj 15 11 inlet;
#X obj 15 128 outlet;
#X obj 83 127 s \$0-kick.switch;
#X connect 0 0 3 0;
#X connect 1 0 0 0;
#X connect 1 1 0 1;
#X connect 1 2 2 0;
#X connect 2 0 4 0;
#X connect 3 0 4 0;
#X connect 4 0 6 0;
#X connect 4 0 7 0;
#X connect 5 0 1 0;
#X restore 352 392 pd kick.switch;
#X obj 120 14 r kick-afq;
#X obj 12 161 r kick-efq;
#X obj 132 227 r kick-tim;
#X obj 281 186 r kick-dec;
#X obj 318 338 r kick-att;
#X obj 302 464 r kick-vol;
#X obj 225 415 r kick-dis;
#X obj 180 467 r kick-lop;
#N canvas 770 337 300 287 route2fx 0;
#X obj 31 16 inlet~;
#X obj 71 16 inlet~;
#X obj 87 100 t f f;
#X obj 87 121 *;
#X obj 32 151 *~;
#X obj 71 153 *~;
#X obj 186 12 r kick-setfx;
#X obj 87 79 r kick-fxl;
#X msg 186 39 \$1;
#X obj 186 62 sel 0;
#X obj 186 87 \$0;
#X obj 186 120 f;
#N canvas 712 265 168 296 check_exist 0;
#X obj 8 258 outlet;
#X obj 8 8 inlet;
#X obj 37 113 r fx.aux_name;
#X obj 8 37 t b f b;
#X obj 46 136 symbol nofx;
#X obj 8 156 symbol;
#X obj 8 181 sel nofx;
#X obj 51 209 b;
#X obj 51 232 f;
#X obj 8 230 \$0;
#X obj 42 88 s fx.aux_getname;
#X msg 42 65 \$1f;
#X connect 1 0 3 0;
#X connect 2 0 5 1;
#X connect 3 0 5 0;
#X connect 3 1 8 1;
#X connect 3 1 11 0;
#X connect 3 2 4 0;
#X connect 4 0 5 1;
#X connect 5 0 6 0;
#X connect 6 0 9 0;
#X connect 6 1 7 0;
#X connect 7 0 8 0;
#X connect 8 0 0 0;
#X connect 9 0 0 0;
#X connect 11 0 10 0;
#X restore 186 147 pd check_exist;
#X msg 186 174 set \$1f.aux-l;
#X msg 196 193 set \$1f.aux-r;
#X obj 70 214 throw~ \$0f.aux-l;
#X obj 32 239 throw~ \$0f.aux-r;
#X connect 0 0 4 0;
#X connect 1 0 5 0;
#X connect 2 0 3 0;
#X connect 2 1 3 1;
#X connect 3 0 4 1;
#X connect 3 0 5 1;
#X connect 4 0 16 0;
#X connect 5 0 15 0;
#X connect 6 0 8 0;
#X connect 7 0 2 0;
#X connect 8 0 9 0;
#X connect 9 0 10 0;
#X connect 9 1 11 0;
#X connect 10 0 11 0;
#X connect 11 0 12 0;
#X connect 12 0 13 0;
#X connect 12 0 14 0;
#X connect 13 0 15 0;
#X connect 14 0 16 0;
#X restore 318 621 pd route2fx;
#X obj 242 187 t b;
#X obj 242 209 f;
#X msg 242 228 1 \, 0 \$1;
#X obj 242 251 line~;
#X obj 269 277 *~ 100;
#X obj 269 297 dbtorms~;
#X obj 242 321 *~;
#X obj 269 320 *~;
#X obj 344 281 * -1;
#X obj 344 301 + 1;
#X obj 344 259 f;
#X obj 344 238 r kick-cur;
#N canvas 1003 458 248 251 fx.level 0;
#X obj 14 17 inlet~;
#X obj 16 185 outlet~;
#X obj 61 56 r drum-delta.level-r;
#X obj 61 81 route set;
#X obj 61 105 pow 2;
#X obj 15 153 *~ 1;
#X connect 0 0 5 0;
#X connect 2 0 3 0;
#X connect 3 0 4 0;
#X connect 4 0 5 1;
#X connect 5 0 1 0;
#X restore 317 597 pd fx.level;
#X connect 0 0 10 0;
#X connect 1 0 6 0;
#X connect 2 0 3 0;
#X connect 2 1 4 0;
#X connect 3 0 5 0;
#X connect 4 0 1 0;
#X connect 5 0 1 0;
#X connect 6 0 0 0;
#X connect 7 0 2 0;
#X connect 7 0 43 0;
#X connect 8 0 4 1;
#X connect 9 0 3 1;
#X connect 10 0 14 0;
#X connect 11 0 10 1;
#X connect 12 0 13 0;
#X connect 13 0 15 0;
#X connect 14 0 12 0;
#X connect 15 0 21 0;
#X connect 20 0 14 1;
#X connect 21 0 30 0;
#X connect 21 0 31 0;
#X connect 21 0 55 0;
#X connect 22 0 23 0;
#X connect 23 0 21 1;
#X connect 24 0 25 0;
#X connect 25 0 22 0;
#X connect 25 1 22 1;
#X connect 26 0 27 0;
#X connect 26 1 28 1;
#X connect 27 0 28 0;
#X connect 28 0 11 1;
#X connect 29 0 7 0;
#X connect 29 1 8 0;
#X connect 33 0 32 0;
#X connect 34 0 29 0;
#X connect 35 0 9 0;
#X connect 36 0 5 1;
#X connect 37 0 33 0;
#X connect 37 0 44 1;
#X connect 38 0 26 0;
#X connect 39 0 24 0;
#X connect 40 0 20 0;
#X connect 41 0 15 1;
#X connect 43 0 44 0;
#X connect 44 0 45 0;
#X connect 45 0 46 0;
#X connect 46 0 47 0;
#X connect 46 0 49 0;
#X connect 47 0 48 0;
#X connect 48 0 50 0;
#X connect 49 0 11 0;
#X connect 50 0 11 0;
#X connect 51 0 52 0;
#X connect 52 0 50 1;
#X connect 53 0 51 0;
#X connect 53 0 49 1;
#X connect 54 0 53 0;
#X connect 55 0 42 0;
#X connect 55 0 42 1;
#X restore 22 43 pd kick-dsp;
#N canvas 153 199 647 736 snare-dsp 0;
#X obj 31 256 line~;
#X obj 31 279 dbtorms~;
#X obj 18 309 *~;
#X obj 215 85 bng 25 250 50 0 empty empty empty 0 -6 0 8 -262144 -1
-1;
#X msg 31 234 \$2 \, 0 \$1;
#X obj 215 147 noise~;
#X obj 228 301 line~;
#X obj 228 324 dbtorms~;
#X obj 215 349 *~;
#X msg 228 279 \$2 \, 0 \$1;
#X obj 326 360 line~;
#X obj 326 383 dbtorms~;
#X obj 300 407 *~;
#X msg 326 338 \$2 \, 0 \$1;
#X obj 118 288 line~;
#X obj 118 311 dbtorms~;
#X obj 105 341 *~;
#X msg 118 266 \$2 \, 0 \$1;
#X obj 118 246 pack 0 100;
#X obj 105 148 * 0.560606;
#X obj 132 202 * 0.5;
#X obj 31 213 pack 0 80;
#X obj 204 501 *~;
#X obj 327 318 pack 0 94;
#X obj 340 275 * 0.4;
#X obj 253 211 * 0.2;
#X obj 229 259 pack 0 94;
#X obj 31 148 f;
#X obj 18 178 osc~;
#X obj 105 182 osc~;
#X obj 118 226 f;
#X obj 215 170 lop~;
#X obj 215 191 lop~;
#X obj 228 233 f;
#X obj 300 247 hip~;
#X obj 300 269 hip~;
#X obj 327 297 f;
#X obj 372 105 exp;
#X obj 372 83 min 10;
#X obj 415 83 max 10;
#X obj 415 104 - 9;
#X obj 415 127 * 4;
#X obj 415 149 exp;
#X obj 372 59 + 6;
#X obj 243 380 * 2;
#X msg 189 404 2;
#X obj 189 426 -;
#X obj 176 470 *~;
#X obj 229 470 *~;
#X obj 189 448 min 1;
#X obj 243 430 min 1;
#X obj 64 151 0.25;
#X text 18 6 220-3000 log;
#X text 107 6 100-1000 lin;
#X text 199 8 0-1 lin;
#X text 378 9 0-5.5 lin;
#X text 288 8 0-1 lin;
#X obj 18 46 t b f;
#X obj 197 46 * 0.5;
#X obj 221 518 * 2;
#X obj 204 599 *~;
#X obj 243 600 *~;
#X obj 217 577 min 1;
#X obj 256 578 min 1;
#X text 472 6 0-1 lin;
#X obj 204 645 throw~ \$0-suml;
#X obj 243 625 throw~ \$0-sumr;
#X obj 433 458 switch~;
#N canvas 690 540 212 160 snare.switch 0;
#X obj 15 56 del;
#X obj 15 35 t b f b;
#X obj 52 73 1;
#X obj 15 76 0;
#X obj 15 97 f;
#X obj 15 11 inlet;
#X obj 15 128 outlet;
#X obj 83 127 s \$0-snare.switch;
#X connect 0 0 3 0;
#X connect 1 0 0 0;
#X connect 1 1 0 1;
#X connect 1 2 2 0;
#X connect 2 0 4 0;
#X connect 3 0 4 0;
#X connect 4 0 6 0;
#X connect 4 0 7 0;
#X connect 5 0 1 0;
#X restore 433 417 pd snare.switch;
#X obj 18 24 r snare-tun;
#X obj 107 24 r snare-dec;
#X obj 197 24 r snare-vol;
#X obj 288 24 r snare-mix;
#X obj 372 24 r snare-nos;
#X obj 462 23 r snare-pan;
#N canvas 702 115 300 287 route2fx 0;
#X obj 31 16 inlet~;
#X obj 71 16 inlet~;
#X obj 87 100 t f f;
#X obj 87 121 *;
#X obj 32 151 *~;
#X obj 71 153 *~;
#X obj 186 12 r snare-setfx;
#X obj 87 79 r snare-fxl;
#X msg 186 39 \$1;
#X obj 186 62 sel 0;
#X obj 186 87 \$0;
#X obj 186 120 f;
#N canvas 712 265 168 296 check_exist 0;
#X obj 8 258 outlet;
#X obj 8 8 inlet;
#X obj 37 113 r fx.aux_name;
#X obj 8 37 t b f b;
#X obj 46 136 symbol nofx;
#X obj 8 156 symbol;
#X obj 8 181 sel nofx;
#X obj 51 209 b;
#X obj 51 232 f;
#X obj 8 230 \$0;
#X obj 42 88 s fx.aux_getname;
#X msg 42 65 \$1f;
#X connect 1 0 3 0;
#X connect 2 0 5 1;
#X connect 3 0 5 0;
#X connect 3 1 8 1;
#X connect 3 1 11 0;
#X connect 3 2 4 0;
#X connect 4 0 5 1;
#X connect 5 0 6 0;
#X connect 6 0 9 0;
#X connect 6 1 7 0;
#X connect 7 0 8 0;
#X connect 8 0 0 0;
#X connect 9 0 0 0;
#X connect 11 0 10 0;
#X restore 186 147 pd check_exist;
#X msg 186 174 set \$1f.aux-l;
#X msg 196 193 set \$1f.aux-r;
#X obj 70 214 throw~ \$0f.aux-l;
#X obj 32 239 throw~ \$0f.aux-r;
#X connect 0 0 4 0;
#X connect 1 0 5 0;
#X connect 2 0 3 0;
#X connect 2 1 3 1;
#X connect 3 0 4 1;
#X connect 3 0 5 1;
#X connect 4 0 16 0;
#X connect 5 0 15 0;
#X connect 6 0 8 0;
#X connect 7 0 2 0;
#X connect 8 0 9 0;
#X connect 9 0 10 0;
#X connect 9 1 11 0;
#X connect 10 0 11 0;
#X connect 11 0 12 0;
#X connect 12 0 13 0;
#X connect 12 0 14 0;
#X connect 13 0 15 0;
#X connect 14 0 16 0;
#X restore 379 667 pd route2fx;
#X msg 256 533 2;
#X obj 256 555 -;
#X obj 256 513 t f f;
#N canvas 1003 458 248 251 fx.level 0;
#X obj 14 17 inlet~;
#X obj 16 185 outlet~;
#X obj 169 43 r drum-delta.level-r;
#X obj 169 68 route set;
#X obj 169 92 pow 2;
#X obj 15 153 *~ 1;
#X obj 86 19 inlet~;
#X obj 88 187 outlet~;
#X obj 87 155 *~ 1;
#X connect 0 0 5 0;
#X connect 2 0 3 0;
#X connect 3 0 4 0;
#X connect 4 0 5 1;
#X connect 4 0 8 1;
#X connect 5 0 1 0;
#X connect 6 0 8 0;
#X connect 8 0 7 0;
#X restore 378 643 pd fx.level;
#X connect 0 0 1 0;
#X connect 1 0 2 1;
#X connect 2 0 47 0;
#X connect 3 0 27 0;
#X connect 3 0 30 0;
#X connect 3 0 33 0;
#X connect 3 0 36 0;
#X connect 3 0 51 0;
#X connect 4 0 0 0;
#X connect 5 0 31 0;
#X connect 6 0 7 0;
#X connect 7 0 8 1;
#X connect 8 0 48 0;
#X connect 9 0 6 0;
#X connect 10 0 11 0;
#X connect 11 0 12 1;
#X connect 12 0 48 0;
#X connect 13 0 10 0;
#X connect 14 0 15 0;
#X connect 15 0 16 1;
#X connect 16 0 47 0;
#X connect 17 0 14 0;
#X connect 18 0 17 0;
#X connect 19 0 29 0;
#X connect 20 0 30 1;
#X connect 21 0 4 0;
#X connect 22 0 60 0;
#X connect 22 0 61 0;
#X connect 23 0 13 0;
#X connect 24 0 36 1;
#X connect 25 0 33 1;
#X connect 26 0 9 0;
#X connect 27 0 21 0;
#X connect 28 0 2 0;
#X connect 29 0 16 0;
#X connect 30 0 18 0;
#X connect 31 0 32 0;
#X connect 32 0 8 0;
#X connect 32 0 34 0;
#X connect 33 0 26 0;
#X connect 34 0 35 0;
#X connect 35 0 12 0;
#X connect 36 0 23 0;
#X connect 37 0 32 1;
#X connect 37 0 31 1;
#X connect 38 0 37 0;
#X connect 39 0 40 0;
#X connect 40 0 41 0;
#X connect 41 0 42 0;
#X connect 42 0 34 1;
#X connect 42 0 35 1;
#X connect 43 0 38 0;
#X connect 43 0 39 0;
#X connect 44 0 46 1;
#X connect 44 0 45 0;
#X connect 44 0 50 0;
#X connect 45 0 46 0;
#X connect 46 0 49 0;
#X connect 47 0 22 0;
#X connect 48 0 22 0;
#X connect 49 0 47 1;
#X connect 50 0 48 1;
#X connect 51 0 28 1;
#X connect 51 0 29 1;
#X connect 57 0 3 0;
#X connect 57 1 28 0;
#X connect 57 1 19 0;
#X connect 58 0 22 1;
#X connect 59 0 62 0;
#X connect 59 0 78 0;
#X connect 60 0 65 0;
#X connect 60 0 79 0;
#X connect 61 0 66 0;
#X connect 61 0 79 1;
#X connect 62 0 60 1;
#X connect 63 0 61 1;
#X connect 68 0 67 0;
#X connect 69 0 57 0;
#X connect 70 0 27 1;
#X connect 70 0 20 0;
#X connect 70 0 25 0;
#X connect 70 0 24 0;
#X connect 70 0 68 0;
#X connect 71 0 58 0;
#X connect 72 0 44 0;
#X connect 73 0 43 0;
#X connect 74 0 59 0;
#X connect 76 0 77 0;
#X connect 77 0 63 0;
#X connect 78 0 76 0;
#X connect 78 1 77 1;
#X connect 79 0 75 0;
#X connect 79 1 75 1;
#X restore 22 66 pd snare-dsp;
#N canvas 16 186 664 614 hihat-dsp 0;
#N canvas 0 0 790 530 (subpatch) 0;
#X array table24 259 float 0;
#X coords 0 1.02 258 -1.02 258 130 1;
#X restore 216 372 graph;
#X obj 18 85 tabosc4~ table24;
#X obj 42 126 *~;
#X obj 122 84 tabosc4~ table24;
#X obj 122 62 30000;
#X obj 18 28 loadbang;
#X obj 217 266 loadbang;
#X obj 132 247 line~;
#X obj 42 295 *~;
#X obj 132 269 dbtorms~;
#X obj 18 60 19572;
#X obj 42 321 hip~;
#X obj 42 344 hip~;
#X obj 132 202 pack;
#X obj 83 203 *;
#X obj 83 223 / 16129;
#X obj 83 184 t f f;
#X obj 83 243 rmstodb;
#X msg 132 225 \$1 \, 0 \$2;
#X obj 55 378 * 2;
#X msg 94 408 2;
#X obj 94 430 -;
#X obj 42 473 *~;
#X obj 81 474 *~;
#X obj 55 451 min 1;
#X obj 94 452 min 1;
#X msg 217 296 \; table24 sinesum 256 1 1 1 1 0 0 0 0 1 0 0 0 0 0 0
1 0 0 0 0 0 0 1 0 0 0 0 0 0 1 0 0 0 0 1 0 0 0 0 0 1 0 0 0 0 1 \, normalize
1;
#X obj 83 165 * 130;
#X obj 42 531 throw~ \$0-suml;
#X obj 367 253 switch~;
#N canvas 690 540 212 160 hihat.switch 0;
#X obj 15 56 del;
#X obj 15 35 t b f b;
#X obj 52 73 1;
#X obj 15 76 0;
#X obj 15 97 f;
#X obj 15 11 inlet;
#X obj 15 128 outlet;
#X obj 82 127 s \$0-hihat.switch;
#X connect 0 0 3 0;
#X connect 1 0 0 0;
#X connect 1 1 0 1;
#X connect 1 2 2 0;
#X connect 2 0 4 0;
#X connect 3 0 4 0;
#X connect 4 0 6 0;
#X connect 4 0 7 0;
#X connect 5 0 1 0;
#X restore 367 212 pd hihat.switch;
#X obj 83 137 r hihat-vol;
#X obj 174 137 r hihat-dec;
#X obj 346 137 r hihat-pan;
#X obj 264 137 r hihat-crh;
#X obj 81 511 throw~ \$0-sumr;
#N canvas 702 115 300 287 route2fx 0;
#X obj 31 16 inlet~;
#X obj 71 16 inlet~;
#X obj 87 100 t f f;
#X obj 87 121 *;
#X obj 32 151 *~;
#X obj 71 153 *~;
#X obj 87 79 r hihat-fxl;
#X obj 186 12 r hihat-setfx;
#X msg 186 39 \$1;
#X obj 186 62 sel 0;
#X obj 186 87 \$0;
#X obj 186 120 f;
#N canvas 712 265 168 296 check_exist 0;
#X obj 8 258 outlet;
#X obj 8 8 inlet;
#X obj 37 113 r fx.aux_name;
#X obj 8 37 t b f b;
#X obj 46 136 symbol nofx;
#X obj 8 156 symbol;
#X obj 8 181 sel nofx;
#X obj 51 209 b;
#X obj 51 232 f;
#X obj 8 230 \$0;
#X obj 42 88 s fx.aux_getname;
#X msg 42 65 \$1f;
#X connect 1 0 3 0;
#X connect 2 0 5 1;
#X connect 3 0 5 0;
#X connect 3 1 8 1;
#X connect 3 1 11 0;
#X connect 3 2 4 0;
#X connect 4 0 5 1;
#X connect 5 0 6 0;
#X connect 6 0 9 0;
#X connect 6 1 7 0;
#X connect 7 0 8 0;
#X connect 8 0 0 0;
#X connect 9 0 0 0;
#X connect 11 0 10 0;
#X restore 186 147 pd check_exist;
#X msg 186 174 set \$1f.aux-l;
#X msg 196 193 set \$1f.aux-r;
#X obj 70 214 throw~ \$0f.aux-l;
#X obj 32 239 throw~ \$0f.aux-r;
#X connect 0 0 4 0;
#X connect 1 0 5 0;
#X connect 2 0 3 0;
#X connect 2 1 3 1;
#X connect 3 0 4 1;
#X connect 3 0 5 1;
#X connect 4 0 16 0;
#X connect 5 0 15 0;
#X connect 6 0 2 0;
#X connect 7 0 8 0;
#X connect 8 0 9 0;
#X connect 9 0 10 0;
#X connect 9 1 11 0;
#X connect 10 0 11 0;
#X connect 11 0 12 0;
#X connect 12 0 13 0;
#X connect 12 0 14 0;
#X connect 13 0 15 0;
#X connect 14 0 16 0;
#X restore 173 563 pd route2fx;
#X obj 94 386 t f f;
#N canvas 1003 458 248 251 fx.level 0;
#X obj 14 17 inlet~;
#X obj 16 185 outlet~;
#X obj 169 43 r drum-delta.level-r;
#X obj 169 68 route set;
#X obj 169 92 pow 2;
#X obj 15 153 *~ 1;
#X obj 86 19 inlet~;
#X obj 88 187 outlet~;
#X obj 87 155 *~ 1;
#X connect 0 0 5 0;
#X connect 2 0 3 0;
#X connect 3 0 4 0;
#X connect 4 0 5 1;
#X connect 4 0 8 1;
#X connect 5 0 1 0;
#X connect 6 0 8 0;
#X connect 8 0 7 0;
#X restore 173 540 pd fx.level;
#X connect 1 0 2 0;
#X connect 2 0 8 0;
#X connect 3 0 2 1;
#X connect 4 0 3 0;
#X connect 5 0 10 0;
#X connect 5 0 4 0;
#X connect 6 0 26 0;
#X connect 7 0 9 0;
#X connect 8 0 11 0;
#X connect 9 0 8 1;
#X connect 10 0 1 0;
#X connect 11 0 12 0;
#X connect 12 0 22 0;
#X connect 12 0 23 0;
#X connect 13 0 18 0;
#X connect 14 0 15 0;
#X connect 15 0 17 0;
#X connect 16 0 14 0;
#X connect 16 1 14 1;
#X connect 17 0 13 0;
#X connect 18 0 7 0;
#X connect 19 0 24 0;
#X connect 19 0 37 0;
#X connect 20 0 21 0;
#X connect 21 0 25 0;
#X connect 22 0 28 0;
#X connect 22 0 38 0;
#X connect 23 0 35 0;
#X connect 23 0 38 1;
#X connect 24 0 22 1;
#X connect 25 0 23 1;
#X connect 27 0 16 0;
#X connect 30 0 29 0;
#X connect 31 0 27 0;
#X connect 32 0 13 1;
#X connect 32 0 30 0;
#X connect 33 0 19 0;
#X connect 34 0 11 1;
#X connect 34 0 12 1;
#X connect 37 0 20 0;
#X connect 37 1 21 1;
#X connect 38 0 36 0;
#X connect 38 1 36 1;
#X restore 22 90 pd hihat-dsp;
#N canvas 0 542 408 203 qseq.list 0;
#X obj 17 20 qseq3-instr-list \$1 drum-delta kick1 kick2 kick3 kick4
snare1 snare2 snare3 snare4 hihat1 hihat2 hihat3 hihat4;
#X restore 285 137 pd qseq.list;
#N canvas 1062 541 218 220 abslist 0;
#X msg 17 21 instrument;
#X msg 16 96 qseq3-instr-list;
#X restore 285 69 pd abslist;
#N canvas 0 231 384 484 loaddefault 0;
#X obj 9 12 loadbang;
#X obj 162 12 s netpd-receive;
#X msg 10 34 hihat-setfx-4 0 \, hihat-setfx-3 0 \, hihat-setfx-2 0
\, hihat-setfx-1 0 \, hihat-fxl-4 0 \, hihat-fxl-3 0 \, hihat-fxl-2
0 \, hihat-fxl-1 0 \, hihat-pan-4 0.487395 \, hihat-pan-3 0.605042
\, hihat-pan-2 0.344538 \, hihat-pan-1 0.344538 \, hihat-dec-4 595.114
\, hihat-dec-3 1241.45 \, hihat-dec-2 89.3451 \, hihat-dec-1 121.766
\, hihat-crh-4 509.669 \, hihat-crh-3 7496.47 \, hihat-crh-2 4528.32
\, hihat-crh-1 220 \, hihat-vol-4 0.705882 \, hihat-vol-3 0.697479
\, hihat-vol-2 1 \, hihat-vol-1 1 \, snare-setfx-4 0 \, snare-setfx-3
0 \, snare-setfx-2 0 \, snare-setfx-1 0 \, snare-fxl-4 0 \, snare-fxl-3
0 \, snare-fxl-2 0 \, snare-fxl-1 0 \, snare-vol-4 1 \, snare-vol-3
1 \, snare-vol-2 1 \, snare-vol-1 1 \, snare-pan-4 0.630252 \, snare-pan-3
0.462185 \, snare-pan-2 0.579832 \, snare-pan-1 0.453782 \, snare-dec-4
508.403 \, snare-dec-3 205.882 \, snare-dec-2 243.697 \, snare-dec-1
568.908 \, snare-mix-4 0.890756 \, snare-mix-3 0.689076 \, snare-mix-2
0.672269 \, snare-mix-1 0.268908 \, snare-nos-4 4.20588 \, snare-nos-3
4.11345 \, snare-nos-2 2.4958 \, snare-nos-1 2.44958 \, snare-tun-4
1837.52 \, snare-tun-3 746.068 \, snare-tun-2 511.235 \, snare-tun-1
371.294 \, kick-setfx-4 0 \, kick-setfx-3 0 \, kick-setfx-2 0 \, kick-setfx-1
0 \, kick-fxl-4 0 \, kick-fxl-3 0 \, kick-fxl-2 0 \, kick-fxl-1 0 \,
kick-vol-4 1 \, kick-vol-3 1 \, kick-vol-2 1 \, kick-vol-1 1 \, kick-lop-4
20000 \, kick-lop-3 288.864 \, kick-lop-2 18872.1 \, kick-lop-1 18872.1
\, kick-dis-4 1 \, kick-dis-3 4.53675 \, kick-dis-2 1 \, kick-dis-1
1 \, kick-cur-1 0 \, kick-cur-2 0 \, kick-cur-3 0 \, kick-cur-4 0 \,
kick-dec-4 28.4303 \, kick-dec-3 461.175 \, kick-dec-2 40.2756 \, kick-dec-1
653.32 \, kick-att-4 1.19023 \, kick-att-3 1 \, kick-att-2 1.1231 \,
kick-att-1 1.05977 \, kick-tim-4 5.70562 \, kick-tim-3 6.408 \, kick-tim-2
20.4609 \, kick-tim-1 10.8047 \, kick-efq-4 1555.2 \, kick-efq-3 63.8604
\, kick-efq-2 76.0085 \, kick-efq-1 50.6281 \, kick-afq-4 15855.9 \,
kick-afq-3 3307.63 \, kick-afq-2 1467.49 \, kick-afq-1 516.172 \,;
#X connect 0 0 2 0;
#X connect 2 0 1 0;
#X restore 285 89 pd loaddefault;
#N canvas 470 282 816 264 fx.list 0;
#N canvas 712 265 188 271 getfxname 0;
#X obj 8 214 outlet;
#X obj 8 8 inlet;
#X obj 36 116 r fx.aux_name;
#X obj 8 37 t b f b;
#X obj 45 139 symbol nofx;
#X obj 8 165 pack f s;
#X obj 8 142 f;
#X obj 8 188 makesymbol %s_%s;
#X obj 36 96 s fx.aux_getname;
#X msg 36 76 \$1f;
#X connect 1 0 3 0;
#X connect 2 0 5 1;
#X connect 3 0 6 0;
#X connect 3 1 6 1;
#X connect 3 1 9 0;
#X connect 3 2 4 0;
#X connect 4 0 5 1;
#X connect 5 0 7 0;
#X connect 6 0 5 0;
#X connect 7 0 0 0;
#X connect 9 0 8 0;
#X restore 123 154 pd getfxname;
#N canvas 723 165 300 591 scrollgui_instr 0;
#X msg 106 132 set \$1;
#X obj 14 47 sel -1;
#X obj 67 48 sel 1;
#X msg 67 82 0.5;
#X msg 14 82 -0.5;
#X obj 106 83 del 200;
#X msg 106 108 0;
#X obj 14 153 int;
#X obj 14 350 f;
#X obj 41 350 +;
#X obj 41 371 moses 0;
#X msg 41 393 0;
#X obj 161 79 loadbang;
#X obj 152 196 inlet stop;
#X obj 14 422 t f f;
#X obj 14 473 int;
#X obj 14 525 outlet;
#X obj 14 499 change;
#X obj 58 259 sel;
#X obj 152 227 1;
#X obj 165 257 0;
#X obj 14 183 t b f f;
#X obj 36 206 sel -1;
#X obj 36 227 0;
#X obj 14 448 / 5;
#X obj 92 196 inlet set;
#X obj 92 282 * 5;
#X obj 15 13 r kik-fx.select-s;
#X obj 106 154 s kik-fx.select-r;
#X connect 0 0 28 0;
#X connect 1 0 4 0;
#X connect 1 0 5 0;
#X connect 2 0 3 0;
#X connect 2 0 5 0;
#X connect 3 0 0 0;
#X connect 4 0 0 0;
#X connect 5 0 6 0;
#X connect 6 0 0 0;
#X connect 7 0 21 0;
#X connect 8 0 9 0;
#X connect 8 0 14 0;
#X connect 9 0 8 1;
#X connect 9 0 10 0;
#X connect 10 0 11 0;
#X connect 11 0 8 1;
#X connect 12 0 6 0;
#X connect 12 0 21 0;
#X connect 13 0 19 0;
#X connect 13 0 20 0;
#X connect 14 0 24 0;
#X connect 15 0 17 0;
#X connect 17 0 16 0;
#X connect 18 1 9 1;
#X connect 19 0 18 1;
#X connect 20 0 9 1;
#X connect 21 0 8 0;
#X connect 21 1 22 0;
#X connect 21 2 18 0;
#X connect 22 0 23 0;
#X connect 23 0 18 1;
#X connect 24 0 15 0;
#X connect 25 0 26 0;
#X connect 26 0 8 1;
#X connect 27 0 1 0;
#X connect 27 0 2 0;
#X connect 27 0 7 0;
#X restore 11 107 pd scrollgui_instr;
#X msg 123 180 label \$1;
#X obj 123 66 route set;
#X obj 123 43 r kick-setfx-r;
#X obj 11 195 s kick-setfx-s;
#X obj 123 202 s kik-fx.select-r;
#N canvas 712 265 188 271 getfxname 0;
#X obj 8 214 outlet;
#X obj 8 8 inlet;
#X obj 36 116 r fx.aux_name;
#X obj 8 37 t b f b;
#X obj 45 139 symbol nofx;
#X obj 8 165 pack f s;
#X obj 8 142 f;
#X obj 8 188 makesymbol %s_%s;
#X obj 36 96 s fx.aux_getname;
#X msg 36 76 \$1f;
#X connect 1 0 3 0;
#X connect 2 0 5 1;
#X connect 3 0 6 0;
#X connect 3 1 6 1;
#X connect 3 1 9 0;
#X connect 3 2 4 0;
#X connect 4 0 5 1;
#X connect 5 0 7 0;
#X connect 6 0 5 0;
#X connect 7 0 0 0;
#X connect 9 0 8 0;
#X restore 352 158 pd getfxname;
#N canvas 723 165 300 591 scrollgui_instr 0;
#X msg 106 132 set \$1;
#X obj 14 47 sel -1;
#X obj 67 48 sel 1;
#X msg 67 82 0.5;
#X msg 14 82 -0.5;
#X obj 106 83 del 200;
#X msg 106 108 0;
#X obj 14 153 int;
#X obj 14 350 f;
#X obj 41 350 +;
#X obj 41 371 moses 0;
#X msg 41 393 0;
#X obj 161 79 loadbang;
#X obj 152 196 inlet stop;
#X obj 14 422 t f f;
#X obj 14 473 int;
#X obj 14 525 outlet;
#X obj 14 499 change;
#X obj 58 259 sel;
#X obj 152 227 1;
#X obj 165 257 0;
#X obj 14 183 t b f f;
#X obj 36 206 sel -1;
#X obj 36 227 0;
#X obj 14 448 / 5;
#X obj 92 196 inlet set;
#X obj 92 282 * 5;
#X obj 14 14 r snr-fx.select-s;
#X obj 106 154 s snr-fx.select-r;
#X connect 0 0 28 0;
#X connect 1 0 4 0;
#X connect 1 0 5 0;
#X connect 2 0 3 0;
#X connect 2 0 5 0;
#X connect 3 0 0 0;
#X connect 4 0 0 0;
#X connect 5 0 6 0;
#X connect 6 0 0 0;
#X connect 7 0 21 0;
#X connect 8 0 9 0;
#X connect 8 0 14 0;
#X connect 9 0 8 1;
#X connect 9 0 10 0;
#X connect 10 0 11 0;
#X connect 11 0 8 1;
#X connect 12 0 6 0;
#X connect 12 0 21 0;
#X connect 13 0 19 0;
#X connect 13 0 20 0;
#X connect 14 0 24 0;
#X connect 15 0 17 0;
#X connect 17 0 16 0;
#X connect 18 1 9 1;
#X connect 19 0 18 1;
#X connect 20 0 9 1;
#X connect 21 0 8 0;
#X connect 21 1 22 0;
#X connect 21 2 18 0;
#X connect 22 0 23 0;
#X connect 23 0 18 1;
#X connect 24 0 15 0;
#X connect 25 0 26 0;
#X connect 26 0 8 1;
#X connect 27 0 1 0;
#X connect 27 0 2 0;
#X connect 27 0 7 0;
#X restore 240 111 pd scrollgui_instr;
#X msg 352 184 label \$1;
#X obj 352 70 route set;
#N canvas 712 293 188 271 getfxname 0;
#X obj 8 214 outlet;
#X obj 8 8 inlet;
#X obj 36 116 r fx.aux_name;
#X obj 8 37 t b f b;
#X obj 45 139 symbol nofx;
#X obj 8 165 pack f s;
#X obj 8 142 f;
#X obj 8 188 makesymbol %s_%s;
#X obj 36 96 s fx.aux_getname;
#X msg 36 76 \$1f;
#X connect 1 0 3 0;
#X connect 2 0 5 1;
#X connect 3 0 6 0;
#X connect 3 1 6 1;
#X connect 3 1 9 0;
#X connect 3 2 4 0;
#X connect 4 0 5 1;
#X connect 5 0 7 0;
#X connect 6 0 5 0;
#X connect 7 0 0 0;
#X connect 9 0 8 0;
#X restore 586 164 pd getfxname;
#N canvas 723 165 300 591 scrollgui_instr 0;
#X msg 106 132 set \$1;
#X obj 14 47 sel -1;
#X obj 67 48 sel 1;
#X msg 67 82 0.5;
#X msg 14 82 -0.5;
#X obj 106 83 del 200;
#X msg 106 108 0;
#X obj 14 153 int;
#X obj 14 350 f;
#X obj 41 350 +;
#X obj 41 371 moses 0;
#X msg 41 393 0;
#X obj 161 79 loadbang;
#X obj 152 196 inlet stop;
#X obj 14 422 t f f;
#X obj 14 473 int;
#X obj 14 525 outlet;
#X obj 14 499 change;
#X obj 58 259 sel;
#X obj 152 227 1;
#X obj 165 257 0;
#X obj 14 183 t b f f;
#X obj 36 206 sel -1;
#X obj 36 227 0;
#X obj 14 448 / 5;
#X obj 92 196 inlet set;
#X obj 92 282 * 5;
#X obj 9 13 r hh-fx.select-s;
#X obj 106 154 s hh-fx.select-r;
#X connect 0 0 28 0;
#X connect 1 0 4 0;
#X connect 1 0 5 0;
#X connect 2 0 3 0;
#X connect 2 0 5 0;
#X connect 3 0 0 0;
#X connect 4 0 0 0;
#X connect 5 0 6 0;
#X connect 6 0 0 0;
#X connect 7 0 21 0;
#X connect 8 0 9 0;
#X connect 8 0 14 0;
#X connect 9 0 8 1;
#X connect 9 0 10 0;
#X connect 10 0 11 0;
#X connect 11 0 8 1;
#X connect 12 0 6 0;
#X connect 12 0 21 0;
#X connect 13 0 19 0;
#X connect 13 0 20 0;
#X connect 14 0 24 0;
#X connect 15 0 17 0;
#X connect 17 0 16 0;
#X connect 18 1 9 1;
#X connect 19 0 18 1;
#X connect 20 0 9 1;
#X connect 21 0 8 0;
#X connect 21 1 22 0;
#X connect 21 2 18 0;
#X connect 22 0 23 0;
#X connect 23 0 18 1;
#X connect 24 0 15 0;
#X connect 25 0 26 0;
#X connect 26 0 8 1;
#X connect 27 0 1 0;
#X connect 27 0 2 0;
#X connect 27 0 7 0;
#X restore 474 117 pd scrollgui_instr;
#X msg 586 190 label \$1;
#X obj 586 76 route set;
#X obj 352 206 s snr-fx.select-r;
#X obj 240 199 s snare-setfx-s;
#X obj 352 47 r snare-setfx-r;
#X obj 586 213 s hh-fx.select-r;
#X obj 474 205 s hihat-setfx-s;
#X obj 586 53 r hihat-setfx-r;
#X obj 683 18 catch~ \$0f.aux-r;
#X obj 683 41 catch~ \$0f.aux-l;
#X connect 0 0 2 0;
#X connect 1 0 0 0;
#X connect 1 0 5 0;
#X connect 2 0 6 0;
#X connect 3 0 0 0;
#X connect 3 0 1 0;
#X connect 4 0 3 0;
#X connect 7 0 9 0;
#X connect 8 0 7 0;
#X connect 8 0 16 0;
#X connect 9 0 15 0;
#X connect 10 0 7 0;
#X connect 10 0 8 0;
#X connect 11 0 13 0;
#X connect 12 0 11 0;
#X connect 12 0 19 0;
#X connect 13 0 18 0;
#X connect 14 0 11 0;
#X connect 14 0 12 0;
#X connect 17 0 10 0;
#X connect 20 0 14 0;
#X restore 285 110 pd fx.list;
#X obj 22 175 catch~ \$0-sumr;
#X obj 87 198 catch~ \$0-suml;
#N canvas 1020 537 216 231 switch 0;
#X obj 14 3 r \$0-kick.switch;
#X obj 63 47 r \$0-hihat.switch;
#X obj 41 24 r \$0-snare.switch;
#X obj 41 91 ||;
#X obj 63 69 t b f;
#X obj 14 136 ||;
#X obj 41 111 t b f;
#X obj 14 187 outlet;
#X obj 14 160 change;
#X connect 0 0 5 0;
#X connect 1 0 4 0;
#X connect 2 0 3 0;
#X connect 3 0 6 0;
#X connect 4 0 3 0;
#X connect 4 1 3 1;
#X connect 5 0 8 0;
#X connect 6 0 5 0;
#X connect 6 1 5 1;
#X connect 8 0 7 0;
#X restore 131 222 pd switch;
#X obj 131 251 switch~;
#N canvas 108 412 568 263 kick-datactrl 1;
#X obj 119 92 r kick-instance;
#X obj 106 218 s kick1;
#X obj 121 198 s kick2;
#X obj 136 178 s kick3;
#X obj 151 158 s kick4;
#X obj 106 113 f;
#X obj 106 73 r kick-prelisten;
#X obj 106 136 sel 0 1 2 3;
#N canvas 806 412 836 75 display 0;
#N canvas 970 516 317 369 label 0;
#X obj 12 275 s kick-afq-r;
#X msg 12 250 label \$1;
#X obj 180 105 r \$0-resetlabels;
#X msg 180 128 symbol empty;
#X obj 12 149 symbol anfangsfrequenz;
#X obj 12 126 t b f;
#X obj 37 172 makesymbol %sHz;
#X obj 12 203 pack s s;
#X obj 12 226 l2s;
#X obj 12 98 int;
#X obj 11 13 r kick-afq-r;
#X obj 12 77 r kick-afq-s;
#X obj 11 33 route label;
#X obj 72 54 route set;
#X connect 1 0 0 0;
#X connect 2 0 3 0;
#X connect 3 0 1 0;
#X connect 4 0 7 0;
#X connect 5 0 4 0;
#X connect 5 1 6 0;
#X connect 6 0 7 1;
#X connect 7 0 8 0;
#X connect 8 0 1 0;
#X connect 9 0 5 0;
#X connect 10 0 12 0;
#X connect 11 0 9 0;
#X connect 12 1 13 0;
#X connect 13 0 9 0;
#X restore 11 16 pd label afq;
#N canvas 970 516 294 310 label 0;
#X msg 12 260 label \$1;
#X obj 180 115 r \$0-resetlabels;
#X msg 180 138 symbol empty;
#X obj 12 136 t b f;
#X obj 37 182 makesymbol %sHz;
#X obj 12 213 pack s s;
#X obj 12 236 l2s;
#X obj 12 108 int;
#X obj 12 159 symbol endfrequenz;
#X obj 12 285 s kick-efq-r;
#X obj 11 33 route label;
#X obj 72 54 route set;
#X obj 12 77 r kick-efq-s;
#X obj 11 13 r kick-efq-r;
#X connect 0 0 9 0;
#X connect 1 0 2 0;
#X connect 2 0 0 0;
#X connect 3 0 8 0;
#X connect 3 1 4 0;
#X connect 4 0 5 1;
#X connect 5 0 6 0;
#X connect 6 0 0 0;
#X connect 7 0 3 0;
#X connect 8 0 5 0;
#X connect 10 1 11 0;
#X connect 11 0 7 0;
#X connect 12 0 7 0;
#X connect 13 0 10 0;
#X restore 92 16 pd label efq;
#N canvas 970 516 317 288 label 0;
#X msg 12 244 label \$1;
#X obj 180 83 r \$0-resetlabels;
#X msg 180 106 symbol empty;
#X obj 12 120 t b f;
#X obj 12 197 pack s s;
#X obj 12 220 l2s;
#X obj 12 92 int;
#X obj 37 166 makesymbol %sms;
#X obj 12 269 s kick-tim-r;
#X obj 12 143 symbol zeit;
#X obj 11 19 route label;
#X obj 72 40 route set;
#X obj 11 -1 r kick-tim-r;
#X obj 12 63 r kick-tim-s;
#X connect 0 0 8 0;
#X connect 1 0 2 0;
#X connect 2 0 0 0;
#X connect 3 0 9 0;
#X connect 3 1 7 0;
#X connect 4 0 5 0;
#X connect 5 0 0 0;
#X connect 6 0 3 0;
#X connect 7 0 4 1;
#X connect 9 0 4 0;
#X connect 10 1 11 0;
#X connect 11 0 6 0;
#X connect 12 0 10 0;
#X connect 13 0 6 0;
#X restore 173 16 pd label tim;
#N canvas 970 516 313 284 label 0;
#X msg 12 239 label \$1;
#X obj 180 48 r \$0-resetlabels;
#X msg 180 71 symbol empty;
#X obj 12 115 t b f;
#X obj 12 192 pack s s;
#X obj 12 215 l2s;
#X obj 12 96 int;
#X obj 12 138 symbol attack;
#X obj 37 161 makesymbol %sms;
#X obj 12 264 s kick-att-r;
#X obj 11 33 route label;
#X obj 72 54 route set;
#X obj 11 13 r kick-att-r;
#X obj 12 74 r kick-att-s;
#X connect 0 0 9 0;
#X connect 1 0 2 0;
#X connect 2 0 0 0;
#X connect 3 0 7 0;
#X connect 3 1 8 0;
#X connect 4 0 5 0;
#X connect 5 0 0 0;
#X connect 6 0 3 0;
#X connect 7 0 4 0;
#X connect 8 0 4 1;
#X connect 10 1 11 0;
#X connect 11 0 6 0;
#X connect 12 0 10 0;
#X connect 13 0 6 0;
#X restore 253 17 pd label att;
#N canvas 970 516 314 297 label 0;
#X msg 12 244 label \$1;
#X obj 180 48 r \$0-resetlabels;
#X msg 180 71 symbol empty;
#X obj 12 120 t b f;
#X obj 12 197 pack s s;
#X obj 12 220 l2s;
#X obj 12 100 int;
#X obj 12 269 s kick-dec-r;
#X obj 12 143 symbol decay;
#X obj 37 166 makesymbol %sms;
#X obj 11 33 route label;
#X obj 72 54 route set;
#X obj 12 77 r kick-dec-s;
#X obj 11 13 r kick-dec-r;
#X connect 0 0 7 0;
#X connect 1 0 2 0;
#X connect 2 0 0 0;
#X connect 3 0 8 0;
#X connect 3 1 9 0;
#X connect 4 0 5 0;
#X connect 5 0 0 0;
#X connect 6 0 3 0;
#X connect 8 0 4 0;
#X connect 9 0 4 1;
#X connect 10 1 11 0;
#X connect 11 0 6 0;
#X connect 12 0 6 0;
#X connect 13 0 10 0;
#X restore 337 17 pd label dec;
#N canvas 970 516 313 284 label 0;
#X msg 12 287 label \$1;
#X obj 180 48 r \$0-resetlabels;
#X msg 180 71 symbol empty;
#X obj 12 163 t b f;
#X obj 12 240 pack s s;
#X obj 12 263 l2s;
#X obj 12 120 int;
#X obj 12 186 symbol distortion;
#X obj 37 209 makesymbol %s;
#X obj 12 312 s kick-dis-r;
#X obj 12 101 * 10;
#X obj 12 143 / 10;
#X obj 11 33 route label;
#X obj 72 54 route set;
#X obj 12 77 r kick-dis-s;
#X obj 11 13 r kick-dis-r;
#X connect 0 0 9 0;
#X connect 1 0 2 0;
#X connect 2 0 0 0;
#X connect 3 0 7 0;
#X connect 3 1 8 0;
#X connect 4 0 5 0;
#X connect 5 0 0 0;
#X connect 6 0 11 0;
#X connect 7 0 4 0;
#X connect 8 0 4 1;
#X connect 10 0 6 0;
#X connect 11 0 3 0;
#X connect 12 1 13 0;
#X connect 13 0 10 0;
#X connect 14 0 10 0;
#X connect 15 0 12 0;
#X restore 493 16 pd label dis;
#N canvas 970 516 309 280 label 0;
#X msg 12 248 label \$1;
#X obj 180 48 r \$0-resetlabels;
#X msg 180 71 symbol empty;
#X obj 12 124 t b f;
#X obj 37 170 makesymbol %sHz;
#X obj 12 201 pack s s;
#X obj 12 224 l2s;
#X obj 12 103 int;
#X obj 12 147 symbol lowpass;
#X obj 12 273 s kick-lop-r;
#X obj 11 33 route label;
#X obj 72 54 route set;
#X obj 12 77 r kick-lop-s;
#X obj 11 13 r kick-lop-r;
#X connect 0 0 9 0;
#X connect 1 0 2 0;
#X connect 2 0 0 0;
#X connect 3 0 8 0;
#X connect 3 1 4 0;
#X connect 4 0 5 1;
#X connect 5 0 6 0;
#X connect 6 0 0 0;
#X connect 7 0 3 0;
#X connect 8 0 5 0;
#X connect 10 1 11 0;
#X connect 11 0 7 0;
#X connect 12 0 7 0;
#X connect 13 0 10 0;
#X restore 573 16 pd label lop;
#N canvas 970 516 305 276 label 0;
#X msg 12 291 label \$1;
#X obj 180 48 r \$0-resetlabels;
#X msg 180 71 symbol empty;
#X obj 12 167 t b f;
#X obj 12 244 pack s s;
#X obj 12 267 l2s;
#X obj 12 122 int;
#X obj 12 324 s kick-vol-r;
#X obj 12 190 symbol volume;
#X obj 37 213 makesymbol %s;
#X obj 12 103 * 100;
#X obj 12 145 / 100;
#X obj 11 33 route label;
#X obj 72 55 route set;
#X obj 11 13 r kick-vol-r;
#X obj 12 77 r kick-vol-s;
#X connect 0 0 7 0;
#X connect 1 0 2 0;
#X connect 2 0 0 0;
#X connect 3 0 8 0;
#X connect 3 1 9 0;
#X connect 4 0 5 0;
#X connect 5 0 0 0;
#X connect 6 0 11 0;
#X connect 8 0 4 0;
#X connect 9 0 4 1;
#X connect 10 0 6 0;
#X connect 11 0 3 0;
#X connect 12 1 13 0;
#X connect 13 0 10 0;
#X connect 14 0 12 0;
#X connect 15 0 10 0;
#X restore 661 16 pd label vol;
#X restore 295 77 pd display;
#X obj 72 21 instrument \$0 kick 11 4 afq efq tim att dec cur dis lop
vol fxl setfx;
#X connect 0 0 5 1;
#X connect 5 0 7 0;
#X connect 6 0 5 0;
#X connect 7 0 1 0;
#X connect 7 1 2 0;
#X connect 7 2 3 0;
#X connect 7 3 4 0;
#X restore 123 43 pd kick-datactrl;
#N canvas 795 212 423 275 snare-datactrl 0;
#X obj 13 85 f;
#X obj 13 108 sel 0 1 2 3;
#X obj 13 45 r snare-prelisten;
#X obj 26 64 r snare-instance;
#X obj 58 130 s snare4;
#X obj 43 150 s snare3;
#X obj 28 170 s snare2;
#X obj 13 190 s snare1;
#N canvas 757 521 583 141 display 0;
#N canvas 970 516 329 300 label 0;
#X msg 12 287 label \$1;
#X obj 180 48 r \$0-resetlabels;
#X msg 180 71 symbol empty;
#X obj 12 163 t b f;
#X obj 12 240 pack s s;
#X obj 12 263 l2s;
#X obj 12 120 int;
#X obj 11 33 route label;
#X obj 72 54 route set;
#X obj 11 13 r snare-tun-r;
#X obj 12 309 s snare-tun-r;
#X obj 12 186 symbol tune;
#X obj 37 209 makesymbol %sHz;
#X obj 12 101 * 1;
#X obj 12 143 / 1;
#X obj 12 77 r snare-tun-s;
#X connect 0 0 10 0;
#X connect 1 0 2 0;
#X connect 2 0 0 0;
#X connect 3 0 11 0;
#X connect 3 1 12 0;
#X connect 4 0 5 0;
#X connect 5 0 0 0;
#X connect 6 0 14 0;
#X connect 7 1 8 0;
#X connect 8 0 13 0;
#X connect 9 0 7 0;
#X connect 11 0 4 0;
#X connect 12 0 4 1;
#X connect 13 0 6 0;
#X connect 14 0 3 0;
#X connect 15 0 13 0;
#X restore 12 29 pd label tun;
#N canvas 970 516 329 300 label 0;
#X msg 12 287 label \$1;
#X obj 180 48 r \$0-resetlabels;
#X msg 180 71 symbol empty;
#X obj 12 163 t b f;
#X obj 12 240 pack s s;
#X obj 12 263 l2s;
#X obj 12 120 int;
#X obj 12 101 * 10;
#X obj 12 143 / 10;
#X obj 11 33 route label;
#X obj 72 54 route set;
#X obj 11 13 r snare-nos-r;
#X obj 12 309 s snare-nos-r;
#X obj 12 186 symbol knack;
#X obj 37 209 makesymbol %s;
#X obj 12 77 r snare-nos-s;
#X connect 0 0 12 0;
#X connect 1 0 2 0;
#X connect 2 0 0 0;
#X connect 3 0 13 0;
#X connect 3 1 14 0;
#X connect 4 0 5 0;
#X connect 5 0 0 0;
#X connect 6 0 8 0;
#X connect 7 0 6 0;
#X connect 8 0 3 0;
#X connect 9 1 10 0;
#X connect 10 0 7 0;
#X connect 11 0 9 0;
#X connect 13 0 4 0;
#X connect 14 0 4 1;
#X connect 15 0 7 0;
#X restore 96 29 pd label nos;
#N canvas 970 516 301 428 label 0;
#X msg 12 361 label \$1;
#X obj 180 48 r \$0-resetlabels;
#X msg 180 71 symbol empty;
#X obj 12 314 pack s s;
#X obj 12 336 l2s;
#X obj 12 120 int;
#X obj 11 33 route label;
#X obj 72 54 route set;
#X obj 11 13 r snare-mix-r;
#X obj 12 79 r snare-mix-s;
#X obj 12 383 s snare-mix-r;
#X obj 12 101 * 100;
#X obj 12 143 / 100;
#X obj 12 186 symbol mix_fell<>kette;
#X obj 37 208 * 100;
#X obj 79 316 makesymbol %s:%s;
#X obj 37 228 t f f;
#X obj 37 249 - 100;
#X obj 37 270 * -1;
#X obj 79 293 pack f f;
#X obj 13 164 t b f f;
#X connect 0 0 10 0;
#X connect 1 0 2 0;
#X connect 2 0 0 0;
#X connect 3 0 4 0;
#X connect 4 0 0 0;
#X connect 5 0 12 0;
#X connect 6 1 7 0;
#X connect 7 0 11 0;
#X connect 8 0 6 0;
#X connect 9 0 11 0;
#X connect 11 0 5 0;
#X connect 12 0 20 0;
#X connect 13 0 3 0;
#X connect 14 0 16 0;
#X connect 15 0 3 1;
#X connect 16 0 17 0;
#X connect 16 1 19 1;
#X connect 17 0 18 0;
#X connect 18 0 19 0;
#X connect 19 0 15 0;
#X connect 20 0 13 0;
#X connect 20 1 14 0;
#X restore 179 30 pd label mix;
#N canvas 970 516 329 300 label 0;
#X msg 12 287 label \$1;
#X obj 180 48 r \$0-resetlabels;
#X msg 180 71 symbol empty;
#X obj 12 163 t b f;
#X obj 12 240 pack s s;
#X obj 12 263 l2s;
#X obj 12 120 int;
#X obj 11 33 route label;
#X obj 72 54 route set;
#X obj 11 13 r snare-dec-r;
#X obj 12 77 r snare-dec-s;
#X obj 12 309 s snare-dec-r;
#X obj 12 101 * 1;
#X obj 12 143 / 1;
#X obj 37 209 makesymbol %sms;
#X obj 12 186 symbol decay;
#X connect 0 0 11 0;
#X connect 1 0 2 0;
#X connect 2 0 0 0;
#X connect 3 0 15 0;
#X connect 3 1 14 0;
#X connect 4 0 5 0;
#X connect 5 0 0 0;
#X connect 6 0 13 0;
#X connect 7 1 8 0;
#X connect 8 0 12 0;
#X connect 9 0 7 0;
#X connect 10 0 12 0;
#X connect 12 0 6 0;
#X connect 13 0 3 0;
#X connect 14 0 4 1;
#X connect 15 0 4 0;
#X restore 265 30 pd label dec;
#N canvas 970 516 329 300 label 0;
#X msg 12 287 label \$1;
#X obj 180 48 r \$0-resetlabels;
#X msg 180 71 symbol empty;
#X obj 12 163 t b f;
#X obj 12 263 l2s;
#X obj 12 120 int;
#X obj 12 101 * 10;
#X obj 12 143 / 10;
#X obj 11 33 route label;
#X obj 72 54 route set;
#X obj 37 209 makesymbol %sHz;
#X obj 11 13 r snare-pan-r;
#X obj 13 77 r snare-pan-s;
#X obj 12 309 s snare-pan-r;
#X obj 12 186 symbol panorama;
#X connect 0 0 13 0;
#X connect 1 0 2 0;
#X connect 2 0 0 0;
#X connect 3 0 14 0;
#X connect 3 1 10 0;
#X connect 4 0 0 0;
#X connect 5 0 7 0;
#X connect 6 0 5 0;
#X connect 7 0 3 0;
#X connect 8 1 9 0;
#X connect 9 0 6 0;
#X connect 11 0 8 0;
#X connect 12 0 6 0;
#X connect 14 0 4 0;
#X restore 351 30 pd label pan;
#N canvas 970 516 333 304 label 0;
#X msg 12 287 label \$1;
#X obj 180 48 r \$0-resetlabels;
#X msg 180 71 symbol empty;
#X obj 12 163 t b f;
#X obj 12 240 pack s s;
#X obj 12 263 l2s;
#X obj 12 120 int;
#X obj 11 33 route label;
#X obj 72 54 route set;
#X obj 11 13 r snare-vol-r;
#X obj 12 77 r snare-vol-s;
#X obj 12 309 s snare-vol-r;
#X obj 37 209 makesymbol %s;
#X obj 12 101 * 100;
#X obj 12 142 / 100;
#X obj 12 186 symbol volume;
#X connect 0 0 11 0;
#X connect 1 0 2 0;
#X connect 2 0 0 0;
#X connect 3 0 15 0;
#X connect 3 1 12 0;
#X connect 4 0 5 0;
#X connect 5 0 0 0;
#X connect 6 0 14 0;
#X connect 7 1 8 0;
#X connect 8 0 13 0;
#X connect 9 0 7 0;
#X connect 10 0 13 0;
#X connect 12 0 4 1;
#X connect 13 0 6 0;
#X connect 14 0 3 0;
#X connect 15 0 4 0;
#X restore 439 31 pd label vol;
#X restore 164 87 pd display;
#X obj 13 14 instrument \$0 snare 8 4 tun nos mix dec pan vol fxl setfx
;
#X connect 0 0 1 0;
#X connect 1 0 7 0;
#X connect 1 1 6 0;
#X connect 1 2 5 0;
#X connect 1 3 4 0;
#X connect 2 0 0 0;
#X connect 3 0 0 1;
#X restore 123 66 pd snare-datactrl;
#N canvas 843 542 332 306 hihat-datactrl 0;
#X obj 18 83 f;
#X obj 18 105 sel 0 1 2 3;
#X obj 18 43 r hihat-prelisten;
#X obj 31 62 r hihat-instance;
#X obj 63 128 s hihat4;
#X obj 48 148 s hihat3;
#X obj 18 188 s hihat1;
#X obj 33 168 s hihat2;
#N canvas 1047 617 392 107 display 0;
#N canvas 970 516 341 312 label 0;
#X msg 12 287 label \$1;
#X obj 180 48 r \$0-resetlabels;
#X msg 180 71 symbol empty;
#X obj 12 163 t b f;
#X obj 12 240 pack s s;
#X obj 12 263 l2s;
#X obj 12 120 int;
#X obj 11 33 route label;
#X obj 72 54 route set;
#X obj 12 101 * 1;
#X obj 12 143 / 1;
#X obj 11 13 r hihat-crh-r;
#X obj 12 77 r hihat-crh-s;
#X obj 12 309 s hihat-crh-r;
#X obj 12 186 symbol crashyness;
#X obj 37 209 makesymbol %sHz;
#X connect 0 0 13 0;
#X connect 1 0 2 0;
#X connect 2 0 0 0;
#X connect 3 0 14 0;
#X connect 3 1 15 0;
#X connect 4 0 5 0;
#X connect 5 0 0 0;
#X connect 6 0 10 0;
#X connect 7 1 8 0;
#X connect 8 0 9 0;
#X connect 9 0 6 0;
#X connect 10 0 3 0;
#X connect 11 0 7 0;
#X connect 12 0 9 0;
#X connect 14 0 4 0;
#X connect 15 0 4 1;
#X restore 13 29 pd label crh;
#N canvas 970 516 341 312 label 0;
#X msg 12 287 label \$1;
#X obj 180 48 r \$0-resetlabels;
#X msg 180 71 symbol empty;
#X obj 12 163 t b f;
#X obj 12 240 pack s s;
#X obj 12 263 l2s;
#X obj 12 120 int;
#X obj 11 33 route label;
#X obj 72 54 route set;
#X obj 12 101 * 1;
#X obj 12 143 / 1;
#X obj 12 13 r hihat-dec-r;
#X obj 12 77 r hihat-dec-s;
#X obj 12 309 s hihat-dec-r;
#X obj 37 209 makesymbol %sms;
#X obj 12 186 symbol decay;
#X connect 0 0 13 0;
#X connect 1 0 2 0;
#X connect 2 0 0 0;
#X connect 3 0 15 0;
#X connect 3 1 14 0;
#X connect 4 0 5 0;
#X connect 5 0 0 0;
#X connect 6 0 10 0;
#X connect 7 1 8 0;
#X connect 8 0 9 0;
#X connect 9 0 6 0;
#X connect 10 0 3 0;
#X connect 11 0 7 0;
#X connect 12 0 9 0;
#X connect 14 0 4 1;
#X connect 15 0 4 0;
#X restore 95 31 pd label dec;
#N canvas 970 516 337 308 label 0;
#X msg 12 287 label \$1;
#X obj 180 48 r \$0-resetlabels;
#X msg 180 71 symbol empty;
#X obj 12 163 t b f;
#X obj 12 120 int;
#X obj 11 33 route label;
#X obj 72 54 route set;
#X obj 37 209 makesymbol %sHz;
#X obj 12 101 * 1;
#X obj 12 143 / 1;
#X obj 11 13 r hihat-pan-r;
#X obj 13 77 r hihat-pan-s;
#X obj 12 309 s hihat-pan-r;
#X obj 12 186 symbol panorama;
#X connect 0 0 12 0;
#X connect 1 0 2 0;
#X connect 2 0 0 0;
#X connect 3 0 13 0;
#X connect 3 1 7 0;
#X connect 4 0 9 0;
#X connect 5 1 6 0;
#X connect 6 0 8 0;
#X connect 8 0 4 0;
#X connect 9 0 3 0;
#X connect 10 0 5 0;
#X connect 11 0 8 0;
#X connect 13 0 0 0;
#X restore 177 32 pd label pan;
#N canvas 970 516 345 316 label 0;
#X msg 12 287 label \$1;
#X obj 180 48 r \$0-resetlabels;
#X msg 180 71 symbol empty;
#X obj 12 163 t b f;
#X obj 12 240 pack s s;
#X obj 12 263 l2s;
#X obj 12 120 int;
#X obj 11 33 route label;
#X obj 72 54 route set;
#X obj 12 101 * 100;
#X obj 12 143 / 100;
#X obj 37 209 makesymbol %s;
#X obj 11 13 r hihat-vol-r;
#X obj 12 77 r hihat-vol-s;
#X obj 12 309 s hihat-vol-r;
#X obj 12 186 symbol volume;
#X connect 0 0 14 0;
#X connect 1 0 2 0;
#X connect 2 0 0 0;
#X connect 3 0 15 0;
#X connect 3 1 11 0;
#X connect 4 0 5 0;
#X connect 5 0 0 0;
#X connect 6 0 10 0;
#X connect 7 1 8 0;
#X connect 8 0 9 0;
#X connect 9 0 6 0;
#X connect 10 0 3 0;
#X connect 11 0 4 1;
#X connect 12 0 7 0;
#X connect 13 0 9 0;
#X connect 15 0 4 0;
#X restore 259 32 pd label vol;
#X restore 152 93 pd display;
#X obj 18 17 instrument \$0 hihat 6 4 vol crh dec pan fxl setfx;
#X connect 0 0 1 0;
#X connect 1 0 6 0;
#X connect 1 1 7 0;
#X connect 1 2 5 0;
#X connect 1 3 4 0;
#X connect 2 0 0 0;
#X connect 3 0 0 1;
#X restore 122 90 pd hihat-datactrl;
#X obj 22 242 dac~;
#X msg 130 128 version 0 3 0;
#N canvas 1028 72 180 602 \$1-drum-delta 1;
#X obj 10 3 cnv 7 160 583 empty empty empty 20 12 0 14 -99865 -66577
0;
#X obj 12 5 cnv 15 156 205 empty empty k_i_c_k_______________________
4 7 1 7 -244200 -184581 0;
#X obj 20 23 hsl 140 14 20 20000 1 0 kick-afq-s kick-afq-r anfangsfrequenz
4 7 1 7 -261689 -258699 -1 6600 1;
#X obj 20 37 hsl 140 14 20 20000 1 0 kick-efq-s kick-efq-r endfrequenz 
4 7 1 7 -261689 -258699 -1 5869 1;
#X obj 20 51 hsl 140 14 1 1000 1 0 kick-tim-s kick-tim-r zeit
4 7 1 7 -261689 -258699 -1 4789 1;
#X obj 20 65 hsl 140 14 1 1000 1 0 kick-att-s kick-att-r attack
4 7 1 7 -261689 -258699 -1 117 1;
#X obj 20 79 hsl 80 14 10 10000 1 0 kick-dec-s kick-dec-r decay
4 7 1 7 -261689 -258699 -1 4780 1;
#X obj 20 93 hsl 140 14 1 50 1 0 kick-dis-s kick-dis-r distortion 
4 7 1 7 -261689 -258699 -1 0 1;
#X obj 20 107 hsl 140 14 20000 20 1 0 kick-lop-s kick-lop-r lowpass
4 7 1 7 -261689 -258699 -1 117 1;
#X obj 20 121 hsl 140 14 0 1 0 0 kick-vol-s kick-vol-r volume  4 7
1 7 -261689 -258699 -1 13900 1;
#X obj 12 560 cnv 5 156 24 empty empty empty 20 12 0 14 -261689 -66577
0;
#X obj 53 168 hradio 14 1 0 4 kick-instance kick-instance-r instance
0 -6 1 7 -261689 -244200 -1 0;
#X obj 17 167 bng 14 250 50 0 kick-prelisten \$0-bli play 0 -6 1 7
-261689 -244200 -1;
#X obj 12 222 cnv 15 156 172 empty empty s_n_a_r_e____________________
4 7 1 7 -130593 -10435 0;
#X obj 20 240 hsl 140 14 220 7000 1 0 snare-tun-s snare-tun-r tune
4 7 1 7 -225271 -258699 -1 2103 1;
#X obj 20 254 hsl 140 14 0 5.5 0 0 snare-nos-s snare-nos-r knack
4 7 1 7 -225271 -258699 -1 6191 1;
#X obj 20 268 hsl 140 14 0 1 0 0 snare-mix-s snare-mix-r mix_fell<>kette
4 7 1 7 -225271 -258699 -1 3738 1;
#X obj 20 282 hsl 140 14 100 1000 0 0 snare-dec-s snare-dec-r decay
4 7 1 7 -225271 -258699 -1 7242 1;
#X obj 20 296 hsl 140 14 0 1 0 0 snare-pan-s snare-pan-r panorama 4
7 1 7 -225271 -258699 -1 6308 1;
#X obj 54 358 hradio 14 1 0 4 snare-instance snare-instance-r instance
0 -6 1 7 -225271 -130593 -1 0;
#X obj 17 358 bng 14 250 50 0 snare-prelisten snare-prelisten-r play
0 -6 1 7 -225271 -130593 -1;
#X obj 20 310 hsl 140 14 0 1 0 0 snare-vol-s snare-vol-r volume 4
7 1 7 -225271 -258699 -1 13900 1;
#X obj 12 408 cnv 15 156 140 empty empty h_i_h_a_t____________________
4 7 1 7 -20025 -10143 0;
#X obj 20 426 hsl 140 14 220 12000 1 0 hihat-crh-s hihat-crh-r crashyness
4 7 1 7 -225280 -258699 -1 0 1;
#X obj 20 440 hsl 140 14 50 5000 1 0 hihat-dec-s hihat-dec-r decay
4 7 1 7 -225280 -258699 -1 2687 1;
#X obj 20 454 hsl 140 14 0 1 0 0 hihat-pan-s hihat-pan-r panorama 4
7 1 7 -225280 -258699 -1 4789 1;
#X obj 49 516 hradio 14 1 0 4 hihat-instance hihat-instance-r instance
0 -6 1 7 -225280 -20025 -1 0;
#X obj 17 516 bng 14 250 50 0 hihat-prelisten hihat-prelisten-r play
0 -6 1 7 -225280 -20025 -1;
#X obj 20 468 hsl 140 14 0 1 0 0 hihat-vol-s hihat-vol-r volume  4
7 1 7 -225280 -258699 -1 13900 1;
#X obj 97 145 vsl 20 5 -1 1 0 0 kik-fx.select-s kik-fx.select-r 0_nofx
24 3 1 7 -261689 -258699 -1 200 1;
#X obj 20 143 hsl 40 10 0 1 0 0 kick-fxl-s kick-fxl-r fx-gain 44 5
1 7 -261689 -258699 -1 0 1;
#X obj 97 335 vsl 20 5 -1 1 0 0 snr-fx.select-s snr-fx.select-r 0_nofx
24 3 1 7 -225271 -258699 -1 200 1;
#X obj 20 333 hsl 40 10 0 1 0 0 snare-fxl-s snare-fxl-r fx-gain 44
5 1 7 -225271 -258699 -1 0 1;
#X obj 107 492 vsl 20 5 -1 1 0 0 hh-fx.select-s hh-fx.select-r 0_nofx
24 3 1 7 -225280 -258699 -1 200 1;
#X obj 20 490 hsl 40 10 0 1 0 0 hihat-fxl-s hihat-fxl-r fx-gain 44
5 1 7 -225280 -258699 -1 0 1;
#X obj 17 565 tgl 14 0 \$0-open-pad \$0-bli pad 20 7 1 7 -262144 -1
-1 0 1;
#X obj 108 79 hsl 52 14 0 1 0 0 kick-cur-s kick-cur-r log<=>lin 4 7
1 7 -261689 -258699 -1 0 1;
#X restore 285 49 pd \$1-drum-delta;
#X obj 284 184 netpd_head \$1 drum-delta;
#X connect 0 0 1 0;
#X connect 10 0 17 0;
#X connect 11 0 17 1;
#X connect 12 0 13 0;
