#N canvas 590 192 191 146 10;
#N canvas 573 85 308 230 fxlist 0;
#X obj 161 146 symbol;
#X obj 15 8 loadbang;
#X obj 65 38 r fx-request;
#X obj 15 158 symbol all;
#X obj 15 178 s get-fxlist;
#X obj 15 38 t b b;
#X msg 45 107 rcomp \, rlimit \, zlimit \, zcomplim;
#X obj 161 186 s fx;
#X msg 161 166 effect add \$1;
#X obj 45 68 t b;
#X connect 0 0 8 0;
#X connect 1 0 5 0;
#X connect 2 0 9 0;
#X connect 3 0 4 0;
#X connect 5 0 3 0;
#X connect 5 1 9 0;
#X connect 6 0 0 0;
#X connect 8 0 7 0;
#X connect 9 0 6 0;
#X restore 14 34 pd fxlist;
#N canvas 668 72 164 91 NETPD 0;
#N canvas 813 209 214 147 abslist 0;
#X msg 12 15 rcomp;
#X msg 13 42 rlimit;
#X msg 14 66 zlimit;
#X msg 13 90 zcomplim;
#X restore 18 16 pd abslist;
#X msg 18 41 version 0 2 3;
#X restore 14 12 pd NETPD 2 0;
#N canvas 618 339 453 138 \$1-dynlib 0;
#X text 21 6 DYNLIB;
#X text 23 24 a collection of dynamic processing effects to be used
with mx.;
#X text 23 94 http://www.netpd.org/dynlib;
#X text 23 109 http://www.netpd.org/mx;
#X text 22 60 Author: Roman Haefeli;
#X text 22 12 ------;
#X restore 14 55 pd \$1-dynlib;
