#N canvas 590 192 405 94 10;
#N canvas 668 156 164 91 NETPD 0;
#N canvas 813 265 214 147 abslist 0;
#X msg 12 15 rcomp;
#X msg 13 42 rlimit;
#X msg 14 66 zlimit;
#X msg 13 90 zcomplim;
#X msg 15 121 mx-fx-list;
#X restore 18 16 pd abslist;
#X msg 18 41 version 0 2 4;
#X restore 14 12 pd NETPD 2 0;
#N canvas 618 339 453 138 \$1-dynlib 0;
#X text 21 6 DYNLIB;
#X text 23 24 a collection of dynamic processing effects to be used
with mx.;
#X text 23 94 http://www.netpd.org/dynlib;
#X text 23 109 http://www.netpd.org/mx;
#X text 22 60 Author: Roman Haefeli;
#X text 22 12 ------;
#X restore 14 33 pd \$1-dynlib;
#X obj 14 54 mx-fx-list \$1 dynlib rcomp rlimit zcomplim zlimit;
