#N canvas 634 70 535 265 10;
#X text 95 152 by Enrique Erne;
#N canvas 196 276 346 133 \$1-elib 0;
#X text 29 25 maybe there will be a description...;
#X msg 250 63 eN!;
#X restore 18 17 pd \$1-elib;
#N canvas 882 127 307 123 NETPD 0;
#N canvas 1199 44 481 299 abslist 0;
#X msg 28 45 e-del;
#X msg 28 65 e-spect;
#X msg 28 85 e-rwo;
#X msg 28 125 e-2rect;
#X msg 28 145 e-bitcrush;
#X msg 113 45 e-crs4;
#X msg 113 65 e-flanger;
#X msg 113 85 e-pitchshifter;
#X msg 113 125 e-rev1;
#X msg 113 145 e-rev2;
#X msg 113 165 e-rev3;
#X msg 269 65 e-3ins;
#X msg 28 105 e-loop;
#X msg 269 45 e-3sends;
#X msg 145 192 e-am;
#X msg 183 192 e-ssb;
#X msg 338 45 e-s2fx;
#X msg 278 210 e-monitor;
#X msg 31 208 e-amp;
#X msg 157 238 e-d2fx;
#X msg 31 228 e-mMmFX;
#X msg 31 188 e-vamp;
#X msg 309 164 e-stop;
#X msg 292 272 e-mp3stream;
#X msg 22 277 e-vocoder;
#X msg 42 15 mx-fx-list;
#X restore 18 37 pd abslist;
#X msg 19 13 version 0 2 0;
#X restore 18 46 pd NETPD 2 0;
#X obj 18 78 mx-fx-list \$1 elib e-del e-spect e-rwo e-loop e-2rect
e-bitcrush e-vamp e-amp e-mMmFX e-vocoder e-crs4 e-flanger e-pitchshifter
e-rev1 e-rev2 e-rev3 e-am e-ssb e-d2fx e-monitor e-mp3stream e-stop
e-3sends e-3ins e-s2fx;
#X text 18 170 netpd2-ified by Roman Haefeli;
