#N canvas 591 162 440 510 10;
#N canvas 624 75 293 96 NETPD 0;
#X msg 12 8 version 0 0 0;
#N canvas 483 313 318 115 abslist 0;
#X msg 12 14 evil-signal-to-2x8bit;
#X msg 12 40 evil-2x8bit-to-signal;
#X msg 12 65 master-param;
#X restore 12 34 pd abslist;
#X restore 10 14 pd NETPD 2 0;
#X obj 9 69 netpd_head \$1 evil;
#N canvas 793 162 303 133 \$1-evil 0;
#X obj 30 52 tgl 15 0 \$0.switch \$0.bli empty 17 7 0 10 -262144 -1
-1 0 1;
#X text 58 53 on / off;
#X obj 30 15 bng 15 250 50 0 \$0.grab \$0.bli empty 17 7 0 10 -262144
-1 -1;
#X text 57 14 grab ownership;
#X floatatom 30 34 3 0 0 0 - #0.owner #0.bla, f 3;
#X text 57 33 current owner;
#N canvas 826 305 304 140 ALSA 0;
#X floatatom 12 16 5 0 0 0 - #0.bli #0.alsa.msec, f 5;
#X text 47 16 msec;
#X obj 112 15 vradio 15 1 0 7 \$0.alsa.blocksize \$0.bli empty 0 -8
0 10 -262144 -1 -1 4;
#X text 95 14 64;
#X text 89 29 128;
#X text 89 44 256;
#X text 89 59 512;
#X text 83 74 1024;
#X text 83 91 2048;
#X text 83 107 4096;
#X text 134 15 blocksize;
#X restore 30 93 pd ALSA settings;
#X text 138 92 <- latency compensation;
#X floatatom 30 71 3 8 99 0 - #0.bli #0.delay.steps, f 3;
#X text 57 70 delay (in master steps);
#X restore 10 42 pd \$1-evil;
#N canvas 533 82 462 464 send-signal 0;
#X obj 28 152 evil-signal-to-2x8bit;
#X obj 29 208 tabwrite~ \$0.msb.send;
#X obj 151 189 tabwrite~ \$0.lsb.send;
#X obj 194 33 bang~;
#X obj 194 108 f;
#X obj 236 110 + 1;
#X obj 194 159 sel 0;
#X obj 161 264 tabdump \$0.lsb.send;
#X obj 39 264 tabdump \$0.msb.send;
#X obj 39 241 t b b;
#X obj 39 293 list append;
#X obj 27 74 inlet~;
#X obj 124 315 loadbang;
#X obj 124 337 f \$1;
#X obj 39 388 list prepend;
#X obj 39 413 s NETPD;
#X obj 263 21 inlet;
#X msg 124 359 list to sendtyped /b/\$1/evil/audio b;
#X obj 194 71 spigot;
#X obj 263 43 t a b;
#X msg 290 67 0;
#X obj 292 174 table \$0.msb.send 1024;
#X obj 292 195 table \$0.lsb.send 1024;
#X obj 194 135 mod 16;
#X connect 0 0 1 0;
#X connect 0 1 2 0;
#X connect 3 0 18 0;
#X connect 4 0 23 0;
#X connect 5 0 4 1;
#X connect 6 0 2 0;
#X connect 6 0 1 0;
#X connect 6 0 9 0;
#X connect 7 0 10 1;
#X connect 8 0 10 0;
#X connect 9 0 8 0;
#X connect 9 1 7 0;
#X connect 10 0 14 0;
#X connect 11 0 0 0;
#X connect 12 0 13 0;
#X connect 13 0 17 0;
#X connect 14 0 15 0;
#X connect 16 0 19 0;
#X connect 17 0 14 1;
#X connect 18 0 4 0;
#X connect 19 0 18 1;
#X connect 19 1 20 0;
#X connect 20 0 4 1;
#X connect 23 0 5 0;
#X connect 23 0 6 0;
#X restore 14 218 pd send-signal;
#N canvas 233 392 738 370 receive-signal 0;
#X obj 15 71 netpd_r \$1 audio;
#X obj 227 275 evil-2x8bit-to-signal;
#X obj 15 313 s \$0.msb.receive;
#X obj 58 268 s \$0.lsb.receive;
#X obj 15 290 list prepend 0;
#X obj 58 246 list prepend 0;
#X obj 15 96 t a b;
#X obj 42 119 f;
#X obj 226 213 tabplay~ \$0.msb.receive;
#X obj 351 239 tabplay~ \$0.lsb.receive;
#X msg 147 109 0;
#X obj 42 141 + 1;
#X obj 42 163 mod 173;
#X obj 147 42 netpd_r \$1 switch;
#X obj 147 64 t a a;
#X obj 147 87 sel 1;
#X obj 514 235 t b;
#X obj 380 213 t b;
#X obj 234 127 sel 0 1;
#X msg 234 151 stop;
#X obj 227 332 dac~;
#X obj 227 303 *~;
#X obj 234 104 t a a;
#X obj 15 223 list split 1024;
#X obj 42 189 * 1024;
#X obj 257 36 table \$0.msb.receive 89088;
#X obj 257 56 table \$0.lsb.receive 89088;
#X obj 234 82 pipe 2000;
#X connect 0 0 6 0;
#X connect 1 0 21 0;
#X connect 4 0 2 0;
#X connect 5 0 3 0;
#X connect 6 0 23 0;
#X connect 6 1 7 0;
#X connect 7 0 11 0;
#X connect 8 0 1 0;
#X connect 8 1 17 0;
#X connect 9 0 1 1;
#X connect 9 1 16 0;
#X connect 10 0 7 1;
#X connect 11 0 12 0;
#X connect 12 0 7 1;
#X connect 12 0 24 0;
#X connect 13 0 14 0;
#X connect 14 0 15 0;
#X connect 14 1 27 0;
#X connect 15 0 10 0;
#X connect 16 0 9 0;
#X connect 17 0 8 0;
#X connect 18 0 19 0;
#X connect 18 1 8 0;
#X connect 18 1 9 0;
#X connect 19 0 8 0;
#X connect 19 0 9 0;
#X connect 21 0 20 0;
#X connect 21 0 20 1;
#X connect 22 0 18 0;
#X connect 22 1 21 1;
#X connect 23 0 4 0;
#X connect 23 1 5 0;
#X connect 24 0 5 1;
#X connect 24 0 4 1;
#X connect 27 0 22 0;
#X restore 20 371 pd receive-signal;
#X floatatom 14 115 5 0 0 0 - - -, f 5;
#N canvas 722 297 280 247 ownership 0;
#X obj 25 20 r \$0.grab;
#X obj 25 62 f;
#X obj 52 44 netpd-status-get socket 1;
#X obj 25 132 ==;
#X obj 25 154 s \$0.ownership;
#X obj 25 110 t a a;
#X obj 52 132 s \$0.owner;
#X obj 25 85 netpd_f \$1 owner 0;
#X connect 0 0 1 0;
#X connect 1 0 7 0;
#X connect 2 0 1 1;
#X connect 2 0 3 1;
#X connect 3 0 4 0;
#X connect 5 0 3 0;
#X connect 5 1 6 0;
#X connect 7 0 5 0;
#X restore 160 36 pd ownership;
#X obj 95 120 r \$0.switch;
#N canvas 235 258 239 138 test~ 0;
#X obj 13 59 *~ 0.2;
#X obj 13 37 osc~ 120;
#X obj 13 15 inlet~;
#X obj 13 81 outlet~;
#X connect 0 0 3 0;
#X connect 1 0 0 0;
#X connect 2 0 1 0;
#X restore 14 133 pd test~;
#X obj 110 142 r \$0.ownership;
#X obj 95 166 &&;
#X obj 122 212 sel 1;
#X obj 95 188 t a a;
#N canvas 971 293 450 300 get_master_info 0;
#X obj 12 81 master-param pos;
#X obj 12 12 inlet;
#X obj 232 76 master-param 16th;
#N canvas 583 351 355 343 calculate_real_latency 0;
#X obj 173 87 <<;
#X obj 173 41 t b a;
#X msg 173 64 64;
#X obj 173 136 samplerate~;
#X msg 173 158 1000 \$1;
#X obj 173 180 /;
#X obj 173 202 *;
#X obj 173 114 t b a;
#X text 200 212 ALSA blocksize in ms;
#X obj 33 191 /;
#X obj 47 163 t b a;
#X obj 33 213 int;
#X obj 33 254 *;
#X obj 33 234 max 1;
#X text 71 288 (constant introduced by adc/dac);
#X obj 33 287 + 0.7;
#X obj 33 108 r \$0.alsa.msec;
#X obj 173 15 r \$0.alsa.blocksize;
#X obj 33 311 outlet;
#X connect 0 0 7 0;
#X connect 1 0 2 0;
#X connect 1 1 0 1;
#X connect 2 0 0 0;
#X connect 3 0 4 0;
#X connect 4 0 5 0;
#X connect 5 0 6 0;
#X connect 6 0 10 0;
#X connect 7 0 3 0;
#X connect 7 1 6 1;
#X connect 9 0 11 0;
#X connect 10 0 9 0;
#X connect 10 1 9 1;
#X connect 10 1 12 1;
#X connect 11 0 13 0;
#X connect 12 0 15 0;
#X connect 13 0 12 0;
#X connect 15 0 18 0;
#X connect 16 0 9 0;
#X connect 17 0 1 0;
#X restore 179 47 pd calculate_real_latency;
#X obj 146 23 r \$0.delay.steps;
#X obj 146 145 *;
#X obj 146 167 -;
#X obj 146 192 /;
#X obj 146 94 f;
#X obj 179 69 t b a;
#X obj 232 98 t b a;
#X obj 12 231 +;
#X connect 0 0 11 0;
#X connect 1 0 0 0;
#X connect 2 0 10 0;
#X connect 3 0 9 0;
#X connect 4 0 8 0;
#X connect 5 0 6 0;
#X connect 6 0 7 0;
#X connect 7 0 11 1;
#X connect 8 0 5 0;
#X connect 9 0 8 0;
#X connect 9 1 6 1;
#X connect 10 0 8 0;
#X connect 10 1 7 1;
#X connect 10 1 5 1;
#X restore 122 237 pd get_master_info;
#X connect 5 0 8 0;
#X connect 7 0 10 0;
#X connect 8 0 3 0;
#X connect 9 0 10 1;
#X connect 10 0 12 0;
#X connect 11 0 13 0;
#X connect 12 0 3 1;
#X connect 12 1 11 0;
