#N canvas 638 162 440 510 10;
#N canvas 624 75 293 96 NETPD 0;
#X msg 12 8 version 0 0 0;
#N canvas 483 313 318 115 abslist 0;
#X msg 12 14 evil-signal-to-2x8bit;
#X msg 12 40 evil-2x8bit-to-signal;
#X restore 12 34 pd abslist;
#X restore 10 14 pd NETPD 2 0;
#X obj 9 69 netpd_head \$1 evil;
#N canvas 691 100 426 339 \$1-evil 0;
#X restore 10 42 pd \$1-evil;
#X obj 187 65 netpd-status-get socket 1;
#N canvas 533 82 462 464 send-signal 0;
#X obj 28 152 evil-signal-to-2x8bit;
#X obj 29 208 tabwrite~ \$0.msb.send;
#X obj 151 189 tabwrite~ \$0.lsb.send;
#X obj 194 33 bang~;
#X obj 194 108 f;
#X obj 236 110 + 1;
#X obj 194 159 sel 0;
#X obj 161 264 tabdump \$0.lsb.send;
#X obj 39 264 tabdump \$0.msb.send;
#X obj 39 241 t b b;
#X obj 39 293 list append;
#X obj 194 135 mod 8;
#X obj 292 174 table \$0.msb.send 512;
#X obj 292 195 table \$0.lsb.send 512;
#X obj 27 74 inlet~;
#X obj 124 315 loadbang;
#X obj 124 337 f \$1;
#X obj 39 388 list prepend;
#X obj 39 413 s NETPD;
#X obj 263 21 inlet;
#X msg 124 359 list to sendtyped /b/\$1/evil/audio b;
#X obj 194 71 spigot;
#X obj 263 43 t a b;
#X msg 290 67 0;
#X connect 0 0 1 0;
#X connect 0 1 2 0;
#X connect 3 0 21 0;
#X connect 4 0 11 0;
#X connect 5 0 4 1;
#X connect 6 0 2 0;
#X connect 6 0 1 0;
#X connect 6 0 9 0;
#X connect 7 0 10 1;
#X connect 8 0 10 0;
#X connect 9 0 8 0;
#X connect 9 1 7 0;
#X connect 10 0 17 0;
#X connect 11 0 5 0;
#X connect 11 0 6 0;
#X connect 14 0 0 0;
#X connect 15 0 16 0;
#X connect 16 0 20 0;
#X connect 17 0 18 0;
#X connect 19 0 22 0;
#X connect 20 0 17 1;
#X connect 21 0 4 0;
#X connect 22 0 21 1;
#X connect 22 1 23 0;
#X connect 23 0 4 1;
#X restore 42 156 pd send-signal;
#X obj 42 134 *~ 0.2;
#X obj 319 280 tgl 15 0 \$1-switch \$1-switch empty 17 7 0 10 -262144
-1 -1 1 1;
#N canvas 233 392 738 370 receive-signal 0;
#X obj 15 71 netpd_r \$1 audio;
#X obj 227 275 evil-2x8bit-to-signal;
#X obj 15 223 list split 512;
#X obj 15 313 s \$0.msb.receive;
#X obj 55 268 s \$0.lsb.receive;
#X obj 15 290 list prepend 0;
#X obj 55 246 list prepend 0;
#X obj 15 96 t a b;
#X obj 42 119 f;
#X obj 226 213 tabplay~ \$0.msb.receive;
#X obj 351 239 tabplay~ \$0.lsb.receive;
#X msg 147 109 0;
#X obj 257 36 table \$0.msb.receive 88576;
#X obj 257 56 table \$0.lsb.receive 88576;
#X obj 42 189 * 512;
#X obj 42 141 + 1;
#X obj 42 163 mod 173;
#X obj 147 42 netpd_r \$1 switch;
#X obj 147 64 t a a;
#X obj 147 87 sel 1;
#X obj 514 235 t b;
#X obj 380 213 t b;
#X obj 234 105 pipe 1000;
#X obj 234 127 sel 0 1;
#X msg 234 151 stop;
#X obj 224 309 dac~;
#X connect 0 0 7 0;
#X connect 1 0 25 0;
#X connect 1 0 25 1;
#X connect 2 0 5 0;
#X connect 2 1 6 0;
#X connect 5 0 3 0;
#X connect 6 0 4 0;
#X connect 7 0 2 0;
#X connect 7 1 8 0;
#X connect 8 0 15 0;
#X connect 9 0 1 0;
#X connect 9 1 21 0;
#X connect 10 0 1 1;
#X connect 10 1 20 0;
#X connect 11 0 8 1;
#X connect 14 0 6 1;
#X connect 14 0 5 1;
#X connect 15 0 16 0;
#X connect 16 0 8 1;
#X connect 16 0 14 0;
#X connect 17 0 18 0;
#X connect 18 0 19 0;
#X connect 18 1 22 0;
#X connect 19 0 11 0;
#X connect 20 0 10 0;
#X connect 21 0 9 0;
#X connect 22 0 23 0;
#X connect 23 0 24 0;
#X connect 23 1 9 0;
#X connect 23 1 10 0;
#X connect 24 0 9 0;
#X connect 24 0 10 0;
#X restore 47 221 pd receive-signal;
#X obj 123 133 netpd_f \$1 switch 0;
#X floatatom 100 111 5 0 0 0 - - -, f 5;
#X obj 42 112 osc~ 120;
#X connect 5 0 4 0;
#X connect 8 0 4 1;
#X connect 9 0 5 1;
#X connect 10 0 5 0;
