#N canvas 608 44 440 510 10;
#N canvas 624 75 293 96 NETPD 0;
#X msg 12 8 version 0 0 0;
#N canvas 483 313 318 115 abslist 0;
#X msg 12 14 evil-signal-to-2x8bit;
#X msg 12 40 evil-2x8bit-to-signal;
#X restore 12 34 pd abslist;
#X restore 10 14 pd NETPD 2 0;
#X obj 9 69 netpd_head \$1 evil;
#N canvas 691 100 426 339 \$1-evil 0;
#X restore 10 42 pd \$1-evil;
#X obj 187 65 netpd-status-get socket 1;
#X obj 46 323 evil-2x8bit-to-signal;
#N canvas 533 82 462 464 send-signal 0;
#X obj 28 92 evil-signal-to-2x8bit;
#X obj 29 148 tabwrite~ \$0.msb.send;
#X obj 151 129 tabwrite~ \$0.lsb.send;
#X obj 194 23 bang~;
#X obj 194 48 f;
#X obj 236 50 + 1;
#X obj 194 99 sel 0;
#X obj 161 204 tabdump \$0.lsb.send;
#X obj 39 204 tabdump \$0.msb.send;
#X obj 39 181 t b b;
#X obj 39 233 list append;
#X obj 194 75 mod 8;
#X obj 292 114 table \$0.msb.send 512;
#X obj 292 135 table \$0.lsb.send 512;
#X obj 29 35 inlet~;
#X obj 124 255 loadbang;
#X obj 124 277 f \$1;
#X obj 39 328 list prepend;
#X obj 39 401 s NETPD;
#X obj 184 331 inlet;
#X obj 39 367 spigot;
#X msg 124 299 list to sendtyped /b/\$1/evil/audio b;
#X connect 0 0 1 0;
#X connect 0 1 2 0;
#X connect 3 0 4 0;
#X connect 4 0 11 0;
#X connect 5 0 4 1;
#X connect 6 0 2 0;
#X connect 6 0 1 0;
#X connect 6 0 9 0;
#X connect 7 0 10 1;
#X connect 8 0 10 0;
#X connect 9 0 8 0;
#X connect 9 1 7 0;
#X connect 10 0 17 0;
#X connect 11 0 5 0;
#X connect 11 0 6 0;
#X connect 14 0 0 0;
#X connect 15 0 16 0;
#X connect 16 0 21 0;
#X connect 17 0 20 0;
#X connect 19 0 20 1;
#X connect 20 0 18 0;
#X connect 21 0 17 1;
#X restore 42 156 pd send-signal;
#X obj 42 134 *~ 0.2;
#X obj 123 125 tgl 15 0 empty empty empty 17 7 0 10 -262144 -1 -1 0
1;
#N canvas 233 392 738 370 receive-signal 0;
#X obj 69 33 netpd_r \$1 audio;
#X obj 316 190 evil-2x8bit-to-signal;
#X obj 69 109 list split 512;
#X obj 69 199 s \$0.msb.receive;
#X obj 109 154 s \$0.lsb.receive;
#X obj 69 176 list prepend 0;
#X obj 109 132 list prepend 0;
#X obj 373 307 table \$0.audio.sample 44100;
#X obj 257 36 table \$0.msb.receive 44100;
#X obj 257 56 table \$0.lsb.receive 44100;
#X obj 69 58 t a b;
#X obj 96 81 f;
#X obj 127 81 + 512;
#X obj 315 128 tabplay~ \$0.msb.receive;
#X obj 440 154 tabplay~ \$0.lsb.receive;
#X obj 316 261 tabwrite~ \$0.audio.sample;
#X obj 343 88 bng 15 250 50 0 empty empty empty 17 7 0 10 -262144 -1
-1;
#X obj 515 53 tabplay~ \$0.audio.sample;
#X obj 511 102 dac~;
#X obj 523 23 bng 15 250 50 0 empty empty empty 17 7 0 10 -262144 -1
-1;
#X msg 188 57 0;
#X connect 0 0 10 0;
#X connect 1 0 15 0;
#X connect 2 0 5 0;
#X connect 2 1 6 0;
#X connect 5 0 3 0;
#X connect 6 0 4 0;
#X connect 10 0 2 0;
#X connect 10 1 11 0;
#X connect 11 0 12 0;
#X connect 11 0 6 1;
#X connect 11 0 5 1;
#X connect 12 0 11 1;
#X connect 13 0 1 0;
#X connect 14 0 1 1;
#X connect 16 0 13 0;
#X connect 16 0 14 0;
#X connect 16 0 15 0;
#X connect 17 0 18 0;
#X connect 17 0 18 1;
#X connect 19 0 17 0;
#X connect 20 0 11 1;
#X restore 47 221 pd receive-signal;
#X floatatom 119 94 5 0 0 0 - - -, f 5;
#X obj 42 112 noise~;
#X connect 6 0 5 0;
#X connect 7 0 5 1;
#X connect 9 0 10 0;
#X connect 10 0 6 0;
