#N canvas 645 82 432 291 10;
#X obj 126 76 example-abs;
#N canvas 608 184 255 422 \$1-example-patch 0;
#N canvas 498 393 789 477 (subpatch) 0;
#X array \$1-table 100 float 2;
#X coords 0 1 100 -1 200 140 1 0 0;
#X restore 21 -4 graph;
#X obj 24 158 hsl 195 17 0 127 0 0 \$1-slider1 \$1-slider1 empty -2
-8 0 10 -262144 -1 -1 0 1;
#X obj 24 187 hsl 195 17 0 127 0 0 \$1-slider2 \$1-slider2 empty -2
-8 0 10 -262144 -1 -1 0 1;
#X symbolatom 29 260 30 0 0 0 - #0.symbol.r #0.symbol;
#X msg 28 308 resize \$1;
#X obj 28 359 s \$1-table;
#X floatatom 28 287 5 0 0 0 - - -;
#X msg 46 333 sinesum 256 0.2 0.2 0.2 0.2;
#X connect 4 0 5 0;
#X connect 6 0 4 0;
#X connect 7 0 5 0;
#X restore 22 30 pd \$1-example-patch;
#X obj 21 54 netpd_head \$1 example-patch;
#X obj 22 8 netpd_t \$1 table 100;
#X obj 22 171 netpd_a \$1 anything;
#X obj 22 193 list prepend set;
#X obj 22 215 list trim;
#X obj 22 237 s \$0.symbol.r;
#X obj 22 148 r \$0.symbol;
#X obj 23 124 netpd_f \$1 slider2 68;
#X obj 23 100 netpd_f \$1 slider1 3 300;
#N canvas 1093 111 183 200 noise 0;
#X obj 16 15 inlet;
#X obj 25 95 noise~;
#X obj 25 117 *~;
#X obj 25 139 dac~;
#X obj 93 78 line~;
#X msg 93 56 1 \, 0 10;
#X connect 0 0 5 0;
#X connect 1 0 2 0;
#X connect 2 0 3 0;
#X connect 4 0 2 1;
#X connect 5 0 4 0;
#X restore 218 200 pd noise;
#X obj 266 73 r master;
#N canvas 1148 141 148 173 click 0;
#X obj 15 104 *~;
#X obj 15 126 dac~;
#X obj 83 65 line~;
#X obj 15 83 osc~ 1000;
#X msg 83 44 1 \, 0 20;
#X obj 83 19 inlet;
#X connect 0 0 1 1;
#X connect 2 0 0 1;
#X connect 3 0 0 0;
#X connect 4 0 2 0;
#X connect 5 0 4 0;
#X restore 266 117 pd click;
#X obj 266 95 route step;
#X obj 218 177 master-poly 2 3;
#N canvas 937 121 266 215 NETPD 0;
#N canvas 135 387 450 300 abslist 0;
#X msg -351 12 example-abs;
#X msg -349 42 master-poly;
#X restore 5 47 pd abslist;
#X msg 6 19 version 0 3 3;
#X msg 8 77 no_singleton;
#N canvas 1191 114 450 300 someprops 0;
#X msg 12 60 bla bla;
#X msg 18 91 fudi;
#N canvas 1203 69 450 300 test 0;
#X msg 40 40 description not yet defined;
#X msg 24 117 askjdl sjdlk;
#X msg 32 161 sdf sdhfkjdsa;
#X msg 0 197 sdf sjdklsf;
#N canvas 1049 356 450 300 details 0;
#X msg 26 41 aaaaa;
#X msg 23 71 bbbbbbbb;
#X msg 24 100 cccccc;
#X msg 28 139 dddddd;
#X restore 179 112 pd details;
#X restore 21 122 pd test;
#X restore 2 107 pd someprops;
#X msg 4 144 someprops blabalablabalabl;
#X msg 3 166 someprops test yoyooyoyyoyoyo;
#X restore 22 78 pd NETPD 2 0;
#X connect 4 0 5 0;
#X connect 5 0 6 0;
#X connect 6 0 7 0;
#X connect 8 0 4 0;
#X connect 12 0 14 0;
#X connect 14 0 13 0;
#X connect 15 0 11 0;
