#N canvas 617 383 232 112 10;
#N canvas 345 68 674 607 master 0;
#X obj 342 118 /;
#X obj 342 192 /;
#X text 460 268 Tempo in BPM;
#X text 499 217 1/16 in msec;
#X obj 342 78 t b f;
#X obj 342 152 t b f;
#X text 368 318 shuffle-delay in msec;
#X text 149 497 Step-No. (shuffled);
#X text 92 535 Step-No. (straight);
#X obj 446 192 f;
#X obj 446 159 b;
#X obj 413 239 f;
#X obj 294 290 f;
#X obj 342 172 f 15000;
#X obj 342 98 f 15000;
#N canvas 461 327 671 442 netpd-mixed_master.bpm 0;
#X obj 410 53 loadbang;
#X obj 149 49 t f b;
#X obj 149 29 r \$0-bpm-number;
#X obj 367 316 s \$0-bpm-number-r;
#X obj 339 19 r \$0-bpm-slider;
#X obj 332 340 s \$0-bpm-slider-r;
#X msg 19 338 set \$1;
#X obj 19 29 r \$0-16th-number;
#X obj 19 358 s \$0-16th-number-r;
#X obj 19 318 /;
#X obj 19 278 t b f;
#X obj 19 298 f 15000;
#X obj 19 89 /;
#X obj 19 49 t b f;
#X obj 19 69 f 15000;
#X obj 19 109 t f b;
#X text 19 8 [netpd-mixeded];
#X obj 410 73 random 20;
#X obj 410 93 + 115;
#X msg 410 113 set \$1;
#X msg 332 277 set \$1;
#X obj 332 166 r \$0.synmetro.o;
#X obj 332 189 route interval;
#X obj 339 111 outlet;
#X obj 332 246 /;
#X msg 332 224 15000 \$1;
#X connect 0 0 17 0;
#X connect 1 0 23 0;
#X connect 2 0 1 0;
#X connect 4 0 23 0;
#X connect 6 0 8 0;
#X connect 7 0 13 0;
#X connect 9 0 6 0;
#X connect 10 0 11 0;
#X connect 10 1 9 1;
#X connect 11 0 9 0;
#X connect 12 0 15 0;
#X connect 13 0 14 0;
#X connect 13 1 12 1;
#X connect 14 0 12 0;
#X connect 17 0 18 0;
#X connect 18 0 19 0;
#X connect 20 0 5 0;
#X connect 20 0 3 0;
#X connect 21 0 22 0;
#X connect 22 0 25 0;
#X connect 24 0 20 0;
#X connect 25 0 24 0;
#X restore 342 58 pd netpd-mixed_master.bpm;
#X obj 521 16 netpd_head \$1 master;
#X msg 544 409 switch \$1;
#X obj 544 430 s master;
#X msg 53 498 stepshuffle \$1;
#X msg 39 535 step \$1;
#X msg 294 317 shuffle \$1;
#X msg 413 267 bpm \$1;
#X msg 446 215 16th \$1;
#X obj 583 576 s master;
#X obj 17 568 s \$0.step;
#X obj 36 270 mod 2;
#X obj 36 357 rh_metro;
#X obj 36 384 f;
#X obj 118 367 + 1;
#X obj 118 389 sel 2;
#X msg 118 410 0;
#X obj 36 292 sel 0;
#X obj 36 313 t b a;
#X msg 63 335 0;
#X obj 17 246 t a a a;
#X obj 36 435 +;
#X obj 17 488 t a;
#X obj 198 165 * 2;
#X obj 198 212 *;
#X obj 226 184 t b a;
#X obj 446 81 r master;
#X obj 446 103 route refresh;
#X obj 198 38 netpd_f \$1 shuffle 0.5;
#X msg 266 214 interval \$1;
#X obj 185 331 >> 1;
#X obj 185 353 << 1;
#X obj 310 453 synmetro \$1 master;
#X msg 21 36 startstop \$1;
#X obj 310 476 s \$0.synmetro.o;
#X obj 310 432 r \$0.synmetro.i;
#X obj 17 182 r \$0.synmetro.o;
#X obj 17 205 route step;
#X obj 544 328 r \$0.synmetro.o;
#X obj 544 351 route startstop;
#X obj 266 237 s \$0.synmetro.i;
#X obj 21 56 s \$0.synmetro.i;
#X obj 226 135 r \$0.synmetro.o;
#X obj 226 158 route interval;
#X obj 21 14 r \$1-switch-s;
#X obj 555 379 s \$1-switch-r;
#X connect 0 0 5 0;
#X connect 0 0 9 0;
#X connect 0 0 44 0;
#X connect 1 0 11 0;
#X connect 4 0 14 0;
#X connect 4 1 0 1;
#X connect 5 0 13 0;
#X connect 5 1 1 1;
#X connect 9 0 23 0;
#X connect 10 0 9 0;
#X connect 10 0 11 0;
#X connect 10 0 12 0;
#X connect 11 0 22 0;
#X connect 12 0 21 0;
#X connect 13 0 1 0;
#X connect 14 0 0 0;
#X connect 15 0 4 0;
#X connect 17 0 18 0;
#X connect 19 0 24 0;
#X connect 20 0 24 0;
#X connect 21 0 24 0;
#X connect 22 0 24 0;
#X connect 23 0 24 0;
#X connect 26 0 32 0;
#X connect 27 0 28 0;
#X connect 28 0 29 0;
#X connect 28 0 36 0;
#X connect 29 0 30 0;
#X connect 30 0 31 0;
#X connect 30 1 28 1;
#X connect 31 0 27 0;
#X connect 32 0 33 0;
#X connect 33 0 27 0;
#X connect 33 1 34 0;
#X connect 34 0 28 1;
#X connect 35 0 37 0;
#X connect 35 1 26 0;
#X connect 35 2 45 0;
#X connect 36 0 19 0;
#X connect 37 0 20 0;
#X connect 37 0 25 0;
#X connect 38 0 39 0;
#X connect 39 0 12 0;
#X connect 39 0 27 1;
#X connect 40 0 39 0;
#X connect 40 1 39 1;
#X connect 41 0 42 0;
#X connect 42 0 10 0;
#X connect 43 0 38 0;
#X connect 44 0 55 0;
#X connect 45 0 46 0;
#X connect 46 0 36 1;
#X connect 47 0 49 0;
#X connect 48 0 56 0;
#X connect 50 0 47 0;
#X connect 51 0 52 0;
#X connect 52 0 35 0;
#X connect 53 0 54 0;
#X connect 54 0 17 0;
#X connect 54 0 60 0;
#X connect 57 0 58 0;
#X connect 58 0 40 0;
#X connect 59 0 48 0;
#X restore 10 38 pd master;
#N canvas 932 357 206 171 NETPD 0;
#N canvas 986 316 184 194 abslist 0;
#X msg 11 36 master-poly;
#X msg 11 14 synmetro;
#X msg 11 58 roman_helpers;
#X restore 9 33 pd abslist;
#X msg 9 54 singleton;
#X msg 9 12 version 0 3 6;
#X restore 10 59 pd NETPD 2 0;
#X text 91 11 GUI;
#N canvas 585 44 411 58 \$1-master 1;
#X obj 9 2 cnv 15 393 42 empty empty empty 20 12 0 14 -228856 -66577
0;
#X obj 11 4 cnv 15 389 38 empty empty empty 20 12 0 14 -191407 -66577
0;
#X obj 13 6 cnv 15 385 34 empty empty empty 20 12 0 14 -99865 -66577
0;
#X obj 18 8 hsl 50 30 0 1 0 0 \$1-switch-sl \$1-switch-sl empty 5 15
0 14 -262144 -237180 -237180 2050 1;
#X obj 120 8 hsl 200 15 60 240 1 0 \$1-bpm \$1-bpm empty 30 8 0 11
-1 -4034 -4034 11000 1;
#X obj 120 23 hsl 200 15 50 75 1 0 \$1-shuffle \$1-shuffle empty 30
8 0 11 -1 -4034 -1 8900 1;
#X obj 336 8 cnv 15 60 30 empty empty empty 20 12 0 14 -1 -66577 0
;
#X obj 322 8 nbx 5 15 1 500 0 0 \$1-bpm-nb \$1-bpm-nb BPM 49 8 0 11
-1 -4034 -4034 129.1 256;
#X obj 322 23 nbx 5 15 50 75 0 0 \$1-shuffle-nb \$1-shuffle-nb % 49
8 0 11 -1 -4034 -4034 59 256;
#X obj 322 8 cnv 8 8 30 empty empty empty 20 12 0 14 -1 -66577 0;
#X obj 15 8 cnv 14 55 15 empty \$1-switch-top master 3 8 0 11 -166441
-4033 0;
#X obj 15 24 cnv 14 55 14 empty \$1-switch-bottom 0000002 3 7 0 11
-166441 -4033 0;
#X obj 71 10 vsl 18 25 0 1 0 0 \$1-mode-sl \$1-mode-sl empty 0 -9 0
10 -262144 -1 -1 1000 1;
#X obj 71 8 cnv 15 18 30 empty \$1-mode-cover R 5 15 0 11 -1 -4033
0;
#X obj 90 8 cnv 15 26 30 empty empty empty 20 12 0 14 -1 -66577 0;
#X obj 94 8 master-gui-bar 3;
#X obj 91 8 master-gui-bar 2;
#X obj 97 8 master-gui-bar 4;
#X obj 100 8 master-gui-bar 5;
#X obj 103 8 master-gui-bar 6;
#X obj 106 8 master-gui-bar 7;
#X obj 109 8 master-gui-bar 8;
#X obj 112 8 master-gui-bar 9;
#X obj 115 8 master-gui-bar 10;
#X restore 10 14 pd \$1-master;
#N canvas 725 473 210 184 guistuff 0;
#N canvas 95 238 490 395 bpm-gui 0;
#X obj 126 353 s \$1-bpm;
#X obj 20 197 makefilename %3d;
#X obj 16 284 list append;
#X msg 17 308 label \$1\$2;
#X obj 78 261 makefilename %cBPM;
#X obj 77 217 loadbang;
#X msg 79 238 32;
#X obj 238 44 route float;
#X obj 238 90 int;
#X msg 220 304 label empty;
#X obj 238 22 r \$1-bpm;
#X obj 65 75 t a a;
#X obj 103 119 sel 0 1;
#X msg 102 144 120;
#X msg 115 176 label_pos \$1 8;
#X obj 103 97 > 120;
#X msg 134 144 30;
#X obj 223 275 r \$0.reset;
#X msg 238 146 set \$1;
#X obj 238 168 s \$1-bpm-nb;
#X obj 332 36 route float;
#X obj 333 59 int;
#X msg 333 81 set \$1;
#X obj 332 14 r \$1-bpm-nb;
#X obj 333 103 s \$1-bpm;
#X obj 238 67 * 10;
#X obj 238 115 * 0.1;
#X connect 1 0 2 0;
#X connect 2 0 3 0;
#X connect 3 0 0 0;
#X connect 4 0 2 1;
#X connect 5 0 6 0;
#X connect 6 0 4 0;
#X connect 7 0 25 0;
#X connect 8 0 26 0;
#X connect 9 0 0 0;
#X connect 10 0 7 0;
#X connect 11 0 1 0;
#X connect 11 1 15 0;
#X connect 12 0 13 0;
#X connect 12 1 16 0;
#X connect 13 0 14 0;
#X connect 14 0 0 0;
#X connect 15 0 12 0;
#X connect 16 0 14 0;
#X connect 17 0 9 0;
#X connect 18 0 19 0;
#X connect 20 0 21 0;
#X connect 21 0 22 0;
#X connect 22 0 24 0;
#X connect 23 0 20 0;
#X connect 25 0 8 0;
#X connect 26 0 18 0;
#X restore 22 44 pd bpm-gui;
#N canvas 305 435 374 332 switch-gui 0;
#X msg 90 189 -65281 -1;
#X msg 90 256 color \$1 \$1 \$2;
#X obj 90 148 sel 1 0;
#X obj 29 34 ==;
#X obj 57 36 t a;
#X obj 90 300 s \$1-switch-top;
#X obj 104 280 s \$1-switch-bottom;
#X msg 109 169 -1 -65281;
#X obj 29 12 rh_slider_click \$1-switch-sl \$1-switch-sl;
#X obj 90 210 t a a;
#X msg 117 232 \$2;
#X obj 29 183 pack f f;
#X msg 29 160 1;
#X obj 29 57 t b a;
#X obj 56 78 s \$1-switch-s;
#X obj 90 101 r \$1-switch-r;
#X obj 233 209 s \$1-switch-bottom;
#X obj 233 64 r master;
#X obj 233 86 route step;
#X obj 233 166 makefilename %07d;
#X msg 233 188 label \$1;
#X msg 258 138 0;
#X obj 258 118 loadbang;
#X obj 90 123 route float set;
#X connect 0 0 9 0;
#X connect 1 0 5 0;
#X connect 1 0 6 0;
#X connect 2 0 0 0;
#X connect 2 1 7 0;
#X connect 3 0 4 0;
#X connect 3 0 13 0;
#X connect 4 0 3 1;
#X connect 7 0 9 0;
#X connect 8 0 3 0;
#X connect 9 0 1 0;
#X connect 9 1 10 0;
#X connect 10 0 11 1;
#X connect 11 0 1 0;
#X connect 12 0 11 0;
#X connect 13 0 12 0;
#X connect 13 1 14 0;
#X connect 15 0 23 0;
#X connect 17 0 18 0;
#X connect 18 0 19 0;
#X connect 19 0 20 0;
#X connect 20 0 16 0;
#X connect 21 0 19 0;
#X connect 22 0 21 0;
#X connect 23 0 2 0;
#X connect 23 1 2 0;
#X restore 22 15 pd switch-gui;
#N canvas 95 294 259 244 shuffle-gui 0;
#X obj 16 40 route float;
#X obj 16 86 int;
#X msg 16 110 set \$1;
#X obj 110 32 route float;
#X msg 111 77 set \$1;
#X obj 16 18 r \$1-shuffle;
#X obj 16 137 s \$1-shuffle-nb;
#X obj 110 10 r \$1-shuffle-nb;
#X obj 111 99 s \$1-shuffle;
#X connect 0 0 1 0;
#X connect 1 0 2 0;
#X connect 2 0 6 0;
#X connect 3 0 4 0;
#X connect 4 0 8 0;
#X connect 5 0 0 0;
#X connect 7 0 3 0;
#X restore 22 71 pd shuffle-gui;
#N canvas 305 435 502 295 mode-gui 0;
#X msg 31 169 -65281 -1;
#X msg 31 194 color \$1 \$1 \$2;
#X obj 31 116 sel 1 0;
#X obj 31 65 b;
#X obj 31 92 ==;
#X obj 74 84 t a;
#X msg 50 140 -1 -65281;
#X obj 31 219 s \$1-mode-cover;
#X obj 31 41 rh_slider_click \$1-mode-sl \$1-mode-sl;
#X connect 0 0 1 0;
#X connect 1 0 7 0;
#X connect 2 0 0 0;
#X connect 2 1 6 0;
#X connect 3 0 4 0;
#X connect 4 0 5 0;
#X connect 4 0 2 0;
#X connect 5 0 4 1;
#X connect 6 0 1 0;
#X connect 8 0 3 0;
#X restore 21 99 pd mode-gui;
#X restore 117 14 pd guistuff;
