#N canvas 604 322 232 112 10;
#N canvas 345 68 674 607 master 0;
#X obj 342 71 /;
#X obj 344 215 /;
#X text 387 279 Tempo in BPM;
#X text 539 269 1/16 in msec;
#X text 368 318 shuffle-delay in msec;
#X text 149 497 Step-No. (shuffled);
#X text 92 535 Step-No. (straight);
#X obj 486 245 f;
#X obj 446 159 b;
#X obj 344 245 f;
#X obj 294 290 f;
#X obj 521 16 netpd_head \$1 master;
#X msg 544 409 switch \$1;
#X obj 544 430 s master;
#X msg 53 498 stepshuffle \$1;
#X msg 39 535 step \$1;
#X msg 294 317 shuffle \$1;
#X msg 344 280 bpm \$1;
#X msg 486 268 16th \$1;
#X obj 583 576 s master;
#X obj 17 568 s \$0.step;
#X obj 36 270 mod 2;
#X obj 36 357 rh_metro;
#X obj 36 384 f;
#X obj 118 367 + 1;
#X obj 118 389 sel 2;
#X msg 118 410 0;
#X obj 36 292 sel 0;
#X obj 36 313 t b a;
#X msg 63 335 0;
#X obj 17 246 t a a a;
#X obj 36 435 +;
#X obj 17 488 t a;
#X obj 163 145 * 2;
#X obj 163 192 *;
#X obj 191 164 t b a;
#X obj 446 81 r master;
#X obj 446 103 route refresh;
#X obj 163 18 netpd_f \$1 shuffle 50;
#X msg 342 97 interval \$1;
#X obj 185 331 >> 1;
#X obj 185 353 << 1;
#X obj 310 453 synmetro \$1 master;
#X msg 21 36 startstop \$1;
#X obj 310 476 s \$0.synmetro.o;
#X obj 310 432 r \$0.synmetro.i;
#X obj 17 202 r \$0.synmetro.o;
#X obj 17 225 route step;
#X obj 544 328 r \$0.synmetro.o;
#X obj 544 351 route startstop;
#X obj 342 120 s \$0.synmetro.i;
#X obj 21 56 s \$0.synmetro.i;
#X obj 191 115 r \$0.synmetro.o;
#X obj 191 138 route interval;
#X obj 21 14 r \$1-switch-s;
#X obj 555 379 s \$1-switch-r;
#X obj 23 124 s \$0.synmetro.i;
#X obj 23 82 r \$1-mode-s;
#X msg 23 104 mode \$1;
#X obj 535 125 r \$0.synmetro.o;
#X obj 535 147 route mode;
#X obj 535 169 s \$1-mode-r;
#X obj 163 77 * 0.01;
#X msg 344 191 15000 \$1;
#X obj 344 147 r \$0.synmetro.o;
#X obj 344 170 route interval;
#X msg 342 48 15000 \$1;
#X obj 342 26 r \$1-bpm-s;
#X obj 380 251 s \$1-bpm-r;
#X connect 0 0 39 0;
#X connect 1 0 9 0;
#X connect 1 0 68 0;
#X connect 7 0 18 0;
#X connect 8 0 7 0;
#X connect 8 0 9 0;
#X connect 8 0 10 0;
#X connect 9 0 17 0;
#X connect 10 0 16 0;
#X connect 12 0 13 0;
#X connect 14 0 19 0;
#X connect 15 0 19 0;
#X connect 16 0 19 0;
#X connect 17 0 19 0;
#X connect 18 0 19 0;
#X connect 21 0 27 0;
#X connect 22 0 23 0;
#X connect 23 0 24 0;
#X connect 23 0 31 0;
#X connect 24 0 25 0;
#X connect 25 0 26 0;
#X connect 25 1 23 1;
#X connect 26 0 22 0;
#X connect 27 0 28 0;
#X connect 28 0 22 0;
#X connect 28 1 29 0;
#X connect 29 0 23 1;
#X connect 30 0 32 0;
#X connect 30 1 21 0;
#X connect 30 2 40 0;
#X connect 31 0 14 0;
#X connect 32 0 15 0;
#X connect 32 0 20 0;
#X connect 33 0 34 0;
#X connect 34 0 10 0;
#X connect 34 0 22 1;
#X connect 35 0 34 0;
#X connect 35 1 34 1;
#X connect 36 0 37 0;
#X connect 37 0 8 0;
#X connect 38 0 62 0;
#X connect 39 0 50 0;
#X connect 40 0 41 0;
#X connect 41 0 31 1;
#X connect 42 0 44 0;
#X connect 43 0 51 0;
#X connect 45 0 42 0;
#X connect 46 0 47 0;
#X connect 47 0 30 0;
#X connect 48 0 49 0;
#X connect 49 0 12 0;
#X connect 49 0 55 0;
#X connect 52 0 53 0;
#X connect 53 0 35 0;
#X connect 54 0 43 0;
#X connect 57 0 58 0;
#X connect 58 0 56 0;
#X connect 59 0 60 0;
#X connect 60 0 61 0;
#X connect 62 0 33 0;
#X connect 63 0 1 0;
#X connect 64 0 65 0;
#X connect 65 0 63 0;
#X connect 65 0 7 0;
#X connect 66 0 0 0;
#X connect 67 0 66 0;
#X restore 10 38 pd master;
#N canvas 932 385 206 171 NETPD 0;
#N canvas 986 344 184 194 abslist 0;
#X msg 11 36 master-poly;
#X msg 11 14 synmetro;
#X msg 11 58 roman_helpers;
#X msg 11 82 master-gui-bar;
#X restore 9 33 pd abslist;
#X msg 9 54 singleton;
#X msg 9 12 version 0 3 7;
#X restore 10 59 pd NETPD 2 0;
#X text 91 11 GUI;
#N canvas 585 44 410 57 \$1-master 1;
#X obj 9 2 cnv 15 393 42 empty empty empty 20 12 0 14 -228856 -66577
0;
#X obj 11 4 cnv 15 389 38 empty empty empty 20 12 0 14 -191407 -66577
0;
#X obj 13 6 cnv 15 385 34 empty empty empty 20 12 0 14 -99865 -66577
0;
#X obj 18 8 hsl 50 30 0 1 0 0 \$1-switch-sl \$1-switch-sl empty 5 15
0 14 -262144 -237180 -237180 2450 1;
#X obj 120 8 hsl 200 15 60 240 1 0 \$1-bpm-sl-s \$1-bpm-sl-r empty
30 8 0 11 -1 -4034 -4034 19800 1;
#X obj 120 23 hsl 200 15 50 75 1 0 \$1-shuffle \$1-shuffle empty 30
8 0 11 -1 -4034 -1 0 1;
#X obj 336 8 cnv 15 60 30 empty empty empty 20 12 0 14 -1 -66577 0
;
#X obj 322 8 nbx 5 15 1 500 0 0 \$1-bpm-nb-s \$1-bpm-nb-r BPM 49 8
0 11 -1 -4034 -4034 238.334 256;
#X obj 322 23 nbx 5 15 50 75 0 0 \$1-shuffle-nb \$1-shuffle-nb % 49
8 0 11 -1 -4034 -4034 50 256;
#X obj 322 8 cnv 8 8 30 empty empty empty 20 12 0 14 -1 -66577 0;
#X obj 15 8 cnv 14 55 15 empty \$1-switch-top MASTER 3 8 0 11 -1 -4033
0;
#X obj 15 24 cnv 14 55 14 empty \$1-switch-bottom 0000405 3 7 0 11
-1 -4033 0;
#X obj 71 10 vsl 18 25 0 1 0 0 \$1-mode-sl \$1-mode-sl empty 0 -9 0
10 -262144 -1 -1 1200 1;
#X obj 71 8 cnv 15 18 30 empty \$1-mode-cover R 5 15 0 11 -1 -4033
0;
#X obj 90 8 cnv 15 26 30 empty empty empty 20 12 0 14 -1 -66577 0;
#X obj 103 8 master-gui-bar 6;
#X obj 94 8 master-gui-bar 3;
#X obj 106 8 master-gui-bar 7;
#X obj 91 8 master-gui-bar 2;
#X obj 97 8 master-gui-bar 4;
#X obj 100 8 master-gui-bar 5;
#X obj 109 8 master-gui-bar 8;
#X obj 112 8 master-gui-bar 9;
#X obj 115 8 master-gui-bar 10;
#X restore 10 14 pd \$1-master;
#N canvas 713 510 210 184 guistuff 0;
#N canvas 849 237 322 281 bpm-gui 0;
#X msg 21 103 set \$1;
#X obj 21 139 s \$1-bpm-sl-r;
#X obj 22 168 r \$1-bpm-nb-s;
#X obj 37 190 r \$1-bpm-sl-s;
#X obj 22 215 s \$1-bpm-s;
#X obj 21 -26 r \$1-bpm-r;
#X obj 112 139 s \$1-bpm-nb-r;
#X obj 107 67 r \$1-bpm-s;
#X obj 21 69 spigot 0;
#X obj 66 6 r \$0.synmetro.o;
#X obj 66 29 route notown;
#X connect 0 0 1 0;
#X connect 0 0 6 0;
#X connect 2 0 4 0;
#X connect 3 0 4 0;
#X connect 5 0 8 0;
#X connect 7 0 0 0;
#X connect 8 0 0 0;
#X connect 9 0 10 0;
#X connect 10 0 8 1;
#X restore 16 45 pd bpm-gui;
#N canvas 398 257 367 392 switch-gui 0;
#X msg 90 229 -65281 -1;
#X msg 90 296 color \$1 \$1 \$2;
#X obj 90 188 sel 1 0;
#X obj 29 34 ==;
#X obj 90 340 s \$1-switch-top;
#X obj 104 320 s \$1-switch-bottom;
#X msg 109 209 -1 -65281;
#X obj 29 12 rh_slider_click \$1-switch-sl \$1-switch-sl;
#X obj 90 250 t a a;
#X msg 117 272 \$2;
#X obj 29 223 pack f f;
#X msg 29 200 1;
#X obj 29 57 t b a;
#X obj 56 78 s \$1-switch-s;
#X obj 90 104 r \$1-switch-r;
#X obj 233 209 s \$1-switch-bottom;
#X obj 233 64 r master;
#X obj 233 86 route step;
#X obj 233 166 makefilename %07d;
#X msg 233 188 label \$1;
#X msg 258 138 0;
#X obj 258 118 loadbang;
#X obj 90 126 route float set;
#X obj 90 155 t a a;
#X connect 0 0 8 0;
#X connect 1 0 4 0;
#X connect 1 0 5 0;
#X connect 2 0 0 0;
#X connect 2 1 6 0;
#X connect 3 0 12 0;
#X connect 6 0 8 0;
#X connect 7 0 3 0;
#X connect 8 0 1 0;
#X connect 8 1 9 0;
#X connect 9 0 10 1;
#X connect 10 0 1 0;
#X connect 11 0 10 0;
#X connect 12 0 11 0;
#X connect 12 1 13 0;
#X connect 14 0 22 0;
#X connect 16 0 17 0;
#X connect 17 0 18 0;
#X connect 18 0 19 0;
#X connect 19 0 15 0;
#X connect 20 0 18 0;
#X connect 21 0 20 0;
#X connect 22 0 23 0;
#X connect 22 1 23 0;
#X connect 23 0 2 0;
#X connect 23 1 3 1;
#X restore 16 16 pd switch-gui;
#N canvas 899 300 237 157 shuffle-gui 0;
#X obj 16 66 int;
#X msg 16 90 set \$1;
#X obj 16 18 r \$1-shuffle;
#X obj 16 117 s \$1-shuffle-nb;
#X obj 116 50 r \$1-shuffle-nb;
#X obj 116 98 s \$1-shuffle;
#X obj 16 44 route float set;
#X obj 116 72 route float;
#X connect 0 0 1 0;
#X connect 1 0 3 0;
#X connect 2 0 6 0;
#X connect 4 0 7 0;
#X connect 6 0 0 0;
#X connect 6 1 0 0;
#X connect 7 0 5 0;
#X restore 16 72 pd shuffle-gui;
#N canvas 602 303 322 345 mode-gui 0;
#X msg 94 210 -65281 -1;
#X msg 94 275 color \$1 \$1 \$2;
#X obj 94 165 sel 1 0;
#X obj 14 32 ==;
#X msg 113 189 -1 -65281;
#X obj 94 300 s \$1-mode-cover;
#X obj 14 9 rh_slider_click \$1-mode-sl \$1-mode-sl;
#X msg 121 254 \$2;
#X obj 14 54 t b a;
#X obj 41 75 s \$1-mode-s;
#X msg 14 162 1;
#X obj 14 183 pack f f;
#X obj 94 98 r \$1-mode-r;
#X obj 94 120 route float set;
#X obj 94 142 t a a;
#X obj 94 232 t a a;
#X connect 0 0 15 0;
#X connect 1 0 5 0;
#X connect 2 0 0 0;
#X connect 2 1 4 0;
#X connect 3 0 8 0;
#X connect 4 0 15 0;
#X connect 6 0 3 0;
#X connect 7 0 11 1;
#X connect 8 0 10 0;
#X connect 8 1 9 0;
#X connect 10 0 11 0;
#X connect 11 0 1 0;
#X connect 12 0 13 0;
#X connect 13 0 14 0;
#X connect 13 1 14 0;
#X connect 14 0 2 0;
#X connect 14 1 3 1;
#X connect 15 0 1 0;
#X connect 15 1 7 0;
#X restore 15 100 pd mode-gui;
#X restore 117 14 pd guistuff;
