#N canvas 594 200 492 567 10;
#N canvas 624 75 342 87 NETPD 0;
#N canvas 315 75 320 105 abslist 0;
#X msg 19 15 roman_helpers;
#X restore 13 45 pd abslist;
#X msg 12 18 version 0 0 1;
#X restore 10 14 pd NETPD 2 0;
#N canvas 0 44 366 122 request 0;
#N canvas 524 288 257 217 timestamp 0;
#X obj 78 15 inlet;
#X obj 11 15 r \$0.step;
#X obj 11 82 timer;
#X obj 11 37 t b a;
#X obj 78 39 b;
#X obj 11 187 outlet;
#X obj 11 109 pack f f;
#X obj 11 135 /;
#X obj 11 158 +;
#X obj 86 77 r \$0.interval.o;
#X connect 0 0 4 0;
#X connect 1 0 3 0;
#X connect 2 0 6 0;
#X connect 3 0 2 0;
#X connect 3 1 8 1;
#X connect 4 0 2 1;
#X connect 6 0 7 0;
#X connect 7 0 8 0;
#X connect 8 0 5 0;
#X connect 9 0 6 1;
#X restore 28 51 pd timestamp;
#X text 128 50 request packet transmission;
#X obj 28 5 inlet;
#X obj 28 77 netpd_s \$1 rqpt;
#X connect 0 0 3 0;
#X connect 2 0 0 0;
#X restore 318 43 pd request;
#N canvas 183 44 357 441 response 0;
#X obj 23 92 t a b;
#X obj 23 140 list append;
#X text 133 116 request packet reception;
#X obj 23 278 t a b;
#X obj 23 326 list append;
#X text 132 302 response packet transmission;
#X obj 23 39 list prepend;
#X obj 23 348 t a a;
#X obj 23 370 list split 1;
#X msg 165 373 \$1;
#N canvas 524 260 257 217 timestamp 0;
#X obj 78 15 inlet;
#X obj 11 15 r \$0.step;
#X obj 11 82 timer;
#X obj 11 37 t b a;
#X obj 78 39 b;
#X obj 11 187 outlet;
#X obj 11 109 pack f f;
#X obj 11 135 /;
#X obj 11 158 +;
#X obj 86 77 r \$0.interval.o;
#X connect 0 0 4 0;
#X connect 1 0 3 0;
#X connect 2 0 6 0;
#X connect 3 0 2 0;
#X connect 3 1 8 1;
#X connect 4 0 2 1;
#X connect 6 0 7 0;
#X connect 7 0 8 0;
#X connect 8 0 5 0;
#X connect 9 0 6 1;
#X restore 50 115 pd timestamp;
#N canvas 524 260 257 217 timestamp 0;
#X obj 78 15 inlet;
#X obj 11 15 r \$0.step;
#X obj 11 82 timer;
#X obj 11 37 t b a;
#X obj 78 39 b;
#X obj 11 187 outlet;
#X obj 11 109 pack f f;
#X obj 11 135 /;
#X obj 11 158 +;
#X obj 86 77 r \$0.interval.o;
#X connect 0 0 4 0;
#X connect 1 0 3 0;
#X connect 2 0 6 0;
#X connect 3 0 2 0;
#X connect 3 1 8 1;
#X connect 4 0 2 1;
#X connect 6 0 7 0;
#X connect 7 0 8 0;
#X connect 8 0 5 0;
#X connect 9 0 6 1;
#X restore 50 301 pd timestamp;
#X obj 104 188 random 76;
#X obj 104 210 + 20;
#X obj 23 65 spigot;
#X obj 73 65 r \$1.notown;
#X obj 23 162 t a b;
#X obj 23 194 unpack f f f;
#X obj 23 232 pipe 0 0 0 100;
#X obj 23 254 pack f f f;
#X obj 23 13 netpd_r \$1 rqpt;
#X obj 105 39 r \$1.sender;
#X obj 24 395 netpd-s /\$1/master2/rspt;
#X connect 0 0 1 0;
#X connect 0 1 10 0;
#X connect 1 0 16 0;
#X connect 3 0 4 0;
#X connect 3 1 11 0;
#X connect 4 0 7 0;
#X connect 6 0 14 0;
#X connect 7 0 8 0;
#X connect 7 1 9 0;
#X connect 8 1 22 0;
#X connect 9 0 22 1;
#X connect 10 0 1 1;
#X connect 11 0 4 1;
#X connect 12 0 13 0;
#X connect 13 0 18 3;
#X connect 14 0 0 0;
#X connect 15 0 14 1;
#X connect 16 0 17 0;
#X connect 16 1 12 0;
#X connect 17 0 18 0;
#X connect 17 1 18 1;
#X connect 17 2 18 2;
#X connect 18 0 19 0;
#X connect 18 1 19 1;
#X connect 18 2 19 2;
#X connect 19 0 3 0;
#X connect 20 0 6 0;
#X connect 21 0 6 1;
#X restore 318 63 pd response;
#N canvas 435 149 378 260 evaluation 0;
#X obj 23 36 t a b;
#X text 134 59 response packet reception;
#X obj 23 82 list append;
#X obj 23 104 t a a;
#X msg 23 129 \$2 \$1;
#X obj 23 151 -;
#X obj 66 150 -;
#X msg 66 128 \$3 \$4;
#X obj 23 174 +;
#X obj 23 196 / 2;
#X obj 23 218 outlet;
#N canvas 524 260 257 217 timestamp 0;
#X obj 78 15 inlet;
#X obj 11 15 r \$0.step;
#X obj 11 82 timer;
#X obj 11 37 t b a;
#X obj 78 39 b;
#X obj 11 187 outlet;
#X obj 11 109 pack f f;
#X obj 11 135 /;
#X obj 11 158 +;
#X obj 86 77 r \$0.interval.o;
#X connect 0 0 4 0;
#X connect 1 0 3 0;
#X connect 2 0 6 0;
#X connect 3 0 2 0;
#X connect 3 1 8 1;
#X connect 4 0 2 1;
#X connect 6 0 7 0;
#X connect 7 0 8 0;
#X connect 8 0 5 0;
#X connect 9 0 6 1;
#X restore 50 59 pd timestamp;
#X obj 23 14 netpd-r /\$1/master2/rspt;
#X connect 0 0 2 0;
#X connect 0 1 11 0;
#X connect 2 0 3 0;
#X connect 3 0 4 0;
#X connect 3 1 7 0;
#X connect 4 0 5 0;
#X connect 5 0 8 0;
#X connect 6 0 8 1;
#X connect 7 0 6 0;
#X connect 8 0 9 0;
#X connect 9 0 10 0;
#X connect 11 0 2 1;
#X connect 12 0 0 0;
#X restore 318 83 pd evaluation;
#X obj 88 178 netpd_f \$1 interval 1000;
#X obj 13 114 netpd_f \$1 startstop 0;
#X obj 13 429 f;
#X obj 44 429 + 1;
#X obj 13 508 s \$0.step;
#X obj 197 402 r \$0.step;
#X obj 197 489 s \$0.step.display;
#X msg 197 467 label \$1;
#X obj 197 441 makefilename %05d;
#X obj 88 200 s \$0.interval.i;
#X obj 88 222 r \$0.interval.o;
#X obj 318 103 s \$0.offset;
#X obj 318 124 r \$0.offset;
#X obj 44 301 netpd_f \$1 step 0;
#X obj 96 501 s \$1-step;
#X obj 96 434 route 1;
#X obj 96 455 b;
#X obj 96 478 f;
#N canvas 0 156 187 333 tempo.correction 0;
#X obj 20 99 max 0;
#X obj 20 144 + 1;
#X msg 20 168 1 \$1;
#X obj 20 190 /;
#X obj 20 54 t a a;
#X obj 20 76 *;
#X obj 20 32 max 0;
#X obj 20 270 *;
#X obj 75 199 r \$0.interval.i;
#X obj 75 220 t b a;
#X obj 20 246 f 1;
#X obj 20 294 s \$0.interval.o;
#X obj 20 216 max 0.5;
#X obj 20 122 * 0.1;
#X obj 20 12 inlet;
#X connect 0 0 13 0;
#X connect 1 0 2 0;
#X connect 2 0 3 0;
#X connect 3 0 12 0;
#X connect 4 0 5 0;
#X connect 4 1 5 1;
#X connect 5 0 0 0;
#X connect 6 0 4 0;
#X connect 7 0 11 0;
#X connect 8 0 9 0;
#X connect 9 0 10 0;
#X connect 9 1 7 1;
#X connect 10 0 7 0;
#X connect 13 0 1 0;
#X connect 14 0 6 0;
#X restore 318 145 pd tempo.correction;
#X obj 13 452 t a a a;
#X obj 44 323 t a a;
#X obj 44 345 int;
#X obj 113 271 wrap;
#N canvas 287 334 307 296 set.exact.step.at.dump 0;
#X msg 9 240 set \$1;
#X obj 24 23 r \$0.step;
#X obj 125 25 netpd-dump \$1 4;
#X obj 96 146 r \$0.interval.i;
#X obj 51 147 timer;
#X obj 9 261 s \$1-step;
#X obj 24 45 t a b;
#X obj 51 170 pack f f;
#X obj 51 192 /;
#X obj 9 217 +;
#X obj 125 73 f;
#X obj 125 95 sel 1 0;
#X msg 144 117 0;
#X obj 140 50 r \$0.startstop;
#X connect 0 0 5 0;
#X connect 1 0 6 0;
#X connect 2 0 10 0;
#X connect 3 0 7 1;
#X connect 4 0 7 0;
#X connect 6 0 9 1;
#X connect 6 1 4 0;
#X connect 7 0 8 0;
#X connect 8 0 9 0;
#X connect 9 0 0 0;
#X connect 10 0 11 0;
#X connect 11 0 4 1;
#X connect 11 1 12 0;
#X connect 12 0 9 0;
#X connect 13 0 10 1;
#X restore 297 296 pd set.exact.step.at.dump;
#X obj 13 135 s \$0.startstop;
#X obj 96 412 r \$1-startstop;
#X obj 13 155 r \$0.startstop;
#X obj 13 261 rh_metro;
#X obj 13 197 pack f f;
#X obj 13 219 t a b;
#X msg 52 220 0;
#N canvas 594 44 342 108 \$1-master2 0;
#X obj 48 15 nbx 4 30 -1e+37 1e+37 0 0 \$1-interval \$1-interval empty
6 8 0 20 -262144 -1 -1 1000 256;
#X obj 13 15 tgl 30 0 \$1-startstop \$1-startstop empty 17 7 0 10 -204786
-1 -1 0 1;
#X obj 139 15 cnv 15 70 30 empty \$0.step.display 00000 3 14 0 22 -262144
-66577 0;
#X obj 16 74 nbx 10 20 -1e+37 1e+37 0 0 \$0.bli \$0.interval.o empty
0 -8 0 14 -262144 -1 -1 1000 256;
#X text 15 57 corrected interval;
#X obj 156 74 nbx 10 20 -1e+37 1e+37 0 0 \$0.bli \$0.offset empty 0
-8 0 14 -262144 -1 -1 0 256;
#X obj 253 15 bng 15 250 50 0 \$0.resync empty empty 17 7 0 10 -262144
-1 -1;
#X text 273 13 adjust;
#X text 155 57 offset;
#X restore 10 42 pd \$1-master2;
#X obj 9 69 netpd_head \$1 master2;
#X obj 318 22 r \$0.resync;
#X obj 318 180 r \$0.offset;
#X obj 318 202 print OFFSET;
#N canvas 0 44 391 248 median 0;
#N canvas 0 44 705 480 list-sort 0;
#X obj 103 217 list split 1;
#X obj 137 238 list split 1;
#X obj 103 280 list append;
#X obj 31 253 list;
#X obj 31 194 > 0;
#X obj 118 349 outlet;
#X obj 31 215 sel 1 0;
#X obj 137 46 inlet;
#X text 29 420 2008 Michal Seta;
#X obj 207 300 list prepend;
#X obj 289 301 t l;
#X obj 118 327 list append;
#X obj 137 110 t l l l l b;
#X obj 137 67 t l b;
#X text 266 190 [list-sort] sort an incoming list of numerical values
in an ascending order;
#X obj 31 173 list length;
#N canvas 0 44 679 481 list-minmax 0;
#X obj 128 120 route float;
#X obj 159 256 f;
#X obj 106 394 outlet;
#X obj 165 369 f;
#X obj 165 396 outlet;
#X obj 106 305 t b b;
#X obj 106 10 inlet;
#X obj 106 366 f;
#N canvas 0 0 450 300 once 0;
#X obj 110 75 inlet;
#X obj 105 187 spigot 1;
#X obj 110 104 t b f;
#X msg 125 151 0;
#X msg 165 99 1;
#X obj 165 63 inlet;
#X obj 102 219 outlet;
#X connect 0 0 2 0;
#X connect 1 0 6 0;
#X connect 2 0 3 0;
#X connect 2 1 1 0;
#X connect 3 0 1 1;
#X connect 4 0 1 1;
#X connect 5 0 4 0;
#X restore 260 183 pd once;
#X obj 275 258 f;
#X obj 244 257 max;
#X obj 128 256 min;
#X obj 128 150 t a a a;
#X obj 106 30 t b a b;
#X text 321 183 prime [min] and [max] with first item once;
#N canvas 0 44 705 479 list-drip 0;
#X obj 63 84 t a a;
#X obj 63 241 spigot;
#X obj 102 149 bang;
#X obj 102 168 1;
#X obj 223 149 route bang;
#X obj 183 150 bang;
#X obj 183 169 0;
#X obj 102 114 list split 2;
#X obj 232 379 list split;
#X obj 299 328 list length;
#X obj 299 350 >> 1;
#X obj 63 260 t a a a a;
#X obj 63 446 list split;
#X obj 130 398 list length;
#X obj 130 423 >> 1;
#X obj 31 19 inlet;
#X obj 290 175 outlet;
#X text 73 19 Copyright 2009 by Mathieu Bouchard;
#X obj 31 53 t b a;
#X obj 465 119 outlet;
#X text 520 121 signal end of list;
#X text 381 23 made compatible with [list-drip]: fbar 2009;
#X connect 0 0 1 0;
#X connect 0 1 7 0;
#X connect 1 0 11 0;
#X connect 2 0 3 0;
#X connect 3 0 1 1;
#X connect 4 1 16 0;
#X connect 5 0 6 0;
#X connect 6 0 1 1;
#X connect 7 0 2 0;
#X connect 7 2 4 0;
#X connect 7 2 5 0;
#X connect 8 0 0 0;
#X connect 9 0 10 0;
#X connect 10 0 8 1;
#X connect 11 0 12 0;
#X connect 11 1 13 0;
#X connect 11 2 8 0;
#X connect 11 3 9 0;
#X connect 12 1 0 0;
#X connect 13 0 14 0;
#X connect 14 0 12 1;
#X connect 15 0 18 0;
#X connect 18 0 19 0;
#X connect 18 1 0 0;
#X restore 128 80 pd list-drip;
#X connect 0 0 12 0;
#X connect 1 0 11 1;
#X connect 3 0 4 0;
#X connect 5 0 7 0;
#X connect 5 1 3 0;
#X connect 6 0 13 0;
#X connect 7 0 2 0;
#X connect 8 0 10 1;
#X connect 8 0 11 1;
#X connect 9 0 10 1;
#X connect 10 0 9 0;
#X connect 10 0 3 1;
#X connect 11 0 1 0;
#X connect 11 0 7 1;
#X connect 12 0 11 0;
#X connect 12 1 10 0;
#X connect 12 2 8 0;
#X connect 13 0 5 0;
#X connect 13 1 15 0;
#X connect 13 2 8 1;
#X connect 15 0 0 0;
#X restore 175 145 pd list-minmax;
#N canvas 0 44 622 509 list-find 0;
#X obj 91 359 f;
#X obj 91 51 inlet;
#X obj 183 47 inlet;
#X obj 91 396 outlet;
#X text 60 27 value to find;
#X obj 91 210 t a b;
#X obj 91 158 list;
#X text 180 27 list to search in;
#X text 208 103 [list-find] Find positions of a value (symbol or float)
in a list.;
#X obj 91 317 select 1;
#N canvas 0 0 450 300 count 0;
#X obj 120 148 f 0;
#X obj 148 149 + 1;
#X obj 163 100 0;
#X obj 117 24 inlet;
#X obj 119 176 outlet;
#X obj 181 25 inlet;
#X obj 114 47 b;
#X connect 0 0 1 0;
#X connect 0 0 4 0;
#X connect 1 0 0 1;
#X connect 2 0 0 1;
#X connect 3 0 6 0;
#X connect 5 0 2 0;
#X connect 6 0 0 0;
#X restore 121 245 pd count;
#X obj 91 80 t b a b b;
#X obj 176 395 outlet;
#X obj 248 351 + 1;
#X obj 176 375 f;
#X obj 219 350 f 1;
#X msg 235 317 1;
#X msg 199 318 0;
#N canvas 0 44 551 485 compare-any 0;
#X obj 118 28 inlet;
#X obj 118 451 outlet;
#X obj 118 336 ==;
#X obj 118 358 select 1;
#N canvas 272 259 450 300 demux 0;
#X obj 76 87 inlet;
#X obj 169 86 inlet;
#X obj 76 145 list prepend 0;
#X obj 76 186 route 0 1;
#X obj 76 242 outlet;
#X obj 105 213 outlet;
#X connect 0 0 2 0;
#X connect 1 0 2 1;
#X connect 2 0 3 0;
#X connect 3 0 4 0;
#X connect 3 1 5 0;
#X restore 118 230 pd demux;
#X msg 169 207 0;
#X msg 200 206 1;
#X obj 118 295 route float;
#X obj 219 293 route symbol;
#X obj 359 199 print HUH?;
#X obj 219 272 list;
#X obj 238 164 route float symbol;
#X obj 238 136 list;
#X msg 118 423 1;
#X msg 190 418 0;
#X obj 238 28 inlet;
#X obj 219 356 select [DUMMY-SYMBOL];
#X connect 0 0 4 0;
#X connect 2 0 3 0;
#X connect 3 0 13 0;
#X connect 3 1 14 0;
#X connect 4 0 7 0;
#X connect 4 1 10 0;
#X connect 5 0 4 1;
#X connect 6 0 4 1;
#X connect 7 0 2 0;
#X connect 7 1 14 0;
#X connect 8 0 16 0;
#X connect 8 1 14 0;
#X connect 10 0 8 0;
#X connect 11 0 2 1;
#X connect 11 0 5 0;
#X connect 11 1 6 0;
#X connect 11 1 16 1;
#X connect 11 2 9 0;
#X connect 12 0 11 0;
#X connect 13 0 1 0;
#X connect 14 0 1 0;
#X connect 15 0 12 0;
#X connect 16 0 13 0;
#X connect 16 1 14 0;
#X restore 91 281 pd compare-any;
#N canvas 0 44 705 479 list-drip 0;
#X obj 63 84 t a a;
#X obj 63 241 spigot;
#X obj 102 149 bang;
#X obj 102 168 1;
#X obj 223 149 route bang;
#X obj 183 150 bang;
#X obj 183 169 0;
#X obj 102 114 list split 2;
#X obj 232 379 list split;
#X obj 299 328 list length;
#X obj 299 350 >> 1;
#X obj 63 260 t a a a a;
#X obj 63 446 list split;
#X obj 130 398 list length;
#X obj 130 423 >> 1;
#X obj 31 19 inlet;
#X obj 290 175 outlet;
#X text 73 19 Copyright 2009 by Mathieu Bouchard;
#X obj 31 53 t b a;
#X obj 465 119 outlet;
#X text 520 121 signal end of list;
#X text 381 23 made compatible with [list-drip]: fbar 2009;
#X connect 0 0 1 0;
#X connect 0 1 7 0;
#X connect 1 0 11 0;
#X connect 2 0 3 0;
#X connect 3 0 1 1;
#X connect 4 1 16 0;
#X connect 5 0 6 0;
#X connect 6 0 1 1;
#X connect 7 0 2 0;
#X connect 7 2 4 0;
#X connect 7 2 5 0;
#X connect 8 0 0 0;
#X connect 9 0 10 0;
#X connect 10 0 8 1;
#X connect 11 0 12 0;
#X connect 11 1 13 0;
#X connect 11 2 8 0;
#X connect 11 3 9 0;
#X connect 12 1 0 0;
#X connect 13 0 14 0;
#X connect 14 0 12 1;
#X connect 15 0 18 0;
#X connect 18 0 19 0;
#X connect 18 1 0 0;
#X restore 91 185 pd list-drip;
#X connect 0 0 3 0;
#X connect 1 0 11 0;
#X connect 2 0 6 1;
#X connect 5 0 18 0;
#X connect 5 1 10 0;
#X connect 6 0 19 0;
#X connect 9 0 0 0;
#X connect 9 0 15 0;
#X connect 10 0 0 1;
#X connect 11 0 6 0;
#X connect 11 1 18 1;
#X connect 11 2 10 1;
#X connect 11 3 16 0;
#X connect 11 3 17 0;
#X connect 13 0 15 1;
#X connect 14 0 12 0;
#X connect 15 0 14 1;
#X connect 15 0 13 0;
#X connect 16 0 15 1;
#X connect 17 0 14 1;
#X connect 18 0 9 0;
#X connect 19 0 5 0;
#X connect 19 1 14 0;
#X restore 160 180 pd list-find;
#X connect 0 0 2 0;
#X connect 0 1 1 0;
#X connect 1 0 9 0;
#X connect 1 1 2 1;
#X connect 2 0 3 1;
#X connect 3 0 12 0;
#X connect 4 0 6 0;
#X connect 6 0 3 0;
#X connect 6 1 11 0;
#X connect 7 0 13 0;
#X connect 9 0 10 0;
#X connect 9 0 11 1;
#X connect 10 0 9 1;
#X connect 11 0 5 0;
#X connect 12 0 15 0;
#X connect 12 1 0 0;
#X connect 12 2 16 0;
#X connect 12 3 17 1;
#X connect 13 0 12 0;
#X connect 13 1 9 1;
#X connect 15 0 4 0;
#X connect 16 0 17 0;
#X connect 17 0 0 1;
#X restore 44 120 pd list-sort;
#X obj 127 131 / 2;
#X obj 127 109 - 1;
#X obj 44 174 list split;
#X msg 72 199 \$1;
#X obj 44 34 inlet;
#X obj 44 56 t a a;
#X obj 127 83 list length;
#X obj 72 222 outlet;
#X connect 0 0 3 0;
#X connect 1 0 3 1;
#X connect 2 0 1 0;
#X connect 3 1 4 0;
#X connect 4 0 8 0;
#X connect 5 0 6 0;
#X connect 6 0 0 0;
#X connect 6 1 7 0;
#X connect 7 0 2 0;
#X restore 299 265 pd median;
#X connect 3 0 15 0;
#X connect 4 0 13 0;
#X connect 5 0 28 0;
#X connect 6 0 23 0;
#X connect 7 0 6 1;
#X connect 9 0 12 0;
#X connect 11 0 10 0;
#X connect 12 0 11 0;
#X connect 14 0 31 1;
#X connect 16 0 22 0;
#X connect 17 0 24 0;
#X connect 19 0 20 0;
#X connect 20 0 21 0;
#X connect 21 0 18 0;
#X connect 23 0 8 0;
#X connect 23 1 7 0;
#X connect 23 2 21 1;
#X connect 24 0 25 0;
#X connect 24 1 26 0;
#X connect 25 0 7 0;
#X connect 25 0 12 0;
#X connect 26 0 32 1;
#X connect 29 0 19 0;
#X connect 30 0 32 0;
#X connect 31 0 6 0;
#X connect 32 0 33 0;
#X connect 33 0 31 0;
#X connect 33 1 34 0;
#X connect 34 0 32 1;
#X connect 37 0 1 0;
#X connect 38 0 39 0;
