#N canvas 594 200 492 567 10;
#N canvas 624 75 342 87 NETPD 0;
#N canvas 315 75 320 105 abslist 0;
#X msg 19 15 roman_helpers;
#X restore 13 45 pd abslist;
#X msg 12 18 version 0 0 1;
#X restore 10 14 pd NETPD 2 0;
#X obj 9 69 netpd_head \$1 timetest;
#N canvas 594 44 342 108 \$1-timetest 1;
#X obj 48 15 nbx 4 30 -1e+37 1e+37 0 0 \$1-interval \$1-interval empty
6 8 0 20 -262144 -1 -1 1000 256;
#X obj 13 15 tgl 30 0 \$1-startstop \$1-startstop empty 17 7 0 10 -204786
-1 -1 1 1;
#X obj 139 15 cnv 15 70 30 empty \$0.step.display 03274 3 14 0 22 -262144
-66577 0;
#X obj 16 74 nbx 10 20 -1e+37 1e+37 0 0 \$0.bli \$0.interval.o empty
0 -8 0 14 -262144 -1 -1 1000 256;
#X text 15 57 corrected interval;
#X obj 156 74 nbx 10 20 -1e+37 1e+37 0 0 \$0.bli \$0.offset empty 0
-8 0 14 -262144 -1 -1 0 256;
#X obj 253 15 bng 15 250 50 0 \$0.resync empty empty 17 7 0 10 -262144
-1 -1;
#X text 273 13 adjust;
#X text 155 57 offset;
#X restore 10 42 pd \$1-timetest;
#N canvas 0 44 366 122 request 0;
#N canvas 524 260 257 217 timestamp 0;
#X obj 78 15 inlet;
#X obj 11 15 r \$0.step;
#X obj 11 82 timer;
#X obj 11 37 t b a;
#X obj 78 39 b;
#X obj 11 187 outlet;
#X obj 11 109 pack f f;
#X obj 11 135 /;
#X obj 11 158 +;
#X obj 86 77 r \$0.interval.o;
#X connect 0 0 4 0;
#X connect 1 0 3 0;
#X connect 2 0 6 0;
#X connect 3 0 2 0;
#X connect 3 1 8 1;
#X connect 4 0 2 1;
#X connect 6 0 7 0;
#X connect 7 0 8 0;
#X connect 8 0 5 0;
#X connect 9 0 6 1;
#X restore 28 51 pd timestamp;
#X text 128 50 request packet transmission;
#X obj 28 77 netpd-s /\$1/timetest/rqpt;
#X obj 28 28 t b a;
#X obj 28 5 inlet;
#X connect 0 0 2 0;
#X connect 3 0 0 0;
#X connect 3 1 2 1;
#X connect 4 0 3 0;
#X restore 257 51 pd request;
#N canvas 183 44 357 441 response 0;
#X obj 23 62 t a b;
#X obj 23 110 list append;
#X text 133 86 request packet reception;
#X obj 23 132 t b a;
#X obj 23 227 list append;
#X obj 23 248 t a b;
#X obj 23 296 list append;
#X text 132 272 response packet transmission;
#X obj 23 13 netpd-r /\$1/timetest/rqpt;
#X obj 24 365 netpd-s /\$1/timetest/rspt;
#X obj 23 39 list prepend;
#X obj 23 318 t a a;
#X obj 23 340 list split 1;
#X msg 171 343 \$1;
#N canvas 524 260 257 217 timestamp 0;
#X obj 78 15 inlet;
#X obj 11 15 r \$0.step;
#X obj 11 82 timer;
#X obj 11 37 t b a;
#X obj 78 39 b;
#X obj 11 187 outlet;
#X obj 11 109 pack f f;
#X obj 11 135 /;
#X obj 11 158 +;
#X obj 86 77 r \$0.interval.o;
#X connect 0 0 4 0;
#X connect 1 0 3 0;
#X connect 2 0 6 0;
#X connect 3 0 2 0;
#X connect 3 1 8 1;
#X connect 4 0 2 1;
#X connect 6 0 7 0;
#X connect 7 0 8 0;
#X connect 8 0 5 0;
#X connect 9 0 6 1;
#X restore 50 85 pd timestamp;
#N canvas 524 260 257 217 timestamp 0;
#X obj 78 15 inlet;
#X obj 11 15 r \$0.step;
#X obj 11 82 timer;
#X obj 11 37 t b a;
#X obj 78 39 b;
#X obj 11 187 outlet;
#X obj 11 109 pack f f;
#X obj 11 135 /;
#X obj 11 158 +;
#X obj 86 77 r \$0.interval.o;
#X connect 0 0 4 0;
#X connect 1 0 3 0;
#X connect 2 0 6 0;
#X connect 3 0 2 0;
#X connect 3 1 8 1;
#X connect 4 0 2 1;
#X connect 6 0 7 0;
#X connect 7 0 8 0;
#X connect 8 0 5 0;
#X connect 9 0 6 1;
#X restore 50 271 pd timestamp;
#X obj 23 155 random 76;
#X obj 23 177 + 20;
#X obj 23 204 del 96;
#X connect 0 0 1 0;
#X connect 0 1 14 0;
#X connect 1 0 3 0;
#X connect 3 0 16 0;
#X connect 3 1 4 1;
#X connect 4 0 5 0;
#X connect 5 0 6 0;
#X connect 5 1 15 0;
#X connect 6 0 11 0;
#X connect 8 0 10 0;
#X connect 8 1 10 1;
#X connect 10 0 0 0;
#X connect 11 0 12 0;
#X connect 11 1 13 0;
#X connect 12 1 9 0;
#X connect 13 0 9 1;
#X connect 14 0 1 1;
#X connect 15 0 6 1;
#X connect 16 0 17 0;
#X connect 17 0 18 0;
#X connect 18 0 4 0;
#X restore 257 71 pd response;
#N canvas 435 149 378 260 evaluation 0;
#X obj 23 36 t a b;
#X text 134 59 response packet reception;
#X obj 23 82 list append;
#X obj 23 104 t a a;
#X msg 23 129 \$2 \$1;
#X obj 23 151 -;
#X obj 66 150 -;
#X msg 66 128 \$3 \$4;
#X obj 23 174 +;
#X obj 23 196 / 2;
#X obj 23 14 netpd-r /\$1/timetest/rspt;
#X obj 23 218 outlet;
#N canvas 524 260 257 217 timestamp 0;
#X obj 78 15 inlet;
#X obj 11 15 r \$0.step;
#X obj 11 82 timer;
#X obj 11 37 t b a;
#X obj 78 39 b;
#X obj 11 187 outlet;
#X obj 11 109 pack f f;
#X obj 11 135 /;
#X obj 11 158 +;
#X obj 86 77 r \$0.interval.o;
#X connect 0 0 4 0;
#X connect 1 0 3 0;
#X connect 2 0 6 0;
#X connect 3 0 2 0;
#X connect 3 1 8 1;
#X connect 4 0 2 1;
#X connect 6 0 7 0;
#X connect 7 0 8 0;
#X connect 8 0 5 0;
#X connect 9 0 6 1;
#X restore 50 59 pd timestamp;
#X connect 0 0 2 0;
#X connect 0 1 12 0;
#X connect 2 0 3 0;
#X connect 3 0 4 0;
#X connect 3 1 7 0;
#X connect 4 0 5 0;
#X connect 5 0 8 0;
#X connect 6 0 8 1;
#X connect 7 0 6 0;
#X connect 8 0 9 0;
#X connect 9 0 11 0;
#X connect 10 0 0 0;
#X connect 12 0 2 1;
#X restore 257 91 pd evaluation;
#X obj 88 178 netpd_f \$1 interval 1000;
#X obj 13 114 netpd_f \$1 startstop 0;
#X obj 13 429 f;
#X obj 44 429 + 1;
#X obj 13 508 s \$0.step;
#X obj 257 29 netpd-find-peers /\$1/timetest;
#X obj 197 402 r \$0.step;
#X obj 197 489 s \$0.step.display;
#X msg 197 467 label \$1;
#X obj 197 441 makefilename %05d;
#X obj 88 200 s \$0.interval.i;
#X obj 88 222 r \$0.interval.o;
#X obj 257 111 s \$0.offset;
#X obj 257 132 r \$0.offset;
#X obj 257 8 r \$0.resync;
#X obj 44 301 netpd_f \$1 step 0;
#X obj 96 501 s \$1-step;
#X obj 96 434 route 1;
#X obj 96 455 b;
#X obj 96 478 f;
#X floatatom 31 405 5 0 0 0 - - -, f 5;
#N canvas 0 72 187 333 tempo.correction 0;
#X obj 20 99 max 0;
#X obj 20 144 + 1;
#X msg 20 168 1 \$1;
#X obj 20 190 /;
#X obj 20 54 t a a;
#X obj 20 76 *;
#X obj 20 32 max 0;
#X obj 20 270 *;
#X obj 75 199 r \$0.interval.i;
#X obj 75 220 t b a;
#X obj 20 246 f 1;
#X obj 20 294 s \$0.interval.o;
#X obj 20 216 max 0.5;
#X obj 20 122 * 0.1;
#X obj 20 12 inlet;
#X connect 0 0 13 0;
#X connect 1 0 2 0;
#X connect 2 0 3 0;
#X connect 3 0 12 0;
#X connect 4 0 5 0;
#X connect 4 1 5 1;
#X connect 5 0 0 0;
#X connect 6 0 4 0;
#X connect 7 0 11 0;
#X connect 8 0 9 0;
#X connect 9 0 10 0;
#X connect 9 1 7 1;
#X connect 10 0 7 0;
#X connect 12 0 10 0;
#X connect 13 0 1 0;
#X connect 14 0 6 0;
#X restore 257 153 pd tempo.correction;
#X obj 13 452 t a a a;
#X obj 44 323 t a a;
#X obj 44 345 int;
#X obj 71 344 wrap;
#N canvas 287 334 307 296 set.exact.step.at.dump 0;
#X msg 9 240 set \$1;
#X obj 24 23 r \$0.step;
#X obj 125 25 netpd-dump \$1 4;
#X obj 96 146 r \$0.interval.i;
#X obj 51 147 timer;
#X obj 9 261 s \$1-step;
#X obj 24 45 t a b;
#X obj 51 170 pack f f;
#X obj 51 192 /;
#X obj 9 217 +;
#X obj 125 73 f;
#X obj 125 95 sel 1 0;
#X msg 144 117 0;
#X obj 140 50 r \$0.startstop;
#X connect 0 0 5 0;
#X connect 1 0 6 0;
#X connect 2 0 10 0;
#X connect 3 0 7 1;
#X connect 4 0 7 0;
#X connect 6 0 9 1;
#X connect 6 1 4 0;
#X connect 7 0 8 0;
#X connect 8 0 9 0;
#X connect 9 0 0 0;
#X connect 10 0 11 0;
#X connect 11 0 4 1;
#X connect 11 1 12 0;
#X connect 12 0 9 0;
#X connect 13 0 10 1;
#X restore 256 216 pd set.exact.step.at.dump;
#X obj 13 135 s \$0.startstop;
#X obj 96 412 r \$1-startstop;
#X obj 13 155 r \$0.startstop;
#X obj 13 261 rh_metro;
#X obj 13 197 pack f f;
#X obj 13 219 t a b;
#X msg 52 220 0;
#X connect 5 0 18 0;
#X connect 6 0 16 0;
#X connect 7 0 33 0;
#X connect 8 0 28 0;
#X connect 9 0 8 1;
#X connect 11 0 3 0;
#X connect 12 0 15 0;
#X connect 14 0 13 0;
#X connect 15 0 14 0;
#X connect 17 0 36 1;
#X connect 19 0 27 0;
#X connect 20 0 11 0;
#X connect 21 0 29 0;
#X connect 23 0 24 0;
#X connect 24 0 25 0;
#X connect 25 0 22 0;
#X connect 26 0 8 0;
#X connect 28 0 10 0;
#X connect 28 1 9 0;
#X connect 28 2 25 1;
#X connect 29 0 30 0;
#X connect 29 1 31 0;
#X connect 30 0 9 0;
#X connect 30 0 15 0;
#X connect 31 0 37 1;
#X connect 34 0 23 0;
#X connect 35 0 37 0;
#X connect 36 0 8 0;
#X connect 37 0 38 0;
#X connect 38 0 36 0;
#X connect 38 1 39 0;
#X connect 39 0 37 1;
