#N canvas 617 271 232 112 10;
#N canvas 345 68 674 607 master 0;
#X obj 342 118 /;
#X obj 342 192 /;
#X text 460 268 Tempo in BPM;
#X text 499 217 1/16 in msec;
#X obj 342 78 t b f;
#X obj 342 152 t b f;
#X text 368 318 shuffle-delay in msec;
#X text 149 497 Step-No. (shuffled);
#X text 92 535 Step-No. (straight);
#X obj 446 192 f;
#X obj 446 159 b;
#X obj 413 239 f;
#X obj 294 290 f;
#X obj 342 172 f 15000;
#X obj 342 98 f 15000;
#N canvas 461 327 671 442 netpd-mixed_master.bpm 0;
#X obj 410 53 loadbang;
#X obj 149 49 t f b;
#X obj 149 29 r \$0-bpm-number;
#X obj 367 316 s \$0-bpm-number-r;
#X obj 339 19 r \$0-bpm-slider;
#X obj 332 340 s \$0-bpm-slider-r;
#X msg 19 338 set \$1;
#X obj 19 29 r \$0-16th-number;
#X obj 19 358 s \$0-16th-number-r;
#X obj 19 318 /;
#X obj 19 278 t b f;
#X obj 19 298 f 15000;
#X obj 19 89 /;
#X obj 19 49 t b f;
#X obj 19 69 f 15000;
#X obj 19 109 t f b;
#X text 19 8 [netpd-mixeded];
#X obj 410 73 random 20;
#X obj 410 93 + 115;
#X msg 410 113 set \$1;
#X msg 332 277 set \$1;
#X obj 332 166 r \$0.synmetro.o;
#X obj 332 189 route interval;
#X obj 339 111 outlet;
#X obj 332 246 /;
#X msg 332 224 15000 \$1;
#X connect 0 0 17 0;
#X connect 1 0 23 0;
#X connect 2 0 1 0;
#X connect 4 0 23 0;
#X connect 6 0 8 0;
#X connect 7 0 13 0;
#X connect 9 0 6 0;
#X connect 10 0 11 0;
#X connect 10 1 9 1;
#X connect 11 0 9 0;
#X connect 12 0 15 0;
#X connect 13 0 14 0;
#X connect 13 1 12 1;
#X connect 14 0 12 0;
#X connect 17 0 18 0;
#X connect 18 0 19 0;
#X connect 20 0 5 0;
#X connect 20 0 3 0;
#X connect 21 0 22 0;
#X connect 22 0 25 0;
#X connect 24 0 20 0;
#X connect 25 0 24 0;
#X restore 342 58 pd netpd-mixed_master.bpm;
#N canvas 359 380 281 159 switch.color 0;
#X obj 13 55 sel 0 1;
#X msg 35 75 color -65281 -65281 -65281;
#X msg 13 95 color 0 -1.51324e+07 -1.51324e+07;
#X obj 13 30 inlet;
#X obj 13 125 s \$1-switch;
#X connect 0 0 2 0;
#X connect 0 1 1 0;
#X connect 1 0 4 0;
#X connect 2 0 4 0;
#X connect 3 0 0 0;
#X restore 540 471 pd switch.color;
#X obj 521 16 netpd_head \$1 master;
#X msg 561 430 switch \$1;
#X obj 561 451 s master;
#X msg 53 498 stepshuffle \$1;
#X msg 39 535 step \$1;
#X msg 294 317 shuffle \$1;
#X msg 413 267 bpm \$1;
#X msg 446 215 16th \$1;
#X obj 583 576 s master;
#X obj 17 568 s \$0.step;
#X obj 36 270 mod 2;
#X obj 36 357 rh_metro;
#X obj 36 384 f;
#X obj 118 367 + 1;
#X obj 118 389 sel 2;
#X msg 118 410 0;
#X obj 36 292 sel 0;
#X obj 36 313 t b a;
#X msg 63 335 0;
#X obj 17 246 t a a a;
#X obj 36 435 +;
#X obj 17 488 t a;
#X obj 198 165 * 2;
#X obj 198 212 *;
#X obj 226 184 t b a;
#X obj 446 81 r master;
#X obj 446 103 route refresh;
#X obj 198 38 netpd_f \$1 shuffle 0.5;
#X msg 266 214 interval \$1;
#X obj 185 331 >> 1;
#X obj 185 353 << 1;
#X obj 310 453 synmetro \$1 master;
#X msg 21 58 startstop \$1;
#X obj 310 476 s \$0.synmetro.o;
#X obj 310 432 r \$0.synmetro.i;
#X obj 17 182 r \$0.synmetro.o;
#X obj 17 205 route step;
#X obj 540 336 r \$0.synmetro.o;
#X obj 540 359 route startstop;
#X obj 266 237 s \$0.synmetro.i;
#X obj 21 14 r \$1-switch;
#X obj 21 36 route float;
#X obj 21 78 s \$0.synmetro.i;
#X obj 226 135 r \$0.synmetro.o;
#X obj 226 158 route interval;
#X obj 573 407 s \$1-switch;
#X msg 573 384 set \$1;
#X connect 0 0 5 0;
#X connect 0 0 9 0;
#X connect 0 0 45 0;
#X connect 1 0 11 0;
#X connect 4 0 14 0;
#X connect 4 1 0 1;
#X connect 5 0 13 0;
#X connect 5 1 1 1;
#X connect 9 0 24 0;
#X connect 10 0 9 0;
#X connect 10 0 11 0;
#X connect 10 0 12 0;
#X connect 11 0 23 0;
#X connect 12 0 22 0;
#X connect 13 0 1 0;
#X connect 14 0 0 0;
#X connect 15 0 4 0;
#X connect 18 0 19 0;
#X connect 20 0 25 0;
#X connect 21 0 25 0;
#X connect 22 0 25 0;
#X connect 23 0 25 0;
#X connect 24 0 25 0;
#X connect 27 0 33 0;
#X connect 28 0 29 0;
#X connect 29 0 30 0;
#X connect 29 0 37 0;
#X connect 30 0 31 0;
#X connect 31 0 32 0;
#X connect 31 1 29 1;
#X connect 32 0 28 0;
#X connect 33 0 34 0;
#X connect 34 0 28 0;
#X connect 34 1 35 0;
#X connect 35 0 29 1;
#X connect 36 0 38 0;
#X connect 36 1 27 0;
#X connect 36 2 46 0;
#X connect 37 0 20 0;
#X connect 38 0 21 0;
#X connect 38 0 26 0;
#X connect 39 0 40 0;
#X connect 40 0 12 0;
#X connect 40 0 28 1;
#X connect 41 0 40 0;
#X connect 41 1 40 1;
#X connect 42 0 43 0;
#X connect 43 0 10 0;
#X connect 44 0 39 0;
#X connect 45 0 56 0;
#X connect 46 0 47 0;
#X connect 47 0 37 1;
#X connect 48 0 50 0;
#X connect 49 0 59 0;
#X connect 51 0 48 0;
#X connect 52 0 53 0;
#X connect 53 0 36 0;
#X connect 54 0 55 0;
#X connect 55 0 16 0;
#X connect 55 0 18 0;
#X connect 55 0 63 0;
#X connect 57 0 58 0;
#X connect 58 0 49 0;
#X connect 60 0 61 0;
#X connect 61 0 41 0;
#X connect 63 0 62 0;
#X restore 10 56 pd master;
#N canvas 932 329 206 171 NETPD 0;
#N canvas 986 288 184 194 abslist 0;
#X msg 11 36 master-poly;
#X msg 11 14 synmetro;
#X restore 9 33 pd abslist;
#X msg 9 54 singleton;
#X msg 9 12 version 0 3 6;
#X restore 10 77 pd NETPD 2 0;
#X text 91 11 GUI;
#N canvas 585 44 497 72 \$1-master-old 0;
#X obj 4 5 cnv 15 323 58 empty empty empty 18 10 0 14 -195568 -66577
0;
#X obj 7 8 cnv 15 71 52 empty empty MASTER 5 11 1 11 -241339 -166441
0;
#X obj 10 35 tgl 21 0 \$1-switch \$1-switch empty 0 -6 0 8 -262144
-237180 -237180 0 1;
#X floatatom 34 42 5 1 36288 0 - #0.step #0-nothing;
#X obj 37 27 cnv 10 10 10 empty empty [step] 0 5 1 9 -233017 -66577
0;
#X obj 81 8 cnv 16 243 52 empty empty empty 20 8 0 14 -241339 -66577
0;
#X obj 90 14 cnv 1 1 6 empty empty empty 20 12 0 14 -33289 -66577 0
;
#X obj 237 14 cnv 1 1 6 empty empty empty 20 12 0 14 -33289 -66577
0;
#X obj 139 14 cnv 1 1 6 empty empty empty 20 12 0 14 -33289 -66577
0;
#X obj 95 11 cnv 10 10 10 empty empty 60 0 6 1 9 -233017 -66577 0;
#X obj 143 11 cnv 10 10 10 empty empty 120 0 6 1 9 -233017 -66577 0
;
#X obj 197 11 cnv 10 10 10 empty empty 240 0 6 1 9 -233017 -66577 0
;
#X obj 120 50 cnv 10 10 10 empty empty shuffle 0 5 1 9 -233017 -66577
0;
#X obj 96 50 cnv 10 10 10 empty empty 5 0 5 1 9 -233017 -66577 0;
#X obj 90 24 hsl 148 10 60 240 0 0 \$0-bpm-slider \$0-bpm-slider-r
empty -2 -6 0 8 -262144 -37450 -1 0 1;
#X obj 90 37 hsl 148 10 0.5 0.75 0 0 \$1-shuffle \$1-shuffle empty
-2 -6 0 8 -262144 -37450 -1 14700 0;
#X obj 222 50 cnv 10 10 10 empty empty 75 0 5 1 9 -233017 -66577 0
;
#X obj 172 50 cnv 10 10 10 empty empty 66 0 5 1 9 -233017 -66577 0
;
#X obj 285 24 cnv 10 10 10 empty empty [bpm] 0 6 1 9 -233017 -66577
0;
#X obj 285 42 cnv 10 10 10 empty empty [16th] 0 6 1 9 -233017 -66577
0;
#X obj 244 24 nbx 4 12 1 9600 0 0 \$0-bpm-number \$0-bpm-number-r empty
0 -6 1 9 -262144 -260488 -1 1 256;
#X obj 244 41 nbx 4 12 1 1200 0 0 \$0-16th-number \$0-16th-number-r
empty 0 -6 1 9 -262144 -260488 -1 1 256;
#X obj 90 52 cnv 1 1 6 empty empty empty 20 12 0 14 -33289 -66577 0
;
#X obj 189 52 cnv 1 1 6 empty empty empty 20 12 0 14 -33289 -66577
0;
#X obj 237 52 cnv 1 1 6 empty empty empty 20 12 0 14 -33289 -66577
0;
#X restore 10 35 pd \$1-master-old;
#N canvas 585 44 409 58 \$1-master 1;
#X obj 9 2 cnv 15 393 42 empty empty empty 20 12 0 14 -228856 -66577
0;
#X obj 11 4 cnv 15 389 38 empty empty empty 20 12 0 14 -191407 -66577
0;
#X obj 13 6 cnv 15 385 34 empty empty empty 20 12 0 14 -99865 -66577
0;
#X obj 18 8 hsl 50 30 0 0 0 0 \$1-switch empty empty 5 15 0 14 -66577
-66577 -4033 200 1;
#X obj 120 8 hsl 200 15 60 240 1 0 \$1-bpm \$1-bpm empty 30 8 0 11
-1 -4034 -4034 5300 1;
#X obj 120 23 hsl 200 15 50 75 1 0 \$1-shuffle \$1-shuffle empty 30
8 0 11 -1 -4034 -1 11300 1;
#X obj 336 8 cnv 15 60 30 empty empty empty 20 12 0 14 -1 -66577 0
;
#X obj 322 8 nbx 5 15 1 500 0 0 \$1-bpm-nb \$1-bpm-nb BPM 49 8 0 11
-1 -4034 -4034 86.7 256;
#X obj 322 23 nbx 5 15 50 75 0 0 \$1-shuffle-nb \$1-shuffle-nb % 49
8 0 11 -1 -4034 -4034 62 256;
#X obj 322 8 cnv 8 8 30 empty empty empty 20 12 0 14 -1 -66577 0;
#X obj 15 8 cnv 14 55 15 empty \$1-switch-top master 3 8 0 11 -1 -4033
0;
#X obj 15 24 cnv 14 55 14 empty \$1-switch-bottom 0003142 3 7 0 11
-1 -4033 0;
#X obj 71 10 vsl 18 25 0 0 0 0 \$1-mode empty empty 0 -9 0 10 -262144
-1 -1 0 1;
#X obj 71 8 cnv 15 18 30 empty \$1-mode-cover R 5 15 0 11 -1 -4033
0;
#X obj 90 8 cnv 15 26 30 empty empty empty 20 12 0 14 -1 -66577 0;
#X obj 94 8 master-gui-bar 3;
#X obj 91 8 master-gui-bar 2;
#X obj 97 8 master-gui-bar 4;
#X obj 100 8 master-gui-bar 5;
#X obj 103 8 master-gui-bar 6;
#X obj 106 8 master-gui-bar 7;
#X obj 109 8 master-gui-bar 8;
#X obj 112 8 master-gui-bar 9;
#X obj 115 8 master-gui-bar 10;
#X restore 10 14 pd \$1-master;
#N canvas 0 316 210 184 guistuff 0;
#N canvas 95 238 490 395 bpm-gui 0;
#X obj 126 353 s \$1-bpm;
#X obj 20 197 makefilename %3d;
#X obj 16 284 list append;
#X msg 17 308 label \$1\$2;
#X obj 78 261 makefilename %cBPM;
#X obj 77 217 loadbang;
#X msg 79 238 32;
#X obj 238 44 route float;
#X obj 238 90 int;
#X msg 220 304 label empty;
#X obj 238 22 r \$1-bpm;
#X obj 65 75 t a a;
#X obj 103 119 sel 0 1;
#X msg 102 144 120;
#X msg 115 176 label_pos \$1 8;
#X obj 103 97 > 120;
#X msg 134 144 30;
#X obj 223 275 r \$0.reset;
#X msg 238 146 set \$1;
#X obj 238 168 s \$1-bpm-nb;
#X obj 332 36 route float;
#X obj 333 59 int;
#X msg 333 81 set \$1;
#X obj 332 14 r \$1-bpm-nb;
#X obj 333 103 s \$1-bpm;
#X obj 238 67 * 10;
#X obj 238 115 * 0.1;
#X connect 1 0 2 0;
#X connect 2 0 3 0;
#X connect 3 0 0 0;
#X connect 4 0 2 1;
#X connect 5 0 6 0;
#X connect 6 0 4 0;
#X connect 7 0 25 0;
#X connect 8 0 26 0;
#X connect 9 0 0 0;
#X connect 10 0 7 0;
#X connect 11 0 1 0;
#X connect 11 1 15 0;
#X connect 12 0 13 0;
#X connect 12 1 16 0;
#X connect 13 0 14 0;
#X connect 14 0 0 0;
#X connect 15 0 12 0;
#X connect 16 0 14 0;
#X connect 17 0 9 0;
#X connect 18 0 19 0;
#X connect 20 0 21 0;
#X connect 21 0 22 0;
#X connect 22 0 24 0;
#X connect 23 0 20 0;
#X connect 25 0 8 0;
#X connect 26 0 18 0;
#X restore 22 44 pd bpm-gui;
#N canvas 305 435 502 295 switch-gui 0;
#X msg 55 185 -65281 -1;
#X msg 55 210 color \$1 \$1 \$2;
#X obj 31 125 sel 1 0;
#X obj 31 21 r \$1-switch;
#X obj 31 43 route 0;
#X obj 31 65 b;
#X obj 29 101 ==;
#X obj 85 94 t a;
#X floatatom 243 124 10 0 0 0 - - -;
#X obj 243 145 makefilename %07d;
#X obj 243 189 s \$1-switch-bottom;
#X msg 243 167 label \$1;
#X obj 53 266 s \$1-switch-top;
#X obj 69 240 s \$1-switch-bottom;
#X obj 244 56 metro 125;
#X obj 244 78 f;
#X obj 244 100 + 1;
#X obj 246 33 tgl 15 0 empty empty empty 17 7 0 10 -262144 -1 -1 0
1;
#X msg 76 161 -1 -65281;
#X obj 306 80 loadbang;
#X msg 366 113 step \$1;
#X obj 366 136 s master;
#X msg 337 41 0;
#X floatatom 298 20 5 0 0 0 - - -;
#X connect 0 0 1 0;
#X connect 1 0 12 0;
#X connect 1 0 13 0;
#X connect 2 0 0 0;
#X connect 2 1 18 0;
#X connect 3 0 4 0;
#X connect 4 0 5 0;
#X connect 5 0 6 0;
#X connect 6 0 7 0;
#X connect 6 0 2 0;
#X connect 6 0 17 0;
#X connect 7 0 6 1;
#X connect 8 0 9 0;
#X connect 8 0 20 0;
#X connect 9 0 11 0;
#X connect 11 0 10 0;
#X connect 14 0 15 0;
#X connect 15 0 16 0;
#X connect 16 0 15 1;
#X connect 16 0 8 0;
#X connect 17 0 14 0;
#X connect 18 0 1 0;
#X connect 19 0 8 0;
#X connect 20 0 21 0;
#X connect 22 0 15 1;
#X connect 23 0 14 1;
#X restore 22 15 pd switch-gui;
#N canvas 95 294 259 244 shuffle-gui 0;
#X obj 16 40 route float;
#X obj 16 86 int;
#X msg 16 110 set \$1;
#X obj 110 32 route float;
#X msg 111 77 set \$1;
#X obj 16 18 r \$1-shuffle;
#X obj 16 137 s \$1-shuffle-nb;
#X obj 110 10 r \$1-shuffle-nb;
#X obj 111 99 s \$1-shuffle;
#X connect 0 0 1 0;
#X connect 1 0 2 0;
#X connect 2 0 6 0;
#X connect 3 0 4 0;
#X connect 4 0 8 0;
#X connect 5 0 0 0;
#X connect 7 0 3 0;
#X restore 22 71 pd shuffle-gui;
#N canvas 305 435 502 295 mode-gui 0;
#X msg 55 185 -65281 -1;
#X msg 55 210 color \$1 \$1 \$2;
#X obj 31 125 sel 1 0;
#X obj 31 43 route 0;
#X obj 31 65 b;
#X obj 29 101 ==;
#X obj 85 94 t a;
#X msg 76 161 -1 -65281;
#X obj 70 240 s \$1-mode-cover;
#X obj 32 21 r \$1-mode;
#X connect 0 0 1 0;
#X connect 1 0 8 0;
#X connect 2 0 0 0;
#X connect 2 1 7 0;
#X connect 3 0 4 0;
#X connect 4 0 5 0;
#X connect 5 0 6 0;
#X connect 5 0 2 0;
#X connect 6 0 5 1;
#X connect 7 0 1 0;
#X connect 9 0 3 0;
#X restore 21 99 pd mode-gui;
#X restore 115 14 pd guistuff;
