#N canvas 591 72 292 186 10;
#N canvas 621 66 361 153 NETPD 0;
#X msg 12 8 version 0 0 1;
#X restore 10 14 pd NETPD 2 0;
#X obj 10 70 netpd_head \$1 menge2slnd;
#N canvas 691 100 426 339 \$1-menge2slnd 0;
#X msg 42 225 2-solenoids SLND_\$1;
#X obj 42 252 s qseq3;
#X obj 28 46 netpd-r /menge/click/address/send;
#X msg 31 165 1;
#X msg 65 166 2;
#X msg 28 68 \$2;
#X obj 32 118 sel 1 2;
#X connect 0 0 1 0;
#X connect 2 0 5 0;
#X connect 3 0 0 0;
#X connect 4 0 0 0;
#X connect 6 0 3 0;
#X connect 6 1 4 0;
#X restore 10 42 pd \$1-menge2slnd;
