#N canvas 615 218 450 300 10;
#N canvas 804 392 450 300 NETPD 0;
#X msg 15 7 version 0 0 0;
#N canvas 653 44 450 300 abslist 0;
#X msg 36 17 i2mx;
#X msg 37 41 mx-i2mx-gui;
#X msg 39 69 mx-containers;
#X restore 17 36 pd abslist;
#X msg 16 63 singleton;
#X restore 8 7 pd NETPD 2 0;
#N canvas 615 167 260 415 create.channel.guis 0;
#X obj 7 10 loadbang;
#X msg 7 32 getallinstr;
#X obj 7 54 s mx;
#X obj 7 82 r mx;
#X obj 7 104 route newinstr;
#X obj 7 126 t a b;
#X obj 48 134 f;
#X obj 48 156 + 1;
#X obj 34 332 s pd-\$1-mx;
#X msg 34 310 obj \$1 30 mx-i2mx-gui \$2;
#X obj 7 201 unpack f f;
#X obj 7 223 * 40;
#X obj 7 245 + 15;
#X obj 7 267 pack f f;
#X obj 7 289 t a a;
#X msg 7 354 \; \$2-i2mx-gui loadbang;
#X obj 7 179 list prepend;
#X connect 0 0 1 0;
#X connect 1 0 2 0;
#X connect 3 0 4 0;
#X connect 4 0 5 0;
#X connect 5 0 16 0;
#X connect 5 1 6 0;
#X connect 6 0 7 0;
#X connect 7 0 6 1;
#X connect 7 0 16 1;
#X connect 9 0 8 0;
#X connect 10 0 11 0;
#X connect 10 1 13 1;
#X connect 11 0 12 0;
#X connect 12 0 13 0;
#X connect 13 0 14 0;
#X connect 14 0 15 0;
#X connect 14 1 9 0;
#X connect 16 0 10 0;
#X restore 8 51 pd create.channel.guis;
#X obj 8 29 mx-containers \$1;
