#N canvas 604 183 450 300 10;
#N canvas 804 392 450 300 NETPD 0;
#X msg 15 7 version 0 0 0;
#N canvas 653 44 450 300 abslist 0;
#X msg 36 17 i2mx;
#X msg 37 41 mx-i2mx-gui;
#X msg 39 69 mx-containers;
#X restore 17 36 pd abslist;
#X msg 16 63 singleton;
#X restore 8 7 pd NETPD 2 0;
#N canvas 603 106 348 450 create.channel.guis 0;
#X obj 17 10 loadbang;
#X msg 17 52 getallinstr;
#X obj 17 74 s mx;
#X obj 17 102 r mx;
#X obj 17 124 route newinstr;
#X obj 17 177 t a b;
#X obj 58 185 f;
#X obj 58 207 + 1;
#X obj 44 383 s pd-\$1-mx;
#X obj 17 252 unpack f f;
#X obj 17 296 + 15;
#X obj 17 318 pack f f;
#X obj 17 340 t a a;
#X msg 17 405 \; \$2-i2mx-gui loadbang;
#X obj 17 230 list prepend;
#N canvas 735 302 188 265 gui.already.created? 0;
#X obj 27 21 inlet;
#X obj 27 224 outlet;
#X obj 27 43 t a a b;
#X msg 46 66 \$1 ifguiexists;
#X obj 46 88 s mx;
#X obj 46 110 r mx;
#X obj 46 132 route guiexists;
#X msg 108 99 1;
#X msg 46 154 0;
#X obj 27 202 route 1;
#X obj 27 180 list prepend;
#X connect 0 0 2 0;
#X connect 2 0 10 0;
#X connect 2 1 3 0;
#X connect 2 2 7 0;
#X connect 3 0 4 0;
#X connect 5 0 6 0;
#X connect 6 0 8 0;
#X connect 7 0 10 1;
#X connect 8 0 10 1;
#X connect 9 0 1 0;
#X connect 10 0 9 0;
#X restore 17 148 pd gui.already.created?;
#X obj 17 274 * 41;
#X msg 44 361 obj \$1 5 mx-i2mx-gui \$2;
#X obj 17 30 t b b;
#X obj 106 73 s pd-\$1-mx;
#X obj 106 30 list append \$1;
#X msg 106 51 obj 13 5 mx-master-gui \$1;
#X connect 0 0 18 0;
#X connect 1 0 2 0;
#X connect 3 0 4 0;
#X connect 4 0 15 0;
#X connect 5 0 14 0;
#X connect 5 1 6 0;
#X connect 6 0 7 0;
#X connect 7 0 6 1;
#X connect 7 0 14 1;
#X connect 9 0 16 0;
#X connect 9 1 11 1;
#X connect 10 0 11 0;
#X connect 11 0 12 0;
#X connect 12 0 13 0;
#X connect 12 1 17 0;
#X connect 14 0 9 0;
#X connect 15 0 5 0;
#X connect 16 0 10 0;
#X connect 17 0 8 0;
#X connect 18 0 1 0;
#X connect 18 1 20 0;
#X connect 20 0 21 0;
#X connect 21 0 19 0;
#X restore 8 51 pd create.channel.guis;
#X obj 8 29 mx-containers \$1;
#N canvas 335 122 255 364 fxlist 0;
#X obj 12 -67 r mx;
#X obj 12 -45 route refreshfxlist;
#X obj 12 -23 b;
#X obj 12 -1 del 0;
#X msg 31 43 initfxlist;
#X obj 31 65 s mx;
#X obj 12 21 t b b b;
#X obj 31 90 r mx;
#X obj 104 151 list prepend;
#X obj 186 152 t a;
#X obj 12 198 list append;
#X obj 129 78 t b;
#X obj 31 112 route getfxlist addfxlist;
#X obj 31 134 b;
#X obj 12 220 list prepend fxlist;
#X obj 12 242 list trim;
#X obj 12 264 s mx;
#X connect 0 0 1 0;
#X connect 1 0 2 0;
#X connect 2 0 3 0;
#X connect 3 0 6 0;
#X connect 4 0 5 0;
#X connect 6 0 10 0;
#X connect 6 1 4 0;
#X connect 6 2 11 0;
#X connect 7 0 12 0;
#X connect 8 0 9 0;
#X connect 8 0 10 1;
#X connect 9 0 8 1;
#X connect 10 0 14 0;
#X connect 11 0 8 1;
#X connect 11 0 10 1;
#X connect 12 0 13 0;
#X connect 12 1 8 0;
#X connect 13 0 10 0;
#X connect 14 0 15 0;
#X connect 15 0 16 0;
#X restore 8 73 pd fxlist;
