#N canvas 591 220 309 141 10;
#N canvas 1373 44 306 597 \$1-pcr-30 1;
#X text 12 9 SLIDERS;
#X obj 11 28 midi_cc2param \$1 S1 1 1;
#X obj 11 45 midi_cc2param \$1 S2 2 1;
#X obj 11 62 midi_cc2param \$1 S3 3 1;
#X obj 11 79 midi_cc2param \$1 S4 4 1;
#X obj 11 96 midi_cc2param \$1 S5 5 1;
#X obj 11 113 midi_cc2param \$1 S6 6 1;
#X obj 11 130 midi_cc2param \$1 S7 7 1;
#X obj 11 147 midi_cc2param \$1 S8 8 1;
#X text 12 175 KNOBS;
#X obj 11 194 midi_cc2param \$1 R1 9 1;
#X obj 11 211 midi_cc2param \$1 R2 10 1;
#X obj 11 228 midi_cc2param \$1 R3 11 1;
#X obj 11 245 midi_cc2param \$1 R4 12 1;
#X obj 11 262 midi_cc2param \$1 R5 13 1;
#X obj 11 279 midi_cc2param \$1 R6 14 1;
#X obj 11 296 midi_cc2param \$1 R7 15 1;
#X obj 11 313 midi_cc2param \$1 R8 16 1;
#X text 12 343 BUTTONS;
#X obj 11 362 midi_cc2param \$1 L1 17 1;
#X obj 11 379 midi_cc2param \$1 L2 18 1;
#X obj 11 396 midi_cc2param \$1 L3 19 1;
#X text 12 425 SWITCHES;
#X obj 11 444 midi_cc2param \$1 B1 25 1;
#X obj 11 461 midi_cc2param \$1 B2 26 1;
#X obj 11 478 midi_cc2param \$1 B3 27 1;
#X obj 11 495 midi_cc2param \$1 B4 28 1;
#X obj 11 512 midi_cc2param \$1 B5 29 1;
#X obj 11 529 midi_cc2param \$1 B6 30 1;
#X obj 11 567 midi_keyboard2unstep \$1;
#X text 137 567 KEYBOARD -> UNSTEP;
#X restore 12 42 pd \$1-pcr-30;
#N canvas 591 100 396 152 NETPD 0;
#X msg 13 20 version 0 0 1;
#N canvas 612 136 359 72 ablist 0;
#X msg 14 12 midi_cc2param;
#X msg 14 36 midi_keyboard2unstep;
#X restore 14 47 pd ablist;
#X msg 14 75 singleton;
#X msg 14 98 local;
#X restore 12 19 pd NETPD 2 0;
#X obj 12 64 netpd_head \$1 pcr-30;
