#N canvas 394 74 634 539 10;
#N canvas 162 466 664 317 \$1-qseq3 0;
#X restore 12 16 pd \$1-qseq3;
#N canvas 647 382 450 300 NETPD 0;
#X msg 15 15 version 0 0 0;
#X msg 14 38 singleton;
#N canvas 530 44 450 300 abslist 0;
#X msg 10 17 qseq3-id2path;
#X restore 21 88 pd abslist;
#X restore 11 42 pd NETPD;
#X obj 451 227 table \$1.set/id 10000;
#X obj 451 248 table \$1.seq/id 10000;
#X obj 451 269 table \$1.element/id 10000;
#X obj 451 290 table \$1.value/id 10000;
#X obj 449 14 bng 15 250 50 0 empty empty empty 17 7 0 10 -262144 -1
-1;
#X obj 449 34 s \$0.reset;
#X obj 450 60 r \$0.reset;
#X obj 450 103 \$1;
#X msg 450 81 bang;
#N canvas 661 245 269 426 element.toggler 0;
#X obj 9 312 netpd-rgb2iem;
#X obj -70 19 r \$1.global.s;
#X obj -70 41 t a a;
#X obj -36 107 == 0;
#X obj -9 152 tabwrite \$1.value/id;
#X obj -70 85 list split 3;
#X obj -36 130 t a a;
#X obj -70 175 list append;
#X obj -25 227 list split 3;
#X obj 9 250 sel 0 1;
#X msg 9 290 220 220 220;
#X obj -25 335 list append;
#X obj -25 357 list prepend \$1;
#X msg -25 379 \; \$1.\$2.\$3.\$4.r color \$5 \$5 -1;
#X msg 28 271 180 180 180;
#X obj -70 197 t a a;
#X obj -70 263 outlet;
#X obj -70 63 qseq3-id2path \$1;
#X connect 0 0 11 1;
#X connect 1 0 2 0;
#X connect 2 0 17 0;
#X connect 2 1 4 1;
#X connect 3 0 6 0;
#X connect 5 0 7 0;
#X connect 5 1 3 0;
#X connect 6 0 7 1;
#X connect 6 1 4 0;
#X connect 7 0 15 0;
#X connect 8 0 11 0;
#X connect 8 1 9 0;
#X connect 9 0 10 0;
#X connect 9 1 14 0;
#X connect 10 0 0 0;
#X connect 11 0 12 0;
#X connect 12 0 13 0;
#X connect 14 0 0 0;
#X connect 15 0 16 0;
#X connect 15 1 8 0;
#X connect 17 0 5 0;
#X restore 295 95 pd element.toggler;
#X obj 295 117 print -n;
#X obj 428 360 tgl 15 0 empty empty empty 17 7 0 10 -262144 -1 -1 1
1;
#X msg 428 392 1 \$1;
#X obj 473 359 tgl 15 0 empty empty empty 17 7 0 10 -262144 -1 -1 0
1;
#X obj 515 356 tgl 15 0 empty empty empty 17 7 0 10 -262144 -1 -1 0
1;
#X obj 553 356 tgl 15 0 empty empty empty 17 7 0 10 -262144 -1 -1 0
1;
#X msg 474 391 2 \$1;
#X msg 515 388 3 \$1;
#X msg 553 388 4 \$1;
#X obj 428 430 list prepend \$1;
#X msg 428 452 \; pd-\$1-set-\$2 vis \$3;
#X text 18 79 set num_of_elemnts width instr subinst;
#X obj 451 311 table \$1.nos/set 1000;
#X msg 450 126 \; \$1.set/id const 0 \; \$1.seq/id const 0 \; \$1.element/id
const 0 \; \$1.value/id const 0 \; \$1.nos/set const 0 \;;
#N canvas 181 302 272 442 meta.constructor 0;
#X obj 38 97 tabread \$1.nos/set;
#X msg 38 54 \$1;
#X obj 65 141 + 1;
#X obj 38 119 t a a;
#X obj 11 190 list append;
#X obj 65 164 tabwrite \$1.nos/set;
#X obj 11 33 t a a;
#X obj 38 76 t a a;
#X msg 11 234 \$2;
#X obj 11 258 until;
#X obj 11 280 f;
#X obj 42 280 + 1;
#X msg 40 236 0;
#X obj 11 303 list append;
#X obj 11 212 t a b a a;
#X msg 101 295 seq \$1 \$6 \$4 \$5;
#X text 108 270 set row inst subinst;
#X obj 11 11 inlet;
#X obj 11 385 outlet;
#X text 53 329 set row xpos width;
#X msg 11 346 element \$2 \$7 \$1 \$4;
#X connect 0 0 3 0;
#X connect 1 0 7 0;
#X connect 2 0 5 0;
#X connect 3 0 4 1;
#X connect 3 1 2 0;
#X connect 4 0 14 0;
#X connect 6 0 4 0;
#X connect 6 1 1 0;
#X connect 7 0 0 0;
#X connect 7 1 5 1;
#X connect 8 0 9 0;
#X connect 9 0 10 0;
#X connect 10 0 11 0;
#X connect 10 0 13 0;
#X connect 11 0 10 1;
#X connect 12 0 10 1;
#X connect 13 0 20 0;
#X connect 14 0 8 0;
#X connect 14 1 12 0;
#X connect 14 2 13 1;
#X connect 14 3 15 0;
#X connect 15 0 18 0;
#X connect 17 0 6 0;
#X connect 20 0 18 0;
#X restore 15 135 pd meta.constructor;
#N canvas 255 424 453 369 element.creator 0;
#N canvas 572 260 172 230 x-pos-by-elemnt-id 0;
#X msg -208 88 \$4;
#X obj -271 28 inlet;
#X obj -271 182 outlet;
#X obj -208 111 * 8;
#X obj -271 160 list append;
#X msg -177 88 \$5;
#X obj -271 54 t a a a;
#X obj -208 133 + 74;
#X connect 0 0 3 0;
#X connect 1 0 6 0;
#X connect 3 0 7 0;
#X connect 4 0 2 0;
#X connect 5 0 3 1;
#X connect 6 0 4 0;
#X connect 6 1 0 0;
#X connect 6 2 5 0;
#X connect 7 0 4 1;
#X restore -268 141 pd x-pos-by-elemnt-id;
#X obj -268 92 list prepend \$1;
#X text -166 116 patch-id set-id seq-id element-id width;
#N canvas 572 344 172 230 y-pos-by-seq-id 0;
#X obj -271 28 inlet;
#X obj -271 182 outlet;
#X obj -208 133 + 20;
#X obj -271 160 list append;
#X msg -208 88 \$3;
#X obj -271 54 t a a;
#X obj -208 111 * 23;
#X connect 0 0 5 0;
#X connect 2 0 3 1;
#X connect 3 0 1 0;
#X connect 4 0 6 0;
#X connect 5 0 3 0;
#X connect 5 1 4 0;
#X connect 6 0 2 0;
#X restore -268 165 pd y-pos-by-seq-id;
#X obj -268 17 inlet;
#N canvas 450 316 450 300 add.object.id 0;
#X obj 15 15 inlet;
#X obj 15 271 outlet;
#X obj 15 239 list append;
#X obj 184 60 + 1;
#X obj 62 126 tabwrite \$1.set/id;
#X obj 46 174 tabwrite \$1.seq/id;
#X obj 30 217 tabwrite \$1.element/id;
#X obj 78 84 t a a;
#X obj 15 37 t a a a a b;
#X msg 62 105 \$2;
#X msg 30 196 \$4;
#X msg 46 150 \$3;
#X obj 93 12 r \$0.reset;
#X msg 93 34 0;
#X obj 78 61 value \$1.uniq.id;
#X connect 0 0 8 0;
#X connect 2 0 1 0;
#X connect 3 0 14 0;
#X connect 7 0 2 1;
#X connect 7 1 4 1;
#X connect 7 1 5 1;
#X connect 7 1 6 1;
#X connect 8 0 2 0;
#X connect 8 1 10 0;
#X connect 8 2 11 0;
#X connect 8 3 9 0;
#X connect 8 4 14 0;
#X connect 9 0 4 0;
#X connect 10 0 6 0;
#X connect 11 0 5 0;
#X connect 12 0 13 0;
#X connect 13 0 14 0;
#X connect 14 0 7 0;
#X connect 14 0 3 0;
#X restore -268 186 pd add.object.id;
#X msg -268 233 obj \$6 \$7 vsl \$5 18 \$8 \$8 0 0 \$1.global.s \$1.\$2.\$3.\$4.r
empty 0 -9 0 10 -228856 -228856 -228856 0 1;
#X obj -268 315 send;
#X obj -231 267 list prepend \$1;
#X msg -231 289 symbol pd-\$1-set-\$2;
#X obj -268 46 t a a;
#X msg -230 69 \$1;
#X msg -268 118 \$1 \$2 \$3 \$4 \$5;
#X connect 0 0 3 0;
#X connect 1 0 12 0;
#X connect 3 0 5 0;
#X connect 4 0 10 0;
#X connect 5 0 6 0;
#X connect 6 0 7 0;
#X connect 8 0 9 0;
#X connect 9 0 7 1;
#X connect 10 0 1 0;
#X connect 10 1 11 0;
#X connect 11 0 8 0;
#X connect 12 0 0 0;
#X restore 15 216 pd element.creator;
#N canvas 500 215 222 200 seq.creator 0;
#X obj 19 28 inlet;
#N canvas 303 191 463 448 ypos.for.each.element 0;
#X obj 7 110 t a a a;
#X obj 7 197 t a a a;
#X obj 7 133 + 10;
#X obj 7 155 pack f f f;
#X obj 35 133 - 1;
#X obj 7 -3 inlet;
#X obj 7 176 list append;
#X obj 7 327 outlet;
#X obj 7 65 * 23;
#X obj 7 87 + 20;
#X obj 7 20 t a a;
#X msg 7 42 \$2;
#X msg 46 291 obj 3 \$3 vsl 70 18 \$9 \$9 0 0 \$8.global.s nuet empty
3 7 0 10 -261234 -261234 -66577 0 1;
#X msg 7 222 obj 4 \$1 cnv 10 68 10 empty \$8.\$4.\$5.-1.r \$7 2 6
1 9 -233017 -66577 0;
#X msg 26 256 obj 4 \$2 cnv 10 68 10 empty \$8.\$4.\$5.-1.r \$6 2 6
1 9 -233017 -66577 0;
#X connect 0 0 2 0;
#X connect 0 1 4 0;
#X connect 0 2 3 2;
#X connect 1 0 13 0;
#X connect 1 1 14 0;
#X connect 1 2 12 0;
#X connect 2 0 3 0;
#X connect 3 0 6 0;
#X connect 4 0 3 1;
#X connect 5 0 10 0;
#X connect 6 0 1 0;
#X connect 8 0 9 0;
#X connect 9 0 0 0;
#X connect 10 0 11 0;
#X connect 10 1 6 1;
#X connect 11 0 8 0;
#X connect 12 0 7 0;
#X connect 13 0 7 0;
#X connect 14 0 7 0;
#X restore 19 135 pd ypos.for.each.element;
#X obj 19 72 t a a;
#X obj 19 157 s;
#X obj 19 49 list append \$1;
#N canvas 836 259 450 300 add.object.id 0;
#X obj 15 15 inlet;
#X obj 15 271 outlet;
#X obj 15 239 list append;
#X obj 184 60 + 1;
#X obj 62 126 tabwrite \$1.set/id;
#X obj 46 174 tabwrite \$1.seq/id;
#X obj 30 217 tabwrite \$1.element/id;
#X obj 78 84 t a a;
#X obj 15 37 t a a a a b;
#X obj 78 61 value \$1.uniq.id;
#X msg 62 105 \$1;
#X msg 46 150 \$2;
#X msg 30 196 -1;
#X connect 0 0 8 0;
#X connect 2 0 1 0;
#X connect 3 0 9 0;
#X connect 7 0 2 1;
#X connect 7 1 4 1;
#X connect 7 1 5 1;
#X connect 7 1 6 1;
#X connect 8 0 2 0;
#X connect 8 1 12 0;
#X connect 8 2 11 0;
#X connect 8 3 10 0;
#X connect 8 4 9 0;
#X connect 9 0 7 0;
#X connect 9 0 3 0;
#X connect 10 0 4 0;
#X connect 11 0 5 0;
#X connect 12 0 6 0;
#X restore 19 115 pd add.object.id;
#X msg 46 94 symbol pd-\$5-set-\$1;
#X connect 0 0 4 0;
#X connect 1 0 3 0;
#X connect 2 0 5 0;
#X connect 2 1 6 0;
#X connect 4 0 2 0;
#X connect 5 0 1 0;
#X connect 6 0 3 1;
#X restore 64 185 pd seq.creator;
#X obj 15 157 route element seq;
#X msg 302 266 clear;
#X obj 302 288 s pd-\$1-set-1;
#X obj 293 209 value \$1.uniq.id;
#X obj 293 161 r \$0.reset;
#X msg 293 183 0;
#X msg 15 98 1 16 20 bbdrum hihat;
#N canvas 98 127 154 181 set.guis 0;
#N canvas 2 751 450 300 \$1-set-2 0;
#X restore 9 33 pd \$1-set-2;
#N canvas 2 751 450 300 \$1-set-3 0;
#X restore 9 56 pd \$1-set-3;
#N canvas 2 751 450 300 \$1-set-4 0;
#X restore 9 78 pd \$1-set-4;
#N canvas 71 450 450 300 \$1-set-1 0;
#X restore 9 11 pd \$1-set-1;
#X restore 313 40 pd set.guis;
#X connect 6 0 7 0;
#X connect 8 0 10 0;
#X connect 9 0 25 0;
#X connect 10 0 9 0;
#X connect 11 0 12 0;
#X connect 13 0 14 0;
#X connect 14 0 21 0;
#X connect 15 0 18 0;
#X connect 16 0 19 0;
#X connect 17 0 20 0;
#X connect 18 0 21 0;
#X connect 19 0 21 0;
#X connect 20 0 21 0;
#X connect 21 0 22 0;
#X connect 26 0 29 0;
#X connect 29 0 27 0;
#X connect 29 1 28 0;
#X connect 30 0 31 0;
#X connect 33 0 34 0;
#X connect 34 0 32 0;
#X connect 35 0 26 0;
