#N canvas 624 65 634 539 10;
#N canvas 162 466 664 317 \$1-qseq3 0;
#X restore 12 16 pd \$1-qseq3;
#N canvas 647 382 450 300 NETPD 0;
#X msg 15 15 version 0 0 0;
#X msg 14 38 singleton;
#N canvas 530 44 450 300 abslist 0;
#X msg 10 17 qseq3-id2path;
#X restore 21 88 pd abslist;
#X restore 11 42 pd NETPD;
#X obj 451 227 table \$1.set/id 10000;
#X obj 451 248 table \$1.seq/id 10000;
#X obj 451 269 table \$1.element/id 10000;
#X obj 451 290 table \$1.value/id 10000;
#X obj 449 14 bng 15 250 50 0 empty empty empty 17 7 0 10 -262144 -1
-1;
#X obj 449 34 s \$0.reset;
#X obj 450 60 r \$0.reset;
#X obj 450 103 \$1;
#X msg 450 81 bang;
#X obj 295 139 print -n;
#X obj 428 400 tgl 15 0 empty empty empty 17 7 0 10 -262144 -1 -1 1
1;
#X msg 428 432 1 \$1;
#X obj 473 399 tgl 15 0 empty empty empty 17 7 0 10 -262144 -1 -1 0
1;
#X obj 515 396 tgl 15 0 empty empty empty 17 7 0 10 -262144 -1 -1 0
1;
#X obj 553 396 tgl 15 0 empty empty empty 17 7 0 10 -262144 -1 -1 0
1;
#X msg 474 431 2 \$1;
#X msg 515 428 3 \$1;
#X msg 553 428 4 \$1;
#X obj 428 470 list prepend \$1;
#X msg 428 492 \; pd-\$1-set-\$2 vis \$3;
#X text 14 66 set num_of_elemnts width instr subinst;
#X obj 451 330 table \$1.nos/set 1000;
#N canvas 258 90 347 675 meta.constructor 0;
#X obj 38 147 tabread \$1.nos/set;
#X msg 38 104 \$1;
#X obj 65 191 + 1;
#X obj 38 169 t a a;
#X obj 11 240 list append;
#X obj 65 214 tabwrite \$1.nos/set;
#X obj 11 83 t a a;
#X obj 38 126 t a a;
#X msg 11 307 \$2;
#X obj 11 331 until;
#X obj 11 353 f;
#X obj 42 353 + 1;
#X msg 40 309 0;
#X obj 11 455 list append;
#X obj 11 285 t a b a a;
#X text 122 425 set row inst subinst;
#X obj 11 11 inlet;
#X obj 11 644 outlet;
#X obj 11 262 list append ________;
#X msg 119 443 seq \$1 \$6 \$4 \$5;
#X obj 11 62 list split 5;
#X obj 11 377 t a a;
#X obj 138 553 list append;
#X msg 65 377 \$7;
#X obj 38 424 mod 2;
#X obj 38 401 div 4;
#N canvas 836 343 253 399 add.object.id 0;
#X obj 15 15 inlet;
#X obj 15 351 outlet;
#X obj 208 60 + 1;
#X obj 87 125 tabwrite \$1.set/id;
#X obj 73 172 tabwrite \$1.seq/id;
#X obj 59 217 tabwrite \$1.element/id;
#X obj 102 84 t a a;
#X obj 102 61 value \$1.uniq.id;
#X msg 87 104 \$1;
#X msg 73 148 \$2;
#X msg 58 196 \$3;
#X obj 15 329 f;
#X obj 44 263 tabwrite \$1.value/id;
#X obj 29 305 tabwrite \$1.color/id;
#X msg 29 284 \$4;
#X msg 44 242 \$5;
#X obj 15 37 t b a a a a a b;
#X connect 0 0 16 0;
#X connect 2 0 7 0;
#X connect 6 0 11 1;
#X connect 6 1 3 1;
#X connect 6 1 4 1;
#X connect 6 1 5 1;
#X connect 6 1 12 1;
#X connect 6 1 13 1;
#X connect 7 0 6 0;
#X connect 7 0 2 0;
#X connect 8 0 3 0;
#X connect 9 0 4 0;
#X connect 10 0 5 0;
#X connect 11 0 1 0;
#X connect 14 0 13 0;
#X connect 15 0 12 0;
#X connect 16 0 11 0;
#X connect 16 1 14 0;
#X connect 16 2 15 0;
#X connect 16 3 10 0;
#X connect 16 4 9 0;
#X connect 16 5 8 0;
#X connect 16 6 7 0;
#X restore 187 615 pd add.object.id;
#X obj 119 465 t a a;
#X obj 11 538 t a a;
#X obj 11 575 list append;
#X obj 11 598 list trim;
#X msg 11 516 element \$2 \$7 \$1 \$4;
#X msg 138 526 \$1 \$2 \$3;
#X text 15 499 set row xpos width;
#N canvas 797 72 203 192 set.color 0;
#X obj 5 15 inlet;
#X obj 5 37 t a a;
#X obj 32 58 outlet;
#X obj 5 81 route element seq;
#X msg 5 103 \$5;
#X msg 54 104 \$5;
#X text 113 128 uid;
#X obj 5 128 s \$1.update.color;
#X connect 0 0 1 0;
#X connect 1 0 3 0;
#X connect 1 1 2 0;
#X connect 3 0 4 0;
#X connect 3 1 5 0;
#X connect 4 0 7 0;
#X connect 5 0 7 0;
#X restore 11 620 pd set.color;
#X msg 255 557 \$1 \$2 -1 1 1;
#X obj 138 575 list append 0;
#N canvas 733 101 444 276 insert.button.width 0;
#X obj -2128 16 inlet;
#X obj -2128 231 outlet;
#X obj -2128 96 list split 2;
#X obj -2128 126 list append;
#X obj -2128 148 list append;
#X obj -2128 38 t a a;
#X obj -2039 82 /;
#X msg -2039 60 \$7 \$6;
#X obj -2039 104 * 16;
#X text -2081 230 set num_of_elemnts width instr subinst clrsect poly
poly;
#X connect 0 0 5 0;
#X connect 2 0 3 0;
#X connect 2 1 4 1;
#X connect 3 0 4 0;
#X connect 4 0 1 0;
#X connect 5 0 2 0;
#X connect 5 1 7 0;
#X connect 6 0 8 0;
#X connect 7 0 6 0;
#X connect 8 0 3 1;
#X restore 11 34 pd insert.button.width;
#X connect 0 0 3 0;
#X connect 1 0 7 0;
#X connect 2 0 5 0;
#X connect 3 0 4 1;
#X connect 3 1 2 0;
#X connect 4 0 18 0;
#X connect 6 0 4 0;
#X connect 6 1 1 0;
#X connect 7 0 0 0;
#X connect 7 1 5 1;
#X connect 8 0 9 0;
#X connect 9 0 10 0;
#X connect 10 0 11 0;
#X connect 10 0 21 0;
#X connect 11 0 10 1;
#X connect 12 0 10 1;
#X connect 13 0 31 0;
#X connect 14 0 8 0;
#X connect 14 1 12 0;
#X connect 14 2 13 1;
#X connect 14 3 19 0;
#X connect 14 3 23 0;
#X connect 16 0 37 0;
#X connect 18 0 14 0;
#X connect 19 0 27 0;
#X connect 20 0 6 0;
#X connect 20 1 18 1;
#X connect 21 0 13 0;
#X connect 21 1 25 0;
#X connect 22 0 36 0;
#X connect 23 0 25 1;
#X connect 24 0 22 1;
#X connect 25 0 24 0;
#X connect 26 0 29 1;
#X connect 27 0 29 0;
#X connect 27 1 35 0;
#X connect 28 0 29 0;
#X connect 28 1 32 0;
#X connect 29 0 30 0;
#X connect 30 0 34 0;
#X connect 31 0 28 0;
#X connect 32 0 22 0;
#X connect 34 0 17 0;
#X connect 35 0 26 0;
#X connect 36 0 26 0;
#X connect 37 0 20 0;
#X restore 15 135 pd meta.constructor;
#N canvas 264 399 387 337 element.creator 0;
#N canvas 520 114 325 437 x-pos-by-elemnt-id 0;
#X msg -240 77 \$4;
#X obj -271 28 inlet;
#X obj -271 394 outlet;
#X obj -240 101 * 8;
#X obj -271 203 list append;
#X msg -211 78 \$5;
#X obj -240 123 + 74;
#X obj -240 145 t a a;
#X obj -271 369 pack f f f f f f f;
#X obj -271 225 unpack f f f f f f f;
#X text -115 110 adjust size to fit;
#X text -115 122 with non-integer width;
#X obj -271 54 t a a a a a;
#X msg -122 163 \$4;
#X msg -80 183 \$5;
#X obj -122 139 t a a;
#X obj -122 233 *;
#X obj -122 185 t a a;
#X obj -122 209 + 1;
#X obj -95 233 *;
#X obj -122 286 -;
#X obj -122 257 int;
#X obj -95 258 int;
#X connect 0 0 3 0;
#X connect 1 0 12 0;
#X connect 3 0 6 0;
#X connect 4 0 9 0;
#X connect 5 0 3 1;
#X connect 6 0 7 0;
#X connect 7 0 4 1;
#X connect 8 0 2 0;
#X connect 9 0 8 0;
#X connect 9 1 8 1;
#X connect 9 2 8 2;
#X connect 9 3 8 3;
#X connect 9 5 8 5;
#X connect 9 6 8 6;
#X connect 12 0 4 0;
#X connect 12 2 0 0;
#X connect 12 3 5 0;
#X connect 12 4 15 0;
#X connect 13 0 17 0;
#X connect 14 0 19 1;
#X connect 14 0 16 1;
#X connect 15 0 13 0;
#X connect 15 1 14 0;
#X connect 16 0 21 0;
#X connect 17 0 18 0;
#X connect 17 1 19 0;
#X connect 18 0 16 0;
#X connect 19 0 22 0;
#X connect 20 0 8 4;
#X connect 21 0 20 0;
#X connect 22 0 20 1;
#X restore -268 124 pd x-pos-by-elemnt-id;
#X obj -268 47 list prepend \$1;
#N canvas 574 433 172 230 y-pos-by-seq-id 0;
#X obj -271 28 inlet;
#X obj -271 182 outlet;
#X obj -271 160 list append;
#X msg -208 88 \$3;
#X obj -271 54 t a a;
#X obj -208 133 + 6;
#X obj -208 111 * 21;
#X connect 0 0 4 0;
#X connect 2 0 1 0;
#X connect 3 0 6 0;
#X connect 4 0 2 0;
#X connect 4 1 3 0;
#X connect 5 0 2 1;
#X connect 6 0 5 0;
#X restore -268 148 pd y-pos-by-seq-id;
#X obj -268 17 inlet;
#X obj -268 289 send;
#X msg -241 260 symbol pd-\$1-set-\$2;
#X text -261 108 patch-id set-id seq-id element-id width uid;
#X obj -268 74 t a a;
#X msg -268 207 obj \$7 \$8 vsl \$5 16 \$6 \$6 0 0 \$1.global.s \$1.\$2.\$3.\$4.r
empty 0 -9 0 10 -228856 -228856 -228856 0 1;
#X connect 0 0 2 0;
#X connect 1 0 7 0;
#X connect 2 0 8 0;
#X connect 3 0 1 0;
#X connect 5 0 4 1;
#X connect 7 0 0 0;
#X connect 7 1 5 0;
#X connect 8 0 4 0;
#X restore 15 211 pd element.creator;
#N canvas 504 421 222 200 seq.creator 0;
#X obj 19 28 inlet;
#N canvas 305 196 434 372 ypos.for.each.element 0;
#X obj 7 110 t a a a;
#X obj 7 198 t a a a;
#X obj 7 155 pack f f f;
#X obj 35 133 - 1;
#X obj 7 -3 inlet;
#X obj 7 176 list append;
#X obj 7 328 outlet;
#X obj 7 20 t a a;
#X obj 7 87 + 6;
#X msg 7 42 \$3;
#X obj 7 133 + 9;
#X msg 46 292 obj 3 \$3 vsl 70 16 \$9 \$9 0 0 \$4.global.s nuet empty
3 7 0 10 -261234 -261234 -66577 0 1;
#X msg 7 223 obj 4 \$1 cnv 9 68 9 empty \$4.\$5.\$6.-1.r \$8 2 5 1
9 -233017 -66577 0;
#X msg 26 257 obj 4 \$2 cnv 9 68 9 empty \$4.\$5.\$6.-1.r \$7 2 5 1
9 -233017 -66577 0;
#X obj 7 65 * 21;
#X connect 0 0 10 0;
#X connect 0 1 3 0;
#X connect 0 2 2 2;
#X connect 1 0 12 0;
#X connect 1 1 13 0;
#X connect 1 2 11 0;
#X connect 2 0 5 0;
#X connect 3 0 2 1;
#X connect 4 0 7 0;
#X connect 5 0 1 0;
#X connect 7 0 9 0;
#X connect 7 1 5 1;
#X connect 8 0 0 0;
#X connect 9 0 14 0;
#X connect 10 0 2 0;
#X connect 11 0 6 0;
#X connect 12 0 6 0;
#X connect 13 0 6 0;
#X connect 14 0 8 0;
#X restore 19 120 pd ypos.for.each.element;
#X obj 19 72 t a a;
#X obj 19 142 s;
#X obj 19 49 list prepend \$1;
#X msg 46 94 symbol pd-\$1-set-\$2;
#X connect 0 0 4 0;
#X connect 1 0 3 0;
#X connect 2 0 1 0;
#X connect 2 1 5 0;
#X connect 4 0 2 0;
#X connect 5 0 3 1;
#X restore 64 190 pd seq.creator;
#X msg 288 351 clear;
#X obj 288 373 s pd-\$1-set-1;
#X obj 291 252 value \$1.uniq.id;
#X obj 291 207 r \$0.reset;
#X msg 291 229 0;
#N canvas 100 160 154 181 set.guis 0;
#N canvas 2 751 450 300 \$1-set-2 0;
#X restore 9 33 pd \$1-set-2;
#N canvas 2 751 450 300 \$1-set-3 0;
#X restore 9 56 pd \$1-set-3;
#N canvas 2 751 450 300 \$1-set-4 0;
#X restore 9 78 pd \$1-set-4;
#N canvas 83 439 751 471 \$1-set-1 0;
#X obj 3 6 vsl 70 16 0 0 0 0 1.global.s nuet empty 3 7 0 10 -261234
-261234 -66577 0 1;
#X obj 4 5 cnv 9 68 9 empty 1.1.0.-1.r 5-drum-delta 2 5 1 9 -166116
-1 0;
#X obj 4 15 cnv 9 68 9 empty 1.1.0.-1.r snare 2 5 1 9 -166116 -1 0
;
#X obj 74 6 vsl 21 16 1 1 0 0 1.global.s 1.1.0.0.r empty 0 -9 0 10
-253822 -253822 -1 0 1;
#X obj 95 6 vsl 21 16 2 2 0 0 1.global.s 1.1.0.1.r empty 0 -9 0 10
-253822 -253822 -1 0 1;
#X obj 116 6 vsl 22 16 3 3 0 0 1.global.s 1.1.0.2.r empty 0 -9 0 10
-253822 -253822 -1 0 1;
#X obj 138 6 vsl 21 16 4 4 0 0 1.global.s 1.1.0.3.r empty 0 -9 0 10
-228856 -228856 -1 0 1;
#X obj 159 6 vsl 21 16 5 5 0 0 1.global.s 1.1.0.4.r empty 0 -9 0 10
-228856 -228856 -1 0 1;
#X obj 180 6 vsl 22 16 6 6 0 0 1.global.s 1.1.0.5.r empty 0 -9 0 10
-228856 -228856 -1 0 1;
#X obj 202 6 vsl 21 16 7 7 0 0 1.global.s 1.1.0.6.r empty 0 -9 0 10
-253822 -253822 -1 0 1;
#X obj 223 6 vsl 21 16 8 8 0 0 1.global.s 1.1.0.7.r empty 0 -9 0 10
-253822 -253822 -1 0 1;
#X obj 244 6 vsl 22 16 9 9 0 0 1.global.s 1.1.0.8.r empty 0 -9 0 10
-253822 -253822 -1 0 1;
#X obj 266 6 vsl 21 16 10 10 0 0 1.global.s 1.1.0.9.r empty 0 -9 0
10 -228856 -228856 -1 0 1;
#X obj 287 6 vsl 21 16 11 11 0 0 1.global.s 1.1.0.10.r empty 0 -9 0
10 -228856 -228856 -1 0 1;
#X obj 308 6 vsl 22 16 12 12 0 0 1.global.s 1.1.0.11.r empty 0 -9 0
10 -228856 -228856 -1 0 1;
#X obj 330 6 vsl 21 16 13 13 0 0 1.global.s 1.1.0.12.r empty 0 -9 0
10 -253822 -253822 -1 0 1;
#X obj 351 6 vsl 21 16 14 14 0 0 1.global.s 1.1.0.13.r empty 0 -9 0
10 -253822 -253822 -1 0 1;
#X obj 372 6 vsl 22 16 15 15 0 0 1.global.s 1.1.0.14.r empty 0 -9 0
10 -253822 -253822 -1 0 1;
#X obj 394 6 vsl 21 16 16 16 0 0 1.global.s 1.1.0.15.r empty 0 -9 0
10 -228856 -228856 -1 0 1;
#X obj 415 6 vsl 21 16 17 17 0 0 1.global.s 1.1.0.16.r empty 0 -9 0
10 -228856 -228856 -1 0 1;
#X obj 436 6 vsl 22 16 18 18 0 0 1.global.s 1.1.0.17.r empty 0 -9 0
10 -228856 -228856 -1 0 1;
#X obj 458 6 vsl 21 16 19 19 0 0 1.global.s 1.1.0.18.r empty 0 -9 0
10 -253822 -253822 -1 0 1;
#X obj 479 6 vsl 21 16 20 20 0 0 1.global.s 1.1.0.19.r empty 0 -9 0
10 -253822 -253822 -1 0 1;
#X obj 500 6 vsl 22 16 21 21 0 0 1.global.s 1.1.0.20.r empty 0 -9 0
10 -253822 -253822 -1 0 1;
#X obj 522 6 vsl 21 16 22 22 0 0 1.global.s 1.1.0.21.r empty 0 -9 0
10 -228856 -228856 -1 0 1;
#X obj 543 6 vsl 21 16 23 23 0 0 1.global.s 1.1.0.22.r empty 0 -9 0
10 -228856 -228856 -1 0 1;
#X obj 564 6 vsl 22 16 24 24 0 0 1.global.s 1.1.0.23.r empty 0 -9 0
10 -228856 -228856 -1 0 1;
#X obj 3 27 vsl 70 16 25 25 0 0 1.global.s nuet empty 3 7 0 10 -261234
-261234 -66577 0 1;
#X obj 4 26 cnv 9 68 9 empty 1.1.1.-1.r 5-drum-delta 2 5 1 9 -166116
-1 0;
#X obj 4 36 cnv 9 68 9 empty 1.1.1.-1.r snare 2 5 1 9 -166116 -1 0
;
#X obj 74 27 vsl 16 16 26 26 0 0 1.global.s 1.1.1.0.r empty 0 -9 0
10 -253822 -253822 -1 0 1;
#X obj 90 27 vsl 16 16 27 27 0 0 1.global.s 1.1.1.1.r empty 0 -9 0
10 -253822 -253822 -1 0 1;
#X obj 106 27 vsl 16 16 28 28 0 0 1.global.s 1.1.1.2.r empty 0 -9 0
10 -253822 -253822 -1 0 1;
#X obj 122 27 vsl 16 16 29 29 0 0 1.global.s 1.1.1.3.r empty 0 -9 0
10 -253822 -253822 -1 0 1;
#X obj 138 27 vsl 16 16 30 30 0 0 1.global.s 1.1.1.4.r empty 0 -9 0
10 -228856 -228856 -1 0 1;
#X obj 154 27 vsl 16 16 31 31 0 0 1.global.s 1.1.1.5.r empty 0 -9 0
10 -228856 -228856 -1 0 1;
#X obj 170 27 vsl 16 16 32 32 0 0 1.global.s 1.1.1.6.r empty 0 -9 0
10 -228856 -228856 -1 0 1;
#X obj 186 27 vsl 16 16 33 33 0 0 1.global.s 1.1.1.7.r empty 0 -9 0
10 -228856 -228856 -1 0 1;
#X obj 202 27 vsl 16 16 34 34 0 0 1.global.s 1.1.1.8.r empty 0 -9 0
10 -253822 -253822 -1 0 1;
#X obj 218 27 vsl 16 16 35 35 0 0 1.global.s 1.1.1.9.r empty 0 -9 0
10 -253822 -253822 -1 0 1;
#X obj 234 27 vsl 16 16 36 36 0 0 1.global.s 1.1.1.10.r empty 0 -9
0 10 -253822 -253822 -1 0 1;
#X obj 250 27 vsl 16 16 37 37 0 0 1.global.s 1.1.1.11.r empty 0 -9
0 10 -253822 -253822 -1 0 1;
#X obj 266 27 vsl 16 16 38 38 0 0 1.global.s 1.1.1.12.r empty 0 -9
0 10 -228856 -228856 -1 0 1;
#X obj 282 27 vsl 16 16 39 39 0 0 1.global.s 1.1.1.13.r empty 0 -9
0 10 -228856 -228856 -1 0 1;
#X obj 298 27 vsl 16 16 40 40 0 0 1.global.s 1.1.1.14.r empty 0 -9
0 10 -228856 -228856 -1 0 1;
#X obj 314 27 vsl 16 16 41 41 0 0 1.global.s 1.1.1.15.r empty 0 -9
0 10 -228856 -228856 -1 0 1;
#X obj 330 27 vsl 16 16 42 42 0 0 1.global.s 1.1.1.16.r empty 0 -9
0 10 -253822 -253822 -1 0 1;
#X obj 346 27 vsl 16 16 43 43 0 0 1.global.s 1.1.1.17.r empty 0 -9
0 10 -253822 -253822 -1 0 1;
#X obj 362 27 vsl 16 16 44 44 0 0 1.global.s 1.1.1.18.r empty 0 -9
0 10 -253822 -253822 -1 0 1;
#X obj 378 27 vsl 16 16 45 45 0 0 1.global.s 1.1.1.19.r empty 0 -9
0 10 -253822 -253822 -1 0 1;
#X obj 394 27 vsl 16 16 46 46 0 0 1.global.s 1.1.1.20.r empty 0 -9
0 10 -228856 -228856 -1 0 1;
#X obj 410 27 vsl 16 16 47 47 0 0 1.global.s 1.1.1.21.r empty 0 -9
0 10 -228856 -228856 -1 0 1;
#X obj 426 27 vsl 16 16 48 48 0 0 1.global.s 1.1.1.22.r empty 0 -9
0 10 -228856 -228856 -1 0 1;
#X obj 442 27 vsl 16 16 49 49 0 0 1.global.s 1.1.1.23.r empty 0 -9
0 10 -228856 -228856 -1 0 1;
#X obj 458 27 vsl 16 16 50 50 0 0 1.global.s 1.1.1.24.r empty 0 -9
0 10 -253822 -253822 -1 0 1;
#X obj 474 27 vsl 16 16 51 51 0 0 1.global.s 1.1.1.25.r empty 0 -9
0 10 -253822 -253822 -1 0 1;
#X obj 490 27 vsl 16 16 52 52 0 0 1.global.s 1.1.1.26.r empty 0 -9
0 10 -253822 -253822 -1 0 1;
#X obj 506 27 vsl 16 16 53 53 0 0 1.global.s 1.1.1.27.r empty 0 -9
0 10 -253822 -253822 -1 0 1;
#X obj 522 27 vsl 16 16 54 54 0 0 1.global.s 1.1.1.28.r empty 0 -9
0 10 -228856 -228856 -1 0 1;
#X obj 538 27 vsl 16 16 55 55 0 0 1.global.s 1.1.1.29.r empty 0 -9
0 10 -228856 -228856 -1 0 1;
#X obj 3 48 vsl 70 16 56 56 0 0 1.global.s nuet empty 3 7 0 10 -261234
-261234 -66577 0 1;
#X obj 4 47 cnv 9 68 9 empty 1.1.2.-1.r 5-drum-delta 2 5 1 9 -166116
-1 0;
#X obj 4 57 cnv 9 68 9 empty 1.1.2.-1.r snare 2 5 1 9 -166116 -1 0
;
#X obj 74 48 vsl 16 16 57 57 0 0 1.global.s 1.1.2.0.r empty 0 -9 0
10 -253822 -253822 -1 0 1;
#X obj 90 48 vsl 16 16 58 58 0 0 1.global.s 1.1.2.1.r empty 0 -9 0
10 -253822 -253822 -1 0 1;
#X obj 106 48 vsl 16 16 59 59 0 0 1.global.s 1.1.2.2.r empty 0 -9 0
10 -253822 -253822 -1 0 1;
#X obj 122 48 vsl 16 16 60 60 0 0 1.global.s 1.1.2.3.r empty 0 -9 0
10 -253822 -253822 -1 0 1;
#X obj 138 48 vsl 16 16 61 61 0 0 1.global.s 1.1.2.4.r empty 0 -9 0
10 -228856 -228856 -1 0 1;
#X obj 154 48 vsl 16 16 62 62 0 0 1.global.s 1.1.2.5.r empty 0 -9 0
10 -228856 -228856 -1 0 1;
#X obj 170 48 vsl 16 16 63 63 0 0 1.global.s 1.1.2.6.r empty 0 -9 0
10 -228856 -228856 -1 0 1;
#X obj 186 48 vsl 16 16 64 64 0 0 1.global.s 1.1.2.7.r empty 0 -9 0
10 -228856 -228856 -1 0 1;
#X obj 202 48 vsl 16 16 65 65 0 0 1.global.s 1.1.2.8.r empty 0 -9 0
10 -253822 -253822 -1 0 1;
#X obj 218 48 vsl 16 16 66 66 0 0 1.global.s 1.1.2.9.r empty 0 -9 0
10 -253822 -253822 -1 0 1;
#X obj 234 48 vsl 16 16 67 67 0 0 1.global.s 1.1.2.10.r empty 0 -9
0 10 -253822 -253822 -1 0 1;
#X obj 250 48 vsl 16 16 68 68 0 0 1.global.s 1.1.2.11.r empty 0 -9
0 10 -253822 -253822 -1 0 1;
#X obj 266 48 vsl 16 16 69 69 0 0 1.global.s 1.1.2.12.r empty 0 -9
0 10 -228856 -228856 -1 0 1;
#X obj 282 48 vsl 16 16 70 70 0 0 1.global.s 1.1.2.13.r empty 0 -9
0 10 -228856 -228856 -1 0 1;
#X obj 298 48 vsl 16 16 71 71 0 0 1.global.s 1.1.2.14.r empty 0 -9
0 10 -228856 -228856 -1 0 1;
#X obj 314 48 vsl 16 16 72 72 0 0 1.global.s 1.1.2.15.r empty 0 -9
0 10 -228856 -228856 -1 0 1;
#X obj 330 48 vsl 16 16 73 73 0 0 1.global.s 1.1.2.16.r empty 0 -9
0 10 -253822 -253822 -1 0 1;
#X obj 346 48 vsl 16 16 74 74 0 0 1.global.s 1.1.2.17.r empty 0 -9
0 10 -253822 -253822 -1 0 1;
#X obj 362 48 vsl 16 16 75 75 0 0 1.global.s 1.1.2.18.r empty 0 -9
0 10 -253822 -253822 -1 0 1;
#X obj 378 48 vsl 16 16 76 76 0 0 1.global.s 1.1.2.19.r empty 0 -9
0 10 -253822 -253822 -1 0 1;
#X obj 394 48 vsl 16 16 77 77 0 0 1.global.s 1.1.2.20.r empty 0 -9
0 10 -228856 -228856 -1 0 1;
#X obj 410 48 vsl 16 16 78 78 0 0 1.global.s 1.1.2.21.r empty 0 -9
0 10 -228856 -228856 -1 0 1;
#X obj 426 48 vsl 16 16 79 79 0 0 1.global.s 1.1.2.22.r empty 0 -9
0 10 -228856 -228856 -1 0 1;
#X obj 442 48 vsl 16 16 80 80 0 0 1.global.s 1.1.2.23.r empty 0 -9
0 10 -228856 -228856 -1 0 1;
#X obj 458 48 vsl 16 16 81 81 0 0 1.global.s 1.1.2.24.r empty 0 -9
0 10 -253822 -253822 -1 0 1;
#X obj 474 48 vsl 16 16 82 82 0 0 1.global.s 1.1.2.25.r empty 0 -9
0 10 -253822 -253822 -1 0 1;
#X obj 490 48 vsl 16 16 83 83 0 0 1.global.s 1.1.2.26.r empty 0 -9
0 10 -253822 -253822 -1 0 1;
#X obj 506 48 vsl 16 16 84 84 0 0 1.global.s 1.1.2.27.r empty 0 -9
0 10 -253822 -253822 -1 0 1;
#X obj 522 48 vsl 16 16 85 85 0 0 1.global.s 1.1.2.28.r empty 0 -9
0 10 -228856 -228856 -1 0 1;
#X obj 538 48 vsl 16 16 86 86 0 0 1.global.s 1.1.2.29.r empty 0 -9
0 10 -228856 -228856 -1 0 1;
#X obj 554 48 vsl 16 16 87 87 0 0 1.global.s 1.1.2.30.r empty 0 -9
0 10 -228856 -228856 -1 0 1;
#X obj 570 48 vsl 16 16 88 88 0 0 1.global.s 1.1.2.31.r empty 0 -9
0 10 -228856 -228856 -1 0 1;
#X restore 9 11 pd \$1-set-1;
#X restore 313 40 pd set.guis;
#N canvas 605 321 221 255 button.toggler 0;
#X obj -70 19 r \$1.global.s;
#X obj -17 135 == 0;
#X obj 10 180 tabwrite \$1.value/id;
#X obj -51 113 list split 3;
#X obj -17 158 t a a;
#X obj -51 203 list append;
#X obj -51 226 outlet;
#X obj -51 91 qseq3-id2path \$1;
#X obj -70 41 t a a a;
#X obj -70 67 s \$1.update.color;
#X connect 0 0 8 0;
#X connect 1 0 4 0;
#X connect 3 0 5 0;
#X connect 3 1 1 0;
#X connect 4 0 5 1;
#X connect 4 1 2 0;
#X connect 5 0 6 0;
#X connect 7 0 3 0;
#X connect 8 0 9 0;
#X connect 8 1 7 0;
#X connect 8 2 2 1;
#X restore 295 95 pd button.toggler;
#N canvas 750 166 231 196 resolve.symbolic 0;
#X obj 8 8 inlet;
#X msg 8 30 \$3 \$2 \$1 \$4;
#X obj 8 52 route -1;
#X obj 53 75 route -1;
#X msg 8 140 seq \$2 \$1 \$3;
#X msg 53 119 set \$1 \$2;
#X msg 98 97 element \$3 \$2 \$1 \$4;
#X obj 8 162 outlet;
#X connect 0 0 1 0;
#X connect 1 0 2 0;
#X connect 2 0 4 0;
#X connect 2 1 3 0;
#X connect 3 0 5 0;
#X connect 3 1 6 0;
#X connect 4 0 7 0;
#X connect 5 0 7 0;
#X connect 6 0 7 0;
#X restore 295 117 pd resolve.symbolic;
#X text 174 82 clrsect poly poly;
#X obj 451 310 table \$1.color/id 10000;
#X msg 450 126 \; \$1.set/id const 0 \; \$1.seq/id const 0 \; \$1.element/id
const 0 \; \$1.value/id const 0 \; \$1.color/id const 0 \; \$1.nos/set
const 0 \;;
#X obj 15 166 route element seq;
#N canvas 741 399 300 411 update.color 0;
#X obj 24 299 netpd-rgb2iem;
#X obj -10 122 list split 3;
#X msg 49 278 220 220 220;
#X obj -10 322 list append;
#X obj -10 349 list prepend \$1;
#X msg -10 371 \; \$1.\$2.\$3.\$4.r color \$5 \$5 -1;
#X msg 24 257 244 244 244;
#X obj 24 145 route 0 1;
#X obj 24 235 route 0 1;
#X obj -10 8 r \$1.update.color;
#X text 97 8 uid;
#X obj -10 76 qseq3-id2path \$1;
#X obj -10 30 t a a a;
#X obj -10 99 list append;
#X obj 9 53 tabread \$1.color/id;
#X obj 49 165 route 0 1;
#X msg 49 189 188 168 168;
#X msg 74 210 160 140 140;
#X connect 0 0 3 1;
#X connect 1 0 3 0;
#X connect 1 1 7 0;
#X connect 2 0 0 0;
#X connect 3 0 4 0;
#X connect 4 0 5 0;
#X connect 6 0 0 0;
#X connect 7 0 8 0;
#X connect 7 1 15 0;
#X connect 8 0 6 0;
#X connect 8 1 2 0;
#X connect 9 0 12 0;
#X connect 11 0 13 0;
#X connect 12 0 11 0;
#X connect 12 1 14 0;
#X connect 13 0 1 0;
#X connect 14 0 13 1;
#X connect 15 0 16 0;
#X connect 15 1 17 0;
#X connect 16 0 0 0;
#X connect 17 0 0 0;
#X restore 298 168 pd update.color;
#X obj 288 326 r \$0.reset;
#X floatatom 16 78 5 0 0 0 - - -;
#X msg 16 98 1 32 5-drum-delta snare 4 4 4;
#X connect 6 0 7 0;
#X connect 8 0 10 0;
#X connect 9 0 37 0;
#X connect 10 0 9 0;
#X connect 12 0 13 0;
#X connect 13 0 20 0;
#X connect 14 0 17 0;
#X connect 15 0 18 0;
#X connect 16 0 19 0;
#X connect 17 0 20 0;
#X connect 18 0 20 0;
#X connect 19 0 20 0;
#X connect 20 0 21 0;
#X connect 24 0 38 0;
#X connect 27 0 28 0;
#X connect 30 0 31 0;
#X connect 31 0 29 0;
#X connect 33 0 34 0;
#X connect 38 0 25 0;
#X connect 38 1 26 0;
#X connect 40 0 27 0;
#X connect 41 0 42 0;
#X connect 42 0 24 0;
