#N canvas 396 79 634 539 10;
#N canvas 162 466 664 317 \$1-qseq3 0;
#X restore 12 16 pd \$1-qseq3;
#N canvas 647 382 450 300 NETPD 0;
#X msg 15 15 version 0 0 0;
#X msg 14 38 singleton;
#N canvas 530 44 450 300 abslist 0;
#X msg 10 17 qseq3-id2path;
#X restore 21 88 pd abslist;
#X restore 11 42 pd NETPD;
#X obj 451 227 table \$1.set/id 10000;
#X obj 451 248 table \$1.seq/id 10000;
#X obj 451 269 table \$1.element/id 10000;
#X obj 451 290 table \$1.value/id 10000;
#X obj 449 14 bng 15 250 50 0 empty empty empty 17 7 0 10 -262144 -1
-1;
#X obj 449 34 s \$0.reset;
#X obj 450 60 r \$0.reset;
#X obj 450 103 \$1;
#X msg 450 81 bang;
#X obj 295 139 print -n;
#X obj 428 400 tgl 15 0 empty empty empty 17 7 0 10 -262144 -1 -1 1
1;
#X msg 428 432 1 \$1;
#X obj 473 399 tgl 15 0 empty empty empty 17 7 0 10 -262144 -1 -1 0
1;
#X obj 515 396 tgl 15 0 empty empty empty 17 7 0 10 -262144 -1 -1 0
1;
#X obj 553 396 tgl 15 0 empty empty empty 17 7 0 10 -262144 -1 -1 0
1;
#X msg 474 431 2 \$1;
#X msg 515 428 3 \$1;
#X msg 553 428 4 \$1;
#X obj 428 470 list prepend \$1;
#X msg 428 492 \; pd-\$1-set-\$2 vis \$3;
#X text 14 66 set num_of_elemnts width instr subinst;
#X obj 451 330 table \$1.nos/set 1000;
#N canvas 244 173 267 562 meta.constructor 0;
#X obj 38 117 tabread \$1.nos/set;
#X msg 38 74 \$1;
#X obj 65 161 + 1;
#X obj 38 139 t a a;
#X obj 11 210 list append;
#X obj 65 184 tabwrite \$1.nos/set;
#X obj 11 53 t a a;
#X obj 38 96 t a a;
#X msg 11 277 \$2;
#X obj 11 301 until;
#X obj 11 323 f;
#X obj 42 323 + 1;
#X msg 40 279 0;
#X obj 11 419 list append;
#X obj 11 255 t a b a a;
#X text 121 402 set row inst subinst;
#X obj 11 11 inlet;
#X obj 11 509 outlet;
#X obj 11 232 list append ________;
#X msg 118 420 seq \$1 \$6 \$4 \$5;
#X obj 11 32 list split 5;
#X text 64 459 set row xpos width clrmod;
#X obj 11 347 t a a;
#X obj 11 441 list append;
#X msg 65 347 \$7;
#X obj 38 394 mod 2;
#X obj 38 371 div 4;
#X msg 11 476 element \$2 \$7 \$1 \$4 \$11;
#X connect 0 0 3 0;
#X connect 1 0 7 0;
#X connect 2 0 5 0;
#X connect 3 0 4 1;
#X connect 3 1 2 0;
#X connect 4 0 18 0;
#X connect 6 0 4 0;
#X connect 6 1 1 0;
#X connect 7 0 0 0;
#X connect 7 1 5 1;
#X connect 8 0 9 0;
#X connect 9 0 10 0;
#X connect 10 0 11 0;
#X connect 10 0 22 0;
#X connect 11 0 10 1;
#X connect 12 0 10 1;
#X connect 13 0 23 0;
#X connect 14 0 8 0;
#X connect 14 1 12 0;
#X connect 14 2 13 1;
#X connect 14 3 19 0;
#X connect 14 3 24 0;
#X connect 16 0 20 0;
#X connect 18 0 14 0;
#X connect 19 0 17 0;
#X connect 20 0 6 0;
#X connect 20 1 18 1;
#X connect 22 0 13 0;
#X connect 22 1 26 0;
#X connect 23 0 27 0;
#X connect 24 0 26 1;
#X connect 25 0 23 1;
#X connect 26 0 25 0;
#X connect 27 0 17 0;
#X restore 15 135 pd meta.constructor;
#N canvas 264 399 387 337 element.creator 0;
#N canvas 574 293 172 230 x-pos-by-elemnt-id 0;
#X msg -208 88 \$4;
#X obj -271 28 inlet;
#X obj -271 182 outlet;
#X obj -208 111 * 8;
#X obj -271 160 list append;
#X msg -177 88 \$5;
#X obj -271 54 t a a a;
#X obj -208 133 + 74;
#X connect 0 0 3 0;
#X connect 1 0 6 0;
#X connect 3 0 7 0;
#X connect 4 0 2 0;
#X connect 5 0 3 1;
#X connect 6 0 4 0;
#X connect 6 1 0 0;
#X connect 6 2 5 0;
#X connect 7 0 4 1;
#X restore -268 141 pd x-pos-by-elemnt-id;
#X obj -268 92 list prepend \$1;
#X text -165 117 patch-id set-id seq-id element-id width;
#N canvas 574 377 172 230 y-pos-by-seq-id 0;
#X obj -271 28 inlet;
#X obj -271 182 outlet;
#X obj -271 160 list append;
#X msg -208 88 \$3;
#X obj -271 54 t a a;
#X obj -208 111 * 23;
#X obj -208 133 + 6;
#X connect 0 0 4 0;
#X connect 2 0 1 0;
#X connect 3 0 5 0;
#X connect 4 0 2 0;
#X connect 4 1 3 0;
#X connect 5 0 6 0;
#X connect 6 0 2 1;
#X restore -268 165 pd y-pos-by-seq-id;
#X obj -268 17 inlet;
#N canvas 454 326 450 300 add.object.id 0;
#X obj 15 15 inlet;
#X obj 15 271 outlet;
#X obj 15 239 list append;
#X obj 184 60 + 1;
#X obj 62 126 tabwrite \$1.set/id;
#X obj 46 174 tabwrite \$1.seq/id;
#X obj 30 217 tabwrite \$1.element/id;
#X obj 78 84 t a a;
#X obj 15 37 t a a a a b;
#X msg 62 105 \$2;
#X msg 30 196 \$4;
#X msg 46 150 \$3;
#X obj 78 61 value \$1.uniq.id;
#X obj 286 102 inlet;
#X obj 241 137 pack f f;
#X obj 241 159 s \$1.color/id;
#X connect 0 0 8 0;
#X connect 2 0 1 0;
#X connect 3 0 12 0;
#X connect 7 0 2 1;
#X connect 7 1 4 1;
#X connect 7 1 5 1;
#X connect 7 1 6 1;
#X connect 7 1 14 0;
#X connect 8 0 2 0;
#X connect 8 1 10 0;
#X connect 8 2 11 0;
#X connect 8 3 9 0;
#X connect 8 4 12 0;
#X connect 9 0 4 0;
#X connect 10 0 6 0;
#X connect 11 0 5 0;
#X connect 12 0 7 0;
#X connect 12 0 3 0;
#X connect 13 0 14 1;
#X connect 14 0 15 0;
#X restore -268 186 pd add.object.id;
#X msg -268 207 obj \$6 \$7 vsl \$5 18 \$8 \$8 0 0 \$1.global.s \$1.\$2.\$3.\$4.r
empty 0 -9 0 10 -228856 -228856 -228856 0 1;
#X obj -268 289 send;
#X obj -231 241 list prepend \$1;
#X msg -231 263 symbol pd-\$1-set-\$2;
#X msg -230 69 \$1;
#X msg -268 118 \$1 \$2 \$3 \$4 \$5;
#X obj -268 46 t a a a;
#X msg -121 139 \$5;
#X connect 0 0 3 0;
#X connect 1 0 11 0;
#X connect 3 0 5 0;
#X connect 4 0 12 0;
#X connect 5 0 6 0;
#X connect 6 0 7 0;
#X connect 8 0 9 0;
#X connect 9 0 7 1;
#X connect 10 0 8 0;
#X connect 11 0 0 0;
#X connect 12 0 1 0;
#X connect 12 1 10 0;
#X connect 12 2 13 0;
#X connect 13 0 5 1;
#X restore 15 216 pd element.creator;
#N canvas 504 281 222 200 seq.creator 0;
#X obj 19 28 inlet;
#N canvas 305 196 463 448 ypos.for.each.element 0;
#X obj 7 110 t a a a;
#X obj 7 197 t a a a;
#X obj 7 133 + 10;
#X obj 7 155 pack f f f;
#X obj 35 133 - 1;
#X obj 7 -3 inlet;
#X obj 7 176 list append;
#X obj 7 327 outlet;
#X obj 7 65 * 23;
#X obj 7 20 t a a;
#X msg 7 42 \$2;
#X msg 46 291 obj 3 \$3 vsl 70 18 \$9 \$9 0 0 \$8.global.s nuet empty
3 7 0 10 -261234 -261234 -66577 0 1;
#X msg 7 222 obj 4 \$1 cnv 10 68 10 empty \$8.\$4.\$5.-1.r \$7 2 6
1 9 -233017 -66577 0;
#X msg 26 256 obj 4 \$2 cnv 10 68 10 empty \$8.\$4.\$5.-1.r \$6 2 6
1 9 -233017 -66577 0;
#X obj 7 87 + 6;
#X connect 0 0 2 0;
#X connect 0 1 4 0;
#X connect 0 2 3 2;
#X connect 1 0 12 0;
#X connect 1 1 13 0;
#X connect 1 2 11 0;
#X connect 2 0 3 0;
#X connect 3 0 6 0;
#X connect 4 0 3 1;
#X connect 5 0 9 0;
#X connect 6 0 1 0;
#X connect 8 0 14 0;
#X connect 9 0 10 0;
#X connect 9 1 6 1;
#X connect 10 0 8 0;
#X connect 11 0 7 0;
#X connect 12 0 7 0;
#X connect 13 0 7 0;
#X connect 14 0 0 0;
#X restore 19 135 pd ypos.for.each.element;
#X obj 19 72 t a a;
#X obj 19 157 s;
#X obj 19 49 list append \$1;
#N canvas 836 259 450 300 add.object.id 0;
#X obj 15 15 inlet;
#X obj 15 271 outlet;
#X obj 15 239 list append;
#X obj 184 60 + 1;
#X obj 62 126 tabwrite \$1.set/id;
#X obj 46 174 tabwrite \$1.seq/id;
#X obj 30 217 tabwrite \$1.element/id;
#X obj 78 84 t a a;
#X obj 15 37 t a a a a b;
#X obj 78 61 value \$1.uniq.id;
#X msg 62 105 \$1;
#X msg 46 150 \$2;
#X msg 30 196 -1;
#X connect 0 0 8 0;
#X connect 2 0 1 0;
#X connect 3 0 9 0;
#X connect 7 0 2 1;
#X connect 7 1 4 1;
#X connect 7 1 5 1;
#X connect 7 1 6 1;
#X connect 8 0 2 0;
#X connect 8 1 12 0;
#X connect 8 2 11 0;
#X connect 8 3 10 0;
#X connect 8 4 9 0;
#X connect 9 0 7 0;
#X connect 9 0 3 0;
#X connect 10 0 4 0;
#X connect 11 0 5 0;
#X connect 12 0 6 0;
#X restore 19 115 pd add.object.id;
#X msg 46 94 symbol pd-\$5-set-\$1;
#X connect 0 0 4 0;
#X connect 1 0 3 0;
#X connect 2 0 5 0;
#X connect 2 1 6 0;
#X connect 4 0 2 0;
#X connect 5 0 1 0;
#X connect 6 0 3 1;
#X restore 64 185 pd seq.creator;
#X obj 15 157 route element seq;
#X msg 288 351 clear;
#X obj 288 373 s pd-\$1-set-1;
#X obj 291 252 value \$1.uniq.id;
#X obj 291 207 r \$0.reset;
#X msg 291 229 0;
#N canvas 100 160 154 181 set.guis 0;
#N canvas 2 751 450 300 \$1-set-2 0;
#X restore 9 33 pd \$1-set-2;
#N canvas 2 751 450 300 \$1-set-3 0;
#X restore 9 56 pd \$1-set-3;
#N canvas 2 751 450 300 \$1-set-4 0;
#X restore 9 78 pd \$1-set-4;
#N canvas 79 470 450 300 \$1-set-1 1;
#X restore 9 11 pd \$1-set-1;
#X restore 313 40 pd set.guis;
#N canvas 605 209 269 494 button.toggler 0;
#X obj 9 381 netpd-rgb2iem;
#X obj -70 19 r \$1.global.s;
#X obj -70 41 t a a;
#X obj -36 107 == 0;
#X obj -9 152 tabwrite \$1.value/id;
#X obj -70 85 list split 3;
#X obj -36 130 t a a;
#X obj -70 175 list append;
#X obj -25 254 list split 3;
#X msg 34 360 220 220 220;
#X obj -25 404 list append;
#X obj -25 431 list prepend \$1;
#X msg -25 453 \; \$1.\$2.\$3.\$4.r color \$5 \$5 -1;
#X obj -70 229 t a a;
#X obj -70 295 outlet;
#X obj -70 63 qseq3-id2path \$1;
#X msg 34 298 140 140 140;
#X obj 14 176 tabread \$1.color/id;
#X obj -70 207 list append;
#X msg 9 339 244 244 244;
#X obj 9 277 route 0 1;
#X obj 9 317 route 0 1;
#X connect 0 0 10 1;
#X connect 1 0 2 0;
#X connect 2 0 15 0;
#X connect 2 1 4 1;
#X connect 2 1 17 0;
#X connect 3 0 6 0;
#X connect 5 0 7 0;
#X connect 5 1 3 0;
#X connect 6 0 7 1;
#X connect 6 1 4 0;
#X connect 7 0 18 0;
#X connect 8 0 10 0;
#X connect 8 1 20 0;
#X connect 9 0 0 0;
#X connect 10 0 11 0;
#X connect 11 0 12 0;
#X connect 13 0 14 0;
#X connect 13 1 8 0;
#X connect 15 0 5 0;
#X connect 16 0 0 0;
#X connect 17 0 18 1;
#X connect 18 0 13 0;
#X connect 19 0 0 0;
#X connect 20 0 21 0;
#X connect 20 1 16 0;
#X connect 21 0 19 0;
#X connect 21 1 9 0;
#X restore 295 95 pd button.toggler;
#N canvas 750 110 231 196 resolve.symbolic 0;
#X obj 8 8 inlet;
#X msg 8 30 \$3 \$2 \$1 \$4;
#X obj 8 52 route -1;
#X obj 53 75 route -1;
#X msg 8 140 seq \$2 \$1 \$3;
#X msg 53 119 set \$1 \$2;
#X msg 98 97 element \$3 \$2 \$1 \$4;
#X obj 8 162 outlet;
#X connect 0 0 1 0;
#X connect 1 0 2 0;
#X connect 2 0 4 0;
#X connect 2 1 3 0;
#X connect 3 0 5 0;
#X connect 3 1 6 0;
#X connect 4 0 7 0;
#X connect 5 0 7 0;
#X connect 6 0 7 0;
#X restore 295 117 pd resolve.symbolic;
#X text 174 82 clrsect poly poly;
#X obj 451 310 table \$1.color/id 10000;
#X msg 450 126 \; \$1.set/id const 0 \; \$1.seq/id const 0 \; \$1.element/id
const 0 \; \$1.value/id const 0 \; \$1.color/id const 0 \; \$1.nos/set
const 0 \;;
#X msg 15 98 1 16 16 5-drum-delta snare 4 16 16;
#X connect 6 0 7 0;
#X connect 8 0 10 0;
#X connect 9 0 38 0;
#X connect 10 0 9 0;
#X connect 12 0 13 0;
#X connect 13 0 20 0;
#X connect 14 0 17 0;
#X connect 15 0 18 0;
#X connect 16 0 19 0;
#X connect 17 0 20 0;
#X connect 18 0 20 0;
#X connect 19 0 20 0;
#X connect 20 0 21 0;
#X connect 24 0 27 0;
#X connect 27 0 25 0;
#X connect 27 1 26 0;
#X connect 28 0 29 0;
#X connect 31 0 32 0;
#X connect 32 0 30 0;
#X connect 34 0 35 0;
#X connect 35 0 11 0;
#X connect 39 0 24 0;
