#N canvas 641 79 634 539 10;
#N canvas 448 380 232 266 \$1-qseq3 1;
#X obj 5 38 cnv 15 215 34 empty empty empty 20 12 0 14 -33289 -1 0
;
#X obj 7 42 vsl 30 25 33 33 0 0 1.global.s \$1.\$2.-1.0.r on/off 4
5 1 8 -228856 -228856 -1 0 1;
#X obj 39 42 vsl 30 25 33 33 0 0 1.global.s \$1.\$2.-1.1.r show 4 5
1 8 -228856 -228856 -1 0 1;
#X obj 71 42 vsl 15 25 33 33 0 0 1.global.s \$1.\$2.-1.2.r empty 4
5 1 8 -228856 -228856 -1 0 1;
#X obj 86 42 vsl 70 10 33 33 0 0 1.global.s \$1.\$2.-1.3.r 5-drum-delta
3 6 1 8 -228856 -228856 -1 0 1;
#X obj 86 57 vsl 70 10 33 33 0 0 1.global.s \$1.\$2.-1.4.r snare 3
6 1 8 -228856 -228856 -1 0 1;
#X obj 156 42 vsl 20 10 33 33 0 0 1.global.s \$1.\$2.-1.5.r 16 4 7
1 9 -228856 -228856 -1 0 1;
#X obj 156 57 vsl 20 10 33 33 0 0 1.global.s size 19 4 6 1 9 -228856
-228856 -1 0 1;
#X obj 178 42 vsl 40 10 33 33 0 0 1.global.s poly poly 3 6 1 8 -228856
-228856 -1 0 1;
#X obj 178 57 vsl 20 10 33 33 0 0 1.global.s dividend 27 5 6 1 9 -228856
-228856 -1 0 1;
#X obj 198 57 vsl 20 10 33 33 0 0 1.global.s divisor 15 5 6 1 9 -228856
-228856 -1 0 1;
#X obj 197 56 cnv 2 2 13 empty empty / 0 7 1 10 -228856 -1 0;
#X restore 12 16 pd \$1-qseq3;
#N canvas 647 382 450 300 NETPD 0;
#X msg 15 15 version 0 0 0;
#X msg 14 38 singleton;
#N canvas 530 44 450 300 abslist 0;
#X msg 10 17 qseq3-id2path;
#X msg 10 38 qseq3-seq;
#X msg 10 59 qseq3-seq-poly;
#X msg 10 81 qseq3-containers;
#X restore 14 63 pd abslist;
#X restore 11 42 pd NETPD;
#X obj 451 227 table \$1.set/id 10000;
#X obj 451 248 table \$1.seq/id 10000;
#X obj 451 269 table \$1.element/id 10000;
#X obj 451 290 table \$1.value/id 10000;
#X obj 449 14 bng 15 250 50 0 empty empty empty 17 7 0 10 -262144 -1
-1;
#X obj 449 34 s \$0.reset;
#X obj 450 60 r \$0.reset;
#X obj 450 103 \$1;
#X msg 450 81 bang;
#X obj 316 149 print -n;
#X obj 428 400 tgl 15 0 empty empty empty 17 7 0 10 -262144 -1 -1 0
1;
#X msg 428 432 1 \$1;
#X obj 473 399 tgl 15 0 empty empty empty 17 7 0 10 -262144 -1 -1 0
1;
#X obj 515 396 tgl 15 0 empty empty empty 17 7 0 10 -262144 -1 -1 0
1;
#X obj 553 396 tgl 15 0 empty empty empty 17 7 0 10 -262144 -1 -1 0
1;
#X msg 474 431 2 \$1;
#X msg 515 428 3 \$1;
#X msg 553 428 4 \$1;
#X obj 428 470 list prepend \$1;
#X msg 428 492 \; pd-\$1-set-\$2 vis \$3;
#X obj 451 330 table \$1.nos/set 1000;
#N canvas 258 90 362 701 meta.constructor 0;
#X obj 38 167 tabread \$1.nos/set;
#X msg 38 124 \$1;
#X obj 65 211 + 1;
#X obj 38 189 t a a;
#X obj 11 260 list append;
#X obj 65 234 tabwrite \$1.nos/set;
#X obj 11 103 t a a;
#X obj 38 146 t a a;
#X msg 11 327 \$2;
#X obj 11 351 until;
#X obj 11 373 f;
#X obj 42 373 + 1;
#X msg 40 329 0;
#X obj 11 475 list append;
#X obj 11 305 t a b a a;
#X text 122 445 set row inst subinst;
#X obj 11 11 inlet;
#X obj 11 664 outlet;
#X obj 11 282 list append ________;
#X msg 119 463 seq \$1 \$6 \$4 \$5;
#X obj 11 82 list split 5;
#X obj 11 397 t a a;
#X obj 138 573 list append;
#X msg 65 397 \$7;
#X obj 38 444 mod 2;
#X obj 38 421 div 4;
#N canvas 836 343 253 399 add.object.id 0;
#X obj 15 15 inlet;
#X obj 15 351 outlet;
#X obj 208 60 + 1;
#X obj 87 125 tabwrite \$1.set/id;
#X obj 73 172 tabwrite \$1.seq/id;
#X obj 59 217 tabwrite \$1.element/id;
#X obj 102 84 t a a;
#X obj 102 61 value \$1.uniq.id;
#X msg 87 104 \$1;
#X msg 73 148 \$2;
#X msg 58 196 \$3;
#X obj 15 329 f;
#X obj 44 263 tabwrite \$1.value/id;
#X obj 29 305 tabwrite \$1.color/id;
#X msg 29 284 \$4;
#X msg 44 242 \$5;
#X obj 15 37 t b a a a a a b;
#X connect 0 0 16 0;
#X connect 2 0 7 0;
#X connect 6 0 11 1;
#X connect 6 1 3 1;
#X connect 6 1 4 1;
#X connect 6 1 5 1;
#X connect 6 1 12 1;
#X connect 6 1 13 1;
#X connect 7 0 6 0;
#X connect 7 0 2 0;
#X connect 8 0 3 0;
#X connect 9 0 4 0;
#X connect 10 0 5 0;
#X connect 11 0 1 0;
#X connect 14 0 13 0;
#X connect 15 0 12 0;
#X connect 16 0 11 0;
#X connect 16 1 14 0;
#X connect 16 2 15 0;
#X connect 16 3 10 0;
#X connect 16 4 9 0;
#X connect 16 5 8 0;
#X connect 16 6 7 0;
#X restore 187 635 pd add.object.id;
#X obj 119 485 t a a;
#X obj 11 558 t a a;
#X obj 11 595 list append;
#X obj 11 618 list trim;
#X msg 11 536 element \$2 \$7 \$1 \$4;
#X msg 138 546 \$1 \$2 \$3;
#X text 15 519 set row xpos width;
#N canvas 797 72 203 192 set.color 0;
#X obj 5 15 inlet;
#X obj 5 37 t a a;
#X obj 32 58 outlet;
#X obj 5 81 route element seq;
#X msg 5 103 \$5;
#X msg 54 104 \$5;
#X text 113 128 uid;
#X obj 5 128 s \$1.update.color;
#X connect 0 0 1 0;
#X connect 1 0 3 0;
#X connect 1 1 2 0;
#X connect 3 0 4 0;
#X connect 3 1 5 0;
#X connect 4 0 7 0;
#X connect 5 0 7 0;
#X restore 11 640 pd set.color;
#X msg 255 577 \$1 \$2 -1 1 1;
#X obj 138 595 list append 0;
#N canvas 733 101 444 276 insert.button.width 0;
#X obj -2128 16 inlet;
#X obj -2128 231 outlet;
#X obj -2128 96 list split 2;
#X obj -2128 126 list append;
#X obj -2128 148 list append;
#X obj -2128 38 t a a;
#X obj -2039 82 /;
#X msg -2039 60 \$7 \$6;
#X obj -2039 104 * 16;
#X text -2081 230 set num_of_elemnts width instr subinst clrsect poly
poly;
#X connect 0 0 5 0;
#X connect 2 0 3 0;
#X connect 2 1 4 1;
#X connect 3 0 4 0;
#X connect 4 0 1 0;
#X connect 5 0 2 0;
#X connect 5 1 7 0;
#X connect 6 0 8 0;
#X connect 7 0 6 0;
#X connect 8 0 3 1;
#X restore 11 61 pd insert.button.width;
#X obj 184 287 outlet;
#N canvas 570 146 159 206 handle.different.lengths 0;
#X obj 25 17 inlet;
#X obj 25 153 outlet;
#X obj 25 38 t a a;
#X obj 25 82 list append;
#X obj 25 60 list length;
#X obj 25 104 route 5 7;
#X obj 25 128 list append 4 4;
#X connect 0 0 2 0;
#X connect 2 0 4 0;
#X connect 2 1 3 1;
#X connect 3 0 5 0;
#X connect 4 0 3 0;
#X connect 5 0 6 0;
#X connect 5 1 1 0;
#X connect 6 0 1 0;
#X restore 11 36 pd handle.different.lengths;
#X connect 0 0 3 0;
#X connect 1 0 7 0;
#X connect 2 0 5 0;
#X connect 3 0 4 1;
#X connect 3 0 38 0;
#X connect 3 1 2 0;
#X connect 4 0 18 0;
#X connect 6 0 4 0;
#X connect 6 1 1 0;
#X connect 7 0 0 0;
#X connect 7 1 5 1;
#X connect 8 0 9 0;
#X connect 9 0 10 0;
#X connect 10 0 11 0;
#X connect 10 0 21 0;
#X connect 11 0 10 1;
#X connect 12 0 10 1;
#X connect 13 0 31 0;
#X connect 14 0 8 0;
#X connect 14 1 12 0;
#X connect 14 2 13 1;
#X connect 14 3 19 0;
#X connect 14 3 23 0;
#X connect 16 0 39 0;
#X connect 18 0 14 0;
#X connect 19 0 27 0;
#X connect 20 0 6 0;
#X connect 20 1 18 1;
#X connect 21 0 13 0;
#X connect 21 1 25 0;
#X connect 22 0 36 0;
#X connect 23 0 25 1;
#X connect 24 0 22 1;
#X connect 25 0 24 0;
#X connect 26 0 29 1;
#X connect 27 0 29 0;
#X connect 27 1 35 0;
#X connect 28 0 29 0;
#X connect 28 1 32 0;
#X connect 29 0 30 0;
#X connect 30 0 34 0;
#X connect 31 0 28 0;
#X connect 32 0 22 0;
#X connect 34 0 17 0;
#X connect 35 0 26 0;
#X connect 36 0 26 0;
#X connect 37 0 20 0;
#X connect 39 0 37 0;
#X restore 43 163 pd meta.constructor;
#N canvas 264 399 387 337 element.creator 0;
#N canvas 520 114 325 437 x-pos-by-elemnt-id 0;
#X msg -240 77 \$4;
#X obj -271 28 inlet;
#X obj -271 394 outlet;
#X obj -240 101 * 8;
#X obj -271 203 list append;
#X msg -211 78 \$5;
#X obj -240 123 + 74;
#X obj -240 145 t a a;
#X obj -271 369 pack f f f f f f f;
#X obj -271 225 unpack f f f f f f f;
#X text -115 110 adjust size to fit;
#X text -115 122 with non-integer width;
#X obj -271 54 t a a a a a;
#X msg -122 163 \$4;
#X msg -80 183 \$5;
#X obj -122 139 t a a;
#X obj -122 233 *;
#X obj -122 185 t a a;
#X obj -122 209 + 1;
#X obj -95 233 *;
#X obj -122 286 -;
#X obj -122 257 int;
#X obj -95 258 int;
#X connect 0 0 3 0;
#X connect 1 0 12 0;
#X connect 3 0 6 0;
#X connect 4 0 9 0;
#X connect 5 0 3 1;
#X connect 6 0 7 0;
#X connect 7 0 4 1;
#X connect 8 0 2 0;
#X connect 9 0 8 0;
#X connect 9 1 8 1;
#X connect 9 2 8 2;
#X connect 9 3 8 3;
#X connect 9 5 8 5;
#X connect 9 6 8 6;
#X connect 12 0 4 0;
#X connect 12 2 0 0;
#X connect 12 3 5 0;
#X connect 12 4 15 0;
#X connect 13 0 17 0;
#X connect 14 0 19 1;
#X connect 14 0 16 1;
#X connect 15 0 13 0;
#X connect 15 1 14 0;
#X connect 16 0 21 0;
#X connect 17 0 18 0;
#X connect 17 1 19 0;
#X connect 18 0 16 0;
#X connect 19 0 22 0;
#X connect 20 0 8 4;
#X connect 21 0 20 0;
#X connect 22 0 20 1;
#X restore -268 124 pd x-pos-by-elemnt-id;
#X obj -268 47 list prepend \$1;
#N canvas 574 433 172 230 y-pos-by-seq-id 0;
#X obj -271 28 inlet;
#X obj -271 182 outlet;
#X obj -271 160 list append;
#X msg -208 88 \$3;
#X obj -271 54 t a a;
#X obj -208 133 + 6;
#X obj -208 111 * 21;
#X connect 0 0 4 0;
#X connect 2 0 1 0;
#X connect 3 0 6 0;
#X connect 4 0 2 0;
#X connect 4 1 3 0;
#X connect 5 0 2 1;
#X connect 6 0 5 0;
#X restore -268 148 pd y-pos-by-seq-id;
#X obj -268 17 inlet;
#X obj -268 289 send;
#X msg -241 260 symbol pd-\$1-set-\$2;
#X text -261 108 patch-id set-id seq-id element-id width uid;
#X obj -268 74 t a a;
#X msg -268 207 obj \$7 \$8 vsl \$5 16 \$6 \$6 0 0 \$1.global.s \$1.\$2.\$3.\$4.r
empty 0 -9 0 10 -228856 -228856 -228856 0 1;
#X connect 0 0 2 0;
#X connect 1 0 7 0;
#X connect 2 0 8 0;
#X connect 3 0 1 0;
#X connect 5 0 4 1;
#X connect 7 0 0 0;
#X connect 7 1 5 0;
#X connect 8 0 4 0;
#X restore 43 239 pd element.creator;
#N canvas 504 421 222 200 seq.creator 0;
#X obj 19 28 inlet;
#N canvas 305 196 434 372 ypos.for.each.element 0;
#X obj 7 110 t a a a;
#X obj 7 198 t a a a;
#X obj 7 155 pack f f f;
#X obj 35 133 - 1;
#X obj 7 -3 inlet;
#X obj 7 176 list append;
#X obj 7 328 outlet;
#X obj 7 20 t a a;
#X obj 7 87 + 6;
#X msg 7 42 \$3;
#X obj 7 133 + 9;
#X msg 46 292 obj 3 \$3 vsl 70 16 \$9 \$9 0 0 \$4.global.s nuet empty
3 7 0 10 -261234 -261234 -66577 0 1;
#X msg 7 223 obj 4 \$1 cnv 9 68 9 empty \$4.\$5.\$6.-1.r \$8 2 5 1
9 -233017 -66577 0;
#X msg 26 257 obj 4 \$2 cnv 9 68 9 empty \$4.\$5.\$6.-1.r \$7 2 5 1
9 -233017 -66577 0;
#X obj 7 65 * 21;
#X connect 0 0 10 0;
#X connect 0 1 3 0;
#X connect 0 2 2 2;
#X connect 1 0 12 0;
#X connect 1 1 13 0;
#X connect 1 2 11 0;
#X connect 2 0 5 0;
#X connect 3 0 2 1;
#X connect 4 0 7 0;
#X connect 5 0 1 0;
#X connect 7 0 9 0;
#X connect 7 1 5 1;
#X connect 8 0 0 0;
#X connect 9 0 14 0;
#X connect 10 0 2 0;
#X connect 11 0 6 0;
#X connect 12 0 6 0;
#X connect 13 0 6 0;
#X connect 14 0 8 0;
#X restore 19 120 pd ypos.for.each.element;
#X obj 19 72 t a a;
#X obj 19 142 s;
#X obj 19 49 list prepend \$1;
#X msg 46 94 symbol pd-\$1-set-\$2;
#X connect 0 0 4 0;
#X connect 1 0 3 0;
#X connect 2 0 1 0;
#X connect 2 1 5 0;
#X connect 4 0 2 0;
#X connect 5 0 3 1;
#X restore 92 218 pd seq.creator;
#X msg 283 348 clear;
#X obj 291 252 value \$1.uniq.id;
#X obj 291 207 r \$0.reset;
#X msg 291 229 0;
#N canvas 605 321 221 255 button.toggler 0;
#X obj -70 19 r \$1.global.s;
#X obj -17 135 == 0;
#X obj 10 180 tabwrite \$1.value/id;
#X obj -51 113 list split 3;
#X obj -17 158 t a a;
#X obj -51 203 list append;
#X obj -51 226 outlet;
#X obj -51 91 qseq3-id2path \$1;
#X obj -70 41 t a a a;
#X obj -70 67 s \$1.update.color;
#X connect 0 0 8 0;
#X connect 1 0 4 0;
#X connect 3 0 5 0;
#X connect 3 1 1 0;
#X connect 4 0 5 1;
#X connect 4 1 2 0;
#X connect 5 0 6 0;
#X connect 7 0 3 0;
#X connect 8 0 9 0;
#X connect 8 1 7 0;
#X connect 8 2 2 1;
#X restore 301 105 pd button.toggler;
#N canvas 750 166 231 196 resolve.symbolic 0;
#X obj 8 8 inlet;
#X msg 8 30 \$3 \$2 \$1 \$4;
#X obj 8 52 route -1;
#X obj 53 75 route -1;
#X msg 8 140 seq \$2 \$1 \$3;
#X msg 53 119 set \$1 \$2;
#X msg 98 97 element \$3 \$2 \$1 \$4;
#X obj 8 162 outlet;
#X connect 0 0 1 0;
#X connect 1 0 2 0;
#X connect 2 0 4 0;
#X connect 2 1 3 0;
#X connect 3 0 5 0;
#X connect 3 1 6 0;
#X connect 4 0 7 0;
#X connect 5 0 7 0;
#X connect 6 0 7 0;
#X restore 301 127 pd resolve.symbolic;
#X obj 451 310 table \$1.color/id 10000;
#X msg 450 126 \; \$1.set/id const 0 \; \$1.seq/id const 0 \; \$1.element/id
const 0 \; \$1.value/id const 0 \; \$1.color/id const 0 \; \$1.nos/set
const 0 \;;
#X obj 43 194 route element seq;
#N canvas 741 399 300 411 update.color 0;
#X obj 24 299 netpd-rgb2iem;
#X obj -10 122 list split 3;
#X msg 49 278 220 220 220;
#X obj -10 322 list append;
#X obj -10 349 list prepend \$1;
#X msg -10 371 \; \$1.\$2.\$3.\$4.r color \$5 \$5 -1;
#X msg 24 257 244 244 244;
#X obj 24 145 route 0 1;
#X obj 24 235 route 0 1;
#X obj -10 8 r \$1.update.color;
#X text 97 8 uid;
#X obj -10 76 qseq3-id2path \$1;
#X obj -10 30 t a a a;
#X obj -10 99 list append;
#X obj 9 53 tabread \$1.color/id;
#X obj 49 165 route 0 1;
#X msg 49 189 188 168 168;
#X msg 74 210 160 140 140;
#X connect 0 0 3 1;
#X connect 1 0 3 0;
#X connect 1 1 7 0;
#X connect 2 0 0 0;
#X connect 3 0 4 0;
#X connect 4 0 5 0;
#X connect 6 0 0 0;
#X connect 7 0 8 0;
#X connect 7 1 15 0;
#X connect 8 0 6 0;
#X connect 8 1 2 0;
#X connect 9 0 12 0;
#X connect 11 0 13 0;
#X connect 12 0 11 0;
#X connect 12 1 14 0;
#X connect 13 0 1 0;
#X connect 14 0 13 1;
#X connect 15 0 16 0;
#X connect 15 1 17 0;
#X connect 16 0 0 0;
#X connect 17 0 0 0;
#X restore 300 73 pd update.color;
#X obj 283 323 r \$0.reset;
#X obj 16 141 t a a;
#X obj 16 279 list append;
#X obj 301 173 s \$1.qseq3;
#X text 14 66 set length instr subinst clrsect poly poly;
#N canvas 440 44 305 430 seq.instantiator 0;
#X obj -2381 215 list trim;
#X msg -2355 119 \$1 \$8 \$2 \$3 \$4 \$6 \$7;
#X obj -2380 29 t a a;
#X obj -2380 73 list append;
#X obj -2380 95 route 6 8;
#X obj -2380 51 list length;
#X obj -2380 6 inlet;
#X obj -2380 187 list prepend qseq3-seq \$1;
#X obj -2355 141 list prepend qseq3-seq-poly \$1;
#X msg -2380 165 \$1 \$6 \$2 \$3 \$4;
#X obj -2381 237 t a a a;
#X obj -2381 395 s;
#X msg -2381 263 \$3;
#X obj -2381 285 * 20;
#X obj -2381 307 + 5;
#X msg -2381 328 obj 5 \$1;
#X obj -2381 350 list append;
#X obj -2381 372 list trim;
#X msg -2342 266 symbol pd-\$1-container-\$2;
#X connect 0 0 10 0;
#X connect 1 0 8 0;
#X connect 2 0 5 0;
#X connect 2 1 3 1;
#X connect 3 0 4 0;
#X connect 4 0 9 0;
#X connect 4 1 1 0;
#X connect 5 0 3 0;
#X connect 6 0 2 0;
#X connect 7 0 0 0;
#X connect 8 0 0 0;
#X connect 9 0 7 0;
#X connect 10 0 12 0;
#X connect 10 1 16 1;
#X connect 10 2 18 0;
#X connect 12 0 13 0;
#X connect 13 0 14 0;
#X connect 14 0 15 0;
#X connect 15 0 16 0;
#X connect 16 0 17 0;
#X connect 17 0 11 0;
#X connect 18 0 11 1;
#X restore 16 309 pd seq.instantiator;
#X msg 29 107 1 32 5-drum-delta hh 4;
#X text 215 83 poly;
#X text 166 107 non-poly;
#X msg 16 84 1 32 5-drum-delta snare 4 16 16;
#X obj 294 36 qseq3-containers \$1;
#X obj 283 370 s pd-\$1.set.displays;
#X obj 293 390 s pd-\$1.set.containers;
#N canvas 483 44 320 251 create.new.sets 0;
#X obj 12 12 inlet;
#X obj 55 12 r \$0.reset;
#X obj 12 55 f;
#X obj 12 77 + 1;
#X msg 55 34 0;
#X text 42 78 set id;
#N canvas 585 185 606 268 create.containers 0;
#X obj 11 123 list prepend \$1;
#X obj 11 32 t a a;
#X obj 38 53 * 20;
#X obj 38 75 + 5;
#X obj 11 97 list append;
#X obj 11 8 inlet;
#X msg 11 147 \; pd-\$1.set.displays obj 5 \$3 pd \$1-set-\$2 \; pd-\$1-set-\$2
vis 0 \; pd-\$1.set.containers obj 5 \$3 pd \$1-container-\$2 \; pd-\$1-container-\$2
vis 0 \;;
#X connect 0 0 6 0;
#X connect 1 0 4 0;
#X connect 1 1 2 0;
#X connect 2 0 3 0;
#X connect 3 0 4 1;
#X connect 4 0 0 0;
#X connect 5 0 1 0;
#X restore 39 121 pd create.containers;
#X obj 12 99 t a a;
#X obj 12 151 outlet;
#X connect 0 0 2 0;
#X connect 1 0 4 0;
#X connect 2 0 3 0;
#X connect 3 0 2 1;
#X connect 3 0 7 0;
#X connect 4 0 2 1;
#X connect 7 0 8 0;
#X connect 7 1 6 0;
#X restore 23 392 pd create.new.sets;
#X obj 23 370 bng 15 250 50 0 empty empty empty 17 7 0 10 -262144 -1
-1;
#X text 87 279 seq_id;
#X floatatom 23 413 5 0 0 0 - - -;
#N canvas 864 335 450 300 TEST 0;
#X obj 5 78 cnv 15 215 34 empty empty empty 20 12 0 14 -33289 -1 0
;
#X obj 39 82 vsl 30 25 33 33 0 0 1.global.s show show 4 5 1 8 -228856
-228856 -1 0 1;
#X obj 86 82 vsl 70 10 33 33 0 0 1.global.s inst 5-drum-delta 3 6 1
8 -228856 -228856 -1 0 1;
#X obj 7 82 vsl 30 25 33 33 0 0 1.global.s onoff on/off 4 5 1 8 -191407
-191407 -1 0 1;
#X obj 86 97 vsl 70 10 33 33 0 0 1.global.s subinst snare 3 6 1 8 -228856
-228856 -1 0 1;
#X obj 178 82 vsl 40 10 33 33 0 0 1.global.s poly poly 3 6 1 8 -228856
-228856 -128992 0 1;
#X obj 178 97 vsl 20 10 33 33 0 0 1.global.s dividend 27 5 6 1 9 -228856
-228856 -128992 0 1;
#X obj 198 97 vsl 20 10 33 33 0 0 1.global.s divisor 15 5 6 1 9 -228856
-228856 -128992 0 1;
#X obj 197 96 cnv 2 2 13 empty empty / 0 7 1 10 -228856 -1 0;
#X obj 156 82 vsl 20 10 33 33 0 0 1.global.s length 16 4 7 1 9 -228856
-228856 -1 0 1;
#X obj 156 97 vsl 20 10 33 33 0 0 1.global.s size 19 4 6 1 9 -228856
-228856 -1 0 1;
#X obj 71 82 vsl 15 25 33 33 0 0 1.global.s show empty 4 5 1 8 -228856
-228856 -1 0 1;
#X obj 4 235 s length;
#X msg 29 202 label \$1;
#X floatatom 11 159 5 0 0 0 - - -;
#X obj 30 178 makefilename %d;
#X msg 134 200 label \$1;
#X floatatom 116 157 5 0 0 0 - - -;
#X obj 135 176 makefilename %d;
#X obj 109 233 s size;
#X msg 244 202 label \$1;
#X floatatom 226 159 5 0 0 0 - - -;
#X obj 245 178 makefilename %d;
#X msg 349 200 label \$1;
#X floatatom 331 157 5 0 0 0 - - -;
#X obj 350 176 makefilename %d;
#X obj 220 235 s dividend;
#X obj 324 233 s divisor;
#X connect 13 0 12 0;
#X connect 14 0 15 0;
#X connect 15 0 13 0;
#X connect 16 0 19 0;
#X connect 17 0 18 0;
#X connect 18 0 16 0;
#X connect 20 0 26 0;
#X connect 21 0 22 0;
#X connect 22 0 20 0;
#X connect 23 0 27 0;
#X connect 24 0 25 0;
#X connect 25 0 23 0;
#X restore 154 372 pd TEST;
#X connect 6 0 7 0;
#X connect 8 0 10 0;
#X connect 9 0 33 0;
#X connect 10 0 9 0;
#X connect 12 0 13 0;
#X connect 13 0 20 0;
#X connect 14 0 17 0;
#X connect 15 0 18 0;
#X connect 16 0 19 0;
#X connect 17 0 20 0;
#X connect 18 0 20 0;
#X connect 19 0 20 0;
#X connect 20 0 21 0;
#X connect 23 0 34 0;
#X connect 23 1 38 1;
#X connect 26 0 47 0;
#X connect 26 0 48 0;
#X connect 28 0 29 0;
#X connect 29 0 27 0;
#X connect 30 0 31 0;
#X connect 31 0 39 0;
#X connect 34 0 24 0;
#X connect 34 1 25 0;
#X connect 36 0 26 0;
#X connect 37 0 38 0;
#X connect 37 1 23 0;
#X connect 38 0 41 0;
#X connect 42 0 37 0;
#X connect 45 0 37 0;
#X connect 49 0 52 0;
#X connect 50 0 49 0;
