#N canvas 388 59 744 618 10;
#N canvas 160 461 664 317 \$1-qseq3 0;
#X restore 12 16 pd \$1-qseq3;
#N canvas 647 382 450 300 NETPD 0;
#X msg 15 15 version 0 0 0;
#X msg 14 38 singleton;
#N canvas 530 44 450 300 abslist 0;
#X msg 10 17 qseq3-id2path;
#X restore 21 88 pd abslist;
#X restore 11 42 pd NETPD;
#X floatatom 216 243 5 0 0 0 - - -;
#X floatatom 251 263 5 0 0 0 - - -;
#X text 288 263 width;
#X floatatom 275 283 5 0 0 0 - - -;
#X text 314 281 row (seq-id);
#X text 255 241 x-pos (element-id);
#X obj 571 227 table \$1.pattern/id 10000;
#X obj 571 248 table \$1.seq/id 10000;
#X obj 571 269 table \$1.element/id 10000;
#X obj 571 290 table \$1.value/id 10000;
#X obj 569 14 bng 15 250 50 0 empty empty empty 17 7 0 10 -262144 -1
-1;
#X obj 569 34 s \$0.reset;
#X obj 570 60 r \$0.reset;
#X obj 570 103 \$1;
#X msg 570 81 bang;
#X obj 286 425 vsl 70 18 0 0 0 0 1.global.s 1.1.0.0.r empty 3 7 0 10
-261234 -261234 -66577 0 1;
#X obj 287 424 cnv 10 68 10 empty empty 2-drum-delta 2 6 1 9 -233017
-66577 0;
#X obj 287 435 cnv 10 68 10 empty empty kick1 2 6 1 9 -233017 -66577
0;
#N canvas 653 169 413 470 element.toggler 0;
#X obj 128 336 netpd-rgb2iem;
#X obj -70 19 r \$1.global.s;
#X obj -70 41 t a a;
#X obj -36 107 == 0;
#X obj -70 63 qseq3-id2path \$1;
#X obj -9 152 tabwrite \$1.value/id;
#X obj -70 85 list split 3;
#X obj -36 130 t a a;
#X obj -70 175 list append;
#X obj 94 251 list split 3;
#X obj 128 274 sel 0 1;
#X msg 128 314 220 220 220;
#X obj 94 359 list append;
#X obj 94 381 list prepend \$1;
#X msg 94 403 \; \$1.\$2.\$3.\$4.r color \$5 \$5 -1;
#X msg 147 295 180 180 180;
#X obj -70 197 t a a;
#X obj -70 219 list prepend element;
#X obj -70 241 list trim;
#X obj -70 263 outlet;
#X connect 0 0 12 1;
#X connect 1 0 2 0;
#X connect 2 0 4 0;
#X connect 2 1 5 1;
#X connect 3 0 7 0;
#X connect 4 0 6 0;
#X connect 6 0 8 0;
#X connect 6 1 3 0;
#X connect 7 0 8 1;
#X connect 7 1 5 0;
#X connect 8 0 16 0;
#X connect 9 0 12 0;
#X connect 9 1 10 0;
#X connect 10 0 11 0;
#X connect 10 1 15 0;
#X connect 11 0 0 0;
#X connect 12 0 13 0;
#X connect 13 0 14 0;
#X connect 15 0 0 0;
#X connect 16 0 17 0;
#X connect 16 1 9 0;
#X connect 17 0 18 0;
#X connect 18 0 19 0;
#X restore 415 95 pd element.toggler;
#X obj 415 117 print -n;
#N canvas 2 52 1200 780 groups.guis 0;
#N canvas 65 435 450 300 \$1-group-1 1;
#X restore 9 11 pd \$1-group-1;
#N canvas 2 751 450 300 \$1-group-2 0;
#X restore 9 33 pd \$1-group-2;
#N canvas 2 751 450 300 \$1-group-3 0;
#X restore 9 56 pd \$1-group-3;
#N canvas 2 751 450 300 \$1-group-4 0;
#X restore 9 78 pd \$1-group-4;
#X restore 433 40 pd groups.guis;
#X obj 211 330 pack f f f f;
#X floatatom 286 307 5 0 0 0 - - -;
#X text 323 305 group;
#X obj 431 343 tgl 15 0 empty empty empty 17 7 0 10 -262144 -1 -1 1
1;
#X msg 433 395 1 \$1;
#X obj 476 342 tgl 15 0 empty empty empty 17 7 0 10 -262144 -1 -1 0
1;
#X obj 518 339 tgl 15 0 empty empty empty 17 7 0 10 -262144 -1 -1 0
1;
#X obj 556 339 tgl 15 0 empty empty empty 17 7 0 10 -262144 -1 -1 0
1;
#X msg 479 394 2 \$1;
#X msg 520 391 3 \$1;
#X msg 558 391 4 \$1;
#X obj 435 424 list prepend \$1;
#X msg 435 446 \; pd-\$1-group-\$2 vis \$3;
#X text 68 69 group num_of_elemnts width instr subinst;
#X obj 571 311 table \$1.nos/group 1000;
#X msg 570 126 \; \$1.pattern/id const 0 \; \$1.seq/id const 0 \; \$1.element/id
const 0 \; \$1.value/id const 0 \; \$1.nos/group const 0 \;;
#X obj 98 437 print;
#N canvas 177 236 272 442 meta.constructor 0;
#X obj 38 97 tabread \$1.nos/group;
#X msg 38 54 \$1;
#X obj 65 141 + 1;
#X obj 38 119 t a a;
#X obj 11 190 list append;
#X obj 65 164 tabwrite \$1.nos/group;
#X obj 11 33 t a a;
#X obj 38 76 t a a;
#X msg 11 234 \$2;
#X obj 11 258 until;
#X obj 11 280 f;
#X obj 42 280 + 1;
#X msg 40 236 0;
#X obj 11 303 list append;
#X obj 11 212 t a b a a;
#X msg 101 295 seq \$1 \$6 \$4 \$5;
#X text 108 270 group row inst subinst;
#X obj 11 11 inlet;
#X obj 11 385 outlet;
#X text 53 329 group row xpos width;
#X msg 11 346 element \$2 \$7 \$1 \$4;
#X connect 0 0 3 0;
#X connect 1 0 7 0;
#X connect 2 0 5 0;
#X connect 3 0 4 1;
#X connect 3 1 2 0;
#X connect 4 0 14 0;
#X connect 6 0 4 0;
#X connect 6 1 1 0;
#X connect 7 0 0 0;
#X connect 7 1 5 1;
#X connect 8 0 9 0;
#X connect 9 0 10 0;
#X connect 10 0 11 0;
#X connect 10 0 13 0;
#X connect 11 0 10 1;
#X connect 12 0 10 1;
#X connect 13 0 20 0;
#X connect 14 0 8 0;
#X connect 14 1 12 0;
#X connect 14 2 13 1;
#X connect 14 3 15 0;
#X connect 15 0 18 0;
#X connect 17 0 6 0;
#X connect 20 0 18 0;
#X restore 65 109 pd meta.constructor;
#N canvas 243 394 453 369 element.creator 0;
#N canvas 564 128 172 230 x-pos-by-elemnt-id 0;
#X msg -208 88 \$4;
#X obj -271 28 inlet;
#X obj -271 182 outlet;
#X obj -208 111 * 8;
#X obj -271 160 list append;
#X msg -177 88 \$5;
#X obj -271 54 t a a a;
#X obj -208 133 + 80;
#X connect 0 0 3 0;
#X connect 1 0 6 0;
#X connect 3 0 7 0;
#X connect 4 0 2 0;
#X connect 5 0 3 1;
#X connect 6 0 4 0;
#X connect 6 1 0 0;
#X connect 6 2 5 0;
#X connect 7 0 4 1;
#X restore -268 141 pd x-pos-by-elemnt-id;
#X obj -268 92 list prepend \$1;
#X text -166 116 patch-id pattern-id seq-id element-id width;
#N canvas 568 278 172 230 y-pos-by-seq-id 0;
#X obj -271 28 inlet;
#X obj -271 182 outlet;
#X obj -208 133 + 20;
#X obj -271 160 list append;
#X msg -208 88 \$3;
#X obj -271 54 t a a;
#X obj -208 111 * 23;
#X connect 0 0 5 0;
#X connect 2 0 3 1;
#X connect 3 0 1 0;
#X connect 4 0 6 0;
#X connect 5 0 3 0;
#X connect 5 1 4 0;
#X connect 6 0 2 0;
#X restore -268 165 pd y-pos-by-seq-id;
#X obj -268 17 inlet;
#N canvas 440 291 450 300 add.object.id 0;
#X obj 15 15 inlet;
#X obj 15 271 outlet;
#X obj 15 239 list append;
#X obj 208 61 + 1;
#X obj 62 126 tabwrite \$1.pattern/id;
#X obj 46 174 tabwrite \$1.seq/id;
#X obj 30 217 tabwrite \$1.element/id;
#X obj 78 84 t a a;
#X obj 15 37 t a a a a b;
#X msg 62 105 \$2;
#X msg 30 196 \$4;
#X msg 46 150 \$3;
#X obj 78 61 value \$1.unique.id;
#X connect 0 0 8 0;
#X connect 2 0 1 0;
#X connect 3 0 12 0;
#X connect 7 0 2 1;
#X connect 7 1 4 1;
#X connect 7 1 5 1;
#X connect 7 1 6 1;
#X connect 8 0 2 0;
#X connect 8 1 10 0;
#X connect 8 2 11 0;
#X connect 8 3 9 0;
#X connect 8 4 12 0;
#X connect 9 0 4 0;
#X connect 10 0 6 0;
#X connect 11 0 5 0;
#X connect 12 0 7 0;
#X connect 12 0 3 0;
#X restore -268 186 pd add.object.id;
#X msg -268 233 obj \$6 \$7 vsl \$5 18 \$8 \$8 0 0 \$1.global.s \$1.\$2.\$3.\$4.r
empty 0 -9 0 10 -228856 -228856 -228856 0 1;
#X obj -268 315 send;
#X obj -231 267 list prepend \$1;
#X msg -231 289 symbol pd-\$1-group-\$2;
#X obj -268 46 t a a;
#X msg -230 69 \$1;
#X msg -268 118 \$1 \$2 \$3 \$4 \$5;
#X connect 0 0 3 0;
#X connect 1 0 12 0;
#X connect 3 0 5 0;
#X connect 4 0 10 0;
#X connect 5 0 6 0;
#X connect 6 0 7 0;
#X connect 8 0 9 0;
#X connect 9 0 7 1;
#X connect 10 0 1 0;
#X connect 10 1 11 0;
#X connect 11 0 8 0;
#X connect 12 0 0 0;
#X restore 65 206 pd element.creator;
#N canvas 534 54 453 369 seq.creator 0;
#N canvas 564 128 172 230 x-pos-by-elemnt-id 0;
#X msg -208 88 \$4;
#X obj -271 28 inlet;
#X obj -271 182 outlet;
#X obj -208 111 * 8;
#X obj -271 160 list append;
#X msg -177 88 \$5;
#X obj -271 54 t a a a;
#X obj -208 133 + 80;
#X connect 0 0 3 0;
#X connect 1 0 6 0;
#X connect 3 0 7 0;
#X connect 4 0 2 0;
#X connect 5 0 3 1;
#X connect 6 0 4 0;
#X connect 6 1 0 0;
#X connect 6 2 5 0;
#X connect 7 0 4 1;
#X restore -212 139 pd x-pos-by-elemnt-id;
#X obj -212 90 list prepend \$1;
#X msg -275 272 clear;
#X text -122 114 patch-id pattern-id seq-id element-id width;
#X msg -212 116 \$1 1 \$4 \$2 \$3;
#N canvas 564 212 172 230 y-pos-by-seq-id 0;
#X obj -271 28 inlet;
#X obj -271 182 outlet;
#X obj -208 133 + 20;
#X obj -271 160 list append;
#X msg -208 88 \$3;
#X obj -271 54 t a a;
#X obj -208 111 * 29;
#X connect 0 0 5 0;
#X connect 2 0 3 1;
#X connect 3 0 1 0;
#X connect 4 0 6 0;
#X connect 5 0 3 0;
#X connect 5 1 4 0;
#X connect 6 0 2 0;
#X restore -212 163 pd y-pos-by-seq-id;
#X obj -275 40 route clear;
#X obj -275 15 inlet;
#N canvas 438 286 450 300 add.object.id 0;
#X obj 15 15 inlet;
#X obj 15 271 outlet;
#X obj 15 239 list append;
#X obj 78 62 f;
#X obj 113 61 + 1;
#X obj 62 126 tabwrite \$1.pattern/id;
#X obj 46 174 tabwrite \$1.seq/id;
#X obj 30 217 tabwrite \$1.element/id;
#X obj 78 84 t a a;
#X obj 15 37 t a a a a b;
#X msg 62 105 \$2;
#X msg 30 196 \$4;
#X msg 46 150 \$3;
#X obj 93 12 r \$0.reset;
#X msg 93 34 0;
#X connect 0 0 9 0;
#X connect 2 0 1 0;
#X connect 3 0 4 0;
#X connect 3 0 8 0;
#X connect 4 0 3 1;
#X connect 8 0 2 1;
#X connect 8 1 5 1;
#X connect 8 1 6 1;
#X connect 8 1 7 1;
#X connect 9 0 2 0;
#X connect 9 1 11 0;
#X connect 9 2 12 0;
#X connect 9 3 10 0;
#X connect 9 4 3 0;
#X connect 10 0 5 0;
#X connect 11 0 7 0;
#X connect 12 0 6 0;
#X connect 13 0 14 0;
#X connect 14 0 3 1;
#X restore -212 184 pd add.object.id;
#X obj -264 207 r \$0.reset;
#X msg -212 231 obj \$6 \$7 vsl \$5 18 \$8 \$8 0 0 \$1.global.s \$1.\$2.\$3.\$4.r
empty 0 -9 0 10 -228856 -228856 -228856 0 1;
#X obj -212 313 send;
#X obj -212 64 list split 3;
#X obj -175 265 list prepend \$1;
#X msg -175 287 symbol pd-\$1-group-\$2;
#X connect 0 0 5 0;
#X connect 1 0 4 0;
#X connect 2 0 11 0;
#X connect 4 0 0 0;
#X connect 5 0 8 0;
#X connect 6 0 2 0;
#X connect 6 1 12 0;
#X connect 7 0 6 0;
#X connect 8 0 10 0;
#X connect 9 0 2 0;
#X connect 10 0 11 0;
#X connect 12 0 1 0;
#X connect 12 1 13 0;
#X connect 13 0 14 0;
#X connect 14 0 11 1;
#X restore 117 172 pd seq.creator;
#X obj 65 131 route element seq;
#X obj 232 186 print;
#X msg 230 498 clear;
#X obj 230 520 s pd-\$1-group-1;
#X msg 65 88 1 16 16 drum-delta kick1;
#X connect 2 0 23 0;
#X connect 3 0 23 1;
#X connect 5 0 23 2;
#X connect 12 0 13 0;
#X connect 14 0 16 0;
#X connect 15 0 38 0;
#X connect 16 0 15 0;
#X connect 20 0 21 0;
#X connect 24 0 23 3;
#X connect 26 0 27 0;
#X connect 27 0 34 0;
#X connect 28 0 31 0;
#X connect 29 0 32 0;
#X connect 30 0 33 0;
#X connect 31 0 34 0;
#X connect 32 0 34 0;
#X connect 33 0 34 0;
#X connect 34 0 35 0;
#X connect 40 0 43 0;
#X connect 43 0 41 0;
#X connect 43 0 44 0;
#X connect 45 0 46 0;
#X connect 47 0 40 0;
