#N canvas 687 107 723 516 10;
#N canvas 237 427 664 317 \$1-qseq3 1;
#X obj 80 20 vsl 16 18 0 0 0 0 1.global.s 1.1.0.0.r empty 0 -9 0 10
-228856 -228856 -228856 0 1;
#X obj 96 20 vsl 16 18 1 1 0 0 1.global.s 1.1.0.1.r empty 0 -9 0 10
-228856 -228856 -228856 0 1;
#X obj 112 20 vsl 16 18 2 2 0 0 1.global.s 1.1.0.2.r empty 0 -9 0 10
-187246 -187246 -1 0 1;
#X obj 128 20 vsl 16 18 3 3 0 0 1.global.s 1.1.0.3.r empty 0 -9 0 10
-228856 -228856 -228856 0 1;
#X obj 144 20 vsl 16 18 4 4 0 0 1.global.s 1.1.0.4.r empty 0 -9 0 10
-228856 -228856 -228856 0 1;
#X obj 160 20 vsl 16 18 5 5 0 0 1.global.s 1.1.0.5.r empty 0 -9 0 10
-228856 -228856 -228856 0 1;
#X obj 176 20 vsl 16 18 6 6 0 0 1.global.s 1.1.0.6.r empty 0 -9 0 10
-228856 -228856 -228856 0 1;
#X obj 192 20 vsl 16 18 7 7 0 0 1.global.s 1.1.0.7.r empty 0 -9 0 10
-228856 -228856 -228856 0 1;
#X obj 208 20 vsl 16 18 8 8 0 0 1.global.s 1.1.0.8.r empty 0 -9 0 10
-187246 -187246 -1 0 1;
#X obj 224 20 vsl 16 18 9 9 0 0 1.global.s 1.1.0.9.r empty 0 -9 0 10
-228856 -228856 -228856 0 1;
#X obj 240 20 vsl 16 18 10 10 0 0 1.global.s 1.1.0.10.r empty 0 -9
0 10 -228856 -228856 -228856 0 1;
#X obj 256 20 vsl 16 18 11 11 0 0 1.global.s 1.1.0.11.r empty 0 -9
0 10 -228856 -228856 -228856 0 1;
#X obj 272 20 vsl 16 18 12 12 0 0 1.global.s 1.1.0.12.r empty 0 -9
0 10 -228856 -228856 -228856 0 1;
#X obj 288 20 vsl 16 18 13 13 0 0 1.global.s 1.1.0.13.r empty 0 -9
0 10 -228856 -228856 -228856 0 1;
#X obj 304 20 vsl 16 18 14 14 0 0 1.global.s 1.1.0.14.r empty 0 -9
0 10 -228856 -228856 -228856 0 1;
#X obj 320 20 vsl 16 18 15 15 0 0 1.global.s 1.1.0.15.r empty 0 -9
0 10 -228856 -228856 -228856 0 1;
#X obj 336 20 vsl 16 18 16 16 0 0 1.global.s 1.1.0.16.r empty 0 -9
0 10 -228856 -228856 -228856 0 1;
#X obj 80 49 vsl 16 18 17 17 0 0 1.global.s 1.1.1.0.r empty 0 -9 0
10 -228856 -228856 -228856 0 1;
#X obj 96 49 vsl 16 18 18 18 0 0 1.global.s 1.1.1.1.r empty 0 -9 0
10 -228856 -228856 -228856 0 1;
#X obj 112 49 vsl 16 18 19 19 0 0 1.global.s 1.1.1.2.r empty 0 -9 0
10 -228856 -228856 -228856 0 1;
#X obj 128 49 vsl 16 18 20 20 0 0 1.global.s 1.1.1.3.r empty 0 -9 0
10 -228856 -228856 -228856 0 1;
#X obj 144 49 vsl 16 18 21 21 0 0 1.global.s 1.1.1.4.r empty 0 -9 0
10 -187246 -187246 -1 0 1;
#X obj 160 49 vsl 16 18 22 22 0 0 1.global.s 1.1.1.5.r empty 0 -9 0
10 -228856 -228856 -228856 0 1;
#X obj 176 49 vsl 16 18 23 23 0 0 1.global.s 1.1.1.6.r empty 0 -9 0
10 -228856 -228856 -228856 0 1;
#X obj 192 49 vsl 16 18 24 24 0 0 1.global.s 1.1.1.7.r empty 0 -9 0
10 -228856 -228856 -1 0 1;
#X obj 208 49 vsl 16 18 25 25 0 0 1.global.s 1.1.1.8.r empty 0 -9 0
10 -228856 -228856 -228856 0 1;
#X obj 224 49 vsl 16 18 26 26 0 0 1.global.s 1.1.1.9.r empty 0 -9 0
10 -228856 -228856 -228856 0 1;
#X obj 240 49 vsl 16 18 27 27 0 0 1.global.s 1.1.1.10.r empty 0 -9
0 10 -228856 -228856 -228856 0 1;
#X obj 256 49 vsl 16 18 28 28 0 0 1.global.s 1.1.1.11.r empty 0 -9
0 10 -187246 -187246 -1 0 1;
#X obj 272 49 vsl 16 18 29 29 0 0 1.global.s 1.1.1.12.r empty 0 -9
0 10 -228856 -228856 -228856 0 1;
#X obj 288 49 vsl 16 18 30 30 0 0 1.global.s 1.1.1.13.r empty 0 -9
0 10 -228856 -228856 -228856 0 1;
#X obj 0 20 vsl 70 18 0 0 0 0 1.global.s 1.1.0.0.r empty 3 7 0 10 -261234
-261234 -66577 0 1;
#X obj 1 19 cnv 10 68 10 empty empty 2-drum-delta 2 6 1 9 -233017 -66577
0;
#X obj 1 30 cnv 10 68 10 empty empty kick1 2 6 1 9 -233017 -66577 0
;
#X obj 80 107 vsl 16 18 31 31 0 0 1.global.s 1.1.3.0.r empty 0 -9 0
10 -187246 -187246 -1 0 1;
#X obj 96 107 vsl 16 18 32 32 0 0 1.global.s 1.1.3.1.r empty 0 -9 0
10 -228856 -228856 -228856 0 1;
#X obj 112 107 vsl 16 18 33 33 0 0 1.global.s 1.1.3.2.r empty 0 -9
0 10 -228856 -228856 -228856 0 1;
#X obj 128 107 vsl 16 18 34 34 0 0 1.global.s 1.1.3.3.r empty 0 -9
0 10 -228856 -228856 -228856 0 1;
#X obj 144 107 vsl 16 18 35 35 0 0 1.global.s 1.1.3.4.r empty 0 -9
0 10 -187246 -187246 -1 0 1;
#X obj 160 107 vsl 16 18 36 36 0 0 1.global.s 1.1.3.5.r empty 0 -9
0 10 -187246 -187246 -1 0 1;
#X obj 176 107 vsl 16 18 37 37 0 0 1.global.s 1.1.3.6.r empty 0 -9
0 10 -187246 -187246 -1 0 1;
#X obj 192 107 vsl 16 18 38 38 0 0 1.global.s 1.1.3.7.r empty 0 -9
0 10 -228856 -228856 -1 0 1;
#X obj 208 107 vsl 16 18 39 39 0 0 1.global.s 1.1.3.8.r empty 0 -9
0 10 -228856 -228856 -228856 0 1;
#X obj 224 107 vsl 16 18 40 40 0 0 1.global.s 1.1.3.9.r empty 0 -9
0 10 -228856 -228856 -1 0 1;
#X obj 240 107 vsl 16 18 41 41 0 0 1.global.s 1.1.3.10.r empty 0 -9
0 10 -228856 -228856 -228856 0 1;
#X obj 256 107 vsl 16 18 42 42 0 0 1.global.s 1.1.3.11.r empty 0 -9
0 10 -187246 -187246 -1 0 1;
#X obj 272 107 vsl 16 18 43 43 0 0 1.global.s 1.1.3.12.r empty 0 -9
0 10 -228856 -228856 -1 0 1;
#X obj 288 107 vsl 16 18 44 44 0 0 1.global.s 1.1.3.13.r empty 0 -9
0 10 -187246 -187246 -1 0 1;
#X obj 304 107 vsl 16 18 45 45 0 0 1.global.s 1.1.3.14.r empty 0 -9
0 10 -187246 -187246 -1 0 1;
#X obj 320 107 vsl 16 18 46 46 0 0 1.global.s 1.1.3.15.r empty 0 -9
0 10 -228856 -228856 -228856 0 1;
#X obj 336 107 vsl 16 18 47 47 0 0 1.global.s 1.1.3.16.r empty 0 -9
0 10 -187246 -187246 -1 0 1;
#X obj 352 107 vsl 16 18 48 48 0 0 1.global.s 1.1.3.17.r empty 0 -9
0 10 -228856 -228856 -1 0 1;
#X obj 368 107 vsl 16 18 49 49 0 0 1.global.s 1.1.3.18.r empty 0 -9
0 10 -187246 -187246 -1 0 1;
#X obj 384 107 vsl 16 18 50 50 0 0 1.global.s 1.1.3.19.r empty 0 -9
0 10 -187246 -187246 -1 0 1;
#X obj 400 107 vsl 16 18 51 51 0 0 1.global.s 1.1.3.20.r empty 0 -9
0 10 -187246 -187246 -1 0 1;
#X obj 416 107 vsl 16 18 52 52 0 0 1.global.s 1.1.3.21.r empty 0 -9
0 10 -187246 -187246 -1 0 1;
#X obj 432 107 vsl 16 18 53 53 0 0 1.global.s 1.1.3.22.r empty 0 -9
0 10 -228856 -228856 -1 0 1;
#X obj 448 107 vsl 16 18 54 54 0 0 1.global.s 1.1.3.23.r empty 0 -9
0 10 -187246 -187246 -1 0 1;
#X obj 464 107 vsl 16 18 55 55 0 0 1.global.s 1.1.3.24.r empty 0 -9
0 10 -187246 -187246 -1 0 1;
#X obj 480 107 vsl 16 18 56 56 0 0 1.global.s 1.1.3.25.r empty 0 -9
0 10 -228856 -228856 -228856 0 1;
#X obj 496 107 vsl 16 18 57 57 0 0 1.global.s 1.1.3.26.r empty 0 -9
0 10 -187246 -187246 -1 0 1;
#X obj 512 107 vsl 16 18 58 58 0 0 1.global.s 1.1.3.27.r empty 0 -9
0 10 -228856 -228856 -228856 0 1;
#X obj 528 107 vsl 16 18 59 59 0 0 1.global.s 1.1.3.28.r empty 0 -9
0 10 -228856 -228856 -228856 0 1;
#X obj 544 107 vsl 16 18 60 60 0 0 1.global.s 1.1.3.29.r empty 0 -9
0 10 -228856 -228856 -228856 0 1;
#X obj 560 107 vsl 16 18 61 61 0 0 1.global.s 1.1.3.30.r empty 0 -9
0 10 -228856 -228856 -228856 0 1;
#X obj 576 107 vsl 16 18 62 62 0 0 1.global.s 1.1.3.31.r empty 0 -9
0 10 -228856 -228856 -228856 0 1;
#X obj 592 107 vsl 16 18 63 63 0 0 1.global.s 1.1.3.32.r empty 0 -9
0 10 -228856 -228856 -228856 0 1;
#X obj 608 107 vsl 16 18 64 64 0 0 1.global.s 1.1.3.33.r empty 0 -9
0 10 -228856 -228856 -228856 0 1;
#X obj 624 107 vsl 16 18 65 65 0 0 1.global.s 1.1.3.34.r empty 0 -9
0 10 -228856 -228856 -228856 0 1;
#X obj 640 107 vsl 16 18 66 66 0 0 1.global.s 1.1.3.35.r empty 0 -9
0 10 -228856 -228856 -228856 0 1;
#X obj 656 107 vsl 16 18 67 67 0 0 1.global.s 1.1.3.36.r empty 0 -9
0 10 -228856 -228856 -228856 0 1;
#X obj 672 107 vsl 16 18 68 68 0 0 1.global.s 1.1.3.37.r empty 0 -9
0 10 -228856 -228856 -228856 0 1;
#X obj 688 107 vsl 16 18 69 69 0 0 1.global.s 1.1.3.38.r empty 0 -9
0 10 -228856 -228856 -228856 0 1;
#X obj 704 107 vsl 16 18 70 70 0 0 1.global.s 1.1.3.39.r empty 0 -9
0 10 -228856 -228856 -228856 0 1;
#X obj 720 107 vsl 16 18 71 71 0 0 1.global.s 1.1.3.40.r empty 0 -9
0 10 -228856 -228856 -228856 0 1;
#X obj 736 107 vsl 16 18 72 72 0 0 1.global.s 1.1.3.41.r empty 0 -9
0 10 -228856 -228856 -228856 0 1;
#X obj 752 107 vsl 16 18 73 73 0 0 1.global.s 1.1.3.42.r empty 0 -9
0 10 -228856 -228856 -228856 0 1;
#X obj 768 107 vsl 16 18 74 74 0 0 1.global.s 1.1.3.43.r empty 0 -9
0 10 -228856 -228856 -228856 0 1;
#X obj 784 107 vsl 16 18 75 75 0 0 1.global.s 1.1.3.44.r empty 0 -9
0 10 -228856 -228856 -228856 0 1;
#X obj 800 107 vsl 16 18 76 76 0 0 1.global.s 1.1.3.45.r empty 0 -9
0 10 -228856 -228856 -228856 0 1;
#X obj 816 107 vsl 16 18 77 77 0 0 1.global.s 1.1.3.46.r empty 0 -9
0 10 -228856 -228856 -228856 0 1;
#X obj 832 107 vsl 16 18 78 78 0 0 1.global.s 1.1.3.47.r empty 0 -9
0 10 -228856 -228856 -228856 0 1;
#X obj 848 107 vsl 16 18 79 79 0 0 1.global.s 1.1.3.48.r empty 0 -9
0 10 -228856 -228856 -228856 0 1;
#X obj 864 107 vsl 16 18 80 80 0 0 1.global.s 1.1.3.49.r empty 0 -9
0 10 -228856 -228856 -228856 0 1;
#X obj 880 107 vsl 16 18 81 81 0 0 1.global.s 1.1.3.50.r empty 0 -9
0 10 -228856 -228856 -228856 0 1;
#X obj 896 107 vsl 16 18 82 82 0 0 1.global.s 1.1.3.51.r empty 0 -9
0 10 -228856 -228856 -228856 0 1;
#X obj 912 107 vsl 16 18 83 83 0 0 1.global.s 1.1.3.52.r empty 0 -9
0 10 -228856 -228856 -228856 0 1;
#X obj 928 107 vsl 16 18 84 84 0 0 1.global.s 1.1.3.53.r empty 0 -9
0 10 -228856 -228856 -228856 0 1;
#X obj 944 107 vsl 16 18 85 85 0 0 1.global.s 1.1.3.54.r empty 0 -9
0 10 -228856 -228856 -228856 0 1;
#X obj 960 107 vsl 16 18 86 86 0 0 1.global.s 1.1.3.55.r empty 0 -9
0 10 -228856 -228856 -228856 0 1;
#X obj 976 107 vsl 16 18 87 87 0 0 1.global.s 1.1.3.56.r empty 0 -9
0 10 -228856 -228856 -228856 0 1;
#X obj 992 107 vsl 16 18 88 88 0 0 1.global.s 1.1.3.57.r empty 0 -9
0 10 -228856 -228856 -228856 0 1;
#X obj 1008 107 vsl 16 18 89 89 0 0 1.global.s 1.1.3.58.r empty 0 -9
0 10 -228856 -228856 -228856 0 1;
#X obj 1024 107 vsl 16 18 90 90 0 0 1.global.s 1.1.3.59.r empty 0 -9
0 10 -228856 -228856 -228856 0 1;
#X obj 1040 107 vsl 16 18 91 91 0 0 1.global.s 1.1.3.60.r empty 0 -9
0 10 -228856 -228856 -228856 0 1;
#X obj 1056 107 vsl 16 18 92 92 0 0 1.global.s 1.1.3.61.r empty 0 -9
0 10 -228856 -228856 -228856 0 1;
#X obj 1072 107 vsl 16 18 93 93 0 0 1.global.s 1.1.3.62.r empty 0 -9
0 10 -228856 -228856 -228856 0 1;
#X obj 1088 107 vsl 16 18 94 94 0 0 1.global.s 1.1.3.63.r empty 0 -9
0 10 -228856 -228856 -228856 0 1;
#X obj 1104 107 vsl 16 18 95 95 0 0 1.global.s 1.1.3.64.r empty 0 -9
0 10 -228856 -228856 -228856 0 1;
#X obj 1120 107 vsl 16 18 96 96 0 0 1.global.s 1.1.3.65.r empty 0 -9
0 10 -228856 -228856 -228856 0 1;
#X obj 1136 107 vsl 16 18 97 97 0 0 1.global.s 1.1.3.66.r empty 0 -9
0 10 -228856 -228856 -228856 0 1;
#X obj 1152 107 vsl 16 18 98 98 0 0 1.global.s 1.1.3.67.r empty 0 -9
0 10 -228856 -228856 -228856 0 1;
#X obj 80 252 vsl 16 18 99 99 0 0 1.global.s 1.1.8.0.r empty 0 -9 0
10 -228856 -228856 -228856 0 1;
#X obj 96 252 vsl 16 18 100 100 0 0 1.global.s 1.1.8.1.r empty 0 -9
0 10 -228856 -228856 -228856 0 1;
#X obj 112 252 vsl 16 18 101 101 0 0 1.global.s 1.1.8.2.r empty 0 -9
0 10 -228856 -228856 -228856 0 1;
#X obj 144 252 vsl 16 18 102 102 0 0 1.global.s 1.1.8.4.r empty 0 -9
0 10 -228856 -228856 -228856 0 1;
#X obj 160 252 vsl 16 18 103 103 0 0 1.global.s 1.1.8.5.r empty 0 -9
0 10 -228856 -228856 -228856 0 1;
#X obj 176 252 vsl 16 18 104 104 0 0 1.global.s 1.1.8.6.r empty 0 -9
0 10 -228856 -228856 -228856 0 1;
#X obj 208 252 vsl 16 18 105 105 0 0 1.global.s 1.1.8.8.r empty 0 -9
0 10 -228856 -228856 -228856 0 1;
#X obj 224 252 vsl 16 18 106 106 0 0 1.global.s 1.1.8.9.r empty 0 -9
0 10 -228856 -228856 -228856 0 1;
#X obj 240 252 vsl 16 18 107 107 0 0 1.global.s 1.1.8.10.r empty 0
-9 0 10 -228856 -228856 -228856 0 1;
#X obj 256 252 vsl 16 18 108 108 0 0 1.global.s 1.1.8.11.r empty 0
-9 0 10 -228856 -228856 -228856 0 1;
#X obj 288 252 vsl 16 18 109 109 0 0 1.global.s 1.1.8.13.r empty 0
-9 0 10 -228856 -228856 -228856 0 1;
#X obj 304 252 vsl 16 18 110 110 0 0 1.global.s 1.1.8.14.r empty 0
-9 0 10 -228856 -228856 -228856 0 1;
#X obj 336 252 vsl 16 18 111 111 0 0 1.global.s 1.1.8.16.r empty 0
-9 0 10 -228856 -228856 -228856 0 1;
#X obj 352 252 vsl 16 18 112 112 0 0 1.global.s 1.1.8.17.r empty 0
-9 0 10 -187246 -187246 -1 0 1;
#X obj 368 252 vsl 16 18 113 113 0 0 1.global.s 1.1.8.18.r empty 0
-9 0 10 -187246 -187246 -1 0 1;
#X obj 384 252 vsl 16 18 114 114 0 0 1.global.s 1.1.8.19.r empty 0
-9 0 10 -228856 -228856 -228856 0 1;
#X obj 400 252 vsl 16 18 115 115 0 0 1.global.s 1.1.8.20.r empty 0
-9 0 10 -228856 -228856 -228856 0 1;
#X obj 416 252 vsl 16 18 116 116 0 0 1.global.s 1.1.8.21.r empty 0
-9 0 10 -187246 -187246 -1 0 1;
#X obj 432 252 vsl 16 18 117 117 0 0 1.global.s 1.1.8.22.r empty 0
-9 0 10 -187246 -187246 -1 0 1;
#X obj 448 252 vsl 16 18 118 118 0 0 1.global.s 1.1.8.23.r empty 0
-9 0 10 -228856 -228856 -228856 0 1;
#X obj 464 252 vsl 16 18 119 119 0 0 1.global.s 1.1.8.24.r empty 0
-9 0 10 -228856 -228856 -228856 0 1;
#X obj 480 252 vsl 16 18 120 120 0 0 1.global.s 1.1.8.25.r empty 0
-9 0 10 -228856 -228856 -228856 0 1;
#X obj 496 252 vsl 16 18 121 121 0 0 1.global.s 1.1.8.26.r empty 0
-9 0 10 -228856 -228856 -228856 0 1;
#X obj 512 252 vsl 16 18 122 122 0 0 1.global.s 1.1.8.27.r empty 0
-9 0 10 -228856 -228856 -228856 0 1;
#X obj 528 252 vsl 16 18 123 123 0 0 1.global.s 1.1.8.28.r empty 0
-9 0 10 -228856 -228856 -228856 0 1;
#X obj 544 252 vsl 16 18 124 124 0 0 1.global.s 1.1.8.29.r empty 0
-9 0 10 -228856 -228856 -228856 0 1;
#X obj 560 252 vsl 16 18 125 125 0 0 1.global.s 1.1.8.30.r empty 0
-9 0 10 -228856 -228856 -228856 0 1;
#X obj 576 252 vsl 16 18 126 126 0 0 1.global.s 1.1.8.31.r empty 0
-9 0 10 -228856 -228856 -228856 0 1;
#X obj 80 455 vsl 16 18 127 127 0 0 1.global.s 1.1.15.0.r empty 0 -9
0 10 -228856 -228856 -228856 0 1;
#X obj 96 455 vsl 16 18 128 128 0 0 1.global.s 1.1.15.1.r empty 0 -9
0 10 -228856 -228856 -228856 0 1;
#X obj 112 455 vsl 16 18 129 129 0 0 1.global.s 1.1.15.2.r empty 0
-9 0 10 -228856 -228856 -228856 0 1;
#X obj 128 455 vsl 16 18 130 130 0 0 1.global.s 1.1.15.3.r empty 0
-9 0 10 -228856 -228856 -228856 0 1;
#X obj 144 455 vsl 16 18 131 131 0 0 1.global.s 1.1.15.4.r empty 0
-9 0 10 -228856 -228856 -228856 0 1;
#X obj 160 455 vsl 16 18 132 132 0 0 1.global.s 1.1.15.5.r empty 0
-9 0 10 -228856 -228856 -228856 0 1;
#X obj 176 455 vsl 16 18 133 133 0 0 1.global.s 1.1.15.6.r empty 0
-9 0 10 -228856 -228856 -228856 0 1;
#X obj 192 455 vsl 16 18 134 134 0 0 1.global.s 1.1.15.7.r empty 0
-9 0 10 -228856 -228856 -228856 0 1;
#X obj 208 455 vsl 16 18 135 135 0 0 1.global.s 1.1.15.8.r empty 0
-9 0 10 -228856 -228856 -228856 0 1;
#X obj 224 455 vsl 16 18 136 136 0 0 1.global.s 1.1.15.9.r empty 0
-9 0 10 -228856 -228856 -228856 0 1;
#X obj 240 455 vsl 16 18 137 137 0 0 1.global.s 1.1.15.10.r empty 0
-9 0 10 -228856 -228856 -228856 0 1;
#X obj 256 455 vsl 16 18 138 138 0 0 1.global.s 1.1.15.11.r empty 0
-9 0 10 -228856 -228856 -228856 0 1;
#X obj 272 455 vsl 16 18 139 139 0 0 1.global.s 1.1.15.12.r empty 0
-9 0 10 -228856 -228856 -228856 0 1;
#X obj 288 455 vsl 16 18 140 140 0 0 1.global.s 1.1.15.13.r empty 0
-9 0 10 -228856 -228856 -228856 0 1;
#X obj 304 455 vsl 16 18 141 141 0 0 1.global.s 1.1.15.14.r empty 0
-9 0 10 -228856 -228856 -228856 0 1;
#X obj 320 455 vsl 16 18 142 142 0 0 1.global.s 1.1.15.15.r empty 0
-9 0 10 -228856 -228856 -228856 0 1;
#X obj 336 455 vsl 16 18 143 143 0 0 1.global.s 1.1.15.16.r empty 0
-9 0 10 -228856 -228856 -228856 0 1;
#X obj 352 455 vsl 16 18 144 144 0 0 1.global.s 1.1.15.17.r empty 0
-9 0 10 -228856 -228856 -228856 0 1;
#X obj 368 455 vsl 16 18 145 145 0 0 1.global.s 1.1.15.18.r empty 0
-9 0 10 -228856 -228856 -228856 0 1;
#X obj 384 455 vsl 16 18 146 146 0 0 1.global.s 1.1.15.19.r empty 0
-9 0 10 -228856 -228856 -228856 0 1;
#X obj 400 455 vsl 16 18 147 147 0 0 1.global.s 1.1.15.20.r empty 0
-9 0 10 -228856 -228856 -228856 0 1;
#X obj 432 455 vsl 16 18 148 148 0 0 1.global.s 1.1.15.22.r empty 0
-9 0 10 -228856 -228856 -228856 0 1;
#X obj 448 455 vsl 16 18 149 149 0 0 1.global.s 1.1.15.23.r empty 0
-9 0 10 -228856 -228856 -228856 0 1;
#X obj 480 455 vsl 16 18 150 150 0 0 1.global.s 1.1.15.25.r empty 0
-9 0 10 -228856 -228856 -228856 0 1;
#X obj 496 455 vsl 16 18 151 151 0 0 1.global.s 1.1.15.26.r empty 0
-9 0 10 -228856 -228856 -228856 0 1;
#X obj 512 455 vsl 16 18 152 152 0 0 1.global.s 1.1.15.27.r empty 0
-9 0 10 -228856 -228856 -228856 0 1;
#X obj 528 455 vsl 16 18 153 153 0 0 1.global.s 1.1.15.28.r empty 0
-9 0 10 -228856 -228856 -228856 0 1;
#X obj 544 455 vsl 16 18 154 154 0 0 1.global.s 1.1.15.29.r empty 0
-9 0 10 -228856 -228856 -228856 0 1;
#X obj 560 455 vsl 16 18 155 155 0 0 1.global.s 1.1.15.30.r empty 0
-9 0 10 -228856 -228856 -228856 0 1;
#X obj 576 455 vsl 16 18 156 156 0 0 1.global.s 1.1.15.31.r empty 0
-9 0 10 -228856 -228856 -228856 0 1;
#X obj 592 455 vsl 16 18 157 157 0 0 1.global.s 1.1.15.32.r empty 0
-9 0 10 -228856 -228856 -228856 0 1;
#X obj 608 455 vsl 16 18 158 158 0 0 1.global.s 1.1.15.33.r empty 0
-9 0 10 -228856 -228856 -228856 0 1;
#X obj 624 455 vsl 16 18 159 159 0 0 1.global.s 1.1.15.34.r empty 0
-9 0 10 -228856 -228856 -228856 0 1;
#X obj 640 455 vsl 16 18 160 160 0 0 1.global.s 1.1.15.35.r empty 0
-9 0 10 -228856 -228856 -228856 0 1;
#X obj 656 455 vsl 16 18 161 161 0 0 1.global.s 1.1.15.36.r empty 0
-9 0 10 -228856 -228856 -228856 0 1;
#X obj 672 455 vsl 16 18 162 162 0 0 1.global.s 1.1.15.37.r empty 0
-9 0 10 -228856 -228856 -228856 0 1;
#X obj 688 455 vsl 16 18 163 163 0 0 1.global.s 1.1.15.38.r empty 0
-9 0 10 -228856 -228856 -228856 0 1;
#X obj 704 455 vsl 16 18 164 164 0 0 1.global.s 1.1.15.39.r empty 0
-9 0 10 -228856 -228856 -228856 0 1;
#X obj 720 455 vsl 16 18 165 165 0 0 1.global.s 1.1.15.40.r empty 0
-9 0 10 -228856 -228856 -228856 0 1;
#X restore -368 -4 pd \$1-qseq3;
#N canvas 647 382 450 300 NETPD 0;
#X msg 15 15 version 0 0 0;
#X msg 14 38 singleton;
#N canvas 530 44 450 300 abslist 0;
#X msg 10 17 qseq3-id2path;
#X restore 21 88 pd abslist;
#X restore -369 22 pd NETPD;
#X floatatom -295 26 5 0 0 0 - - -;
#X floatatom -260 46 5 0 0 0 - - -;
#X text -223 46 width;
#X obj -300 93 pack f f f;
#X floatatom -236 66 5 0 0 0 - - -;
#X text -197 64 row (seq-id);
#X text -256 24 x-pos (element-id);
#N canvas 530 44 453 369 seq.creator 1;
#X obj -212 303 s pd-\$1-qseq3;
#N canvas 564 128 172 230 x-pos-by-elemnt-id 0;
#X msg -208 88 \$4;
#X obj -271 28 inlet;
#X obj -271 182 outlet;
#X obj -208 111 * 8;
#X obj -271 160 list append;
#X msg -177 88 \$5;
#X obj -271 54 t a a a;
#X obj -208 133 + 80;
#X connect 0 0 3 0;
#X connect 1 0 6 0;
#X connect 3 0 7 0;
#X connect 4 0 2 0;
#X connect 5 0 3 1;
#X connect 6 0 4 0;
#X connect 6 1 0 0;
#X connect 6 2 5 0;
#X connect 7 0 4 1;
#X restore -212 129 pd x-pos-by-elemnt-id;
#X obj -212 80 list prepend \$1;
#X msg -275 262 clear;
#X text -122 104 patch-id pattern-id seq-id element-id width;
#X msg -212 106 \$1 1 \$4 \$2 \$3;
#N canvas 564 212 172 230 y-pos-by-seq-id 0;
#X obj -271 28 inlet;
#X obj -271 182 outlet;
#X obj -208 133 + 20;
#X obj -271 160 list append;
#X msg -208 88 \$3;
#X obj -271 54 t a a;
#X obj -208 111 * 29;
#X connect 0 0 5 0;
#X connect 2 0 3 1;
#X connect 3 0 1 0;
#X connect 4 0 6 0;
#X connect 5 0 3 0;
#X connect 5 1 4 0;
#X connect 6 0 2 0;
#X restore -212 153 pd y-pos-by-seq-id;
#X obj -275 48 route clear;
#X obj -275 15 inlet;
#N canvas 438 286 450 300 add.object.id 0;
#X obj 15 15 inlet;
#X obj 15 271 outlet;
#X obj 15 239 list append;
#X obj 78 62 f;
#X obj 113 61 + 1;
#X obj 62 126 tabwrite \$1.pattern/id;
#X obj 46 174 tabwrite \$1.seq/id;
#X obj 30 217 tabwrite \$1.element/id;
#X obj 78 84 t a a;
#X obj 15 37 t a a a a b;
#X msg 62 105 \$2;
#X msg 30 196 \$4;
#X msg 46 150 \$3;
#X obj 93 12 r \$0.reset;
#X msg 93 34 0;
#X connect 0 0 9 0;
#X connect 2 0 1 0;
#X connect 3 0 4 0;
#X connect 3 0 8 0;
#X connect 4 0 3 1;
#X connect 8 0 2 1;
#X connect 8 1 5 1;
#X connect 8 1 6 1;
#X connect 8 1 7 1;
#X connect 9 0 2 0;
#X connect 9 1 11 0;
#X connect 9 2 12 0;
#X connect 9 3 10 0;
#X connect 9 4 3 0;
#X connect 10 0 5 0;
#X connect 11 0 7 0;
#X connect 12 0 6 0;
#X connect 13 0 14 0;
#X connect 14 0 3 1;
#X restore -212 174 pd add.object.id;
#X obj -264 197 r \$0.reset;
#X msg -212 221 obj \$6 \$7 vsl \$5 18 \$8 \$8 0 0 \$1.global.s \$1.\$2.\$3.\$4.r
empty 0 -9 0 10 -228856 -228856 -228856 0 1;
#X connect 1 0 6 0;
#X connect 2 0 5 0;
#X connect 3 0 0 0;
#X connect 5 0 1 0;
#X connect 6 0 9 0;
#X connect 7 0 3 0;
#X connect 7 1 2 0;
#X connect 8 0 7 0;
#X connect 9 0 11 0;
#X connect 10 0 3 0;
#X connect 11 0 0 0;
#X restore -300 123 pd seq.creator;
#X obj 179 231 table \$1.pattern/id 10000;
#X obj 179 252 table \$1.seq/id 10000;
#X obj 179 273 table \$1.element/id 10000;
#X obj 179 294 table \$1.value/id 10000;
#X obj 143 16 bng 15 250 50 0 empty empty empty 17 7 0 10 -262144 -1
-1;
#X obj 143 36 s \$0.reset;
#X obj 182 80 r \$0.reset;
#X obj 182 123 \$1;
#X msg 182 101 bang;
#X msg 182 146 \; \$1.pattern/id const 0 \; \$1.seq/id const 0 \; \$1.element/id
const 0 \; \$1.value/id const 0 \;;
#X obj -330 390 vsl 70 18 0 0 0 0 1.global.s 1.1.0.0.r empty 3 7 0
10 -261234 -261234 -66577 0 1;
#X obj -329 389 cnv 10 68 10 empty empty 2-drum-delta 2 6 1 9 -233017
-66577 0;
#X obj -329 400 cnv 10 68 10 empty empty kick1 2 6 1 9 -233017 -66577
0;
#X obj -320 420 vsl 70 18 0 0 0 0 1.global.s 1.1.0.0.r empty 3 7 0
10 -261234 -261234 -66577 0 1;
#X obj -319 419 cnv 10 68 10 empty empty 2-drum-delta 2 6 1 9 -233017
-66577 0;
#X obj -319 430 cnv 10 68 10 empty empty kick1 2 6 1 9 -233017 -66577
0;
#N canvas 653 169 413 470 element.toggler 0;
#X obj 128 336 netpd-rgb2iem;
#X obj -70 19 r \$1.global.s;
#X obj -70 41 t a a;
#X obj -36 107 == 0;
#X obj -70 63 qseq3-id2path \$1;
#X obj -9 152 tabwrite \$1.value/id;
#X obj -70 85 list split 3;
#X obj -36 130 t a a;
#X obj -70 175 list append;
#X obj 94 251 list split 3;
#X obj 128 274 sel 0 1;
#X msg 128 314 220 220 220;
#X obj 94 359 list append;
#X obj 94 381 list prepend \$1;
#X msg 94 403 \; \$1.\$2.\$3.\$4.r color \$5 \$5 -1;
#X msg 147 295 180 180 180;
#X obj -70 197 t a a;
#X obj -70 219 list prepend element;
#X obj -70 241 list trim;
#X obj -70 263 outlet;
#X connect 0 0 12 1;
#X connect 1 0 2 0;
#X connect 2 0 4 0;
#X connect 2 1 5 1;
#X connect 3 0 7 0;
#X connect 4 0 6 0;
#X connect 6 0 8 0;
#X connect 6 1 3 0;
#X connect 7 0 8 1;
#X connect 7 1 5 0;
#X connect 8 0 16 0;
#X connect 9 0 12 0;
#X connect 9 1 10 0;
#X connect 10 0 11 0;
#X connect 10 1 15 0;
#X connect 11 0 0 0;
#X connect 12 0 13 0;
#X connect 13 0 14 0;
#X connect 15 0 0 0;
#X connect 16 0 17 0;
#X connect 16 1 9 0;
#X connect 17 0 18 0;
#X connect 18 0 19 0;
#X restore -64 36 pd element.toggler;
#X obj -64 58 print -n;
#N canvas 590 345 450 300 groups.guis 0;
#N canvas 0 746 450 300 \$1-group1 1;
#X restore 9 11 pd \$1-group1;
#N canvas 0 746 450 300 \$1-group2 0;
#X restore 9 33 pd \$1-group2;
#N canvas 0 746 450 300 \$1-group3 0;
#X restore 9 56 pd \$1-group3;
#N canvas 0 746 450 300 \$1-group4 0;
#X restore 9 78 pd \$1-group4;
#X restore -218 227 pd groups.guis;
#X connect 2 0 5 0;
#X connect 3 0 5 1;
#X connect 5 0 9 0;
#X connect 6 0 5 2;
#X connect 14 0 15 0;
#X connect 16 0 18 0;
#X connect 17 0 19 0;
#X connect 18 0 17 0;
#X connect 26 0 27 0;
