#N canvas 585 170 426 287 10;
#X declare -stdlib extra/iemmatrix -stdpath extra/iemmatrix;
#X declare -stdpath extra/zexy -stdlib extra/zexy;
#X declare -stdpath extra/iemmatrix -stdlib extra/iemmatrix;
#N canvas 624 75 373 157 NETPD 0;
#N canvas 954 413 236 127 abslist 0;
#X msg 8 17 i2mx;
#X msg 9 39 jamx;
#X restore 12 33 pd abslist;
#X msg 12 8 version 0 0 4;
#X restore 10 14 pd NETPD 2 0;
#N canvas 704 370 402 141 \$1-rtfm 0;
#X obj 97 37 nbx 5 14 -1e+37 1e+37 0 0 \$1-x2 \$1-x2 x2 0 -8 0 10 -262144
-1 -1 2 256;
#X obj 39 37 nbx 5 14 -1e+37 1e+37 0 0 \$1-x1 \$1-x1 x1 0 -8 0 10 -262144
-1 -1 3 256;
#X obj 40 102 hsl 110 15 0 0.5 0 0 \$1-stereo \$1-stereo stereo -2
-8 0 10 -262144 -1 -1 0 1;
#X text 211 78 RTFM (there is no manual);
#X obj 163 102 nbx 5 14 -1e+37 1e+37 0 0 \$1-phmod \$1-phmod phmod
0 -8 0 10 -262144 -1 -1 1 256;
#X obj 271 36 bng 15 250 50 0 \$1-open-jam empty jamx 17 7 0 10 -262144
-1 -1;
#X obj 41 70 hsl 110 15 0 1 0 0 \$1-index \$1-index index -2 -8 0 10
-262144 -1 -1 1090 1;
#X restore 10 66 pd \$1-rtfm;
#X obj 10 40 netpd_head \$1 rtfm;
#N canvas 585 92 487 468 dsp 0;
#X obj 8 410 outlet~;
#X obj 63 410 outlet~;
#X obj 207 410 outlet;
#X obj 11 12 r \$1-rtfm;
#X msg 11 34 \$1;
#X obj 11 87 phasor~;
#X obj 81 196 *~;
#X obj 8 338 cos~;
#X obj 25 263 cos~;
#X obj 10 195 *~;
#X obj 9 310 +~;
#X obj 24 287 *~;
#X obj 26 240 +~;
#X obj 11 65 mtof;
#X obj 24 164 samphold~;
#X obj 96 164 samphold~;
#X obj 9 376 *~;
#X obj 160 164 phasor~;
#X obj 63 339 cos~;
#X obj 81 266 cos~;
#X obj 64 311 +~;
#X obj 80 290 *~;
#X obj 82 243 +~;
#X obj 63 377 *~;
#X msg 249 146 \$1 30;
#X obj 249 168 line~;
#X obj 96 220 +~;
#X obj 91 45 netpd_f \$1 x1 3;
#X obj 96 75 netpd_f \$1 x2 2;
#X obj 160 98 netpd_f \$1 phmod 1;
#X obj 249 123 netpd_f \$1 stereo 0;
#X obj 121 305 loadbang;
#X floatatom 111 133 5 0 0 0 - - -, f 5;
#X obj 274 203 netpd_f \$1 index 0.1;
#X msg 274 224 \$1 30;
#X obj 274 246 line~;
#X msg 128 338 0.5;
#X connect 3 0 4 0;
#X connect 4 0 13 0;
#X connect 5 0 6 0;
#X connect 5 0 9 0;
#X connect 5 0 14 1;
#X connect 5 0 15 1;
#X connect 6 0 12 0;
#X connect 6 0 22 0;
#X connect 7 0 16 0;
#X connect 8 0 11 0;
#X connect 9 0 10 0;
#X connect 9 0 20 0;
#X connect 10 0 7 0;
#X connect 11 0 10 1;
#X connect 12 0 8 0;
#X connect 13 0 5 0;
#X connect 14 0 9 1;
#X connect 15 0 6 1;
#X connect 16 0 0 0;
#X connect 17 0 12 1;
#X connect 17 0 26 0;
#X connect 18 0 23 0;
#X connect 19 0 21 0;
#X connect 20 0 18 0;
#X connect 21 0 20 1;
#X connect 22 0 19 0;
#X connect 23 0 1 0;
#X connect 24 0 25 0;
#X connect 25 0 26 1;
#X connect 26 0 22 1;
#X connect 27 0 14 0;
#X connect 28 0 15 0;
#X connect 28 0 32 0;
#X connect 29 0 17 0;
#X connect 30 0 24 0;
#X connect 31 0 36 0;
#X connect 33 0 34 0;
#X connect 34 0 35 0;
#X connect 35 0 21 1;
#X connect 35 0 11 1;
#X connect 36 0 23 1;
#X connect 36 0 16 1;
#X restore 20 168 pd dsp;
#X obj 19 204 i2mx \$1 rtfm;
#X obj 19 226 switch~;
#X text 169 246 Author: Roman Haefeli;
#X obj 11 93 jamx \$1 rtfm 3;
#X obj 145 45 unstep \$1 rtfm attack decay sustain release;
#X connect 3 0 4 0;
#X connect 3 1 4 1;
#X connect 3 2 4 2;
#X connect 4 0 5 0;
