#N canvas 648 44 485 455 10;
#N canvas 624 75 332 68 NETPD 0;
#N canvas 315 75 336 156 abslist 0;
#X msg 17 15 master-param;
#X msg 17 46 i2mx;
#X restore 12 34 pd abslist;
#X msg 12 8 version 0 0 2;
#X restore 10 14 pd NETPD 2 0;
#X obj 9 68 netpd_head \$1 simplesample;
#N canvas 585 426 297 72 \$1-simplesample 1;
#X obj 9 16 nbx 5 30 1 99 0 0 \$1-length \$1-length length 0 -8 0 10
-262144 -1 -1 16 256;
#X obj 80 17 tgl 30 0 \$1-playback \$1-playback playback 0 -8 0 10
-4034 -1 -1 0 1;
#X obj 187 16 nbx 5 30 1 99 0 0 \$1-instance \$1-instance instance
0 -8 0 10 -262144 -1 -1 2 256;
#X obj 80 17 bng 13 250 50 0 \$0.bla \$0.play.light empty 17 7 0 10
-4034 -1 -1;
#X obj 135 16 bng 30 250 50 0 \$0.record \$0.bli record 0 -8 0 10 -258113
-1 -1;
#X obj 135 16 tgl 13 0 \$0.bla \$0.rec.light empty 17 7 0 10 -258113
-1 -1 0 1;
#X restore 10 42 pd \$1-simplesample;
#X obj 11 215 i2mx \$1 simplesample;
#X obj 269 281 table \$0.sample;
#X obj 323 51 master-param 16th;
#X obj 268 252 s \$0.sample;
#X obj 268 79 *;
#X msg 268 227 resize \$1;
#X obj 268 201 int;
#X obj 268 28 netpd_f \$1 length 16;
#X obj 11 116 master-param step;
#X obj 11 138 t a a;
#N canvas 242 136 316 318 playback 0;
#X obj 32 260 tabplay~ \$0.sample;
#X obj 32 134 mod;
#X obj 32 158 sel 0;
#X obj 65 37 netpd_f \$1 playback 0;
#X obj 65 59 t a a;
#X obj 32 87 spigot;
#X obj 92 203 sel 0;
#X msg 92 226 stop;
#X obj 38 179 s \$0.play.light;
#X obj 47 112 netpd_r \$1 length;
#X obj 32 11 inlet;
#X obj 32 288 outlet~;
#X connect 0 0 11 0;
#X connect 1 0 2 0;
#X connect 2 0 0 0;
#X connect 2 0 8 0;
#X connect 3 0 4 0;
#X connect 4 0 5 1;
#X connect 4 1 6 0;
#X connect 5 0 1 0;
#X connect 6 0 7 0;
#X connect 7 0 0 0;
#X connect 9 0 1 1;
#X connect 10 0 5 0;
#X restore 11 176 pd playback;
#N canvas 169 44 433 578 recorder 0;
#X obj 44 516 tabwrite~ \$0.sample;
#X obj 58 419 netpd_f \$1 instance 0;
#X msg 58 467 set \$1.EVIL;
#X obj 137 490 s~ \$0.EVIL;
#X obj 58 490 r~ \$0.EVIL;
#X obj 58 441 route 0;
#X obj 44 4 inlet;
#X obj 157 33 r \$0.record;
#X obj 157 77 f;
#X obj 229 83 netpd_r \$1 length;
#X obj 157 101 + 5;
#X obj 157 124 div;
#X obj 157 166 *;
#X obj 157 146 + 1;
#X obj 44 26 t a a a;
#X obj 157 189 netpd_s \$1 recordstart;
#X obj 157 230 moses;
#X obj 157 208 netpd_r \$1 recordstart;
#X obj 157 281 print \$1-simplesample;
#X msg 157 259 Error: missed recording start time;
#X obj 44 272 sel 0;
#X obj 77 379 s \$0.rec.light;
#X msg 77 347 1;
#X msg 116 352 0;
#X obj 116 330 delay 1000;
#X obj 186 330 r \$0.length(ms);
#X connect 1 0 5 0;
#X connect 2 0 4 0;
#X connect 4 0 0 0;
#X connect 5 1 2 0;
#X connect 6 0 14 0;
#X connect 7 0 8 0;
#X connect 8 0 10 0;
#X connect 9 0 11 1;
#X connect 9 0 12 1;
#X connect 10 0 11 0;
#X connect 11 0 13 0;
#X connect 12 0 15 0;
#X connect 13 0 12 0;
#X connect 14 0 20 0;
#X connect 14 1 8 1;
#X connect 14 2 16 1;
#X connect 16 0 19 0;
#X connect 16 1 20 1;
#X connect 17 0 16 0;
#X connect 19 0 18 0;
#X connect 20 0 0 0;
#X connect 20 0 22 0;
#X connect 20 0 24 0;
#X connect 22 0 21 0;
#X connect 23 0 21 0;
#X connect 24 0 23 0;
#X connect 25 0 24 1;
#X restore 90 176 pd recorder;
#X obj 268 108 t a a;
#N canvas 136 124 209 195 ms2samples 0;
#X obj 17 36 t a b;
#X obj 44 58 samplerate~;
#X obj 17 79 *;
#X obj 17 101 / 1000;
#X obj 17 9 inlet;
#X obj 17 124 outlet;
#X connect 0 0 2 0;
#X connect 0 1 1 0;
#X connect 1 0 2 1;
#X connect 2 0 3 0;
#X connect 3 0 5 0;
#X connect 4 0 0 0;
#X restore 268 179 pd ms2samples;
#X obj 295 132 s \$0.length(ms);
#N canvas 943 416 449 196 force_trigger_dsp 0;
#N canvas 0 184 256 177 \$0.deleteme 0;
#X restore 20 15 pd \$0.deleteme;
#X obj 27 58 loadbang;
#X obj 27 134 s pd-\$0.deleteme;
#X msg 27 82 obj 10 10 osc~ 200 \, obj 10 30 s~ 10002.blu \, connect
0 0 1 0 \, clear;
#X connect 1 0 3 0;
#X connect 3 0 2 0;
#X restore 115 13 pd force_trigger_dsp;
#X connect 5 0 7 1;
#X connect 7 0 15 0;
#X connect 8 0 6 0;
#X connect 9 0 8 0;
#X connect 10 0 7 0;
#X connect 11 0 12 0;
#X connect 12 0 13 0;
#X connect 12 1 14 0;
#X connect 13 0 3 0;
#X connect 13 0 3 1;
#X connect 15 0 16 0;
#X connect 15 1 17 0;
#X connect 16 0 9 0;
