#N canvas 388 50 462 419 10;
#N canvas 618 57 332 68 NETPD 0;
#N canvas 312 66 336 156 abslist 0;
#X msg 12 46 master-param;
#X msg 12 77 i2mx;
#X msg 15 11 simplesample-section;
#X restore 12 34 pd abslist;
#X msg 13 8 version 0 0 6;
#X restore 10 14 pd NETPD 2 0;
#X obj 9 68 netpd_head \$1 simplesample;
#N canvas 667 270 323 299 \$1-simplesample 0;
#X obj 4 80 simplesample-section \$1 1;
#X obj 4 16 cnv 15 303 30 empty empty empty 20 12 0 14 -233017 -66577
0;
#N canvas 0 50 450 300 (subpatch) 0;
#X array \$1.sample 88200 float 2;
#X coords 0 1 88200 -1 233 30 1 0 0;
#X restore 19 16 graph;
#X obj 21 61 hsl 230 15 0 1 0 0 \$0.playback.cursor \$0.playback.cursor.r
empty -2 -8 0 10 -225271 -225271 -1 0 1;
#X obj 4 61 tgl 15 0 \$1-playback \$1-playback playback 20 8 0 10 -4034
-1 -1 0 1;
#X obj 21 46 hsl 230 15 0 1 0 0 \$0.record.cursor \$0.record.cursor.r
empty -2 -8 0 10 -261689 -261689 -1 0 1;
#X obj 4 46 bng 15 250 50 0 \$0.record \$0.bli record 20 8 0 10 -258113
-1 -1;
#X obj 252 46 nbx 5 15 1 99 0 0 \$1-instance \$1-instance instance
-50 8 0 10 -191407 -1 -1 1 256;
#X obj 252 61 nbx 5 15 1 999 0 0 \$1-length \$1-length length -50 8
0 10 -191407 -1 -1 16 256;
#X obj 4 146 simplesample-section \$1 3;
#X obj 4 113 simplesample-section \$1 2;
#X obj 4 179 simplesample-section \$1 4;
#X obj 4 212 simplesample-section \$1 5;
#X obj 4 245 simplesample-section \$1 6;
#X restore 10 42 pd \$1-simplesample;
#X obj 11 215 i2mx \$1 simplesample;
#X obj 323 51 master-param 16th;
#X obj 268 79 *;
#X msg 268 227 resize \$1;
#X obj 268 201 int;
#X obj 268 28 netpd_f \$1 length 16;
#X obj 11 116 master-param step;
#X obj 11 138 t a a;
#N canvas 215 55 337 368 playback 0;
#X obj 32 134 mod;
#X obj 32 158 sel 0;
#X obj 65 37 netpd_f \$1 playback 0;
#X obj 65 59 t a a;
#X obj 32 87 spigot;
#X obj 92 203 sel 0;
#X msg 92 226 stop;
#X obj 47 112 netpd_r \$1 length;
#X obj 32 11 inlet;
#X obj 32 288 outlet~;
#N canvas 841 412 484 300 gui-stuff 0;
#X obj 22 200 s \$0.playback.cursor.r;
#X msg 22 95 0 \, 1 \$1;
#X obj 22 18 inlet;
#X obj 22 72 f;
#X obj 135 68 sel 0;
#X msg 135 90 0;
#X obj 223 15 netpd_r \$1 playback;
#X obj 190 202 s \$0.playback.cursor.r;
#X msg 190 153 -1;
#X obj 190 117 spigot;
#X obj 234 117 sel 0;
#X obj 22 123 line 0 40;
#X msg 190 178 color 6 \$1 -1;
#X msg 234 151 6;
#X obj 37 41 r \$1.length(ms);
#X connect 1 0 11 0;
#X connect 2 0 3 0;
#X connect 2 0 9 0;
#X connect 3 0 1 0;
#X connect 4 0 5 0;
#X connect 5 0 11 0;
#X connect 6 0 4 0;
#X connect 6 0 9 1;
#X connect 6 0 10 0;
#X connect 8 0 12 0;
#X connect 9 0 8 0;
#X connect 10 0 13 0;
#X connect 11 0 0 0;
#X connect 12 0 7 0;
#X connect 13 0 12 0;
#X connect 14 0 3 1;
#X restore 155 205 pd gui-stuff;
#X obj 32 260 tabplay~ \$1.sample;
#X connect 0 0 1 0;
#X connect 1 0 10 0;
#X connect 1 0 11 0;
#X connect 2 0 3 0;
#X connect 3 0 4 1;
#X connect 3 1 5 0;
#X connect 4 0 0 0;
#X connect 5 0 6 0;
#X connect 6 0 11 0;
#X connect 7 0 0 1;
#X connect 8 0 4 0;
#X connect 11 0 9 0;
#X restore 11 176 pd playback;
#N canvas 151 50 433 578 recorder 0;
#X obj 58 419 netpd_f \$1 instance 0;
#X msg 58 467 set \$1.EVIL;
#X obj 58 441 route 0;
#X obj 44 4 inlet;
#X obj 157 33 r \$0.record;
#X obj 157 77 f;
#X obj 229 83 netpd_r \$1 length;
#X obj 157 101 + 5;
#X obj 157 124 div;
#X obj 157 166 *;
#X obj 157 146 + 1;
#X obj 44 26 t a a a;
#X obj 157 189 netpd_s \$1 recordstart;
#X obj 157 230 moses;
#X obj 157 210 netpd_r \$1 recordstart;
#X obj 157 281 print \$1-simplesample;
#X msg 157 259 Error: missed recording start time;
#X obj 64 356 delay 1000;
#X obj 64 382 s \$0.changed;
#X msg 102 271 -1;
#X obj 44 272 sel -1;
#N canvas 841 412 484 300 gui-stuff 0;
#X msg 22 149 0 \, 1 \$1;
#X obj 22 18 inlet;
#X obj 22 63 f;
#X msg 190 153 -1;
#X obj 22 173 line 0 40;
#X msg 217 131 3;
#X msg 190 178 color 3 \$1 -1;
#X obj 190 202 s \$0.record.cursor.r;
#X obj 22 85 t a a;
#X obj 190 85 t b a;
#X obj 217 109 delay;
#X obj 22 200 s \$0.record.cursor.r;
#X obj 37 41 r \$1.length(ms);
#X connect 0 0 4 0;
#X connect 1 0 2 0;
#X connect 2 0 8 0;
#X connect 3 0 6 0;
#X connect 4 0 11 0;
#X connect 5 0 6 0;
#X connect 6 0 7 0;
#X connect 8 0 0 0;
#X connect 8 1 9 0;
#X connect 9 0 3 0;
#X connect 9 1 10 0;
#X connect 10 0 5 0;
#X connect 12 0 2 1;
#X restore 63 304 pd gui-stuff;
#X obj 121 330 r \$1.length(ms);
#X obj 137 490 s~ \$1.EVIL;
#X obj 58 490 r~ \$1.EVIL;
#X obj 44 516 tabwrite~ \$1.sample;
#X connect 0 0 2 0;
#X connect 1 0 24 0;
#X connect 2 1 1 0;
#X connect 3 0 11 0;
#X connect 4 0 5 0;
#X connect 5 0 7 0;
#X connect 6 0 8 1;
#X connect 6 0 9 1;
#X connect 7 0 8 0;
#X connect 8 0 10 0;
#X connect 9 0 12 0;
#X connect 10 0 9 0;
#X connect 11 0 20 0;
#X connect 11 1 5 1;
#X connect 11 2 13 1;
#X connect 13 0 16 0;
#X connect 13 1 20 1;
#X connect 14 0 13 0;
#X connect 16 0 15 0;
#X connect 17 0 18 0;
#X connect 19 0 20 1;
#X connect 20 0 17 0;
#X connect 20 0 19 0;
#X connect 20 0 21 0;
#X connect 20 0 25 0;
#X connect 22 0 17 1;
#X connect 24 0 25 0;
#X restore 90 176 pd recorder;
#X obj 268 108 t a a;
#N canvas 136 124 209 195 ms2samples 0;
#X obj 17 36 t a b;
#X obj 44 58 samplerate~;
#X obj 17 79 *;
#X obj 17 101 / 1000;
#X obj 17 9 inlet;
#X obj 17 124 outlet;
#X connect 0 0 2 0;
#X connect 0 1 1 0;
#X connect 1 0 2 1;
#X connect 2 0 3 0;
#X connect 3 0 5 0;
#X connect 4 0 0 0;
#X restore 268 179 pd ms2samples;
#N canvas 943 416 449 196 force_trigger_dsp 0;
#N canvas 0 184 256 177 \$0.deleteme 0;
#X restore 20 15 pd \$0.deleteme;
#X obj 27 58 loadbang;
#X obj 27 134 s pd-\$0.deleteme;
#X msg 27 82 obj 10 10 osc~ 200 \, obj 10 30 s~ 10002.blu \, connect
0 0 1 0 \, clear;
#X connect 1 0 3 0;
#X connect 3 0 2 0;
#X restore 115 13 pd force_trigger_dsp;
#N canvas 142 179 509 440 save_wav_data_with_preset 0;
#N canvas 439 245 334 292 timestamp 0;
#X obj 20 59 date . . .;
#X obj 20 126 makefilename %02d;
#X obj 31 106 makefilename %02d;
#X obj 42 85 makefilename %02d;
#X obj 147 124 makefilename %02d;
#X obj 158 104 makefilename %02d;
#X obj 169 83 makefilename %02d;
#X obj 20 163 pack s s s s s s;
#X obj 147 59 time .;
#X obj 20 36 t b b;
#X msg 20 186 \$1\$2\$3\$4\$5\$6;
#X obj 20 9 inlet;
#X obj 20 214 outlet;
#X connect 0 0 1 0;
#X connect 0 1 2 0;
#X connect 0 2 3 0;
#X connect 1 0 7 0;
#X connect 2 0 7 1;
#X connect 3 0 7 2;
#X connect 4 0 7 3;
#X connect 5 0 7 4;
#X connect 6 0 7 5;
#X connect 7 0 10 0;
#X connect 8 0 4 0;
#X connect 8 1 5 0;
#X connect 8 2 6 0;
#X connect 9 0 0 0;
#X connect 9 1 8 0;
#X connect 10 0 12 0;
#X connect 11 0 9 0;
#X restore 300 77 pd timestamp;
#X obj 300 98 list append \$1-simplesample.wav;
#N canvas 468 191 324 210 detect_preset_save 0;
#X obj 77 38 netpd-r /\$1/simplesample/dump/request;
#X obj 77 67 list append;
#X obj 77 90 select p;
#X msg 77 113 1;
#X msg 122 113 0;
#X obj 34 144 spigot;
#X obj 34 16 netpd-dump \$1;
#X obj 34 172 outlet;
#X connect 0 0 1 0;
#X connect 0 1 1 1;
#X connect 1 0 2 0;
#X connect 2 0 3 0;
#X connect 2 1 4 0;
#X connect 3 0 5 1;
#X connect 4 0 5 1;
#X connect 5 0 7 0;
#X connect 6 0 5 0;
#X restore 34 13 pd detect_preset_save;
#X obj 226 17 r \$0.changed;
#X msg 226 59 1;
#X obj 226 39 t b b;
#X obj 197 113 sel 1;
#X obj 197 135 t b b;
#X msg 252 118 0;
#X msg 300 120 symbol \$1_\$2;
#X obj 197 159 list append;
#X obj 197 91 f 0;
#X obj 34 40 t b b;
#X obj 34 192 symbol empty;
#X obj 34 217 select empty;
#X obj 34 293 netpd_s \$1 wav/filename;
#X obj 34 314 netpd_r \$1 wav/filename;
#X obj 197 227 s \$0.soundfiler;
#X obj 314 391 soundfiler;
#X obj 314 366 r \$0.soundfiler;
#X obj 34 398 s \$0.soundfiler;
#X obj 144 246 symbol;
#X obj 34 356 list append \$1;
#X obj 197 183 list append \$1;
#X msg 34 377 read -resize ../data/\$1 \$2.sample;
#X msg 197 205 write -bytes 2 ../data/\$1 \$2.sample;
#X connect 0 0 1 0;
#X connect 1 0 9 0;
#X connect 2 0 12 0;
#X connect 3 0 5 0;
#X connect 4 0 11 1;
#X connect 5 0 4 0;
#X connect 5 1 0 0;
#X connect 6 0 7 0;
#X connect 7 0 10 0;
#X connect 7 1 8 0;
#X connect 8 0 11 1;
#X connect 9 0 10 1;
#X connect 9 0 13 1;
#X connect 10 0 23 0;
#X connect 11 0 6 0;
#X connect 12 0 13 0;
#X connect 12 1 11 0;
#X connect 13 0 14 0;
#X connect 14 1 15 0;
#X connect 16 0 21 0;
#X connect 16 0 22 0;
#X connect 19 0 18 0;
#X connect 21 0 13 1;
#X connect 22 0 24 0;
#X connect 23 0 25 0;
#X connect 24 0 20 0;
#X connect 25 0 17 0;
#X restore 15 285 pd save_wav_data_with_preset;
#X text 15 308 no netpd syncing implemented yet!;
#X obj 295 132 s \$1.length(ms);
#X obj 268 252 s \$1.sample;
#X obj 16 364 qseq3-instr-list \$1 simplesample sample1 sample2 sample3
sample4 sample5 sample6;
#X connect 4 0 5 1;
#X connect 5 0 13 0;
#X connect 6 0 19 0;
#X connect 7 0 6 0;
#X connect 8 0 5 0;
#X connect 9 0 10 0;
#X connect 10 0 11 0;
#X connect 10 1 12 0;
#X connect 11 0 3 0;
#X connect 11 0 3 1;
#X connect 13 0 14 0;
#X connect 13 1 18 0;
#X connect 14 0 7 0;
