#N struct 1105.bg;
#N struct 1105.button float posx float value float fgclr float bgclr
;
#N struct 1106.bg;
#N struct 1106.button float posx float value float fgclr float bgclr
;
#N struct 1107.bg;
#N struct 1107.button float posx symbol param float fgclr float bgclr
symbol bla;
#N struct 1095.button symbol label float fgclr float bgclr;
#N struct 1096.number float number float fgclr;
#N struct 1097.number float number float fgclr;
#N struct 1098.number float number float fgclr;
#N struct 1110.bg;
#N struct 1110.button float posx float value float fgclr float bgclr
;
#N struct 1112.bg;
#N struct 1112.button float posx float value float fgclr float bgclr
;
#N struct 1111.bg;
#N struct 1111.button float posx symbol param float fgclr float bgclr
symbol bla;
#N struct 1102.button symbol label float fgclr float bgclr;
#N struct 1103.number float number float fgclr;
#N struct 1104.number float number float fgclr;
#N canvas 258 167 656 477 10;
#X declare -path ../abs;
#N canvas 643 64 685 330 \$1-structuralist 1;
#N canvas 0 44 774 397 rhythm.edit 0;
#X obj 20 37 struct_gop629x12 \$0.rhythm.selector;
#X obj 20 54 struct_gop629x12 \$0.rhythm.array;
#X obj 20 71 struct_gop629x12 \$0.rhythm.params;
#X obj 20 20 struct_button_ \$0.rhythm.create create 999 245 666;
#X obj 272 20 struct_number_ \$0.rhythm.length length= 999 245 666
;
#X obj 104 20 struct_number_ \$0.rhythm.ref ref= 999 245 666;
#X obj 188 20 struct_number_ \$0.rhythm.notes notes= 999 245 666;
#X obj 356 20 cnv 10 335 16 empty empty empty 20 12 0 14 -262144 -66577
0;
#X coords 0 -1 1 1 671 67 2 20 20;
#X restore 6 -385 pd rhythm.edit;
#X obj 7 -428 cnv 15 669 24 empty empty S|T|R|U|C|T|U|R|A|L|I|S|T -1
13 0 16 -262144 -67625 0;
#N canvas 0 44 774 397 rhythm.edit 0;
#X obj 20 37 struct_gop629x12 \$0.tone.selector;
#X obj 20 54 struct_gop629x12 \$0.tone.array;
#X obj 20 71 struct_gop629x12 \$0.tone.params;
#X obj 20 20 struct_button_ \$0.tone.create create 999 245 666;
#X obj 104 20 struct_number_ \$0.tone.ref ref= 999 245 666;
#X obj 356 20 cnv 10 335 16 empty empty empty 20 12 0 14 -262144 -66577
0;
#X obj 188 20 struct_number_ \$0.tone.rhythm rhythm= 999 245 666;
#X coords 0 -1 1 1 671 67 2 20 20;
#X restore 6 -300 pd rhythm.edit;
#X obj 7 -316 cnv 14 672 14 empty empty T/O/N/E 2 7 0 12 -45076 -262144
0;
#X obj 7 -401 cnv 14 672 14 empty empty R/H/Y/T/H/M 2 7 0 12 -45076
-262144 0;
#X coords 0 330 1 329 671 67 0;
#X restore 510 14 pd \$1-structuralist;
#N canvas 991 190 545 550 player 0;
#X floatatom 157 111 5 0 0 0 - - -, f 5;
#X obj 157 136 tabread \$0.pitch;
#X obj 184 182 + 2;
#X obj 184 204 tabread \$0.pitch;
#X obj 184 260 tabread \$0.rhythm;
#X text 207 109 pitch set;
#X text 205 232 rhythm set;
#X obj 387 347 + 2;
#X obj 387 367 tabread \$0.rhythm;
#X text 423 417 length;
#X floatatom 387 418 5 0 0 0 - - -, f 5;
#X obj 272 368 tabread \$0.rhythm;
#X obj 272 390 - 5;
#X floatatom 272 417 5 0 0 0 - - -, f 5;
#X text 306 417 notecount;
#X obj 157 158 t a a;
#X obj 157 181 + 5;
#X obj 31 280 +;
#X floatatom 31 201 5 0 0 0 - - -, f 5;
#X obj 31 361 tabread \$0.pitch;
#X floatatom 31 410 5 0 0 0 - - -, f 5;
#X text 65 410 pitch;
#X obj 184 282 t a a a;
#X obj 31 220 t a a;
#X obj 184 304 + 5;
#X obj 136 334 +;
#X floatatom 136 406 5 0 0 0 - - -, f 5;
#X text 170 406 rhythm;
#X text 66 200 index;
#X obj 136 361 tabread \$0.rhythm;
#X obj 35 121 bng 15 250 50 0 empty empty empty 17 7 0 10 -262144 -1
-1;
#X connect 0 0 1 0;
#X connect 1 0 15 0;
#X connect 2 0 3 0;
#X connect 3 0 4 0;
#X connect 4 0 22 0;
#X connect 7 0 8 0;
#X connect 8 0 10 0;
#X connect 11 0 12 0;
#X connect 12 0 13 0;
#X connect 15 0 16 0;
#X connect 15 1 2 0;
#X connect 16 0 17 1;
#X connect 17 0 19 0;
#X connect 18 0 23 0;
#X connect 19 0 20 0;
#X connect 22 0 24 0;
#X connect 22 1 11 0;
#X connect 22 2 7 0;
#X connect 23 0 17 0;
#X connect 23 1 25 0;
#X connect 24 0 25 1;
#X connect 25 0 29 0;
#X connect 29 0 26 0;
#X restore 25 424 pd player;
#X obj 505 62 declare -path ../abs;
#N canvas 213 198 797 536 rhythm.generate.logic 0;
#X obj 606 15 loadbang;
#X obj 606 37 \$0;
#X obj 439 48 route count;
#X obj 439 26 r \$0.rhythm.o;
#X msg 439 69 range 0 \$1;
#X obj 303 197 r \$0.rhythm.o;
#X obj 303 176 s \$0.rhythm.i;
#X obj 276 156 t b a;
#X obj 276 221 list append;
#X obj 68 157 route float;
#X obj 50 277 route float;
#X obj 145 437 route float;
#X obj 35 49 t b b b b;
#X obj 35 155 f;
#X obj 35 298 f;
#X msg 62 342 new \$1;
#X obj 62 364 s \$0.rhythm.i;
#X obj 35 437 list append;
#X msg 35 461 set \$1 length \$2;
#X obj 35 484 s \$0.rhythm.i;
#X obj 35 184 sel 0;
#X msg 62 208 alias \$1;
#X obj 62 230 s \$0.rhythm.i;
#X obj 276 99 t a a;
#X obj 249 74 sel 0;
#X obj 420 194 r \$0.rhythm.o;
#X obj 420 173 s \$0.rhythm.i;
#X obj 393 153 t b a;
#X obj 393 215 list append;
#X msg 393 131 resolve \$1 length;
#X msg 249 350 range \$1 \$2;
#X msg 393 326 range \$1 \$2;
#X msg 276 250 \$1 \$1;
#X msg 393 238 \$1 \$1;
#X obj 249 291 t b b;
#X msg 249 315 1 24;
#X msg 350 289 1 999;
#X obj 249 52 route float;
#X obj 8 27 t b b;
#X obj 8 504 s \$0.rhythm.update;
#X obj 72 411 route count;
#X obj 72 389 r \$0.rhythm.o;
#X obj 35 320 t b a;
#X obj 35 401 f;
#X msg 276 134 get \$1 size;
#X obj 8 5 r \$0.rhythm.create;
#X obj 86 72 s \$0.rhythm.length;
#X obj 69 92 s \$0.rhythm.notes;
#X obj 52 111 s \$0.rhythm.ref;
#X obj 68 135 r \$0.rhythm.ref;
#X obj 50 255 r \$0.rhythm.notes;
#X obj 145 415 r \$0.rhythm.length;
#X obj 249 30 r \$0.rhythm.ref;
#X obj 249 372 s \$0.rhythm.notes;
#X obj 439 91 s \$0.rhythm.ref;
#X obj 393 348 s \$0.rhythm.length;
#X msg 606 59 \; \$1.rhythm.ref 0 \; \$1.rhythm.ref range 0 0 \; \$1.rhythm.notes
4 \; \$1.rhythm.notes range 1 24 \; \$1.rhythm.length 4 \; \$1.rhythm.length
range 1 999;
#X connect 0 0 1 0;
#X connect 1 0 56 0;
#X connect 2 0 4 0;
#X connect 3 0 2 0;
#X connect 4 0 54 0;
#X connect 5 0 8 1;
#X connect 7 0 8 0;
#X connect 7 1 6 0;
#X connect 8 0 32 0;
#X connect 9 0 13 1;
#X connect 10 0 14 1;
#X connect 11 0 17 1;
#X connect 12 0 13 0;
#X connect 12 1 48 0;
#X connect 12 2 47 0;
#X connect 12 3 46 0;
#X connect 13 0 20 0;
#X connect 14 0 42 0;
#X connect 15 0 16 0;
#X connect 17 0 18 0;
#X connect 18 0 19 0;
#X connect 20 0 14 0;
#X connect 20 1 21 0;
#X connect 21 0 22 0;
#X connect 23 0 44 0;
#X connect 23 1 29 0;
#X connect 24 0 34 0;
#X connect 24 1 23 0;
#X connect 25 0 28 1;
#X connect 27 0 28 0;
#X connect 27 1 26 0;
#X connect 28 0 33 0;
#X connect 29 0 27 0;
#X connect 30 0 53 0;
#X connect 31 0 55 0;
#X connect 32 0 30 0;
#X connect 33 0 31 0;
#X connect 34 0 35 0;
#X connect 34 1 36 0;
#X connect 35 0 30 0;
#X connect 36 0 31 0;
#X connect 37 0 24 0;
#X connect 38 0 39 0;
#X connect 38 1 12 0;
#X connect 40 0 43 1;
#X connect 41 0 40 0;
#X connect 42 0 43 0;
#X connect 42 1 15 0;
#X connect 43 0 17 0;
#X connect 44 0 7 0;
#X connect 45 0 38 0;
#X connect 49 0 9 0;
#X connect 50 0 10 0;
#X connect 51 0 11 0;
#X connect 52 0 37 0;
#X restore 24 50 pd rhythm.generate.logic;
#N canvas 60 119 402 358 rhythm.selector.logic 0;
#X obj 41 73 route count;
#X obj 26 161 t a a;
#X obj 26 138 change 1;
#X obj 26 116 max 1;
#X obj 26 210 t a;
#X obj 41 51 r \$0.rhythm.o;
#X obj 26 95 f;
#X obj 26 25 r \$0.rhythm.update;
#X obj 104 126 r \$0.rhythm.reset;
#X msg 104 148 0;
#X msg 53 183 count \$1;
#X obj 26 234 struct_selector_ pd-\$0.rhythm.selector;
#X obj 26 261 outlet;
#X connect 0 0 6 1;
#X connect 1 0 4 0;
#X connect 1 1 10 0;
#X connect 2 0 1 0;
#X connect 3 0 2 0;
#X connect 4 0 11 0;
#X connect 5 0 0 0;
#X connect 6 0 3 0;
#X connect 7 0 6 0;
#X connect 8 0 9 0;
#X connect 9 0 10 0;
#X connect 10 0 4 0;
#X connect 11 0 12 0;
#X restore 24 76 pd rhythm.selector.logic;
#N canvas 0 44 508 680 rhythm.edit.logic 0;
#X obj 68 129 s \$0.rhythm.i;
#X obj 68 152 r \$0.rhythm.o;
#X obj 41 108 t b a;
#X obj 41 176 list append;
#X msg 180 217 reset;
#X msg 41 228 add \$1;
#N canvas 507 320 146 198 serialize 0;
#X obj 9 118 list split 1;
#X obj 9 74 until;
#X obj 9 96 list append;
#X obj 9 53 t b a;
#X obj 9 30 inlet;
#X obj 9 143 outlet;
#X connect 0 0 5 0;
#X connect 0 1 2 1;
#X connect 0 2 1 1;
#X connect 1 0 2 0;
#X connect 2 0 0 0;
#X connect 3 0 1 0;
#X connect 3 1 2 1;
#X connect 4 0 3 0;
#X restore 41 203 pd serialize;
#X obj 68 327 list prepend;
#X msg 68 349 set \$1 \$2 \$3;
#X obj 68 373 s \$0.rhythm.i;
#X obj 180 177 r \$0.rhythm.reset;
#X obj 41 281 struct_numarray_ pd-\$0.rhythm.array;
#X obj 317 129 s \$0.rhythm.i;
#X obj 317 152 r \$0.rhythm.o;
#X obj 290 108 t b a;
#X obj 290 176 list append;
#X msg 290 86 get \$1 ref;
#X obj 290 198 sel 0;
#X msg 290 222 0;
#X msg 317 222 -1;
#X msg 41 86 resolve \$1 data;
#X msg 290 245 range \$1 999;
#X obj 41 40 t a b a a;
#X obj 41 11 inlet;
#X obj 41 303 t a a;
#X msg 41 397 \$2 \$1;
#X obj 41 419 route -1;
#X obj 41 461 list prepend;
#X obj 68 529 s \$0.rhythm.i;
#X obj 68 552 r \$0.rhythm.o;
#X obj 41 508 t b a;
#X obj 41 576 list append;
#X msg 41 486 resolve \$1 \$2;
#X obj 41 441 t a a;
#X obj 41 598 list prepend;
#X msg 239 440 set \$1 \$2;
#X connect 1 0 3 1;
#X connect 2 0 3 0;
#X connect 2 1 0 0;
#X connect 3 0 6 0;
#X connect 4 0 11 0;
#X connect 5 0 11 0;
#X connect 6 0 5 0;
#X connect 7 0 8 0;
#X connect 8 0 9 0;
#X connect 10 0 4 0;
#X connect 11 0 24 0;
#X connect 13 0 15 1;
#X connect 14 0 15 0;
#X connect 14 1 12 0;
#X connect 15 0 17 0;
#X connect 16 0 14 0;
#X connect 17 0 18 0;
#X connect 17 1 19 0;
#X connect 18 0 21 0;
#X connect 19 0 21 0;
#X connect 20 0 2 0;
#X connect 21 0 11 0;
#X connect 22 0 20 0;
#X connect 22 1 4 0;
#X connect 22 2 7 1;
#X connect 22 2 27 1;
#X connect 22 3 16 0;
#X connect 23 0 22 0;
#X connect 24 0 25 0;
#X connect 24 1 7 0;
#X connect 25 0 26 0;
#X connect 26 0 33 0;
#X connect 27 0 32 0;
#X connect 29 0 31 1;
#X connect 30 0 31 0;
#X connect 30 1 28 0;
#X connect 31 0 34 0;
#X connect 32 0 30 0;
#X connect 33 0 27 0;
#X connect 33 1 34 1;
#X connect 34 0 35 0;
#X connect 35 0 11 0;
#X restore 24 152 pd rhythm.edit.logic;
#X obj 24 98 t a a;
#N canvas 49 94 390 432 rhythm.param.display 0;
#X obj 35 403 struct_paramsdisplay_ pd-\$0.rhythm.params;
#X obj 89 112 s \$0.rhythm.i;
#X obj 89 135 r \$0.rhythm.o;
#X obj 62 91 t b a;
#X obj 62 159 list append;
#X obj 35 47 t b a;
#X msg 35 222 bang \, set;
#X msg 35 244;
#X msg 62 202 add2 \$1;
#X msg 62 69 get \$1 ref \, resolve \$1 length;
#X msg 35 378 reset \, add \$1 \, add length=\$2;
#X obj 35 266 unpack f f;
#X obj 35 355 pack s f;
#X obj 35 288 sel 0;
#X msg 35 311 symbol noref;
#X msg 62 332 symbol ref=\$1;
#X obj 161 311 r \$0.rhythm.reset;
#X msg 161 341 reset;
#X obj 35 22 inlet;
#X obj 62 181 int;
#X connect 2 0 4 1;
#X connect 3 0 4 0;
#X connect 3 1 1 0;
#X connect 4 0 19 0;
#X connect 5 0 6 0;
#X connect 5 1 9 0;
#X connect 6 0 7 0;
#X connect 7 0 11 0;
#X connect 8 0 7 0;
#X connect 9 0 3 0;
#X connect 10 0 0 0;
#X connect 11 0 13 0;
#X connect 11 1 12 1;
#X connect 12 0 10 0;
#X connect 13 0 14 0;
#X connect 13 1 15 0;
#X connect 14 0 12 0;
#X connect 15 0 12 0;
#X connect 16 0 17 0;
#X connect 17 0 0 0;
#X connect 18 0 5 0;
#X connect 19 0 8 0;
#X restore 51 123 pd rhythm.param.display;
#X text 503 41 temporary:;
#X obj 235 76 struct_container length;
#X obj 235 51 r \$0.rhythm.i;
#X obj 235 98 s \$0.rhythm.o;
#X text 21 14 === R H Y T H M ============================================
;
#X obj 429 153 s \$0.rhythm.reset;
#X msg 429 85 reset;
#X obj 429 107 t b a;
#X obj 456 131 s \$0.rhythm.i;
#X obj 261 228 r \$0.tone.i;
#X obj 261 275 s \$0.tone.o;
#X obj 261 253 struct_container rhythm oct semi;
#X text 23 182 === T O N E ================================================
;
#X obj 24 258 t a a;
#N canvas 213 198 760 541 tone.generate.logic 0;
#X obj 575 18 loadbang;
#X obj 575 40 \$0;
#X obj 439 48 route count;
#X msg 439 69 range 0 \$1;
#X obj 276 156 t b a;
#X obj 276 221 list append;
#X obj 68 157 route float;
#X obj 50 277 route float;
#X obj 145 437 route float;
#X obj 35 155 f;
#X obj 35 298 f;
#X msg 62 342 new \$1;
#X obj 35 437 list append;
#X msg 35 461 set \$1 length \$2;
#X obj 35 184 sel 0;
#X msg 62 208 alias \$1;
#X obj 276 99 t a a;
#X obj 249 74 sel 0;
#X msg 249 350 range \$1 \$2;
#X msg 276 250 \$1 \$1;
#X obj 249 52 route float;
#X obj 8 27 t b b;
#X obj 72 411 route count;
#X obj 35 320 t b a;
#X obj 35 401 f;
#X obj 8 5 r \$0.tone.create;
#X obj 62 230 s \$0.tone.i;
#X obj 62 364 s \$0.tone.i;
#X obj 72 389 r \$0.tone.o;
#X obj 35 484 s \$0.tone.i;
#X obj 8 504 s \$0.tone.update;
#X obj 303 176 s \$0.tone.i;
#X obj 303 197 r \$0.tone.o;
#X obj 439 26 r \$0.tone.o;
#X obj 249 30 r \$0.tone.ref;
#X obj 54 90 s \$0.tone.ref;
#X obj 68 135 r \$0.tone.ref;
#X obj 50 255 r \$0.tone.notes;
#X obj 145 415 r \$0.tone.length;
#X obj 439 91 s \$0.tone.ref;
#X msg 575 62 \; \$1.tone.ref 0 \; \$1.tone.ref range 0 0 \; \$1.tone.rhythm
1 \; \$1.tone.rhythm range 1 1 \;;
#X msg 276 134 get \$1 rhythm;
#X obj 249 372 s \$0.tone.rhythm;
#X obj 249 312 list append 0 0;
#X obj 439 148 route count;
#X obj 439 126 r \$0.rhythm.o;
#X msg 439 169 range 1 \$1;
#X obj 439 191 s \$0.tone.rhythm;
#X obj 74 71 s \$0.tone.rhythm;
#X obj 35 49 t b b b;
#X connect 0 0 1 0;
#X connect 1 0 40 0;
#X connect 2 0 3 0;
#X connect 3 0 39 0;
#X connect 4 0 5 0;
#X connect 4 1 31 0;
#X connect 5 0 19 0;
#X connect 6 0 9 1;
#X connect 7 0 10 1;
#X connect 8 0 12 1;
#X connect 9 0 14 0;
#X connect 10 0 23 0;
#X connect 11 0 27 0;
#X connect 12 0 13 0;
#X connect 13 0 29 0;
#X connect 14 0 10 0;
#X connect 14 1 15 0;
#X connect 15 0 26 0;
#X connect 16 0 41 0;
#X connect 17 1 16 0;
#X connect 18 0 42 0;
#X connect 19 0 18 0;
#X connect 20 0 17 0;
#X connect 21 0 30 0;
#X connect 21 1 49 0;
#X connect 22 0 24 1;
#X connect 23 0 24 0;
#X connect 23 1 11 0;
#X connect 24 0 12 0;
#X connect 25 0 21 0;
#X connect 28 0 22 0;
#X connect 32 0 5 1;
#X connect 33 0 2 0;
#X connect 34 0 20 0;
#X connect 36 0 6 0;
#X connect 37 0 7 0;
#X connect 38 0 8 0;
#X connect 41 0 4 0;
#X connect 44 0 46 0;
#X connect 45 0 44 0;
#X connect 46 0 47 0;
#X connect 49 0 9 0;
#X connect 49 1 35 0;
#X connect 49 2 48 0;
#X restore 24 210 pd tone.generate.logic;
#N canvas 60 119 402 358 tone.selector.logic 0;
#X obj 41 73 route count;
#X obj 26 161 t a a;
#X obj 26 138 change 1;
#X obj 26 116 max 1;
#X obj 26 210 t a;
#X obj 26 95 f;
#X msg 104 148 0;
#X msg 53 183 count \$1;
#X obj 26 261 outlet;
#X obj 26 25 r \$0.tone.update;
#X obj 41 51 r \$0.tone.o;
#X obj 104 126 r \$0.tone.reset;
#X obj 26 234 struct_selector_ pd-\$0.tone.selector;
#X connect 0 0 5 1;
#X connect 1 0 4 0;
#X connect 1 1 7 0;
#X connect 2 0 1 0;
#X connect 3 0 2 0;
#X connect 4 0 12 0;
#X connect 5 0 3 0;
#X connect 6 0 7 0;
#X connect 7 0 4 0;
#X connect 9 0 5 0;
#X connect 10 0 0 0;
#X connect 11 0 6 0;
#X connect 12 0 8 0;
#X restore 24 236 pd tone.selector.logic;
#N canvas 49 94 390 432 tone.param.display 0;
#X obj 62 91 t b a;
#X obj 62 159 list append;
#X obj 35 47 t b a;
#X msg 35 222 bang \, set;
#X msg 35 244;
#X msg 62 202 add2 \$1;
#X msg 62 69 get \$1 ref \, resolve \$1 length;
#X msg 35 378 reset \, add \$1 \, add length=\$2;
#X obj 35 266 unpack f f;
#X obj 35 355 pack s f;
#X obj 35 288 sel 0;
#X msg 35 311 symbol noref;
#X msg 62 332 symbol ref=\$1;
#X msg 161 341 reset;
#X obj 35 22 inlet;
#X obj 62 181 int;
#X obj 89 112 s \$0.tone.i;
#X obj 89 135 r \$0.tone.o;
#X obj 161 311 r \$0.tone.reset;
#X obj 35 403 struct_paramsdisplay_ pd-\$0.tone.params;
#X connect 0 0 1 0;
#X connect 0 1 16 0;
#X connect 1 0 15 0;
#X connect 2 0 3 0;
#X connect 2 1 6 0;
#X connect 3 0 4 0;
#X connect 4 0 8 0;
#X connect 5 0 4 0;
#X connect 6 0 0 0;
#X connect 7 0 19 0;
#X connect 8 0 10 0;
#X connect 8 1 9 1;
#X connect 9 0 7 0;
#X connect 10 0 11 0;
#X connect 10 1 12 0;
#X connect 11 0 9 0;
#X connect 12 0 9 0;
#X connect 13 0 19 0;
#X connect 14 0 2 0;
#X connect 15 0 5 0;
#X connect 17 0 1 1;
#X connect 18 0 13 0;
#X restore 51 283 pd tone.param.display;
#N canvas 0 44 508 680 tone.edit.logic 0;
#X obj 41 108 t b a;
#X obj 41 176 list append;
#X msg 180 217 reset;
#X msg 41 228 add \$1;
#N canvas 507 320 146 198 serialize 0;
#X obj 9 118 list split 1;
#X obj 9 74 until;
#X obj 9 96 list append;
#X obj 9 53 t b a;
#X obj 9 30 inlet;
#X obj 9 143 outlet;
#X connect 0 0 5 0;
#X connect 0 1 2 1;
#X connect 0 2 1 1;
#X connect 1 0 2 0;
#X connect 2 0 0 0;
#X connect 3 0 1 0;
#X connect 3 1 2 1;
#X connect 4 0 3 0;
#X restore 41 203 pd serialize;
#X obj 68 327 list prepend;
#X msg 68 349 set \$1 \$2 \$3;
#X obj 290 108 t b a;
#X obj 290 176 list append;
#X msg 290 86 get \$1 ref;
#X obj 290 198 sel 0;
#X msg 290 222 0;
#X msg 317 222 -1;
#X msg 41 86 resolve \$1 data;
#X msg 290 245 range \$1 999;
#X obj 41 40 t a b a a;
#X obj 41 11 inlet;
#X obj 41 303 t a a;
#X msg 41 397 \$2 \$1;
#X obj 41 419 route -1;
#X obj 41 461 list prepend;
#X obj 41 508 t b a;
#X obj 41 576 list append;
#X msg 41 486 resolve \$1 \$2;
#X obj 41 441 t a a;
#X obj 41 598 list prepend;
#X msg 239 440 set \$1 \$2;
#X obj 317 129 s \$0.tone.i;
#X obj 317 152 r \$0.tone.o;
#X obj 180 177 r \$0.tone.reset;
#X obj 68 129 s \$0.tone.i;
#X obj 68 152 r \$0.tone.o;
#X obj 41 281 struct_numarray_ pd-\$0.tone.array;
#X obj 68 373 s \$0.tone.i;
#X obj 68 529 s \$0.tone.i;
#X obj 68 552 r \$0.tone.o;
#X connect 0 0 1 0;
#X connect 0 1 30 0;
#X connect 1 0 4 0;
#X connect 2 0 32 0;
#X connect 3 0 32 0;
#X connect 4 0 3 0;
#X connect 5 0 6 0;
#X connect 6 0 33 0;
#X connect 7 0 8 0;
#X connect 7 1 27 0;
#X connect 8 0 10 0;
#X connect 9 0 7 0;
#X connect 10 0 11 0;
#X connect 10 1 12 0;
#X connect 11 0 14 0;
#X connect 12 0 14 0;
#X connect 13 0 0 0;
#X connect 14 0 32 0;
#X connect 15 0 13 0;
#X connect 15 1 2 0;
#X connect 15 2 5 1;
#X connect 15 2 20 1;
#X connect 15 3 9 0;
#X connect 16 0 15 0;
#X connect 17 0 18 0;
#X connect 17 1 5 0;
#X connect 18 0 19 0;
#X connect 19 0 24 0;
#X connect 20 0 23 0;
#X connect 21 0 22 0;
#X connect 21 1 34 0;
#X connect 22 0 25 0;
#X connect 23 0 21 0;
#X connect 24 0 20 0;
#X connect 24 1 25 1;
#X connect 25 0 26 0;
#X connect 26 0 32 0;
#X connect 28 0 8 1;
#X connect 29 0 2 0;
#X connect 31 0 1 1;
#X connect 32 0 17 0;
#X connect 35 0 22 1;
#X restore 24 312 pd tone.edit.logic;
#X connect 4 0 6 0;
#X connect 6 0 5 0;
#X connect 6 1 7 0;
#X connect 9 0 11 0;
#X connect 10 0 9 0;
#X connect 14 0 15 0;
#X connect 15 0 13 0;
#X connect 15 1 16 0;
#X connect 17 0 19 0;
#X connect 19 0 18 0;
#X connect 21 0 25 0;
#X connect 21 1 24 0;
#X connect 23 0 21 0;
