#N canvas 472 118 460 561 10;
#N canvas 624 75 434 290 NETPD 1;
#N canvas 813 293 194 120 abslist 0;
#X msg 65 12 mx-fx-list;
#X msg 4 11 b-uneven;
#X msg 6 30 b-jon;
#X msg 9 50 b-loop;
#X msg 62 50 b-gran;
#X msg 68 78 b-util;
#X restore 12 40 pd abslist;
#X msg 11 67 singleton;
#X msg 11 16 version 0 0 6;
#X restore 10 14 pd NETPD 2 0;
#N canvas 656 85 426 339 \$1-bfx 1;
#X text 96 145 BFX;
#X text 96 165 b-jon plate reverb;
#X text 96 185 b-uneven harmoniser;
#X restore 10 42 pd \$1-bfx;
#X obj 10 67 mx-fx-list \$1 bfx b-uneven b-jon b-loop b-gran b-util
b-fm;
