#N canvas 555 29 410 629 10;
#N canvas 624 75 345 97 NETPD 0;
#N canvas 315 75 433 126 abslist 0;
#X msg 18 13 chord-abs;
#X msg 17 44 roman_helpers;
#X restore 11 36 pd abslist;
#X msg 12 8 version 0 0 1;
#X restore 10 14 pd NETPD 2 0;
#X obj 10 69 netpd_head \$1 carlito;
#N canvas 640 227 254 288 \$1-carlito 1;
#X obj 47 44 nbx 3 20 0 71 0 0 \$1-range/min \$1-range/min empty 0
12 0 14 #ececf6 #000000 #000000 0 256;
#X obj 14 44 hsl 31 20 0 127 0 0 \$0.blu \$0.range.min.label C4 0 10
0 14 #dfdfdf #dfdfdf #000000 0 1;
#X obj 136 44 nbx 3 20 61 127 0 0 \$1-range/max \$1-range/max empty
0 12 0 14 #ececf6 #000000 #000000 0 256;
#X obj 103 44 hsl 31 20 0 127 0 0 \$0.blu \$0.range.max.label C5 0
10 0 14 #dfdfdf #dfdfdf #000000 0 1;
#X text 187 52 RANGE;
#X obj 14 74 hsl 30 20 0 127 0 0 \$0.pick.1 \$0.pick.1.r 1 0 10 0 14
#ffcccc #ffcccc #000000 0 1;
#X obj 49 74 hsl 30 20 0 127 0 0 \$0.pick.3 \$0.pick.3.r 3 0 10 0 14
#ffcccc #ffcccc #000000 0 1;
#X obj 84 74 hsl 30 20 0 127 0 0 \$0.pick.5 \$0.pick.5.r 5 0 10 0 14
#ffcccc #ffcccc #000000 0 1;
#X obj 119 74 hsl 30 20 0 127 0 0 \$0.pick.7 \$0.pick.7.r 7 0 10 0
14 #ffcccc #ffcccc #000000 0 1;
#X obj 154 74 hsl 30 20 0 127 0 0 \$0.pick.9 \$0.pick.9.r 9 0 10 0
14 #ffcccc #ffcccc #000000 0 1;
#X symbolatom 11 16 25 0 0 0 - \$0.name.r \$0.name.s 12;
#X restore 10 42 pd \$1-carlito;
#X obj 55 177 r carlo;
#X obj 55 200 route chordsym;
#X obj 55 223 list;
#X obj 55 248 chord-fromsymbol;
#X obj 55 322 chord-pitch-range;
#N canvas 714 85 453 317 gui.stuff 0;
#N canvas 573 86 200 283 range/min 0;
#X obj 36 102 rh_midi2notename;
#X obj 9 10 r \$1-range/min;
#X obj 9 33 route set;
#X obj 60 56 route float;
#X msg 36 125 label \$1;
#X obj 36 148 s \$0.range.min.label;
#X obj 9 78 t a a;
#X obj 9 175 + 1;
#X msg 9 200 range \$1 127;
#X obj 9 223 s \$1-range/max;
#X connect 0 0 4 0;
#X connect 1 0 2 0;
#X connect 2 0 6 0;
#X connect 2 1 3 0;
#X connect 3 0 6 0;
#X connect 4 0 5 0;
#X connect 6 0 7 0;
#X connect 6 1 0 0;
#X connect 7 0 8 0;
#X connect 8 0 9 0;
#X restore 12 14 pd range/min;
#N canvas 840 153 219 275 range/max 0;
#X obj 50 105 rh_midi2notename;
#X obj 23 36 route set;
#X obj 74 59 route float;
#X msg 50 128 label \$1;
#X obj 23 13 r \$1-range/max;
#X obj 50 151 s \$0.range.max.label;
#X obj 23 81 t a a;
#X obj 21 177 - 1;
#X msg 21 202 range 0 \$1;
#X obj 21 225 s \$1-range/min;
#X connect 0 0 3 0;
#X connect 1 0 6 0;
#X connect 1 1 2 0;
#X connect 2 0 6 0;
#X connect 3 0 5 0;
#X connect 4 0 1 0;
#X connect 6 0 7 0;
#X connect 6 1 0 0;
#X connect 7 0 8 0;
#X connect 8 0 9 0;
#X restore 14 42 pd range/max;
#N canvas 1035 216 852 342 picker 0;
#X obj 11 14 r \$0.pick.1;
#X obj 11 37 sel 0;
#X obj 51 37 t a;
#X obj 11 87 == 0;
#X obj 53 63 r \$1-pick/1;
#X obj 53 86 route float;
#X obj 67 108 route set;
#X obj 53 132 t a a;
#X obj 11 161 s \$1-pick/1;
#X msg 11 262 color \$1 \$1 #000000;
#X obj 11 186 sel 0 1;
#X msg 11 236 symbol #dfdfdf;
#X obj 11 287 s \$0.pick.1.r;
#X msg 30 213 symbol #ffcccc;
#X obj 151 37 sel 0;
#X obj 191 37 t a;
#X obj 151 87 == 0;
#X obj 193 86 route float;
#X obj 207 108 route set;
#X obj 193 132 t a a;
#X msg 151 262 color \$1 \$1 #000000;
#X obj 151 186 sel 0 1;
#X msg 151 236 symbol #dfdfdf;
#X msg 170 213 symbol #ffcccc;
#X obj 291 37 sel 0;
#X obj 331 37 t a;
#X obj 291 87 == 0;
#X obj 333 86 route float;
#X obj 347 108 route set;
#X obj 333 132 t a a;
#X msg 291 262 color \$1 \$1 #000000;
#X obj 291 186 sel 0 1;
#X msg 291 236 symbol #dfdfdf;
#X msg 310 213 symbol #ffcccc;
#X obj 431 37 sel 0;
#X obj 471 37 t a;
#X obj 431 87 == 0;
#X obj 473 86 route float;
#X obj 487 108 route set;
#X obj 473 132 t a a;
#X msg 431 262 color \$1 \$1 #000000;
#X obj 431 186 sel 0 1;
#X msg 431 236 symbol #dfdfdf;
#X msg 450 213 symbol #ffcccc;
#X obj 581 37 sel 0;
#X obj 621 37 t a;
#X obj 581 87 == 0;
#X obj 623 86 route float;
#X obj 637 108 route set;
#X obj 623 132 t a a;
#X msg 581 262 color \$1 \$1 #000000;
#X obj 581 186 sel 0 1;
#X msg 581 236 symbol #dfdfdf;
#X msg 600 213 symbol #ffcccc;
#X obj 151 14 r \$0.pick.3;
#X obj 193 63 r \$1-pick/3;
#X obj 151 161 s \$1-pick/3;
#X obj 151 287 s \$0.pick.3.r;
#X obj 291 14 r \$0.pick.5;
#X obj 333 63 r \$1-pick/5;
#X obj 291 161 s \$1-pick/5;
#X obj 291 287 s \$0.pick.5.r;
#X obj 431 14 r \$0.pick.7;
#X obj 473 63 r \$1-pick/7;
#X obj 431 161 s \$1-pick/7;
#X obj 431 287 s \$0.pick.7.r;
#X obj 581 14 r \$0.pick.9;
#X obj 623 63 r \$1-pick/9;
#X obj 581 161 s \$1-pick/9;
#X obj 581 287 s \$0.pick.9.r;
#X connect 0 0 1 0;
#X connect 1 0 3 0;
#X connect 1 1 2 0;
#X connect 2 0 1 1;
#X connect 3 0 8 0;
#X connect 4 0 5 0;
#X connect 5 0 7 0;
#X connect 5 1 6 0;
#X connect 6 0 7 0;
#X connect 7 0 3 1;
#X connect 7 1 10 0;
#X connect 9 0 12 0;
#X connect 10 0 11 0;
#X connect 10 1 13 0;
#X connect 11 0 9 0;
#X connect 13 0 9 0;
#X connect 14 0 16 0;
#X connect 14 1 15 0;
#X connect 15 0 14 1;
#X connect 16 0 56 0;
#X connect 17 0 19 0;
#X connect 17 1 18 0;
#X connect 18 0 19 0;
#X connect 19 0 16 1;
#X connect 19 1 21 0;
#X connect 20 0 57 0;
#X connect 21 0 22 0;
#X connect 21 1 23 0;
#X connect 22 0 20 0;
#X connect 23 0 20 0;
#X connect 24 0 26 0;
#X connect 24 1 25 0;
#X connect 25 0 24 1;
#X connect 26 0 60 0;
#X connect 27 0 29 0;
#X connect 27 1 28 0;
#X connect 28 0 29 0;
#X connect 29 0 26 1;
#X connect 29 1 31 0;
#X connect 30 0 61 0;
#X connect 31 0 32 0;
#X connect 31 1 33 0;
#X connect 32 0 30 0;
#X connect 33 0 30 0;
#X connect 34 0 36 0;
#X connect 34 1 35 0;
#X connect 35 0 34 1;
#X connect 36 0 64 0;
#X connect 37 0 39 0;
#X connect 37 1 38 0;
#X connect 38 0 39 0;
#X connect 39 0 36 1;
#X connect 39 1 41 0;
#X connect 40 0 65 0;
#X connect 41 0 42 0;
#X connect 41 1 43 0;
#X connect 42 0 40 0;
#X connect 43 0 40 0;
#X connect 44 0 46 0;
#X connect 44 1 45 0;
#X connect 45 0 44 1;
#X connect 46 0 68 0;
#X connect 47 0 49 0;
#X connect 47 1 48 0;
#X connect 48 0 49 0;
#X connect 49 0 46 1;
#X connect 49 1 51 0;
#X connect 50 0 69 0;
#X connect 51 0 52 0;
#X connect 51 1 53 0;
#X connect 52 0 50 0;
#X connect 53 0 50 0;
#X connect 54 0 14 0;
#X connect 55 0 17 0;
#X connect 58 0 24 0;
#X connect 59 0 27 0;
#X connect 62 0 34 0;
#X connect 63 0 37 0;
#X connect 66 0 44 0;
#X connect 67 0 47 0;
#X restore 13 67 pd picker;
#N canvas 1052 586 398 269 name 0;
#X obj 10 28 r \$0.name.s;
#X obj 10 137 s \$0.name.r;
#X obj 10 65 netpd_a \$1 name;
#X obj 89 17 loadbang;
#X msg 89 40 set carlito;
#X obj 10 88 list;
#X msg 10 111 set \$1;
#X connect 0 0 2 0;
#X connect 2 0 5 0;
#X connect 3 0 4 0;
#X connect 4 0 2 0;
#X connect 5 0 6 0;
#X connect 6 0 1 0;
#X restore 16 95 pd name;
#X restore 14 116 pd gui.stuff;
#X obj 55 398 chord-pick-fuzzy;
#X obj 104 271 netpd_f \$1 range/min 60;
#X obj 154 299 netpd_f \$1 range/max 72;
#X obj 257 63 netpd_f \$1 pick/1 1;
#X obj 257 83 netpd_f \$1 pick/3 1;
#X obj 257 103 netpd_f \$1 pick/5 1;
#X obj 257 123 netpd_f \$1 pick/7 1;
#X obj 257 143 netpd_f \$1 pick/9 1;
#N canvas 638 316 381 476 picker 0;
#X obj 15 10 netpd_r \$1 pick/1;
#X obj 49 32 netpd_r \$1 pick/3;
#X obj 99 60 netpd_r \$1 pick/5;
#X obj 150 86 netpd_r \$1 pick/7;
#X obj 196 110 netpd_r \$1 pick/9;
#X obj 15 136 * 1;
#X obj 49 137 * 3;
#X obj 99 138 * 5;
#X obj 150 138 * 7;
#X obj 196 138 * 9;
#X obj 15 193 f;
#X obj 49 160 t b a;
#X obj 99 161 t b a;
#X obj 150 161 t b a;
#X obj 196 161 t b a;
#X obj 15 216 pack f f f f f;
#X obj 15 239 t b a;
#X obj 42 262 rh_list_serialize;
#X obj 42 285 sel 0;
#X msg 68 308 append \$1;
#X obj 42 360 list store;
#X obj 15 325 t b b;
#X obj 42 383 list prepend set;
#X obj 42 406 list trim;
#X obj 42 429 outlet;
#X connect 0 0 5 0;
#X connect 1 0 6 0;
#X connect 2 0 7 0;
#X connect 3 0 8 0;
#X connect 4 0 9 0;
#X connect 5 0 10 0;
#X connect 6 0 11 0;
#X connect 7 0 12 0;
#X connect 8 0 13 0;
#X connect 9 0 14 0;
#X connect 10 0 15 0;
#X connect 11 0 10 0;
#X connect 11 1 15 1;
#X connect 12 0 10 0;
#X connect 12 1 15 2;
#X connect 13 0 10 0;
#X connect 13 1 15 3;
#X connect 14 0 10 0;
#X connect 14 1 15 4;
#X connect 15 0 16 0;
#X connect 16 0 21 0;
#X connect 16 1 17 0;
#X connect 17 0 18 0;
#X connect 18 1 19 0;
#X connect 19 0 20 0;
#X connect 20 0 22 0;
#X connect 21 0 20 1;
#X connect 21 1 20 0;
#X connect 22 0 23 0;
#X connect 23 0 24 0;
#X restore 91 360 pd picker;
#X obj 55 436 rh_list_unzip 2;
#X obj 55 459 route 0;
#X obj 270 413 netpd_r \$1 name;
#X obj 55 482 list prepend;
#X obj 55 553 s unstep;
#N canvas 1167 491 395 180 unstep.com 0;
#X obj 20 7 r unstep;
#X obj 20 53 b;
#X obj 20 76 symbol;
#X obj 20 30 route get_sources;
#X msg 20 100 source \$1;
#X obj 20 123 s unstep;
#X obj 70 76 r \$0.source.name;
#X connect 0 0 3 0;
#X connect 1 0 2 0;
#X connect 2 0 4 0;
#X connect 3 0 1 0;
#X connect 4 0 5 0;
#X connect 6 0 2 1;
#X restore 246 524 pd unstep.com;
#X obj 55 505 list prepend notes;
#X obj 55 528 list trim;
#X obj 270 437 list prepend \$1;
#X obj 270 483 s \$0.source.name;
#X obj 124 458 r \$0.source.name;
#X msg 270 460 symbol \$1-\$2;
#X connect 3 0 4 0;
#X connect 4 0 5 0;
#X connect 5 0 6 0;
#X connect 6 0 7 0;
#X connect 7 0 9 0;
#X connect 9 0 18 0;
#X connect 10 0 7 1;
#X connect 11 0 7 2;
#X connect 17 0 9 0;
#X connect 18 0 19 0;
#X connect 19 0 21 0;
#X connect 20 0 26 0;
#X connect 21 0 24 0;
#X connect 24 0 25 0;
#X connect 25 0 22 0;
#X connect 26 0 29 0;
#X connect 28 0 21 1;
#X connect 29 0 27 0;
