#N canvas 594 44 460 561 10;
#N canvas 624 75 434 290 NETPD 0;
#X msg 12 8 version 0 0 0;
#N canvas 315 75 473 287 abslist 0;
#X text 7 13 Put a message box containing the name of the abstraction
(without the .pd suffix) for each dependency.;
#X text 6 55 For instance:;
#X text 23 84 [mysynth-voice(;
#X text 13 130 NOTE: abstractions of instruments also use netpd meta
tags and may also specify their own dependencies. unpatch resolves
dependency trees recursively.;
#X restore 12 178 pd abslist;
#X text 111 179 <- add dependencies of your netpd instrument;
#X text 18 32 A 'version' meta tag is mandatory. unpatch uses this
information to make sure that all clients load the same version of
the instrument.;
#X text 19 78 Whenever you make changes to your instrument \, make
sure to bump the version.;
#X text 18 118 There is no predefined meaning of the three version
fields. Use them at your own will.;
#X text 16 211 The [pd abslist] tag container is optional and is used
to specify dependencies (abstractions in netpd/abs) of your instrument.
;
#X text 107 7 <- update the version of this netpd instrument;
#X restore 10 14 pd NETPD 2 0;
#X obj 10 69 netpd_head \$1 couscous;
#N canvas 694 109 325 215 \$1-couscous 1;
#N canvas 303 258 1058 550 experimenting 0;
#X obj 18 22 adc~;
#X obj 19 59 tabwrite~ sample;
#X obj 56 16 bng 15 250 50 0 empty empty empty 17 7 0 10 -262144 -1
-1;
#X obj 618 10 table sample 44100;
#X obj 83 12 osc~ 200;
#X obj 762 376 tabread upcross;
#X floatatom 762 396 10 0 0 0 - - -, f 10;
#X floatatom 903 385 10 0 0 0 - - -, f 10;
#X obj 903 365 tabread length;
#X floatatom 815 331 5 0 0 0 - - -, f 5;
#X obj 618 50 table length 2000;
#X obj 366 326 dac~;
#X obj 83 32 *~ 0.9;
#N canvas 0 43 300 400 larger_than 0;
#X obj 14 147 random;
#X obj 14 126 t b a;
#X obj 14 106 value count;
#X obj 14 84 until;
#X msg 14 63 1e+06;
#X obj 14 210 moses 200;
#X obj 14 185 tabread length;
#X obj 65 276 f;
#X obj 167 170 b;
#X obj 172 133 inlet;
#X obj 66 300 outlet;
#X obj 14 40 inlet;
#X obj 14 167 t a a;
#X obj 65 244 t b b;
#X connect 0 0 12 0;
#X connect 1 0 0 0;
#X connect 1 1 0 1;
#X connect 2 0 1 0;
#X connect 3 0 2 0;
#X connect 4 0 3 0;
#X connect 5 1 13 0;
#X connect 6 0 5 0;
#X connect 7 0 10 0;
#X connect 8 0 3 1;
#X connect 9 0 5 1;
#X connect 11 0 4 0;
#X connect 12 0 6 0;
#X connect 12 1 7 1;
#X connect 13 0 7 0;
#X connect 13 1 8 0;
#X restore 712 156 pd larger_than;
#X obj 834 466 table scope 1000;
#X obj 332 415 tabwrite~ scope;
#X obj 373 387 bng 15 250 50 0 empty empty empty 17 7 0 10 -262144
-1 -1;
#X obj 73 368 tabplay~ sample;
#X obj 73 388 dac~;
#X obj 85 326 bng 15 250 50 0 empty empty empty 17 7 0 10 -262144 -1
-1;
#X obj 220 442 value count;
#X obj 221 403 bng 15 250 50 0 empty empty empty 17 7 0 10 -262144
-1 -1;
#X floatatom 220 462 5 0 0 0 - - -, f 5;
#X floatatom 788 118 5 0 0 0 - - -, f 5;
#X obj 705 107 bng 15 250 50 0 empty empty empty 17 7 0 10 -262144
-1 -1;
#X obj 684 188 print;
#N canvas 0 43 480 511 analyze.sample 0;
#X obj 89 188 f;
#X obj 133 201 + 1;
#X msg 104 166 0;
#X obj 89 208 t a a;
#X obj 68 247 tabwrite upcross;
#X obj 42 337 tabwrite length;
#X obj 41 219 t a a;
#X obj 42 299 -;
#X obj 41 275 t a a;
#X obj 129 312 - 1;
#X obj 22 401 value count;
#X obj 41 162 t a b;
#X obj 22 117 t b a b;
#X obj 22 379 f;
#X obj 22 68 array size sample;
#X msg 22 97 0 \$1;
#X obj 22 32 inlet;
#X obj 41 142 rh_zerox sample;
#X connect 0 0 3 0;
#X connect 1 0 0 1;
#X connect 2 0 0 1;
#X connect 2 0 7 1;
#X connect 3 0 9 0;
#X connect 3 0 4 1;
#X connect 3 1 1 0;
#X connect 3 1 13 1;
#X connect 6 0 8 0;
#X connect 6 1 4 0;
#X connect 7 0 5 0;
#X connect 8 0 7 1;
#X connect 8 1 7 0;
#X connect 9 0 5 1;
#X connect 11 0 6 0;
#X connect 11 1 0 0;
#X connect 12 0 13 0;
#X connect 12 1 17 0;
#X connect 12 2 2 0;
#X connect 13 0 10 0;
#X connect 14 0 15 0;
#X connect 15 0 12 0;
#X connect 16 0 14 0;
#X connect 17 0 11 0;
#X restore 18 132 pd analyze.sample;
#X obj 18 107 bng 15 250 50 0 empty empty empty 17 7 0 10 -262144 -1
-1;
#X obj 661 456 print;
#X obj 524 182 hsl 128 15 0.1 10 1 0 empty empty empty -2 -8 0 10 -262144
-1 -1 11700 1;
#X msg 522 145 1;
#X obj 618 31 table upcross 20000;
#X obj 520 313 s \$0.next;
#N canvas 175 137 746 514 voice 0;
#N canvas 0 43 435 451 play.grain 0;
#X obj 19 126 t a a a;
#X obj 92 186 /;
#X obj 138 134 loadbang;
#X obj 138 154 samplerate~;
#X obj 92 206 * 1000;
#X msg 19 227 \$1;
#X obj 19 254 pack f f f;
#X msg 19 295 \$1 \, \$2 \$3;
#X obj 19 274 t a a;
#X msg 175 299 \$3;
#X obj 175 319 del;
#X obj 19 322 vline~;
#X obj 19 342 tabread4~ sample;
#X obj 19 94 inlet;
#X obj 92 230 * 1;
#X obj 19 362 outlet~;
#X obj 205 206 inlet;
#X obj 175 353 outlet;
#X msg 47 227 \$2;
#X msg 92 140 \$2 \$1;
#X obj 92 160 -;
#X connect 0 0 5 0;
#X connect 0 1 18 0;
#X connect 0 2 19 0;
#X connect 1 0 4 0;
#X connect 2 0 3 0;
#X connect 3 0 1 1;
#X connect 4 0 14 0;
#X connect 5 0 6 0;
#X connect 6 0 8 0;
#X connect 7 0 11 0;
#X connect 8 0 7 0;
#X connect 8 1 9 0;
#X connect 9 0 10 0;
#X connect 10 0 17 0;
#X connect 11 0 12 0;
#X connect 12 0 15 0;
#X connect 13 0 0 0;
#X connect 14 0 6 2;
#X connect 16 0 14 1;
#X connect 18 0 6 1;
#X connect 19 0 20 0;
#X connect 20 0 1 0;
#X restore 126 275 pd play.grain;
#X obj 126 235 tabread upcross;
#X obj 126 255 pack f f;
#X obj 183 212 tabread upcross;
#X obj 126 188 unpack f f;
#X obj 126 169 list append;
#X obj 61 56 metro 100;
#N canvas 0 43 435 451 play.grain 0;
#X obj 19 126 t a a a;
#X obj 92 186 /;
#X obj 138 134 loadbang;
#X obj 138 154 samplerate~;
#X obj 92 206 * 1000;
#X msg 19 227 \$1;
#X obj 19 254 pack f f f;
#X msg 19 295 \$1 \, \$2 \$3;
#X obj 19 274 t a a;
#X msg 175 299 \$3;
#X obj 175 319 del;
#X obj 19 322 vline~;
#X obj 19 342 tabread4~ sample;
#X obj 19 94 inlet;
#X obj 92 230 * 1;
#X obj 19 362 outlet~;
#X obj 205 206 inlet;
#X obj 175 353 outlet;
#X msg 47 227 \$2;
#X msg 92 140 \$2 \$1;
#X obj 92 160 -;
#X connect 0 0 5 0;
#X connect 0 1 18 0;
#X connect 0 2 19 0;
#X connect 1 0 4 0;
#X connect 2 0 3 0;
#X connect 3 0 1 1;
#X connect 4 0 14 0;
#X connect 5 0 6 0;
#X connect 6 0 8 0;
#X connect 7 0 11 0;
#X connect 8 0 7 0;
#X connect 8 1 9 0;
#X connect 9 0 10 0;
#X connect 10 0 17 0;
#X connect 11 0 12 0;
#X connect 12 0 15 0;
#X connect 13 0 0 0;
#X connect 14 0 6 2;
#X connect 16 0 14 1;
#X connect 18 0 6 1;
#X connect 19 0 20 0;
#X connect 20 0 1 0;
#X restore 292 289 pd play.grain;
#X obj 292 249 tabread upcross;
#X obj 292 269 pack f f;
#X obj 349 226 tabread upcross;
#X obj 292 202 unpack f f;
#X obj 292 183 list append;
#X obj 61 76 f;
#X obj 61 96 + 1;
#X obj 61 116 mod 2;
#X obj 95 142 sel 0 1;
#X obj 316 37 mtof;
#X msg 316 57 1000 \$1;
#X obj 316 77 /;
#X floatatom 316 97 5 0 0 0 - - -, f 5;
#X obj 61 15 loadbang;
#X msg 61 35 1;
#X obj 205 363 outlet~;
#X obj 315 5 inlet;
#X obj 452 116 inlet;
#X obj 619 185 inlet;
#X connect 0 0 23 0;
#X connect 1 0 2 0;
#X connect 2 0 0 0;
#X connect 3 0 2 1;
#X connect 4 0 1 0;
#X connect 4 1 3 0;
#X connect 5 0 4 0;
#X connect 6 0 13 0;
#X connect 7 0 23 0;
#X connect 8 0 9 0;
#X connect 9 0 7 0;
#X connect 10 0 9 1;
#X connect 11 0 8 0;
#X connect 11 1 10 0;
#X connect 12 0 11 0;
#X connect 13 0 14 0;
#X connect 14 0 15 0;
#X connect 15 0 13 1;
#X connect 15 0 16 0;
#X connect 16 0 5 0;
#X connect 16 1 12 0;
#X connect 17 0 18 0;
#X connect 18 0 19 0;
#X connect 19 0 20 0;
#X connect 19 0 6 1;
#X connect 21 0 22 0;
#X connect 22 0 6 0;
#X connect 24 0 17 0;
#X connect 25 0 5 1;
#X connect 25 0 12 1;
#X connect 26 0 7 1;
#X connect 26 0 0 1;
#X restore 333 127 pd voice;
#X obj 416 92 pack f f;
#X floatatom 310 75 5 0 0 0 - - -, f 5;
#X obj 366 265 *~ 1;
#N canvas 175 137 746 514 voice 0;
#N canvas 0 43 435 451 play.grain 0;
#X obj 19 126 t a a a;
#X obj 92 186 /;
#X obj 138 134 loadbang;
#X obj 138 154 samplerate~;
#X obj 92 206 * 1000;
#X msg 19 227 \$1;
#X obj 19 254 pack f f f;
#X msg 19 295 \$1 \, \$2 \$3;
#X obj 19 274 t a a;
#X msg 175 299 \$3;
#X obj 175 319 del;
#X obj 19 322 vline~;
#X obj 19 342 tabread4~ sample;
#X obj 19 94 inlet;
#X obj 92 230 * 1;
#X obj 19 362 outlet~;
#X obj 205 206 inlet;
#X obj 175 353 outlet;
#X msg 47 227 \$2;
#X msg 92 140 \$2 \$1;
#X obj 92 160 -;
#X connect 0 0 5 0;
#X connect 0 1 18 0;
#X connect 0 2 19 0;
#X connect 1 0 4 0;
#X connect 2 0 3 0;
#X connect 3 0 1 1;
#X connect 4 0 14 0;
#X connect 5 0 6 0;
#X connect 6 0 8 0;
#X connect 7 0 11 0;
#X connect 8 0 7 0;
#X connect 8 1 9 0;
#X connect 9 0 10 0;
#X connect 10 0 17 0;
#X connect 11 0 12 0;
#X connect 12 0 15 0;
#X connect 13 0 0 0;
#X connect 14 0 6 2;
#X connect 16 0 14 1;
#X connect 18 0 6 1;
#X connect 19 0 20 0;
#X connect 20 0 1 0;
#X restore 126 275 pd play.grain;
#X obj 126 235 tabread upcross;
#X obj 126 255 pack f f;
#X obj 183 212 tabread upcross;
#X obj 126 188 unpack f f;
#X obj 126 169 list append;
#X obj 61 56 metro 100;
#N canvas 0 43 435 451 play.grain 0;
#X obj 19 126 t a a a;
#X obj 92 186 /;
#X obj 138 134 loadbang;
#X obj 138 154 samplerate~;
#X obj 92 206 * 1000;
#X msg 19 227 \$1;
#X obj 19 254 pack f f f;
#X msg 19 295 \$1 \, \$2 \$3;
#X obj 19 274 t a a;
#X msg 175 299 \$3;
#X obj 175 319 del;
#X obj 19 322 vline~;
#X obj 19 342 tabread4~ sample;
#X obj 19 94 inlet;
#X obj 92 230 * 1;
#X obj 19 362 outlet~;
#X obj 205 206 inlet;
#X obj 175 353 outlet;
#X msg 47 227 \$2;
#X msg 92 140 \$2 \$1;
#X obj 92 160 -;
#X connect 0 0 5 0;
#X connect 0 1 18 0;
#X connect 0 2 19 0;
#X connect 1 0 4 0;
#X connect 2 0 3 0;
#X connect 3 0 1 1;
#X connect 4 0 14 0;
#X connect 5 0 6 0;
#X connect 6 0 8 0;
#X connect 7 0 11 0;
#X connect 8 0 7 0;
#X connect 8 1 9 0;
#X connect 9 0 10 0;
#X connect 10 0 17 0;
#X connect 11 0 12 0;
#X connect 12 0 15 0;
#X connect 13 0 0 0;
#X connect 14 0 6 2;
#X connect 16 0 14 1;
#X connect 18 0 6 1;
#X connect 19 0 20 0;
#X connect 20 0 1 0;
#X restore 292 289 pd play.grain;
#X obj 292 249 tabread upcross;
#X obj 292 269 pack f f;
#X obj 349 226 tabread upcross;
#X obj 292 202 unpack f f;
#X obj 292 183 list append;
#X obj 61 76 f;
#X obj 61 96 + 1;
#X obj 61 116 mod 2;
#X obj 95 142 sel 0 1;
#X obj 316 37 mtof;
#X msg 316 57 1000 \$1;
#X obj 316 77 /;
#X floatatom 316 97 5 0 0 0 - - -, f 5;
#X obj 61 15 loadbang;
#X msg 61 35 1;
#X obj 205 363 outlet~;
#X obj 315 5 inlet;
#X obj 452 116 inlet;
#X obj 538 142 inlet;
#X connect 0 0 23 0;
#X connect 1 0 2 0;
#X connect 2 0 0 0;
#X connect 3 0 2 1;
#X connect 4 0 1 0;
#X connect 4 1 3 0;
#X connect 5 0 4 0;
#X connect 6 0 13 0;
#X connect 7 0 23 0;
#X connect 8 0 9 0;
#X connect 9 0 7 0;
#X connect 10 0 9 1;
#X connect 11 0 8 0;
#X connect 11 1 10 0;
#X connect 12 0 11 0;
#X connect 13 0 14 0;
#X connect 14 0 15 0;
#X connect 15 0 13 1;
#X connect 15 0 16 0;
#X connect 16 0 5 0;
#X connect 16 1 12 0;
#X connect 17 0 18 0;
#X connect 18 0 19 0;
#X connect 19 0 20 0;
#X connect 19 0 6 1;
#X connect 21 0 22 0;
#X connect 22 0 6 0;
#X connect 24 0 17 0;
#X connect 25 0 5 1;
#X connect 25 0 12 1;
#X connect 26 0 7 1;
#X connect 26 0 0 1;
#X restore 422 134 pd voice;
#X floatatom 350 75 5 0 0 0 - - -, f 5;
#X floatatom 416 7 5 0 0 0 - - -, f 5;
#X obj 416 44 t a a;
#X obj 455 62 + 1;
#X floatatom 470 7 5 0 0 0 - - -, f 5;
#X obj 470 24 t b a;
#X obj 515 96 pack f f;
#X floatatom 515 11 5 0 0 0 - - -, f 5;
#X obj 515 48 t a a;
#X obj 554 66 + 1;
#X floatatom 569 11 5 0 0 0 - - -, f 5;
#X obj 569 28 t b a;
#X connect 0 0 1 0;
#X connect 2 0 1 0;
#X connect 4 0 12 0;
#X connect 5 0 6 0;
#X connect 8 0 7 0;
#X connect 9 0 8 0;
#X connect 9 0 5 0;
#X connect 13 0 25 0;
#X connect 16 0 15 0;
#X connect 17 0 18 0;
#X connect 17 0 18 1;
#X connect 19 0 17 0;
#X connect 20 0 22 0;
#X connect 21 0 20 0;
#X connect 23 0 13 1;
#X connect 24 0 13 0;
#X connect 27 0 26 0;
#X connect 29 0 37 2;
#X connect 29 0 33 2;
#X connect 30 0 29 0;
#X connect 33 0 36 0;
#X connect 34 0 33 1;
#X connect 34 0 37 1;
#X connect 35 0 33 0;
#X connect 36 0 11 0;
#X connect 36 0 11 1;
#X connect 37 0 36 0;
#X connect 38 0 37 0;
#X connect 39 0 40 0;
#X connect 40 0 34 0;
#X connect 40 1 41 0;
#X connect 41 0 34 1;
#X connect 42 0 43 0;
#X connect 43 0 39 0;
#X connect 43 1 41 1;
#X connect 44 0 37 1;
#X connect 45 0 46 0;
#X connect 46 0 44 0;
#X connect 46 1 47 0;
#X connect 47 0 44 1;
#X connect 48 0 49 0;
#X connect 49 0 45 0;
#X connect 49 1 47 1;
#X restore 14 10 pd experimenting;
#X restore 10 42 pd \$1-couscous;
