#N canvas 594 44 460 561 10;
#N canvas 624 75 434 290 NETPD 0;
#X msg 12 8 version 0 0 0;
#N canvas 315 75 473 287 abslist 0;
#X text 7 13 Put a message box containing the name of the abstraction
(without the .pd suffix) for each dependency.;
#X text 6 55 For instance:;
#X text 23 84 [mysynth-voice(;
#X text 13 130 NOTE: abstractions of instruments also use netpd meta
tags and may also specify their own dependencies. unpatch resolves
dependency trees recursively.;
#X restore 12 178 pd abslist;
#X text 111 179 <- add dependencies of your netpd instrument;
#X text 18 32 A 'version' meta tag is mandatory. unpatch uses this
information to make sure that all clients load the same version of
the instrument.;
#X text 19 78 Whenever you make changes to your instrument \, make
sure to bump the version.;
#X text 18 118 There is no predefined meaning of the three version
fields. Use them at your own will.;
#X text 16 211 The [pd abslist] tag container is optional and is used
to specify dependencies (abstractions in netpd/abs) of your instrument.
;
#X text 107 7 <- update the version of this netpd instrument;
#X restore 10 14 pd NETPD 2 0;
#X obj 10 69 netpd_head \$1 couscous;
#N canvas 694 109 325 215 \$1-couscous 1;
#N canvas 174 176 1058 550 experimenting 1;
#X obj 18 22 adc~;
#X obj 19 59 tabwrite~ sample;
#X obj 56 16 bng 15 250 50 0 empty empty empty 17 7 0 10 -262144 -1
-1;
#X obj 618 10 table sample 44100;
#X obj 83 12 osc~ 200;
#X obj 762 376 tabread upcross;
#X floatatom 762 396 10 0 0 0 - - -, f 10;
#X floatatom 903 385 10 0 0 0 - - -, f 10;
#X obj 903 365 tabread length;
#X floatatom 815 331 5 0 0 0 - - -, f 5;
#X obj 618 50 table length 2000;
#X obj 618 31 table upcross 2000;
#X obj 161 23 bng 15 250 50 0 empty empty empty 17 7 0 10 -262144 -1
-1;
#X obj 260 298 dac~;
#X obj 260 5 r \$0.next;
#X obj 83 32 *~ 0.9;
#N canvas 0 43 300 400 larger_than 0;
#X obj 14 147 random;
#X obj 14 126 t b a;
#X obj 14 106 value count;
#X obj 14 84 until;
#X msg 14 63 1e+06;
#X obj 14 210 moses 200;
#X obj 14 185 tabread length;
#X obj 65 276 f;
#X obj 167 170 b;
#X obj 172 133 inlet;
#X obj 66 300 outlet;
#X obj 14 40 inlet;
#X obj 14 167 t a a;
#X obj 65 244 t b b;
#X connect 0 0 12 0;
#X connect 1 0 0 0;
#X connect 1 1 0 1;
#X connect 2 0 1 0;
#X connect 3 0 2 0;
#X connect 4 0 3 0;
#X connect 5 1 13 0;
#X connect 6 0 5 0;
#X connect 7 0 10 0;
#X connect 8 0 3 1;
#X connect 9 0 5 1;
#X connect 11 0 4 0;
#X connect 12 0 6 0;
#X connect 12 1 7 1;
#X connect 13 0 7 0;
#X connect 13 1 8 0;
#X restore 712 156 pd larger_than;
#X obj 834 466 table scope 1000;
#X obj 332 415 tabwrite~ scope;
#X obj 373 387 bng 15 250 50 0 empty empty empty 17 7 0 10 -262144
-1 -1;
#X obj 73 368 tabplay~ sample;
#X obj 73 388 dac~;
#X obj 85 326 bng 15 250 50 0 empty empty empty 17 7 0 10 -262144 -1
-1;
#X obj 258 174 f;
#X obj 220 442 value count;
#X obj 221 403 bng 15 250 50 0 empty empty empty 17 7 0 10 -262144
-1 -1;
#X floatatom 220 462 5 0 0 0 - - -, f 5;
#X floatatom 788 118 5 0 0 0 - - -, f 5;
#X obj 705 107 bng 15 250 50 0 empty empty empty 17 7 0 10 -262144
-1 -1;
#X obj 684 188 print;
#X obj 258 194 t a a;
#X obj 305 171 + 1;
#N canvas 0 43 480 511 analyze.sample 0;
#X obj 41 142 zerocross sample;
#X obj 89 188 f;
#X obj 133 201 + 1;
#X msg 104 166 0;
#X obj 89 208 t a a;
#X obj 68 247 tabwrite upcross;
#X obj 42 337 tabwrite length;
#X obj 41 219 t a a;
#X obj 42 299 -;
#X obj 41 275 t a a;
#X obj 129 312 - 1;
#X obj 22 401 value count;
#X obj 41 162 t a b;
#X obj 22 117 t b a b;
#X obj 22 379 f;
#X obj 22 68 array size sample;
#X msg 22 97 0 \$1;
#X obj 22 32 inlet;
#X connect 0 0 12 0;
#X connect 1 0 4 0;
#X connect 2 0 1 1;
#X connect 3 0 1 1;
#X connect 3 0 8 1;
#X connect 4 0 10 0;
#X connect 4 0 5 1;
#X connect 4 1 2 0;
#X connect 4 1 14 1;
#X connect 7 0 9 0;
#X connect 7 1 5 0;
#X connect 8 0 6 0;
#X connect 9 0 8 1;
#X connect 9 1 8 0;
#X connect 10 0 6 1;
#X connect 12 0 7 0;
#X connect 12 1 1 0;
#X connect 13 0 14 0;
#X connect 13 1 0 0;
#X connect 13 2 3 0;
#X connect 14 0 11 0;
#X connect 15 0 16 0;
#X connect 16 0 13 0;
#X connect 17 0 15 0;
#X restore 18 132 pd analyze.sample;
#X obj 18 107 bng 15 250 50 0 empty empty empty 17 7 0 10 -262144 -1
-1;
#X obj 306 194 mod 260;
#X obj 661 456 print;
#N canvas 0 43 435 451 play.grain 0;
#X obj 19 126 t a a a;
#X msg 92 166 \$2;
#X obj 92 186 /;
#X obj 138 134 loadbang;
#X obj 138 154 samplerate~;
#X obj 92 206 * 1000;
#X obj 38 177 unpack;
#X obj 38 197 +;
#X msg 19 227 \$1;
#X obj 19 254 pack f f f;
#X msg 19 295 \$1 \, \$2 \$3;
#X obj 19 274 t a a;
#X msg 175 299 \$3;
#X obj 175 319 del;
#X obj 175 341 s \$0.next;
#X obj 19 322 vline~;
#X obj 19 342 tabread4~ sample;
#X obj 19 47 t a a;
#X obj 19 84 tabread upcross;
#X obj 49 65 tabread length;
#X obj 19 104 pack f f;
#X obj 19 17 inlet;
#X obj 92 230 * 1;
#X obj 19 362 outlet~;
#X obj 205 206 inlet;
#X connect 0 0 8 0;
#X connect 0 1 6 0;
#X connect 0 2 1 0;
#X connect 1 0 2 0;
#X connect 2 0 5 0;
#X connect 3 0 4 0;
#X connect 4 0 2 1;
#X connect 5 0 22 0;
#X connect 6 0 7 0;
#X connect 6 1 7 1;
#X connect 7 0 9 1;
#X connect 8 0 9 0;
#X connect 9 0 11 0;
#X connect 10 0 15 0;
#X connect 11 0 10 0;
#X connect 11 1 12 0;
#X connect 12 0 13 0;
#X connect 13 0 14 0;
#X connect 15 0 16 0;
#X connect 16 0 23 0;
#X connect 17 0 18 0;
#X connect 17 1 19 0;
#X connect 18 0 20 0;
#X connect 19 0 20 1;
#X connect 20 0 0 0;
#X connect 21 0 17 0;
#X connect 22 0 9 2;
#X connect 24 0 22 1;
#X restore 258 229 pd play.grain;
#X obj 469 406 hsl 128 15 0.1 10 1 0 empty empty empty -2 -8 0 10 -262144
-1 -1 0 1;
#X obj 428 46 t b b;
#X msg 428 66 1;
#X obj 455 88 f;
#X obj 455 108 sel 0;
#X obj 455 189 t b b;
#X msg 562 147 0;
#X obj 426 16 bng 15 250 50 0 empty empty empty 17 7 0 10 -262144 -1
-1;
#X obj 455 169 del 50;
#X obj 455 128 random 100;
#X obj 455 148 + 50;
#X floatatom 523 86 5 0 0 0 - - -, f 5;
#X obj 454 210 random 30;
#X obj 454 230 +;
#X floatatom 487 231 5 0 0 0 - - -, f 5;
#X floatatom 563 187 5 0 0 0 - - -, f 5;
#X floatatom 559 110 5 0 0 0 - - -, f 5;
#X floatatom 550 228 5 0 0 0 - - -, f 5;
#X obj 454 250 b;
#X obj 260 91 spigot 1;
#X obj 175 54 t b b;
#X msg 312 65 1;
#X msg 354 70 0;
#X obj 260 25 t b b;
#X obj 384 273 print;
#X obj 189 288 print;
#X floatatom 366 171 5 0 0 0 - - -, f 5;
#X msg 467 369 1;
#X connect 0 0 1 0;
#X connect 2 0 1 0;
#X connect 4 0 15 0;
#X connect 5 0 6 0;
#X connect 8 0 7 0;
#X connect 9 0 8 0;
#X connect 9 0 5 0;
#X connect 12 0 57 0;
#X connect 14 0 60 0;
#X connect 16 0 29 0;
#X connect 19 0 18 0;
#X connect 20 0 21 0;
#X connect 20 0 21 1;
#X connect 22 0 20 0;
#X connect 23 0 30 0;
#X connect 24 0 26 0;
#X connect 25 0 24 0;
#X connect 27 0 16 1;
#X connect 28 0 16 0;
#X connect 30 0 36 0;
#X connect 30 0 62 0;
#X connect 30 1 31 0;
#X connect 31 0 34 0;
#X connect 33 0 32 0;
#X connect 34 0 23 1;
#X connect 36 0 13 0;
#X connect 36 0 13 1;
#X connect 37 0 36 1;
#X connect 38 0 39 0;
#X connect 38 1 40 0;
#X connect 39 0 40 1;
#X connect 40 0 41 0;
#X connect 41 0 46 0;
#X connect 42 0 49 0;
#X connect 42 1 43 0;
#X connect 43 0 40 1;
#X connect 44 0 38 0;
#X connect 45 0 42 0;
#X connect 46 0 47 0;
#X connect 47 0 45 0;
#X connect 49 0 50 0;
#X connect 50 0 55 0;
#X connect 50 0 23 1;
#X connect 50 0 61 0;
#X connect 51 0 50 1;
#X connect 52 0 47 1;
#X connect 53 0 46 1;
#X connect 54 0 49 1;
#X connect 56 0 23 0;
#X connect 57 0 23 0;
#X connect 57 1 58 0;
#X connect 58 0 56 1;
#X connect 59 0 56 1;
#X connect 60 0 56 0;
#X connect 60 1 38 0;
#X connect 63 0 34 1;
#X connect 64 0 37 0;
#X restore 14 10 pd experimenting;
#X restore 10 42 pd \$1-couscous;
