#N canvas 605 99 467 219 10;
#X text 94 140 by Enrique Erne;
#N canvas 854 167 307 123 NETPD 0;
#N canvas 1078 99 481 299 abslist 0;
#X msg 28 45 e-del;
#X msg 28 65 e-spectdel;
#X msg 39 174 e-2rect;
#X msg 39 194 e-bitcrush;
#X msg 113 45 e-crs4;
#X msg 113 65 e-flanger;
#X msg 113 85 e-pitchshifter;
#X msg 113 125 e-rev1;
#X msg 113 145 e-rev2;
#X msg 113 165 e-rev3;
#X msg 39 154 e-loop;
#X msg 145 192 e-am;
#X msg 183 192 e-ssb;
#X msg 278 210 e-monitor;
#X msg 42 15 mx-fx-list;
#X msg 41 214 e-tanh;
#X msg 28 85 e-spectfilt;
#X msg 90 244 e-modf;
#X msg 254 134 e-dwnsmp;
#X msg 184 254 e-pong;
#X msg 234 63 e-am-sc;
#X msg 235 82 e-mix-sc;
#X msg 236 101 e-ring-sc;
#X msg 27 106 e-convolve;
#X restore 18 37 pd abslist;
#X msg 18 59 singleton;
#X msg 18 14 version 0 2 15;
#X restore 18 46 pd NETPD 2 0;
#X text 17 158 netpd2-ified by Roman Haefeli;
#N canvas 180 281 381 602 \$1-e-lib 0;
#X msg 130 531 eN!;
#X text 30 12 e-lib;
#X text 30 82 e-am - amplitude modulation;
#X text 30 142 e-convolve - convolution;
#X text 30 162 e-crs4 - chorus;
#X text 30 202 e-dwnsmp - downsampling;
#X text 30 222 e-flanger - flanger;
#X text 30 322 e-pitchshifter - shift the pitch;
#X text 30 342 e-pong - triggered sampler (use qseq3);
#X text 30 442 e-spectdel - spectral delay;
#X text 30 462 e-spectfilt - spectral filter;
#X text 30 482 e-ssb - single sideband modulation freq. shift;
#X text 30 502 e-tanh - saturation distortion;
#X text 30 532 by Enrique Erne;
#X text 30 552 netpd2-ified by Roman Haefeli;
#X text 30 302 e-monitor - sends signal to dac 3/4;
#X text 30 282 e-modf - modulation;
#X text 30 32 effects for the Netpd mixer (mx) + aux channels;
#X text 30 62 e-2rect - signal to rectangle;
#X text 30 182 e-del - dj style delay;
#X text 30 242 e-loop - varispeed loop recorder/repeater;
#X text 30 382 e-rev2 - reverb (from Miller's pd/extra);
#X text 30 402 e-rev3 - reverb (from Miller's pd/extra) + lowpass;
#X text 30 262 e-mix-sc - side-chain mixer;
#X text 30 122 e-bitcrush - bitcrusher;
#X text 30 102 e-am-sc - amplitude modulation sidechain;
#X text 30 362 e-rev1 - mono reverb (from Miller's pd/extra);
#X text 30 422 e-ring-sc - ring modulation with sidechain;
#X restore 18 17 pd \$1-e-lib;
#X obj 15 75 mx-fx-list \$1 e-lib e-2rect e-am e-am-sc e-bitcrush e-convolve
e-crs4 e-del e-dwnsmp e-flanger e-loop e-mix-sc e-modf e-monitor e-pitchshifter
e-pong e-rev1 e-rev2 e-rev3 e-ring-sc e-ssb e-spectdel e-spectfilt
e-tanh;
