#N struct 2130.vertgrid float x float y float w float h;
#N struct 2130.horizgrid float x float y float w float h float c symbol
note float notevis;
#N struct 2130.vertline float x float y float h float c float n float
nvis;
#N struct 2130.guibar float x float y float w;
#N struct 2130.gid.button float x float y float clr float gid;
#N struct 2130.vel float x float y float value;
#N struct 2130.dur float x float y float value;
#N struct 2130.mode.button float x float y float w float c symbol param
;
#N struct 2130.show.selector float x float y float w float hilite float
id symbol label;
#N struct 2130.cursor float x float y float h float vis;
#N struct 2130.pager float x float y float c float dir float num float
nvis;
#N struct 2130.scroller float x float y float c float dir;
#N struct 2130.keyboard.toggle float x float y symbol label float hilite
float ihilite;
#N canvas 173 166 392 333 10;
#N canvas 624 99 402 76 NETPD 0;
#N canvas 315 99 398 107 abslist 0;
#X msg 12 43 i2mx;
#X msg 14 72 master-poly;
#X msg 107 15 master-param;
#X msg 106 40 elorg-voice;
#X msg 12 13 unpunch-plus;
#X restore 14 35 pd abslist;
#X msg 13 7 version 0 1 1;
#X restore 291 18 pd NETPD 2 0;
#X obj 11 39 netpd_head \$1 elorg;
#N canvas 484 166 381 282 \$1-elorg 1;
#X obj 5 3 cnv 15 370 270 empty empty empty 20 12 0 14 -57793 -66577
0;
#X obj 10 8 cnv 1 360 260 empty empty E*L*O*R*G 5 16 2 22 -220268 -57793
0;
#X obj 279 13 bng 25 250 50 0 \$0.show.unpunch \$0.bli empty 17 7 0
10 -262144 -1 -1;
#X obj 15 43 cnv 15 350 220 empty empty empty 20 12 0 14 -57793 -66577
0;
#X obj 20 47 vradio 20 1 0 9 \$1-partial/1 \$1-partial/1 empty 0 -8
0 10 -86853 -262144 -1 0;
#X obj 60 47 vradio 20 1 0 9 \$1-partial/3 \$1-partial/3 empty 0 -8
0 10 -86853 -262144 -1 0;
#X obj 100 47 vradio 20 1 0 9 \$1-partial/2 \$1-partial/2 empty 0 -8
0 10 -262144 -66577 -1 0;
#X obj 140 47 vradio 20 1 0 9 \$1-partial/4 \$1-partial/4 empty 0 -8
0 10 -262144 -66577 -1 0;
#X obj 180 47 vradio 20 1 0 9 \$1-partial/6 \$1-partial/6 empty 0 -8
0 10 -66577 -262144 -1 0;
#X obj 220 47 vradio 20 1 0 9 \$1-partial/8 \$1-partial/8 empty 0 -8
0 10 -262144 -66577 -1 0;
#X obj 260 47 vradio 20 1 0 9 \$1-partial/10 \$1-partial/10 empty 0
-8 0 10 -66577 -262144 -1 0;
#X obj 300 47 vradio 20 1 0 9 \$1-partial/12 \$1-partial/12 empty 0
-8 0 10 -66577 -262144 -1 0;
#X obj 340 47 vradio 20 1 0 9 \$1-partial/16 \$1-partial/16 empty 0
-8 0 10 -262144 -66577 -1 0;
#X obj 20 235 cnv 15 340 22 empty empty empty 20 12 0 14 -220268 -66577
0;
#X text 21 237 16';
#X text 103 237 8';
#X text 142 237 4';
#X text 180 237 2⅔';
#X text 260 237 1⅗';
#X text 222 237 2';
#X text 300 237 1⅓';
#X text 343 237 1';
#X text 62 237 5⅔;
#X obj 304 13 bng 25 250 50 0 \$0.show.unpunch \$0.bli empty 17 7 0
10 -262144 -1 -1;
#X obj 321 13 bng 25 250 50 0 \$0.show.unpunch \$0.bli empty 17 7 0
10 -262144 -1 -1;
#X obj 340 13 bng 25 250 50 0 \$0.show.unpunch \$0.bli empty 17 7 0
10 -262144 -1 -1;
#X obj 279 13 cnv 15 86 25 empty empty *unpunch* 5 12 2 16 -57793 -220268
0;
#X restore 10 12 pd \$1-elorg;
#X obj 11 274 i2mx \$1 elorg;
#X obj 11 159 pack f f f;
#X obj 11 136 poly 8 1, f 10;
#X obj 11 185 s \$1-elorg-voice;
#N canvas 0 89 399 214 catch 0;
#X obj 11 104 catch~ \$1-sum/left;
#X obj 131 104 catch~ \$1-sum/right;
#X obj 21 19 inlet~;
#X obj 11 146 outlet~;
#X obj 131 146 outlet~;
#X connect 0 0 3 0;
#X connect 1 0 4 0;
#X restore 11 240 pd catch;
#N canvas 692 162 363 267 voices 0;
#X obj 16 22 elorg-voice \$1 1;
#X obj 16 42 elorg-voice \$1 2;
#X obj 16 62 elorg-voice \$1 3;
#X obj 16 82 elorg-voice \$1 4;
#X obj 16 102 elorg-voice \$1 5;
#X obj 16 122 elorg-voice \$1 6;
#X obj 16 142 elorg-voice \$1 7;
#X obj 16 162 elorg-voice \$1 8;
#X obj 8 217 outlet~;
#X obj 82 215 outlet;
#X connect 0 0 1 0;
#X connect 1 0 2 0;
#X connect 2 0 3 0;
#X connect 3 0 4 0;
#X connect 4 0 5 0;
#X connect 5 0 6 0;
#X connect 6 0 7 0;
#X connect 7 0 9 0;
#X restore 11 214 pd voices;
#X f 13;
#X obj 11 107 unpunch-plus \$1 elorg;
#X obj 11 80 r \$0.show.unpunch;
#N canvas 568 288 366 305 drawbars 0;
#X obj 17 17 netpd_f \$1 partial/1;
#X obj 17 46 netpd_f \$1 partial/3;
#X obj 17 77 netpd_f \$1 partial/2;
#X obj 17 106 netpd_f \$1 partial/4;
#X obj 17 137 netpd_f \$1 partial/6;
#X obj 17 166 netpd_f \$1 partial/8;
#X obj 17 197 netpd_f \$1 partial/10;
#X obj 17 226 netpd_f \$1 partial/12;
#X obj 17 256 netpd_f \$1 partial/16;
#X restore 199 104 pd drawbars;
#X connect 4 0 6 0;
#X connect 5 0 4 0;
#X connect 5 1 4 1;
#X connect 5 2 4 2;
#X connect 7 0 3 0;
#X connect 7 1 3 1;
#X connect 8 0 7 0;
#X connect 8 1 3 2;
#X connect 9 0 5 0;
#X connect 10 0 9 0;
