#N canvas 173 166 392 333 10;
#N canvas 624 99 402 76 NETPD 0;
#N canvas 315 99 398 107 abslist 0;
#X msg 12 43 i2mx;
#X msg 14 72 master-poly;
#X msg 107 15 master-param;
#X msg 106 40 elorg-voice;
#X msg 12 13 unpunch-plus;
#X restore 14 35 pd abslist;
#X msg 13 7 version 0 1 1;
#X restore 291 18 pd NETPD 2 0;
#X obj 11 39 netpd_head \$1 elorg;
#N canvas 764 89 350 176 \$1-elorg 1;
#X obj 24 39 bng 15 250 50 0 \$0.show.unpunch \$0.bli empty 17 7 0
10 -262144 -1 -1;
#X text 46 39 unpunch;
#X restore 10 12 pd \$1-elorg;
#X obj 11 274 i2mx \$1 elorg;
#X obj 11 159 pack f f f;
#X obj 11 136 poly 8 1, f 10;
#X obj 11 185 s \$1-elorg-voice;
#N canvas 0 89 399 214 catch 0;
#X obj 11 104 catch~ \$1-sum/left;
#X obj 131 104 catch~ \$1-sum/right;
#X obj 21 19 inlet~;
#X obj 11 146 outlet~;
#X obj 131 146 outlet~;
#X connect 0 0 3 0;
#X connect 1 0 4 0;
#X restore 11 240 pd catch;
#N canvas 692 162 363 267 voices 0;
#X obj 16 22 elorg-voice \$1 1;
#X obj 16 42 elorg-voice \$1 2;
#X obj 16 62 elorg-voice \$1 3;
#X obj 16 82 elorg-voice \$1 4;
#X obj 16 102 elorg-voice \$1 5;
#X obj 16 122 elorg-voice \$1 6;
#X obj 16 142 elorg-voice \$1 7;
#X obj 16 162 elorg-voice \$1 8;
#X obj 8 217 outlet~;
#X obj 82 215 outlet;
#X connect 0 0 1 0;
#X connect 1 0 2 0;
#X connect 2 0 3 0;
#X connect 3 0 4 0;
#X connect 4 0 5 0;
#X connect 5 0 6 0;
#X connect 6 0 7 0;
#X connect 7 0 9 0;
#X restore 11 214 pd voices;
#X f 13;
#X obj 11 107 unpunch-plus \$1 elorg;
#X obj 11 80 r \$0.show.unpunch;
#X connect 4 0 6 0;
#X connect 5 0 4 0;
#X connect 5 1 4 1;
#X connect 5 2 4 2;
#X connect 7 0 3 0;
#X connect 7 1 3 1;
#X connect 8 0 7 0;
#X connect 8 1 3 2;
#X connect 9 0 5 0;
#X connect 10 0 9 0;
