#N struct 1594.vertgrid float x float y float w float h;
#N struct 1594.horizgrid float x float y float w float h float c symbol
note float notevis;
#N struct 1594.vertline float x float y float h float c float n float
nvis;
#N struct 1594.guibar float x float y float w;
#N struct 1594.gid.button float x float y float clr float gid;
#N struct 1594.vel float x float y float value;
#N struct 1594.dur float x float y float value;
#N struct 1594.mode.button float x float y float w float c symbol param
;
#N struct 1594.show.selector float x float y float w float hilite float
id symbol label;
#N struct 1594.cursor float x float y float h float vis;
#N struct 1594.pager float x float y float c float dir float num float
nvis;
#N struct 1594.scroller float x float y float c float dir;
#N struct 1594.keyboard.toggle float x float y symbol label float hilite
float ihilite;
#N struct 1594.note float x float y float w float h float id float
gid float vel float dur float c float vis float mrk;
#N canvas 481 106 1037 686 10;
#X declare -path ./abs;
#X obj 41 58 declare -path ./abs;
#X obj 58 380 pack f f f;
#X obj 300 370 tgl 15 0 empty empty empty 17 7 0 10 -262144 -1 -1 0
1;
#X obj 300 390 metro 50;
#X obj 300 411 tabwrite~ \$0-scope;
#N canvas 0 22 450 278 (subpatch) 0;
#X array \$0-scope 441 float 0;
#X coords 0 1 440 -1 200 140 1;
#X restore 453 106 graph;
#X obj 58 443 clip~ -1 1;
#X obj 58 464 hip~ 3;
#X obj 58 485 *~ 0.9;
#X obj 58 145 hsl 128 16 0 127 0 1 \$0-s-decay-time \$0-r-decay-time
DECAY TIME -2 -6 0 12 -1 -262144 -1 12200 1;
#X obj 58 175 hsl 128 16 0 127 0 1 \$0-s-release-time \$0-r-release-time
RELEASE TIME -2 -6 0 12 -1 -262144 -1 0 1;
#X obj 334 458 r \$0-s-decay-time;
#X obj 334 479 / 127;
#X msg 334 542 2 \$1;
#X obj 334 563 pow;
#X obj 334 584 s \$0-decay-time;
#X obj 334 605 v \$0-decay-time;
#X obj 454 479 / 127;
#X msg 454 542 2 \$1;
#X obj 454 563 pow;
#X obj 454 458 r \$0-s-release-time;
#X obj 454 584 s \$0-release-time;
#X obj 454 605 v \$0-release-time;
#X obj 334 521 + 4;
#X obj 454 500 * 7;
#X obj 454 521 + 3;
#X obj 264 542 cputime;
#X obj 264 458 loadbang;
#X obj 264 500 metro 1000;
#X obj 264 521 t b b;
#X obj 264 584 * 0.1;
#X obj 264 563 int;
#X obj 264 605 s \$0-cpu;
#X msg 264 479 1;
#X obj 55 95 nbx 3 16 -1e+37 1e+37 0 0 empty \$0-cpu CPU(%) 0 -6 0
12 -1 -262144 -1 23 256;
#X obj 202 366 > 0;
#X obj 202 387 sel 1;
#X obj 58 215 hsl 128 16 0 127 0 1 \$0-s-tine-decay \$0-r-tine-decay
TINE DECAY -2 -6 0 12 -1 -262144 -1 7600 1;
#X obj 594 479 / 127;
#X msg 594 542 2 \$1;
#X obj 594 563 pow;
#X obj 594 458 r \$0-s-tine-decay;
#X obj 594 584 s \$0-tine-decay;
#X obj 594 605 v \$0-tine-decay;
#X obj 594 521 + 6;
#X msg 477 340 open ./test.wav \, start;
#X obj 477 361 writesf~;
#X msg 477 320 stop;
#X msg 680 256 60;
#X obj 680 298 mtof;
#X obj 680 277 - 24;
#X obj 680 319 phasor~;
#X obj 680 340 -~ 0.25;
#X obj 680 361 cos~;
#X obj 755 297 *~ 20;
#X obj 755 318 -~ 0.25;
#X obj 755 339 cos~;
#X obj 755 360 /~ 6;
#X obj 679 381 *~;
#X obj 594 500 * 7;
#X obj 334 500 * 8;
#X obj 58 401 clone -s 1 ep-mk2-voice 8 \$0;
#N canvas 341 327 403 98 NETPD 0;
#X msg 9 24 version 0 0 1;
#N canvas 266 391 391 130 abslist 0;
#X msg 17 42 unpunch-plus;
#X msg 17 12 ep-mk2-voice;
#X msg 17 72 i2mx;
#X restore 8 52 pd abslist;
#X restore 262 46 pd NETPD 2 0;
#N canvas 830 252 450 300 \$1-ep-mk2 1;
#X text 141 121 GUI OF EP-MK2;
#X restore 263 70 pd \$1-ep-mk2;
#X obj 263 96 netpd_head \$1 ep-mk2;
#X obj 56 268 unpunch-plus \$1 ep-mk2;
#X obj 58 359 poly 8 1;
#X msg 56 291 \$1 \$2;
#X obj 56 240 bng 15 250 50 0 empty empty empty 17 7 0 10 -262144 -1
-1;
#X obj 50 578 i2mx \$1 ep-mk2;
#X connect 1 0 61 0;
#X connect 2 0 3 0;
#X connect 3 0 4 0;
#X connect 6 0 7 0;
#X connect 7 0 8 0;
#X connect 8 0 46 0;
#X connect 8 0 69 0;
#X connect 8 0 69 1;
#X connect 11 0 12 0;
#X connect 12 0 60 0;
#X connect 13 0 14 0;
#X connect 14 0 15 0;
#X connect 17 0 24 0;
#X connect 18 0 19 0;
#X connect 19 0 21 0;
#X connect 20 0 17 0;
#X connect 23 0 13 0;
#X connect 24 0 25 0;
#X connect 25 0 18 0;
#X connect 26 0 31 0;
#X connect 27 0 33 0;
#X connect 28 0 29 0;
#X connect 29 0 26 0;
#X connect 29 1 26 1;
#X connect 30 0 32 0;
#X connect 31 0 30 0;
#X connect 33 0 28 0;
#X connect 35 0 36 0;
#X connect 36 0 4 0;
#X connect 38 0 59 0;
#X connect 39 0 40 0;
#X connect 40 0 42 0;
#X connect 41 0 38 0;
#X connect 44 0 39 0;
#X connect 45 0 46 0;
#X connect 47 0 46 0;
#X connect 48 0 50 0;
#X connect 49 0 51 0;
#X connect 50 0 49 0;
#X connect 51 0 52 0;
#X connect 51 0 54 0;
#X connect 52 0 53 0;
#X connect 53 0 58 0;
#X connect 54 0 55 0;
#X connect 55 0 56 0;
#X connect 56 0 57 0;
#X connect 56 0 58 1;
#X connect 59 0 44 0;
#X connect 60 0 23 0;
#X connect 61 0 6 0;
#X connect 65 0 67 0;
#X connect 66 0 1 0;
#X connect 66 1 1 1;
#X connect 66 2 1 2;
#X connect 66 2 35 0;
#X connect 67 0 66 0;
#X connect 68 0 65 0;
#X coords 0 686 1 685 566 325 0;
