#N struct 1594.vertgrid float x float y float w float h;
#N struct 1594.horizgrid float x float y float w float h float c symbol
note float notevis;
#N struct 1594.vertline float x float y float h float c float n float
nvis;
#N struct 1594.guibar float x float y float w;
#N struct 1594.gid.button float x float y float clr float gid;
#N struct 1594.vel float x float y float value;
#N struct 1594.dur float x float y float value;
#N struct 1594.mode.button float x float y float w float c symbol param
;
#N struct 1594.show.selector float x float y float w float hilite float
id symbol label;
#N struct 1594.cursor float x float y float h float vis;
#N struct 1594.pager float x float y float c float dir float num float
nvis;
#N struct 1594.scroller float x float y float c float dir;
#N struct 1594.keyboard.toggle float x float y symbol label float hilite
float ihilite;
#N struct 1594.note float x float y float w float h float id float
gid float vel float dur float c float vis float mrk;
#N canvas 481 106 800 383 10;
#X obj 28 235 pack f f f;
#X obj 28 310 *~ 0.9;
#X msg 254 102 2 \$1;
#X obj 254 123 pow;
#X obj 254 144 s \$0-decay-time;
#X obj 254 165 v \$0-decay-time;
#X msg 414 117 2 \$1;
#X obj 414 138 pow;
#X obj 414 159 s \$0-release-time;
#X obj 414 180 v \$0-release-time;
#X obj 254 81 + 4;
#X obj 414 75 * 7;
#X obj 414 96 + 3;
#X msg 594 127 2 \$1;
#X obj 594 148 pow;
#X obj 594 169 s \$0-tine-decay;
#X obj 594 190 v \$0-tine-decay;
#X obj 594 106 + 6;
#X obj 594 85 * 7;
#X obj 254 60 * 8;
#X obj 28 256 clone -s 1 ep-mk2-voice 8 \$0;
#N canvas 341 327 403 98 NETPD 0;
#X msg 9 24 version 0 0 1;
#N canvas 266 391 391 130 abslist 0;
#X msg 17 42 unpunch-plus;
#X msg 17 12 ep-mk2-voice;
#X msg 17 72 i2mx;
#X restore 8 52 pd abslist;
#X restore 28 23 pd NETPD 2 0;
#N canvas 831 503 450 300 \$1-ep-mk2 0;
#X text 183 36 GUI OF EP-MK2;
#X obj 58 145 hsl 128 16 0 1 0 1 \$1-decay-time \$1-decay-time DECAY TIME
-2 -6 0 12 -1 -262144 -1 10900 1;
#X obj 58 175 hsl 128 16 0 1 0 1 \$1-release-time \$1-release-time
RELEASE TIME -2 -6 0 12 -1 -262144 -1 0 1;
#X obj 58 215 hsl 128 16 0 1 0 1 \$1-tine-decay \$1-tine-decay TINE DECAY
-2 -6 0 12 -1 -262144 -1 12700 1;
#X obj 53 66 hsl 128 15 0 127 0 0 \$0.unpunch \$0.bli UNPUNCH -2 -8
0 10 -1 -262144 -1 0 1;
#X restore 28 55 pd \$1-ep-mk2;
#X obj 28 82 netpd_head \$1 ep-mk2;
#X obj 28 163 unpunch-plus \$1 ep-mk2;
#X obj 28 214 poly 8 1;
#X msg 28 186 \$1 \$2;
#X obj 28 343 i2mx \$1 ep-mk2;
#X obj 28 111 r \$0.unpunch;
#X obj 28 134 sel 0;
#X obj 74 134 t a;
#X obj 28 289 hip~ 10;
#X obj 254 29 netpd_f \$1 decay-time 0.8;
#X obj 414 27 netpd_f \$1 release-time 0.3;
#X obj 594 35 netpd_f \$1 tine-decay 1;
#X connect 0 0 20 0;
#X connect 1 0 27 0;
#X connect 1 0 27 1;
#X connect 2 0 3 0;
#X connect 3 0 4 0;
#X connect 6 0 7 0;
#X connect 7 0 8 0;
#X connect 10 0 2 0;
#X connect 11 0 12 0;
#X connect 12 0 6 0;
#X connect 13 0 14 0;
#X connect 14 0 15 0;
#X connect 17 0 13 0;
#X connect 18 0 17 0;
#X connect 19 0 10 0;
#X connect 20 0 31 0;
#X connect 24 0 26 0;
#X connect 25 0 0 0;
#X connect 25 1 0 1;
#X connect 25 2 0 2;
#X connect 26 0 25 0;
#X connect 28 0 29 0;
#X connect 29 0 24 0;
#X connect 29 1 30 0;
#X connect 30 0 29 1;
#X connect 31 0 1 0;
#X connect 32 0 19 0;
#X connect 33 0 11 0;
#X connect 34 0 18 0;
#X coords 0 383 1 382 566 325 0;
