#N canvas 528 560 800 330 10;
#X obj 422 228 vline~;
#X obj 422 284 dac~;
#X msg 449 199 0;
#X msg 422 199 0.5;
#X obj 422 152 t b b;
#X obj 422 250 hip~ 0.5;
#X floatatom 476 154 5 0 0 0 - - - 0;
#X obj 449 174 del 1;
#X obj 422 105 metro 1000;
#X obj 422 86 tgl 15 0 empty empty empty 17 7 0 10 #fcfcfc #000000 #000000 0 1;
#X floatatom 557 50 5 0 0 0 - - - 0;
#N canvas 1234 546 398 79 \$1-glitch 1;
#X obj 15 24 hsl 40 10 0.1 5 1 0 \$1-zsk/1/dec \$1-zsk/1/dec empty -2 -8 0 10 #fcfcfc #9c9c9c #000000 0 1;
#X obj 60 24 hsl 40 10 20 18000 1 0 \$1-zsk/1/ff \$1-zsk/1/ff empty -2 -8 0 10 #fcfcfc #9c9c9c #000000 0 1;
#X obj 15 34 hsl 40 10 0.1 5 1 0 \$1-zsk/2/dec \$1-zsk/2/dec empty -2 -8 0 10 #fcfcfc #9c9c9c #000000 0 1;
#X obj 60 34 hsl 40 10 20 18000 1 0 \$1-zsk/2/ff \$1-zsk/2/ff empty -2 -8 0 10 #fcfcfc #9c9c9c #000000 0 1;
#X obj 15 44 hsl 40 10 0.1 5 1 0 \$1-zsk/3/dec \$1-zsk/3/dec empty -2 -8 0 10 #fcfcfc #9c9c9c #000000 0 1;
#X obj 60 44 hsl 40 10 20 18000 1 0 \$1-zsk/3/ff \$1-zsk/3/ff empty -2 -8 0 10 #fcfcfc #9c9c9c #000000 0 1;
#X obj 15 54 hsl 40 10 0.1 5 1 0 \$1-zsk/4/dec \$1-zsk/4/dec empty -2 -8 0 10 #fcfcfc #9c9c9c #000000 0 1;
#X obj 60 54 hsl 40 10 20 18000 1 0 \$1-zsk/4/ff \$1-zsk/4/ff empty -2 -8 0 10 #fcfcfc #9c9c9c #000000 0 1;
#X obj 111 24 hsl 40 10 0.01 1 0 0 \$1-klc/1/dec \$1-klc/1/dec empty -2 -8 0 10 #fcfcfc #9c9c9c #000000 0 1;
#X obj 111 34 hsl 40 10 0.01 1 0 0 \$1-klc/2/dec \$1-klc/2/dec empty -2 -8 0 10 #fcfcfc #9c9c9c #000000 0 1;
#X obj 111 44 hsl 40 10 0.01 1 0 0 \$1-klc/3/dec \$1-klc/3/dec empty -2 -8 0 10 #fcfcfc #9c9c9c #000000 0 1;
#X obj 111 54 hsl 40 10 0.01 1 0 0 \$1-klc/4/dec \$1-klc/4/dec empty -2 -8 0 10 #fcfcfc #9c9c9c #000000 0 1;
#X text 10 10 zsk;
#X text 106 10 klc;
#X obj 159 54 hradio 10 1 0 6 \$1-mrw/4/cyc \$1-mrw/4/cyc empty 0 -8 0 10 #fcfcfc #9c9c9c #000000 0;
#X obj 222 54 hsl 40 10 0 0.25 0 0 \$1-mrw/4/ph \$1-mrw/4/ph empty -2 -8 0 10 #fcfcfc #9c9c9c #000000 0 1;
#X obj 159 44 hradio 10 1 0 6 \$1-mrw/3/cyc \$1-mrw/3/cyc empty 0 -8 0 10 #fcfcfc #9c9c9c #000000 0;
#X obj 222 44 hsl 40 10 0 0.25 0 0 \$1-mrw/3/ph \$1-mrw/3/ph empty -2 -8 0 10 #fcfcfc #9c9c9c #000000 0 1;
#X obj 159 34 hradio 10 1 0 6 \$1-mrw/2/cyc \$1-mrw/2/cyc empty 0 -8 0 10 #fcfcfc #9c9c9c #000000 0;
#X obj 222 34 hsl 40 10 0 0.25 0 0 \$1-mrw/2/ph \$1-mrw/2/ph empty -2 -8 0 10 #fcfcfc #9c9c9c #000000 0 1;
#X obj 159 24 hradio 10 1 0 6 \$1-mrw/1/cyc \$1-mrw/1/cyc empty 0 -8 0 10 #fcfcfc #9c9c9c #000000 0;
#X obj 222 24 hsl 40 10 0 0.25 0 0 \$1-mrw/1/ph \$1-mrw/1/ph empty -2 -8 0 10 #fcfcfc #9c9c9c #000000 0 1;
#X text 157 10 mrw;
#X restore 16 66 pd \$1-glitch;
#N canvas 708 211 279 112 NETPD 0;
#N canvas 810 161 306 156 abslist 0;
#X msg 16 13 i2mx;
#X msg 16 36 qseq3-instr-list;
#X restore 13 30 pd abslist;
#X msg 13 10 version 0 0 3;
#X restore 16 86 pd NETPD 2 0;
#X obj 47 219 i2mx \$1 glitch;
#N canvas 127 378 567 526 zsk 0;
#X obj 67 284 noise~;
#X obj 52 364 *~;
#X obj 53 247 vline~;
#X msg 53 224 0.5 \, 0 0 \$1;
#X obj 53 202 f;
#X obj 66 309 hip~ 5000;
#X obj 66 331 hip~ 5000;
#X obj 51 464 outlet~;
#X obj 221 185 f;
#X obj 374 185 f;
#X obj 221 235 f;
#X obj 374 235 f;
#X obj 221 285 f;
#X obj 374 285 f;
#X obj 221 335 f;
#X obj 374 335 f;
#X obj 129 281 t a;
#X obj 140 139 sel 1 2 3 4;
#X obj 53 5 r qseq3;
#X obj 53 27 route \$1-glitch;
#X obj 53 49 route zsk1 zsk2 zsk3 zsk4;
#X msg 53 71 1;
#X msg 89 72 2;
#X msg 126 72 3;
#X msg 163 72 4;
#X obj 236 162 netpd_f \$1 zsk/1/dec 0.1;
#X obj 236 212 netpd_f \$1 zsk/2/dec 0.2;
#X obj 236 262 netpd_f \$1 zsk/3/dec 0.6;
#X obj 236 312 netpd_f \$1 zsk/4/dec 1;
#X obj 389 162 netpd_f \$1 zsk/1/ff 14000;
#X obj 389 212 netpd_f \$1 zsk/2/ff 200;
#X obj 389 262 netpd_f \$1 zsk/3/ff 20;
#X obj 389 312 netpd_f \$1 zsk/4/ff 400;
#X obj 111 466 outlet~;
#N canvas 698 400 450 300 pan____ 0;
#X obj 115 118 cos;
#X obj 215 122 atan;
#X msg 215 101 1;
#X obj 215 144 * 2;
#X obj 115 73 *;
#X obj 142 117 sin;
#X obj 188 11 inlet;
#X obj 14 246 outlet;
#X obj 73 245 outlet;
#X obj 215 80 loadbang;
#X obj 115 95 t a a;
#X text 234 11 range: 0-1;
#X text 237 27 default: 0.5;
#X connect 0 0 7 0;
#X connect 1 0 3 0;
#X connect 2 0 1 0;
#X connect 3 0 4 1;
#X connect 4 0 10 0;
#X connect 5 0 8 0;
#X connect 6 0 4 0;
#X connect 9 0 2 0;
#X connect 10 0 0 0;
#X connect 10 1 5 0;
#X restore 119 378 pd pan____;
#X obj 52 424 *~;
#X obj 109 432 *~;
#X obj 53 110 t b a a, f 15;
#X obj 141 347 / 4;
#X obj 141 324 - 0.5;
#X connect 0 0 5 0;
#X connect 1 0 35 0;
#X connect 1 0 36 0;
#X connect 2 0 1 0;
#X connect 3 0 2 0;
#X connect 4 0 3 0;
#X connect 5 0 6 0;
#X connect 6 0 1 1;
#X connect 8 0 4 1;
#X connect 9 0 16 0;
#X connect 10 0 4 1;
#X connect 11 0 16 0;
#X connect 12 0 4 1;
#X connect 13 0 16 0;
#X connect 14 0 4 1;
#X connect 15 0 16 0;
#X connect 16 0 5 1;
#X connect 16 0 6 1;
#X connect 17 0 8 0;
#X connect 17 0 9 0;
#X connect 17 1 10 0;
#X connect 17 1 11 0;
#X connect 17 2 12 0;
#X connect 17 2 13 0;
#X connect 17 3 14 0;
#X connect 17 3 15 0;
#X connect 18 0 19 0;
#X connect 19 0 20 0;
#X connect 20 0 21 0;
#X connect 20 1 22 0;
#X connect 20 2 23 0;
#X connect 20 3 24 0;
#X connect 21 0 37 0;
#X connect 22 0 37 0;
#X connect 23 0 37 0;
#X connect 24 0 37 0;
#X connect 25 0 8 1;
#X connect 26 0 10 1;
#X connect 27 0 12 1;
#X connect 28 0 14 1;
#X connect 29 0 9 1;
#X connect 30 0 11 1;
#X connect 31 0 13 1;
#X connect 32 0 15 1;
#X connect 34 0 35 1;
#X connect 34 1 36 1;
#X connect 35 0 7 0;
#X connect 36 0 33 0;
#X connect 37 0 4 0;
#X connect 37 1 39 0;
#X connect 37 2 17 0;
#X connect 38 0 34 0;
#X connect 39 0 38 0;
#X restore 24 140 pd zsk;
#X obj 47 245 switch~;
#X obj 16 46 netpd_head \$1 glitch;
#N canvas 639 323 448 541 klc 0;
#X obj 53 285 vline~;
#X obj 53 187 samplerate~;
#X msg 53 211 1000 \$1;
#X obj 53 233 /;
#X obj 54 351 rpole~ 0.9;
#X msg 111 305 1 \$1;
#X obj 111 327 -;
#X msg 53 255 0.5 \, 0 0 \$1;
#X obj 211 202 f;
#X obj 211 252 f;
#X obj 211 302 f;
#X obj 211 352 f;
#X obj 140 144 sel 1 2 3 4;
#X obj 53 5 r qseq3;
#X obj 53 27 route \$1-glitch;
#X msg 53 71 1;
#X msg 89 72 2;
#X msg 126 72 3;
#X msg 163 72 4;
#X obj 53 49 route klc1 klc2 klc3 klc4;
#X obj 111 283 + 0.001;
#X obj 226 179 netpd_f \$1 klc/1/dec 0;
#X obj 226 229 netpd_f \$1 klc/2/dec 0.7;
#X obj 225 279 netpd_f \$1 klc/3/dec 0.2;
#X obj 226 329 netpd_f \$1 klc/4/dec 1;
#X obj 60 491 outlet~;
#X obj 120 493 outlet~;
#N canvas 698 400 450 300 pan____ 0;
#X obj 115 118 cos;
#X obj 215 122 atan;
#X msg 215 101 1;
#X obj 215 144 * 2;
#X obj 115 73 *;
#X obj 142 117 sin;
#X obj 188 11 inlet;
#X obj 14 246 outlet;
#X obj 73 245 outlet;
#X obj 215 80 loadbang;
#X obj 115 95 t a a;
#X text 234 11 range: 0-1;
#X text 237 27 default: 0.5;
#X connect 0 0 7 0;
#X connect 1 0 3 0;
#X connect 2 0 1 0;
#X connect 3 0 4 1;
#X connect 4 0 10 0;
#X connect 5 0 8 0;
#X connect 6 0 4 0;
#X connect 9 0 2 0;
#X connect 10 0 0 0;
#X connect 10 1 5 0;
#X restore 128 405 pd pan____;
#X obj 61 451 *~;
#X obj 118 459 *~;
#X obj 150 374 / 4;
#X obj 150 351 - 0.5;
#X obj 53 110 t b a a, f 19;
#X connect 0 0 4 0;
#X connect 1 0 2 0;
#X connect 2 0 3 0;
#X connect 3 0 7 0;
#X connect 4 0 28 0;
#X connect 4 0 29 0;
#X connect 5 0 6 0;
#X connect 6 0 4 1;
#X connect 7 0 0 0;
#X connect 8 0 20 0;
#X connect 9 0 20 0;
#X connect 10 0 20 0;
#X connect 11 0 20 0;
#X connect 12 0 8 0;
#X connect 12 1 9 0;
#X connect 12 2 10 0;
#X connect 12 3 11 0;
#X connect 13 0 14 0;
#X connect 14 0 19 0;
#X connect 15 0 32 0;
#X connect 16 0 32 0;
#X connect 17 0 32 0;
#X connect 18 0 32 0;
#X connect 19 0 15 0;
#X connect 19 1 16 0;
#X connect 19 2 17 0;
#X connect 19 3 18 0;
#X connect 20 0 5 0;
#X connect 21 0 8 1;
#X connect 22 0 9 1;
#X connect 23 0 10 1;
#X connect 24 0 11 1;
#X connect 27 0 28 1;
#X connect 27 1 29 1;
#X connect 28 0 25 0;
#X connect 29 0 26 0;
#X connect 30 0 27 0;
#X connect 31 0 30 0;
#X connect 32 0 1 0;
#X connect 32 1 31 0;
#X connect 32 2 12 0;
#X restore 67 140 pd klc;
#X obj 385 117 bng 15 250 50 0 empty empty empty 17 7 0 10 #fcfcfc #000000 #000000;
#N canvas 292 171 547 827 mrw 0;
#X obj 221 514 loadbang;
#X obj 237 566 osc~ 50;
#X obj 221 592 tabwrite~ \$0.sine.50;
#X obj 221 536 t b b;
#X msg 276 542 0.75;
#X obj 221 614 table \$0.sine.50 44100;
#X obj 12 591 tabread~ \$0.sine.50;
#X obj 12 293 f;
#X msg 69 238 1000 50;
#X obj 69 260 /;
#X obj 96 309 samplerate~;
#X obj 69 288 t a b;
#X msg 96 333 \$1 1000;
#X obj 96 355 /;
#X obj 69 379 *;
#X obj 12 379 *;
#X obj 12 406 t a a;
#X obj 69 215 loadbang;
#X obj 97 426 samplerate~;
#X msg 97 450 1000 \$1;
#X obj 39 444 *;
#X obj 97 403 loadbang;
#X obj 97 472 /;
#X obj 12 570 vline~;
#X obj 192 433 *;
#X msg 12 543 \$3 \, \$1 \$2 \, 0 0 \$2;
#X obj 12 520 pack f f f;
#X obj 12 482 +;
#X obj 27 269 pow;
#X msg 27 247 2;
#X obj 27 227 t b a;
#X obj 218 128 f;
#X obj 371 128 f;
#X obj 218 178 f;
#X obj 371 178 f;
#X obj 218 228 f;
#X obj 371 228 f;
#X obj 218 278 f;
#X obj 371 278 f;
#X obj 39 135 sel 1 2 3 4;
#X obj 12 7 r qseq3;
#X obj 12 29 route \$1-glitch;
#X msg 12 73 1;
#X msg 48 74 2;
#X msg 85 74 3;
#X msg 122 74 4;
#X obj 12 51 route mrw1 mrw2 mrw3 mrw4;
#X obj 233 105 netpd_f \$1 mrw/1/cyc 0;
#X obj 233 155 netpd_f \$1 mrw/2/cyc 4;
#X obj 233 205 netpd_f \$1 mrw/3/cyc 2;
#X obj 233 255 netpd_f \$1 mrw/4/cyc 0;
#X obj 386 105 netpd_f \$1 mrw/1/ph 0;
#X obj 386 155 netpd_f \$1 mrw/2/ph 0.3;
#X obj 386 205 netpd_f \$1 mrw/3/ph 0;
#X obj 386 255 netpd_f \$1 mrw/4/ph 0.24;
#X obj 51 794 outlet~;
#X obj 111 796 outlet~;
#N canvas 698 400 450 300 pan____ 0;
#X obj 115 118 cos;
#X obj 215 122 atan;
#X msg 215 101 1;
#X obj 215 144 * 2;
#X obj 115 73 *;
#X obj 142 117 sin;
#X obj 188 11 inlet;
#X obj 14 246 outlet;
#X obj 73 245 outlet;
#X obj 215 80 loadbang;
#X obj 115 95 t a a;
#X text 234 11 range: 0-1;
#X text 237 27 default: 0.5;
#X connect 0 0 7 0;
#X connect 1 0 3 0;
#X connect 2 0 1 0;
#X connect 3 0 4 1;
#X connect 4 0 10 0;
#X connect 5 0 8 0;
#X connect 6 0 4 0;
#X connect 9 0 2 0;
#X connect 10 0 0 0;
#X connect 10 1 5 0;
#X restore 119 708 pd pan____;
#X obj 52 754 *~;
#X obj 109 762 *~;
#X obj 12 103 t b a a;
#X obj 141 654 + 0;
#X obj 141 677 / 5;
#X connect 0 0 3 0;
#X connect 1 0 2 0;
#X connect 3 0 2 0;
#X connect 3 1 4 0;
#X connect 4 0 1 1;
#X connect 6 0 58 0;
#X connect 6 0 59 0;
#X connect 7 0 15 0;
#X connect 8 0 9 0;
#X connect 9 0 11 0;
#X connect 10 0 12 0;
#X connect 11 0 14 0;
#X connect 11 1 10 0;
#X connect 12 0 13 0;
#X connect 13 0 14 1;
#X connect 14 0 15 1;
#X connect 14 0 24 1;
#X connect 15 0 16 0;
#X connect 16 0 27 0;
#X connect 16 1 20 0;
#X connect 17 0 8 0;
#X connect 18 0 19 0;
#X connect 19 0 22 0;
#X connect 20 0 26 1;
#X connect 21 0 18 0;
#X connect 22 0 20 1;
#X connect 23 0 6 0;
#X connect 24 0 26 2;
#X connect 24 0 27 1;
#X connect 25 0 23 0;
#X connect 26 0 25 0;
#X connect 27 0 26 0;
#X connect 28 0 7 1;
#X connect 29 0 28 0;
#X connect 30 0 29 0;
#X connect 30 1 28 1;
#X connect 31 0 30 0;
#X connect 32 0 24 0;
#X connect 33 0 30 0;
#X connect 34 0 24 0;
#X connect 35 0 30 0;
#X connect 36 0 24 0;
#X connect 37 0 30 0;
#X connect 38 0 24 0;
#X connect 39 0 31 0;
#X connect 39 0 32 0;
#X connect 39 1 33 0;
#X connect 39 1 34 0;
#X connect 39 2 35 0;
#X connect 39 2 36 0;
#X connect 39 3 37 0;
#X connect 39 3 38 0;
#X connect 40 0 41 0;
#X connect 41 0 46 0;
#X connect 42 0 60 0;
#X connect 43 0 60 0;
#X connect 44 0 60 0;
#X connect 45 0 60 0;
#X connect 46 0 42 0;
#X connect 46 1 43 0;
#X connect 46 2 44 0;
#X connect 46 3 45 0;
#X connect 47 0 31 1;
#X connect 48 0 33 1;
#X connect 49 0 35 1;
#X connect 50 0 37 1;
#X connect 51 0 32 1;
#X connect 52 0 34 1;
#X connect 53 0 36 1;
#X connect 54 0 38 1;
#X connect 57 0 58 1;
#X connect 57 1 59 1;
#X connect 58 0 55 0;
#X connect 59 0 56 0;
#X connect 60 0 7 0;
#X connect 60 1 61 0;
#X connect 60 2 39 0;
#X connect 61 0 62 0;
#X connect 62 0 57 0;
#X restore 112 142 pd mrw;
#X obj 16 13 qseq3-instr-list \$1 glitch zsk1 zsk2 zsk3 zsk4 klc1 klc2 klc3 klc4 mrw1 mrw2 mrw3 mrw4;
#X connect 0 0 5 0;
#X connect 2 0 0 0;
#X connect 3 0 0 0;
#X connect 4 0 3 0;
#X connect 4 1 7 0;
#X connect 5 0 1 0;
#X connect 5 0 1 1;
#X connect 6 0 7 1;
#X connect 7 0 2 0;
#X connect 8 0 4 0;
#X connect 9 0 8 0;
#X connect 10 0 8 1;
#X connect 13 0 15 0;
#X connect 14 0 13 0;
#X connect 14 1 13 1;
#X connect 17 0 13 0;
#X connect 17 1 13 1;
#X connect 18 0 4 0;
#X connect 19 0 13 0;
#X connect 19 1 13 1;
