#N canvas 649 204 504 573 10;
#N struct \$0.rectangle float id float x float y float w float h float txtclr float boxclr float bgclr symbol label;
#N struct \$0.vertgrid float x float y float w float h;
#N struct \$0.horizgrid float x float y float w float h float c symbol note float notevis;
#N struct \$0.vertline float x float y float h float c float n float nvis;
#N struct \$0.guibar float x float y float w;
#N struct \$0.gid.button float x float y float clr float gid;
#N struct \$0.vel float x float y float value;
#N struct \$0.dur float x float y float value;
#N struct \$0.mode.button float x float y float w float c symbol param;
#N struct \$0.show.selector float x float y float w float hilite float id symbol label;
#N struct \$0.cursor float x float y float h float vis;
#N struct \$0.pager float x float y float c float dir float num float nvis;
#N struct \$0.scroller float x float y float c float dir;
#N struct \$0.keyboard.toggle float x float y symbol label float hilite float ihilite;
#N struct \$0.button float x float y float color;
#N struct \$0.cursor float cx float cy float cy2 float show;
#N struct \$0-automation float yshift array variy \$0-automation-element;
#N struct \$0-automation-element float y;
#N struct \$0.autolabel float x float y symbol lbl float color float track;
#N struct \$0.rectangle float id float x float y float w float h float txtclr float boxclr float bgclr symbol label;
#N struct \$0.rectangle float id float x float y float w float h float txtclr float boxclr float bgclr symbol label;
#N struct \$0.button float x float y float color;
#N struct \$0.cursor float cx float cy float cy2 float show;
#N struct \$0-automation float yshift array variy \$0-automation-element;
#N struct \$0-automation-element float y;
#N struct \$0.autolabel float x float y symbol lbl float color float track;
#N struct \$0.rectangle float id float x float y float w float h float txtclr float boxclr float bgclr symbol label;
#N struct \$0.rectangle float id float x float y float w float h float txtclr float boxclr float bgclr symbol label;
#N canvas 624 75 368 139 NETPD 0;
#N canvas 657 185 422 427 abslist 0;
#X msg 10 8 unpunch-plus;
#X msg 226 8 i2mx;
#X msg 91 8 unstep;
#X msg 137 8 roman_helpers;
#X msg 170 63 golana-cv-map;
#X msg 170 88 golana-eg;
#X msg 21 61 golana-from-seq;
#X msg 168 170 golana-lfo;
#X msg 74 292 golana-module-in;
#X msg 75 314 golana-module-out;
#X msg 74 337 golana-module-label;
#X msg 170 114 golana-noise;
#X msg 169 140 golana-out;
#X msg 140 248 golana-presets;
#X msg 23 247 golana-router;
#X msg 21 87 golana-trig-range;
#X msg 22 143 golana-vca;
#X msg 22 167 golana-vcf;
#X msg 23 116 golana-vco;
#X text 14 33 --- modules --------------------------------;
#X text 18 202 --- utils -----------------------------------;
#X restore 16 49 pd abslist;
#X msg 12 8 version 0 0 4;
#X restore 10 14 pd NETPD 2 0;
#X obj 9 68 netpd_head \$1 golana;
#N canvas 1284 88 618 804 \$1-golana 1;
#X obj 1 1 cnv 18 614 800 empty empty modules 8 18 0 26 #e6f0ff #c4d8e8 0;
#X obj 6 43 hsl 65 18 0 127 0 0 \$0.show.unstep1 empty unstep1 0 10 0 15 #000000 #000000 #e3c6ff 0 1;
#X obj 6 88 hsl 65 18 0 127 0 0 \$0.show.unpunch empty unpunch 0 10 0 15 #000000 #000000 #c6feff 0 1;
#X obj 3 169 golana-vco \$1 vco1;
#X obj 118 169 golana-vco \$1 vco2;
#X obj 233 169 golana-vco \$1 vco3;
#X obj 348 169 golana-vco \$1 vco4;
#X obj 12 647 golana-vca \$1 vca1;
#X obj 105 518 golana-vcf \$1 vcf2;
#X obj 103 647 golana-vca \$1 vca2;
#X obj 193 477 golana-lfo \$1 lfo1;
#X obj 334 477 golana-lfo \$1 lfo2;
#X obj 475 477 golana-lfo \$1 lfo3;
#X obj 184 43 golana-from-seq \$1 seq2 \$0;
#X obj 84 43 golana-from-seq \$1 seq1 \$0;
#X obj 10 277 golana-cv-map \$1 cm1;
#X obj 101 277 golana-cv-map \$1 cm2;
#X obj 294 43 golana-trig-range \$1 tr1;
#X obj 385 43 golana-trig-range \$1 tr2;
#X obj 200 288 golana-eg \$1 eg1;
#X obj 298 288 golana-eg \$1 eg2;
#X obj 12 517 golana-vcf \$1 vcf1;
#X obj 6 66 hsl 65 18 0 127 0 0 \$0.show.unstep2 empty unstep2 0 10 0 15 #000000 #000000 #c7c6ff 0 1;
#X obj 6 129 hsl 65 18 0 127 0 0 \$0.show.router empty router 0 8 0 15 #000000 #000000 #c6ffc7 0 1;
#X obj 6 110 hsl 65 18 0 127 0 0 \$0.show.router empty matrix 0 12 0 15 #000000 #000000 #c6ffc7 0 1;
#X obj 10 394 golana-cv-map \$1 cm3;
#X obj 101 394 golana-cv-map \$1 cm4;
#X obj 513 11 golana-presets;
#X obj 463 186 golana-noise \$1 noi1;
#X obj 526 186 golana-noise \$1 noi2;
#X obj 377 702 golana-out \$1 out1;
#X obj 468 702 golana-out \$1 out2;
#X obj 396 288 golana-eg \$1 eg3;
#X obj 194 647 golana-vca \$1 vca3;
#X obj 285 647 golana-vca \$1 vca4;
#X restore 10 42 pd \$1-golana;
#X obj 28 313 unpunch-plus \$1 unpunch;
#X msg 35 174 vis 1;
#X msg 28 290 vis 1;
#X obj 35 223 s \$0.unstep;
#X obj 28 336 s \$0.unpunch;
#X obj 28 267 rh_slider_click \$0.show.unpunch;
#N canvas 894 50 389 1079 \$1-golana-matrix-router 1;
#X obj 1 1 cnv 18 386 1076 empty empty matrix\ router 8 18 0 26 #131255 #464888 0;
#X obj 10 37 golana-router \$1 trg seq1 seq2 tr1 tr2 | tr1 tr2 eg1 eg2 eg3 lfo1 lfo2 lfo3;
#X obj 10 336 golana-router \$1 CV seq1 seq2 cm1 cm2 cm3 cm4 eg1 eg2 eg3 lfo1 lfo2 lfo3 | cm1 cm2 cm3 cm4 vco1 vco2 vco3 vco4 vcf1 vcf2 vca1 vca2 vca3 vca4;
#X obj 10 779 golana-router \$1 sig vco1 vco2 vco3 vco4 noi1 noi2 vcf1 vcf2 vca1 vca2 vca3 vca4 | vcf1 vcf2 vca1 vca2 vca3 vca4 out1 out2;
#X restore 228 12 pd \$1-golana-matrix-router;
#X obj 35 151 rh_slider_click \$0.show.unstep1;
#X obj 35 199 unstep \$1 unstep1 vel;
#X msg 234 175 vis 1;
#X obj 234 224 s \$0.unstep;
#X obj 234 152 rh_slider_click \$0.show.unstep2;
#X obj 234 200 unstep \$1 unstep2 vel;
#X msg 242 307 vis 1;
#X obj 242 284 rh_slider_click \$0.show.router;
#X obj 242 330 s pd-\$1-golana-matrix-router;
#X obj 76 466 catch~ \$1-golana-to-mx-r;
#X obj 36 440 catch~ \$1-golana-to-mx-l;
#X obj 35 509 i2mx \$1 golana;
#X connect 3 0 7 0;
#X connect 4 0 11 0;
#X connect 5 0 3 0;
#X connect 8 0 5 0;
#X connect 10 0 4 0;
#X connect 11 0 6 0;
#X connect 12 0 15 0;
#X connect 14 0 12 0;
#X connect 15 0 13 0;
#X connect 16 0 18 0;
#X connect 17 0 16 0;
#X connect 19 0 21 1;
#X connect 20 0 21 0;
