#N canvas 680 208 398 409 10;
#N struct \$0.button float x float y float color;
#N struct \$0.cursor float cx float cy float cy2 float show;
#N struct \$0-automation float yshift array variy \$0-automation-element;
#N struct \$0-automation-element float y;
#N struct \$0.autolabel float x float y symbol lbl float color float track;
#N struct \$0.rectangle float id float x float y float w float h float txtclr float boxclr float bgclr symbol label;
#N struct \$0.rectangle float id float x float y float w float h float txtclr float boxclr float bgclr symbol label;
#N struct \$0.rectangle float id float x float y float w float h float txtclr float boxclr float bgclr symbol label;
#N struct \$0.vertgrid float x float y float w float h;
#N struct \$0.horizgrid float x float y float w float h float c symbol note float notevis;
#N struct \$0.vertline float x float y float h float c float n float nvis;
#N struct \$0.guibar float x float y float w;
#N struct \$0.gid.button float x float y float clr float gid;
#N struct \$0.vel float x float y float value;
#N struct \$0.dur float x float y float value;
#N struct \$0.mode.button float x float y float w float c symbol param;
#N struct \$0.show.selector float x float y float w float hilite float id symbol label;
#N struct \$0.cursor float x float y float h float vis;
#N struct \$0.pager float x float y float c float dir float num float nvis;
#N struct \$0.scroller float x float y float c float dir;
#N struct \$0.keyboard.toggle float x float y symbol label float hilite float ihilite;
#N canvas 624 75 368 139 NETPD 0;
#N canvas 315 75 317 228 abslist 0;
#X msg 24 22 unpunch-plus;
#X msg 31 51 i2mx;
#X msg 111 23 unstep;
#X msg 81 56 roman_helpers;
#X msg 34 119 golana-from-seq;
#X msg 40 147 golana-vco;
#X msg 141 147 golana-vcf;
#X msg 38 173 golana-vca;
#X msg 150 171 golana-cv-map;
#X msg 39 92 golana-eg;
#X msg 165 114 golana-noise;
#X msg 173 88 golana-trig-range;
#X msg 110 198 golana-lfo;
#X restore 16 49 pd abslist;
#X msg 12 8 version 0 0 3;
#X restore 10 14 pd NETPD 2 0;
#X obj 9 68 netpd_head \$1 golana;
#N canvas 1459 281 1154 706 \$1-golana 1;
#X obj 6 3 hsl 65 18 0 127 0 0 \$0.show.unstep empty unstep 0 10 0 15 #000000 #000000 #e3c6ff 0 1;
#X obj 79 3 hsl 65 18 0 127 0 0 \$0.show.unpunch empty unpunch 0 10 0 15 #000000 #000000 #c7c6ff 0 1;
#X obj 125 593 i2mx \$1 golana;
#X obj 251 531 tgl 18 0 empty empty empty 0 -9 0 10 #fcfcfc #000000 #000000 0 1;
#X obj 158 21 golana-from-seq \$1 fromseq1 \$0;
#X obj 28 189 golana-vco \$1 vco1;
#X obj 137 190 golana-vco \$1 vco2;
#X obj 245 190 golana-vco \$1 vco3;
#X obj 700 179 golana-vco \$1 vco4;
#X obj 158 355 golana-vcf \$1 vcf1;
#X obj 158 454 golana-vca \$1 vca1;
#X obj 386 365 tgl 18 0 empty empty empty 0 -9 0 10 #fcfcfc #000000 #000000 0 1;
#X obj 483 356 tgl 18 0 empty empty empty 0 -9 0 10 #fcfcfc #000000 #000000 0 1;
#X obj 674 359 golana-vcf \$1 vcf2;
#X obj 340 459 golana-vca \$1 vca2;
#X obj 959 203 golana-from-seq \$1 fromseq2 \$0;
#X obj 574 52 golana-trig-range \$1 trigrange1;
#X obj 542 552 env~ 2048 2048;
#X obj 542 576 dbtorms;
#X floatatom 542 599 5 0 0 0 - - - 0;
#X obj 530 328 hsl 153 18 0 1 0 0 empty empty empty -2 -9 0 10 #fcfcfc #000000 #000000 0 1;
#X obj 514 449 golana-cv-map \$1 cvmap1;
#X obj 365 145 golana-eg \$1 adsr1;
#X obj 464 147 golana-eg \$1 adsr2;
#X obj 694 496 golana-lfo \$1 lfo1;
#X obj 844 498 golana-lfo \$1 lfo2;
#X obj 991 502 golana-lfo \$1 lfo3;
#X connect 3 0 2 2;
#X connect 4 0 5 0;
#X connect 4 0 6 0;
#X connect 4 0 7 0;
#X connect 4 1 22 0;
#X connect 4 1 23 0;
#X connect 5 0 9 0;
#X connect 6 0 9 0;
#X connect 7 0 9 0;
#X connect 9 0 10 0;
#X connect 10 0 2 0;
#X connect 10 0 2 1;
#X connect 15 1 24 0;
#X connect 17 0 18 0;
#X connect 18 0 19 0;
#X connect 20 0 21 0;
#X connect 21 0 17 0;
#X connect 22 0 10 1;
#X connect 22 1 11 0;
#X connect 23 1 12 0;
#X connect 24 0 9 1;
#X restore 10 42 pd \$1-golana;
#X obj 35 199 unstep \$1 unstep p1 p2 p3 p4 p5 p6;
#X obj 28 313 unpunch-plus \$1 unpunch;
#X msg 35 174 vis 1;
#X msg 28 290 vis 1;
#X obj 35 223 s \$0.unstep;
#X obj 28 336 s \$0.unpunch;
#X obj 35 151 rh_slider_click \$0.show.unstep;
#X obj 28 267 rh_slider_click \$0.show.unpunch;
#X connect 3 0 7 0;
#X connect 4 0 8 0;
#X connect 5 0 3 0;
#X connect 6 0 4 0;
#X connect 9 0 5 0;
#X connect 10 0 6 0;
