#N struct 16560.cursor float cx float cy float cy2 float vis float clr;
#N struct 16589.cursor float cx float cy float cy2 float vis float clr;
#N struct 16618.cursor float cx float cy float cy2 float vis float clr;
#N struct 16647.cursor float cx float cy float cy2 float vis float clr;
#N struct 16676.cursor float cx float cy float cy2 float vis float clr;
#N struct 16705.cursor float cx float cy float cy2 float vis float clr;
#N struct 16734.cursor float cx float cy float cy2 float vis float clr;
#N struct 16763.cursor float cx float cy float cy2 float vis float clr;
#N struct 16792.cursor float cx float cy float cy2 float vis float clr;
#N struct 16821.cursor float cx float cy float cy2 float vis float clr;
#N struct 16850.cursor float cx float cy float cy2 float vis float clr;
#N struct 16879.cursor float cx float cy float cy2 float vis float clr;
#N struct 16908.cursor float cx float cy float cy2 float vis float clr;
#N struct 16937.cursor float cx float cy float cy2 float vis float clr;
#N struct 16966.cursor float cx float cy float cy2 float vis float clr;
#N struct 16995.cursor float cx float cy float cy2 float vis float clr;
#N struct 17034.rectangle float id float x float y float w float h float txtclr float boxclr float bgclr symbol label;
#N canvas 594 43 368 415 10;
#N canvas 624 75 342 74 NETPD 0;
#N canvas 315 75 415 85 abslist 0;
#X msg 20 10 latch3-instance;
#X msg 16 38 untik-clock-consumer;
#X restore 14 31 pd abslist;
#X msg 14 9 version 0 2 0;
#X restore 10 14 pd NETPD 2 0;
#X obj 10 72 netpd_head \$1 latch3;
#N canvas 1311 446 284 415 \$1-latch3 1;
#X obj 5 27 latch3-instance \$1 0 \$0;
#X obj 5 51 latch3-instance \$1 1 \$0;
#X obj 5 75 latch3-instance \$1 2 \$0;
#X obj 5 99 latch3-instance \$1 3 \$0;
#X obj 5 123 latch3-instance \$1 4 \$0;
#X obj 5 147 latch3-instance \$1 5 \$0;
#X obj 5 171 latch3-instance \$1 6 \$0;
#X obj 5 195 latch3-instance \$1 7 \$0;
#X obj 5 219 latch3-instance \$1 8 \$0;
#X obj 5 243 latch3-instance \$1 9 \$0;
#X obj 5 267 latch3-instance \$1 10 \$0;
#X obj 5 291 latch3-instance \$1 11 \$0;
#X obj 5 315 latch3-instance \$1 12 \$0;
#X obj 5 339 latch3-instance \$1 13 \$0;
#X obj 5 363 latch3-instance \$1 14 \$0;
#X obj 5 387 latch3-instance \$1 15 \$0;
#X obj 5 3 cnv 20 72 20 empty empty clock: 2 11 0 12 #9190a6 #ffffff 0;
#X obj 78 3 netpd-gui-dropdown \$0.clock.select 200 20 12 888 445 445 0 555 887;
#X restore 10 42 pd \$1-latch3;
#X obj 11 109 loadbang;
#X obj 11 132 del 0;
#X msg 101 228 \$2 \$1;
#X obj 101 251 route permin;
#X msg 101 274 60000 \$1;
#X obj 101 297 /;
#X obj 101 321 s \$0.tick_ms;
#X obj 56 345 s \$0.pos;
#X obj 11 178 untik-clock-consumer \$1 clock \$0.clock.select;
#X obj 11 201 route run pos tempo, f 23;
#X msg 11 155 get tempo \, get run;
#X obj 11 367 s \$0.run;
#X connect 3 0 4 0;
#X connect 4 0 13 0;
#X connect 5 0 6 0;
#X connect 6 0 7 0;
#X connect 7 0 8 0;
#X connect 8 0 9 0;
#X connect 11 0 12 0;
#X connect 12 0 14 0;
#X connect 12 1 10 0;
#X connect 12 2 5 0;
#X connect 13 0 11 0;
