#N canvas 1078 40 491 615 10;
#N canvas 584 305 341 107 NETPD 0;
#N canvas 305 139 320 105 abslist 0;
#X msg 19 15 roman_helpers;
#X msg 17 41 master-gui-bar;
#X msg 17 67 untik-clock-provider;
#X msg 155 17 untik-event-scheduler;
#X restore 13 42 pd abslist;
#X msg 13 69 singleton;
#X msg 11 17 version 0 6 1;
#X restore 10 14 pd NETPD 2 0;
#N canvas 0 44 368 170 request 0;
#X text 128 50 request packet transmission;
#X obj 28 5 inlet;
#X obj 28 77 netpd_s \$1 rqpt;
#N canvas 414 435 273 305 timestamp 0;
#X obj 62 16 inlet;
#X obj 62 197 outlet;
#X obj 62 38 t b b;
#X obj 89 80 s master;
#X obj 89 102 r master;
#X obj 62 174 f;
#X msg 89 58 get pos;
#X obj 89 124 route set;
#X obj 89 147 route pos;
#X connect 0 0 2 0;
#X connect 2 0 5 0;
#X connect 2 1 6 0;
#X connect 4 0 7 0;
#X connect 5 0 1 0;
#X connect 6 0 3 0;
#X connect 7 0 8 0;
#X connect 8 0 5 1;
#X restore 28 34 pd timestamp;
#X connect 1 0 3 0;
#X connect 3 0 2 0;
#X restore 302 54 pd request;
#N canvas 183 205 365 481 response 0;
#X obj 23 122 t a b;
#X obj 23 170 list append;
#X text 145 142 request packet reception;
#X obj 23 308 t a b;
#X obj 23 356 list append;
#X text 132 332 response packet transmission;
#X obj 23 39 list prepend;
#X obj 23 378 t a a;
#X obj 23 400 list split 1;
#X msg 165 403 \$1;
#X obj 104 218 random 76;
#X obj 104 240 + 20;
#X obj 23 65 spigot;
#X obj 23 192 t a b;
#X obj 23 224 unpack f f f;
#X obj 23 262 pipe 0 0 0 100;
#X obj 23 284 pack f f f;
#X obj 23 13 netpd_r \$1 rqpt;
#X obj 24 425 netpd-s /\$1/master/rspt;
#X obj 140 8 r \$1.NETPD;
#X obj 140 33 route sender remote_origin;
#X obj 140 60 route float;
#X obj 23 88 spigot;
#X msg 140 83 1;
#X msg 172 102 0;
#N canvas 414 435 273 305 timestamp 0;
#X obj 62 16 inlet;
#X obj 62 197 outlet;
#X obj 62 38 t b b;
#X obj 89 80 s master;
#X obj 89 102 r master;
#X obj 62 174 f;
#X msg 89 58 get pos;
#X obj 89 124 route set;
#X obj 89 147 route pos;
#X connect 0 0 2 0;
#X connect 2 0 5 0;
#X connect 2 1 6 0;
#X connect 4 0 7 0;
#X connect 5 0 1 0;
#X connect 6 0 3 0;
#X connect 7 0 8 0;
#X connect 8 0 5 1;
#X restore 71 143 pd timestamp;
#N canvas 414 435 273 305 timestamp 0;
#X obj 62 16 inlet;
#X obj 62 197 outlet;
#X obj 62 38 t b b;
#X obj 89 80 s master;
#X obj 89 102 r master;
#X obj 62 174 f;
#X msg 89 58 get pos;
#X obj 89 124 route set;
#X obj 89 147 route pos;
#X connect 0 0 2 0;
#X connect 2 0 5 0;
#X connect 2 1 6 0;
#X connect 4 0 7 0;
#X connect 5 0 1 0;
#X connect 6 0 3 0;
#X connect 7 0 8 0;
#X connect 8 0 5 1;
#X restore 50 332 pd timestamp;
#X connect 0 0 1 0;
#X connect 0 1 25 0;
#X connect 1 0 13 0;
#X connect 3 0 4 0;
#X connect 3 1 26 0;
#X connect 4 0 7 0;
#X connect 6 0 12 0;
#X connect 7 0 8 0;
#X connect 7 1 9 0;
#X connect 8 1 18 0;
#X connect 9 0 18 1;
#X connect 10 0 11 0;
#X connect 11 0 15 3;
#X connect 12 0 22 0;
#X connect 13 0 14 0;
#X connect 13 1 10 0;
#X connect 14 0 15 0;
#X connect 14 1 15 1;
#X connect 14 2 15 2;
#X connect 15 0 16 0;
#X connect 15 1 16 1;
#X connect 15 2 16 2;
#X connect 16 0 3 0;
#X connect 17 0 6 0;
#X connect 19 0 20 0;
#X connect 20 0 21 0;
#X connect 20 1 12 1;
#X connect 21 0 6 1;
#X connect 21 0 23 0;
#X connect 21 1 24 0;
#X connect 22 0 0 0;
#X connect 23 0 22 1;
#X connect 24 0 22 1;
#X connect 25 0 1 1;
#X connect 26 0 4 1;
#X restore 302 74 pd response;
#N canvas 435 149 376 278 evaluation 0;
#X obj 23 36 t a b;
#X text 159 63 response packet reception;
#X obj 23 82 list append;
#X obj 23 104 t a a;
#X msg 23 129 \$2 \$1;
#X obj 23 151 -;
#X obj 66 150 -;
#X msg 67 128 \$3 \$4;
#X obj 23 174 +;
#X obj 23 196 / 2;
#X obj 23 240 outlet;
#X obj 23 14 netpd-r /\$1/master/rspt;
#X obj 23 218 list prepend;
#N canvas 414 435 273 305 timestamp 0;
#X obj 62 16 inlet;
#X obj 62 197 outlet;
#X obj 62 38 t b b;
#X obj 89 80 s master;
#X obj 89 102 r master;
#X obj 62 174 f;
#X msg 89 58 get pos;
#X obj 89 124 route set;
#X obj 89 147 route pos;
#X connect 0 0 2 0;
#X connect 2 0 5 0;
#X connect 2 1 6 0;
#X connect 4 0 7 0;
#X connect 5 0 1 0;
#X connect 6 0 3 0;
#X connect 7 0 8 0;
#X connect 8 0 5 1;
#X restore 63 58 pd timestamp;
#X connect 0 0 2 0;
#X connect 0 1 13 0;
#X connect 2 0 3 0;
#X connect 3 0 4 0;
#X connect 3 1 7 0;
#X connect 4 0 5 0;
#X connect 5 0 8 0;
#X connect 6 0 8 1;
#X connect 7 0 6 0;
#X connect 8 0 9 0;
#X connect 9 0 12 0;
#X connect 11 0 0 0;
#X connect 11 1 12 1;
#X connect 12 0 10 0;
#X connect 13 0 2 1;
#X restore 302 94 pd evaluation;
#X obj 9 518 f;
#X obj 59 519 + 1, f 6;
#X obj 9 569 s \$0.step;
#X obj 9 541 t a a a;
#X obj 24 442 t a a;
#X obj 24 465 int;
#X obj 107 356 wrap;
#N canvas 237 459 321 404 set.exact.step.at.dump 0;
#X obj 24 23 r \$0.step;
#X obj 51 167 timer;
#X obj 24 45 t a b;
#X obj 51 190 pack f f;
#X obj 51 212 /;
#X obj 27 327 +;
#X obj 125 93 f;
#X obj 125 115 sel 1 0;
#X msg 144 302 0;
#X obj 140 50 r \$0.startstop;
#X msg 140 72 \$1;
#X obj 96 166 r \$0.interval;
#X obj 27 359 netpd_s \$1 step;
#X obj 189 114 r \$0.brc.step;
#X obj 125 25 netpd-dump \$1;
#X obj 6 2 netpd_r \$1 step;
#X obj 189 137 b;
#X obj 204 166 r \$0.mode;
#X obj 189 194 f;
#X obj 189 218 sel 0 1;
#X msg 208 299 0;
#X connect 0 0 2 0;
#X connect 1 0 3 0;
#X connect 2 0 5 1;
#X connect 2 1 1 0;
#X connect 3 0 4 0;
#X connect 4 0 5 0;
#X connect 5 0 12 0;
#X connect 6 0 7 0;
#X connect 7 0 1 1;
#X connect 7 1 8 0;
#X connect 8 0 5 0;
#X connect 9 0 10 0;
#X connect 10 0 6 1;
#X connect 11 0 3 1;
#X connect 13 0 16 0;
#X connect 14 0 6 0;
#X connect 15 0 2 0;
#X connect 16 0 18 0;
#X connect 17 0 18 1;
#X connect 18 0 19 0;
#X connect 19 0 8 0;
#X connect 19 1 20 0;
#X connect 20 0 12 0;
#X restore 9 102 pd set.exact.step.at.dump;
#X obj 9 188 s \$0.startstop;
#X obj 9 222 r \$0.startstop;
#X obj 9 330 rh_metro;
#X obj 9 286 pack f f;
#X obj 9 308 t a b;
#X msg 48 309 0;
#N canvas 613 40 469 56 \$1-master 1;
#X obj 9 2 cnv 15 450 42 empty empty empty 20 12 0 14 #dcdcdc #404040 0;
#X obj 11 4 cnv 15 446 38 empty empty empty 20 12 0 14 #b8b8b8 #404040 0;
#X obj 13 6 cnv 15 442 34 empty empty empty 20 12 0 14 #606060 #404040 0;
#X obj 18 8 hsl 50 30 0 1 0 0 \$1-switch-sl \$1-switch-sl empty 5 15 0 14 #fcfcfc #e4e4ec #e4e4ec 0 1;
#X obj 120 8 hsl 200 15 60 240 1 0 \$1-bpm \$1-bpm empty 30 8 0 11 #000000 #00fc04 #00fc04 0 1;
#X obj 120 23 hsl 200 15 50 75 1 0 \$1-shuffle \$1-shuffle empty 30 8 0 11 #000000 #00fc04 #000000 0 1;
#X obj 337 8 cnv 15 60 30 empty empty empty 20 12 0 14 #000000 #404040 0;
#X obj 322 8 nbx 5 15 1 500 0 0 \$1-bpm \$1-bpm BPM 49 8 0 11 #000000 #00fc04 #00fc04 0 256;
#X obj 322 23 nbx 5 15 50 75 0 0 \$1-shuffle \$1-shuffle % 49 8 0 11 #000000 #00fc04 #00fc04 0 256;
#X obj 322 8 cnv 8 8 30 empty empty empty 20 12 0 14 #000000 #404040 0;
#X obj 15 8 cnv 14 55 15 empty \$1-switch-top MASTER 3 8 0 11 #000000 #00ff00 0;
#X obj 15 24 cnv 14 55 14 empty \$1-switch-bottom 0000093 3 7 0 11 #000000 #00ff00 0;
#X obj 71 10 vsl 18 25 0 1 0 0 \$1-mode-sl \$1-mode-sl empty 0 9 0 10 #fcfcfc #000000 #000000 0 1;
#X obj 71 8 cnv 15 18 30 empty \$1-mode-cover R 5 15 0 11 #000000 #00ff00 0;
#X obj 90 8 cnv 15 26 30 empty empty empty 20 12 0 14 #000000 #404040 0;
#X obj 103 8 master-gui-bar 6 \$0;
#X obj 94 8 master-gui-bar 3 \$0;
#X obj 106 8 master-gui-bar 7 \$0;
#X obj 91 8 master-gui-bar 2 \$0;
#X obj 97 8 master-gui-bar 4 \$0;
#X obj 100 8 master-gui-bar 5 \$0;
#X obj 109 8 master-gui-bar 8 \$0;
#X obj 112 8 master-gui-bar 9 \$0;
#X obj 115 8 master-gui-bar 10 \$0;
#X obj 401 8 hsl 50 30 0 1 0 0 \$1-offset-sl \$1-offset-sl empty 5 15 0 14 #fcfcfc #e4e4ec #e4e4ec 0 1;
#X obj 398 8 cnv 14 55 15 empty \$1-offset-top OFFSET 3 8 0 11 #000000 #00ff00 0;
#X obj 398 24 cnv 14 55 14 empty \$1-offset-bottom \ \ \ \ 0ms 3 7 0 11 #000000 #00ff00 0;
#X restore 10 42 pd \$1-master;
#X obj 9 69 netpd_head \$1 master;
#N canvas 393 158 471 367 examination 0;
#X obj 12 18 inlet;
#X obj 317 16 table \$0.peers 100;
#X obj 306 131 s \$0.peers;
#X obj 295 153 s \$0.data;
#X msg 295 103 const 0;
#X obj 295 74 r \$0.reset.offset.data;
#X obj 31 76 r \$0.examine.offset;
#X obj 317 37 table \$0.data 500;
#N canvas 0 44 383 286 store.data 0;
#X msg 100 89 \$1;
#X obj 139 131 tabread \$0.peers;
#X obj 139 155 + 1;
#X obj 119 182 list append;
#X obj 119 205 s \$0.peers;
#X obj 100 111 t a a a;
#X obj 81 147 * 5;
#X obj 81 169 +;
#X obj 12 207 list prepend;
#X obj 12 39 t a a;
#X obj 12 231 s \$0.data;
#X msg 12 92 \$2;
#X obj 12 1 inlet;
#X connect 0 0 5 0;
#X connect 1 0 2 0;
#X connect 1 0 7 1;
#X connect 2 0 3 1;
#X connect 3 0 4 0;
#X connect 5 0 6 0;
#X connect 5 1 3 0;
#X connect 5 2 1 0;
#X connect 6 0 7 0;
#X connect 7 0 8 1;
#X connect 8 0 10 0;
#X connect 9 0 11 0;
#X connect 9 1 0 0;
#X connect 11 0 8 0;
#X connect 12 0 9 0;
#X restore 12 44 pd store.data;
#N canvas 103 65 309 496 group.by.peer 0;
#X obj 27 32 t b b;
#X msg 66 59 0;
#X msg 27 54 100;
#X obj 27 76 until;
#X obj 27 98 f;
#X obj 68 99 + 1;
#X obj 27 120 t a a;
#X obj 27 144 tabread \$0.peers;
#X obj 27 191 route 0;
#X obj 27 169 list append;
#X obj 27 10 inlet;
#X obj 89 244 unpack f f;
#X obj 146 270 * 5;
#X obj 89 271 until;
#X obj 89 298 f;
#X obj 122 299 + 1;
#X obj 89 323 tabread \$0.data;
#X obj 62 216 t b a;
#X msg 62 373 bang \, set;
#X msg 62 396;
#X msg 89 345 add2 \$1;
#X obj 62 437 outlet;
#X connect 0 0 2 0;
#X connect 0 1 1 0;
#X connect 1 0 4 1;
#X connect 2 0 3 0;
#X connect 3 0 4 0;
#X connect 4 0 5 0;
#X connect 4 0 6 0;
#X connect 5 0 4 1;
#X connect 6 0 7 0;
#X connect 6 1 9 1;
#X connect 7 0 9 0;
#X connect 8 1 17 0;
#X connect 9 0 8 0;
#X connect 10 0 0 0;
#X connect 11 0 13 0;
#X connect 11 1 12 0;
#X connect 12 0 14 1;
#X connect 13 0 14 0;
#X connect 14 0 15 0;
#X connect 14 0 16 0;
#X connect 15 0 14 1;
#X connect 16 0 20 0;
#X connect 17 0 18 0;
#X connect 17 1 11 0;
#X connect 18 0 19 0;
#X connect 19 0 21 0;
#X connect 20 0 19 0;
#X restore 50 133 pd group.by.peer;
#N canvas 0 44 391 248 median 0;
#N canvas 0 44 705 480 list-sort 0;
#X obj 103 217 list split 1;
#X obj 137 238 list split 1;
#X obj 103 280 list append;
#X obj 31 253 list;
#X obj 31 194 > 0;
#X obj 118 349 outlet;
#X obj 31 215 sel 1 0;
#X obj 137 46 inlet;
#X text 29 420 2008 Michal Seta;
#X obj 207 300 list prepend;
#X obj 289 301 t l;
#X obj 118 327 list append;
#X obj 137 110 t l l l l b;
#X obj 137 67 t l b;
#X text 266 190 [list-sort] sort an incoming list of numerical values in an ascending order;
#X obj 31 173 list length;
#N canvas 0 44 679 481 list-minmax 0;
#X obj 128 120 route float;
#X obj 159 256 f;
#X obj 106 394 outlet;
#X obj 165 369 f;
#X obj 165 396 outlet;
#X obj 106 305 t b b;
#X obj 106 10 inlet;
#X obj 106 366 f;
#N canvas 0 0 450 300 once 0;
#X obj 110 75 inlet;
#X obj 105 187 spigot 1;
#X obj 110 104 t b f;
#X msg 125 151 0;
#X msg 165 99 1;
#X obj 165 63 inlet;
#X obj 102 219 outlet;
#X connect 0 0 2 0;
#X connect 1 0 6 0;
#X connect 2 0 3 0;
#X connect 2 1 1 0;
#X connect 3 0 1 1;
#X connect 4 0 1 1;
#X connect 5 0 4 0;
#X restore 260 183 pd once;
#X obj 275 258 f;
#X obj 244 257 max;
#X obj 128 256 min;
#X obj 128 150 t a a a;
#X obj 106 30 t b a b;
#X text 321 183 prime [min] and [max] with first item once;
#N canvas 0 44 705 479 list-drip 0;
#X obj 63 84 t a a;
#X obj 63 241 spigot;
#X obj 102 149 bang;
#X obj 102 168 1;
#X obj 223 149 route bang;
#X obj 183 150 bang;
#X obj 183 169 0;
#X obj 102 114 list split 2;
#X obj 232 379 list split;
#X obj 299 328 list length;
#X obj 299 350 >> 1;
#X obj 63 260 t a a a a;
#X obj 63 446 list split;
#X obj 130 398 list length;
#X obj 130 423 >> 1;
#X obj 31 19 inlet;
#X obj 290 175 outlet;
#X text 73 19 Copyright 2009 by Mathieu Bouchard;
#X obj 31 53 t b a;
#X obj 465 119 outlet;
#X text 520 121 signal end of list;
#X text 381 23 made compatible with [list-drip]: fbar 2009;
#X connect 0 0 1 0;
#X connect 0 1 7 0;
#X connect 1 0 11 0;
#X connect 2 0 3 0;
#X connect 3 0 1 1;
#X connect 4 1 16 0;
#X connect 5 0 6 0;
#X connect 6 0 1 1;
#X connect 7 0 2 0;
#X connect 7 2 4 0;
#X connect 7 2 5 0;
#X connect 8 0 0 0;
#X connect 9 0 10 0;
#X connect 10 0 8 1;
#X connect 11 0 12 0;
#X connect 11 1 13 0;
#X connect 11 2 8 0;
#X connect 11 3 9 0;
#X connect 12 1 0 0;
#X connect 13 0 14 0;
#X connect 14 0 12 1;
#X connect 15 0 18 0;
#X connect 18 0 19 0;
#X connect 18 1 0 0;
#X restore 128 80 pd list-drip;
#X connect 0 0 12 0;
#X connect 1 0 11 1;
#X connect 3 0 4 0;
#X connect 5 0 7 0;
#X connect 5 1 3 0;
#X connect 6 0 13 0;
#X connect 7 0 2 0;
#X connect 8 0 10 1;
#X connect 8 0 11 1;
#X connect 9 0 10 1;
#X connect 10 0 9 0;
#X connect 10 0 3 1;
#X connect 11 0 1 0;
#X connect 11 0 7 1;
#X connect 12 0 11 0;
#X connect 12 1 10 0;
#X connect 12 2 8 0;
#X connect 13 0 5 0;
#X connect 13 1 15 0;
#X connect 13 2 8 1;
#X connect 15 0 0 0;
#X restore 175 145 pd list-minmax;
#N canvas 0 44 622 509 list-find 0;
#X obj 91 359 f;
#X obj 91 51 inlet;
#X obj 183 47 inlet;
#X obj 91 396 outlet;
#X text 60 27 value to find;
#X obj 91 210 t a b;
#X obj 91 158 list;
#X text 180 27 list to search in;
#X text 208 103 [list-find] Find positions of a value (symbol or float) in a list.;
#X obj 91 317 select 1;
#N canvas 0 0 450 300 count 0;
#X obj 120 148 f 0;
#X obj 148 149 + 1;
#X obj 163 100 0;
#X obj 117 24 inlet;
#X obj 119 176 outlet;
#X obj 181 25 inlet;
#X obj 114 47 b;
#X connect 0 0 1 0;
#X connect 0 0 4 0;
#X connect 1 0 0 1;
#X connect 2 0 0 1;
#X connect 3 0 6 0;
#X connect 5 0 2 0;
#X connect 6 0 0 0;
#X restore 121 245 pd count;
#X obj 91 80 t b a b b;
#X obj 176 395 outlet;
#X obj 248 351 + 1;
#X obj 176 375 f;
#X obj 219 350 f 1;
#X msg 235 317 1;
#X msg 199 318 0;
#N canvas 0 44 551 485 compare-any 0;
#X obj 118 28 inlet;
#X obj 118 451 outlet;
#X obj 118 336 ==;
#X obj 118 358 select 1;
#N canvas 272 259 450 300 demux 0;
#X obj 76 87 inlet;
#X obj 169 86 inlet;
#X obj 76 145 list prepend 0;
#X obj 76 186 route 0 1;
#X obj 76 242 outlet;
#X obj 105 213 outlet;
#X connect 0 0 2 0;
#X connect 1 0 2 1;
#X connect 2 0 3 0;
#X connect 3 0 4 0;
#X connect 3 1 5 0;
#X restore 118 230 pd demux;
#X msg 169 207 0;
#X msg 200 206 1;
#X obj 118 295 route float;
#X obj 219 293 route symbol;
#X obj 359 199 print HUH?;
#X obj 219 272 list;
#X obj 238 164 route float symbol;
#X obj 238 136 list;
#X msg 118 423 1;
#X msg 190 418 0;
#X obj 238 28 inlet;
#X obj 219 356 select [DUMMY-SYMBOL];
#X connect 0 0 4 0;
#X connect 2 0 3 0;
#X connect 3 0 13 0;
#X connect 3 1 14 0;
#X connect 4 0 7 0;
#X connect 4 1 10 0;
#X connect 5 0 4 1;
#X connect 6 0 4 1;
#X connect 7 0 2 0;
#X connect 7 1 14 0;
#X connect 8 0 16 0;
#X connect 8 1 14 0;
#X connect 10 0 8 0;
#X connect 11 0 2 1;
#X connect 11 0 5 0;
#X connect 11 1 6 0;
#X connect 11 1 16 1;
#X connect 11 2 9 0;
#X connect 12 0 11 0;
#X connect 13 0 1 0;
#X connect 14 0 1 0;
#X connect 15 0 12 0;
#X connect 16 0 13 0;
#X connect 16 1 14 0;
#X restore 91 281 pd compare-any;
#N canvas 0 44 705 479 list-drip 0;
#X obj 63 84 t a a;
#X obj 63 241 spigot;
#X obj 102 149 bang;
#X obj 102 168 1;
#X obj 223 149 route bang;
#X obj 183 150 bang;
#X obj 183 169 0;
#X obj 102 114 list split 2;
#X obj 232 379 list split;
#X obj 299 328 list length;
#X obj 299 350 >> 1;
#X obj 63 260 t a a a a;
#X obj 63 446 list split;
#X obj 130 398 list length;
#X obj 130 423 >> 1;
#X obj 31 19 inlet;
#X obj 290 175 outlet;
#X text 73 19 Copyright 2009 by Mathieu Bouchard;
#X obj 31 53 t b a;
#X obj 465 119 outlet;
#X text 520 121 signal end of list;
#X text 381 23 made compatible with [list-drip]: fbar 2009;
#X connect 0 0 1 0;
#X connect 0 1 7 0;
#X connect 1 0 11 0;
#X connect 2 0 3 0;
#X connect 3 0 1 1;
#X connect 4 1 16 0;
#X connect 5 0 6 0;
#X connect 6 0 1 1;
#X connect 7 0 2 0;
#X connect 7 2 4 0;
#X connect 7 2 5 0;
#X connect 8 0 0 0;
#X connect 9 0 10 0;
#X connect 10 0 8 1;
#X connect 11 0 12 0;
#X connect 11 1 13 0;
#X connect 11 2 8 0;
#X connect 11 3 9 0;
#X connect 12 1 0 0;
#X connect 13 0 14 0;
#X connect 14 0 12 1;
#X connect 15 0 18 0;
#X connect 18 0 19 0;
#X connect 18 1 0 0;
#X restore 91 185 pd list-drip;
#X connect 0 0 3 0;
#X connect 1 0 11 0;
#X connect 2 0 6 1;
#X connect 5 0 18 0;
#X connect 5 1 10 0;
#X connect 6 0 19 0;
#X connect 9 0 0 0;
#X connect 9 0 15 0;
#X connect 10 0 0 1;
#X connect 11 0 6 0;
#X connect 11 1 18 1;
#X connect 11 2 10 1;
#X connect 11 3 16 0;
#X connect 11 3 17 0;
#X connect 13 0 15 1;
#X connect 14 0 12 0;
#X connect 15 0 14 1;
#X connect 15 0 13 0;
#X connect 16 0 15 1;
#X connect 17 0 14 1;
#X connect 18 0 9 0;
#X connect 19 0 5 0;
#X connect 19 1 14 0;
#X restore 160 180 pd list-find;
#X connect 0 0 2 0;
#X connect 0 1 1 0;
#X connect 1 0 9 0;
#X connect 1 1 2 1;
#X connect 2 0 3 1;
#X connect 3 0 12 0;
#X connect 4 0 6 0;
#X connect 6 0 3 0;
#X connect 6 1 11 0;
#X connect 7 0 13 0;
#X connect 9 0 10 0;
#X connect 9 0 11 1;
#X connect 10 0 9 1;
#X connect 11 0 5 0;
#X connect 12 0 15 0;
#X connect 12 1 0 0;
#X connect 12 2 16 0;
#X connect 12 3 17 1;
#X connect 13 0 12 0;
#X connect 13 1 9 1;
#X connect 15 0 4 0;
#X connect 16 0 17 0;
#X connect 17 0 0 1;
#X restore 44 120 pd list-sort;
#X obj 127 131 / 2;
#X obj 127 109 - 1;
#X obj 44 174 list split;
#X msg 72 199 \$1;
#X obj 44 34 inlet;
#X obj 44 56 t a a;
#X obj 127 83 list length;
#X obj 72 222 outlet;
#X connect 0 0 3 0;
#X connect 1 0 3 1;
#X connect 2 0 1 0;
#X connect 3 1 4 0;
#X connect 4 0 8 0;
#X connect 5 0 6 0;
#X connect 6 0 0 0;
#X connect 6 1 7 0;
#X connect 7 0 2 0;
#X restore 50 160 pd median;
#X obj 31 98 t b b b;
#X msg 70 183 -1000;
#X obj 78 206 t a;
#X obj 50 206 max;
#X obj 31 227 f;
#X obj 164 218 r \$0.interval;
#X obj 149 279 *;
#X obj 149 323 s \$0.offset.delay.ms;
#X obj 31 249 max 0;
#X obj 149 301 int;
#X obj 31 312 outlet;
#X connect 0 0 8 0;
#X connect 4 0 3 0;
#X connect 4 0 2 0;
#X connect 5 0 4 0;
#X connect 6 0 11 0;
#X connect 9 0 10 0;
#X connect 10 0 14 0;
#X connect 11 0 15 0;
#X connect 11 1 9 0;
#X connect 11 2 12 0;
#X connect 12 0 14 1;
#X connect 12 0 15 1;
#X connect 13 0 14 1;
#X connect 14 0 13 0;
#X connect 14 0 15 1;
#X connect 15 0 19 0;
#X connect 16 0 17 1;
#X connect 17 0 20 0;
#X connect 19 0 17 0;
#X connect 19 0 21 0;
#X connect 20 0 18 0;
#X restore 302 118 pd examination;
#N canvas 380 135 397 384 schedule 0;
#X obj 232 265 s \$0.reset.offset.data;
#X obj 91 298 outlet;
#X obj 91 178 metro 1723;
#X obj 91 200 f;
#X obj 91 252 t a a;
#X obj 139 209 + 1;
#X obj 91 221 mod 5;
#X obj 91 10 r \$0.startstop;
#X obj 91 102 sel 1 0;
#X msg 128 149 0;
#X obj 91 124 random 1723;
#X obj 91 146 del;
#X obj 91 274 t b a;
#X obj 154 300 sel 0;
#X obj 154 322 t b b;
#X obj 181 350 s \$0.examine.offset;
#X msg 171 123 stop;
#X obj 119 30 r \$0.offset.onoff;
#X obj 91 79 &&;
#X obj 119 53 t b a;
#X msg 91 32 \$1;
#X connect 2 0 3 0;
#X connect 3 0 6 0;
#X connect 4 0 12 0;
#X connect 4 1 5 0;
#X connect 5 0 3 1;
#X connect 6 0 4 0;
#X connect 7 0 20 0;
#X connect 8 0 10 0;
#X connect 8 1 9 0;
#X connect 8 1 0 0;
#X connect 8 1 16 0;
#X connect 9 0 2 0;
#X connect 9 0 3 1;
#X connect 10 0 11 0;
#X connect 11 0 2 0;
#X connect 12 0 1 0;
#X connect 12 1 13 0;
#X connect 13 0 14 0;
#X connect 14 0 0 0;
#X connect 14 1 15 0;
#X connect 16 0 11 0;
#X connect 17 0 19 0;
#X connect 18 0 8 0;
#X connect 19 0 18 0;
#X connect 19 1 18 1;
#X connect 20 0 18 0;
#X restore 302 30 pd schedule;
#X obj 116 304 s \$0.interval;
#X obj 87 372 s \$0.ms.to.tick;
#X obj 59 477 r \$0.adjust.step;
#N canvas 665 424 375 292 application 0;
#N canvas 414 323 273 220 get.current.pos 0;
#X obj 62 104 f;
#X obj 93 112 r \$0.step;
#X obj 62 138 +;
#X obj 62 16 inlet;
#X obj 62 37 t b b;
#X obj 62 162 outlet;
#X obj 89 60 s \$0.interval.l;
#X obj 77 80 r \$0.intra.step;
#X connect 0 0 2 0;
#X connect 1 0 2 1;
#X connect 2 0 5 0;
#X connect 3 0 4 0;
#X connect 4 0 0 0;
#X connect 4 1 6 0;
#X connect 7 0 0 1;
#X restore 44 74 pd get.current.pos;
#X obj 44 45 r \$0.adjust;
#X obj 44 96 +;
#X obj 44 118 t a a;
#X obj 103 158 int;
#X obj 103 182 s \$0.adjust.step;
#X obj 44 167 wrap;
#X msg 44 189 0 \, 1 \$1;
#X obj 149 34 inlet;
#X obj 44 212 s \$0.startstop;
#X connect 0 0 2 0;
#X connect 1 0 0 0;
#X connect 2 0 3 0;
#X connect 3 0 6 0;
#X connect 3 1 4 0;
#X connect 4 0 5 0;
#X connect 6 0 7 0;
#X connect 7 0 9 0;
#X connect 8 0 2 1;
#X restore 302 143 pd application;
#X obj 116 284 /;
#X msg 116 264 15000 \$1;
#X obj 116 220 t a a;
#X obj 143 242 s \$0.bpm;
#X obj 211 253 s \$0.shuffle;
#X obj 211 303 s \$0.mode;
#N canvas 718 270 433 338 stepshuffle 0;
#X obj 26 13 r \$0.step;
#X obj 261 96 * 2;
#X obj 261 127 *;
#X obj 309 98 t b a;
#X obj 261 72 * 0.01;
#X obj 261 51 r \$0.shuffle;
#X obj 309 75 r \$0.interval;
#X obj 261 161 s \$0.shuffletime;
#X obj 26 64 mod 2;
#X obj 61 160 r \$0.shuffletime;
#X obj 26 86 sel 0;
#X obj 26 35 t a a;
#X obj 86 68 >> 1;
#X obj 86 90 << 1;
#X obj 71 217 +;
#X obj 149 19 r \$0.startstop;
#X obj 149 41 route 0;
#X obj 149 63 b;
#X msg 149 85 stop;
#X obj 71 258 s \$0.stepshuffle;
#X obj 26 125 t b b, f 8;
#X obj 26 160 del;
#X msg 71 184 0;
#X msg 26 183 1;
#X connect 0 0 11 0;
#X connect 1 0 2 0;
#X connect 2 0 7 0;
#X connect 3 0 2 0;
#X connect 3 1 2 1;
#X connect 4 0 1 0;
#X connect 5 0 4 0;
#X connect 6 0 3 0;
#X connect 8 0 10 0;
#X connect 9 0 21 1;
#X connect 10 0 20 0;
#X connect 11 0 8 0;
#X connect 11 1 12 0;
#X connect 12 0 13 0;
#X connect 13 0 14 1;
#X connect 14 0 19 0;
#X connect 15 0 16 0;
#X connect 16 0 17 0;
#X connect 17 0 18 0;
#X connect 18 0 21 0;
#X connect 20 0 21 0;
#X connect 20 1 22 0;
#X connect 21 0 23 0;
#X connect 22 0 14 0;
#X connect 23 0 14 0;
#X restore 330 427 pd stepshuffle;
#X text 295 8 offset detection/correction;
#N canvas 706 657 210 184 gui.stuff 0;
#N canvas 398 257 367 392 switch-gui 0;
#X msg 30 253 -65281 -1;
#X msg 30 310 color \$1 \$1 \$2;
#X obj 30 212 sel 1 0;
#X obj 29 34 ==;
#X obj 30 354 s \$1-switch-top;
#X obj 44 334 s \$1-switch-bottom;
#X msg 49 233 -1 -65281;
#X obj 29 12 rh_slider_click \$1-switch-sl \$1-switch-sl;
#X obj 30 189 t a a;
#X obj 29 89 s \$1-startstop;
#X obj 30 116 r \$1-startstop;
#X obj 30 274 t a;
#X obj 30 138 route float set list;
#X msg 108 159 \$1;
#X obj 144 74 s \$0.brc.step;
#X obj 29 58 t a a;
#X obj 144 49 sel 1;
#X connect 0 0 11 0;
#X connect 1 0 4 0;
#X connect 1 0 5 0;
#X connect 2 0 0 0;
#X connect 2 1 6 0;
#X connect 3 0 15 0;
#X connect 6 0 11 0;
#X connect 7 0 3 0;
#X connect 8 0 2 0;
#X connect 8 1 3 1;
#X connect 10 0 12 0;
#X connect 11 0 1 0;
#X connect 12 0 8 0;
#X connect 12 1 8 0;
#X connect 12 2 13 0;
#X connect 13 0 8 0;
#X connect 15 0 9 0;
#X connect 15 1 16 0;
#X connect 16 0 14 0;
#X restore 16 16 pd switch-gui;
#N canvas 602 303 322 345 mode-gui 0;
#X msg 94 210 -65281 -1;
#X msg 94 275 color \$1 \$1 \$2;
#X obj 94 165 sel 1 0;
#X obj 14 32 ==;
#X msg 113 189 -1 -65281;
#X obj 94 300 s \$1-mode-cover;
#X obj 14 9 rh_slider_click \$1-mode-sl \$1-mode-sl;
#X obj 14 54 t b a;
#X obj 94 120 route float set;
#X obj 94 142 t a a;
#X obj 41 75 s \$1-mode;
#X obj 94 98 r \$1-mode;
#X obj 94 232 t a;
#X connect 0 0 12 0;
#X connect 1 0 5 0;
#X connect 2 0 0 0;
#X connect 2 1 4 0;
#X connect 3 0 7 0;
#X connect 4 0 12 0;
#X connect 6 0 3 0;
#X connect 7 1 10 0;
#X connect 8 0 9 0;
#X connect 8 1 9 0;
#X connect 9 0 2 0;
#X connect 9 1 3 1;
#X connect 11 0 8 0;
#X connect 12 0 1 0;
#X restore 15 40 pd mode-gui;
#N canvas 153 139 302 215 step-gui 0;
#X obj 39 154 s \$1-switch-bottom;
#X obj 39 111 makefilename %07d;
#X msg 39 133 label \$1;
#X msg 64 83 0;
#X obj 64 63 loadbang;
#X obj 39 27 r \$0.step;
#X obj 21 4 netpd_r \$1 step;
#X connect 1 0 2 0;
#X connect 2 0 0 0;
#X connect 3 0 1 0;
#X connect 4 0 3 0;
#X connect 5 0 1 0;
#X connect 6 0 1 0;
#X restore 14 64 pd step-gui;
#N canvas 0 44 422 343 offset-gui 0;
#X obj 187 29 r \$0.offset.delay.ms;
#X obj 18 20 r \$1-offset-sl;
#X obj 214 278 s \$1-offset-top;
#X obj 251 258 s \$1-offset-bottom;
#X obj 18 281 s \$0.adjust;
#X msg 214 189 -65281 -1;
#X msg 214 232 color \$1 \$1 \$2;
#X obj 214 148 sel 1 0;
#X msg 233 169 -1 -65281;
#X obj 214 210 t a;
#X obj 187 51 t a a;
#X obj 187 72 >= 100;
#X obj 306 114 makefilename %5dms;
#X msg 306 209 label \$1;
#X obj 98 238 r \$0.startstop;
#X obj 18 42 sel 0;
#X obj 61 42 t a;
#X obj 18 254 spigot 0;
#X msg 128 174 -1 -32769;
#X obj 187 94 t a a;
#X obj 18 71 f;
#X obj 18 93 sel 1 0;
#X obj 69 117 t a;
#X obj 37 139 t a a;
#X obj 128 139 sel 0 1;
#X obj 37 198 s \$0.offset.onoff;
#X obj 88 46 loadbang;
#X obj 37 117 ==;
#X msg 98 261 \$1;
#X connect 0 0 10 0;
#X connect 1 0 15 0;
#X connect 5 0 9 0;
#X connect 6 0 3 0;
#X connect 6 0 2 0;
#X connect 7 0 5 0;
#X connect 7 1 8 0;
#X connect 8 0 9 0;
#X connect 9 0 6 0;
#X connect 10 0 11 0;
#X connect 10 1 12 0;
#X connect 11 0 19 0;
#X connect 12 0 13 0;
#X connect 13 0 3 0;
#X connect 14 0 28 0;
#X connect 15 0 20 0;
#X connect 15 1 16 0;
#X connect 16 0 15 1;
#X connect 17 0 4 0;
#X connect 18 0 9 0;
#X connect 19 0 20 1;
#X connect 19 1 7 0;
#X connect 20 0 21 0;
#X connect 21 0 17 0;
#X connect 21 1 27 0;
#X connect 22 0 27 1;
#X connect 23 0 25 0;
#X connect 23 1 24 0;
#X connect 24 0 18 0;
#X connect 24 1 8 0;
#X connect 26 0 20 0;
#X connect 27 0 22 0;
#X connect 27 0 23 0;
#X connect 28 0 17 1;
#X restore 14 88 pd offset-gui;
#X restore 330 401 pd gui.stuff;
#X obj 54 351 unpack;
#X obj 54 391 s \$0.intra.step;
#X obj 169 346 r \$0.interval.l;
#X obj 116 325 r \$0.interval;
#X obj 9 263 t a a;
#X obj 45 263 s \$0.ststpl;
#X text 355 595 2014 \, Roman Haefeli;
#X obj 24 489 t a;
#X obj 24 418 netpd_r \$1 step;
#X obj 9 139 netpd_f \$1 startstop 0;
#X obj 211 280 netpd_f \$1 mode 0;
#X obj 211 230 netpd_f \$1 shuffle 50;
#X obj 116 198 netpd_f \$1 bpm 120;
#N canvas 901 251 430 382 master.api(obsolete) 0;
#X obj 11 90 r \$0.interval;
#X obj 11 181 r \$0.bpm;
#X obj 11 137 r \$0.shuffletime;
#X obj 11 44 r \$0.ststpl;
#X obj 11 225 r \$0.step;
#X obj 11 269 r \$0.stepshuffle;
#X obj 226 50 r master;
#X obj 245 137 s \$0.interval.l;
#X obj 243 180 r \$0.intra.step;
#X obj 226 200 f;
#X obj 226 115 t b b b;
#X msg 265 159 0;
#X obj 257 222 r \$0.step;
#X obj 226 221 +;
#X obj 226 266 s master;
#X obj 226 72 route get pos;
#X obj 226 94 route pos;
#X msg 226 244 set pos \$1;
#X obj 123 321 loadbang;
#X msg 123 343 onrequest 0;
#N canvas 394 619 450 300 master-set-param 0;
#X obj 36 37 inlet;
#X restore 11 67 pd master-set-param switch;
#N canvas 0 1754 450 300 master-set-param 0;
#X obj 37 37 inlet;
#X restore 11 112 pd master-set-param 16th;
#N canvas 450 1754 450 300 master-set-param 0;
#X obj 37 37 inlet;
#X restore 11 159 pd master-set-param shuffle;
#N canvas 900 1754 450 300 master-set-param 0;
#X obj 37 37 inlet;
#X restore 11 203 pd master-set-param bpm;
#N canvas 1826 1092 450 300 master-set-param 0;
#X obj 42 23 inlet;
#X restore 11 247 pd master-set-param step;
#N canvas 1823 1385 450 300 master-set-param 0;
#X obj 37 37 inlet;
#X restore 11 291 pd master-set-param stepshuffle;
#X text 16 5 OBSOLETE NOW. ONLY HERE FOR ILLUSTRATING HOW THINGS WORKED IN THE PRE-UNTIK ERA;
#X connect 0 0 21 0;
#X connect 1 0 23 0;
#X connect 2 0 22 0;
#X connect 3 0 20 0;
#X connect 4 0 24 0;
#X connect 5 0 25 0;
#X connect 6 0 15 0;
#X connect 8 0 9 1;
#X connect 9 0 13 0;
#X connect 10 0 9 0;
#X connect 10 1 7 0;
#X connect 10 2 11 0;
#X connect 11 0 9 1;
#X connect 12 0 13 1;
#X connect 13 0 17 0;
#X connect 15 0 16 0;
#X connect 16 0 10 0;
#X connect 17 0 14 0;
#X connect 18 0 19 0;
#X connect 19 0 25 0;
#X connect 19 0 24 0;
#X restore 330 453 pd master.api(obsolete);
#N canvas 616 220 508 567 untik.api 0;
#X obj 15 535 r \$0.interval;
#X obj 257 257 r \$0.bpm;
#X obj 20 484 r \$0.shuffletime;
#X obj 178 260 r \$0.ststpl;
#X obj 13 508 r \$0.step;
#X obj 328 286 r \$0.stepshuffle;
#X obj 166 13 loadbang;
#X msg 166 36 clocklist master;
#X msg 223 345 tempo \$1 permin;
#X obj 257 286 * 4;
#X msg 328 341 pos \$1;
#X msg 165 325 run \$1;
#X obj 223 318 f;
#X obj 166 298 f;
#X obj 328 319 f;
#X obj 165 408 list prepend clock master;
#X obj 165 431 list trim;
#X obj 166 159 route master;
#X obj 166 224 b;
#X obj 209 226 b;
#X obj 37 264 t a;
#X obj 166 111 untik-clock-provider master m;
#X obj 166 136 route get;
#X obj 165 386 t a a;
#X obj 204 386 s \$0.clock;
#X obj 215 70 r \$0.to.untik;
#X obj 247 135 s \$0.from.untik;
#X obj 166 199 route run tempo pos;
#X obj 249 229 b;
#X connect 1 0 9 0;
#X connect 3 0 13 0;
#X connect 5 0 14 0;
#X connect 6 0 7 0;
#X connect 7 0 21 0;
#X connect 8 0 23 0;
#X connect 9 0 12 0;
#X connect 10 0 23 0;
#X connect 11 0 23 0;
#X connect 12 0 8 0;
#X connect 13 0 11 0;
#X connect 14 0 10 0;
#X connect 15 0 16 0;
#X connect 16 0 20 0;
#X connect 17 0 27 0;
#X connect 18 0 13 0;
#X connect 19 0 12 0;
#X connect 20 0 21 0;
#X connect 21 0 22 0;
#X connect 21 0 26 0;
#X connect 22 0 17 0;
#X connect 23 0 15 0;
#X connect 23 1 24 0;
#X connect 25 0 21 0;
#X connect 27 0 18 0;
#X connect 27 1 19 0;
#X connect 27 2 28 0;
#X connect 28 0 14 0;
#X restore 330 479 pd untik.api;
#N canvas 592 664 355 351 event.scheduler 0;
#X obj 36 165 untik-event-scheduler;
#X obj 234 96 r \$0.clock;
#X obj 42 48 route schedule;
#X obj 42 71 list split 1;
#X obj 36 227 list prepend event;
#X obj 36 250 list trim;
#X obj 42 25 r \$0.from.untik;
#X obj 36 273 s \$0.to.untik;
#X connect 0 0 4 0;
#X connect 1 0 0 1;
#X connect 2 0 3 0;
#X connect 3 1 0 0;
#X connect 4 0 5 0;
#X connect 5 0 7 0;
#X connect 6 0 2 0;
#X restore 330 534 pd event.scheduler;
#N canvas 1515 467 462 450 timestamp 0;
#X obj 16 38 route get;
#X obj 16 84 route timestamp;
#X obj 16 158 f;
#X obj 16 183 sel 0 1, f 19;
#X obj 180 77 route run pos tempo;
#X obj 254 110 list prepend tempo;
#X obj 254 133 list trim;
#X obj 44 265 timer;
#X obj 44 238 t b a, f 10;
#X obj 16 224 f;
#X obj 44 288 +, f 10;
#X obj 16 313 t a;
#X obj 180 51 r \$0.clock;
#X msg 16 337 clock master timestamp \$1;
#X obj 16 360 s \$0.to.untik;
#X obj 16 15 r \$0.from.untik;
#X obj 16 61 route master;
#X obj 16 107 b;
#X connect 0 0 16 0;
#X connect 1 0 17 0;
#X connect 2 0 3 0;
#X connect 3 0 9 0;
#X connect 3 1 7 1;
#X connect 4 0 2 1;
#X connect 4 1 8 0;
#X connect 4 1 9 1;
#X connect 4 2 5 0;
#X connect 5 0 6 0;
#X connect 6 0 7 0;
#X connect 7 0 10 0;
#X connect 8 0 7 0;
#X connect 8 1 10 1;
#X connect 9 0 11 0;
#X connect 10 0 11 0;
#X connect 11 0 13 0;
#X connect 12 0 4 0;
#X connect 13 0 14 0;
#X connect 15 0 0 0;
#X connect 16 0 1 0;
#X connect 17 0 2 0;
#X restore 330 507 pd timestamp;
#X connect 3 0 20 0;
#X connect 4 0 7 0;
#X connect 5 0 42 0;
#X connect 7 0 6 0;
#X connect 7 1 5 0;
#X connect 8 0 9 0;
#X connect 8 1 10 0;
#X connect 9 0 42 0;
#X connect 10 0 15 1;
#X connect 13 0 39 0;
#X connect 14 0 4 0;
#X connect 14 1 35 0;
#X connect 15 0 16 0;
#X connect 16 0 14 0;
#X connect 16 1 17 0;
#X connect 17 0 15 1;
#X connect 20 0 25 0;
#X connect 21 0 1 0;
#X connect 24 0 5 0;
#X connect 26 0 22 0;
#X connect 27 0 26 0;
#X connect 28 0 27 0;
#X connect 28 1 29 0;
#X connect 35 0 36 0;
#X connect 35 1 23 0;
#X connect 37 0 14 1;
#X connect 38 0 14 1;
#X connect 39 0 40 0;
#X connect 39 1 15 0;
#X connect 42 0 4 1;
#X connect 43 0 8 0;
#X connect 44 0 12 0;
#X connect 45 0 31 0;
#X connect 46 0 30 0;
#X connect 47 0 28 0;
