#N struct 1342.seg.range float posy float bgclr;
#N struct 1342.seg.solo float posy float bgclr;
#N struct 1342.seg.mute float posy float fgclr float bgclr;
#N struct 1342.seg.row float posy float width float offset float fgclr
float bgclr float vis;
#N struct 1342.seg.length float bgclr float fgclr float length;
#N struct 1342.seg.count float bgclr float fgclr float count;
#N struct 1342.seg.width float bgclr float fgclr float default;
#N struct 1342.seg.del float bgclr float fgclr symbol label;
#N struct 1342.seg.add float bgclr float fgclr symbol label;
#N struct 1342.set.selector float posy float number symbol label float
fgclr float bgclr float vis float offset float length;
#N struct 1342.set.default float bgclr float fgclr symbol selector
float number;
#N struct 1342.set.del float bgclr float fgclr symbol label;
#N struct 1342.set.add float bgclr float fgclr symbol label;
#N canvas 541 75 654 672 10;
#N canvas 624 75 396 76 NETPD 0;
#X msg 12 8 version 0 0 0;
#N canvas 315 75 381 123 abslist 0;
#X msg 17 15 metaseq-segmenter-netpd;
#X msg 15 45 metaseq-router-netpd;
#X restore 12 33 pd abslist;
#X restore 10 14 pd NETPD 2 0;
#X obj 9 69 netpd_head \$1 metaseq;
#N canvas 194 129 347 201 \$1-metaseq 1;
#X obj 178 9 metaseq-gop157x177 \$0.segments.gop;
#X obj 10 9 metaseq-gop157x177 \$0.sets.gop;
#X restore 10 42 pd \$1-metaseq;
#X msg 449 51 quantity;
#X msg 449 72 length;
#X msg 447 173 get \$1;
#X floatatom 447 152 5 0 0 0 - - -, f 5;
#X msg 447 218 update_offset 1 90;
#X msg 447 196 update_width 1 8;
#X msg 447 262 clear;
#X msg 447 284 remove;
#X msg 449 8 add 50 50 0;
#X msg 449 30 add 50 200 0;
#X msg 447 240 update_mute 0 1;
#X floatatom 447 347 5 0 0 0 - - -, f 5;
#X msg 447 365 set \$1;
#X msg 447 389 set_remove;
#X msg 447 411 set_count;
#X msg 448 467 dump_all;
#X msg 446 492 clear_all;
#X msg 447 435 set_restore 1 50 50 0 50 200 0;
#X msg 447 324 set_add;
#X obj 12 229 metaseq-segmenter-netpd \$1 segmenter;
#N canvas 459 235 705 291 set.editor.gui.code 0;
#N canvas 324 204 947 696 create_rows 0;
#N canvas 478 103 673 487 struct_num 0;
#X obj 21 343 outlet;
#X obj 37 24 inlet;
#X obj 78 348 route change click;
#X obj 78 396 f;
#X obj 78 372 t b p;
#X obj 21 306 t a a;
#X obj 31 198 filledpolygon bgclr bgclr 0 40 posy 40 posy(0:1000)(16:1016)
136 posy(0:1000)(16:1016) 136 posy;
#X obj 37 72 s pd-\$0.segments.gop;
#X obj 21 267 struct \$0.seg.row float posy float width float offset
float fgclr float bgclr float vis;
#X obj 139 373 get \$0.seg.row posy;
#X obj 78 421 set \$0.seg.row posy;
#X obj 288 393 get \$0.seg.row width;
#X obj 288 415 max 1;
#X obj 288 440 set \$0.seg.row width;
#X obj 288 368 t p p;
#X obj 288 345 route change;
#X obj 430 364 t p p;
#X obj 430 341 route change;
#X obj 430 389 get \$0.seg.row offset;
#X obj 430 436 set \$0.seg.row offset;
#X obj 430 411 max 0;
#X obj 31 113 drawnumber -v vis width 84 posy(0:1000)(1:1001) fgclr
;
#X obj 29 151 drawnumber -v vis offset 44 posy(0:1000)(1:1001) fgclr
;
#X connect 1 0 7 0;
#X connect 2 0 4 0;
#X connect 2 1 9 0;
#X connect 3 0 10 0;
#X connect 4 0 3 0;
#X connect 4 1 10 1;
#X connect 5 0 0 0;
#X connect 5 1 2 0;
#X connect 5 1 15 0;
#X connect 5 1 17 0;
#X connect 8 0 5 0;
#X connect 9 0 3 1;
#X connect 11 0 12 0;
#X connect 12 0 13 0;
#X connect 14 0 11 0;
#X connect 14 1 13 1;
#X connect 15 0 14 0;
#X connect 16 0 18 0;
#X connect 16 1 19 1;
#X connect 17 0 16 0;
#X connect 18 0 20 0;
#X connect 20 0 19 0;
#X restore 41 278 pd struct_num;
#N canvas 280 285 501 440 struct_mute 0;
#X obj 30 359 outlet;
#X obj 37 24 inlet;
#X obj 30 287 t a a;
#X obj 97 315 route change click;
#X obj 97 363 f;
#X obj 97 339 t b p;
#X obj 37 72 s pd-\$0.segments.gop;
#X obj 30 263 struct \$0.seg.mute float posy float fgclr float bgclr
;
#X obj 158 340 get \$0.seg.mute posy;
#X obj 97 388 set \$0.seg.mute posy;
#X obj 31 179 filledpolygon bgclr bgclr 0 27 posy 27 posy(0:1000)(16:1016)
36 posy(0:1000)(16:1016) 36 posy;
#X obj 29 120 filledpolygon fgclr fgclr 0 27 posy(0:1000)(3:1003) 27
posy(0:1000)(13:1013) 36 posy(0:1000)(13:1013) 36 posy(0:1000)(3:1003)
;
#X connect 1 0 6 0;
#X connect 2 0 0 0;
#X connect 2 1 3 0;
#X connect 3 0 5 0;
#X connect 3 1 8 0;
#X connect 4 0 9 0;
#X connect 5 0 4 0;
#X connect 5 1 9 1;
#X connect 7 0 2 0;
#X connect 8 0 4 1;
#X restore 312 276 pd struct_mute;
#X obj 312 306 route click;
#X msg 402 435 234;
#X obj 41 417 t p p;
#X obj 41 313 route change click;
#X obj 169 499 change;
#X obj 41 499 change;
#X msg 102 431 set -1;
#X obj 102 406 t b a;
#X obj 41 530 list prepend;
#X obj 169 528 list prepend;
#X obj 312 330 t p p p;
#X msg 357 503 1;
#X msg 398 504 0;
#X msg 447 48 8;
#X obj 447 70 until;
#X obj 447 92 f;
#X obj 447 114 t a a;
#X obj 490 99 + 1;
#X obj 447 136 * 20;
#X obj 447 158 + 20;
#X msg 496 62 0;
#N canvas 280 285 501 440 struct_range 0;
#X obj 30 359 outlet;
#X obj 37 24 inlet;
#X obj 30 287 t a a;
#X obj 97 315 route change click;
#X obj 97 363 f;
#X obj 97 339 t b p;
#X obj 37 72 s pd-\$0.segments.gop;
#X obj 30 258 struct \$0.seg.range float posy float bgclr;
#X obj 158 340 get \$0.seg.range posy;
#X obj 97 388 set \$0.seg.range posy;
#X obj 37 115 filledpolygon bgclr bgclr 0 0 posy 0 posy(0:1000)(16:1016)
10 posy(0:1000)(16:1016) 10 posy;
#X connect 1 0 6 0;
#X connect 2 0 0 0;
#X connect 2 1 3 0;
#X connect 3 0 5 0;
#X connect 3 1 8 0;
#X connect 4 0 9 0;
#X connect 5 0 4 0;
#X connect 5 1 9 1;
#X connect 7 0 2 0;
#X connect 8 0 4 1;
#X restore 746 281 pd struct_range;
#X obj 746 311 route click;
#X obj 746 370 - 20;
#X obj 746 392 div 20;
#X obj 102 360 - 20;
#X obj 102 382 div 20;
#X obj 312 524 div 20;
#X obj 312 501 - 20;
#X obj 447 183 list prepend \$0;
#X msg 312 251 scalar \$1.seg.mute \$2 234 234;
#X msg 746 252 scalar \$1.seg.range \$2 234;
#X obj 746 348 get \$0.seg.range posy;
#X obj 102 338 get \$0.seg.row posy;
#X obj 169 475 get \$0.seg.row offset;
#X obj 331 356 get \$0.seg.mute fgclr;
#X obj 362 460 set \$0.seg.mute fgclr;
#X obj 312 479 get \$0.seg.mute posy;
#X obj 447 7 inlet;
#X obj 41 475 get \$0.seg.row width;
#X obj 447 29 t b b;
#X msg 746 469 raw range \$1;
#X obj 746 491 s \$0.from.seg.gui;
#X obj 746 440 + 1;
#X obj 41 646 s \$0.from.seg.gui;
#X msg 41 249 scalar \$1.seg.row \$2 16 0 999 234 0;
#X msg 312 615 edit \$1 mute \$2;
#X msg 169 554 edit \$1 offset \$2;
#X msg 41 577 edit \$1 width \$2;
#X msg 522 251 scalar \$1.seg.solo \$2 234;
#X obj 447 207 t a a a a;
#N canvas 280 285 501 440 struct_solo 0;
#X obj 30 359 outlet;
#X obj 37 24 inlet;
#X obj 30 287 t a a;
#X obj 97 315 route change click;
#X obj 97 363 f;
#X obj 97 339 t b p;
#X obj 37 72 s pd-\$0.segments.gop;
#X obj 158 340 get \$0.seg.solo posy;
#X obj 97 388 set \$0.seg.solo posy;
#X obj 30 263 struct \$0.seg.solo float posy float bgclr;
#X obj 31 179 filledpolygon bgclr bgclr 0 14 posy 14 posy(0:1000)(16:1016)
23 posy(0:1000)(16:1016) 23 posy;
#X connect 1 0 6 0;
#X connect 2 0 0 0;
#X connect 2 1 3 0;
#X connect 3 0 5 0;
#X connect 3 1 7 0;
#X connect 4 0 8 0;
#X connect 5 0 4 0;
#X connect 5 1 8 1;
#X connect 7 0 4 1;
#X connect 9 0 2 0;
#X restore 522 280 pd struct_solo;
#X obj 522 320 route click;
#X obj 599 421 - 20;
#X obj 599 443 div 20;
#X obj 522 557 s \$0.from.seg.gui;
#X msg 522 535 raw solo \$1;
#N canvas 0 50 334 279 limit.to.count 0;
#X obj 125 38 r \$0.from.seg.gui;
#X obj 125 64 route scrollpos;
#X obj 10 93 +;
#X obj 10 121 moses;
#X obj 131 123 r \$0.to.seg.gui;
#X obj 131 145 route count;
#X obj 10 143 b;
#X obj 10 73 t a a;
#X obj 10 167 f;
#X obj 10 15 inlet;
#X obj 10 216 outlet;
#X connect 0 0 1 0;
#X connect 1 0 2 1;
#X connect 2 0 3 0;
#X connect 3 0 6 0;
#X connect 4 0 5 0;
#X connect 5 0 3 1;
#X connect 6 0 8 0;
#X connect 7 0 2 0;
#X connect 7 1 8 1;
#X connect 8 0 10 0;
#X connect 9 0 7 0;
#X restore 599 468 pd limit.to.count;
#N canvas 0 50 334 279 limit.to.count 0;
#X obj 125 38 r \$0.from.seg.gui;
#X obj 125 64 route scrollpos;
#X obj 10 93 +;
#X obj 10 121 moses;
#X obj 131 123 r \$0.to.seg.gui;
#X obj 131 145 route count;
#X obj 10 143 b;
#X obj 10 73 t a a;
#X obj 10 167 f;
#X obj 10 15 inlet;
#X obj 10 216 outlet;
#X connect 0 0 1 0;
#X connect 1 0 2 1;
#X connect 2 0 3 0;
#X connect 3 0 6 0;
#X connect 4 0 5 0;
#X connect 5 0 3 1;
#X connect 6 0 8 0;
#X connect 7 0 2 0;
#X connect 7 1 8 1;
#X connect 8 0 10 0;
#X connect 9 0 7 0;
#X restore 746 415 pd limit.to.count;
#X obj 522 344 get \$0.seg.solo bgclr posy;
#X obj 599 395 f;
#X obj 522 366 sel 567 234;
#X msg 522 409 symbol off;
#X obj 312 593 list append;
#N canvas 0 50 334 279 limit.to.count 0;
#X obj 125 38 r \$0.from.seg.gui;
#X obj 125 64 route scrollpos;
#X obj 10 93 +;
#X obj 10 121 moses;
#X obj 131 123 r \$0.to.seg.gui;
#X obj 131 145 route count;
#X obj 10 143 b;
#X obj 10 73 t a a;
#X obj 10 167 f;
#X obj 10 15 inlet;
#X obj 10 216 outlet;
#X connect 0 0 1 0;
#X connect 1 0 2 1;
#X connect 2 0 3 0;
#X connect 3 0 6 0;
#X connect 4 0 5 0;
#X connect 5 0 3 1;
#X connect 6 0 8 0;
#X connect 7 0 2 0;
#X connect 7 1 8 1;
#X connect 8 0 10 0;
#X connect 9 0 7 0;
#X restore 312 548 pd limit.to.count;
#X obj 331 380 f;
#X obj 312 570 t a b;
#X msg 362 435 567;
#X obj 351 404 select 234 567;
#X connect 0 0 5 0;
#X connect 1 0 2 0;
#X connect 2 0 12 0;
#X connect 3 0 38 0;
#X connect 4 0 41 0;
#X connect 4 1 36 0;
#X connect 5 0 4 0;
#X connect 5 1 35 0;
#X connect 6 0 11 0;
#X connect 7 0 10 0;
#X connect 8 0 6 0;
#X connect 8 0 7 0;
#X connect 9 0 8 0;
#X connect 9 1 11 1;
#X connect 9 1 10 1;
#X connect 10 0 50 0;
#X connect 11 0 49 0;
#X connect 12 0 39 0;
#X connect 12 1 37 0;
#X connect 12 2 38 1;
#X connect 13 0 65 1;
#X connect 14 0 65 1;
#X connect 15 0 16 0;
#X connect 16 0 17 0;
#X connect 17 0 18 0;
#X connect 18 0 20 0;
#X connect 18 1 19 0;
#X connect 19 0 17 1;
#X connect 20 0 21 0;
#X connect 21 0 31 0;
#X connect 22 0 17 1;
#X connect 23 0 24 0;
#X connect 24 0 34 0;
#X connect 25 0 26 0;
#X connect 26 0 60 0;
#X connect 27 0 28 0;
#X connect 28 0 9 0;
#X connect 29 0 66 0;
#X connect 30 0 29 0;
#X connect 31 0 52 0;
#X connect 32 0 1 0;
#X connect 33 0 23 0;
#X connect 34 0 25 0;
#X connect 35 0 27 0;
#X connect 36 0 6 0;
#X connect 37 0 67 1;
#X connect 39 0 30 0;
#X connect 40 0 42 0;
#X connect 41 0 7 0;
#X connect 42 0 15 0;
#X connect 42 1 22 0;
#X connect 43 0 44 0;
#X connect 45 0 43 0;
#X connect 47 0 0 0;
#X connect 48 0 46 0;
#X connect 49 0 46 0;
#X connect 50 0 46 0;
#X connect 51 0 53 0;
#X connect 52 0 47 0;
#X connect 52 1 32 0;
#X connect 52 2 51 0;
#X connect 52 3 33 0;
#X connect 53 0 54 0;
#X connect 54 0 61 0;
#X connect 55 0 56 0;
#X connect 56 0 59 0;
#X connect 58 0 57 0;
#X connect 59 0 58 0;
#X connect 60 0 45 0;
#X connect 61 0 63 0;
#X connect 61 1 62 1;
#X connect 62 0 55 0;
#X connect 63 0 64 0;
#X connect 63 1 62 0;
#X connect 64 0 58 0;
#X connect 65 0 48 0;
#X connect 66 0 68 0;
#X connect 67 0 70 0;
#X connect 68 0 65 0;
#X connect 68 1 67 0;
#X connect 69 0 38 0;
#X connect 70 0 69 0;
#X connect 70 0 13 0;
#X connect 70 1 3 0;
#X connect 70 1 14 0;
#X restore 471 173 pd create_rows;
#N canvas 721 244 568 415 update_rows 0;
#X obj 323 181 pointer;
#X msg 323 154 next;
#X msg 396 127 traverse \$1;
#X obj 396 105 symbol pd-\$0.segments.gop;
#X obj 157 24 r \$0.to.seg.gui;
#X obj 157 46 route raw;
#X obj 157 68 route row;
#X obj 48 108 list split 1;
#X obj 82 132 route bang;
#X obj 154 296 set \$0.seg.row offset;
#X obj 170 271 set \$0.seg.row width;
#X obj 240 343 set \$0.seg.row vis;
#X obj 157 90 t a a;
#X msg 323 26 \$1;
#X obj 323 48 t a b;
#X msg 202 200 \$1;
#X obj 323 116 until;
#X obj 62 343 set \$0.seg.mute fgclr;
#X obj 62 295 sel 0 1;
#X msg 62 317 234;
#X msg 170 198 \$2;
#X msg 154 227 \$3;
#X obj 44 172 t b b b;
#X msg 44 198 0;
#X obj 139 169 t b a a b a;
#X msg 139 251 1;
#X obj 323 70 * 4;
#X obj 323 94 + 3;
#X msg 95 319 567;
#X connect 0 0 9 1;
#X connect 0 0 10 1;
#X connect 0 0 11 1;
#X connect 0 0 17 1;
#X connect 1 0 0 0;
#X connect 2 0 0 0;
#X connect 3 0 2 0;
#X connect 4 0 5 0;
#X connect 5 0 6 0;
#X connect 6 0 12 0;
#X connect 7 1 8 0;
#X connect 8 0 22 0;
#X connect 8 1 24 0;
#X connect 12 0 7 0;
#X connect 12 1 13 0;
#X connect 13 0 14 0;
#X connect 14 0 26 0;
#X connect 14 1 3 0;
#X connect 15 0 18 0;
#X connect 16 0 1 0;
#X connect 18 0 19 0;
#X connect 18 1 28 0;
#X connect 19 0 17 0;
#X connect 20 0 10 0;
#X connect 21 0 9 0;
#X connect 22 0 23 0;
#X connect 22 1 1 0;
#X connect 22 2 19 0;
#X connect 23 0 11 0;
#X connect 24 0 25 0;
#X connect 24 1 21 0;
#X connect 24 2 20 0;
#X connect 24 3 1 0;
#X connect 24 4 15 0;
#X connect 25 0 11 0;
#X connect 26 0 27 0;
#X connect 27 0 16 0;
#X connect 28 0 17 0;
#X restore 419 123 pd update_rows;
#N canvas 66 324 379 328 struct_add 0;
#X obj 37 8 inlet;
#X obj 32 205 route click;
#X obj 32 227 b;
#X obj 37 106 filledpolygon bgclr bgclr 0 0 0 0 16 16 16 16 0;
#X obj 36 136 drawsymbol label 4 1 fgclr;
#X obj 37 77 s pd-\$0.segments.gop;
#X obj 32 183 struct \$0.seg.add float bgclr float fgclr symbol label
;
#X obj 37 29 list prepend \$0;
#X msg 37 51 scalar \$1.seg.add \$2 \$3 \$4;
#X msg 32 250 add;
#X obj 32 272 s \$0.from.seg.gui;
#X connect 0 0 7 0;
#X connect 1 0 2 0;
#X connect 2 0 9 0;
#X connect 6 0 1 0;
#X connect 7 0 8 0;
#X connect 8 0 5 0;
#X connect 9 0 10 0;
#X restore 31 207 pd struct_add;
#X msg 419 56 clear;
#N canvas 66 324 379 328 struct_del 0;
#X obj 37 24 inlet;
#X obj 32 225 route click;
#X obj 37 121 filledpolygon bgclr bgclr 0 20 0 20 16 36 16 36 0;
#X obj 36 151 drawsymbol label 24 1 fgclr;
#X obj 37 92 s pd-\$0.segments.gop;
#X obj 37 46 list prepend \$0;
#X obj 32 203 struct \$0.seg.del float bgclr float fgclr symbol label
;
#X msg 37 66 scalar \$1.seg.del \$2 \$3 \$4;
#X obj 32 270 s \$0.from.seg.gui;
#X msg 32 248 del;
#X connect 0 0 5 0;
#X connect 1 0 9 0;
#X connect 5 0 7 0;
#X connect 6 0 1 0;
#X connect 7 0 4 0;
#X connect 9 0 8 0;
#X restore 118 208 pd struct_del;
#N canvas 176 168 823 301 struct_count 0;
#X obj 37 24 inlet;
#X obj 37 121 filledpolygon bgclr bgclr 0 80 0 80 16 116 16 116 0;
#X obj 34 151 drawnumber count 84 1 fgclr;
#X obj 37 92 s pd-\$0.segments.gop;
#X obj 37 46 list prepend \$0;
#X obj 32 203 struct \$0.seg.count float bgclr float fgclr float count
;
#X msg 37 66 scalar \$1.seg.count \$2 \$3 \$4;
#X obj 570 165 pointer;
#X msg 570 114 next;
#X msg 629 122 traverse \$1;
#X obj 629 100 symbol pd-\$0.segments.gop;
#X obj 570 24 r \$0.done.create;
#X obj 570 46 t b b;
#X obj 570 91 until;
#X obj 441 198 set \$0.seg.count count;
#X obj 441 59 r \$0.to.seg.gui;
#X obj 441 81 route count;
#N canvas 0 50 388 239 prohibit_editing 0;
#X obj 23 57 route change click;
#X obj 75 98 get \$0.seg.count count;
#X obj 23 152 set \$0.seg.count count;
#X obj 23 79 t b p;
#X obj 23 128 f;
#X obj 23 20 inlet;
#X connect 0 0 3 0;
#X connect 0 1 1 0;
#X connect 1 0 4 1;
#X connect 3 0 4 0;
#X connect 3 1 2 1;
#X connect 4 0 2 0;
#X connect 5 0 0 0;
#X restore 32 236 pd prohibit_editing;
#X msg 570 68 34;
#X connect 0 0 4 0;
#X connect 4 0 6 0;
#X connect 5 0 17 0;
#X connect 6 0 3 0;
#X connect 7 0 14 1;
#X connect 8 0 7 0;
#X connect 9 0 7 0;
#X connect 10 0 9 0;
#X connect 11 0 12 0;
#X connect 12 0 18 0;
#X connect 12 1 10 0;
#X connect 13 0 8 0;
#X connect 15 0 16 0;
#X connect 16 0 14 0;
#X connect 18 0 13 0;
#X restore 315 208 pd struct_count;
#N canvas 66 324 887 288 struct_length 0;
#X obj 37 24 inlet;
#X obj 37 121 filledpolygon bgclr bgclr 0 120 0 120 16 156 16 156 0
;
#X obj 34 151 drawnumber length 124 1 fgclr;
#X obj 37 92 s pd-\$0.segments.gop;
#X obj 37 46 list prepend \$0;
#X msg 37 66 scalar \$1.seg.length \$2 \$3 \$4;
#X obj 32 203 struct \$0.seg.length float bgclr float fgclr float length
;
#X obj 570 165 pointer;
#X msg 570 114 next;
#X msg 629 122 traverse \$1;
#X obj 629 100 symbol pd-\$0.segments.gop;
#X obj 570 24 r \$0.done.create;
#X obj 570 46 t b b;
#X obj 570 91 until;
#X obj 441 198 set \$0.seg.length length;
#X obj 441 115 r \$0.to.seg.gui;
#X obj 441 137 route length;
#N canvas 0 50 388 239 prohibit_editing 0;
#X obj 23 57 route change click;
#X obj 23 79 t b p;
#X obj 23 128 f;
#X obj 23 20 inlet;
#X obj 75 98 get \$0.seg.length length;
#X obj 23 152 set \$0.seg.length length;
#X connect 0 0 1 0;
#X connect 0 1 4 0;
#X connect 1 0 2 0;
#X connect 1 1 5 1;
#X connect 2 0 5 0;
#X connect 3 0 0 0;
#X connect 4 0 2 1;
#X restore 32 236 pd prohibit_editing;
#X msg 570 68 33;
#X connect 0 0 4 0;
#X connect 4 0 5 0;
#X connect 5 0 3 0;
#X connect 6 0 17 0;
#X connect 7 0 14 1;
#X connect 8 0 7 0;
#X connect 9 0 7 0;
#X connect 10 0 9 0;
#X connect 11 0 12 0;
#X connect 12 0 18 0;
#X connect 12 1 10 0;
#X connect 13 0 8 0;
#X connect 15 0 16 0;
#X connect 16 0 14 0;
#X connect 18 0 13 0;
#X restore 414 208 pd struct_length;
#N canvas 794 225 408 448 update_range 0;
#X obj 125 282 pointer;
#X msg 125 254 next;
#X msg 172 224 traverse \$1;
#X obj 10 124 t b a b b;
#X obj 10 191 f;
#X obj 10 166 until;
#X msg 61 169 0;
#X obj 50 198 + 1;
#X obj 10 213 t b a;
#X obj 37 281 change -1;
#X obj 37 333 moses;
#X msg 37 357 234;
#X obj 64 309 + 1;
#X msg 64 357 777;
#X obj 172 202 symbol pd-\$0.segments.gop;
#X obj 37 390 set \$0.seg.range bgclr;
#X obj 10 6 r \$0.from.seg.gui;
#X obj 10 30 route raw;
#X obj 10 51 route range;
#X obj 10 73 - 1;
#X obj 120 7 r \$0.to.seg.gui;
#X obj 37 259 div 4;
#X msg 10 144 30;
#X connect 0 0 15 1;
#X connect 1 0 0 0;
#X connect 2 0 0 0;
#X connect 3 0 22 0;
#X connect 3 1 12 0;
#X connect 3 2 1 0;
#X connect 3 3 6 0;
#X connect 3 3 14 0;
#X connect 4 0 7 0;
#X connect 4 0 8 0;
#X connect 5 0 4 0;
#X connect 6 0 4 1;
#X connect 7 0 4 1;
#X connect 8 0 1 0;
#X connect 8 1 21 0;
#X connect 9 0 10 0;
#X connect 10 0 11 0;
#X connect 10 1 13 0;
#X connect 11 0 15 0;
#X connect 12 0 10 1;
#X connect 13 0 15 0;
#X connect 14 0 2 0;
#X connect 16 0 17 0;
#X connect 17 0 18 0;
#X connect 18 0 19 0;
#X connect 19 0 3 0;
#X connect 20 0 17 0;
#X connect 21 0 9 0;
#X connect 22 0 5 0;
#X restore 419 103 pd update_range;
#X obj 419 80 s pd-\$0.segments.gop;
#X obj 215 43 loadbang;
#X obj 215 85 s \$0.done.create;
#X obj 215 65 t b b;
#X obj 269 43 bng 15 250 50 0 empty empty empty 17 7 0 10 -262144 -1
-1;
#X msg 31 173 \$1 \$3 +;
#X msg 118 174 \$1 \$3 -;
#X msg 206 174 \$1 \$3 16;
#X msg 315 174 \$1 \$2 0;
#X msg 414 174 \$1 \$2 0;
#X msg 242 107 456 777 999;
#N canvas 214 115 953 616 scrollbar 0;
#X obj 9 10 inlet;
#X obj 9 226 s pd-\$0.segments.gop;
#X msg 28 151 obj 0 0 cnv 15 157 177 empty empty empty 20 12 0 14 -262144
-66577;
#X obj 9 35 f \$0;
#X obj 9 60 t a a a;
#X obj 414 503 s \$0.scrollbar.display;
#X msg 414 420 pos 140 \$1;
#X msg 430 472 vis_size 17 \$1;
#X msg 9 186 obj 140 20 cnv 0 17 157 empty \$1.scrollbar.display empty
20 12 0 14 -67105 -66577;
#X msg 48 113 obj 140 22 vsl 17 152 1 0 0 0 \$1.scrollbar.handle.s
\$1.scrollbar.handle.r empty 0 -9 0 10 -262144 -1 -1 0 1;
#X obj 414 278 * 152;
#X obj 414 302 + 20;
#X obj 488 289 t a a;
#X msg 515 311 177 \$1;
#X obj 515 334 -;
#X obj 414 396 min;
#X obj 573 367 - 20;
#X obj 573 420 / 152;
#X obj 414 188 r \$0.scrollbar.handle.s;
#X obj 558 576 s \$0.scrollbar.handle.r;
#X obj 558 467 >;
#X obj 558 489 sel 1;
#X obj 558 511 f;
#X msg 558 533 set \$1;
#X obj 573 442 t a a;
#X msg 488 139 8 \$1;
#X obj 488 161 /;
#X obj 488 223 min 1;
#X obj 488 243 * 157;
#X obj 488 265 int;
#X obj 488 113 max 1;
#X obj 488 90 t a a;
#X obj 677 393 / 157;
#X obj 662 419 min;
#X obj 662 443 *;
#X obj 662 465 + 0.3;
#X obj 662 487 int;
#X obj 662 509 change;
#X obj 573 389 t a a;
#X obj 414 225 t a a a;
#X msg 662 531 scrollpos \$1;
#X obj 662 553 s \$0.from.seg.gui;
#X obj 639 35 r \$0.from.seg.gui;
#X obj 505 547 loadbang;
#X msg 505 569 0;
#X obj 639 60 route scrollpos;
#X obj 750 33 r \$0.to.seg.gui;
#X obj 750 55 route count;
#X obj 753 132 -;
#X obj 753 153 clip -1 1;
#X obj 753 175 sel -1 1;
#X obj 750 106 t a a a a;
#X obj 766 285 /;
#X obj 859 162 t a;
#X obj 769 324 s \$0.scrollbar.handle.r;
#X msg 821 282 1;
#X obj 750 77 t a a;
#X obj 753 202 f;
#X obj 822 162 - 8;
#X obj 822 188 max 0;
#X obj 753 235 min;
#X connect 0 0 3 0;
#X connect 2 0 1 0;
#X connect 3 0 4 0;
#X connect 4 0 8 0;
#X connect 4 1 2 0;
#X connect 4 2 9 0;
#X connect 6 0 5 0;
#X connect 7 0 5 0;
#X connect 8 0 1 0;
#X connect 9 0 1 0;
#X connect 10 0 11 0;
#X connect 11 0 15 0;
#X connect 12 0 7 0;
#X connect 12 1 13 0;
#X connect 13 0 14 0;
#X connect 14 0 15 1;
#X connect 14 0 16 0;
#X connect 15 0 6 0;
#X connect 16 0 38 0;
#X connect 17 0 24 0;
#X connect 18 0 39 0;
#X connect 20 0 21 0;
#X connect 21 0 22 0;
#X connect 22 0 23 0;
#X connect 23 0 19 0;
#X connect 24 0 20 1;
#X connect 24 1 22 1;
#X connect 25 0 26 0;
#X connect 26 0 27 0;
#X connect 27 0 28 0;
#X connect 28 0 29 0;
#X connect 29 0 12 0;
#X connect 30 0 25 0;
#X connect 31 0 30 0;
#X connect 31 1 34 1;
#X connect 32 0 33 1;
#X connect 33 0 34 0;
#X connect 34 0 35 0;
#X connect 35 0 36 0;
#X connect 36 0 37 0;
#X connect 37 0 40 0;
#X connect 38 0 17 0;
#X connect 38 1 32 0;
#X connect 39 0 10 0;
#X connect 39 1 20 0;
#X connect 39 2 33 0;
#X connect 40 0 41 0;
#X connect 42 0 45 0;
#X connect 43 0 44 0;
#X connect 44 0 19 0;
#X connect 45 0 57 1;
#X connect 46 0 47 0;
#X connect 47 0 56 0;
#X connect 48 0 49 0;
#X connect 49 0 50 0;
#X connect 50 0 57 0;
#X connect 50 1 55 0;
#X connect 51 0 48 1;
#X connect 51 1 48 0;
#X connect 51 2 58 0;
#X connect 51 3 53 0;
#X connect 52 0 54 0;
#X connect 53 0 52 1;
#X connect 55 0 54 0;
#X connect 56 0 51 0;
#X connect 56 1 31 0;
#X connect 57 0 60 0;
#X connect 58 0 59 0;
#X connect 59 0 60 1;
#X connect 60 0 52 0;
#X restore 563 172 pd scrollbar;
#X obj 242 131 t a a a a a b b;
#N canvas 66 324 407 413 struct_default 0;
#X obj 37 24 inlet;
#X obj 37 121 filledpolygon bgclr bgclr 0 40 0 40 16 76 16 76 0;
#X obj 34 151 drawnumber default 44 1 fgclr;
#X obj 32 225 route change;
#X obj 37 92 s pd-\$0.segments.gop;
#X obj 37 46 list prepend \$0;
#X obj 32 203 struct \$0.seg.width float bgclr float fgclr float default
;
#X msg 37 66 scalar \$1.seg.width \$2 \$3 \$4;
#X obj 32 384 s \$0.from.seg.gui;
#X msg 32 361 default_width \$1;
#X obj 32 273 get \$0.seg.width default;
#X obj 32 248 t p p;
#X obj 32 294 max 1;
#X obj 95 313 set \$0.seg.width default;
#X obj 32 316 t a a;
#X obj 32 338 change;
#X connect 0 0 5 0;
#X connect 3 0 11 0;
#X connect 5 0 7 0;
#X connect 6 0 3 0;
#X connect 7 0 4 0;
#X connect 9 0 8 0;
#X connect 10 0 12 0;
#X connect 11 0 10 0;
#X connect 11 1 13 1;
#X connect 12 0 14 0;
#X connect 14 0 15 0;
#X connect 14 1 13 0;
#X connect 15 0 9 0;
#X restore 206 208 pd struct_default;
#N canvas 747 126 385 511 update_solo 0;
#X obj 125 302 pointer;
#X msg 172 244 traverse \$1;
#X obj 10 144 t b a b b;
#X obj 10 211 f;
#X obj 10 186 until;
#X msg 61 189 0;
#X obj 50 218 + 1;
#X obj 10 233 t b a;
#X obj 37 301 change -1;
#X obj 64 329 + 1;
#X obj 172 222 symbol pd-\$0.segments.gop;
#X obj 10 6 r \$0.from.seg.gui;
#X obj 10 30 route raw;
#X obj 120 7 r \$0.to.seg.gui;
#X obj 37 279 div 4;
#X msg 10 164 30;
#X obj 10 51 route solo;
#X obj 37 410 set \$0.seg.solo bgclr;
#X msg 10 261 next;
#X msg 125 272 next \, next;
#X obj 37 352 sel;
#X msg 64 377 234;
#X msg 37 377 567;
#X obj 10 73 route off;
#X obj 10 118 - 1;
#X msg 10 95 -1;
#X connect 0 0 17 1;
#X connect 1 0 0 0;
#X connect 2 0 15 0;
#X connect 2 1 9 0;
#X connect 2 2 19 0;
#X connect 2 3 5 0;
#X connect 2 3 10 0;
#X connect 3 0 6 0;
#X connect 3 0 7 0;
#X connect 4 0 3 0;
#X connect 5 0 3 1;
#X connect 6 0 3 1;
#X connect 7 0 18 0;
#X connect 7 1 14 0;
#X connect 8 0 20 0;
#X connect 9 0 20 1;
#X connect 10 0 1 0;
#X connect 11 0 12 0;
#X connect 12 0 16 0;
#X connect 13 0 12 0;
#X connect 14 0 8 0;
#X connect 15 0 4 0;
#X connect 16 0 23 0;
#X connect 18 0 0 0;
#X connect 19 0 0 0;
#X connect 20 0 22 0;
#X connect 20 1 21 0;
#X connect 21 0 17 0;
#X connect 22 0 17 0;
#X connect 23 0 25 0;
#X connect 23 1 24 0;
#X connect 24 0 2 0;
#X connect 25 0 24 0;
#X restore 516 103 pd update_solo;
#X connect 3 0 8 0;
#X connect 9 0 11 0;
#X connect 11 0 10 0;
#X connect 11 1 18 0;
#X connect 12 0 11 0;
#X connect 13 0 2 0;
#X connect 14 0 4 0;
#X connect 15 0 21 0;
#X connect 16 0 5 0;
#X connect 17 0 6 0;
#X connect 18 0 20 0;
#X connect 20 0 13 0;
#X connect 20 1 14 0;
#X connect 20 2 15 0;
#X connect 20 3 16 0;
#X connect 20 4 17 0;
#X connect 20 5 0 0;
#X connect 20 6 19 0;
#X restore 9 106 pd set.editor.gui.code;
#X obj 225 268 s \$0.from.seg;
#X floatatom 446 100 5 0 0 0 - - -, f 5;
#X msg 447 120 range \$1;
#X msg 507 120 range;
#X obj 225 172 r \$0.to.seg;
#N canvas 285 113 1042 359 set.editor.gui.interfacing 0;
#X obj 220 2 r \$0.from.seg;
#X obj 41 134 s \$0.to.seg;
#X obj 41 13 r \$0.from.seg.gui;
#X obj 41 57 b;
#X obj 41 79 f 16;
#X msg 41 104 add \$1 0 0;
#X obj 268 114 r \$0.from.seg.gui;
#X obj 268 136 route scrollpos;
#X obj 220 24 route quantity;
#X obj 220 150 t b a;
#X msg 220 172 8;
#X obj 220 194 until;
#X obj 220 216 f;
#X obj 269 213 + 1;
#X obj 220 100 b;
#X obj 220 122 f;
#X obj 220 46 t b a;
#X msg 247 68 count \$1;
#X obj 247 90 s \$0.to.seg.gui;
#X msg 220 263 get \$1;
#X obj 220 285 s \$0.to.seg;
#X obj 470 6 r \$0.from.seg;
#X obj 41 35 route add default_width del;
#X msg 122 104 remove;
#X obj 470 28 route segment;
#X obj 470 50 list split 1;
#X obj 470 83 -;
#X obj 470 124 list append;
#X obj 470 146 list prepend raw row;
#X obj 470 168 list trim;
#X obj 470 190 s \$0.to.seg.gui;
#X msg 534 100 \$3 \$1 \$2;
#X obj 736 86 r \$0.from.seg.gui;
#X obj 736 108 route scrollpos;
#X obj 668 14 r \$0.from.seg.gui;
#X obj 668 39 route edit;
#X obj 668 61 list split 1;
#X obj 668 83 +;
#X obj 668 135 list append;
#X msg 668 160 update_\$2 \$1 \$3;
#X obj 668 184 s \$0.to.seg;
#X obj 220 238 t a a a;
#X obj 467 220 r \$0.from.seg;
#X obj 467 242 route bang;
#X obj 467 266 f;
#X msg 467 288 raw row \$1;
#X obj 467 311 s \$0.to.seg.gui;
#X obj 52 175 loadbang;
#X msg 52 197 set 0;
#X obj 52 219 s \$0.to.seg;
#N canvas 0 50 507 276 solo 0;
#X obj 17 10 r \$0.from.seg;
#X obj 17 193 s \$0.to.seg.gui;
#X obj 17 32 route solo;
#X msg 17 171 raw solo \$1;
#X obj 17 54 route off;
#X obj 219 19 r \$0.from.seg.gui;
#X obj 219 41 route raw;
#X obj 219 63 route solo;
#X obj 219 85 route off;
#X msg 219 177 solo \$1;
#X obj 219 199 s \$0.to.seg;
#X obj 99 59 inlet;
#X obj 30 123 -;
#X obj 270 142 +;
#X msg 17 146 symbol off;
#X msg 219 107 -1;
#X connect 0 0 2 0;
#X connect 2 0 4 0;
#X connect 3 0 1 0;
#X connect 4 0 14 0;
#X connect 4 1 12 0;
#X connect 5 0 6 0;
#X connect 6 0 7 0;
#X connect 7 0 8 0;
#X connect 8 0 15 0;
#X connect 8 1 13 0;
#X connect 9 0 10 0;
#X connect 11 0 12 1;
#X connect 11 0 13 1;
#X connect 12 0 3 0;
#X connect 13 0 9 0;
#X connect 14 0 3 0;
#X connect 15 0 9 0;
#X restore 388 181 pd solo;
#N canvas 0 50 429 251 range 0;
#X obj 15 18 r \$0.from.seg;
#X obj 15 163 s \$0.to.seg.gui;
#X obj 15 40 route range;
#X msg 15 141 raw range \$1;
#X obj 229 36 r \$0.from.seg.gui;
#X obj 229 58 route raw;
#X obj 229 80 route range;
#X msg 229 145 range \$1;
#X obj 229 167 s \$0.to.seg;
#X obj 116 46 inlet;
#X obj 15 117 -;
#X obj 229 120 +;
#X connect 0 0 2 0;
#X connect 2 0 10 0;
#X connect 3 0 1 0;
#X connect 4 0 5 0;
#X connect 5 0 6 0;
#X connect 6 0 11 0;
#X connect 7 0 8 0;
#X connect 9 0 10 1;
#X connect 9 0 11 1;
#X connect 10 0 3 0;
#X connect 11 0 7 0;
#X restore 383 208 pd range;
#X obj 268 158 t a b a;
#X msg 302 220 solo \, range;
#X obj 872 120 r \$0.from.seg;
#X obj 872 142 route range_length;
#X msg 872 166 length \$1;
#X obj 872 191 s \$0.to.seg.gui;
#X connect 0 0 8 0;
#X connect 2 0 22 0;
#X connect 3 0 4 0;
#X connect 4 0 5 0;
#X connect 5 0 1 0;
#X connect 6 0 7 0;
#X connect 7 0 52 0;
#X connect 8 0 16 0;
#X connect 9 0 10 0;
#X connect 9 1 12 1;
#X connect 10 0 11 0;
#X connect 11 0 12 0;
#X connect 12 0 41 0;
#X connect 13 0 12 1;
#X connect 14 0 15 0;
#X connect 15 0 9 0;
#X connect 16 0 14 0;
#X connect 16 1 17 0;
#X connect 17 0 18 0;
#X connect 19 0 20 0;
#X connect 21 0 24 0;
#X connect 22 0 3 0;
#X connect 22 1 4 1;
#X connect 22 2 23 0;
#X connect 23 0 1 0;
#X connect 24 0 25 0;
#X connect 25 0 26 0;
#X connect 25 1 31 0;
#X connect 26 0 27 0;
#X connect 27 0 28 0;
#X connect 28 0 29 0;
#X connect 29 0 30 0;
#X connect 31 0 27 1;
#X connect 32 0 33 0;
#X connect 33 0 37 1;
#X connect 34 0 35 0;
#X connect 35 0 36 0;
#X connect 36 0 37 0;
#X connect 36 1 38 1;
#X connect 37 0 38 0;
#X connect 38 0 39 0;
#X connect 39 0 40 0;
#X connect 41 0 19 0;
#X connect 41 1 44 1;
#X connect 41 2 13 0;
#X connect 42 0 43 0;
#X connect 43 0 44 0;
#X connect 44 0 45 0;
#X connect 45 0 46 0;
#X connect 47 0 48 0;
#X connect 48 0 49 0;
#X connect 52 0 15 0;
#X connect 52 1 53 0;
#X connect 52 2 50 0;
#X connect 52 2 51 0;
#X connect 52 2 26 1;
#X connect 53 0 20 0;
#X connect 54 0 55 0;
#X connect 55 0 56 0;
#X connect 56 0 57 0;
#X restore 10 133 pd set.editor.gui.interfacing;
#N canvas 782 111 796 305 set.manager.gui.code 0;
#X msg 197 75 456 777 999;
#X obj 197 99 t a a a a a b b;
#N canvas 66 324 379 328 struct_add 0;
#X obj 37 8 inlet;
#X obj 32 205 route click;
#X obj 32 227 b;
#X obj 37 106 filledpolygon bgclr bgclr 0 0 0 0 16 16 16 16 0;
#X obj 36 136 drawsymbol label 4 1 fgclr;
#X obj 37 29 list prepend \$0;
#X msg 32 250 add;
#X obj 32 183 struct \$0.set.add float bgclr float fgclr symbol label
;
#X msg 37 51 scalar \$1.set.add \$2 \$3 \$4;
#X obj 37 77 s pd-\$0.sets.gop;
#X obj 32 272 s \$0.from.set.gui;
#X connect 0 0 5 0;
#X connect 1 0 2 0;
#X connect 2 0 6 0;
#X connect 5 0 8 0;
#X connect 6 0 10 0;
#X connect 7 0 1 0;
#X connect 8 0 9 0;
#X restore 31 207 pd struct_add;
#N canvas 66 324 379 328 struct_del 0;
#X obj 37 24 inlet;
#X obj 32 225 route click;
#X obj 37 121 filledpolygon bgclr bgclr 0 20 0 20 16 36 16 36 0;
#X obj 36 151 drawsymbol label 24 1 fgclr;
#X obj 37 46 list prepend \$0;
#X msg 32 248 del;
#X msg 37 66 scalar \$1.set.del \$2 \$3 \$4;
#X obj 37 92 s pd-\$0.sets.gop;
#X obj 32 203 struct \$0.set.del float bgclr float fgclr symbol label
;
#X obj 32 270 s \$0.from.set.gui;
#X connect 0 0 4 0;
#X connect 1 0 5 0;
#X connect 4 0 6 0;
#X connect 5 0 9 0;
#X connect 6 0 7 0;
#X connect 8 0 1 0;
#X restore 118 208 pd struct_del;
#X msg 31 173 \$1 \$3 +;
#X msg 118 174 \$1 \$3 -;
#N canvas 110 186 789 610 struct_default 0;
#X obj 39 8 inlet;
#X obj 66 52 list prepend \$0;
#X obj 66 98 s pd-\$0.sets.gop;
#X obj 32 141 struct \$0.set.default float bgclr float fgclr symbol
selector float number;
#X msg 66 72 scalar \$1.set.default \$2 \$3 \$4;
#X obj 463 38 drawnumber number 40 0 fgclr;
#X obj 462 61 filledpolygon 234 234 0 40 0 40 16 50 16 50 0;
#X obj 461 88 filledpolygon 345 345 0 40 2 40 14 50 14 50 2;
#X obj 460 112 filledpolygon 456 456 0 40 4 40 12 50 12 50 4;
#X obj 460 134 filledpolygon 567 567 0 40 6 40 10 50 10 50 6;
#X obj 459 164 filledpolygon bgclr bgclr 0 50 0 50 16 156 16 156 0
;
#X obj 458 195 drawsymbol selector 54 0 fgclr;
#X obj 32 199 t p p;
#X msg 59 440 symbol master;
#X msg 92 461 symbol set:\$1;
#X obj 32 393 t a a;
#X obj 32 530 s \$0.from.set.gui;
#X obj 59 416 sel -1;
#X obj 59 483 set -symbol \$0.set.default selector;
#X obj 32 221 get \$0.set.default number;
#X msg 32 504 default \$1;
#X obj 39 30 t b a;
#N canvas 520 315 524 418 limit_default_selector 0;
#X msg 291 267 traverse pd-\$1.sets.gop;
#X obj 291 245 f \$0;
#X obj 244 209 t b b;
#X obj 244 253 until;
#X msg 244 277 next;
#X obj 53 356 set -symbol \$0.set.default selector;
#X msg 244 231 9;
#X obj 86 383 set \$0.set.default number;
#X obj 244 300 pointer \$0.set.default;
#X obj 244 178 inlet;
#X obj 46 30 r \$0.from.set;
#X obj 46 52 route count;
#X obj 376 31 inlet;
#X obj 46 102 >;
#X obj 46 124 sel 0;
#X obj 46 74 t a a;
#X obj 46 147 f;
#X obj 103 118 - 1;
#X obj 46 189 sel -1;
#X msg 46 211 symbol master;
#X msg 79 233 symbol set:\$1;
#X obj 46 168 t a a;
#X obj 125 147 t a;
#X obj 115 293 * -10;
#X obj 115 315 + 1;
#X connect 0 0 8 0;
#X connect 1 0 0 0;
#X connect 2 0 6 0;
#X connect 2 1 1 0;
#X connect 3 0 4 0;
#X connect 4 0 8 0;
#X connect 6 0 3 0;
#X connect 8 0 5 1;
#X connect 8 0 7 1;
#X connect 9 0 2 0;
#X connect 10 0 11 0;
#X connect 11 0 15 0;
#X connect 12 0 13 1;
#X connect 13 0 14 0;
#X connect 14 0 16 0;
#X connect 15 0 13 0;
#X connect 15 1 17 0;
#X connect 16 0 21 0;
#X connect 17 0 16 1;
#X connect 18 0 19 0;
#X connect 18 1 20 0;
#X connect 19 0 5 0;
#X connect 20 0 5 0;
#X connect 21 0 18 0;
#X connect 21 1 22 0;
#X connect 21 1 23 0;
#X connect 22 0 13 1;
#X connect 23 0 24 0;
#X connect 24 0 7 0;
#X restore 39 120 pd limit_default_selector;
#X obj 117 275 r \$0.from.set;
#X obj 117 297 route count;
#X obj 117 319 * -10;
#X obj 32 318 * -1;
#X obj 32 340 div 10;
#X obj 32 362 change;
#X obj 32 177 route change click;
#X obj 226 384 set \$0.set.default number;
#X obj 32 266 max;
#X obj 32 291 t a a;
#X obj 32 244 min 10;
#X obj 117 344 + 1;
#X connect 0 0 21 0;
#X connect 1 0 4 0;
#X connect 3 0 29 0;
#X connect 4 0 2 0;
#X connect 12 0 19 0;
#X connect 12 1 18 1;
#X connect 12 1 30 1;
#X connect 13 0 18 0;
#X connect 14 0 18 0;
#X connect 15 0 20 0;
#X connect 15 1 17 0;
#X connect 15 1 22 1;
#X connect 17 0 13 0;
#X connect 17 1 14 0;
#X connect 19 0 33 0;
#X connect 20 0 16 0;
#X connect 21 0 22 0;
#X connect 21 1 1 0;
#X connect 23 0 24 0;
#X connect 24 0 25 0;
#X connect 25 0 34 0;
#X connect 26 0 27 0;
#X connect 27 0 28 0;
#X connect 28 0 15 0;
#X connect 29 0 12 0;
#X connect 31 0 32 0;
#X connect 32 0 26 0;
#X connect 32 1 30 0;
#X connect 33 0 31 0;
#X connect 34 0 31 1;
#X restore 206 208 pd struct_default;
#X msg 306 77 clear;
#X obj 306 101 s pd-\$0.sets.gop;
#N canvas 208 97 953 616 scrollbar 0;
#X obj 9 10 inlet;
#X msg 28 151 obj 0 0 cnv 15 157 177 empty empty empty 20 12 0 14 -262144
-66577;
#X obj 9 35 f \$0;
#X obj 9 60 t a a a;
#X msg 414 420 pos 140 \$1;
#X msg 430 472 vis_size 17 \$1;
#X obj 414 278 * 152;
#X obj 414 302 + 20;
#X obj 488 289 t a a;
#X msg 515 311 177 \$1;
#X obj 515 334 -;
#X obj 414 396 min;
#X obj 573 367 - 20;
#X obj 573 420 / 152;
#X obj 558 467 >;
#X obj 558 489 sel 1;
#X obj 558 511 f;
#X msg 558 533 set \$1;
#X obj 573 442 t a a;
#X msg 488 139 8 \$1;
#X obj 488 161 /;
#X obj 488 223 min 1;
#X obj 488 243 * 157;
#X obj 488 265 int;
#X obj 488 113 max 1;
#X obj 488 90 t a a;
#X obj 677 393 / 157;
#X obj 662 419 min;
#X obj 662 443 *;
#X obj 662 465 + 0.3;
#X obj 662 487 int;
#X obj 662 509 change;
#X obj 573 389 t a a;
#X obj 414 225 t a a a;
#X msg 662 531 scrollpos \$1;
#X obj 505 547 loadbang;
#X msg 505 569 0;
#X obj 639 60 route scrollpos;
#X obj 750 55 route count;
#X obj 753 132 -;
#X obj 753 153 clip -1 1;
#X obj 753 175 sel -1 1;
#X obj 750 106 t a a a a;
#X obj 766 285 /;
#X obj 859 162 t a;
#X msg 821 282 1;
#X obj 750 77 t a a;
#X obj 753 202 f;
#X obj 822 162 - 8;
#X obj 822 188 max 0;
#X obj 753 235 min;
#X obj 9 226 s pd-\$0.sets.gop;
#X msg 48 113 obj 140 22 vsl 17 152 1 0 0 0 \$1.scrollbar2.handle.s
\$1.scrollbar2.handle.r empty 0 -9 0 10 -262144 -1 -1 0 1;
#X msg 9 186 obj 140 20 cnv 0 17 157 empty \$1.scrollbar2.display empty
20 12 0 14 -67105 -66577;
#X obj 414 188 r \$0.scrollbar2.handle.s;
#X obj 414 503 s \$0.scrollbar2.display;
#X obj 558 576 s \$0.scrollbar2.handle.r;
#X obj 769 324 s \$0.scrollbar2.handle.r;
#X obj 639 35 r \$0.from.set.gui;
#X obj 750 33 r \$0.to.set.gui;
#X obj 662 553 s \$0.from.set.gui;
#X connect 0 0 2 0;
#X connect 1 0 51 0;
#X connect 2 0 3 0;
#X connect 3 0 53 0;
#X connect 3 1 1 0;
#X connect 3 2 52 0;
#X connect 4 0 55 0;
#X connect 5 0 55 0;
#X connect 6 0 7 0;
#X connect 7 0 11 0;
#X connect 8 0 5 0;
#X connect 8 1 9 0;
#X connect 9 0 10 0;
#X connect 10 0 11 1;
#X connect 10 0 12 0;
#X connect 11 0 4 0;
#X connect 12 0 32 0;
#X connect 13 0 18 0;
#X connect 14 0 15 0;
#X connect 15 0 16 0;
#X connect 16 0 17 0;
#X connect 17 0 56 0;
#X connect 18 0 14 1;
#X connect 18 1 16 1;
#X connect 19 0 20 0;
#X connect 20 0 21 0;
#X connect 21 0 22 0;
#X connect 22 0 23 0;
#X connect 23 0 8 0;
#X connect 24 0 19 0;
#X connect 25 0 24 0;
#X connect 25 1 28 1;
#X connect 26 0 27 1;
#X connect 27 0 28 0;
#X connect 28 0 29 0;
#X connect 29 0 30 0;
#X connect 30 0 31 0;
#X connect 31 0 34 0;
#X connect 32 0 13 0;
#X connect 32 1 26 0;
#X connect 33 0 6 0;
#X connect 33 1 14 0;
#X connect 33 2 27 0;
#X connect 34 0 60 0;
#X connect 35 0 36 0;
#X connect 36 0 56 0;
#X connect 37 0 47 1;
#X connect 38 0 46 0;
#X connect 39 0 40 0;
#X connect 40 0 41 0;
#X connect 41 0 47 0;
#X connect 41 1 45 0;
#X connect 42 0 39 1;
#X connect 42 1 39 0;
#X connect 42 2 48 0;
#X connect 42 3 44 0;
#X connect 43 0 57 0;
#X connect 44 0 43 1;
#X connect 45 0 57 0;
#X connect 46 0 42 0;
#X connect 46 1 25 0;
#X connect 47 0 50 0;
#X connect 48 0 49 0;
#X connect 49 0 50 1;
#X connect 50 0 43 0;
#X connect 52 0 51 0;
#X connect 53 0 51 0;
#X connect 54 0 33 0;
#X connect 58 0 37 0;
#X connect 59 0 38 0;
#X restore 563 172 pd scrollbar;
#N canvas 259 111 1133 796 create_rows 0;
#X obj 269 7 inlet;
#N canvas 433 128 856 556 struct_src 0;
#X obj 28 34 inlet;
#X obj 25 175 outlet;
#X obj 485 31 drawnumber number 0 posy(0:1000)(1:1001) fgclr;
#X obj 484 53 filledpolygon bgclr bgclr 0 0 posy 0 posy(0:1000)(16:1016)
10 posy(0:1000)(16:1016) 10 posy;
#X obj 482 89 filledpolygon 345 345 0 0 posy(0:1000)(2:1002) 0 posy(0:1000)(14:1014)
10 posy(0:1000)(14:1014) 10 posy(0:1000)(2:1002);
#X obj 482 138 filledpolygon 456 456 0 0 posy(0:1000)(4:1004) 0 posy(0:1000)(12:1012)
10 posy(0:1000)(12:1012) 10 posy(0:1000)(4:1004);
#X obj 482 187 filledpolygon 567 567 0 0 posy(0:1000)(6:1006) 0 posy(0:1000)(10:1010)
10 posy(0:1000)(10:1010) 10 posy(0:1000)(6:1006);
#X obj 28 76 s pd-\$0.sets.gop;
#X text 499 8 == selector ===============================;
#X text 492 305 == offset ===============================;
#X text 493 408 == length ===============================;
#X obj 25 106 struct \$0.set.selector float posy float number symbol
label float fgclr float bgclr float vis float offset float length;
#X obj 483 237 filledpolygon bgclr bgclr 0 10 posy 10 posy(0:1000)(16:1016)
64 posy(0:1000)(16:1016) 64 posy;
#X obj 483 277 drawsymbol label 14 posy(0:1000)(1:1001) fgclr;
#X obj 466 354 filledpolygon bgclr bgclr 0 68 posy 68 posy(0:1000)(16:1016)
100 posy(0:1000)(16:1016) 100 posy;
#X obj 463 328 drawnumber -v vis offset 70 posy(0:1000)(1:1001) fgclr
;
#X obj 464 461 filledpolygon bgclr bgclr 0 104 posy 104 posy(0:1000)(16:1016)
136 posy(0:1000)(16:1016) 136 posy;
#X obj 462 435 drawnumber -v vis length 106 posy(0:1000)(1:1001) fgclr
;
#X obj 231 187 route change click;
#X obj 231 235 f;
#X obj 231 211 t b p;
#X obj 231 260 set \$0.set.selector posy;
#X obj 283 211 get \$0.set.selector posy;
#X obj 25 141 t a a;
#X connect 0 0 7 0;
#X connect 11 0 23 0;
#X connect 18 0 20 0;
#X connect 18 1 22 0;
#X connect 19 0 21 0;
#X connect 20 0 19 0;
#X connect 20 1 21 1;
#X connect 22 0 19 1;
#X connect 23 0 1 0;
#X connect 23 1 18 0;
#X restore 269 232 pd struct_src;
#X msg 269 48 8;
#X obj 269 70 until;
#X obj 269 92 f;
#X obj 269 114 t a a;
#X obj 312 99 + 1;
#X obj 269 136 * 20;
#X obj 269 158 + 20;
#X msg 318 62 0;
#X obj 269 183 list prepend \$0;
#X obj 269 29 t b b;
#X obj 269 254 t a a a;
#X obj 48 463 pack f f;
#X obj 48 508 s \$0.from.set.gui;
#X obj 156 389 - 20;
#X obj 156 411 div 20;
#X obj 48 355 get \$0.set.selector length posy;
#X obj 48 377 change -1;
#X msg 48 485 raw length \$2 \$1;
#X obj 48 331 route change;
#X obj 156 454 t a b;
#X msg 183 476 set -1;
#X obj 287 471 pack f f;
#X obj 287 516 s \$0.from.set.gui;
#X obj 395 406 - 20;
#X obj 395 428 div 20;
#X obj 287 394 change -1;
#X obj 287 348 route change;
#X obj 395 471 t a b;
#X msg 422 493 set -1;
#X obj 287 372 get \$0.set.selector offset posy;
#X msg 287 493 raw offset \$2 \$1;
#X obj 156 433 change;
#X obj 395 450 change;
#X obj 517 320 t p p;
#X msg 544 564 symbol master;
#X msg 577 585 symbol set:\$1;
#X obj 517 517 t a a;
#X obj 517 688 s \$0.from.set.gui;
#X obj 544 540 sel -1;
#X obj 517 442 * -1;
#X obj 517 464 div 10;
#X obj 517 486 change;
#X obj 517 387 max;
#X obj 517 415 t a a;
#X obj 517 365 min 10;
#X obj 517 298 route change;
#X obj 669 534 set \$0.set.selector number;
#X msg 517 662 raw set \$1;
#X obj 517 342 get \$0.set.selector number posy;
#X obj 700 364 - 20;
#X obj 700 386 div 20;
#X obj 700 429 t a b;
#X msg 727 451 set -1;
#X obj 700 408 change;
#X obj 517 634 pack f f;
#X obj 640 465 * -10;
#X obj 640 490 + 1;
#X msg 269 207 scalar \$1.set.selector \$2 9 testi 999 234 1 128 16
;
#X obj 544 607 set -symbol \$0.set.selector label;
#X connect 0 0 11 0;
#X connect 1 0 12 0;
#X connect 2 0 3 0;
#X connect 3 0 4 0;
#X connect 4 0 5 0;
#X connect 5 0 7 0;
#X connect 5 1 6 0;
#X connect 6 0 4 1;
#X connect 7 0 8 0;
#X connect 8 0 10 0;
#X connect 9 0 4 1;
#X connect 10 0 59 0;
#X connect 11 0 2 0;
#X connect 11 1 9 0;
#X connect 12 0 20 0;
#X connect 12 1 28 0;
#X connect 12 2 47 0;
#X connect 13 0 19 0;
#X connect 15 0 16 0;
#X connect 16 0 33 0;
#X connect 17 0 18 0;
#X connect 17 1 15 0;
#X connect 18 0 13 0;
#X connect 19 0 14 0;
#X connect 20 0 17 0;
#X connect 21 0 13 1;
#X connect 21 1 22 0;
#X connect 22 0 18 0;
#X connect 23 0 32 0;
#X connect 25 0 26 0;
#X connect 26 0 34 0;
#X connect 27 0 23 0;
#X connect 28 0 31 0;
#X connect 29 0 23 1;
#X connect 29 1 30 0;
#X connect 30 0 27 0;
#X connect 31 0 27 0;
#X connect 31 1 25 0;
#X connect 32 0 24 0;
#X connect 33 0 21 0;
#X connect 34 0 29 0;
#X connect 35 0 50 0;
#X connect 35 1 48 1;
#X connect 35 1 60 1;
#X connect 36 0 60 0;
#X connect 37 0 60 0;
#X connect 38 0 56 0;
#X connect 38 1 40 0;
#X connect 40 0 36 0;
#X connect 40 1 37 0;
#X connect 41 0 42 0;
#X connect 42 0 43 0;
#X connect 43 0 38 0;
#X connect 44 0 45 0;
#X connect 45 0 41 0;
#X connect 45 1 48 0;
#X connect 46 0 44 0;
#X connect 47 0 35 0;
#X connect 49 0 39 0;
#X connect 50 0 46 0;
#X connect 50 1 51 0;
#X connect 51 0 52 0;
#X connect 52 0 55 0;
#X connect 53 0 56 1;
#X connect 53 0 57 0;
#X connect 53 1 54 0;
#X connect 54 0 43 0;
#X connect 55 0 53 0;
#X connect 56 0 49 0;
#X connect 57 0 58 0;
#X connect 58 0 44 1;
#X connect 59 0 1 0;
#X restore 402 173 pd create_rows;
#X obj 197 47 loadbang;
#X obj 525 9 r \$0.from.set.gui;
#X obj 525 31 print FROM:SET;
#X msg 206 174 \$1 \$3 master 100;
#X connect 0 0 1 0;
#X connect 1 0 4 0;
#X connect 1 1 5 0;
#X connect 1 2 14 0;
#X connect 1 5 10 0;
#X connect 1 6 9 0;
#X connect 4 0 2 0;
#X connect 5 0 3 0;
#X connect 7 0 8 0;
#X connect 11 0 0 0;
#X connect 12 0 13 0;
#X connect 14 0 6 0;
#X restore 11 159 pd set.manager.gui.code;
#X msg 316 453 remove;
#X msg 316 504 get \$1;
#X floatatom 316 401 5 0 0 0 - - -, f 5;
#X floatatom 316 479 5 0 0 0 - - -, f 5;
#X msg 316 533 count;
#X msg 316 585 dump;
#X msg 316 558 update 2 0;
#X msg 316 427 add \$1;
#X msg 316 613 restore -1 0 1 2 3 4 2 2 3 2;
#X obj 116 590 print ROUTER;
#X obj 12 477 metaseq-router-netpd \$1 router;
#X obj 189 525 s \$0.from.set;
#X obj 189 431 r \$0.to.set;
#X msg 38 403 count \$1;
#X floatatom 52 341 5 0 0 0 - - -, f 5;
#X connect 3 0 22 1;
#X connect 4 0 22 1;
#X connect 5 0 22 1;
#X connect 6 0 5 0;
#X connect 7 0 22 1;
#X connect 8 0 22 1;
#X connect 9 0 22 1;
#X connect 10 0 22 1;
#X connect 11 0 22 1;
#X connect 12 0 22 1;
#X connect 13 0 22 1;
#X connect 14 0 15 0;
#X connect 15 0 22 1;
#X connect 16 0 22 1;
#X connect 17 0 22 1;
#X connect 18 0 22 1;
#X connect 19 0 22 1;
#X connect 20 0 22 1;
#X connect 21 0 22 1;
#X connect 22 1 24 0;
#X connect 25 0 26 0;
#X connect 26 0 22 1;
#X connect 27 0 22 1;
#X connect 28 0 22 1;
#X connect 31 0 41 1;
#X connect 32 0 41 1;
#X connect 33 0 38 0;
#X connect 34 0 32 0;
#X connect 35 0 41 1;
#X connect 36 0 41 1;
#X connect 37 0 41 1;
#X connect 38 0 41 1;
#X connect 39 0 41 1;
#X connect 41 1 40 0;
#X connect 41 1 42 0;
#X connect 43 0 41 1;
#X connect 44 0 42 0;
#X connect 45 0 44 0;
