#N struct 2258.seg.range float posy float bgclr;
#N struct 2258.seg.mute float posy float fgclr float bgclr;
#N struct 2258.seg.row float posy float width float offset float fgclr
float bgclr float vis;
#N struct 2258.seg.length float bgclr float fgclr float length;
#N struct 2258.seg.count float bgclr float fgclr float count;
#N struct 2258.seg.width float bgclr float fgclr float default;
#N struct 2258.seg.del float bgclr float fgclr symbol label;
#N struct 2258.seg.add float bgclr float fgclr symbol label;
#N canvas 594 44 597 643 10;
#N canvas 624 75 396 76 NETPD 0;
#X msg 12 8 version 0 0 0;
#N canvas 315 75 381 123 abslist 0;
#X msg 17 15 metaseq-segmenter-netpd;
#X restore 12 33 pd abslist;
#X restore 10 14 pd NETPD 2 0;
#X obj 9 69 netpd_head \$1 metaseq;
#N canvas 632 44 710 362 \$1-metaseq 1;
#N canvas 632 134 748 680 create_rows 0;
#N canvas 484 121 471 501 struct_num 0;
#X obj 21 343 outlet;
#X obj 37 24 inlet;
#X obj 106 343 route change click;
#X obj 106 391 f;
#X obj 106 367 t b p;
#X obj 21 306 t a a;
#X obj 31 198 filledpolygon bgclr bgclr 0 40 posy 40 posy(0:1000)(16:1016)
136 posy(0:1000)(16:1016) 136 posy;
#X obj 31 113 drawnumber -v vis width 44 posy(0:1000)(1:1001) fgclr
;
#X obj 30 151 drawnumber -v vis offset 84 posy(0:1000)(1:1001) fgclr
;
#X obj 37 72 s pd-\$0.segments.gop;
#X obj 21 267 struct \$0.seg.row float posy float width float offset
float fgclr float bgclr float vis;
#X obj 167 368 get \$0.seg.row posy;
#X obj 106 416 set \$0.seg.row posy;
#X connect 1 0 9 0;
#X connect 2 0 4 0;
#X connect 2 1 11 0;
#X connect 3 0 12 0;
#X connect 4 0 3 0;
#X connect 4 1 12 1;
#X connect 5 0 0 0;
#X connect 5 1 2 0;
#X connect 10 0 5 0;
#X connect 11 0 3 1;
#X restore 41 278 pd struct_num;
#N canvas 280 285 501 440 struct_mute 0;
#X obj 30 359 outlet;
#X obj 37 24 inlet;
#X obj 30 287 t a a;
#X obj 97 315 route change click;
#X obj 97 363 f;
#X obj 97 339 t b p;
#X obj 31 179 filledpolygon bgclr bgclr 0 20 posy 20 posy(0:1000)(16:1016)
36 posy(0:1000)(16:1016) 36 posy;
#X obj 29 120 filledpolygon fgclr fgclr 0 23 posy(0:1000)(3:1003) 23
posy(0:1000)(13:1013) 33 posy(0:1000)(13:1013) 33 posy(0:1000)(3:1003)
;
#X obj 37 72 s pd-\$0.segments.gop;
#X obj 30 263 struct \$0.seg.mute float posy float fgclr float bgclr
;
#X obj 158 340 get \$0.seg.mute posy;
#X obj 97 388 set \$0.seg.mute posy;
#X connect 1 0 8 0;
#X connect 2 0 0 0;
#X connect 2 1 3 0;
#X connect 3 0 5 0;
#X connect 3 1 10 0;
#X connect 4 0 11 0;
#X connect 5 0 4 0;
#X connect 5 1 11 1;
#X connect 9 0 2 0;
#X connect 10 0 4 1;
#X restore 326 306 pd struct_mute;
#X obj 326 336 route click;
#X obj 326 415 select 234 999;
#X msg 356 452 999;
#X msg 388 451 234;
#X obj 41 417 t p p;
#X obj 41 313 route change click;
#X obj 169 499 change;
#X obj 41 499 change;
#X msg 102 431 set -1;
#X obj 102 406 t b a;
#X obj 41 530 list prepend;
#X obj 169 528 list prepend;
#X obj 41 554 print width;
#X obj 169 555 print offset;
#X obj 326 360 t p p p;
#X obj 326 581 list prepend;
#X obj 326 605 print mute;
#X msg 326 493 1;
#X msg 373 539 0;
#X msg 41 45 8;
#X obj 41 67 until;
#X obj 41 89 f;
#X obj 41 111 t a a;
#X obj 84 96 + 1;
#X obj 41 133 * 20;
#X obj 41 155 + 20;
#X msg 90 59 0;
#N canvas 280 285 501 440 struct_range 0;
#X obj 30 359 outlet;
#X obj 37 24 inlet;
#X obj 30 287 t a a;
#X obj 97 315 route change click;
#X obj 97 363 f;
#X obj 97 339 t b p;
#X obj 37 115 filledpolygon bgclr bgclr 0 0 posy 0 posy(0:1000)(16:1016)
16 posy(0:1000)(16:1016) 16 posy;
#X obj 37 72 s pd-\$0.segments.gop;
#X obj 30 258 struct \$0.seg.range float posy float bgclr;
#X obj 158 340 get \$0.seg.range posy;
#X obj 97 388 set \$0.seg.range posy;
#X connect 1 0 7 0;
#X connect 2 0 0 0;
#X connect 2 1 3 0;
#X connect 3 0 5 0;
#X connect 3 1 9 0;
#X connect 4 0 10 0;
#X connect 5 0 4 0;
#X connect 5 1 10 1;
#X connect 8 0 2 0;
#X connect 9 0 4 1;
#X restore 526 306 pd struct_range;
#X obj 41 204 t a a a;
#X obj 526 336 route click;
#X obj 526 395 - 20;
#X obj 526 417 div 20;
#X obj 102 360 - 20;
#X obj 102 382 div 20;
#X obj 402 560 div 20;
#X obj 402 537 - 20;
#X obj 526 438 s \$0.set.range.raw;
#X obj 41 180 list prepend \$0;
#X msg 41 249 scalar \$1.seg.row \$2 20 67 999 234 1;
#X msg 326 248 scalar \$1.seg.mute \$2 234 234;
#X msg 526 248 scalar \$1.seg.range \$2 234;
#X obj 526 373 get \$0.seg.range posy;
#X obj 102 338 get \$0.seg.row posy;
#X obj 169 475 get \$0.seg.row offset;
#X obj 326 391 get \$0.seg.mute fgclr;
#X obj 356 484 set \$0.seg.mute fgclr;
#X obj 402 515 get \$0.seg.mute posy;
#X obj 41 4 inlet;
#X obj 41 475 get \$0.seg.row width;
#X obj 41 26 t b b;
#X connect 0 0 7 0;
#X connect 1 0 2 0;
#X connect 2 0 16 0;
#X connect 3 0 4 0;
#X connect 3 0 19 0;
#X connect 3 1 5 0;
#X connect 3 1 20 0;
#X connect 4 0 47 0;
#X connect 5 0 47 0;
#X connect 6 0 50 0;
#X connect 6 1 45 0;
#X connect 7 0 6 0;
#X connect 7 1 44 0;
#X connect 8 0 13 0;
#X connect 9 0 12 0;
#X connect 10 0 8 0;
#X connect 10 0 9 0;
#X connect 11 0 10 0;
#X connect 11 1 13 1;
#X connect 11 1 12 1;
#X connect 12 0 14 0;
#X connect 13 0 15 0;
#X connect 16 0 46 0;
#X connect 16 1 47 1;
#X connect 16 2 48 0;
#X connect 17 0 18 0;
#X connect 19 0 17 0;
#X connect 20 0 17 0;
#X connect 21 0 22 0;
#X connect 22 0 23 0;
#X connect 23 0 24 0;
#X connect 24 0 26 0;
#X connect 24 1 25 0;
#X connect 25 0 23 1;
#X connect 26 0 27 0;
#X connect 27 0 39 0;
#X connect 28 0 23 1;
#X connect 29 0 31 0;
#X connect 30 0 40 0;
#X connect 30 1 41 0;
#X connect 30 2 42 0;
#X connect 31 0 43 0;
#X connect 32 0 33 0;
#X connect 33 0 38 0;
#X connect 34 0 35 0;
#X connect 35 0 11 0;
#X connect 36 0 17 1;
#X connect 37 0 36 0;
#X connect 39 0 30 0;
#X connect 40 0 0 0;
#X connect 41 0 1 0;
#X connect 42 0 29 0;
#X connect 43 0 32 0;
#X connect 44 0 34 0;
#X connect 45 0 8 0;
#X connect 46 0 3 0;
#X connect 48 0 37 0;
#X connect 49 0 51 0;
#X connect 50 0 9 0;
#X connect 51 0 21 0;
#X connect 51 1 28 0;
#X restore 449 271 pd create_rows;
#N canvas 725 68 568 415 update_rows 0;
#X obj 268 167 pointer;
#X msg 268 100 next;
#X msg 330 117 traverse \$1;
#X obj 333 70 bng 15 250 50 0 empty empty empty 17 7 0 10 -262144 -1
-1;
#X floatatom 106 42 5 0 0 0 - - -, f 5;
#X floatatom 185 41 5 0 0 0 - - -, f 5;
#X obj 150 243 set row width;
#X obj 109 159 set row offset;
#X obj 258 323 set row vis;
#X obj 263 283 tgl 15 0 empty empty empty 17 7 0 10 -262144 -1 -1 0
1;
#X obj 330 95 symbol pd-\$0.segments.gop;
#X connect 0 0 6 1;
#X connect 0 0 7 1;
#X connect 0 0 8 1;
#X connect 1 0 0 0;
#X connect 2 0 0 0;
#X connect 3 0 10 0;
#X connect 4 0 7 0;
#X connect 5 0 6 0;
#X connect 9 0 8 0;
#X connect 10 0 2 0;
#X restore 405 221 pd update_rows;
#N canvas 66 324 379 328 struct_add 0;
#X obj 32 255 outlet;
#X obj 37 8 inlet;
#X obj 32 205 route click;
#X obj 32 227 b;
#X obj 37 106 filledpolygon bgclr bgclr 0 0 0 0 16 16 16 16 0;
#X obj 36 136 drawsymbol label 4 1 fgclr;
#X obj 37 77 s pd-\$0.segments.gop;
#X obj 32 183 struct \$0.seg.add float bgclr float fgclr symbol label
;
#X obj 37 29 list prepend \$0;
#X msg 37 51 scalar \$1.seg.add \$2 \$3 \$4;
#X connect 1 0 8 0;
#X connect 2 0 3 0;
#X connect 3 0 0 0;
#X connect 7 0 2 0;
#X connect 8 0 9 0;
#X connect 9 0 6 0;
#X restore 17 305 pd struct_add;
#X msg 405 154 clear;
#X obj 17 332 bng 15 250 50 0 empty empty empty 17 7 0 10 -262144 -1
-1;
#X obj 104 333 bng 15 250 50 0 empty empty empty 17 7 0 10 -262144
-1 -1;
#N canvas 66 324 379 328 struct_del 0;
#X obj 32 275 outlet;
#X obj 37 24 inlet;
#X obj 32 225 route click;
#X obj 32 247 b;
#X obj 37 121 filledpolygon bgclr bgclr 0 20 0 20 16 36 16 36 0;
#X obj 36 151 drawsymbol label 24 1 fgclr;
#X obj 37 92 s pd-\$0.segments.gop;
#X obj 37 46 list prepend \$0;
#X obj 32 203 struct \$0.seg.del float bgclr float fgclr symbol label
;
#X msg 37 66 scalar \$1.seg.del \$2 \$3 \$4;
#X connect 1 0 7 0;
#X connect 2 0 3 0;
#X connect 3 0 0 0;
#X connect 7 0 9 0;
#X connect 8 0 2 0;
#X connect 9 0 6 0;
#X restore 104 306 pd struct_del;
#N canvas 66 324 403 336 struct_width 0;
#X obj 32 275 outlet;
#X obj 37 24 inlet;
#X obj 37 121 filledpolygon bgclr bgclr 0 40 0 40 16 76 16 76 0;
#X obj 34 151 drawnumber default 44 1 fgclr;
#X obj 32 225 route change;
#X obj 37 92 s pd-\$0.segments.gop;
#X obj 37 46 list prepend \$0;
#X obj 32 203 struct \$0.seg.width float bgclr float fgclr float default
;
#X msg 37 66 scalar \$1.seg.width \$2 \$3 \$4;
#X obj 32 247 get \$0.seg.width default;
#X connect 1 0 6 0;
#X connect 4 0 9 0;
#X connect 6 0 8 0;
#X connect 7 0 4 0;
#X connect 8 0 5 0;
#X connect 9 0 0 0;
#X restore 192 306 pd struct_width;
#N canvas 66 324 878 288 struct_count 0;
#X obj 37 24 inlet;
#X obj 37 121 filledpolygon bgclr bgclr 0 80 0 80 16 116 16 116 0;
#X obj 34 151 drawnumber count 84 1 fgclr;
#X obj 37 92 s pd-\$0.segments.gop;
#X obj 37 46 list prepend \$0;
#X obj 32 203 struct \$0.seg.count float bgclr float fgclr float count
;
#X msg 37 66 scalar \$1.seg.count \$2 \$3 \$4;
#X obj 570 165 pointer;
#X msg 570 114 next;
#X msg 629 122 traverse \$1;
#X obj 629 100 symbol pd-\$0.segments.gop;
#X obj 570 24 r \$0.done.create;
#X obj 570 46 t b b;
#X obj 570 91 until;
#X obj 441 198 set \$0.seg.count count;
#X msg 570 68 26;
#X floatatom 438 122 5 0 0 0 - - -, f 5;
#X connect 0 0 4 0;
#X connect 4 0 6 0;
#X connect 6 0 3 0;
#X connect 7 0 14 1;
#X connect 8 0 7 0;
#X connect 9 0 7 0;
#X connect 10 0 9 0;
#X connect 11 0 12 0;
#X connect 12 0 15 0;
#X connect 12 1 10 0;
#X connect 13 0 8 0;
#X connect 15 0 13 0;
#X connect 16 0 14 0;
#X restore 293 306 pd struct_count;
#N canvas 66 324 887 288 struct_length 0;
#X obj 37 24 inlet;
#X obj 37 121 filledpolygon bgclr bgclr 0 120 0 120 16 156 16 156 0
;
#X obj 34 151 drawnumber length 124 1 fgclr;
#X obj 37 92 s pd-\$0.segments.gop;
#X obj 37 46 list prepend \$0;
#X msg 37 66 scalar \$1.seg.length \$2 \$3 \$4;
#X obj 32 203 struct \$0.seg.length float bgclr float fgclr float length
;
#X obj 570 165 pointer;
#X msg 570 114 next;
#X msg 629 122 traverse \$1;
#X obj 629 100 symbol pd-\$0.segments.gop;
#X obj 570 24 r \$0.done.create;
#X obj 570 46 t b b;
#X obj 570 91 until;
#X msg 570 68 25;
#X obj 441 198 set \$0.seg.length length;
#X floatatom 447 155 5 0 0 0 - - -, f 5;
#X connect 0 0 4 0;
#X connect 4 0 5 0;
#X connect 5 0 3 0;
#X connect 7 0 15 1;
#X connect 8 0 7 0;
#X connect 9 0 7 0;
#X connect 10 0 9 0;
#X connect 11 0 12 0;
#X connect 12 0 14 0;
#X connect 12 1 10 0;
#X connect 13 0 8 0;
#X connect 14 0 13 0;
#X connect 16 0 15 0;
#X restore 392 306 pd struct_length;
#X floatatom 192 332 5 0 0 0 - - -, f 5;
#N canvas 821 324 338 387 update_range 0;
#X obj 10 12 r \$0.set.range.raw;
#X obj 123 187 pointer;
#X msg 125 130 next;
#X msg 181 137 traverse \$1;
#X obj 10 34 t b a b b;
#X obj 7 113 f;
#X obj 7 88 until;
#X msg 61 89 0;
#X obj 50 118 + 1;
#X obj 7 135 t b a;
#X obj 34 155 div 3;
#X obj 34 177 change -1;
#X obj 35 229 moses;
#X msg 34 252 234;
#X msg 7 66 22;
#X obj 62 205 + 1;
#X msg 62 253 777;
#X obj 181 115 symbol pd-\$0.segments.gop;
#X obj 41 310 set \$0.seg.range bgclr;
#X connect 0 0 4 0;
#X connect 1 0 18 1;
#X connect 2 0 1 0;
#X connect 3 0 1 0;
#X connect 4 0 14 0;
#X connect 4 1 15 0;
#X connect 4 2 2 0;
#X connect 4 3 7 0;
#X connect 4 3 17 0;
#X connect 5 0 8 0;
#X connect 5 0 9 0;
#X connect 6 0 5 0;
#X connect 7 0 5 1;
#X connect 8 0 5 1;
#X connect 9 0 2 0;
#X connect 9 1 10 0;
#X connect 10 0 11 0;
#X connect 11 0 12 0;
#X connect 12 0 13 0;
#X connect 12 1 16 0;
#X connect 13 0 18 0;
#X connect 14 0 6 0;
#X connect 15 0 12 1;
#X connect 16 0 18 0;
#X connect 17 0 3 0;
#X restore 405 201 pd update_range;
#X obj 15 8 metaseq-gop157x177 \$0.segments.gop;
#X obj 405 178 s pd-\$0.segments.gop;
#X obj 201 141 loadbang;
#X obj 201 183 s \$0.done.create;
#X obj 201 163 t b b;
#X obj 296 122 bng 15 250 50 0 empty empty empty 17 7 0 10 -262144
-1 -1;
#X msg 17 271 \$1 \$3 +;
#X msg 104 272 \$1 \$3 -;
#X msg 192 272 \$1 \$3 16;
#X msg 293 272 \$1 \$2 0;
#X msg 392 272 \$1 \$2 0;
#X msg 228 205 456 777 999;
#N canvas 141 44 806 626 scrollbar 0;
#X obj 9 10 inlet;
#X obj 9 226 s pd-\$0.segments.gop;
#X msg 28 151 obj 0 0 cnv 15 157 177 empty empty empty 20 12 0 14 -262144
-66577;
#X obj 9 35 f \$0;
#X obj 9 60 t a a a;
#X obj 414 503 s \$0.scrollbar.display;
#X msg 414 420 pos 140 \$1;
#X msg 430 472 vis_size 17 \$1;
#X msg 9 186 obj 140 20 cnv 0 17 157 empty \$1.scrollbar.display empty
20 12 0 14 -67105 -66577;
#X msg 48 113 obj 140 22 vsl 17 152 1 0 0 0 \$1.scrollbar.handle.s
\$1.scrollbar.handle.r empty 0 -9 0 10 -262144 -1 -1 0 1;
#X obj 414 278 * 152;
#X obj 414 302 + 20;
#X obj 488 289 t a a;
#X msg 515 311 177 \$1;
#X obj 515 334 -;
#X obj 414 396 min;
#X obj 573 367 - 20;
#X obj 573 420 / 152;
#X obj 414 188 r \$0.scrollbar.handle.s;
#X obj 558 576 s \$0.scrollbar.handle.r;
#X obj 558 467 >;
#X obj 558 489 sel 1;
#X obj 558 511 f;
#X msg 558 533 set \$1;
#X obj 573 442 t a a;
#X msg 488 139 8 \$1;
#X obj 488 161 /;
#X obj 488 223 min 1;
#X obj 488 243 * 157;
#X obj 488 265 int;
#X obj 488 113 max 1;
#X obj 488 90 t a a;
#X obj 677 393 / 157;
#X obj 662 419 min;
#X obj 662 443 *;
#X obj 662 465 + 0.3;
#X obj 662 487 int;
#X obj 662 509 change;
#X obj 573 389 t a a;
#X obj 414 225 t a a a;
#X msg 662 531 scrollpos \$1;
#X obj 662 553 s \$0.from.seg.gui;
#X obj 488 46 r \$0.to.seg.gui;
#X obj 488 68 route count;
#X connect 0 0 3 0;
#X connect 2 0 1 0;
#X connect 3 0 4 0;
#X connect 4 0 8 0;
#X connect 4 1 2 0;
#X connect 4 2 9 0;
#X connect 6 0 5 0;
#X connect 7 0 5 0;
#X connect 8 0 1 0;
#X connect 9 0 1 0;
#X connect 10 0 11 0;
#X connect 11 0 15 0;
#X connect 12 0 7 0;
#X connect 12 1 13 0;
#X connect 13 0 14 0;
#X connect 14 0 15 1;
#X connect 14 0 16 0;
#X connect 15 0 6 0;
#X connect 16 0 38 0;
#X connect 17 0 24 0;
#X connect 18 0 39 0;
#X connect 20 0 21 0;
#X connect 21 0 22 0;
#X connect 22 0 23 0;
#X connect 23 0 19 0;
#X connect 24 0 20 1;
#X connect 24 1 22 1;
#X connect 25 0 26 0;
#X connect 26 0 27 0;
#X connect 27 0 28 0;
#X connect 28 0 29 0;
#X connect 29 0 12 0;
#X connect 30 0 25 0;
#X connect 31 0 30 0;
#X connect 31 1 34 1;
#X connect 32 0 33 1;
#X connect 33 0 34 0;
#X connect 34 0 35 0;
#X connect 35 0 36 0;
#X connect 36 0 37 0;
#X connect 37 0 40 0;
#X connect 38 0 17 0;
#X connect 38 1 32 0;
#X connect 39 0 10 0;
#X connect 39 1 20 0;
#X connect 39 2 33 0;
#X connect 40 0 41 0;
#X connect 42 0 43 0;
#X connect 43 0 31 0;
#X restore 541 270 pd scrollbar;
#X obj 228 229 t a a a a a b b;
#X connect 2 0 4 0;
#X connect 3 0 13 0;
#X connect 6 0 5 0;
#X connect 7 0 10 0;
#X connect 14 0 16 0;
#X connect 16 0 15 0;
#X connect 16 1 23 0;
#X connect 17 0 16 0;
#X connect 18 0 2 0;
#X connect 19 0 6 0;
#X connect 20 0 7 0;
#X connect 21 0 8 0;
#X connect 22 0 9 0;
#X connect 23 0 25 0;
#X connect 25 0 18 0;
#X connect 25 1 19 0;
#X connect 25 2 20 0;
#X connect 25 3 21 0;
#X connect 25 4 22 0;
#X connect 25 5 0 0;
#X connect 25 6 24 0;
#X restore 10 42 pd \$1-metaseq;
#X msg 369 103 quantity;
#X msg 369 124 length;
#X msg 369 168 get \$1;
#X floatatom 369 147 5 0 0 0 - - -, f 5;
#X msg 369 213 update_offset 1 90;
#X msg 369 191 update_width 1 8;
#X msg 369 257 clear;
#X msg 369 279 remove;
#X msg 369 60 add 50 50 0;
#X msg 369 82 add 50 200 0;
#X msg 369 235 update_mute 0 1;
#X msg 369 301 dump;
#X floatatom 369 379 5 0 0 0 - - -, f 5;
#X msg 369 397 set \$1;
#X msg 369 421 set_remove;
#X msg 369 443 set_count;
#X msg 370 517 dump_all;
#X msg 368 542 clear_all;
#X msg 369 467 set_restore 1 50 50 0 50 200 0;
#X msg 369 356 set_add;
#X obj 23 322 metaseq-segmenter-netpd \$1 segmenter;
#X obj 100 403 print OUTPUT;
#X connect 3 0 23 1;
#X connect 4 0 23 1;
#X connect 5 0 23 1;
#X connect 6 0 5 0;
#X connect 7 0 23 1;
#X connect 8 0 23 1;
#X connect 9 0 23 1;
#X connect 10 0 23 1;
#X connect 11 0 23 1;
#X connect 12 0 23 1;
#X connect 13 0 23 1;
#X connect 14 0 23 1;
#X connect 15 0 16 0;
#X connect 16 0 23 1;
#X connect 17 0 23 1;
#X connect 18 0 23 1;
#X connect 19 0 23 1;
#X connect 20 0 23 1;
#X connect 21 0 23 1;
#X connect 22 0 23 1;
#X connect 23 1 24 0;
