#N struct 1464.seg.range float posy float bgclr;
#N struct 1464.seg.solo float posy float bgclr;
#N struct 1464.seg.mute float posy float fgclr float bgclr;
#N struct 1464.seg.row float posy float width float offset float fgclr
float bgclr float vis;
#N struct 1464.seg.length float bgclr float fgclr float length;
#N struct 1464.seg.count float bgclr float fgclr float count;
#N struct 1464.seg.width float bgclr float fgclr float default;
#N struct 1464.seg.del float bgclr float fgclr symbol label;
#N struct 1464.seg.add float bgclr float fgclr symbol label;
#N struct 1464.set.selector float posy float number symbol label float
fgclr float bgclr float vis float offset float length float vis2;
#N struct 1464.set.default float bgclr float fgclr symbol selector
float number;
#N struct 1464.set.default_length float bgclr float fgclr float default
;
#N struct 1464.set.del float bgclr float fgclr symbol label;
#N struct 1464.set.add float bgclr float fgclr symbol label;
#N canvas 541 75 417 637 10;
#N canvas 624 75 396 76 NETPD 0;
#N canvas 315 75 381 123 abslist 0;
#X msg 17 15 metaseq-segmenter-netpd;
#X msg 15 45 metaseq-router-netpd;
#X restore 12 33 pd abslist;
#X msg 109 20 singleton;
#X msg 11 8 version 0 1 0;
#X restore 10 14 pd NETPD 2 0;
#X obj 9 69 netpd_head \$1 metaseq;
#N canvas 173 319 347 201 \$1-metaseq 1;
#X obj 178 9 metaseq-gop157x177 \$0.segments.gop;
#X obj 10 9 metaseq-gop157x177 \$0.sets.gop;
#X restore 10 42 pd \$1-metaseq;
#N canvas 459 235 705 291 set.editor.gui.code 0;
#N canvas 324 204 947 696 create_rows 0;
#N canvas 478 103 673 487 struct_num 0;
#X obj 21 343 outlet;
#X obj 37 24 inlet;
#X obj 78 348 route change click;
#X obj 78 396 f;
#X obj 78 372 t b p;
#X obj 21 306 t a a;
#X obj 31 198 filledpolygon bgclr bgclr 0 40 posy 40 posy(0:1000)(16:1016)
136 posy(0:1000)(16:1016) 136 posy;
#X obj 37 72 s pd-\$0.segments.gop;
#X obj 21 267 struct \$0.seg.row float posy float width float offset
float fgclr float bgclr float vis;
#X obj 139 373 get \$0.seg.row posy;
#X obj 78 421 set \$0.seg.row posy;
#X obj 288 393 get \$0.seg.row width;
#X obj 288 415 max 1;
#X obj 288 440 set \$0.seg.row width;
#X obj 288 368 t p p;
#X obj 288 345 route change;
#X obj 430 364 t p p;
#X obj 430 341 route change;
#X obj 430 389 get \$0.seg.row offset;
#X obj 430 436 set \$0.seg.row offset;
#X obj 430 411 max 0;
#X obj 31 113 drawnumber -v vis width 84 posy(0:1000)(1:1001) fgclr
;
#X obj 29 151 drawnumber -v vis offset 44 posy(0:1000)(1:1001) fgclr
;
#X connect 1 0 7 0;
#X connect 2 0 4 0;
#X connect 2 1 9 0;
#X connect 3 0 10 0;
#X connect 4 0 3 0;
#X connect 4 1 10 1;
#X connect 5 0 0 0;
#X connect 5 1 2 0;
#X connect 5 1 15 0;
#X connect 5 1 17 0;
#X connect 8 0 5 0;
#X connect 9 0 3 1;
#X connect 11 0 12 0;
#X connect 12 0 13 0;
#X connect 14 0 11 0;
#X connect 14 1 13 1;
#X connect 15 0 14 0;
#X connect 16 0 18 0;
#X connect 16 1 19 1;
#X connect 17 0 16 0;
#X connect 18 0 20 0;
#X connect 20 0 19 0;
#X restore 41 278 pd struct_num;
#N canvas 280 285 501 440 struct_mute 0;
#X obj 30 359 outlet;
#X obj 37 24 inlet;
#X obj 30 287 t a a;
#X obj 97 315 route change click;
#X obj 97 363 f;
#X obj 97 339 t b p;
#X obj 37 72 s pd-\$0.segments.gop;
#X obj 30 263 struct \$0.seg.mute float posy float fgclr float bgclr
;
#X obj 158 340 get \$0.seg.mute posy;
#X obj 97 388 set \$0.seg.mute posy;
#X obj 31 179 filledpolygon bgclr bgclr 0 27 posy 27 posy(0:1000)(16:1016)
36 posy(0:1000)(16:1016) 36 posy;
#X obj 29 120 filledpolygon fgclr fgclr 0 27 posy(0:1000)(3:1003) 27
posy(0:1000)(13:1013) 36 posy(0:1000)(13:1013) 36 posy(0:1000)(3:1003)
;
#X connect 1 0 6 0;
#X connect 2 0 0 0;
#X connect 2 1 3 0;
#X connect 3 0 5 0;
#X connect 3 1 8 0;
#X connect 4 0 9 0;
#X connect 5 0 4 0;
#X connect 5 1 9 1;
#X connect 7 0 2 0;
#X connect 8 0 4 1;
#X restore 312 276 pd struct_mute;
#X obj 312 306 route click;
#X msg 402 435 234;
#X obj 41 417 t p p;
#X obj 41 313 route change click;
#X obj 169 499 change;
#X obj 41 499 change;
#X msg 102 431 set -1;
#X obj 102 406 t b a;
#X obj 41 530 list prepend;
#X obj 169 528 list prepend;
#X obj 312 330 t p p p;
#X msg 357 503 1;
#X msg 398 504 0;
#X msg 447 48 8;
#X obj 447 70 until;
#X obj 447 92 f;
#X obj 447 114 t a a;
#X obj 490 99 + 1;
#X obj 447 136 * 20;
#X obj 447 158 + 20;
#X msg 496 62 0;
#N canvas 280 285 501 440 struct_range 0;
#X obj 30 359 outlet;
#X obj 37 24 inlet;
#X obj 30 287 t a a;
#X obj 97 315 route change click;
#X obj 97 363 f;
#X obj 97 339 t b p;
#X obj 37 72 s pd-\$0.segments.gop;
#X obj 30 258 struct \$0.seg.range float posy float bgclr;
#X obj 158 340 get \$0.seg.range posy;
#X obj 97 388 set \$0.seg.range posy;
#X obj 37 115 filledpolygon bgclr bgclr 0 0 posy 0 posy(0:1000)(16:1016)
10 posy(0:1000)(16:1016) 10 posy;
#X connect 1 0 6 0;
#X connect 2 0 0 0;
#X connect 2 1 3 0;
#X connect 3 0 5 0;
#X connect 3 1 8 0;
#X connect 4 0 9 0;
#X connect 5 0 4 0;
#X connect 5 1 9 1;
#X connect 7 0 2 0;
#X connect 8 0 4 1;
#X restore 746 281 pd struct_range;
#X obj 746 311 route click;
#X obj 746 370 - 20;
#X obj 746 392 div 20;
#X obj 102 360 - 20;
#X obj 102 382 div 20;
#X obj 312 524 div 20;
#X obj 312 501 - 20;
#X obj 447 183 list prepend \$0;
#X msg 312 251 scalar \$1.seg.mute \$2 234 234;
#X msg 746 252 scalar \$1.seg.range \$2 234;
#X obj 746 348 get \$0.seg.range posy;
#X obj 102 338 get \$0.seg.row posy;
#X obj 169 475 get \$0.seg.row offset;
#X obj 331 356 get \$0.seg.mute fgclr;
#X obj 362 460 set \$0.seg.mute fgclr;
#X obj 312 479 get \$0.seg.mute posy;
#X obj 447 7 inlet;
#X obj 41 475 get \$0.seg.row width;
#X obj 447 29 t b b;
#X msg 746 469 raw range \$1;
#X obj 746 491 s \$0.from.seg.gui;
#X obj 746 440 + 1;
#X obj 41 646 s \$0.from.seg.gui;
#X msg 41 249 scalar \$1.seg.row \$2 16 0 999 234 0;
#X msg 312 615 edit \$1 mute \$2;
#X msg 169 554 edit \$1 offset \$2;
#X msg 41 577 edit \$1 width \$2;
#X msg 522 251 scalar \$1.seg.solo \$2 234;
#X obj 447 207 t a a a a;
#N canvas 280 285 501 440 struct_solo 0;
#X obj 30 359 outlet;
#X obj 37 24 inlet;
#X obj 30 287 t a a;
#X obj 97 315 route change click;
#X obj 97 363 f;
#X obj 97 339 t b p;
#X obj 37 72 s pd-\$0.segments.gop;
#X obj 158 340 get \$0.seg.solo posy;
#X obj 97 388 set \$0.seg.solo posy;
#X obj 30 263 struct \$0.seg.solo float posy float bgclr;
#X obj 31 179 filledpolygon bgclr bgclr 0 14 posy 14 posy(0:1000)(16:1016)
23 posy(0:1000)(16:1016) 23 posy;
#X connect 1 0 6 0;
#X connect 2 0 0 0;
#X connect 2 1 3 0;
#X connect 3 0 5 0;
#X connect 3 1 7 0;
#X connect 4 0 8 0;
#X connect 5 0 4 0;
#X connect 5 1 8 1;
#X connect 7 0 4 1;
#X connect 9 0 2 0;
#X restore 522 280 pd struct_solo;
#X obj 522 320 route click;
#X obj 599 421 - 20;
#X obj 599 443 div 20;
#X obj 522 557 s \$0.from.seg.gui;
#X msg 522 535 raw solo \$1;
#N canvas 0 50 334 279 limit.to.count 0;
#X obj 125 38 r \$0.from.seg.gui;
#X obj 125 64 route scrollpos;
#X obj 10 93 +;
#X obj 10 121 moses;
#X obj 131 123 r \$0.to.seg.gui;
#X obj 131 145 route count;
#X obj 10 143 b;
#X obj 10 73 t a a;
#X obj 10 167 f;
#X obj 10 15 inlet;
#X obj 10 216 outlet;
#X connect 0 0 1 0;
#X connect 1 0 2 1;
#X connect 2 0 3 0;
#X connect 3 0 6 0;
#X connect 4 0 5 0;
#X connect 5 0 3 1;
#X connect 6 0 8 0;
#X connect 7 0 2 0;
#X connect 7 1 8 1;
#X connect 8 0 10 0;
#X connect 9 0 7 0;
#X restore 599 468 pd limit.to.count;
#N canvas 0 50 334 279 limit.to.count 0;
#X obj 125 38 r \$0.from.seg.gui;
#X obj 125 64 route scrollpos;
#X obj 10 93 +;
#X obj 10 121 moses;
#X obj 131 123 r \$0.to.seg.gui;
#X obj 131 145 route count;
#X obj 10 143 b;
#X obj 10 73 t a a;
#X obj 10 167 f;
#X obj 10 15 inlet;
#X obj 10 216 outlet;
#X connect 0 0 1 0;
#X connect 1 0 2 1;
#X connect 2 0 3 0;
#X connect 3 0 6 0;
#X connect 4 0 5 0;
#X connect 5 0 3 1;
#X connect 6 0 8 0;
#X connect 7 0 2 0;
#X connect 7 1 8 1;
#X connect 8 0 10 0;
#X connect 9 0 7 0;
#X restore 746 415 pd limit.to.count;
#X obj 522 344 get \$0.seg.solo bgclr posy;
#X obj 599 395 f;
#X obj 522 366 sel 567 234;
#X msg 522 409 symbol off;
#X obj 312 593 list append;
#N canvas 0 50 334 279 limit.to.count 0;
#X obj 125 38 r \$0.from.seg.gui;
#X obj 125 64 route scrollpos;
#X obj 10 93 +;
#X obj 10 121 moses;
#X obj 131 123 r \$0.to.seg.gui;
#X obj 131 145 route count;
#X obj 10 143 b;
#X obj 10 73 t a a;
#X obj 10 167 f;
#X obj 10 15 inlet;
#X obj 10 216 outlet;
#X connect 0 0 1 0;
#X connect 1 0 2 1;
#X connect 2 0 3 0;
#X connect 3 0 6 0;
#X connect 4 0 5 0;
#X connect 5 0 3 1;
#X connect 6 0 8 0;
#X connect 7 0 2 0;
#X connect 7 1 8 1;
#X connect 8 0 10 0;
#X connect 9 0 7 0;
#X restore 312 548 pd limit.to.count;
#X obj 331 380 f;
#X obj 312 570 t a b;
#X msg 362 435 567;
#X obj 351 404 select 234 567;
#X connect 0 0 5 0;
#X connect 1 0 2 0;
#X connect 2 0 12 0;
#X connect 3 0 38 0;
#X connect 4 0 41 0;
#X connect 4 1 36 0;
#X connect 5 0 4 0;
#X connect 5 1 35 0;
#X connect 6 0 11 0;
#X connect 7 0 10 0;
#X connect 8 0 6 0;
#X connect 8 0 7 0;
#X connect 9 0 8 0;
#X connect 9 1 11 1;
#X connect 9 1 10 1;
#X connect 10 0 50 0;
#X connect 11 0 49 0;
#X connect 12 0 39 0;
#X connect 12 1 37 0;
#X connect 12 2 38 1;
#X connect 13 0 65 1;
#X connect 14 0 65 1;
#X connect 15 0 16 0;
#X connect 16 0 17 0;
#X connect 17 0 18 0;
#X connect 18 0 20 0;
#X connect 18 1 19 0;
#X connect 19 0 17 1;
#X connect 20 0 21 0;
#X connect 21 0 31 0;
#X connect 22 0 17 1;
#X connect 23 0 24 0;
#X connect 24 0 34 0;
#X connect 25 0 26 0;
#X connect 26 0 60 0;
#X connect 27 0 28 0;
#X connect 28 0 9 0;
#X connect 29 0 66 0;
#X connect 30 0 29 0;
#X connect 31 0 52 0;
#X connect 32 0 1 0;
#X connect 33 0 23 0;
#X connect 34 0 25 0;
#X connect 35 0 27 0;
#X connect 36 0 6 0;
#X connect 37 0 67 1;
#X connect 39 0 30 0;
#X connect 40 0 42 0;
#X connect 41 0 7 0;
#X connect 42 0 15 0;
#X connect 42 1 22 0;
#X connect 43 0 44 0;
#X connect 45 0 43 0;
#X connect 47 0 0 0;
#X connect 48 0 46 0;
#X connect 49 0 46 0;
#X connect 50 0 46 0;
#X connect 51 0 53 0;
#X connect 52 0 47 0;
#X connect 52 1 32 0;
#X connect 52 2 51 0;
#X connect 52 3 33 0;
#X connect 53 0 54 0;
#X connect 54 0 61 0;
#X connect 55 0 56 0;
#X connect 56 0 59 0;
#X connect 58 0 57 0;
#X connect 59 0 58 0;
#X connect 60 0 45 0;
#X connect 61 0 63 0;
#X connect 61 1 62 1;
#X connect 62 0 55 0;
#X connect 63 0 64 0;
#X connect 63 1 62 0;
#X connect 64 0 58 0;
#X connect 65 0 48 0;
#X connect 66 0 68 0;
#X connect 67 0 70 0;
#X connect 68 0 65 0;
#X connect 68 1 67 0;
#X connect 69 0 38 0;
#X connect 70 0 69 0;
#X connect 70 0 13 0;
#X connect 70 1 3 0;
#X connect 70 1 14 0;
#X restore 471 173 pd create_rows;
#N canvas 721 244 568 415 update_rows 0;
#X obj 323 181 pointer;
#X msg 323 154 next;
#X msg 392 145 traverse \$1;
#X obj 392 123 symbol pd-\$0.segments.gop;
#X obj 58 5 r \$0.to.seg.gui;
#X obj 58 27 route raw;
#X obj 58 49 route row;
#X obj 48 108 list split 1;
#X obj 82 132 route bang;
#X obj 154 296 set \$0.seg.row offset;
#X obj 170 271 set \$0.seg.row width;
#X obj 240 343 set \$0.seg.row vis;
#X obj 58 71 t a a;
#X msg 323 26 \$1;
#X msg 202 200 \$1;
#X obj 62 343 set \$0.seg.mute fgclr;
#X obj 62 295 sel 0 1;
#X msg 62 317 234;
#X msg 170 198 \$2;
#X msg 154 227 \$3;
#X obj 44 172 t b b b;
#X msg 44 198 0;
#X obj 139 169 t b a a b a;
#X msg 139 251 1;
#X obj 323 48 * 4;
#X obj 323 68 + 3;
#X msg 95 319 567;
#X obj 323 90 t a b;
#X obj 323 112 until;
#X connect 0 0 9 1;
#X connect 0 0 10 1;
#X connect 0 0 11 1;
#X connect 0 0 15 1;
#X connect 1 0 0 0;
#X connect 2 0 0 0;
#X connect 3 0 2 0;
#X connect 4 0 5 0;
#X connect 5 0 6 0;
#X connect 6 0 12 0;
#X connect 7 1 8 0;
#X connect 8 0 20 0;
#X connect 8 1 22 0;
#X connect 12 0 7 0;
#X connect 12 1 13 0;
#X connect 13 0 24 0;
#X connect 14 0 16 0;
#X connect 16 0 17 0;
#X connect 16 1 26 0;
#X connect 17 0 15 0;
#X connect 18 0 10 0;
#X connect 19 0 9 0;
#X connect 20 0 21 0;
#X connect 20 1 1 0;
#X connect 20 2 17 0;
#X connect 21 0 11 0;
#X connect 22 0 23 0;
#X connect 22 1 19 0;
#X connect 22 2 18 0;
#X connect 22 3 1 0;
#X connect 22 4 14 0;
#X connect 23 0 11 0;
#X connect 24 0 25 0;
#X connect 25 0 27 0;
#X connect 26 0 15 0;
#X connect 27 0 28 0;
#X connect 27 1 3 0;
#X connect 28 0 1 0;
#X restore 419 123 pd update_rows;
#N canvas 66 324 379 328 struct_add 0;
#X obj 37 8 inlet;
#X obj 32 205 route click;
#X obj 32 227 b;
#X obj 37 106 filledpolygon bgclr bgclr 0 0 0 0 16 16 16 16 0;
#X obj 36 136 drawsymbol label 4 1 fgclr;
#X obj 37 77 s pd-\$0.segments.gop;
#X obj 32 183 struct \$0.seg.add float bgclr float fgclr symbol label
;
#X obj 37 29 list prepend \$0;
#X msg 37 51 scalar \$1.seg.add \$2 \$3 \$4;
#X msg 32 250 add;
#X obj 32 272 s \$0.from.seg.gui;
#X connect 0 0 7 0;
#X connect 1 0 2 0;
#X connect 2 0 9 0;
#X connect 6 0 1 0;
#X connect 7 0 8 0;
#X connect 8 0 5 0;
#X connect 9 0 10 0;
#X restore 31 207 pd struct_add;
#X msg 419 56 clear;
#N canvas 66 324 379 328 struct_del 0;
#X obj 37 24 inlet;
#X obj 32 225 route click;
#X obj 37 121 filledpolygon bgclr bgclr 0 20 0 20 16 36 16 36 0;
#X obj 36 151 drawsymbol label 24 1 fgclr;
#X obj 37 92 s pd-\$0.segments.gop;
#X obj 37 46 list prepend \$0;
#X obj 32 203 struct \$0.seg.del float bgclr float fgclr symbol label
;
#X msg 37 66 scalar \$1.seg.del \$2 \$3 \$4;
#X obj 32 270 s \$0.from.seg.gui;
#X msg 32 248 del;
#X connect 0 0 5 0;
#X connect 1 0 9 0;
#X connect 5 0 7 0;
#X connect 6 0 1 0;
#X connect 7 0 4 0;
#X connect 9 0 8 0;
#X restore 118 208 pd struct_del;
#N canvas 176 168 823 301 struct_count 0;
#X obj 37 24 inlet;
#X obj 37 121 filledpolygon bgclr bgclr 0 80 0 80 16 116 16 116 0;
#X obj 34 151 drawnumber count 84 1 fgclr;
#X obj 37 92 s pd-\$0.segments.gop;
#X obj 37 46 list prepend \$0;
#X obj 32 203 struct \$0.seg.count float bgclr float fgclr float count
;
#X msg 37 66 scalar \$1.seg.count \$2 \$3 \$4;
#X obj 570 165 pointer;
#X msg 570 114 next;
#X msg 629 122 traverse \$1;
#X obj 629 100 symbol pd-\$0.segments.gop;
#X obj 570 24 r \$0.done.create;
#X obj 570 46 t b b;
#X obj 570 91 until;
#X obj 441 198 set \$0.seg.count count;
#X obj 441 59 r \$0.to.seg.gui;
#X obj 441 81 route count;
#N canvas 0 50 388 239 prohibit_editing 0;
#X obj 23 57 route change click;
#X obj 75 98 get \$0.seg.count count;
#X obj 23 152 set \$0.seg.count count;
#X obj 23 79 t b p;
#X obj 23 128 f;
#X obj 23 20 inlet;
#X connect 0 0 3 0;
#X connect 0 1 1 0;
#X connect 1 0 4 1;
#X connect 3 0 4 0;
#X connect 3 1 2 1;
#X connect 4 0 2 0;
#X connect 5 0 0 0;
#X restore 32 236 pd prohibit_editing;
#X msg 570 68 34;
#X connect 0 0 4 0;
#X connect 4 0 6 0;
#X connect 5 0 17 0;
#X connect 6 0 3 0;
#X connect 7 0 14 1;
#X connect 8 0 7 0;
#X connect 9 0 7 0;
#X connect 10 0 9 0;
#X connect 11 0 12 0;
#X connect 12 0 18 0;
#X connect 12 1 10 0;
#X connect 13 0 8 0;
#X connect 15 0 16 0;
#X connect 16 0 14 0;
#X connect 18 0 13 0;
#X restore 315 208 pd struct_count;
#N canvas 66 324 887 288 struct_length 0;
#X obj 37 24 inlet;
#X obj 37 121 filledpolygon bgclr bgclr 0 120 0 120 16 156 16 156 0
;
#X obj 34 151 drawnumber length 124 1 fgclr;
#X obj 37 92 s pd-\$0.segments.gop;
#X obj 37 46 list prepend \$0;
#X msg 37 66 scalar \$1.seg.length \$2 \$3 \$4;
#X obj 32 203 struct \$0.seg.length float bgclr float fgclr float length
;
#X obj 570 165 pointer;
#X msg 570 114 next;
#X msg 629 122 traverse \$1;
#X obj 629 100 symbol pd-\$0.segments.gop;
#X obj 570 24 r \$0.done.create;
#X obj 570 46 t b b;
#X obj 570 91 until;
#X obj 441 198 set \$0.seg.length length;
#X obj 441 115 r \$0.to.seg.gui;
#X obj 441 137 route length;
#N canvas 0 50 388 239 prohibit_editing 0;
#X obj 23 57 route change click;
#X obj 23 79 t b p;
#X obj 23 128 f;
#X obj 23 20 inlet;
#X obj 75 98 get \$0.seg.length length;
#X obj 23 152 set \$0.seg.length length;
#X connect 0 0 1 0;
#X connect 0 1 4 0;
#X connect 1 0 2 0;
#X connect 1 1 5 1;
#X connect 2 0 5 0;
#X connect 3 0 0 0;
#X connect 4 0 2 1;
#X restore 32 236 pd prohibit_editing;
#X msg 570 68 33;
#X connect 0 0 4 0;
#X connect 4 0 5 0;
#X connect 5 0 3 0;
#X connect 6 0 17 0;
#X connect 7 0 14 1;
#X connect 8 0 7 0;
#X connect 9 0 7 0;
#X connect 10 0 9 0;
#X connect 11 0 12 0;
#X connect 12 0 18 0;
#X connect 12 1 10 0;
#X connect 13 0 8 0;
#X connect 15 0 16 0;
#X connect 16 0 14 0;
#X connect 18 0 13 0;
#X restore 414 208 pd struct_length;
#N canvas 794 225 408 448 update_range 0;
#X obj 125 282 pointer;
#X msg 125 254 next;
#X msg 172 224 traverse \$1;
#X obj 10 124 t b a b b;
#X obj 10 191 f;
#X obj 10 166 until;
#X msg 61 169 0;
#X obj 50 198 + 1;
#X obj 10 213 t b a;
#X obj 37 281 change -1;
#X obj 37 333 moses;
#X msg 37 357 234;
#X obj 64 309 + 1;
#X msg 64 357 777;
#X obj 172 202 symbol pd-\$0.segments.gop;
#X obj 37 390 set \$0.seg.range bgclr;
#X obj 10 6 r \$0.from.seg.gui;
#X obj 10 30 route raw;
#X obj 10 51 route range;
#X obj 10 73 - 1;
#X obj 120 7 r \$0.to.seg.gui;
#X obj 37 259 div 4;
#X msg 10 144 30;
#X connect 0 0 15 1;
#X connect 1 0 0 0;
#X connect 2 0 0 0;
#X connect 3 0 22 0;
#X connect 3 1 12 0;
#X connect 3 2 1 0;
#X connect 3 3 6 0;
#X connect 3 3 14 0;
#X connect 4 0 7 0;
#X connect 4 0 8 0;
#X connect 5 0 4 0;
#X connect 6 0 4 1;
#X connect 7 0 4 1;
#X connect 8 0 1 0;
#X connect 8 1 21 0;
#X connect 9 0 10 0;
#X connect 10 0 11 0;
#X connect 10 1 13 0;
#X connect 11 0 15 0;
#X connect 12 0 10 1;
#X connect 13 0 15 0;
#X connect 14 0 2 0;
#X connect 16 0 17 0;
#X connect 17 0 18 0;
#X connect 18 0 19 0;
#X connect 19 0 3 0;
#X connect 20 0 17 0;
#X connect 21 0 9 0;
#X connect 22 0 5 0;
#X restore 419 103 pd update_range;
#X obj 419 80 s pd-\$0.segments.gop;
#X obj 215 43 loadbang;
#X obj 215 85 s \$0.done.create;
#X obj 215 65 t b b;
#X obj 269 43 bng 15 250 50 0 empty empty empty 17 7 0 10 -262144 -1
-1;
#X msg 31 173 \$1 \$3 +;
#X msg 118 174 \$1 \$3 -;
#X msg 206 174 \$1 \$3 16;
#X msg 315 174 \$1 \$2 0;
#X msg 414 174 \$1 \$2 0;
#X msg 242 107 456 777 999;
#N canvas 622 106 943 658 scrollbar 0;
#X obj 9 10 inlet;
#X obj 9 226 s pd-\$0.segments.gop;
#X msg 28 151 obj 0 0 cnv 15 157 177 empty empty empty 20 12 0 14 -262144
-66577;
#X obj 9 35 f \$0;
#X obj 9 60 t a a a;
#X obj 414 503 s \$0.scrollbar.display;
#X msg 414 420 pos 140 \$1;
#X msg 430 472 vis_size 17 \$1;
#X msg 9 186 obj 140 20 cnv 0 17 157 empty \$1.scrollbar.display empty
20 12 0 14 -67105 -66577;
#X msg 48 113 obj 140 22 vsl 17 152 1 0 0 0 \$1.scrollbar.handle.s
\$1.scrollbar.handle.r empty 0 -9 0 10 -262144 -1 -1 0 1;
#X obj 414 278 * 152;
#X obj 414 302 + 20;
#X obj 488 289 t a a;
#X msg 515 311 177 \$1;
#X obj 515 334 -;
#X obj 414 396 min;
#X obj 573 367 - 20;
#X obj 573 420 / 152;
#X obj 414 188 r \$0.scrollbar.handle.s;
#X obj 558 576 s \$0.scrollbar.handle.r;
#X obj 558 467 >;
#X obj 558 489 sel 1;
#X obj 558 511 f;
#X msg 558 533 set \$1;
#X obj 573 442 t a a;
#X msg 488 139 8 \$1;
#X obj 488 161 /;
#X obj 488 223 min 1;
#X obj 488 243 * 157;
#X obj 488 265 int;
#X obj 488 113 max 1;
#X obj 488 90 t a a;
#X obj 669 332 / 157;
#X obj 654 358 min;
#X obj 654 382 *;
#X obj 654 404 + 0.3;
#X obj 654 426 int;
#X obj 654 448 change;
#X obj 573 389 t a a;
#X obj 414 225 t a a a;
#X msg 654 505 scrollpos \$1;
#X obj 654 527 s \$0.from.seg.gui;
#X obj 639 35 r \$0.from.seg.gui;
#X obj 505 547 loadbang;
#X msg 505 569 0;
#X obj 639 60 route scrollpos;
#X obj 754 13 r \$0.to.seg.gui;
#X obj 754 35 route count;
#X obj 753 132 -;
#X obj 753 153 clip -1 1;
#X obj 753 175 sel -1 1;
#X obj 750 97 t a a a a;
#X obj 766 285 /;
#X obj 859 162 t a;
#X obj 769 324 s \$0.scrollbar.handle.r;
#X msg 821 282 1;
#X obj 754 57 t a a;
#X obj 753 202 f;
#X obj 822 162 - 8;
#X obj 822 188 max 0;
#X obj 753 235 min;
#X obj 654 470 t a a;
#X obj 778 495 pack f f;
#X msg 778 517 \$2 \$1;
#X obj 778 539 s \$0.set.scroll;
#X obj 766 441 t a a;
#X obj 766 463 tabread \$0.set.scroll;
#X obj 767 354 r \$0.to.seg;
#X obj 767 376 route scrollbar set;
#X obj 767 398 b;
#X obj 767 420 f;
#X connect 0 0 3 0;
#X connect 2 0 1 0;
#X connect 3 0 4 0;
#X connect 4 0 8 0;
#X connect 4 1 2 0;
#X connect 4 2 9 0;
#X connect 6 0 5 0;
#X connect 7 0 5 0;
#X connect 8 0 1 0;
#X connect 9 0 1 0;
#X connect 10 0 11 0;
#X connect 11 0 15 0;
#X connect 12 0 7 0;
#X connect 12 1 13 0;
#X connect 13 0 14 0;
#X connect 14 0 15 1;
#X connect 14 0 16 0;
#X connect 15 0 6 0;
#X connect 16 0 38 0;
#X connect 17 0 24 0;
#X connect 18 0 39 0;
#X connect 20 0 21 0;
#X connect 21 0 22 0;
#X connect 22 0 23 0;
#X connect 23 0 19 0;
#X connect 24 0 20 1;
#X connect 24 1 22 1;
#X connect 25 0 26 0;
#X connect 26 0 27 0;
#X connect 27 0 28 0;
#X connect 28 0 29 0;
#X connect 29 0 12 0;
#X connect 30 0 25 0;
#X connect 31 0 30 0;
#X connect 31 1 34 1;
#X connect 32 0 33 1;
#X connect 33 0 34 0;
#X connect 34 0 35 0;
#X connect 35 0 36 0;
#X connect 36 0 37 0;
#X connect 37 0 61 0;
#X connect 38 0 17 0;
#X connect 38 1 32 0;
#X connect 39 0 10 0;
#X connect 39 1 20 0;
#X connect 39 2 33 0;
#X connect 40 0 41 0;
#X connect 42 0 45 0;
#X connect 43 0 44 0;
#X connect 44 0 19 0;
#X connect 45 0 57 1;
#X connect 46 0 47 0;
#X connect 47 0 56 0;
#X connect 48 0 49 0;
#X connect 49 0 50 0;
#X connect 50 0 57 0;
#X connect 50 1 55 0;
#X connect 51 0 48 1;
#X connect 51 1 48 0;
#X connect 51 2 58 0;
#X connect 51 3 53 0;
#X connect 52 0 54 0;
#X connect 53 0 52 1;
#X connect 55 0 54 0;
#X connect 56 0 51 0;
#X connect 56 1 31 0;
#X connect 57 0 60 0;
#X connect 58 0 59 0;
#X connect 59 0 60 1;
#X connect 60 0 52 0;
#X connect 61 0 40 0;
#X connect 61 1 62 0;
#X connect 62 0 63 0;
#X connect 63 0 64 0;
#X connect 65 0 66 0;
#X connect 65 1 62 1;
#X connect 67 0 68 0;
#X connect 68 0 69 0;
#X connect 68 1 70 1;
#X connect 69 0 70 0;
#X connect 70 0 65 0;
#X restore 563 172 pd scrollbar;
#X obj 242 131 t a a a a a b b;
#N canvas 66 324 407 413 struct_default 0;
#X obj 37 24 inlet;
#X obj 37 121 filledpolygon bgclr bgclr 0 40 0 40 16 76 16 76 0;
#X obj 34 151 drawnumber default 44 1 fgclr;
#X obj 32 225 route change;
#X obj 37 92 s pd-\$0.segments.gop;
#X obj 37 46 list prepend \$0;
#X obj 32 203 struct \$0.seg.width float bgclr float fgclr float default
;
#X msg 37 66 scalar \$1.seg.width \$2 \$3 \$4;
#X obj 32 384 s \$0.from.seg.gui;
#X msg 32 361 default_width \$1;
#X obj 32 273 get \$0.seg.width default;
#X obj 32 248 t p p;
#X obj 32 294 max 1;
#X obj 95 313 set \$0.seg.width default;
#X obj 32 316 t a a;
#X obj 32 338 change;
#X connect 0 0 5 0;
#X connect 3 0 11 0;
#X connect 5 0 7 0;
#X connect 6 0 3 0;
#X connect 7 0 4 0;
#X connect 9 0 8 0;
#X connect 10 0 12 0;
#X connect 11 0 10 0;
#X connect 11 1 13 1;
#X connect 12 0 14 0;
#X connect 14 0 15 0;
#X connect 14 1 13 0;
#X connect 15 0 9 0;
#X restore 206 208 pd struct_default;
#N canvas 747 126 385 511 update_solo 0;
#X obj 125 302 pointer;
#X msg 172 244 traverse \$1;
#X obj 10 144 t b a b b;
#X obj 10 211 f;
#X obj 10 186 until;
#X msg 61 189 0;
#X obj 50 218 + 1;
#X obj 10 233 t b a;
#X obj 37 301 change -1;
#X obj 64 329 + 1;
#X obj 172 222 symbol pd-\$0.segments.gop;
#X obj 10 6 r \$0.from.seg.gui;
#X obj 10 30 route raw;
#X obj 120 7 r \$0.to.seg.gui;
#X obj 37 279 div 4;
#X msg 10 164 30;
#X obj 10 51 route solo;
#X obj 37 410 set \$0.seg.solo bgclr;
#X msg 10 261 next;
#X msg 125 272 next \, next;
#X obj 37 352 sel;
#X msg 64 377 234;
#X msg 37 377 567;
#X obj 10 73 route off;
#X obj 10 118 - 1;
#X msg 10 95 -1;
#X connect 0 0 17 1;
#X connect 1 0 0 0;
#X connect 2 0 15 0;
#X connect 2 1 9 0;
#X connect 2 2 19 0;
#X connect 2 3 5 0;
#X connect 2 3 10 0;
#X connect 3 0 6 0;
#X connect 3 0 7 0;
#X connect 4 0 3 0;
#X connect 5 0 3 1;
#X connect 6 0 3 1;
#X connect 7 0 18 0;
#X connect 7 1 14 0;
#X connect 8 0 20 0;
#X connect 9 0 20 1;
#X connect 10 0 1 0;
#X connect 11 0 12 0;
#X connect 12 0 16 0;
#X connect 13 0 12 0;
#X connect 14 0 8 0;
#X connect 15 0 4 0;
#X connect 16 0 23 0;
#X connect 18 0 0 0;
#X connect 19 0 0 0;
#X connect 20 0 22 0;
#X connect 20 1 21 0;
#X connect 21 0 17 0;
#X connect 22 0 17 0;
#X connect 23 0 25 0;
#X connect 23 1 24 0;
#X connect 24 0 2 0;
#X connect 25 0 24 0;
#X restore 516 103 pd update_solo;
#X connect 3 0 8 0;
#X connect 9 0 11 0;
#X connect 11 0 10 0;
#X connect 11 1 18 0;
#X connect 12 0 11 0;
#X connect 13 0 2 0;
#X connect 14 0 4 0;
#X connect 15 0 21 0;
#X connect 16 0 5 0;
#X connect 17 0 6 0;
#X connect 18 0 20 0;
#X connect 20 0 13 0;
#X connect 20 1 14 0;
#X connect 20 2 15 0;
#X connect 20 3 16 0;
#X connect 20 4 17 0;
#X connect 20 5 0 0;
#X connect 20 6 19 0;
#X restore 9 106 pd set.editor.gui.code;
#X obj 237 389 s \$0.from.seg;
#X obj 237 311 r \$0.to.seg;
#N canvas 583 111 982 358 set.editor.gui.interfacing 0;
#X obj 229 11 r \$0.from.seg;
#X obj 41 162 s \$0.to.seg;
#X obj 41 13 r \$0.from.seg.gui;
#X obj 41 57 b;
#X obj 41 79 f 16;
#X msg 41 104 add \$1 0 0;
#X obj 347 122 r \$0.from.seg.gui;
#X obj 347 144 route scrollpos;
#X obj 299 158 t b a;
#X msg 299 180 8;
#X obj 299 202 until;
#X obj 299 224 f;
#X obj 348 221 + 1;
#X obj 299 108 b;
#X obj 299 130 f;
#X msg 353 77 count \$1;
#X obj 353 99 s \$0.to.seg.gui;
#X msg 299 271 get \$1;
#X obj 299 293 s \$0.to.seg;
#X obj 549 14 r \$0.from.seg;
#X obj 41 35 route add default_width del;
#X msg 147 60 remove;
#X obj 549 36 route segment;
#X obj 549 58 list split 1;
#X obj 549 91 -;
#X obj 549 132 list append;
#X obj 549 154 list prepend raw row;
#X obj 549 176 list trim;
#X obj 549 198 s \$0.to.seg.gui;
#X msg 613 108 \$3 \$1 \$2;
#X obj 815 94 r \$0.from.seg.gui;
#X obj 815 116 route scrollpos;
#X obj 747 22 r \$0.from.seg.gui;
#X obj 747 47 route edit;
#X obj 747 69 list split 1;
#X obj 747 91 +;
#X obj 747 143 list append;
#X msg 747 168 update_\$2 \$1 \$3;
#X obj 747 192 s \$0.to.seg;
#X obj 299 246 t a a a;
#X obj 546 228 r \$0.from.seg;
#X obj 546 250 route bang;
#X obj 546 274 f;
#X msg 546 296 raw row \$1;
#X obj 546 319 s \$0.to.seg.gui;
#X obj 51 185 loadbang;
#X msg 51 207 set 0;
#X obj 51 229 s \$0.to.seg;
#N canvas 0 50 507 276 solo 0;
#X obj 17 10 r \$0.from.seg;
#X obj 17 193 s \$0.to.seg.gui;
#X obj 17 32 route solo;
#X msg 17 171 raw solo \$1;
#X obj 17 54 route off;
#X obj 219 19 r \$0.from.seg.gui;
#X obj 219 41 route raw;
#X obj 219 63 route solo;
#X obj 219 85 route off;
#X msg 219 177 solo \$1;
#X obj 219 199 s \$0.to.seg;
#X obj 99 59 inlet;
#X obj 30 123 -;
#X obj 270 142 +;
#X msg 17 146 symbol off;
#X msg 219 107 -1;
#X connect 0 0 2 0;
#X connect 2 0 4 0;
#X connect 3 0 1 0;
#X connect 4 0 14 0;
#X connect 4 1 12 0;
#X connect 5 0 6 0;
#X connect 6 0 7 0;
#X connect 7 0 8 0;
#X connect 8 0 15 0;
#X connect 8 1 13 0;
#X connect 9 0 10 0;
#X connect 11 0 12 1;
#X connect 11 0 13 1;
#X connect 12 0 3 0;
#X connect 13 0 9 0;
#X connect 14 0 3 0;
#X connect 15 0 9 0;
#X restore 467 189 pd solo;
#N canvas 0 50 429 251 range 0;
#X obj 15 18 r \$0.from.seg;
#X obj 15 163 s \$0.to.seg.gui;
#X obj 15 40 route range;
#X msg 15 141 raw range \$1;
#X obj 229 36 r \$0.from.seg.gui;
#X obj 229 58 route raw;
#X obj 229 80 route range;
#X msg 229 145 range \$1;
#X obj 229 167 s \$0.to.seg;
#X obj 116 46 inlet;
#X obj 15 117 -;
#X obj 229 120 +;
#X connect 0 0 2 0;
#X connect 2 0 10 0;
#X connect 3 0 1 0;
#X connect 4 0 5 0;
#X connect 5 0 6 0;
#X connect 6 0 11 0;
#X connect 7 0 8 0;
#X connect 9 0 10 1;
#X connect 9 0 11 1;
#X connect 10 0 3 0;
#X connect 11 0 7 0;
#X restore 462 216 pd range;
#X obj 347 166 t a b a;
#X obj 755 226 r \$0.from.seg;
#X obj 755 248 route range_length;
#X msg 755 272 length \$1;
#X obj 755 297 s \$0.to.seg.gui;
#X obj 299 54 t b b a;
#X obj 41 139 spigot;
#X obj 229 33 route set_count quantity;
#X msg 384 240 solo \, range \, range_length;
#X connect 0 0 57 0;
#X connect 2 0 20 0;
#X connect 3 0 4 0;
#X connect 4 0 5 0;
#X connect 5 0 56 0;
#X connect 6 0 7 0;
#X connect 7 0 50 0;
#X connect 8 0 9 0;
#X connect 8 1 11 1;
#X connect 9 0 10 0;
#X connect 10 0 11 0;
#X connect 11 0 39 0;
#X connect 12 0 11 1;
#X connect 13 0 14 0;
#X connect 14 0 8 0;
#X connect 15 0 16 0;
#X connect 17 0 18 0;
#X connect 19 0 22 0;
#X connect 20 0 3 0;
#X connect 20 1 4 1;
#X connect 20 2 21 0;
#X connect 21 0 56 0;
#X connect 22 0 23 0;
#X connect 23 0 24 0;
#X connect 23 1 29 0;
#X connect 24 0 25 0;
#X connect 25 0 26 0;
#X connect 26 0 27 0;
#X connect 27 0 28 0;
#X connect 29 0 25 1;
#X connect 30 0 31 0;
#X connect 31 0 35 1;
#X connect 32 0 33 0;
#X connect 33 0 34 0;
#X connect 34 0 35 0;
#X connect 34 1 36 1;
#X connect 35 0 36 0;
#X connect 36 0 37 0;
#X connect 37 0 38 0;
#X connect 39 0 17 0;
#X connect 39 1 42 1;
#X connect 39 2 12 0;
#X connect 40 0 41 0;
#X connect 41 0 42 0;
#X connect 42 0 43 0;
#X connect 43 0 44 0;
#X connect 45 0 46 0;
#X connect 46 0 47 0;
#X connect 50 0 14 0;
#X connect 50 1 58 0;
#X connect 50 2 48 0;
#X connect 50 2 49 0;
#X connect 50 2 24 1;
#X connect 51 0 52 0;
#X connect 52 0 53 0;
#X connect 53 0 54 0;
#X connect 55 0 13 0;
#X connect 55 1 58 0;
#X connect 55 2 15 0;
#X connect 56 0 1 0;
#X connect 57 0 56 1;
#X connect 57 1 55 0;
#X connect 58 0 18 0;
#X restore 10 133 pd set.editor.gui.interfacing;
#N canvas 782 111 796 305 set.manager.gui.code 0;
#X msg 197 75 456 777 999;
#X obj 194 102 t a a a a a b b;
#N canvas 66 324 379 328 struct_add 0;
#X obj 37 8 inlet;
#X obj 32 205 route click;
#X obj 32 227 b;
#X obj 37 106 filledpolygon bgclr bgclr 0 0 0 0 16 16 16 16 0;
#X obj 36 136 drawsymbol label 4 1 fgclr;
#X obj 37 29 list prepend \$0;
#X msg 32 250 add;
#X obj 32 183 struct \$0.set.add float bgclr float fgclr symbol label
;
#X msg 37 51 scalar \$1.set.add \$2 \$3 \$4;
#X obj 37 77 s pd-\$0.sets.gop;
#X obj 32 272 s \$0.from.set.gui;
#X connect 0 0 5 0;
#X connect 1 0 2 0;
#X connect 2 0 6 0;
#X connect 5 0 8 0;
#X connect 6 0 10 0;
#X connect 7 0 1 0;
#X connect 8 0 9 0;
#X restore 31 207 pd struct_add;
#N canvas 66 324 379 328 struct_del 0;
#X obj 37 24 inlet;
#X obj 32 225 route click;
#X obj 37 121 filledpolygon bgclr bgclr 0 20 0 20 16 36 16 36 0;
#X obj 36 151 drawsymbol label 24 1 fgclr;
#X obj 37 46 list prepend \$0;
#X msg 32 248 del;
#X msg 37 66 scalar \$1.set.del \$2 \$3 \$4;
#X obj 37 92 s pd-\$0.sets.gop;
#X obj 32 203 struct \$0.set.del float bgclr float fgclr symbol label
;
#X obj 32 270 s \$0.from.set.gui;
#X connect 0 0 4 0;
#X connect 1 0 5 0;
#X connect 4 0 6 0;
#X connect 5 0 9 0;
#X connect 6 0 7 0;
#X connect 8 0 1 0;
#X restore 118 208 pd struct_del;
#X msg 31 173 \$1 \$3 +;
#X msg 118 174 \$1 \$3 -;
#N canvas 110 186 789 610 struct_default 0;
#X obj 39 8 inlet;
#X obj 66 52 list prepend \$0;
#X obj 66 98 s pd-\$0.sets.gop;
#X obj 32 141 struct \$0.set.default float bgclr float fgclr symbol
selector float number;
#X obj 463 38 drawnumber number 40 0 fgclr;
#X obj 462 61 filledpolygon 234 234 0 40 0 40 16 50 16 50 0;
#X obj 461 88 filledpolygon 345 345 0 40 2 40 14 50 14 50 2;
#X obj 460 112 filledpolygon 456 456 0 40 4 40 12 50 12 50 4;
#X obj 460 134 filledpolygon 567 567 0 40 6 40 10 50 10 50 6;
#X obj 32 199 t p p;
#X msg 59 440 symbol master;
#X msg 92 461 symbol set:\$1;
#X obj 32 393 t a a;
#X obj 32 530 s \$0.from.set.gui;
#X obj 59 416 sel -1;
#X obj 59 483 set -symbol \$0.set.default selector;
#X obj 32 221 get \$0.set.default number;
#X msg 32 504 default \$1;
#X obj 39 30 t b a;
#N canvas 520 315 524 418 limit_default_selector 0;
#X msg 291 267 traverse pd-\$1.sets.gop;
#X obj 291 245 f \$0;
#X obj 244 209 t b b;
#X obj 244 253 until;
#X msg 244 277 next;
#X obj 53 356 set -symbol \$0.set.default selector;
#X msg 244 231 9;
#X obj 86 383 set \$0.set.default number;
#X obj 244 300 pointer \$0.set.default;
#X obj 244 178 inlet;
#X obj 46 30 r \$0.from.set;
#X obj 46 52 route count;
#X obj 376 31 inlet;
#X obj 46 102 >;
#X obj 46 124 sel 0;
#X obj 46 74 t a a;
#X obj 46 147 f;
#X obj 103 118 - 1;
#X obj 46 189 sel -1;
#X msg 46 211 symbol master;
#X msg 79 233 symbol set:\$1;
#X obj 125 147 t a;
#X obj 115 293 * -10;
#X obj 115 315 + 1;
#X obj 46 168 t a a a;
#X obj 206 143 s \$0.from.set.gui;
#X msg 206 117 default \$1;
#X connect 0 0 8 0;
#X connect 1 0 0 0;
#X connect 2 0 6 0;
#X connect 2 1 1 0;
#X connect 3 0 4 0;
#X connect 4 0 8 0;
#X connect 6 0 3 0;
#X connect 8 0 5 1;
#X connect 8 0 7 1;
#X connect 9 0 2 0;
#X connect 10 0 11 0;
#X connect 11 0 15 0;
#X connect 12 0 13 1;
#X connect 13 0 14 0;
#X connect 14 0 16 0;
#X connect 15 0 13 0;
#X connect 15 1 17 0;
#X connect 16 0 24 0;
#X connect 17 0 16 1;
#X connect 18 0 19 0;
#X connect 18 1 20 0;
#X connect 19 0 5 0;
#X connect 20 0 5 0;
#X connect 21 0 13 1;
#X connect 22 0 23 0;
#X connect 23 0 7 0;
#X connect 24 0 18 0;
#X connect 24 1 26 0;
#X connect 24 2 22 0;
#X connect 24 2 21 0;
#X connect 26 0 25 0;
#X restore 39 120 pd limit_default_selector;
#X obj 117 275 r \$0.from.set;
#X obj 117 297 route count;
#X obj 117 319 * -10;
#X obj 32 318 * -1;
#X obj 32 340 div 10;
#X obj 32 362 change;
#X obj 32 177 route change click;
#X obj 226 384 set \$0.set.default number;
#X obj 32 266 max;
#X obj 32 291 t a a;
#X obj 32 244 min 10;
#X obj 117 344 + 1;
#X obj 459 164 filledpolygon bgclr bgclr 0 50 0 50 16 116 16 116 0
;
#X obj 458 195 drawsymbol selector 54 0 fgclr;
#X msg 66 72 scalar \$1.set.default \$2 \$3 \$4 5;
#X connect 0 0 18 0;
#X connect 1 0 34 0;
#X connect 3 0 26 0;
#X connect 9 0 16 0;
#X connect 9 1 15 1;
#X connect 9 1 27 1;
#X connect 10 0 15 0;
#X connect 11 0 15 0;
#X connect 12 0 17 0;
#X connect 12 1 14 0;
#X connect 12 1 19 1;
#X connect 14 0 10 0;
#X connect 14 1 11 0;
#X connect 16 0 30 0;
#X connect 17 0 13 0;
#X connect 18 0 19 0;
#X connect 18 1 1 0;
#X connect 20 0 21 0;
#X connect 21 0 22 0;
#X connect 22 0 31 0;
#X connect 23 0 24 0;
#X connect 24 0 25 0;
#X connect 25 0 12 0;
#X connect 26 0 9 0;
#X connect 28 0 29 0;
#X connect 29 0 23 0;
#X connect 29 1 27 0;
#X connect 30 0 28 0;
#X connect 31 0 28 1;
#X connect 34 0 2 0;
#X restore 352 209 pd struct_default;
#X msg 306 77 clear;
#X obj 306 101 s pd-\$0.sets.gop;
#N canvas 124 60 1062 581 scrollbar 0;
#X obj 9 10 inlet;
#X msg 28 151 obj 0 0 cnv 15 157 177 empty empty empty 20 12 0 14 -262144
-66577;
#X obj 9 35 f \$0;
#X obj 9 60 t a a a;
#X msg 628 353 pos 140 \$1;
#X msg 644 405 vis_size 17 \$1;
#X obj 628 211 * 152;
#X obj 628 235 + 20;
#X obj 702 222 t a a;
#X msg 729 244 177 \$1;
#X obj 729 267 -;
#X obj 628 329 min;
#X obj 787 300 - 20;
#X obj 787 353 / 152;
#X obj 772 400 >;
#X obj 772 422 sel 1;
#X obj 772 444 f;
#X msg 772 466 set \$1;
#X obj 787 375 t a a;
#X msg 702 72 8 \$1;
#X obj 702 94 /;
#X obj 702 156 min 1;
#X obj 702 176 * 157;
#X obj 702 198 int;
#X obj 702 46 max 1;
#X obj 702 23 t a a;
#X obj 891 326 / 157;
#X obj 876 352 min;
#X obj 876 376 *;
#X obj 876 398 + 0.3;
#X obj 876 420 int;
#X obj 876 442 change;
#X obj 787 322 t a a;
#X obj 628 158 t a a a;
#X msg 876 464 scrollpos \$1;
#X obj 719 480 loadbang;
#X msg 719 502 0;
#X obj 502 264 route scrollpos;
#X obj 396 32 route count;
#X obj 418 113 -;
#X obj 418 134 clip -1 1;
#X obj 418 156 sel -1 1;
#X obj 415 87 t a a a a;
#X obj 418 294 /;
#X obj 524 143 t a;
#X msg 467 288 1;
#X obj 418 231 f;
#X obj 487 143 - 8;
#X obj 487 165 max 0;
#X obj 418 264 min;
#X obj 9 226 s pd-\$0.sets.gop;
#X msg 48 113 obj 140 22 vsl 17 152 1 0 0 0 \$1.scrollbar2.handle.s
\$1.scrollbar2.handle.r empty 0 -9 0 10 -262144 -1 -1 0 1;
#X msg 9 186 obj 140 20 cnv 0 17 157 empty \$1.scrollbar2.display empty
20 12 0 14 -67105 -66577;
#X obj 628 121 r \$0.scrollbar2.handle.s;
#X obj 628 436 s \$0.scrollbar2.display;
#X obj 772 509 s \$0.scrollbar2.handle.r;
#X obj 418 345 s \$0.scrollbar2.handle.r;
#X obj 502 239 r \$0.from.set.gui;
#X obj 876 486 s \$0.from.set.gui;
#X obj 396 10 r \$0.from.set;
#X obj 396 61 t b a a a;
#X msg 500 12 count \$1;
#X obj 500 34 s \$0.to.set.gui;
#X connect 0 0 2 0;
#X connect 1 0 50 0;
#X connect 2 0 3 0;
#X connect 3 0 52 0;
#X connect 3 1 1 0;
#X connect 3 2 51 0;
#X connect 4 0 54 0;
#X connect 5 0 54 0;
#X connect 6 0 7 0;
#X connect 7 0 11 0;
#X connect 8 0 5 0;
#X connect 8 1 9 0;
#X connect 9 0 10 0;
#X connect 10 0 11 1;
#X connect 10 0 12 0;
#X connect 11 0 4 0;
#X connect 12 0 32 0;
#X connect 13 0 18 0;
#X connect 14 0 15 0;
#X connect 15 0 16 0;
#X connect 16 0 17 0;
#X connect 17 0 55 0;
#X connect 18 0 14 1;
#X connect 18 1 16 1;
#X connect 19 0 20 0;
#X connect 20 0 21 0;
#X connect 21 0 22 0;
#X connect 22 0 23 0;
#X connect 23 0 8 0;
#X connect 24 0 19 0;
#X connect 25 0 24 0;
#X connect 25 1 28 1;
#X connect 26 0 27 1;
#X connect 27 0 28 0;
#X connect 28 0 29 0;
#X connect 29 0 30 0;
#X connect 30 0 31 0;
#X connect 31 0 34 0;
#X connect 32 0 13 0;
#X connect 32 1 26 0;
#X connect 33 0 6 0;
#X connect 33 1 14 0;
#X connect 33 2 27 0;
#X connect 34 0 58 0;
#X connect 35 0 36 0;
#X connect 36 0 55 0;
#X connect 37 0 46 1;
#X connect 38 0 60 0;
#X connect 39 0 40 0;
#X connect 40 0 41 0;
#X connect 41 0 46 0;
#X connect 41 1 45 0;
#X connect 42 0 39 1;
#X connect 42 1 39 0;
#X connect 42 2 47 0;
#X connect 42 3 44 0;
#X connect 43 0 56 0;
#X connect 44 0 43 1;
#X connect 45 0 56 0;
#X connect 46 0 49 0;
#X connect 47 0 48 0;
#X connect 48 0 49 1;
#X connect 49 0 43 0;
#X connect 51 0 50 0;
#X connect 52 0 50 0;
#X connect 53 0 33 0;
#X connect 57 0 37 0;
#X connect 59 0 38 0;
#X connect 60 1 42 0;
#X connect 60 2 25 0;
#X connect 60 3 61 0;
#X connect 61 0 62 0;
#X restore 593 176 pd scrollbar;
#N canvas 244 75 853 630 create_rows 0;
#X obj 48 10 inlet;
#N canvas 433 128 856 556 struct_src 0;
#X obj 28 34 inlet;
#X obj 25 203 outlet;
#X obj 28 76 s pd-\$0.sets.gop;
#X text 499 8 == selector ===============================;
#X text 492 305 == offset ===============================;
#X text 493 408 == length ===============================;
#X obj 466 354 filledpolygon bgclr bgclr 0 68 posy 68 posy(0:1000)(16:1016)
100 posy(0:1000)(16:1016) 100 posy;
#X obj 463 328 drawnumber -v vis offset 70 posy(0:1000)(1:1001) fgclr
;
#X obj 464 461 filledpolygon bgclr bgclr 0 104 posy 104 posy(0:1000)(16:1016)
136 posy(0:1000)(16:1016) 136 posy;
#X obj 462 435 drawnumber -v vis length 106 posy(0:1000)(1:1001) fgclr
;
#X obj 49 408 route change click;
#X obj 49 456 f;
#X obj 49 432 t b p;
#X obj 49 481 set \$0.set.selector posy;
#X obj 101 432 get \$0.set.selector posy;
#X obj 111 292 t p p;
#X obj 111 269 route change;
#X obj 111 364 set \$0.set.selector offset;
#X obj 111 317 get \$0.set.selector offset;
#X obj 205 251 max 1;
#X obj 205 204 t p p;
#X obj 205 181 route change;
#X obj 205 229 get \$0.set.selector length;
#X obj 205 276 set \$0.set.selector length;
#X obj 25 168 t a a a a;
#X obj 111 340 max 0;
#X obj 25 106 struct \$0.set.selector float posy float number symbol
label float fgclr float bgclr float vis float offset float length float
vis2;
#X obj 486 31 drawnumber -v vis2 number 0 posy(0:1000)(1:1001) 0;
#X obj 484 53 filledpolygon 234 234 0 0 posy 0 posy(0:1000)(16:1016)
10 posy(0:1000)(16:1016) 10 posy;
#X obj 482 89 filledpolygon 345 345 0 0 posy(0:1000)(2:1002) 0 posy(0:1000)(14:1014)
10 posy(0:1000)(14:1014) 10 posy(0:1000)(2:1002);
#X obj 482 138 filledpolygon 456 456 0 0 posy(0:1000)(4:1004) 0 posy(0:1000)(12:1012)
10 posy(0:1000)(12:1012) 10 posy(0:1000)(4:1004);
#X obj 482 187 filledpolygon 567 567 0 0 posy(0:1000)(6:1006) 0 posy(0:1000)(10:1010)
10 posy(0:1000)(10:1010) 10 posy(0:1000)(6:1006);
#X obj 483 237 filledpolygon bgclr bgclr 0 10 posy 10 posy(0:1000)(16:1016)
64 posy(0:1000)(16:1016) 64 posy;
#X obj 483 277 drawsymbol label 14 posy(0:1000)(1:1001) fgclr;
#X connect 0 0 2 0;
#X connect 10 0 12 0;
#X connect 10 1 14 0;
#X connect 11 0 13 0;
#X connect 12 0 11 0;
#X connect 12 1 13 1;
#X connect 14 0 11 1;
#X connect 15 0 18 0;
#X connect 15 1 17 1;
#X connect 16 0 15 0;
#X connect 18 0 25 0;
#X connect 19 0 23 0;
#X connect 20 0 22 0;
#X connect 20 1 23 1;
#X connect 21 0 20 0;
#X connect 22 0 19 0;
#X connect 24 0 1 0;
#X connect 24 1 10 0;
#X connect 24 2 16 0;
#X connect 24 3 21 0;
#X connect 25 0 17 0;
#X connect 26 0 24 0;
#X restore 48 255 pd struct_src;
#X msg 48 51 8;
#X obj 48 73 until;
#X obj 48 95 f;
#X obj 48 117 t a a;
#X obj 91 102 + 1;
#X obj 48 139 * 20;
#X obj 48 161 + 20;
#X msg 97 65 0;
#X obj 48 186 list prepend \$0;
#X obj 48 32 t b b;
#X obj 48 507 pack f f;
#X obj 49 555 s \$0.from.set.gui;
#X obj 156 433 - 20;
#X obj 156 455 div 20;
#X obj 48 421 change -1;
#X obj 48 349 route change;
#X obj 156 498 t a b;
#X msg 183 520 set -1;
#X obj 287 543 pack f f;
#X obj 287 588 s \$0.from.set.gui;
#X obj 395 478 - 20;
#X obj 395 500 div 20;
#X obj 287 466 change -1;
#X obj 287 391 route change;
#X obj 395 543 t a b;
#X msg 422 565 set -1;
#X obj 287 444 get \$0.set.selector offset posy;
#X obj 156 477 change;
#X obj 395 522 change;
#X obj 512 233 t p p;
#X msg 539 477 symbol master;
#X msg 572 498 symbol set:\$1;
#X obj 512 430 t a a;
#X obj 512 601 s \$0.from.set.gui;
#X obj 539 453 sel -1;
#X obj 512 355 * -1;
#X obj 512 377 div 10;
#X obj 512 399 change;
#X obj 512 300 max;
#X obj 512 328 t a a;
#X obj 512 278 min 10;
#X obj 512 211 route change;
#X obj 664 447 set \$0.set.selector number;
#X obj 512 255 get \$0.set.selector number posy;
#X obj 695 277 - 20;
#X obj 695 299 div 20;
#X obj 695 342 t a b;
#X msg 722 364 set -1;
#X obj 695 321 change;
#X obj 512 547 pack f f;
#X obj 637 343 * -10;
#X obj 637 368 + 1;
#X obj 539 520 set -symbol \$0.set.selector label;
#X obj 287 413 t p p;
#X obj 48 371 t p p;
#X obj 48 208 list append;
#X obj 193 151 loadbang;
#X msg 193 173 symbol;
#X msg 512 574 raw \$2 set \$1;
#X msg 287 565 raw \$2 offset \$1;
#X msg 49 532 raw \$2 length \$1;
#X msg 48 230 scalar \$1.set.selector \$2 9 \$3 999 234 0 128 16 0
;
#X obj 638 183 r \$0.from.set.gui;
#X obj 638 205 route scrollpos;
#X obj 637 309 +;
#X obj 638 227 t b a;
#X obj 48 321 t a a a a;
#X obj 349 5 route click;
#X obj 349 49 - 20;
#X obj 349 71 div 20;
#X obj 401 53 r \$0.from.set.gui;
#X obj 401 75 route scrollpos;
#X obj 349 97 +;
#X obj 428 100 r \$0.from.set;
#X obj 428 122 route count;
#X msg 624 35 selected \$1;
#X obj 624 58 s \$0.from.set.gui;
#X obj 349 28 get \$0.set.selector posy;
#X obj 385 97 t b a;
#X obj 428 143 - 1;
#X obj 349 195 change -1;
#X obj 597 14 t a a;
#X obj 597 102 s \$0.to.set;
#X msg 597 80 count;
#X obj 349 170 min;
#X obj 349 119 f;
#X obj 349 145 max 0;
#N canvas 416 111 417 278 block.inactive 0;
#X obj 37 40 inlet;
#X obj 37 62 t a a;
#X obj 37 185 spigot;
#X obj 37 207 outlet;
#X obj 143 101 route click;
#X obj 143 125 get \$0.set.selector vis2;
#X connect 0 0 1 0;
#X connect 1 0 2 0;
#X connect 1 1 4 0;
#X connect 2 0 3 0;
#X connect 4 0 5 0;
#X connect 5 0 2 1;
#X restore 48 287 pd block.inactive;
#X obj 48 399 get \$0.set.selector length posy;
#X connect 0 0 11 0;
#X connect 1 0 89 0;
#X connect 2 0 3 0;
#X connect 3 0 4 0;
#X connect 4 0 5 0;
#X connect 5 0 7 0;
#X connect 5 1 6 0;
#X connect 6 0 4 1;
#X connect 7 0 8 0;
#X connect 8 0 10 0;
#X connect 9 0 4 1;
#X connect 10 0 57 0;
#X connect 11 0 2 0;
#X connect 11 1 9 0;
#X connect 12 0 62 0;
#X connect 14 0 15 0;
#X connect 15 0 29 0;
#X connect 16 0 12 0;
#X connect 17 0 56 0;
#X connect 18 0 12 1;
#X connect 18 1 19 0;
#X connect 19 0 16 0;
#X connect 20 0 61 0;
#X connect 22 0 23 0;
#X connect 23 0 30 0;
#X connect 24 0 20 0;
#X connect 25 0 55 0;
#X connect 26 0 20 1;
#X connect 26 1 27 0;
#X connect 27 0 24 0;
#X connect 28 0 24 0;
#X connect 28 1 22 0;
#X connect 29 0 18 0;
#X connect 30 0 26 0;
#X connect 31 0 45 0;
#X connect 31 1 44 1;
#X connect 31 1 54 1;
#X connect 32 0 54 0;
#X connect 33 0 54 0;
#X connect 34 0 51 0;
#X connect 34 1 36 0;
#X connect 36 0 32 0;
#X connect 36 1 33 0;
#X connect 37 0 38 0;
#X connect 38 0 39 0;
#X connect 39 0 34 0;
#X connect 40 0 41 0;
#X connect 41 0 37 0;
#X connect 41 1 44 0;
#X connect 42 0 40 0;
#X connect 43 0 31 0;
#X connect 45 0 42 0;
#X connect 45 1 46 0;
#X connect 46 0 47 0;
#X connect 47 0 50 0;
#X connect 48 0 51 1;
#X connect 48 0 66 0;
#X connect 48 1 49 0;
#X connect 49 0 39 0;
#X connect 50 0 48 0;
#X connect 51 0 60 0;
#X connect 52 0 53 0;
#X connect 53 0 40 1;
#X connect 55 0 28 0;
#X connect 56 0 90 0;
#X connect 57 0 63 0;
#X connect 58 0 59 0;
#X connect 59 0 57 1;
#X connect 60 0 35 0;
#X connect 61 0 21 0;
#X connect 62 0 13 0;
#X connect 63 0 1 0;
#X connect 64 0 65 0;
#X connect 65 0 67 0;
#X connect 66 0 52 0;
#X connect 67 0 66 0;
#X connect 67 1 66 1;
#X connect 68 0 17 0;
#X connect 68 1 25 0;
#X connect 68 2 43 0;
#X connect 68 3 69 0;
#X connect 69 0 79 0;
#X connect 70 0 71 0;
#X connect 71 0 74 0;
#X connect 72 0 73 0;
#X connect 73 0 74 1;
#X connect 74 0 87 0;
#X connect 75 0 76 0;
#X connect 76 0 81 0;
#X connect 77 0 78 0;
#X connect 79 0 70 0;
#X connect 80 0 87 0;
#X connect 80 1 86 1;
#X connect 81 0 80 0;
#X connect 82 0 83 0;
#X connect 83 0 85 0;
#X connect 83 1 77 0;
#X connect 83 1 87 1;
#X connect 85 0 84 0;
#X connect 86 0 82 0;
#X connect 87 0 88 0;
#X connect 88 0 86 0;
#X connect 89 0 68 0;
#X connect 90 0 16 0;
#X connect 90 1 14 0;
#X restore 459 177 pd create_rows;
#X obj 197 47 loadbang;
#N canvas 597 44 526 418 update_rows 0;
#X msg 314 111 next;
#X obj 314 153 pointer \$0.set.selector;
#X obj 11 387 set -symbol \$0.set.selector label;
#X msg 383 119 traverse \$1;
#X obj 383 97 symbol pd-\$0.sets.gop;
#X obj 18 11 r \$0.to.set.gui;
#X obj 18 33 route raw;
#X obj 18 55 route row;
#X obj 314 44 + 1;
#X msg 314 19 \$1;
#X text 90 38 <pos> <source> <offset> <length>;
#X obj 18 117 unpack f f f f;
#X obj 118 219 * -10;
#X obj 11 271 sel -2 -1;
#X msg 62 356 symbol set:\$1;
#X msg 36 333 symbol master;
#X msg 11 303 symbol;
#X obj 28 223 >= 0;
#X obj 69 222 >= -1;
#X obj 159 68 r \$0.from.set.gui;
#X obj 159 90 route selected scrollpos;
#X obj 18 82 t a a a;
#X msg 119 113 \$1;
#X obj 119 135 +;
#X obj 119 158 ==;
#X obj 209 131 sel 1 0;
#X msg 208 156 456;
#X msg 239 156 234;
#X obj 11 199 t a a a a;
#X obj 28 246 set \$0.set.selector vis vis2 number offset length bgclr
;
#N canvas 379 255 450 300 step.wise 0;
#X obj 26 27 inlet;
#X obj 79 212 outlet;
#X obj 200 199 outlet;
#X obj 26 61 t a a a;
#X obj 25 115 moses;
#X obj 52 136 sel 0;
#X obj 79 160 until;
#X obj 124 125 t a b;
#X msg 151 153 0;
#X obj 124 103 f;
#X obj 124 78 t b b;
#X obj 25 88 - 1e+06;
#X connect 0 0 3 0;
#X connect 3 0 11 1;
#X connect 3 1 11 0;
#X connect 3 2 9 1;
#X connect 4 0 10 0;
#X connect 4 1 5 0;
#X connect 5 1 6 0;
#X connect 6 0 1 0;
#X connect 7 0 3 0;
#X connect 7 1 8 0;
#X connect 8 0 11 1;
#X connect 9 0 7 0;
#X connect 10 0 9 0;
#X connect 10 1 2 0;
#X connect 11 0 4 0;
#X restore 314 67 pd step.wise;
#X connect 0 0 1 0;
#X connect 1 0 2 1;
#X connect 1 0 29 6;
#X connect 3 0 1 0;
#X connect 4 0 3 0;
#X connect 5 0 6 0;
#X connect 6 0 7 0;
#X connect 7 0 21 0;
#X connect 8 0 30 0;
#X connect 9 0 8 0;
#X connect 11 1 28 0;
#X connect 11 2 29 3;
#X connect 11 3 29 4;
#X connect 12 0 29 2;
#X connect 13 0 16 0;
#X connect 13 1 15 0;
#X connect 13 2 14 0;
#X connect 14 0 2 0;
#X connect 15 0 2 0;
#X connect 16 0 2 0;
#X connect 17 0 29 0;
#X connect 18 0 29 1;
#X connect 19 0 20 0;
#X connect 20 0 24 1;
#X connect 20 1 23 1;
#X connect 21 0 11 0;
#X connect 21 1 22 0;
#X connect 21 2 9 0;
#X connect 22 0 23 0;
#X connect 23 0 24 0;
#X connect 24 0 25 0;
#X connect 25 0 26 0;
#X connect 25 1 27 0;
#X connect 26 0 29 5;
#X connect 27 0 29 5;
#X connect 28 0 13 0;
#X connect 28 1 17 0;
#X connect 28 2 18 0;
#X connect 28 3 12 0;
#X connect 30 0 0 0;
#X connect 30 1 4 0;
#X restore 504 213 pd update_rows;
#X msg 352 175 \$1 \$3 master 5;
#X msg 206 174 \$1 \$3 128;
#N canvas 66 324 407 413 struct_default_lenth 0;
#X obj 37 24 inlet;
#X obj 32 225 route change;
#X obj 37 46 list prepend \$0;
#X obj 32 248 t p p;
#X obj 32 294 max 1;
#X obj 32 316 t a a;
#X obj 32 338 change;
#X obj 37 92 s pd-\$0.sets.gop;
#X obj 37 121 filledpolygon bgclr bgclr 0 120 0 120 16 156 16 156 0
;
#X obj 32 384 s \$0.from.set.gui;
#X msg 37 66 scalar \$1.set.default_length \$2 \$3 \$4;
#X obj 32 187 struct \$0.set.default_length float bgclr float fgclr
float default;
#X obj 32 273 get \$0.set.default_length default;
#X obj 95 313 set \$0.set.default_length default;
#X msg 32 361 default_length \$1;
#X obj 34 151 drawnumber default 124 1 fgclr;
#X connect 0 0 2 0;
#X connect 1 0 3 0;
#X connect 2 0 10 0;
#X connect 3 0 12 0;
#X connect 3 1 13 1;
#X connect 4 0 5 0;
#X connect 5 0 6 0;
#X connect 5 1 13 0;
#X connect 6 0 14 0;
#X connect 10 0 7 0;
#X connect 11 0 1 0;
#X connect 12 0 4 0;
#X connect 14 0 9 0;
#X restore 206 208 pd struct_default_lenth;
#X connect 0 0 1 0;
#X connect 1 0 4 0;
#X connect 1 1 5 0;
#X connect 1 2 14 0;
#X connect 1 3 13 0;
#X connect 1 5 10 0;
#X connect 1 6 9 0;
#X connect 4 0 2 0;
#X connect 5 0 3 0;
#X connect 7 0 8 0;
#X connect 11 0 0 0;
#X connect 13 0 6 0;
#X connect 14 0 15 0;
#X restore 11 155 pd set.manager.gui.code;
#X obj 22 484 metaseq-router-netpd \$1 router;
#X obj 199 532 s \$0.from.set;
#X obj 199 438 r \$0.to.set;
#N canvas 353 44 982 456 set.manager.gui.interfacing 0;
#X obj 20 5 r \$0.from.set.gui;
#X obj 20 234 b;
#X msg 20 360 add \$1;
#X obj 20 386 s \$0.to.set;
#X obj 130 256 route count;
#X obj 102 257 f;
#X obj 102 281 moses 1;
#X msg 99 332 remove;
#X obj 102 235 b;
#X obj 20 213 route add default del;
#X obj 20 338 f -1;
#X obj 130 234 r \$0.to.set.gui;
#X obj 345 36 r \$0.from.set.gui;
#X obj 345 58 route scrollpos;
#X obj 249 41 route count;
#X obj 249 19 r \$0.to.set.gui;
#X obj 249 193 pack f f;
#X obj 276 171 del 0;
#X obj 249 124 t a b;
#X msg 276 147 stop;
#X obj 375 229 r \$0.from.set;
#X obj 375 251 route bang;
#X obj 249 215 t b a;
#X msg 249 237 8;
#X obj 249 259 until;
#X msg 307 262 \$2;
#X obj 249 294 f;
#X obj 300 296 + 1;
#X obj 249 316 t a a a;
#X msg 249 342 get \$1;
#X obj 249 370 s \$0.to.set;
#X obj 375 286 f;
#X msg 375 308 raw row \$1 -2;
#X obj 345 81 t b a a;
#X obj 470 113 -;
#X obj 470 189 list prepend raw row;
#X obj 470 211 list trim;
#X obj 470 6 r \$0.from.set;
#X obj 470 28 route route;
#X obj 470 155 pack f f f f;
#X obj 516 117 tabread \$0.set.offset;
#X obj 539 89 tabread \$0.set.length;
#X obj 470 50 unpack f f;
#X obj 470 72 t a a a;
#X obj 470 233 s \$0.to.set.gui;
#X obj 375 329 s \$0.to.set.gui;
#X obj 703 16 r \$0.from.set.gui;
#X obj 703 38 route raw;
#X obj 793 49 r \$0.from.set.gui;
#X obj 793 71 route scrollpos;
#X obj 703 85 list split 1;
#X obj 703 126 +;
#X obj 703 151 list prepend;
#X msg 703 173 \$1 \$3 \$2;
#X msg 703 279 update \$1 \$2;
#X obj 703 301 s \$0.to.set;
#X obj 249 63 t a a;
#X obj 703 195 route set;
#X obj 754 220 s \$0.to.netpd.send;
#X obj 20 262 t b b;
#X obj 47 305 s \$0.send.defaults;
#X obj 20 27 t a a;
#X obj 47 162 s \$0.to.seg;
#X msg 47 136 set_add;
#X msg 90 113 set_remove;
#X obj 47 49 route add del selected;
#X msg 133 91 set \$1 \, quantity;
#X obj 133 70 max 0;
#X connect 0 0 61 0;
#X connect 1 0 59 0;
#X connect 2 0 3 0;
#X connect 4 0 5 1;
#X connect 5 0 6 0;
#X connect 6 1 7 0;
#X connect 7 0 3 0;
#X connect 8 0 5 0;
#X connect 9 0 1 0;
#X connect 9 1 10 1;
#X connect 9 2 8 0;
#X connect 10 0 2 0;
#X connect 11 0 4 0;
#X connect 12 0 13 0;
#X connect 13 0 33 0;
#X connect 14 0 56 0;
#X connect 15 0 14 0;
#X connect 16 0 22 0;
#X connect 17 0 16 0;
#X connect 18 0 16 0;
#X connect 18 1 19 0;
#X connect 19 0 17 0;
#X connect 20 0 21 0;
#X connect 21 0 31 0;
#X connect 22 0 23 0;
#X connect 22 1 25 0;
#X connect 23 0 24 0;
#X connect 24 0 26 0;
#X connect 25 0 26 1;
#X connect 26 0 28 0;
#X connect 27 0 26 1;
#X connect 28 0 29 0;
#X connect 28 1 27 0;
#X connect 28 2 31 1;
#X connect 29 0 30 0;
#X connect 31 0 32 0;
#X connect 32 0 45 0;
#X connect 33 0 17 0;
#X connect 33 1 16 1;
#X connect 33 2 34 1;
#X connect 34 0 39 0;
#X connect 35 0 36 0;
#X connect 36 0 44 0;
#X connect 37 0 38 0;
#X connect 38 0 42 0;
#X connect 39 0 35 0;
#X connect 40 0 39 2;
#X connect 41 0 39 3;
#X connect 42 0 43 0;
#X connect 42 1 39 1;
#X connect 43 0 34 0;
#X connect 43 1 40 0;
#X connect 43 2 41 0;
#X connect 46 0 47 0;
#X connect 47 0 50 0;
#X connect 48 0 49 0;
#X connect 49 0 51 1;
#X connect 50 0 51 0;
#X connect 50 1 52 1;
#X connect 51 0 52 0;
#X connect 52 0 53 0;
#X connect 53 0 57 0;
#X connect 54 0 55 0;
#X connect 56 0 18 0;
#X connect 57 0 54 0;
#X connect 57 1 58 0;
#X connect 59 0 10 0;
#X connect 59 1 60 0;
#X connect 61 0 9 0;
#X connect 61 1 65 0;
#X connect 63 0 62 0;
#X connect 64 0 62 0;
#X connect 65 0 63 0;
#X connect 65 1 64 0;
#X connect 65 2 67 0;
#X connect 66 0 62 0;
#X connect 67 0 66 0;
#X restore 11 181 pd set.manager.gui.interfacing;
#X obj 234 23 table \$0.set.offset 1024;
#X obj 234 43 table \$0.set.length 1024;
#X obj 233 64 table \$0.set.scroll 1024;
#N canvas 597 44 641 530 netpd-ize.set.offset.length 0;
#X obj 17 252 r \$0.to.netpd.send;
#X obj 17 274 route offset length;
#X obj 102 495 netpd_s \$1 sets/offset;
#X obj 249 496 netpd_s \$1 sets/length;
#X obj 46 88 netpd_r \$1 sets/offset;
#X obj 20 15 netpd_r \$1 sets/length;
#X obj 73 133 s \$0.set.offset;
#X obj 47 60 s \$0.set.length;
#X obj 46 110 t a a;
#X obj 20 37 t a a;
#X obj 20 184 s \$0.from.set;
#X msg 20 154 route \$1;
#X obj 216 41 r \$0.from.set;
#X obj 201 15 netpd-dump \$1 3;
#X obj 216 63 route count;
#X obj 201 88 f;
#X obj 220 131 until;
#X obj 220 153 f;
#X msg 258 130 0;
#X obj 296 164 + 1;
#X obj 201 110 t b a b;
#N canvas 0 44 398 169 msgbox 0;
#X obj 9 14 inlet;
#X msg 9 36;
#X obj 9 108 outlet;
#X connect 0 0 1 0;
#X connect 1 0 2 0;
#X restore 201 368 pd msgbox;
#N canvas 0 44 398 169 msgbox 0;
#X obj 9 14 inlet;
#X msg 9 36;
#X obj 9 108 outlet;
#X connect 0 0 1 0;
#X connect 1 0 2 0;
#X restore 293 366 pd msgbox;
#X obj 220 178 t a a a;
#X msg 239 224 add2 \$1;
#X msg 220 273 add2 \$1;
#X msg 201 301 bang \, set;
#X obj 201 323 t a a;
#X obj 201 390 list prepend 0;
#X obj 293 390 list prepend 0;
#X obj 239 202 tabread \$0.set.length;
#X obj 220 251 tabread \$0.set.offset;
#X obj 440 209 r \$0.send.defaults;
#X obj 469 240 r \$0.from.set;
#X obj 469 262 route count;
#X obj 480 292 r \$0.from.set.gui;
#X obj 480 314 route default_length;
#X obj 440 283 f;
#X obj 440 357 t a a;
#X msg 440 396 \$1 0;
#X obj 491 397 pack f 128;
#X connect 0 0 1 0;
#X connect 1 0 2 0;
#X connect 1 1 3 0;
#X connect 4 0 8 0;
#X connect 5 0 9 0;
#X connect 8 0 11 0;
#X connect 8 1 6 0;
#X connect 9 0 11 0;
#X connect 9 1 7 0;
#X connect 11 0 10 0;
#X connect 12 0 14 0;
#X connect 13 0 15 0;
#X connect 14 0 15 1;
#X connect 15 0 20 0;
#X connect 16 0 17 0;
#X connect 17 0 23 0;
#X connect 18 0 17 1;
#X connect 19 0 17 1;
#X connect 20 0 26 0;
#X connect 20 1 16 0;
#X connect 20 2 18 0;
#X connect 21 0 28 0;
#X connect 22 0 29 0;
#X connect 23 0 31 0;
#X connect 23 1 30 0;
#X connect 23 2 19 0;
#X connect 24 0 22 0;
#X connect 25 0 21 0;
#X connect 26 0 27 0;
#X connect 27 0 21 0;
#X connect 27 1 22 0;
#X connect 28 0 2 0;
#X connect 29 0 3 0;
#X connect 30 0 24 0;
#X connect 31 0 25 0;
#X connect 32 0 37 0;
#X connect 33 0 34 0;
#X connect 34 0 37 1;
#X connect 35 0 36 0;
#X connect 36 0 40 1;
#X connect 37 0 38 0;
#X connect 38 0 39 0;
#X connect 38 1 40 0;
#X connect 39 0 2 0;
#X connect 40 0 3 0;
#X restore 11 208 pd netpd-ize.set.offset.length;
#X obj 24 350 metaseq-segmenter-netpd \$1 segmenter;
#N canvas 656 131 388 492 sequencer 0;
#X obj 19 295 s \$0.to.seq;
#X obj 19 323 r \$0.from.seq;
#X obj 20 73 s \$0.to.router;
#X obj 19 140 r \$0.from.router;
#X msg 20 47 -1 \$1;
#X msg 19 186 \$2 \$1;
#X obj 19 208 unpack f f;
#X obj 76 229 change -1;
#X msg 76 271 set \$1;
#X obj 76 251 t a a;
#X obj 19 345 list prepend;
#N canvas 0 44 391 282 buffer 0;
#X obj 48 183 netpd-fifo;
#X obj 48 30 t b a;
#X obj 48 102 sel 0;
#X obj 48 124 t b b;
#X obj 48 78 f;
#X msg 99 107 1;
#X obj 136 163 t b b;
#X msg 194 136 0;
#X obj 48 153 until;
#X obj 48 221 outlet;
#X obj 48 6 inlet;
#X obj 48 52 del 0;
#X connect 0 0 9 0;
#X connect 0 1 6 0;
#X connect 1 0 11 0;
#X connect 1 1 0 1;
#X connect 2 0 3 0;
#X connect 3 0 8 0;
#X connect 3 1 5 0;
#X connect 4 0 2 0;
#X connect 5 0 4 1;
#X connect 6 0 8 1;
#X connect 6 1 7 0;
#X connect 7 0 4 1;
#X connect 8 0 0 0;
#X connect 10 0 1 0;
#X connect 11 0 4 0;
#X restore 19 366 pd buffer;
#X obj 19 392 t a a;
#X obj 19 461 s \$0.feedback.route;
#X obj 69 46 r \$0.feedback.route;
#N canvas 972 79 326 377 apply.offset.length 0;
#X obj 44 22 inlet;
#X obj 44 336 outlet;
#X obj 69 154 unpack f f;
#X obj 141 165 tabread \$0.set.offset;
#X obj 160 143 tabread \$0.set.length;
#X obj 69 186 -;
#X obj 69 220 moses;
#X obj 96 246 moses;
#X msg 69 128 \$2 \$1;
#X obj 96 278 pack f f;
#X msg 96 300 \$2 \$1;
#X obj 69 94 t a a;
#X msg 141 82 \$1;
#X obj 141 106 t a a a;
#X obj 44 68 route 1 0;
#N canvas 594 277 240 372 only.when.source.not.-1 0;
#X obj 18 22 inlet;
#X obj 18 312 outlet;
#X obj 114 117 s \$0.to.set;
#X obj 114 140 r \$0.from.set;
#X msg 114 93 get \$1;
#X obj 114 165 route route;
#X msg 114 210 \$2;
#X obj 87 239 f;
#X obj 87 71 t b a;
#X obj 18 44 t a a;
#X obj 18 288 list prepend;
#X obj 87 261 == -1;
#X obj 114 187 route list;
#X connect 0 0 9 0;
#X connect 3 0 5 0;
#X connect 4 0 2 0;
#X connect 5 0 12 0;
#X connect 6 0 7 1;
#X connect 7 0 11 0;
#X connect 8 0 7 0;
#X connect 8 1 4 0;
#X connect 9 0 10 0;
#X connect 9 1 8 0;
#X connect 10 0 1 0;
#X connect 11 0 10 1;
#X connect 12 0 6 0;
#X restore 44 45 pd only.when.source.not.-1;
#X connect 0 0 15 0;
#X connect 2 0 5 0;
#X connect 2 1 9 1;
#X connect 3 0 5 1;
#X connect 4 0 7 1;
#X connect 5 0 6 0;
#X connect 6 1 7 0;
#X connect 7 0 9 0;
#X connect 8 0 2 0;
#X connect 9 0 10 0;
#X connect 10 0 1 0;
#X connect 11 0 8 0;
#X connect 11 1 12 0;
#X connect 12 0 13 0;
#X connect 13 0 3 0;
#X connect 13 1 4 0;
#X connect 14 0 1 0;
#X connect 14 1 11 0;
#X connect 15 0 14 0;
#X restore 19 163 pd apply.offset.length;
#X obj 20 20 master-param step;
#X msg 46 414 setpos \$1 \$2;
#X obj 46 436 s metaseq;
#X obj 281 93 r \$0.from.set;
#X obj 281 116 route count;
#X obj 253 24 r metaseq;
#X obj 253 46 route get;
#X obj 253 68 route count;
#X obj 253 90 b;
#X obj 253 145 f;
#X obj 253 191 s metaseq;
#X msg 253 169 count \$1;
#X connect 1 0 10 0;
#X connect 3 0 15 0;
#X connect 4 0 2 0;
#X connect 5 0 6 0;
#X connect 6 0 0 0;
#X connect 6 1 7 0;
#X connect 7 0 9 0;
#X connect 8 0 0 0;
#X connect 9 0 8 0;
#X connect 9 1 10 1;
#X connect 10 0 11 0;
#X connect 11 0 12 0;
#X connect 12 0 13 0;
#X connect 12 1 17 0;
#X connect 14 0 2 0;
#X connect 15 0 5 0;
#X connect 16 0 4 0;
#X connect 17 0 18 0;
#X connect 19 0 20 0;
#X connect 20 0 25 0;
#X connect 21 0 22 0;
#X connect 22 0 23 0;
#X connect 23 0 24 0;
#X connect 24 0 25 0;
#X connect 25 0 27 0;
#X connect 27 0 26 0;
#X restore 16 260 pd sequencer;
#X obj 24 309 r \$0.to.seq;
#X obj 24 393 s \$0.from.seq;
#X text 107 257 <- interesting stuff;
#X obj 22 440 r \$0.to.router;
#X obj 22 525 s \$0.from.router;
#X connect 5 0 16 1;
#X connect 8 0 22 0;
#X connect 8 1 9 0;
#X connect 10 0 8 1;
#X connect 16 0 19 0;
#X connect 16 1 4 0;
#X connect 18 0 16 0;
#X connect 21 0 8 0;
