#N struct 1586.button float posx float posy float color;
#N struct 1586.cursor float cx float cy float cy2;
#N struct 1517-automation float yshift array variy 1517-automation-element
;
#N struct 1517-automation-element float y;
#N struct 1516.autolabel float x float y symbol lbl float color float
track;
#N struct 1778.rectangle float id float x float y float w float h float
txtclr float boxclr float bgclr symbol label;
#N struct 1660.button float posx float posy float color;
#N struct 1660.cursor float cx float cy float cy2;
#N struct 1591-automation float yshift array variy 1591-automation-element
;
#N struct 1591-automation-element float y;
#N struct 1590.autolabel float x float y symbol lbl float color float
track;
#N struct 1775.rectangle float id float x float y float w float h float
txtclr float boxclr float bgclr symbol label;
#N struct 1731.button float posx float posy float color;
#N struct 1731.cursor float cx float cy float cy2;
#N struct 1662-automation float yshift array variy 1662-automation-element
;
#N struct 1662-automation-element float y;
#N struct 1661.autolabel float x float y symbol lbl float color float
track;
#N struct 1772.rectangle float id float x float y float w float h float
txtclr float boxclr float bgclr symbol label;
#N canvas 707 130 523 608 10;
#N canvas 624 75 434 290 NETPD 0;
#N canvas 1134 428 473 287 abslist 0;
#X msg 25 26 i2mx;
#X msg 25 51 mkmr_marimba~;
#X restore 11 62 pd abslist;
#X msg 12 8 version 0 0 2;
#X restore 10 14 pd NETPD 2 0;
#X obj 11 66 netpd_head \$1 mmmarimba;
#N canvas 862 531 296 124 \$1-mmmarimba 1;
#X obj 15 8 hsl 220 27 0 127 0 0 \$0.unstep-1 \$0.bla mmmarimba\\\ unstep\\\ 1
2 13 0 20 #fcf4f6 #fcf4f6 #000000 0 1;
#X obj 15 41 hsl 220 27 0 127 0 0 \$0.unstep-2 \$0.bla mmmarimba\\\ unstep\\\ 2
2 13 0 20 #fcf4f6 #fcf4f6 #000000 0 1;
#X obj 15 74 hsl 220 27 0 127 0 0 \$0.unstep-3 \$0.bla mmmarimba\\\ unstep\\\ 3
2 13 0 20 #fcf4f6 #fcf4f6 #000000 0 1;
#X obj 242 9 vsl 27 89 0 1 0 0 \$1-vel \$1-vel empty 0 10 0 10 #e3eef1
#c1b09b #000000 0 1;
#X restore 10 42 pd \$1-mmmarimba;
#X obj 12 490 i2mx \$1 mmmarimba;
#X msg 11 152 vis 1;
#X obj 11 228 route note vel;
#X msg 51 282 velocity \$1;
#X obj 51 306 s \$0.voices;
#X obj 11 383 pack f f;
#X obj 11 124 sel;
#X obj 38 126 t a;
#X obj 11 176 unstep \$1 mmmarimba-1 vel;
#X obj 77 256 netpd_f \$1 vel 0.7;
#X obj 51 255 +;
#X obj 11 101 r \$0.unstep-1;
#X msg 171 152 vis 1;
#X obj 171 124 sel;
#X obj 198 126 t a;
#X msg 331 152 vis 1;
#X obj 331 124 sel;
#X obj 358 126 t a;
#X obj 171 101 r \$0.unstep-2;
#X obj 331 101 r \$0.unstep-3;
#X obj 171 176 unstep \$1 mmmarimba-2 vel;
#X obj 331 176 unstep \$1 mmmarimba-3 vel;
#X obj 304 484 table \$0.switch 30;
#X obj 11 409 clone mkmr_marimba~ 30 \$1 \$0;
#X obj 176 435 t b a;
#X obj 176 483 array max \$0.switch;
#X obj 12 518 switch~;
#N canvas 0 0 392 348 voice.allocate 0;
#X obj 8 152 array min \$0.switch;
#X obj 8 175 sel 0;
#X obj 8 205 f;
#X obj 36 195 b;
#X obj 36 218 random 30;
#X obj 8 1 inlet;
#X obj 8 293 outlet;
#X obj 8 252 t a a;
#X obj 279 210 pack f f;
#X msg 279 233 \$2 \$1;
#X obj 279 256 s \$0.note.voice;
#X obj 8 25 t a a, f 25;
#X obj 8 123 b;
#X obj 8 51 tabread \$0.note.voice;
#X obj 8 74 sel -1, f 22;
#X connect 0 0 1 0;
#X connect 0 1 2 1;
#X connect 1 0 2 0;
#X connect 1 1 3 0;
#X connect 2 0 7 0;
#X connect 3 0 4 0;
#X connect 4 0 7 0;
#X connect 5 0 11 0;
#X connect 7 0 6 0;
#X connect 7 1 8 0;
#X connect 8 0 9 0;
#X connect 9 0 10 0;
#X connect 11 0 13 0;
#X connect 11 1 8 1;
#X connect 12 0 0 0;
#X connect 13 0 14 0;
#X connect 14 0 12 0;
#X connect 14 1 6 0;
#X restore 11 355 pd voice.allocate;
#X obj 251 363 table \$0.note.voice 128;
#X obj 11 326 t a a, f 8;
#N canvas 0 0 410 225 reset.allocation 0;
#X obj 31 20 inlet;
#X obj 31 169 s \$0.switch;
#X obj 31 43 t a a, f 13;
#X msg 31 146 \$1 \$2;
#X obj 106 96 route 0;
#X msg 106 70 \$2 \$3;
#X msg 106 119 \$1 -1;
#X obj 106 144 s \$0.note.voice;
#X connect 0 0 2 0;
#X connect 2 0 3 0;
#X connect 2 1 5 0;
#X connect 3 0 1 0;
#X connect 4 0 6 0;
#X connect 5 0 4 0;
#X connect 6 0 7 0;
#X restore 203 459 pd reset.allocation;
#X obj 292 284 loadbang;
#X msg 292 307 const -1;
#X obj 292 330 s \$0.note.voice;
#X connect 3 0 29 0;
#X connect 4 0 11 0;
#X connect 5 0 32 0;
#X connect 5 1 13 0;
#X connect 6 0 7 0;
#X connect 8 0 26 0;
#X connect 9 0 4 0;
#X connect 9 1 10 0;
#X connect 10 0 9 1;
#X connect 11 0 5 0;
#X connect 12 0 13 1;
#X connect 13 0 6 0;
#X connect 14 0 9 0;
#X connect 15 0 23 0;
#X connect 16 0 15 0;
#X connect 16 1 17 0;
#X connect 17 0 16 1;
#X connect 18 0 24 0;
#X connect 19 0 18 0;
#X connect 19 1 20 0;
#X connect 20 0 19 1;
#X connect 21 0 16 0;
#X connect 22 0 19 0;
#X connect 23 0 5 0;
#X connect 24 0 5 0;
#X connect 26 0 3 0;
#X connect 26 1 3 1;
#X connect 26 2 27 0;
#X connect 27 0 28 0;
#X connect 27 1 33 0;
#X connect 28 0 3 2;
#X connect 30 0 8 0;
#X connect 32 0 30 0;
#X connect 32 1 8 1;
#X connect 34 0 35 0;
#X connect 35 0 36 0;
