#N struct 7758.window-frame float x float w;
#N struct 7758.zero-line float w;
#N struct 7758.cue-marker float x float clr float id;
#N struct 7758.cue-dtl float x float clr float id float vis;
#N struct 7882.vertgrid float x float y float w float h;
#N struct 7882.horizgrid float x float y float w float h float c symbol
note float notevis;
#N struct 7882.vertline float x float y float h float c float n float
nvis;
#N struct 7882.guibar float x float y float w;
#N struct 7882.gid.button float x float y float clr float gid;
#N struct 7882.vel float x float y float value;
#N struct 7882.dur float x float y float value;
#N struct 7882.mode.button float x float y float w float c symbol param
;
#N struct 7882.show.selector float x float y float w float hilite float
id symbol label;
#N struct 7882.cursor float x float y float h float vis;
#N struct 7882.pager float x float y float c float dir float num float
nvis;
#N struct 7882.scroller float x float y float c float dir;
#N struct 7882.keyboard.toggle float x float y symbol label float hilite
float ihilite;
#N struct 7882.note float x float y float w float h float id float
gid float vel float dur float c float vis float mrk;
#N canvas 574 246 595 571 10;
#X obj 47 112 loadbang;
#X obj 20 112 bng 17 250 50 0 empty empty empty 17 7 0 10 -262144 -1
-1;
#X floatatom 20 464 10 0 0 0 - - -;
#X msg 52 389 1;
#X msg 83 388 2;
#X msg 20 389 0;
#N canvas 0 106 493 269 display.stuff 0;
#N canvas 0 106 402 563 wav.detail 0;
#X obj 18 308 -;
#X obj 18 333 *;
#X obj 18 433 pack f f;
#X obj 18 184 pack f f;
#X obj 81 153 t b a;
#X msg 47 309 \$1;
#X msg 76 318 \$2;
#X obj 45 383 +;
#X obj 18 355 t a a;
#X obj 45 405 int;
#X obj 18 403 int;
#X msg 18 496 range \$1 \$2 \, update;
#X obj 91 462 s \$0.window.range;
#X obj 18 457 t a a;
#X obj 18 12 r \$0.window.position;
#X obj 123 58 r \$0.zoom;
#X obj 18 520 outlet;
#X obj 178 112 r \$0.zoom.max;
#X obj 159 89 r \$0.zoom.min;
#X obj 81 105 *;
#X obj 81 127 +;
#X msg 81 58 1 \$1;
#X obj 81 82 -;
#X obj 18 211 t a a a b, f 15;
#X obj 18 260 list prepend;
#X msg 18 236 \$2;
#X obj 159 166 -;
#X obj 178 135 t b a a;
#X obj 87 236 r \$0.length;
#X obj 24 35 r \$0.post.switch;
#X obj 18 75 f;
#X connect 0 0 1 0;
#X connect 1 0 8 0;
#X connect 2 0 13 0;
#X connect 3 0 23 0;
#X connect 4 0 3 0;
#X connect 4 1 3 1;
#X connect 5 0 1 1;
#X connect 6 0 7 1;
#X connect 7 0 9 0;
#X connect 8 0 10 0;
#X connect 8 1 7 0;
#X connect 9 0 2 1;
#X connect 10 0 2 0;
#X connect 11 0 16 0;
#X connect 13 0 11 0;
#X connect 13 1 12 0;
#X connect 14 0 30 0;
#X connect 15 0 21 0;
#X connect 17 0 27 0;
#X connect 18 0 26 0;
#X connect 19 0 20 0;
#X connect 20 0 4 0;
#X connect 21 0 22 0;
#X connect 22 0 19 0;
#X connect 23 0 25 0;
#X connect 23 1 5 0;
#X connect 23 2 6 0;
#X connect 24 0 0 0;
#X connect 25 0 24 0;
#X connect 26 0 19 1;
#X connect 27 0 26 0;
#X connect 27 1 26 1;
#X connect 27 2 20 1;
#X connect 28 0 24 1;
#X connect 29 0 30 0;
#X connect 30 0 3 0;
#X restore 9 13 pd wav.detail;
#X obj 106 127 r \$0.scale.dtl;
#X msg 106 150 scale \$1;
#X obj 270 133 array get, f 10;
#X msg 270 110 0 1200;
#X obj 270 16 r \$1.selected.instance;
#X obj 270 39 list prepend \$1;
#X msg 270 62 symbol \$1-\$2/overview;
#X obj 270 85 t b a, f 10;
#X obj 270 156 t a b;
#X msg 321 173 0;
#X obj 37 68 r \$0.src.table;
#X obj 270 207 array set \$1.wav.ov;
#X msg 37 94 source \$1;
#X obj 10 202 table \$0.dummy 2;
#X obj 9 177 rh_wavedisplay \$0.dummy \$1.wav.dtl;
#X connect 0 0 15 0;
#X connect 1 0 2 0;
#X connect 2 0 15 0;
#X connect 3 0 9 0;
#X connect 4 0 3 0;
#X connect 5 0 6 0;
#X connect 6 0 7 0;
#X connect 7 0 8 0;
#X connect 8 0 4 0;
#X connect 8 1 3 2;
#X connect 9 0 12 0;
#X connect 9 1 10 0;
#X connect 10 0 12 1;
#X connect 11 0 13 0;
#X connect 13 0 15 0;
#X restore 457 58 pd display.stuff;
#N canvas 702 206 317 312 gui.stuff 0;
#N canvas 73 266 450 300 window-frame 0;
#X obj 58 37 drawpolygon 555 1 1 1 w 1 w 79 1 79 1 1;
#X obj 57 62 struct \$0.window-frame float x float w;
#X restore 17 44 pd window-frame;
#N canvas 256 532 430 87 cue-marker 0;
#X obj 7 35 struct \$0.cue-marker float x float clr float id;
#X obj 7 11 drawpolygon clr 1 0 1 0 79;
#X restore 16 17 pd cue-marker;
#N canvas 0 106 450 354 create.scalars 0;
#X obj 51 283 s pd-\$0.gop;
#X obj 12 41 t b b b;
#X obj 31 216 list prepend \$0;
#X obj 12 319 outlet;
#X msg 31 241 scalar \$1.cue-marker \$2 \$3 \$4 \, scalar \$1.cue-dtl
\$2 \$3 \$4 0;
#X obj 51 66 \$0;
#X msg 51 111 clear \, scalar \$1.window-frame 30 70 \, scalar \$1.zero-line
600;
#X obj 114 63 r \$0.vis.width;
#X obj 51 89 list append 600;
#X obj 12 15 r \$0.loadbang;
#X obj 94 138 r \$0.cue.clr.list;
#X obj 31 165 list append;
#X msg 31 192 0 \$1 0 \, 0 \$2 1 \, 0 \$3 2;
#X connect 1 0 3 0;
#X connect 1 1 11 0;
#X connect 1 2 5 0;
#X connect 2 0 4 0;
#X connect 4 0 0 0;
#X connect 5 0 8 0;
#X connect 6 0 0 0;
#X connect 7 0 8 1;
#X connect 8 0 6 0;
#X connect 9 0 1 0;
#X connect 10 0 11 1;
#X connect 11 0 12 0;
#X connect 12 0 2 0;
#X restore 17 69 pd create.scalars;
#N canvas 184 382 450 404 window-frame.control 0;
#X obj 243 148 pointer;
#X obj 243 94 \$0;
#X obj 7 15 r \$0.window.range;
#X obj 7 71 unpack f f;
#X obj 7 119 t a a, f 10;
#X obj 75 148 pack f f;
#X msg 75 172 \$2 \$1;
#X obj 75 196 -;
#X msg 243 123 traverse pd-\$1.gop \, next;
#X obj 112 187 r \$0.vis.width;
#X obj 216 16 inlet;
#X obj 7 95 /;
#X obj 64 95 /;
#X obj 7 253 *;
#X obj 75 250 *;
#X obj 7 276 - 1;
#X obj 112 214 - 1;
#X obj 75 275 + 1;
#X obj 7 353 set \$0.window-frame x w;
#X obj 216 65 s \$0.zoom.r;
#X obj 216 39 t b b;
#X obj 116 38 r \$0.length;
#X connect 0 0 18 2;
#X connect 1 0 8 0;
#X connect 2 0 3 0;
#X connect 3 0 11 0;
#X connect 3 1 12 0;
#X connect 4 0 13 0;
#X connect 4 1 5 0;
#X connect 5 0 6 0;
#X connect 6 0 7 0;
#X connect 7 0 14 0;
#X connect 8 0 0 0;
#X connect 9 0 16 0;
#X connect 10 0 20 0;
#X connect 11 0 4 0;
#X connect 12 0 5 1;
#X connect 13 0 15 0;
#X connect 14 0 17 0;
#X connect 15 0 18 0;
#X connect 16 0 13 1;
#X connect 16 0 14 1;
#X connect 17 0 18 1;
#X connect 20 0 19 0;
#X connect 20 1 1 0;
#X connect 21 0 12 1;
#X connect 21 0 11 1;
#X restore 17 97 pd window-frame.control;
#N canvas 256 532 430 87 cue-dtl 0;
#X obj 7 11 drawpolygon -v vis clr 1 0 81 0 199;
#X obj 7 35 struct \$0.cue-dtl float x float clr float id float vis
;
#X restore 106 17 pd cue-dtl;
#N canvas 1031 135 388 513 update.cue.dtl 0;
#X obj 236 120 \$0;
#X msg 236 145 traverse pd-\$1.gop;
#X msg 178 148 next;
#X obj 178 95 t b b a, f 17;
#X obj 178 124 until;
#X obj 178 200 t a a;
#X obj 210 249 sel 0;
#X obj 46 34 r \$0.window.range;
#X obj 17 9 r \$0.position.in.window;
#X obj 71 412 r \$0.vis.width;
#X obj 56 438 *;
#X obj 178 176 pointer \$0.cue-dtl;
#X obj 210 225 get \$0.cue-dtl id;
#X obj 17 474 set \$0.cue-dtl x vis;
#X obj 17 60 b;
#X obj 17 83 del 0;
#X msg 17 106 0 \, 1 \, 2;
#X obj 17 130 t a a;
#X obj 50 186 r \$0.window.range;
#X obj 17 241 -;
#X obj 50 209 t a a;
#X msg 50 232 \$1;
#X msg 82 233 \$2 \$1;
#X obj 82 256 -;
#X obj 17 294 /;
#X obj 17 317 moses 0;
#X obj 56 340 moses 1;
#X obj 56 363 t a b;
#X msg 83 388 1;
#X msg 17 416 0;
#X obj 17 439 t a a;
#N canvas 0 304 336 198 resolve.cues 0;
#X obj 20 19 inlet;
#X obj 74 63 r \$0.instance;
#X obj 74 109 * 3;
#X obj 20 84 +;
#X obj 20 171 outlet;
#X obj 20 148 tabread \$1-cues;
#X connect 0 0 3 0;
#X connect 1 0 2 0;
#X connect 2 0 3 1;
#X connect 3 0 5 0;
#X connect 5 0 4 0;
#X restore 17 156 pd resolve.cues;
#X connect 0 0 1 0;
#X connect 1 0 11 0;
#X connect 2 0 11 0;
#X connect 3 0 4 0;
#X connect 3 1 0 0;
#X connect 3 2 6 1;
#X connect 4 0 2 0;
#X connect 5 0 13 2;
#X connect 5 1 12 0;
#X connect 6 0 4 1;
#X connect 7 0 14 0;
#X connect 8 0 14 0;
#X connect 9 0 10 1;
#X connect 10 0 13 0;
#X connect 11 0 5 0;
#X connect 11 2 4 1;
#X connect 12 0 6 0;
#X connect 14 0 15 0;
#X connect 15 0 16 0;
#X connect 16 0 17 0;
#X connect 17 0 31 0;
#X connect 17 1 3 0;
#X connect 18 0 20 0;
#X connect 19 0 24 0;
#X connect 20 0 21 0;
#X connect 20 1 22 0;
#X connect 21 0 19 1;
#X connect 22 0 23 0;
#X connect 23 0 24 1;
#X connect 24 0 25 0;
#X connect 25 0 29 0;
#X connect 25 1 26 0;
#X connect 26 0 27 0;
#X connect 26 1 29 0;
#X connect 27 0 10 0;
#X connect 27 1 28 0;
#X connect 28 0 13 1;
#X connect 29 0 30 0;
#X connect 30 0 13 0;
#X connect 30 1 13 1;
#X connect 31 0 19 0;
#X restore 17 146 pd update.cue.dtl;
#N canvas 599 597 450 300 zero-line 0;
#X obj 7 35 struct \$0.zero-line float w;
#X obj 7 11 drawpolygon 666 1 0 140 w 140;
#X restore 175 17 pd zero-line;
#N canvas 1157 258 450 416 convert.ds2iem 0;
#X obj 28 56 t a a, f 21;
#X obj 151 150 mod 10;
#X obj 28 79 div 10;
#X obj 28 102 t a a, f 11;
#X obj 91 150 mod 10;
#X obj 28 149 mod 10;
#X obj 28 125 div 10;
#X obj 28 185 clip 0 8;
#X obj 91 185 clip 0 8;
#X obj 151 185 clip 0 8;
#X obj 28 208 * 31.875;
#X obj 91 208 * 31.875;
#X obj 151 208 * 31.875;
#X obj 28 231 << 16;
#X obj 91 231 << 8;
#X obj 28 261 +, f 11;
#X obj 28 284 +, f 21;
#X obj 28 307 + 1;
#X obj 28 330 * -1;
#X obj 28 24 r \$0.convert.ds2iem.r;
#N canvas 1293 624 352 190 ds2iem 0;
#X obj 52 76 s \$0.convert.ds2iem.r;
#X obj 25 27 inlet;
#X obj 25 50 t b a;
#X obj 25 124 f;
#X obj 25 147 outlet;
#X obj 51 100 r \$0.convert.ds2iem.s;
#X connect 1 0 2 0;
#X connect 2 0 3 0;
#X connect 2 1 0 0;
#X connect 3 0 4 0;
#X connect 5 0 3 1;
#X restore 260 94 pd ds2iem;
#X obj 28 354 s \$0.convert.ds2iem.s;
#X connect 0 0 2 0;
#X connect 0 1 1 0;
#X connect 1 0 9 0;
#X connect 2 0 3 0;
#X connect 3 0 6 0;
#X connect 3 1 4 0;
#X connect 4 0 8 0;
#X connect 5 0 7 0;
#X connect 6 0 5 0;
#X connect 7 0 10 0;
#X connect 8 0 11 0;
#X connect 9 0 12 0;
#X connect 10 0 13 0;
#X connect 11 0 14 0;
#X connect 12 0 16 1;
#X connect 13 0 15 0;
#X connect 14 0 15 1;
#X connect 15 0 16 0;
#X connect 16 0 17 0;
#X connect 17 0 18 0;
#X connect 18 0 21 0;
#X connect 19 0 0 0;
#X restore 17 171 pd convert.ds2iem;
#N canvas 686 448 450 359 set.cue.clr 0;
#X obj 17 322 s, f 17;
#X obj 116 228 list prepend \$0;
#X msg 116 256 symbol \$1.cue.\$2.sld.r;
#N canvas 1293 624 352 190 ds2iem 0;
#X obj 52 76 s \$0.convert.ds2iem.r;
#X obj 25 27 inlet;
#X obj 25 50 t b a;
#X obj 25 124 f;
#X obj 25 147 outlet;
#X obj 51 100 r \$0.convert.ds2iem.s;
#X connect 1 0 2 0;
#X connect 2 0 3 0;
#X connect 2 1 0 0;
#X connect 3 0 4 0;
#X connect 5 0 3 1;
#X restore 17 229 pd ds2iem;
#X msg 17 293 color \$2 \$2 \$1;
#N canvas 0 106 383 211 append.label.clr 0;
#X obj 165 84 list append;
#X obj 228 55 r \$0.cue.clr.list;
#X obj 17 72 t a a;
#X obj 165 55 t b a;
#X obj 165 107 list split;
#X msg 193 130 \$1;
#X obj 17 115 list append;
#X obj 17 26 inlet;
#X obj 17 138 outlet;
#X connect 0 0 4 0;
#X connect 1 0 0 1;
#X connect 2 0 6 0;
#X connect 2 1 3 0;
#X connect 3 0 0 0;
#X connect 3 1 4 1;
#X connect 4 1 5 0;
#X connect 5 0 6 1;
#X connect 6 0 8 0;
#X connect 7 0 2 0;
#X restore 17 91 pd append.label.clr;
#X obj 17 151 list append 0;
#X msg 17 178 \$2 \$3 \$1;
#X obj 17 201 unpack f f f, f 17;
#X obj 17 261 pack f f;
#X obj 175 9 r \$0.cue.click;
#X obj 175 32 t a a b;
#X obj 192 61 f;
#X obj 116 62 t a b;
#X msg 88 125 10;
#X obj 174 91 t a b;
#X msg 121 130 0;
#X obj 17 15 r \$0.loadbang;
#X obj 17 65 t a b;
#X msg 17 41 1 \, 2;
#X connect 1 0 2 0;
#X connect 2 0 0 1;
#X connect 3 0 9 0;
#X connect 4 0 0 0;
#X connect 5 0 6 0;
#X connect 6 0 7 0;
#X connect 7 0 8 0;
#X connect 8 0 3 0;
#X connect 8 1 9 1;
#X connect 8 2 1 0;
#X connect 9 0 4 0;
#X connect 10 0 11 0;
#X connect 11 0 13 0;
#X connect 11 1 12 1;
#X connect 11 2 12 0;
#X connect 12 0 15 0;
#X connect 13 0 5 0;
#X connect 13 1 14 0;
#X connect 14 0 6 1;
#X connect 15 0 5 0;
#X connect 15 1 16 0;
#X connect 16 0 6 1;
#X connect 17 0 19 0;
#X connect 18 0 5 0;
#X connect 18 1 16 0;
#X connect 19 0 18 0;
#X restore 17 194 pd set.cue.clr;
#N canvas 991 395 415 161 cue.clicks 0;
#X obj 9 13 r \$0.cue.0.sld;
#X obj 9 36 sel;
#X obj 37 36 t a;
#X obj 101 36 sel;
#X obj 129 36 t a;
#X obj 192 36 sel;
#X obj 220 36 t a;
#X obj 101 13 r \$0.cue.1.sld;
#X obj 192 13 r \$0.cue.2.sld;
#X msg 9 59 0;
#X msg 101 59 1;
#X msg 192 59 2;
#X obj 9 99 s \$0.cue.click;
#X obj 136 117 r \$0.loadbang;
#X connect 0 0 1 0;
#X connect 1 0 9 0;
#X connect 1 1 2 0;
#X connect 2 0 1 1;
#X connect 3 0 10 0;
#X connect 3 1 4 0;
#X connect 4 0 3 1;
#X connect 5 0 11 0;
#X connect 5 1 6 0;
#X connect 6 0 5 1;
#X connect 7 0 3 0;
#X connect 8 0 5 0;
#X connect 9 0 12 0;
#X connect 10 0 12 0;
#X connect 11 0 12 0;
#X connect 13 0 9 0;
#X restore 17 218 pd cue.clicks;
#N canvas 123 227 413 180 rec.length 0;
#X obj 29 108 s \$0.length.sld.r;
#X obj 29 21 r \$0.length.sld;
#X obj 29 44 makefilename %.2fs;
#X msg 29 67 label \$1;
#X obj 201 57 / 1000;
#X obj 201 34 r \$0.default.length;
#X connect 1 0 2 0;
#X connect 2 0 3 0;
#X connect 3 0 0 0;
#X connect 4 0 0 0;
#X connect 5 0 4 0;
#X restore 16 244 pd rec.length;
#N canvas 1031 135 388 513 switch.cues 0;
#X obj 236 120 \$0;
#X msg 236 145 traverse pd-\$1.gop;
#X msg 178 148 next;
#X obj 178 95 t b b a, f 17;
#X obj 178 124 until;
#X obj 178 200 t a a;
#X obj 210 249 sel 0;
#X obj 17 60 b;
#X msg 17 106 0 \, 1 \, 2;
#X obj 17 130 t a a;
#N canvas 0 304 336 198 resolve.cues 0;
#X obj 20 19 inlet;
#X obj 74 63 r \$0.instance;
#X obj 74 109 * 3;
#X obj 20 84 +;
#X obj 20 171 outlet;
#X obj 20 148 tabread \$1-cues;
#X connect 0 0 3 0;
#X connect 1 0 2 0;
#X connect 2 0 3 1;
#X connect 3 0 5 0;
#X connect 5 0 4 0;
#X restore 17 156 pd resolve.cues;
#X obj 17 474 set \$0.cue-marker x;
#X obj 17 371 /;
#X obj 54 395 r \$0.vis.width;
#X obj 17 412 *;
#X obj 54 418 0;
#X obj 34 337 r \$0.length;
#X obj 178 176 pointer \$0.cue-marker;
#X obj 210 225 get \$0.cue-marker id;
#X obj 17 31 r \$0.post.switch;
#X connect 0 0 1 0;
#X connect 1 0 17 0;
#X connect 2 0 17 0;
#X connect 3 0 4 0;
#X connect 3 1 0 0;
#X connect 3 2 6 1;
#X connect 4 0 2 0;
#X connect 5 0 11 1;
#X connect 5 1 18 0;
#X connect 6 0 4 1;
#X connect 7 0 8 0;
#X connect 8 0 9 0;
#X connect 9 0 10 0;
#X connect 9 1 3 0;
#X connect 10 0 12 0;
#X connect 12 0 14 0;
#X connect 13 0 15 0;
#X connect 14 0 11 0;
#X connect 15 0 14 1;
#X connect 16 0 12 1;
#X connect 17 0 5 0;
#X connect 17 2 4 1;
#X connect 18 0 6 0;
#X connect 19 0 7 0;
#X restore 90 122 pd switch.cues;
#N canvas 1031 135 413 578 set.cue 0;
#X obj 236 120 \$0;
#X obj 178 176 pointer \$0.cue-marker;
#X msg 236 145 traverse pd-\$1.gop;
#X msg 178 148 next;
#X obj 210 225 get \$0.cue-marker id;
#X obj 178 95 t b b a, f 17;
#X obj 178 124 until;
#X obj 178 200 t a a;
#X obj 210 249 sel 0;
#X obj 23 490 set \$0.cue-marker x;
#X obj 50 104 r \$0.window.range;
#X obj 50 127 t a a;
#X obj 50 180 -;
#X obj 23 76 r \$0.position.in.window;
#X obj 23 207 *;
#X msg 50 151 \$2 \$1;
#X msg 93 153 \$1;
#X obj 23 232 +;
#X obj 23 371 /;
#X obj 60 395 r \$0.vis.width;
#X obj 23 412 *;
#X obj 60 418 0;
#X obj 23 297 t a a;
#X obj 178 37 r \$0.cue.click;
#X obj 40 337 r \$0.length;
#X obj 292 294 r \$0.instance;
#X obj 292 340 * 3;
#X obj 277 365 +;
#X obj 184 448 tabwrite \$1-cues;
#X connect 0 0 2 0;
#X connect 1 0 7 0;
#X connect 1 2 6 1;
#X connect 2 0 1 0;
#X connect 3 0 1 0;
#X connect 4 0 8 0;
#X connect 5 0 6 0;
#X connect 5 1 0 0;
#X connect 5 2 8 1;
#X connect 5 2 27 0;
#X connect 6 0 3 0;
#X connect 7 0 9 1;
#X connect 7 1 4 0;
#X connect 8 0 6 1;
#X connect 10 0 11 0;
#X connect 11 0 15 0;
#X connect 11 1 16 0;
#X connect 12 0 14 1;
#X connect 13 0 14 0;
#X connect 14 0 17 0;
#X connect 15 0 12 0;
#X connect 16 0 17 1;
#X connect 17 0 22 0;
#X connect 18 0 20 0;
#X connect 19 0 21 0;
#X connect 20 0 9 0;
#X connect 21 0 20 1;
#X connect 22 0 18 0;
#X connect 22 1 28 0;
#X connect 23 0 5 0;
#X connect 24 0 18 1;
#X connect 25 0 26 0;
#X connect 26 0 27 1;
#X connect 27 0 28 1;
#X restore 17 121 pd set.cue;
#X connect 2 0 3 0;
#X restore 457 36 pd gui.stuff;
#N canvas 0 106 450 300 recording 0;
#X obj 18 23 adc~ 1;
#X obj 20 145 r \$0.length;
#X obj 20 169 rh_ms2samp;
#X msg 20 193 resize \$1;
#X obj 20 217 s \$0.recording;
#X obj 19 113 s~ \$1.audio.in;
#X obj 167 27 r \$0.rec.btn;
#X obj 167 50 sel;
#X obj 194 50 t a;
#X obj 278 136 r \$1.selected.instance;
#X obj 258 43 r \$0.length.sld;
#X obj 258 66 * 1000;
#X obj 167 94 f;
#X msg 167 117 startuntil \$1;
#X obj 167 165 list prepend;
#X obj 167 193 s \$1.sample.control;
#X connect 0 0 5 0;
#X connect 1 0 2 0;
#X connect 2 0 3 0;
#X connect 3 0 4 0;
#X connect 6 0 7 0;
#X connect 7 0 12 0;
#X connect 7 1 8 0;
#X connect 8 0 7 1;
#X connect 9 0 14 1;
#X connect 10 0 11 0;
#X connect 11 0 12 1;
#X connect 12 0 13 0;
#X connect 13 0 14 0;
#X connect 14 0 15 0;
#X restore 457 80 pd recording;
#N canvas 590 106 634 321 \$1-ripple 1;
#X obj 110 230 ripple-sampler \$1 2;
#X obj 210 230 ripple-sampler \$1 3;
#X obj 310 230 ripple-sampler \$1 4;
#X obj 410 230 ripple-sampler \$1 5;
#X obj 510 230 ripple-sampler \$1 6;
#X obj 13 290 hsl 595 10 0 127 0 0 \$0.unpunch \$0.bli unpunch 275
5 0 10 -228856 -228856 -1 0 1;
#X obj 10 230 ripple-sampler \$1 1;
#X obj 478 220 hsl 130 10 0 1 0 0 \$0.zoom \$0.zoom.r empty 2 8 0 10
-228856 -162280 -1 0 1;
#X obj 133 220 hsl 30 10 0 1 0 0 \$0.cue.0.sld \$0.cue.0.sld.r ▶
13 5 0 12 -233017 -233017 -260584 0 1;
#X obj 168 220 hsl 30 10 0 1 0 0 \$0.cue.1.sld \$0.cue.1.sld.r ◤
13 5 0 12 -262144 -262144 -163816 0 1;
#X obj 203 220 hsl 30 10 0 1 0 0 \$0.cue.2.sld \$0.cue.2.sld.r ◥
13 5 0 12 -262144 -262144 -162304 0 1;
#X obj 13 220 hsl 60 10 1 20 1 0 \$0.length.sld \$0.length.sld.r 2.00s
4 6 0 11 -262144 -191407 -66577 1365 1;
#X obj 78 220 hsl 50 10 0 1 0 0 \$0.rec.btn \$1.rec.btn.r ● 22 5
0 12 -262144 -262144 -258113 0 1;
#X obj 10 84 cnv 15 100 15 empty empty empty 20 12 0 14 -262144 -66577
0;
#X obj 13 100 hsl 595 120 0 1 0 0 \$0.position.in.window \$0.position.in.window.r
ripple 120 60 0 90 -245500 -245500 -228856 0 0;
#N canvas 0 106 450 250 (subpatch) 0;
#X array \$1.wav.dtl 1200 float 2;
#X coords 0 1 1199 -1 600 120 1 0 0;
#X restore 10 100 graph;
#X obj 610 102 vsl 10 115 1 100 1 0 \$0.scale.dtl \$0.scale.dtl.r empty
0 -9 0 10 -228856 -128992 -1 0 1;
#X obj 610 22 vsl 10 75 1 100 1 0 \$1.scale.ov \$1.scale.ov.r empty
0 -9 0 10 -228856 -128992 -1 0 1;
#X obj 13 20 hsl 595 80 0 1 0 0 \$0.window.position \$0.window.position
empty -2 -8 0 10 -241536 -241536 -1 30500 0;
#N canvas 0 50 450 250 (subpatch) 0;
#X array \$1.wav.ov 1200 float 2;
#X coords 0 1 1200 -1 600 80 1 0 0;
#X restore 10 20 graph;
#N canvas 598 479 677 501 \$0.gop 0;
#X scalar 7758.window-frame 292.619 28.1655 \;;
#X scalar 7758.zero-line 600 \;;
#X scalar 7758.cue-marker 144.57 855 0 \;;
#X scalar 7758.cue-dtl 0 855 0 0 \;;
#X scalar 7758.cue-marker 233.319 585 1 \;;
#X scalar 7758.cue-dtl 0 585 1 0 \;;
#X scalar 7758.cue-marker 287.591 558 2 \;;
#X scalar 7758.cue-dtl 0 558 2 0 \;;
#X coords 0 0 599 199 600 200 2 20 20;
#X restore 10 20 pd \$0.gop;
#X obj 10 4 cnv 15 100 15 empty empty empty 20 12 0 14 -262144 -66577
0;
#X obj 238 220 hsl 55 10 0 1 0 0 \$0.adsr.a \$0.adsr.a.r a 4 5 0 10
-262144 -191407 -66577 0 1;
#X obj 298 220 hsl 55 10 0 1 0 0 \$0.adsr.d \$0.adsr.d.r d 4 5 0 10
-262144 -191407 -66577 0 1;
#X obj 358 220 hsl 55 10 0 1 0 0 \$0.adsr.s \$0.adsr.s.r s 4 5 0 10
-262144 -191407 -66577 0 1;
#X obj 418 220 hsl 55 10 0 1 0 0 \$0.adsr.r \$0.adsr.r.r r 4 5 0 10
-262144 -191407 -66577 0 1;
#X restore 20 46 pd \$1-ripple;
#X obj 20 22 netpd_head \$1 ripple;
#N canvas 774 161 394 64 NETPD 0;
#X msg 11 19 version 0 0 1;
#N canvas 736 324 403 137 abslist 0;
#X msg 11 18 unpunch-plus;
#X msg 11 48 i2mx;
#X msg 11 78 roman_helpers;
#X msg 11 108 ripple-sampler;
#X msg 108 108 ripple-sample-player;
#X restore 112 20 pd abslist;
#X restore 20 70 pd NETPD 2 0;
#X obj 235 38 r \$0.unpunch;
#X obj 235 61 sel;
#X obj 266 62 t a;
#X obj 235 84 unpunch-plus \$1 ripple;
#N canvas 0 106 572 278 instances 0;
#X obj 18 24 r \$1.selected.instance;
#X obj 69 78 list prepend \$1;
#X msg 69 103 symbol \$1-\$2/sample-table;
#X obj 69 126 s \$0.src.table;
#X obj 35 226 s \$0.instance;
#X obj 52 201 s \$0.length;
#X obj 52 177 tabread \$1.lengths;
#X obj 450 36 r \$1.sample.info;
#X obj 450 151 route length;
#X obj 450 174 unpack f f;
#X obj 450 220 pack f f;
#X obj 450 243 s \$1.lengths;
#X obj 18 48 t b a a a;
#X obj 18 247 s \$0.post.switch;
#X obj 238 65 r \$1.sample.info;
#X obj 265 94 r \$1.selected.instance;
#X obj 238 122 route;
#X obj 238 145 route length;
#X obj 238 168 t b a;
#X obj 265 192 s \$0.length;
#X obj 238 217 s \$0.post.switch;
#X text 233 38 refresh after record;
#X text 17 3 refresh after instance switch;
#X text 453 13 store lengths;
#X obj 450 59 list split 2;
#X msg 450 82 \$2 \$1;
#X obj 450 105 list append;
#X obj 450 128 list trim;
#X obj 450 197 - 1;
#X obj 52 151 - 1;
#X connect 0 0 12 0;
#X connect 1 0 2 0;
#X connect 2 0 3 0;
#X connect 6 0 5 0;
#X connect 7 0 24 0;
#X connect 8 0 9 0;
#X connect 9 0 28 0;
#X connect 9 1 10 1;
#X connect 10 0 11 0;
#X connect 12 0 13 0;
#X connect 12 1 4 0;
#X connect 12 2 29 0;
#X connect 12 3 1 0;
#X connect 14 0 16 0;
#X connect 15 0 16 1;
#X connect 16 0 17 0;
#X connect 17 0 18 0;
#X connect 18 0 20 0;
#X connect 18 1 19 0;
#X connect 24 0 25 0;
#X connect 24 1 26 1;
#X connect 25 0 26 0;
#X connect 26 0 27 0;
#X connect 27 0 8 0;
#X connect 28 0 10 0;
#X connect 29 0 6 0;
#X restore 457 102 pd instances;
#X obj 20 335 table \$1.lengths 6;
#N canvas 0 337 336 198 resolve.cues 0;
#X obj 20 19 inlet;
#X obj 74 63 r \$0.instance;
#X obj 74 109 * 3;
#X obj 20 84 +;
#X obj 20 171 outlet;
#X obj 20 148 tabread \$1-cues;
#X connect 0 0 3 0;
#X connect 1 0 2 0;
#X connect 2 0 3 1;
#X connect 3 0 5 0;
#X connect 5 0 4 0;
#X restore 20 437 pd resolve.cues;
#X obj 171 437 tabread \$1.lengths;
#X floatatom 171 413 5 0 0 0 - - -;
#X floatatom 171 463 10 0 0 0 - - -;
#X obj 20 311 table \$1-cues 18;
#X msg 20 162 \; \$1.default.length 2000 \; \$1.vis.width 600 \; \$1.zoom.min
4000 \; \$1.zoom.max 600 \; \$1.cue.clr.list 855 585 558 \; \$1.loadbang
bang \; \$2.selected.instance 1 \;;
#X obj 20 137 list append \$0 \$1;
#X obj 128 311 netpd_t \$1 cues 21;
#X text 251 304 cues are offset by one instance (3 indices);
#X text 253 319 to circumvent netpd_t bug \, thus 21 instead 18;
#X obj 235 202 clone -s 1 ripple-sample-player 32 \$1;
#X obj 235 153 pack f f f;
#X obj 235 107 list split 2, f 21;
#X obj 235 176 list append;
#X obj 235 132 poly 32 1;
#X obj 235 250 i2mx \$1 ripple, f 37;
#N canvas 0 106 384 205 aggregate.switch~ 0;
#X obj 16 10 inlet;
#X obj 54 40 table \$0.switches 17;
#X obj 16 38 t b a;
#X obj 43 64 s \$0.switches;
#X obj 16 84 array max \$0.switches;
#X obj 16 107 change -1;
#X obj 16 130 outlet;
#X connect 0 0 2 0;
#X connect 2 0 4 0;
#X connect 2 1 3 0;
#X connect 4 0 5 0;
#X connect 5 0 6 0;
#X restore 454 225 pd aggregate.switch~;
#X connect 0 0 24 0;
#X connect 1 0 24 0;
#X connect 3 0 18 0;
#X connect 4 0 18 0;
#X connect 5 0 18 0;
#X connect 12 0 13 0;
#X connect 13 0 15 0;
#X connect 13 1 14 0;
#X connect 14 0 13 1;
#X connect 15 0 30 0;
#X connect 18 0 2 0;
#X connect 19 0 21 0;
#X connect 20 0 19 0;
#X connect 24 0 23 0;
#X connect 28 0 33 0;
#X connect 28 1 33 1;
#X connect 28 2 34 0;
#X connect 29 0 31 0;
#X connect 30 0 32 0;
#X connect 30 1 31 1;
#X connect 31 0 28 0;
#X connect 32 0 29 0;
#X connect 32 1 29 1;
#X connect 32 2 29 2;
#X connect 34 0 33 2;
