#N canvas 385 44 532 442 10;
#N canvas 618 57 332 68 NETPD 0;
#N canvas 312 66 336 156 abslist 0;
#X msg 12 46 master-param;
#X msg 12 77 i2mx;
#X msg 15 11 simplesample-section;
#X msg 18 112 qseq3-instr-list;
#X msg 189 49 roman_helpers;
#X restore 12 34 pd abslist;
#X msg 12 8 version 0 0 9;
#X restore 10 14 pd NETPD 2 0;
#X obj 9 68 netpd_head \$1 simplesample;
#N canvas 815 266 323 299 \$1-simplesample 1;
#X obj 4 80 simplesample-section \$1 1;
#X obj 4 16 cnv 15 303 30 empty empty empty 20 12 0 14 -233017 -66577
0;
#N canvas 0 50 450 300 (subpatch) 0;
#X array \$0.sample 466 float 2;
#X coords 0 1 466 -1 233 30 1 0 0;
#X restore 19 16 graph;
#X obj 21 61 hsl 230 15 0 1 0 0 \$0.playback.cursor \$0.playback.cursor.r
empty -2 -8 0 10 -225271 -225271 -1 0 1;
#X obj 4 61 tgl 15 0 \$1-playback \$1-playback playback 20 8 0 10 -4034
-1 -1 0 1;
#X obj 21 46 hsl 230 15 0 1 0 0 \$0.record.cursor \$0.record.cursor.r
empty -2 -8 0 10 -261689 -261689 -1 22900 1;
#X obj 4 46 bng 15 250 50 0 \$0.record \$0.bli record 20 8 0 10 -258113
-1 -1;
#X obj 252 46 nbx 5 15 1 99 0 0 \$1-adc \$1-adc adc -33 8 0 10 -191407
-1 -1 1 256;
#X obj 252 61 nbx 5 15 1 999 0 0 \$1-length \$1-length length -50 8
0 10 -191407 -1 -1 16 256;
#X obj 4 146 simplesample-section \$1 3;
#X obj 4 113 simplesample-section \$1 2;
#X obj 4 179 simplesample-section \$1 4;
#X obj 4 212 simplesample-section \$1 5;
#X obj 4 245 simplesample-section \$1 6;
#X obj 4 18 vsl 15 25 1 100 1 0 \$0.wave.scale \$0.bli empty 0 -9 0
10 -191407 -1 -1 0 1;
#X restore 10 42 pd \$1-simplesample;
#X obj 14 293 i2mx \$1 simplesample;
#X obj 11 116 master-param step;
#X obj 11 138 t a a;
#N canvas 292 126 337 368 playback 0;
#X obj 32 134 mod;
#X obj 32 158 sel 0;
#X obj 65 37 netpd_f \$1 playback 0;
#X obj 65 59 t a a;
#X obj 32 87 spigot;
#X obj 92 203 sel 0;
#X msg 92 226 stop;
#X obj 47 112 netpd_r \$1 length;
#X obj 32 11 inlet;
#X obj 32 288 outlet~;
#N canvas 841 412 484 300 gui-stuff 0;
#X obj 22 200 s \$0.playback.cursor.r;
#X msg 22 95 0 \, 1 \$1;
#X obj 22 18 inlet;
#X obj 22 72 f;
#X obj 135 68 sel 0;
#X msg 135 90 0;
#X obj 223 15 netpd_r \$1 playback;
#X obj 190 202 s \$0.playback.cursor.r;
#X msg 190 153 -1;
#X obj 190 117 spigot;
#X obj 234 117 sel 0;
#X obj 22 123 line 0 40;
#X msg 190 178 color 6 \$1 -1;
#X msg 234 151 6;
#X obj 37 41 r \$1.length(ms);
#X connect 1 0 11 0;
#X connect 2 0 3 0;
#X connect 2 0 9 0;
#X connect 3 0 1 0;
#X connect 4 0 5 0;
#X connect 5 0 11 0;
#X connect 6 0 4 0;
#X connect 6 0 9 1;
#X connect 6 0 10 0;
#X connect 8 0 12 0;
#X connect 9 0 8 0;
#X connect 10 0 13 0;
#X connect 11 0 0 0;
#X connect 12 0 7 0;
#X connect 13 0 12 0;
#X connect 14 0 3 1;
#X restore 155 205 pd gui-stuff;
#X obj 160 134 r \$0.sample.status;
#X obj 160 156 route length;
#X obj 32 203 f;
#X msg 32 225 0 \$1;
#X obj 32 260 tabplay~ \$1-sample-table;
#X connect 0 0 1 0;
#X connect 1 0 10 0;
#X connect 1 0 13 0;
#X connect 2 0 3 0;
#X connect 3 0 4 1;
#X connect 3 1 5 0;
#X connect 4 0 0 0;
#X connect 5 0 6 0;
#X connect 6 0 15 0;
#X connect 7 0 0 1;
#X connect 8 0 4 0;
#X connect 11 0 12 0;
#X connect 12 0 13 1;
#X connect 13 0 14 0;
#X connect 14 0 15 0;
#X connect 15 0 9 0;
#X restore 11 176 pd playback;
#N canvas 148 44 433 578 recorder 0;
#X obj 44 4 inlet;
#X obj 157 33 r \$0.record;
#X obj 157 77 f;
#X obj 229 83 netpd_r \$1 length;
#X obj 157 124 div;
#X obj 157 166 *;
#X obj 157 146 + 1;
#X obj 44 26 t a a a;
#X msg 102 221 -1;
#X obj 44 222 sel -1;
#N canvas 833 201 484 300 gui-stuff 0;
#X msg 22 149 0 \, 1 \$1;
#X obj 22 18 inlet;
#X msg 190 153 -1;
#X obj 22 173 line 0 40;
#X msg 217 131 3;
#X msg 190 178 color 3 \$1 -1;
#X obj 190 202 s \$0.record.cursor.r;
#X obj 22 85 t a a;
#X obj 190 85 t b a;
#X obj 217 109 delay;
#X obj 22 200 s \$0.record.cursor.r;
#X connect 0 0 3 0;
#X connect 1 0 7 0;
#X connect 2 0 5 0;
#X connect 3 0 10 0;
#X connect 4 0 5 0;
#X connect 5 0 6 0;
#X connect 7 0 0 0;
#X connect 7 1 8 0;
#X connect 8 0 2 0;
#X connect 8 1 9 0;
#X connect 9 0 4 0;
#X restore 71 361 pd gui-stuff;
#X obj 259 354 netpd_f \$1 adc 1;
#X obj 259 401 adc~;
#X msg 259 378 set \$1;
#X obj 260 426 throw~ \$0.sample.audio;
#X obj 167 226 master-param 16th;
#X obj 155 199 netpd_r \$1 length;
#X obj 155 275 *;
#X obj 167 248 t b a;
#X obj 44 312 f;
#X obj 44 334 t a a;
#X msg 44 394 startuntil \$1;
#X obj 44 437 s \$0.sample.in;
#X connect 0 0 7 0;
#X connect 1 0 2 0;
#X connect 2 0 4 0;
#X connect 3 0 4 1;
#X connect 3 0 5 1;
#X connect 4 0 6 0;
#X connect 5 0 9 1;
#X connect 6 0 5 0;
#X connect 7 0 9 0;
#X connect 7 1 2 1;
#X connect 8 0 9 1;
#X connect 9 0 8 0;
#X connect 9 0 19 0;
#X connect 11 0 13 0;
#X connect 12 0 14 0;
#X connect 13 0 12 0;
#X connect 15 0 18 0;
#X connect 16 0 17 0;
#X connect 17 0 19 1;
#X connect 18 0 17 0;
#X connect 18 1 17 1;
#X connect 19 0 20 0;
#X connect 20 0 21 0;
#X connect 20 1 10 0;
#X connect 21 0 22 0;
#X restore 188 177 pd recorder;
#N canvas 943 416 449 196 force_trigger_dsp 0;
#N canvas 0 240 256 177 \$0.deleteme 0;
#X restore 20 15 pd \$0.deleteme;
#X obj 27 58 loadbang;
#X obj 27 134 s pd-\$0.deleteme;
#X msg 27 87 obj 10 10 osc~ 200 \, obj 10 30 s~ 10002.blu \, connect
0 0 1 0 \, clear;
#X connect 1 0 3 0;
#X connect 3 0 2 0;
#X restore 115 13 pd force_trigger_dsp;
#X text 15 346 no netpd syncing implemented yet!;
#X obj 270 86 s \$1.length(ms);
#X obj 16 364 qseq3-instr-list \$1 simplesample sample1 sample2 sample3
sample4 sample5 sample6;
#X obj 11 221 throw~ \$1.ss.sumL;
#X obj 19 199 throw~ \$1.ss.sumR;
#X obj 14 247 catch~ \$1.ss.sumL;
#X obj 73 268 catch~ \$1.ss.sumR;
#N canvas 887 381 280 259 wavedisplay 0;
#X obj 30 229 rh_wavedisplay \$0.sample 466;
#X obj 30 138 list trim;
#X msg 114 185 scale \$1;
#X obj 114 159 r \$0.wave.scale;
#X obj 30 116 list prepend set \$1-sample-table 0;
#X obj 74 20 r \$0.sample.status;
#X obj 26 27 bng 15 250 50 0 empty empty empty 17 7 0 10 -262144 -1
-1;
#X obj 74 42 route length;
#X obj 30 67 f;
#X connect 1 0 0 0;
#X connect 2 0 0 0;
#X connect 3 0 2 0;
#X connect 4 0 1 0;
#X connect 5 0 7 0;
#X connect 6 0 8 0;
#X connect 7 0 8 1;
#X connect 8 0 4 0;
#X restore 188 203 pd wavedisplay;
#X obj 240 270 netpd_sample \$1 sample;
#X obj 240 299 s \$0.sample.status;
#X obj 240 243 r \$0.sample.in;
#X obj 270 18 r \$0.sample.status;
#X obj 270 40 route length;
#N canvas 0 44 303 187 samp2ms 0;
#X obj 20 23 inlet;
#X obj 20 151 outlet;
#X obj 20 52 t a b;
#X obj 47 76 samplerate~;
#X obj 20 100 /;
#X obj 20 124 * 1000;
#X connect 0 0 2 0;
#X connect 2 0 4 0;
#X connect 2 1 3 0;
#X connect 3 0 4 1;
#X connect 4 0 5 0;
#X connect 5 0 1 0;
#X restore 270 63 pd samp2ms;
#X obj 368 245 catch~ \$0.sample.audio;
#X obj 281 126 netpd_f \$1 length 16;
#X connect 4 0 5 0;
#X connect 5 0 6 0;
#X connect 5 1 7 0;
#X connect 6 0 12 0;
#X connect 6 0 13 0;
#X connect 14 0 3 0;
#X connect 15 0 3 1;
#X connect 17 0 18 0;
#X connect 19 0 17 0;
#X connect 20 0 21 0;
#X connect 21 0 22 0;
#X connect 22 0 10 0;
#X connect 23 0 17 1;
