#N struct 1681.button float posx float posy float color;
#N struct 1681.cursor float cx float cy float cy2;
#N canvas 387 82 578 580 10;
#N canvas 624 75 315 71 NETPD 0;
#N canvas 636 194 303 48 abslist 0;
#X msg 69 17 i2mx;
#X msg 11 19 unstep;
#X restore 11 33 pd abslist;
#X msg 12 8 version 0 0 2;
#X restore 10 14 pd NETPD 2 0;
#X obj 10 67 netpd_head \$1 sine;
#N canvas 699 109 296 131 \$1-sine 1;
#X obj 7 7 hsl 260 17 0 1 0 0 \$1-volume \$1-volume volume 100 8 0
13 -66577 -4032 -262144 20720 1;
#X obj 7 27 hsl 260 17 0 1 0 0 \$1-glide \$1-glide glide 100 8 0 13
-66577 -4032 -262144 0 1;
#X obj 7 47 hsl 260 17 0 1 0 0 \$1-attack \$1-attack attack 100 8 0
13 -66577 -4032 -262144 0 1;
#X obj 7 67 hsl 260 17 0 1 0 0 \$1-hold \$1-hold hold 100 8 0 13 -66577
-4032 -262144 0 1;
#X obj 7 87 hsl 260 17 0 1 0 0 \$1-decay \$1-decay decay 100 8 0 13
-66577 -4032 -262144 0 1;
#X obj 7 107 hsl 81 17 0 1 0 0 \$0.unstep1 \$0.bli unstep1 10 8 0 13
-66577 -66577 -262144 0 1;
#X obj 96 107 hsl 81 17 0 1 0 0 \$0.unstep2 \$0.bli unstep2 10 8 0
13 -66577 -66577 -262144 0 1;
#X obj 185 107 hsl 82 17 0 1 0 0 \$0.unstep3 \$0.bli unstep3 10 8 0
13 -66577 -66577 -262144 0 1;
#X restore 10 42 pd \$1-sine;
#X msg 12 125 vis 1;
#N canvas 517 286 177 137 glide 0;
#X obj 29 17 netpd_f \$1 glide 0;
#X obj 29 39 t a a;
#X obj 29 61 *;
#X obj 29 83 * 5000;
#X obj 29 105 outlet;
#X connect 0 0 1 0;
#X connect 1 0 2 0;
#X connect 1 1 2 1;
#X connect 2 0 3 0;
#X connect 3 0 4 0;
#X restore 33 271 pd glide;
#X obj 12 291 pack;
#X msg 12 312 \$1 \$2;
#X obj 13 357 mtof~;
#X obj 14 382 osc~;
#X obj 13 480 i2mx \$1 sine;
#X obj 13 410 *~;
#N canvas 398 372 231 103 vis.unstep 0;
#X obj -480 13 r \$0.unstep;
#X obj -480 67 outlet;
#X obj -429 45 t a;
#X obj -480 45 sel 0;
#X connect 0 0 3 0;
#X connect 2 0 3 1;
#X connect 3 0 1 0;
#X connect 3 1 2 0;
#X restore 12 101 pd vis.unstep;
#X obj 229 410 vline~;
#X obj 12 334 vline~;
#X obj 229 432 dbtorms~;
#N canvas 517 342 177 137 attack 0;
#X obj 29 39 t a a;
#X obj 29 61 *;
#X obj 29 105 outlet;
#X obj 29 83 * 3000;
#X obj 29 17 netpd_f \$1 attack 0;
#X connect 0 0 1 0;
#X connect 0 1 1 1;
#X connect 1 0 3 0;
#X connect 3 0 2 0;
#X connect 4 0 0 0;
#X restore 291 207 pd attack;
#N canvas 517 398 177 137 decay 0;
#X obj 29 39 t a a;
#X obj 29 61 *;
#X obj 29 105 outlet;
#X obj 29 17 netpd_f \$1 decay 0;
#X obj 29 83 * 5000;
#X connect 0 0 1 0;
#X connect 0 1 1 1;
#X connect 1 0 4 0;
#X connect 3 0 0 0;
#X connect 4 0 2 0;
#X restore 404 207 pd decay;
#N canvas 517 398 177 137 hold 0;
#X obj 29 39 t a a;
#X obj 29 61 *;
#X obj 29 105 outlet;
#X obj 29 83 * 5000;
#X obj 29 17 netpd_f \$1 hold 0;
#X connect 0 0 1 0;
#X connect 0 1 1 1;
#X connect 1 0 3 0;
#X connect 3 0 2 0;
#X connect 4 0 0 0;
#X restore 353 207 pd hold;
#X obj 229 364 pack f f f f;
#X obj 244 311 t a a;
#X obj 282 311 t b a;
#X obj 271 336 +;
#X obj 229 337 f;
#X obj 12 206 t a b;
#N canvas 517 398 177 137 attack 0;
#X obj 29 39 t a a;
#X obj 29 61 *;
#X obj 29 105 outlet;
#X obj 29 83 * 3000;
#X obj 29 17 inlet;
#X connect 0 0 1 0;
#X connect 0 1 1 1;
#X connect 1 0 3 0;
#X connect 3 0 2 0;
#X connect 4 0 0 0;
#X restore 72 210 pd attack;
#N canvas 517 398 177 137 decay 0;
#X obj 29 39 t a a;
#X obj 29 61 *;
#X obj 29 105 outlet;
#X obj 29 83 * 5000;
#X obj 29 17 inlet;
#X connect 0 0 1 0;
#X connect 0 1 1 1;
#X connect 1 0 3 0;
#X connect 3 0 2 0;
#X connect 4 0 0 0;
#X restore 189 210 pd decay;
#N canvas 517 454 177 137 hold 0;
#X obj 29 39 t a a;
#X obj 29 61 *;
#X obj 29 105 outlet;
#X obj 29 83 * 5000;
#X obj 29 17 inlet;
#X connect 0 0 1 0;
#X connect 0 1 1 1;
#X connect 1 0 3 0;
#X connect 3 0 2 0;
#X connect 4 0 0 0;
#X restore 140 210 pd hold;
#X msg 229 387 \$4 \$1 \, 0 \$3 \$2;
#X obj 244 287 +;
#X obj 282 286 +;
#X obj 312 285 +;
#X obj 12 150 unstep \$1 sine1 level attack hold decay;
#N canvas 620 406 450 300 level 0;
#X obj 19 18 inlet;
#X obj 19 40 t a a;
#X obj 19 62 *;
#X obj 19 84 outlet;
#X connect 0 0 1 0;
#X connect 1 0 2 0;
#X connect 1 1 2 1;
#X connect 2 0 3 0;
#X restore 244 210 pd level;
#N canvas 517 426 176 150 volume 0;
#X obj 29 39 t a a;
#X obj 29 64 *;
#X obj 29 125 outlet;
#X obj 29 17 netpd_f \$1 volume 0.8;
#X obj 29 86 rmstodb;
#X connect 0 0 1 0;
#X connect 0 1 1 1;
#X connect 1 0 4 0;
#X connect 3 0 0 0;
#X connect 4 0 2 0;
#X restore 466 210 pd volume;
#X obj 12 173 route note attack hold decay level;
#X connect 3 0 31 0;
#X connect 4 0 5 1;
#X connect 5 0 6 0;
#X connect 6 0 13 0;
#X connect 7 0 8 0;
#X connect 8 0 10 0;
#X connect 10 0 9 0;
#X connect 10 0 9 1;
#X connect 11 0 3 0;
#X connect 12 0 14 0;
#X connect 13 0 7 0;
#X connect 14 0 10 1;
#X connect 15 0 28 1;
#X connect 16 0 30 1;
#X connect 17 0 29 1;
#X connect 18 0 27 0;
#X connect 19 0 22 1;
#X connect 19 1 21 0;
#X connect 20 0 21 0;
#X connect 20 1 21 1;
#X connect 21 0 18 1;
#X connect 22 0 18 0;
#X connect 23 0 5 0;
#X connect 23 1 22 0;
#X connect 24 0 28 0;
#X connect 25 0 30 0;
#X connect 26 0 29 0;
#X connect 27 0 12 0;
#X connect 28 0 19 0;
#X connect 29 0 20 0;
#X connect 30 0 18 2;
#X connect 31 0 34 0;
#X connect 33 0 18 3;
#X connect 34 0 23 0;
#X connect 34 1 24 0;
#X connect 34 2 26 0;
#X connect 34 3 25 0;
#X connect 34 4 32 0;
