#N struct 2907.button float posx float posy float color;
#N struct 2907.cursor float cx float cy float cy2;
#N struct 2840-automation float yshift array variy 2840-automation-element
;
#N struct 2840-automation-element float y;
#N struct 2839.autolabel float x float y symbol lbl float color float
track;
#N struct 2976.button float posx float posy float color;
#N struct 2976.cursor float cx float cy float cy2;
#N struct 2909-automation float yshift array variy 2909-automation-element
;
#N struct 2909-automation-element float y;
#N struct 2908.autolabel float x float y symbol lbl float color float
track;
#N struct 3045.button float posx float posy float color;
#N struct 3045.cursor float cx float cy float cy2;
#N struct 2978-automation float yshift array variy 2978-automation-element
;
#N struct 2978-automation-element float y;
#N struct 2977.autolabel float x float y symbol lbl float color float
track;
#N canvas 410 94 632 644 10;
#N canvas 624 75 315 71 NETPD 0;
#N canvas 636 194 303 48 abslist 0;
#X msg 69 17 i2mx;
#X msg 11 19 unstep;
#X msg 115 19 sine-voice;
#X restore 11 33 pd abslist;
#X msg 12 8 version 0 0 2;
#X restore 10 14 pd NETPD 2 0;
#X obj 10 67 netpd_head \$1 sine;
#N canvas 702 112 295 133 \$1-sine 1;
#X obj 7 7 hsl 183 17 0 1 0 0 \$1-volume \$1-volume volume 100 8 0
13 -66577 -4032 -262144 9900 1;
#X obj 7 27 hsl 260 17 0 1 0 0 \$1-glide \$1-glide glide 100 8 0 13
-66577 -4032 -262144 0 1;
#X obj 7 47 hsl 260 17 0 1 0 0 \$1-attack \$1-attack attack 100 8 0
13 -66577 -4032 -262144 1295 1;
#X obj 7 67 hsl 260 17 0 1 0 0 \$1-hold \$1-hold hold 100 8 0 13 -66577
-4032 -262144 0 1;
#X obj 7 87 hsl 260 17 0 1 0 0 \$1-decay \$1-decay decay 100 8 0 13
-66577 -4032 -262144 12950 1;
#X obj 7 107 hsl 81 17 0 1 0 0 \$0.unstep1 \$0.bli unstep1 10 8 0 13
-66577 -66577 -262144 300 1;
#X obj 96 107 hsl 81 17 0 1 0 0 \$0.unstep2 \$0.bli unstep2 10 8 0
13 -66577 -66577 -262144 0 1;
#X obj 185 107 hsl 82 17 0 1 0 0 \$0.unstep3 \$0.bli unstep3 10 8 0
13 -66577 -66577 -262144 0 1;
#X obj 195 7 nbx 6 17 1 36 0 0 \$1-voices \$1-voices voices 28 9 0
12 -66577 -4032 -262144 1 256;
#X restore 10 42 pd \$1-sine;
#X obj 15 489 i2mx \$1 sine;
#N canvas 517 370 185 142 attack 0;
#X obj 29 39 t a a;
#X obj 29 61 *;
#X obj 29 105 outlet;
#X obj 29 83 * 3000;
#X obj 29 17 netpd_f \$1 attack 0.05;
#X connect 0 0 1 0;
#X connect 0 1 1 1;
#X connect 1 0 3 0;
#X connect 3 0 2 0;
#X connect 4 0 0 0;
#X restore 302 199 pd attack;
#N canvas 517 426 177 137 decay 0;
#X obj 29 39 t a a;
#X obj 29 61 *;
#X obj 29 105 outlet;
#X obj 29 83 * 5000;
#X obj 29 19 netpd_f \$1 decay 0.5;
#X connect 0 0 1 0;
#X connect 0 1 1 1;
#X connect 1 0 3 0;
#X connect 3 0 2 0;
#X connect 4 0 0 0;
#X restore 415 199 pd decay;
#N canvas 517 398 177 137 hold 0;
#X obj 29 39 t a a;
#X obj 29 61 *;
#X obj 29 105 outlet;
#X obj 29 83 * 5000;
#X obj 29 17 netpd_f \$1 hold 0;
#X connect 0 0 1 0;
#X connect 0 1 1 1;
#X connect 1 0 3 0;
#X connect 3 0 2 0;
#X connect 4 0 0 0;
#X restore 364 199 pd hold;
#X obj 226 280 t a a;
#X obj 264 280 t b a;
#X obj 253 305 +;
#X obj 211 306 f;
#X obj 14 195 t a b;
#N canvas 517 398 177 137 attack 0;
#X obj 29 39 t a a;
#X obj 29 61 *;
#X obj 29 105 outlet;
#X obj 29 83 * 3000;
#X obj 29 17 inlet;
#X connect 0 0 1 0;
#X connect 0 1 1 1;
#X connect 1 0 3 0;
#X connect 3 0 2 0;
#X connect 4 0 0 0;
#X restore 74 199 pd attack;
#N canvas 517 398 177 137 decay 0;
#X obj 29 39 t a a;
#X obj 29 61 *;
#X obj 29 105 outlet;
#X obj 29 83 * 5000;
#X obj 29 17 inlet;
#X connect 0 0 1 0;
#X connect 0 1 1 1;
#X connect 1 0 3 0;
#X connect 3 0 2 0;
#X connect 4 0 0 0;
#X restore 191 199 pd decay;
#N canvas 517 454 177 137 hold 0;
#X obj 29 39 t a a;
#X obj 29 61 *;
#X obj 29 105 outlet;
#X obj 29 83 * 5000;
#X obj 29 17 inlet;
#X connect 0 0 1 0;
#X connect 0 1 1 1;
#X connect 1 0 3 0;
#X connect 3 0 2 0;
#X connect 4 0 0 0;
#X restore 142 199 pd hold;
#X obj 226 256 +;
#X obj 264 255 +;
#X obj 294 254 +;
#N canvas 620 406 450 300 level 0;
#X obj 19 18 inlet;
#X obj 19 40 t a a;
#X obj 19 62 *;
#X obj 19 84 outlet;
#X connect 0 0 1 0;
#X connect 1 0 2 0;
#X connect 1 1 2 1;
#X connect 2 0 3 0;
#X restore 246 199 pd level;
#N canvas 517 482 176 150 volume 0;
#X obj 29 39 t a a;
#X obj 29 64 *;
#X obj 29 125 outlet;
#X obj 29 17 netpd_f \$1 volume 0.8;
#X connect 0 0 1 0;
#X connect 0 1 1 1;
#X connect 1 0 2 0;
#X connect 3 0 0 0;
#X restore 470 199 pd volume;
#X obj 14 162 route note attack hold decay level;
#N canvas 0 44 365 151 unstep1 0;
#X obj 23 101 outlet;
#X msg 23 53 vis 1;
#X obj 23 76 unstep \$1 sine1 level attack hold decay;
#N canvas 398 372 307 120 vis.unstep1 0;
#X obj 8 63 outlet;
#X obj 59 41 t a;
#X obj 8 41 sel 0;
#X obj 8 9 r \$0.unstep1;
#X connect 1 0 2 1;
#X connect 2 0 0 0;
#X connect 2 1 1 0;
#X connect 3 0 2 0;
#X restore 23 29 pd vis.unstep1;
#X connect 1 0 2 0;
#X connect 2 0 0 0;
#X connect 3 0 1 0;
#X restore 14 110 pd unstep1;
#N canvas 0 44 360 158 unstep2 0;
#X obj 31 95 outlet;
#X msg 31 42 vis 1;
#X obj 31 71 unstep \$1 sine2 level attack hold decay;
#N canvas 398 372 307 120 vis.unstep2 0;
#X obj 8 63 outlet;
#X obj 59 41 t a;
#X obj 8 41 sel 0;
#X obj 8 9 r \$0.unstep2;
#X connect 1 0 2 1;
#X connect 2 0 0 0;
#X connect 2 1 1 0;
#X connect 3 0 2 0;
#X restore 31 18 pd vis.unstep2;
#X connect 1 0 2 0;
#X connect 2 0 0 0;
#X connect 3 0 1 0;
#X restore 84 110 pd unstep2;
#N canvas 661 163 334 176 unstep3 0;
#X obj 37 112 outlet;
#X msg 37 58 vis 1;
#X obj 37 83 unstep \$1 sine3 level attack hold decay;
#N canvas 398 372 307 120 vis.unstep3 0;
#X obj 8 63 outlet;
#X obj 59 41 t a;
#X obj 8 41 sel 0;
#X obj 8 9 r \$0.unstep3;
#X connect 1 0 2 1;
#X connect 2 0 0 0;
#X connect 2 1 1 0;
#X connect 3 0 2 0;
#X restore 37 34 pd vis.unstep3;
#X connect 1 0 2 0;
#X connect 2 0 0 0;
#X connect 3 0 1 0;
#X restore 154 110 pd unstep3;
#N canvas 517 342 177 137 glide 0;
#X obj 29 17 netpd_f \$1 glide 0;
#X obj 29 39 t a a;
#X obj 29 61 *;
#X obj 29 83 * 5000;
#X obj 29 105 outlet;
#X connect 0 0 1 0;
#X connect 1 0 2 0;
#X connect 1 1 2 1;
#X connect 2 0 3 0;
#X connect 3 0 4 0;
#X restore 532 199 pd glide;
#X obj 211 333 pack f f f f f;
#X obj 211 362 s \$1-sine/params;
#X obj 15 438 catch~ \$1-sum/left;
#X obj 49 464 catch~ \$1-sum/right;
#N canvas 0 44 302 200 voice.assign 0;
#X obj 16 22 inlet;
#X obj 16 151 outlet;
#X obj 111 97 netpd_f \$1 voices 1;
#X obj 16 44 t b a;
#X obj 16 76 f;
#X obj 76 72 + 1;
#X obj 76 94 mod;
#X obj 16 119 pack f f;
#X connect 0 0 3 0;
#X connect 2 0 6 1;
#X connect 3 0 4 0;
#X connect 3 1 7 1;
#X connect 4 0 5 0;
#X connect 4 0 7 0;
#X connect 5 0 6 0;
#X connect 6 0 4 1;
#X connect 7 0 1 0;
#X restore 14 307 pd voice.assign;
#X obj 14 356 s \$1-sine/notes;
#N canvas 0 44 450 300 voices 0;
#X obj 14 16 sine-voice \$1 0;
#X obj 14 36 sine-voice \$1 1;
#X obj 14 56 sine-voice \$1 2;
#X obj 14 77 sine-voice \$1 3;
#X obj 14 98 sine-voice \$1 4;
#X obj 14 118 sine-voice \$1 5;
#X obj 14 138 sine-voice \$1 6;
#X obj 14 159 sine-voice \$1 7;
#X obj 14 179 sine-voice \$1 8;
#X obj 14 199 sine-voice \$1 9;
#X obj 14 219 sine-voice \$1 10;
#X obj 14 240 sine-voice \$1 11;
#X obj 144 16 sine-voice \$1 12;
#X obj 144 36 sine-voice \$1 13;
#X obj 144 56 sine-voice \$1 14;
#X obj 144 77 sine-voice \$1 15;
#X obj 144 98 sine-voice \$1 16;
#X obj 144 118 sine-voice \$1 17;
#X obj 144 138 sine-voice \$1 18;
#X obj 144 159 sine-voice \$1 19;
#X obj 144 179 sine-voice \$1 20;
#X obj 144 199 sine-voice \$1 21;
#X obj 144 219 sine-voice \$1 22;
#X obj 144 240 sine-voice \$1 23;
#X obj 274 16 sine-voice \$1 24;
#X obj 274 36 sine-voice \$1 25;
#X obj 274 56 sine-voice \$1 26;
#X obj 274 77 sine-voice \$1 27;
#X obj 274 98 sine-voice \$1 28;
#X obj 274 118 sine-voice \$1 29;
#X obj 274 138 sine-voice \$1 30;
#X obj 274 159 sine-voice \$1 31;
#X obj 274 179 sine-voice \$1 32;
#X obj 274 199 sine-voice \$1 33;
#X obj 274 219 sine-voice \$1 34;
#X obj 274 240 sine-voice \$1 35;
#X restore 117 398 pd voices;
#X obj 326 254 +;
#X obj 326 279 min 1;
#X obj 326 304 rmstodb;
#X connect 4 0 15 1;
#X connect 5 0 17 1;
#X connect 6 0 16 1;
#X connect 7 0 10 1;
#X connect 7 1 9 0;
#X connect 8 0 9 0;
#X connect 8 1 9 1;
#X connect 9 0 25 1;
#X connect 10 0 25 0;
#X connect 11 0 29 0;
#X connect 11 1 10 0;
#X connect 12 0 15 0;
#X connect 13 0 17 0;
#X connect 14 0 16 0;
#X connect 15 0 7 0;
#X connect 16 0 8 0;
#X connect 17 0 25 2;
#X connect 18 0 32 0;
#X connect 19 0 32 1;
#X connect 20 0 11 0;
#X connect 20 1 12 0;
#X connect 20 2 14 0;
#X connect 20 3 13 0;
#X connect 20 4 18 0;
#X connect 21 0 20 0;
#X connect 22 0 20 0;
#X connect 23 0 20 0;
#X connect 24 0 25 4;
#X connect 25 0 26 0;
#X connect 27 0 3 0;
#X connect 28 0 3 1;
#X connect 29 0 30 0;
#X connect 32 0 33 0;
#X connect 33 0 34 0;
#X connect 34 0 25 3;
