#N struct 1357.bg;
#N struct 1358.bg;
#N struct 1342.number float number float fgclr;
#N struct 1343.number float number float fgclr;
#N struct 1344.number float number float fgclr;
#N struct 1345.number float number float fgclr;
#N struct 1346.number float number float fgclr;
#N struct 1347.button symbol label float fgclr float bgclr;
#N struct 1361.bg;
#N struct 1362.bg;
#N struct 1350.button symbol label float fgclr float bgclr;
#N struct 1351.number float number float fgclr;
#N struct 1352.number float number float fgclr;
#N struct 1353.number float number float fgclr;
#N struct 1354.number float number float fgclr;
#N struct 1355.number float number float fgclr;
#N struct 1356.number float number float fgclr;
#N canvas 258 167 656 477 10;
#N canvas 643 64 687 330 \$1-structuralist 1;
#N canvas 0 44 774 397 rhythm.edit 0;
#X obj 20 37 struct_gop629x12 \$0.rhythm.selector;
#X obj 20 54 struct_gop629x12 \$0.rhythm.array;
#X obj 272 20 struct_number_ \$0.rhythm.length length= 999 245 666
;
#X obj 104 20 struct_number_ \$0.rhythm.ref ref= 999 245 666;
#X obj 188 20 struct_number_ \$0.rhythm.notes notes= 999 245 666;
#X obj 356 20 cnv 10 335 16 empty empty empty 20 12 0 14 -262144 -66577
0;
#X obj 188 71 cnv 10 504 16 empty empty empty 20 12 0 14 -262144 -66577
0;
#X obj 20 71 struct_number_ \$0.rhythm.edit.ref ref= 999 245 666;
#X obj 104 71 struct_number_ \$0.rhythm.edit.length length= 999 245
666;
#X obj 20 20 struct_button_ \$0.rhythm.create create 999 245 666;
#X coords 0 -1 1 1 671 67 2 20 20;
#X restore 6 47 pd rhythm.edit;
#X obj 7 4 cnv 15 669 24 empty empty S|T|R|U|C|T|U|R|A|L|I|S|T -1 13
0 16 -262144 -67625 0;
#X obj 7 116 cnv 14 672 14 empty empty T/O/N/E 2 7 0 12 -45076 -262144
0;
#X obj 7 31 cnv 14 672 14 empty empty R/H/Y/T/H/M 2 7 0 12 -45076 -262144
0;
#N canvas 0 44 774 397 tone.edit 0;
#X obj 20 37 struct_gop629x12 \$0.tone.selector;
#X obj 20 54 struct_gop629x12 \$0.tone.array;
#X obj 20 20 struct_button_ \$0.tone.create create 999 245 666;
#X obj 104 20 struct_number_ \$0.tone.ref ref= 999 245 666;
#X obj 272 20 cnv 10 419 16 empty empty empty 20 12 0 14 -262144 -66577
0;
#X obj 188 20 struct_number_ \$0.tone.rhythm rhythm= 999 245 666;
#X obj 20 71 struct_number_ \$0.tone.edit.ref ref= 999 245 666;
#X obj 104 71 struct_number_ \$0.tone.edit.rhythm rhythm= 999 245 666
;
#X obj 188 71 struct_number_ \$0.tone.edit.oct oct= 999 245 666;
#X obj 272 71 struct_number_ \$0.tone.edit.semi semi= 999 245 666;
#X obj 356 71 cnv 10 335 16 empty empty empty 20 12 0 14 -262144 -66577
0;
#X coords 0 -1 1 1 671 67 2 20 20;
#X restore 6 132 pd tone.edit;
#X coords 0 330 1 329 671 67 0;
#X restore 482 27 pd \$1-structuralist;
#N canvas 991 190 545 550 player 0;
#X floatatom 157 111 5 0 0 0 - - -, f 5;
#X obj 157 136 tabread \$0.pitch;
#X obj 184 182 + 2;
#X obj 184 204 tabread \$0.pitch;
#X obj 184 260 tabread \$0.rhythm;
#X text 207 109 pitch set;
#X text 205 232 rhythm set;
#X obj 387 347 + 2;
#X obj 387 367 tabread \$0.rhythm;
#X text 423 417 length;
#X floatatom 387 418 5 0 0 0 - - -, f 5;
#X obj 272 368 tabread \$0.rhythm;
#X obj 272 390 - 5;
#X floatatom 272 417 5 0 0 0 - - -, f 5;
#X text 306 417 notecount;
#X obj 157 158 t a a;
#X obj 157 181 + 5;
#X obj 31 280 +;
#X floatatom 31 201 5 0 0 0 - - -, f 5;
#X obj 31 361 tabread \$0.pitch;
#X floatatom 31 410 5 0 0 0 - - -, f 5;
#X text 65 410 pitch;
#X obj 184 282 t a a a;
#X obj 31 220 t a a;
#X obj 184 304 + 5;
#X obj 136 334 +;
#X floatatom 136 406 5 0 0 0 - - -, f 5;
#X text 170 406 rhythm;
#X text 66 200 index;
#X obj 136 361 tabread \$0.rhythm;
#X obj 35 121 bng 15 250 50 0 empty empty empty 17 7 0 10 -262144 -1
-1;
#X connect 0 0 1 0;
#X connect 1 0 15 0;
#X connect 2 0 3 0;
#X connect 3 0 4 0;
#X connect 4 0 22 0;
#X connect 7 0 8 0;
#X connect 8 0 10 0;
#X connect 11 0 12 0;
#X connect 12 0 13 0;
#X connect 15 0 16 0;
#X connect 15 1 2 0;
#X connect 16 0 17 1;
#X connect 17 0 19 0;
#X connect 18 0 23 0;
#X connect 19 0 20 0;
#X connect 22 0 24 0;
#X connect 22 1 11 0;
#X connect 22 2 7 0;
#X connect 23 0 17 0;
#X connect 23 1 25 0;
#X connect 24 0 25 1;
#X connect 25 0 29 0;
#X connect 29 0 26 0;
#X restore 25 424 pd player;
#N canvas 213 198 797 536 rhythm.generate.logic 0;
#X obj 606 15 loadbang;
#X obj 606 37 \$0;
#X obj 439 48 route count;
#X obj 439 26 r \$0.rhythm.o;
#X msg 439 69 range 0 \$1;
#X obj 303 197 r \$0.rhythm.o;
#X obj 303 176 s \$0.rhythm.i;
#X obj 276 156 t b a;
#X obj 276 221 list append;
#X obj 68 157 route float;
#X obj 50 277 route float;
#X obj 145 437 route float;
#X obj 35 49 t b b b b;
#X obj 35 155 f;
#X obj 35 298 f;
#X msg 62 342 new \$1;
#X obj 62 364 s \$0.rhythm.i;
#X obj 35 437 list append;
#X msg 35 461 set \$1 length \$2;
#X obj 35 484 s \$0.rhythm.i;
#X obj 35 184 sel 0;
#X msg 62 208 alias \$1;
#X obj 62 230 s \$0.rhythm.i;
#X obj 276 99 t a a;
#X obj 249 74 sel 0;
#X obj 420 194 r \$0.rhythm.o;
#X obj 420 173 s \$0.rhythm.i;
#X obj 393 153 t b a;
#X obj 393 215 list append;
#X msg 393 131 resolve \$1 length;
#X msg 249 350 range \$1 \$2;
#X msg 393 326 range \$1 \$2;
#X msg 276 264 \$1 \$1;
#X msg 393 258 \$1 \$1;
#X obj 249 291 t b b;
#X msg 249 315 1 24;
#X msg 350 289 1 999;
#X obj 249 52 route float;
#X obj 8 27 t b b;
#X obj 8 504 s \$0.rhythm.update;
#X obj 72 411 route count;
#X obj 72 389 r \$0.rhythm.o;
#X obj 35 320 t b a;
#X obj 35 401 f;
#X msg 276 134 get \$1 size;
#X obj 8 5 r \$0.rhythm.create;
#X obj 86 72 s \$0.rhythm.length;
#X obj 69 92 s \$0.rhythm.notes;
#X obj 52 111 s \$0.rhythm.ref;
#X obj 68 135 r \$0.rhythm.ref;
#X obj 50 255 r \$0.rhythm.notes;
#X obj 145 415 r \$0.rhythm.length;
#X obj 249 30 r \$0.rhythm.ref;
#X obj 249 372 s \$0.rhythm.notes;
#X obj 439 91 s \$0.rhythm.ref;
#X obj 393 348 s \$0.rhythm.length;
#X msg 606 59 \; \$1.rhythm.ref 0 \; \$1.rhythm.ref range 0 0 \; \$1.rhythm.notes
4 \; \$1.rhythm.notes range 1 24 \; \$1.rhythm.length 4 \; \$1.rhythm.length
range 1 999;
#X msg 554 383 disable \$1;
#X obj 554 405 s \$0.rhythm.notes;
#X msg 581 339 disable \$1;
#X obj 581 361 s \$0.rhythm.length;
#X obj 554 272 route float;
#X obj 554 250 r \$0.rhythm.ref;
#X obj 554 294 != 0;
#X obj 554 316 t a a;
#X obj 276 243 int;
#X obj 393 237 int;
#X connect 0 0 1 0;
#X connect 1 0 56 0;
#X connect 2 0 4 0;
#X connect 3 0 2 0;
#X connect 4 0 54 0;
#X connect 5 0 8 1;
#X connect 7 0 8 0;
#X connect 7 1 6 0;
#X connect 8 0 65 0;
#X connect 9 0 13 1;
#X connect 10 0 14 1;
#X connect 11 0 17 1;
#X connect 12 0 13 0;
#X connect 12 1 48 0;
#X connect 12 2 47 0;
#X connect 12 3 46 0;
#X connect 13 0 20 0;
#X connect 14 0 42 0;
#X connect 15 0 16 0;
#X connect 17 0 18 0;
#X connect 18 0 19 0;
#X connect 20 0 14 0;
#X connect 20 1 21 0;
#X connect 21 0 22 0;
#X connect 23 0 44 0;
#X connect 23 1 29 0;
#X connect 24 0 34 0;
#X connect 24 1 23 0;
#X connect 25 0 28 1;
#X connect 27 0 28 0;
#X connect 27 1 26 0;
#X connect 28 0 66 0;
#X connect 29 0 27 0;
#X connect 30 0 53 0;
#X connect 31 0 55 0;
#X connect 32 0 30 0;
#X connect 33 0 31 0;
#X connect 34 0 35 0;
#X connect 34 1 36 0;
#X connect 35 0 30 0;
#X connect 36 0 31 0;
#X connect 37 0 24 0;
#X connect 38 0 39 0;
#X connect 38 1 12 0;
#X connect 40 0 43 1;
#X connect 41 0 40 0;
#X connect 42 0 43 0;
#X connect 42 1 15 0;
#X connect 43 0 17 0;
#X connect 44 0 7 0;
#X connect 45 0 38 0;
#X connect 49 0 9 0;
#X connect 50 0 10 0;
#X connect 51 0 11 0;
#X connect 52 0 37 0;
#X connect 57 0 58 0;
#X connect 59 0 60 0;
#X connect 61 0 63 0;
#X connect 62 0 61 0;
#X connect 63 0 64 0;
#X connect 64 0 57 0;
#X connect 64 1 59 0;
#X connect 65 0 32 0;
#X connect 66 0 33 0;
#X restore 24 50 pd rhythm.generate.logic;
#N canvas 60 119 402 358 rhythm.selector.logic 0;
#X obj 41 73 route count;
#X obj 26 161 t a a;
#X obj 26 138 change 1;
#X obj 26 116 max 1;
#X obj 26 210 t a;
#X obj 41 51 r \$0.rhythm.o;
#X obj 26 95 f;
#X obj 26 25 r \$0.rhythm.update;
#X obj 104 126 r \$0.rhythm.reset;
#X msg 104 148 0;
#X msg 53 183 count \$1;
#X obj 26 234 struct_selector_ pd-\$0.rhythm.selector;
#X obj 26 261 outlet;
#X obj 187 180 r \$0.rhythm.selector;
#X connect 0 0 6 1;
#X connect 1 0 4 0;
#X connect 1 1 10 0;
#X connect 2 0 1 0;
#X connect 3 0 2 0;
#X connect 4 0 11 0;
#X connect 5 0 0 0;
#X connect 6 0 3 0;
#X connect 7 0 6 0;
#X connect 8 0 9 0;
#X connect 9 0 10 0;
#X connect 10 0 4 0;
#X connect 11 0 12 0;
#X connect 13 0 11 0;
#X restore 24 76 pd rhythm.selector.logic;
#N canvas 0 44 508 680 rhythm.edit.logic 0;
#X obj 68 129 s \$0.rhythm.i;
#X obj 68 152 r \$0.rhythm.o;
#X obj 41 108 t b a;
#X obj 41 176 list append;
#X msg 180 217 reset;
#X msg 41 228 add \$1;
#N canvas 507 320 146 198 serialize 0;
#X obj 9 118 list split 1;
#X obj 9 74 until;
#X obj 9 96 list append;
#X obj 9 53 t b a;
#X obj 9 30 inlet;
#X obj 9 143 outlet;
#X connect 0 0 5 0;
#X connect 0 1 2 1;
#X connect 0 2 1 1;
#X connect 1 0 2 0;
#X connect 2 0 0 0;
#X connect 3 0 1 0;
#X connect 3 1 2 1;
#X connect 4 0 3 0;
#X restore 41 203 pd serialize;
#X obj 68 327 list prepend;
#X msg 68 349 set \$1 \$2 \$3;
#X obj 68 373 s \$0.rhythm.i;
#X obj 180 177 r \$0.rhythm.reset;
#X obj 41 281 struct_numarray_ pd-\$0.rhythm.array;
#X obj 317 129 s \$0.rhythm.i;
#X obj 317 152 r \$0.rhythm.o;
#X obj 290 108 t b a;
#X obj 290 176 list append;
#X msg 290 86 get \$1 ref;
#X obj 290 198 sel 0;
#X msg 290 222 0;
#X msg 317 222 -1;
#X msg 41 86 resolve \$1 data;
#X msg 290 245 range \$1 999;
#X obj 41 40 t a b a a;
#X obj 41 11 inlet;
#X obj 41 303 t a a;
#X msg 41 397 \$2 \$1;
#X obj 41 419 route -1;
#X obj 41 461 list prepend;
#X obj 68 529 s \$0.rhythm.i;
#X obj 68 552 r \$0.rhythm.o;
#X obj 41 508 t b a;
#X obj 41 576 list append;
#X msg 41 486 resolve \$1 \$2;
#X obj 41 441 t a a;
#X obj 41 598 list prepend;
#X msg 239 440 set \$1 \$2;
#X connect 1 0 3 1;
#X connect 2 0 3 0;
#X connect 2 1 0 0;
#X connect 3 0 6 0;
#X connect 4 0 11 0;
#X connect 5 0 11 0;
#X connect 6 0 5 0;
#X connect 7 0 8 0;
#X connect 8 0 9 0;
#X connect 10 0 4 0;
#X connect 11 0 24 0;
#X connect 13 0 15 1;
#X connect 14 0 15 0;
#X connect 14 1 12 0;
#X connect 15 0 17 0;
#X connect 16 0 14 0;
#X connect 17 0 18 0;
#X connect 17 1 19 0;
#X connect 18 0 21 0;
#X connect 19 0 21 0;
#X connect 20 0 2 0;
#X connect 21 0 11 0;
#X connect 22 0 20 0;
#X connect 22 1 4 0;
#X connect 22 2 7 1;
#X connect 22 2 27 1;
#X connect 22 3 16 0;
#X connect 23 0 22 0;
#X connect 24 0 25 0;
#X connect 24 1 7 0;
#X connect 25 0 26 0;
#X connect 26 0 33 0;
#X connect 27 0 32 0;
#X connect 29 0 31 1;
#X connect 30 0 31 0;
#X connect 30 1 28 0;
#X connect 31 0 34 0;
#X connect 32 0 30 0;
#X connect 33 0 27 0;
#X connect 33 1 34 1;
#X connect 34 0 35 0;
#X connect 35 0 11 0;
#X restore 24 152 pd rhythm.edit.logic;
#X obj 24 98 t a a;
#N canvas 49 94 562 369 rhythm.param.display 0;
#X obj 62 133 s \$0.rhythm.i;
#X obj 62 156 r \$0.rhythm.o;
#X obj 35 112 t b a;
#X obj 35 180 list append;
#X obj 330 17 loadbang;
#X obj 330 39 \$0;
#X msg 330 61 \; \$1.rhythm.edit.ref 0 \; \$1.rhythm.edit.ref range
0 0 \; \$1.rhythm.edit.ref disable 1 \; \$1.rhythm.edit.length 0 \;
\$1.rhythm.edit.length range 0 0 \; \$1.rhythm.edit.length disable
1 \;;
#X obj 217 139 s \$0.rhythm.i;
#X obj 217 162 r \$0.rhythm.o;
#X obj 190 118 t b a;
#X obj 190 186 list append;
#X msg 190 96 resolve \$1 length;
#X msg 35 90 get \$1 ref;
#X obj 35 22 inlet;
#X obj 35 44 t a a;
#X msg 35 207 range \$1 \$1;
#X msg 190 229 range \$1 \$1;
#X obj 35 243 s \$0.rhythm.edit.ref;
#X obj 190 254 s \$0.rhythm.edit.length;
#X obj 190 208 int;
#X connect 1 0 3 1;
#X connect 2 0 3 0;
#X connect 2 1 0 0;
#X connect 3 0 15 0;
#X connect 4 0 5 0;
#X connect 5 0 6 0;
#X connect 8 0 10 1;
#X connect 9 0 10 0;
#X connect 9 1 7 0;
#X connect 10 0 19 0;
#X connect 11 0 9 0;
#X connect 12 0 2 0;
#X connect 13 0 14 0;
#X connect 14 0 12 0;
#X connect 14 1 11 0;
#X connect 15 0 17 0;
#X connect 16 0 18 0;
#X connect 19 0 16 0;
#X restore 51 123 pd rhythm.param.display;
#X obj 235 76 struct_container length;
#X obj 235 51 r \$0.rhythm.i;
#X obj 235 98 s \$0.rhythm.o;
#X text 21 14 === R H Y T H M ============================================
;
#X obj 429 153 s \$0.rhythm.reset;
#X msg 429 85 reset;
#X obj 429 107 t b a;
#X obj 456 131 s \$0.rhythm.i;
#X obj 261 228 r \$0.tone.i;
#X obj 261 275 s \$0.tone.o;
#X obj 261 253 struct_container rhythm oct semi;
#X text 23 182 === T O N E ================================================
;
#X obj 24 258 t a a;
#N canvas 213 198 743 561 tone.generate.logic 0;
#X obj 575 18 loadbang;
#X obj 575 40 \$0;
#X obj 579 189 route count;
#X msg 579 210 range 0 \$1;
#X obj 422 142 t b a;
#X obj 422 207 list append;
#X obj 68 177 route float;
#X obj 145 457 route float;
#X obj 35 175 f;
#X obj 35 318 f;
#X msg 62 362 new \$1;
#X obj 35 457 list append;
#X obj 35 204 sel 0;
#X msg 62 228 alias \$1;
#X msg 377 283 range \$1 \$2;
#X msg 422 256 \$1 \$1;
#X obj 377 45 route float;
#X obj 8 47 t b b;
#X obj 72 431 route count;
#X obj 35 340 t b a;
#X obj 35 421 f;
#X obj 8 5 r \$0.tone.create;
#X obj 62 250 s \$0.tone.i;
#X obj 62 384 s \$0.tone.i;
#X obj 72 409 r \$0.tone.o;
#X obj 35 504 s \$0.tone.i;
#X obj 8 524 s \$0.tone.update;
#X obj 449 162 s \$0.tone.i;
#X obj 449 183 r \$0.tone.o;
#X obj 579 167 r \$0.tone.o;
#X obj 377 24 r \$0.tone.ref;
#X obj 54 110 s \$0.tone.ref;
#X obj 68 155 r \$0.tone.ref;
#X obj 579 232 s \$0.tone.ref;
#X obj 377 305 s \$0.tone.rhythm;
#X obj 579 289 route count;
#X obj 579 267 r \$0.rhythm.o;
#X msg 579 310 range 1 \$1;
#X obj 579 332 s \$0.tone.rhythm;
#X obj 74 91 s \$0.tone.rhythm;
#X obj 35 69 t b b b;
#X obj 466 50 route count;
#X obj 466 28 r \$0.rhythm.o;
#X obj 466 72 t b a;
#X obj 377 67 f;
#X obj 377 89 sel 0;
#X obj 377 123 f;
#X msg 377 233 1 \$1;
#X obj 160 284 t b a;
#X obj 160 349 list append;
#X msg 160 262 get \$1 size;
#X obj 187 304 s \$0.rhythm.i;
#X obj 187 325 r \$0.rhythm.o;
#X obj 160 241 route float;
#X obj 160 219 r \$0.tone.rhythm;
#X obj 145 435 r \$0.tone.rhythm;
#X msg 575 62 \; \$1.tone.create disable 1 \; \$1.tone.ref 0 \; \$1.tone.ref
range 0 0 \; \$1.tone.ref disable 1 \; \$1.tone.rhythm range 0 0 \;
\$1.tone.rhythm disable 1 \;;
#X obj 394 383 route count;
#X obj 394 361 r \$0.rhythm.o;
#X obj 394 405 spigot 1;
#X obj 394 427 t a a;
#X msg 455 428 0;
#X msg 394 449 disable 0;
#X obj 394 471 t a a a;
#X obj 413 511 s \$0.tone.ref;
#X obj 394 530 s \$0.tone.rhythm;
#X obj 433 491 s \$0.tone.create;
#X obj 8 27 route bang;
#X msg 569 428 disable \$1;
#X obj 569 384 route float;
#X obj 569 406 != 0;
#X obj 569 362 r \$0.tone.ref;
#X obj 569 450 s \$0.tone.rhythm;
#X msg 422 120 resolve \$1 rhythm;
#X obj 422 229 int;
#X msg 35 481 set \$1 rhythm \$2 \, set \$1 oct 8 \, set \$1 semi 12
;
#X connect 0 0 1 0;
#X connect 1 0 56 0;
#X connect 2 0 3 0;
#X connect 3 0 33 0;
#X connect 4 0 5 0;
#X connect 4 1 27 0;
#X connect 5 0 74 0;
#X connect 6 0 8 1;
#X connect 7 0 11 1;
#X connect 8 0 12 0;
#X connect 9 0 19 0;
#X connect 10 0 23 0;
#X connect 11 0 75 0;
#X connect 12 0 9 0;
#X connect 12 1 13 0;
#X connect 13 0 22 0;
#X connect 14 0 34 0;
#X connect 15 0 14 0;
#X connect 16 0 44 0;
#X connect 17 0 26 0;
#X connect 17 1 40 0;
#X connect 18 0 20 1;
#X connect 19 0 20 0;
#X connect 19 1 10 0;
#X connect 20 0 11 0;
#X connect 21 0 67 0;
#X connect 24 0 18 0;
#X connect 28 0 5 1;
#X connect 29 0 2 0;
#X connect 30 0 16 0;
#X connect 32 0 6 0;
#X connect 35 0 37 0;
#X connect 36 0 35 0;
#X connect 37 0 38 0;
#X connect 40 0 8 0;
#X connect 40 1 31 0;
#X connect 40 2 39 0;
#X connect 41 0 43 0;
#X connect 42 0 41 0;
#X connect 43 0 44 0;
#X connect 43 1 46 1;
#X connect 44 0 45 0;
#X connect 45 0 46 0;
#X connect 45 1 73 0;
#X connect 46 0 47 0;
#X connect 47 0 14 0;
#X connect 48 0 49 0;
#X connect 48 1 51 0;
#X connect 49 0 9 1;
#X connect 50 0 48 0;
#X connect 52 0 49 1;
#X connect 53 0 50 0;
#X connect 54 0 53 0;
#X connect 55 0 7 0;
#X connect 57 0 59 0;
#X connect 58 0 57 0;
#X connect 59 0 60 0;
#X connect 60 0 62 0;
#X connect 60 1 61 0;
#X connect 61 0 59 1;
#X connect 62 0 63 0;
#X connect 63 0 65 0;
#X connect 63 1 64 0;
#X connect 63 2 66 0;
#X connect 67 0 17 0;
#X connect 68 0 72 0;
#X connect 69 0 70 0;
#X connect 70 0 68 0;
#X connect 71 0 69 0;
#X connect 73 0 4 0;
#X connect 74 0 15 0;
#X connect 75 0 25 0;
#X restore 24 210 pd tone.generate.logic;
#N canvas 60 119 656 335 tone.selector.logic 0;
#X obj 41 73 route count;
#X obj 26 161 t a a;
#X obj 26 138 change 1;
#X obj 26 116 max 1;
#X obj 26 95 f;
#X msg 104 148 0;
#X msg 53 183 count \$1;
#X obj 26 281 outlet;
#X obj 26 25 r \$0.tone.update;
#X obj 41 51 r \$0.tone.o;
#X obj 104 126 r \$0.tone.reset;
#X obj 26 234 struct_selector_ pd-\$0.tone.selector;
#X obj 318 70 t b a;
#X obj 318 138 list append;
#X obj 345 91 s \$0.tone.i;
#X obj 345 114 r \$0.tone.o;
#X msg 318 48 resolve \$1 rhythm;
#X obj 318 161 s \$0.rhythm.selector;
#X obj 26 210 t a;
#X obj 26 256 t a a;
#X connect 0 0 4 1;
#X connect 1 0 18 0;
#X connect 1 1 6 0;
#X connect 2 0 1 0;
#X connect 3 0 2 0;
#X connect 4 0 3 0;
#X connect 5 0 6 0;
#X connect 6 0 18 0;
#X connect 8 0 4 0;
#X connect 9 0 0 0;
#X connect 10 0 5 0;
#X connect 11 0 19 0;
#X connect 12 0 13 0;
#X connect 12 1 14 0;
#X connect 13 0 17 0;
#X connect 15 0 13 1;
#X connect 16 0 12 0;
#X connect 18 0 11 0;
#X connect 19 0 7 0;
#X connect 19 1 16 0;
#X restore 24 236 pd tone.selector.logic;
#N canvas 49 94 917 502 tone.param.display 0;
#X obj 159 125 t b a;
#X obj 159 193 list append;
#X obj 35 22 inlet;
#X obj 186 146 s \$0.tone.i;
#X obj 186 169 r \$0.tone.o;
#X obj 35 123 t b a;
#X obj 35 191 list append;
#X obj 62 144 s \$0.tone.i;
#X obj 62 167 r \$0.tone.o;
#X msg 35 101 get \$1 ref;
#X msg 159 103 resolve \$1 rhythm;
#X msg 159 238 range \$1 \$1;
#X obj 159 215 int;
#X msg 35 236 range \$1 \$1;
#X obj 35 213 int;
#X obj 159 261 s \$0.tone.edit.rhythm;
#X obj 35 260 s \$0.tone.edit.ref;
#X obj 319 125 t b a;
#X obj 319 193 list append;
#X obj 346 146 s \$0.tone.i;
#X obj 346 169 r \$0.tone.o;
#X obj 319 215 int;
#X msg 319 103 resolve \$1 oct;
#X obj 319 281 s \$0.tone.edit.oct;
#X obj 439 125 t b a;
#X obj 439 193 list append;
#X obj 466 146 s \$0.tone.i;
#X obj 466 169 r \$0.tone.o;
#X obj 439 215 int;
#X msg 439 103 resolve \$1 semi;
#X obj 439 282 s \$0.tone.edit.semi;
#X obj 660 17 loadbang;
#X obj 660 39 \$0;
#X msg 660 63 \$1 ref \, \$1 rhythm \, \$1 oct \, \$1 semi;
#X msg 439 258 set \$1;
#X msg 319 258 set \$1;
#X msg 576 210 range -8 8 \, disable 0;
#X msg 603 168 range -12 12 \, disable 0;
#X obj 576 97 t b b;
#X obj 576 231 s \$0.tone.edit.oct;
#X obj 603 189 s \$0.tone.edit.semi;
#X obj 87 347 r \$0.tone.edit.oct;
#X obj 87 369 route float;
#X obj 35 47 t a a a a b a;
#X obj 87 413 list prepend;
#X obj 110 315 t a;
#X obj 87 457 s \$0.tone.i;
#X obj 219 371 route float;
#X obj 219 416 list prepend;
#X obj 219 459 s \$0.tone.i;
#X obj 219 349 r \$0.tone.edit.semi;
#X msg 219 437 set \$1 semi \$2;
#X msg 87 435 set \$1 oct \$2;
#X obj 319 237 - 8;
#X obj 439 237 - 12;
#X obj 87 391 + 8;
#X obj 219 392 + 12;
#X msg 660 87 \; \$1.tone.edit.\$2 range 0 0 \; \$1.tone.edit.\$2 disable
1 \;;
#X connect 0 0 1 0;
#X connect 0 1 3 0;
#X connect 1 0 12 0;
#X connect 2 0 43 0;
#X connect 4 0 1 1;
#X connect 5 0 6 0;
#X connect 5 1 7 0;
#X connect 6 0 14 0;
#X connect 8 0 6 1;
#X connect 9 0 5 0;
#X connect 10 0 0 0;
#X connect 11 0 15 0;
#X connect 12 0 11 0;
#X connect 13 0 16 0;
#X connect 14 0 13 0;
#X connect 17 0 18 0;
#X connect 17 1 19 0;
#X connect 18 0 21 0;
#X connect 20 0 18 1;
#X connect 21 0 53 0;
#X connect 22 0 17 0;
#X connect 24 0 25 0;
#X connect 24 1 26 0;
#X connect 25 0 28 0;
#X connect 27 0 25 1;
#X connect 28 0 54 0;
#X connect 29 0 24 0;
#X connect 31 0 32 0;
#X connect 32 0 33 0;
#X connect 33 0 57 0;
#X connect 34 0 30 0;
#X connect 35 0 23 0;
#X connect 36 0 39 0;
#X connect 37 0 40 0;
#X connect 38 0 36 0;
#X connect 38 1 37 0;
#X connect 41 0 42 0;
#X connect 42 0 55 0;
#X connect 43 0 9 0;
#X connect 43 1 10 0;
#X connect 43 2 22 0;
#X connect 43 3 29 0;
#X connect 43 4 38 0;
#X connect 43 5 45 0;
#X connect 44 0 52 0;
#X connect 45 0 44 1;
#X connect 45 0 48 1;
#X connect 47 0 56 0;
#X connect 48 0 51 0;
#X connect 50 0 47 0;
#X connect 51 0 49 0;
#X connect 52 0 46 0;
#X connect 53 0 35 0;
#X connect 54 0 34 0;
#X connect 55 0 44 0;
#X connect 56 0 48 0;
#X restore 51 283 pd tone.param.display;
#N canvas 0 44 508 680 tone.edit.logic 0;
#X obj 41 108 t b a;
#X obj 41 176 list append;
#X msg 180 217 reset;
#X msg 41 228 add \$1;
#N canvas 507 320 146 198 serialize 0;
#X obj 9 118 list split 1;
#X obj 9 74 until;
#X obj 9 96 list append;
#X obj 9 53 t b a;
#X obj 9 30 inlet;
#X obj 9 143 outlet;
#X connect 0 0 5 0;
#X connect 0 1 2 1;
#X connect 0 2 1 1;
#X connect 1 0 2 0;
#X connect 2 0 0 0;
#X connect 3 0 1 0;
#X connect 3 1 2 1;
#X connect 4 0 3 0;
#X restore 41 203 pd serialize;
#X obj 68 327 list prepend;
#X msg 68 349 set \$1 \$2 \$3;
#X obj 290 108 t b a;
#X obj 290 176 list append;
#X msg 290 86 get \$1 ref;
#X obj 290 198 sel 0;
#X msg 290 222 0;
#X msg 317 222 -1;
#X msg 41 86 resolve \$1 data;
#X msg 290 245 range \$1 999;
#X obj 41 40 t a b a a;
#X obj 41 11 inlet;
#X obj 41 303 t a a;
#X msg 41 397 \$2 \$1;
#X obj 41 419 route -1;
#X obj 41 461 list prepend;
#X obj 41 508 t b a;
#X obj 41 576 list append;
#X msg 41 486 resolve \$1 \$2;
#X obj 41 441 t a a;
#X obj 41 598 list prepend;
#X msg 239 440 set \$1 \$2;
#X obj 317 129 s \$0.tone.i;
#X obj 317 152 r \$0.tone.o;
#X obj 180 177 r \$0.tone.reset;
#X obj 68 129 s \$0.tone.i;
#X obj 68 152 r \$0.tone.o;
#X obj 41 281 struct_numarray_ pd-\$0.tone.array;
#X obj 68 373 s \$0.tone.i;
#X obj 68 529 s \$0.tone.i;
#X obj 68 552 r \$0.tone.o;
#X connect 0 0 1 0;
#X connect 0 1 30 0;
#X connect 1 0 4 0;
#X connect 2 0 32 0;
#X connect 3 0 32 0;
#X connect 4 0 3 0;
#X connect 5 0 6 0;
#X connect 6 0 33 0;
#X connect 7 0 8 0;
#X connect 7 1 27 0;
#X connect 8 0 10 0;
#X connect 9 0 7 0;
#X connect 10 0 11 0;
#X connect 10 1 12 0;
#X connect 11 0 14 0;
#X connect 12 0 14 0;
#X connect 13 0 0 0;
#X connect 14 0 32 0;
#X connect 15 0 13 0;
#X connect 15 1 2 0;
#X connect 15 2 5 1;
#X connect 15 2 20 1;
#X connect 15 3 9 0;
#X connect 16 0 15 0;
#X connect 17 0 18 0;
#X connect 17 1 5 0;
#X connect 18 0 19 0;
#X connect 19 0 24 0;
#X connect 20 0 23 0;
#X connect 21 0 22 0;
#X connect 21 1 34 0;
#X connect 22 0 25 0;
#X connect 23 0 21 0;
#X connect 24 0 20 0;
#X connect 24 1 25 1;
#X connect 25 0 26 0;
#X connect 26 0 32 0;
#X connect 28 0 8 1;
#X connect 29 0 2 0;
#X connect 31 0 1 1;
#X connect 32 0 17 0;
#X connect 35 0 22 1;
#X restore 24 312 pd tone.edit.logic;
#N canvas 1051 475 399 102 NETPD 0;
#X msg 15 14 version 0 0 0;
#X restore 482 51 pd NETPD 2 0;
#X obj 483 75 netpd_head \$1 structuralist;
#X connect 3 0 5 0;
#X connect 5 0 4 0;
#X connect 5 1 6 0;
#X connect 7 0 9 0;
#X connect 8 0 7 0;
#X connect 12 0 13 0;
#X connect 13 0 11 0;
#X connect 13 1 14 0;
#X connect 15 0 17 0;
#X connect 17 0 16 0;
#X connect 19 0 23 0;
#X connect 19 1 22 0;
#X connect 21 0 19 0;
