#N canvas 628 332 364 338 10;
#N canvas 716 188 187 305 \$1-tr808 1;
#X obj 19 169 hsl 128 15 0 1 0 0 \$1-clap/gain \$1-clap/gain gain 2
7 0 10 #c4fcc4 #000000 #000000 0 1;
#X obj 19 24 hsl 128 15 0 1 0 0 \$1-bassdrum/gain \$1-bassdrum/gain
gain 2 7 0 10 #fcfcc4 #000000 #000000 0 1;
#X obj 19 39 hsl 128 15 0 1 0 0 \$1-bassdrum/click \$1-bassdrum/click
click 2 7 0 10 #fcfcc4 #000000 #000000 0 1;
#X obj 19 54 hsl 128 15 0 1 0 0 \$1-bassdrum/decay \$1-bassdrum/decay
decay 2 7 0 10 #fcfcc4 #000000 #000000 0 1;
#X text 14 8 bassdrum;
#X text 14 153 clap;
#X obj 19 89 hsl 128 15 0 1 0 0 \$1-snare/gain \$1-snare/gain gain
2 7 0 10 #c6feff #000000 #000000 0 1;
#X obj 19 104 hsl 128 15 0 1 0 0 \$1-snare/tone \$1-snare/tone tone
2 7 0 10 #c6feff #000000 #000000 0 1;
#X text 14 73 snare;
#X obj 19 119 hsl 128 15 0 1 0 0 \$1-snare/snappy \$1-snare/snappy
snappy 2 7 0 10 #c6feff #000000 #000000 0 1;
#X obj 19 134 hsl 128 15 0 1 0 0 \$1-snare/tune \$1-snare/tune tune
2 7 0 10 #c6feff #000000 #000000 0 1;
#X restore 14 12 pd \$1-tr808;
#N canvas 509 502 298 114 NETPD 0;
#N canvas 509 660 240 92 abslist 0;
#X msg 17 12 tr808-cp~;
#X msg 107 12 i2mx;
#X msg 17 34 tr808-bd~;
#X msg 99 37 qseq3-instr-list;
#X msg 17 56 tr808-sn~;
#X restore 31 36 pd abslist;
#X msg 30 13 version 0 0 9;
#X restore 14 31 pd NETPD 2 0;
#X obj 14 77 netpd_head \$1 tr808;
#N canvas 312 607 347 282 clap 0;
#X msg 20 76 trigger;
#X msg 98 135 gain \$1;
#X obj 20 199 tr808-cp~;
#X obj 20 7 r qseq3;
#X obj 20 29 route \$1-tr808;
#X obj 20 51 route clap;
#X obj 98 110 netpd_f \$1 clap/gain 0.5;
#X obj 19 231 outlet~;
#X obj 84 233 outlet~;
#X obj 157 229 outlet;
#X connect 0 0 2 0;
#X connect 1 0 2 0;
#X connect 2 0 7 0;
#X connect 2 0 8 0;
#X connect 2 1 9 0;
#X connect 3 0 4 0;
#X connect 4 0 5 0;
#X connect 5 0 0 0;
#X connect 6 0 1 0;
#X restore 26 128 pd clap;
#X obj 25 283 i2mx \$1 tr808;
#N canvas 959 400 450 300 bassdrum 0;
#X obj 20 150 tr808-bd~;
#X msg 20 76 trigger;
#X msg 161 59 gain \$1;
#X obj 20 7 r qseq3;
#X obj 20 29 route \$1-tr808;
#X obj 19 231 outlet~;
#X obj 84 233 outlet~;
#X obj 141 233 outlet;
#X obj 20 51 route bassdrum;
#X obj 161 34 netpd_f \$1 bassdrum/gain 0.8;
#X obj 179 87 netpd_f \$1 bassdrum/click 0.4;
#X obj 195 135 netpd_f \$1 bassdrum/decay 0.4;
#X msg 179 108 click \$1;
#X msg 195 160 decay \$1;
#X connect 0 0 5 0;
#X connect 0 0 6 0;
#X connect 0 1 7 0;
#X connect 1 0 0 0;
#X connect 2 0 0 0;
#X connect 3 0 4 0;
#X connect 4 0 8 0;
#X connect 8 0 1 0;
#X connect 9 0 2 0;
#X connect 10 0 12 0;
#X connect 11 0 13 0;
#X connect 12 0 0 0;
#X connect 13 0 0 0;
#X restore 94 128 pd bassdrum;
#X obj 195 255 change;
#N canvas 1389 426 450 300 snare 0;
#X obj 34 224 tr808-sn~;
#X obj 33 259 outlet~;
#X obj 109 260 outlet~;
#X obj 204 259 outlet;
#X msg 34 94 trigger;
#X obj 34 25 r qseq3;
#X obj 34 47 route \$1-tr808;
#X obj 34 69 route snare;
#X msg 203 37 amp \$1;
#X obj 203 12 netpd_f \$1 snare/gain 0.8;
#X obj 221 65 netpd_f \$1 snare/tone 0.5;
#X obj 237 113 netpd_f \$1 snare/snappy 0.5;
#X msg 221 86 tone \$1;
#X msg 237 138 snappy \$1;
#X obj 258 161 netpd_f \$1 snare/tune 0.5;
#X msg 258 186 tune \$1;
#X connect 0 0 1 0;
#X connect 0 0 2 0;
#X connect 0 1 3 0;
#X connect 4 0 0 0;
#X connect 5 0 6 0;
#X connect 6 0 7 0;
#X connect 7 0 4 0;
#X connect 8 0 0 0;
#X connect 9 0 8 0;
#X connect 10 0 12 0;
#X connect 11 0 13 0;
#X connect 12 0 0 0;
#X connect 13 0 0 0;
#X connect 14 0 15 0;
#X connect 15 0 0 0;
#X restore 177 129 pd snare;
#X obj 14 54 qseq3-instr-list \$1 tr808 bassdrum snare clap;
#N canvas 930 496 329 166 OR 0;
#X obj 10 25 inlet;
#X obj 56 23 inlet;
#X obj 14 113 outlet;
#X obj 19 83 ||;
#X obj 32 58 t b a;
#X connect 0 0 3 0;
#X connect 1 0 4 0;
#X connect 3 0 2 0;
#X connect 4 0 3 0;
#X connect 4 1 3 1;
#X restore 184 206 pd OR;
#N canvas 930 496 329 166 OR 0;
#X obj 10 25 inlet;
#X obj 56 23 inlet;
#X obj 14 113 outlet;
#X obj 19 83 ||;
#X obj 32 58 t b a;
#X connect 0 0 3 0;
#X connect 1 0 4 0;
#X connect 3 0 2 0;
#X connect 4 0 3 0;
#X connect 4 1 3 1;
#X restore 195 229 pd OR;
#X connect 3 0 4 0;
#X connect 3 1 4 1;
#X connect 3 2 9 0;
#X connect 5 0 4 0;
#X connect 5 1 4 1;
#X connect 5 2 9 1;
#X connect 6 0 4 2;
#X connect 7 0 4 0;
#X connect 7 1 4 1;
#X connect 7 2 10 1;
#X connect 9 0 10 0;
#X connect 10 0 6 0;
