#N canvas 297 349 555 447 10;
#N canvas 842 307 198 598 \$1-tr808 1;
#X obj 39 209 hsl 128 15 0 1 0 0 \$1-clap/gain \$1-clap/gain gain 2
7 0 10 #c4fcc4 #0f4710 #000000 0 1;
#X obj 39 24 hsl 128 15 0 1 0 0 \$1-bassdrum/gain \$1-bassdrum/gain
gain 2 7 0 10 #fcfcc4 #ff8300 #000000 0 1;
#X obj 39 39 hsl 128 15 0 1 0 0 \$1-bassdrum/click \$1-bassdrum/click
click 2 7 0 10 #fcfcc4 #ff8300 #000000 0 1;
#X obj 39 54 hsl 128 15 0 1 0 0 \$1-bassdrum/decay \$1-bassdrum/decay
decay 2 7 0 10 #fcfcc4 #ff8300 #000000 0 1;
#X text 34 8 bassdrum;
#X text 34 193 clap;
#X obj 39 109 hsl 128 15 0 1 0 0 \$1-snare/gain \$1-snare/gain gain
2 7 0 10 #c6feff #0400ff #000000 0 1;
#X obj 39 124 hsl 128 15 0 1 0 0 \$1-snare/tone \$1-snare/tone tone
2 7 0 10 #c6feff #0400ff #000000 0 1;
#X text 34 93 snare;
#X obj 39 139 hsl 128 15 0 1 0 0 \$1-snare/snappy \$1-snare/snappy
snappy 2 7 0 10 #c6feff #0400ff #000000 0 1;
#X obj 39 154 hsl 128 15 0 1 0 0 \$1-snare/tune \$1-snare/tune tune
2 7 0 10 #c6feff #0400ff #000000 0 1;
#X obj 21 26 vsl 15 55 0 127 0 0 \$0.bassdrum.s \$0.bassdrum.r empty
0 -9 0 10 #feffc6 #feffc6 #000000 0 1;
#X obj 21 111 vsl 15 70 0 127 0 0 \$0.snare.s \$0.snare.r empty 0 -9
0 10 #c6feff #c6feff #000000 0 1;
#X obj 21 211 vsl 15 25 0 127 0 0 \$0.clap.s \$0.clap.r empty 0 -9
0 10 #c6ffc7 #c6ffc7 #000000 0 1;
#X obj 39 264 hsl 128 15 0 1 0 0 \$1-rim/gain \$1-rim/gain gain 2 7
0 10 #c7c6ff #0400ff #000000 0 1;
#X obj 21 266 vsl 15 25 0 127 0 0 \$0.rim.s \$0.rim.r empty 0 -9 0
10 #c7c6ff #c7c6ff #000000 0 1;
#X text 34 248 rimshot;
#X obj 39 319 hsl 128 15 0 1 0 0 \$1-ohh/gain \$1-ohh/gain gain(open)
2 7 0 10 #ffe3c6 #ff8300 #000000 0 1;
#X obj 21 321 vsl 15 25 0 127 0 0 \$0.ohh.s \$0.ohh.r empty 0 -9 0
10 #ffe3c6 #ffe3c6 #000000 0 1;
#X text 34 303 hihat1;
#X obj 39 334 hsl 128 15 0 1 0 0 \$1-ohh/decay \$1-ohh/decay decay(open)
2 7 0 10 #ffe3c6 #ff8300 #000000 0 1;
#X obj 39 364 hsl 128 15 0 1 0 0 \$1-hh/tune \$1-hh/tune tune(both)
2 7 0 10 #ffe3c6 #ff8300 #000000 0 1;
#X obj 39 349 hsl 128 15 0 1 0 0 \$1-chh/gain \$1-chh/gain gain(closed)
2 7 0 10 #ffe3c6 #ff8300 #000000 0 1;
#X obj 21 351 vsl 15 40 0 127 0 0 \$0.chh.s \$0.chh.r empty 0 -9 0
10 #ffe3c6 #ffe3c6 #000000 0 1;
#X obj 39 414 hsl 128 15 0 1 0 0 \$1-cymbal/gain \$1-cymbal/gain gain
2 7 0 10 #ffc7c6 #ff0400 #000000 0 1;
#X obj 39 429 hsl 128 15 0 1 0 0 \$1-cymbal/tone \$1-cymbal/tone tone
2 7 0 10 #ffc7c6 #ff0400 #000000 0 1;
#X obj 39 444 hsl 128 15 0 1 0 0 \$1-cymbal/decay \$1-cymbal/decay
decay 2 7 0 10 #ffc7c6 #ff0400 #000000 0 1;
#X obj 39 459 hsl 128 15 0 1 0 0 \$1-cymbal/tune \$1-cymbal/tune tune
2 7 0 10 #ffc7c6 #ff0400 #000000 0 1;
#X obj 21 416 vsl 15 70 0 127 0 0 \$0.cymbal.s \$0.cymbal.r empty 0
-9 0 10 #ffc7c6 #ffc7c6 #000000 0 1;
#X text 34 398 cymbal;
#X obj 39 529 hsl 128 15 0 1 0 0 \$1-bl/tune \$1-bl/tune tune 2 7 0
10 #e3c6ff #9c00ff #000000 0 1;
#X obj 39 514 hsl 128 15 0 1 0 0 \$1-bl/gain \$1-bl/gain gain 2 7 0
10 #e3c6ff #9c00ff #000000 0 1;
#X obj 21 516 vsl 15 40 0 127 0 0 \$0.bell.s \$0.bell.r empty 0 -9
0 10 #e3c6ff #e3c6ff #000000 0 1;
#X text 34 498 bell;
#X obj 39 69 hsl 128 15 0 1 0 0 \$1-bassdrum/pan \$1-bassdrum/pan pan
2 7 0 10 #fcfcc4 #ff8300 #000000 0 1;
#X obj 39 169 hsl 128 15 0 1 0 0 \$1-snare/pan \$1-snare/pan pan 2
7 0 10 #c6feff #0400ff #000000 0 1;
#X obj 39 224 hsl 128 15 0 1 0 0 \$1-clap/pan \$1-clap/pan pan 2 7
0 10 #c4fcc4 #0f4710 #000000 0 1;
#X obj 39 279 hsl 128 15 0 1 0 0 \$1-rim/pan \$1-rim/pan pan 2 7 0
10 #c7c6ff #0400ff #000000 0 1;
#X obj 39 379 hsl 128 15 0 1 0 0 \$1-hh/pan \$1-hh/pan pan(both) 2
7 0 10 #ffe3c6 #ff8300 #000000 0 1;
#X obj 39 474 hsl 128 15 0 1 0 0 \$1-cymbal/pan \$1-cymbal/pan pan
2 7 0 10 #ffc7c6 #ff0400 #000000 0 1;
#X obj 39 544 hsl 128 15 0 1 0 0 \$1-bl/pan \$1-bl/pan pan 2 7 0 10
#e3c6ff #9c00ff #000000 0 1;
#X restore 14 12 pd \$1-tr808;
#N canvas 509 502 298 114 NETPD 0;
#N canvas 509 660 240 194 abslist 0;
#X msg 17 12 tr808-cp~;
#X msg 107 12 i2mx;
#X msg 17 34 tr808-bd~;
#X msg 99 37 qseq3-instr-list;
#X msg 17 56 tr808-sn~;
#X msg 17 78 tr808-rim~;
#X msg 17 100 tr808-hh~;
#X msg 17 120 tr808-cym~;
#X msg 18 142 tr808-bl~;
#X restore 31 36 pd abslist;
#X msg 30 13 version 0 0 12;
#X restore 14 33 pd NETPD 2 0;
#X obj 14 89 netpd_head \$1 tr808;
#N canvas 312 607 347 282 clap 0;
#X msg 20 76 trigger;
#X msg 98 135 gain \$1;
#X obj 20 199 tr808-cp~;
#X obj 20 7 r qseq3;
#X obj 20 29 route \$1-tr808;
#X obj 20 51 route clap;
#X obj 19 251 outlet~;
#X obj 84 253 outlet~;
#X obj 165 258 outlet;
#X obj 154 23 r \$0.clap.s;
#X obj 154 45 sel 0;
#X obj 195 48 t a;
#X obj 98 110 netpd_f \$1 clap/gain 0.8;
#N canvas 876 460 450 300 pan_ 0;
#X obj 115 118 cos;
#X obj 215 122 atan;
#X msg 215 101 1;
#X obj 215 144 * 2;
#X obj 115 73 *;
#X obj 142 117 sin;
#X obj 188 11 inlet;
#X obj 215 80 loadbang;
#X obj 115 95 t a a;
#X text 234 11 range: 0-1;
#X obj 14 9 inlet~;
#X obj 14 246 outlet~;
#X obj 76 245 outlet~;
#X obj 85 177 line~;
#X msg 85 156 \$1 50;
#X obj 129 176 line~;
#X msg 129 154 \$1 50;
#X obj 13 212 *~;
#X obj 77 215 *~;
#X connect 0 0 14 0;
#X connect 1 0 3 0;
#X connect 2 0 1 0;
#X connect 3 0 4 1;
#X connect 4 0 8 0;
#X connect 5 0 16 0;
#X connect 6 0 4 0;
#X connect 7 0 2 0;
#X connect 8 0 0 0;
#X connect 8 1 5 0;
#X connect 10 0 17 0;
#X connect 10 0 18 0;
#X connect 13 0 17 1;
#X connect 14 0 13 0;
#X connect 15 0 18 1;
#X connect 16 0 15 0;
#X connect 17 0 11 0;
#X connect 18 0 12 0;
#X restore 20 225 pd pan_;
#X obj 108 181 netpd_f \$1 clap/pan 0.5;
#X connect 0 0 2 0;
#X connect 1 0 2 0;
#X connect 2 0 13 0;
#X connect 2 1 8 0;
#X connect 3 0 4 0;
#X connect 4 0 5 0;
#X connect 5 0 0 0;
#X connect 9 0 10 0;
#X connect 10 0 0 0;
#X connect 10 1 11 0;
#X connect 11 0 10 1;
#X connect 12 0 1 0;
#X connect 13 0 6 0;
#X connect 13 1 7 0;
#X connect 14 0 13 1;
#X restore 26 128 pd clap;
#X obj 25 379 i2mx \$1 tr808;
#N canvas 1204 374 450 300 bassdrum 0;
#X obj 20 150 tr808-bd~;
#X msg 20 76 trigger;
#X msg 188 110 gain \$1;
#X obj 20 7 r qseq3;
#X obj 20 29 route \$1-tr808;
#X obj 19 231 outlet~;
#X obj 84 233 outlet~;
#X obj 141 233 outlet;
#X obj 20 51 route bassdrum;
#X obj 188 85 netpd_f \$1 bassdrum/gain 0.8;
#X obj 206 138 netpd_f \$1 bassdrum/click 0.4;
#X msg 206 159 click \$1;
#X msg 222 211 decay \$1;
#X obj 154 45 sel 0;
#X obj 195 48 t a;
#X obj 154 23 r \$0.bassdrum.s;
#X obj 222 186 netpd_f \$1 bassdrum/decay 0.62;
#N canvas 876 460 450 300 pan_ 0;
#X obj 115 118 cos;
#X obj 215 122 atan;
#X msg 215 101 1;
#X obj 215 144 * 2;
#X obj 115 73 *;
#X obj 142 117 sin;
#X obj 188 11 inlet;
#X obj 215 80 loadbang;
#X obj 115 95 t a a;
#X text 234 11 range: 0-1;
#X obj 14 9 inlet~;
#X obj 14 246 outlet~;
#X obj 76 245 outlet~;
#X obj 85 177 line~;
#X msg 85 156 \$1 50;
#X obj 129 176 line~;
#X msg 129 154 \$1 50;
#X obj 13 212 *~;
#X obj 77 215 *~;
#X connect 0 0 14 0;
#X connect 1 0 3 0;
#X connect 2 0 1 0;
#X connect 3 0 4 1;
#X connect 4 0 8 0;
#X connect 5 0 16 0;
#X connect 6 0 4 0;
#X connect 7 0 2 0;
#X connect 8 0 0 0;
#X connect 8 1 5 0;
#X connect 10 0 17 0;
#X connect 10 0 18 0;
#X connect 13 0 17 1;
#X connect 14 0 13 0;
#X connect 15 0 18 1;
#X connect 16 0 15 0;
#X connect 17 0 11 0;
#X connect 18 0 12 0;
#X restore 19 200 pd pan_;
#X obj 231 233 netpd_f \$1 bassdrum/pan 0.5;
#X connect 0 0 17 0;
#X connect 0 1 7 0;
#X connect 1 0 0 0;
#X connect 2 0 0 0;
#X connect 3 0 4 0;
#X connect 4 0 8 0;
#X connect 8 0 1 0;
#X connect 9 0 2 0;
#X connect 10 0 11 0;
#X connect 11 0 0 0;
#X connect 12 0 0 0;
#X connect 13 0 1 0;
#X connect 13 1 14 0;
#X connect 14 0 13 1;
#X connect 15 0 13 0;
#X connect 16 0 12 0;
#X connect 17 0 5 0;
#X connect 17 1 6 0;
#X connect 18 0 17 1;
#X restore 94 128 pd bassdrum;
#X obj 221 355 change;
#N canvas 1389 426 450 357 snare 0;
#X obj 34 224 tr808-sn~;
#X obj 35 289 outlet~;
#X obj 109 290 outlet~;
#X obj 204 259 outlet;
#X msg 34 94 trigger;
#X obj 34 25 r qseq3;
#X obj 34 47 route \$1-tr808;
#X obj 34 69 route snare;
#X msg 213 79 amp \$1;
#X msg 231 128 tone \$1;
#X msg 247 180 snappy \$1;
#X msg 268 228 tune \$1;
#X obj 137 57 sel 0;
#X obj 178 60 t a;
#X obj 137 35 r \$0.snare.s;
#X obj 213 54 netpd_f \$1 snare/gain 0.51;
#X obj 231 107 netpd_f \$1 snare/tone 0.49;
#X obj 247 155 netpd_f \$1 snare/snappy 0.75;
#X obj 268 203 netpd_f \$1 snare/tune 0.49;
#N canvas 876 460 450 300 pan_ 0;
#X obj 115 118 cos;
#X obj 215 122 atan;
#X msg 215 101 1;
#X obj 215 144 * 2;
#X obj 115 73 *;
#X obj 142 117 sin;
#X obj 188 11 inlet;
#X obj 215 80 loadbang;
#X obj 115 95 t a a;
#X text 234 11 range: 0-1;
#X obj 14 9 inlet~;
#X obj 14 246 outlet~;
#X obj 76 245 outlet~;
#X obj 85 177 line~;
#X msg 85 156 \$1 50;
#X obj 129 176 line~;
#X msg 129 154 \$1 50;
#X obj 13 212 *~;
#X obj 77 215 *~;
#X connect 0 0 14 0;
#X connect 1 0 3 0;
#X connect 2 0 1 0;
#X connect 3 0 4 1;
#X connect 4 0 8 0;
#X connect 5 0 16 0;
#X connect 6 0 4 0;
#X connect 7 0 2 0;
#X connect 8 0 0 0;
#X connect 8 1 5 0;
#X connect 10 0 17 0;
#X connect 10 0 18 0;
#X connect 13 0 17 1;
#X connect 14 0 13 0;
#X connect 15 0 18 1;
#X connect 16 0 15 0;
#X connect 17 0 11 0;
#X connect 18 0 12 0;
#X restore 35 255 pd pan_;
#X obj 263 282 netpd_f \$1 snare/pan 0.5;
#X connect 0 0 19 0;
#X connect 0 1 3 0;
#X connect 4 0 0 0;
#X connect 5 0 6 0;
#X connect 6 0 7 0;
#X connect 7 0 4 0;
#X connect 8 0 0 0;
#X connect 9 0 0 0;
#X connect 10 0 0 0;
#X connect 11 0 0 0;
#X connect 12 0 4 0;
#X connect 12 1 13 0;
#X connect 13 0 12 1;
#X connect 14 0 12 0;
#X connect 15 0 8 0;
#X connect 16 0 9 0;
#X connect 17 0 10 0;
#X connect 18 0 11 0;
#X connect 19 0 1 0;
#X connect 19 1 2 0;
#X connect 20 0 19 1;
#X restore 177 129 pd snare;
#N canvas 930 496 329 166 OR 0;
#X obj 10 25 inlet;
#X obj 56 23 inlet;
#X obj 14 113 outlet;
#X obj 19 83 ||;
#X obj 32 58 t b a;
#X connect 0 0 3 0;
#X connect 1 0 4 0;
#X connect 3 0 2 0;
#X connect 4 0 3 0;
#X connect 4 1 3 1;
#X restore 184 206 pd OR;
#N canvas 930 496 329 166 OR 0;
#X obj 10 25 inlet;
#X obj 56 23 inlet;
#X obj 14 113 outlet;
#X obj 19 83 ||;
#X obj 32 58 t b a;
#X connect 0 0 3 0;
#X connect 1 0 4 0;
#X connect 3 0 2 0;
#X connect 4 0 3 0;
#X connect 4 1 3 1;
#X restore 195 229 pd OR;
#N canvas 316 581 347 282 rimshot 0;
#X msg 20 76 trigger;
#X msg 98 135 gain \$1;
#X obj 20 7 r qseq3;
#X obj 20 29 route \$1-tr808;
#X obj 20 258 outlet~;
#X obj 102 259 outlet~;
#X obj 157 229 outlet;
#X obj 154 45 sel 0;
#X obj 195 48 t a;
#X obj 20 51 route rimshot;
#X obj 154 23 r \$0.rim.s;
#X obj 20 199 tr808-rim~;
#X obj 98 110 netpd_f \$1 rim/gain 0.4;
#N canvas 876 460 450 300 pan_ 0;
#X obj 115 118 cos;
#X obj 215 122 atan;
#X msg 215 101 1;
#X obj 215 144 * 2;
#X obj 115 73 *;
#X obj 142 117 sin;
#X obj 188 11 inlet;
#X obj 215 80 loadbang;
#X obj 115 95 t a a;
#X text 234 11 range: 0-1;
#X obj 14 9 inlet~;
#X obj 14 246 outlet~;
#X obj 76 245 outlet~;
#X obj 85 177 line~;
#X msg 85 156 \$1 50;
#X obj 129 176 line~;
#X msg 129 154 \$1 50;
#X obj 13 212 *~;
#X obj 77 215 *~;
#X connect 0 0 14 0;
#X connect 1 0 3 0;
#X connect 2 0 1 0;
#X connect 3 0 4 1;
#X connect 4 0 8 0;
#X connect 5 0 16 0;
#X connect 6 0 4 0;
#X connect 7 0 2 0;
#X connect 8 0 0 0;
#X connect 8 1 5 0;
#X connect 10 0 17 0;
#X connect 10 0 18 0;
#X connect 13 0 17 1;
#X connect 14 0 13 0;
#X connect 15 0 18 1;
#X connect 16 0 15 0;
#X connect 17 0 11 0;
#X connect 18 0 12 0;
#X restore 21 226 pd pan_;
#X obj 135 177 netpd_f \$1 rim/pan 0.5;
#X connect 0 0 11 0;
#X connect 1 0 11 0;
#X connect 2 0 3 0;
#X connect 3 0 9 0;
#X connect 7 0 0 0;
#X connect 7 1 8 0;
#X connect 8 0 7 1;
#X connect 9 0 0 0;
#X connect 10 0 7 0;
#X connect 11 0 13 0;
#X connect 11 1 6 0;
#X connect 12 0 1 0;
#X connect 13 0 4 0;
#X connect 13 1 5 0;
#X connect 14 0 13 1;
#X restore 239 132 pd rimshot;
#N canvas 930 496 329 166 OR 0;
#X obj 10 25 inlet;
#X obj 56 23 inlet;
#X obj 14 113 outlet;
#X obj 19 83 ||;
#X obj 32 58 t b a;
#X connect 0 0 3 0;
#X connect 1 0 4 0;
#X connect 3 0 2 0;
#X connect 4 0 3 0;
#X connect 4 1 3 1;
#X restore 200 252 pd OR;
#N canvas 1378 418 697 328 hihat 0;
#X obj 33 289 outlet~;
#X obj 109 290 outlet~;
#X obj 191 292 outlet;
#X obj 34 25 r qseq3;
#X obj 34 47 route \$1-tr808;
#X obj 129 45 sel 0;
#X obj 169 46 t a;
#X obj 34 224 tr808-hh~;
#X msg 469 171 decay \$1;
#X msg 485 223 tune \$1;
#X msg 349 34 reset;
#X msg 34 108 trigger_o;
#X obj 129 23 r \$0.ohh.s;
#X obj 34 69 route ohihat chihat;
#X msg 104 111 trigger_c;
#X obj 203 48 sel 0;
#X obj 243 49 t a;
#X obj 203 26 r \$0.chh.s;
#X msg 431 59 gain_o \$1;
#X msg 442 110 gain_c \$1;
#X obj 469 150 netpd_f \$1 ohh/decay 0.5;
#X obj 485 197 netpd_f \$1 hh/tune 0.5;
#X obj 442 85 netpd_f \$1 chh/gain 0.63;
#X obj 431 34 netpd_f \$1 ohh/gain 0.77;
#N canvas 876 460 450 300 pan_ 0;
#X obj 115 118 cos;
#X obj 215 122 atan;
#X msg 215 101 1;
#X obj 215 144 * 2;
#X obj 115 73 *;
#X obj 142 117 sin;
#X obj 188 11 inlet;
#X obj 215 80 loadbang;
#X obj 115 95 t a a;
#X text 234 11 range: 0-1;
#X obj 14 9 inlet~;
#X obj 14 246 outlet~;
#X obj 76 245 outlet~;
#X obj 85 177 line~;
#X msg 85 156 \$1 50;
#X obj 129 176 line~;
#X msg 129 154 \$1 50;
#X obj 13 212 *~;
#X obj 77 215 *~;
#X connect 0 0 14 0;
#X connect 1 0 3 0;
#X connect 2 0 1 0;
#X connect 3 0 4 1;
#X connect 4 0 8 0;
#X connect 5 0 16 0;
#X connect 6 0 4 0;
#X connect 7 0 2 0;
#X connect 8 0 0 0;
#X connect 8 1 5 0;
#X connect 10 0 17 0;
#X connect 10 0 18 0;
#X connect 13 0 17 1;
#X connect 14 0 13 0;
#X connect 15 0 18 1;
#X connect 16 0 15 0;
#X connect 17 0 11 0;
#X connect 18 0 12 0;
#X restore 34 253 pd pan_;
#X obj 451 281 netpd_f \$1 hh/pan 0.5;
#X connect 3 0 4 0;
#X connect 4 0 13 0;
#X connect 5 0 11 0;
#X connect 5 1 6 0;
#X connect 6 0 5 1;
#X connect 7 0 24 0;
#X connect 7 1 2 0;
#X connect 8 0 7 0;
#X connect 9 0 7 0;
#X connect 10 0 7 0;
#X connect 11 0 7 0;
#X connect 12 0 5 0;
#X connect 13 0 11 0;
#X connect 13 1 14 0;
#X connect 14 0 7 0;
#X connect 15 0 14 0;
#X connect 15 1 16 0;
#X connect 16 0 15 1;
#X connect 17 0 15 0;
#X connect 18 0 7 0;
#X connect 19 0 7 0;
#X connect 20 0 8 0;
#X connect 21 0 9 0;
#X connect 22 0 19 0;
#X connect 23 0 18 0;
#X connect 24 0 0 0;
#X connect 24 1 1 0;
#X connect 25 0 24 1;
#X restore 312 130 pd hihat;
#N canvas 930 496 329 166 OR 0;
#X obj 10 25 inlet;
#X obj 56 23 inlet;
#X obj 14 113 outlet;
#X obj 19 83 ||;
#X obj 32 58 t b a;
#X connect 0 0 3 0;
#X connect 1 0 4 0;
#X connect 3 0 2 0;
#X connect 4 0 3 0;
#X connect 4 1 3 1;
#X restore 213 279 pd OR;
#N canvas 1389 426 450 498 cymbal 0;
#X obj 33 299 outlet~;
#X obj 109 300 outlet~;
#X obj 188 303 outlet;
#X msg 34 94 trigger;
#X obj 34 25 r qseq3;
#X obj 34 47 route \$1-tr808;
#X msg 213 79 amp \$1;
#X msg 231 128 tone \$1;
#X msg 268 228 tune \$1;
#X obj 137 57 sel 0;
#X obj 178 60 t a;
#X obj 34 69 route cymbal;
#X obj 137 35 r \$0.cymbal.s;
#X obj 34 224 tr808-cym~;
#X obj 268 203 netpd_f \$1 cymbal/tune 0.5;
#X msg 247 180 decay \$1;
#X msg 101 127 reset;
#X obj 247 155 netpd_f \$1 cymbal/decay 0;
#X obj 231 107 netpd_f \$1 cymbal/tone 0;
#X obj 213 54 netpd_f \$1 cymbal/gain 0.62;
#N canvas 876 460 450 300 pan_ 0;
#X obj 115 118 cos;
#X obj 215 122 atan;
#X msg 215 101 1;
#X obj 215 144 * 2;
#X obj 115 73 *;
#X obj 142 117 sin;
#X obj 188 11 inlet;
#X obj 215 80 loadbang;
#X obj 115 95 t a a;
#X text 234 11 range: 0-1;
#X obj 14 9 inlet~;
#X obj 14 246 outlet~;
#X obj 76 245 outlet~;
#X obj 85 177 line~;
#X msg 85 156 \$1 50;
#X obj 129 176 line~;
#X msg 129 154 \$1 50;
#X obj 13 212 *~;
#X obj 77 215 *~;
#X connect 0 0 14 0;
#X connect 1 0 3 0;
#X connect 2 0 1 0;
#X connect 3 0 4 1;
#X connect 4 0 8 0;
#X connect 5 0 16 0;
#X connect 6 0 4 0;
#X connect 7 0 2 0;
#X connect 8 0 0 0;
#X connect 8 1 5 0;
#X connect 10 0 17 0;
#X connect 10 0 18 0;
#X connect 13 0 17 1;
#X connect 14 0 13 0;
#X connect 15 0 18 1;
#X connect 16 0 15 0;
#X connect 17 0 11 0;
#X connect 18 0 12 0;
#X restore 35 262 pd pan_;
#X obj 273 257 netpd_f \$1 cymbal/pan 0.5;
#X connect 3 0 13 0;
#X connect 4 0 5 0;
#X connect 5 0 11 0;
#X connect 6 0 13 0;
#X connect 7 0 13 0;
#X connect 8 0 13 0;
#X connect 9 0 3 0;
#X connect 9 1 10 0;
#X connect 10 0 9 1;
#X connect 11 0 3 0;
#X connect 12 0 9 0;
#X connect 13 0 20 0;
#X connect 13 1 2 0;
#X connect 14 0 8 0;
#X connect 15 0 13 0;
#X connect 16 0 13 0;
#X connect 17 0 15 0;
#X connect 18 0 7 0;
#X connect 19 0 6 0;
#X connect 20 0 0 0;
#X connect 20 1 1 0;
#X connect 21 0 20 1;
#X restore 377 129 pd cymbal;
#N canvas 930 496 329 166 OR 0;
#X obj 10 25 inlet;
#X obj 56 23 inlet;
#X obj 14 113 outlet;
#X obj 19 83 ||;
#X obj 32 58 t b a;
#X connect 0 0 3 0;
#X connect 1 0 4 0;
#X connect 3 0 2 0;
#X connect 4 0 3 0;
#X connect 4 1 3 1;
#X restore 217 306 pd OR;
#N canvas 1389 426 450 357 bell 0;
#X obj 33 289 outlet~;
#X obj 109 290 outlet~;
#X obj 204 289 outlet;
#X msg 34 94 trigger;
#X obj 34 25 r qseq3;
#X obj 34 47 route \$1-tr808;
#X msg 213 79 amp \$1;
#X msg 219 130 tune \$1;
#X obj 137 57 sel 0;
#X obj 178 60 t a;
#X msg 101 127 reset;
#X obj 34 69 route bell;
#X obj 137 35 r \$0.bell.s;
#X obj 219 105 netpd_f \$1 bl/tune 0.5;
#X obj 34 224 tr808-bl~;
#X obj 213 54 netpd_f \$1 bl/gain 0.51;
#N canvas 876 460 450 300 pan_ 0;
#X obj 115 118 cos;
#X obj 215 122 atan;
#X msg 215 101 1;
#X obj 215 144 * 2;
#X obj 115 73 *;
#X obj 142 117 sin;
#X obj 188 11 inlet;
#X obj 215 80 loadbang;
#X obj 115 95 t a a;
#X text 234 11 range: 0-1;
#X obj 14 9 inlet~;
#X obj 14 246 outlet~;
#X obj 76 245 outlet~;
#X obj 85 177 line~;
#X msg 85 156 \$1 50;
#X obj 129 176 line~;
#X msg 129 154 \$1 50;
#X obj 13 212 *~;
#X obj 77 215 *~;
#X connect 0 0 14 0;
#X connect 1 0 3 0;
#X connect 2 0 1 0;
#X connect 3 0 4 1;
#X connect 4 0 8 0;
#X connect 5 0 16 0;
#X connect 6 0 4 0;
#X connect 7 0 2 0;
#X connect 8 0 0 0;
#X connect 8 1 5 0;
#X connect 10 0 17 0;
#X connect 10 0 18 0;
#X connect 13 0 17 1;
#X connect 14 0 13 0;
#X connect 15 0 18 1;
#X connect 16 0 15 0;
#X connect 17 0 11 0;
#X connect 18 0 12 0;
#X restore 34 259 pd pan_;
#X obj 224 206 netpd_f \$1 bl/pan 0.5;
#X connect 3 0 14 0;
#X connect 4 0 5 0;
#X connect 5 0 11 0;
#X connect 6 0 14 0;
#X connect 7 0 14 0;
#X connect 8 0 3 0;
#X connect 8 1 9 0;
#X connect 9 0 8 1;
#X connect 10 0 14 0;
#X connect 11 0 3 0;
#X connect 12 0 8 0;
#X connect 13 0 7 0;
#X connect 14 0 16 0;
#X connect 14 1 2 0;
#X connect 15 0 6 0;
#X connect 16 0 0 0;
#X connect 16 1 1 0;
#X connect 17 0 16 1;
#X restore 443 130 pd bell;
#N canvas 930 496 329 166 OR 0;
#X obj 10 25 inlet;
#X obj 56 23 inlet;
#X obj 14 113 outlet;
#X obj 19 83 ||;
#X obj 32 58 t b a;
#X connect 0 0 3 0;
#X connect 1 0 4 0;
#X connect 3 0 2 0;
#X connect 4 0 3 0;
#X connect 4 1 3 1;
#X restore 231 329 pd OR;
#X obj 14 54 qseq3-instr-list \$1 tr808 bassdrum snare clap rimshot
ohihat chihat cymbal bell;
#X connect 3 0 4 0;
#X connect 3 1 4 1;
#X connect 3 2 8 0;
#X connect 5 0 4 0;
#X connect 5 1 4 1;
#X connect 5 2 8 1;
#X connect 6 0 4 2;
#X connect 7 0 4 0;
#X connect 7 1 4 1;
#X connect 7 2 9 1;
#X connect 8 0 9 0;
#X connect 9 0 11 0;
#X connect 10 0 4 0;
#X connect 10 1 4 1;
#X connect 10 2 11 1;
#X connect 11 0 13 0;
#X connect 12 0 4 0;
#X connect 12 1 4 1;
#X connect 12 2 13 1;
#X connect 13 0 15 0;
#X connect 14 0 4 0;
#X connect 14 1 4 1;
#X connect 14 2 15 1;
#X connect 15 0 17 0;
#X connect 16 0 4 0;
#X connect 16 1 4 1;
#X connect 16 2 17 1;
#X connect 17 0 6 0;
