#N canvas 375 47 568 254 10;
#N canvas 624 75 376 135 NETPD 0;
#N canvas 572 501 366 164 abslist 0;
#X msg 14 13 tr909-bd;
#X msg 18 39 tr909-sd;
#X msg 20 73 tr909-hc;
#X msg 190 17 tr909-lt;
#X msg 26 101 tr909-ch;
#X msg 31 129 tr909-oh;
#X msg 93 15 tr909-rs;
#X msg 100 40 tr909-rd;
#X msg 100 67 tr909-cs;
#X msg 196 40 tr909-mt;
#X msg 200 68 tr909-ht;
#X restore 11 37 pd abslist;
#X msg 12 8 version 0 0 0;
#X restore 10 14 pd NETPD 2 0;
#X obj 10 67 netpd_head \$1 tr909;
#N canvas 316 654 1133 426 \$1-tr909 1;
#X obj 229 24 hsl 128 15 0 1 0 0 \$1-bassdrum/gain \$1-bassdrum/gain gain 2 7 0 10 #fcfcc4 #ff8300 #000000 0 1;
#X obj 229 39 hsl 128 15 0 1 0 0 \$1-bassdrum/attack \$1-bassdrum/attack attack 2 7 0 10 #fcfcc4 #ff8300 #000000 0 1;
#X obj 229 69 hsl 128 15 0 1 0 0 \$1-bassdrum/decay \$1-bassdrum/decay decay 2 7 0 10 #fcfcc4 #ff8300 #000000 0 1;
#X obj 211 26 vsl 15 70 0 127 0 0 \$0.bassdrum.s \$0.bassdrum.r empty 0 -9 0 10 #feffc6 #feffc6 #000000 0 1;
#X obj 229 84 hsl 128 15 0 1 0 0 \$1-bassdrum/pan \$1-bassdrum/pan pan 2 7 0 10 #fcfcc4 #ff8300 #000000 0 1;
#X obj 229 54 hsl 128 15 0 1 0 0 \$1-bassdrum/tune \$1-bassdrum/tune tune 2 7 0 10 #fcfcc4 #ff8300 #000000 0 1;
#X obj 229 114 hsl 128 15 0 1 0 0 \$1-snaredrum/gain \$1-snaredrum/gain gain 2 7 0 10 #fcfcc4 #ff8300 #000000 0 1;
#X obj 229 129 hsl 128 15 0 1 0 0 \$1-snaredrum/snappy \$1-snaredrum/snappy snappy 2 7 0 10 #fcfcc4 #ff8300 #000000 0 1;
#X obj 229 159 hsl 128 15 0 1 0 0 \$1-snaredrum/tune \$1-snaredrum/tune tune 2 7 0 10 #fcfcc4 #ff8300 #000000 0 1;
#X obj 211 116 vsl 15 70 0 127 0 0 \$0.snaredrum.s \$0.snaredrum.r empty 0 -9 0 10 #feffc6 #feffc6 #000000 0 1;
#X obj 229 174 hsl 128 15 0 1 0 0 \$1-snaredrum/pan \$1-snaredrum/pan pan 2 7 0 10 #fcfcc4 #ff8300 #000000 0 1;
#X obj 229 144 hsl 128 15 0 1 0 0 \$1-snaredrum/tone \$1-snaredrum/tone tone 2 7 0 10 #fcfcc4 #ff8300 #000000 0 1;
#X obj 231 215 hsl 128 15 0 1 0 0 \$1-lowtom/gain \$1-lowtom/gain gain 2 7 0 10 #fcfcc4 #ff8300 #000000 0 1;
#X obj 231 245 hsl 128 15 0 1 0 0 \$1-lowtom/decay \$1-lowtom/decay decay 2 7 0 10 #fcfcc4 #ff8300 #000000 0 1;
#X obj 213 217 vsl 15 55 0 127 0 0 \$0.lowtom.s \$0.lowtom.r empty 0 -9 0 10 #feffc6 #feffc6 #000000 0 1;
#X obj 231 260 hsl 128 15 0 1 0 0 \$1-lowtom/pan \$1-lowtom/pan pan 2 7 0 10 #fcfcc4 #ff8300 #000000 0 1;
#X obj 231 230 hsl 128 15 0 1 0 0 \$1-lowtom/tune \$1-lowtom/tune tune 2 7 0 10 #fcfcc4 #ff8300 #000000 0 1;
#X obj 231 285 hsl 128 15 0 1 0 0 \$1-midtom/gain \$1-midtom/gain gain 2 7 0 10 #fcfcc4 #ff8300 #000000 0 1;
#X obj 231 315 hsl 128 15 0 1 0 0 \$1-midtom/decay \$1-midtom/decay decay 2 7 0 10 #fcfcc4 #ff8300 #000000 0 1;
#X obj 213 287 vsl 15 55 0 127 0 0 \$0.midtom.s \$0.midtom.r empty 0 -9 0 10 #feffc6 #feffc6 #000000 0 1;
#X obj 231 330 hsl 128 15 0 1 0 0 \$1-midtom/pan \$1-midtom/pan pan 2 7 0 10 #fcfcc4 #ff8300 #000000 0 1;
#X obj 231 300 hsl 128 15 0 1 0 0 \$1-midtom/tune \$1-midtom/tune tune 2 7 0 10 #fcfcc4 #ff8300 #000000 0 1;
#X obj 231 355 hsl 128 15 0 1 0 0 \$1-hightom/gain \$1-hightom/gain gain 2 7 0 10 #fcfcc4 #ff8300 #000000 0 1;
#X obj 231 385 hsl 128 15 0 1 0 0 \$1-hightom/decay \$1-hightom/decay decay 2 7 0 10 #fcfcc4 #ff8300 #000000 0 1;
#X obj 213 357 vsl 15 55 0 127 0 0 \$0.hightom.s \$0.hightom.r empty 0 -9 0 10 #feffc6 #feffc6 #000000 0 1;
#X obj 231 400 hsl 128 15 0 1 0 0 \$1-hightom/pan \$1-hightom/pan pan 2 7 0 10 #fcfcc4 #ff8300 #000000 0 1;
#X obj 231 370 hsl 128 15 0 1 0 0 \$1-hightom/tune \$1-hightom/tune tune 2 7 0 10 #fcfcc4 #ff8300 #000000 0 1;
#X obj 421 25 hsl 128 15 0 1 0 0 \$1-rimshot/gain \$1-rimshot/gain gain 2 7 0 10 #fcfcc4 #ff8300 #000000 0 1;
#X obj 403 27 vsl 15 25 0 127 0 0 \$0.rimshot.s \$0.rimshot.r empty 0 -9 0 10 #feffc6 #feffc6 #000000 0 1;
#X obj 421 40 hsl 128 15 0 1 0 0 \$1-rimshot/pan \$1-rimshot/pan pan 2 7 0 10 #fcfcc4 #ff8300 #000000 0 1;
#X obj 421 65 hsl 128 15 0 1 0 0 \$1-handclap/gain \$1-handclap/gain gain 2 7 0 10 #fcfcc4 #ff8300 #000000 0 1;
#X obj 403 67 vsl 15 25 0 127 0 0 \$0.handclap.s \$0.handclap.r empty 0 -9 0 10 #feffc6 #feffc6 #000000 0 1;
#X obj 421 80 hsl 128 15 0 1 0 0 \$1-handclap/pan \$1-handclap/pan pan 2 7 0 10 #fcfcc4 #ff8300 #000000 0 1;
#X obj 421 105 hsl 128 15 0 1 0 0 \$1-crash/gain \$1-crash/gain gain 2 7 0 10 #fcfcc4 #ff8300 #000000 0 1;
#X obj 403 107 vsl 15 40 0 127 0 0 \$0.crash.s \$0.crash.r empty 0 -9 0 10 #feffc6 #feffc6 #000000 0 1;
#X obj 421 135 hsl 128 15 0 1 0 0 \$1-crash/pan \$1-crash/pan pan 2 7 0 10 #fcfcc4 #ff8300 #000000 0 1;
#X obj 421 120 hsl 128 15 0 1 0 0 \$1-crash/tune \$1-crash/tune tune 2 7 0 10 #fcfcc4 #ff8300 #000000 0 1;
#X obj 421 158 hsl 128 15 0 1 0 0 \$1-ride/gain \$1-ride/gain gain 2 7 0 10 #fcfcc4 #ff8300 #000000 0 1;
#X obj 403 160 vsl 15 40 0 127 0 0 \$0.ride.s \$0.ride.r empty 0 -9 0 10 #feffc6 #feffc6 #000000 0 1;
#X obj 421 188 hsl 128 15 0 1 0 0 \$1-ride/pan \$1-ride/pan pan 2 7 0 10 #fcfcc4 #ff8300 #000000 0 1;
#X obj 421 173 hsl 128 15 0 1 0 0 \$1-ride/tune \$1-ride/tune tune 2 7 0 10 #fcfcc4 #ff8300 #000000 0 1;
#X obj 421 235 hsl 128 15 0 1 0 0 \$1-closedhat/gain \$1-closedhat/gain gain 2 7 0 10 #fcfcc4 #ff8300 #000000 0 1;
#X obj 421 250 hsl 128 15 0 1 0 0 \$1-closedhat/decay \$1-closedhat/decay decay 2 7 0 10 #fcfcc4 #ff8300 #000000 0 1;
#X obj 403 237 vsl 15 40 0 127 0 0 \$0.closedhat.s \$0.closedhat.r empty 0 -9 0 10 #feffc6 #feffc6 #000000 0 1;
#X obj 421 265 hsl 128 15 0 1 0 0 \$1-closedhat/pan \$1-closedhat/pan pan 2 7 0 10 #fcfcc4 #ff8300 #000000 0 1;
#X obj 421 295 hsl 128 15 0 1 0 0 \$1-openhat/gain \$1-openhat/gain gain 2 7 0 10 #fcfcc4 #ff8300 #000000 0 1;
#X obj 421 310 hsl 128 15 0 1 0 0 \$1-openhat/decay \$1-openhat/decay decay 2 7 0 10 #fcfcc4 #ff8300 #000000 0 1;
#X obj 403 297 vsl 15 40 0 127 0 0 \$0.openhat.s \$0.openhat.r empty 0 -9 0 10 #feffc6 #feffc6 #000000 0 1;
#X obj 421 325 hsl 128 15 0 1 0 0 \$1-openhat/pan \$1-openhat/pan pan 2 7 0 10 #fcfcc4 #ff8300 #000000 0 1;
#X restore 10 42 pd \$1-tr909;
#X obj 8 93 qseq3-instr-list \$1 tr909 bassdrum snaredrum lowtom midtom hightom rimshot handclap closedhat openhat crash ride;
#N canvas 1021 43 450 349 dsp 1;
#N canvas 54 65 635 386 bassdrum 0;
#X obj 18 21 inlet~;
#X obj 80 21 inlet~;
#X obj 141 21 inlet;
#X obj 18 334 outlet~;
#X obj 80 333 outlet~;
#X obj 18 287 +~;
#X obj 80 286 +~;
#X obj 196 195 tr909-bd;
#N canvas 876 460 450 300 pan_ 0;
#X obj 115 118 cos;
#X obj 215 122 atan;
#X msg 215 101 1;
#X obj 215 144 * 2;
#X obj 115 73 *;
#X obj 142 117 sin;
#X obj 188 11 inlet;
#X obj 215 80 loadbang;
#X obj 115 95 t a a;
#X text 234 11 range: 0-1;
#X obj 14 9 inlet~;
#X obj 14 246 outlet~;
#X obj 76 245 outlet~;
#X obj 85 177 line~;
#X msg 85 156 \$1 50;
#X obj 129 176 line~;
#X msg 129 154 \$1 50;
#X obj 13 212 *~;
#X obj 77 215 *~;
#X connect 0 0 14 0;
#X connect 1 0 3 0;
#X connect 2 0 1 0;
#X connect 3 0 4 1;
#X connect 4 0 8 0;
#X connect 5 0 16 0;
#X connect 6 0 4 0;
#X connect 7 0 2 0;
#X connect 8 0 0 0;
#X connect 8 1 5 0;
#X connect 10 0 17 0;
#X connect 10 0 18 0;
#X connect 13 0 17 1;
#X connect 14 0 13 0;
#X connect 15 0 18 1;
#X connect 16 0 15 0;
#X connect 17 0 11 0;
#X connect 18 0 12 0;
#X restore 39 262 pd pan_;
#X f 11;
#X obj 142 284 ||;
#X obj 155 259 t b a;
#X msg 345 103 attack \$1;
#X msg 348 152 decay \$1;
#X msg 350 201 tune \$1;
#X msg 350 252 gain \$1;
#X obj 348 293 netpd_f \$1 bassdrum/pan 0.5;
#X msg 196 89 trigger;
#X obj 196 20 r qseq3;
#X obj 196 64 route bassdrum;
#X obj 301 49 sel 0;
#X obj 342 52 t a;
#X obj 301 27 r \$0.bassdrum.s;
#X obj 196 42 route \$1-tr909;
#X obj 350 230 netpd_f \$1 bassdrum/gain 0.707;
#X obj 350 180 netpd_f \$1 bassdrum/tune 0.5;
#X obj 348 130 netpd_f \$1 bassdrum/decay 0.5;
#X obj 345 80 netpd_f \$1 bassdrum/attack 0.5;
#X obj 142 313 outlet;
#X obj 233 353 dac~;
#X connect 0 0 5 0;
#X connect 1 0 6 0;
#X connect 2 0 9 0;
#X connect 5 0 3 0;
#X connect 6 0 4 0;
#X connect 7 0 8 0;
#X connect 7 1 10 0;
#X connect 8 0 5 1;
#X connect 8 1 6 1;
#X connect 9 0 27 0;
#X connect 10 0 9 0;
#X connect 10 1 9 1;
#X connect 11 0 7 0;
#X connect 12 0 7 0;
#X connect 13 0 7 0;
#X connect 14 0 7 0;
#X connect 15 0 8 1;
#X connect 16 0 7 0;
#X connect 17 0 22 0;
#X connect 18 0 16 0;
#X connect 19 0 16 0;
#X connect 19 1 20 0;
#X connect 20 0 19 1;
#X connect 21 0 19 0;
#X connect 22 0 18 0;
#X connect 23 0 14 0;
#X connect 24 0 13 0;
#X connect 25 0 12 0;
#X connect 26 0 11 0;
#X restore 19 23 pd bassdrum;
#X f 23;
#X obj 18 314 outlet~;
#X obj 86 313 outlet~;
#X obj 154 313 outlet;
#N canvas 430 363 635 386 snaredrum 0;
#X obj 18 21 inlet~;
#X obj 80 21 inlet~;
#X obj 141 21 inlet;
#X obj 18 314 outlet~;
#X obj 80 313 outlet~;
#X obj 18 287 +~;
#X obj 80 286 +~;
#N canvas 876 460 450 300 pan_ 0;
#X obj 115 118 cos;
#X obj 215 122 atan;
#X msg 215 101 1;
#X obj 215 144 * 2;
#X obj 115 73 *;
#X obj 142 117 sin;
#X obj 188 11 inlet;
#X obj 215 80 loadbang;
#X obj 115 95 t a a;
#X text 234 11 range: 0-1;
#X obj 14 9 inlet~;
#X obj 14 246 outlet~;
#X obj 76 245 outlet~;
#X obj 85 177 line~;
#X msg 85 156 \$1 50;
#X obj 129 176 line~;
#X msg 129 154 \$1 50;
#X obj 13 212 *~;
#X obj 77 215 *~;
#X connect 0 0 14 0;
#X connect 1 0 3 0;
#X connect 2 0 1 0;
#X connect 3 0 4 1;
#X connect 4 0 8 0;
#X connect 5 0 16 0;
#X connect 6 0 4 0;
#X connect 7 0 2 0;
#X connect 8 0 0 0;
#X connect 8 1 5 0;
#X connect 10 0 17 0;
#X connect 10 0 18 0;
#X connect 13 0 17 1;
#X connect 14 0 13 0;
#X connect 15 0 18 1;
#X connect 16 0 15 0;
#X connect 17 0 11 0;
#X connect 18 0 12 0;
#X restore 39 262 pd pan_;
#X f 11;
#X obj 142 284 ||;
#X obj 155 259 t b a;
#X msg 350 201 tune \$1;
#X msg 350 252 gain \$1;
#X msg 196 89 trigger;
#X obj 196 20 r qseq3;
#X obj 301 49 sel 0;
#X obj 342 52 t a;
#X obj 196 42 route \$1-tr909;
#X obj 142 313 outlet;
#X obj 196 195 tr909-sd;
#X obj 345 80 netpd_f \$1 snaredrum/snappy 0.5;
#X obj 348 130 netpd_f \$1 snaredrum/tone 0.5;
#X obj 350 180 netpd_f \$1 snaredrum/tune 0.5;
#X obj 196 64 route snaredrum;
#X obj 301 27 r \$0.snaredrum.s;
#X obj 348 293 netpd_f \$1 snaredrum/pan 0.5;
#X obj 350 230 netpd_f \$1 snaredrum/gain 0.707;
#X msg 345 103 snappy \$1;
#X msg 348 152 tone \$1;
#X connect 0 0 5 0;
#X connect 1 0 6 0;
#X connect 2 0 8 0;
#X connect 5 0 3 0;
#X connect 6 0 4 0;
#X connect 7 0 5 1;
#X connect 7 1 6 1;
#X connect 8 0 17 0;
#X connect 9 0 8 0;
#X connect 9 1 8 1;
#X connect 10 0 18 0;
#X connect 11 0 18 0;
#X connect 12 0 18 0;
#X connect 13 0 16 0;
#X connect 14 0 12 0;
#X connect 14 1 15 0;
#X connect 15 0 14 1;
#X connect 16 0 22 0;
#X connect 18 0 7 0;
#X connect 18 1 9 0;
#X connect 19 0 26 0;
#X connect 20 0 27 0;
#X connect 21 0 10 0;
#X connect 22 0 12 0;
#X connect 23 0 14 0;
#X connect 24 0 7 1;
#X connect 25 0 11 0;
#X connect 26 0 18 0;
#X connect 27 0 18 0;
#X restore 19 46 pd snaredrum;
#X f 23;
#N canvas 54 65 635 386 lowtom 0;
#X obj 18 21 inlet~;
#X obj 80 21 inlet~;
#X obj 141 21 inlet;
#X obj 18 314 outlet~;
#X obj 80 313 outlet~;
#X obj 18 287 +~;
#X obj 80 286 +~;
#N canvas 876 460 450 300 pan_ 0;
#X obj 115 118 cos;
#X obj 215 122 atan;
#X msg 215 101 1;
#X obj 215 144 * 2;
#X obj 115 73 *;
#X obj 142 117 sin;
#X obj 188 11 inlet;
#X obj 215 80 loadbang;
#X obj 115 95 t a a;
#X text 234 11 range: 0-1;
#X obj 14 9 inlet~;
#X obj 14 246 outlet~;
#X obj 76 245 outlet~;
#X obj 85 177 line~;
#X msg 85 156 \$1 50;
#X obj 129 176 line~;
#X msg 129 154 \$1 50;
#X obj 13 212 *~;
#X obj 77 215 *~;
#X connect 0 0 14 0;
#X connect 1 0 3 0;
#X connect 2 0 1 0;
#X connect 3 0 4 1;
#X connect 4 0 8 0;
#X connect 5 0 16 0;
#X connect 6 0 4 0;
#X connect 7 0 2 0;
#X connect 8 0 0 0;
#X connect 8 1 5 0;
#X connect 10 0 17 0;
#X connect 10 0 18 0;
#X connect 13 0 17 1;
#X connect 14 0 13 0;
#X connect 15 0 18 1;
#X connect 16 0 15 0;
#X connect 17 0 11 0;
#X connect 18 0 12 0;
#X restore 39 262 pd pan_;
#X f 11;
#X obj 142 284 ||;
#X obj 155 259 t b a;
#X msg 348 152 decay \$1;
#X msg 350 201 tune \$1;
#X msg 350 252 gain \$1;
#X msg 196 89 trigger;
#X obj 196 20 r qseq3;
#X obj 301 49 sel 0;
#X obj 342 52 t a;
#X obj 196 42 route \$1-tr909;
#X obj 142 313 outlet;
#X obj 196 195 tr909-lt;
#X obj 196 64 route lowtom;
#X obj 301 27 r \$0.lowtom.s;
#X obj 348 130 netpd_f \$1 lowtom/decay 0.5;
#X obj 350 180 netpd_f \$1 lowtom/tune 0.5;
#X obj 350 230 netpd_f \$1 lowtom/gain 0.707;
#X obj 348 293 netpd_f \$1 lowtom/pan 0.5;
#X connect 0 0 5 0;
#X connect 1 0 6 0;
#X connect 2 0 8 0;
#X connect 5 0 3 0;
#X connect 6 0 4 0;
#X connect 7 0 5 1;
#X connect 7 1 6 1;
#X connect 8 0 18 0;
#X connect 9 0 8 0;
#X connect 9 1 8 1;
#X connect 10 0 19 0;
#X connect 11 0 19 0;
#X connect 12 0 19 0;
#X connect 13 0 19 0;
#X connect 14 0 17 0;
#X connect 15 0 13 0;
#X connect 15 1 16 0;
#X connect 16 0 15 1;
#X connect 17 0 20 0;
#X connect 19 0 7 0;
#X connect 19 1 9 0;
#X connect 20 0 13 0;
#X connect 21 0 15 0;
#X connect 22 0 10 0;
#X connect 23 0 11 0;
#X connect 24 0 12 0;
#X connect 25 0 7 1;
#X restore 19 69 pd lowtom;
#X f 23;
#N canvas 54 65 635 386 midtom 0;
#X obj 18 21 inlet~;
#X obj 80 21 inlet~;
#X obj 141 21 inlet;
#X obj 18 314 outlet~;
#X obj 80 313 outlet~;
#X obj 18 287 +~;
#X obj 80 286 +~;
#N canvas 876 460 450 300 pan_ 0;
#X obj 115 118 cos;
#X obj 215 122 atan;
#X msg 215 101 1;
#X obj 215 144 * 2;
#X obj 115 73 *;
#X obj 142 117 sin;
#X obj 188 11 inlet;
#X obj 215 80 loadbang;
#X obj 115 95 t a a;
#X text 234 11 range: 0-1;
#X obj 14 9 inlet~;
#X obj 14 246 outlet~;
#X obj 76 245 outlet~;
#X obj 85 177 line~;
#X msg 85 156 \$1 50;
#X obj 129 176 line~;
#X msg 129 154 \$1 50;
#X obj 13 212 *~;
#X obj 77 215 *~;
#X connect 0 0 14 0;
#X connect 1 0 3 0;
#X connect 2 0 1 0;
#X connect 3 0 4 1;
#X connect 4 0 8 0;
#X connect 5 0 16 0;
#X connect 6 0 4 0;
#X connect 7 0 2 0;
#X connect 8 0 0 0;
#X connect 8 1 5 0;
#X connect 10 0 17 0;
#X connect 10 0 18 0;
#X connect 13 0 17 1;
#X connect 14 0 13 0;
#X connect 15 0 18 1;
#X connect 16 0 15 0;
#X connect 17 0 11 0;
#X connect 18 0 12 0;
#X restore 39 262 pd pan_;
#X f 11;
#X obj 142 284 ||;
#X obj 155 259 t b a;
#X msg 348 152 decay \$1;
#X msg 350 201 tune \$1;
#X msg 350 252 gain \$1;
#X msg 196 89 trigger;
#X obj 196 20 r qseq3;
#X obj 301 49 sel 0;
#X obj 342 52 t a;
#X obj 196 42 route \$1-tr909;
#X obj 142 313 outlet;
#X obj 196 195 tr909-mt;
#X obj 348 130 netpd_f \$1 midtom/decay 0.5;
#X obj 350 180 netpd_f \$1 midtom/tune 0.5;
#X obj 350 230 netpd_f \$1 midtom/gain 0.707;
#X obj 348 293 netpd_f \$1 midtom/pan 0.5;
#X obj 196 64 route midtom;
#X obj 301 27 r \$0.midtom.s;
#X connect 0 0 5 0;
#X connect 1 0 6 0;
#X connect 2 0 8 0;
#X connect 5 0 3 0;
#X connect 6 0 4 0;
#X connect 7 0 5 1;
#X connect 7 1 6 1;
#X connect 8 0 18 0;
#X connect 9 0 8 0;
#X connect 9 1 8 1;
#X connect 10 0 19 0;
#X connect 11 0 19 0;
#X connect 12 0 19 0;
#X connect 13 0 19 0;
#X connect 14 0 17 0;
#X connect 15 0 13 0;
#X connect 15 1 16 0;
#X connect 16 0 15 1;
#X connect 17 0 24 0;
#X connect 19 0 7 0;
#X connect 19 1 9 0;
#X connect 20 0 10 0;
#X connect 21 0 11 0;
#X connect 22 0 12 0;
#X connect 23 0 7 1;
#X connect 24 0 13 0;
#X connect 25 0 15 0;
#X restore 19 92 pd midtom;
#X f 23;
#N canvas 54 65 635 386 hightom 0;
#X obj 18 21 inlet~;
#X obj 80 21 inlet~;
#X obj 141 21 inlet;
#X obj 18 314 outlet~;
#X obj 80 313 outlet~;
#X obj 18 287 +~;
#X obj 80 286 +~;
#N canvas 876 460 450 300 pan_ 0;
#X obj 115 118 cos;
#X obj 215 122 atan;
#X msg 215 101 1;
#X obj 215 144 * 2;
#X obj 115 73 *;
#X obj 142 117 sin;
#X obj 188 11 inlet;
#X obj 215 80 loadbang;
#X obj 115 95 t a a;
#X text 234 11 range: 0-1;
#X obj 14 9 inlet~;
#X obj 14 246 outlet~;
#X obj 76 245 outlet~;
#X obj 85 177 line~;
#X msg 85 156 \$1 50;
#X obj 129 176 line~;
#X msg 129 154 \$1 50;
#X obj 13 212 *~;
#X obj 77 215 *~;
#X connect 0 0 14 0;
#X connect 1 0 3 0;
#X connect 2 0 1 0;
#X connect 3 0 4 1;
#X connect 4 0 8 0;
#X connect 5 0 16 0;
#X connect 6 0 4 0;
#X connect 7 0 2 0;
#X connect 8 0 0 0;
#X connect 8 1 5 0;
#X connect 10 0 17 0;
#X connect 10 0 18 0;
#X connect 13 0 17 1;
#X connect 14 0 13 0;
#X connect 15 0 18 1;
#X connect 16 0 15 0;
#X connect 17 0 11 0;
#X connect 18 0 12 0;
#X restore 39 262 pd pan_;
#X f 11;
#X obj 142 284 ||;
#X obj 155 259 t b a;
#X msg 348 152 decay \$1;
#X msg 350 201 tune \$1;
#X msg 350 252 gain \$1;
#X msg 196 89 trigger;
#X obj 196 20 r qseq3;
#X obj 301 49 sel 0;
#X obj 342 52 t a;
#X obj 196 42 route \$1-tr909;
#X obj 142 313 outlet;
#X obj 196 64 route hightom;
#X obj 301 27 r \$0.hightom.s;
#X obj 348 130 netpd_f \$1 hightom/decay 0.5;
#X obj 350 180 netpd_f \$1 hightom/tune 0.5;
#X obj 350 230 netpd_f \$1 hightom/gain 0.707;
#X obj 348 293 netpd_f \$1 hightom/pan 0.5;
#X obj 196 195 tr909-ht;
#X connect 0 0 5 0;
#X connect 1 0 6 0;
#X connect 2 0 8 0;
#X connect 5 0 3 0;
#X connect 6 0 4 0;
#X connect 7 0 5 1;
#X connect 7 1 6 1;
#X connect 8 0 18 0;
#X connect 9 0 8 0;
#X connect 9 1 8 1;
#X connect 10 0 25 0;
#X connect 11 0 25 0;
#X connect 12 0 25 0;
#X connect 13 0 25 0;
#X connect 14 0 17 0;
#X connect 15 0 13 0;
#X connect 15 1 16 0;
#X connect 16 0 15 1;
#X connect 17 0 19 0;
#X connect 19 0 13 0;
#X connect 20 0 15 0;
#X connect 21 0 10 0;
#X connect 22 0 11 0;
#X connect 23 0 12 0;
#X connect 24 0 7 1;
#X connect 25 0 7 0;
#X connect 25 1 9 0;
#X restore 19 115 pd hightom;
#X f 23;
#N canvas 54 65 635 386 rimshot 0;
#X obj 18 21 inlet~;
#X obj 80 21 inlet~;
#X obj 141 21 inlet;
#X obj 18 314 outlet~;
#X obj 80 313 outlet~;
#X obj 18 287 +~;
#X obj 80 286 +~;
#N canvas 876 460 450 300 pan_ 0;
#X obj 115 118 cos;
#X obj 215 122 atan;
#X msg 215 101 1;
#X obj 215 144 * 2;
#X obj 115 73 *;
#X obj 142 117 sin;
#X obj 188 11 inlet;
#X obj 215 80 loadbang;
#X obj 115 95 t a a;
#X text 234 11 range: 0-1;
#X obj 14 9 inlet~;
#X obj 14 246 outlet~;
#X obj 76 245 outlet~;
#X obj 85 177 line~;
#X msg 85 156 \$1 50;
#X obj 129 176 line~;
#X msg 129 154 \$1 50;
#X obj 13 212 *~;
#X obj 77 215 *~;
#X connect 0 0 14 0;
#X connect 1 0 3 0;
#X connect 2 0 1 0;
#X connect 3 0 4 1;
#X connect 4 0 8 0;
#X connect 5 0 16 0;
#X connect 6 0 4 0;
#X connect 7 0 2 0;
#X connect 8 0 0 0;
#X connect 8 1 5 0;
#X connect 10 0 17 0;
#X connect 10 0 18 0;
#X connect 13 0 17 1;
#X connect 14 0 13 0;
#X connect 15 0 18 1;
#X connect 16 0 15 0;
#X connect 17 0 11 0;
#X connect 18 0 12 0;
#X restore 39 262 pd pan_;
#X f 11;
#X obj 142 284 ||;
#X obj 155 259 t b a;
#X msg 350 252 gain \$1;
#X msg 196 89 trigger;
#X obj 196 20 r qseq3;
#X obj 301 49 sel 0;
#X obj 342 52 t a;
#X obj 196 42 route \$1-tr909;
#X obj 142 313 outlet;
#X obj 196 64 route rimshot;
#X obj 301 27 r \$0.rimshot.s;
#X obj 350 230 netpd_f \$1 rimshot/gain 0.707;
#X obj 348 293 netpd_f \$1 rimshot/pan 0.5;
#X obj 196 195 tr909-rs;
#X connect 0 0 5 0;
#X connect 1 0 6 0;
#X connect 2 0 8 0;
#X connect 5 0 3 0;
#X connect 6 0 4 0;
#X connect 7 0 5 1;
#X connect 7 1 6 1;
#X connect 8 0 16 0;
#X connect 9 0 8 0;
#X connect 9 1 8 1;
#X connect 10 0 21 0;
#X connect 11 0 21 0;
#X connect 12 0 15 0;
#X connect 13 0 11 0;
#X connect 13 1 14 0;
#X connect 14 0 13 1;
#X connect 15 0 17 0;
#X connect 17 0 11 0;
#X connect 18 0 13 0;
#X connect 19 0 10 0;
#X connect 20 0 7 1;
#X connect 21 0 7 0;
#X connect 21 1 9 0;
#X restore 19 138 pd rimshot;
#X f 23;
#N canvas 54 65 635 386 handclap 0;
#X obj 18 21 inlet~;
#X obj 80 21 inlet~;
#X obj 141 21 inlet;
#X obj 18 314 outlet~;
#X obj 80 313 outlet~;
#X obj 18 287 +~;
#X obj 80 286 +~;
#N canvas 876 460 450 300 pan_ 0;
#X obj 115 118 cos;
#X obj 215 122 atan;
#X msg 215 101 1;
#X obj 215 144 * 2;
#X obj 115 73 *;
#X obj 142 117 sin;
#X obj 188 11 inlet;
#X obj 215 80 loadbang;
#X obj 115 95 t a a;
#X text 234 11 range: 0-1;
#X obj 14 9 inlet~;
#X obj 14 246 outlet~;
#X obj 76 245 outlet~;
#X obj 85 177 line~;
#X msg 85 156 \$1 50;
#X obj 129 176 line~;
#X msg 129 154 \$1 50;
#X obj 13 212 *~;
#X obj 77 215 *~;
#X connect 0 0 14 0;
#X connect 1 0 3 0;
#X connect 2 0 1 0;
#X connect 3 0 4 1;
#X connect 4 0 8 0;
#X connect 5 0 16 0;
#X connect 6 0 4 0;
#X connect 7 0 2 0;
#X connect 8 0 0 0;
#X connect 8 1 5 0;
#X connect 10 0 17 0;
#X connect 10 0 18 0;
#X connect 13 0 17 1;
#X connect 14 0 13 0;
#X connect 15 0 18 1;
#X connect 16 0 15 0;
#X connect 17 0 11 0;
#X connect 18 0 12 0;
#X restore 39 262 pd pan_;
#X f 11;
#X obj 142 284 ||;
#X obj 155 259 t b a;
#X msg 350 252 gain \$1;
#X msg 196 89 trigger;
#X obj 196 20 r qseq3;
#X obj 301 49 sel 0;
#X obj 342 52 t a;
#X obj 196 42 route \$1-tr909;
#X obj 142 313 outlet;
#X obj 196 64 route handclap;
#X obj 301 27 r \$0.handclap.s;
#X obj 350 230 netpd_f \$1 handclap/gain 0.707;
#X obj 348 293 netpd_f \$1 handclap/pan 0.5;
#X obj 196 195 tr909-hc;
#X connect 0 0 5 0;
#X connect 1 0 6 0;
#X connect 2 0 8 0;
#X connect 5 0 3 0;
#X connect 6 0 4 0;
#X connect 7 0 5 1;
#X connect 7 1 6 1;
#X connect 8 0 16 0;
#X connect 9 0 8 0;
#X connect 9 1 8 1;
#X connect 10 0 21 0;
#X connect 11 0 21 0;
#X connect 12 0 15 0;
#X connect 13 0 11 0;
#X connect 13 1 14 0;
#X connect 14 0 13 1;
#X connect 15 0 17 0;
#X connect 17 0 11 0;
#X connect 18 0 13 0;
#X connect 19 0 10 0;
#X connect 20 0 7 1;
#X connect 21 0 7 0;
#X connect 21 1 9 0;
#X restore 19 161 pd handclap;
#X f 23;
#N canvas 54 65 635 386 closedhat 0;
#X obj 18 21 inlet~;
#X obj 80 21 inlet~;
#X obj 141 21 inlet;
#X obj 18 314 outlet~;
#X obj 80 313 outlet~;
#X obj 18 287 +~;
#X obj 80 286 +~;
#N canvas 876 460 450 300 pan_ 0;
#X obj 115 118 cos;
#X obj 215 122 atan;
#X msg 215 101 1;
#X obj 215 144 * 2;
#X obj 115 73 *;
#X obj 142 117 sin;
#X obj 188 11 inlet;
#X obj 215 80 loadbang;
#X obj 115 95 t a a;
#X text 234 11 range: 0-1;
#X obj 14 9 inlet~;
#X obj 14 246 outlet~;
#X obj 76 245 outlet~;
#X obj 85 177 line~;
#X msg 85 156 \$1 50;
#X obj 129 176 line~;
#X msg 129 154 \$1 50;
#X obj 13 212 *~;
#X obj 77 215 *~;
#X connect 0 0 14 0;
#X connect 1 0 3 0;
#X connect 2 0 1 0;
#X connect 3 0 4 1;
#X connect 4 0 8 0;
#X connect 5 0 16 0;
#X connect 6 0 4 0;
#X connect 7 0 2 0;
#X connect 8 0 0 0;
#X connect 8 1 5 0;
#X connect 10 0 17 0;
#X connect 10 0 18 0;
#X connect 13 0 17 1;
#X connect 14 0 13 0;
#X connect 15 0 18 1;
#X connect 16 0 15 0;
#X connect 17 0 11 0;
#X connect 18 0 12 0;
#X restore 39 262 pd pan_;
#X f 11;
#X obj 142 284 ||;
#X obj 155 259 t b a;
#X msg 348 152 decay \$1;
#X msg 350 252 gain \$1;
#X msg 196 89 trigger;
#X obj 196 20 r qseq3;
#X obj 301 49 sel 0;
#X obj 342 52 t a;
#X obj 196 42 route \$1-tr909;
#X obj 142 313 outlet;
#X obj 196 64 route closedhat;
#X obj 348 130 netpd_f \$1 closedhat/decay 0.5;
#X obj 350 230 netpd_f \$1 closedhat/gain 0.707;
#X obj 348 293 netpd_f \$1 closedhat/pan 0.5;
#X obj 196 215 tr909-ch;
#X obj 301 27 r \$0.closedhat.s;
#X obj 196 112 t a b;
#X obj 223 138 s \$0.oh.mute;
#X obj 223 159 r \$0.ch.mute;
#X msg 223 182 mute;
#X connect 0 0 5 0;
#X connect 1 0 6 0;
#X connect 2 0 8 0;
#X connect 5 0 3 0;
#X connect 6 0 4 0;
#X connect 7 0 5 1;
#X connect 7 1 6 1;
#X connect 8 0 17 0;
#X connect 9 0 8 0;
#X connect 9 1 8 1;
#X connect 10 0 22 0;
#X connect 11 0 22 0;
#X connect 12 0 24 0;
#X connect 13 0 16 0;
#X connect 14 0 12 0;
#X connect 14 1 15 0;
#X connect 15 0 14 1;
#X connect 16 0 18 0;
#X connect 18 0 12 0;
#X connect 19 0 10 0;
#X connect 20 0 11 0;
#X connect 21 0 7 1;
#X connect 22 0 7 0;
#X connect 22 1 9 0;
#X connect 23 0 14 0;
#X connect 24 0 22 0;
#X connect 24 1 25 0;
#X connect 26 0 27 0;
#X connect 27 0 22 0;
#X restore 19 184 pd closedhat;
#X f 23;
#N canvas 696 96 635 386 openhat 0;
#X obj 18 21 inlet~;
#X obj 80 21 inlet~;
#X obj 141 21 inlet;
#X obj 18 314 outlet~;
#X obj 80 313 outlet~;
#X obj 18 287 +~;
#X obj 80 286 +~;
#N canvas 876 460 450 300 pan_ 0;
#X obj 115 118 cos;
#X obj 215 122 atan;
#X msg 215 101 1;
#X obj 215 144 * 2;
#X obj 115 73 *;
#X obj 142 117 sin;
#X obj 188 11 inlet;
#X obj 215 80 loadbang;
#X obj 115 95 t a a;
#X text 234 11 range: 0-1;
#X obj 14 9 inlet~;
#X obj 14 246 outlet~;
#X obj 76 245 outlet~;
#X obj 85 177 line~;
#X msg 85 156 \$1 50;
#X obj 129 176 line~;
#X msg 129 154 \$1 50;
#X obj 13 212 *~;
#X obj 77 215 *~;
#X connect 0 0 14 0;
#X connect 1 0 3 0;
#X connect 2 0 1 0;
#X connect 3 0 4 1;
#X connect 4 0 8 0;
#X connect 5 0 16 0;
#X connect 6 0 4 0;
#X connect 7 0 2 0;
#X connect 8 0 0 0;
#X connect 8 1 5 0;
#X connect 10 0 17 0;
#X connect 10 0 18 0;
#X connect 13 0 17 1;
#X connect 14 0 13 0;
#X connect 15 0 18 1;
#X connect 16 0 15 0;
#X connect 17 0 11 0;
#X connect 18 0 12 0;
#X restore 39 262 pd pan_;
#X f 11;
#X obj 142 284 ||;
#X obj 155 259 t b a;
#X msg 348 152 decay \$1;
#X msg 350 252 gain \$1;
#X msg 196 89 trigger;
#X obj 196 20 r qseq3;
#X obj 301 49 sel 0;
#X obj 342 52 t a;
#X obj 196 42 route \$1-tr909;
#X obj 142 313 outlet;
#X obj 196 64 route openhat;
#X obj 301 27 r \$0.openhat.s;
#X obj 196 225 tr909-oh;
#X obj 348 130 netpd_f \$1 openhat/decay 0.5;
#X obj 350 230 netpd_f \$1 openhat/gain 0.707;
#X obj 350 292 netpd_f \$1 openhat/pan 0.5;
#X obj 196 112 t a b;
#X msg 223 182 mute;
#X obj 223 138 s \$0.ch.mute;
#X obj 223 159 r \$0.oh.mute;
#X connect 0 0 5 0;
#X connect 1 0 6 0;
#X connect 2 0 8 0;
#X connect 5 0 3 0;
#X connect 6 0 4 0;
#X connect 7 0 5 1;
#X connect 7 1 6 1;
#X connect 8 0 17 0;
#X connect 9 0 8 0;
#X connect 9 1 8 1;
#X connect 10 0 20 0;
#X connect 11 0 20 0;
#X connect 12 0 24 0;
#X connect 13 0 16 0;
#X connect 14 0 12 0;
#X connect 14 1 15 0;
#X connect 15 0 14 1;
#X connect 16 0 18 0;
#X connect 18 0 12 0;
#X connect 19 0 14 0;
#X connect 20 0 7 0;
#X connect 20 1 9 0;
#X connect 21 0 10 0;
#X connect 22 0 11 0;
#X connect 23 0 7 1;
#X connect 24 0 20 0;
#X connect 24 1 26 0;
#X connect 25 0 20 0;
#X connect 27 0 25 0;
#X restore 19 207 pd openhat;
#X f 23;
#N canvas 54 65 635 386 crash 0;
#X obj 18 21 inlet~;
#X obj 80 21 inlet~;
#X obj 141 21 inlet;
#X obj 18 314 outlet~;
#X obj 80 313 outlet~;
#X obj 18 287 +~;
#X obj 80 286 +~;
#N canvas 876 460 450 300 pan_ 0;
#X obj 115 118 cos;
#X obj 215 122 atan;
#X msg 215 101 1;
#X obj 215 144 * 2;
#X obj 115 73 *;
#X obj 142 117 sin;
#X obj 188 11 inlet;
#X obj 215 80 loadbang;
#X obj 115 95 t a a;
#X text 234 11 range: 0-1;
#X obj 14 9 inlet~;
#X obj 14 246 outlet~;
#X obj 76 245 outlet~;
#X obj 85 177 line~;
#X msg 85 156 \$1 50;
#X obj 129 176 line~;
#X msg 129 154 \$1 50;
#X obj 13 212 *~;
#X obj 77 215 *~;
#X connect 0 0 14 0;
#X connect 1 0 3 0;
#X connect 2 0 1 0;
#X connect 3 0 4 1;
#X connect 4 0 8 0;
#X connect 5 0 16 0;
#X connect 6 0 4 0;
#X connect 7 0 2 0;
#X connect 8 0 0 0;
#X connect 8 1 5 0;
#X connect 10 0 17 0;
#X connect 10 0 18 0;
#X connect 13 0 17 1;
#X connect 14 0 13 0;
#X connect 15 0 18 1;
#X connect 16 0 15 0;
#X connect 17 0 11 0;
#X connect 18 0 12 0;
#X restore 39 262 pd pan_;
#X f 11;
#X obj 142 284 ||;
#X obj 155 259 t b a;
#X msg 350 201 tune \$1;
#X msg 350 252 gain \$1;
#X msg 196 89 trigger;
#X obj 196 20 r qseq3;
#X obj 301 49 sel 0;
#X obj 342 52 t a;
#X obj 196 42 route \$1-tr909;
#X obj 142 313 outlet;
#X obj 196 64 route crash;
#X obj 301 27 r \$0.crash.s;
#X obj 350 230 netpd_f \$1 crash/gain 0.707;
#X obj 348 293 netpd_f \$1 crash/pan 0.5;
#X obj 196 195 tr909-cs;
#X obj 350 180 netpd_f \$1 crash/tune 0.236;
#X connect 0 0 5 0;
#X connect 1 0 6 0;
#X connect 2 0 8 0;
#X connect 5 0 3 0;
#X connect 6 0 4 0;
#X connect 7 0 5 1;
#X connect 7 1 6 1;
#X connect 8 0 17 0;
#X connect 9 0 8 0;
#X connect 9 1 8 1;
#X connect 10 0 22 0;
#X connect 11 0 22 0;
#X connect 12 0 22 0;
#X connect 13 0 16 0;
#X connect 14 0 12 0;
#X connect 14 1 15 0;
#X connect 15 0 14 1;
#X connect 16 0 18 0;
#X connect 18 0 12 0;
#X connect 19 0 14 0;
#X connect 20 0 11 0;
#X connect 21 0 7 1;
#X connect 22 0 7 0;
#X connect 22 1 9 0;
#X connect 23 0 10 0;
#X restore 19 230 pd crash;
#X f 23;
#N canvas 54 65 635 386 ride 0;
#X obj 18 21 inlet~;
#X obj 80 21 inlet~;
#X obj 141 21 inlet;
#X obj 18 314 outlet~;
#X obj 80 313 outlet~;
#X obj 18 287 +~;
#X obj 80 286 +~;
#N canvas 876 460 450 300 pan_ 0;
#X obj 115 118 cos;
#X obj 215 122 atan;
#X msg 215 101 1;
#X obj 215 144 * 2;
#X obj 115 73 *;
#X obj 142 117 sin;
#X obj 188 11 inlet;
#X obj 215 80 loadbang;
#X obj 115 95 t a a;
#X text 234 11 range: 0-1;
#X obj 14 9 inlet~;
#X obj 14 246 outlet~;
#X obj 76 245 outlet~;
#X obj 85 177 line~;
#X msg 85 156 \$1 50;
#X obj 129 176 line~;
#X msg 129 154 \$1 50;
#X obj 13 212 *~;
#X obj 77 215 *~;
#X connect 0 0 14 0;
#X connect 1 0 3 0;
#X connect 2 0 1 0;
#X connect 3 0 4 1;
#X connect 4 0 8 0;
#X connect 5 0 16 0;
#X connect 6 0 4 0;
#X connect 7 0 2 0;
#X connect 8 0 0 0;
#X connect 8 1 5 0;
#X connect 10 0 17 0;
#X connect 10 0 18 0;
#X connect 13 0 17 1;
#X connect 14 0 13 0;
#X connect 15 0 18 1;
#X connect 16 0 15 0;
#X connect 17 0 11 0;
#X connect 18 0 12 0;
#X restore 39 262 pd pan_;
#X f 11;
#X obj 142 284 ||;
#X obj 155 259 t b a;
#X msg 350 201 tune \$1;
#X msg 350 252 gain \$1;
#X msg 196 89 trigger;
#X obj 196 20 r qseq3;
#X obj 301 49 sel 0;
#X obj 342 52 t a;
#X obj 196 42 route \$1-tr909;
#X obj 142 313 outlet;
#X obj 196 64 route ride;
#X obj 301 27 r \$0.ride.s;
#X obj 196 195 tr909-rd;
#X obj 350 230 netpd_f \$1 ride/gain 0.707;
#X obj 348 293 netpd_f \$1 ride/pan 0.5;
#X obj 350 180 netpd_f \$1 ride/tune 0.236;
#X connect 0 0 5 0;
#X connect 1 0 6 0;
#X connect 2 0 8 0;
#X connect 5 0 3 0;
#X connect 6 0 4 0;
#X connect 7 0 5 1;
#X connect 7 1 6 1;
#X connect 8 0 17 0;
#X connect 9 0 8 0;
#X connect 9 1 8 1;
#X connect 10 0 20 0;
#X connect 11 0 20 0;
#X connect 12 0 20 0;
#X connect 13 0 16 0;
#X connect 14 0 12 0;
#X connect 14 1 15 0;
#X connect 15 0 14 1;
#X connect 16 0 18 0;
#X connect 18 0 12 0;
#X connect 19 0 14 0;
#X connect 20 0 7 0;
#X connect 20 1 9 0;
#X connect 21 0 11 0;
#X connect 22 0 7 1;
#X connect 23 0 10 0;
#X restore 19 253 pd ride;
#X f 23;
#X connect 0 0 4 0;
#X connect 0 1 4 1;
#X connect 0 2 4 2;
#X connect 4 0 5 0;
#X connect 4 1 5 1;
#X connect 4 2 5 2;
#X connect 5 0 6 0;
#X connect 5 1 6 1;
#X connect 5 2 6 2;
#X connect 6 0 7 0;
#X connect 6 1 7 1;
#X connect 6 2 7 2;
#X connect 7 0 8 0;
#X connect 7 1 8 1;
#X connect 7 2 8 2;
#X connect 8 0 9 0;
#X connect 8 1 9 1;
#X connect 8 2 9 2;
#X connect 9 0 10 0;
#X connect 9 1 10 1;
#X connect 9 2 10 2;
#X connect 10 0 11 0;
#X connect 10 1 11 1;
#X connect 10 2 11 2;
#X connect 11 0 12 0;
#X connect 11 1 12 1;
#X connect 11 2 12 2;
#X connect 12 0 13 0;
#X connect 12 1 13 1;
#X connect 12 2 13 2;
#X connect 13 0 1 0;
#X connect 13 1 2 0;
#X connect 13 2 3 0;
#X restore 9 142 pd dsp;
#X f 14;
#X obj 9 199 i2mx \$1 tr909, f 14;
#X connect 4 0 5 0;
#X connect 4 1 5 1;
#X connect 4 2 5 2;
