#N struct 1406.refrule float x float y float label;
#N struct 1406.rule float x float y float label;
#N struct 1406.mark float x float y float pos float id;
#N canvas 1334 400 710 430 10;
#N canvas 624 75 434 119 NETPD 0;
#X msg 12 8 version 0 0 0;
#N canvas 315 75 403 152 abslist 0;
#X msg 6 10 untik-pattern-player;
#X msg 6 33 untik-pattern-editor;
#X msg 7 80 untik-pattern-selector;
#X msg 7 56 untik-pattern-editor-display;
#X restore 12 38 pd abslist;
#X restore 10 14 pd NETPD 2 0;
#X obj 10 98 netpd_head \$1 untik;
#N canvas 820 483 714 397 \$1-untik 1;
#X obj 229 22 tgl 30 0 \$1-run \$1-run empty 0 -10 0 12 #fcfcfc #000000 #000000 0 1;
#X msg 519 229 vis 1;
#X obj 519 252 s pd-\$1-untik-pattern-editor;
#X obj 267 21 nbx 3 30 1 400 0 0 \$1-bpm \$1-bpm empty 0 -9 0 14 #fcfcfc #000000 #000000 0 256;
#X obj 326 21 nbx 2 30 1 99 0 0 \$1-ticksperbeat \$1-ticksperbeat empty 0 -9 0 14 #fcfcfc #000000 #000000 0 256;
#X obj 423 24 nbx 2 30 1 99 0 0 \$1-beatsperbar \$1-beatsperbar empty 0 -9 0 14 #fcfcfc #000000 #000000 0 256;
#X obj 84 313 cnv 18 240 45 empty empty empty 2 12 0 10 #8080a0 #00ff00 0;
#X obj 286 316 hsl 33 39 0 127 0 0 \$0.stepbeat.display.click empty empty -2 -9 0 10 #fcfcfc #000000 #000000 0 1;
#X obj 244 316 hsl 33 39 0 127 0 0 \$0.beatbar.display.click empty empty -2 -9 0 10 #fcfcfc #000000 #000000 0 1;
#X obj 90 316 hsl 75 39 0 127 0 0 \$0.step.display.click empty empty -2 -9 0 10 #fcfcfc #000000 #000000 0 1;
#X obj 174 316 hsl 61 39 0 127 0 0 \$0.bar.display.click empty empty -2 -9 0 10 #fcfcfc #000000 #000000 0 1;
#X obj 87 323 cnv 18 80 32 empty \$0.step.display 15242 5 16 0 24 #404060 #00ff00 0;
#X obj 283 323 cnv 18 38 32 empty \$0.stepbeat.display 02 5 16 0 24 #404060 #00ff00 0;
#X obj 241 323 cnv 18 38 32 empty \$0.beatbar.display 02 5 16 0 24 #404060 #00ff00 0;
#X obj 171 323 cnv 18 66 32 empty \$0.bar.display 0952 5 16 0 24 #404060 #00ff00 0;
#X obj 87 316 cnv 10 80 10 empty \$0.step.label pos 4 5 0 10 #404060 #00ff00 0;
#X obj 283 316 cnv 10 38 10 empty \$0.stepbeat.label tick 4 5 0 10 #404060 #00ff00 0;
#X obj 241 316 cnv 10 38 10 empty \$0.beatbar.label beat 4 5 0 10 #404060 #00ff00 0;
#X obj 171 316 cnv 10 66 10 empty \$0.bar.label bar 4 5 0 10 #404060 #00ff00 0;
#X connect 1 0 2 0;
#X restore 10 42 pd \$1-untik;
#X obj 217 124 metro 1 120 permin;
#X obj 217 147 f;
#X obj 217 198 t a a;
#X obj 306 161 + 1, f 4;
#X obj 217 170 mod 25200;
#X text 215 11 MAIN METRO;
#X msg 217 86 tempo \$1 \$2;
#X msg 217 223 step \$1;
#X obj 217 35 r \$0.untik;
#X obj 217 258 s \$0.untik;
#X obj 217 58 route tempo run set;
#X obj 489 74 r \$0.untik;
#X obj 537 138 r \$0.untik;
#X floatatom 537 184 5 0 0 0 - - - 0;
#X obj 537 211 bng 30 100 20 0 empty empty empty 0 -10 0 12 #fcfcfc #000000 #000000;
#X obj 537 161 route step;
#X obj 487 200 bng 30 100 20 0 empty empty empty 0 -10 0 12 #fcfcfc #000000 #000000;
#N canvas 1385 370 450 300 click 0;
#X obj 28 25 noise~;
#X obj 89 77 vline~;
#X obj 42 105 *~;
#X msg 108 36 1 \, 0 10;
#X obj 42 128 outlet~;
#X obj 110 8 inlet;
#X connect 0 0 2 0;
#X connect 1 0 2 1;
#X connect 2 0 4 0;
#X connect 3 0 1 0;
#X connect 5 0 3 0;
#X restore 540 264 pd click;
#N canvas 1385 370 450 300 click 0;
#X obj 28 25 noise~;
#X obj 89 77 vline~;
#X obj 42 105 *~;
#X msg 108 36 1 \, 0 10;
#X obj 42 128 outlet~;
#X obj 110 8 inlet;
#X connect 0 0 2 0;
#X connect 1 0 2 1;
#X connect 2 0 4 0;
#X connect 3 0 1 0;
#X connect 5 0 3 0;
#X restore 476 266 pd click;
#X obj 481 325 dac~;
#X obj 489 97 untik-pattern-player;
#X obj 453 158 route step;
#X obj 17 242 loadbang;
#X obj 36 353 s \$0.pattern.length;
#X obj 58 332 s \$0.pattern.ticks;
#X obj 572 35 r \$0.patted;
#X obj 572 58 route pattern set;
#N canvas 1231 49 598 869 pattern.store 0;
#X msg 350 77 8;
#X obj 350 124 f;
#X obj 350 147 t a a;
#X obj 404 110 + 1;
#X obj 350 100 until;
#X obj 17 115 r \$0.patsel;
#X obj 17 138 route select;
#X obj 17 161 t a b;
#X msg 68 166 1;
#X obj 17 245 s \$0.pattern.name.r;
#X msg 17 222 set \$1;
#X obj 22 338 r \$0.pattern.name.s;
#X obj 91 363 r \$0.patsel;
#X obj 91 386 route select;
#X obj 22 409 list prepend;
#X msg 55 454 \$1;
#X obj 22 524 list append;
#X obj 22 547 t a a, f 18;
#X obj 22 572 list split 1;
#X obj 55 500 list split 1;
#X obj 243 251 r \$0.patted;
#X obj 356 257 r \$0.patsel;
#X obj 356 280 route select;
#X msg 434 327 1;
#X obj 268 376 list prepend, f 15;
#X obj 243 301 route pattern set;
#X text 21 317 -- change pattern name--;
#X text 14 94 -- set pattern name editor --;
#X text 250 232 -- write pattern to text --;
#X text 240 496 -- read pattern from text --;
#X obj 243 515 r \$0.patsel;
#X obj 243 538 route select;
#X obj 243 684 list split 1;
#X obj 243 342 t a b;
#X obj 356 328 f;
#X msg 395 329 0;
#X obj 356 303 t a a b b, f 13;
#X obj 243 276 spigot 1;
#X obj 277 710 t b a b;
#X msg 277 734 1;
#X msg 316 734 0;
#X obj 262 762 t a;
#N canvas 0 0 216 294 display.pattern 0;
#X obj 53 68 list prepend set;
#X obj 53 91 list trim;
#X obj 53 114 s \$0.patted;
#X obj 26 246 s \$0.pattern.length;
#X obj 60 206 s \$0.pattern.ticks;
#X obj 26 138 list split 1;
#X obj 60 160 list length;
#X msg 60 183 set \$1;
#X msg 26 225 set \$1;
#X obj 26 20 inlet;
#X obj 26 43 t a a;
#X connect 0 0 1 0;
#X connect 1 0 2 0;
#X connect 5 0 8 0;
#X connect 5 1 6 0;
#X connect 6 0 7 0;
#X connect 7 0 4 0;
#X connect 8 0 3 0;
#X connect 9 0 10 0;
#X connect 10 0 5 0;
#X connect 10 1 0 0;
#X restore 296 772 pd display.pattern;
#X obj 17 197 text get \$1-patterns;
#X obj 15 57 s \$0.pats.o.0;
#X obj 103 57 s \$0.pats.o.1;
#X obj 192 56 s \$0.pats.o.2;
#X obj 15 5 r \$0.pats.i;
#X text 348 6 -- INIT ----------;
#X msg 207 140 click;
#X obj 207 163 s \$0.pats.i;
#X obj 356 350 text get \$1-patterns;
#X obj 243 654 text get \$1-patterns;
#X obj 55 477 text get \$1-patterns;
#X obj 56 596 list prepend, f 13;
#X obj 56 618 list trim;
#X obj 56 642 s \$0.pats.i;
#X msg 382 378 set \$1 -1;
#X msg 127 573 set \$1 -1;
#X obj 268 405 list prepend;
#X obj 268 428 list trim;
#X obj 268 451 s \$0.pats.i;
#X obj 15 30 netpd_text \$1 patterns, f 30;
#X obj 350 192 text set \$1-patterns;
#X obj 350 51 t b b;
#X msg 439 119 1e+15;
#X msg 350 170 symbol pattern\$1;
#X obj 350 25 r \$0.loadbang.0;
#X obj 22 432 t a a, f 6;
#X obj 373 571 r \$0.pats.o.2;
#X obj 373 635 route set;
#X obj 373 659 route -1;
#X obj 373 681 list split 2;
#X obj 437 598 r \$1.NETPD;
#X obj 437 621 route remote_origin;
#X obj 373 600 spigot 0;
#N canvas 45 143 711 367 update.pattern.names 0;
#X obj 9 95 s \$0.patsel;
#X obj 9 26 r \$0.pats.o.2;
#X obj 9 49 route set;
#X msg 9 72 \$1 setlabel \$3;
#X text 7 2 -- update pattern name ---;
#X obj 235 32 r \$0.pats.o.2;
#X obj 235 55 route fromlist;
#X text 215 2 -- refresh all names after dump ---;
#X msg 235 105 8;
#X obj 235 152 f;
#X obj 297 161 + 1;
#X obj 235 128 until;
#X obj 235 79 t b b;
#X msg 286 119 0;
#X obj 254 198 text get \$1-patterns;
#X obj 235 175 t a a a;
#X obj 254 220 list split 1;
#X obj 235 321 s \$0.patsel;
#X obj 235 245 list append;
#X msg 235 298 \$1 setlabel \$2;
#X obj 406 153 r \$0.patsel;
#X obj 406 176 route select;
#X obj 397 241 route -1;
#X obj 235 268 t a a;
#X msg 397 288 set \$1;
#X obj 397 310 s \$0.pattern.name.r;
#X obj 397 264 symbol;
#X connect 1 0 2 0;
#X connect 2 0 3 0;
#X connect 3 0 0 0;
#X connect 5 0 6 0;
#X connect 6 0 12 0;
#X connect 8 0 11 0;
#X connect 9 0 15 0;
#X connect 10 0 9 1;
#X connect 11 0 9 0;
#X connect 12 0 8 0;
#X connect 12 1 13 0;
#X connect 13 0 9 1;
#X connect 14 0 16 0;
#X connect 15 0 18 0;
#X connect 15 1 14 0;
#X connect 15 2 10 0;
#X connect 16 0 18 1;
#X connect 18 0 23 0;
#X connect 19 0 17 0;
#X connect 20 0 21 0;
#X connect 21 0 22 1;
#X connect 22 0 26 0;
#X connect 23 0 19 0;
#X connect 23 1 22 0;
#X connect 24 0 25 0;
#X connect 26 0 24 0;
#X restore 20 701 pd update.pattern.names;
#X msg 373 714 set \$2;
#X obj 373 737 s \$0.pattern.name.r;
#X obj 255 561 r \$0.pats.o.2;
#X obj 255 584 route fromlist;
#X obj 243 630 f;
#X obj 255 607 b;
#X connect 0 0 4 0;
#X connect 1 0 2 0;
#X connect 2 0 66 0;
#X connect 2 1 3 0;
#X connect 3 0 1 1;
#X connect 4 0 1 0;
#X connect 5 0 6 0;
#X connect 6 0 7 0;
#X connect 7 0 43 0;
#X connect 7 1 8 0;
#X connect 8 0 43 2;
#X connect 10 0 9 0;
#X connect 11 0 14 0;
#X connect 12 0 13 0;
#X connect 13 0 14 1;
#X connect 14 0 68 0;
#X connect 15 0 53 0;
#X connect 16 0 17 0;
#X connect 17 0 18 0;
#X connect 17 1 58 0;
#X connect 18 1 54 0;
#X connect 19 1 16 1;
#X connect 20 0 37 0;
#X connect 21 0 22 0;
#X connect 22 0 36 0;
#X connect 23 0 51 2;
#X connect 24 0 59 0;
#X connect 25 0 33 0;
#X connect 25 1 33 0;
#X connect 30 0 31 0;
#X connect 31 0 71 1;
#X connect 31 0 81 0;
#X connect 32 1 38 0;
#X connect 33 0 24 0;
#X connect 33 1 34 0;
#X connect 34 0 51 0;
#X connect 35 0 51 1;
#X connect 36 0 34 0;
#X connect 36 1 57 0;
#X connect 36 2 35 0;
#X connect 36 3 23 0;
#X connect 37 0 25 0;
#X connect 38 0 39 0;
#X connect 38 1 42 0;
#X connect 38 2 40 0;
#X connect 39 0 41 0;
#X connect 40 0 41 0;
#X connect 41 0 37 1;
#X connect 43 0 10 0;
#X connect 47 0 62 0;
#X connect 49 0 50 0;
#X connect 51 0 24 1;
#X connect 52 0 32 0;
#X connect 53 0 19 0;
#X connect 54 0 55 0;
#X connect 55 0 56 0;
#X connect 57 0 59 1;
#X connect 58 0 54 1;
#X connect 59 0 60 0;
#X connect 60 0 61 0;
#X connect 62 0 44 0;
#X connect 62 1 45 0;
#X connect 62 2 46 0;
#X connect 64 0 0 0;
#X connect 64 1 65 0;
#X connect 65 0 63 1;
#X connect 66 0 63 0;
#X connect 67 0 64 0;
#X connect 68 0 16 0;
#X connect 68 1 15 0;
#X connect 69 0 75 0;
#X connect 70 0 71 0;
#X connect 71 0 72 0;
#X connect 72 0 77 0;
#X connect 72 1 38 0;
#X connect 73 0 74 0;
#X connect 74 0 75 1;
#X connect 75 0 70 0;
#X connect 77 0 78 0;
#X connect 79 0 80 0;
#X connect 80 0 82 0;
#X connect 81 0 52 0;
#X connect 82 0 81 0;
#X restore 13 157 pd pattern.store;
#N canvas 0 0 261 500 create.regular.grid 0;
#X obj 10 150 t a a a, f 22;
#X obj 139 174 /;
#X msg 74 174 \$2;
#X msg 119 222 0;
#X obj 74 222 until;
#X obj 74 247 f;
#X obj 74 271 t a a;
#X obj 114 252 + 1;
#X obj 74 297 *, f 11;
#X obj 49 374 list store;
#X msg 74 322 append \$1;
#X obj 10 331 t a b b;
#X obj 10 400 list append;
#X msg 10 177 \$1;
#X obj 74 197 t a b, f 8;
#X obj 10 423 list prepend set;
#X obj 10 446 list trim;
#X obj 10 469 s \$0.patted;
#X obj 10 6 r \$0.pattern.length;
#X obj 137 10 r \$0.pattern.ticks;
#X obj 137 57 t b a;
#X obj 10 112 pack 4 4;
#X obj 10 86 f;
#X obj 137 32 route float set;
#X obj 10 32 route float set;
#X connect 0 0 13 0;
#X connect 0 1 2 0;
#X connect 0 2 1 0;
#X connect 1 0 8 1;
#X connect 2 0 14 0;
#X connect 3 0 5 1;
#X connect 4 0 5 0;
#X connect 5 0 6 0;
#X connect 6 0 8 0;
#X connect 6 1 7 0;
#X connect 7 0 5 1;
#X connect 8 0 10 0;
#X connect 9 0 12 1;
#X connect 10 0 9 0;
#X connect 11 0 12 0;
#X connect 11 1 9 1;
#X connect 11 2 9 0;
#X connect 12 0 15 0;
#X connect 13 0 11 0;
#X connect 14 0 4 0;
#X connect 14 1 3 0;
#X connect 15 0 16 0;
#X connect 16 0 17 0;
#X connect 18 0 24 0;
#X connect 19 0 23 0;
#X connect 20 0 22 0;
#X connect 20 1 21 1;
#X connect 21 0 0 0;
#X connect 22 0 21 0;
#X connect 23 0 20 0;
#X connect 23 1 21 1;
#X connect 24 0 22 0;
#X connect 24 1 22 1;
#X restore 13 182 pd create.regular.grid;
#X msg 36 311 set 4;
#N canvas 938 26 656 149 \$1-untik-pattern-editor 1;
#X obj 8 63 cnv 18 641 46 empty empty empty 20 12 0 10 #8080a0 #404040 0;
#X obj 46 66 untik-pattern-editor \$0.patted;
#X obj 12 66 cnv 18 30 40 empty empty empty 20 12 0 10 #303050 #404040 0;
#X obj 11 66 nbx 2 20 1 99 0 0 \$0.pattern.length \$0.pattern.length empty 0 -9 0 10 #303050 #66dd00 #ffffff 0 256;
#X obj 11 86 nbx 2 20 1 99 0 0 \$0.pattern.ticks \$0.pattern.ticks empty 0 -9 0 10 #303050 #66dd00 #ffffff 0 256;
#X obj 8 32 cnv 18 641 30 empty empty empty 20 12 0 10 #606080 #404040 0;
#X obj 11 35 untik-pattern-selector \$0.patsel 0;
#X obj 91 35 untik-pattern-selector \$0.patsel 1;
#X obj 171 35 untik-pattern-selector \$0.patsel 2;
#X obj 251 35 untik-pattern-selector \$0.patsel 3;
#X obj 331 35 untik-pattern-selector \$0.patsel 4;
#X obj 411 35 untik-pattern-selector \$0.patsel 5;
#X obj 491 35 untik-pattern-selector \$0.patsel 6;
#X obj 571 35 untik-pattern-selector \$0.patsel 7;
#X obj 8 110 cnv 18 641 30 empty empty empty 4 14 0 16 #606080 #c0c0e0 0;
#X obj 184 113 cnv 18 82 23 empty empty empty 20 12 0 10 #b0b0d0 #404040 0;
#X symbolatom 184 113 9 0 0 0 - \$0.pattern.name.r \$0.pattern.name.s 16;
#X obj 8 7 cnv 18 641 24 empty empty untik\ pattern\ editor 4 12 0 20 #404060 #8080a0 0;
#N canvas 45 143 480 288 \$0.pattern.enable 0;
#X obj 23 20 hsl 95 21 0 127 0 0 \$0.pat.en.click empty empty -2 -10 0 12 #fcfcfc #000000 #000000 0 1;
#X obj 20 20 cnv 20 100 21 empty \$0.pat.en.label active 4 11 0 14 #8080a0 #efefff 0;
#X obj 81 88 sel 0;
#X obj 121 89 t a;
#X obj 81 65 r \$0.pat.en.click;
#X obj 264 225 s \$0.pat.en.label;
#X msg 335 163 label \$1;
#X obj 335 135 symbol;
#X obj 81 111 == 0;
#X obj 233 61 sel 0 1, f 16;
#X msg 233 128 #bcbcdc;
#X msg 233 189 color #8080a0 0 \$1;
#X obj 233 165 symbol;
#X msg 279 108 #efefff;
#X msg 335 108 inactive;
#X msg 396 107 active;
#X obj 114 165 route set;
#X obj 24 137 t a a;
#X obj 51 160 t a a;
#X msg 24 189 enable \$1;
#X obj 24 212 s \$0.pat.en;
#X obj 114 142 r \$0.pat.en;
#X connect 2 0 8 0;
#X connect 2 1 3 0;
#X connect 3 0 2 1;
#X connect 4 0 2 0;
#X connect 6 0 5 0;
#X connect 7 0 6 0;
#X connect 8 0 17 0;
#X connect 9 0 14 0;
#X connect 9 0 10 0;
#X connect 9 1 15 0;
#X connect 9 1 13 0;
#X connect 10 0 12 0;
#X connect 11 0 5 0;
#X connect 12 0 11 0;
#X connect 13 0 12 0;
#X connect 14 0 7 0;
#X connect 15 0 7 0;
#X connect 16 0 18 0;
#X connect 17 0 19 0;
#X connect 17 1 18 0;
#X connect 18 0 8 1;
#X connect 18 1 9 0;
#X connect 19 0 20 0;
#X connect 21 0 16 0;
#X coords 0 -1 1 1 100 21 2 20 20;
#X restore 12 114 pd \$0.pattern.enable;
#X obj 268 110 cnv 18 60 30 empty empty empty 4 14 0 16 #606080 #c0c0e0 0;
#X obj 124 110 cnv 18 60 30 empty empty name: 4 14 0 16 #606080 #c0c0e0 0;
#X restore 10 66 pd \$1-untik-pattern-editor;
#N canvas 382 54 325 612 active.state 0;
#X msg 15 489 set \$1;
#X obj 19 56 route enable;
#X obj 19 33 r \$0.pat.en;
#X obj 15 514 s \$0.pat.en;
#X obj 15 274 route select;
#X obj 15 251 r \$0.patsel;
#X obj 15 420 list length;
#X obj 15 443 > 1;
#X text 5 234 -- reflect state in "active" button --;
#X obj 91 496 sel 0;
#X obj 15 466 t a a;
#X msg 91 519 set 0;
#X obj 101 541 s \$0.pattern.ticks;
#X obj 91 561 s \$0.pattern.length;
#X obj 46 169 s \$0.pattern.ticks;
#X obj 19 190 s \$0.pattern.length;
#X text 18 12 -- create regular grid ---;
#X obj 19 124 t a a;
#X msg 46 146 set \$1;
#X obj 19 78 sel 1 0;
#X obj 195 174 s \$0.patted;
#X msg 195 151 set;
#X obj 15 397 text get \$1-patterns;
#X obj 19 100 f 5, f 4;
#X obj 116 260 r \$0.pats.o.2;
#X obj 116 306 b;
#X obj 15 360 f;
#X obj 116 283 route fromlist set;
#X obj 168 328 route -1;
#X obj 15 298 t a a;
#X obj 168 366 list length;
#X obj 168 389 > 2;
#X connect 0 0 3 0;
#X connect 1 0 19 0;
#X connect 2 0 1 0;
#X connect 4 0 29 0;
#X connect 5 0 4 0;
#X connect 6 0 7 0;
#X connect 7 0 10 0;
#X connect 9 0 11 0;
#X connect 10 0 0 0;
#X connect 10 1 9 0;
#X connect 11 0 12 0;
#X connect 11 0 13 0;
#X connect 17 0 15 0;
#X connect 17 1 18 0;
#X connect 18 0 14 0;
#X connect 19 0 23 0;
#X connect 19 1 21 0;
#X connect 21 0 20 0;
#X connect 22 0 6 0;
#X connect 23 0 17 0;
#X connect 24 0 27 0;
#X connect 25 0 26 0;
#X connect 26 0 22 0;
#X connect 27 0 25 0;
#X connect 27 1 28 0;
#X connect 28 0 30 0;
#X connect 29 0 26 0;
#X connect 29 1 28 1;
#X connect 30 0 31 0;
#X connect 31 0 10 0;
#X restore 13 207 pd active.state;
#X obj 17 265 t b b b;
#X obj 56 289 s \$0.loadbang.0;
#X msg 17 374 select 0;
#X obj 17 397 s \$0.patsel;
#N canvas 1344 51 864 968 main.clock 1;
#X obj 22 112 metro 1 120 permin;
#X obj 22 135 f;
#X obj 22 186 t a a;
#X obj 111 149 + 1, f 4;
#X obj 22 158 mod 25200;
#X text 20 -1 MAIN METRO;
#X msg 22 74 tempo \$1 \$2;
#X msg 22 211 step \$1;
#X obj 22 23 r \$0.untik;
#X obj 22 246 s \$0.untik;
#X obj 22 46 route tempo run set;
#X msg 641 156 tempo \$1 permin;
#X obj 627 187 t a;
#X msg 627 33 run \$1;
#X obj 627 217 s \$0.untik;
#X msg 566 126 set \$1;
#X floatatom 569 99 5 0 0 0 - - - 0;
#X obj 627 10 netpd_f \$1 run 0;
#X obj 650 104 netpd_f \$1 bpm 120;
#X obj 641 130 *, f 5;
#X obj 641 80 t b a;
#X obj 641 57 netpd_f \$1 ticksperbeat 4;
#X obj 154 380 r \$0.untik;
#X obj 154 402 route step;
#X obj 699 539 s \$0.step.display;
#X obj 649 484 makefilename %05d;
#X msg 699 517 label \$1;
#X obj 154 426 t a a a a, f 83;
#X msg 542 596 label \$1;
#X obj 484 523 mod;
#X obj 499 478 netpd_r \$1 ticksperbeat;
#X obj 521 768 s \$0.stepbeat.display;
#X obj 542 572 makefilename %02d;
#X obj 649 460 change -1;
#X obj 484 545 change -1;
#X msg 366 622 label \$1;
#X obj 327 460 netpd_r \$1 ticksperbeat;
#X obj 366 598 makefilename %02d;
#X obj 319 564 change -1;
#X obj 319 507 div;
#X obj 352 800 s \$0.beatbar.display;
#X obj 327 483 t b a;
#X obj 346 539 t b a;
#X obj 468 42 netpd_f \$1 beatsperbar 4;
#X obj 346 516 netpd_r \$1 beatsperbar;
#X obj 319 538 mod;
#X obj 499 500 t b a;
#X msg 194 651 label \$1;
#X obj 154 601 change -1;
#X obj 154 578 div;
#X obj 162 554 t b a;
#X obj 188 824 s \$0.bar.display;
#X obj 162 458 netpd_r \$1 beatsperbar;
#X obj 194 627 makefilename %04d;
#X obj 170 480 netpd_r \$1 ticksperbeat;
#X obj 162 530 *;
#X obj 170 505 t b a;
#X obj 484 568 t a a;
#X obj 319 587 t a a;
#X obj 154 626 t a a;
#X msg 154 778 color \$1 0 #00ff00;
#X msg 199 730 symbol #AAAAAA;
#X obj 154 705 t b b, f 8;
#X obj 154 728 del 40;
#X msg 364 689 symbol #AAAAAA;
#X obj 319 664 t b b, f 8;
#X obj 319 687 del 40;
#X msg 529 663 symbol #AAAAAA;
#X obj 484 638 t b b, f 8;
#X obj 484 661 del 40;
#X msg 154 751 symbol #404060;
#X msg 319 710 symbol #404060;
#X msg 319 737 color \$1 0 #00ff00;
#X msg 484 712 color \$1 0 #00ff00;
#X msg 484 684 symbol #404060;
#X obj 484 735 t a a;
#X obj 484 789 s \$0.stepbeat.label;
#X obj 319 769 t a a;
#X obj 319 820 s \$0.beatbar.label;
#X obj 154 798 t a a;
#X obj 154 848 s \$0.bar.label;
#X obj 320 845 r \$0.beatbar.display.click;
#X obj 487 835 r \$0.stepbeat.display.click;
#X obj 661 763 r \$0.step.display.click;
#X obj 348 869 t a;
#X obj 515 859 t a;
#X obj 688 788 t a;
#X obj 320 890 == 0;
#X obj 356 890 t a;
#X obj 487 880 == 0;
#X obj 523 880 t a;
#X obj 661 809 == 0;
#X obj 697 809 t a;
#X obj 320 869 sel;
#X obj 487 859 sel;
#X obj 661 787 sel;
#X obj 154 673 spigot 0;
#X obj 153 873 r \$0.bar.display.click;
#X obj 180 896 t a;
#X obj 153 919 == 0;
#X obj 189 919 t a;
#X obj 153 896 sel;
#X obj 319 640 spigot;
#X obj 324 938 tgl 18 0 empty empty empty 0 -9 0 10 #fcfcfc #000000 #000000 0 1;
#X obj 484 616 spigot 0;
#X msg 703 613 symbol #AAAAAA;
#X obj 658 588 t b b, f 8;
#X obj 658 611 del 40;
#X msg 658 662 color \$1 0 #00ff00;
#X msg 658 634 symbol #404060;
#X obj 658 685 t a a;
#X obj 658 566 spigot 0;
#X obj 695 718 s \$0.step.display;
#X obj 649 507 t a a;
#X obj 658 739 s \$0.step.label;
#X connect 0 0 1 0;
#X connect 1 0 4 0;
#X connect 2 0 7 0;
#X connect 2 1 3 0;
#X connect 3 0 1 1;
#X connect 4 0 2 0;
#X connect 6 0 0 0;
#X connect 7 0 9 0;
#X connect 8 0 10 0;
#X connect 10 0 6 0;
#X connect 10 1 0 0;
#X connect 10 2 1 1;
#X connect 11 0 12 0;
#X connect 12 0 14 0;
#X connect 13 0 12 0;
#X connect 15 0 12 0;
#X connect 16 0 15 0;
#X connect 17 0 13 0;
#X connect 18 0 19 0;
#X connect 19 0 11 0;
#X connect 20 0 19 0;
#X connect 20 1 19 1;
#X connect 21 0 20 0;
#X connect 22 0 23 0;
#X connect 23 0 27 0;
#X connect 25 0 113 0;
#X connect 26 0 24 0;
#X connect 27 0 49 0;
#X connect 27 1 39 0;
#X connect 27 2 29 0;
#X connect 27 3 33 0;
#X connect 28 0 31 0;
#X connect 29 0 34 0;
#X connect 30 0 46 0;
#X connect 32 0 28 0;
#X connect 33 0 25 0;
#X connect 34 0 57 0;
#X connect 35 0 40 0;
#X connect 36 0 41 0;
#X connect 37 0 35 0;
#X connect 38 0 58 0;
#X connect 39 0 45 0;
#X connect 41 0 39 0;
#X connect 41 1 39 1;
#X connect 42 0 45 0;
#X connect 42 1 45 1;
#X connect 44 0 42 0;
#X connect 45 0 38 0;
#X connect 46 0 29 0;
#X connect 46 1 29 1;
#X connect 47 0 51 0;
#X connect 48 0 59 0;
#X connect 49 0 48 0;
#X connect 50 0 49 0;
#X connect 50 1 49 1;
#X connect 52 0 55 0;
#X connect 53 0 47 0;
#X connect 54 0 56 0;
#X connect 55 0 50 0;
#X connect 56 0 55 0;
#X connect 56 1 55 1;
#X connect 57 0 104 0;
#X connect 57 1 32 0;
#X connect 58 0 102 0;
#X connect 58 1 37 0;
#X connect 59 0 96 0;
#X connect 59 1 53 0;
#X connect 60 0 79 0;
#X connect 61 0 60 0;
#X connect 62 0 63 0;
#X connect 62 1 61 0;
#X connect 63 0 70 0;
#X connect 64 0 72 0;
#X connect 65 0 66 0;
#X connect 65 1 64 0;
#X connect 66 0 71 0;
#X connect 67 0 73 0;
#X connect 68 0 69 0;
#X connect 68 1 67 0;
#X connect 69 0 74 0;
#X connect 70 0 60 0;
#X connect 71 0 72 0;
#X connect 72 0 77 0;
#X connect 73 0 75 0;
#X connect 74 0 73 0;
#X connect 75 0 76 0;
#X connect 75 1 31 0;
#X connect 77 0 78 0;
#X connect 77 1 40 0;
#X connect 79 0 80 0;
#X connect 79 1 51 0;
#X connect 81 0 93 0;
#X connect 82 0 94 0;
#X connect 83 0 95 0;
#X connect 84 0 93 1;
#X connect 85 0 94 1;
#X connect 86 0 95 1;
#X connect 87 0 88 0;
#X connect 87 0 102 1;
#X connect 87 0 103 0;
#X connect 88 0 87 1;
#X connect 89 0 90 0;
#X connect 89 0 104 1;
#X connect 90 0 89 1;
#X connect 91 0 92 0;
#X connect 91 0 111 1;
#X connect 92 0 91 1;
#X connect 93 0 87 0;
#X connect 93 1 84 0;
#X connect 94 0 89 0;
#X connect 94 1 85 0;
#X connect 95 0 91 0;
#X connect 95 1 86 0;
#X connect 96 0 62 0;
#X connect 97 0 101 0;
#X connect 98 0 101 1;
#X connect 99 0 100 0;
#X connect 99 0 96 1;
#X connect 100 0 99 1;
#X connect 101 0 99 0;
#X connect 101 1 98 0;
#X connect 102 0 65 0;
#X connect 104 0 68 0;
#X connect 105 0 108 0;
#X connect 106 0 107 0;
#X connect 106 1 105 0;
#X connect 107 0 109 0;
#X connect 108 0 110 0;
#X connect 109 0 108 0;
#X connect 110 0 114 0;
#X connect 110 1 112 0;
#X connect 111 0 106 0;
#X connect 113 0 111 0;
#X connect 113 1 26 0;
#X restore 240 350 pd main.clock;
#X connect 3 0 4 0;
#X connect 4 0 7 0;
#X connect 5 0 10 0;
#X connect 5 1 6 0;
#X connect 6 0 4 1;
#X connect 7 0 5 0;
#X connect 9 0 3 0;
#X connect 10 0 12 0;
#X connect 11 0 13 0;
#X connect 13 0 9 0;
#X connect 13 1 3 0;
#X connect 13 2 4 1;
#X connect 14 0 23 0;
#X connect 15 0 18 0;
#X connect 16 0 17 0;
#X connect 17 0 20 0;
#X connect 18 0 16 0;
#X connect 19 0 21 0;
#X connect 20 0 22 1;
#X connect 21 0 22 0;
#X connect 23 0 24 0;
#X connect 24 0 19 0;
#X connect 25 0 35 0;
#X connect 28 0 29 0;
#X connect 29 0 23 1;
#X connect 29 1 23 1;
#X connect 32 0 27 0;
#X connect 32 0 26 0;
#X connect 35 0 37 0;
#X connect 35 1 32 0;
#X connect 35 2 36 0;
#X connect 37 0 38 0;
