#N canvas 623 168 882 300 10;
#N canvas 624 75 434 119 NETPD 0;
#X msg 12 8 version 0 0 0;
#N canvas 315 75 403 152 abslist 0;
#X msg 6 33 untik-pattern-editor;
#X msg 7 80 untik-pattern-selector;
#X msg 7 56 untik-pattern-editor-display;
#X msg 6 10 untik-pattern-instance;
#X restore 12 38 pd abslist;
#X restore 10 14 pd NETPD 2 0;
#X obj 10 44 netpd_head \$1 untik;
#N canvas 619 26 800 55 \$1-untik 1;
#X obj 423 4 cnv 18 240 45 empty empty empty 2 12 0 10 #8080a0 #00ff00 0;
#X obj 625 7 hsl 33 39 0 127 0 0 \$0.stepbeat.display.click empty empty -2 -9 0 10 #fcfcfc #000000 #000000 0 1;
#X obj 583 7 hsl 33 39 0 127 0 0 \$0.beatbar.display.click empty empty -2 -9 0 10 #fcfcfc #000000 #000000 0 1;
#X obj 429 7 hsl 75 39 0 127 0 0 \$0.step.display.click empty empty -2 -9 0 10 #fcfcfc #000000 #000000 0 1;
#X obj 513 7 hsl 61 39 0 127 0 0 \$0.bar.display.click empty empty -2 -9 0 10 #fcfcfc #000000 #000000 0 1;
#X obj 426 14 cnv 18 80 32 empty \$0.step.display 00008 5 16 0 24 #404060 #ccffcc 0;
#X obj 622 14 cnv 18 38 32 empty \$0.stepbeat.display 01 5 16 0 24 #404060 #ccffcc 0;
#X obj 580 14 cnv 18 38 32 empty \$0.beatbar.display 03 5 16 0 24 #404060 #ccffcc 0;
#X obj 510 14 cnv 18 66 32 empty \$0.bar.display 0001 5 16 0 24 #404060 #ccffcc 0;
#X obj 426 7 cnv 10 80 10 empty \$0.step.label pos 4 5 0 10 #404060 #ccffcc 0;
#X obj 622 7 cnv 10 38 10 empty \$0.stepbeat.label tick 4 5 0 10 #404060 #ccffcc 0;
#X obj 580 7 cnv 10 38 10 empty \$0.beatbar.label beat 4 5 0 10 #404060 #ccffcc 0;
#X obj 510 7 cnv 10 66 10 empty \$0.bar.label bar 4 5 0 10 #404060 #ccffcc 0;
#X obj 5 4 cnv 18 240 45 empty empty empty 2 12 0 10 #8080a0 #00ff00 0;
#X obj 181 20 nbx 2 20 1 400 0 0 \$1-ticksperbeat \$1-ticksperbeat empty 0 -9 0 24 #404060 #00ff04 #000000 0 256;
#X obj 181 7 cnv 10 10 39 empty empty empty 2 12 0 10 #404060 #00ff00 0;
#X obj 232 7 cnv 10 10 39 empty empty empty 2 12 0 10 #404060 #00ff00 0;
#X obj 192 7 cnv 10 40 13 empty empty ticks 0 5 0 10 #404060 #00ff04 0;
#X obj 192 40 cnv 6 40 6 empty empty empty 0 5 0 10 #404060 #00ff04 0;
#X obj 177 4 cnv 10 10 45 empty empty empty 2 12 0 10 #8080a0 #00ff00 0;
#X obj 174 7 cnv 10 10 39 empty empty empty 2 12 0 10 #404060 #00ff00 0;
#X obj 121 20 nbx 2 20 1 400 0 0 \$1-beatsperbar \$1-beatsperbar empty 0 -9 0 24 #404060 #00ff04 #000000 0 256;
#X obj 121 7 cnv 10 10 39 empty empty empty 2 12 0 10 #404060 #00ff00 0;
#X obj 172 7 cnv 10 10 39 empty empty empty 2 12 0 10 #404060 #00ff00 0;
#X obj 132 7 cnv 10 40 13 empty empty beats 0 5 0 10 #404060 #00ff04 0;
#X obj 132 40 cnv 6 40 6 empty empty empty 0 5 0 10 #404060 #00ff04 0;
#X obj 117 4 cnv 10 10 45 empty empty empty 2 12 0 10 #8080a0 #00ff00 0;
#X obj 44 20 nbx 3 20 1 400 0 0 \$1-bpm \$1-bpm empty 0 -9 0 24 #404060 #00ff04 #000000 0 256;
#X obj 44 7 cnv 10 10 39 empty empty empty 2 12 0 10 #404060 #00ff00 0;
#X obj 114 7 cnv 10 10 39 empty empty empty 2 12 0 10 #404060 #00ff00 0;
#X obj 55 7 cnv 10 66 13 empty empty bpm 0 5 0 10 #404060 #00ff04 0;
#X obj 55 40 cnv 6 66 6 empty empty empty 0 5 0 10 #404060 #00ff04 0;
#X obj 40 4 cnv 10 10 45 empty empty empty 2 12 0 10 #8080a0 #00ff00 0;
#X obj 8 7 tgl 39 0 \$1-run \$1-run empty 0 -10 0 12 #ffffff #000000 #000000 0 1;
#X obj 8 7 cnv 12 39 39 empty empty empty 20 12 0 10 #404060 #404040 0;
#X obj 11 10 cnv 12 33 33 empty \$0.run.button.front empty 20 12 0 10 #8080a0 #8080a0 0;
#X obj 668 4 cnv 3 126 45 empty empty empty 2 12 0 10 #8080a0 #00ff00 0;
#X obj 674 7 hsl 115 18 0 127 0 0 \$0.pattern.editor.click empty empty -2 -9 0 10 #fcfcfc #000000 #000000 0 1;
#X obj 674 28 hsl 115 18 0 127 0 0 \$0.loop.editor.click empty empty -2 -9 0 10 #fcfcfc #000000 #000000 0 1;
#X obj 671 7 cnv 10 120 18 empty \$0.pattern.editor.label pattern\ editor 3 9 0 14 #404060 #ccffcc 0;
#X obj 671 28 cnv 10 120 18 empty \$0.loop.editor.label loop\ editor 3 9 0 14 #404060 #bcbcdc 0;
#X obj 250 4 cnv 3 168 45 empty empty empty 2 12 0 10 #8080a0 #00ff00 0;
#X obj 373 7 vradio 13 1 0 3 \$1-restart/select \$1-restart/select empty 0 -9 0 10 #fcfcfc #000000 #000000 0;
#X obj 386 7 vradio 13 1 0 3 \$1-restart/select \$1-restart/select empty 0 -9 0 10 #fcfcfc #000000 #000000 0;
#X obj 396 7 vradio 13 1 0 3 \$1-restart/select \$1-restart/select empty 0 -9 0 10 #fcfcfc #000000 #000000 0;
#X obj 402 7 vradio 13 1 0 3 \$1-restart/select \$1-restart/select empty 0 -9 0 10 #fcfcfc #000000 #000000 0;
#X obj 364 20 hsl 25 20 0 127 0 0 empty empty empty -2 -9 0 10 #fcfcfc #000000 #000000 0 1;
#X obj 274 20 nbx 5 20 0 25200 0 0 \$1-restart/pos \$1-restart/pos empty 0 -9 0 24 #404060 #bcbcdc #bcbcdc 0 256;
#X obj 274 7 cnv 10 10 39 empty empty empty 2 12 0 10 #404060 #00ff00 0;
#X obj 285 7 cnv 10 73 13 empty \$0.restart.label from 0 5 0 10 #404060 #bcbcdc 0;
#X obj 285 40 cnv 6 73 6 empty empty empty 0 5 0 10 #404060 #00ff04 0;
#X obj 270 4 cnv 10 10 45 empty empty empty 2 12 0 10 #8080a0 #00ff00 0;
#X obj 362 4 cnv 10 10 45 empty empty empty 2 12 0 10 #8080a0 #00ff00 0;
#X obj 359 7 cnv 10 10 39 empty empty empty 2 12 0 10 #404060 #00ff00 0;
#X obj 373 7 cnv 10 42 13 empty \$0.init.select.bars.label bars 4 6 0 10 #404060 #00ff00 0;
#X obj 373 20 cnv 10 42 13 empty \$0.init.select.beats.label beats 4 6 0 10 #404060 #bcbcdc 0;
#X obj 373 33 cnv 10 42 13 empty \$0.init.select.ticks.label ticks 4 6 0 10 #404060 #bcbcdc 0;
#X obj 253 7 tgl 24 0 \$1-restart/active \$1-restart/active empty 0 -10 0 12 #ffffff #000000 #000000 0 1;
#X obj 253 22 tgl 24 0 \$1-restart/active \$1-restart/active empty 0 -10 0 12 #ffffff #000000 #000000 0 1;
#X obj 253 7 cnv 6 24 39 empty empty empty 20 12 0 10 #404060 #404040 0;
#X obj 256 10 cnv 12 18 33 empty \$0.loop.button.front empty 20 12 0 10 #8080a0 #8080a0 0;
#X restore 370 14 pd \$1-untik;
#X obj 10 114 loadbang;
#N canvas 1231 49 598 869 pattern.store 0;
#X msg 350 77 8;
#X obj 350 124 f;
#X obj 350 147 t a a;
#X obj 404 110 + 1;
#X obj 350 100 until;
#X obj 17 115 r \$0.patsel;
#X obj 17 138 route select;
#X obj 17 161 t a b;
#X msg 68 166 1;
#X obj 17 245 s \$0.pattern.name.r;
#X msg 17 222 set \$1;
#X obj 22 338 r \$0.pattern.name.s;
#X obj 91 363 r \$0.patsel;
#X obj 91 386 route select;
#X obj 22 409 list prepend;
#X msg 55 454 \$1;
#X obj 22 524 list append;
#X obj 22 547 t a a, f 18;
#X obj 22 572 list split 1;
#X obj 55 500 list split 1;
#X obj 243 251 r \$0.patted;
#X obj 356 257 r \$0.patsel;
#X obj 356 280 route select;
#X msg 434 327 1;
#X obj 268 376 list prepend, f 15;
#X obj 243 301 route pattern set;
#X text 21 317 -- change pattern name--;
#X text 14 94 -- set pattern name editor --;
#X text 250 232 -- write pattern to text --;
#X text 240 496 -- read pattern from text --;
#X obj 243 515 r \$0.patsel;
#X obj 243 538 route select;
#X obj 243 684 list split 1;
#X obj 243 342 t a b;
#X obj 356 328 f;
#X msg 395 329 0;
#X obj 356 303 t a a b b, f 13;
#X obj 243 276 spigot 1;
#X obj 277 710 t b a b;
#X msg 277 734 1;
#X msg 316 734 0;
#X obj 262 762 t a;
#N canvas 0 0 216 294 display.pattern 0;
#X obj 53 68 list prepend set;
#X obj 53 91 list trim;
#X obj 53 114 s \$0.patted;
#X obj 26 246 s \$0.pattern.length;
#X obj 60 206 s \$0.pattern.ticks;
#X obj 26 138 list split 1;
#X obj 60 160 list length;
#X msg 60 183 set \$1;
#X msg 26 225 set \$1;
#X obj 26 20 inlet;
#X obj 26 43 t a a;
#X connect 0 0 1 0;
#X connect 1 0 2 0;
#X connect 5 0 8 0;
#X connect 5 1 6 0;
#X connect 6 0 7 0;
#X connect 7 0 4 0;
#X connect 8 0 3 0;
#X connect 9 0 10 0;
#X connect 10 0 5 0;
#X connect 10 1 0 0;
#X restore 296 772 pd display.pattern;
#X obj 17 197 text get \$1-patterns;
#X obj 15 57 s \$0.pats.o.0;
#X obj 103 57 s \$0.pats.o.1;
#X obj 192 56 s \$0.pats.o.2;
#X obj 15 5 r \$0.pats.i;
#X text 348 6 -- INIT ----------;
#X msg 207 140 click;
#X obj 207 163 s \$0.pats.i;
#X obj 356 350 text get \$1-patterns;
#X obj 243 654 text get \$1-patterns;
#X obj 55 477 text get \$1-patterns;
#X obj 56 596 list prepend, f 13;
#X obj 56 618 list trim;
#X obj 56 642 s \$0.pats.i;
#X msg 382 378 set \$1 -1;
#X msg 127 573 set \$1 -1;
#X obj 268 405 list prepend;
#X obj 268 428 list trim;
#X obj 268 451 s \$0.pats.i;
#X obj 15 30 netpd_text \$1 patterns, f 30;
#X obj 350 192 text set \$1-patterns;
#X obj 350 51 t b b;
#X msg 439 119 1e+15;
#X msg 350 170 symbol pattern\$1;
#X obj 350 25 r \$0.loadbang.0;
#X obj 22 432 t a a, f 6;
#X obj 373 571 r \$0.pats.o.2;
#X obj 373 635 route set;
#X obj 373 659 route -1;
#X obj 373 681 list split 2;
#X obj 437 598 r \$1.NETPD;
#X obj 437 621 route remote_origin;
#X obj 373 600 spigot 0;
#N canvas 45 143 711 367 update.pattern.names 0;
#X obj 9 95 s \$0.patsel;
#X obj 9 26 r \$0.pats.o.2;
#X obj 9 49 route set;
#X msg 9 72 \$1 setlabel \$3;
#X text 7 2 -- update pattern name ---;
#X obj 235 32 r \$0.pats.o.2;
#X obj 235 55 route fromlist;
#X text 215 2 -- refresh all names after dump ---;
#X msg 235 105 8;
#X obj 235 152 f;
#X obj 297 161 + 1;
#X obj 235 128 until;
#X obj 235 79 t b b;
#X msg 286 119 0;
#X obj 254 198 text get \$1-patterns;
#X obj 235 175 t a a a;
#X obj 254 220 list split 1;
#X obj 235 321 s \$0.patsel;
#X obj 235 245 list append;
#X msg 235 298 \$1 setlabel \$2;
#X obj 406 153 r \$0.patsel;
#X obj 406 176 route select;
#X obj 397 241 route -1;
#X obj 235 268 t a a;
#X msg 397 288 set \$1;
#X obj 397 310 s \$0.pattern.name.r;
#X obj 397 264 symbol;
#X connect 1 0 2 0;
#X connect 2 0 3 0;
#X connect 3 0 0 0;
#X connect 5 0 6 0;
#X connect 6 0 12 0;
#X connect 8 0 11 0;
#X connect 9 0 15 0;
#X connect 10 0 9 1;
#X connect 11 0 9 0;
#X connect 12 0 8 0;
#X connect 12 1 13 0;
#X connect 13 0 9 1;
#X connect 14 0 16 0;
#X connect 15 0 18 0;
#X connect 15 1 14 0;
#X connect 15 2 10 0;
#X connect 16 0 18 1;
#X connect 18 0 23 0;
#X connect 19 0 17 0;
#X connect 20 0 21 0;
#X connect 21 0 22 1;
#X connect 22 0 26 0;
#X connect 23 0 19 0;
#X connect 23 1 22 0;
#X connect 24 0 25 0;
#X connect 26 0 24 0;
#X restore 20 701 pd update.pattern.names;
#X msg 373 714 set \$2;
#X obj 373 737 s \$0.pattern.name.r;
#X obj 255 561 r \$0.pats.o.2;
#X obj 255 584 route fromlist;
#X obj 243 630 f;
#X obj 255 607 b;
#X connect 0 0 4 0;
#X connect 1 0 2 0;
#X connect 2 0 66 0;
#X connect 2 1 3 0;
#X connect 3 0 1 1;
#X connect 4 0 1 0;
#X connect 5 0 6 0;
#X connect 6 0 7 0;
#X connect 7 0 43 0;
#X connect 7 1 8 0;
#X connect 8 0 43 2;
#X connect 10 0 9 0;
#X connect 11 0 14 0;
#X connect 12 0 13 0;
#X connect 13 0 14 1;
#X connect 14 0 68 0;
#X connect 15 0 53 0;
#X connect 16 0 17 0;
#X connect 17 0 18 0;
#X connect 17 1 58 0;
#X connect 18 1 54 0;
#X connect 19 1 16 1;
#X connect 20 0 37 0;
#X connect 21 0 22 0;
#X connect 22 0 36 0;
#X connect 23 0 51 2;
#X connect 24 0 59 0;
#X connect 25 0 33 0;
#X connect 25 1 33 0;
#X connect 30 0 31 0;
#X connect 31 0 71 1;
#X connect 31 0 81 0;
#X connect 32 1 38 0;
#X connect 33 0 24 0;
#X connect 33 1 34 0;
#X connect 34 0 51 0;
#X connect 35 0 51 1;
#X connect 36 0 34 0;
#X connect 36 1 57 0;
#X connect 36 2 35 0;
#X connect 36 3 23 0;
#X connect 37 0 25 0;
#X connect 38 0 39 0;
#X connect 38 1 42 0;
#X connect 38 2 40 0;
#X connect 39 0 41 0;
#X connect 40 0 41 0;
#X connect 41 0 37 1;
#X connect 43 0 10 0;
#X connect 47 0 62 0;
#X connect 49 0 50 0;
#X connect 51 0 24 1;
#X connect 52 0 32 0;
#X connect 53 0 19 0;
#X connect 54 0 55 0;
#X connect 55 0 56 0;
#X connect 57 0 59 1;
#X connect 58 0 54 1;
#X connect 59 0 60 0;
#X connect 60 0 61 0;
#X connect 62 0 44 0;
#X connect 62 1 45 0;
#X connect 62 2 46 0;
#X connect 64 0 0 0;
#X connect 64 1 65 0;
#X connect 65 0 63 1;
#X connect 66 0 63 0;
#X connect 67 0 64 0;
#X connect 68 0 16 0;
#X connect 68 1 15 0;
#X connect 69 0 75 0;
#X connect 70 0 71 0;
#X connect 71 0 72 0;
#X connect 72 0 77 0;
#X connect 72 1 38 0;
#X connect 73 0 74 0;
#X connect 74 0 75 1;
#X connect 75 0 70 0;
#X connect 77 0 78 0;
#X connect 79 0 80 0;
#X connect 80 0 82 0;
#X connect 81 0 52 0;
#X connect 82 0 81 0;
#X restore 180 74 pd pattern.store;
#N canvas 0 0 261 500 create.regular.grid 0;
#X obj 10 150 t a a a, f 22;
#X obj 139 174 /;
#X msg 74 174 \$2;
#X msg 119 222 0;
#X obj 74 222 until;
#X obj 74 247 f;
#X obj 74 271 t a a;
#X obj 114 252 + 1;
#X obj 74 297 *, f 11;
#X obj 49 374 list store;
#X msg 74 322 append \$1;
#X obj 10 331 t a b b;
#X obj 10 400 list append;
#X msg 10 177 \$1;
#X obj 74 197 t a b, f 8;
#X obj 10 423 list prepend set;
#X obj 10 446 list trim;
#X obj 10 469 s \$0.patted;
#X obj 10 6 r \$0.pattern.length;
#X obj 137 10 r \$0.pattern.ticks;
#X obj 137 57 t b a;
#X obj 10 112 pack 4 4;
#X obj 10 86 f;
#X obj 137 32 route float set;
#X obj 10 32 route float set;
#X connect 0 0 13 0;
#X connect 0 1 2 0;
#X connect 0 2 1 0;
#X connect 1 0 8 1;
#X connect 2 0 14 0;
#X connect 3 0 5 1;
#X connect 4 0 5 0;
#X connect 5 0 6 0;
#X connect 6 0 8 0;
#X connect 6 1 7 0;
#X connect 7 0 5 1;
#X connect 8 0 10 0;
#X connect 9 0 12 1;
#X connect 10 0 9 0;
#X connect 11 0 12 0;
#X connect 11 1 9 1;
#X connect 11 2 9 0;
#X connect 12 0 15 0;
#X connect 13 0 11 0;
#X connect 14 0 4 0;
#X connect 14 1 3 0;
#X connect 15 0 16 0;
#X connect 16 0 17 0;
#X connect 18 0 24 0;
#X connect 19 0 23 0;
#X connect 20 0 22 0;
#X connect 20 1 21 1;
#X connect 21 0 0 0;
#X connect 22 0 21 0;
#X connect 23 0 20 0;
#X connect 23 1 21 1;
#X connect 24 0 22 0;
#X connect 24 1 22 1;
#X restore 180 104 pd create.regular.grid;
#N canvas 1403 26 656 149 \$1-untik-pattern-editor 1;
#X obj 8 63 cnv 18 641 46 empty empty empty 20 12 0 10 #8080a0 #404040 0;
#X obj 46 66 untik-pattern-editor \$0.patted;
#X obj 12 66 cnv 18 30 40 empty empty empty 20 12 0 10 #303050 #404040 0;
#X obj 11 66 nbx 2 20 1 99 0 0 \$0.pattern.length \$0.pattern.length empty 0 -9 0 10 #303050 #66dd00 #ffffff 0 256;
#X obj 11 86 nbx 2 20 1 99 0 0 \$0.pattern.ticks \$0.pattern.ticks empty 0 -9 0 10 #303050 #66dd00 #ffffff 0 256;
#X obj 8 32 cnv 18 641 30 empty empty empty 20 12 0 10 #606080 #404040 0;
#X obj 11 35 untik-pattern-selector \$0.patsel 0;
#X obj 91 35 untik-pattern-selector \$0.patsel 1;
#X obj 171 35 untik-pattern-selector \$0.patsel 2;
#X obj 251 35 untik-pattern-selector \$0.patsel 3;
#X obj 331 35 untik-pattern-selector \$0.patsel 4;
#X obj 411 35 untik-pattern-selector \$0.patsel 5;
#X obj 491 35 untik-pattern-selector \$0.patsel 6;
#X obj 571 35 untik-pattern-selector \$0.patsel 7;
#X obj 8 110 cnv 18 641 30 empty empty empty 4 14 0 16 #606080 #c0c0e0 0;
#X obj 184 113 cnv 18 82 23 empty empty empty 20 12 0 10 #b0b0d0 #404040 0;
#X symbolatom 184 113 9 0 0 0 - \$0.pattern.name.r \$0.pattern.name.s 16;
#X obj 8 7 cnv 18 641 24 empty empty untik\ pattern\ editor 4 12 0 20 #404060 #8080a0 0;
#N canvas 45 143 480 288 \$0.pattern.enable 0;
#X obj 23 20 hsl 95 21 0 127 0 0 \$0.pat.en.click empty empty -2 -10 0 12 #fcfcfc #000000 #000000 0 1;
#X obj 20 20 cnv 20 100 21 empty \$0.pat.en.label inactive 4 11 0 14 #8080a0 #bcbcdc 0;
#X obj 81 88 sel 0;
#X obj 121 89 t a;
#X obj 81 65 r \$0.pat.en.click;
#X obj 264 225 s \$0.pat.en.label;
#X msg 335 163 label \$1;
#X obj 335 135 symbol;
#X obj 81 111 == 0;
#X obj 233 61 sel 0 1, f 16;
#X msg 233 137 #bcbcdc;
#X msg 233 189 color #8080a0 0 \$1;
#X obj 233 165 symbol;
#X msg 335 108 inactive;
#X msg 396 107 active;
#X obj 114 165 route set;
#X obj 24 137 t a a;
#X obj 51 160 t a a;
#X msg 24 189 enable \$1;
#X obj 24 212 s \$0.pat.en;
#X obj 114 142 r \$0.pat.en;
#X msg 279 108 #ccffcc;
#X connect 2 0 8 0;
#X connect 2 1 3 0;
#X connect 3 0 2 1;
#X connect 4 0 2 0;
#X connect 6 0 5 0;
#X connect 7 0 6 0;
#X connect 8 0 16 0;
#X connect 9 0 13 0;
#X connect 9 0 10 0;
#X connect 9 1 14 0;
#X connect 9 1 21 0;
#X connect 10 0 12 0;
#X connect 11 0 5 0;
#X connect 12 0 11 0;
#X connect 13 0 7 0;
#X connect 14 0 7 0;
#X connect 15 0 17 0;
#X connect 16 0 18 0;
#X connect 16 1 17 0;
#X connect 17 0 8 1;
#X connect 17 1 9 0;
#X connect 18 0 19 0;
#X connect 20 0 15 0;
#X connect 21 0 12 0;
#X coords 0 -1 1 1 100 21 2 20 20;
#X restore 12 114 pd \$0.pattern.enable;
#X obj 268 110 cnv 18 60 30 empty empty empty 4 14 0 16 #606080 #c0c0e0 0;
#X obj 124 110 cnv 18 60 30 empty empty name: 4 14 0 16 #606080 #c0c0e0 0;
#X restore 370 44 pd \$1-untik-pattern-editor;
#N canvas 382 54 325 612 active.state 0;
#X msg 15 489 set \$1;
#X obj 19 56 route enable;
#X obj 19 33 r \$0.pat.en;
#X obj 15 514 s \$0.pat.en;
#X obj 15 274 route select;
#X obj 15 251 r \$0.patsel;
#X obj 15 420 list length;
#X obj 15 443 > 1;
#X text 5 234 -- reflect state in "active" button --;
#X obj 91 496 sel 0;
#X obj 15 466 t a a;
#X msg 91 519 set 0;
#X obj 101 541 s \$0.pattern.ticks;
#X obj 91 561 s \$0.pattern.length;
#X obj 46 169 s \$0.pattern.ticks;
#X obj 19 190 s \$0.pattern.length;
#X text 18 12 -- create regular grid ---;
#X obj 19 124 t a a;
#X msg 46 146 set \$1;
#X obj 19 78 sel 1 0;
#X obj 195 174 s \$0.patted;
#X msg 195 151 set;
#X obj 15 397 text get \$1-patterns;
#X obj 19 100 f 5, f 4;
#X obj 116 260 r \$0.pats.o.2;
#X obj 116 306 b;
#X obj 15 360 f;
#X obj 116 283 route fromlist set;
#X obj 168 328 route -1;
#X obj 15 298 t a a;
#X obj 168 366 list length;
#X obj 168 389 > 2;
#X obj 55 101 netpd_r \$1 ticksperbeat;
#X connect 0 0 3 0;
#X connect 1 0 19 0;
#X connect 2 0 1 0;
#X connect 4 0 29 0;
#X connect 5 0 4 0;
#X connect 6 0 7 0;
#X connect 7 0 10 0;
#X connect 9 0 11 0;
#X connect 10 0 0 0;
#X connect 10 1 9 0;
#X connect 11 0 12 0;
#X connect 11 0 13 0;
#X connect 17 0 15 0;
#X connect 17 1 18 0;
#X connect 18 0 14 0;
#X connect 19 0 23 0;
#X connect 19 1 21 0;
#X connect 21 0 20 0;
#X connect 22 0 6 0;
#X connect 23 0 17 0;
#X connect 24 0 27 0;
#X connect 25 0 26 0;
#X connect 26 0 22 0;
#X connect 27 0 25 0;
#X connect 27 1 28 0;
#X connect 28 0 30 0;
#X connect 29 0 26 0;
#X connect 29 1 28 1;
#X connect 30 0 31 0;
#X connect 31 0 10 0;
#X connect 32 0 23 1;
#X restore 180 134 pd active.state;
#X obj 10 137 t b b b;
#X obj 49 161 s \$0.loadbang.0;
#X msg 10 182 select 0;
#X obj 10 205 s \$0.patsel;
#N canvas 1351 49 745 710 main.clock 0;
#X obj 22 112 metro 1 120 permin;
#X obj 22 135 f;
#X obj 22 186 t a a;
#X obj 111 149 + 1, f 4;
#X obj 22 158 mod 25200;
#X msg 22 74 tempo \$1 \$2;
#X obj 22 23 r \$0.untik;
#X obj 22 235 s \$0.untik;
#X obj 22 46 route tempo run set;
#X msg 248 202 tempo \$1 permin;
#X obj 234 233 t a;
#X msg 234 79 run \$1;
#X obj 234 263 s \$0.untik;
#X msg 173 142 set \$1;
#X floatatom 176 115 5 0 0 0 - - - 0;
#X obj 234 26 netpd_f \$1 run 0;
#X obj 257 150 netpd_f \$1 bpm 120;
#X obj 248 176 *, f 5;
#X obj 248 126 t b a;
#X obj 248 103 netpd_f \$1 ticksperbeat 4;
#X obj 26 328 r \$0.untik;
#X obj 26 374 t a a a a, f 83;
#X obj 191 447 mod;
#X obj 206 402 netpd_r \$1 ticksperbeat;
#X obj 26 396 change -1;
#X obj 191 469 change -1;
#X obj 364 400 netpd_r \$1 ticksperbeat;
#X obj 356 504 change -1;
#X obj 356 447 div;
#X obj 364 423 t b a;
#X obj 383 479 t b a;
#X obj 562 264 netpd_f \$1 beatsperbar 4;
#X obj 383 456 netpd_r \$1 beatsperbar;
#X obj 356 478 mod;
#X obj 206 424 t b a;
#X obj 521 550 change -1;
#X obj 521 527 div;
#X obj 529 503 t b a;
#X obj 529 407 netpd_r \$1 beatsperbar;
#X obj 537 429 netpd_r \$1 ticksperbeat;
#X obj 529 479 *;
#X obj 537 454 t b a;
#X obj 26 654 s UNTIK;
#X msg 521 599 bar \$1;
#X msg 356 548 beat \$1;
#X msg 191 512 tick \$1;
#X msg 26 419 pos \$1;
#X obj 521 575 + 1;
#X obj 356 526 + 1;
#X obj 191 491 + 1;
#X obj 26 608 list prepend main;
#X obj 26 631 list trim;
#X msg 22 211 pos \$1;
#X obj 26 350 route pos;
#X text 25 304 -- create bar \, beat \, tick from pos ------------------------;
#X text 20 -1 -- MAIN METRO -----------;
#X text 230 5 -- netpd-ize main controls ---------;
#X obj 494 39 r \$0.untik;
#X obj 234 49 t a a, f 34;
#X obj 435 74 sel 1;
#X obj 435 102 f;
#X obj 435 125 sel 1;
#X obj 494 62 route restart.active restart.pos;
#X obj 435 148 f;
#X msg 435 172 set \$1;
#X connect 0 0 1 0;
#X connect 1 0 4 0;
#X connect 2 0 52 0;
#X connect 2 1 3 0;
#X connect 3 0 1 1;
#X connect 4 0 2 0;
#X connect 5 0 0 0;
#X connect 6 0 8 0;
#X connect 8 0 5 0;
#X connect 8 1 0 0;
#X connect 8 2 1 1;
#X connect 9 0 10 0;
#X connect 10 0 12 0;
#X connect 11 0 10 0;
#X connect 13 0 10 0;
#X connect 14 0 13 0;
#X connect 15 0 58 0;
#X connect 16 0 17 0;
#X connect 17 0 9 0;
#X connect 18 0 17 0;
#X connect 18 1 17 1;
#X connect 19 0 18 0;
#X connect 20 0 53 0;
#X connect 21 0 24 0;
#X connect 21 1 22 0;
#X connect 21 2 28 0;
#X connect 21 3 36 0;
#X connect 22 0 25 0;
#X connect 23 0 34 0;
#X connect 24 0 46 0;
#X connect 25 0 49 0;
#X connect 26 0 29 0;
#X connect 27 0 48 0;
#X connect 28 0 33 0;
#X connect 29 0 28 0;
#X connect 29 1 28 1;
#X connect 30 0 33 0;
#X connect 30 1 33 1;
#X connect 32 0 30 0;
#X connect 33 0 27 0;
#X connect 34 0 22 0;
#X connect 34 1 22 1;
#X connect 35 0 47 0;
#X connect 36 0 35 0;
#X connect 37 0 36 0;
#X connect 37 1 36 1;
#X connect 38 0 40 0;
#X connect 39 0 41 0;
#X connect 40 0 37 0;
#X connect 41 0 40 0;
#X connect 41 1 40 1;
#X connect 43 0 50 0;
#X connect 44 0 50 0;
#X connect 45 0 50 0;
#X connect 46 0 50 0;
#X connect 47 0 43 0;
#X connect 48 0 44 0;
#X connect 49 0 45 0;
#X connect 50 0 51 0;
#X connect 51 0 42 0;
#X connect 52 0 7 0;
#X connect 53 0 21 0;
#X connect 57 0 62 0;
#X connect 58 0 11 0;
#X connect 58 1 59 0;
#X connect 59 0 60 0;
#X connect 60 0 61 0;
#X connect 61 0 63 0;
#X connect 62 0 60 1;
#X connect 62 1 63 1;
#X connect 63 0 64 0;
#X connect 64 0 10 0;
#X restore 180 14 pd main.clock;
#N canvas 868 550 450 300 gui.stuff 0;
#N canvas 745 328 374 491 pos.display 0;
#X obj 61 138 s \$0.step.display;
#X obj 11 84 makefilename %05d;
#X msg 61 116 label \$1;
#X obj 56 174 r \$0.step.display.click;
#X obj 83 199 t a;
#X obj 56 220 == 0;
#X obj 92 220 t a;
#X obj 56 198 sel;
#X msg 56 301 symbol #AAAAAA;
#X obj 11 276 t b b, f 8;
#X obj 11 299 del 40;
#X msg 11 322 symbol #404060;
#X obj 11 373 t a a;
#X obj 11 254 spigot 0;
#X obj 48 406 s \$0.step.display;
#X obj 11 107 t a a;
#X obj 11 427 s \$0.step.label;
#X obj 11 11 r UNTIK;
#X obj 11 34 route main;
#X obj 11 57 route pos;
#X msg 11 350 color \$1 0 #ccffcc;
#X connect 1 0 15 0;
#X connect 2 0 0 0;
#X connect 3 0 7 0;
#X connect 4 0 7 1;
#X connect 5 0 6 0;
#X connect 5 0 13 1;
#X connect 6 0 5 1;
#X connect 7 0 5 0;
#X connect 7 1 4 0;
#X connect 8 0 20 0;
#X connect 9 0 10 0;
#X connect 9 1 8 0;
#X connect 10 0 11 0;
#X connect 11 0 20 0;
#X connect 12 0 16 0;
#X connect 12 1 14 0;
#X connect 13 0 9 0;
#X connect 15 0 13 0;
#X connect 15 1 2 0;
#X connect 17 0 18 0;
#X connect 18 0 19 0;
#X connect 19 0 1 0;
#X connect 20 0 12 0;
#X restore 12 11 pd pos.display;
#N canvas 1015 253 328 465 bar.display 0;
#X msg 64 131 label \$1;
#X obj 58 371 s \$0.bar.display;
#X obj 64 107 makefilename %04d;
#X obj 24 106 t a a;
#X msg 69 277 symbol #AAAAAA;
#X obj 24 252 t b b, f 8;
#X obj 24 275 del 40;
#X msg 24 298 symbol #404060;
#X obj 24 345 t a a;
#X obj 24 395 s \$0.bar.label;
#X obj 24 220 spigot 0;
#X obj 99 160 r \$0.bar.display.click;
#X obj 126 183 t a;
#X obj 99 206 == 0;
#X obj 135 206 t a;
#X obj 99 183 sel;
#X obj 24 26 r UNTIK;
#X obj 24 49 route main;
#X obj 24 72 route bar;
#X msg 24 325 color \$1 0 #ccffcc;
#X connect 0 0 1 0;
#X connect 2 0 0 0;
#X connect 3 0 10 0;
#X connect 3 1 2 0;
#X connect 4 0 19 0;
#X connect 5 0 6 0;
#X connect 5 1 4 0;
#X connect 6 0 7 0;
#X connect 7 0 19 0;
#X connect 8 0 9 0;
#X connect 8 1 1 0;
#X connect 10 0 5 0;
#X connect 11 0 15 0;
#X connect 12 0 15 1;
#X connect 13 0 14 0;
#X connect 13 0 10 1;
#X connect 14 0 13 1;
#X connect 15 0 13 0;
#X connect 15 1 12 0;
#X connect 16 0 17 0;
#X connect 17 0 18 0;
#X connect 18 0 3 0;
#X connect 19 0 8 0;
#X restore 12 41 pd bar.display;
#N canvas 827 368 512 493 beat.display 0;
#X msg 72 115 label \$1;
#X obj 72 91 makefilename %02d;
#X obj 58 370 s \$0.beatbar.display;
#X obj 25 80 t a a;
#X msg 70 259 symbol #AAAAAA;
#X obj 25 234 t b b, f 8;
#X obj 25 257 del 40;
#X msg 25 280 symbol #404060;
#X obj 25 339 t a a;
#X obj 25 390 s \$0.beatbar.label;
#X obj 85 141 r \$0.beatbar.display.click;
#X obj 113 165 t a;
#X obj 85 186 == 0;
#X obj 121 186 t a;
#X obj 85 165 sel;
#X obj 25 210 spigot;
#X obj 25 7 r UNTIK;
#X obj 25 30 route main;
#X obj 25 53 route beat;
#X msg 25 307 color \$1 0 #ccffcc;
#X connect 0 0 2 0;
#X connect 1 0 0 0;
#X connect 3 0 15 0;
#X connect 3 1 1 0;
#X connect 4 0 19 0;
#X connect 5 0 6 0;
#X connect 5 1 4 0;
#X connect 6 0 7 0;
#X connect 7 0 19 0;
#X connect 8 0 9 0;
#X connect 8 1 2 0;
#X connect 10 0 14 0;
#X connect 11 0 14 1;
#X connect 12 0 13 0;
#X connect 12 0 15 1;
#X connect 13 0 12 1;
#X connect 14 0 12 0;
#X connect 14 1 11 0;
#X connect 15 0 5 0;
#X connect 16 0 17 0;
#X connect 17 0 18 0;
#X connect 18 0 3 0;
#X connect 19 0 8 0;
#X restore 12 71 pd beat.display;
#N canvas 996 557 363 490 tick.display 0;
#X msg 86 123 label \$1;
#X obj 65 295 s \$0.stepbeat.display;
#X obj 86 99 makefilename %02d;
#X obj 28 95 t a a;
#X msg 73 190 symbol #AAAAAA;
#X obj 28 165 t b b, f 8;
#X obj 28 188 del 40;
#X msg 28 211 symbol #404060;
#X obj 28 262 t a a;
#X obj 28 316 s \$0.stepbeat.label;
#X obj 31 362 r \$0.stepbeat.display.click;
#X obj 59 386 t a;
#X obj 31 407 == 0;
#X obj 67 407 t a;
#X obj 31 386 sel;
#X obj 28 143 spigot 0;
#X obj 28 20 r UNTIK;
#X obj 28 43 route main;
#X obj 28 66 route tick;
#X msg 28 239 color \$1 0 #ccffcc;
#X connect 0 0 1 0;
#X connect 2 0 0 0;
#X connect 3 0 15 0;
#X connect 3 1 2 0;
#X connect 4 0 19 0;
#X connect 5 0 6 0;
#X connect 5 1 4 0;
#X connect 6 0 7 0;
#X connect 7 0 19 0;
#X connect 8 0 9 0;
#X connect 8 1 1 0;
#X connect 10 0 14 0;
#X connect 11 0 14 1;
#X connect 12 0 13 0;
#X connect 12 0 15 1;
#X connect 13 0 12 1;
#X connect 14 0 12 0;
#X connect 14 1 11 0;
#X connect 15 0 5 0;
#X connect 16 0 17 0;
#X connect 17 0 18 0;
#X connect 18 0 3 0;
#X connect 19 0 8 0;
#X restore 12 101 pd tick.display;
#N canvas 813 157 663 300 run.button 0;
#X obj 8 163 s \$0.run.button.front;
#X msg 8 140 color \$1 \$1 \$1;
#X msg 9 85 #8080a0;
#X obj 9 117 symbol;
#X msg 244 168 #ccffcc;
#X msg 301 169 #bbeebb;
#X msg 356 170 #aaddaa;
#X obj 244 62 r \$0.untik;
#X obj 244 85 route pos;
#X msg 412 170 #99cc99;
#X msg 467 171 #88bb88;
#X obj 244 131 sel 0 1 2 3 4 5 6 7;
#X obj 244 108 mod 8;
#X msg 67 85 #00ff00;
#X obj 9 60 sel 0 1, f 20;
#X obj 244 210 t a;
#X text 246 29 some experiment;
#X obj 9 29 netpd_f \$1 run 0;
#X connect 1 0 0 0;
#X connect 2 0 3 0;
#X connect 3 0 1 0;
#X connect 4 0 15 0;
#X connect 5 0 15 0;
#X connect 6 0 15 0;
#X connect 8 0 12 0;
#X connect 9 0 15 0;
#X connect 10 0 15 0;
#X connect 11 0 4 0;
#X connect 11 1 5 0;
#X connect 11 2 6 0;
#X connect 11 3 9 0;
#X connect 11 4 10 0;
#X connect 11 5 9 0;
#X connect 11 6 6 0;
#X connect 11 7 5 0;
#X connect 12 0 11 0;
#X connect 13 0 3 0;
#X connect 14 0 2 0;
#X connect 14 1 13 0;
#X connect 17 0 14 0;
#X restore 12 161 pd run.button;
#N canvas 1527 165 376 283 window.buttons 0;
#X msg 8 220 vis 1;
#X obj 8 243 s pd-\$1-untik-pattern-editor;
#X obj 8 10 r \$0.pattern.editor.click;
#X obj 8 33 sel;
#X obj 38 33 t a;
#X msg 35 123 #ccffcc;
#X msg 86 123 #00ff00;
#X msg 35 172 color #404060 0 \$1;
#X obj 35 149 symbol;
#X obj 35 196 s \$0.pattern.editor.label;
#X obj 35 78 t b b, f 9;
#X obj 35 101 del 100;
#X obj 8 56 t b b;
#X connect 0 0 1 0;
#X connect 2 0 3 0;
#X connect 3 0 12 0;
#X connect 3 1 4 0;
#X connect 4 0 3 1;
#X connect 5 0 8 0;
#X connect 6 0 8 0;
#X connect 7 0 9 0;
#X connect 8 0 7 0;
#X connect 10 0 11 0;
#X connect 10 1 6 0;
#X connect 11 0 5 0;
#X connect 12 0 0 0;
#X connect 12 1 10 0;
#X restore 12 131 pd window.buttons;
#N canvas 1402 297 1077 248 restart 0;
#X obj 5 12 netpd_r \$1 restart/select;
#X obj 345 183 s \$0.init.select.bars.label;
#X msg 345 160 color #404060 0 \$1;
#X msg 345 115 #bcbcdc;
#X msg 397 115 #00ff00;
#X obj 345 138 symbol;
#X obj 345 70 == 0;
#X obj 345 93 sel 0 1, f 18;
#X obj 5 35 t a a a;
#X msg 175 160 color #404060 0 \$1;
#X msg 175 115 #bcbcdc;
#X msg 227 115 #00ff00;
#X obj 175 138 symbol;
#X obj 175 93 sel 0 1, f 18;
#X msg 5 160 color #404060 0 \$1;
#X msg 5 115 #bcbcdc;
#X msg 57 115 #00ff00;
#X obj 5 138 symbol;
#X obj 5 93 sel 0 1, f 18;
#X obj 175 70 == 1;
#X obj 5 70 == 2;
#X obj 175 183 s \$0.init.select.beats.label;
#X obj 5 183 s \$0.init.select.ticks.label;
#X msg 518 160 color \$1 \$1 \$1;
#X msg 519 105 #8080a0;
#X obj 519 137 symbol;
#X msg 577 105 #00ff00;
#X obj 519 81 sel 0 1, f 20;
#X obj 519 25 netpd_r \$1 restart/active;
#X obj 518 183 s \$0.loop.button.front;
#X obj 665 185 s \$1-restart/pos;
#X obj 665 139 symbol;
#X msg 720 111 #00ff00;
#X msg 665 110 #bcbcdc;
#X msg 665 162 color #404060 \$1 \$1;
#X obj 665 86 sel 0 1, f 20;
#X obj 770 185 s \$0.restart.label;
#X connect 0 0 8 0;
#X connect 2 0 1 0;
#X connect 3 0 5 0;
#X connect 4 0 5 0;
#X connect 5 0 2 0;
#X connect 6 0 7 0;
#X connect 7 0 3 0;
#X connect 7 1 4 0;
#X connect 8 0 20 0;
#X connect 8 1 19 0;
#X connect 8 2 6 0;
#X connect 9 0 21 0;
#X connect 10 0 12 0;
#X connect 11 0 12 0;
#X connect 12 0 9 0;
#X connect 13 0 10 0;
#X connect 13 1 11 0;
#X connect 14 0 22 0;
#X connect 15 0 17 0;
#X connect 16 0 17 0;
#X connect 17 0 14 0;
#X connect 18 0 15 0;
#X connect 18 1 16 0;
#X connect 19 0 13 0;
#X connect 20 0 18 0;
#X connect 23 0 29 0;
#X connect 24 0 25 0;
#X connect 25 0 23 0;
#X connect 26 0 25 0;
#X connect 27 0 24 0;
#X connect 27 1 26 0;
#X connect 28 0 27 0;
#X connect 28 0 35 0;
#X connect 31 0 34 0;
#X connect 32 0 31 0;
#X connect 33 0 31 0;
#X connect 34 0 30 0;
#X connect 34 0 36 0;
#X connect 35 0 33 0;
#X connect 35 1 32 0;
#X restore 12 191 pd restart;
#X restore 180 44 pd gui.stuff;
#X msg 607 84 #606080;
#X msg 607 54 #8080a0;
#X msg 737 24 #ccffcc;
#X msg 607 24 #bcbcdc;
#X obj 666 20 cnv 24 48 24 empty empty empty 20 12 0 10 #bcbcdc #404040 0;
#X obj 796 20 cnv 24 48 24 empty empty empty 20 12 0 10 #ccffcc #404040 0;
#X obj 666 50 cnv 24 48 24 empty empty empty 20 12 0 10 #8080a0 #404040 0;
#X obj 666 80 cnv 24 48 24 empty empty empty 20 12 0 10 #606080 #404040 0;
#X obj 666 110 cnv 24 48 24 empty empty empty 20 12 0 10 #404060 #404040 0;
#X msg 607 114 #404060;
#X obj 796 50 cnv 24 48 24 empty empty empty 20 12 0 10 #00ff00 #404040 0;
#X msg 737 54 #00ff00;
#X text 9 86 -- INIT -------------;
#N canvas 1683 290 377 385 restart 0;
#X obj 14 19 netpd_f \$1 restart/select 0;
#X obj 31 239 netpd_f \$1 restart/pos 0;
#X obj 128 287 netpd_f \$1 restart/active 0;
#X obj 41 77 netpd_r \$1 beatsperbar;
#X obj 119 103 netpd_r \$1 ticksperbeat;
#X obj 14 157 *;
#X obj 43 127 t b a;
#X obj 14 115 f;
#X obj 14 183 list prepend 0;
#X obj 105 145 f;
#X obj 105 183 list prepend 1;
#X msg 198 158 1;
#X obj 198 183 list prepend 2;
#X obj 14 215 route 0, f 46;
#X obj 14 42 t b a, f 46;
#X obj 31 262 t b a;
#X obj 14 286 *;
#X obj 14 344 s \$0.untik;
#X msg 14 310 restart.pos \$1;
#X msg 128 312 restart.active \$1;
#X connect 0 0 14 0;
#X connect 1 0 15 0;
#X connect 2 0 19 0;
#X connect 3 0 7 0;
#X connect 4 0 6 0;
#X connect 4 0 9 0;
#X connect 5 0 8 0;
#X connect 6 0 5 0;
#X connect 6 1 5 1;
#X connect 7 0 5 0;
#X connect 8 0 13 0;
#X connect 9 0 10 0;
#X connect 10 0 13 0;
#X connect 11 0 12 0;
#X connect 12 0 13 0;
#X connect 13 0 16 0;
#X connect 14 0 7 0;
#X connect 14 0 9 0;
#X connect 14 0 11 0;
#X connect 14 1 13 1;
#X connect 15 0 16 0;
#X connect 15 1 16 1;
#X connect 16 0 18 0;
#X connect 18 0 17 0;
#X connect 19 0 17 0;
#X restore 180 164 pd restart;
#X obj 377 171 r UNTIK;
#X obj 377 217 route pos;
#X obj 456 220 route pos;
#X floatatom 456 242 5 0 0 0 - - - 0;
#X floatatom 377 240 5 0 0 0 - - - 0;
#X obj 377 194 route main bla, f 27;
#N canvas 1195 351 740 346 pattern-players 1;
#X obj 8 7 untik-pattern-instance \$0 0;
#X obj 8 27 untik-pattern-instance \$0 1;
#X obj 8 47 untik-pattern-instance \$0 2;
#X obj 8 67 untik-pattern-instance \$0 3;
#X obj 8 87 untik-pattern-instance \$0 4;
#X obj 8 107 untik-pattern-instance \$0 5;
#X obj 8 127 untik-pattern-instance \$0 6;
#X obj 8 147 untik-pattern-instance \$0 7;
#X obj 396 122 text get \$1-patterns;
#X obj 388 186 print;
#X obj 396 50 until;
#X obj 396 73 f;
#X obj 396 96 t a a;
#X obj 443 81 + 1;
#X obj 513 146 sel 2;
#X msg 441 48 0;
#X obj 396 24 t b b, f 8;
#X connect 8 0 9 0;
#X connect 8 1 14 0;
#X connect 10 0 11 0;
#X connect 11 0 12 0;
#X connect 12 0 8 0;
#X connect 12 1 13 0;
#X connect 13 0 11 1;
#X connect 14 0 10 1;
#X connect 15 0 11 1;
#X connect 16 0 10 0;
#X connect 16 1 15 0;
#X restore 180 194 pd pattern-players;
#X obj 656 212 r UNTIK;
#X obj 656 235 route bla;
#X obj 660 258 print bla;
#X connect 3 0 8 0;
#X connect 8 0 10 0;
#X connect 8 2 9 0;
#X connect 10 0 11 0;
#X connect 28 0 33 0;
#X connect 29 0 32 0;
#X connect 30 0 31 0;
#X connect 33 0 29 0;
#X connect 33 1 30 0;
#X connect 35 0 36 0;
#X connect 36 0 37 0;
