#N canvas 637 252 1220 423 10;
#N canvas 624 75 434 119 NETPD 0;
#X msg 12 8 version 0 0 0;
#N canvas 315 75 403 152 abslist 0;
#X msg 6 10 untik-pattern-player;
#X msg 6 33 untik-pattern-editor;
#X restore 12 38 pd abslist;
#X restore 10 14 pd NETPD 2 0;
#X obj 10 69 netpd_head \$1 untik;
#N canvas 594 44 761 319 \$1-untik 1;
#X text 21 36 [ PUT YOUR GUI STUFF HERE ... ];
#X text 26 88 To see the main patch use the menu:;
#X text 47 112 'Window' -> 'Parent Window';
#X obj 82 227 untik-pattern-editor;
#X floatatom 82 148 5 1 32 0 - - - 0;
#X obj 82 174 pack f 5;
#X floatatom 137 150 5 0 0 0 - - - 0;
#X connect 4 0 5 0;
#X connect 5 0 3 0;
#X connect 6 0 5 1;
#X restore 10 42 pd \$1-untik;
#X obj 184 44 tgl 20 0 empty empty empty 0 -10 0 12 #fcfcfc #000000 #000000 0 1;
#X msg 239 106 tempo \$1 permin;
#X floatatom 239 45 5 0 0 0 - - - 0;
#X obj 239 69 * 4;
#X obj 184 128 t a;
#X msg 184 69 run \$1;
#X obj 184 158 s \$0.untik;
#X obj 372 160 metro 1 120 permin;
#X obj 372 183 f;
#X obj 372 234 t a a;
#X obj 461 197 + 1, f 4;
#X obj 372 206 mod 25200;
#X text 370 47 MAIN METRO;
#X msg 372 122 tempo \$1 \$2;
#X msg 372 259 step \$1;
#X obj 372 71 r \$0.untik;
#X obj 372 294 s \$0.untik;
#X obj 372 94 route tempo run set;
#X obj 56 222 r \$0.untik;
#X floatatom 56 268 5 0 0 0 - - - 0;
#X obj 56 295 bng 30 100 20 0 empty empty empty 0 -10 0 12 #fcfcfc #000000 #000000;
#X obj 56 245 route step;
#X obj 611 130 hsl 25 20 -0.5 0.5 0 0 empty empty empty -2 -10 0 12 #fcfcfc #000000 #000000 0 1;
#X obj 641 130 hsl 25 20 -0.5 0.5 0 0 empty empty empty -2 -10 0 12 #fcfcfc #000000 #000000 0 1;
#X obj 671 130 hsl 25 20 -0.5 0.5 0 0 empty empty empty -2 -10 0 12 #fcfcfc #000000 #000000 0 1;
#X obj 701 130 hsl 25 20 -0.5 0.5 0 0 empty empty empty -2 -10 0 12 #fcfcfc #000000 #000000 0 1;
#X obj 608 171 pack f f f f, f 17;
#X obj 545 195 list append;
#X obj 545 145 t b b;
#X obj 545 97 bng 20 250 50 0 empty empty empty 0 -10 0 12 #fcfcfc #000000 #000000;
#X msg 608 103 0;
#X obj 545 241 s pattern;
#N canvas 476 95 594 562 convert-to-shuffle-pattern 0;
#X obj 49 134 until;
#X obj 49 247 list store, f 15;
#X obj 49 161 f;
#X obj 87 161 + 1;
#X msg 49 220 get \$1 1;
#X obj 49 103 t b b a, f 15;
#X obj 49 188 t a a;
#X obj 49 302 pack f f;
#X obj 49 327 +;
#X obj 136 125 t a a;
#X msg 163 151 \$1;
#N canvas 0 0 353 220 re-arrange 0;
#X obj 10 4 inlet;
#X obj 10 186 outlet;
#X obj 10 28 list split 1;
#X obj 10 66 moses 0;
#X obj 10 116 list prepend;
#X obj 49 151 list append;
#X connect 0 0 2 0;
#X connect 2 0 3 0;
#X connect 2 1 4 1;
#X connect 2 1 5 1;
#X connect 3 0 4 0;
#X connect 3 1 5 0;
#X connect 4 0 1 0;
#X connect 5 0 1 0;
#X restore 136 204 pd re-arrange;
#X obj 163 175 < 0;
#X msg 92 134 0;
#X obj 94 277 +;
#X obj 30 426 list store;
#X msg 49 352 append \$1;
#X obj 22 70 t b a;
#X obj 22 388 t b b;
#X obj 22 21 inlet;
#X obj 30 521 outlet;
#X text 222 204 if first element is negative \, put it at the end of the list;
#X text 111 19 This subpatch converts the incoming list of deviations to consecutive time ratios. The idea is to feed the values sequentially to a metro \, so that it plays the intended shuffle pattern.;
#X obj 30 449 t a a, f 12;
#X obj 99 472 list length;
#X obj 30 499 list prepend;
#X connect 0 0 2 0;
#X connect 1 0 7 0;
#X connect 1 1 0 1;
#X connect 2 0 3 0;
#X connect 2 0 6 0;
#X connect 3 0 2 1;
#X connect 4 0 1 0;
#X connect 5 0 0 0;
#X connect 5 1 13 0;
#X connect 5 2 9 0;
#X connect 6 0 4 0;
#X connect 6 1 14 0;
#X connect 7 0 8 0;
#X connect 8 0 16 0;
#X connect 9 0 11 0;
#X connect 9 1 10 0;
#X connect 10 0 12 0;
#X connect 11 0 1 1;
#X connect 12 0 14 1;
#X connect 13 0 2 1;
#X connect 14 0 7 1;
#X connect 15 0 23 0;
#X connect 16 0 15 0;
#X connect 17 0 18 0;
#X connect 17 1 5 0;
#X connect 18 0 15 1;
#X connect 18 1 15 0;
#X connect 19 0 17 0;
#X connect 23 0 25 0;
#X connect 23 1 24 0;
#X connect 24 0 25 1;
#X connect 25 0 20 0;
#X restore 545 218 pd convert-to-shuffle-pattern;
#X obj 608 79 loadbang;
#X text 550 54 PATTERN GENERATOR;
#X obj 776 18 loadbang;
#X msg 776 41 4 3;
#X obj 776 64 t a a a, f 22;
#X obj 905 88 /;
#X msg 840 88 \$2;
#X msg 885 136 0;
#X obj 840 136 until;
#X obj 840 161 f;
#X obj 840 185 t a a;
#X obj 880 166 + 1;
#X obj 840 211 *, f 11;
#X obj 815 288 list store;
#X msg 840 236 append \$1;
#X obj 776 245 t a b b;
#X obj 776 314 list append;
#X listbox 776 338 22 0 0 0 - - - 0;
#X msg 776 91 \$1;
#X obj 840 111 t a b, f 8;
#X listbox 822 41 8 0 0 0 - - - 0;
#X obj 776 363 s pattern;
#X obj 1015 66 r \$0.untik;
#X obj 1132 63 r pattern;
#X obj 1063 130 r \$0.untik;
#X floatatom 1063 176 5 0 0 0 - - - 0;
#X obj 1063 203 bng 30 100 20 0 empty empty empty 0 -10 0 12 #fcfcfc #000000 #000000;
#X obj 1063 153 route step;
#X obj 1013 192 bng 30 100 20 0 empty empty empty 0 -10 0 12 #fcfcfc #000000 #000000;
#N canvas 1385 370 450 300 click 0;
#X obj 28 25 noise~;
#X obj 89 77 vline~;
#X obj 42 105 *~;
#X msg 108 36 1 \, 0 10;
#X obj 42 128 outlet~;
#X obj 110 8 inlet;
#X connect 0 0 2 0;
#X connect 1 0 2 1;
#X connect 2 0 4 0;
#X connect 3 0 1 0;
#X connect 5 0 3 0;
#X restore 1066 256 pd click;
#N canvas 1385 370 450 300 click 0;
#X obj 28 25 noise~;
#X obj 89 77 vline~;
#X obj 42 105 *~;
#X msg 108 36 1 \, 0 10;
#X obj 42 128 outlet~;
#X obj 110 8 inlet;
#X connect 0 0 2 0;
#X connect 1 0 2 1;
#X connect 2 0 4 0;
#X connect 3 0 1 0;
#X connect 5 0 3 0;
#X restore 1002 258 pd click;
#X obj 1007 317 dac~;
#X obj 1015 89 untik-pattern-player;
#X msg 298 78 set \$1;
#X floatatom 295 46 5 0 0 0 - - - 0;
#X obj 979 150 route step;
#X obj 930 218 route ttt;
#X obj 930 241 print;
#X obj 111 336 del 10;
#X obj 111 359 print -------------------------------;
#X msg 711 99 0;
#X connect 3 0 8 0;
#X connect 4 0 7 0;
#X connect 5 0 6 0;
#X connect 6 0 4 0;
#X connect 7 0 9 0;
#X connect 8 0 7 0;
#X connect 10 0 11 0;
#X connect 11 0 14 0;
#X connect 12 0 17 0;
#X connect 12 1 13 0;
#X connect 13 0 11 1;
#X connect 14 0 12 0;
#X connect 16 0 10 0;
#X connect 17 0 19 0;
#X connect 18 0 20 0;
#X connect 20 0 16 0;
#X connect 20 1 10 0;
#X connect 20 2 11 1;
#X connect 21 0 24 0;
#X connect 22 0 23 0;
#X connect 23 0 74 0;
#X connect 24 0 22 0;
#X connect 25 0 29 0;
#X connect 26 0 29 1;
#X connect 27 0 29 2;
#X connect 28 0 29 3;
#X connect 29 0 30 1;
#X connect 30 0 35 0;
#X connect 31 0 30 0;
#X connect 31 1 29 0;
#X connect 32 0 31 0;
#X connect 33 0 25 0;
#X connect 33 0 26 0;
#X connect 33 0 27 0;
#X connect 33 0 28 0;
#X connect 35 0 34 0;
#X connect 36 0 33 0;
#X connect 38 0 39 0;
#X connect 39 0 40 0;
#X connect 40 0 54 0;
#X connect 40 1 42 0;
#X connect 40 2 41 0;
#X connect 41 0 48 1;
#X connect 42 0 55 0;
#X connect 43 0 45 1;
#X connect 44 0 45 0;
#X connect 45 0 46 0;
#X connect 46 0 48 0;
#X connect 46 1 47 0;
#X connect 47 0 45 1;
#X connect 48 0 50 0;
#X connect 49 0 52 1;
#X connect 50 0 49 0;
#X connect 51 0 52 0;
#X connect 51 1 49 1;
#X connect 51 2 49 0;
#X connect 52 0 53 0;
#X connect 53 0 57 0;
#X connect 54 0 51 0;
#X connect 55 0 44 0;
#X connect 55 1 43 0;
#X connect 56 0 40 0;
#X connect 58 0 68 0;
#X connect 59 0 68 1;
#X connect 60 0 63 0;
#X connect 61 0 62 0;
#X connect 62 0 65 0;
#X connect 63 0 61 0;
#X connect 64 0 66 0;
#X connect 65 0 67 1;
#X connect 66 0 67 0;
#X connect 68 0 71 0;
#X connect 68 0 72 0;
#X connect 69 0 7 0;
#X connect 70 0 69 0;
#X connect 71 0 64 0;
#X connect 72 0 73 0;
#X connect 74 0 75 0;
#X connect 76 0 27 0;
