#N struct bar-template float x float clr;
#N canvas 523 129 677 635 12;
#X declare -path abs;
#X msg 92 361 start;
#X msg 148 368 stop;
#N canvas 608 487 677 398 \$0.gop 0;
#N canvas 0 50 450 250 (subpatch) 0;
#X array \$0.wavedisplay 1200 float 2;
#X coords 0 1 1200 -1 600 200 1 0 0;
#X restore 20 20 graph;
#X scalar bar-template 298.485 966 \;;
#X scalar bar-template 23.2323 696 \;;
#X coords 0 0 599 199 600 200 2 20 20;
#X restore 19 29 pd \$0.gop;
#N canvas 605 248 521 374 guistuff 0;
#N canvas 276 548 430 87 bar-template 0;
#X obj 7 35 struct bar-template float x float clr;
#X obj 7 11 drawpolygon clr 1 x 1 x 199;
#X restore 46 37 pd bar-template;
#X obj 296 120 s pd-\$0.gop;
#X obj 64 217 set bar-template x;
#X obj 230 223 pointer;
#X obj 230 169 \$0;
#X msg 230 199 traverse pd-\$1.gop \, next;
#X obj 64 188 * 300;
#X msg 296 93 scalar bar-template \$1 \$2;
#X msg 296 64 20 966 \, 40 696;
#X obj 64 337 set bar-template x;
#X obj 230 343 pointer;
#X obj 230 289 \$0;
#X obj 64 308 * 300;
#X msg 230 319 traverse pd-\$1.gop \, next \, next;
#X obj 202 41 t b b;
#X obj 202 15 loadbang;
#X obj 64 164 r \$0.endpoint;
#X obj 64 284 r \$0.startpoint;
#X connect 3 0 2 1;
#X connect 4 0 5 0;
#X connect 5 0 3 0;
#X connect 6 0 2 0;
#X connect 7 0 1 0;
#X connect 8 0 7 0;
#X connect 10 0 9 1;
#X connect 11 0 13 0;
#X connect 12 0 9 0;
#X connect 13 0 10 0;
#X connect 14 0 4 0;
#X connect 14 0 11 0;
#X connect 15 0 14 0;
#X connect 16 0 6 0;
#X connect 17 0 12 0;
#X restore 140 295 pd guistuff;
#X obj 22 229 hsl 595 15 0 1 0 0 \$0.endpoint \$0.endpoint empty -2
-8 0 10 -261234 -261234 -1 59100 0;
#X obj 25 437 table \$0.recording 80000;
#X obj 27 407 tabwrite~ \$0.recording;
#X obj 22 14 hsl 595 15 0 1 0 0 \$0.startpoint \$0.startpoint empty
-2 -8 0 10 -204786 -204786 -1 4600 0;
#X obj 33 327 adc~ 1;
#X obj 22 259 declare -path abs;
#X obj 123 576 rh_wavedisplay \$0.recording \$0.wavedisplay;
#X msg 170 511 update;
#X obj 256 478 vline~;
#X obj 256 504 tabread4~ \$0.recording;
#X obj 257 537 dac~;
#X obj 270 261 r \$0.startpoint;
#X obj 270 285 * 80000;
#X obj 320 332 * 80000;
#X obj 320 307 r \$0.endpoint;
#X obj 256 351 f;
#X obj 256 375 pack f f;
#X obj 253 324 bng 15 250 50 0 empty empty empty 17 7 0 10 -262144
-1 -1;
#N canvas 0 106 415 277 length(ms) 0;
#X obj 19 17 inlet;
#X obj 19 205 outlet;
#X obj 19 173 list append;
#X obj 19 41 t a a;
#X obj 93 78 -;
#X obj 93 102 abs;
#X obj 93 134 rh_samp2ms;
#X connect 0 0 3 0;
#X connect 2 0 1 0;
#X connect 3 0 2 0;
#X connect 3 1 4 0;
#X connect 4 0 5 0;
#X connect 5 0 6 0;
#X connect 6 0 2 1;
#X restore 256 402 pd length(ms);
#N canvas 1210 246 308 296 pitch 0;
#X obj 194 147 pow;
#X obj 194 54 loadbang;
#X msg 221 99 1;
#X obj 221 121 / 12;
#X obj 194 76 t b b;
#X msg 194 99 2;
#X obj 136 119 pow;
#X obj 136 82 f;
#X obj 136 51 t b f;
#X obj 24 243 outlet;
#X obj 24 24 inlet;
#X obj 76 144 t b a;
#X obj 136 22 inlet;
#X obj 24 48 list split 2;
#X obj 24 211 list append;
#X obj 64 172 /;
#X connect 0 0 7 1;
#X connect 1 0 4 0;
#X connect 2 0 3 0;
#X connect 3 0 0 1;
#X connect 4 0 5 0;
#X connect 4 1 2 0;
#X connect 5 0 0 0;
#X connect 6 0 11 0;
#X connect 7 0 6 0;
#X connect 8 0 7 0;
#X connect 8 1 6 1;
#X connect 10 0 13 0;
#X connect 11 0 15 0;
#X connect 11 1 15 1;
#X connect 12 0 8 0;
#X connect 13 0 14 0;
#X connect 13 1 15 0;
#X connect 14 0 9 0;
#X connect 15 0 14 1;
#X restore 256 428 pd pitch;
#X msg 256 452 \$1 \, \$2 \$3;
#X floatatom 417 380 5 0 0 0 - - -;
#X connect 0 0 6 0;
#X connect 1 0 6 0;
#X connect 8 0 6 0;
#X connect 11 0 10 0;
#X connect 12 0 13 0;
#X connect 13 0 14 0;
#X connect 13 0 14 1;
#X connect 15 0 16 0;
#X connect 16 0 19 1;
#X connect 17 0 20 1;
#X connect 18 0 17 0;
#X connect 19 0 20 0;
#X connect 20 0 22 0;
#X connect 21 0 19 0;
#X connect 22 0 23 0;
#X connect 23 0 24 0;
#X connect 24 0 12 0;
#X connect 25 0 23 1;
