#N struct window-frame float x float w;
#N struct 1003.cue-marker float x float clr float id;
#N struct 1003.cue-dtl float x float clr float id float vis;
#N canvas 260 106 748 752 10;
#X declare -path abs;
#X msg 92 511 start;
#X msg 148 518 stop;
#N canvas 1008 252 317 252 guistuff 0;
#N canvas 73 266 450 300 window-frame 0;
#X obj 57 62 struct window-frame float x float w;
#X obj 58 37 drawpolygon 555 1 1 1 w 1 w 79 1 79 1 1;
#X restore 17 44 pd window-frame;
#N canvas 256 532 430 87 cue-marker 0;
#X obj 7 35 struct \$0.cue-marker float x float clr float id;
#X obj 7 11 drawpolygon clr 1 0 1 0 79;
#X restore 16 17 pd cue-marker;
#N canvas 0 106 450 300 create.scalars 0;
#X obj 58 203 s pd-\$0.gop;
#X obj 12 15 loadbang;
#X obj 12 41 t b b b;
#X msg 58 78 clear \, scalar window-frame 30 70;
#X obj 35 136 list prepend \$0;
#X obj 12 239 outlet;
#X msg 35 112 0 900 0 \, 0 90 1 \, 0 9 2;
#X msg 35 161 scalar \$1.cue-marker \$2 \$3 \$4 \, scalar \$1.cue-dtl
\$2 \$3 \$4 0;
#X connect 1 0 2 0;
#X connect 2 0 5 0;
#X connect 2 1 6 0;
#X connect 2 2 3 0;
#X connect 3 0 0 0;
#X connect 4 0 7 0;
#X connect 6 0 4 0;
#X connect 7 0 0 0;
#X restore 18 69 pd create.scalars;
#N canvas 85 283 450 351 window-frame.control 0;
#X obj 216 169 pointer;
#X obj 216 115 \$0;
#X obj 7 326 set window-frame x w;
#X obj 7 6 r \$0.window.range;
#X obj 7 80 unpack f f;
#X obj 7 128 t a a, f 10;
#X obj 75 157 pack f f;
#X msg 75 181 \$2 \$1;
#X obj 75 205 -;
#X msg 216 144 traverse pd-\$1.gop \, next;
#X obj 7 30 t a b;
#X obj 39 54 array size \$0.recording;
#X obj 112 196 r \$0.vis.width;
#X obj 216 82 inlet;
#X obj 7 104 /;
#X obj 64 104 /;
#X obj 7 262 *;
#X obj 75 259 *;
#X floatatom 31 175 5 0 0 0 - - -;
#X obj 7 285 - 1;
#X obj 112 223 - 1;
#X obj 75 282 + 1;
#X connect 0 0 2 2;
#X connect 1 0 9 0;
#X connect 3 0 10 0;
#X connect 4 0 14 0;
#X connect 4 1 15 0;
#X connect 5 0 16 0;
#X connect 5 0 18 0;
#X connect 5 1 6 0;
#X connect 6 0 7 0;
#X connect 7 0 8 0;
#X connect 8 0 17 0;
#X connect 9 0 0 0;
#X connect 10 0 4 0;
#X connect 10 1 11 0;
#X connect 11 0 14 1;
#X connect 11 0 15 1;
#X connect 12 0 20 0;
#X connect 13 0 1 0;
#X connect 14 0 5 0;
#X connect 15 0 6 1;
#X connect 16 0 19 0;
#X connect 17 0 21 0;
#X connect 19 0 2 0;
#X connect 20 0 16 1;
#X connect 20 0 17 1;
#X connect 21 0 2 1;
#X restore 18 97 pd window-frame.control;
#N canvas 1031 135 413 578 update.cues 0;
#X obj 236 120 \$0;
#X obj 178 176 pointer \$0.cue-marker;
#X msg 236 145 traverse pd-\$1.gop;
#X msg 178 148 next;
#X obj 210 225 get \$0.cue-marker id;
#X obj 178 95 t b b a, f 17;
#X obj 178 124 until;
#X obj 178 200 t a a;
#X obj 210 249 sel 0;
#X obj 23 490 set \$0.cue-marker x;
#X obj 50 104 r \$0.window.range;
#X obj 50 127 t a a;
#X obj 50 180 -;
#X obj 23 76 r \$0.position.in.window;
#X obj 23 207 *;
#X msg 50 151 \$2 \$1;
#X msg 93 153 \$1;
#X obj 23 232 +;
#X obj 23 324 t a b;
#X obj 50 349 array size \$0.recording;
#X obj 23 371 /;
#X obj 60 395 r \$0.vis.width;
#X obj 23 412 *;
#X obj 60 418 0;
#X obj 249 342 tabwrite \$0.cues;
#X obj 23 297 t a a;
#X obj 178 37 r \$0.cue.0;
#X obj 258 37 r \$0.cue.1;
#X obj 337 37 r \$0.cue.2;
#X msg 178 61 0;
#X msg 258 61 1;
#X msg 337 61 2;
#X connect 0 0 2 0;
#X connect 1 0 7 0;
#X connect 1 2 6 1;
#X connect 2 0 1 0;
#X connect 3 0 1 0;
#X connect 4 0 8 0;
#X connect 5 0 6 0;
#X connect 5 1 0 0;
#X connect 5 2 8 1;
#X connect 5 2 24 1;
#X connect 6 0 3 0;
#X connect 7 0 9 1;
#X connect 7 1 4 0;
#X connect 8 0 6 1;
#X connect 10 0 11 0;
#X connect 11 0 15 0;
#X connect 11 1 16 0;
#X connect 12 0 14 1;
#X connect 13 0 14 0;
#X connect 14 0 17 0;
#X connect 15 0 12 0;
#X connect 16 0 17 1;
#X connect 17 0 25 0;
#X connect 18 0 20 0;
#X connect 18 1 19 0;
#X connect 19 0 20 1;
#X connect 20 0 22 0;
#X connect 21 0 23 0;
#X connect 22 0 9 0;
#X connect 23 0 22 1;
#X connect 25 0 18 0;
#X connect 25 1 24 0;
#X connect 26 0 29 0;
#X connect 27 0 30 0;
#X connect 28 0 31 0;
#X connect 29 0 5 0;
#X connect 30 0 5 0;
#X connect 31 0 5 0;
#X restore 18 121 pd update.cues;
#N canvas 1003 668 450 300 dtl.sld.clr 0;
#X obj 12 116 s \$0.position.in.window.r;
#X msg 12 84 color \$1 \$1 -1;
#X msg 12 32 13;
#X msg 78 33 16;
#X msg 145 33 18;
#X msg 188 97 10;
#X obj 188 72 r \$0.loadbang;
#X obj 12 9 r \$0.cue.0;
#X obj 78 9 r \$0.cue.1;
#X obj 145 9 r \$0.cue.2;
#X connect 1 0 0 0;
#X connect 2 0 1 0;
#X connect 3 0 1 0;
#X connect 4 0 1 0;
#X connect 5 0 1 0;
#X connect 6 0 5 0;
#X connect 7 0 2 0;
#X connect 8 0 3 0;
#X connect 9 0 4 0;
#X restore 110 120 pd dtl.sld.clr;
#N canvas 256 532 430 87 cue-dtl 0;
#X obj 7 11 drawpolygon -v vis clr 1 0 81 0 199;
#X obj 7 35 struct \$0.cue-dtl float x float clr float id float vis
;
#X restore 106 17 pd cue-dtl;
#N canvas 1031 135 388 513 update.cue.dtl 0;
#X obj 236 120 \$0;
#X msg 236 145 traverse pd-\$1.gop;
#X msg 178 148 next;
#X obj 178 95 t b b a, f 17;
#X obj 178 124 until;
#X obj 178 200 t a a;
#X obj 210 249 sel 0;
#X obj 46 34 r \$0.window.range;
#X obj 17 9 r \$0.position.in.window;
#X obj 71 412 r \$0.vis.width;
#X obj 56 438 *;
#X obj 178 176 pointer \$0.cue-dtl;
#X obj 210 225 get \$0.cue-dtl id;
#X obj 17 474 set \$0.cue-dtl x vis;
#X obj 17 60 b;
#X obj 17 83 del 0;
#X msg 17 106 0 \, 1 \, 2;
#X obj 17 130 t a a;
#X obj 50 186 r \$0.window.range;
#X obj 17 241 -;
#X obj 50 209 t a a;
#X msg 50 232 \$1;
#X msg 82 233 \$2 \$1;
#X obj 82 256 -;
#X obj 17 294 /;
#X obj 17 317 moses 0;
#X obj 56 340 moses 1;
#X obj 56 363 t a b;
#X msg 83 388 1;
#X msg 17 416 0;
#X obj 17 153 tabread \$0.cues;
#X obj 17 439 t a a;
#X connect 0 0 1 0;
#X connect 1 0 11 0;
#X connect 2 0 11 0;
#X connect 3 0 4 0;
#X connect 3 1 0 0;
#X connect 3 2 6 1;
#X connect 4 0 2 0;
#X connect 5 0 13 2;
#X connect 5 1 12 0;
#X connect 6 0 4 1;
#X connect 7 0 14 0;
#X connect 8 0 14 0;
#X connect 9 0 10 1;
#X connect 10 0 13 0;
#X connect 11 0 5 0;
#X connect 11 2 4 1;
#X connect 12 0 6 0;
#X connect 14 0 15 0;
#X connect 15 0 16 0;
#X connect 16 0 17 0;
#X connect 17 0 30 0;
#X connect 17 1 3 0;
#X connect 18 0 20 0;
#X connect 19 0 24 0;
#X connect 20 0 21 0;
#X connect 20 1 22 0;
#X connect 21 0 19 1;
#X connect 22 0 23 0;
#X connect 23 0 24 1;
#X connect 24 0 25 0;
#X connect 25 0 29 0;
#X connect 25 1 26 0;
#X connect 26 0 27 0;
#X connect 26 1 29 0;
#X connect 27 0 10 0;
#X connect 27 1 28 0;
#X connect 28 0 13 1;
#X connect 29 0 31 0;
#X connect 30 0 19 0;
#X connect 31 0 13 0;
#X connect 31 1 13 1;
#X restore 18 141 pd update.cue.dtl;
#X connect 2 0 3 0;
#X restore 447 284 pd guistuff;
#X obj 22 229 hsl 595 10 0 1 0 0 \$0.position.in.window \$0.position.in.window.r
empty -2 -8 0 10 -24198 -24198 -1 29700 0;
#X obj 27 557 tabwrite~ \$0.recording;
#X obj 27 497 adc~ 1;
#X obj 30 457 declare -path abs;
#X obj 256 538 vline~;
#X obj 256 564 tabread4~ \$0.recording;
#X obj 270 280 r \$0.startpoint;
#X obj 270 345 * 80000;
#X obj 320 392 * 80000;
#X obj 320 367 r \$0.endpoint;
#X obj 256 411 f;
#X obj 256 435 pack f f;
#X obj 253 384 bng 15 250 50 0 empty empty empty 17 7 0 10 -262144
-1 -1;
#N canvas 0 106 415 277 length(ms) 0;
#X obj 19 17 inlet;
#X obj 19 205 outlet;
#X obj 19 173 list append;
#X obj 19 41 t a a;
#X obj 93 78 -;
#X obj 93 102 abs;
#X obj 93 134 rh_samp2ms;
#X connect 0 0 3 0;
#X connect 2 0 1 0;
#X connect 3 0 2 0;
#X connect 3 1 4 0;
#X connect 4 0 5 0;
#X connect 5 0 6 0;
#X connect 6 0 2 1;
#X restore 256 462 pd length(ms);
#N canvas 1210 246 308 296 pitch 0;
#X obj 194 147 pow;
#X obj 194 54 loadbang;
#X msg 221 99 1;
#X obj 221 121 / 12;
#X obj 194 76 t b b;
#X msg 194 99 2;
#X obj 136 119 pow;
#X obj 136 82 f;
#X obj 136 51 t b f;
#X obj 24 243 outlet;
#X obj 24 24 inlet;
#X obj 76 144 t b a;
#X obj 136 22 inlet;
#X obj 24 48 list split 2;
#X obj 24 211 list append;
#X obj 64 172 /;
#X connect 0 0 7 1;
#X connect 1 0 4 0;
#X connect 2 0 3 0;
#X connect 3 0 0 1;
#X connect 4 0 5 0;
#X connect 4 1 2 0;
#X connect 5 0 0 0;
#X connect 6 0 11 0;
#X connect 7 0 6 0;
#X connect 8 0 7 0;
#X connect 8 1 6 1;
#X connect 10 0 13 0;
#X connect 11 0 15 0;
#X connect 11 1 15 1;
#X connect 12 0 8 0;
#X connect 13 0 14 0;
#X connect 13 1 15 0;
#X connect 14 0 9 0;
#X connect 15 0 14 1;
#X restore 256 488 pd pitch;
#X msg 256 512 \$1 \, \$2 \$3;
#X floatatom 417 440 5 0 0 0 - - -;
#X obj 489 239 hsl 128 15 0 1 0 0 \$0.zoom \$0.zoom.r zoom 2 8 0 10
-228856 -1 -1 0 1;
#N canvas 0 106 450 250 (subpatch) 0;
#X array \$0.wav.dtl 1200 float 2;
#X coords 0 1 1200 -1 600 120 1 0 0;
#X restore 19 109 graph;
#X obj 189 661 rh_wavedisplay \$0.recording \$0.wav.ov;
#X obj 449 392 rh_wavedisplay \$0.recording \$0.wav.dtl;
#X obj 19 93 cnv 15 100 15 empty empty empty 20 12 0 14 -262144 -66577
0;
#N canvas 0 50 450 250 (subpatch) 0;
#X array \$0.wav.ov 1200 float 2;
#X coords 0 1 1200 -1 600 80 1 0 0;
#X restore 19 29 graph;
#X obj 19 13 cnv 15 100 15 empty empty empty 20 12 0 14 -262144 -66577
0;
#X obj 22 19 hsl 595 10 0 1 0 0 \$0.window.position \$0.window.position
empty -2 -8 0 10 -228856 -228856 -1 35800 1;
#N canvas 598 479 677 501 \$0.gop 0;
#X scalar window-frame 343.636 28.1655 \;;
#X scalar 1003.cue-marker 325.104 900 0 \;;
#X scalar 1003.cue-dtl 3.03281 900 0 1 \;;
#X scalar 1003.cue-marker 299.034 90 1 \;;
#X scalar 1003.cue-dtl 44.85 90 1 1 \;;
#X scalar 1003.cue-marker 271.72 9 2 \;;
#X scalar 1003.cue-dtl 59.2189 9 2 1 \;;
#X coords 0 0 599 199 600 200 2 20 20;
#X restore 19 29 pd \$0.gop;
#X obj 19 239 bng 15 250 50 0 \$0.cue.0 \$0.cue.0 empty 17 7 0 10 -258113
-1 -1;
#X obj 34 239 bng 15 250 50 0 \$0.cue.1 \$0.cue.1 empty 17 7 0 10 -4034
-1 -1;
#X obj 49 239 bng 15 250 50 0 \$0.cue.2 \$0.cue.2 empty 17 7 0 10 -4160
-204800 -1;
#X obj 31 293 loadbang;
#X obj 31 317 \$0;
#X obj 119 306 bng 15 250 50 0 empty empty empty 17 7 0 10 -262144
-1 -1;
#N canvas 0 106 402 546 wav.detail 0;
#X obj 18 296 -;
#X obj 18 321 *;
#X obj 18 421 pack f f;
#X obj 18 172 pack f f;
#X obj 81 141 t b a;
#X msg 46 297 \$1;
#X msg 88 329 \$2;
#X obj 45 371 +;
#X obj 18 343 t a a;
#X obj 45 393 int;
#X obj 18 391 int;
#X msg 18 484 range \$1 \$2 \, update;
#X obj 91 450 s \$0.window.range;
#X obj 18 445 t a a;
#X obj 18 20 r \$0.window.position;
#X obj 123 46 r \$0.zoom;
#X obj 18 508 outlet;
#X obj 178 100 r \$0.zoom.max;
#X obj 159 77 r \$0.zoom.min;
#X obj 81 93 *;
#X obj 81 115 +;
#X msg 81 46 1 \$1;
#X obj 81 70 -;
#X obj 78 222 array size \$0.recording;
#X obj 18 199 t a a a b;
#X obj 18 248 list prepend;
#X msg 18 224 \$2;
#X obj 159 154 -;
#X obj 178 123 t b a a;
#X connect 0 0 1 0;
#X connect 1 0 8 0;
#X connect 2 0 13 0;
#X connect 3 0 24 0;
#X connect 4 0 3 0;
#X connect 4 1 3 1;
#X connect 5 0 1 1;
#X connect 6 0 7 1;
#X connect 7 0 9 0;
#X connect 8 0 10 0;
#X connect 8 1 7 0;
#X connect 9 0 2 1;
#X connect 10 0 2 0;
#X connect 11 0 16 0;
#X connect 13 0 11 0;
#X connect 13 1 12 0;
#X connect 14 0 3 0;
#X connect 15 0 21 0;
#X connect 17 0 28 0;
#X connect 18 0 27 0;
#X connect 19 0 20 0;
#X connect 20 0 4 0;
#X connect 21 0 22 0;
#X connect 22 0 19 0;
#X connect 23 0 25 1;
#X connect 24 0 26 0;
#X connect 24 1 5 0;
#X connect 24 2 6 0;
#X connect 24 3 23 0;
#X connect 25 0 0 0;
#X connect 26 0 25 0;
#X connect 27 0 19 1;
#X connect 28 0 27 0;
#X connect 28 1 27 1;
#X connect 28 2 20 1;
#X restore 449 363 pd wav.detail;
#X obj 29 692 table \$0.recording 0;
#X obj 29 589 r \$0.length;
#X obj 29 613 rh_ms2samp;
#X msg 29 637 resize \$1;
#X obj 29 661 s \$0.recording;
#X msg 189 637 source \$1.recording \, update;
#X obj 189 611 \$0;
#X obj 187 587 bng 15 250 50 0 empty empty empty 17 7 0 10 -262144
-1 -1;
#X obj 28 719 table \$0.cues 4;
#X obj 530 534 tabread \$0.cues;
#X floatatom 530 557 10 0 0 0 - - -;
#X msg 516 489 1;
#X msg 547 488 2;
#X msg 31 343 \; \$1.length 2000 \; \$1.vis.width 600 \; \$1.zoom.min
4000 \; \$1.zoom.max 600 \; \$1.loadbang bang;
#X msg 484 489 0;
#X obj 485 620 r \$0.loadbang;
#X obj 485 643 s \$0.zoom.r;
#X connect 0 0 4 0;
#X connect 1 0 4 0;
#X connect 5 0 4 0;
#X connect 7 0 8 0;
#X connect 9 0 10 0;
#X connect 10 0 13 1;
#X connect 11 0 14 1;
#X connect 12 0 11 0;
#X connect 13 0 14 0;
#X connect 14 0 16 0;
#X connect 15 0 13 0;
#X connect 16 0 17 0;
#X connect 17 0 18 0;
#X connect 18 0 7 0;
#X connect 19 0 17 1;
#X connect 32 0 33 0;
#X connect 33 0 49 0;
#X connect 34 0 33 0;
#X connect 35 0 23 0;
#X connect 37 0 38 0;
#X connect 38 0 39 0;
#X connect 39 0 40 0;
#X connect 41 0 22 0;
#X connect 42 0 41 0;
#X connect 43 0 42 0;
#X connect 45 0 46 0;
#X connect 47 0 45 0;
#X connect 48 0 45 0;
#X connect 50 0 45 0;
#X connect 51 0 52 0;
